<svg width="608" height="645" xmlns="http://www.w3.org/2000/svg" xmlns:xlink="http://www.w3.org/1999/xlink" overflow="hidden"><defs><clipPath id="clip0"><rect x="56" y="104" width="608" height="645"/></clipPath><clipPath id="clip1"><rect x="328" y="486" width="32" height="33"/></clipPath><clipPath id="clip2"><rect x="328" y="486" width="32" height="33"/></clipPath><clipPath id="clip3"><rect x="328" y="486" width="32" height="33"/></clipPath><clipPath id="clip4"><rect x="329" y="537" width="33" height="32"/></clipPath><clipPath id="clip5"><rect x="329" y="537" width="33" height="32"/></clipPath><clipPath id="clip6"><rect x="329" y="537" width="33" height="32"/></clipPath><clipPath id="clip7"><rect x="329" y="586" width="33" height="33"/></clipPath><clipPath id="clip8"><rect x="329" y="586" width="33" height="33"/></clipPath><clipPath id="clip9"><rect x="329" y="586" width="33" height="33"/></clipPath><clipPath id="clip10"><rect x="328" y="633" width="32" height="33"/></clipPath><clipPath id="clip11"><rect x="328" y="633" width="32" height="33"/></clipPath><clipPath id="clip12"><rect x="328" y="633" width="32" height="33"/></clipPath><clipPath id="clip13"><rect x="370" y="463" width="33" height="32"/></clipPath><clipPath id="clip14"><rect x="370" y="463" width="33" height="32"/></clipPath><clipPath id="clip15"><rect x="370" y="463" width="33" height="32"/></clipPath></defs><g clip-path="url(#clip0)" transform="translate(-56 -104)"><rect x="58.5001" y="105.5" width="604" height="642" stroke="#D9D9D9" stroke-width="1.33333" stroke-miterlimit="8" fill="none"/><rect x="83.5001" y="141.5" width="284" height="300" stroke="#4472C4" stroke-width="1.33333" stroke-miterlimit="8" fill="#FFFFFF"/><text font-family="Calibri,Calibri_MSFontService,sans-serif" font-weight="400" font-size="13" transform="translate(92.142 158)">1.<tspan font-family="Yu Gothic,Yu Gothic_MSFontService,sans-serif" font-size="13" x="27" y="0">対象ソフトウェアの利用側のインター</tspan><tspan font-family="Yu Gothic,Yu Gothic_MSFontService,sans-serif" font-size="13" x="24" y="16">フェイス（以下、上側のインターフェイ</tspan><tspan font-family="Yu Gothic,Yu Gothic_MSFontService,sans-serif" font-size="13" x="24" y="32">スと記す）を明確化する</tspan><tspan font-size="13" x="0" y="48">2.</tspan><tspan font-family="Yu Gothic,Yu Gothic_MSFontService,sans-serif" font-size="13" x="27" y="48">対象ソフトウェアが依存し、利用して</tspan><tspan font-family="Yu Gothic,Yu Gothic_MSFontService,sans-serif" font-size="13" x="24" y="64">いるライブラリを特定し、そのインター</tspan><tspan font-family="Yu Gothic,Yu Gothic_MSFontService,sans-serif" font-size="13" x="24" y="80">フェイス（以下、下側のインターフェイ</tspan><tspan font-family="Yu Gothic,Yu Gothic_MSFontService,sans-serif" font-size="13" x="24" y="96">スと記す）を明確化する</tspan><tspan font-size="13" x="0" y="112">3.</tspan><tspan font-family="Yu Gothic,Yu Gothic_MSFontService,sans-serif" font-size="13" x="24" y="112">下側のインターフェイスに相当するテス</tspan><tspan font-family="Yu Gothic,Yu Gothic_MSFontService,sans-serif" font-size="13" x="24" y="128">ト用のスタブを作成してライブラリ化す</tspan><tspan font-family="Yu Gothic,Yu Gothic_MSFontService,sans-serif" font-size="13" x="24" y="144">る</tspan><tspan font-size="13" x="0" y="160">4.</tspan><tspan font-family="Yu Gothic,Yu Gothic_MSFontService,sans-serif" font-size="13" x="24" y="160">上側のインターフェイスをコールするテ</tspan><tspan font-family="Yu Gothic,Yu Gothic_MSFontService,sans-serif" font-size="13" x="24" y="176">ストドライバーアプリケーションを作成</tspan><tspan font-family="Yu Gothic,Yu Gothic_MSFontService,sans-serif" font-size="13" x="24" y="192">する</tspan><tspan font-size="13" x="0" y="208">5.</tspan><tspan font-family="Yu Gothic,Yu Gothic_MSFontService,sans-serif" font-size="13" x="24" y="208">テストドライバーアプリ、対象ソフト</tspan><tspan font-family="Yu Gothic,Yu Gothic_MSFontService,sans-serif" font-size="13" x="24" y="224">ウェアをコンパイルし、テスト用スタブ</tspan><tspan font-family="Yu Gothic,Yu Gothic_MSFontService,sans-serif" font-size="13" x="24" y="240">ライブラリをリンクし、テストドライ</tspan><tspan font-family="Yu Gothic,Yu Gothic_MSFontService,sans-serif" font-size="13" x="24" y="256">バーアプリをビルド、実行できる環境を</tspan><tspan font-family="Yu Gothic,Yu Gothic_MSFontService,sans-serif" font-size="13" x="24" y="272">作成する</tspan></text><rect x="433.5" y="255.5" width="164" height="96" stroke="#FF0000" stroke-width="3" stroke-miterlimit="8" fill="#ED7D31"/><text fill="#FFFFFF" font-family="Calibri,Calibri_MSFontService,sans-serif" font-weight="400" font-size="13" transform="translate(465.055 307)">Refactoring<tspan font-size="13" x="65.3333" y="0">Target</tspan></text><rect x="433.5" y="198.5" width="164" height="37" stroke="#41719C" stroke-width="1.33333" stroke-miterlimit="8" fill="#5B9BD5"/><text fill="#FFFFFF" font-family="Calibri,Calibri_MSFontService,sans-serif" font-weight="400" font-size="13" transform="translate(479.139 220)">4. Test<tspan font-size="13" x="39" y="0">Driver</tspan></text><rect x="433.5" y="371.5" width="164" height="38" stroke="#507E32" stroke-width="1.33333" stroke-miterlimit="8" fill="#70AD47"/><text fill="#FFFFFF" font-family="Calibri,Calibri_MSFontService,sans-serif" font-weight="400" font-size="13" transform="translate(496.305 394)">3. Stub</text><path d="M597.5 238.5 597.5 247 515.5 255.5 433.5 247 433.5 238.5Z" stroke="#41719C" stroke-width="1.33333" stroke-miterlimit="8" fill="#5B9BD5" fill-rule="evenodd" fill-opacity="0.701961"/><path d="M597.5 354.5 597.5 363 515.5 371.5 433.5 363 433.5 354.5Z" stroke="#70AD47" stroke-width="1.33333" stroke-miterlimit="8" fill="#70AD47" fill-rule="evenodd" fill-opacity="0.701961"/><text font-family="Calibri,Calibri_MSFontService,sans-serif" font-weight="400" font-size="13" transform="translate(509.995 249)">1.<tspan font-size="13" x="0" y="118">2.</tspan></text><path d="M403.5 165.5 627.5 165.5 627.5 441.5 403.5 441.5ZM424.332 186.332 424.332 420.668 606.668 420.668 606.668 186.332Z" stroke="#2F528F" stroke-width="1.33333" stroke-miterlimit="8" fill="#4472C4" fill-rule="evenodd" fill-opacity="0.501961"/><text font-family="Calibri,Calibri_MSFontService,sans-serif" font-weight="400" font-size="13" transform="translate(391.962 154)">5<tspan font-size="13" x="6.83334" y="0">. Test Environment with Testing Framework</tspan></text><path d="M370.5 211.5 384.5 211.5 398.5 293.5 384.5 375.5 370.5 375.5Z" stroke="#41719C" stroke-width="1.33333" stroke-miterlimit="8" fill="#5B9BD5" fill-rule="evenodd" fill-opacity="0.701961"/><path d="M71.5001 477.5 258.167 477.5 487.522 327.892 338.167 477.5 391.5 477.5 391.5 514.667 391.5 514.667 391.5 570.417 391.5 700.5 338.167 700.5 258.167 700.5 258.167 700.5 71.5001 700.5 71.5001 570.417 71.5001 514.667 71.5001 514.667Z" stroke="#4472C4" stroke-width="1.33333" stroke-miterlimit="8" fill="#FFFFFF" fill-rule="evenodd"/><rect x="83.5001" y="499.5" width="284" height="26" stroke="#4472C4" stroke-width="1.33333" stroke-miterlimit="8" fill="#FFFFFF"/><text font-family="Calibri,Calibri_MSFontService,sans-serif" font-weight="400" font-size="13" transform="translate(92.1422 515)">7<tspan font-family="Yu Gothic,Yu Gothic_MSFontService,sans-serif" font-size="13" x="6.83334" y="0">～</tspan><tspan font-size="13" x="20.1667" y="0">8. </tspan><tspan font-family="Yu Gothic,Yu Gothic_MSFontService,sans-serif" font-size="13" x="33.3333" y="0">データ型の整理</tspan></text><rect x="83.5001" y="549.5" width="284" height="26" stroke="#4472C4" stroke-width="1.33333" stroke-miterlimit="8" fill="#FFFFFF"/><text font-family="Calibri,Calibri_MSFontService,sans-serif" font-weight="400" font-size="13" transform="translate(92.1422 566)">9. <tspan font-family="Yu Gothic,Yu Gothic_MSFontService,sans-serif" font-size="13" x="26.5" y="0">テストケースの詳細化と実装</tspan></text><rect x="83.5001" y="600.5" width="284" height="25" stroke="#4472C4" stroke-width="1.33333" stroke-miterlimit="8" fill="#FFFFFF"/><text font-family="Calibri,Calibri_MSFontService,sans-serif" font-weight="400" font-size="13" transform="translate(92.1422 616)">10<tspan font-family="Yu Gothic,Yu Gothic_MSFontService,sans-serif" font-size="13" x="13.6667" y="0">～</tspan><tspan font-size="13" x="27" y="0">11.</tspan><tspan font-family="Yu Gothic,Yu Gothic_MSFontService,sans-serif" font-size="13" x="47" y="0">関数・メソッド内部の整理</tspan></text><rect x="83.5001" y="650.5" width="284" height="26" stroke="#4472C4" stroke-width="1.33333" stroke-miterlimit="8" fill="#FFFFFF"/><text font-family="Calibri,Calibri_MSFontService,sans-serif" font-weight="400" font-size="13" transform="translate(92.142 667)">12<tspan font-family="Yu Gothic,Yu Gothic_MSFontService,sans-serif" font-size="13" x="13.6667" y="0">～</tspan><tspan font-size="13" x="27" y="0">13.</tspan><tspan font-family="Yu Gothic,Yu Gothic_MSFontService,sans-serif" font-size="13" x="47" y="0">全体構造の見直し</tspan></text><g clip-path="url(#clip1)"><g clip-path="url(#clip2)"><g clip-path="url(#clip3)"><path d="M31.2372 12.2247C30.4994 10.482 29.2723 9.00506 27.7256 7.95975 26.1807 6.9145 24.3044 6.30188 22.3022 6.30237L19.5384 6.30237 20.1756 4.78775C20.259 4.58925 20.2087 4.36062 20.0509 4.21537 19.8921 4.07062 19.66 4.0405 19.47 4.141L12.6617 7.73962C12.4949 7.82706 12.3904 8.00044 12.3914 8.18838 12.3914 8.37681 12.4949 8.55069 12.6617 8.63769L19.47 12.2367C19.6589 12.3372 19.8911 12.3071 20.0499 12.1629 20.2087 12.0177 20.2589 11.7885 20.1756 11.5906L19.5374 10.0739 22.3022 10.0739C23.1264 10.0744 23.9003 10.2398 24.6089 10.5388 25.6702 10.9871 26.5788 11.7413 27.218 12.6881 27.8573 13.6364 28.2281 14.7661 28.2291 16.0002 28.2281 16.8234 28.0632 17.5983 27.7638 18.3059 27.3155 19.3673 26.5618 20.2757 25.6149 20.915 24.6662 21.5543 23.5365 21.9251 22.3022 21.9261L22.3022 25.6976C23.636 25.6976 24.9164 25.4262 26.0783 24.9347 27.8201 24.197 29.2975 22.9698 30.3427 21.4236 31.388 19.8778 32.0011 18.0018 32.0001 16.0002 32 14.6666 31.7286 13.3861 31.2372 12.2247Z" fill="#4B4B4B" transform="matrix(1 0 0 1.03125 328 486)"/><path d="M19.3383 23.3622 12.5301 19.7632C12.3411 19.6627 12.1089 19.6928 11.9502 19.8371 11.7914 19.9823 11.7411 20.2119 11.8246 20.4094L12.4628 21.926 9.69788 21.926C8.87369 21.9255 8.09981 21.7602 7.39125 21.4612 6.32987 21.0129 5.42137 20.2587 4.78212 19.3119 4.14288 18.3641 3.77206 17.2339 3.771 16.0002 3.772 15.1766 3.93688 14.4017 4.23631 13.6942 4.68456 12.6328 5.43844 11.7242 6.38513 11.085 7.33388 10.4458 8.46362 10.075 9.69781 10.0739L9.69781 6.30244C8.36413 6.30244 7.08362 6.57381 5.92181 7.06525 4.18 7.803 2.70256 9.03019 1.65737 10.5769 0.612063 12.1222-0.001 13.9982 0 16.0002 0 17.334 0.271375 18.6139 0.762812 19.7752 1.50056 21.5181 2.72769 22.995 4.2745 24.0403 5.81925 25.0855 7.69575 25.6981 9.69781 25.6976L12.4617 25.6976 11.8245 27.2122C11.7411 27.4107 11.7914 27.6399 11.9491 27.7846 12.1079 27.9293 12.3401 27.9595 12.5301 27.859L19.3383 24.2609C19.5051 24.1729 19.6097 23.9996 19.6087 23.8116 19.6087 23.6231 19.5051 23.4492 19.3383 23.3622Z" fill="#4B4B4B" transform="matrix(1 0 0 1.03125 328 486)"/></g></g></g><g clip-path="url(#clip4)"><g clip-path="url(#clip5)"><g clip-path="url(#clip6)"><path d="M31.2372 12.2247C30.4994 10.482 29.2723 9.00506 27.7256 7.95975 26.1807 6.9145 24.3044 6.30188 22.3022 6.30237L19.5384 6.30237 20.1756 4.78775C20.259 4.58925 20.2087 4.36062 20.0509 4.21537 19.8921 4.07062 19.66 4.0405 19.47 4.141L12.6617 7.73962C12.4949 7.82706 12.3904 8.00044 12.3914 8.18838 12.3914 8.37681 12.4949 8.55069 12.6617 8.63769L19.47 12.2367C19.6589 12.3372 19.8911 12.3071 20.0499 12.1629 20.2087 12.0177 20.2589 11.7885 20.1756 11.5906L19.5374 10.0739 22.3022 10.0739C23.1264 10.0744 23.9003 10.2398 24.6089 10.5388 25.6702 10.9871 26.5788 11.7413 27.218 12.6881 27.8573 13.6364 28.2281 14.7661 28.2291 16.0002 28.2281 16.8234 28.0632 17.5983 27.7638 18.3059 27.3155 19.3673 26.5618 20.2757 25.6149 20.915 24.6662 21.5543 23.5365 21.9251 22.3022 21.9261L22.3022 25.6976C23.636 25.6976 24.9164 25.4262 26.0783 24.9347 27.8201 24.197 29.2975 22.9698 30.3427 21.4236 31.388 19.8778 32.0011 18.0018 32.0001 16.0002 32 14.6666 31.7286 13.3861 31.2372 12.2247Z" fill="#4B4B4B" transform="matrix(1.03125 0 0 1 329 537)"/><path d="M19.3383 23.3622 12.5301 19.7632C12.3411 19.6627 12.1089 19.6928 11.9502 19.8371 11.7914 19.9823 11.7411 20.2119 11.8246 20.4094L12.4628 21.926 9.69788 21.926C8.87369 21.9255 8.09981 21.7602 7.39125 21.4612 6.32987 21.0129 5.42137 20.2587 4.78212 19.3119 4.14288 18.3641 3.77206 17.2339 3.771 16.0002 3.772 15.1766 3.93688 14.4017 4.23631 13.6942 4.68456 12.6328 5.43844 11.7242 6.38513 11.085 7.33388 10.4458 8.46362 10.075 9.69781 10.0739L9.69781 6.30244C8.36413 6.30244 7.08362 6.57381 5.92181 7.06525 4.18 7.803 2.70256 9.03019 1.65737 10.5769 0.612063 12.1222-0.001 13.9982 0 16.0002 0 17.334 0.271375 18.6139 0.762812 19.7752 1.50056 21.5181 2.72769 22.995 4.2745 24.0403 5.81925 25.0855 7.69575 25.6981 9.69781 25.6976L12.4617 25.6976 11.8245 27.2122C11.7411 27.4107 11.7914 27.6399 11.9491 27.7846 12.1079 27.9293 12.3401 27.9595 12.5301 27.859L19.3383 24.2609C19.5051 24.1729 19.6097 23.9996 19.6087 23.8116 19.6087 23.6231 19.5051 23.4492 19.3383 23.3622Z" fill="#4B4B4B" transform="matrix(1.03125 0 0 1 329 537)"/></g></g></g><g clip-path="url(#clip7)"><g clip-path="url(#clip8)"><g clip-path="url(#clip9)"><path d="M361.213 598.607C360.453 596.81 359.187 595.286 357.592 594.208 355.999 593.131 354.064 592.499 351.999 592.499L349.149 592.499 349.806 590.937C349.892 590.733 349.84 590.497 349.678 590.347 349.514 590.198 349.274 590.167 349.078 590.27L342.057 593.982C341.885 594.072 341.778 594.25 341.779 594.444 341.779 594.639 341.885 594.818 342.057 594.908L349.078 598.619C349.273 598.723 349.513 598.692 349.677 598.543 349.84 598.393 349.892 598.157 349.806 597.953L349.148 596.389 351.999 596.389C352.849 596.389 353.647 596.56 354.378 596.868 355.472 597.33 356.409 598.108 357.069 599.085 357.728 600.062 358.11 601.228 358.111 602.5 358.11 603.349 357.94 604.148 357.631 604.878 357.169 605.972 356.392 606.909 355.415 607.569 354.437 608.228 353.272 608.61 351.999 608.611L351.999 612.501C353.375 612.501 354.695 612.221 355.893 611.714 357.689 610.953 359.213 609.688 360.291 608.093 361.369 606.499 362.001 604.564 362 602.5 362 601.125 361.72 599.804 361.213 598.607Z" fill="#4B4B4B"/><path d="M348.943 610.092 341.922 606.381C341.727 606.277 341.487 606.308 341.324 606.457 341.16 606.607 341.108 606.844 341.194 607.047L341.852 608.611 339.001 608.611C338.151 608.611 337.353 608.44 336.622 608.132 335.528 607.67 334.591 606.892 333.932 605.915 333.272 604.938 332.89 603.773 332.889 602.5 332.89 601.651 333.06 600.852 333.369 600.122 333.831 599.028 334.608 598.091 335.585 597.431 336.563 596.772 337.728 596.39 339.001 596.389L339.001 592.499C337.626 592.499 336.305 592.779 335.107 593.286 333.311 594.047 331.787 595.312 330.709 596.907 329.631 598.501 328.999 600.436 329 602.5 329 603.876 329.28 605.196 329.787 606.393 330.547 608.19 331.813 609.714 333.408 610.792 335.001 611.869 336.936 612.501 339.001 612.501L341.851 612.501 341.194 614.063C341.108 614.267 341.16 614.504 341.323 614.653 341.486 614.802 341.726 614.833 341.922 614.73L348.943 611.019C349.115 610.928 349.223 610.75 349.221 610.556 349.221 610.361 349.115 610.182 348.943 610.092Z" fill="#4B4B4B"/></g></g></g><g clip-path="url(#clip10)"><g clip-path="url(#clip11)"><g clip-path="url(#clip12)"><path d="M31.2372 12.2247C30.4994 10.482 29.2723 9.00506 27.7256 7.95975 26.1807 6.9145 24.3044 6.30188 22.3022 6.30237L19.5384 6.30237 20.1756 4.78775C20.259 4.58925 20.2087 4.36062 20.0509 4.21537 19.8921 4.07062 19.66 4.0405 19.47 4.141L12.6617 7.73962C12.4949 7.82706 12.3904 8.00044 12.3914 8.18838 12.3914 8.37681 12.4949 8.55069 12.6617 8.63769L19.47 12.2367C19.6589 12.3372 19.8911 12.3071 20.0499 12.1629 20.2087 12.0177 20.2589 11.7885 20.1756 11.5906L19.5374 10.0739 22.3022 10.0739C23.1264 10.0744 23.9003 10.2398 24.6089 10.5388 25.6702 10.9871 26.5788 11.7413 27.218 12.6881 27.8573 13.6364 28.2281 14.7661 28.2291 16.0002 28.2281 16.8234 28.0632 17.5983 27.7638 18.3059 27.3155 19.3673 26.5618 20.2757 25.6149 20.915 24.6662 21.5543 23.5365 21.9251 22.3022 21.9261L22.3022 25.6976C23.636 25.6976 24.9164 25.4262 26.0783 24.9347 27.8201 24.197 29.2975 22.9698 30.3427 21.4236 31.388 19.8778 32.0011 18.0018 32.0001 16.0002 32 14.6666 31.7286 13.3861 31.2372 12.2247Z" fill="#4B4B4B" transform="matrix(1 0 0 1.03125 328 633)"/><path d="M19.3383 23.3622 12.5301 19.7632C12.3411 19.6627 12.1089 19.6928 11.9502 19.8371 11.7914 19.9823 11.7411 20.2119 11.8246 20.4094L12.4628 21.926 9.69788 21.926C8.87369 21.9255 8.09981 21.7602 7.39125 21.4612 6.32987 21.0129 5.42137 20.2587 4.78212 19.3119 4.14288 18.3641 3.77206 17.2339 3.771 16.0002 3.772 15.1766 3.93688 14.4017 4.23631 13.6942 4.68456 12.6328 5.43844 11.7242 6.38513 11.085 7.33388 10.4458 8.46362 10.075 9.69781 10.0739L9.69781 6.30244C8.36413 6.30244 7.08362 6.57381 5.92181 7.06525 4.18 7.803 2.70256 9.03019 1.65737 10.5769 0.612063 12.1222-0.001 13.9982 0 16.0002 0 17.334 0.271375 18.6139 0.762812 19.7752 1.50056 21.5181 2.72769 22.995 4.2745 24.0403 5.81925 25.0855 7.69575 25.6981 9.69781 25.6976L12.4617 25.6976 11.8245 27.2122C11.7411 27.4107 11.7914 27.6399 11.9491 27.7846 12.1079 27.9293 12.3401 27.9595 12.5301 27.859L19.3383 24.2609C19.5051 24.1729 19.6097 23.9996 19.6087 23.8116 19.6087 23.6231 19.5051 23.4492 19.3383 23.3622Z" fill="#4B4B4B" transform="matrix(1 0 0 1.03125 328 633)"/></g></g></g><path d="M239.5 439.5 239.5 440.5 223.5 440.5 223.5 439.5ZM239.5 441.5 239.5 443.5 223.5 443.5 223.5 441.5ZM239.5 444.5 239.5 470.5 247.5 470.5 231.5 486.5 215.5 470.5 223.5 470.5 223.5 444.5Z" stroke="#2F528F" stroke-width="1.33333" stroke-miterlimit="8" stroke-opacity="0.701961" fill="#4472C4" fill-rule="evenodd" fill-opacity="0.701961"/><g clip-path="url(#clip13)"><g clip-path="url(#clip14)"><g clip-path="url(#clip15)"><path d="M31.2372 12.2247C30.4994 10.482 29.2723 9.00506 27.7256 7.95975 26.1807 6.9145 24.3044 6.30188 22.3022 6.30237L19.5384 6.30237 20.1756 4.78775C20.259 4.58925 20.2087 4.36062 20.0509 4.21537 19.8921 4.07062 19.66 4.0405 19.47 4.141L12.6617 7.73962C12.4949 7.82706 12.3904 8.00044 12.3914 8.18838 12.3914 8.37681 12.4949 8.55069 12.6617 8.63769L19.47 12.2367C19.6589 12.3372 19.8911 12.3071 20.0499 12.1629 20.2087 12.0177 20.2589 11.7885 20.1756 11.5906L19.5374 10.0739 22.3022 10.0739C23.1264 10.0744 23.9003 10.2398 24.6089 10.5388 25.6702 10.9871 26.5788 11.7413 27.218 12.6881 27.8573 13.6364 28.2281 14.7661 28.2291 16.0002 28.2281 16.8234 28.0632 17.5983 27.7638 18.3059 27.3155 19.3673 26.5618 20.2757 25.6149 20.915 24.6662 21.5543 23.5365 21.9251 22.3022 21.9261L22.3022 25.6976C23.636 25.6976 24.9164 25.4262 26.0783 24.9347 27.8201 24.197 29.2975 22.9698 30.3427 21.4236 31.388 19.8778 32.0011 18.0018 32.0001 16.0002 32 14.6666 31.7286 13.3861 31.2372 12.2247Z" fill="#4B4B4B" transform="matrix(1.03125 0 0 1 370 463)"/><path d="M19.3383 23.3622 12.5301 19.7632C12.3411 19.6627 12.1089 19.6928 11.9502 19.8371 11.7914 19.9823 11.7411 20.2119 11.8246 20.4094L12.4628 21.926 9.69788 21.926C8.87369 21.9255 8.09981 21.7602 7.39125 21.4612 6.32987 21.0129 5.42137 20.2587 4.78212 19.3119 4.14288 18.3641 3.77206 17.2339 3.771 16.0002 3.772 15.1766 3.93688 14.4017 4.23631 13.6942 4.68456 12.6328 5.43844 11.7242 6.38513 11.085 7.33388 10.4458 8.46362 10.075 9.69781 10.0739L9.69781 6.30244C8.36413 6.30244 7.08362 6.57381 5.92181 7.06525 4.18 7.803 2.70256 9.03019 1.65737 10.5769 0.612063 12.1222-0.001 13.9982 0 16.0002 0 17.334 0.271375 18.6139 0.762812 19.7752 1.50056 21.5181 2.72769 22.995 4.2745 24.0403 5.81925 25.0855 7.69575 25.6981 9.69781 25.6976L12.4617 25.6976 11.8245 27.2122C11.7411 27.4107 11.7914 27.6399 11.9491 27.7846 12.1079 27.9293 12.3401 27.9595 12.5301 27.859L19.3383 24.2609C19.5051 24.1729 19.6097 23.9996 19.6087 23.8116 19.6087 23.6231 19.5051 23.4492 19.3383 23.3622Z" fill="#4B4B4B" transform="matrix(1.03125 0 0 1 370 463)"/></g></g></g></g></svg>