<svg width="608" height="448" xmlns="http://www.w3.org/2000/svg" xmlns:xlink="http://www.w3.org/1999/xlink" overflow="hidden"><defs><clipPath id="clip0"><rect x="56" y="93" width="608" height="448"/></clipPath><clipPath id="clip1"><rect x="402" y="331" width="27" height="27"/></clipPath><clipPath id="clip2"><rect x="402" y="331" width="27" height="27"/></clipPath><clipPath id="clip3"><rect x="402" y="331" width="27" height="27"/></clipPath><clipPath id="clip4"><rect x="402" y="205" width="27" height="26"/></clipPath><clipPath id="clip5"><rect x="402" y="205" width="27" height="26"/></clipPath><clipPath id="clip6"><rect x="402" y="205" width="27" height="26"/></clipPath><clipPath id="clip7"><rect x="253" y="331" width="27" height="27"/></clipPath><clipPath id="clip8"><rect x="253" y="331" width="27" height="27"/></clipPath><clipPath id="clip9"><rect x="253" y="331" width="27" height="27"/></clipPath><clipPath id="clip10"><rect x="254" y="268" width="26" height="27"/></clipPath><clipPath id="clip11"><rect x="254" y="268" width="26" height="27"/></clipPath><clipPath id="clip12"><rect x="254" y="268" width="26" height="27"/></clipPath><clipPath id="clip13"><rect x="253" y="205" width="27" height="26"/></clipPath><clipPath id="clip14"><rect x="253" y="205" width="27" height="26"/></clipPath><clipPath id="clip15"><rect x="253" y="205" width="27" height="26"/></clipPath><clipPath id="clip16"><rect x="403" y="268" width="26" height="27"/></clipPath><clipPath id="clip17"><rect x="403" y="268" width="26" height="27"/></clipPath><clipPath id="clip18"><rect x="403" y="268" width="26" height="27"/></clipPath><clipPath id="clip19"><rect x="320" y="270" width="26" height="26"/></clipPath><clipPath id="clip20"><rect x="320" y="270" width="26" height="26"/></clipPath><clipPath id="clip21"><rect x="320" y="270" width="26" height="26"/></clipPath><clipPath id="clip22"><rect x="344" y="200" width="26" height="26"/></clipPath><clipPath id="clip23"><rect x="344" y="200" width="26" height="26"/></clipPath><clipPath id="clip24"><rect x="344" y="200" width="26" height="26"/></clipPath><clipPath id="clip25"><rect x="310" y="221" width="27" height="26"/></clipPath><clipPath id="clip26"><rect x="310" y="221" width="27" height="26"/></clipPath><clipPath id="clip27"><rect x="310" y="221" width="27" height="26"/></clipPath><clipPath id="clip28"><rect x="301" y="321" width="26" height="26"/></clipPath><clipPath id="clip29"><rect x="301" y="321" width="26" height="26"/></clipPath><clipPath id="clip30"><rect x="301" y="321" width="26" height="26"/></clipPath><clipPath id="clip31"><rect x="528" y="277" width="31" height="31"/></clipPath><clipPath id="clip32"><rect x="528" y="277" width="31" height="31"/></clipPath><clipPath id="clip33"><rect x="528" y="277" width="31" height="31"/></clipPath><clipPath id="clip34"><rect x="119" y="277" width="31" height="31"/></clipPath><clipPath id="clip35"><rect x="119" y="277" width="31" height="31"/></clipPath><clipPath id="clip36"><rect x="119" y="277" width="31" height="31"/></clipPath><clipPath id="clip37"><rect x="121" y="365" width="26" height="27"/></clipPath><clipPath id="clip38"><rect x="121" y="365" width="26" height="27"/></clipPath><clipPath id="clip39"><rect x="121" y="365" width="26" height="27"/></clipPath><linearGradient x1="170.5" y1="281.5" x2="170.5" y2="303.5" gradientUnits="userSpaceOnUse" spreadMethod="reflect" id="fill40"><stop offset="0" stop-color="#FFDD9C"/><stop offset="0.5" stop-color="#FFD78E"/><stop offset="1" stop-color="#FFD479"/></linearGradient><linearGradient x1="14" y1="0" x2="14" y2="21" gradientUnits="userSpaceOnUse" spreadMethod="reflect" id="fill41"><stop offset="0" stop-color="#FFDD9C"/><stop offset="0.5" stop-color="#FFD78E"/><stop offset="1" stop-color="#FFD479"/></linearGradient><linearGradient x1="173" y1="367.5" x2="173" y2="388.5" gradientUnits="userSpaceOnUse" spreadMethod="reflect" id="fill42"><stop offset="0" stop-color="#FFDD9C"/><stop offset="0.5" stop-color="#FFD78E"/><stop offset="1" stop-color="#FFD479"/></linearGradient></defs><g clip-path="url(#clip0)" transform="translate(-56 -93)"><rect x="58.5001" y="94.5001" width="604" height="445" stroke="#D9D9D9" stroke-width="1.33333" stroke-miterlimit="8" fill="none"/><text font-family="Yu Gothic,Yu Gothic_MSFontService,sans-serif" font-weight="400" font-size="16" transform="translate(67.2378 114)">世界は方々で勝手に変化する<tspan font-family="Calibri,Calibri_MSFontService,sans-serif" font-size="16" x="208" y="0">…</tspan></text><rect x="223" y="159" width="232" height="269" fill="#F2F2F2"/><text font-family="Yu Gothic,Yu Gothic_MSFontService,sans-serif" font-weight="400" font-size="16" transform="translate(299.123 179)">現実の世界</text><g clip-path="url(#clip1)"><g clip-path="url(#clip2)"><g clip-path="url(#clip3)"><path d="M426.719 332.01C426.097 331.387 425.231 331 424.282 331L408.046 331C407.096 331 406.23 331.387 405.609 332.01 404.986 332.631 404.599 333.497 404.599 334.447L404.599 334.725 403.841 334.725C403.527 334.725 403.272 334.98 403.272 335.294 403.272 335.608 403.527 335.863 403.841 335.863L404.599 335.863 404.599 339.278 403.841 339.278C403.527 339.278 403.272 339.533 403.272 339.847 403.272 340.161 403.527 340.416 403.841 340.416L404.599 340.416 404.599 343.831 403.841 343.831C403.527 343.831 403.272 344.086 403.272 344.4 403.272 344.714 403.527 344.969 403.841 344.969L404.599 344.969 404.599 348.384 403.841 348.384C403.527 348.384 403.272 348.639 403.272 348.953 403.272 349.267 403.527 349.522 403.841 349.522L404.599 349.522 404.599 352.937 403.841 352.937C403.527 352.937 403.272 353.192 403.272 353.506 403.272 353.82 403.527 354.075 403.841 354.075L404.599 354.075 404.599 354.553C404.599 355.503 404.986 356.369 405.609 356.99 406.23 357.613 407.096 358 408.046 358L424.282 358C425.231 358 426.097 357.613 426.719 356.99 427.341 356.369 427.728 355.503 427.728 354.553L427.728 334.447C427.728 333.497 427.341 332.631 426.719 332.01ZM410.597 356.483 408.046 356.483C407.51 356.483 407.033 356.268 406.681 355.918 406.331 355.566 406.116 355.089 406.116 354.553L406.116 354.075 407.32 354.075C407.518 354.407 407.881 354.631 408.296 354.631 408.924 354.631 409.434 354.122 409.434 353.494 409.434 352.866 408.924 352.356 408.296 352.356 407.87 352.356 407.5 352.591 407.305 352.937L406.116 352.937 406.116 349.522 407.318 349.522C407.516 349.856 407.879 350.081 408.296 350.081 408.924 350.081 409.434 349.572 409.434 348.944 409.434 348.316 408.924 347.806 408.296 347.806 407.871 347.806 407.502 348.04 407.306 348.384L406.116 348.384 406.116 344.969 407.316 344.969C407.513 345.305 407.878 345.531 408.296 345.531 408.924 345.531 409.434 345.022 409.434 344.394 409.434 343.766 408.924 343.256 408.296 343.256 407.873 343.256 407.504 343.488 407.308 343.831L406.116 343.831 406.116 340.416 407.314 340.416C407.511 340.754 407.877 340.981 408.296 340.981 408.924 340.981 409.434 340.472 409.434 339.844 409.434 339.216 408.924 338.706 408.296 338.706 407.874 338.706 407.506 338.937 407.31 339.278L406.116 339.278 406.116 335.863 407.312 335.863C407.509 336.203 407.875 336.431 408.296 336.431 408.924 336.431 409.434 335.922 409.434 335.294 409.434 334.666 408.924 334.157 408.296 334.157 407.875 334.157 407.509 334.386 407.312 334.725L406.116 334.725 406.116 334.447C406.116 333.911 406.331 333.434 406.681 333.082 407.033 332.731 407.51 332.517 408.046 332.517L410.597 332.517 410.597 356.483ZM426.212 354.553C426.211 355.089 425.997 355.566 425.646 355.918 425.295 356.268 424.817 356.483 424.281 356.483L411.166 356.483 411.166 332.517 424.282 332.517C424.817 332.517 425.295 332.731 425.646 333.082 425.997 333.434 426.211 333.911 426.212 334.447L426.212 354.553Z" fill="#4B4B4B"/><path d="M413.489 336.965 423.557 336.965 423.557 337.533 413.489 337.533Z" fill="#4B4B4B"/><path d="M413.489 340.614 423.557 340.614 423.557 341.183 413.489 341.183Z" fill="#4B4B4B"/><path d="M413.489 344.264 423.557 344.264 423.557 344.833 413.489 344.833Z" fill="#4B4B4B"/><path d="M413.489 347.914 423.557 347.914 423.557 348.482 413.489 348.482Z" fill="#4B4B4B"/><path d="M413.489 351.563 423.557 351.563 423.557 352.132 413.489 352.132Z" fill="#4B4B4B"/></g></g></g><g clip-path="url(#clip4)"><g clip-path="url(#clip5)"><g clip-path="url(#clip6)"><path d="M17.3045 0 2.34147 14.963 0 26 11.0346 23.6585 26 8.69314 17.3045 0ZM17.3045 2.65809 19.9721 5.32568 7.32601 17.9702 4.65918 15.3034 17.3045 2.65809ZM5.58832 22.8706 3.12858 20.4109 4.07281 16.1214 9.87695 21.9264 5.58832 22.8706ZM10.695 21.3392 8.02897 18.6732 20.6735 6.02713 23.3411 8.69314 10.695 21.3392Z" fill="#4B4B4B" transform="matrix(1.03846 0 0 1 402 205)"/></g></g></g><g clip-path="url(#clip7)"><g clip-path="url(#clip8)"><g clip-path="url(#clip9)"><path d="M272.197 349.723C271.993 349.646 271.771 349.541 271.546 349.417L267.772 354.634 267.503 351.216 265.497 351.216 265.229 354.634 261.455 349.417C261.222 349.547 260.998 349.654 260.803 349.723 258.827 350.418 253.971 352.419 254.285 356.167 254.36 357.067 259.306 358 266.5 358 273.694 358 278.64 357.067 278.715 356.167 279.029 352.416 274.161 350.457 272.197 349.723Z" fill="#4B4B4B"/><path d="M262.044 341.983C262.319 343.54 262.78 344.913 263.388 345.589 263.388 346.4 263.388 346.992 263.388 347.466 263.388 347.513 263.38 347.563 263.366 347.615L265.497 348.641 265.497 350.147 267.503 350.147 267.503 348.641 269.633 347.616C269.619 347.564 269.611 347.514 269.611 347.466 269.611 346.992 269.611 346.4 269.611 345.589 270.22 344.913 270.682 343.54 270.957 341.983 271.597 341.754 271.964 341.388 272.421 339.786 272.907 338.08 271.689 338.138 271.689 338.138 272.674 334.875 271.377 331.809 269.204 332.034 267.705 329.411 262.684 332.633 261.11 332.408 261.11 333.308 261.485 333.982 261.485 333.982 260.938 335.02 261.149 337.091 261.303 338.138 261.214 338.136 260.112 338.148 260.579 339.786 261.037 341.388 261.403 341.754 262.044 341.983Z" fill="#4B4B4B"/></g></g></g><g clip-path="url(#clip10)"><g clip-path="url(#clip11)"><g clip-path="url(#clip12)"><path d="M22.1603 20.6101C21.5436 19.6866 20.606 19.1749 19.723 18.842 19.2807 18.6754 18.8473 18.5528 18.4654 18.4484 18.0846 18.3448 17.7525 18.2568 17.5286 18.1727 17.2116 18.0551 16.8838 17.9084 16.6151 17.7488L16.6151 16.0729 16.0284 16.1706C16.0284 16.0114 16.0284 15.8444 16.0284 15.6598 16.5275 15.1046 17.2467 14.2445 17.5395 12.8767 17.6442 12.83 17.7474 12.7774 17.8467 12.7085 18.0881 12.5419 18.2932 12.2997 18.4677 11.9691 18.6433 11.637 18.7991 11.2114 18.966 10.6282 19.0501 10.3335 19.0891 10.0776 19.0891 9.85065 19.0895 9.58897 19.0354 9.36279 18.9372 9.17978 18.829 8.97614 18.6717 8.83985 18.5187 8.75342L18.5187 8.12424C18.5386 8.10636 18.5635 8.09001 18.5814 8.07132 19.0805 7.55193 18.8819 6.94997 18.5342 6.50259 18.9707 5.88936 19.8433 4.47484 19.5972 3.24446 19.0724 0.621004 15.3794 0 13 0 10.6206 0 6.92758 0.621004 6.40311 3.24446 6.15702 4.47484 7.02919 5.88936 7.46606 6.50259 7.12847 6.93672 6.93652 7.51649 7.38232 8.02537L7.38232 8.82355C7.2636 8.90845 7.14675 9.02215 7.06301 9.17983 6.96455 9.3632 6.91077 9.58902 6.91118 9.8507 6.91118 10.0781 6.95007 10.3335 7.03422 10.6283 7.25695 11.405 7.45819 11.9054 7.71712 12.2709 7.84682 12.4524 7.99358 12.5976 8.15359 12.7086 8.25287 12.7774 8.35606 12.83 8.46041 12.8768 8.75362 14.2446 9.47233 15.1046 9.97186 15.6599 9.97186 15.8444 9.97186 16.0115 9.97186 16.1707L9.38473 16.073 9.38473 17.7492C9.35436 17.7679 9.32552 17.7869 9.29363 17.8049 9.03505 17.9524 8.73798 18.0794 8.47828 18.1709 8.17263 18.2791 7.68285 18.3912 7.13421 18.5482 6.30998 18.7865 5.33696 19.1299 4.54614 19.8073 4.15177 20.1464 3.8056 20.572 3.5623 21.1008 3.31815 21.6295 3.17799 22.2572 3.1784 22.9938 3.1784 23.1644 3.18576 23.3411 3.20135 23.5237 3.21222 23.6483 3.25975 23.7499 3.31622 23.8344 3.42327 23.9921 3.56657 24.1104 3.7472 24.2319 4.06296 24.4414 4.50181 24.6462 5.06477 24.8479 6.74964 25.4487 9.54098 25.9988 13 26 15.8103 25.9996 18.1827 25.6351 19.8748 25.1773 20.7216 24.9476 21.3972 24.6961 21.8846 24.4457 22.1287 24.32 22.3262 24.1953 22.4815 24.0594 22.559 23.9909 22.6271 23.9193 22.684 23.8348 22.74 23.7503 22.788 23.6483 22.7984 23.5237 22.814 23.3411 22.8214 23.1651 22.8214 22.9946 22.8227 22.0138 22.5707 21.2242 22.1603 20.6101ZM12.4845 2.98086 13.0004 1.83036 13.5159 2.98086 14.7692 3.11558 13.8347 3.96124 14.0937 5.19553 13.0004 4.56788 11.9067 5.19553 12.1656 3.96124 11.2308 3.11563 12.4845 2.98086ZM13 24.9491C12.6329 24.9491 12.3354 24.6513 12.3354 24.2842 12.3354 23.9174 12.6329 23.6195 13 23.6195 13.3671 23.6195 13.665 23.9174 13.665 24.2842 13.665 24.6513 13.3671 24.9491 13 24.9491ZM13 21.6914C12.6329 21.6914 12.3354 21.3935 12.3354 21.0267 12.3354 20.6592 12.6329 20.3618 13 20.3618 13.3671 20.3618 13.665 20.6592 13.665 21.0267 13.665 21.3935 13.3671 21.6914 13 21.6914ZM13 19.0321 9.60598 18.4664C9.72588 18.3998 9.84349 18.3297 9.95485 18.253 10.0187 18.2086 10.0767 18.1584 10.1362 18.1097L12.8754 18.566 12.8754 16.6547 10.7032 16.2926C10.7032 16.0617 10.7032 15.8106 10.7032 15.5205L10.7032 15.3804 10.609 15.2757C10.0884 14.6951 9.37975 13.9219 9.13443 12.5482L9.09746 12.3387 8.89769 12.2671C8.76378 12.2196 8.66094 12.1705 8.57101 12.1082 8.43786 12.0144 8.31751 11.8855 8.17852 11.6262 8.0407 11.3684 7.89588 10.9842 7.73739 10.4278 7.66771 10.1836 7.64243 9.99324 7.64243 9.85075 7.64278 9.68602 7.67432 9.58791 7.70783 9.52484 7.75805 9.43333 7.82077 9.39362 7.89862 9.36249 7.9103 9.35817 7.92198 9.35507 7.93366 9.35157L9.2107 10.3386 9.2107 8.82634C10.5879 9.11874 12.287 9.17485 12.9999 9.17485 13.6961 9.17485 15.3318 9.12265 16.6902 8.84853L16.6902 10.3386 17.988 9.33522C18.0394 9.34263 18.1161 9.35939 18.1745 9.39829 18.2204 9.42749 18.2582 9.46217 18.2925 9.52484 18.3256 9.58791 18.3571 9.68561 18.3575 9.85075 18.3575 9.99324 18.3325 10.1833 18.2629 10.4278 18.0518 11.1703 17.8626 11.6032 17.6874 11.8458 17.5998 11.968 17.5192 12.0452 17.4292 12.1082 17.3393 12.1705 17.2362 12.2196 17.1026 12.2671L16.9024 12.3387 16.8655 12.5482C16.6206 13.9218 15.9119 14.6951 15.391 15.2757L15.2971 15.3804 15.2971 15.5205C15.2971 15.8106 15.2971 16.0618 15.2971 16.2926L13.1249 16.6547 13.1249 18.566 15.8543 18.1112C15.9949 18.2257 16.1498 18.3277 16.313 18.4216 16.341 18.4376 16.3714 18.45 16.3998 18.4652L13 19.0321Z" fill="#4B4B4B" transform="matrix(1 0 0 1.03846 254 268)"/></g></g></g><g clip-path="url(#clip13)"><g clip-path="url(#clip14)"><g clip-path="url(#clip15)"><path d="M8.25663 7.47464C8.25663 7.47464 11.1312 8.05005 14.8682 4.31239 16.5932 6.61278 17.744 7.76237 17.744 7.76237L17.744 11.2135C18.8981 10.0232 19.6125 8.40222 19.6125 6.61278 19.6125 2.96045 16.652 0 12.9997 0 9.34852 0 6.38808 2.96045 6.38808 6.61278 6.38808 8.40222 7.10135 10.0231 8.25657 11.2135L8.25657 7.47464Z" fill="#4B4B4B" transform="matrix(1.03846 0 0 1 253 205)"/><path d="M17.4342 15.1037C16.9702 15.3574 12.9997 24.0744 12.9997 24.0744 12.9997 24.0744 9.02987 15.3574 8.56522 15.1037 4.09571 16.7162 3.89614 20.3283 3.89614 26L22.1039 26C22.1039 20.3283 21.9043 16.7162 17.4342 15.1037Z" fill="#4B4B4B" transform="matrix(1.03846 0 0 1 253 205)"/><path d="M11.0204 14.7142 11.0204 17.3536 12.9997 16.6805 14.9796 17.3536 14.9796 14.7142 12.9997 15.3874Z" fill="#4B4B4B" transform="matrix(1.03846 0 0 1 253 205)"/></g></g></g><g clip-path="url(#clip16)"><g clip-path="url(#clip17)"><g clip-path="url(#clip18)"><path d="M5.19624 3.68103C4.9137 3.68022 4.66588 3.5688 4.47982 3.38396 4.29498 3.1979 4.18321 2.94968 4.18275 2.66713 4.18316 2.38459 4.29498 2.13637 4.47941 1.9503 4.66548 1.76541 4.9137 1.65405 5.19624 1.65323L22.6438 1.65359 22.6438 0.000355469 5.19624 0C3.72303 0.0008125 2.52992 1.19392 2.52952 2.66713L2.52952 23.3328C2.52992 24.806 3.72303 25.9991 5.19624 25.9999L23.4705 25.9999 23.4705 3.68103 5.19624 3.68103ZM21.8172 24.3464 5.80816 24.3468 5.80816 5.33432 21.8172 5.33432 21.8172 24.3464Z" fill="#4B4B4B" transform="matrix(1 0 0 1.03846 403 268)"/><path d="M19.4407 21.4536 19.4407 7.60754 8.2812 7.60754 8.2812 22.0735 19.4407 22.0735 19.4407 21.4536ZM18.2007 20.8336 9.52113 20.8336 9.52113 8.84747 18.2007 8.84747 18.2007 20.8336Z" fill="#4B4B4B" transform="matrix(1 0 0 1.03846 403 268)"/><path d="M11.381 17.4238 16.3408 17.4238 16.3408 18.3537 11.381 18.3537Z" fill="#4B4B4B" transform="matrix(1 0 0 1.03846 403 268)"/></g></g></g><path d="M280.5 281.167 283.167 281.167 283.167 281.833 280.5 281.833ZM285.167 281.167 287.833 281.167 287.833 281.833 285.167 281.833ZM289.833 281.167 291.939 281.167 292.502 281.17 292.498 281.837 291.936 281.833 291.938 281.833 289.833 281.833ZM294.502 281.181 297.169 281.196 297.165 281.863 294.498 281.848ZM299.168 281.207 301.835 281.222 301.831 281.889 299.165 281.874ZM303.835 281.234 306.502 281.25 306.498 281.917 303.831 281.901ZM308.502 281.262 311.168 281.278 311.164 281.945 308.498 281.929ZM313.168 281.29 313.378 281.292 315.837 281.325 315.828 281.991 313.371 281.958 313.373 281.958 313.164 281.957ZM317.837 281.352 320.504 281.387 320.495 282.054 317.828 282.018ZM322.503 281.414 322.692 281.417 322.688 281.417 325.166 281.417 325.166 282.083 322.685 282.083 322.494 282.081ZM327.171 281.423 329.837 281.467 329.826 282.134 327.16 282.089ZM331.838 281.504 333.819 281.542 334.505 281.557 334.49 282.224 333.806 282.208 331.825 282.17ZM336.504 281.601 336.634 281.604 338.823 281.667 339.175 281.68 339.15 282.346 338.8 282.333 338.803 282.333 336.616 282.271 336.618 282.271 336.49 282.268ZM341.181 281.771 341.538 281.793 341.93 281.859 342.305 281.921 342.271 281.917 343.271 281.98 343.262 281.979 343.826 282 343.801 282.667 343.233 282.646 342.212 282.582 341.82 282.516 341.445 282.454 341.479 282.458 341.14 282.437ZM345.822 282.067 347.135 282.104 347.132 282.104 348.486 282.134 348.471 282.801 347.117 282.771 345.803 282.733ZM350.484 282.177 353.15 282.228 353.138 282.895 350.471 282.844ZM355.149 282.262 356.943 282.292 356.938 282.292 357.81 282.292 357.81 282.958 356.935 282.958 355.138 282.928ZM359.81 282.292 361.065 282.292 362.481 282.311 362.472 282.977 361.058 282.958 361.063 282.958 359.81 282.958ZM364.481 282.338 367.147 282.373 367.139 283.04 364.472 283.004ZM369.147 282.4 370.38 282.417 370.377 282.417 371.811 282.425 371.807 283.092 370.372 283.083 369.138 283.067ZM373.811 282.438 376.478 282.454 376.474 283.12 373.807 283.104ZM378.478 282.466 380.69 282.479 381.144 282.482 381.141 283.148 380.686 283.146 378.474 283.132ZM383.144 282.493 385.811 282.508 385.807 283.175 383.141 283.16ZM387.811 282.519 390.478 282.534 390.474 283.201 387.807 283.186ZM392.476 282.542 395.142 282.542 395.142 283.208 392.476 283.208ZM397.142 282.542 399.809 282.542 399.809 283.208 397.142 283.208ZM401.809 282.542 402.59 282.542 402.59 283.208 401.809 283.208ZM394.758 277.92 403.252 282.875 394.758 287.83C394.599 287.922 394.395 287.869 394.302 287.71 394.209 287.551 394.263 287.347 394.422 287.254L402.422 282.587 402.422 283.163 394.422 278.496C394.263 278.404 394.209 278.199 394.302 278.04 394.395 277.881 394.599 277.828 394.758 277.92Z"/><g clip-path="url(#clip19)"><g clip-path="url(#clip20)"><g clip-path="url(#clip21)"><path d="M330.13 281.916 341.327 281.916 341.327 282.856 330.13 282.856Z" stroke="#FF0000" stroke-width="0.0508138"/><path d="M329.164 285.634 340.362 285.634 340.362 286.575 329.164 286.575Z" stroke="#FF0000" stroke-width="0.0508138"/><path d="M345.964 271.859 345.964 271.254 327.014 271.254 327.014 271.859C327.014 273.108 327.048 274.415 327.048 275.771 327.048 277.749 326.976 279.833 326.623 282.003 326.288 284.066 325.7 286.207 324.68 288.415L322.856 288.415C322.534 288.415 322.209 288.466 321.895 288.575 321.424 288.739 320.979 289.037 320.642 289.475 320.304 289.912 320.081 290.481 320.015 291.152 320.005 291.249 320 291.345 320 291.441 320 291.927 320.125 292.385 320.335 292.787 320.652 293.391 321.152 293.871 321.733 294.206 322.315 294.541 322.982 294.734 323.662 294.738L338.068 294.746C338.616 294.748 339.092 294.636 339.496 294.452 339.902 294.269 340.232 294.025 340.539 293.781 341.794 292.781 342.764 291.543 343.508 290.168 344.625 288.103 345.241 285.731 345.586 283.319 345.93 280.907 346 278.452 346 276.217 346 274.616 345.964 273.128 345.964 271.859ZM323.669 293.529 323.669 293.529C323.369 293.527 323.057 293.468 322.763 293.358 322.32 293.194 321.919 292.915 321.643 292.579 321.504 292.411 321.396 292.229 321.322 292.04 321.249 291.85 321.21 291.652 321.21 291.441 321.21 291.386 321.212 291.329 321.218 291.272 321.25 290.953 321.327 290.697 321.429 290.49 321.582 290.181 321.79 289.975 322.035 289.834 322.28 289.695 322.567 289.631 322.856 289.631L335.82 289.631C335.68 289.793 335.555 289.977 335.455 290.185 335.307 290.491 335.208 290.846 335.168 291.245 335.16 291.336 335.155 291.425 335.155 291.514 335.155 291.936 335.256 292.336 335.432 292.691 335.59 293.011 335.807 293.294 336.065 293.536L323.669 293.529ZM343.964 285.432C343.615 286.923 343.125 288.336 342.444 289.592 341.764 290.849 340.896 291.949 339.785 292.835 339.505 293.059 339.259 293.232 338.999 293.349 338.739 293.465 338.461 293.535 338.068 293.537L337.664 293.536C337.298 293.433 336.959 293.249 336.683 293.009 336.46 292.815 336.279 292.586 336.155 292.334 336.031 292.082 335.962 291.808 335.962 291.514 335.962 291.452 335.964 291.389 335.971 291.326 336.003 291.009 336.078 290.749 336.181 290.535 336.336 290.216 336.549 289.998 336.796 289.852 337.042 289.707 337.326 289.636 337.608 289.637 337.894 289.636 338.177 289.71 338.411 289.841 338.646 289.973 338.83 290.159 338.941 290.39 339 290.512 339.036 290.675 339.036 290.839 339.036 290.974 339.012 291.108 338.968 291.22 338.925 291.333 338.863 291.421 338.791 291.483 338.656 291.596 338.518 291.639 338.379 291.64 338.257 291.64 338.136 291.604 338.035 291.538 337.933 291.473 337.854 291.382 337.808 291.274L337.067 291.592C337.18 291.856 337.37 292.07 337.6 292.217 337.828 292.364 338.098 292.446 338.379 292.446 338.699 292.448 339.036 292.334 339.314 292.096 339.504 291.934 339.636 291.729 339.72 291.512 339.804 291.296 339.842 291.066 339.842 290.839 339.842 290.564 339.786 290.289 339.668 290.041 339.478 289.645 339.166 289.34 338.805 289.138 338.451 288.94 338.047 288.836 337.637 288.831L337.637 288.825 325.825 288.825C326.867 286.541 327.472 284.32 327.817 282.197 328.185 279.932 328.258 277.778 328.258 275.771 328.258 274.617 328.234 273.514 328.227 272.463L344.757 272.463C344.765 273.606 344.79 274.875 344.79 276.217 344.791 279.162 344.663 282.451 343.964 285.432Z" stroke="#FF0000" stroke-width="0.0508138"/><path d="M336.817 279.564C336.959 277.983 336.966 276.47 336.951 275.039L330.687 275.039C330.701 276.47 330.694 277.983 330.552 279.564L336.817 279.564Z" stroke="#FF0000" stroke-width="0.0508138"/></g></g></g><text font-family="Calibri,Calibri_MSFontService,sans-serif" font-weight="400" font-size="11" transform="translate(337.619 281)">3</text><path d="M280.5 218.167 283.167 218.167 283.167 218.833 280.5 218.833ZM285.167 218.167 287.833 218.167 287.833 218.833 285.167 218.833ZM289.833 218.167 291.939 218.167 292.502 218.17 292.498 218.837 291.936 218.833 291.938 218.833 289.833 218.833ZM294.502 218.181 297.169 218.196 297.165 218.863 294.498 218.848ZM299.168 218.207 301.835 218.222 301.831 218.889 299.165 218.874ZM303.835 218.234 306.502 218.25 306.498 218.917 303.831 218.901ZM308.502 218.262 311.168 218.278 311.164 218.945 308.498 218.929ZM313.168 218.29 313.378 218.292 315.837 218.325 315.828 218.991 313.371 218.958 313.373 218.958 313.164 218.957ZM317.837 218.352 320.504 218.387 320.495 219.054 317.828 219.018ZM322.503 218.414 322.692 218.417 322.688 218.417 325.166 218.417 325.166 219.083 322.685 219.083 322.494 219.081ZM327.171 218.423 329.837 218.467 329.826 219.134 327.16 219.089ZM331.838 218.504 333.819 218.542 334.505 218.557 334.49 219.224 333.806 219.208 331.825 219.17ZM336.504 218.601 336.634 218.604 338.823 218.667 339.175 218.68 339.15 219.346 338.8 219.333 338.803 219.333 336.616 219.271 336.618 219.271 336.49 219.268ZM341.181 218.771 341.538 218.793 341.93 218.859 342.305 218.921 342.271 218.917 343.271 218.98 343.262 218.979 343.826 219 343.801 219.667 343.233 219.645 342.212 219.582 341.82 219.516 341.445 219.454 341.479 219.458 341.14 219.436ZM345.822 219.067 347.135 219.104 347.132 219.104 348.486 219.134 348.471 219.801 347.117 219.771 345.803 219.733ZM350.484 219.177 353.15 219.228 353.138 219.895 350.471 219.844ZM355.149 219.262 356.943 219.292 356.938 219.292 357.81 219.292 357.81 219.958 356.935 219.958 355.138 219.928ZM359.81 219.292 361.065 219.292 362.481 219.311 362.472 219.977 361.058 219.958 361.063 219.958 359.81 219.958ZM364.481 219.338 367.147 219.373 367.139 220.04 364.472 220.004ZM369.147 219.4 370.38 219.417 370.377 219.417 371.811 219.425 371.807 220.092 370.372 220.083 369.138 220.067ZM373.811 219.438 376.478 219.454 376.474 220.12 373.807 220.104ZM378.478 219.466 380.69 219.479 381.144 219.482 381.141 220.148 380.686 220.146 378.474 220.132ZM383.144 219.493 385.811 219.508 385.807 220.175 383.141 220.16ZM387.811 219.519 390.478 219.534 390.474 220.201 387.807 220.186ZM392.476 219.542 395.142 219.542 395.142 220.208 392.476 220.208ZM397.142 219.542 399.809 219.542 399.809 220.208 397.142 220.208ZM401.809 219.542 402.59 219.542 402.59 220.208 401.809 220.208ZM394.758 214.92 403.252 219.875 394.758 224.83C394.599 224.922 394.395 224.869 394.302 224.71 394.209 224.551 394.263 224.347 394.422 224.254L402.422 219.587 402.422 220.163 394.422 215.496C394.263 215.404 394.209 215.199 394.302 215.04 394.395 214.881 394.599 214.828 394.758 214.92Z"/><path d="M280.52 218.167 283.182 218.326 283.142 218.992 280.48 218.833ZM285.178 218.446 287.84 218.605 287.8 219.27 285.139 219.111ZM289.837 218.724 292.041 218.856 292.533 218.948 292.41 219.603 291.939 219.515 291.98 219.52 289.797 219.39ZM294.499 219.314 297.12 219.803 296.998 220.458 294.376 219.97ZM299.086 220.17 301.708 220.658 301.586 221.314 298.964 220.825ZM303.694 221.091 306.249 221.856 306.058 222.495 303.503 221.73ZM308.165 222.43 310.72 223.195 310.528 223.833 307.974 223.068ZM312.635 223.768 313.615 224.061 315.159 224.735 314.892 225.346 313.367 224.681 313.404 224.694 312.444 224.407ZM316.992 225.535 319.436 226.601 319.17 227.212 316.725 226.146ZM321.269 227.401 322.961 228.139 323.706 228.556 323.38 229.138 322.65 228.728 322.679 228.743 321.003 228.012ZM325.451 229.534 327.111 230.465 327.768 230.9 327.401 231.456 326.754 231.028 326.775 231.041 325.125 230.116ZM329.437 232.002 330.821 232.917 331.633 233.561 331.219 234.083 330.418 233.449 330.441 233.466 329.069 232.559ZM333.2 234.803 334.16 235.563 335.207 236.611 334.736 237.082 333.702 236.048 333.731 236.074 332.786 235.326ZM336.621 238.025 336.936 238.34 338.347 240.103 337.826 240.52 336.427 238.771 336.452 238.798 336.15 238.496ZM339.544 241.762 340.873 244.074 340.295 244.406 338.966 242.094ZM341.558 246.02 341.951 247.174 342.143 248.676 341.482 248.761 341.294 247.292 341.31 247.357 340.927 246.234ZM342.396 250.66 342.706 253.083 342.691 253.018 342.763 253.23 342.132 253.445 342.049 253.201 341.735 250.745ZM343.407 255.123 343.691 255.955 343.664 255.896 344.555 257.447 343.977 257.779 343.07 256.201 342.776 255.338ZM345.573 259.104 347.239 261.187 346.718 261.603 345.052 259.521ZM348.593 262.598 350.296 264.262 350.27 264.239 350.494 264.417 350.08 264.939 349.842 264.751 348.127 263.075ZM352.062 265.659 353.582 266.864 353.562 266.849 354.164 267.257 353.79 267.809 353.178 267.394 351.648 266.181ZM355.819 268.379 357.25 269.349 357.224 269.333 358.045 269.787 357.723 270.37 356.888 269.909 355.445 268.931ZM359.796 270.754 361.411 271.646 361.384 271.632 362.136 271.963 361.868 272.573 361.102 272.237 359.474 271.337ZM363.967 272.767 366.409 273.839 366.141 274.45 363.699 273.377ZM368.24 274.643 370.634 275.695 370.596 275.681 370.645 275.696 370.454 276.334 370.385 276.313 367.972 275.254ZM372.561 276.269 375.116 277.034 374.925 277.673 372.37 276.908ZM377.032 277.608 379.587 278.373 379.395 279.011 376.841 278.246ZM381.479 278.884 384.103 279.359 383.985 280.015 381.361 279.54ZM386.071 279.714 388.695 280.189 388.577 280.845 385.953 280.37ZM390.664 280.545 392.059 280.797 392.02 280.792 393.266 280.867 393.226 281.532 391.96 281.457 390.545 281.201ZM395.262 280.986 397.924 281.145 397.885 281.811 395.223 281.652ZM399.921 281.265 402.583 281.424 402.543 282.089 399.881 281.93ZM395.319 276.36 403.502 281.813 394.728 286.252C394.563 286.335 394.363 286.269 394.28 286.105 394.196 285.94 394.262 285.74 394.427 285.657L402.691 281.476 402.656 282.051 394.949 276.915C394.796 276.813 394.754 276.606 394.857 276.453 394.959 276.299 395.166 276.258 395.319 276.36Z"/><path d="M0.019892-0.332739 2.68181-0.173603 2.64202 0.491875-0.019892 0.332739ZM4.67824-0.054251 7.34015 0.104885 7.30037 0.770364 4.63846 0.611228ZM9.33659 0.224237 11.5397 0.355947 12.0311 0.444785 11.9125 1.10082 11.4407 1.01552 11.4801 1.02024 9.29681 0.889716ZM13.9992 0.800599 16.6233 1.27502 16.5047 1.93105 13.8806 1.45663ZM18.5914 1.63083 21.2156 2.10525 21.097 2.76128 18.4728 2.28686ZM23.2051 2.53194 25.7597 3.29679 25.5685 3.93545 23.0139 3.17059ZM27.6757 3.87044 30.2303 4.63529 30.0391 5.27395 27.4845 4.50909ZM32.1463 5.20894 33.1149 5.49894 34.6692 6.177 34.4026 6.78805 32.8667 6.11803 32.9044 6.13183 31.9551 5.84759ZM36.5023 6.9767 38.9466 8.04297 38.68 8.65402 36.2358 7.58775ZM40.7797 8.84267 42.4592 9.57534 43.2174 9.9889 42.8982 10.5742 42.1529 10.1676 42.1792 10.1805 40.5132 9.45372ZM44.9732 10.9466 46.6112 11.8401 47.3007 12.3075 46.9266 12.8593 46.2504 12.4009 46.2779 12.4176 44.654 11.5319ZM48.9561 13.4298 50.3207 14.355 51.1425 14.9907 50.7345 15.518 49.921 14.8887 49.9379 14.9009 48.582 13.9816ZM52.7244 16.2144 53.6582 16.9368 54.739 18.0175 54.2675 18.489 53.2018 17.4232 53.2335 17.4512 52.3165 16.7417ZM56.1532 19.4318 56.4363 19.7149 57.8751 21.5134 57.3545 21.9298 55.9272 20.1457 55.9518 20.1732 55.6818 19.9032ZM59.0707 23.1703 60.4296 25.4855 60.4457 25.5328 59.8146 25.7476 59.8094 25.7324 59.8375 25.7937 58.4958 23.5078ZM61.0902 27.4261 61.4514 28.4869 61.6557 30.0872 60.9944 30.1716 60.7943 28.6047 60.8094 28.6699 60.4591 27.6409ZM61.9089 32.0711 62.2056 34.3953 62.1905 34.3301 62.2948 34.6364 61.6637 34.8513 61.5486 34.5131 61.2477 32.1555ZM62.9394 36.5298 63.1905 37.2676 63.1625 37.2063 64.1178 38.8339 63.5429 39.1713 62.5704 37.5145 62.3083 36.7446ZM65.1686 40.4741 66.8345 42.5564 66.3139 42.9728 64.648 40.8905ZM68.1927 43.9713 69.7982 45.5768 69.7665 45.5488 70.0797 45.7912 69.6718 46.3185 69.3418 46.0632 67.7213 44.4427ZM71.6617 47.0149 73.079 48.1113 73.062 48.0991 73.7861 48.59 73.412 49.1418 72.6793 48.645 71.2537 47.5422ZM75.4415 49.7123 76.7495 50.5991 76.7236 50.5832 77.6746 51.1084 77.3524 51.692 76.388 51.1594 75.0674 50.2641ZM79.4254 52.0752 80.9111 52.8957 80.8823 52.8815 81.7721 53.2663 81.5075 53.8782 80.6029 53.4871 79.1031 52.6588ZM83.6078 54.0602 86.0555 55.1186 85.7908 55.7305 83.3432 54.6721ZM87.8912 55.9124 90.1323 56.8815 90.0956 56.8682 90.3111 56.9327 90.1199 57.5714 89.8857 57.5012 87.6266 56.5243ZM92.2271 57.5063 94.7817 58.2712 94.5905 58.9098 92.0359 58.145ZM96.6977 58.8448 99.2523 59.6097 99.0611 60.2484 96.5065 59.4835ZM101.149 60.1024 103.773 60.5768 103.655 61.2329 101.031 60.7585ZM105.741 60.9327 108.366 61.4071 108.247 62.0631 105.623 61.5887ZM110.334 61.7629 111.559 61.9845 111.52 61.9798 112.939 62.0646 112.899 62.73 111.46 62.6441 110.215 62.4189ZM114.935 62.1839 117.597 62.3431 117.557 63.0085 114.895 62.8494ZM119.593 62.4624 122.255 62.6216 122.215 63.287 119.554 63.1279ZM114.819 57.5475 123.002 63.0001 114.227 67.439C114.063 67.5221 113.863 67.4563 113.78 67.2921 113.696 67.1278 113.762 66.9273 113.926 66.8442L122.191 62.6632 122.156 63.238 114.449 58.1023C114.296 58.0002 114.254 57.7932 114.357 57.64 114.459 57.4868 114.666 57.4454 114.819 57.5475Z" transform="matrix(1 0 0 -1 280.5 344.461)"/><g clip-path="url(#clip22)"><g clip-path="url(#clip23)"><g clip-path="url(#clip24)"><path d="M354.13 211.916 365.327 211.916 365.327 212.856 354.13 212.856Z"/><path d="M353.164 215.634 364.362 215.634 364.362 216.575 353.164 216.575Z"/><path d="M369.964 201.859 369.964 201.254 351.014 201.254 351.014 201.859C351.014 203.108 351.048 204.415 351.048 205.771 351.048 207.749 350.976 209.833 350.623 212.003 350.288 214.066 349.7 216.207 348.68 218.415L346.856 218.415C346.534 218.415 346.209 218.466 345.895 218.575 345.424 218.739 344.979 219.037 344.642 219.475 344.304 219.912 344.081 220.481 344.015 221.152 344.005 221.249 344 221.345 344 221.441 344 221.927 344.125 222.385 344.335 222.787 344.652 223.391 345.152 223.871 345.733 224.206 346.315 224.541 346.982 224.734 347.662 224.738L362.068 224.746C362.616 224.748 363.092 224.636 363.496 224.452 363.902 224.269 364.232 224.025 364.539 223.781 365.794 222.781 366.764 221.543 367.508 220.168 368.625 218.103 369.241 215.731 369.586 213.319 369.93 210.907 370 208.452 370 206.217 370 204.616 369.964 203.128 369.964 201.859ZM347.669 223.529 347.669 223.529C347.369 223.527 347.057 223.468 346.763 223.358 346.32 223.194 345.919 222.915 345.643 222.579 345.504 222.411 345.396 222.229 345.322 222.04 345.249 221.85 345.21 221.652 345.21 221.441 345.21 221.386 345.212 221.329 345.218 221.272 345.25 220.953 345.327 220.697 345.429 220.49 345.582 220.181 345.79 219.975 346.035 219.834 346.28 219.695 346.567 219.631 346.856 219.631L359.82 219.631C359.68 219.793 359.555 219.977 359.455 220.186 359.307 220.491 359.208 220.846 359.168 221.245 359.16 221.336 359.155 221.425 359.155 221.514 359.155 221.936 359.256 222.336 359.432 222.691 359.59 223.011 359.807 223.294 360.065 223.536L347.669 223.529ZM367.964 215.432C367.615 216.923 367.125 218.336 366.444 219.592 365.764 220.849 364.896 221.949 363.785 222.835 363.505 223.059 363.259 223.232 362.999 223.349 362.739 223.465 362.461 223.535 362.068 223.537L361.664 223.536C361.298 223.433 360.959 223.249 360.683 223.009 360.46 222.815 360.279 222.586 360.155 222.334 360.031 222.082 359.962 221.808 359.962 221.514 359.962 221.452 359.964 221.389 359.971 221.326 360.003 221.009 360.078 220.749 360.181 220.535 360.336 220.216 360.549 219.998 360.796 219.852 361.042 219.707 361.326 219.636 361.608 219.637 361.894 219.636 362.177 219.71 362.411 219.841 362.646 219.973 362.83 220.159 362.941 220.39 363 220.512 363.036 220.675 363.036 220.839 363.036 220.974 363.012 221.108 362.968 221.22 362.925 221.333 362.863 221.421 362.791 221.483 362.656 221.596 362.518 221.639 362.379 221.64 362.257 221.64 362.136 221.604 362.035 221.538 361.933 221.473 361.854 221.382 361.808 221.274L361.067 221.592C361.18 221.856 361.37 222.07 361.6 222.217 361.828 222.364 362.098 222.446 362.379 222.446 362.699 222.448 363.036 222.334 363.314 222.096 363.504 221.934 363.636 221.729 363.72 221.512 363.804 221.296 363.842 221.066 363.842 220.839 363.842 220.564 363.786 220.289 363.668 220.041 363.478 219.645 363.166 219.34 362.805 219.138 362.451 218.94 362.047 218.836 361.637 218.831L361.637 218.825 349.825 218.825C350.867 216.541 351.472 214.32 351.817 212.197 352.185 209.932 352.258 207.778 352.258 205.771 352.258 204.617 352.234 203.514 352.227 202.463L368.757 202.463C368.765 203.606 368.79 204.875 368.79 206.217 368.791 209.162 368.663 212.451 367.964 215.432Z"/><path d="M360.817 209.564C360.959 207.983 360.966 206.47 360.951 205.039L354.687 205.039C354.701 206.47 354.694 207.983 354.552 209.564L360.817 209.564Z"/></g></g></g><text font-family="Calibri,Calibri_MSFontService,sans-serif" font-weight="400" font-size="11" transform="translate(359.018 210)">12</text><g clip-path="url(#clip25)"><g clip-path="url(#clip26)"><g clip-path="url(#clip27)"><path d="M10.1296 11.9158 21.3271 11.9158 21.3271 12.8564 10.1296 12.8564Z" stroke="#FF0000" stroke-width="0.0508138" transform="matrix(1.03846 0 0 1 310 221)"/><path d="M9.16403 15.6341 20.3615 15.6341 20.3615 16.5752 9.16403 16.5752Z" stroke="#FF0000" stroke-width="0.0508138" transform="matrix(1.03846 0 0 1 310 221)"/><path d="M25.9636 1.8587 25.9636 1.25359 7.01375 1.25359 7.01375 1.8587C7.01375 3.10837 7.04849 4.41472 7.04849 5.77109 7.04849 7.74922 6.97562 9.83323 6.62299 12.0028 6.28753 14.0661 5.70004 16.2072 4.68041 18.4146L2.85639 18.4146C2.53409 18.4146 2.20868 18.4664 1.89475 18.5753 1.42446 18.7386 0.979215 19.0368 0.641977 19.475 0.303875 19.9123 0.0808437 20.481 0.0145234 21.1515 0.004875 21.2485 0 21.3451 0 21.4408-0.000457031 21.9269 0.124719 22.3853 0.335461 22.7871 0.652031 23.3913 1.15218 23.8713 1.73311 24.2063 2.31497 24.5409 2.98233 24.7336 3.66204 24.7384L18.0676 24.7464C18.6161 24.7477 19.0916 24.6357 19.4965 24.4517 19.9017 24.2687 20.2324 24.0254 20.5393 23.7808 21.7943 22.7814 22.7638 21.5427 23.5081 20.1679 24.6247 18.1033 25.2412 15.7313 25.5859 13.3193 25.9297 10.9073 25.9995 8.45183 25.9999 6.21679 26 4.61622 25.9636 3.12812 25.9636 1.8587ZM3.66869 23.5288 3.66915 23.5288C3.36878 23.5274 3.05744 23.4681 2.7628 23.358 2.32025 23.1937 1.91887 22.9153 1.64267 22.5794 1.50394 22.4112 1.39593 22.2294 1.32214 22.0398 1.24886 21.8496 1.20971 21.6517 1.20971 21.4409 1.20971 21.3856 1.21235 21.3293 1.21809 21.2723 1.25013 20.9526 1.32696 20.6966 1.42883 20.4898 1.5825 20.1807 1.79024 19.9752 2.03526 19.8342 2.27982 19.6946 2.56654 19.6314 2.85639 19.6314L15.8204 19.6314C15.6799 19.7925 15.5548 19.9769 15.4546 20.1855 15.3071 20.4911 15.2083 20.8459 15.1683 21.2451 15.1595 21.3359 15.1551 21.4251 15.1551 21.5138 15.1551 21.9362 15.2561 22.3362 15.4317 22.6915 15.5898 23.0107 15.8072 23.2944 16.0649 23.5359L3.66869 23.5288ZM23.9644 15.4322C23.6153 16.923 23.1248 18.3355 22.4442 19.5922 21.7636 20.8489 20.8964 21.9493 19.7854 22.835 19.5053 23.0589 19.2589 23.2324 18.9994 23.3487 18.7386 23.465 18.4607 23.5353 18.0681 23.5366L17.6642 23.5362C17.2984 23.4326 16.959 23.2495 16.6828 23.0088 16.4597 22.8152 16.2792 22.586 16.1549 22.334 16.0307 22.0819 15.9617 21.8079 15.9617 21.5137 15.9617 21.4523 15.9644 21.3895 15.971 21.3258 16.0026 21.0092 16.0781 20.7488 16.1808 20.5354 16.3359 20.2158 16.5493 19.9984 16.7961 19.8522 17.0424 19.7069 17.3256 19.6361 17.6083 19.6366 17.8938 19.6357 18.1765 19.7095 18.4106 19.8408 18.6455 19.973 18.8295 20.1587 18.9411 20.3901 18.9999 20.5122 19.0363 20.6751 19.0363 20.8394 19.0363 20.9741 19.0122 21.1081 18.9683 21.2201 18.9248 21.3329 18.8628 21.4212 18.7908 21.4827 18.6556 21.5964 18.5177 21.6394 18.3785 21.6403 18.2573 21.6403 18.1362 21.6038 18.0352 21.5384 17.9333 21.4734 17.8542 21.3821 17.8077 21.2736L17.0665 21.5916C17.1798 21.8564 17.3703 22.0702 17.5996 22.2173 17.8283 22.3644 18.0979 22.4465 18.3785 22.4465 18.6995 22.4478 19.0363 22.3341 19.3138 22.0965 19.5039 21.934 19.6356 21.7285 19.7199 21.5121 19.8038 21.2956 19.842 21.0663 19.842 20.8394 19.842 20.5636 19.7863 20.2892 19.6677 20.0411 19.4776 19.6454 19.1663 19.3402 18.8053 19.1378 18.4514 18.9398 18.0474 18.8362 17.6368 18.8309L17.6368 18.8247 5.82461 18.8247C6.86705 16.541 7.47216 14.32 7.81681 12.1969 8.18477 9.9321 8.25764 7.77832 8.25764 5.77119 8.25764 4.61723 8.23438 3.51421 8.22692 2.46345L24.7569 2.46345C24.7648 3.60638 24.7902 4.87541 24.7902 6.21684 24.7912 9.1618 24.6634 12.4507 23.9644 15.4322Z" stroke="#FF0000" stroke-width="0.0508138" transform="matrix(1.03846 0 0 1 310 221)"/><path d="M16.8171 9.56404C16.959 7.98327 16.966 6.47014 16.9515 5.03912L10.6868 5.03912C10.7013 6.47014 10.6938 7.98327 10.552 9.56404L16.8171 9.56404Z" stroke="#FF0000" stroke-width="0.0508138" transform="matrix(1.03846 0 0 1 310 221)"/></g></g></g><text font-family="Calibri,Calibri_MSFontService,sans-serif" font-weight="400" font-size="11" transform="translate(327.991 232)">2</text><g clip-path="url(#clip28)"><g clip-path="url(#clip29)"><g clip-path="url(#clip30)"><path d="M311.13 332.916 322.327 332.916 322.327 333.856 311.13 333.856Z" stroke="#FF0000" stroke-width="0.0508138"/><path d="M310.164 336.634 321.362 336.634 321.362 337.575 310.164 337.575Z" stroke="#FF0000" stroke-width="0.0508138"/><path d="M326.964 322.859 326.964 322.254 308.014 322.254 308.014 322.859C308.014 324.108 308.048 325.415 308.048 326.771 308.048 328.749 307.976 330.833 307.623 333.003 307.288 335.066 306.7 337.207 305.68 339.415L303.856 339.415C303.534 339.415 303.209 339.466 302.895 339.575 302.424 339.739 301.979 340.037 301.642 340.475 301.304 340.912 301.081 341.481 301.015 342.152 301.005 342.249 301 342.345 301 342.441 301 342.927 301.125 343.385 301.335 343.787 301.652 344.391 302.152 344.871 302.733 345.206 303.315 345.541 303.982 345.734 304.662 345.738L319.068 345.746C319.616 345.748 320.092 345.636 320.496 345.452 320.902 345.269 321.232 345.025 321.539 344.781 322.794 343.781 323.764 342.543 324.508 341.168 325.625 339.103 326.241 336.731 326.586 334.319 326.93 331.907 327 329.452 327 327.217 327 325.616 326.964 324.128 326.964 322.859ZM304.669 344.529 304.669 344.529C304.369 344.527 304.057 344.468 303.763 344.358 303.32 344.194 302.919 343.915 302.643 343.579 302.504 343.411 302.396 343.229 302.322 343.04 302.249 342.85 302.21 342.652 302.21 342.441 302.21 342.386 302.212 342.329 302.218 342.272 302.25 341.953 302.327 341.697 302.429 341.49 302.582 341.181 302.79 340.975 303.035 340.834 303.28 340.695 303.567 340.631 303.856 340.631L316.82 340.631C316.68 340.793 316.555 340.977 316.455 341.185 316.307 341.491 316.208 341.846 316.168 342.245 316.16 342.336 316.155 342.425 316.155 342.514 316.155 342.936 316.256 343.336 316.432 343.691 316.59 344.011 316.807 344.294 317.065 344.536L304.669 344.529ZM324.964 336.432C324.615 337.923 324.125 339.336 323.444 340.592 322.764 341.849 321.896 342.949 320.785 343.835 320.505 344.059 320.259 344.232 319.999 344.349 319.739 344.465 319.461 344.535 319.068 344.537L318.664 344.536C318.298 344.433 317.959 344.249 317.683 344.009 317.46 343.815 317.279 343.586 317.155 343.334 317.031 343.082 316.962 342.808 316.962 342.514 316.962 342.452 316.964 342.389 316.971 342.326 317.003 342.009 317.078 341.749 317.181 341.535 317.336 341.216 317.549 340.998 317.796 340.852 318.042 340.707 318.326 340.636 318.608 340.637 318.894 340.636 319.177 340.71 319.411 340.841 319.646 340.973 319.83 341.159 319.941 341.39 320 341.512 320.036 341.675 320.036 341.839 320.036 341.974 320.012 342.108 319.968 342.22 319.925 342.333 319.863 342.421 319.791 342.483 319.656 342.596 319.518 342.639 319.379 342.64 319.257 342.64 319.136 342.604 319.035 342.538 318.933 342.473 318.854 342.382 318.808 342.274L318.067 342.592C318.18 342.856 318.37 343.07 318.6 343.217 318.828 343.364 319.098 343.446 319.379 343.446 319.699 343.448 320.036 343.334 320.314 343.096 320.504 342.934 320.636 342.729 320.72 342.512 320.804 342.296 320.842 342.066 320.842 341.839 320.842 341.564 320.786 341.289 320.668 341.041 320.478 340.645 320.166 340.34 319.805 340.138 319.451 339.94 319.047 339.836 318.637 339.831L318.637 339.825 306.825 339.825C307.867 337.541 308.472 335.32 308.817 333.197 309.185 330.932 309.258 328.778 309.258 326.771 309.258 325.617 309.234 324.514 309.227 323.463L325.757 323.463C325.765 324.606 325.79 325.875 325.79 327.217 325.791 330.162 325.663 333.451 324.964 336.432Z" stroke="#FF0000" stroke-width="0.0508138"/><path d="M317.817 330.564C317.959 328.983 317.966 327.47 317.951 326.039L311.687 326.039C311.701 327.47 311.694 328.983 311.552 330.564L317.817 330.564Z" stroke="#FF0000" stroke-width="0.0508138"/></g></g></g><text font-family="Calibri,Calibri_MSFontService,sans-serif" font-weight="400" font-size="11" transform="translate(318.787 332)">1</text><path d="M270 369 270 398.081" stroke="#000000" stroke-width="8" stroke-miterlimit="8" stroke-dasharray="8 8" fill="none" fill-rule="evenodd"/><path d="M417 368 417 397.081" stroke="#000000" stroke-width="8" stroke-miterlimit="8" stroke-dasharray="8 8" fill="none" fill-rule="evenodd"/><g clip-path="url(#clip31)"><g clip-path="url(#clip32)"><g clip-path="url(#clip33)"><path d="M540.601 301.185C540.601 301.185 541.186 300.235 541.889 299.092L532.569 293.357C531.866 294.498 531.281 295.45 531.281 295.45 531.281 295.45 532.964 299.107 530.681 302.816L532.488 303.928 534.295 305.041C536.577 301.33 540.601 301.185 540.601 301.185Z" fill="#FF0000"/><path d="M551.585 283.339C551.95 282.742 551.765 281.963 551.17 281.596L544.006 277.188C543.799 277.061 543.57 277 543.344 277 542.919 277 542.504 277.214 542.264 277.603L533.037 292.596 542.357 298.331 551.585 283.339ZM535.771 291.946 543.579 279.259 549.514 282.911 541.706 295.597 535.771 291.946Z" fill="#FF0000"/><path d="M529.364 306.586 532.492 306.586 533.297 305.277 530.919 303.815Z" fill="#FF0000"/><path d="M557.208 306.332 535.135 306.332C534.899 306.332 534.707 306.523 534.707 306.759L534.707 307.572C534.707 307.809 534.899 308 535.135 308L557.208 308C557.445 308 557.636 307.809 557.636 307.572L557.636 306.759C557.636 306.523 557.445 306.332 557.208 306.332Z" fill="#FF0000"/></g></g></g><g clip-path="url(#clip34)"><g clip-path="url(#clip35)"><g clip-path="url(#clip36)"><path d="M145.612 301.441C145.054 300.604 144.278 300.046 143.477 299.649 145.252 297.446 142.141 291.922 141.917 284.161 141.917 281.24 140.01 276.656 133.704 277.021 128.887 277.299 126.646 281.684 126.646 283.888L126.616 283.904C126.467 291.68 124.211 297.057 125.62 299.588 125.143 299.817 124.673 300.099 124.248 300.465 123.768 300.876 123.346 301.394 123.05 302.037 122.753 302.681 122.583 303.444 122.584 304.338 122.584 304.546 122.593 304.76 122.612 304.982 122.625 305.138 122.684 305.264 122.754 305.368 122.886 305.563 123.061 305.707 123.281 305.855 123.666 306.11 124.2 306.359 124.882 306.603 126.926 307.332 130.308 307.999 134.5 308 137.906 308 140.781 307.558 142.833 307.002 143.859 306.724 144.679 306.419 145.271 306.115 145.567 305.962 145.807 305.811 145.998 305.645 146.093 305.561 146.176 305.473 146.247 305.368 146.315 305.264 146.375 305.138 146.389 304.982 146.407 304.76 146.416 304.547 146.416 304.34 146.418 303.148 146.112 302.188 145.612 301.441ZM128.056 288.175C128.299 288.338 128.569 288.438 128.866 288.457 135.526 287.896 138.12 284.882 137.91 282.989 138.962 285.512 138.752 287.458 140.171 288.352 140.313 288.182 140.444 288.003 140.568 287.82 140.627 287.83 140.7 287.85 140.757 287.887 140.81 287.921 140.853 287.961 140.893 288.033 140.932 288.106 140.969 288.222 140.97 288.419 140.97 288.589 140.94 288.817 140.856 289.112 140.601 290.011 140.372 290.534 140.162 290.824 140.057 290.97 139.961 291.062 139.854 291.137 139.747 291.211 139.624 291.27 139.463 291.327L139.21 291.418 139.163 291.683C138.867 293.341 138.013 294.274 137.381 294.977L137.263 295.108 137.263 295.286C137.263 296.128 137.263 296.741 137.263 297.232 137.262 297.507 137.361 297.754 137.499 297.962L135.959 300.865 135.965 300.87 134.654 303.352 133.002 300.706 131.524 297.919C131.648 297.721 131.738 297.491 131.738 297.232 131.738 296.741 131.738 296.127 131.738 295.286L131.738 295.108 131.619 294.977C130.988 294.274 130.134 293.341 129.837 291.683L129.79 291.418 129.538 291.328C129.377 291.27 129.254 291.211 129.146 291.137 128.988 291.025 128.845 290.873 128.678 290.56 128.512 290.25 128.337 289.786 128.144 289.112 128.06 288.818 128.03 288.589 128.03 288.419 128.031 288.318 128.041 288.239 128.056 288.175ZM139.23 302.862 136.496 300.749 137.792 298.305C138 298.503 138.243 298.669 138.503 298.818 138.637 298.894 138.779 298.96 138.92 299.027L139.23 302.862ZM132.549 300.749 129.815 302.862 130.125 299.014C130.366 298.897 130.604 298.764 130.823 298.612 130.971 298.509 131.106 298.392 131.233 298.267L132.549 300.749ZM135.236 307.066C134.993 307.07 134.749 307.074 134.5 307.074 131.176 307.075 128.372 306.641 126.41 306.109 125.43 305.844 124.659 305.553 124.153 305.293 123.901 305.163 123.716 305.039 123.613 304.949 123.569 304.911 123.544 304.881 123.532 304.865 123.518 304.682 123.509 304.506 123.509 304.338 123.511 303.3 123.765 302.541 124.157 301.946 124.744 301.058 125.686 300.514 126.671 300.143 127.161 299.958 127.657 299.817 128.112 299.695 128.568 299.573 128.981 299.471 129.324 299.35 129.441 299.309 129.564 299.263 129.688 299.212L129.319 303.778 132.762 301.116 135.236 305.081 135.236 307.066ZM145.468 304.864 145.428 304.911C145.36 304.98 145.222 305.084 145.029 305.194 144.347 305.588 143 306.072 141.193 306.439 139.657 306.753 137.779 306.99 135.657 307.054L135.657 304.959 134.912 303.765 136.303 301.131 139.725 303.777 139.358 299.221C139.462 299.264 139.567 299.31 139.668 299.348 140.126 299.518 140.711 299.651 141.349 299.838 142.305 300.114 143.361 300.502 144.147 301.177 144.542 301.515 144.872 301.92 145.109 302.431 145.345 302.941 145.491 303.561 145.491 304.34 145.491 304.506 145.482 304.682 145.468 304.864Z" fill="#FF0000"/><path d="M134.361 306.334C134.521 306.334 134.65 306.205 134.65 306.045 134.65 305.885 134.521 305.756 134.361 305.756 134.201 305.756 134.072 305.885 134.072 306.045 134.072 306.205 134.201 306.334 134.361 306.334Z" fill="#FF0000"/></g></g></g><g clip-path="url(#clip37)"><g clip-path="url(#clip38)"><g clip-path="url(#clip39)"><path d="M10.1296 11.9158 21.3271 11.9158 21.3271 12.8564 10.1296 12.8564Z" stroke="#FF0000" stroke-width="0.0508138" fill="#FF0000" transform="matrix(1 0 0 1.03846 121 365)"/><path d="M9.16403 15.6341 20.3615 15.6341 20.3615 16.5752 9.16403 16.5752Z" stroke="#FF0000" stroke-width="0.0508138" fill="#FF0000" transform="matrix(1 0 0 1.03846 121 365)"/><path d="M25.9636 1.8587 25.9636 1.25359 7.01375 1.25359 7.01375 1.8587C7.01375 3.10837 7.04849 4.41472 7.04849 5.77109 7.04849 7.74922 6.97562 9.83323 6.62299 12.0028 6.28753 14.0661 5.70004 16.2072 4.68041 18.4146L2.85639 18.4146C2.53409 18.4146 2.20868 18.4664 1.89475 18.5753 1.42446 18.7386 0.979215 19.0368 0.641977 19.475 0.303875 19.9123 0.0808437 20.481 0.0145234 21.1515 0.004875 21.2485 0 21.3451 0 21.4408-0.000457031 21.9269 0.124719 22.3853 0.335461 22.7871 0.652031 23.3913 1.15218 23.8713 1.73311 24.2063 2.31497 24.5409 2.98233 24.7336 3.66204 24.7384L18.0676 24.7464C18.6161 24.7477 19.0916 24.6357 19.4965 24.4517 19.9017 24.2687 20.2324 24.0254 20.5393 23.7808 21.7943 22.7814 22.7638 21.5427 23.5081 20.1679 24.6247 18.1033 25.2412 15.7313 25.5859 13.3193 25.9297 10.9073 25.9995 8.45183 25.9999 6.21679 26 4.61622 25.9636 3.12812 25.9636 1.8587ZM3.66869 23.5288 3.66915 23.5288C3.36878 23.5274 3.05744 23.4681 2.7628 23.358 2.32025 23.1937 1.91887 22.9153 1.64267 22.5794 1.50394 22.4112 1.39593 22.2294 1.32214 22.0398 1.24886 21.8496 1.20971 21.6517 1.20971 21.4409 1.20971 21.3856 1.21235 21.3293 1.21809 21.2723 1.25013 20.9526 1.32696 20.6966 1.42883 20.4898 1.5825 20.1807 1.79024 19.9752 2.03526 19.8342 2.27982 19.6946 2.56654 19.6314 2.85639 19.6314L15.8204 19.6314C15.6799 19.7925 15.5548 19.9769 15.4546 20.1855 15.3071 20.4911 15.2083 20.8459 15.1683 21.2451 15.1595 21.3359 15.1551 21.4251 15.1551 21.5138 15.1551 21.9362 15.2561 22.3362 15.4317 22.6915 15.5898 23.0107 15.8072 23.2944 16.0649 23.5359L3.66869 23.5288ZM23.9644 15.4322C23.6153 16.923 23.1248 18.3355 22.4442 19.5922 21.7636 20.8489 20.8964 21.9493 19.7854 22.835 19.5053 23.0589 19.2589 23.2324 18.9994 23.3487 18.7386 23.465 18.4607 23.5353 18.0681 23.5366L17.6642 23.5362C17.2984 23.4326 16.959 23.2495 16.6828 23.0088 16.4597 22.8152 16.2792 22.586 16.1549 22.334 16.0307 22.0819 15.9617 21.8079 15.9617 21.5137 15.9617 21.4523 15.9644 21.3895 15.971 21.3258 16.0026 21.0092 16.0781 20.7488 16.1808 20.5354 16.3359 20.2158 16.5493 19.9984 16.7961 19.8522 17.0424 19.7069 17.3256 19.6361 17.6083 19.6366 17.8938 19.6357 18.1765 19.7095 18.4106 19.8408 18.6455 19.973 18.8295 20.1587 18.9411 20.3901 18.9999 20.5122 19.0363 20.6751 19.0363 20.8394 19.0363 20.9741 19.0122 21.1081 18.9683 21.2201 18.9248 21.3329 18.8628 21.4212 18.7908 21.4827 18.6556 21.5964 18.5177 21.6394 18.3785 21.6403 18.2573 21.6403 18.1362 21.6038 18.0352 21.5384 17.9333 21.4734 17.8542 21.3821 17.8077 21.2736L17.0665 21.5916C17.1798 21.8564 17.3703 22.0702 17.5996 22.2173 17.8283 22.3644 18.0979 22.4465 18.3785 22.4465 18.6995 22.4478 19.0363 22.3341 19.3138 22.0965 19.5039 21.934 19.6356 21.7285 19.7199 21.5121 19.8038 21.2956 19.842 21.0663 19.842 20.8394 19.842 20.5636 19.7863 20.2892 19.6677 20.0411 19.4776 19.6454 19.1663 19.3402 18.8053 19.1378 18.4514 18.9398 18.0474 18.8362 17.6368 18.8309L17.6368 18.8247 5.82461 18.8247C6.86705 16.541 7.47216 14.32 7.81681 12.1969 8.18477 9.9321 8.25764 7.77832 8.25764 5.77119 8.25764 4.61723 8.23438 3.51421 8.22692 2.46345L24.7569 2.46345C24.7648 3.60638 24.7902 4.87541 24.7902 6.21684 24.7912 9.1618 24.6634 12.4507 23.9644 15.4322Z" stroke="#FF0000" stroke-width="0.0508138" fill="#FF0000" transform="matrix(1 0 0 1.03846 121 365)"/><path d="M16.8171 9.56404C16.959 7.98327 16.966 6.47014 16.9515 5.03912L10.6868 5.03912C10.7013 6.47014 10.6938 7.98327 10.552 9.56404L16.8171 9.56404Z" stroke="#FF0000" stroke-width="0.0508138" fill="#FF0000" transform="matrix(1 0 0 1.03846 121 365)"/></g></g></g><rect x="468" y="221" width="137" height="42" fill="#F2F2F2"/><text font-family="Yu Gothic,Yu Gothic_MSFontService,sans-serif" font-weight="400" font-size="13" transform="translate(478.077 238)">商品は担当部署の<tspan font-size="13" x="0" y="16">都合で追加される</tspan><tspan font-family="Calibri,Calibri_MSFontService,sans-serif" font-size="13" x="106.667" y="16">…</tspan></text><path d="M156.5 287 157.188 287 157.188 298 156.5 298ZM157.875 287 159.25 287 159.25 298 157.875 298ZM159.938 287 173.5 287 173.5 281.5 184.5 292.5 173.5 303.5 173.5 298 159.938 298Z" stroke="#FFC000" stroke-width="0.666667" stroke-miterlimit="8" fill="url(#fill40)" fill-rule="evenodd"/><path d="M0 5.25 0.656242 5.25 0.656242 15.75 0 15.75ZM1.31252 5.25 2.625 5.25 2.625 15.75 1.31252 15.75ZM3.28124 5.25 17.5 5.25 17.5 0 28 10.5 17.5 21 17.5 15.75 3.28124 15.75Z" stroke="#FFC000" stroke-width="0.666667" stroke-miterlimit="8" fill="url(#fill41)" fill-rule="evenodd" transform="matrix(-1 0 0 1 518.5 282.5)"/><rect x="66" y="228" width="137" height="42" fill="#F2F2F2"/><text font-family="Yu Gothic,Yu Gothic_MSFontService,sans-serif" font-weight="400" font-size="13" transform="translate(76.0113 244)">顧客は任意の時点<tspan font-size="13" x="0" y="16">で増えていく</tspan><tspan font-family="Calibri,Calibri_MSFontService,sans-serif" font-size="13" x="80" y="16">…</tspan></text><rect x="66" y="319" width="142" height="42" fill="#F2F2F2"/><text font-family="Yu Gothic,Yu Gothic_MSFontService,sans-serif" font-weight="400" font-size="13" transform="translate(75.5947 336)">注文は顧客の都合で<tspan font-size="13" x="0" y="16">バラバラに生じる</tspan><tspan font-family="Calibri,Calibri_MSFontService,sans-serif" font-size="13" x="106.667" y="16">…</tspan></text><path d="M158.5 372.75 159.156 372.75 159.156 383.25 158.5 383.25ZM159.813 372.75 161.125 372.75 161.125 383.25 159.813 383.25ZM161.781 372.75 177 372.75 177 367.5 187.5 378 177 388.5 177 383.25 161.781 383.25Z" stroke="#FFC000" stroke-width="0.666667" stroke-miterlimit="8" fill="url(#fill42)" fill-rule="evenodd"/><text font-family="Yu Gothic,Yu Gothic_MSFontService,sans-serif" font-weight="400" font-size="13" transform="translate(198.497 458)">結果として生じる、<tspan font-family="Arial,Arial_MSFontService,sans-serif" font-size="13" x="0" y="16">•</tspan><tspan font-size="13" x="18" y="16">同一商品に対する注文の競合</tspan><tspan font-family="Arial,Arial_MSFontService,sans-serif" font-size="13" x="0" y="32">•</tspan><tspan font-size="13" x="18" y="32">在庫引当の不整合</tspan><tspan font-size="13" x="0" y="48">等を防ぐ、ビジネス的な観点から検討された</tspan><tspan font-size="13" x="0" y="64">概念クラスや関係を、概念情報モデルで定義すること</tspan></text></g></svg>