<svg width="558" height="478" xmlns="http://www.w3.org/2000/svg" xmlns:xlink="http://www.w3.org/1999/xlink" overflow="hidden"><defs><clipPath id="clip0"><rect x="81" y="519" width="558" height="478"/></clipPath><clipPath id="clip1"><rect x="115" y="660" width="63" height="63"/></clipPath><clipPath id="clip2"><rect x="115" y="660" width="63" height="63"/></clipPath><clipPath id="clip3"><rect x="115" y="660" width="63" height="63"/></clipPath><linearGradient x1="441" y1="640.5" x2="441" y2="669.5" gradientUnits="userSpaceOnUse" spreadMethod="reflect" id="fill4"><stop offset="0" stop-color="#FFDD9C"/><stop offset="0.5" stop-color="#FFD78E"/><stop offset="1" stop-color="#FFD479"/></linearGradient><clipPath id="clip5"><rect x="321" y="549" width="31" height="31"/></clipPath><clipPath id="clip6"><rect x="321" y="549" width="31" height="31"/></clipPath><clipPath id="clip7"><rect x="321" y="549" width="31" height="31"/></clipPath><clipPath id="clip8"><rect x="497" y="582" width="23" height="23"/></clipPath><clipPath id="clip9"><rect x="497" y="582" width="23" height="23"/></clipPath><clipPath id="clip10"><rect x="497" y="582" width="23" height="23"/></clipPath><clipPath id="clip11"><rect x="389" y="550" width="38" height="31"/></clipPath><clipPath id="clip12"><rect x="389" y="550" width="38" height="31"/></clipPath><clipPath id="clip13"><rect x="389" y="550" width="38" height="31"/></clipPath><clipPath id="clip14"><rect x="464" y="549" width="32" height="31"/></clipPath><clipPath id="clip15"><rect x="464" y="549" width="32" height="31"/></clipPath><clipPath id="clip16"><rect x="464" y="549" width="32" height="31"/></clipPath><linearGradient x1="439.5" y1="784.5" x2="439.5" y2="813.5" gradientUnits="userSpaceOnUse" spreadMethod="reflect" id="fill17"><stop offset="0" stop-color="#FFDD9C"/><stop offset="0.5" stop-color="#FFD78E"/><stop offset="1" stop-color="#FFD479"/></linearGradient><clipPath id="clip18"><rect x="319" y="697" width="32" height="32"/></clipPath><clipPath id="clip19"><rect x="319" y="697" width="32" height="32"/></clipPath><clipPath id="clip20"><rect x="319" y="697" width="32" height="32"/></clipPath><clipPath id="clip21"><rect x="350" y="729" width="22" height="23"/></clipPath><clipPath id="clip22"><rect x="350" y="729" width="22" height="23"/></clipPath><clipPath id="clip23"><rect x="350" y="729" width="22" height="23"/></clipPath><clipPath id="clip24"><rect x="391" y="696" width="32" height="31"/></clipPath><clipPath id="clip25"><rect x="391" y="696" width="32" height="31"/></clipPath><clipPath id="clip26"><rect x="391" y="696" width="32" height="31"/></clipPath><clipPath id="clip27"><rect x="463" y="697" width="32" height="32"/></clipPath><clipPath id="clip28"><rect x="463" y="697" width="32" height="32"/></clipPath><clipPath id="clip29"><rect x="463" y="697" width="32" height="32"/></clipPath><clipPath id="clip30"><rect x="534" y="697" width="32" height="32"/></clipPath><clipPath id="clip31"><rect x="534" y="697" width="32" height="32"/></clipPath><clipPath id="clip32"><rect x="534" y="697" width="32" height="32"/></clipPath><linearGradient x1="439.5" y1="935.5" x2="439.5" y2="963.5" gradientUnits="userSpaceOnUse" spreadMethod="reflect" id="fill33"><stop offset="0" stop-color="#FFDD9C"/><stop offset="0.5" stop-color="#FFD78E"/><stop offset="1" stop-color="#FFD479"/></linearGradient><clipPath id="clip34"><rect x="319" y="844" width="32" height="31"/></clipPath><clipPath id="clip35"><rect x="319" y="844" width="32" height="31"/></clipPath><clipPath id="clip36"><rect x="319" y="844" width="32" height="31"/></clipPath><clipPath id="clip37"><rect x="391" y="844" width="32" height="32"/></clipPath><clipPath id="clip38"><rect x="391" y="844" width="32" height="32"/></clipPath><clipPath id="clip39"><rect x="391" y="844" width="32" height="32"/></clipPath><clipPath id="clip40"><rect x="463" y="846" width="31" height="31"/></clipPath><clipPath id="clip41"><rect x="463" y="846" width="31" height="31"/></clipPath><clipPath id="clip42"><rect x="463" y="846" width="31" height="31"/></clipPath><clipPath id="clip43"><rect x="115" y="870" width="62" height="63"/></clipPath><clipPath id="clip44"><rect x="115" y="870" width="62" height="63"/></clipPath><clipPath id="clip45"><rect x="115" y="870" width="62" height="63"/></clipPath><clipPath id="clip46"><rect x="419" y="876" width="23" height="23"/></clipPath><clipPath id="clip47"><rect x="419" y="876" width="23" height="23"/></clipPath><clipPath id="clip48"><rect x="419" y="876" width="23" height="23"/></clipPath></defs><g clip-path="url(#clip0)" transform="translate(-81 -519)"><rect x="82" y="520" width="556" height="477" fill="#D9D9D9"/><text font-family="Yu Gothic,Yu Gothic_MSFontService,sans-serif" font-weight="400" font-size="16" transform="translate(91.4509 540)">現実世界</text><path d="M261 834 319.833 834 319.833 834 408.083 834 614 834 614 922.667 614 922.667 614 960.667 614 986 408.083 986 319.833 986 319.833 986 261 986 261 960.667 170.343 910.468 261 922.667Z" fill="#F2F2F2" fill-rule="evenodd"/><path d="M261 536 320 536 320 536 408.5 536 615 536 615 702.833 615 702.833 615 774.333 615 822 408.5 822 320 822 320 822 261 822 261 774.333 172.298 698.662 261 702.833Z" fill="#F2F2F2" fill-rule="evenodd"/><g clip-path="url(#clip1)"><g clip-path="url(#clip2)"><g clip-path="url(#clip3)"><path d="M173.735 674.604 155.23 687.711 155.23 674.604 135.919 688.282 134.31 663.339 118.217 663.339 115 719.661 178 719.661 173.735 674.604ZM138.951 705.471 131.35 705.471 131.35 697.869 138.951 697.869 138.951 705.471ZM160.541 705.471 152.938 705.471 152.938 697.869 160.541 697.869 160.541 705.471Z" fill="#4B4B4B"/></g></g></g><path d="M290.5 669.5 297.75 640.5 591.5 640.5 584.25 669.5Z" stroke="#FFC000" stroke-width="0.666667" stroke-miterlimit="8" fill="url(#fill4)" fill-rule="evenodd"/><g clip-path="url(#clip5)"><g clip-path="url(#clip6)"><g clip-path="url(#clip7)"><path d="M333.078 563.207 346.428 563.207 346.428 564.329 333.078 564.329Z" fill="#4B4B4B"/><path d="M331.926 567.641 345.277 567.641 345.277 568.763 331.926 568.763Z" fill="#4B4B4B"/><path d="M351.957 551.216 351.957 550.495 329.363 550.495 329.363 551.216C329.363 552.706 329.404 554.264 329.404 555.881 329.404 558.239 329.317 560.724 328.897 563.311 328.497 565.771 327.796 568.324 326.58 570.956L324.406 570.956C324.021 570.956 323.633 571.018 323.259 571.148 322.698 571.342 322.168 571.698 321.765 572.22 321.362 572.742 321.096 573.42 321.017 574.219 321.006 574.335 321 574.45 321 574.564 320.999 575.144 321.149 575.69 321.4 576.169 321.777 576.89 322.374 577.462 323.066 577.861 323.76 578.26 324.556 578.49 325.366 578.496L342.542 578.505C343.196 578.507 343.763 578.373 344.246 578.154 344.729 577.936 345.123 577.646 345.489 577.354 346.986 576.162 348.141 574.686 349.029 573.046 350.36 570.585 351.095 567.757 351.506 564.881 351.916 562.005 351.999 559.077 352 556.412 352 554.504 351.957 552.73 351.957 551.216ZM325.374 577.054 325.375 577.054C325.017 577.052 324.645 576.981 324.294 576.85 323.766 576.654 323.288 576.322 322.959 575.922 322.793 575.721 322.664 575.504 322.576 575.278 322.489 575.052 322.442 574.815 322.442 574.564 322.442 574.498 322.445 574.431 322.452 574.363 322.491 573.982 322.582 573.677 322.704 573.43 322.887 573.062 323.135 572.817 323.427 572.648 323.718 572.482 324.06 572.407 324.406 572.407L339.863 572.407C339.695 572.599 339.546 572.819 339.427 573.067 339.251 573.432 339.133 573.855 339.085 574.331 339.075 574.439 339.07 574.545 339.07 574.651 339.07 575.155 339.19 575.632 339.399 576.055 339.588 576.436 339.847 576.774 340.154 577.062L325.374 577.054ZM349.573 567.4C349.157 569.177 348.572 570.862 347.76 572.36 346.949 573.858 345.915 575.17 344.59 576.226 344.256 576.493 343.963 576.7 343.653 576.839 343.342 576.978 343.011 577.061 342.543 577.063L342.061 577.062C341.625 576.939 341.22 576.721 340.891 576.434 340.625 576.203 340.41 575.929 340.262 575.629 340.114 575.328 340.031 575.002 340.031 574.651 340.031 574.578 340.034 574.503 340.042 574.427 340.08 574.049 340.17 573.739 340.293 573.485 340.477 573.103 340.732 572.844 341.026 572.67 341.32 572.497 341.657 572.412 341.995 572.413 342.335 572.412 342.672 572.5 342.951 572.656 343.231 572.814 343.451 573.035 343.584 573.311 343.654 573.457 343.697 573.651 343.697 573.847 343.697 574.008 343.668 574.167 343.616 574.301 343.564 574.435 343.49 574.541 343.404 574.614 343.243 574.75 343.079 574.801 342.913 574.802 342.768 574.802 342.624 574.758 342.503 574.68 342.382 574.603 342.288 574.494 342.232 574.365L341.349 574.744C341.484 575.06 341.711 575.314 341.984 575.49 342.257 575.665 342.578 575.763 342.913 575.763 343.296 575.765 343.697 575.629 344.028 575.346 344.255 575.152 344.412 574.907 344.512 574.649 344.612 574.391 344.658 574.118 344.658 573.847 344.658 573.518 344.591 573.191 344.45 572.895 344.223 572.423 343.852 572.06 343.422 571.818 343 571.582 342.518 571.459 342.029 571.452L342.029 571.445 327.945 571.445C329.188 568.722 329.909 566.074 330.32 563.543 330.759 560.842 330.846 558.274 330.846 555.881 330.846 554.505 330.818 553.19 330.809 551.937L350.518 551.937C350.527 553.3 350.558 554.813 350.558 556.412 350.559 559.924 350.406 563.845 349.573 567.4Z" fill="#4B4B4B"/><path d="M341.051 560.403C341.22 558.518 341.229 556.714 341.211 555.008L333.742 555.008C333.759 556.714 333.75 558.518 333.581 560.403L341.051 560.403Z" fill="#4B4B4B"/></g></g></g><rect x="323.5" y="614.5" width="28" height="28" stroke="#2F528F" stroke-width="3" stroke-miterlimit="8" fill="#FFFFFF"/><path d="M328.5 629C328.5 624.306 332.306 620.5 337 620.5 341.694 620.5 345.5 624.306 345.5 629 345.5 633.694 341.694 637.5 337 637.5 332.306 637.5 328.5 633.694 328.5 629Z" stroke="#AE5A21" stroke-width="1.33333" stroke-miterlimit="8" fill="#FFFFFF" fill-rule="evenodd"/><path d="M323.5 610.5 324.5 606.5 349.5 606.5 350.5 610.5Z" stroke="#2F528F" stroke-width="3" stroke-miterlimit="8" fill="#FFFFFF" fill-rule="evenodd"/><path d="M0 5 1.24999 0 25.75 0 27 5Z" stroke="#2F528F" stroke-width="3" stroke-miterlimit="8" fill="#FFFFFF" fill-rule="evenodd" transform="matrix(1 0 0 -1 323.5 651.5)"/><rect x="325.5" y="597.5" width="23" height="5" stroke="#2F528F" stroke-width="3" stroke-miterlimit="8" fill="#FFFFFF"/><path d="M331.622 632.351 338 624.279 337.059 623.535 340.43 623.139 340.825 626.51 339.883 625.766 333.505 633.839Z" stroke="#AE5A21" stroke-width="1.33333" stroke-miterlimit="8" fill="#ED7D31" fill-rule="evenodd"/><rect x="394.5" y="614.5" width="28" height="28" stroke="#2F528F" stroke-width="3" stroke-miterlimit="8" fill="#FFFFFF"/><path d="M400.5 629C400.5 624.306 404.306 620.5 409 620.5 413.694 620.5 417.5 624.306 417.5 629 417.5 633.694 413.694 637.5 409 637.5 404.306 637.5 400.5 633.694 400.5 629Z" stroke="#AE5A21" stroke-width="1.33333" stroke-miterlimit="8" fill="#FFFFFF" fill-rule="evenodd"/><path d="M394.5 610.5 395.5 606.5 421.5 606.5 422.5 610.5Z" stroke="#2F528F" stroke-width="3" stroke-miterlimit="8" fill="#FFFFFF" fill-rule="evenodd"/><path d="M0 5 1.24999 0 26.75 0 28 5Z" stroke="#2F528F" stroke-width="3" stroke-miterlimit="8" fill="#FFFFFF" fill-rule="evenodd" transform="matrix(1 0 0 -1 394.5 651.5)"/><rect x="397.5" y="597.5" width="22" height="5" stroke="#2F528F" stroke-width="3" stroke-miterlimit="8" fill="#FFFFFF"/><path d="M412.407 633.071 404.458 626.541 403.696 627.468 403.365 624.09 406.743 623.759 405.981 624.686 413.931 631.217Z" stroke="#AE5A21" stroke-width="1.33333" stroke-miterlimit="8" fill="#ED7D31" fill-rule="evenodd"/><rect x="466.5" y="613.5" width="28" height="28" stroke="#2F528F" stroke-width="3" stroke-miterlimit="8" fill="#FFFFFF"/><path d="M472.5 628C472.5 623.306 476.082 619.5 480.5 619.5 484.918 619.5 488.5 623.306 488.5 628 488.5 632.694 484.918 636.5 480.5 636.5 476.082 636.5 472.5 632.694 472.5 628Z" stroke="#AE5A21" stroke-width="1.33333" stroke-miterlimit="8" fill="#FFFFFF" fill-rule="evenodd"/><path d="M466.5 610.5 467.75 605.5 493.25 605.5 494.5 610.5Z" stroke="#2F528F" stroke-width="3" stroke-miterlimit="8" fill="#FFFFFF" fill-rule="evenodd"/><path d="M0 5 1.24999 0 26.75 0 28 5Z" stroke="#2F528F" stroke-width="3" stroke-miterlimit="8" fill="#FFFFFF" fill-rule="evenodd" transform="matrix(1 0 0 -1 466.5 650.5)"/><rect x="469.5" y="597.5" width="22" height="4" stroke="#2F528F" stroke-width="3" stroke-miterlimit="8" fill="#FFFFFF"/><path d="M476.44 632.823 480.485 623.363 479.381 622.891 482.531 621.628 483.795 624.779 482.691 624.307 478.646 633.766Z" stroke="#AE5A21" stroke-width="1.33333" stroke-miterlimit="8" fill="#ED7D31" fill-rule="evenodd"/><g clip-path="url(#clip8)"><g clip-path="url(#clip9)"><g clip-path="url(#clip10)"><path d="M502.608 582 514.392 582 514.392 583.135 502.608 583.135Z" fill="#70AD47"/><path d="M515.525 585.597C515.336 585.266 514.105 583.656 514.105 583.656L512.706 583.656C512.074 584.43 510.467 587.353 512.155 595.914 512.486 597.591 512.652 601.522 511.585 603.438L507.376 603.438C508.819 601.664 510.736 598.185 510.168 594.068 509.443 588.816 509.325 585.601 510.071 583.656L502.895 583.656C502.895 583.656 501.664 585.266 501.475 585.597 501.285 585.928 501.333 586.07 501.333 586.543 501.333 587.016 501.333 601.64 501.333 602.255 501.333 602.87 501.508 603.654 501.948 603.865 502.842 604.29 502.511 605 503.462 605L513.538 605C514.489 605 514.158 604.29 515.052 603.865 515.492 603.654 515.667 602.87 515.667 602.255 515.667 601.64 515.667 587.016 515.667 586.543 515.667 586.07 515.715 585.928 515.525 585.597Z" fill="#70AD47"/></g></g></g><g clip-path="url(#clip11)"><g clip-path="url(#clip12)"><g clip-path="url(#clip13)"><path d="M12.0776 14.2073 25.4285 14.2073 25.4285 15.3288 12.0776 15.3288Z" fill="#4B4B4B" transform="matrix(1.22581 0 0 1 389 550)"/><path d="M10.9263 18.6407 24.2772 18.6407 24.2772 19.7627 10.9263 19.7627Z" fill="#4B4B4B" transform="matrix(1.22581 0 0 1 389 550)"/><path d="M30.9566 2.21614 30.9566 1.49466 8.36255 1.49466 8.36255 2.21614C8.36255 3.70613 8.40397 5.2637 8.40397 6.88091 8.40397 9.23945 8.31708 11.7242 7.89664 14.311 7.49667 16.7711 6.79621 19.324 5.58048 21.9558L3.4057 21.9558C3.02141 21.9558 2.63343 22.0176 2.25912 22.1475 1.6984 22.3422 1.16753 22.6977 0.765434 23.2202 0.362313 23.7416 0.0963906 24.4196 0.0173164 25.2191 0.0058125 25.3348 0 25.4499 0 25.564-0.000544922 26.1436 0.148703 26.6902 0.399973 27.1692 0.777422 27.8896 1.37375 28.4619 2.0664 28.8613 2.76015 29.2602 3.55586 29.4901 4.36628 29.4958L21.5422 29.5053C22.1961 29.5069 22.7631 29.3733 23.2458 29.154 23.729 28.9357 24.1233 28.6456 24.4892 28.354 25.9855 27.1625 27.1415 25.6856 28.0288 24.0464 29.3602 21.5847 30.0953 18.7565 30.5062 15.8807 30.9162 13.0048 30.9995 10.0772 30.9999 7.41233 31 5.50395 30.9566 3.72969 30.9566 2.21614ZM4.37421 28.0535 4.37475 28.0535C4.01662 28.0519 3.64541 27.9813 3.29411 27.8499 2.76645 27.6541 2.28788 27.3221 1.95857 26.9216 1.79316 26.7211 1.66437 26.5043 1.5764 26.2782 1.48903 26.0515 1.44235 25.8154 1.44235 25.5641 1.44235 25.4982 1.4455 25.4311 1.45234 25.3631 1.49054 24.9819 1.58215 24.6767 1.70361 24.4302 1.88682 24.0616 2.13452 23.8165 2.42666 23.6485 2.71825 23.482 3.0601 23.4066 3.4057 23.4066L18.8628 23.4066C18.6952 23.5988 18.5461 23.8187 18.4267 24.0673 18.2508 24.4317 18.133 24.8547 18.0853 25.3307 18.0748 25.439 18.0695 25.5453 18.0695 25.651 18.0695 26.1547 18.19 26.6317 18.3993 27.0553 18.5878 27.4358 18.847 27.7741 19.1543 28.062L4.37421 28.0535ZM28.5729 18.3999C28.1567 20.1774 27.5719 21.8616 26.7604 23.36 25.9489 24.8583 24.9149 26.1703 23.5903 27.2263 23.2564 27.4933 22.9626 27.7001 22.6532 27.8388 22.3422 27.9776 22.0108 28.0613 21.5428 28.0629L21.0611 28.0624C20.625 27.9388 20.2203 27.7205 19.891 27.4336 19.625 27.2027 19.4098 26.9294 19.2617 26.6289 19.1136 26.3284 19.0313 26.0017 19.0313 25.651 19.0313 25.5777 19.0344 25.5028 19.0423 25.4269 19.08 25.0495 19.17 24.739 19.2925 24.4846 19.4774 24.1035 19.7319 23.8443 20.0261 23.67 20.3198 23.4967 20.6574 23.4123 20.9946 23.4129 21.3349 23.4118 21.672 23.4998 21.9511 23.6563 22.2312 23.8139 22.4506 24.0354 22.5836 24.3113 22.6537 24.4569 22.6971 24.6511 22.6971 24.8469 22.6971 25.0076 22.6684 25.1673 22.616 25.3008 22.5642 25.4354 22.4903 25.5406 22.4045 25.6139 22.2432 25.7495 22.0788 25.8008 21.9128 25.8019 21.7684 25.8019 21.6239 25.7584 21.5035 25.6804 21.382 25.6029 21.2877 25.494 21.2323 25.3647L20.3485 25.7438C20.4836 26.0595 20.7108 26.3145 20.9841 26.4899 21.2569 26.6652 21.5783 26.7631 21.9128 26.7631 22.2955 26.7647 22.6971 26.6291 23.028 26.3458 23.2547 26.1521 23.4117 25.9071 23.5122 25.649 23.6123 25.3909 23.6578 25.1176 23.6578 24.8469 23.6578 24.5182 23.5913 24.191 23.4499 23.8951 23.2232 23.4234 22.8521 23.0595 22.4217 22.8182 21.9997 22.582 21.5181 22.4585 21.0285 22.4522L21.0285 22.4448 6.94473 22.4448C8.18763 19.7219 8.90911 17.0739 9.32004 14.5425 9.75876 11.8421 9.84565 9.27415 9.84565 6.88103 9.84565 5.50516 9.81792 4.19003 9.80902 2.93719L29.5178 2.93719C29.5273 4.29992 29.5576 5.81298 29.5576 7.41239 29.5587 10.9237 29.4063 14.8451 28.5729 18.3999Z" fill="#4B4B4B" transform="matrix(1.22581 0 0 1 389 550)"/><path d="M20.0512 11.4033C20.2203 9.51851 20.2287 7.7144 20.2114 6.00819L12.742 6.00819C12.7592 7.7144 12.7503 9.51851 12.5813 11.4033L20.0512 11.4033Z" fill="#4B4B4B" transform="matrix(1.22581 0 0 1 389 550)"/></g></g></g><g clip-path="url(#clip14)"><g clip-path="url(#clip15)"><g clip-path="url(#clip16)"><path d="M12.0776 14.2073 25.4285 14.2073 25.4285 15.3288 12.0776 15.3288Z" fill="#4B4B4B" transform="matrix(1.03226 0 0 1 464 549)"/><path d="M10.9263 18.6407 24.2772 18.6407 24.2772 19.7627 10.9263 19.7627Z" fill="#4B4B4B" transform="matrix(1.03226 0 0 1 464 549)"/><path d="M30.9566 2.21614 30.9566 1.49466 8.36255 1.49466 8.36255 2.21614C8.36255 3.70613 8.40397 5.2637 8.40397 6.88091 8.40397 9.23945 8.31708 11.7242 7.89664 14.311 7.49667 16.7711 6.79621 19.324 5.58048 21.9558L3.4057 21.9558C3.02141 21.9558 2.63343 22.0176 2.25912 22.1475 1.6984 22.3422 1.16753 22.6977 0.765434 23.2202 0.362313 23.7416 0.0963906 24.4196 0.0173164 25.2191 0.0058125 25.3348 0 25.4499 0 25.564-0.000544922 26.1436 0.148703 26.6902 0.399973 27.1692 0.777422 27.8896 1.37375 28.4619 2.0664 28.8613 2.76015 29.2602 3.55586 29.4901 4.36628 29.4958L21.5422 29.5053C22.1961 29.5069 22.7631 29.3733 23.2458 29.154 23.729 28.9357 24.1233 28.6456 24.4892 28.354 25.9855 27.1625 27.1415 25.6856 28.0288 24.0464 29.3602 21.5847 30.0953 18.7565 30.5062 15.8807 30.9162 13.0048 30.9995 10.0772 30.9999 7.41233 31 5.50395 30.9566 3.72969 30.9566 2.21614ZM4.37421 28.0535 4.37475 28.0535C4.01662 28.0519 3.64541 27.9813 3.29411 27.8499 2.76645 27.6541 2.28788 27.3221 1.95857 26.9216 1.79316 26.7211 1.66437 26.5043 1.5764 26.2782 1.48903 26.0515 1.44235 25.8154 1.44235 25.5641 1.44235 25.4982 1.4455 25.4311 1.45234 25.3631 1.49054 24.9819 1.58215 24.6767 1.70361 24.4302 1.88682 24.0616 2.13452 23.8165 2.42666 23.6485 2.71825 23.482 3.0601 23.4066 3.4057 23.4066L18.8628 23.4066C18.6952 23.5988 18.5461 23.8187 18.4267 24.0673 18.2508 24.4317 18.133 24.8547 18.0853 25.3307 18.0748 25.439 18.0695 25.5453 18.0695 25.651 18.0695 26.1547 18.19 26.6317 18.3993 27.0553 18.5878 27.4358 18.847 27.7741 19.1543 28.062L4.37421 28.0535ZM28.5729 18.3999C28.1567 20.1774 27.5719 21.8616 26.7604 23.36 25.9489 24.8583 24.9149 26.1703 23.5903 27.2263 23.2564 27.4933 22.9626 27.7001 22.6532 27.8388 22.3422 27.9776 22.0108 28.0613 21.5428 28.0629L21.0611 28.0624C20.625 27.9388 20.2203 27.7205 19.891 27.4336 19.625 27.2027 19.4098 26.9294 19.2617 26.6289 19.1136 26.3284 19.0313 26.0017 19.0313 25.651 19.0313 25.5777 19.0344 25.5028 19.0423 25.4269 19.08 25.0495 19.17 24.739 19.2925 24.4846 19.4774 24.1035 19.7319 23.8443 20.0261 23.67 20.3198 23.4967 20.6574 23.4123 20.9946 23.4129 21.3349 23.4118 21.672 23.4998 21.9511 23.6563 22.2312 23.8139 22.4506 24.0354 22.5836 24.3113 22.6537 24.4569 22.6971 24.6511 22.6971 24.8469 22.6971 25.0076 22.6684 25.1673 22.616 25.3008 22.5642 25.4354 22.4903 25.5406 22.4045 25.6139 22.2432 25.7495 22.0788 25.8008 21.9128 25.8019 21.7684 25.8019 21.6239 25.7584 21.5035 25.6804 21.382 25.6029 21.2877 25.494 21.2323 25.3647L20.3485 25.7438C20.4836 26.0595 20.7108 26.3145 20.9841 26.4899 21.2569 26.6652 21.5783 26.7631 21.9128 26.7631 22.2955 26.7647 22.6971 26.6291 23.028 26.3458 23.2547 26.1521 23.4117 25.9071 23.5122 25.649 23.6123 25.3909 23.6578 25.1176 23.6578 24.8469 23.6578 24.5182 23.5913 24.191 23.4499 23.8951 23.2232 23.4234 22.8521 23.0595 22.4217 22.8182 21.9997 22.582 21.5181 22.4585 21.0285 22.4522L21.0285 22.4448 6.94473 22.4448C8.18763 19.7219 8.90911 17.0739 9.32004 14.5425 9.75876 11.8421 9.84565 9.27415 9.84565 6.88103 9.84565 5.50516 9.81792 4.19003 9.80902 2.93719L29.5178 2.93719C29.5273 4.29992 29.5576 5.81298 29.5576 7.41239 29.5587 10.9237 29.4063 14.8451 28.5729 18.3999Z" fill="#4B4B4B" transform="matrix(1.03226 0 0 1 464 549)"/><path d="M20.0512 11.4033C20.2203 9.51851 20.2287 7.7144 20.2114 6.00819L12.742 6.00819C12.7592 7.7144 12.7503 9.51851 12.5813 11.4033L20.0512 11.4033Z" fill="#4B4B4B" transform="matrix(1.03226 0 0 1 464 549)"/></g></g></g><path d="M351 625 357 625 357 631 351 631ZM363 625 369 625 369 631 363 631ZM375 625 379.787 625 379.787 631 375 631ZM376.787 619 394.787 628 376.787 637Z" fill="#4472C4"/><path d="M0.0449225-2.99966 6.04425-2.90982 5.9544 3.08951-0.0449225 2.99966ZM12.0436-2.81997 18.0429-2.73013 17.9531 3.2692 11.9537 3.17935ZM24.0422-2.64028 28.8337-2.56853 28.7438 3.4308 23.9524 3.35904ZM25.9239-8.61278 43.7871 0.655748 25.6543 9.3852Z" fill="#4472C4" transform="matrix(1 0 0 -1 422 627.656)"/><path d="M289.5 813.5 296.75 784.5 589.5 784.5 582.25 813.5Z" stroke="#FFC000" stroke-width="0.666667" stroke-miterlimit="8" fill="url(#fill17)" fill-rule="evenodd"/><g clip-path="url(#clip18)"><g clip-path="url(#clip19)"><g clip-path="url(#clip20)"><path d="M331.467 711.666 345.249 711.666 345.249 712.823 331.467 712.823Z" fill="#4B4B4B"/><path d="M330.279 716.242 344.06 716.242 344.06 717.4 330.279 717.4Z" fill="#4B4B4B"/><path d="M350.955 699.288 350.955 698.543 327.632 698.543 327.632 699.288C327.632 700.826 327.675 702.433 327.675 704.103 327.675 706.537 327.585 709.102 327.151 711.773 326.738 714.312 326.015 716.947 324.76 719.664L322.516 719.664C322.119 719.664 321.718 719.728 321.332 719.862 320.753 720.063 320.205 720.43 319.79 720.969 319.374 721.508 319.099 722.207 319.018 723.033 319.006 723.152 319 723.271 319 723.389 318.999 723.987 319.154 724.551 319.413 725.046 319.802 725.789 320.418 726.38 321.133 726.792 321.849 727.204 322.671 727.441 323.507 727.447L341.237 727.457C341.912 727.459 342.497 727.321 342.996 727.094 343.494 726.869 343.901 726.57 344.279 726.269 345.824 725.039 347.017 723.514 347.933 721.822 349.307 719.281 350.066 716.362 350.49 713.393 350.914 710.424 350.999 707.402 351 704.651 351 702.682 350.955 700.85 350.955 699.288ZM323.515 725.958 323.516 725.958C323.146 725.957 322.763 725.884 322.4 725.748 321.856 725.546 321.362 725.203 321.022 724.79 320.851 724.583 320.718 724.359 320.627 724.126 320.537 723.892 320.489 723.648 320.489 723.389 320.489 723.321 320.492 723.252 320.499 723.181 320.539 722.788 320.633 722.473 320.759 722.218 320.948 721.838 321.203 721.585 321.505 721.411 321.806 721.24 322.159 721.162 322.516 721.162L338.471 721.162C338.298 721.36 338.144 721.587 338.021 721.844 337.84 722.22 337.718 722.656 337.669 723.148 337.658 723.26 337.652 723.369 337.652 723.479 337.652 723.998 337.777 724.491 337.993 724.928 338.187 725.321 338.455 725.67 338.772 725.967L323.515 725.958ZM348.495 715.993C348.065 717.828 347.461 719.567 346.624 721.114 345.786 722.66 344.719 724.015 343.351 725.105 343.007 725.38 342.703 725.594 342.384 725.737 342.063 725.88 341.721 725.966 341.238 725.968L340.741 725.968C340.29 725.84 339.873 725.615 339.533 725.319 339.258 725.08 339.036 724.798 338.883 724.488 338.73 724.178 338.645 723.841 338.645 723.478 338.645 723.403 338.648 723.326 338.657 723.247 338.695 722.857 338.788 722.537 338.915 722.274 339.106 721.881 339.368 721.613 339.672 721.433 339.975 721.255 340.324 721.168 340.672 721.168 341.023 721.167 341.371 721.258 341.659 721.419 341.948 721.582 342.175 721.811 342.312 722.096 342.384 722.246 342.429 722.446 342.429 722.648 342.429 722.814 342.4 722.979 342.346 723.117 342.292 723.256 342.216 723.365 342.127 723.44 341.961 723.58 341.791 723.633 341.62 723.634 341.471 723.634 341.321 723.589 341.197 723.509 341.072 723.429 340.974 723.316 340.917 723.183L340.005 723.574C340.144 723.9 340.379 724.163 340.661 724.344 340.943 724.525 341.274 724.626 341.62 724.626 342.015 724.628 342.429 724.488 342.771 724.196 343.005 723.996 343.167 723.743 343.271 723.476 343.374 723.21 343.421 722.928 343.421 722.648 343.421 722.309 343.352 721.971 343.206 721.666 342.972 721.179 342.589 720.803 342.145 720.554 341.709 720.31 341.212 720.183 340.707 720.177L340.707 720.169 326.169 720.169C327.452 717.358 328.197 714.625 328.621 712.012 329.074 709.224 329.163 706.573 329.163 704.103 329.163 702.683 329.135 701.325 329.125 700.032L349.47 700.032C349.48 701.439 349.511 703 349.511 704.651 349.512 708.276 349.355 712.324 348.495 715.993Z" fill="#4B4B4B"/><path d="M339.698 708.771C339.873 706.826 339.881 704.963 339.863 703.202L332.153 703.202C332.171 704.963 332.162 706.826 331.987 708.771L339.698 708.771Z" fill="#4B4B4B"/></g></g></g><rect x="321.5" y="758.5" width="28" height="28" stroke="#2F528F" stroke-width="3" stroke-miterlimit="8" fill="#FFFFFF"/><path d="M327.5 773C327.5 768.306 331.306 764.5 336 764.5 340.694 764.5 344.5 768.306 344.5 773 344.5 777.694 340.694 781.5 336 781.5 331.306 781.5 327.5 777.694 327.5 773Z" stroke="#AE5A21" stroke-width="1.33333" stroke-miterlimit="8" fill="#FFFFFF" fill-rule="evenodd"/><path d="M321.5 755.5 322.75 750.5 348.25 750.5 349.5 755.5Z" stroke="#2F528F" stroke-width="3" stroke-miterlimit="8" fill="#FFFFFF" fill-rule="evenodd"/><path d="M0 5 1.24999 0 26.75 0 28 5Z" stroke="#2F528F" stroke-width="3" stroke-miterlimit="8" fill="#FFFFFF" fill-rule="evenodd" transform="matrix(1 0 0 -1 321.5 795.5)"/><rect x="324.5" y="741.5" width="22" height="5" stroke="#2F528F" stroke-width="3" stroke-miterlimit="8" fill="#FFFFFF"/><path d="M337.828 778.156 331.969 769.7 330.982 770.383 331.588 767.044 334.928 767.65 333.941 768.333 339.801 776.79Z" stroke="#AE5A21" stroke-width="1.33333" stroke-miterlimit="8" fill="#ED7D31" fill-rule="evenodd"/><rect x="393.5" y="758.5" width="28" height="28" stroke="#2F528F" stroke-width="3" stroke-miterlimit="8" fill="#FFFFFF"/><path d="M399.5 773C399.5 768.306 403.082 764.5 407.5 764.5 411.918 764.5 415.5 768.306 415.5 773 415.5 777.694 411.918 781.5 407.5 781.5 403.082 781.5 399.5 777.694 399.5 773Z" stroke="#AE5A21" stroke-width="1.33333" stroke-miterlimit="8" fill="#FFFFFF" fill-rule="evenodd"/><path d="M393.5 755.5 394.75 750.5 420.25 750.5 421.5 755.5Z" stroke="#2F528F" stroke-width="3" stroke-miterlimit="8" fill="#FFFFFF" fill-rule="evenodd"/><path d="M0 5 1.24999 0 26.75 0 28 5Z" stroke="#2F528F" stroke-width="3" stroke-miterlimit="8" fill="#FFFFFF" fill-rule="evenodd" transform="matrix(1 0 0 -1 393.5 795.5)"/><rect x="396.5" y="741.5" width="22" height="5" stroke="#2F528F" stroke-width="3" stroke-miterlimit="8" fill="#FFFFFF"/><path d="M402.108 776.505 408.465 768.416 407.521 767.674 410.891 767.27 411.296 770.64 410.352 769.899 403.996 777.988Z" stroke="#AE5A21" stroke-width="1.33333" stroke-miterlimit="8" fill="#ED7D31" fill-rule="evenodd"/><rect x="465.5" y="758.5" width="28" height="28" stroke="#2F528F" stroke-width="3" stroke-miterlimit="8" fill="#FFFFFF"/><path d="M470.5 772C470.5 767.306 474.306 763.5 479 763.5 483.694 763.5 487.5 767.306 487.5 772 487.5 776.694 483.694 780.5 479 780.5 474.306 780.5 470.5 776.694 470.5 772Z" stroke="#AE5A21" stroke-width="1.33333" stroke-miterlimit="8" fill="#FFFFFF" fill-rule="evenodd"/><path d="M465.5 754.5 466.75 749.5 492.25 749.5 493.5 754.5Z" stroke="#2F528F" stroke-width="3" stroke-miterlimit="8" fill="#FFFFFF" fill-rule="evenodd"/><path d="M0 4 0.999996 0 27 0 28 4Z" stroke="#2F528F" stroke-width="3" stroke-miterlimit="8" fill="#FFFFFF" fill-rule="evenodd" transform="matrix(1 0 0 -1 465.5 794.5)"/><rect x="468.5" y="741.5" width="22" height="5" stroke="#2F528F" stroke-width="3" stroke-miterlimit="8" fill="#FFFFFF"/><path d="M484.95 769.83 475.755 774.444 476.293 775.517 473.072 774.448 474.14 771.227 474.679 772.299 483.874 767.685Z" stroke="#AE5A21" stroke-width="1.33333" stroke-miterlimit="8" fill="#ED7D31" fill-rule="evenodd"/><g clip-path="url(#clip21)"><g clip-path="url(#clip22)"><g clip-path="url(#clip23)"><path d="M5.36418 0 16.6359 0 16.6359 1.08612 5.36418 1.08612Z" fill="#5B9BD5" transform="matrix(1 0 0 1.04545 350 729)"/><path d="M17.7196 3.44038C17.5389 3.12379 16.3616 1.58409 16.3616 1.58409L15.023 1.58409C14.4189 2.32444 12.8816 5.12007 14.4965 13.309 14.8131 14.9131 14.9718 18.6728 13.9508 20.5061L9.92492 20.5061C11.3049 18.8088 13.1386 15.4816 12.5951 11.5432 11.9019 6.52008 11.7893 3.44446 12.5026 1.58409L5.6384 1.58409C5.6384 1.58409 4.4611 3.12374 4.28042 3.44038 4.09875 3.75732 4.14481 3.89293 4.14481 4.34582 4.14481 4.79836 4.14481 18.786 4.14481 19.3742 4.14481 19.9627 4.31226 20.7129 4.73296 20.9139 5.58826 21.3207 5.27128 22 6.18148 22L15.8186 22C16.7288 22 16.4118 21.3207 17.2671 20.9139 17.6878 20.7129 17.8552 19.9627 17.8552 19.3742 17.8552 18.7861 17.8552 4.79836 17.8552 4.34582 17.8552 3.89293 17.901 3.75736 17.7196 3.44038Z" fill="#5B9BD5" transform="matrix(1 0 0 1.04545 350 729)"/></g></g></g><g clip-path="url(#clip24)"><g clip-path="url(#clip25)"><g clip-path="url(#clip26)"><path d="M12.0776 14.2073 25.4285 14.2073 25.4285 15.3288 12.0776 15.3288Z" fill="#4B4B4B" transform="matrix(1.03226 0 0 1 391 696)"/><path d="M10.9263 18.6407 24.2772 18.6407 24.2772 19.7627 10.9263 19.7627Z" fill="#4B4B4B" transform="matrix(1.03226 0 0 1 391 696)"/><path d="M30.9566 2.21614 30.9566 1.49466 8.36255 1.49466 8.36255 2.21614C8.36255 3.70613 8.40397 5.2637 8.40397 6.88091 8.40397 9.23945 8.31708 11.7242 7.89664 14.311 7.49667 16.7711 6.79621 19.324 5.58048 21.9558L3.4057 21.9558C3.02141 21.9558 2.63343 22.0176 2.25912 22.1475 1.6984 22.3422 1.16753 22.6977 0.765434 23.2202 0.362313 23.7416 0.0963906 24.4196 0.0173164 25.2191 0.0058125 25.3348 0 25.4499 0 25.564-0.000544922 26.1436 0.148703 26.6902 0.399973 27.1692 0.777422 27.8896 1.37375 28.4619 2.0664 28.8613 2.76015 29.2602 3.55586 29.4901 4.36628 29.4958L21.5422 29.5053C22.1961 29.5069 22.7631 29.3733 23.2458 29.154 23.729 28.9357 24.1233 28.6456 24.4892 28.354 25.9855 27.1625 27.1415 25.6856 28.0288 24.0464 29.3602 21.5847 30.0953 18.7565 30.5062 15.8807 30.9162 13.0048 30.9995 10.0772 30.9999 7.41233 31 5.50395 30.9566 3.72969 30.9566 2.21614ZM4.37421 28.0535 4.37475 28.0535C4.01662 28.0519 3.64541 27.9813 3.29411 27.8499 2.76645 27.6541 2.28788 27.3221 1.95857 26.9216 1.79316 26.7211 1.66437 26.5043 1.5764 26.2782 1.48903 26.0515 1.44235 25.8154 1.44235 25.5641 1.44235 25.4982 1.4455 25.4311 1.45234 25.3631 1.49054 24.9819 1.58215 24.6767 1.70361 24.4302 1.88682 24.0616 2.13452 23.8165 2.42666 23.6485 2.71825 23.482 3.0601 23.4066 3.4057 23.4066L18.8628 23.4066C18.6952 23.5988 18.5461 23.8187 18.4267 24.0673 18.2508 24.4317 18.133 24.8547 18.0853 25.3307 18.0748 25.439 18.0695 25.5453 18.0695 25.651 18.0695 26.1547 18.19 26.6317 18.3993 27.0553 18.5878 27.4358 18.847 27.7741 19.1543 28.062L4.37421 28.0535ZM28.5729 18.3999C28.1567 20.1774 27.5719 21.8616 26.7604 23.36 25.9489 24.8583 24.9149 26.1703 23.5903 27.2263 23.2564 27.4933 22.9626 27.7001 22.6532 27.8388 22.3422 27.9776 22.0108 28.0613 21.5428 28.0629L21.0611 28.0624C20.625 27.9388 20.2203 27.7205 19.891 27.4336 19.625 27.2027 19.4098 26.9294 19.2617 26.6289 19.1136 26.3284 19.0313 26.0017 19.0313 25.651 19.0313 25.5777 19.0344 25.5028 19.0423 25.4269 19.08 25.0495 19.17 24.739 19.2925 24.4846 19.4774 24.1035 19.7319 23.8443 20.0261 23.67 20.3198 23.4967 20.6574 23.4123 20.9946 23.4129 21.3349 23.4118 21.672 23.4998 21.9511 23.6563 22.2312 23.8139 22.4506 24.0354 22.5836 24.3113 22.6537 24.4569 22.6971 24.6511 22.6971 24.8469 22.6971 25.0076 22.6684 25.1673 22.616 25.3008 22.5642 25.4354 22.4903 25.5406 22.4045 25.6139 22.2432 25.7495 22.0788 25.8008 21.9128 25.8019 21.7684 25.8019 21.6239 25.7584 21.5035 25.6804 21.382 25.6029 21.2877 25.494 21.2323 25.3647L20.3485 25.7438C20.4836 26.0595 20.7108 26.3145 20.9841 26.4899 21.2569 26.6652 21.5783 26.7631 21.9128 26.7631 22.2955 26.7647 22.6971 26.6291 23.028 26.3458 23.2547 26.1521 23.4117 25.9071 23.5122 25.649 23.6123 25.3909 23.6578 25.1176 23.6578 24.8469 23.6578 24.5182 23.5913 24.191 23.4499 23.8951 23.2232 23.4234 22.8521 23.0595 22.4217 22.8182 21.9997 22.582 21.5181 22.4585 21.0285 22.4522L21.0285 22.4448 6.94473 22.4448C8.18763 19.7219 8.90911 17.0739 9.32004 14.5425 9.75876 11.8421 9.84565 9.27415 9.84565 6.88103 9.84565 5.50516 9.81792 4.19003 9.80902 2.93719L29.5178 2.93719C29.5273 4.29992 29.5576 5.81298 29.5576 7.41239 29.5587 10.9237 29.4063 14.8451 28.5729 18.3999Z" fill="#4B4B4B" transform="matrix(1.03226 0 0 1 391 696)"/><path d="M20.0512 11.4033C20.2203 9.51851 20.2287 7.7144 20.2114 6.00819L12.742 6.00819C12.7592 7.7144 12.7503 9.51851 12.5813 11.4033L20.0512 11.4033Z" fill="#4B4B4B" transform="matrix(1.03226 0 0 1 391 696)"/></g></g></g><g clip-path="url(#clip27)"><g clip-path="url(#clip28)"><g clip-path="url(#clip29)"><path d="M475.467 711.666 489.249 711.666 489.249 712.823 475.467 712.823Z" fill="#4B4B4B"/><path d="M474.279 716.242 488.06 716.242 488.06 717.4 474.279 717.4Z" fill="#4B4B4B"/><path d="M494.955 699.288 494.955 698.543 471.632 698.543 471.632 699.288C471.632 700.826 471.675 702.433 471.675 704.103 471.675 706.537 471.585 709.102 471.151 711.773 470.738 714.312 470.015 716.947 468.76 719.664L466.516 719.664C466.119 719.664 465.718 719.728 465.332 719.862 464.753 720.063 464.205 720.43 463.79 720.969 463.374 721.508 463.099 722.207 463.018 723.033 463.006 723.152 463 723.271 463 723.389 462.999 723.987 463.154 724.551 463.413 725.046 463.802 725.789 464.418 726.38 465.133 726.792 465.849 727.204 466.671 727.441 467.507 727.447L485.237 727.457C485.912 727.459 486.497 727.321 486.996 727.094 487.494 726.869 487.901 726.57 488.279 726.269 489.824 725.039 491.017 723.514 491.933 721.822 493.307 719.281 494.066 716.362 494.49 713.393 494.914 710.424 494.999 707.402 495 704.651 495 702.682 494.955 700.85 494.955 699.288ZM467.515 725.958 467.516 725.958C467.146 725.957 466.763 725.884 466.4 725.748 465.856 725.546 465.362 725.203 465.022 724.79 464.851 724.583 464.718 724.359 464.627 724.126 464.537 723.892 464.489 723.648 464.489 723.389 464.489 723.321 464.492 723.252 464.499 723.181 464.539 722.788 464.633 722.473 464.759 722.218 464.948 721.838 465.203 721.585 465.505 721.411 465.806 721.24 466.159 721.162 466.516 721.162L482.471 721.162C482.298 721.36 482.144 721.587 482.021 721.844 481.84 722.22 481.718 722.656 481.669 723.148 481.658 723.26 481.652 723.369 481.652 723.479 481.652 723.998 481.777 724.491 481.993 724.928 482.187 725.321 482.455 725.67 482.772 725.967L467.515 725.958ZM492.495 715.993C492.065 717.828 491.461 719.567 490.624 721.114 489.786 722.66 488.719 724.015 487.351 725.105 487.007 725.38 486.703 725.594 486.384 725.737 486.063 725.88 485.721 725.966 485.238 725.968L484.741 725.968C484.29 725.84 483.873 725.615 483.533 725.319 483.258 725.08 483.036 724.798 482.883 724.488 482.73 724.178 482.645 723.841 482.645 723.478 482.645 723.403 482.648 723.326 482.657 723.247 482.695 722.857 482.788 722.537 482.915 722.274 483.106 721.881 483.368 721.613 483.672 721.433 483.975 721.255 484.324 721.168 484.672 721.168 485.023 721.167 485.371 721.258 485.659 721.419 485.948 721.582 486.175 721.811 486.312 722.096 486.384 722.246 486.429 722.446 486.429 722.648 486.429 722.814 486.4 722.979 486.346 723.117 486.292 723.256 486.216 723.365 486.127 723.44 485.961 723.58 485.791 723.633 485.62 723.634 485.471 723.634 485.321 723.589 485.197 723.509 485.072 723.429 484.974 723.316 484.917 723.183L484.005 723.574C484.144 723.9 484.379 724.163 484.661 724.344 484.943 724.525 485.274 724.626 485.62 724.626 486.015 724.628 486.429 724.488 486.771 724.196 487.005 723.996 487.167 723.743 487.271 723.476 487.374 723.21 487.421 722.928 487.421 722.648 487.421 722.309 487.352 721.971 487.206 721.666 486.972 721.179 486.589 720.803 486.145 720.554 485.709 720.31 485.212 720.183 484.707 720.177L484.707 720.169 470.169 720.169C471.452 717.358 472.197 714.625 472.621 712.012 473.074 709.224 473.163 706.573 473.163 704.103 473.163 702.683 473.135 701.325 473.125 700.032L493.47 700.032C493.48 701.439 493.511 703 493.511 704.651 493.512 708.276 493.355 712.324 492.495 715.993Z" fill="#4B4B4B"/><path d="M483.698 708.771C483.873 706.826 483.881 704.963 483.863 703.202L476.153 703.202C476.171 704.963 476.162 706.826 475.987 708.771L483.698 708.771Z" fill="#4B4B4B"/></g></g></g><path d="M349 769 355 769 355 775 349 775ZM361 769 367 769 367 775 361 775ZM373 769 377.787 769 377.787 775 373 775ZM374.787 763 392.787 772 374.787 781Z" fill="#4472C4"/><path d="M0.0449225-2.99966 6.04425-2.90982 5.9544 3.08951-0.0449225 2.99966ZM12.0436-2.81997 18.0429-2.73013 17.9531 3.2692 11.9537 3.17935ZM24.0422-2.64028 28.8337-2.56853 28.7438 3.4308 23.9524 3.35904ZM25.9239-8.61278 43.7871 0.655748 25.6543 9.3852Z" fill="#4472C4" transform="matrix(1 0 0 -1 421 772.656)"/><rect x="536.5" y="758.5" width="28" height="28" stroke="#2F528F" stroke-width="3" stroke-miterlimit="8" fill="#FFFFFF"/><path d="M542.5 773C542.5 768.306 546.082 764.5 550.5 764.5 554.918 764.5 558.5 768.306 558.5 773 558.5 777.694 554.918 781.5 550.5 781.5 546.082 781.5 542.5 777.694 542.5 773Z" stroke="#AE5A21" stroke-width="1.33333" stroke-miterlimit="8" fill="#FFFFFF" fill-rule="evenodd"/><path d="M536.5 755.5 537.75 750.5 563.25 750.5 564.5 755.5Z" stroke="#2F528F" stroke-width="3" stroke-miterlimit="8" fill="#FFFFFF" fill-rule="evenodd"/><path d="M0 5 1.24999 0 26.75 0 28 5Z" stroke="#2F528F" stroke-width="3" stroke-miterlimit="8" fill="#FFFFFF" fill-rule="evenodd" transform="matrix(1 0 0 -1 536.5 795.5)"/><rect x="539.5" y="741.5" width="22" height="5" stroke="#2F528F" stroke-width="3" stroke-miterlimit="8" fill="#FFFFFF"/><path d="M544.588 775.695 552.085 768.649 551.263 767.775 554.655 767.88 554.55 771.272 553.728 770.398 546.232 777.444Z" stroke="#AE5A21" stroke-width="1.33333" stroke-miterlimit="8" fill="#ED7D31" fill-rule="evenodd"/><path d="M493.043 769 499.042 769.086 498.956 775.086 492.957 775ZM505.042 769.173 511.041 769.259 510.955 775.258 504.956 775.172ZM517.041 769.345 521.352 769.407 521.266 775.406 516.954 775.344ZM518.439 763.365 536.307 772.622 518.18 781.363Z" fill="#4472C4"/><g clip-path="url(#clip30)"><g clip-path="url(#clip31)"><g clip-path="url(#clip32)"><path d="M546.467 711.666 560.249 711.666 560.249 712.823 546.467 712.823Z" fill="#4B4B4B"/><path d="M545.279 716.242 559.06 716.242 559.06 717.4 545.279 717.4Z" fill="#4B4B4B"/><path d="M565.955 699.288 565.955 698.543 542.632 698.543 542.632 699.288C542.632 700.826 542.675 702.433 542.675 704.103 542.675 706.537 542.585 709.102 542.151 711.773 541.739 714.312 541.015 716.947 539.76 719.664L537.516 719.664C537.119 719.664 536.718 719.728 536.332 719.862 535.753 720.063 535.205 720.43 534.79 720.969 534.374 721.508 534.099 722.207 534.018 723.033 534.006 723.152 534 723.271 534 723.389 533.999 723.987 534.154 724.551 534.413 725.046 534.802 725.789 535.418 726.38 536.133 726.792 536.849 727.204 537.671 727.441 538.507 727.447L556.237 727.457C556.912 727.459 557.497 727.321 557.996 727.094 558.494 726.869 558.901 726.57 559.279 726.269 560.824 725.039 562.017 723.514 562.933 721.822 564.307 719.281 565.066 716.362 565.49 713.393 565.914 710.424 565.999 707.402 566 704.651 566 702.682 565.955 700.85 565.955 699.288ZM538.515 725.958 538.516 725.958C538.146 725.957 537.763 725.884 537.4 725.748 536.856 725.546 536.362 725.203 536.022 724.79 535.851 724.583 535.718 724.359 535.627 724.126 535.537 723.892 535.489 723.648 535.489 723.389 535.489 723.321 535.492 723.252 535.499 723.181 535.539 722.788 535.633 722.473 535.759 722.218 535.948 721.838 536.203 721.585 536.505 721.411 536.806 721.24 537.159 721.162 537.516 721.162L553.471 721.162C553.298 721.36 553.144 721.587 553.021 721.844 552.839 722.22 552.718 722.656 552.669 723.148 552.658 723.26 552.652 723.369 552.652 723.479 552.652 723.998 552.777 724.491 552.993 724.928 553.187 725.321 553.455 725.67 553.772 725.967L538.515 725.958ZM563.495 715.993C563.065 717.828 562.461 719.567 561.624 721.114 560.786 722.66 559.719 724.015 558.351 725.105 558.007 725.38 557.703 725.594 557.384 725.737 557.063 725.88 556.721 725.966 556.238 725.968L555.74 725.968C555.29 725.84 554.873 725.615 554.533 725.319 554.258 725.08 554.036 724.798 553.883 724.488 553.73 724.178 553.645 723.841 553.645 723.478 553.645 723.403 553.648 723.326 553.657 723.247 553.695 722.857 553.788 722.537 553.915 722.274 554.106 721.881 554.368 721.613 554.672 721.433 554.975 721.255 555.324 721.168 555.672 721.168 556.023 721.167 556.371 721.258 556.659 721.419 556.948 721.582 557.175 721.811 557.312 722.096 557.385 722.246 557.429 722.446 557.429 722.648 557.429 722.814 557.4 722.979 557.346 723.117 557.292 723.256 557.216 723.365 557.127 723.44 556.961 723.58 556.791 723.633 556.62 723.634 556.471 723.634 556.321 723.589 556.197 723.509 556.072 723.429 555.974 723.316 555.917 723.183L555.005 723.574C555.144 723.9 555.379 724.163 555.661 724.344 555.943 724.525 556.274 724.626 556.62 724.626 557.015 724.628 557.429 724.488 557.771 724.196 558.005 723.996 558.167 723.743 558.271 723.476 558.374 723.21 558.421 722.928 558.421 722.648 558.421 722.309 558.352 721.971 558.206 721.666 557.972 721.179 557.589 720.803 557.145 720.554 556.709 720.31 556.212 720.183 555.707 720.177L555.707 720.169 541.169 720.169C542.452 717.358 543.196 714.625 543.621 712.012 544.074 709.224 544.163 706.573 544.163 704.103 544.163 702.683 544.135 701.325 544.125 700.032L564.47 700.032C564.48 701.439 564.511 703 564.511 704.651 564.512 708.276 564.355 712.324 563.495 715.993Z" fill="#4B4B4B"/><path d="M554.698 708.771C554.873 706.826 554.881 704.963 554.863 703.202L547.153 703.202C547.171 704.963 547.162 706.826 546.987 708.771L554.698 708.771Z" fill="#4B4B4B"/></g></g></g><path d="M289.5 963.5 296.5 935.5 589.5 935.5 582.5 963.5Z" stroke="#FFC000" stroke-width="0.666667" stroke-miterlimit="8" fill="url(#fill33)" fill-rule="evenodd"/><g clip-path="url(#clip34)"><g clip-path="url(#clip35)"><g clip-path="url(#clip36)"><path d="M12.0776 14.2073 25.4285 14.2073 25.4285 15.3288 12.0776 15.3288Z" fill="#4B4B4B" transform="matrix(1.03226 0 0 1 319 844)"/><path d="M10.9263 18.6407 24.2772 18.6407 24.2772 19.7627 10.9263 19.7627Z" fill="#4B4B4B" transform="matrix(1.03226 0 0 1 319 844)"/><path d="M30.9566 2.21614 30.9566 1.49466 8.36255 1.49466 8.36255 2.21614C8.36255 3.70613 8.40397 5.2637 8.40397 6.88091 8.40397 9.23945 8.31708 11.7242 7.89664 14.311 7.49667 16.7711 6.79621 19.324 5.58048 21.9558L3.4057 21.9558C3.02141 21.9558 2.63343 22.0176 2.25912 22.1475 1.6984 22.3422 1.16753 22.6977 0.765434 23.2202 0.362313 23.7416 0.0963906 24.4196 0.0173164 25.2191 0.0058125 25.3348 0 25.4499 0 25.564-0.000544922 26.1436 0.148703 26.6902 0.399973 27.1692 0.777422 27.8896 1.37375 28.4619 2.0664 28.8613 2.76015 29.2602 3.55586 29.4901 4.36628 29.4958L21.5422 29.5053C22.1961 29.5069 22.7631 29.3733 23.2458 29.154 23.729 28.9357 24.1233 28.6456 24.4892 28.354 25.9855 27.1625 27.1415 25.6856 28.0288 24.0464 29.3602 21.5847 30.0953 18.7565 30.5062 15.8807 30.9162 13.0048 30.9995 10.0772 30.9999 7.41233 31 5.50395 30.9566 3.72969 30.9566 2.21614ZM4.37421 28.0535 4.37475 28.0535C4.01662 28.0519 3.64541 27.9813 3.29411 27.8499 2.76645 27.6541 2.28788 27.3221 1.95857 26.9216 1.79316 26.7211 1.66437 26.5043 1.5764 26.2782 1.48903 26.0515 1.44235 25.8154 1.44235 25.5641 1.44235 25.4982 1.4455 25.4311 1.45234 25.3631 1.49054 24.9819 1.58215 24.6767 1.70361 24.4302 1.88682 24.0616 2.13452 23.8165 2.42666 23.6485 2.71825 23.482 3.0601 23.4066 3.4057 23.4066L18.8628 23.4066C18.6952 23.5988 18.5461 23.8187 18.4267 24.0673 18.2508 24.4317 18.133 24.8547 18.0853 25.3307 18.0748 25.439 18.0695 25.5453 18.0695 25.651 18.0695 26.1547 18.19 26.6317 18.3993 27.0553 18.5878 27.4358 18.847 27.7741 19.1543 28.062L4.37421 28.0535ZM28.5729 18.3999C28.1567 20.1774 27.5719 21.8616 26.7604 23.36 25.9489 24.8583 24.9149 26.1703 23.5903 27.2263 23.2564 27.4933 22.9626 27.7001 22.6532 27.8388 22.3422 27.9776 22.0108 28.0613 21.5428 28.0629L21.0611 28.0624C20.625 27.9388 20.2203 27.7205 19.891 27.4336 19.625 27.2027 19.4098 26.9294 19.2617 26.6289 19.1136 26.3284 19.0313 26.0017 19.0313 25.651 19.0313 25.5777 19.0344 25.5028 19.0423 25.4269 19.08 25.0495 19.17 24.739 19.2925 24.4846 19.4774 24.1035 19.7319 23.8443 20.0261 23.67 20.3198 23.4967 20.6574 23.4123 20.9946 23.4129 21.3349 23.4118 21.672 23.4998 21.9511 23.6563 22.2312 23.8139 22.4506 24.0354 22.5836 24.3113 22.6537 24.4569 22.6971 24.6511 22.6971 24.8469 22.6971 25.0076 22.6684 25.1673 22.616 25.3008 22.5642 25.4354 22.4903 25.5406 22.4045 25.6139 22.2432 25.7495 22.0788 25.8008 21.9128 25.8019 21.7684 25.8019 21.6239 25.7584 21.5035 25.6804 21.382 25.6029 21.2877 25.494 21.2323 25.3647L20.3485 25.7438C20.4836 26.0595 20.7108 26.3145 20.9841 26.4899 21.2569 26.6652 21.5783 26.7631 21.9128 26.7631 22.2955 26.7647 22.6971 26.6291 23.028 26.3458 23.2547 26.1521 23.4117 25.9071 23.5122 25.649 23.6123 25.3909 23.6578 25.1176 23.6578 24.8469 23.6578 24.5182 23.5913 24.191 23.4499 23.8951 23.2232 23.4234 22.8521 23.0595 22.4217 22.8182 21.9997 22.582 21.5181 22.4585 21.0285 22.4522L21.0285 22.4448 6.94473 22.4448C8.18763 19.7219 8.90911 17.0739 9.32004 14.5425 9.75876 11.8421 9.84565 9.27415 9.84565 6.88103 9.84565 5.50516 9.81792 4.19003 9.80902 2.93719L29.5178 2.93719C29.5273 4.29992 29.5576 5.81298 29.5576 7.41239 29.5587 10.9237 29.4063 14.8451 28.5729 18.3999Z" fill="#4B4B4B" transform="matrix(1.03226 0 0 1 319 844)"/><path d="M20.0512 11.4033C20.2203 9.51851 20.2287 7.7144 20.2114 6.00819L12.742 6.00819C12.7592 7.7144 12.7503 9.51851 12.5813 11.4033L20.0512 11.4033Z" fill="#4B4B4B" transform="matrix(1.03226 0 0 1 319 844)"/></g></g></g><g clip-path="url(#clip37)"><g clip-path="url(#clip38)"><g clip-path="url(#clip39)"><path d="M403.467 858.666 417.249 858.666 417.249 859.823 403.467 859.823Z" fill="#4B4B4B"/><path d="M402.279 863.242 416.06 863.242 416.06 864.4 402.279 864.4Z" fill="#4B4B4B"/><path d="M422.955 846.288 422.955 845.543 399.632 845.543 399.632 846.288C399.632 847.826 399.675 849.433 399.675 851.103 399.675 853.537 399.585 856.102 399.151 858.773 398.738 861.312 398.015 863.947 396.76 866.664L394.516 866.664C394.119 866.664 393.718 866.728 393.332 866.862 392.753 867.063 392.205 867.43 391.79 867.969 391.374 868.508 391.099 869.207 391.018 870.033 391.006 870.152 391 870.271 391 870.389 390.999 870.987 391.154 871.551 391.413 872.046 391.802 872.789 392.418 873.38 393.133 873.792 393.849 874.204 394.671 874.441 395.507 874.447L413.237 874.457C413.912 874.459 414.497 874.321 414.996 874.094 415.494 873.869 415.901 873.57 416.279 873.269 417.824 872.039 419.017 870.514 419.933 868.822 421.307 866.281 422.066 863.362 422.49 860.393 422.914 857.424 422.999 854.402 423 851.651 423 849.682 422.955 847.85 422.955 846.288ZM395.515 872.958 395.516 872.958C395.146 872.957 394.763 872.884 394.4 872.748 393.856 872.546 393.362 872.203 393.022 871.79 392.851 871.583 392.718 871.359 392.627 871.126 392.537 870.892 392.489 870.648 392.489 870.389 392.489 870.321 392.492 870.252 392.499 870.181 392.539 869.788 392.633 869.473 392.759 869.218 392.948 868.838 393.203 868.585 393.505 868.411 393.806 868.24 394.159 868.162 394.516 868.162L410.471 868.162C410.298 868.36 410.144 868.587 410.021 868.844 409.84 869.22 409.718 869.656 409.669 870.148 409.658 870.26 409.652 870.369 409.652 870.479 409.652 870.998 409.777 871.491 409.993 871.928 410.187 872.321 410.455 872.67 410.772 872.967L395.515 872.958ZM420.495 862.993C420.065 864.828 419.461 866.567 418.624 868.114 417.786 869.66 416.719 871.015 415.351 872.105 415.007 872.38 414.703 872.594 414.384 872.737 414.063 872.88 413.721 872.966 413.238 872.968L412.741 872.968C412.29 872.84 411.873 872.615 411.533 872.319 411.258 872.08 411.036 871.798 410.883 871.488 410.73 871.178 410.645 870.841 410.645 870.478 410.645 870.403 410.648 870.326 410.657 870.247 410.695 869.857 410.788 869.537 410.915 869.274 411.106 868.881 411.368 868.613 411.672 868.433 411.975 868.255 412.324 868.168 412.672 868.168 413.023 868.167 413.371 868.258 413.659 868.419 413.948 868.582 414.175 868.811 414.312 869.096 414.384 869.246 414.429 869.446 414.429 869.648 414.429 869.814 414.4 869.979 414.346 870.117 414.292 870.256 414.216 870.365 414.127 870.44 413.961 870.58 413.791 870.633 413.62 870.634 413.471 870.634 413.321 870.589 413.197 870.509 413.072 870.429 412.974 870.316 412.917 870.183L412.005 870.574C412.144 870.9 412.379 871.163 412.661 871.344 412.943 871.525 413.274 871.626 413.62 871.626 414.015 871.628 414.429 871.488 414.771 871.196 415.005 870.996 415.167 870.743 415.271 870.476 415.374 870.21 415.421 869.928 415.421 869.648 415.421 869.309 415.352 868.971 415.206 868.666 414.972 868.179 414.589 867.803 414.145 867.554 413.709 867.31 413.212 867.183 412.707 867.177L412.707 867.169 398.169 867.169C399.452 864.358 400.197 861.625 400.621 859.012 401.074 856.224 401.163 853.573 401.163 851.103 401.163 849.683 401.135 848.325 401.125 847.032L421.47 847.032C421.48 848.439 421.511 850 421.511 851.651 421.512 855.276 421.355 859.324 420.495 862.993Z" fill="#4B4B4B"/><path d="M411.698 855.771C411.873 853.826 411.881 851.963 411.863 850.202L404.153 850.202C404.171 851.963 404.162 853.826 403.987 855.771L411.698 855.771Z" fill="#4B4B4B"/></g></g></g><g clip-path="url(#clip40)"><g clip-path="url(#clip41)"><g clip-path="url(#clip42)"><path d="M475.078 860.207 488.428 860.207 488.428 861.329 475.078 861.329Z" fill="#4B4B4B"/><path d="M473.926 864.641 487.277 864.641 487.277 865.763 473.926 865.763Z" fill="#4B4B4B"/><path d="M493.957 848.216 493.957 847.495 471.363 847.495 471.363 848.216C471.363 849.706 471.404 851.264 471.404 852.881 471.404 855.239 471.317 857.724 470.897 860.311 470.497 862.771 469.796 865.324 468.58 867.956L466.406 867.956C466.021 867.956 465.633 868.018 465.259 868.148 464.698 868.342 464.168 868.698 463.765 869.22 463.362 869.742 463.096 870.42 463.017 871.219 463.006 871.335 463 871.45 463 871.564 462.999 872.144 463.149 872.69 463.4 873.169 463.777 873.89 464.374 874.462 465.066 874.861 465.76 875.26 466.556 875.49 467.366 875.496L484.542 875.505C485.196 875.507 485.763 875.373 486.246 875.154 486.729 874.936 487.123 874.646 487.489 874.354 488.986 873.162 490.141 871.686 491.029 870.046 492.36 867.585 493.095 864.757 493.506 861.881 493.916 859.005 493.999 856.077 494 853.412 494 851.504 493.957 849.73 493.957 848.216ZM467.374 874.054 467.375 874.054C467.017 874.052 466.645 873.981 466.294 873.85 465.766 873.654 465.288 873.322 464.959 872.922 464.793 872.721 464.664 872.504 464.576 872.278 464.489 872.052 464.442 871.815 464.442 871.564 464.442 871.498 464.445 871.431 464.452 871.363 464.491 870.982 464.582 870.677 464.704 870.43 464.887 870.062 465.135 869.817 465.427 869.648 465.718 869.482 466.06 869.407 466.406 869.407L481.863 869.407C481.695 869.599 481.546 869.819 481.427 870.067 481.251 870.432 481.133 870.855 481.085 871.331 481.075 871.439 481.07 871.545 481.07 871.651 481.07 872.155 481.19 872.632 481.399 873.055 481.588 873.436 481.847 873.774 482.154 874.062L467.374 874.054ZM491.573 864.4C491.157 866.177 490.572 867.862 489.76 869.36 488.949 870.858 487.915 872.17 486.59 873.226 486.256 873.493 485.963 873.7 485.653 873.839 485.342 873.978 485.011 874.061 484.543 874.063L484.061 874.062C483.625 873.939 483.22 873.721 482.891 873.434 482.625 873.203 482.41 872.929 482.262 872.629 482.114 872.328 482.031 872.002 482.031 871.651 482.031 871.578 482.034 871.503 482.042 871.427 482.08 871.049 482.17 870.739 482.293 870.485 482.477 870.103 482.732 869.844 483.026 869.67 483.32 869.497 483.657 869.412 483.995 869.413 484.335 869.412 484.672 869.5 484.951 869.656 485.231 869.814 485.451 870.035 485.584 870.311 485.654 870.457 485.697 870.651 485.697 870.847 485.697 871.008 485.668 871.167 485.616 871.301 485.564 871.435 485.49 871.541 485.404 871.614 485.243 871.75 485.079 871.801 484.913 871.802 484.768 871.802 484.624 871.758 484.503 871.68 484.382 871.603 484.288 871.494 484.232 871.365L483.349 871.744C483.484 872.06 483.711 872.314 483.984 872.49 484.257 872.665 484.578 872.763 484.913 872.763 485.296 872.765 485.697 872.629 486.028 872.346 486.255 872.152 486.412 871.907 486.512 871.649 486.612 871.391 486.658 871.118 486.658 870.847 486.658 870.518 486.591 870.191 486.45 869.895 486.223 869.423 485.852 869.06 485.422 868.818 485 868.582 484.518 868.459 484.029 868.452L484.029 868.445 469.945 868.445C471.188 865.722 471.909 863.074 472.32 860.543 472.759 857.842 472.846 855.274 472.846 852.881 472.846 851.505 472.818 850.19 472.809 848.937L492.518 848.937C492.527 850.3 492.558 851.813 492.558 853.412 492.559 856.924 492.406 860.845 491.573 864.4Z" fill="#4B4B4B"/><path d="M483.051 857.403C483.22 855.518 483.229 853.714 483.211 852.008L475.742 852.008C475.759 853.714 475.75 855.518 475.581 857.403L483.051 857.403Z" fill="#4B4B4B"/></g></g></g><g clip-path="url(#clip43)"><g clip-path="url(#clip44)"><g clip-path="url(#clip45)"><path d="M57.8024 14.3718 39.5911 27.2713 39.5911 14.3718 20.5871 27.8327 19.004 3.28564 3.16624 3.28564 0 58.7144 62 58.7144 57.8024 14.3718ZM23.5709 44.7493 16.0909 44.7493 16.0909 37.2683 23.5709 37.2683 23.5709 44.7493ZM44.8178 44.7493 37.3356 44.7493 37.3356 37.2683 44.8178 37.2683 44.8178 44.7493Z" fill="#4B4B4B" transform="matrix(1 0 0 1.01613 115 870)"/></g></g></g><text font-family="Calibri,Calibri_MSFontService,sans-serif" font-weight="400" font-size="11" transform="translate(123.559 732)">F001:<tspan font-family="Yu Gothic,Yu Gothic_MSFontService,sans-serif" font-size="11" x="23.6667" y="0">工場</tspan></text><path d="M123.559 732.872 134.809 732.872 146.059 732.872 157.309 732.872 168.559 732.872 168.559 733.872 157.309 733.872 146.059 733.872 134.809 733.872 123.559 733.872Z" fill-rule="evenodd"/><text font-family="Calibri,Calibri_MSFontService,sans-serif" font-weight="400" font-size="11" transform="translate(125.047 943)">F002:<tspan font-family="Yu Gothic,Yu Gothic_MSFontService,sans-serif" font-size="11" x="23.6667" y="0">工場</tspan></text><path d="M125.047 943.643 136.297 943.643 147.547 943.643 158.797 943.643 170.047 943.643 170.047 944.643 158.797 944.643 147.547 944.643 136.297 944.643 125.047 944.643Z" fill-rule="evenodd"/><rect x="321.5" y="906.5" width="28" height="28" stroke="#2F528F" stroke-width="3" stroke-miterlimit="8" fill="#FFFFFF"/><path d="M327.5 920C327.5 915.306 331.082 911.5 335.5 911.5 339.918 911.5 343.5 915.306 343.5 920 343.5 924.694 339.918 928.5 335.5 928.5 331.082 928.5 327.5 924.694 327.5 920Z" stroke="#AE5A21" stroke-width="1.33333" stroke-miterlimit="8" fill="#FFFFFF" fill-rule="evenodd"/><path d="M321.5 902.5 322.75 897.5 348.25 897.5 349.5 902.5Z" stroke="#2F528F" stroke-width="3" stroke-miterlimit="8" fill="#FFFFFF" fill-rule="evenodd"/><path d="M0 5 1.24999 0 26.75 0 28 5Z" stroke="#2F528F" stroke-width="3" stroke-miterlimit="8" fill="#FFFFFF" fill-rule="evenodd" transform="matrix(1 0 0 -1 321.5 943.5)"/><rect x="324.5" y="889.5" width="22" height="5" stroke="#2F528F" stroke-width="3" stroke-miterlimit="8" fill="#FFFFFF"/><path d="M330.166 924.102 336.544 916.03 335.602 915.286 338.973 914.891 339.369 918.262 338.427 917.518 332.049 925.59Z" stroke="#AE5A21" stroke-width="1.33333" stroke-miterlimit="8" fill="#ED7D31" fill-rule="evenodd"/><rect x="393.5" y="906.5" width="28" height="28" stroke="#2F528F" stroke-width="3" stroke-miterlimit="8" fill="#FFFFFF"/><path d="M398.5 920C398.5 915.306 402.306 911.5 407 911.5 411.694 911.5 415.5 915.306 415.5 920 415.5 924.694 411.694 928.5 407 928.5 402.306 928.5 398.5 924.694 398.5 920Z" stroke="#AE5A21" stroke-width="1.33333" stroke-miterlimit="8" fill="#FFFFFF" fill-rule="evenodd"/><path d="M393.5 902.5 394.75 897.5 420.25 897.5 421.5 902.5Z" stroke="#2F528F" stroke-width="3" stroke-miterlimit="8" fill="#FFFFFF" fill-rule="evenodd"/><path d="M0 5 1.24999 0 26.75 0 28 5Z" stroke="#2F528F" stroke-width="3" stroke-miterlimit="8" fill="#FFFFFF" fill-rule="evenodd" transform="matrix(1 0 0 -1 393.5 943.5)"/><rect x="396.5" y="889.5" width="22" height="5" stroke="#2F528F" stroke-width="3" stroke-miterlimit="8" fill="#FFFFFF"/><path d="M410.951 924.823 403.001 918.292 402.24 919.219 401.909 915.841 405.286 915.51 404.525 916.438 412.474 922.968Z" stroke="#AE5A21" stroke-width="1.33333" stroke-miterlimit="8" fill="#ED7D31" fill-rule="evenodd"/><rect x="465.5" y="905.5" width="28" height="28" stroke="#2F528F" stroke-width="3" stroke-miterlimit="8" fill="#FFFFFF"/><path d="M470.5 920C470.5 915.306 474.306 911.5 479 911.5 483.694 911.5 487.5 915.306 487.5 920 487.5 924.694 483.694 928.5 479 928.5 474.306 928.5 470.5 924.694 470.5 920Z" stroke="#AE5A21" stroke-width="1.33333" stroke-miterlimit="8" fill="#FFFFFF" fill-rule="evenodd"/><path d="M465.5 902.5 466.75 897.5 492.25 897.5 493.5 902.5Z" stroke="#2F528F" stroke-width="3" stroke-miterlimit="8" fill="#FFFFFF" fill-rule="evenodd"/><path d="M0 5 1.24999 0 26.75 0 28 5Z" stroke="#2F528F" stroke-width="3" stroke-miterlimit="8" fill="#FFFFFF" fill-rule="evenodd" transform="matrix(1 0 0 -1 465.5 942.5)"/><rect x="467.5" y="888.5" width="23" height="5" stroke="#2F528F" stroke-width="3" stroke-miterlimit="8" fill="#FFFFFF"/><path d="M474.983 924.574 479.028 915.115 477.925 914.643 481.075 913.38 482.338 916.53 481.235 916.058 477.19 925.518Z" stroke="#AE5A21" stroke-width="1.33333" stroke-miterlimit="8" fill="#ED7D31" fill-rule="evenodd"/><g clip-path="url(#clip46)"><g clip-path="url(#clip47)"><g clip-path="url(#clip48)"><path d="M424.608 876 436.392 876 436.392 877.135 424.608 877.135Z" fill="#70AD47"/><path d="M437.525 879.597C437.336 879.266 436.105 877.656 436.105 877.656L434.706 877.656C434.074 878.43 432.467 881.353 434.155 889.914 434.486 891.591 434.652 895.522 433.585 897.438L429.376 897.438C430.819 895.664 432.736 892.185 432.168 888.068 431.443 882.816 431.325 879.601 432.071 877.656L424.895 877.656C424.895 877.656 423.664 879.266 423.475 879.597 423.285 879.928 423.333 880.07 423.333 880.543 423.333 881.016 423.333 895.64 423.333 896.255 423.333 896.87 423.508 897.654 423.948 897.865 424.842 898.29 424.511 899 425.462 899L435.538 899C436.489 899 436.158 898.29 437.052 897.865 437.492 897.654 437.667 896.87 437.667 896.255 437.667 895.64 437.667 881.016 437.667 880.543 437.667 880.07 437.715 879.928 437.525 879.597Z" fill="#70AD47"/></g></g></g><path d="M349 917 355 917 355 923 349 923ZM361 917 367 917 367 923 361 923ZM373 917 377.787 917 377.787 923 373 923ZM374.787 911 392.787 920 374.787 929Z" fill="#4472C4"/><path d="M0.0449225-2.99966 6.04425-2.90982 5.9544 3.08951-0.0449225 2.99966ZM12.0436-2.81997 18.0429-2.73013 17.9531 3.2692 11.9537 3.17935ZM24.0422-2.64028 28.8337-2.56853 28.7438 3.4308 23.9524 3.35904ZM25.9239-8.61278 43.7871 0.655748 25.6543 9.3852Z" fill="#4472C4" transform="matrix(1 0 0 -1 421 919.656)"/><path d="M336.672 597.531 336.5 580.5" stroke="#262626" stroke-width="0.666667" stroke-miterlimit="8" stroke-dasharray="0.666667 0.666667" fill="none" fill-rule="evenodd"/><path d="M408.597 597.416 408.5 581.5" stroke="#262626" stroke-width="0.666667" stroke-miterlimit="8" stroke-dasharray="0.666667 0.666667" fill="none" fill-rule="evenodd"/><path d="M480.694 596.875 480.5 580.5" stroke="#262626" stroke-width="0.666667" stroke-miterlimit="8" stroke-dasharray="0.666667 0.666667" fill="none" fill-rule="evenodd"/><path d="M0 0 22.2414 16.5121" stroke="#44546A" stroke-width="0.666667" stroke-miterlimit="8" stroke-dasharray="0.666667 0.666667" fill="none" fill-rule="evenodd" transform="matrix(1 0 0 -1 486.5 622.012)"/><path d="M335.672 742.167 335.5 729.5" stroke="#262626" stroke-width="0.666667" stroke-miterlimit="8" stroke-dasharray="0.666667 0.666667" fill="none" fill-rule="evenodd"/><path d="M407.661 741.646 407.5 727.5" stroke="#262626" stroke-width="0.666667" stroke-miterlimit="8" stroke-dasharray="0.666667 0.666667" fill="none" fill-rule="evenodd"/><path d="M0 0 0.327769 12.1204" stroke="#262626" stroke-width="0.666667" stroke-miterlimit="8" stroke-dasharray="0.666667 0.666667" fill="none" fill-rule="evenodd" transform="matrix(1 0 0 -1 479.5 741.62)"/><path d="M550.5 742.182 550.5 729.5" stroke="#262626" stroke-width="0.666667" stroke-miterlimit="8" stroke-dasharray="0.666667 0.666667" fill="none" fill-rule="evenodd"/><path d="M0 0 19.8348 14.768" stroke="#44546A" stroke-width="0.666667" stroke-miterlimit="8" stroke-dasharray="0.666667 0.666667" fill="none" fill-rule="evenodd" transform="matrix(1 0 0 -1 341.5 767.268)"/><path d="M0 0 17.9418 14.9882" stroke="#44546A" stroke-width="0.666667" stroke-miterlimit="8" stroke-dasharray="0.666667 0.666667" fill="none" fill-rule="evenodd" transform="matrix(1 0 0 -1 413.5 914.488)"/><path d="M335.543 889.363 335.5 875.5" stroke="#262626" stroke-width="0.666667" stroke-miterlimit="8" stroke-dasharray="0.666667 0.666667" fill="none" fill-rule="evenodd"/><path d="M0 0 0.15874 13.3398" stroke="#262626" stroke-width="0.666667" stroke-miterlimit="8" stroke-dasharray="0.666667 0.666667" fill="none" fill-rule="evenodd" transform="matrix(1 0 0 -1 407.5 889.84)"/><path d="M0 0 0.15874 11.0613" stroke="#262626" stroke-width="0.666667" stroke-miterlimit="8" stroke-dasharray="0.666667 0.666667" fill="none" fill-rule="evenodd" transform="matrix(1 0 0 -1 479.5 888.561)"/></g></svg>