<svg width="608" height="443" xmlns="http://www.w3.org/2000/svg" xmlns:xlink="http://www.w3.org/1999/xlink" overflow="hidden"><defs><clipPath id="clip0"><rect x="56" y="93" width="608" height="443"/></clipPath><linearGradient x1="436" y1="282.5" x2="436" y2="344.5" gradientUnits="userSpaceOnUse" spreadMethod="reflect" id="fill1"><stop offset="0" stop-color="#FFDD9C"/><stop offset="0.5" stop-color="#FFD78E"/><stop offset="1" stop-color="#FFD479"/></linearGradient><linearGradient x1="453" y1="235.5" x2="453" y2="264.5" gradientUnits="userSpaceOnUse" spreadMethod="reflect" id="fill2"><stop offset="0" stop-color="#FFDD9C"/><stop offset="0.5" stop-color="#FFD78E"/><stop offset="1" stop-color="#FFD479"/></linearGradient><linearGradient x1="453" y1="477.5" x2="453" y2="505.5" gradientUnits="userSpaceOnUse" spreadMethod="reflect" id="fill3"><stop offset="0" stop-color="#FFDD9C"/><stop offset="0.5" stop-color="#FFD78E"/><stop offset="1" stop-color="#FFD479"/></linearGradient></defs><g clip-path="url(#clip0)" transform="translate(-56 -93)"><path d="M461.25 268.5 461.25 269.531 444.75 269.531 444.75 268.5ZM461.25 270.562 461.25 272.625 444.75 272.625 444.75 270.562ZM461.25 273.656 461.25 362 469.5 362 453 378.5 436.5 362 444.75 362 444.75 273.656Z" stroke="#2F528F" stroke-width="1.33333" stroke-miterlimit="8" stroke-opacity="0.301961" fill="#4472C4" fill-rule="evenodd" fill-opacity="0.301961"/><rect x="58.5001" y="94.5001" width="604" height="440" stroke="#D9D9D9" stroke-width="1.33333" stroke-miterlimit="8" fill="none"/><text font-family="Yu Gothic,Yu Gothic_MSFontService,sans-serif" font-weight="400" font-size="16" transform="translate(67.2378 114)">概念情報モデルで定義された制約に従った操作</text><rect x="135.5" y="170.5" width="127" height="55" stroke="#000000" stroke-width="1.33333" stroke-miterlimit="8" fill="#FFFFFF"/><text font-family="Yu Gothic,Yu Gothic_MSFontService,sans-serif" font-weight="400" font-size="13" transform="translate(164.953 201)">生産ライン</text><rect x="135.5" y="274.5" width="127" height="69" stroke="#FF0000" stroke-width="1.33333" stroke-miterlimit="8" fill="#FFFFFF"/><text font-family="Yu Gothic,Yu Gothic_MSFontService,sans-serif" font-weight="400" font-size="13" transform="translate(184.953 313)">装置</text><path d="M0 0 0.000104987 48.8767" stroke="#000000" stroke-width="0.666667" stroke-miterlimit="8" fill="none" fill-rule="evenodd" transform="matrix(-1 0 0 1 198.5 225.5)"/><path d="M0 0 24.0001 0 24.0001 111.288 0.000104987 111.288" stroke="#FF0000" stroke-width="0.666667" stroke-miterlimit="8" fill="none" fill-rule="evenodd" transform="matrix(-1 1.22465e-16 1.22465e-16 1 135.5 197.5)"/><path d="M230.12 343.5 230.12 379.669 169.5 379.669 169.5 344.833" stroke="#FF0000" stroke-width="0.666667" stroke-miterlimit="8" fill="none" fill-rule="evenodd"/><text font-family="Calibri,Calibri_MSFontService,sans-serif" font-weight="400" font-size="11" transform="translate(190.398 236)">1<tspan font-size="11" x="-79.9445" y="-44">0..1</tspan><tspan font-size="11" x="-70.007" y="67">1</tspan><tspan font-size="11" x="-9.55894" y="34">1..*</tspan><tspan font-size="11" x="-16.3168" y="121">0..1</tspan><tspan font-size="11" x="19.7595" y="119">0..1</tspan><tspan font-family="Yu Gothic,Yu Gothic_MSFontService,sans-serif" font-size="11" x="-69.3974" y="125">前</tspan><tspan font-family="Yu Gothic,Yu Gothic_MSFontService,sans-serif" font-size="11" x="-58.7307" y="125">の工程</tspan><tspan font-family="Yu Gothic,Yu Gothic_MSFontService,sans-serif" font-size="11" x="43.1512" y="125">後の工程</tspan><tspan font-family="Yu Gothic,Yu Gothic_MSFontService,sans-serif" font-size="11" x="10.9169" y="4">設置場所</tspan><tspan font-family="Yu Gothic,Yu Gothic_MSFontService,sans-serif" font-size="11" x="-101.243" y="89">開始装置</tspan><tspan font-size="11" x="-0.817017" y="21">R_LE1</tspan><tspan font-size="11" x="-70.007" y="16">R_LE2</tspan><tspan font-size="11" x="-4.62415" y="154">R_EO1</tspan></text><path d="M284.5 313.5 300 298 300 305.75 319.287 305.75 319.287 282.5 587.5 282.5 587.5 344.5 319.287 344.5 319.287 321.25 300 321.25 300 329Z" stroke="#FFC000" stroke-width="0.666667" stroke-miterlimit="8" fill="url(#fill1)" fill-rule="evenodd"/><text font-family="Yu Gothic,Yu Gothic_MSFontService,sans-serif" font-weight="400" font-size="13" transform="translate(327.98 309)">先頭の“装置”のインスタンスを削除する<tspan font-size="13" x="0" y="16">場合、</tspan><tspan font-family="Calibri,Calibri_MSFontService,sans-serif" font-size="13" x="40" y="16">R_LE2</tspan><tspan font-size="13" x="72.8333" y="16">のリンクもつなぎなおす</tspan></text><path d="M337.5 264.5 344.75 235.5 568.5 235.5 561.25 264.5Z" stroke="#FFC000" stroke-width="0.666667" stroke-miterlimit="8" fill="url(#fill2)" fill-rule="evenodd"/><rect x="370.5" y="209.5" width="28" height="28" stroke="#2F528F" stroke-width="3" stroke-miterlimit="8" fill="#FFFFFF"/><path d="M375.5 224C375.5 219.306 379.306 215.5 384 215.5 388.694 215.5 392.5 219.306 392.5 224 392.5 228.694 388.694 232.5 384 232.5 379.306 232.5 375.5 228.694 375.5 224Z" stroke="#AE5A21" stroke-width="1.33333" stroke-miterlimit="8" fill="#FFFFFF" fill-rule="evenodd"/><path d="M370.5 205.5 371.5 201.5 397.5 201.5 398.5 205.5Z" stroke="#2F528F" stroke-width="3" stroke-miterlimit="8" fill="#FFFFFF" fill-rule="evenodd"/><path d="M0 5 1.24999 0 26.75 0 28 5Z" stroke="#2F528F" stroke-width="3" stroke-miterlimit="8" fill="#FFFFFF" fill-rule="evenodd" transform="matrix(1 0 0 -1 370.5 246.5)"/><rect x="372.5" y="192.5" width="23" height="5" stroke="#2F528F" stroke-width="3" stroke-miterlimit="8" fill="#FFFFFF"/><path d="M378.726 227.35 385.104 219.278 384.163 218.534 387.534 218.139 387.929 221.509 386.988 220.766 380.609 228.838Z" stroke="#AE5A21" stroke-width="1.33333" stroke-miterlimit="8" fill="#ED7D31" fill-rule="evenodd"/><rect x="442.5" y="209.5" width="27" height="28" stroke="#2F528F" stroke-width="3" stroke-miterlimit="8" fill="#FFFFFF"/><path d="M447.5 224C447.5 219.306 451.306 215.5 456 215.5 460.694 215.5 464.5 219.306 464.5 224 464.5 228.694 460.694 232.5 456 232.5 451.306 232.5 447.5 228.694 447.5 224Z" stroke="#AE5A21" stroke-width="1.33333" stroke-miterlimit="8" fill="#FFFFFF" fill-rule="evenodd"/><path d="M441.5 205.5 442.5 201.5 468.5 201.5 469.5 205.5Z" stroke="#2F528F" stroke-width="3" stroke-miterlimit="8" fill="#FFFFFF" fill-rule="evenodd"/><path d="M0 5 1.24999 0 26.75 0 28 5Z" stroke="#2F528F" stroke-width="3" stroke-miterlimit="8" fill="#FFFFFF" fill-rule="evenodd" transform="matrix(1 0 0 -1 441.5 246.5)"/><rect x="444.5" y="192.5" width="23" height="5" stroke="#2F528F" stroke-width="3" stroke-miterlimit="8" fill="#FFFFFF"/><path d="M459.511 228.071 451.562 221.54 450.8 222.467 450.469 219.089 453.847 218.758 453.085 219.686 461.035 226.216Z" stroke="#AE5A21" stroke-width="1.33333" stroke-miterlimit="8" fill="#ED7D31" fill-rule="evenodd"/><rect x="513.5" y="208.5" width="28" height="28" stroke="#2F528F" stroke-width="3" stroke-miterlimit="8" fill="#FFFFFF"/><path d="M519.5 223C519.5 218.306 523.306 214.5 528 214.5 532.694 214.5 536.5 218.306 536.5 223 536.5 227.694 532.694 231.5 528 231.5 523.306 231.5 519.5 227.694 519.5 223Z" stroke="#AE5A21" stroke-width="1.33333" stroke-miterlimit="8" fill="#FFFFFF" fill-rule="evenodd"/><path d="M513.5 205.5 514.75 200.5 540.25 200.5 541.5 205.5Z" stroke="#2F528F" stroke-width="3" stroke-miterlimit="8" fill="#FFFFFF" fill-rule="evenodd"/><path d="M0 5 1.24999 0 26.75 0 28 5Z" stroke="#2F528F" stroke-width="3" stroke-miterlimit="8" fill="#FFFFFF" fill-rule="evenodd" transform="matrix(1 0 0 -1 513.5 245.5)"/><rect x="516.5" y="192.5" width="22" height="4" stroke="#2F528F" stroke-width="3" stroke-miterlimit="8" fill="#FFFFFF"/><path d="M523.544 227.822 527.589 218.362 526.485 217.891 529.636 216.628 530.899 219.778 529.795 219.306 525.75 228.766Z" stroke="#AE5A21" stroke-width="1.33333" stroke-miterlimit="8" fill="#ED7D31" fill-rule="evenodd"/><path d="M398 220 404 220 404 226 398 226ZM410 220 416 220 416 226 410 226ZM422 220 426.787 220 426.787 226 422 226ZM423.787 214 441.787 223 423.787 232Z" fill="#4472C4"/><path d="M0.0449225-2.99966 6.04425-2.90982 5.9544 3.08951-0.0449225 2.99966ZM12.0436-2.81997 18.0429-2.73013 17.9531 3.2692 11.9537 3.17935ZM24.0422-2.64028 28.8337-2.56853 28.7438 3.4308 23.9524 3.35904ZM25.9239-8.61278 43.7871 0.655748 25.6543 9.3852Z" fill="#4472C4" transform="matrix(1 0 0 -1 469 222.656)"/><text font-family="Calibri,Calibri_MSFontService,sans-serif" font-weight="400" font-size="11" transform="translate(355.233 258)">ETP003:<tspan font-family="Yu Gothic,Yu Gothic_MSFontService,sans-serif" font-size="11" x="34.6667" y="0">装置</tspan></text><path d="M355.233 259.219 369.233 259.219 383.233 259.219 397.233 259.219 411.233 259.219 411.233 260.219 397.233 260.219 383.233 260.219 369.233 260.219 355.233 260.219Z" fill-rule="evenodd"/><text font-family="Calibri,Calibri_MSFontService,sans-serif" font-weight="400" font-size="11" transform="translate(427.415 258)">ETP007:<tspan font-family="Yu Gothic,Yu Gothic_MSFontService,sans-serif" font-size="11" x="34.6667" y="0">装置</tspan></text><path d="M427.415 259.075 441.415 259.075 455.415 259.075 469.415 259.075 483.415 259.075 483.415 260.075 469.415 260.075 455.415 260.075 441.415 260.075 427.415 260.075Z" fill-rule="evenodd"/><text font-family="Calibri,Calibri_MSFontService,sans-serif" font-weight="400" font-size="11" transform="translate(498.774 259)">ETP009:<tspan font-family="Yu Gothic,Yu Gothic_MSFontService,sans-serif" font-size="11" x="34.6667" y="0">装置</tspan></text><path d="M498.774 259.787 512.774 259.787 526.774 259.787 540.774 259.787 554.774 259.787 554.774 260.787 540.774 260.787 526.774 260.787 512.774 260.787 498.774 260.787Z" fill-rule="evenodd"/><path d="M0 18 10 0 20 18Z" fill="#FF0000" fill-rule="evenodd" fill-opacity="0.701961" transform="matrix(1 0 0 -1 372 188)"/><path d="M382.729 170.5 382.729 146.5 313.959 146.5 313.959 249.47 341.5 249.47" stroke="#FF0000" stroke-width="0.666667" stroke-miterlimit="8" stroke-opacity="0.701961" fill="none" fill-rule="evenodd"/><text font-family="Yu Gothic,Yu Gothic_MSFontService,sans-serif" font-weight="400" font-size="11" transform="translate(388.098 158)">生産ライン<tspan font-size="11" x="53.3333" y="0">の先頭</tspan><tspan font-family="Calibri,Calibri_MSFontService,sans-serif" font-size="11" x="85.3333" y="0">(R_LE2)</tspan></text><path d="M337.5 505.5 344.5 477.5 568.5 477.5 561.5 505.5Z" stroke="#FFC000" stroke-width="0.666667" stroke-miterlimit="8" fill="url(#fill3)" fill-rule="evenodd"/><rect x="370.5" y="451.5" width="28" height="28" stroke="#FF0000" stroke-width="3" stroke-miterlimit="8" stroke-opacity="0.101961" fill="#FFFFFF"/><path d="M375.5 465C375.5 460.306 379.306 456.5 384 456.5 388.694 456.5 392.5 460.306 392.5 465 392.5 469.694 388.694 473.5 384 473.5 379.306 473.5 375.5 469.694 375.5 465Z" stroke="#FF0000" stroke-width="1.33333" stroke-miterlimit="8" stroke-opacity="0.101961" fill="#FFFFFF" fill-rule="evenodd"/><path d="M370.5 447.5 371.75 442.5 397.25 442.5 398.5 447.5Z" stroke="#FF0000" stroke-width="3" stroke-miterlimit="8" stroke-opacity="0.101961" fill="#FFFFFF" fill-rule="evenodd"/><path d="M0 5 1.24999 0 26.75 0 28 5Z" stroke="#FF0000" stroke-width="3" stroke-miterlimit="8" stroke-opacity="0.101961" fill="#FFFFFF" fill-rule="evenodd" transform="matrix(1 0 0 -1 370.5 488.5)"/><rect x="372.5" y="434.5" width="23" height="5" stroke="#FF0000" stroke-width="3" stroke-miterlimit="8" stroke-opacity="0.101961" fill="#FFFFFF"/><path d="M378.726 469.128 385.104 461.055 384.163 460.311 387.534 459.916 387.929 463.287 386.988 462.543 380.609 470.616Z" stroke="#FF0000" stroke-width="1.33333" stroke-miterlimit="8" stroke-opacity="0.101961" fill="#ED7D31" fill-rule="evenodd"/><rect x="442.5" y="451.5" width="27" height="28" stroke="#2F528F" stroke-width="3" stroke-miterlimit="8" fill="#FFFFFF"/><path d="M447.5 465C447.5 460.306 451.306 456.5 456 456.5 460.694 456.5 464.5 460.306 464.5 465 464.5 469.694 460.694 473.5 456 473.5 451.306 473.5 447.5 469.694 447.5 465Z" stroke="#AE5A21" stroke-width="1.33333" stroke-miterlimit="8" fill="#FFFFFF" fill-rule="evenodd"/><path d="M441.5 447.5 442.75 442.5 468.25 442.5 469.5 447.5Z" stroke="#2F528F" stroke-width="3" stroke-miterlimit="8" fill="#FFFFFF" fill-rule="evenodd"/><path d="M0 5 1.24999 0 26.75 0 28 5Z" stroke="#2F528F" stroke-width="3" stroke-miterlimit="8" fill="#FFFFFF" fill-rule="evenodd" transform="matrix(1 0 0 -1 441.5 488.5)"/><rect x="444.5" y="434.5" width="23" height="5" stroke="#2F528F" stroke-width="3" stroke-miterlimit="8" fill="#FFFFFF"/><path d="M459.511 469.848 451.562 463.317 450.8 464.245 450.469 460.867 453.847 460.536 453.085 461.463 461.035 467.994Z" stroke="#AE5A21" stroke-width="1.33333" stroke-miterlimit="8" fill="#ED7D31" fill-rule="evenodd"/><rect x="513.5" y="450.5" width="28" height="28" stroke="#2F528F" stroke-width="3" stroke-miterlimit="8" fill="#FFFFFF"/><path d="M519.5 465C519.5 460.306 523.306 456.5 528 456.5 532.694 456.5 536.5 460.306 536.5 465 536.5 469.694 532.694 473.5 528 473.5 523.306 473.5 519.5 469.694 519.5 465Z" stroke="#AE5A21" stroke-width="1.33333" stroke-miterlimit="8" fill="#FFFFFF" fill-rule="evenodd"/><path d="M513.5 447.5 514.75 442.5 540.25 442.5 541.5 447.5Z" stroke="#2F528F" stroke-width="3" stroke-miterlimit="8" fill="#FFFFFF" fill-rule="evenodd"/><path d="M0 5 1.24999 0 26.75 0 28 5Z" stroke="#2F528F" stroke-width="3" stroke-miterlimit="8" fill="#FFFFFF" fill-rule="evenodd" transform="matrix(1 0 0 -1 513.5 487.5)"/><rect x="516.5" y="433.5" width="22" height="5" stroke="#2F528F" stroke-width="3" stroke-miterlimit="8" fill="#FFFFFF"/><path d="M523.544 469.599 527.589 460.14 526.485 459.668 529.636 458.405 530.899 461.555 529.795 461.084 525.75 470.543Z" stroke="#AE5A21" stroke-width="1.33333" stroke-miterlimit="8" fill="#ED7D31" fill-rule="evenodd"/><path d="M398 462 404 462 404 468 398 468ZM410 462 416 462 416 468 410 468ZM422 462 426.787 462 426.787 468 422 468ZM423.787 456 441.787 465 423.787 474Z" fill="#FF0000" fill-opacity="0.101961"/><path d="M0.0449225-2.99966 6.04425-2.90982 5.9544 3.08951-0.0449225 2.99966ZM12.0436-2.81997 18.0429-2.73013 17.9531 3.2692 11.9537 3.17935ZM24.0422-2.64028 28.8337-2.56853 28.7438 3.4308 23.9524 3.35904ZM25.9239-8.61278 43.7871 0.655748 25.6543 9.3852Z" fill="#4472C4" transform="matrix(1 0 0 -1 469 464.656)"/><text font-family="Calibri,Calibri_MSFontService,sans-serif" font-weight="400" font-size="11" transform="translate(427.415 500)">ETP007:<tspan font-family="Yu Gothic,Yu Gothic_MSFontService,sans-serif" font-size="11" x="34.6667" y="0">装置</tspan></text><path d="M427.415 500.852 441.415 500.852 455.415 500.852 469.415 500.852 483.415 500.852 483.415 501.852 469.415 501.852 455.415 501.852 441.415 501.852 427.415 501.852Z" fill-rule="evenodd"/><path d="M0 17 10 0 20 17Z" fill="#FF0000" fill-rule="evenodd" fill-opacity="0.701961" transform="matrix(1 0 0 -1 446 428)"/><path d="M456.469 411.5 456.469 387.5 313.959 387.5 313.959 491.356 341.5 491.356" stroke="#FF0000" stroke-width="0.666667" stroke-miterlimit="8" stroke-opacity="0.701961" fill="none" fill-rule="evenodd"/><text font-family="Yu Gothic,Yu Gothic_MSFontService,sans-serif" font-weight="400" font-size="11" transform="translate(461.837 399)">生産ライン<tspan font-size="11" x="53.3333" y="0">の先頭</tspan><tspan font-family="Calibri,Calibri_MSFontService,sans-serif" font-size="11" x="85.3333" y="0">(R_LE2)</tspan>をつなぎかえ<tspan font-family="Calibri,Calibri_MSFontService,sans-serif" font-size="11" x="36.5369" y="101">ETP009:</tspan><tspan font-size="11" x="71.2036" y="101">装置</tspan></text><path d="M498.374 500.852 512.374 500.852 526.374 500.852 540.374 500.852 554.374 500.852 554.374 501.852 540.374 501.852 526.374 501.852 512.374 501.852 498.374 501.852Z" fill-rule="evenodd"/></g></svg>