<svg width="608" height="443" xmlns="http://www.w3.org/2000/svg" xmlns:xlink="http://www.w3.org/1999/xlink" overflow="hidden"><defs><clipPath id="clip0"><rect x="56" y="93" width="608" height="443"/></clipPath><clipPath id="clip1"><rect x="284" y="465" width="26" height="26"/></clipPath><clipPath id="clip2"><rect x="284" y="465" width="26" height="26"/></clipPath><clipPath id="clip3"><rect x="284" y="465" width="26" height="26"/></clipPath><clipPath id="clip4"><rect x="284" y="338" width="26" height="27"/></clipPath><clipPath id="clip5"><rect x="284" y="338" width="26" height="27"/></clipPath><clipPath id="clip6"><rect x="284" y="338" width="26" height="27"/></clipPath><clipPath id="clip7"><rect x="135" y="465" width="26" height="26"/></clipPath><clipPath id="clip8"><rect x="135" y="465" width="26" height="26"/></clipPath><clipPath id="clip9"><rect x="135" y="465" width="26" height="26"/></clipPath><clipPath id="clip10"><rect x="135" y="402" width="27" height="26"/></clipPath><clipPath id="clip11"><rect x="135" y="402" width="27" height="26"/></clipPath><clipPath id="clip12"><rect x="135" y="402" width="27" height="26"/></clipPath><clipPath id="clip13"><rect x="135" y="338" width="26" height="27"/></clipPath><clipPath id="clip14"><rect x="135" y="338" width="26" height="27"/></clipPath><clipPath id="clip15"><rect x="135" y="338" width="26" height="27"/></clipPath><clipPath id="clip16"><rect x="284" y="402" width="27" height="26"/></clipPath><clipPath id="clip17"><rect x="284" y="402" width="27" height="26"/></clipPath><clipPath id="clip18"><rect x="284" y="402" width="27" height="26"/></clipPath><clipPath id="clip19"><rect x="202" y="403" width="26" height="26"/></clipPath><clipPath id="clip20"><rect x="202" y="403" width="26" height="26"/></clipPath><clipPath id="clip21"><rect x="202" y="403" width="26" height="26"/></clipPath><clipPath id="clip22"><rect x="225" y="333" width="27" height="27"/></clipPath><clipPath id="clip23"><rect x="225" y="333" width="27" height="27"/></clipPath><clipPath id="clip24"><rect x="225" y="333" width="27" height="27"/></clipPath><clipPath id="clip25"><rect x="192" y="354" width="26" height="27"/></clipPath><clipPath id="clip26"><rect x="192" y="354" width="26" height="27"/></clipPath><clipPath id="clip27"><rect x="192" y="354" width="26" height="27"/></clipPath><clipPath id="clip28"><rect x="183" y="454" width="26" height="26"/></clipPath><clipPath id="clip29"><rect x="183" y="454" width="26" height="26"/></clipPath><clipPath id="clip30"><rect x="183" y="454" width="26" height="26"/></clipPath><linearGradient x1="493" y1="142.5" x2="493" y2="204.5" gradientUnits="userSpaceOnUse" spreadMethod="reflect" id="fill31"><stop offset="0" stop-color="#FFDD9C"/><stop offset="0.5" stop-color="#FFD78E"/><stop offset="1" stop-color="#FFD479"/></linearGradient></defs><g clip-path="url(#clip0)" transform="translate(-56 -93)"><rect x="105" y="292" width="223" height="217" fill="#F2F2F2"/><text font-family="Yu Gothic,Yu Gothic_MSFontService,sans-serif" font-weight="400" font-size="16" transform="translate(176.293 312)">現実の世界</text><rect x="58.5001" y="94.5001" width="604" height="440" stroke="#D9D9D9" stroke-width="1.33333" stroke-miterlimit="8" fill="none"/><rect x="172.5" y="216.5" width="65" height="57" stroke="#FF0000" stroke-width="1.33333" stroke-miterlimit="8" fill="#FFFFFF"/><text font-family="Yu Gothic,Yu Gothic_MSFontService,sans-serif" font-weight="400" font-size="11" transform="translate(193.634 248)">注文</text><rect x="263.5" y="145.5" width="65" height="56" stroke="#FF0000" stroke-width="1.33333" stroke-miterlimit="8" fill="#FFFFFF"/><text font-family="Yu Gothic,Yu Gothic_MSFontService,sans-serif" font-weight="400" font-size="11" transform="translate(284.55 177)">商品</text><rect x="87.5001" y="146.5" width="65" height="57" stroke="#000000" stroke-width="1.33333" stroke-miterlimit="8" fill="#FFFFFF"/><text font-family="Yu Gothic,Yu Gothic_MSFontService,sans-serif" font-weight="400" font-size="11" transform="translate(108.947 178)">顧客</text><path d="M0 0 110.267 1.39465" stroke="#FF0000" stroke-width="0.666667" stroke-miterlimit="8" fill="none" fill-rule="evenodd" transform="matrix(1 0 0 -1 152.5 174.895)"/><path d="M204.32 216.073 204 173" stroke="#FF0000" stroke-width="2" stroke-miterlimit="8" stroke-dasharray="2 2" fill="none" fill-rule="evenodd"/><text font-family="Yu Gothic,Yu Gothic_MSFontService,sans-serif" font-weight="400" font-size="11" transform="translate(157.123 165)">発注者<tspan font-family="Calibri,Calibri_MSFontService,sans-serif" font-size="11" x="-0.145935" y="23">*</tspan><tspan font-family="Calibri,Calibri_MSFontService,sans-serif" font-size="11" x="91.6012" y="0">*</tspan><tspan font-size="11" x="60.3658" y="23">購入予約</tspan><tspan font-size="16" x="-89.8851" y="-51">概念</tspan><tspan font-size="16" x="-57.8851" y="-51">情報モデルで定義された制約に従った操作</tspan></text><g clip-path="url(#clip1)"><g clip-path="url(#clip2)"><g clip-path="url(#clip3)"><path d="M307.803 465.972C307.205 465.373 306.37 465 305.456 465L289.822 465C288.907 465 288.073 465.373 287.475 465.972 286.875 466.571 286.503 467.405 286.503 468.319L286.503 468.587 285.773 468.587C285.47 468.587 285.225 468.832 285.225 469.135 285.225 469.438 285.47 469.683 285.773 469.683L286.503 469.683 286.503 472.971 285.773 472.971C285.47 472.971 285.225 473.217 285.225 473.52 285.225 473.822 285.47 474.068 285.773 474.068L286.503 474.068 286.503 477.356 285.773 477.356C285.47 477.356 285.225 477.602 285.225 477.904 285.225 478.206 285.47 478.451 285.773 478.451L286.503 478.451 286.503 481.74 285.773 481.74C285.47 481.74 285.225 481.986 285.225 482.288 285.225 482.591 285.47 482.836 285.773 482.836L286.503 482.836 286.503 486.125 285.773 486.125C285.47 486.125 285.225 486.37 285.225 486.672 285.225 486.975 285.47 487.221 285.773 487.221L286.503 487.221 286.503 487.681C286.503 488.595 286.875 489.429 287.475 490.028 288.073 490.627 288.907 491 289.822 491L305.456 491C306.37 491 307.205 490.627 307.803 490.028 308.402 489.429 308.776 488.595 308.775 487.681L308.775 468.319C308.776 467.405 308.402 466.571 307.803 465.972ZM292.279 489.539 289.822 489.539C289.306 489.539 288.846 489.333 288.508 488.995 288.17 488.656 287.964 488.197 287.963 487.681L287.963 487.221 289.123 487.221C289.314 487.54 289.663 487.756 290.063 487.756 290.668 487.756 291.158 487.266 291.158 486.661 291.158 486.056 290.668 485.565 290.063 485.565 289.653 485.565 289.296 485.791 289.108 486.125L287.963 486.125 287.963 482.836 289.121 482.836C289.311 483.158 289.661 483.374 290.063 483.374 290.668 483.374 291.158 482.884 291.158 482.279 291.158 481.674 290.668 481.184 290.063 481.184 289.654 481.184 289.298 481.409 289.11 481.74L287.963 481.74 287.963 478.451 289.119 478.451C289.309 478.775 289.66 478.993 290.063 478.993 290.668 478.993 291.158 478.503 291.158 477.898 291.158 477.293 290.668 476.802 290.063 476.802 289.655 476.802 289.3 477.025 289.112 477.356L287.963 477.356 287.963 474.068 289.117 474.068C289.307 474.392 289.659 474.612 290.063 474.612 290.668 474.612 291.158 474.121 291.158 473.516 291.158 472.912 290.668 472.421 290.063 472.421 289.657 472.421 289.302 472.643 289.113 472.971L287.963 472.971 287.963 469.683 289.115 469.683C289.305 470.01 289.658 470.23 290.063 470.23 290.668 470.23 291.158 469.74 291.158 469.135 291.158 468.53 290.668 468.04 290.063 468.04 289.658 468.04 289.305 468.26 289.115 468.587L287.963 468.587 287.963 468.319C287.964 467.803 288.17 467.344 288.508 467.005 288.846 466.667 289.306 466.461 289.822 466.461L292.279 466.461 292.279 489.539ZM307.315 487.681C307.314 488.197 307.108 488.656 306.77 488.995 306.432 489.333 305.972 489.539 305.456 489.539L292.827 489.539 292.827 466.461 305.456 466.461C305.972 466.461 306.432 466.667 306.77 467.005 307.108 467.344 307.314 467.803 307.315 468.319L307.315 487.681Z" fill="#4B4B4B"/><path d="M295.063 470.744 304.759 470.744 304.759 471.291 295.063 471.291Z" fill="#4B4B4B"/><path d="M295.063 474.258 304.759 474.258 304.759 474.806 295.063 474.806Z" fill="#4B4B4B"/><path d="M295.063 477.773 304.759 477.773 304.759 478.32 295.063 478.32Z" fill="#4B4B4B"/><path d="M295.063 481.287 304.759 481.287 304.759 481.835 295.063 481.835Z" fill="#4B4B4B"/><path d="M295.063 484.802 304.759 484.802 304.759 485.349 295.063 485.349Z" fill="#4B4B4B"/></g></g></g><g clip-path="url(#clip4)"><g clip-path="url(#clip5)"><g clip-path="url(#clip6)"><path d="M17.3045 0 2.34147 14.963 0 26 11.0346 23.6585 26 8.69314 17.3045 0ZM17.3045 2.65809 19.9721 5.32568 7.32601 17.9702 4.65918 15.3034 17.3045 2.65809ZM5.58832 22.8706 3.12858 20.4109 4.07281 16.1214 9.87695 21.9264 5.58832 22.8706ZM10.695 21.3392 8.02897 18.6732 20.6735 6.02713 23.3411 8.69314 10.695 21.3392Z" fill="#4B4B4B" transform="matrix(1 0 0 1.03846 284 338)"/></g></g></g><g clip-path="url(#clip7)"><g clip-path="url(#clip8)"><g clip-path="url(#clip9)"><path d="M153.486 483.029C153.29 482.956 153.076 482.855 152.859 482.735L149.224 487.759 148.966 484.468 147.035 484.468 146.776 487.759 143.142 482.735C142.918 482.86 142.702 482.963 142.514 483.029 140.611 483.699 135.935 485.626 136.237 489.235 136.309 490.101 141.073 491 148 491 154.928 491 159.691 490.101 159.763 489.235 160.065 485.622 155.377 483.736 153.486 483.029Z" fill="#4B4B4B"/><path d="M143.709 475.576C143.974 477.075 144.418 478.397 145.004 479.049 145.004 479.83 145.004 480.4 145.004 480.856 145.004 480.902 144.996 480.95 144.983 481L147.035 481.988 147.035 483.438 148.966 483.438 148.966 481.988 151.017 481C151.004 480.95 150.996 480.902 150.996 480.856 150.996 480.4 150.996 479.83 150.996 479.049 151.582 478.397 152.027 477.075 152.292 475.576 152.908 475.356 153.261 475.003 153.701 473.461 154.17 471.818 152.997 471.874 152.997 471.874 153.946 468.732 152.696 465.779 150.604 465.995 149.16 463.47 144.326 466.572 142.81 466.356 142.81 467.222 143.171 467.871 143.171 467.871 142.644 468.871 142.847 470.865 142.996 471.874 142.909 471.872 141.848 471.883 142.299 473.461 142.739 475.003 143.091 475.356 143.709 475.576Z" fill="#4B4B4B"/></g></g></g><g clip-path="url(#clip10)"><g clip-path="url(#clip11)"><g clip-path="url(#clip12)"><path d="M22.1603 20.6101C21.5436 19.6866 20.606 19.1749 19.723 18.842 19.2807 18.6754 18.8473 18.5528 18.4654 18.4484 18.0846 18.3448 17.7525 18.2568 17.5286 18.1727 17.2116 18.0551 16.8838 17.9084 16.6151 17.7488L16.6151 16.0729 16.0284 16.1706C16.0284 16.0114 16.0284 15.8444 16.0284 15.6598 16.5275 15.1046 17.2467 14.2445 17.5395 12.8767 17.6442 12.83 17.7474 12.7774 17.8467 12.7085 18.0881 12.5419 18.2932 12.2997 18.4677 11.9691 18.6433 11.637 18.7991 11.2114 18.966 10.6282 19.0501 10.3335 19.0891 10.0776 19.0891 9.85065 19.0895 9.58897 19.0354 9.36279 18.9372 9.17978 18.829 8.97614 18.6717 8.83985 18.5187 8.75342L18.5187 8.12424C18.5386 8.10636 18.5635 8.09001 18.5814 8.07132 19.0805 7.55193 18.8819 6.94997 18.5342 6.50259 18.9707 5.88936 19.8433 4.47484 19.5972 3.24446 19.0724 0.621004 15.3794 0 13 0 10.6206 0 6.92758 0.621004 6.40311 3.24446 6.15702 4.47484 7.02919 5.88936 7.46606 6.50259 7.12847 6.93672 6.93652 7.51649 7.38232 8.02537L7.38232 8.82355C7.2636 8.90845 7.14675 9.02215 7.06301 9.17983 6.96455 9.3632 6.91077 9.58902 6.91118 9.8507 6.91118 10.0781 6.95007 10.3335 7.03422 10.6283 7.25695 11.405 7.45819 11.9054 7.71712 12.2709 7.84682 12.4524 7.99358 12.5976 8.15359 12.7086 8.25287 12.7774 8.35606 12.83 8.46041 12.8768 8.75362 14.2446 9.47233 15.1046 9.97186 15.6599 9.97186 15.8444 9.97186 16.0115 9.97186 16.1707L9.38473 16.073 9.38473 17.7492C9.35436 17.7679 9.32552 17.7869 9.29363 17.8049 9.03505 17.9524 8.73798 18.0794 8.47828 18.1709 8.17263 18.2791 7.68285 18.3912 7.13421 18.5482 6.30998 18.7865 5.33696 19.1299 4.54614 19.8073 4.15177 20.1464 3.8056 20.572 3.5623 21.1008 3.31815 21.6295 3.17799 22.2572 3.1784 22.9938 3.1784 23.1644 3.18576 23.3411 3.20135 23.5237 3.21222 23.6483 3.25975 23.7499 3.31622 23.8344 3.42327 23.9921 3.56657 24.1104 3.7472 24.2319 4.06296 24.4414 4.50181 24.6462 5.06477 24.8479 6.74964 25.4487 9.54098 25.9988 13 26 15.8103 25.9996 18.1827 25.6351 19.8748 25.1773 20.7216 24.9476 21.3972 24.6961 21.8846 24.4457 22.1287 24.32 22.3262 24.1953 22.4815 24.0594 22.559 23.9909 22.6271 23.9193 22.684 23.8348 22.74 23.7503 22.788 23.6483 22.7984 23.5237 22.814 23.3411 22.8214 23.1651 22.8214 22.9946 22.8227 22.0138 22.5707 21.2242 22.1603 20.6101ZM12.4845 2.98086 13.0004 1.83036 13.5159 2.98086 14.7692 3.11558 13.8347 3.96124 14.0937 5.19553 13.0004 4.56788 11.9067 5.19553 12.1656 3.96124 11.2308 3.11563 12.4845 2.98086ZM13 24.9491C12.6329 24.9491 12.3354 24.6513 12.3354 24.2842 12.3354 23.9174 12.6329 23.6195 13 23.6195 13.3671 23.6195 13.665 23.9174 13.665 24.2842 13.665 24.6513 13.3671 24.9491 13 24.9491ZM13 21.6914C12.6329 21.6914 12.3354 21.3935 12.3354 21.0267 12.3354 20.6592 12.6329 20.3618 13 20.3618 13.3671 20.3618 13.665 20.6592 13.665 21.0267 13.665 21.3935 13.3671 21.6914 13 21.6914ZM13 19.0321 9.60598 18.4664C9.72588 18.3998 9.84349 18.3297 9.95485 18.253 10.0187 18.2086 10.0767 18.1584 10.1362 18.1097L12.8754 18.566 12.8754 16.6547 10.7032 16.2926C10.7032 16.0617 10.7032 15.8106 10.7032 15.5205L10.7032 15.3804 10.609 15.2757C10.0884 14.6951 9.37975 13.9219 9.13443 12.5482L9.09746 12.3387 8.89769 12.2671C8.76378 12.2196 8.66094 12.1705 8.57101 12.1082 8.43786 12.0144 8.31751 11.8855 8.17852 11.6262 8.0407 11.3684 7.89588 10.9842 7.73739 10.4278 7.66771 10.1836 7.64243 9.99324 7.64243 9.85075 7.64278 9.68602 7.67432 9.58791 7.70783 9.52484 7.75805 9.43333 7.82077 9.39362 7.89862 9.36249 7.9103 9.35817 7.92198 9.35507 7.93366 9.35157L9.2107 10.3386 9.2107 8.82634C10.5879 9.11874 12.287 9.17485 12.9999 9.17485 13.6961 9.17485 15.3318 9.12265 16.6902 8.84853L16.6902 10.3386 17.988 9.33522C18.0394 9.34263 18.1161 9.35939 18.1745 9.39829 18.2204 9.42749 18.2582 9.46217 18.2925 9.52484 18.3256 9.58791 18.3571 9.68561 18.3575 9.85075 18.3575 9.99324 18.3325 10.1833 18.2629 10.4278 18.0518 11.1703 17.8626 11.6032 17.6874 11.8458 17.5998 11.968 17.5192 12.0452 17.4292 12.1082 17.3393 12.1705 17.2362 12.2196 17.1026 12.2671L16.9024 12.3387 16.8655 12.5482C16.6206 13.9218 15.9119 14.6951 15.391 15.2757L15.2971 15.3804 15.2971 15.5205C15.2971 15.8106 15.2971 16.0618 15.2971 16.2926L13.1249 16.6547 13.1249 18.566 15.8543 18.1112C15.9949 18.2257 16.1498 18.3277 16.313 18.4216 16.341 18.4376 16.3714 18.45 16.3998 18.4652L13 19.0321Z" fill="#4B4B4B" transform="matrix(1.03846 0 0 1 135 402)"/></g></g></g><g clip-path="url(#clip13)"><g clip-path="url(#clip14)"><g clip-path="url(#clip15)"><path d="M8.25663 7.47464C8.25663 7.47464 11.1312 8.05005 14.8682 4.31239 16.5932 6.61278 17.744 7.76237 17.744 7.76237L17.744 11.2135C18.8981 10.0232 19.6125 8.40222 19.6125 6.61278 19.6125 2.96045 16.652 0 12.9997 0 9.34852 0 6.38808 2.96045 6.38808 6.61278 6.38808 8.40222 7.10135 10.0231 8.25657 11.2135L8.25657 7.47464Z" fill="#4B4B4B" transform="matrix(1 0 0 1.03846 135 338)"/><path d="M17.4342 15.1037C16.9702 15.3574 12.9997 24.0744 12.9997 24.0744 12.9997 24.0744 9.02987 15.3574 8.56522 15.1037 4.09571 16.7162 3.89614 20.3283 3.89614 26L22.1039 26C22.1039 20.3283 21.9043 16.7162 17.4342 15.1037Z" fill="#4B4B4B" transform="matrix(1 0 0 1.03846 135 338)"/><path d="M11.0204 14.7142 11.0204 17.3536 12.9997 16.6805 14.9796 17.3536 14.9796 14.7142 12.9997 15.3874Z" fill="#4B4B4B" transform="matrix(1 0 0 1.03846 135 338)"/></g></g></g><g clip-path="url(#clip16)"><g clip-path="url(#clip17)"><g clip-path="url(#clip18)"><path d="M5.19624 3.68103C4.9137 3.68022 4.66588 3.5688 4.47982 3.38396 4.29498 3.1979 4.18321 2.94968 4.18275 2.66713 4.18316 2.38459 4.29498 2.13637 4.47941 1.9503 4.66548 1.76541 4.9137 1.65405 5.19624 1.65323L22.6438 1.65359 22.6438 0.000355469 5.19624 0C3.72303 0.0008125 2.52992 1.19392 2.52952 2.66713L2.52952 23.3328C2.52992 24.806 3.72303 25.9991 5.19624 25.9999L23.4705 25.9999 23.4705 3.68103 5.19624 3.68103ZM21.8172 24.3464 5.80816 24.3468 5.80816 5.33432 21.8172 5.33432 21.8172 24.3464Z" fill="#4B4B4B" transform="matrix(1.03846 0 0 1 284 402)"/><path d="M19.4407 21.4536 19.4407 7.60754 8.2812 7.60754 8.2812 22.0735 19.4407 22.0735 19.4407 21.4536ZM18.2007 20.8336 9.52113 20.8336 9.52113 8.84747 18.2007 8.84747 18.2007 20.8336Z" fill="#4B4B4B" transform="matrix(1.03846 0 0 1 284 402)"/><path d="M11.381 17.4238 16.3408 17.4238 16.3408 18.3537 11.381 18.3537Z" fill="#4B4B4B" transform="matrix(1.03846 0 0 1 284 402)"/></g></g></g><path d="M162.5 415.167 165.167 415.167 165.167 415.833 162.5 415.833ZM167.167 415.167 169.833 415.167 169.833 415.833 167.167 415.833ZM171.833 415.167 173.938 415.167 174.502 415.17 174.498 415.837 173.936 415.833 173.938 415.833 171.833 415.833ZM176.502 415.181 179.169 415.196 179.165 415.863 176.498 415.848ZM181.168 415.207 183.835 415.222 183.831 415.889 181.165 415.874ZM185.835 415.234 188.502 415.25 188.498 415.917 185.831 415.901ZM190.502 415.262 193.168 415.278 193.164 415.945 190.498 415.929ZM195.168 415.29 195.378 415.292 197.837 415.325 197.828 415.991 195.371 415.958 195.373 415.958 195.164 415.957ZM199.837 415.352 202.504 415.387 202.495 416.054 199.828 416.018ZM204.503 415.414 204.692 415.417 204.688 415.417 207.166 415.417 207.166 416.083 204.685 416.083 204.494 416.081ZM209.171 415.423 211.837 415.467 211.826 416.134 209.16 416.089ZM213.838 415.504 215.819 415.542 216.505 415.557 216.49 416.224 215.806 416.208 213.825 416.17ZM218.504 415.601 218.634 415.604 220.823 415.667 221.175 415.68 221.15 416.346 220.8 416.333 220.803 416.333 218.616 416.271 218.618 416.271 218.49 416.268ZM223.181 415.771 223.538 415.793 223.93 415.859 224.305 415.921 224.271 415.917 225.271 415.98 225.262 415.979 225.826 416 225.801 416.667 225.233 416.646 224.212 416.582 223.82 416.516 223.445 416.454 223.479 416.458 223.14 416.437ZM227.822 416.067 229.135 416.104 229.132 416.104 230.486 416.134 230.471 416.801 229.117 416.771 227.803 416.733ZM232.484 416.177 235.15 416.228 235.138 416.895 232.471 416.844ZM237.149 416.262 238.943 416.292 238.938 416.292 239.81 416.292 239.81 416.958 238.935 416.958 237.138 416.928ZM241.81 416.292 243.065 416.292 244.481 416.311 244.472 416.977 243.058 416.958 243.063 416.958 241.81 416.958ZM246.481 416.338 249.147 416.373 249.139 417.04 246.472 417.004ZM251.147 416.4 252.38 416.417 252.377 416.417 253.811 416.425 253.807 417.092 252.372 417.083 251.138 417.067ZM255.811 416.438 258.478 416.454 258.474 417.12 255.807 417.104ZM260.478 416.466 262.69 416.479 263.144 416.482 263.141 417.148 262.686 417.146 260.474 417.132ZM265.144 416.493 267.811 416.508 267.807 417.175 265.141 417.16ZM269.811 416.519 272.478 416.534 272.474 417.201 269.807 417.186ZM274.476 416.542 277.142 416.542 277.142 417.208 274.476 417.208ZM279.142 416.542 281.809 416.542 281.809 417.208 279.142 417.208ZM283.809 416.542 284.59 416.542 284.59 417.208 283.809 417.208ZM276.758 411.92 285.252 416.875 276.758 421.83C276.599 421.922 276.395 421.869 276.302 421.71 276.209 421.551 276.263 421.347 276.422 421.254L284.422 416.587 284.422 417.163 276.422 412.496C276.263 412.404 276.209 412.199 276.302 412.04 276.395 411.881 276.599 411.828 276.758 411.92Z" fill="#FF0000"/><g clip-path="url(#clip19)"><g clip-path="url(#clip20)"><g clip-path="url(#clip21)"><path d="M212.13 414.916 223.327 414.916 223.327 415.856 212.13 415.856Z" fill="#FF0000"/><path d="M211.164 418.634 222.362 418.634 222.362 419.575 211.164 419.575Z" fill="#FF0000"/><path d="M227.964 404.859 227.964 404.254 209.014 404.254 209.014 404.859C209.014 406.108 209.048 407.415 209.048 408.771 209.048 410.749 208.976 412.833 208.623 415.003 208.288 417.066 207.7 419.207 206.68 421.415L204.856 421.415C204.534 421.415 204.209 421.466 203.895 421.575 203.424 421.739 202.979 422.037 202.642 422.475 202.304 422.912 202.081 423.481 202.015 424.152 202.005 424.249 202 424.345 202 424.441 202 424.927 202.125 425.385 202.335 425.787 202.652 426.391 203.152 426.871 203.733 427.206 204.315 427.541 204.982 427.734 205.662 427.738L220.068 427.746C220.616 427.748 221.092 427.636 221.496 427.452 221.902 427.269 222.232 427.025 222.539 426.781 223.794 425.781 224.764 424.543 225.508 423.168 226.625 421.103 227.241 418.731 227.586 416.319 227.93 413.907 228 411.452 228 409.217 228 407.616 227.964 406.128 227.964 404.859ZM205.669 426.529 205.669 426.529C205.369 426.527 205.057 426.468 204.763 426.358 204.32 426.194 203.919 425.915 203.643 425.579 203.504 425.411 203.396 425.229 203.322 425.04 203.249 424.85 203.21 424.652 203.21 424.441 203.21 424.386 203.212 424.329 203.218 424.272 203.25 423.953 203.327 423.697 203.429 423.49 203.582 423.181 203.79 422.975 204.035 422.834 204.28 422.695 204.567 422.631 204.856 422.631L217.82 422.631C217.68 422.793 217.555 422.977 217.455 423.185 217.307 423.491 217.208 423.846 217.168 424.245 217.16 424.336 217.155 424.425 217.155 424.514 217.155 424.936 217.256 425.336 217.432 425.691 217.59 426.011 217.807 426.294 218.065 426.536L205.669 426.529ZM225.964 418.432C225.615 419.923 225.125 421.336 224.444 422.592 223.764 423.849 222.896 424.949 221.785 425.835 221.505 426.059 221.259 426.232 220.999 426.349 220.739 426.465 220.461 426.535 220.068 426.537L219.664 426.536C219.298 426.433 218.959 426.249 218.683 426.009 218.46 425.815 218.279 425.586 218.155 425.334 218.031 425.082 217.962 424.808 217.962 424.514 217.962 424.452 217.964 424.389 217.971 424.326 218.003 424.009 218.078 423.749 218.181 423.535 218.336 423.216 218.549 422.998 218.796 422.852 219.042 422.707 219.326 422.636 219.608 422.637 219.894 422.636 220.177 422.71 220.411 422.841 220.646 422.973 220.83 423.159 220.941 423.39 221 423.512 221.036 423.675 221.036 423.839 221.036 423.974 221.012 424.108 220.968 424.22 220.925 424.333 220.863 424.421 220.791 424.483 220.656 424.596 220.518 424.639 220.378 424.64 220.257 424.64 220.136 424.604 220.035 424.538 219.933 424.473 219.854 424.382 219.808 424.274L219.067 424.592C219.18 424.856 219.37 425.07 219.6 425.217 219.828 425.364 220.098 425.446 220.378 425.446 220.699 425.448 221.036 425.334 221.314 425.096 221.504 424.934 221.636 424.729 221.72 424.512 221.804 424.296 221.842 424.066 221.842 423.839 221.842 423.564 221.786 423.289 221.668 423.041 221.478 422.645 221.166 422.34 220.805 422.138 220.451 421.94 220.047 421.836 219.637 421.831L219.637 421.825 207.825 421.825C208.867 419.541 209.472 417.32 209.817 415.197 210.185 412.932 210.258 410.778 210.258 408.771 210.258 407.617 210.234 406.514 210.227 405.463L226.757 405.463C226.765 406.606 226.79 407.875 226.79 409.217 226.791 412.162 226.663 415.451 225.964 418.432Z" fill="#FF0000"/><path d="M218.817 412.564C218.959 410.983 218.966 409.47 218.951 408.039L212.687 408.039C212.701 409.47 212.694 410.983 212.552 412.564L218.817 412.564Z" fill="#FF0000"/></g></g></g><text font-family="Calibri,Calibri_MSFontService,sans-serif" font-weight="400" font-size="11" transform="translate(219.393 414)">3</text><path d="M161.5 352.167 164.167 352.167 164.167 352.833 161.5 352.833ZM166.167 352.167 168.833 352.167 168.833 352.833 166.167 352.833ZM170.833 352.167 172.938 352.167 173.502 352.17 173.498 352.837 172.936 352.833 172.938 352.833 170.833 352.833ZM175.502 352.181 178.169 352.196 178.165 352.863 175.498 352.848ZM180.168 352.207 182.835 352.222 182.831 352.889 180.165 352.874ZM184.835 352.234 187.502 352.25 187.498 352.917 184.831 352.901ZM189.502 352.262 192.168 352.278 192.164 352.945 189.498 352.929ZM194.168 352.29 194.378 352.292 196.837 352.325 196.828 352.991 194.371 352.958 194.373 352.958 194.164 352.957ZM198.837 352.352 201.504 352.387 201.495 353.054 198.828 353.018ZM203.503 352.414 203.692 352.417 203.688 352.417 206.166 352.417 206.166 353.083 203.685 353.083 203.494 353.081ZM208.171 352.423 210.837 352.467 210.826 353.134 208.16 353.089ZM212.838 352.504 214.819 352.542 215.505 352.557 215.49 353.224 214.806 353.208 212.825 353.17ZM217.504 352.601 217.634 352.604 219.823 352.667 220.175 352.68 220.15 353.346 219.8 353.333 219.803 353.333 217.616 353.271 217.618 353.271 217.49 353.268ZM222.181 352.771 222.538 352.793 222.93 352.859 223.305 352.921 223.271 352.917 224.271 352.98 224.262 352.979 224.826 353 224.801 353.667 224.233 353.646 223.212 353.582 222.82 353.516 222.445 353.454 222.479 353.458 222.14 353.437ZM226.822 353.067 228.135 353.104 228.132 353.104 229.486 353.134 229.471 353.801 228.117 353.771 226.803 353.733ZM231.484 353.177 234.15 353.228 234.138 353.895 231.471 353.844ZM236.149 353.262 237.943 353.292 237.938 353.292 238.81 353.292 238.81 353.958 237.935 353.958 236.138 353.928ZM240.81 353.292 242.065 353.292 243.481 353.311 243.472 353.977 242.058 353.958 242.063 353.958 240.81 353.958ZM245.481 353.338 248.147 353.373 248.139 354.04 245.472 354.004ZM250.147 353.4 251.38 353.417 251.377 353.417 252.811 353.425 252.807 354.092 251.372 354.083 250.138 354.067ZM254.811 353.438 257.478 353.454 257.474 354.12 254.807 354.104ZM259.478 353.466 261.69 353.479 262.144 353.482 262.141 354.148 261.686 354.146 259.474 354.132ZM264.144 353.493 266.811 353.508 266.807 354.175 264.141 354.16ZM268.811 353.519 271.478 353.534 271.474 354.201 268.807 354.186ZM273.476 353.542 276.142 353.542 276.142 354.208 273.476 354.208ZM278.142 353.542 280.809 353.542 280.809 354.208 278.142 354.208ZM282.809 353.542 283.59 353.542 283.59 354.208 282.809 354.208ZM275.758 348.92 284.252 353.875 275.758 358.83C275.599 358.922 275.395 358.869 275.302 358.71 275.209 358.551 275.263 358.347 275.422 358.254L283.422 353.587 283.422 354.163 275.422 349.496C275.263 349.404 275.209 349.199 275.302 349.04 275.395 348.881 275.599 348.828 275.758 348.92Z"/><path d="M161.52 352.167 164.182 352.326 164.142 352.992 161.48 352.833ZM166.178 352.446 168.84 352.605 168.8 353.27 166.139 353.111ZM170.837 352.724 173.041 352.856 173.532 352.948 173.41 353.603 172.939 353.515 172.98 353.52 170.797 353.39ZM175.499 353.314 178.12 353.803 177.998 354.458 175.376 353.97ZM180.086 354.17 182.708 354.658 182.586 355.314 179.964 354.825ZM184.694 355.091 187.249 355.856 187.058 356.495 184.503 355.73ZM189.165 356.43 191.72 357.195 191.528 357.833 188.974 357.068ZM193.635 357.768 194.615 358.061 196.159 358.735 195.892 359.346 194.367 358.681 194.404 358.694 193.444 358.407ZM197.992 359.535 200.436 360.601 200.17 361.212 197.725 360.146ZM202.269 361.401 203.961 362.139 204.706 362.556 204.38 363.138 203.65 362.728 203.679 362.743 202.003 362.012ZM206.451 363.534 208.111 364.465 208.768 364.9 208.401 365.456 207.754 365.028 207.775 365.041 206.125 364.116ZM210.437 366.002 211.821 366.917 212.633 367.561 212.219 368.083 211.418 367.449 211.441 367.466 210.069 366.559ZM214.2 368.803 215.16 369.563 216.207 370.611 215.736 371.082 214.702 370.048 214.731 370.074 213.786 369.326ZM217.621 372.025 217.936 372.34 219.347 374.103 218.826 374.52 217.427 372.771 217.452 372.798 217.15 372.496ZM220.544 375.762 221.873 378.074 221.295 378.406 219.966 376.094ZM222.558 380.02 222.951 381.174 223.143 382.676 222.482 382.761 222.294 381.292 222.309 381.357 221.927 380.234ZM223.396 384.66 223.706 387.083 223.691 387.018 223.763 387.23 223.132 387.445 223.049 387.201 222.735 384.745ZM224.407 389.123 224.691 389.955 224.664 389.897 225.555 391.447 224.977 391.779 224.07 390.201 223.776 389.338ZM226.573 393.104 228.239 395.187 227.718 395.603 226.052 393.521ZM229.593 396.598 231.296 398.262 231.27 398.239 231.494 398.417 231.08 398.939 230.842 398.751 229.127 397.075ZM233.062 399.659 234.582 400.864 234.562 400.849 235.164 401.257 234.79 401.809 234.178 401.394 232.648 400.181ZM236.819 402.379 238.25 403.349 238.224 403.333 239.045 403.787 238.723 404.37 237.888 403.909 236.445 402.931ZM240.796 404.754 242.411 405.646 242.384 405.632 243.136 405.963 242.868 406.573 242.102 406.237 240.474 405.337ZM244.967 406.767 247.409 407.839 247.141 408.45 244.699 407.377ZM249.24 408.643 251.634 409.695 251.596 409.681 251.645 409.696 251.454 410.334 251.385 410.314 248.972 409.254ZM253.561 410.269 256.116 411.034 255.925 411.673 253.37 410.908ZM258.032 411.608 260.587 412.373 260.395 413.011 257.841 412.246ZM262.479 412.884 265.103 413.359 264.985 414.015 262.36 413.54ZM267.071 413.714 269.695 414.189 269.577 414.845 266.953 414.37ZM271.664 414.545 273.059 414.797 273.02 414.792 274.266 414.867 274.226 415.532 272.96 415.457 271.545 415.201ZM276.262 414.986 278.924 415.145 278.884 415.811 276.223 415.652ZM280.921 415.265 283.583 415.424 283.543 416.089 280.881 415.93ZM276.319 410.36 284.502 415.813 275.727 420.252C275.563 420.335 275.363 420.269 275.28 420.105 275.196 419.94 275.262 419.74 275.427 419.657L283.691 415.476 283.656 416.051 275.949 410.915C275.796 410.813 275.754 410.606 275.857 410.453 275.959 410.299 276.166 410.258 276.319 410.36Z" fill="#FF0000"/><path d="M0.019892-0.332739 2.68181-0.173603 2.64202 0.491875-0.019892 0.332739ZM4.67824-0.054251 7.34015 0.104885 7.30037 0.770364 4.63846 0.611228ZM9.33659 0.224237 11.5397 0.355947 12.0311 0.444785 11.9125 1.10082 11.4407 1.01552 11.4801 1.02024 9.29681 0.889716ZM13.9992 0.800599 16.6233 1.27502 16.5047 1.93105 13.8806 1.45663ZM18.5914 1.63083 21.2156 2.10525 21.097 2.76128 18.4728 2.28686ZM23.2051 2.53194 25.7597 3.29679 25.5685 3.93545 23.0139 3.17059ZM27.6757 3.87044 30.2303 4.63529 30.0391 5.27395 27.4845 4.50909ZM32.1463 5.20894 33.1149 5.49894 34.6692 6.177 34.4026 6.78805 32.8667 6.11803 32.9044 6.13183 31.9551 5.84759ZM36.5023 6.9767 38.9466 8.04297 38.68 8.65402 36.2358 7.58775ZM40.7797 8.84267 42.4592 9.57534 43.2174 9.9889 42.8982 10.5742 42.1529 10.1676 42.1792 10.1805 40.5132 9.45372ZM44.9732 10.9466 46.6112 11.8401 47.3007 12.3075 46.9266 12.8593 46.2504 12.4009 46.2779 12.4176 44.654 11.5319ZM48.9561 13.4298 50.3207 14.355 51.1425 14.9907 50.7345 15.518 49.921 14.8887 49.9379 14.9009 48.582 13.9816ZM52.7244 16.2144 53.6582 16.9368 54.739 18.0175 54.2675 18.489 53.2018 17.4232 53.2335 17.4512 52.3165 16.7417ZM56.1532 19.4318 56.4363 19.7149 57.8751 21.5134 57.3545 21.9298 55.9272 20.1457 55.9518 20.1732 55.6818 19.9032ZM59.0707 23.1703 60.4296 25.4855 60.4457 25.5328 59.8146 25.7476 59.8094 25.7324 59.8375 25.7937 58.4958 23.5078ZM61.0902 27.4261 61.4514 28.4869 61.6557 30.0872 60.9944 30.1716 60.7943 28.6047 60.8094 28.6699 60.4591 27.6409ZM61.9089 32.0711 62.2056 34.3953 62.1905 34.3301 62.2948 34.6364 61.6637 34.8513 61.5486 34.5131 61.2477 32.1555ZM62.9394 36.5298 63.1905 37.2676 63.1625 37.2063 64.1178 38.8339 63.5429 39.1713 62.5704 37.5145 62.3083 36.7446ZM65.1686 40.4741 66.8345 42.5564 66.3139 42.9728 64.648 40.8905ZM68.1927 43.9713 69.7982 45.5768 69.7665 45.5488 70.0797 45.7912 69.6718 46.3185 69.3418 46.0632 67.7213 44.4427ZM71.6617 47.0149 73.079 48.1113 73.062 48.0991 73.7861 48.59 73.412 49.1418 72.6793 48.645 71.2537 47.5422ZM75.4415 49.7123 76.7495 50.5991 76.7236 50.5832 77.6746 51.1084 77.3524 51.692 76.388 51.1594 75.0674 50.2641ZM79.4254 52.0752 80.9111 52.8957 80.8823 52.8815 81.7721 53.2663 81.5075 53.8782 80.6029 53.4871 79.1031 52.6588ZM83.6078 54.0602 86.0555 55.1186 85.7908 55.7305 83.3432 54.6721ZM87.8912 55.9124 90.1323 56.8815 90.0956 56.8682 90.3111 56.9327 90.1199 57.5714 89.8857 57.5012 87.6266 56.5243ZM92.2271 57.5063 94.7817 58.2712 94.5905 58.9098 92.0359 58.145ZM96.6977 58.8448 99.2523 59.6097 99.0611 60.2484 96.5065 59.4835ZM101.149 60.1024 103.773 60.5768 103.655 61.2329 101.031 60.7585ZM105.741 60.9327 108.366 61.4071 108.247 62.0631 105.623 61.5887ZM110.334 61.7629 111.559 61.9845 111.52 61.9798 112.939 62.0646 112.899 62.73 111.46 62.6441 110.215 62.4189ZM114.935 62.1839 117.597 62.3431 117.557 63.0085 114.895 62.8494ZM119.593 62.4624 122.255 62.6216 122.215 63.287 119.554 63.1279ZM114.819 57.5475 123.002 63.0001 114.227 67.439C114.063 67.5221 113.863 67.4563 113.78 67.2921 113.696 67.1278 113.762 66.9273 113.926 66.8442L122.191 62.6632 122.156 63.238 114.449 58.1023C114.296 58.0002 114.254 57.7932 114.357 57.64 114.459 57.4868 114.666 57.4454 114.819 57.5475Z" fill="#FF0000" transform="matrix(1 0 0 -1 161.5 478.461)"/><g clip-path="url(#clip22)"><g clip-path="url(#clip23)"><g clip-path="url(#clip24)"><path d="M235.519 345.374 247.147 345.374 247.147 346.351 235.519 346.351Z"/><path d="M234.516 349.235 246.145 349.235 246.145 350.213 234.516 350.213Z"/><path d="M251.962 334.93 251.962 334.302 232.284 334.302 232.284 334.93C232.284 336.228 232.32 337.585 232.32 338.993 232.32 341.047 232.244 343.211 231.878 345.464 231.529 347.607 230.919 349.831 229.86 352.123L227.966 352.123C227.632 352.123 227.294 352.177 226.968 352.29 226.479 352.459 226.017 352.769 225.667 353.224 225.316 353.678 225.084 354.269 225.015 354.965 225.005 355.066 225 355.166 225 355.265 225 355.77 225.13 356.246 225.348 356.663 225.677 357.291 226.196 357.789 226.8 358.137 227.404 358.485 228.097 358.685 228.803 358.69L243.763 358.698C244.332 358.7 244.826 358.583 245.246 358.392 245.667 358.202 246.011 357.949 246.329 357.695 247.633 356.658 248.639 355.371 249.412 353.944 250.572 351.8 251.212 349.336 251.57 346.832 251.927 344.327 252 341.777 252 339.456 252 337.794 251.962 336.248 251.962 334.93ZM228.81 357.434 228.81 357.434C228.498 357.432 228.175 357.371 227.869 357.256 227.409 357.086 226.993 356.797 226.706 356.448 226.562 356.273 226.45 356.084 226.373 355.887 226.297 355.69 226.256 355.484 226.256 355.266 226.256 355.208 226.259 355.15 226.265 355.09 226.298 354.758 226.378 354.493 226.484 354.278 226.643 353.957 226.859 353.743 227.114 353.597 227.368 353.452 227.665 353.386 227.966 353.386L241.429 353.386C241.283 353.554 241.153 353.745 241.049 353.962 240.896 354.279 240.793 354.648 240.752 355.062 240.743 355.157 240.738 355.249 240.738 355.341 240.738 355.78 240.843 356.195 241.025 356.564 241.189 356.896 241.415 357.19 241.683 357.441L228.81 357.434ZM249.886 349.026C249.524 350.574 249.014 352.041 248.307 353.346 247.601 354.651 246.7 355.793 245.546 356.713 245.256 356.946 245 357.126 244.73 357.247 244.459 357.368 244.171 357.44 243.763 357.442L243.344 357.441C242.964 357.334 242.611 357.144 242.324 356.894 242.093 356.693 241.905 356.455 241.776 356.193 241.647 355.931 241.576 355.647 241.576 355.341 241.576 355.277 241.578 355.212 241.585 355.146 241.618 354.817 241.696 354.547 241.803 354.325 241.964 353.993 242.186 353.768 242.442 353.616 242.698 353.465 242.992 353.391 243.286 353.392 243.582 353.391 243.876 353.468 244.119 353.604 244.363 353.741 244.554 353.934 244.67 354.174 244.731 354.301 244.768 354.47 244.768 354.641 244.768 354.781 244.743 354.92 244.698 355.036 244.653 355.153 244.588 355.245 244.514 355.309 244.373 355.427 244.23 355.472 244.085 355.473 243.96 355.473 243.834 355.435 243.729 355.367 243.623 355.299 243.541 355.204 243.493 355.092L242.723 355.422C242.841 355.697 243.038 355.919 243.276 356.072 243.514 356.225 243.794 356.31 244.085 356.31 244.419 356.311 244.768 356.193 245.057 355.946 245.254 355.778 245.391 355.564 245.478 355.339 245.566 355.115 245.605 354.877 245.605 354.641 245.605 354.355 245.547 354.07 245.424 353.812 245.227 353.401 244.903 353.084 244.529 352.874 244.161 352.668 243.742 352.561 243.315 352.555L243.315 352.549 231.049 352.549C232.131 350.177 232.76 347.871 233.117 345.666 233.5 343.314 233.575 341.077 233.575 338.993 233.575 337.795 233.551 336.649 233.543 335.558L250.709 335.558C250.717 336.745 250.744 338.063 250.744 339.456 250.745 342.514 250.612 345.93 249.886 349.026Z"/><path d="M242.464 342.932C242.611 341.29 242.618 339.719 242.603 338.233L236.098 338.233C236.113 339.719 236.105 341.29 235.958 342.932L242.464 342.932Z"/></g></g></g><text font-family="Calibri,Calibri_MSFontService,sans-serif" font-weight="400" font-size="11" transform="translate(240.791 344)">12</text><g clip-path="url(#clip25)"><g clip-path="url(#clip26)"><g clip-path="url(#clip27)"><path d="M10.1296 11.9158 21.3271 11.9158 21.3271 12.8564 10.1296 12.8564Z" stroke="#FF0000" stroke-width="0.0508137" fill="#FF0000" transform="matrix(1 0 0 1.03846 192 354)"/><path d="M9.16403 15.6341 20.3615 15.6341 20.3615 16.5752 9.16403 16.5752Z" stroke="#FF0000" stroke-width="0.0508137" fill="#FF0000" transform="matrix(1 0 0 1.03846 192 354)"/><path d="M25.9636 1.8587 25.9636 1.25359 7.01375 1.25359 7.01375 1.8587C7.01375 3.10837 7.04849 4.41472 7.04849 5.77109 7.04849 7.74922 6.97562 9.83323 6.62299 12.0028 6.28753 14.0661 5.70004 16.2072 4.68041 18.4146L2.85639 18.4146C2.53409 18.4146 2.20868 18.4664 1.89475 18.5753 1.42446 18.7386 0.979215 19.0368 0.641977 19.475 0.303875 19.9123 0.0808437 20.481 0.0145234 21.1515 0.004875 21.2485 0 21.3451 0 21.4408-0.000457031 21.9269 0.124719 22.3853 0.335461 22.7871 0.652031 23.3913 1.15218 23.8713 1.73311 24.2063 2.31497 24.5409 2.98233 24.7336 3.66204 24.7384L18.0676 24.7464C18.6161 24.7477 19.0916 24.6357 19.4965 24.4517 19.9017 24.2687 20.2324 24.0254 20.5393 23.7808 21.7943 22.7814 22.7638 21.5427 23.5081 20.1679 24.6247 18.1033 25.2412 15.7313 25.5859 13.3193 25.9297 10.9073 25.9995 8.45183 25.9999 6.21679 26 4.61622 25.9636 3.12812 25.9636 1.8587ZM3.66869 23.5288 3.66915 23.5288C3.36878 23.5274 3.05744 23.4681 2.7628 23.358 2.32025 23.1937 1.91887 22.9153 1.64267 22.5794 1.50394 22.4112 1.39593 22.2294 1.32214 22.0398 1.24886 21.8496 1.20971 21.6517 1.20971 21.4409 1.20971 21.3856 1.21235 21.3293 1.21809 21.2723 1.25013 20.9526 1.32696 20.6966 1.42883 20.4898 1.5825 20.1807 1.79024 19.9752 2.03526 19.8342 2.27982 19.6946 2.56654 19.6314 2.85639 19.6314L15.8204 19.6314C15.6799 19.7925 15.5548 19.9769 15.4546 20.1855 15.3071 20.4911 15.2083 20.8459 15.1683 21.2451 15.1595 21.3359 15.1551 21.4251 15.1551 21.5138 15.1551 21.9362 15.2561 22.3362 15.4317 22.6915 15.5898 23.0107 15.8072 23.2944 16.0649 23.5359L3.66869 23.5288ZM23.9644 15.4322C23.6153 16.923 23.1248 18.3355 22.4442 19.5922 21.7636 20.8489 20.8964 21.9493 19.7854 22.835 19.5053 23.0589 19.2589 23.2324 18.9994 23.3487 18.7386 23.465 18.4607 23.5353 18.0681 23.5366L17.6642 23.5362C17.2984 23.4326 16.959 23.2495 16.6828 23.0088 16.4597 22.8152 16.2792 22.586 16.1549 22.334 16.0307 22.0819 15.9617 21.8079 15.9617 21.5137 15.9617 21.4523 15.9644 21.3895 15.971 21.3258 16.0026 21.0092 16.0781 20.7488 16.1808 20.5354 16.3359 20.2158 16.5493 19.9984 16.7961 19.8522 17.0424 19.7069 17.3256 19.6361 17.6083 19.6366 17.8938 19.6357 18.1765 19.7095 18.4106 19.8408 18.6455 19.973 18.8295 20.1587 18.9411 20.3901 18.9999 20.5122 19.0363 20.6751 19.0363 20.8394 19.0363 20.9741 19.0122 21.1081 18.9683 21.2201 18.9248 21.3329 18.8628 21.4212 18.7908 21.4827 18.6556 21.5964 18.5177 21.6394 18.3785 21.6403 18.2573 21.6403 18.1362 21.6038 18.0352 21.5384 17.9333 21.4734 17.8542 21.3821 17.8077 21.2736L17.0665 21.5916C17.1798 21.8564 17.3703 22.0702 17.5996 22.2173 17.8283 22.3644 18.0979 22.4465 18.3785 22.4465 18.6995 22.4478 19.0363 22.3341 19.3138 22.0965 19.5039 21.934 19.6356 21.7285 19.7199 21.5121 19.8038 21.2956 19.842 21.0663 19.842 20.8394 19.842 20.5636 19.7863 20.2892 19.6677 20.0411 19.4776 19.6454 19.1663 19.3402 18.8053 19.1378 18.4514 18.9398 18.0474 18.8362 17.6368 18.8309L17.6368 18.8247 5.82461 18.8247C6.86705 16.541 7.47216 14.32 7.81681 12.1969 8.18477 9.9321 8.25764 7.77832 8.25764 5.77119 8.25764 4.61723 8.23438 3.51421 8.22692 2.46345L24.7569 2.46345C24.7648 3.60638 24.7902 4.87541 24.7902 6.21684 24.7912 9.1618 24.6634 12.4507 23.9644 15.4322Z" stroke="#FF0000" stroke-width="0.0508137" fill="#FF0000" transform="matrix(1 0 0 1.03846 192 354)"/><path d="M16.8171 9.56404C16.959 7.98327 16.966 6.47014 16.9515 5.03912L10.6868 5.03912C10.7013 6.47014 10.6938 7.98327 10.552 9.56404L16.8171 9.56404Z" stroke="#FF0000" stroke-width="0.0508137" fill="#FF0000" transform="matrix(1 0 0 1.03846 192 354)"/></g></g></g><text font-family="Calibri,Calibri_MSFontService,sans-serif" font-weight="400" font-size="11" transform="translate(209.765 366)">2</text><g clip-path="url(#clip28)"><g clip-path="url(#clip29)"><g clip-path="url(#clip30)"><path d="M193.13 465.916 204.327 465.916 204.327 466.856 193.13 466.856Z" stroke="#FF0000" stroke-width="0.0508138" fill="#FF0000"/><path d="M192.164 469.634 203.362 469.634 203.362 470.575 192.164 470.575Z" stroke="#FF0000" stroke-width="0.0508138" fill="#FF0000"/><path d="M208.964 455.859 208.964 455.254 190.014 455.254 190.014 455.859C190.014 457.108 190.048 458.415 190.048 459.771 190.048 461.749 189.976 463.833 189.623 466.003 189.288 468.066 188.7 470.207 187.68 472.415L185.856 472.415C185.534 472.415 185.209 472.466 184.895 472.575 184.424 472.739 183.979 473.037 183.642 473.475 183.304 473.912 183.081 474.481 183.015 475.152 183.005 475.249 183 475.345 183 475.441 183 475.927 183.125 476.385 183.335 476.787 183.652 477.391 184.152 477.871 184.733 478.206 185.315 478.541 185.982 478.734 186.662 478.738L201.068 478.746C201.616 478.748 202.092 478.636 202.496 478.452 202.902 478.269 203.232 478.025 203.539 477.781 204.794 476.781 205.764 475.543 206.508 474.168 207.625 472.103 208.241 469.731 208.586 467.319 208.93 464.907 209 462.452 209 460.217 209 458.616 208.964 457.128 208.964 455.859ZM186.669 477.529 186.669 477.529C186.369 477.527 186.057 477.468 185.763 477.358 185.32 477.194 184.919 476.915 184.643 476.579 184.504 476.411 184.396 476.229 184.322 476.04 184.249 475.85 184.21 475.652 184.21 475.441 184.21 475.386 184.212 475.329 184.218 475.272 184.25 474.953 184.327 474.697 184.429 474.49 184.582 474.181 184.79 473.975 185.035 473.834 185.28 473.695 185.567 473.631 185.856 473.631L198.82 473.631C198.68 473.793 198.555 473.977 198.455 474.185 198.307 474.491 198.208 474.846 198.168 475.245 198.16 475.336 198.155 475.425 198.155 475.514 198.155 475.936 198.256 476.336 198.432 476.691 198.59 477.011 198.807 477.294 199.065 477.536L186.669 477.529ZM206.964 469.432C206.615 470.923 206.125 472.336 205.444 473.592 204.764 474.849 203.896 475.949 202.785 476.835 202.505 477.059 202.259 477.232 201.999 477.349 201.739 477.465 201.461 477.535 201.068 477.537L200.664 477.536C200.298 477.433 199.959 477.249 199.683 477.009 199.46 476.815 199.279 476.586 199.155 476.334 199.031 476.082 198.962 475.808 198.962 475.514 198.962 475.452 198.964 475.389 198.971 475.326 199.003 475.009 199.078 474.749 199.181 474.535 199.336 474.216 199.549 473.998 199.796 473.852 200.042 473.707 200.326 473.636 200.608 473.637 200.894 473.636 201.177 473.71 201.411 473.841 201.646 473.973 201.83 474.159 201.941 474.39 202 474.512 202.036 474.675 202.036 474.839 202.036 474.974 202.012 475.108 201.968 475.22 201.925 475.333 201.863 475.421 201.791 475.483 201.656 475.596 201.518 475.639 201.378 475.64 201.257 475.64 201.136 475.604 201.035 475.538 200.933 475.473 200.854 475.382 200.808 475.274L200.067 475.592C200.18 475.856 200.37 476.07 200.6 476.217 200.828 476.364 201.098 476.446 201.378 476.446 201.699 476.448 202.036 476.334 202.314 476.096 202.504 475.934 202.636 475.729 202.72 475.512 202.804 475.296 202.842 475.066 202.842 474.839 202.842 474.564 202.786 474.289 202.668 474.041 202.478 473.645 202.166 473.34 201.805 473.138 201.451 472.94 201.047 472.836 200.637 472.831L200.637 472.825 188.825 472.825C189.867 470.541 190.472 468.32 190.817 466.197 191.185 463.932 191.258 461.778 191.258 459.771 191.258 458.617 191.234 457.514 191.227 456.463L207.757 456.463C207.765 457.606 207.79 458.875 207.79 460.217 207.791 463.162 207.663 466.451 206.964 469.432Z" stroke="#FF0000" stroke-width="0.0508138" fill="#FF0000"/><path d="M199.817 463.564C199.959 461.983 199.966 460.47 199.951 459.039L193.687 459.039C193.701 460.47 193.694 461.983 193.552 463.564L199.817 463.564Z" stroke="#FF0000" stroke-width="0.0508138" fill="#FF0000"/></g></g></g><text font-family="Calibri,Calibri_MSFontService,sans-serif" font-weight="400" font-size="11" transform="translate(200.561 465)">1</text><path d="M341.5 173.5 357 158 357 165.75 376.287 165.75 376.287 142.5 644.5 142.5 644.5 204.5 376.287 204.5 376.287 181.25 357 181.25 357 189Z" stroke="#FFC000" stroke-width="0.666667" stroke-miterlimit="8" fill="url(#fill31)" fill-rule="evenodd"/><text font-family="Yu Gothic,Yu Gothic_MSFontService,sans-serif" font-weight="400" font-size="13" transform="translate(384.927 161)">“商品”のインスタンスを削除する場合、<tspan font-size="13" x="0" y="16">削除対象のインスタンスにリンクされた</tspan><tspan font-size="13" x="0" y="32">“注文”のインスタンスも削除する</tspan></text><rect x="366" y="223" width="281" height="42" fill="#F2F2F2"/><text font-family="Yu Gothic,Yu Gothic_MSFontService,sans-serif" font-weight="400" font-size="13" transform="translate(375.782 239)">ビジネス観点：<tspan font-size="13" x="0" y="16">販売中止の商品に対する注文はキャンセル</tspan></text><path d="M506.5 208.5 518.5 196.5 530.5 208.5 524.5 208.5 524.5 227.5 530.5 227.5 518.5 239.5 506.5 227.5 512.5 227.5 512.5 208.5Z" stroke="#BC8C00" stroke-width="1.33333" stroke-miterlimit="8" fill="#FFC000" fill-rule="evenodd"/><path d="M296.74 398.632 303.474 392.062 310.5 399.264 317.526 392.062 324.26 398.632 317.072 406 324.26 413.368 317.526 419.938 310.5 412.736 303.474 419.938 296.74 413.368 303.928 406Z" stroke="#000000" stroke-width="1.33333" stroke-miterlimit="8" stroke-opacity="0.501961" fill="#FF0000" fill-rule="evenodd" fill-opacity="0.501961"/><path d="M177.062 367.474 183.632 360.74 191 367.928 198.368 360.74 204.938 367.474 197.736 374.5 204.938 381.526 198.368 388.26 191 381.072 183.632 388.26 177.062 381.526 184.264 374.5Z" stroke="#000000" stroke-width="1.33333" stroke-miterlimit="8" stroke-opacity="0.501961" fill="#FF0000" fill-rule="evenodd" fill-opacity="0.501961"/><path d="M188.74 419.632 195.474 413.062 202.5 420.264 209.526 413.062 216.26 419.632 209.072 427 216.26 434.368 209.526 440.938 202.5 433.736 195.474 440.938 188.74 434.368 195.928 427Z" stroke="#000000" stroke-width="1.33333" stroke-miterlimit="8" stroke-opacity="0.501961" fill="#FF0000" fill-rule="evenodd" fill-opacity="0.501961"/><path d="M168.938 473.757 175.757 466.938 183 474.181 190.243 466.938 197.062 473.757 189.819 481 197.062 488.243 190.243 495.062 183 487.819 175.757 495.062 168.938 488.243 176.181 481Z" stroke="#000000" stroke-width="1.33333" stroke-miterlimit="8" stroke-opacity="0.501961" fill="#FF0000" fill-rule="evenodd" fill-opacity="0.501961"/></g></svg>