<svg width="607" height="382" xmlns="http://www.w3.org/2000/svg" xmlns:xlink="http://www.w3.org/1999/xlink" overflow="hidden"><defs><clipPath id="clip0"><rect x="60" y="12" width="607" height="382"/></clipPath><clipPath id="clip1"><rect x="142" y="258" width="30" height="30"/></clipPath><clipPath id="clip2"><rect x="142" y="258" width="30" height="30"/></clipPath><clipPath id="clip3"><rect x="142" y="258" width="30" height="30"/></clipPath><clipPath id="clip4"><rect x="142" y="208" width="30" height="30"/></clipPath><clipPath id="clip5"><rect x="142" y="208" width="30" height="30"/></clipPath><clipPath id="clip6"><rect x="142" y="208" width="30" height="30"/></clipPath><clipPath id="clip7"><rect x="142" y="107" width="30" height="31"/></clipPath><clipPath id="clip8"><rect x="142" y="107" width="30" height="31"/></clipPath><clipPath id="clip9"><rect x="142" y="107" width="30" height="31"/></clipPath><clipPath id="clip10"><rect x="142" y="158" width="30" height="30"/></clipPath><clipPath id="clip11"><rect x="142" y="158" width="30" height="30"/></clipPath><clipPath id="clip12"><rect x="142" y="158" width="30" height="30"/></clipPath></defs><g clip-path="url(#clip0)" transform="translate(-60 -12)"><rect x="294" y="68" width="335" height="257" fill="#F2F2F2"/><text font-family="Yu Gothic,Yu Gothic_MSFontService,sans-serif" font-weight="400" font-size="16" transform="translate(405.777 88)">インスタンス表</text><rect x="91" y="68" width="175" height="257" fill="#F2F2F2"/><text font-family="Yu Gothic,Yu Gothic_MSFontService,sans-serif" font-weight="400" font-size="16" transform="translate(138.378 88)">現実の世界</text><rect x="61.5001" y="14.5001" width="605" height="378" stroke="#D9D9D9" stroke-width="1.33333" stroke-miterlimit="8" fill="none"/><text font-family="Yu Gothic,Yu Gothic_MSFontService,sans-serif" font-weight="400" font-size="16" transform="translate(88.1546 42)">インスタンスの生成</text><g clip-path="url(#clip1)"><g clip-path="url(#clip2)"><g clip-path="url(#clip3)"><path d="M154.195 281.405C154.195 281.405 154.761 280.485 155.441 279.379L146.422 273.829C145.742 274.934 145.175 275.855 145.175 275.855 145.175 275.855 146.804 279.394 144.595 282.983L146.343 284.06 148.092 285.136C150.3 281.546 154.195 281.405 154.195 281.405Z" fill="#4B4B4B"/><path d="M164.824 264.134C165.177 263.557 164.998 262.803 164.422 262.448L157.49 258.182C157.289 258.059 157.068 258 156.849 258 156.438 258 156.036 258.207 155.804 258.583L146.874 273.093 155.894 278.643 164.824 264.134ZM149.52 272.464 157.077 260.186 162.82 263.72 155.264 275.997 149.52 272.464Z" fill="#4B4B4B"/><path d="M143.32 286.631 146.347 286.631 147.126 285.365 144.825 283.95Z" fill="#4B4B4B"/><path d="M170.266 286.386 148.905 286.386C148.676 286.386 148.491 286.571 148.491 286.799L148.491 287.586C148.491 287.815 148.676 288 148.905 288L170.266 288C170.495 288 170.68 287.815 170.68 287.586L170.68 286.799C170.68 286.571 170.495 286.386 170.266 286.386Z" fill="#4B4B4B"/></g></g></g><g clip-path="url(#clip4)"><g clip-path="url(#clip5)"><g clip-path="url(#clip6)"><path d="M169.465 209.122C168.775 208.43 167.812 208 166.757 208L148.717 208C147.662 208 146.7 208.43 146.01 209.122 145.318 209.812 144.887 210.775 144.888 211.83L144.888 212.139 144.046 212.139C143.696 212.139 143.413 212.422 143.413 212.772 143.413 213.12 143.696 213.403 144.046 213.403L144.888 213.403 144.888 217.198 144.046 217.198C143.696 217.198 143.413 217.481 143.413 217.83 143.413 218.179 143.696 218.463 144.046 218.463L144.888 218.463 144.888 222.257 144.046 222.257C143.696 222.257 143.413 222.54 143.413 222.889 143.413 223.238 143.696 223.521 144.046 223.521L144.888 223.521 144.888 227.316 144.046 227.316C143.696 227.316 143.413 227.599 143.413 227.948 143.413 228.297 143.696 228.58 144.046 228.58L144.888 228.58 144.888 232.375 144.046 232.375C143.696 232.375 143.413 232.658 143.413 233.007 143.413 233.356 143.696 233.639 144.046 233.639L144.888 233.639 144.888 234.17C144.887 235.225 145.318 236.188 146.01 236.878 146.7 237.57 147.662 238 148.717 238L166.757 238C167.812 238 168.775 237.57 169.465 236.878 170.157 236.188 170.587 235.225 170.587 234.17L170.587 211.83C170.587 210.775 170.157 209.812 169.465 209.122ZM151.552 236.315 148.717 236.315C148.122 236.315 147.592 236.076 147.201 235.686 146.812 235.296 146.574 234.766 146.573 234.17L146.573 233.639 147.911 233.639C148.131 234.008 148.534 234.257 148.996 234.257 149.694 234.257 150.259 233.691 150.259 232.993 150.259 232.295 149.694 231.729 148.996 231.729 148.522 231.729 148.111 231.99 147.894 232.375L146.573 232.375 146.573 228.58 147.908 228.58C148.129 228.951 148.533 229.201 148.996 229.201 149.694 229.201 150.259 228.635 150.259 227.938 150.259 227.24 149.694 226.674 148.996 226.674 148.524 226.674 148.113 226.933 147.896 227.316L146.573 227.316 146.573 223.521 147.906 223.521C148.126 223.895 148.531 224.146 148.996 224.146 149.694 224.146 150.259 223.58 150.259 222.883 150.259 222.184 149.694 221.618 148.996 221.618 148.525 221.618 148.116 221.875 147.898 222.257L146.573 222.257 146.573 218.463 147.904 218.463C148.124 218.837 148.53 219.09 148.996 219.09 149.694 219.09 150.259 218.525 150.259 217.826 150.259 217.129 149.694 216.563 148.996 216.563 148.527 216.563 148.118 216.819 147.9 217.198L146.573 217.198 146.573 213.403 147.902 213.403C148.121 213.781 148.528 214.035 148.996 214.035 149.694 214.035 150.259 213.469 150.259 212.772 150.259 212.073 149.694 211.507 148.996 211.507 148.528 211.507 148.121 211.762 147.902 212.139L146.573 212.139 146.573 211.83C146.574 211.234 146.812 210.704 147.201 210.313 147.592 209.924 148.122 209.686 148.717 209.685L151.552 209.685 151.552 236.315ZM168.902 234.17C168.901 234.766 168.663 235.296 168.274 235.686 167.883 236.076 167.352 236.315 166.757 236.315L152.185 236.315 152.185 209.685 166.757 209.685C167.352 209.686 167.883 209.924 168.274 210.313 168.663 210.704 168.901 211.234 168.902 211.83L168.902 234.17Z" fill="#4B4B4B"/><path d="M154.765 214.627 165.952 214.627 165.952 215.259 154.765 215.259Z" fill="#4B4B4B"/><path d="M154.765 218.682 165.952 218.682 165.952 219.314 154.765 219.314Z" fill="#4B4B4B"/><path d="M154.765 222.738 165.952 222.738 165.952 223.37 154.765 223.37Z" fill="#4B4B4B"/><path d="M154.765 226.793 165.952 226.793 165.952 227.425 154.765 227.425Z" fill="#4B4B4B"/><path d="M154.765 230.848 165.952 230.848 165.952 231.48 154.765 231.48Z" fill="#4B4B4B"/></g></g></g><g clip-path="url(#clip7)"><g clip-path="url(#clip8)"><g clip-path="url(#clip9)"><path d="M19.9668 0 2.7017 17.265 0 30 12.7322 27.2983 30 10.0305 19.9668 0ZM19.9668 3.06703 23.0447 6.14502 8.45309 20.7349 5.37598 17.6578 19.9668 3.06703ZM6.44807 26.3892 3.6099 23.551 4.69939 18.6016 11.3965 25.2997 6.44807 26.3892ZM12.3404 24.6222 9.2642 21.546 23.854 6.95438 26.932 10.0305 12.3404 24.6222Z" fill="#4B4B4B" transform="matrix(1 0 0 1.03333 142 107)"/></g></g></g><g clip-path="url(#clip10)"><g clip-path="url(#clip11)"><g clip-path="url(#clip12)"><path d="M147.996 162.247C147.67 162.246 147.384 162.118 147.169 161.905 146.956 161.69 146.827 161.403 146.826 161.077 146.827 160.751 146.956 160.465 147.169 160.25 147.383 160.037 147.67 159.909 147.996 159.908L168.127 159.908 168.127 158 147.996 158C146.296 158.001 144.919 159.378 144.919 161.077L144.919 184.922C144.919 186.622 146.296 187.999 147.996 188L169.081 188 169.081 162.247 147.996 162.247ZM167.174 186.092 148.702 186.092 148.702 164.155 167.174 164.155 167.174 186.092Z" fill="#4B4B4B"/><path d="M164.432 182.754 164.432 166.778 151.555 166.778 151.555 183.469 164.432 183.469 164.432 182.754ZM163.001 182.039 152.986 182.039 152.986 168.209 163.001 168.209 163.001 182.039Z" fill="#4B4B4B"/><path d="M155.132 178.104 160.855 178.104 160.855 179.177 155.132 179.177Z" fill="#4B4B4B"/></g></g></g><text font-family="Yu Gothic,Yu Gothic_MSFontService,sans-serif" font-weight="400" font-size="16" transform="translate(97.5034 362)">マーカーを商品に追加</text><path d="M128.5 259.667C128.5 255.156 132.156 251.5 136.667 251.5L178.333 251.5C182.844 251.5 186.5 255.156 186.5 259.667L186.5 292.333C186.5 296.844 182.844 300.5 178.333 300.5L136.667 300.5C132.156 300.5 128.5 296.844 128.5 292.333Z" stroke="#FF0000" stroke-width="1.33333" stroke-miterlimit="8" fill="none" fill-rule="evenodd"/><rect x="324.5" y="122.5" width="56" height="29" stroke="#000000" stroke-width="0.666667" stroke-miterlimit="8" fill="#FFFFFF"/><text font-family="Yu Gothic,Yu Gothic_MSFontService,sans-serif" font-weight="400" font-size="11" transform="translate(341.051 134)">商品<tspan font-size="11" x="-5.33334" y="13">コード</tspan></text><rect x="380.5" y="122.5" width="100" height="29" stroke="#000000" stroke-width="0.666667" stroke-miterlimit="8" fill="#FFFFFF"/><text font-family="Yu Gothic,Yu Gothic_MSFontService,sans-serif" font-weight="400" font-size="12" transform="translate(411.664 140)">商品名</text><rect x="480.5" y="122.5" width="56" height="29" stroke="#000000" stroke-width="0.666667" stroke-miterlimit="8" fill="#FFFFFF"/><text font-family="Yu Gothic,Yu Gothic_MSFontService,sans-serif" font-weight="400" font-size="12" transform="translate(495.611 140)">在庫</text><rect x="324.5" y="151.5" width="56" height="29" stroke="#000000" stroke-width="0.666667" stroke-miterlimit="8" fill="#FFFFFF"/><text font-family="Calibri,Calibri_MSFontService,sans-serif" font-weight="400" font-size="11" transform="translate(340.967 169)">P031</text><rect x="380.5" y="151.5" width="100" height="29" stroke="#000000" stroke-width="0.666667" stroke-miterlimit="8" fill="#FFFFFF"/><text font-family="Yu Gothic,Yu Gothic_MSFontService,sans-serif" font-weight="400" font-size="11" transform="translate(389.353 169)">ペンシル</text><rect x="480.5" y="151.5" width="56" height="29" stroke="#000000" stroke-width="0.666667" stroke-miterlimit="8" fill="#FFFFFF"/><text font-family="Calibri,Calibri_MSFontService,sans-serif" font-weight="400" font-size="11" transform="translate(504.675 169)">1000</text><rect x="324.5" y="180.5" width="56" height="29" stroke="#000000" stroke-width="0.666667" stroke-miterlimit="8" fill="#FFFFFF"/><text font-family="Calibri,Calibri_MSFontService,sans-serif" font-weight="400" font-size="11" transform="translate(340.3 198)">N008</text><rect x="380.5" y="180.5" width="100" height="29" stroke="#000000" stroke-width="0.666667" stroke-miterlimit="8" fill="#FFFFFF"/><text font-family="Yu Gothic,Yu Gothic_MSFontService,sans-serif" font-weight="400" font-size="11" transform="translate(389.353 198)">手帳</text><rect x="480.5" y="180.5" width="56" height="29" stroke="#000000" stroke-width="0.666667" stroke-miterlimit="8" fill="#FFFFFF"/><text font-family="Calibri,Calibri_MSFontService,sans-serif" font-weight="400" font-size="11" transform="translate(510.009 198)">752</text><rect x="324.5" y="209.5" width="56" height="29" stroke="#000000" stroke-width="0.666667" stroke-miterlimit="8" fill="#FFFFFF"/><text font-family="Calibri,Calibri_MSFontService,sans-serif" font-weight="400" font-size="11" transform="translate(341.467 227)">L012</text><rect x="380.5" y="209.5" width="100" height="29" stroke="#000000" stroke-width="0.666667" stroke-miterlimit="8" fill="#FFFFFF"/><text font-family="Yu Gothic,Yu Gothic_MSFontService,sans-serif" font-weight="400" font-size="11" transform="translate(389.353 227)">ルーズリーフ</text><rect x="480.5" y="209.5" width="56" height="29" stroke="#000000" stroke-width="0.666667" stroke-miterlimit="8" fill="#FFFFFF"/><text font-family="Calibri,Calibri_MSFontService,sans-serif" font-weight="400" font-size="11" transform="translate(510.009 227)">108</text><rect x="536.5" y="122.5" width="56" height="29" stroke="#000000" stroke-width="0.666667" stroke-miterlimit="8" fill="#FFFFFF"/><text font-family="Yu Gothic,Yu Gothic_MSFontService,sans-serif" font-weight="400" font-size="12" transform="translate(551.681 140)">単価</text><rect x="536.5" y="151.5" width="56" height="29" stroke="#000000" stroke-width="0.666667" stroke-miterlimit="8" fill="#FFFFFF"/><text font-family="Calibri,Calibri_MSFontService,sans-serif" font-weight="400" font-size="11" transform="translate(566.079 169)">700</text><rect x="536.5" y="180.5" width="56" height="29" stroke="#000000" stroke-width="0.666667" stroke-miterlimit="8" fill="#FFFFFF"/><text font-family="Calibri,Calibri_MSFontService,sans-serif" font-weight="400" font-size="11" transform="translate(560.746 198)">3500</text><rect x="536.5" y="209.5" width="56" height="29" stroke="#000000" stroke-width="0.666667" stroke-miterlimit="8" fill="#FFFFFF"/><text font-family="Calibri,Calibri_MSFontService,sans-serif" font-weight="400" font-size="11" transform="translate(560.746 227)">1400</text><rect x="324.5" y="238.5" width="56" height="29" stroke="#000000" stroke-width="0.666667" stroke-miterlimit="8" fill="#FFFFFF"/><text font-family="Calibri,Calibri_MSFontService,sans-serif" font-weight="400" font-size="11" transform="translate(339.134 256)">M076</text><rect x="380.5" y="238.5" width="100" height="29" stroke="#000000" stroke-width="0.666667" stroke-miterlimit="8" fill="#FFFFFF"/><text font-family="Yu Gothic,Yu Gothic_MSFontService,sans-serif" font-weight="400" font-size="11" transform="translate(389.353 256)">マーカー</text><rect x="480.5" y="238.5" width="56" height="29" stroke="#000000" stroke-width="0.666667" stroke-miterlimit="8" fill="#FFFFFF"/><text font-family="Calibri,Calibri_MSFontService,sans-serif" font-weight="400" font-size="11" transform="translate(504.675 256)">2000</text><rect x="536.5" y="238.5" width="56" height="29" stroke="#000000" stroke-width="0.666667" stroke-miterlimit="8" fill="#FFFFFF"/><text font-family="Calibri,Calibri_MSFontService,sans-serif" font-weight="400" font-size="11" transform="translate(566.079 256)">500</text><path d="M276 224.5 276 212.25 235.5 212.25 235.5 187.75 276 187.75 276 175.5 300.5 200Z" stroke="#AE5A21" stroke-width="1.33333" stroke-miterlimit="8" stroke-opacity="0.501961" fill="#ED7D31" fill-rule="evenodd" fill-opacity="0.501961"/><path d="M316.5 241C316.5 236.858 319.858 233.5 324 233.5L595 233.5C599.142 233.5 602.5 236.858 602.5 241L602.5 271C602.5 275.142 599.142 278.5 595 278.5L324 278.5C319.858 278.5 316.5 275.142 316.5 271Z" stroke="#FF0000" stroke-width="1.33333" stroke-miterlimit="8" fill="none" fill-rule="evenodd"/><text font-family="Yu Gothic,Yu Gothic_MSFontService,sans-serif" font-weight="400" font-size="16" transform="translate(304.706 361)">インスタンス表に行を追加し特徴値をセット</text></g></svg>