<svg width="609" height="481" xmlns="http://www.w3.org/2000/svg" xmlns:xlink="http://www.w3.org/1999/xlink" overflow="hidden"><defs><clipPath id="clip0"><rect x="60" y="12" width="609" height="481"/></clipPath><linearGradient x1="440" y1="129.5" x2="440" y2="157.5" gradientUnits="userSpaceOnUse" spreadMethod="reflect" id="fill1"><stop offset="0" stop-color="#FFDD9C"/><stop offset="0.5" stop-color="#FFD78E"/><stop offset="1" stop-color="#FFD479"/></linearGradient></defs><g clip-path="url(#clip0)" transform="translate(-60 -12)"><rect x="286" y="46" width="335" height="147" fill="#F2F2F2"/><text font-family="Yu Gothic,Yu Gothic_MSFontService,sans-serif" font-weight="400" font-size="16" transform="translate(413.464 66)">現実の世界</text><rect x="61.5001" y="14.5001" width="605" height="478" stroke="#D9D9D9" stroke-width="1.33333" stroke-miterlimit="8" fill="none"/><rect x="90.5001" y="134.5" width="152" height="131" stroke="#000000" stroke-width="1.33333" stroke-miterlimit="8" fill="#FFFFFF"/><text font-family="Yu Gothic,Yu Gothic_MSFontService,sans-serif" font-weight="400" font-size="13" transform="translate(152.933 151)">装置<tspan font-family="Consolas,Consolas_MSFontService,sans-serif" font-size="12" x="-53" y="15">*</tspan><tspan font-size="12" x="-46.3333" y="15">装置</tspan><tspan font-family="Consolas,Consolas_MSFontService,sans-serif" font-size="12" x="-22.3333" y="15">ID</tspan><tspan font-size="12" x="-41" y="29">消費電力</tspan><tspan font-family="Consolas,Consolas_MSFontService,sans-serif" font-size="12" x="7" y="29">(M)</tspan><tspan font-size="12" x="-41" y="44">稼働状態</tspan><tspan font-size="12" x="-41" y="58">温度</tspan><tspan font-size="12" x="-41" y="73">危険上限温度</tspan><tspan font-weight="700" font-size="12" x="-41" y="87">後工程装置</tspan><tspan font-family="Consolas,Consolas_MSFontService,sans-serif" font-weight="700" font-size="12" x="19" y="87">ID(R_EO1)</tspan></text><path d="M185.12 265.5 185.12 301.669 124.5 301.669 124.5 266.833" stroke="#000000" stroke-width="0.666667" stroke-miterlimit="8" fill="none" fill-rule="evenodd"/><text font-family="Calibri,Calibri_MSFontService,sans-serif" font-weight="400" font-size="11" transform="translate(129.35 278)">0..1<tspan font-size="11" x="36.0763" y="-2">0..1</tspan><tspan font-family="Yu Gothic,Yu Gothic_MSFontService,sans-serif" font-size="11" x="-53.0805" y="4">前</tspan><tspan font-family="Yu Gothic,Yu Gothic_MSFontService,sans-serif" font-size="11" x="-42.4139" y="4">の工程</tspan><tspan font-family="Yu Gothic,Yu Gothic_MSFontService,sans-serif" font-size="11" x="59.468" y="4">後の工程</tspan><tspan font-size="11" x="11.6927" y="34">R_EO1</tspan></text><path d="M324.5 157.5 331.5 129.5 555.5 129.5 548.5 157.5Z" stroke="#FFC000" stroke-width="0.666667" stroke-miterlimit="8" fill="url(#fill1)" fill-rule="evenodd"/><rect x="357.5" y="103.5" width="28" height="28" stroke="#2F528F" stroke-width="3" stroke-miterlimit="8" fill="#FFFFFF"/><path d="M362.5 117C362.5 112.306 366.306 108.5 371 108.5 375.694 108.5 379.5 112.306 379.5 117 379.5 121.694 375.694 125.5 371 125.5 366.306 125.5 362.5 121.694 362.5 117Z" stroke="#AE5A21" stroke-width="1.33333" stroke-miterlimit="8" fill="#FFFFFF" fill-rule="evenodd"/><path d="M356.5 99.5001 357.75 94.5001 383.25 94.5001 384.5 99.5001Z" stroke="#2F528F" stroke-width="3" stroke-miterlimit="8" fill="#FFFFFF" fill-rule="evenodd"/><path d="M0 4 0.999996 0 27 0 28 4Z" stroke="#2F528F" stroke-width="3" stroke-miterlimit="8" fill="#FFFFFF" fill-rule="evenodd" transform="matrix(1 0 0 -1 356.5 139.5)"/><rect x="359.5" y="86.5001" width="23" height="5" stroke="#2F528F" stroke-width="3" stroke-miterlimit="8" fill="#FFFFFF"/><path d="M365.604 120.787 371.982 112.715 371.041 111.971 374.412 111.576 374.807 114.947 373.866 114.203 367.488 122.275Z" stroke="#AE5A21" stroke-width="1.33333" stroke-miterlimit="8" fill="#ED7D31" fill-rule="evenodd"/><rect x="428.5" y="103.5" width="28" height="28" stroke="#2F528F" stroke-width="3" stroke-miterlimit="8" fill="#FFFFFF"/><path d="M434.5 117C434.5 112.306 438.306 108.5 443 108.5 447.694 108.5 451.5 112.306 451.5 117 451.5 121.694 447.694 125.5 443 125.5 438.306 125.5 434.5 121.694 434.5 117Z" stroke="#AE5A21" stroke-width="1.33333" stroke-miterlimit="8" fill="#FFFFFF" fill-rule="evenodd"/><path d="M428.5 99.5001 429.75 94.5001 455.25 94.5001 456.5 99.5001Z" stroke="#2F528F" stroke-width="3" stroke-miterlimit="8" fill="#FFFFFF" fill-rule="evenodd"/><path d="M0 4 0.999996 0 27 0 28 4Z" stroke="#2F528F" stroke-width="3" stroke-miterlimit="8" fill="#FFFFFF" fill-rule="evenodd" transform="matrix(1 0 0 -1 428.5 139.5)"/><rect x="431.5" y="86.5001" width="22" height="5" stroke="#2F528F" stroke-width="3" stroke-miterlimit="8" fill="#FFFFFF"/><path d="M446.39 121.508 438.44 114.977 437.678 115.904 437.347 112.526 440.725 112.195 439.963 113.123 447.913 119.653Z" stroke="#AE5A21" stroke-width="1.33333" stroke-miterlimit="8" fill="#ED7D31" fill-rule="evenodd"/><rect x="500.5" y="102.5" width="28" height="28" stroke="#2F528F" stroke-width="3" stroke-miterlimit="8" fill="#FFFFFF"/><path d="M506.5 116C506.5 111.306 510.082 107.5 514.5 107.5 518.918 107.5 522.5 111.306 522.5 116 522.5 120.694 518.918 124.5 514.5 124.5 510.082 124.5 506.5 120.694 506.5 116Z" stroke="#AE5A21" stroke-width="1.33333" stroke-miterlimit="8" fill="#FFFFFF" fill-rule="evenodd"/><path d="M500.5 98.5001 501.75 93.5001 527.25 93.5001 528.5 98.5001Z" stroke="#2F528F" stroke-width="3" stroke-miterlimit="8" fill="#FFFFFF" fill-rule="evenodd"/><path d="M0 5 1.24999 0 26.75 0 28 5Z" stroke="#2F528F" stroke-width="3" stroke-miterlimit="8" fill="#FFFFFF" fill-rule="evenodd" transform="matrix(1 0 0 -1 500.5 139.5)"/><rect x="503.5" y="85.5001" width="22" height="5" stroke="#2F528F" stroke-width="3" stroke-miterlimit="8" fill="#FFFFFF"/><path d="M510.422 121.259 514.467 111.799 513.364 111.328 516.514 110.065 517.777 113.215 516.674 112.743 512.629 122.203Z" stroke="#AE5A21" stroke-width="1.33333" stroke-miterlimit="8" fill="#ED7D31" fill-rule="evenodd"/><path d="M385 114 391 114 391 120 385 120ZM397 114 403 114 403 120 397 120ZM409 114 413.787 114 413.787 120 409 120ZM410.787 108 428.787 117 410.787 126Z" fill="#4472C4"/><path d="M0.0449225-2.99966 6.04425-2.90982 5.9544 3.08951-0.0449225 2.99966ZM12.0436-2.81997 18.0429-2.73013 17.9531 3.2692 11.9537 3.17935ZM24.0422-2.64028 28.8337-2.56853 28.7438 3.4308 23.9524 3.35904ZM25.9239-8.61278 43.7871 0.655748 25.6543 9.3852Z" fill="#4472C4" transform="matrix(1 0 0 -1 456 116.656)"/><rect x="191" y="154" width="17" height="17" stroke="#2F528F" stroke-width="2" stroke-miterlimit="8" fill="#FFFFFF"/><path d="M194 162C194 159.239 196.462 157 199.5 157 202.538 157 205 159.239 205 162 205 164.761 202.538 167 199.5 167 196.462 167 194 164.761 194 162Z" stroke="#AE5A21" stroke-width="2" stroke-miterlimit="8" fill="#FFFFFF" fill-rule="evenodd"/><path d="M191 152 191.75 149 207.25 149 208 152Z" stroke="#2F528F" stroke-width="2" stroke-miterlimit="8" fill="#FFFFFF" fill-rule="evenodd"/><path d="M0 3 0.749997 0 16.25 0 17 3Z" stroke="#2F528F" stroke-width="2" stroke-miterlimit="8" fill="#FFFFFF" fill-rule="evenodd" transform="matrix(1 0 0 -1 191 176)"/><rect x="193" y="144" width="13" height="3" stroke="#2F528F" stroke-width="2" stroke-miterlimit="8" fill="#FFFFFF"/><path d="M196.123 164.418 200.664 160.149 200.166 159.62 202.222 159.683 202.158 161.739 201.66 161.209 197.118 165.478Z" stroke="#AE5A21" stroke-width="2" stroke-miterlimit="8" fill="#ED7D31" fill-rule="evenodd"/><text font-family="Calibri,Calibri_MSFontService,sans-serif" font-weight="400" font-size="11" transform="translate(342.112 152)">ETP003:<tspan font-family="Yu Gothic,Yu Gothic_MSFontService,sans-serif" font-size="11" x="34.6667" y="0">装置</tspan></text><path d="M342.112 152.656 356.112 152.656 370.112 152.656 384.112 152.656 398.112 152.656 398.112 153.656 384.112 153.656 370.112 153.656 356.112 153.656 342.112 153.656Z" fill-rule="evenodd"/><text font-family="Calibri,Calibri_MSFontService,sans-serif" font-weight="400" font-size="11" transform="translate(414.293 152)">ETP007:<tspan font-family="Yu Gothic,Yu Gothic_MSFontService,sans-serif" font-size="11" x="34.6667" y="0">装置</tspan></text><path d="M414.293 152.512 428.293 152.512 442.293 152.512 456.293 152.512 470.293 152.512 470.293 153.512 456.293 153.512 442.293 153.512 428.293 153.512 414.293 153.512Z" fill-rule="evenodd"/><text font-family="Calibri,Calibri_MSFontService,sans-serif" font-weight="400" font-size="11" transform="translate(485.652 152)">ETP009:<tspan font-family="Yu Gothic,Yu Gothic_MSFontService,sans-serif" font-size="11" x="34.6667" y="0">装置</tspan></text><path d="M485.652 153.224 499.652 153.224 513.652 153.224 527.652 153.224 541.652 153.224 541.652 154.224 527.652 154.224 513.652 154.224 499.652 154.224 485.652 154.224Z" fill-rule="evenodd"/><rect x="286" y="233" width="335" height="177" fill="#F2F2F2"/><text font-family="Yu Gothic,Yu Gothic_MSFontService,sans-serif" font-weight="400" font-size="16" transform="translate(397.404 253)">インスタンス表</text><rect x="328.5" y="271.5" width="56" height="29" stroke="#000000" stroke-width="0.666667" stroke-miterlimit="8" fill="#FFFFFF"/><text font-family="Yu Gothic,Yu Gothic_MSFontService,sans-serif" font-weight="400" font-size="12" transform="translate(339.037 289)">装置<tspan font-family="Calibri,Calibri_MSFontService,sans-serif" font-size="12" x="24" y="0">ID</tspan></text><rect x="384.5" y="271.5" width="100" height="29" stroke="#000000" stroke-width="0.666667" stroke-miterlimit="8" fill="#FFFFFF"/><text font-family="Yu Gothic,Yu Gothic_MSFontService,sans-serif" font-weight="400" font-size="12" transform="translate(416.15 289)">・・・</text><rect x="484.5" y="271.5" width="93" height="29" stroke="#000000" stroke-width="0.666667" stroke-miterlimit="8" fill="#FFFFFF"/><text font-family="Yu Gothic,Yu Gothic_MSFontService,sans-serif" font-weight="400" font-size="12" transform="translate(495.365 289)">後工程装置<tspan font-family="Calibri,Calibri_MSFontService,sans-serif" font-size="12" x="60" y="0">ID</tspan></text><rect x="328.5" y="300.5" width="56" height="29" stroke="#000000" stroke-width="0.666667" stroke-miterlimit="8" fill="#FFFFFF"/><text font-family="Calibri,Calibri_MSFontService,sans-serif" font-weight="400" font-size="12" transform="translate(338.287 319)">ETP003</text><rect x="384.5" y="300.5" width="100" height="29" stroke="#000000" stroke-width="0.666667" stroke-miterlimit="8" fill="#FFFFFF"/><text font-family="Yu Gothic,Yu Gothic_MSFontService,sans-serif" font-weight="400" font-size="12" transform="translate(393.839 319)">・・・</text><rect x="484.5" y="300.5" width="93" height="29" stroke="#000000" stroke-width="0.666667" stroke-miterlimit="8" fill="#FFFFFF"/><text font-family="Calibri,Calibri_MSFontService,sans-serif" font-weight="400" font-size="12" transform="translate(512.615 319)">ETP007</text><rect x="328.5" y="329.5" width="56" height="29" stroke="#000000" stroke-width="0.666667" stroke-miterlimit="8" fill="#FFFFFF"/><text font-family="Calibri,Calibri_MSFontService,sans-serif" font-weight="400" font-size="12" transform="translate(338.287 348)">ETP007</text><rect x="384.5" y="329.5" width="100" height="29" stroke="#000000" stroke-width="0.666667" stroke-miterlimit="8" fill="#FFFFFF"/><text font-family="Yu Gothic,Yu Gothic_MSFontService,sans-serif" font-weight="400" font-size="12" transform="translate(393.839 348)">・・・</text><rect x="484.5" y="329.5" width="93" height="29" stroke="#000000" stroke-width="0.666667" stroke-miterlimit="8" fill="#FFFFFF"/><text font-family="Calibri,Calibri_MSFontService,sans-serif" font-weight="400" font-size="12" transform="translate(512.615 348)">ETP009</text><rect x="328.5" y="358.5" width="56" height="29" stroke="#000000" stroke-width="0.666667" stroke-miterlimit="8" fill="#FFFFFF"/><text font-family="Calibri,Calibri_MSFontService,sans-serif" font-weight="400" font-size="12" transform="translate(338.287 377)">ETP<tspan font-size="12" x="17.8333" y="0">009</tspan></text><rect x="384.5" y="358.5" width="100" height="29" stroke="#000000" stroke-width="0.666667" stroke-miterlimit="8" fill="#FFFFFF"/><text font-family="Yu Gothic,Yu Gothic_MSFontService,sans-serif" font-weight="400" font-size="12" transform="translate(393.839 377)">・・・</text><rect x="484.5" y="358.5" width="93" height="29" stroke="#000000" stroke-width="0.666667" stroke-miterlimit="8" fill="#FFFFFF"/><text font-family="Calibri,Calibri_MSFontService,sans-serif" font-weight="400" font-size="12" transform="translate(517.865 377)">NULL</text><path d="M372.5 104.5C372.5 101.186 375.186 98.5001 378.5 98.5001L434.5 98.5001C437.814 98.5001 440.5 101.186 440.5 104.5L440.5 128.5C440.5 131.814 437.814 134.5 434.5 134.5L378.5 134.5C375.186 134.5 372.5 131.814 372.5 128.5Z" stroke="#FF0000" stroke-width="1.33333" stroke-miterlimit="8" fill="none" fill-rule="evenodd"/><text font-family="Yu Gothic,Yu Gothic_MSFontService,sans-serif" font-weight="400" font-size="16" transform="translate(88.1546 42)">リンクを張る</text><path d="M67.5001 240.167C67.5001 230.962 74.9621 223.5 84.167 223.5L233.833 223.5C243.038 223.5 250.5 230.962 250.5 240.167L250.5 306.833C250.5 316.038 243.038 323.5 233.833 323.5L84.167 323.5C74.9621 323.5 67.5001 316.038 67.5001 306.833Z" stroke="#FF0000" stroke-width="1.33333" stroke-miterlimit="8" fill="none" fill-rule="evenodd"/><text font-family="Yu Gothic,Yu Gothic_MSFontService,sans-serif" font-weight="400" font-size="16" transform="translate(70.9043 364)">このクラスには複数の関係<tspan font-size="16" x="0" y="19">が張られているので、関係</tspan><tspan font-size="16" x="0" y="38">を示す特徴値がどれに相当</tspan><tspan font-size="16" x="0" y="57">するかを判りやすくする工</tspan><tspan font-size="16" x="0" y="77">夫を講じている</tspan></text><path d="M556.5 217.5 569 217.5 569 177.5 594 177.5 594 217.5 606.5 217.5 581.5 242.5Z" stroke="#AE5A21" stroke-width="1.33333" stroke-miterlimit="8" stroke-opacity="0.501961" fill="#ED7D31" fill-rule="evenodd" fill-opacity="0.501961"/><path d="M447.5 102.5C447.5 99.1864 450.186 96.5001 453.5 96.5001L508.5 96.5001C511.814 96.5001 514.5 99.1864 514.5 102.5L514.5 126.5C514.5 129.814 511.814 132.5 508.5 132.5L453.5 132.5C450.186 132.5 447.5 129.814 447.5 126.5Z" stroke="#FF0000" stroke-width="1.33333" stroke-miterlimit="8" fill="none" fill-rule="evenodd"/><rect x="508.5" y="306.5" width="48" height="17" stroke="#FF0000" stroke-width="1.33333" stroke-miterlimit="8" fill="none"/><path d="M0 0 181.248 0 181.248 101.74" stroke="#FF0000" stroke-width="0.666667" stroke-miterlimit="8" fill="none" fill-rule="evenodd" transform="matrix(1.83697e-16 1 1 -1.83697e-16 406.5 134.5)"/><rect x="508.5" y="335.5" width="48" height="17" stroke="#FF0000" stroke-width="1.33333" stroke-miterlimit="8" fill="none"/><path d="M0 0 212.092 0 212.092 27.0739" stroke="#FF0000" stroke-width="0.666667" stroke-miterlimit="8" fill="none" fill-rule="evenodd" transform="matrix(1.83697e-16 1 1 -1.83697e-16 481.5 132.5)"/><text font-family="Yu Gothic,Yu Gothic_MSFontService,sans-serif" font-weight="400" font-size="16" transform="translate(290.662 432)">関係を示す特徴値が<tspan font-family="Calibri,Calibri_MSFontService,sans-serif" font-size="16" x="144" y="0">NULL</tspan>の場合、リンクが張られ<tspan font-size="16" x="0" y="19">ていない事を意味し、値をセットすることにより、</tspan><tspan font-size="16" x="0" y="38">リンクが張られた状態を保持する</tspan></text></g></svg>