<svg width="608" height="554" xmlns="http://www.w3.org/2000/svg" xmlns:xlink="http://www.w3.org/1999/xlink" overflow="hidden"><defs><clipPath id="clip0"><rect x="56" y="93" width="608" height="554"/></clipPath><clipPath id="clip1"><rect x="255" y="570" width="27" height="26"/></clipPath><clipPath id="clip2"><rect x="255" y="570" width="27" height="26"/></clipPath><clipPath id="clip3"><rect x="255" y="570" width="27" height="26"/></clipPath><clipPath id="clip4"><rect x="255" y="443" width="27" height="27"/></clipPath><clipPath id="clip5"><rect x="255" y="443" width="27" height="27"/></clipPath><clipPath id="clip6"><rect x="255" y="443" width="27" height="27"/></clipPath><clipPath id="clip7"><rect x="106" y="570" width="27" height="26"/></clipPath><clipPath id="clip8"><rect x="106" y="570" width="27" height="26"/></clipPath><clipPath id="clip9"><rect x="106" y="570" width="27" height="26"/></clipPath><clipPath id="clip10"><rect x="107" y="507" width="26" height="26"/></clipPath><clipPath id="clip11"><rect x="107" y="507" width="26" height="26"/></clipPath><clipPath id="clip12"><rect x="107" y="507" width="26" height="26"/></clipPath><clipPath id="clip13"><rect x="106" y="443" width="27" height="27"/></clipPath><clipPath id="clip14"><rect x="106" y="443" width="27" height="27"/></clipPath><clipPath id="clip15"><rect x="106" y="443" width="27" height="27"/></clipPath><clipPath id="clip16"><rect x="256" y="507" width="26" height="26"/></clipPath><clipPath id="clip17"><rect x="256" y="507" width="26" height="26"/></clipPath><clipPath id="clip18"><rect x="256" y="507" width="26" height="26"/></clipPath><clipPath id="clip19"><rect x="173" y="508" width="26" height="26"/></clipPath><clipPath id="clip20"><rect x="173" y="508" width="26" height="26"/></clipPath><clipPath id="clip21"><rect x="173" y="508" width="26" height="26"/></clipPath><clipPath id="clip22"><rect x="197" y="438" width="26" height="26"/></clipPath><clipPath id="clip23"><rect x="197" y="438" width="26" height="26"/></clipPath><clipPath id="clip24"><rect x="197" y="438" width="26" height="26"/></clipPath><clipPath id="clip25"><rect x="163" y="459" width="27" height="26"/></clipPath><clipPath id="clip26"><rect x="163" y="459" width="27" height="26"/></clipPath><clipPath id="clip27"><rect x="163" y="459" width="27" height="26"/></clipPath><clipPath id="clip28"><rect x="154" y="559" width="26" height="26"/></clipPath><clipPath id="clip29"><rect x="154" y="559" width="26" height="26"/></clipPath><clipPath id="clip30"><rect x="154" y="559" width="26" height="26"/></clipPath></defs><g clip-path="url(#clip0)" transform="translate(-56 -93)"><rect x="76" y="397" width="223" height="217" fill="#F2F2F2"/><text font-family="Yu Gothic,Yu Gothic_MSFontService,sans-serif" font-weight="400" font-size="16" transform="translate(147.468 417)">現実の世界</text><rect x="341" y="397" width="306" height="217" fill="#F2F2F2"/><text font-family="Yu Gothic,Yu Gothic_MSFontService,sans-serif" font-weight="400" font-size="16" transform="translate(437.511 417)">インスタンス表</text><path d="M317.5 576.5 317.5 564 277.5 564 277.5 539 317.5 539 317.5 526.5 342.5 551.5Z" stroke="#AE5A21" stroke-width="1.33333" stroke-miterlimit="8" stroke-opacity="0.501961" fill="#ED7D31" fill-rule="evenodd" fill-opacity="0.501961"/><rect x="58.5001" y="94.5001" width="604" height="552" stroke="#D9D9D9" stroke-width="1.33333" stroke-miterlimit="8" fill="none"/><rect x="286.5" y="241.5" width="126" height="106" stroke="#FF0000" stroke-width="1.33333" stroke-miterlimit="8" fill="#FFFFFF"/><text font-family="Yu Gothic,Yu Gothic_MSFontService,sans-serif" font-weight="400" font-size="13" transform="translate(335.631 257)">注文<tspan font-family="Consolas,Consolas_MSFontService,sans-serif" font-size="13" x="-40.2467" y="16">*</tspan><tspan font-size="13" x="-32.9133" y="16">注文</tspan><tspan font-family="Consolas,Consolas_MSFontService,sans-serif" font-size="13" x="-6.24667" y="16">ID</tspan><tspan font-size="13" x="-26.9133" y="32">個数</tspan><tspan font-size="13" x="-26.9133" y="48">金額</tspan><tspan fill="#FF0000" font-size="13" x="-26.9133" y="64">顧客</tspan><tspan fill="#FF0000" font-family="Consolas,Consolas_MSFontService,sans-serif" font-size="13" x="-0.246674" y="64">ID(R)</tspan><tspan fill="#FF0000" font-size="13" x="-26.9133" y="80">商品コード</tspan><tspan fill="#FF0000" font-family="Consolas,Consolas_MSFontService,sans-serif" font-size="13" x="39.7533" y="80">(R)</tspan></text><rect x="449.5" y="147.5" width="126" height="87" stroke="#000000" stroke-width="1.33333" stroke-miterlimit="8" fill="#FFFFFF"/><text font-family="Yu Gothic,Yu Gothic_MSFontService,sans-serif" font-weight="400" font-size="13" transform="translate(498.889 164)">商品<tspan font-family="Consolas,Consolas_MSFontService,sans-serif" font-size="13" x="-40.2467" y="16">*</tspan><tspan font-size="13" x="-32.9133" y="16">商品コード</tspan><tspan font-size="13" x="-26.9133" y="32">商品名</tspan><tspan font-size="13" x="-26.9133" y="48">在庫</tspan><tspan font-size="13" x="-26.9133" y="64">単価</tspan></text><rect x="135.5" y="147.5" width="126" height="87" stroke="#000000" stroke-width="1.33333" stroke-miterlimit="8" fill="#FFFFFF"/><text font-family="Yu Gothic,Yu Gothic_MSFontService,sans-serif" font-weight="400" font-size="13" transform="translate(184.649 164)">顧客<tspan font-family="Consolas,Consolas_MSFontService,sans-serif" font-size="13" x="-40.2467" y="16">*</tspan><tspan font-size="13" x="-32.9133" y="16">顧客</tspan><tspan font-family="Consolas,Consolas_MSFontService,sans-serif" font-size="13" x="-6.24667" y="16">ID</tspan><tspan font-size="13" x="-26.9133" y="32">顧客名</tspan><tspan font-size="13" x="-26.9133" y="48">住所</tspan></text><path d="M261.5 191.5 449.294 191.5" stroke="#FF0000" stroke-width="0.666667" stroke-miterlimit="8" fill="none" fill-rule="evenodd"/><path d="M0 0 6.11895 48.02" stroke="#FF0000" stroke-width="2" stroke-miterlimit="8" stroke-dasharray="2 2" fill="none" fill-rule="evenodd" transform="matrix(1 0 0 -1 349 241.02)"/><text font-family="Yu Gothic,Yu Gothic_MSFontService,sans-serif" font-weight="400" font-size="11" transform="translate(272.634 183)">発注者<tspan font-family="Calibri,Calibri_MSFontService,sans-serif" font-size="11" x="-3.70016" y="21">*</tspan><tspan font-family="Calibri,Calibri_MSFontService,sans-serif" font-size="11" x="158.002" y="6">*</tspan><tspan font-size="11" x="125.323" y="21">購入予約</tspan><tspan font-size="16" x="-205.396" y="-69">関連クラス付きの</tspan><tspan font-size="16" x="-77.3963" y="-69">リンクを張る</tspan></text><g clip-path="url(#clip1)"><g clip-path="url(#clip2)"><g clip-path="url(#clip3)"><path d="M23.8032 0.972156C23.2048 0.372785 22.3704 0 21.4563 0L5.82171 0C4.90745 0 4.07337 0.372785 3.47506 0.972156 2.87534 1.57061 2.5025 2.40475 2.5027 3.31947L2.5027 3.58688 1.77277 3.58688C1.47022 3.58688 1.22495 3.83241 1.22495 4.13537 1.22495 4.43752 1.47027 4.683 1.77277 4.683L2.5027 4.683 2.5027 7.97149 1.77277 7.97149C1.47022 7.97149 1.22495 8.21696 1.22495 8.51952 1.22495 8.82167 1.47027 9.0676 1.77277 9.0676L2.5027 9.0676 2.5027 12.356 1.77277 12.356C1.47022 12.356 1.22495 12.6016 1.22495 12.9037 1.22495 13.2063 1.47027 13.4513 1.77277 13.4513L2.5027 13.4513 2.5027 16.7402 1.77277 16.7402C1.47022 16.7402 1.22495 16.9861 1.22495 17.2883 1.22495 17.5909 1.47027 17.8359 1.77277 17.8359L2.5027 17.8359 2.5027 21.1248 1.77277 21.1248C1.47022 21.1248 1.22495 21.3699 1.22495 21.6725 1.22495 21.975 1.47027 22.2205 1.77277 22.2205L2.5027 22.2205 2.5027 22.681C2.5025 23.5953 2.87534 24.4293 3.47506 25.0278 4.07337 25.6272 4.90745 26.0004 5.82171 26L21.4563 26C22.3704 26.0004 23.2048 25.6272 23.8032 25.0278 24.4025 24.4293 24.7755 23.5952 24.7751 22.681L24.7751 3.31947C24.7755 2.40475 24.4025 1.57061 23.8032 0.972156ZM8.27877 24.5393 5.82171 24.5393C5.30613 24.5393 4.84626 24.3326 4.50775 23.995 4.17031 23.6564 3.96383 23.1968 3.96343 22.681L3.96343 22.2205 5.12261 22.2205C5.31355 22.5404 5.66282 22.7561 6.06293 22.7561 6.66783 22.7561 7.15823 22.2655 7.15823 21.6608 7.15823 21.0557 6.66783 20.5655 6.06293 20.5655 5.65266 20.5655 5.29598 20.7912 5.10814 21.1247L3.96337 21.1247 3.96337 17.8359 5.12068 17.8359C5.31141 18.1579 5.6615 18.3745 6.06287 18.3745 6.66778 18.3745 7.15818 17.8838 7.15818 17.2792 7.15818 16.6745 6.66778 16.1838 6.06287 16.1838 5.65383 16.1838 5.29801 16.4086 5.10991 16.7401L3.96337 16.7401 3.96337 13.4513 5.11885 13.4513C5.30918 13.7754 5.66033 13.9932 6.06293 13.9932 6.66783 13.9932 7.15823 13.5025 7.15823 12.8983 7.15823 12.2928 6.66783 11.8022 6.06293 11.8022 5.65515 11.8022 5.30029 12.0254 5.11184 12.356L3.96337 12.356 3.96337 9.06755 5.11718 9.06755C5.3073 9.39245 5.65906 9.61152 6.06287 9.61152 6.66778 9.61152 7.15818 9.12133 7.15818 8.51622 7.15818 7.91192 6.66778 7.42087 6.06287 7.42087 5.65657 7.42087 5.30212 7.64324 5.11347 7.97144L3.96337 7.97144 3.96337 4.683 5.11535 4.683C5.30481 5.00993 5.65779 5.23027 6.06293 5.23027 6.66783 5.23027 7.15823 4.73962 7.15823 4.13537 7.15823 3.52986 6.66783 3.03961 6.06293 3.03961 5.65784 3.03961 5.30486 3.26031 5.11535 3.58688L3.96337 3.58688 3.96337 3.31947C3.96378 2.80318 4.17026 2.34361 4.5077 2.00464 4.84621 1.66735 5.30608 1.46113 5.82166 1.46072L8.27871 1.46072 8.27871 24.5393ZM23.3148 22.681C23.3144 23.1968 23.1079 23.6564 22.7704 23.995 22.4319 24.3326 21.9718 24.5393 21.4562 24.5393L8.82659 24.5393 8.82659 1.46072 21.4563 1.46072C21.9719 1.46113 22.432 1.66735 22.7705 2.00464 23.108 2.34361 23.3144 2.80318 23.3148 3.31947L23.3148 22.681Z" fill="#4B4B4B" transform="matrix(1.03846 0 0 1 255 570)"/><path d="M11.0631 5.74361 20.7588 5.74361 20.7588 6.29124 11.0631 6.29124Z" fill="#4B4B4B" transform="matrix(1.03846 0 0 1 255 570)"/><path d="M11.0631 9.25813 20.7588 9.25813 20.7588 9.80581 11.0631 9.80581Z" fill="#4B4B4B" transform="matrix(1.03846 0 0 1 255 570)"/><path d="M11.0631 12.7727 20.7588 12.7727 20.7588 13.3203 11.0631 13.3203Z" fill="#4B4B4B" transform="matrix(1.03846 0 0 1 255 570)"/><path d="M11.0631 16.2872 20.7588 16.2872 20.7588 16.8348 11.0631 16.8348Z" fill="#4B4B4B" transform="matrix(1.03846 0 0 1 255 570)"/><path d="M11.0631 19.8017 20.7588 19.8017 20.7588 20.349 11.0631 20.349Z" fill="#4B4B4B" transform="matrix(1.03846 0 0 1 255 570)"/></g></g></g><g clip-path="url(#clip4)"><g clip-path="url(#clip5)"><g clip-path="url(#clip6)"><path d="M272.97 443 257.432 458.539 255 470 266.459 467.568 282 452.027 272.97 443ZM272.97 445.76 275.74 448.531 262.608 461.661 259.838 458.892 272.97 445.76ZM260.803 466.75 258.249 464.196 259.229 459.741 265.257 465.77 260.803 466.75ZM266.106 465.16 263.338 462.391 276.469 449.259 279.239 452.027 266.106 465.16Z" fill="#4B4B4B"/></g></g></g><g clip-path="url(#clip7)"><g clip-path="url(#clip8)"><g clip-path="url(#clip9)"><path d="M18.486 18.0291C18.2899 17.9557 18.0761 17.8546 17.8589 17.7349L14.2244 22.7589 13.966 19.4676 12.0346 19.4676 11.7761 22.7589 8.14171 17.7349C7.91786 17.8601 7.70214 17.9627 7.514 18.0291 5.61082 18.6991 0.93534 20.6259 1.23708 24.2351 1.3095 25.1012 6.07252 26 13.0003 26 19.9275 26 24.6906 25.1012 24.763 24.2351 25.0648 20.6224 20.3771 18.7363 18.486 18.0291Z" fill="#4B4B4B" transform="matrix(1.03846 0 0 1 106 570)"/><path d="M8.70904 10.5763C8.97361 12.0751 9.41825 13.3974 10.0037 14.0487 10.0037 14.8298 10.0037 15.3997 10.0037 15.8558 10.0037 15.9016 9.99563 15.9499 9.98253 15.9997L12.0346 16.988 12.0346 18.4376 13.966 18.4376 13.966 16.988 16.017 16.0002C16.0039 15.9504 15.9959 15.9021 15.9959 15.8558 15.9959 15.3997 15.9959 14.8298 15.9959 14.0487 16.5823 13.3974 17.027 12.0751 17.2915 10.5763 17.9082 10.356 18.2612 10.0034 18.7013 8.46082 19.1701 6.81764 17.9967 6.8735 17.9967 6.8735 18.9458 3.73151 17.6959 0.778629 15.6037 0.995414 14.1601-1.52994 9.32572 1.57229 7.80975 1.35606 7.80975 2.22214 8.17091 2.87148 8.17091 2.87148 7.64385 3.87136 7.84702 5.86508 7.99591 6.8735 7.90938 6.87197 6.84816 6.88304 7.29879 8.46082 7.73932 10.0034 8.09138 10.356 8.70904 10.5763Z" fill="#4B4B4B" transform="matrix(1.03846 0 0 1 106 570)"/></g></g></g><g clip-path="url(#clip10)"><g clip-path="url(#clip11)"><g clip-path="url(#clip12)"><path d="M129.16 527.61C128.544 526.687 127.606 526.175 126.723 525.842 126.281 525.675 125.847 525.553 125.465 525.448 125.085 525.345 124.752 525.257 124.529 525.173 124.212 525.055 123.884 524.908 123.615 524.749L123.615 523.073 123.028 523.171C123.028 523.011 123.028 522.844 123.028 522.66 123.528 522.105 124.247 521.245 124.539 519.877 124.644 519.83 124.747 519.777 124.847 519.708 125.088 519.542 125.293 519.3 125.468 518.969 125.643 518.637 125.799 518.211 125.966 517.628 126.05 517.333 126.089 517.078 126.089 516.851 126.089 516.589 126.035 516.363 125.937 516.18 125.829 515.976 125.672 515.84 125.519 515.753L125.519 515.124C125.539 515.106 125.563 515.09 125.581 515.071 126.08 514.552 125.882 513.95 125.534 513.503 125.971 512.889 126.843 511.475 126.597 510.244 126.072 507.621 122.379 507 120 507 117.621 507 113.928 507.621 113.403 510.244 113.157 511.475 114.029 512.889 114.466 513.503 114.128 513.937 113.937 514.516 114.382 515.025L114.382 515.824C114.264 515.908 114.147 516.022 114.063 516.18 113.965 516.363 113.911 516.589 113.911 516.851 113.911 517.078 113.95 517.333 114.034 517.628 114.257 518.405 114.458 518.905 114.717 519.271 114.847 519.452 114.994 519.598 115.154 519.709 115.253 519.777 115.356 519.83 115.46 519.877 115.754 521.245 116.472 522.105 116.972 522.66 116.972 522.844 116.972 523.011 116.972 523.171L116.385 523.073 116.385 524.749C116.354 524.768 116.326 524.787 116.294 524.805 116.035 524.952 115.738 525.079 115.478 525.171 115.173 525.279 114.683 525.391 114.134 525.548 113.31 525.786 112.337 526.13 111.546 526.807 111.152 527.146 110.806 527.572 110.562 528.101 110.318 528.63 110.178 529.257 110.178 529.994 110.178 530.164 110.186 530.341 110.201 530.524 110.212 530.648 110.26 530.75 110.316 530.834 110.423 530.992 110.567 531.11 110.747 531.232 111.063 531.441 111.502 531.646 112.065 531.848 113.75 532.449 116.541 532.999 120 533 122.81 533 125.183 532.635 126.875 532.177 127.722 531.948 128.397 531.696 128.885 531.446 129.129 531.32 129.326 531.195 129.482 531.059 129.559 530.991 129.627 530.919 129.684 530.835 129.74 530.75 129.788 530.648 129.798 530.524 129.814 530.341 129.821 530.165 129.821 529.995 129.823 529.014 129.571 528.224 129.16 527.61ZM119.484 509.981 120 508.83 120.516 509.981 121.769 510.116 120.835 510.961 121.094 512.196 120 511.568 118.907 512.196 119.166 510.961 118.231 510.116 119.484 509.981ZM120 531.949C119.633 531.949 119.335 531.651 119.335 531.284 119.335 530.917 119.633 530.62 120 530.62 120.367 530.62 120.665 530.917 120.665 531.284 120.665 531.651 120.367 531.949 120 531.949ZM120 528.691C119.633 528.691 119.335 528.394 119.335 528.027 119.335 527.659 119.633 527.362 120 527.362 120.367 527.362 120.665 527.659 120.665 528.027 120.665 528.394 120.367 528.691 120 528.691ZM120 526.032 116.606 525.466C116.726 525.4 116.843 525.33 116.955 525.253 117.019 525.209 117.077 525.158 117.136 525.11L119.875 525.566 119.875 523.655 117.703 523.293C117.703 523.062 117.703 522.811 117.703 522.521L117.703 522.38 117.609 522.276C117.088 521.695 116.38 520.922 116.134 519.548L116.097 519.339 115.898 519.267C115.764 519.22 115.661 519.17 115.571 519.108 115.438 519.014 115.318 518.885 115.179 518.626 115.041 518.368 114.896 517.984 114.737 517.428 114.668 517.184 114.642 516.993 114.642 516.851 114.643 516.686 114.674 516.588 114.708 516.525 114.758 516.433 114.821 516.394 114.899 516.362 114.91 516.358 114.922 516.355 114.934 516.352L116.211 517.339 116.211 515.826C117.588 516.119 119.287 516.175 120 516.175 120.696 516.175 122.332 516.123 123.69 515.849L123.69 517.339 124.988 516.335C125.039 516.343 125.116 516.359 125.175 516.398 125.22 516.427 125.258 516.462 125.292 516.525 125.326 516.588 125.357 516.686 125.357 516.851 125.357 516.993 125.333 517.183 125.263 517.428 125.052 518.17 124.863 518.603 124.687 518.846 124.6 518.968 124.519 519.045 124.429 519.108 124.339 519.17 124.236 519.22 124.103 519.267L123.902 519.339 123.865 519.548C123.621 520.922 122.912 521.695 122.391 522.276L122.297 522.38 122.297 522.521C122.297 522.811 122.297 523.062 122.297 523.293L120.125 523.655 120.125 525.566 122.854 525.111C122.995 525.226 123.15 525.328 123.313 525.422 123.341 525.438 123.371 525.45 123.4 525.465L120 526.032Z" fill="#4B4B4B"/></g></g></g><g clip-path="url(#clip13)"><g clip-path="url(#clip14)"><g clip-path="url(#clip15)"><path d="M114.574 450.762C114.574 450.762 117.559 451.36 121.44 447.478 123.231 449.867 124.426 451.061 124.426 451.061L124.426 454.645C125.625 453.409 126.367 451.725 126.367 449.867 126.367 446.074 123.292 443 119.5 443 115.708 443 112.634 446.074 112.634 449.867 112.634 451.725 113.374 453.409 114.574 454.645L114.574 450.762Z" fill="#4B4B4B"/><path d="M124.105 458.685C123.623 458.948 119.5 468 119.5 468 119.5 468 115.377 458.948 114.895 458.685 110.253 460.359 110.046 464.11 110.046 470L128.954 470C128.954 464.11 128.747 460.359 124.105 458.685Z" fill="#4B4B4B"/><path d="M117.444 458.28 117.444 461.021 119.5 460.322 121.556 461.021 121.556 458.28 119.5 458.979Z" fill="#4B4B4B"/></g></g></g><g clip-path="url(#clip16)"><g clip-path="url(#clip17)"><g clip-path="url(#clip18)"><path d="M261.196 510.681C260.914 510.68 260.666 510.569 260.48 510.384 260.295 510.198 260.183 509.95 260.183 509.667 260.183 509.385 260.295 509.136 260.479 508.95 260.665 508.765 260.914 508.654 261.196 508.653L278.644 508.654 278.644 507 261.196 507C259.723 507.001 258.53 508.194 258.53 509.667L258.53 530.333C258.53 531.806 259.723 532.999 261.196 533L279.47 533 279.47 510.681 261.196 510.681ZM277.817 531.346 261.808 531.347 261.808 512.334 277.817 512.334 277.817 531.346Z" fill="#4B4B4B"/><path d="M275.441 528.454 275.441 514.608 264.281 514.608 264.281 529.073 275.441 529.073 275.441 528.454ZM274.201 527.834 265.521 527.834 265.521 515.847 274.201 515.847 274.201 527.834Z" fill="#4B4B4B"/><path d="M267.381 524.424 272.341 524.424 272.341 525.354 267.381 525.354Z" fill="#4B4B4B"/></g></g></g><path d="M133.5 520.167 136.167 520.167 136.167 520.833 133.5 520.833ZM138.167 520.167 140.833 520.167 140.833 520.833 138.167 520.833ZM142.833 520.167 144.938 520.167 145.502 520.17 145.498 520.837 144.936 520.833 144.938 520.833 142.833 520.833ZM147.502 520.181 150.169 520.196 150.165 520.863 147.498 520.848ZM152.168 520.207 154.835 520.222 154.831 520.889 152.165 520.874ZM156.835 520.234 159.502 520.25 159.498 520.917 156.831 520.901ZM161.502 520.262 164.168 520.278 164.164 520.945 161.498 520.929ZM166.168 520.29 166.378 520.292 168.837 520.325 168.828 520.991 166.371 520.958 166.373 520.958 166.164 520.957ZM170.837 520.352 173.504 520.387 173.495 521.054 170.828 521.018ZM175.503 520.414 175.692 520.417 175.688 520.417 178.166 520.417 178.166 521.083 175.685 521.083 175.494 521.081ZM180.171 520.423 182.837 520.467 182.826 521.134 180.16 521.089ZM184.838 520.504 186.819 520.542 187.505 520.557 187.49 521.224 186.806 521.208 184.825 521.17ZM189.504 520.601 189.634 520.604 191.823 520.667 192.175 520.68 192.15 521.346 191.8 521.333 191.803 521.333 189.616 521.271 189.618 521.271 189.49 521.268ZM194.181 520.771 194.538 520.793 194.93 520.859 195.305 520.921 195.271 520.917 196.271 520.98 196.262 520.979 196.826 521 196.801 521.667 196.233 521.646 195.212 521.582 194.82 521.516 194.445 521.454 194.479 521.458 194.14 521.437ZM198.822 521.067 200.135 521.104 200.132 521.104 201.486 521.134 201.471 521.801 200.117 521.771 198.803 521.733ZM203.484 521.177 206.15 521.228 206.138 521.895 203.471 521.844ZM208.149 521.262 209.943 521.292 209.938 521.292 210.81 521.292 210.81 521.958 209.935 521.958 208.138 521.928ZM212.81 521.292 214.065 521.292 215.481 521.311 215.472 521.977 214.058 521.958 214.063 521.958 212.81 521.958ZM217.481 521.338 220.147 521.373 220.139 522.04 217.472 522.004ZM222.147 521.4 223.38 521.417 223.377 521.417 224.811 521.425 224.807 522.092 223.372 522.083 222.138 522.067ZM226.811 521.438 229.478 521.454 229.474 522.12 226.807 522.104ZM231.478 521.466 233.69 521.479 234.144 521.482 234.141 522.148 233.686 522.146 231.474 522.133ZM236.144 521.493 238.811 521.508 238.807 522.175 236.141 522.16ZM240.811 521.519 243.478 521.534 243.474 522.201 240.807 522.186ZM245.476 521.542 248.142 521.542 248.142 522.208 245.476 522.208ZM250.142 521.542 252.809 521.542 252.809 522.208 250.142 522.208ZM254.809 521.542 255.59 521.542 255.59 522.208 254.809 522.208ZM247.758 516.92 256.252 521.875 247.758 526.83C247.599 526.922 247.395 526.869 247.302 526.71 247.209 526.551 247.263 526.347 247.422 526.254L255.422 521.587 255.422 522.163 247.422 517.496C247.263 517.404 247.209 517.199 247.302 517.04 247.395 516.881 247.599 516.828 247.758 516.92Z" fill="#FF0000"/><g clip-path="url(#clip19)"><g clip-path="url(#clip20)"><g clip-path="url(#clip21)"><path d="M183.13 519.916 194.327 519.916 194.327 520.856 183.13 520.856Z" fill="#FF0000"/><path d="M182.164 523.634 193.362 523.634 193.362 524.575 182.164 524.575Z" fill="#FF0000"/><path d="M198.964 509.859 198.964 509.254 180.014 509.254 180.014 509.859C180.014 511.108 180.048 512.415 180.048 513.771 180.048 515.749 179.976 517.833 179.623 520.003 179.288 522.066 178.7 524.207 177.68 526.415L175.856 526.415C175.534 526.415 175.209 526.466 174.895 526.575 174.424 526.739 173.979 527.037 173.642 527.475 173.304 527.912 173.081 528.481 173.015 529.151 173.005 529.248 173 529.345 173 529.441 173 529.927 173.125 530.385 173.335 530.787 173.652 531.391 174.152 531.871 174.733 532.206 175.315 532.541 175.982 532.734 176.662 532.738L191.068 532.746C191.616 532.748 192.092 532.636 192.496 532.452 192.902 532.269 193.232 532.025 193.539 531.781 194.794 530.781 195.764 529.543 196.508 528.168 197.625 526.103 198.241 523.731 198.586 521.319 198.93 518.907 199 516.452 199 514.217 199 512.616 198.964 511.128 198.964 509.859ZM176.669 531.529 176.669 531.529C176.369 531.527 176.057 531.468 175.763 531.358 175.32 531.194 174.919 530.915 174.643 530.579 174.504 530.411 174.396 530.229 174.322 530.04 174.249 529.85 174.21 529.652 174.21 529.441 174.21 529.386 174.212 529.329 174.218 529.272 174.25 528.953 174.327 528.697 174.429 528.49 174.582 528.181 174.79 527.975 175.035 527.834 175.28 527.695 175.567 527.631 175.856 527.631L188.82 527.631C188.68 527.793 188.555 527.977 188.455 528.185 188.307 528.491 188.208 528.846 188.168 529.245 188.16 529.336 188.155 529.425 188.155 529.514 188.155 529.936 188.256 530.336 188.432 530.692 188.59 531.011 188.807 531.294 189.065 531.536L176.669 531.529ZM196.964 523.432C196.615 524.923 196.125 526.336 195.444 527.592 194.764 528.849 193.896 529.949 192.785 530.835 192.505 531.059 192.259 531.232 191.999 531.349 191.739 531.465 191.461 531.535 191.068 531.537L190.664 531.536C190.298 531.433 189.959 531.25 189.683 531.009 189.46 530.815 189.279 530.586 189.155 530.334 189.031 530.082 188.962 529.808 188.962 529.514 188.962 529.452 188.964 529.389 188.971 529.326 189.003 529.009 189.078 528.749 189.181 528.535 189.336 528.216 189.549 527.998 189.796 527.852 190.042 527.707 190.326 527.636 190.608 527.637 190.894 527.636 191.177 527.71 191.411 527.841 191.646 527.973 191.83 528.159 191.941 528.39 192 528.512 192.036 528.675 192.036 528.839 192.036 528.974 192.012 529.108 191.968 529.22 191.925 529.333 191.863 529.421 191.791 529.483 191.656 529.596 191.518 529.639 191.378 529.64 191.257 529.64 191.136 529.604 191.035 529.538 190.933 529.473 190.854 529.382 190.808 529.274L190.067 529.592C190.18 529.856 190.37 530.07 190.6 530.217 190.828 530.364 191.098 530.446 191.378 530.446 191.699 530.448 192.036 530.334 192.314 530.096 192.504 529.934 192.636 529.729 192.72 529.512 192.804 529.296 192.842 529.066 192.842 528.839 192.842 528.564 192.786 528.289 192.668 528.041 192.478 527.645 192.166 527.34 191.805 527.138 191.451 526.94 191.047 526.836 190.637 526.831L190.637 526.825 178.825 526.825C179.867 524.541 180.472 522.32 180.817 520.197 181.185 517.932 181.258 515.778 181.258 513.771 181.258 512.617 181.234 511.514 181.227 510.463L197.757 510.463C197.765 511.606 197.79 512.875 197.79 514.217 197.791 517.162 197.663 520.451 196.964 523.432Z" fill="#FF0000"/><path d="M189.817 517.564C189.959 515.983 189.966 514.47 189.951 513.039L183.687 513.039C183.701 514.47 183.694 515.983 183.552 517.564L189.817 517.564Z" fill="#FF0000"/></g></g></g><text font-family="Calibri,Calibri_MSFontService,sans-serif" font-weight="400" font-size="11" transform="translate(190.568 519)">3</text><path d="M133.5 456.167 136.167 456.167 136.167 456.833 133.5 456.833ZM138.167 456.167 140.833 456.167 140.833 456.833 138.167 456.833ZM142.833 456.167 144.938 456.167 145.502 456.17 145.498 456.837 144.936 456.833 144.938 456.833 142.833 456.833ZM147.502 456.181 150.169 456.196 150.165 456.863 147.498 456.848ZM152.168 456.207 154.835 456.222 154.831 456.889 152.165 456.874ZM156.835 456.234 159.502 456.25 159.498 456.917 156.831 456.901ZM161.502 456.262 164.168 456.278 164.164 456.945 161.498 456.929ZM166.168 456.29 166.378 456.292 168.837 456.325 168.828 456.991 166.371 456.958 166.373 456.958 166.164 456.957ZM170.837 456.352 173.504 456.387 173.495 457.054 170.828 457.018ZM175.503 456.414 175.692 456.417 175.688 456.417 178.166 456.417 178.166 457.083 175.685 457.083 175.494 457.081ZM180.171 456.423 182.837 456.467 182.826 457.134 180.16 457.089ZM184.838 456.504 186.819 456.542 187.505 456.557 187.49 457.224 186.806 457.208 184.825 457.17ZM189.504 456.601 189.634 456.604 191.823 456.667 192.175 456.68 192.15 457.346 191.8 457.333 191.803 457.333 189.616 457.271 189.618 457.271 189.49 457.268ZM194.181 456.771 194.538 456.793 194.93 456.859 195.305 456.921 195.271 456.917 196.271 456.98 196.262 456.979 196.826 457 196.801 457.667 196.233 457.646 195.212 457.582 194.82 457.516 194.445 457.454 194.479 457.458 194.14 457.437ZM198.822 457.067 200.135 457.104 200.132 457.104 201.486 457.134 201.471 457.801 200.117 457.771 198.803 457.733ZM203.484 457.177 206.15 457.228 206.138 457.895 203.471 457.844ZM208.149 457.262 209.943 457.292 209.938 457.292 210.81 457.292 210.81 457.958 209.935 457.958 208.138 457.928ZM212.81 457.292 214.065 457.292 215.481 457.311 215.472 457.977 214.058 457.958 214.063 457.958 212.81 457.958ZM217.481 457.338 220.147 457.373 220.139 458.04 217.472 458.004ZM222.147 457.4 223.38 457.417 223.377 457.417 224.811 457.425 224.807 458.092 223.372 458.083 222.138 458.067ZM226.811 457.438 229.478 457.454 229.474 458.12 226.807 458.104ZM231.478 457.466 233.69 457.479 234.144 457.482 234.141 458.148 233.686 458.146 231.474 458.132ZM236.144 457.493 238.811 457.508 238.807 458.175 236.141 458.16ZM240.811 457.519 243.478 457.534 243.474 458.201 240.807 458.186ZM245.476 457.542 248.142 457.542 248.142 458.208 245.476 458.208ZM250.142 457.542 252.809 457.542 252.809 458.208 250.142 458.208ZM254.809 457.542 255.59 457.542 255.59 458.208 254.809 458.208ZM247.758 452.92 256.252 457.875 247.758 462.83C247.599 462.922 247.395 462.869 247.302 462.71 247.209 462.551 247.263 462.347 247.422 462.254L255.422 457.587 255.422 458.163 247.422 453.496C247.263 453.404 247.209 453.199 247.302 453.04 247.395 452.881 247.599 452.828 247.758 452.92Z"/><path d="M133.52 456.167 136.182 456.326 136.142 456.992 133.48 456.833ZM138.178 456.446 140.84 456.605 140.8 457.27 138.139 457.111ZM142.837 456.724 145.041 456.856 145.532 456.948 145.41 457.603 144.939 457.515 144.98 457.52 142.797 457.39ZM147.499 457.314 150.12 457.803 149.998 458.458 147.376 457.97ZM152.086 458.17 154.708 458.658 154.586 459.314 151.964 458.825ZM156.694 459.091 159.249 459.856 159.058 460.495 156.503 459.73ZM161.165 460.43 163.72 461.195 163.528 461.833 160.974 461.068ZM165.635 461.768 166.615 462.061 168.159 462.735 167.892 463.346 166.367 462.681 166.404 462.694 165.444 462.407ZM169.992 463.535 172.436 464.601 172.17 465.212 169.725 464.146ZM174.269 465.401 175.961 466.139 176.706 466.556 176.38 467.138 175.65 466.728 175.679 466.743 174.003 466.012ZM178.451 467.534 180.111 468.465 180.768 468.9 180.401 469.456 179.754 469.028 179.775 469.041 178.125 468.116ZM182.437 470.002 183.821 470.917 184.633 471.561 184.219 472.083 183.418 471.449 183.441 471.466 182.069 470.559ZM186.2 472.803 187.16 473.563 188.207 474.611 187.736 475.082 186.702 474.048 186.731 474.074 185.786 473.326ZM189.621 476.025 189.936 476.34 191.347 478.103 190.826 478.52 189.427 476.771 189.452 476.798 189.15 476.496ZM192.544 479.762 193.873 482.074 193.295 482.406 191.966 480.094ZM194.558 484.02 194.951 485.174 195.143 486.676 194.482 486.761 194.294 485.292 194.309 485.357 193.927 484.234ZM195.396 488.66 195.706 491.083 195.691 491.018 195.763 491.23 195.132 491.445 195.049 491.201 194.735 488.745ZM196.407 493.123 196.691 493.955 196.664 493.897 197.555 495.447 196.977 495.779 196.07 494.201 195.776 493.338ZM198.573 497.104 200.239 499.187 199.718 499.603 198.052 497.521ZM201.593 500.598 203.296 502.262 203.27 502.239 203.494 502.417 203.08 502.939 202.842 502.751 201.127 501.075ZM205.062 503.659 206.582 504.864 206.562 504.849 207.164 505.257 206.79 505.809 206.178 505.394 204.648 504.181ZM208.819 506.379 210.25 507.349 210.224 507.333 211.045 507.787 210.723 508.37 209.888 507.909 208.445 506.931ZM212.796 508.754 214.411 509.646 214.384 509.632 215.136 509.963 214.868 510.573 214.102 510.237 212.474 509.337ZM216.967 510.767 219.409 511.839 219.141 512.45 216.699 511.377ZM221.24 512.643 223.634 513.695 223.596 513.681 223.645 513.696 223.454 514.334 223.385 514.313 220.972 513.254ZM225.561 514.269 228.116 515.034 227.925 515.673 225.37 514.908ZM230.032 515.608 232.587 516.373 232.395 517.011 229.841 516.246ZM234.479 516.884 237.103 517.359 236.985 518.015 234.36 517.54ZM239.071 517.714 241.695 518.189 241.577 518.845 238.953 518.37ZM243.664 518.545 245.059 518.797 245.02 518.792 246.266 518.867 246.226 519.532 244.96 519.457 243.545 519.201ZM248.262 518.986 250.924 519.145 250.884 519.811 248.223 519.652ZM252.921 519.265 255.583 519.424 255.543 520.089 252.881 519.93ZM248.319 514.36 256.502 519.813 247.727 524.252C247.563 524.335 247.363 524.269 247.28 524.105 247.196 523.94 247.262 523.74 247.427 523.657L255.691 519.476 255.656 520.051 247.949 514.915C247.796 514.813 247.754 514.606 247.857 514.453 247.959 514.299 248.166 514.258 248.319 514.36Z"/><path d="M0.019892-0.332739 2.68181-0.173603 2.64202 0.491875-0.019892 0.332739ZM4.67824-0.054251 7.34015 0.104885 7.30037 0.770364 4.63846 0.611228ZM9.33659 0.224237 11.5397 0.355947 12.0311 0.444785 11.9125 1.10082 11.4407 1.01552 11.4801 1.02024 9.29681 0.889716ZM13.9992 0.800599 16.6233 1.27502 16.5047 1.93105 13.8806 1.45663ZM18.5914 1.63083 21.2156 2.10525 21.097 2.76128 18.4728 2.28686ZM23.2051 2.53194 25.7597 3.29679 25.5685 3.93545 23.0139 3.17059ZM27.6757 3.87044 30.2303 4.63529 30.0391 5.27395 27.4845 4.50909ZM32.1463 5.20894 33.1149 5.49894 34.6692 6.177 34.4026 6.78805 32.8667 6.11803 32.9044 6.13183 31.9551 5.84759ZM36.5023 6.9767 38.9466 8.04297 38.68 8.65402 36.2358 7.58775ZM40.7797 8.84267 42.4592 9.57534 43.2174 9.9889 42.8982 10.5742 42.1529 10.1676 42.1792 10.1805 40.5132 9.45372ZM44.9732 10.9466 46.6112 11.8401 47.3007 12.3075 46.9266 12.8593 46.2504 12.4009 46.2779 12.4176 44.654 11.5319ZM48.9561 13.4298 50.3207 14.355 51.1425 14.9907 50.7345 15.518 49.921 14.8887 49.9379 14.9009 48.582 13.9816ZM52.7244 16.2144 53.6582 16.9368 54.739 18.0175 54.2675 18.489 53.2018 17.4232 53.2335 17.4512 52.3165 16.7417ZM56.1532 19.4318 56.4363 19.7149 57.8751 21.5134 57.3545 21.9298 55.9272 20.1457 55.9518 20.1732 55.6818 19.9032ZM59.0707 23.1703 60.4296 25.4855 60.4457 25.5328 59.8146 25.7476 59.8094 25.7324 59.8375 25.7937 58.4958 23.5078ZM61.0902 27.4261 61.4514 28.4869 61.6557 30.0872 60.9944 30.1716 60.7943 28.6047 60.8094 28.6699 60.4591 27.6409ZM61.9089 32.0711 62.2056 34.3953 62.1905 34.3301 62.2948 34.6364 61.6637 34.8513 61.5486 34.5131 61.2477 32.1555ZM62.9394 36.5298 63.1905 37.2676 63.1625 37.2063 64.1178 38.8339 63.5429 39.1713 62.5704 37.5145 62.3083 36.7446ZM65.1686 40.4741 66.8345 42.5564 66.3139 42.9728 64.648 40.8905ZM68.1927 43.9713 69.7982 45.5768 69.7665 45.5488 70.0797 45.7912 69.6718 46.3185 69.3418 46.0632 67.7213 44.4427ZM71.6617 47.0149 73.079 48.1113 73.062 48.0991 73.7861 48.59 73.412 49.1418 72.6793 48.645 71.2537 47.5422ZM75.4415 49.7123 76.7495 50.5991 76.7236 50.5832 77.6746 51.1084 77.3524 51.692 76.388 51.1594 75.0674 50.2641ZM79.4254 52.0752 80.9111 52.8957 80.8823 52.8815 81.7721 53.2663 81.5075 53.8782 80.6029 53.4871 79.1031 52.6588ZM83.6078 54.0602 86.0555 55.1186 85.7908 55.7305 83.3432 54.6721ZM87.8912 55.9124 90.1323 56.8815 90.0956 56.8682 90.3111 56.9327 90.1199 57.5714 89.8857 57.5012 87.6266 56.5243ZM92.2271 57.5063 94.7817 58.2712 94.5905 58.9098 92.0359 58.145ZM96.6977 58.8448 99.2523 59.6097 99.0611 60.2484 96.5065 59.4835ZM101.149 60.1024 103.773 60.5768 103.655 61.2329 101.031 60.7585ZM105.741 60.9327 108.366 61.4071 108.247 62.0631 105.623 61.5887ZM110.334 61.7629 111.559 61.9845 111.52 61.9798 112.939 62.0646 112.899 62.73 111.46 62.6441 110.215 62.4189ZM114.935 62.1839 117.597 62.3431 117.557 63.0085 114.895 62.8494ZM119.593 62.4624 122.255 62.6216 122.215 63.287 119.554 63.1279ZM114.819 57.5475 123.002 63.0001 114.227 67.439C114.063 67.5221 113.863 67.4563 113.78 67.2921 113.696 67.1278 113.762 66.9273 113.926 66.8442L122.191 62.6632 122.156 63.238 114.449 58.1023C114.296 58.0002 114.254 57.7932 114.357 57.64 114.459 57.4868 114.666 57.4454 114.819 57.5475Z" transform="matrix(1 0 0 -1 133.5 583.461)"/><g clip-path="url(#clip22)"><g clip-path="url(#clip23)"><g clip-path="url(#clip24)"><path d="M207.13 449.916 218.327 449.916 218.327 450.856 207.13 450.856Z"/><path d="M206.164 453.634 217.362 453.634 217.362 454.575 206.164 454.575Z"/><path d="M222.964 439.859 222.964 439.254 204.014 439.254 204.014 439.859C204.014 441.108 204.048 442.415 204.048 443.771 204.048 445.749 203.976 447.833 203.623 450.003 203.288 452.066 202.7 454.207 201.68 456.415L199.856 456.415C199.534 456.415 199.209 456.466 198.895 456.575 198.424 456.739 197.979 457.037 197.642 457.475 197.304 457.912 197.081 458.481 197.015 459.152 197.005 459.249 197 459.345 197 459.441 197 459.927 197.125 460.385 197.335 460.787 197.652 461.391 198.152 461.871 198.733 462.206 199.315 462.541 199.982 462.734 200.662 462.738L215.068 462.746C215.616 462.748 216.092 462.636 216.496 462.452 216.902 462.269 217.232 462.025 217.539 461.781 218.794 460.781 219.764 459.543 220.508 458.168 221.625 456.103 222.241 453.731 222.586 451.319 222.93 448.907 223 446.452 223 444.217 223 442.616 222.964 441.128 222.964 439.859ZM200.669 461.529 200.669 461.529C200.369 461.527 200.057 461.468 199.763 461.358 199.32 461.194 198.919 460.915 198.643 460.579 198.504 460.411 198.396 460.229 198.322 460.04 198.249 459.85 198.21 459.652 198.21 459.441 198.21 459.386 198.212 459.329 198.218 459.272 198.25 458.953 198.327 458.697 198.429 458.49 198.582 458.181 198.79 457.975 199.035 457.834 199.28 457.695 199.567 457.631 199.856 457.631L212.82 457.631C212.68 457.793 212.555 457.977 212.455 458.185 212.307 458.491 212.208 458.846 212.168 459.245 212.16 459.336 212.155 459.425 212.155 459.514 212.155 459.936 212.256 460.336 212.432 460.691 212.59 461.011 212.807 461.294 213.065 461.536L200.669 461.529ZM220.964 453.432C220.615 454.923 220.125 456.336 219.444 457.592 218.764 458.849 217.896 459.949 216.785 460.835 216.505 461.059 216.259 461.232 215.999 461.349 215.739 461.465 215.461 461.535 215.068 461.537L214.664 461.536C214.298 461.433 213.959 461.249 213.683 461.009 213.46 460.815 213.279 460.586 213.155 460.334 213.031 460.082 212.962 459.808 212.962 459.514 212.962 459.452 212.964 459.389 212.971 459.326 213.003 459.009 213.078 458.749 213.181 458.535 213.336 458.216 213.549 457.998 213.796 457.852 214.042 457.707 214.326 457.636 214.608 457.637 214.894 457.636 215.177 457.71 215.411 457.841 215.646 457.973 215.83 458.159 215.941 458.39 216 458.512 216.036 458.675 216.036 458.839 216.036 458.974 216.012 459.108 215.968 459.22 215.925 459.333 215.863 459.421 215.791 459.483 215.656 459.596 215.518 459.639 215.378 459.64 215.257 459.64 215.136 459.604 215.035 459.538 214.933 459.473 214.854 459.382 214.808 459.274L214.067 459.592C214.18 459.856 214.37 460.07 214.6 460.217 214.828 460.364 215.098 460.446 215.378 460.446 215.699 460.448 216.036 460.334 216.314 460.096 216.504 459.934 216.636 459.729 216.72 459.512 216.804 459.296 216.842 459.066 216.842 458.839 216.842 458.564 216.786 458.289 216.668 458.041 216.478 457.645 216.166 457.34 215.805 457.138 215.451 456.94 215.047 456.836 214.637 456.831L214.637 456.825 202.825 456.825C203.867 454.541 204.472 452.32 204.817 450.197 205.185 447.932 205.258 445.778 205.258 443.771 205.258 442.617 205.234 441.514 205.227 440.463L221.757 440.463C221.765 441.606 221.79 442.875 221.79 444.217 221.791 447.162 221.663 450.451 220.964 453.432Z"/><path d="M213.817 447.564C213.959 445.983 213.966 444.47 213.951 443.039L207.687 443.039C207.701 444.47 207.694 445.983 207.552 447.564L213.817 447.564Z"/></g></g></g><text font-family="Calibri,Calibri_MSFontService,sans-serif" font-weight="400" font-size="11" transform="translate(211.967 449)">12</text><g clip-path="url(#clip25)"><g clip-path="url(#clip26)"><g clip-path="url(#clip27)"><path d="M10.1296 11.9158 21.3271 11.9158 21.3271 12.8564 10.1296 12.8564Z" fill="#4472C4" transform="matrix(1.03846 0 0 1 163 459)"/><path d="M9.16403 15.6341 20.3615 15.6341 20.3615 16.5752 9.16403 16.5752Z" fill="#4472C4" transform="matrix(1.03846 0 0 1 163 459)"/><path d="M25.9636 1.8587 25.9636 1.25359 7.01375 1.25359 7.01375 1.8587C7.01375 3.10837 7.04849 4.41472 7.04849 5.77109 7.04849 7.74922 6.97562 9.83323 6.62299 12.0028 6.28753 14.0661 5.70004 16.2072 4.68041 18.4146L2.85639 18.4146C2.53409 18.4146 2.20868 18.4664 1.89475 18.5753 1.42446 18.7386 0.979215 19.0368 0.641977 19.475 0.303875 19.9123 0.0808437 20.481 0.0145234 21.1515 0.004875 21.2485 0 21.3451 0 21.4408-0.000457031 21.9269 0.124719 22.3853 0.335461 22.7871 0.652031 23.3913 1.15218 23.8713 1.73311 24.2063 2.31497 24.5409 2.98233 24.7336 3.66204 24.7384L18.0676 24.7464C18.6161 24.7477 19.0916 24.6357 19.4965 24.4517 19.9017 24.2687 20.2324 24.0254 20.5393 23.7808 21.7943 22.7814 22.7638 21.5427 23.5081 20.1679 24.6247 18.1033 25.2412 15.7313 25.5859 13.3193 25.9297 10.9073 25.9995 8.45183 25.9999 6.21679 26 4.61622 25.9636 3.12812 25.9636 1.8587ZM3.66869 23.5288 3.66915 23.5288C3.36878 23.5274 3.05744 23.4681 2.7628 23.358 2.32025 23.1937 1.91887 22.9153 1.64267 22.5794 1.50394 22.4112 1.39593 22.2294 1.32214 22.0398 1.24886 21.8496 1.20971 21.6517 1.20971 21.4409 1.20971 21.3856 1.21235 21.3293 1.21809 21.2723 1.25013 20.9526 1.32696 20.6966 1.42883 20.4898 1.5825 20.1807 1.79024 19.9752 2.03526 19.8342 2.27982 19.6946 2.56654 19.6314 2.85639 19.6314L15.8204 19.6314C15.6799 19.7925 15.5548 19.9769 15.4546 20.1855 15.3071 20.4911 15.2083 20.8459 15.1683 21.2451 15.1595 21.3359 15.1551 21.4251 15.1551 21.5138 15.1551 21.9362 15.2561 22.3362 15.4317 22.6915 15.5898 23.0107 15.8072 23.2944 16.0649 23.5359L3.66869 23.5288ZM23.9644 15.4322C23.6153 16.923 23.1248 18.3355 22.4442 19.5922 21.7636 20.8489 20.8964 21.9493 19.7854 22.835 19.5053 23.0589 19.2589 23.2324 18.9994 23.3487 18.7386 23.465 18.4607 23.5353 18.0681 23.5366L17.6642 23.5362C17.2984 23.4326 16.959 23.2495 16.6828 23.0088 16.4597 22.8152 16.2792 22.586 16.1549 22.334 16.0307 22.0819 15.9617 21.8079 15.9617 21.5137 15.9617 21.4523 15.9644 21.3895 15.971 21.3258 16.0026 21.0092 16.0781 20.7488 16.1808 20.5354 16.3359 20.2158 16.5493 19.9984 16.7961 19.8522 17.0424 19.7069 17.3256 19.6361 17.6083 19.6366 17.8938 19.6357 18.1765 19.7095 18.4106 19.8408 18.6455 19.973 18.8295 20.1587 18.9411 20.3901 18.9999 20.5122 19.0363 20.6751 19.0363 20.8394 19.0363 20.9741 19.0122 21.1081 18.9683 21.2201 18.9248 21.3329 18.8628 21.4212 18.7908 21.4827 18.6556 21.5964 18.5177 21.6394 18.3785 21.6403 18.2573 21.6403 18.1362 21.6038 18.0352 21.5384 17.9333 21.4734 17.8542 21.3821 17.8077 21.2736L17.0665 21.5916C17.1798 21.8564 17.3703 22.0702 17.5996 22.2173 17.8283 22.3644 18.0979 22.4465 18.3785 22.4465 18.6995 22.4478 19.0363 22.3341 19.3138 22.0965 19.5039 21.934 19.6356 21.7285 19.7199 21.5121 19.8038 21.2956 19.842 21.0663 19.842 20.8394 19.842 20.5636 19.7863 20.2892 19.6677 20.0411 19.4776 19.6454 19.1663 19.3402 18.8053 19.1378 18.4514 18.9398 18.0474 18.8362 17.6368 18.8309L17.6368 18.8247 5.82461 18.8247C6.86705 16.541 7.47216 14.32 7.81681 12.1969 8.18477 9.9321 8.25764 7.77832 8.25764 5.77119 8.25764 4.61723 8.23438 3.51421 8.22692 2.46345L24.7569 2.46345C24.7648 3.60638 24.7902 4.87541 24.7902 6.21684 24.7912 9.1618 24.6634 12.4507 23.9644 15.4322Z" fill="#4472C4" transform="matrix(1.03846 0 0 1 163 459)"/><path d="M16.8171 9.56404C16.959 7.98327 16.966 6.47014 16.9515 5.03912L10.6868 5.03912C10.7013 6.47014 10.6938 7.98327 10.552 9.56404L16.8171 9.56404Z" fill="#4472C4" transform="matrix(1.03846 0 0 1 163 459)"/></g></g></g><text font-family="Calibri,Calibri_MSFontService,sans-serif" font-weight="400" font-size="11" transform="translate(180.94 470)">2</text><g clip-path="url(#clip28)"><g clip-path="url(#clip29)"><g clip-path="url(#clip30)"><path d="M164.13 570.916 175.327 570.916 175.327 571.856 164.13 571.856Z" fill="#70AD47"/><path d="M163.164 574.634 174.362 574.634 174.362 575.575 163.164 575.575Z" fill="#70AD47"/><path d="M179.964 560.859 179.964 560.254 161.014 560.254 161.014 560.859C161.014 562.108 161.048 563.415 161.048 564.771 161.048 566.749 160.976 568.833 160.623 571.003 160.288 573.066 159.7 575.207 158.68 577.415L156.856 577.415C156.534 577.415 156.209 577.466 155.895 577.575 155.424 577.739 154.979 578.037 154.642 578.475 154.304 578.912 154.081 579.481 154.015 580.151 154.005 580.248 154 580.345 154 580.441 154 580.927 154.125 581.385 154.335 581.787 154.652 582.391 155.152 582.871 155.733 583.206 156.315 583.541 156.982 583.734 157.662 583.738L172.068 583.746C172.616 583.748 173.092 583.636 173.496 583.452 173.902 583.269 174.232 583.025 174.539 582.781 175.794 581.781 176.764 580.543 177.508 579.168 178.625 577.103 179.241 574.731 179.586 572.319 179.93 569.907 180 567.452 180 565.217 180 563.616 179.964 562.128 179.964 560.859ZM157.669 582.529 157.669 582.529C157.369 582.527 157.057 582.468 156.763 582.358 156.32 582.194 155.919 581.915 155.643 581.579 155.504 581.411 155.396 581.229 155.322 581.04 155.249 580.85 155.21 580.652 155.21 580.441 155.21 580.386 155.212 580.329 155.218 580.272 155.25 579.953 155.327 579.697 155.429 579.49 155.582 579.181 155.79 578.975 156.035 578.834 156.28 578.695 156.567 578.631 156.856 578.631L169.82 578.631C169.68 578.793 169.555 578.977 169.455 579.185 169.307 579.491 169.208 579.846 169.168 580.245 169.16 580.336 169.155 580.425 169.155 580.514 169.155 580.936 169.256 581.336 169.432 581.692 169.59 582.011 169.807 582.294 170.065 582.536L157.669 582.529ZM177.964 574.432C177.615 575.923 177.125 577.336 176.444 578.592 175.764 579.849 174.896 580.949 173.785 581.835 173.505 582.059 173.259 582.232 172.999 582.349 172.739 582.465 172.461 582.535 172.068 582.537L171.664 582.536C171.298 582.433 170.959 582.25 170.683 582.009 170.46 581.815 170.279 581.586 170.155 581.334 170.031 581.082 169.962 580.808 169.962 580.514 169.962 580.452 169.964 580.389 169.971 580.326 170.003 580.009 170.078 579.749 170.181 579.535 170.336 579.216 170.549 578.998 170.796 578.852 171.042 578.707 171.326 578.636 171.608 578.637 171.894 578.636 172.177 578.71 172.411 578.841 172.646 578.973 172.83 579.159 172.941 579.39 173 579.512 173.036 579.675 173.036 579.839 173.036 579.974 173.012 580.108 172.968 580.22 172.925 580.333 172.863 580.421 172.791 580.483 172.656 580.596 172.518 580.639 172.378 580.64 172.257 580.64 172.136 580.604 172.035 580.538 171.933 580.473 171.854 580.382 171.808 580.274L171.067 580.592C171.18 580.856 171.37 581.07 171.6 581.217 171.828 581.364 172.098 581.446 172.378 581.446 172.699 581.448 173.036 581.334 173.314 581.096 173.504 580.934 173.636 580.729 173.72 580.512 173.804 580.296 173.842 580.066 173.842 579.839 173.842 579.564 173.786 579.289 173.668 579.041 173.478 578.645 173.166 578.34 172.805 578.138 172.451 577.94 172.047 577.836 171.637 577.831L171.637 577.825 159.825 577.825C160.867 575.541 161.472 573.32 161.817 571.197 162.185 568.932 162.258 566.778 162.258 564.771 162.258 563.617 162.234 562.514 162.227 561.463L178.757 561.463C178.765 562.606 178.79 563.875 178.79 565.217 178.791 568.162 178.663 571.451 177.964 574.432Z" fill="#70AD47"/><path d="M170.817 568.564C170.959 566.983 170.966 565.47 170.951 564.039L164.687 564.039C164.701 565.47 164.694 566.983 164.552 568.564L170.817 568.564Z" fill="#70AD47"/></g></g></g><text font-family="Calibri,Calibri_MSFontService,sans-serif" font-weight="400" font-size="11" transform="translate(171.737 570)">1</text><rect x="518.5" y="447.5" width="56" height="29" stroke="#000000" stroke-width="0.666667" stroke-miterlimit="8" fill="#FFFFFF"/><text font-family="Yu Gothic,Yu Gothic_MSFontService,sans-serif" font-weight="400" font-size="12" transform="translate(529.259 465)">顧客<tspan font-family="Calibri,Calibri_MSFontService,sans-serif" font-size="12" x="24" y="0">ID</tspan></text><rect x="518.5" y="476.5" width="56" height="29" stroke="#000000" stroke-width="0.666667" stroke-miterlimit="8" fill="#FFFFFF"/><text font-family="Calibri,Calibri_MSFontService,sans-serif" font-weight="400" font-size="11" transform="translate(535.592 494)">C003</text><rect x="518.5" y="505.5" width="56" height="29" stroke="#000000" stroke-width="0.666667" stroke-miterlimit="8" fill="#FFFFFF"/><text font-family="Calibri,Calibri_MSFontService,sans-serif" font-weight="400" font-size="11" transform="translate(535.592 523)">C003</text><rect x="518.5" y="534.5" width="56" height="29" stroke="#000000" stroke-width="0.666667" stroke-miterlimit="8" fill="#FFFFFF"/><text font-family="Calibri,Calibri_MSFontService,sans-serif" font-weight="400" font-size="11" transform="translate(535.592 552)">C026</text><rect x="518.5" y="563.5" width="56" height="29" stroke="#000000" stroke-width="0.666667" stroke-miterlimit="8" fill="#FFFFFF"/><text font-family="Calibri,Calibri_MSFontService,sans-serif" font-weight="400" font-size="11" transform="translate(535.592 581)">C172</text><rect x="574.5" y="447.5" width="57" height="29" stroke="#000000" stroke-width="0.666667" stroke-miterlimit="8" fill="#FFFFFF"/><text font-family="Yu Gothic,Yu Gothic_MSFontService,sans-serif" font-weight="400" font-size="11" transform="translate(591.83 459)">商品<tspan font-size="11" x="-5.33331" y="13">コード</tspan></text><rect x="574.5" y="476.5" width="57" height="29" stroke="#000000" stroke-width="0.666667" stroke-miterlimit="8" fill="#FFFFFF"/><text font-family="Calibri,Calibri_MSFontService,sans-serif" font-weight="400" font-size="11" transform="translate(591.747 494)">P031</text><rect x="574.5" y="505.5" width="57" height="29" stroke="#000000" stroke-width="0.666667" stroke-miterlimit="8" fill="#FFFFFF"/><text font-family="Calibri,Calibri_MSFontService,sans-serif" font-weight="400" font-size="11" transform="translate(591.08 523)">N008</text><rect x="574.5" y="534.5" width="57" height="29" stroke="#000000" stroke-width="0.666667" stroke-miterlimit="8" fill="#FFFFFF"/><text font-family="Calibri,Calibri_MSFontService,sans-serif" font-weight="400" font-size="11" transform="translate(591.08 552)">N008</text><rect x="574.5" y="563.5" width="57" height="29" stroke="#000000" stroke-width="0.666667" stroke-miterlimit="8" fill="#FFFFFF"/><text font-family="Calibri,Calibri_MSFontService,sans-serif" font-weight="400" font-size="11" transform="translate(591.08 581)">N008</text><rect x="352.5" y="447.5" width="56" height="29" stroke="#000000" stroke-width="0.666667" stroke-miterlimit="8" fill="#FFFFFF"/><text font-family="Yu Gothic,Yu Gothic_MSFontService,sans-serif" font-weight="400" font-size="12" transform="translate(362.612 465)">注文<tspan font-family="Calibri,Calibri_MSFontService,sans-serif" font-size="12" x="24" y="0">ID</tspan></text><rect x="408.5" y="447.5" width="56" height="29" stroke="#000000" stroke-width="0.666667" stroke-miterlimit="8" fill="#FFFFFF"/><text font-family="Yu Gothic,Yu Gothic_MSFontService,sans-serif" font-weight="400" font-size="12" transform="translate(423.85 465)">個数</text><rect x="463.5" y="447.5" width="56" height="29" stroke="#000000" stroke-width="0.666667" stroke-miterlimit="8" fill="#FFFFFF"/><text font-family="Yu Gothic,Yu Gothic_MSFontService,sans-serif" font-weight="400" font-size="12" transform="translate(478.877 465)">金額</text><rect x="352.5" y="476.5" width="56" height="29" stroke="#000000" stroke-width="0.666667" stroke-miterlimit="8" fill="#FFFFFF"/><text font-family="Calibri,Calibri_MSFontService,sans-serif" font-weight="400" font-size="11" transform="translate(363.529 488)">C003P0<tspan font-size="11" x="1.24667" y="13">31</tspan><tspan font-size="11" x="11.9133" y="13">-</tspan><tspan font-size="11" x="15.2467" y="13">001</tspan></text><rect x="408.5" y="476.5" width="56" height="29" stroke="#000000" stroke-width="0.666667" stroke-miterlimit="8" fill="#FFFFFF"/><text font-family="Calibri,Calibri_MSFontService,sans-serif" font-weight="400" font-size="11" transform="translate(433.183 494)">2</text><rect x="463.5" y="476.5" width="56" height="29" stroke="#000000" stroke-width="0.666667" stroke-miterlimit="8" fill="#FFFFFF"/><text font-family="Calibri,Calibri_MSFontService,sans-serif" font-weight="400" font-size="11" transform="translate(480.21 494)">1400</text><rect x="352.5" y="505.5" width="56" height="29" stroke="#000000" stroke-width="0.666667" stroke-miterlimit="8" fill="#FFFFFF"/><text font-family="Calibri,Calibri_MSFontService,sans-serif" font-weight="400" font-size="11" transform="translate(362.862 517)">C003N0<tspan font-size="11" x="1.91333" y="13">08</tspan><tspan font-size="11" x="12.58" y="13">-</tspan><tspan font-size="11" x="15.9133" y="13">005</tspan></text><rect x="408.5" y="505.5" width="56" height="29" stroke="#000000" stroke-width="0.666667" stroke-miterlimit="8" fill="#FFFFFF"/><text font-family="Calibri,Calibri_MSFontService,sans-serif" font-weight="400" font-size="11" transform="translate(433.183 523)">1</text><rect x="463.5" y="505.5" width="56" height="29" stroke="#000000" stroke-width="0.666667" stroke-miterlimit="8" fill="#FFFFFF"/><text font-family="Calibri,Calibri_MSFontService,sans-serif" font-weight="400" font-size="11" transform="translate(480.21 523)">3500</text><rect x="352.5" y="534.5" width="56" height="29" stroke="#000000" stroke-width="0.666667" stroke-miterlimit="8" fill="#FFFFFF"/><text font-family="Calibri,Calibri_MSFontService,sans-serif" font-weight="400" font-size="11" transform="translate(362.862 546)">C026N0<tspan font-size="11" x="1.91333" y="13">08</tspan><tspan font-size="11" x="12.58" y="13">-</tspan><tspan font-size="11" x="15.9133" y="13">052</tspan></text><rect x="408.5" y="534.5" width="56" height="29" stroke="#000000" stroke-width="0.666667" stroke-miterlimit="8" fill="#FFFFFF"/><text font-family="Calibri,Calibri_MSFontService,sans-serif" font-weight="400" font-size="11" transform="translate(430.517 552)">5<tspan font-size="11" x="5.33334" y="0">0</tspan></text><rect x="463.5" y="534.5" width="56" height="29" stroke="#000000" stroke-width="0.666667" stroke-miterlimit="8" fill="#FFFFFF"/><text font-family="Calibri,Calibri_MSFontService,sans-serif" font-weight="400" font-size="11" transform="translate(477.544 552)">63000</text><rect x="352.5" y="563.5" width="56" height="29" stroke="#000000" stroke-width="0.666667" stroke-miterlimit="8" fill="#FFFFFF"/><text font-family="Calibri,Calibri_MSFontService,sans-serif" font-weight="400" font-size="11" transform="translate(362.862 575)">C072N0<tspan font-size="11" x="1.91333" y="13">08</tspan><tspan font-size="11" x="12.58" y="13">-</tspan><tspan font-size="11" x="15.9133" y="13">001</tspan></text><rect x="408.5" y="563.5" width="56" height="29" stroke="#000000" stroke-width="0.666667" stroke-miterlimit="8" fill="#FFFFFF"/><text font-family="Calibri,Calibri_MSFontService,sans-serif" font-weight="400" font-size="11" transform="translate(433.183 581)">1</text><rect x="463.5" y="563.5" width="56" height="29" stroke="#000000" stroke-width="0.666667" stroke-miterlimit="8" fill="#FFFFFF"/><text font-family="Calibri,Calibri_MSFontService,sans-serif" font-weight="400" font-size="11" transform="translate(480.21 581)">3500</text><path d="M344.5 563C344.5 558.858 347.858 555.5 352 555.5L629 555.5C633.142 555.5 636.5 558.858 636.5 563L636.5 593C636.5 597.142 633.142 600.5 629 600.5L352 600.5C347.858 600.5 344.5 597.142 344.5 593Z" stroke="#FF0000" stroke-width="1.33333" stroke-miterlimit="8" fill="none" fill-rule="evenodd"/></g></svg>