<svg width="608" height="518" xmlns="http://www.w3.org/2000/svg" xmlns:xlink="http://www.w3.org/1999/xlink" overflow="hidden"><defs><clipPath id="clip0"><rect x="56" y="93" width="608" height="518"/></clipPath><clipPath id="clip1"><rect x="566" y="336" width="27" height="27"/></clipPath><clipPath id="clip2"><rect x="566" y="336" width="27" height="27"/></clipPath><clipPath id="clip3"><rect x="566" y="336" width="27" height="27"/></clipPath><clipPath id="clip4"><rect x="566" y="210" width="27" height="26"/></clipPath><clipPath id="clip5"><rect x="566" y="210" width="27" height="26"/></clipPath><clipPath id="clip6"><rect x="566" y="210" width="27" height="26"/></clipPath><clipPath id="clip7"><rect x="417" y="336" width="27" height="27"/></clipPath><clipPath id="clip8"><rect x="417" y="336" width="27" height="27"/></clipPath><clipPath id="clip9"><rect x="417" y="336" width="27" height="27"/></clipPath><clipPath id="clip10"><rect x="418" y="273" width="26" height="27"/></clipPath><clipPath id="clip11"><rect x="418" y="273" width="26" height="27"/></clipPath><clipPath id="clip12"><rect x="418" y="273" width="26" height="27"/></clipPath><clipPath id="clip13"><rect x="417" y="210" width="27" height="26"/></clipPath><clipPath id="clip14"><rect x="417" y="210" width="27" height="26"/></clipPath><clipPath id="clip15"><rect x="417" y="210" width="27" height="26"/></clipPath><clipPath id="clip16"><rect x="567" y="273" width="26" height="27"/></clipPath><clipPath id="clip17"><rect x="567" y="273" width="26" height="27"/></clipPath><clipPath id="clip18"><rect x="567" y="273" width="26" height="27"/></clipPath><clipPath id="clip19"><rect x="484" y="275" width="26" height="26"/></clipPath><clipPath id="clip20"><rect x="484" y="275" width="26" height="26"/></clipPath><clipPath id="clip21"><rect x="484" y="275" width="26" height="26"/></clipPath><clipPath id="clip22"><rect x="508" y="205" width="26" height="26"/></clipPath><clipPath id="clip23"><rect x="508" y="205" width="26" height="26"/></clipPath><clipPath id="clip24"><rect x="508" y="205" width="26" height="26"/></clipPath><clipPath id="clip25"><rect x="474" y="226" width="27" height="26"/></clipPath><clipPath id="clip26"><rect x="474" y="226" width="27" height="26"/></clipPath><clipPath id="clip27"><rect x="474" y="226" width="27" height="26"/></clipPath><clipPath id="clip28"><rect x="465" y="326" width="26" height="26"/></clipPath><clipPath id="clip29"><rect x="465" y="326" width="26" height="26"/></clipPath><clipPath id="clip30"><rect x="465" y="326" width="26" height="26"/></clipPath><linearGradient x1="232.5" y1="288.5" x2="232.5" y2="373.5" gradientUnits="userSpaceOnUse" spreadMethod="reflect" id="fill31"><stop offset="0" stop-color="#FFDD9C"/><stop offset="0.5" stop-color="#FFD78E"/><stop offset="1" stop-color="#FFD479"/></linearGradient></defs><g clip-path="url(#clip0)" transform="translate(-56 -93)"><rect x="387" y="164" width="232" height="269" fill="#F2F2F2"/><text font-family="Yu Gothic,Yu Gothic_MSFontService,sans-serif" font-weight="400" font-size="16" transform="translate(463.088 184)">現実の世界</text><rect x="58.5001" y="94.5001" width="604" height="515" stroke="#D9D9D9" stroke-width="1.33333" stroke-miterlimit="8" fill="none"/><rect x="172.5" y="216.5" width="65" height="57" stroke="#000000" stroke-width="1.33333" stroke-miterlimit="8" fill="#FFFFFF"/><text font-family="Yu Gothic,Yu Gothic_MSFontService,sans-serif" font-weight="400" font-size="11" transform="translate(193.634 248)">注文</text><rect x="263.5" y="145.5" width="65" height="56" stroke="#FF0000" stroke-width="1.33333" stroke-miterlimit="8" fill="#FFFFFF"/><text font-family="Yu Gothic,Yu Gothic_MSFontService,sans-serif" font-weight="400" font-size="11" transform="translate(284.55 177)">商品</text><rect x="87.5001" y="146.5" width="65" height="57" stroke="#000000" stroke-width="1.33333" stroke-miterlimit="8" fill="#FFFFFF"/><text font-family="Yu Gothic,Yu Gothic_MSFontService,sans-serif" font-weight="400" font-size="11" transform="translate(108.947 178)">顧客</text><path d="M0 0 110.267 1.39465" stroke="#000000" stroke-width="0.666667" stroke-miterlimit="8" fill="none" fill-rule="evenodd" transform="matrix(1 0 0 -1 152.5 174.895)"/><path d="M204.32 216.073 204 173" stroke="#000000" stroke-width="2" stroke-miterlimit="8" stroke-dasharray="2 2" fill="none" fill-rule="evenodd"/><text font-family="Yu Gothic,Yu Gothic_MSFontService,sans-serif" font-weight="400" font-size="11" transform="translate(157.123 165)">発注者<tspan font-family="Calibri,Calibri_MSFontService,sans-serif" font-size="11" x="-0.145935" y="23">*</tspan><tspan font-family="Calibri,Calibri_MSFontService,sans-serif" font-size="11" x="91.6012" y="0">*</tspan><tspan font-size="11" x="60.3658" y="23">購入予約</tspan><tspan font-size="16" x="-89.8851" y="-51">インスタンスをすべて取り出す</tspan></text><g clip-path="url(#clip1)"><g clip-path="url(#clip2)"><g clip-path="url(#clip3)"><path d="M590.719 337.01C590.097 336.387 589.231 336 588.282 336L572.046 336C571.096 336 570.23 336.387 569.609 337.01 568.986 337.631 568.599 338.497 568.599 339.447L568.599 339.725 567.841 339.725C567.527 339.725 567.272 339.98 567.272 340.294 567.272 340.608 567.527 340.863 567.841 340.863L568.599 340.863 568.599 344.278 567.841 344.278C567.527 344.278 567.272 344.533 567.272 344.847 567.272 345.161 567.527 345.416 567.841 345.416L568.599 345.416 568.599 348.831 567.841 348.831C567.527 348.831 567.272 349.086 567.272 349.4 567.272 349.714 567.527 349.969 567.841 349.969L568.599 349.969 568.599 353.384 567.841 353.384C567.527 353.384 567.272 353.639 567.272 353.953 567.272 354.267 567.527 354.522 567.841 354.522L568.599 354.522 568.599 357.937 567.841 357.937C567.527 357.937 567.272 358.192 567.272 358.506 567.272 358.82 567.527 359.075 567.841 359.075L568.599 359.075 568.599 359.553C568.599 360.503 568.986 361.369 569.609 361.99 570.23 362.613 571.096 363 572.046 363L588.282 363C589.231 363 590.097 362.613 590.719 361.99 591.341 361.369 591.728 360.503 591.728 359.553L591.728 339.447C591.728 338.497 591.341 337.631 590.719 337.01ZM574.597 361.483 572.046 361.483C571.51 361.483 571.033 361.268 570.681 360.918 570.331 360.566 570.116 360.089 570.116 359.553L570.116 359.075 571.32 359.075C571.518 359.407 571.881 359.631 572.296 359.631 572.924 359.631 573.434 359.122 573.434 358.494 573.434 357.866 572.924 357.356 572.296 357.356 571.87 357.356 571.5 357.591 571.305 357.937L570.116 357.937 570.116 354.522 571.318 354.522C571.516 354.856 571.879 355.081 572.296 355.081 572.924 355.081 573.433 354.572 573.433 353.944 573.433 353.316 572.924 352.806 572.296 352.806 571.871 352.806 571.502 353.04 571.306 353.384L570.116 353.384 570.116 349.969 571.316 349.969C571.513 350.305 571.878 350.531 572.296 350.531 572.924 350.531 573.434 350.022 573.434 349.394 573.434 348.766 572.924 348.256 572.296 348.256 571.873 348.256 571.504 348.488 571.308 348.831L570.116 348.831 570.116 345.416 571.314 345.416C571.511 345.754 571.877 345.981 572.296 345.981 572.924 345.981 573.433 345.472 573.433 344.844 573.433 344.216 572.924 343.706 572.296 343.706 571.874 343.706 571.506 343.937 571.31 344.278L570.116 344.278 570.116 340.863 571.312 340.863C571.509 341.203 571.875 341.431 572.296 341.431 572.924 341.431 573.434 340.922 573.434 340.294 573.434 339.666 572.924 339.157 572.296 339.157 571.875 339.157 571.509 339.386 571.312 339.725L570.116 339.725 570.116 339.447C570.116 338.911 570.331 338.434 570.681 338.082 571.033 337.731 571.51 337.517 572.046 337.517L574.597 337.517 574.597 361.483ZM590.211 359.553C590.211 360.089 589.997 360.566 589.646 360.918 589.295 361.268 588.817 361.483 588.281 361.483L575.166 361.483 575.166 337.517 588.282 337.517C588.817 337.517 589.295 337.731 589.646 338.082 589.997 338.434 590.211 338.911 590.212 339.447L590.212 359.553Z" fill="#4B4B4B"/><path d="M577.489 341.965 587.557 341.965 587.557 342.533 577.489 342.533Z" fill="#4B4B4B"/><path d="M577.489 345.614 587.557 345.614 587.557 346.183 577.489 346.183Z" fill="#4B4B4B"/><path d="M577.489 349.264 587.557 349.264 587.557 349.833 577.489 349.833Z" fill="#4B4B4B"/><path d="M577.489 352.914 587.557 352.914 587.557 353.482 577.489 353.482Z" fill="#4B4B4B"/><path d="M577.489 356.563 587.557 356.563 587.557 357.132 577.489 357.132Z" fill="#4B4B4B"/></g></g></g><g clip-path="url(#clip4)"><g clip-path="url(#clip5)"><g clip-path="url(#clip6)"><path d="M17.3045 0 2.34147 14.963 0 26 11.0346 23.6585 26 8.69314 17.3045 0ZM17.3045 2.65809 19.9721 5.32568 7.32601 17.9702 4.65918 15.3034 17.3045 2.65809ZM5.58832 22.8706 3.12858 20.4109 4.07281 16.1214 9.87695 21.9264 5.58832 22.8706ZM10.695 21.3392 8.02897 18.6732 20.6735 6.02713 23.3411 8.69314 10.695 21.3392Z" fill="#4B4B4B" transform="matrix(1.03846 0 0 1 566 210)"/></g></g></g><g clip-path="url(#clip7)"><g clip-path="url(#clip8)"><g clip-path="url(#clip9)"><path d="M436.197 354.723C435.993 354.646 435.771 354.541 435.546 354.417L431.772 359.634 431.503 356.216 429.497 356.216 429.229 359.634 425.455 354.417C425.222 354.547 424.998 354.654 424.803 354.723 422.827 355.418 417.971 357.419 418.285 361.167 418.36 362.067 423.306 363 430.5 363 437.694 363 442.64 362.067 442.715 361.167 443.029 357.416 438.161 355.457 436.197 354.723Z" fill="#4B4B4B"/><path d="M426.044 346.983C426.319 348.54 426.78 349.913 427.388 350.589 427.388 351.4 427.388 351.992 427.388 352.466 427.388 352.513 427.38 352.563 427.366 352.615L429.497 353.641 429.497 355.147 431.503 355.147 431.503 353.641 433.633 352.616C433.619 352.564 433.611 352.514 433.611 352.466 433.611 351.992 433.611 351.4 433.611 350.589 434.22 349.913 434.682 348.54 434.957 346.983 435.597 346.754 435.964 346.388 436.421 344.786 436.907 343.08 435.689 343.138 435.689 343.138 436.674 339.875 435.377 336.809 433.204 337.034 431.705 334.411 426.684 337.633 425.11 337.408 425.11 338.308 425.485 338.982 425.485 338.982 424.938 340.02 425.149 342.091 425.303 343.138 425.214 343.136 424.112 343.148 424.579 344.786 425.037 346.388 425.403 346.754 426.044 346.983Z" fill="#4B4B4B"/></g></g></g><g clip-path="url(#clip10)"><g clip-path="url(#clip11)"><g clip-path="url(#clip12)"><path d="M22.1603 20.6101C21.5436 19.6866 20.606 19.1749 19.723 18.842 19.2807 18.6754 18.8473 18.5528 18.4654 18.4484 18.0846 18.3448 17.7525 18.2568 17.5286 18.1727 17.2116 18.0551 16.8838 17.9084 16.6151 17.7488L16.6151 16.0729 16.0284 16.1706C16.0284 16.0114 16.0284 15.8444 16.0284 15.6598 16.5275 15.1046 17.2467 14.2445 17.5395 12.8767 17.6442 12.83 17.7474 12.7774 17.8467 12.7085 18.0881 12.5419 18.2932 12.2997 18.4677 11.9691 18.6433 11.637 18.7991 11.2114 18.966 10.6282 19.0501 10.3335 19.0891 10.0776 19.0891 9.85065 19.0895 9.58897 19.0354 9.36279 18.9372 9.17978 18.829 8.97614 18.6717 8.83985 18.5187 8.75342L18.5187 8.12424C18.5386 8.10636 18.5635 8.09001 18.5814 8.07132 19.0805 7.55193 18.8819 6.94997 18.5342 6.50259 18.9707 5.88936 19.8433 4.47484 19.5972 3.24446 19.0724 0.621004 15.3794 0 13 0 10.6206 0 6.92758 0.621004 6.40311 3.24446 6.15702 4.47484 7.02919 5.88936 7.46606 6.50259 7.12847 6.93672 6.93652 7.51649 7.38232 8.02537L7.38232 8.82355C7.2636 8.90845 7.14675 9.02215 7.06301 9.17983 6.96455 9.3632 6.91077 9.58902 6.91118 9.8507 6.91118 10.0781 6.95007 10.3335 7.03422 10.6283 7.25695 11.405 7.45819 11.9054 7.71712 12.2709 7.84682 12.4524 7.99358 12.5976 8.15359 12.7086 8.25287 12.7774 8.35606 12.83 8.46041 12.8768 8.75362 14.2446 9.47233 15.1046 9.97186 15.6599 9.97186 15.8444 9.97186 16.0115 9.97186 16.1707L9.38473 16.073 9.38473 17.7492C9.35436 17.7679 9.32552 17.7869 9.29363 17.8049 9.03505 17.9524 8.73798 18.0794 8.47828 18.1709 8.17263 18.2791 7.68285 18.3912 7.13421 18.5482 6.30998 18.7865 5.33696 19.1299 4.54614 19.8073 4.15177 20.1464 3.8056 20.572 3.5623 21.1008 3.31815 21.6295 3.17799 22.2572 3.1784 22.9938 3.1784 23.1644 3.18576 23.3411 3.20135 23.5237 3.21222 23.6483 3.25975 23.7499 3.31622 23.8344 3.42327 23.9921 3.56657 24.1104 3.7472 24.2319 4.06296 24.4414 4.50181 24.6462 5.06477 24.8479 6.74964 25.4487 9.54098 25.9988 13 26 15.8103 25.9996 18.1827 25.6351 19.8748 25.1773 20.7216 24.9476 21.3972 24.6961 21.8846 24.4457 22.1287 24.32 22.3262 24.1953 22.4815 24.0594 22.559 23.9909 22.6271 23.9193 22.684 23.8348 22.74 23.7503 22.788 23.6483 22.7984 23.5237 22.814 23.3411 22.8214 23.1651 22.8214 22.9946 22.8227 22.0138 22.5707 21.2242 22.1603 20.6101ZM12.4845 2.98086 13.0004 1.83036 13.5159 2.98086 14.7692 3.11558 13.8347 3.96124 14.0937 5.19553 13.0004 4.56788 11.9067 5.19553 12.1656 3.96124 11.2308 3.11563 12.4845 2.98086ZM13 24.9491C12.6329 24.9491 12.3354 24.6513 12.3354 24.2842 12.3354 23.9174 12.6329 23.6195 13 23.6195 13.3671 23.6195 13.665 23.9174 13.665 24.2842 13.665 24.6513 13.3671 24.9491 13 24.9491ZM13 21.6914C12.6329 21.6914 12.3354 21.3935 12.3354 21.0267 12.3354 20.6592 12.6329 20.3618 13 20.3618 13.3671 20.3618 13.665 20.6592 13.665 21.0267 13.665 21.3935 13.3671 21.6914 13 21.6914ZM13 19.0321 9.60598 18.4664C9.72588 18.3998 9.84349 18.3297 9.95485 18.253 10.0187 18.2086 10.0767 18.1584 10.1362 18.1097L12.8754 18.566 12.8754 16.6547 10.7032 16.2926C10.7032 16.0617 10.7032 15.8106 10.7032 15.5205L10.7032 15.3804 10.609 15.2757C10.0884 14.6951 9.37975 13.9219 9.13443 12.5482L9.09746 12.3387 8.89769 12.2671C8.76378 12.2196 8.66094 12.1705 8.57101 12.1082 8.43786 12.0144 8.31751 11.8855 8.17852 11.6262 8.0407 11.3684 7.89588 10.9842 7.73739 10.4278 7.66771 10.1836 7.64243 9.99324 7.64243 9.85075 7.64278 9.68602 7.67432 9.58791 7.70783 9.52484 7.75805 9.43333 7.82077 9.39362 7.89862 9.36249 7.9103 9.35817 7.92198 9.35507 7.93366 9.35157L9.2107 10.3386 9.2107 8.82634C10.5879 9.11874 12.287 9.17485 12.9999 9.17485 13.6961 9.17485 15.3318 9.12265 16.6902 8.84853L16.6902 10.3386 17.988 9.33522C18.0394 9.34263 18.1161 9.35939 18.1745 9.39829 18.2204 9.42749 18.2582 9.46217 18.2925 9.52484 18.3256 9.58791 18.3571 9.68561 18.3575 9.85075 18.3575 9.99324 18.3325 10.1833 18.2629 10.4278 18.0518 11.1703 17.8626 11.6032 17.6874 11.8458 17.5998 11.968 17.5192 12.0452 17.4292 12.1082 17.3393 12.1705 17.2362 12.2196 17.1026 12.2671L16.9024 12.3387 16.8655 12.5482C16.6206 13.9218 15.9119 14.6951 15.391 15.2757L15.2971 15.3804 15.2971 15.5205C15.2971 15.8106 15.2971 16.0618 15.2971 16.2926L13.1249 16.6547 13.1249 18.566 15.8543 18.1112C15.9949 18.2257 16.1498 18.3277 16.313 18.4216 16.341 18.4376 16.3714 18.45 16.3998 18.4652L13 19.0321Z" fill="#4B4B4B" transform="matrix(1 0 0 1.03846 418 273)"/></g></g></g><g clip-path="url(#clip13)"><g clip-path="url(#clip14)"><g clip-path="url(#clip15)"><path d="M8.25663 7.47464C8.25663 7.47464 11.1312 8.05005 14.8682 4.31239 16.5932 6.61278 17.744 7.76237 17.744 7.76237L17.744 11.2135C18.8981 10.0232 19.6125 8.40222 19.6125 6.61278 19.6125 2.96045 16.652 0 12.9997 0 9.34852 0 6.38808 2.96045 6.38808 6.61278 6.38808 8.40222 7.10135 10.0231 8.25657 11.2135L8.25657 7.47464Z" fill="#4B4B4B" transform="matrix(1.03846 0 0 1 417 210)"/><path d="M17.4342 15.1037C16.9702 15.3574 12.9997 24.0744 12.9997 24.0744 12.9997 24.0744 9.02987 15.3574 8.56522 15.1037 4.09571 16.7162 3.89614 20.3283 3.89614 26L22.1039 26C22.1039 20.3283 21.9043 16.7162 17.4342 15.1037Z" fill="#4B4B4B" transform="matrix(1.03846 0 0 1 417 210)"/><path d="M11.0204 14.7142 11.0204 17.3536 12.9997 16.6805 14.9796 17.3536 14.9796 14.7142 12.9997 15.3874Z" fill="#4B4B4B" transform="matrix(1.03846 0 0 1 417 210)"/></g></g></g><g clip-path="url(#clip16)"><g clip-path="url(#clip17)"><g clip-path="url(#clip18)"><path d="M5.19624 3.68103C4.9137 3.68022 4.66588 3.5688 4.47982 3.38396 4.29498 3.1979 4.18321 2.94968 4.18275 2.66713 4.18316 2.38459 4.29498 2.13637 4.47941 1.9503 4.66548 1.76541 4.9137 1.65405 5.19624 1.65323L22.6438 1.65359 22.6438 0.000355469 5.19624 0C3.72303 0.0008125 2.52992 1.19392 2.52952 2.66713L2.52952 23.3328C2.52992 24.806 3.72303 25.9991 5.19624 25.9999L23.4705 25.9999 23.4705 3.68103 5.19624 3.68103ZM21.8172 24.3464 5.80816 24.3468 5.80816 5.33432 21.8172 5.33432 21.8172 24.3464Z" fill="#4B4B4B" transform="matrix(1 0 0 1.03846 567 273)"/><path d="M19.4407 21.4536 19.4407 7.60754 8.2812 7.60754 8.2812 22.0735 19.4407 22.0735 19.4407 21.4536ZM18.2007 20.8336 9.52113 20.8336 9.52113 8.84747 18.2007 8.84747 18.2007 20.8336Z" fill="#4B4B4B" transform="matrix(1 0 0 1.03846 567 273)"/><path d="M11.381 17.4238 16.3408 17.4238 16.3408 18.3537 11.381 18.3537Z" fill="#4B4B4B" transform="matrix(1 0 0 1.03846 567 273)"/></g></g></g><path d="M444.5 287.167 447.167 287.167 447.167 287.833 444.5 287.833ZM449.167 287.167 451.833 287.167 451.833 287.833 449.167 287.833ZM453.833 287.167 455.939 287.167 456.502 287.17 456.498 287.837 455.936 287.833 455.938 287.833 453.833 287.833ZM458.502 287.181 461.169 287.196 461.165 287.863 458.498 287.848ZM463.168 287.207 465.835 287.222 465.831 287.889 463.165 287.874ZM467.835 287.234 470.502 287.25 470.498 287.917 467.831 287.901ZM472.502 287.262 475.168 287.278 475.164 287.945 472.498 287.929ZM477.168 287.29 477.378 287.292 479.837 287.325 479.828 287.991 477.371 287.958 477.373 287.958 477.164 287.957ZM481.837 287.352 484.504 287.387 484.495 288.054 481.828 288.018ZM486.503 287.414 486.692 287.417 486.688 287.417 489.166 287.417 489.166 288.083 486.685 288.083 486.494 288.081ZM491.171 287.423 493.837 287.467 493.826 288.134 491.16 288.089ZM495.838 287.504 497.819 287.542 498.505 287.557 498.49 288.224 497.806 288.208 495.825 288.17ZM500.504 287.601 500.634 287.604 502.823 287.667 503.175 287.68 503.15 288.346 502.8 288.333 502.803 288.333 500.616 288.271 500.618 288.271 500.49 288.268ZM505.181 287.771 505.538 287.793 505.93 287.859 506.305 287.921 506.271 287.917 507.271 287.98 507.262 287.979 507.826 288 507.801 288.667 507.233 288.646 506.212 288.582 505.82 288.516 505.445 288.454 505.479 288.458 505.14 288.437ZM509.822 288.067 511.135 288.104 511.132 288.104 512.486 288.134 512.471 288.801 511.117 288.771 509.803 288.733ZM514.484 288.177 517.151 288.228 517.138 288.895 514.471 288.844ZM519.149 288.262 520.943 288.292 520.938 288.292 521.81 288.292 521.81 288.958 520.935 288.958 519.138 288.928ZM523.81 288.292 525.065 288.292 526.481 288.311 526.472 288.977 525.058 288.958 525.063 288.958 523.81 288.958ZM528.481 288.338 531.147 288.373 531.139 289.04 528.472 289.004ZM533.147 288.4 534.38 288.417 534.377 288.417 535.811 288.425 535.807 289.092 534.372 289.083 533.138 289.067ZM537.811 288.438 540.478 288.454 540.474 289.12 537.807 289.104ZM542.478 288.466 544.69 288.479 545.144 288.482 545.141 289.148 544.686 289.146 542.474 289.132ZM547.144 288.493 549.811 288.508 549.807 289.175 547.141 289.16ZM551.811 288.519 554.478 288.534 554.474 289.201 551.807 289.186ZM556.476 288.542 559.142 288.542 559.142 289.208 556.476 289.208ZM561.142 288.542 563.809 288.542 563.809 289.208 561.142 289.208ZM565.809 288.542 566.59 288.542 566.59 289.208 565.809 289.208ZM558.758 283.92 567.252 288.875 558.758 293.83C558.599 293.922 558.395 293.869 558.302 293.71 558.209 293.551 558.263 293.347 558.422 293.254L566.422 288.587 566.422 289.163 558.422 284.496C558.263 284.404 558.209 284.199 558.302 284.04 558.395 283.881 558.599 283.828 558.758 283.92Z"/><g clip-path="url(#clip19)"><g clip-path="url(#clip20)"><g clip-path="url(#clip21)"><path d="M494.13 286.916 505.327 286.916 505.327 287.856 494.13 287.856Z"/><path d="M493.164 290.634 504.362 290.634 504.362 291.575 493.164 291.575Z"/><path d="M509.964 276.859 509.964 276.254 491.014 276.254 491.014 276.859C491.014 278.108 491.048 279.415 491.048 280.771 491.048 282.749 490.976 284.833 490.623 287.003 490.288 289.066 489.7 291.207 488.68 293.415L486.856 293.415C486.534 293.415 486.209 293.466 485.895 293.575 485.424 293.739 484.979 294.037 484.642 294.475 484.304 294.912 484.081 295.481 484.015 296.152 484.005 296.249 484 296.345 484 296.441 484 296.927 484.125 297.385 484.335 297.787 484.652 298.391 485.152 298.871 485.733 299.206 486.315 299.541 486.982 299.734 487.662 299.738L502.068 299.746C502.616 299.748 503.092 299.636 503.496 299.452 503.902 299.269 504.232 299.025 504.539 298.781 505.794 297.781 506.764 296.543 507.508 295.168 508.625 293.103 509.241 290.731 509.586 288.319 509.93 285.907 510 283.452 510 281.217 510 279.616 509.964 278.128 509.964 276.859ZM487.669 298.529 487.669 298.529C487.369 298.527 487.057 298.468 486.763 298.358 486.32 298.194 485.919 297.915 485.643 297.579 485.504 297.411 485.396 297.229 485.322 297.04 485.249 296.85 485.21 296.652 485.21 296.441 485.21 296.386 485.212 296.329 485.218 296.272 485.25 295.953 485.327 295.697 485.429 295.49 485.582 295.181 485.79 294.975 486.035 294.834 486.28 294.695 486.567 294.631 486.856 294.631L499.82 294.631C499.68 294.793 499.555 294.977 499.455 295.185 499.307 295.491 499.208 295.846 499.168 296.245 499.16 296.336 499.155 296.425 499.155 296.514 499.155 296.936 499.256 297.336 499.432 297.691 499.59 298.011 499.807 298.294 500.065 298.536L487.669 298.529ZM507.964 290.432C507.615 291.923 507.125 293.336 506.444 294.592 505.764 295.849 504.896 296.949 503.785 297.835 503.505 298.059 503.259 298.232 502.999 298.349 502.739 298.465 502.461 298.535 502.068 298.537L501.664 298.536C501.298 298.433 500.959 298.249 500.683 298.009 500.46 297.815 500.279 297.586 500.155 297.334 500.031 297.082 499.962 296.808 499.962 296.514 499.962 296.452 499.964 296.389 499.971 296.326 500.003 296.009 500.078 295.749 500.181 295.535 500.336 295.216 500.549 294.998 500.796 294.852 501.042 294.707 501.326 294.636 501.608 294.637 501.894 294.636 502.177 294.71 502.411 294.841 502.646 294.973 502.83 295.159 502.941 295.39 503 295.512 503.036 295.675 503.036 295.839 503.036 295.974 503.012 296.108 502.968 296.22 502.925 296.333 502.863 296.421 502.791 296.483 502.656 296.596 502.518 296.639 502.379 296.64 502.257 296.64 502.136 296.604 502.035 296.538 501.933 296.473 501.854 296.382 501.808 296.274L501.067 296.592C501.18 296.856 501.37 297.07 501.6 297.217 501.828 297.364 502.098 297.446 502.379 297.446 502.699 297.448 503.036 297.334 503.314 297.096 503.504 296.934 503.636 296.729 503.72 296.512 503.804 296.296 503.842 296.066 503.842 295.839 503.842 295.564 503.786 295.289 503.668 295.041 503.478 294.645 503.166 294.34 502.805 294.138 502.451 293.94 502.047 293.836 501.637 293.831L501.637 293.825 489.825 293.825C490.867 291.541 491.472 289.32 491.817 287.197 492.185 284.932 492.258 282.778 492.258 280.771 492.258 279.617 492.234 278.514 492.227 277.463L508.757 277.463C508.765 278.606 508.79 279.875 508.79 281.217 508.791 284.162 508.663 287.451 507.964 290.432Z"/><path d="M500.817 284.564C500.959 282.983 500.966 281.47 500.951 280.039L494.687 280.039C494.701 281.47 494.694 282.983 494.552 284.564L500.817 284.564Z"/></g></g></g><text font-family="Calibri,Calibri_MSFontService,sans-serif" font-weight="400" font-size="11" transform="translate(501.583 286)">3</text><path d="M444.5 223.167 447.167 223.167 447.167 223.833 444.5 223.833ZM449.167 223.167 451.833 223.167 451.833 223.833 449.167 223.833ZM453.833 223.167 455.939 223.167 456.502 223.17 456.498 223.837 455.936 223.833 455.938 223.833 453.833 223.833ZM458.502 223.181 461.169 223.196 461.165 223.863 458.498 223.848ZM463.168 223.207 465.835 223.222 465.831 223.889 463.165 223.874ZM467.835 223.234 470.502 223.25 470.498 223.917 467.831 223.901ZM472.502 223.262 475.168 223.278 475.164 223.945 472.498 223.929ZM477.168 223.29 477.378 223.292 479.837 223.325 479.828 223.991 477.371 223.958 477.373 223.958 477.164 223.957ZM481.837 223.352 484.504 223.387 484.495 224.054 481.828 224.018ZM486.503 223.414 486.692 223.417 486.688 223.417 489.166 223.417 489.166 224.083 486.685 224.083 486.494 224.081ZM491.171 223.423 493.837 223.467 493.826 224.134 491.16 224.089ZM495.838 223.504 497.819 223.542 498.505 223.557 498.49 224.224 497.806 224.208 495.825 224.17ZM500.504 223.601 500.634 223.604 502.823 223.667 503.175 223.68 503.15 224.346 502.8 224.333 502.803 224.333 500.616 224.271 500.618 224.271 500.49 224.268ZM505.181 223.771 505.538 223.793 505.93 223.859 506.305 223.921 506.271 223.917 507.271 223.98 507.262 223.979 507.826 224 507.801 224.667 507.233 224.645 506.212 224.582 505.82 224.516 505.445 224.454 505.479 224.458 505.14 224.436ZM509.822 224.067 511.135 224.104 511.132 224.104 512.486 224.134 512.471 224.801 511.117 224.771 509.803 224.733ZM514.484 224.177 517.151 224.228 517.138 224.895 514.471 224.844ZM519.149 224.262 520.943 224.292 520.938 224.292 521.81 224.292 521.81 224.958 520.935 224.958 519.138 224.928ZM523.81 224.292 525.065 224.292 526.481 224.311 526.472 224.977 525.058 224.958 525.063 224.958 523.81 224.958ZM528.481 224.338 531.147 224.373 531.139 225.04 528.472 225.004ZM533.147 224.4 534.38 224.417 534.377 224.417 535.811 224.425 535.807 225.092 534.372 225.083 533.138 225.067ZM537.811 224.438 540.478 224.454 540.474 225.12 537.807 225.104ZM542.478 224.466 544.69 224.479 545.144 224.482 545.141 225.148 544.686 225.146 542.474 225.132ZM547.144 224.493 549.811 224.508 549.807 225.175 547.141 225.16ZM551.811 224.519 554.478 224.534 554.474 225.201 551.807 225.186ZM556.476 224.542 559.142 224.542 559.142 225.208 556.476 225.208ZM561.142 224.542 563.809 224.542 563.809 225.208 561.142 225.208ZM565.809 224.542 566.59 224.542 566.59 225.208 565.809 225.208ZM558.758 219.92 567.252 224.875 558.758 229.83C558.599 229.922 558.395 229.869 558.302 229.71 558.209 229.551 558.263 229.347 558.422 229.254L566.422 224.587 566.422 225.163 558.422 220.496C558.263 220.404 558.209 220.199 558.302 220.04 558.395 219.881 558.599 219.828 558.758 219.92Z"/><path d="M444.52 223.167 447.182 223.326 447.142 223.992 444.48 223.833ZM449.178 223.446 451.84 223.605 451.8 224.27 449.139 224.111ZM453.837 223.724 456.041 223.856 456.533 223.948 456.41 224.603 455.939 224.515 455.98 224.52 453.797 224.39ZM458.499 224.314 461.12 224.803 460.998 225.458 458.376 224.97ZM463.086 225.17 465.708 225.658 465.586 226.314 462.964 225.825ZM467.694 226.091 470.249 226.856 470.058 227.495 467.503 226.73ZM472.165 227.43 474.72 228.195 474.528 228.833 471.974 228.068ZM476.635 228.768 477.615 229.061 479.159 229.735 478.892 230.346 477.367 229.681 477.404 229.694 476.444 229.407ZM480.992 230.535 483.436 231.601 483.17 232.212 480.725 231.146ZM485.269 232.401 486.961 233.139 487.706 233.556 487.38 234.138 486.65 233.728 486.679 233.743 485.003 233.012ZM489.451 234.534 491.111 235.465 491.768 235.9 491.401 236.456 490.754 236.028 490.775 236.041 489.125 235.116ZM493.437 237.002 494.821 237.917 495.633 238.561 495.219 239.083 494.418 238.449 494.441 238.466 493.069 237.559ZM497.2 239.803 498.16 240.563 499.207 241.611 498.736 242.082 497.702 241.048 497.731 241.074 496.786 240.326ZM500.621 243.025 500.936 243.34 502.347 245.103 501.826 245.52 500.427 243.771 500.452 243.798 500.15 243.496ZM503.544 246.762 504.873 249.074 504.295 249.406 502.966 247.094ZM505.558 251.02 505.951 252.174 506.143 253.676 505.482 253.761 505.294 252.292 505.31 252.357 504.927 251.234ZM506.396 255.66 506.706 258.083 506.691 258.018 506.763 258.23 506.132 258.445 506.049 258.201 505.735 255.745ZM507.407 260.123 507.691 260.955 507.664 260.897 508.555 262.447 507.977 262.779 507.07 261.201 506.776 260.338ZM509.573 264.104 511.239 266.187 510.718 266.603 509.052 264.521ZM512.593 267.598 514.296 269.262 514.27 269.239 514.494 269.417 514.08 269.939 513.842 269.751 512.127 268.075ZM516.062 270.659 517.582 271.864 517.562 271.849 518.164 272.257 517.79 272.809 517.178 272.394 515.648 271.181ZM519.819 273.379 521.25 274.349 521.224 274.333 522.045 274.787 521.723 275.37 520.888 274.909 519.445 273.931ZM523.796 275.754 525.411 276.646 525.384 276.632 526.136 276.963 525.868 277.573 525.102 277.237 523.474 276.337ZM527.967 277.767 530.409 278.839 530.141 279.45 527.699 278.377ZM532.24 279.643 534.634 280.695 534.596 280.681 534.645 280.696 534.454 281.334 534.385 281.313 531.972 280.254ZM536.561 281.269 539.116 282.034 538.925 282.673 536.37 281.908ZM541.032 282.608 543.587 283.373 543.395 284.011 540.841 283.246ZM545.479 283.884 548.103 284.359 547.985 285.015 545.36 284.54ZM550.071 284.714 552.695 285.189 552.577 285.845 549.953 285.37ZM554.664 285.545 556.059 285.797 556.02 285.792 557.266 285.867 557.226 286.532 555.96 286.457 554.545 286.201ZM559.262 285.986 561.924 286.145 561.885 286.811 559.223 286.652ZM563.921 286.265 566.583 286.424 566.543 287.089 563.881 286.93ZM559.319 281.36 567.502 286.813 558.727 291.252C558.563 291.335 558.363 291.269 558.28 291.105 558.196 290.94 558.262 290.74 558.427 290.657L566.691 286.476 566.656 287.051 558.949 281.915C558.796 281.813 558.754 281.606 558.857 281.453 558.959 281.299 559.166 281.258 559.319 281.36Z"/><path d="M0.019892-0.332739 2.68181-0.173603 2.64202 0.491875-0.019892 0.332739ZM4.67824-0.054251 7.34015 0.104885 7.30037 0.770364 4.63846 0.611228ZM9.33659 0.224237 11.5397 0.355947 12.0311 0.444785 11.9125 1.10082 11.4407 1.01552 11.4801 1.02024 9.29681 0.889716ZM13.9992 0.800599 16.6233 1.27502 16.5047 1.93105 13.8806 1.45663ZM18.5914 1.63083 21.2156 2.10525 21.097 2.76128 18.4728 2.28686ZM23.2051 2.53194 25.7597 3.29679 25.5685 3.93545 23.0139 3.17059ZM27.6757 3.87044 30.2303 4.63529 30.0391 5.27395 27.4845 4.50909ZM32.1463 5.20894 33.1149 5.49894 34.6692 6.177 34.4026 6.78805 32.8667 6.11803 32.9044 6.13183 31.9551 5.84759ZM36.5023 6.9767 38.9466 8.04297 38.68 8.65402 36.2358 7.58775ZM40.7797 8.84267 42.4592 9.57534 43.2174 9.9889 42.8982 10.5742 42.1529 10.1676 42.1792 10.1805 40.5132 9.45372ZM44.9732 10.9466 46.6112 11.8401 47.3007 12.3075 46.9266 12.8593 46.2504 12.4009 46.2779 12.4176 44.654 11.5319ZM48.9561 13.4298 50.3207 14.355 51.1425 14.9907 50.7345 15.518 49.921 14.8887 49.9379 14.9009 48.582 13.9816ZM52.7244 16.2144 53.6582 16.9368 54.739 18.0175 54.2675 18.489 53.2018 17.4232 53.2335 17.4512 52.3165 16.7417ZM56.1532 19.4318 56.4363 19.7149 57.8751 21.5134 57.3545 21.9298 55.9272 20.1457 55.9518 20.1732 55.6818 19.9032ZM59.0707 23.1703 60.4296 25.4855 60.4457 25.5328 59.8146 25.7476 59.8094 25.7324 59.8375 25.7937 58.4958 23.5078ZM61.0902 27.4261 61.4514 28.4869 61.6557 30.0872 60.9944 30.1716 60.7943 28.6047 60.8094 28.6699 60.4591 27.6409ZM61.9089 32.0711 62.2056 34.3953 62.1905 34.3301 62.2948 34.6364 61.6637 34.8513 61.5486 34.5131 61.2477 32.1555ZM62.9394 36.5298 63.1905 37.2676 63.1625 37.2063 64.1178 38.8339 63.5429 39.1713 62.5704 37.5145 62.3083 36.7446ZM65.1686 40.4741 66.8345 42.5564 66.3139 42.9728 64.648 40.8905ZM68.1927 43.9713 69.7982 45.5768 69.7665 45.5488 70.0797 45.7912 69.6718 46.3185 69.3418 46.0632 67.7213 44.4427ZM71.6617 47.0149 73.079 48.1113 73.062 48.0991 73.7861 48.59 73.412 49.1418 72.6793 48.645 71.2537 47.5422ZM75.4415 49.7123 76.7495 50.5991 76.7236 50.5832 77.6746 51.1084 77.3524 51.692 76.388 51.1594 75.0674 50.2641ZM79.4254 52.0752 80.9111 52.8957 80.8823 52.8815 81.7721 53.2663 81.5075 53.8782 80.6029 53.4871 79.1031 52.6588ZM83.6078 54.0602 86.0555 55.1186 85.7908 55.7305 83.3432 54.6721ZM87.8912 55.9124 90.1323 56.8815 90.0956 56.8682 90.3111 56.9327 90.1199 57.5714 89.8857 57.5012 87.6266 56.5243ZM92.2271 57.5063 94.7817 58.2712 94.5905 58.9098 92.0359 58.145ZM96.6977 58.8448 99.2523 59.6097 99.0611 60.2484 96.5065 59.4835ZM101.149 60.1024 103.773 60.5768 103.655 61.2329 101.031 60.7585ZM105.741 60.9327 108.366 61.4071 108.247 62.0631 105.623 61.5887ZM110.334 61.7629 111.559 61.9845 111.52 61.9798 112.939 62.0646 112.899 62.73 111.46 62.6441 110.215 62.4189ZM114.935 62.1839 117.597 62.3431 117.557 63.0085 114.895 62.8494ZM119.593 62.4624 122.255 62.6216 122.215 63.287 119.554 63.1279ZM114.819 57.5475 123.002 63.0001 114.227 67.439C114.063 67.5221 113.863 67.4563 113.78 67.2921 113.696 67.1278 113.762 66.9273 113.926 66.8442L122.191 62.6632 122.156 63.238 114.449 58.1023C114.296 58.0002 114.254 57.7932 114.357 57.64 114.459 57.4868 114.666 57.4454 114.819 57.5475Z" transform="matrix(1 0 0 -1 444.5 350.461)"/><g clip-path="url(#clip22)"><g clip-path="url(#clip23)"><g clip-path="url(#clip24)"><path d="M518.13 216.916 529.327 216.916 529.327 217.856 518.13 217.856Z"/><path d="M517.164 220.634 528.362 220.634 528.362 221.575 517.164 221.575Z"/><path d="M533.964 206.859 533.964 206.254 515.014 206.254 515.014 206.859C515.014 208.108 515.048 209.415 515.048 210.771 515.048 212.749 514.976 214.833 514.623 217.003 514.288 219.066 513.7 221.207 512.68 223.415L510.856 223.415C510.534 223.415 510.209 223.466 509.895 223.575 509.424 223.739 508.979 224.037 508.642 224.475 508.304 224.912 508.081 225.481 508.015 226.152 508.005 226.249 508 226.345 508 226.441 508 226.927 508.125 227.385 508.335 227.787 508.652 228.391 509.152 228.871 509.733 229.206 510.315 229.541 510.982 229.734 511.662 229.738L526.068 229.746C526.616 229.748 527.092 229.636 527.497 229.452 527.902 229.269 528.232 229.025 528.539 228.781 529.794 227.781 530.764 226.543 531.508 225.168 532.625 223.103 533.241 220.731 533.586 218.319 533.93 215.907 534 213.452 534 211.217 534 209.616 533.964 208.128 533.964 206.859ZM511.669 228.529 511.669 228.529C511.369 228.527 511.057 228.468 510.763 228.358 510.32 228.194 509.919 227.915 509.643 227.579 509.504 227.411 509.396 227.229 509.322 227.04 509.249 226.85 509.21 226.652 509.21 226.441 509.21 226.386 509.212 226.329 509.218 226.272 509.25 225.953 509.327 225.697 509.429 225.49 509.582 225.181 509.79 224.975 510.035 224.834 510.28 224.695 510.567 224.631 510.856 224.631L523.82 224.631C523.68 224.793 523.555 224.977 523.455 225.186 523.307 225.491 523.208 225.846 523.168 226.245 523.16 226.336 523.155 226.425 523.155 226.514 523.155 226.936 523.256 227.336 523.432 227.691 523.59 228.011 523.807 228.294 524.065 228.536L511.669 228.529ZM531.964 220.432C531.615 221.923 531.125 223.336 530.444 224.592 529.764 225.849 528.896 226.949 527.785 227.835 527.505 228.059 527.259 228.232 526.999 228.349 526.739 228.465 526.461 228.535 526.068 228.537L525.664 228.536C525.298 228.433 524.959 228.249 524.683 228.009 524.46 227.815 524.279 227.586 524.155 227.334 524.031 227.082 523.962 226.808 523.962 226.514 523.962 226.452 523.964 226.389 523.971 226.326 524.003 226.009 524.078 225.749 524.181 225.535 524.336 225.216 524.549 224.998 524.796 224.852 525.042 224.707 525.326 224.636 525.608 224.637 525.894 224.636 526.177 224.71 526.411 224.841 526.646 224.973 526.83 225.159 526.941 225.39 527 225.512 527.036 225.675 527.036 225.839 527.036 225.974 527.012 226.108 526.968 226.22 526.925 226.333 526.863 226.421 526.791 226.483 526.656 226.596 526.518 226.639 526.378 226.64 526.257 226.64 526.136 226.604 526.035 226.538 525.933 226.473 525.854 226.382 525.808 226.274L525.067 226.592C525.18 226.856 525.37 227.07 525.6 227.217 525.828 227.364 526.098 227.446 526.378 227.446 526.699 227.448 527.036 227.334 527.314 227.096 527.504 226.934 527.636 226.729 527.72 226.512 527.804 226.296 527.842 226.066 527.842 225.839 527.842 225.564 527.786 225.289 527.668 225.041 527.478 224.645 527.166 224.34 526.805 224.138 526.451 223.94 526.047 223.836 525.637 223.831L525.637 223.825 513.825 223.825C514.867 221.541 515.472 219.32 515.817 217.197 516.185 214.932 516.258 212.778 516.258 210.771 516.258 209.617 516.234 208.514 516.227 207.463L532.757 207.463C532.765 208.606 532.79 209.875 532.79 211.217 532.791 214.162 532.663 217.451 531.964 220.432Z"/><path d="M524.817 214.564C524.959 212.983 524.966 211.47 524.951 210.039L518.687 210.039C518.701 211.47 518.694 212.983 518.552 214.564L524.817 214.564Z"/></g></g></g><text font-family="Calibri,Calibri_MSFontService,sans-serif" font-weight="400" font-size="11" transform="translate(522.982 216)">12</text><g clip-path="url(#clip25)"><g clip-path="url(#clip26)"><g clip-path="url(#clip27)"><path d="M10.1296 11.9158 21.3271 11.9158 21.3271 12.8564 10.1296 12.8564Z" stroke="#FF0000" stroke-width="0.0508138" transform="matrix(1.03846 0 0 1 474 226)"/><path d="M9.16403 15.6341 20.3615 15.6341 20.3615 16.5752 9.16403 16.5752Z" stroke="#FF0000" stroke-width="0.0508138" transform="matrix(1.03846 0 0 1 474 226)"/><path d="M25.9636 1.8587 25.9636 1.25359 7.01375 1.25359 7.01375 1.8587C7.01375 3.10837 7.04849 4.41472 7.04849 5.77109 7.04849 7.74922 6.97562 9.83323 6.62299 12.0028 6.28753 14.0661 5.70004 16.2072 4.68041 18.4146L2.85639 18.4146C2.53409 18.4146 2.20868 18.4664 1.89475 18.5753 1.42446 18.7386 0.979215 19.0368 0.641977 19.475 0.303875 19.9123 0.0808437 20.481 0.0145234 21.1515 0.004875 21.2485 0 21.3451 0 21.4408-0.000457031 21.9269 0.124719 22.3853 0.335461 22.7871 0.652031 23.3913 1.15218 23.8713 1.73311 24.2063 2.31497 24.5409 2.98233 24.7336 3.66204 24.7384L18.0676 24.7464C18.6161 24.7477 19.0916 24.6357 19.4965 24.4517 19.9017 24.2687 20.2324 24.0254 20.5393 23.7808 21.7943 22.7814 22.7638 21.5427 23.5081 20.1679 24.6247 18.1033 25.2412 15.7313 25.5859 13.3193 25.9297 10.9073 25.9995 8.45183 25.9999 6.21679 26 4.61622 25.9636 3.12812 25.9636 1.8587ZM3.66869 23.5288 3.66915 23.5288C3.36878 23.5274 3.05744 23.4681 2.7628 23.358 2.32025 23.1937 1.91887 22.9153 1.64267 22.5794 1.50394 22.4112 1.39593 22.2294 1.32214 22.0398 1.24886 21.8496 1.20971 21.6517 1.20971 21.4409 1.20971 21.3856 1.21235 21.3293 1.21809 21.2723 1.25013 20.9526 1.32696 20.6966 1.42883 20.4898 1.5825 20.1807 1.79024 19.9752 2.03526 19.8342 2.27982 19.6946 2.56654 19.6314 2.85639 19.6314L15.8204 19.6314C15.6799 19.7925 15.5548 19.9769 15.4546 20.1855 15.3071 20.4911 15.2083 20.8459 15.1683 21.2451 15.1595 21.3359 15.1551 21.4251 15.1551 21.5138 15.1551 21.9362 15.2561 22.3362 15.4317 22.6915 15.5898 23.0107 15.8072 23.2944 16.0649 23.5359L3.66869 23.5288ZM23.9644 15.4322C23.6153 16.923 23.1248 18.3355 22.4442 19.5922 21.7636 20.8489 20.8964 21.9493 19.7854 22.835 19.5053 23.0589 19.2589 23.2324 18.9994 23.3487 18.7386 23.465 18.4607 23.5353 18.0681 23.5366L17.6642 23.5362C17.2984 23.4326 16.959 23.2495 16.6828 23.0088 16.4597 22.8152 16.2792 22.586 16.1549 22.334 16.0307 22.0819 15.9617 21.8079 15.9617 21.5137 15.9617 21.4523 15.9644 21.3895 15.971 21.3258 16.0026 21.0092 16.0781 20.7488 16.1808 20.5354 16.3359 20.2158 16.5493 19.9984 16.7961 19.8522 17.0424 19.7069 17.3256 19.6361 17.6083 19.6366 17.8938 19.6357 18.1765 19.7095 18.4106 19.8408 18.6455 19.973 18.8295 20.1587 18.9411 20.3901 18.9999 20.5122 19.0363 20.6751 19.0363 20.8394 19.0363 20.9741 19.0122 21.1081 18.9683 21.2201 18.9248 21.3329 18.8628 21.4212 18.7908 21.4827 18.6556 21.5964 18.5177 21.6394 18.3785 21.6403 18.2573 21.6403 18.1362 21.6038 18.0352 21.5384 17.9333 21.4734 17.8542 21.3821 17.8077 21.2736L17.0665 21.5916C17.1798 21.8564 17.3703 22.0702 17.5996 22.2173 17.8283 22.3644 18.0979 22.4465 18.3785 22.4465 18.6995 22.4478 19.0363 22.3341 19.3138 22.0965 19.5039 21.934 19.6356 21.7285 19.7199 21.5121 19.8038 21.2956 19.842 21.0663 19.842 20.8394 19.842 20.5636 19.7863 20.2892 19.6677 20.0411 19.4776 19.6454 19.1663 19.3402 18.8053 19.1378 18.4514 18.9398 18.0474 18.8362 17.6368 18.8309L17.6368 18.8247 5.82461 18.8247C6.86705 16.541 7.47216 14.32 7.81681 12.1969 8.18477 9.9321 8.25764 7.77832 8.25764 5.77119 8.25764 4.61723 8.23438 3.51421 8.22692 2.46345L24.7569 2.46345C24.7648 3.60638 24.7902 4.87541 24.7902 6.21684 24.7912 9.1618 24.6634 12.4507 23.9644 15.4322Z" stroke="#FF0000" stroke-width="0.0508138" transform="matrix(1.03846 0 0 1 474 226)"/><path d="M16.8171 9.56404C16.959 7.98327 16.966 6.47014 16.9515 5.03912L10.6868 5.03912C10.7013 6.47014 10.6938 7.98327 10.552 9.56404L16.8171 9.56404Z" stroke="#FF0000" stroke-width="0.0508138" transform="matrix(1.03846 0 0 1 474 226)"/></g></g></g><text font-family="Calibri,Calibri_MSFontService,sans-serif" font-weight="400" font-size="11" transform="translate(491.955 237)">2</text><g clip-path="url(#clip28)"><g clip-path="url(#clip29)"><g clip-path="url(#clip30)"><path d="M475.13 337.916 486.327 337.916 486.327 338.856 475.13 338.856Z" stroke="#FF0000" stroke-width="0.0508138"/><path d="M474.164 341.634 485.362 341.634 485.362 342.575 474.164 342.575Z" stroke="#FF0000" stroke-width="0.0508138"/><path d="M490.964 327.859 490.964 327.254 472.014 327.254 472.014 327.859C472.014 329.108 472.048 330.415 472.048 331.771 472.048 333.749 471.976 335.833 471.623 338.003 471.288 340.066 470.7 342.207 469.68 344.415L467.856 344.415C467.534 344.415 467.209 344.466 466.895 344.575 466.424 344.739 465.979 345.037 465.642 345.475 465.304 345.912 465.081 346.481 465.015 347.152 465.005 347.249 465 347.345 465 347.441 465 347.927 465.125 348.385 465.335 348.787 465.652 349.391 466.152 349.871 466.733 350.206 467.315 350.541 467.982 350.734 468.662 350.738L483.068 350.746C483.616 350.748 484.092 350.636 484.496 350.452 484.902 350.269 485.232 350.025 485.539 349.781 486.794 348.781 487.764 347.543 488.508 346.168 489.625 344.103 490.241 341.731 490.586 339.319 490.93 336.907 491 334.452 491 332.217 491 330.616 490.964 329.128 490.964 327.859ZM468.669 349.529 468.669 349.529C468.369 349.527 468.057 349.468 467.763 349.358 467.32 349.194 466.919 348.915 466.643 348.579 466.504 348.411 466.396 348.229 466.322 348.04 466.249 347.85 466.21 347.652 466.21 347.441 466.21 347.386 466.212 347.329 466.218 347.272 466.25 346.953 466.327 346.697 466.429 346.49 466.582 346.181 466.79 345.975 467.035 345.834 467.28 345.695 467.567 345.631 467.856 345.631L480.82 345.631C480.68 345.793 480.555 345.977 480.455 346.185 480.307 346.491 480.208 346.846 480.168 347.245 480.16 347.336 480.155 347.425 480.155 347.514 480.155 347.936 480.256 348.336 480.432 348.691 480.59 349.011 480.807 349.294 481.065 349.536L468.669 349.529ZM488.964 341.432C488.615 342.923 488.125 344.336 487.444 345.592 486.764 346.849 485.896 347.949 484.785 348.835 484.505 349.059 484.259 349.232 483.999 349.349 483.739 349.465 483.461 349.535 483.068 349.537L482.664 349.536C482.298 349.433 481.959 349.249 481.683 349.009 481.46 348.815 481.279 348.586 481.155 348.334 481.031 348.082 480.962 347.808 480.962 347.514 480.962 347.452 480.964 347.389 480.971 347.326 481.003 347.009 481.078 346.749 481.181 346.535 481.336 346.216 481.549 345.998 481.796 345.852 482.042 345.707 482.326 345.636 482.608 345.637 482.894 345.636 483.177 345.71 483.411 345.841 483.646 345.973 483.83 346.159 483.941 346.39 484 346.512 484.036 346.675 484.036 346.839 484.036 346.974 484.012 347.108 483.968 347.22 483.925 347.333 483.863 347.421 483.791 347.483 483.656 347.596 483.518 347.639 483.379 347.64 483.257 347.64 483.136 347.604 483.035 347.538 482.933 347.473 482.854 347.382 482.808 347.274L482.067 347.592C482.18 347.856 482.37 348.07 482.6 348.217 482.828 348.364 483.098 348.446 483.379 348.446 483.699 348.448 484.036 348.334 484.314 348.096 484.504 347.934 484.636 347.729 484.72 347.512 484.804 347.296 484.842 347.066 484.842 346.839 484.842 346.564 484.786 346.289 484.668 346.041 484.478 345.645 484.166 345.34 483.805 345.138 483.451 344.94 483.047 344.836 482.637 344.831L482.637 344.825 470.825 344.825C471.867 342.541 472.472 340.32 472.817 338.197 473.185 335.932 473.258 333.778 473.258 331.771 473.258 330.617 473.234 329.514 473.227 328.463L489.757 328.463C489.765 329.606 489.79 330.875 489.79 332.217 489.791 335.162 489.663 338.451 488.964 341.432Z" stroke="#FF0000" stroke-width="0.0508138"/><path d="M481.817 335.564C481.959 333.983 481.966 332.47 481.951 331.039L475.687 331.039C475.701 332.47 475.694 333.983 475.552 335.564L481.817 335.564Z" stroke="#FF0000" stroke-width="0.0508138"/></g></g></g><text font-family="Calibri,Calibri_MSFontService,sans-serif" font-weight="400" font-size="11" transform="translate(482.752 337)">1</text><path d="M87.5001 288.5 347.189 288.5 347.189 320.375 356.25 320.375 356.25 309.75 377.5 331 356.25 352.25 356.25 341.625 347.189 341.625 347.189 373.5 87.5001 373.5Z" stroke="#FFC000" stroke-width="0.666667" stroke-miterlimit="8" fill="url(#fill31)" fill-rule="evenodd"/><text font-family="Yu Gothic,Yu Gothic_MSFontService,sans-serif" font-weight="400" font-size="13" transform="translate(96.5458 305)">概念情報モデル上の定義を使って<tspan font-size="13" x="0" y="16">クエリーを組み立てる</tspan><tspan font-family="Calibri,Calibri_MSFontService,sans-serif" font-size="13" x="0" y="48">SELECT * FROM </tspan><tspan font-size="13" x="87.6667" y="48">商品</tspan></text><path d="M0 14 15.5 0 31 14Z" fill="#FF0000" fill-rule="evenodd" fill-opacity="0.501961" transform="matrix(1 0 0 -1 279 141)"/><path d="M556.5 205.167C556.5 200.38 560.38 196.5 565.167 196.5L599.833 196.5C604.62 196.5 608.5 200.38 608.5 205.167L608.5 406.833C608.5 411.62 604.62 415.5 599.833 415.5L565.167 415.5C560.38 415.5 556.5 411.62 556.5 406.833Z" stroke="#FF0000" stroke-width="1.33333" stroke-miterlimit="8" fill="none" fill-rule="evenodd"/><rect x="109.5" y="421.5" width="56" height="29" stroke="#000000" stroke-width="0.666667" stroke-miterlimit="8" fill="#FFFFFF"/><text font-family="Yu Gothic,Yu Gothic_MSFontService,sans-serif" font-weight="400" font-size="11" transform="translate(126.307 433)">商品<tspan font-size="11" x="-5.33334" y="13">コード</tspan></text><rect x="165.5" y="421.5" width="56" height="29" stroke="#000000" stroke-width="0.666667" stroke-miterlimit="8" fill="#FFFFFF"/><text font-family="Yu Gothic,Yu Gothic_MSFontService,sans-serif" font-weight="400" font-size="12" transform="translate(175.044 440)">商品名</text><rect x="220.5" y="421.5" width="56" height="29" stroke="#000000" stroke-width="0.666667" stroke-miterlimit="8" fill="#FFFFFF"/><text font-family="Yu Gothic,Yu Gothic_MSFontService,sans-serif" font-weight="400" font-size="12" transform="translate(236.072 440)">在庫</text><rect x="109.5" y="450.5" width="56" height="29" stroke="#000000" stroke-width="0.666667" stroke-miterlimit="8" fill="#FFFFFF"/><text font-family="Calibri,Calibri_MSFontService,sans-serif" font-weight="400" font-size="11" transform="translate(126.224 468)">P031</text><rect x="165.5" y="450.5" width="56" height="29" stroke="#000000" stroke-width="0.666667" stroke-miterlimit="8" fill="#FFFFFF"/><text font-family="Yu Gothic,Yu Gothic_MSFontService,sans-serif" font-weight="400" font-size="9" transform="translate(175.711 468)">ペンシル</text><rect x="220.5" y="450.5" width="56" height="29" stroke="#000000" stroke-width="0.666667" stroke-miterlimit="8" fill="#FFFFFF"/><text font-family="Calibri,Calibri_MSFontService,sans-serif" font-weight="400" font-size="11" transform="translate(237.405 468)">1000</text><rect x="109.5" y="479.5" width="56" height="29" stroke="#000000" stroke-width="0.666667" stroke-miterlimit="8" fill="#FFFFFF"/><text font-family="Calibri,Calibri_MSFontService,sans-serif" font-weight="400" font-size="11" transform="translate(125.557 497)">N00<tspan font-size="11" x="17.5" y="0">8</tspan></text><rect x="165.5" y="479.5" width="56" height="29" stroke="#000000" stroke-width="0.666667" stroke-miterlimit="8" fill="#FFFFFF"/><text font-family="Yu Gothic,Yu Gothic_MSFontService,sans-serif" font-weight="400" font-size="11" transform="translate(182.378 497)">手帳</text><rect x="220.5" y="479.5" width="56" height="29" stroke="#000000" stroke-width="0.666667" stroke-miterlimit="8" fill="#FFFFFF"/><text font-family="Calibri,Calibri_MSFontService,sans-serif" font-weight="400" font-size="11" transform="translate(240.072 497)">752</text><rect x="109.5" y="508.5" width="56" height="30" stroke="#000000" stroke-width="0.666667" stroke-miterlimit="8" fill="#FFFFFF"/><text font-family="Calibri,Calibri_MSFontService,sans-serif" font-weight="400" font-size="11" transform="translate(126.724 527)">L012</text><rect x="165.5" y="508.5" width="56" height="30" stroke="#000000" stroke-width="0.666667" stroke-miterlimit="8" fill="#FFFFFF"/><text font-family="Yu Gothic,Yu Gothic_MSFontService,sans-serif" font-weight="400" font-size="11" transform="translate(177.044 520)">ルーズ<tspan font-size="11" x="0" y="13">リーフ</tspan></text><rect x="220.5" y="508.5" width="56" height="30" stroke="#000000" stroke-width="0.666667" stroke-miterlimit="8" fill="#FFFFFF"/><text font-family="Calibri,Calibri_MSFontService,sans-serif" font-weight="400" font-size="11" transform="translate(240.072 527)">108</text><rect x="276.5" y="421.5" width="56" height="29" stroke="#000000" stroke-width="0.666667" stroke-miterlimit="8" fill="#FFFFFF"/><text font-family="Yu Gothic,Yu Gothic_MSFontService,sans-serif" font-weight="400" font-size="12" transform="translate(292.142 440)">単価</text><rect x="276.5" y="450.5" width="56" height="29" stroke="#000000" stroke-width="0.666667" stroke-miterlimit="8" fill="#FFFFFF"/><text font-family="Calibri,Calibri_MSFontService,sans-serif" font-weight="400" font-size="11" transform="translate(296.142 468)">700</text><rect x="276.5" y="479.5" width="56" height="29" stroke="#000000" stroke-width="0.666667" stroke-miterlimit="8" fill="#FFFFFF"/><text font-family="Calibri,Calibri_MSFontService,sans-serif" font-weight="400" font-size="11" transform="translate(293.476 497)">3500</text><rect x="276.5" y="508.5" width="56" height="30" stroke="#000000" stroke-width="0.666667" stroke-miterlimit="8" fill="#FFFFFF"/><text font-family="Calibri,Calibri_MSFontService,sans-serif" font-weight="400" font-size="11" transform="translate(293.476 527)">1400</text><rect x="109.5" y="538.5" width="56" height="29" stroke="#000000" stroke-width="0.666667" stroke-miterlimit="8" fill="#FFFFFF"/><text font-family="Yu Gothic,Yu Gothic_MSFontService,sans-serif" font-weight="400" font-size="11" transform="translate(120.974 556)">・・・</text><rect x="165.5" y="538.5" width="56" height="29" stroke="#000000" stroke-width="0.666667" stroke-miterlimit="8" fill="#FFFFFF"/><text font-family="Yu Gothic,Yu Gothic_MSFontService,sans-serif" font-weight="400" font-size="11" transform="translate(177.044 556)">・・・</text><rect x="220.5" y="538.5" width="56" height="29" stroke="#000000" stroke-width="0.666667" stroke-miterlimit="8" fill="#FFFFFF"/><text font-family="Yu Gothic,Yu Gothic_MSFontService,sans-serif" font-weight="400" font-size="11" transform="translate(232.072 556)">・・・</text><rect x="276.5" y="538.5" width="56" height="29" stroke="#000000" stroke-width="0.666667" stroke-miterlimit="8" fill="#FFFFFF"/><text font-family="Yu Gothic,Yu Gothic_MSFontService,sans-serif" font-weight="400" font-size="11" transform="translate(288.142 556)">・・・</text><path d="M433 374 433 403.081" stroke="#000000" stroke-width="8" stroke-miterlimit="8" stroke-dasharray="8 8" fill="none" fill-rule="evenodd"/><path d="M581 373 581 402.081" stroke="#000000" stroke-width="8" stroke-miterlimit="8" stroke-dasharray="8 8" fill="none" fill-rule="evenodd"/><path d="M0 13 34 0 68 13Z" fill="#FF0000" fill-rule="evenodd" fill-opacity="0.501961" transform="matrix(1 0 0 -1 186 412)"/><text font-family="MS Gothic,MS Gothic_MSFontService,sans-serif" font-weight="400" font-size="13" transform="translate(178.774 390)">※<tspan font-family="Yu Gothic,Yu Gothic_MSFontService,sans-serif" font-size="13" x="13.3333" y="0">クエリー文は</tspan><tspan font-family="Calibri,Calibri_MSFontService,sans-serif" font-size="13" x="93.3333" y="0">SQL</tspan><tspan font-family="Yu Gothic,Yu Gothic_MSFontService,sans-serif" font-size="13" x="114.167" y="0">風に表現</tspan></text></g></svg>