<svg width="608" height="555" xmlns="http://www.w3.org/2000/svg" xmlns:xlink="http://www.w3.org/1999/xlink" overflow="hidden"><defs><clipPath id="clip0"><rect x="56" y="93" width="608" height="555"/></clipPath><clipPath id="clip1"><rect x="568" y="392" width="26" height="26"/></clipPath><clipPath id="clip2"><rect x="568" y="392" width="26" height="26"/></clipPath><clipPath id="clip3"><rect x="568" y="392" width="26" height="26"/></clipPath><clipPath id="clip4"><rect x="568" y="265" width="26" height="27"/></clipPath><clipPath id="clip5"><rect x="568" y="265" width="26" height="27"/></clipPath><clipPath id="clip6"><rect x="568" y="265" width="26" height="27"/></clipPath><clipPath id="clip7"><rect x="419" y="392" width="26" height="26"/></clipPath><clipPath id="clip8"><rect x="419" y="392" width="26" height="26"/></clipPath><clipPath id="clip9"><rect x="419" y="392" width="26" height="26"/></clipPath><clipPath id="clip10"><rect x="419" y="329" width="27" height="26"/></clipPath><clipPath id="clip11"><rect x="419" y="329" width="27" height="26"/></clipPath><clipPath id="clip12"><rect x="419" y="329" width="27" height="26"/></clipPath><clipPath id="clip13"><rect x="419" y="265" width="26" height="27"/></clipPath><clipPath id="clip14"><rect x="419" y="265" width="26" height="27"/></clipPath><clipPath id="clip15"><rect x="419" y="265" width="26" height="27"/></clipPath><clipPath id="clip16"><rect x="568" y="329" width="27" height="26"/></clipPath><clipPath id="clip17"><rect x="568" y="329" width="27" height="26"/></clipPath><clipPath id="clip18"><rect x="568" y="329" width="27" height="26"/></clipPath><clipPath id="clip19"><rect x="486" y="330" width="26" height="26"/></clipPath><clipPath id="clip20"><rect x="486" y="330" width="26" height="26"/></clipPath><clipPath id="clip21"><rect x="486" y="330" width="26" height="26"/></clipPath><clipPath id="clip22"><rect x="509" y="260" width="27" height="26"/></clipPath><clipPath id="clip23"><rect x="509" y="260" width="27" height="26"/></clipPath><clipPath id="clip24"><rect x="509" y="260" width="27" height="26"/></clipPath><clipPath id="clip25"><rect x="476" y="281" width="26" height="27"/></clipPath><clipPath id="clip26"><rect x="476" y="281" width="26" height="27"/></clipPath><clipPath id="clip27"><rect x="476" y="281" width="26" height="27"/></clipPath><clipPath id="clip28"><rect x="467" y="381" width="26" height="26"/></clipPath><clipPath id="clip29"><rect x="467" y="381" width="26" height="26"/></clipPath><clipPath id="clip30"><rect x="467" y="381" width="26" height="26"/></clipPath><linearGradient x1="242.5" y1="343.5" x2="242.5" y2="436.5" gradientUnits="userSpaceOnUse" spreadMethod="reflect" id="fill31"><stop offset="0" stop-color="#FFDD9C"/><stop offset="0.5" stop-color="#FFD78E"/><stop offset="1" stop-color="#FFD479"/></linearGradient></defs><g clip-path="url(#clip0)" transform="translate(-56 -93)"><rect x="389" y="219" width="232" height="269" fill="#F2F2F2"/><text font-family="Yu Gothic,Yu Gothic_MSFontService,sans-serif" font-weight="400" font-size="16" transform="translate(464.787 239)">現実の世界</text><rect x="58.5001" y="94.5001" width="604" height="553" stroke="#D9D9D9" stroke-width="1.33333" stroke-miterlimit="8" fill="none"/><rect x="173.5" y="271.5" width="66" height="57" stroke="#FF0000" stroke-width="1.33333" stroke-miterlimit="8" fill="#FFFFFF"/><text font-family="Yu Gothic,Yu Gothic_MSFontService,sans-serif" font-weight="400" font-size="11" transform="translate(195.334 303)">注文</text><rect x="264.5" y="200.5" width="66" height="57" stroke="#FF0000" stroke-width="1.33333" stroke-miterlimit="8" fill="#FFFFFF"/><text font-family="Yu Gothic,Yu Gothic_MSFontService,sans-serif" font-weight="400" font-size="11" transform="translate(286.249 232)">商品</text><rect x="89.5001" y="201.5" width="65" height="57" stroke="#000000" stroke-width="1.33333" stroke-miterlimit="8" fill="#FFFFFF"/><text font-family="Yu Gothic,Yu Gothic_MSFontService,sans-serif" font-weight="400" font-size="11" transform="translate(110.646 233)">顧客</text><path d="M0 0 110.267 1.39465" stroke="#FF0000" stroke-width="0.666667" stroke-miterlimit="8" fill="none" fill-rule="evenodd" transform="matrix(1 0 0 -1 154.5 229.895)"/><path d="M206.32 271.073 206 228" stroke="#FF0000" stroke-width="2" stroke-miterlimit="8" stroke-dasharray="2 2" fill="none" fill-rule="evenodd"/><text font-family="Yu Gothic,Yu Gothic_MSFontService,sans-serif" font-weight="400" font-size="11" transform="translate(158.822 220)">発注者<tspan font-family="Calibri,Calibri_MSFontService,sans-serif" font-size="11" x="-0.145935" y="24">*</tspan><tspan font-family="Calibri,Calibri_MSFontService,sans-serif" font-size="11" x="91.6012" y="0">*</tspan><tspan font-size="11" x="60.3658" y="24">購入予約</tspan><tspan font-size="16" x="-91.5843" y="-106">ある</tspan><tspan font-size="16" x="-59.5843" y="-106">インスタンスを起点に関係しているインスタンスを取り出す</tspan></text><g clip-path="url(#clip1)"><g clip-path="url(#clip2)"><g clip-path="url(#clip3)"><path d="M591.803 392.972C591.205 392.373 590.37 392 589.456 392L573.822 392C572.907 392 572.073 392.373 571.475 392.972 570.875 393.571 570.503 394.405 570.503 395.319L570.503 395.587 569.773 395.587C569.47 395.587 569.225 395.832 569.225 396.135 569.225 396.438 569.47 396.683 569.773 396.683L570.503 396.683 570.503 399.971 569.773 399.971C569.47 399.971 569.225 400.217 569.225 400.52 569.225 400.822 569.47 401.068 569.773 401.068L570.503 401.068 570.503 404.356 569.773 404.356C569.47 404.356 569.225 404.602 569.225 404.904 569.225 405.206 569.47 405.451 569.773 405.451L570.503 405.451 570.503 408.74 569.773 408.74C569.47 408.74 569.225 408.986 569.225 409.288 569.225 409.591 569.47 409.836 569.773 409.836L570.503 409.836 570.503 413.125 569.773 413.125C569.47 413.125 569.225 413.37 569.225 413.672 569.225 413.975 569.47 414.221 569.773 414.221L570.503 414.221 570.503 414.681C570.503 415.595 570.875 416.429 571.475 417.028 572.073 417.627 572.907 418 573.822 418L589.456 418C590.37 418 591.205 417.627 591.803 417.028 592.402 416.429 592.776 415.595 592.775 414.681L592.775 395.319C592.776 394.405 592.402 393.571 591.803 392.972ZM576.279 416.539 573.822 416.539C573.306 416.539 572.846 416.333 572.508 415.995 572.17 415.656 571.964 415.197 571.963 414.681L571.963 414.221 573.123 414.221C573.314 414.54 573.663 414.756 574.063 414.756 574.668 414.756 575.158 414.266 575.158 413.661 575.158 413.056 574.668 412.565 574.063 412.565 573.653 412.565 573.296 412.791 573.108 413.125L571.963 413.125 571.963 409.836 573.121 409.836C573.311 410.158 573.661 410.374 574.063 410.374 574.668 410.374 575.158 409.884 575.158 409.279 575.158 408.674 574.668 408.184 574.063 408.184 573.654 408.184 573.298 408.409 573.11 408.74L571.963 408.74 571.963 405.451 573.119 405.451C573.309 405.775 573.66 405.993 574.063 405.993 574.668 405.993 575.158 405.503 575.158 404.898 575.158 404.293 574.668 403.802 574.063 403.802 573.655 403.802 573.3 404.025 573.112 404.356L571.963 404.356 571.963 401.068 573.117 401.068C573.307 401.392 573.659 401.612 574.063 401.612 574.668 401.612 575.158 401.121 575.158 400.516 575.158 399.912 574.668 399.421 574.063 399.421 573.657 399.421 573.302 399.643 573.113 399.971L571.963 399.971 571.963 396.683 573.115 396.683C573.305 397.01 573.658 397.23 574.063 397.23 574.668 397.23 575.158 396.74 575.158 396.135 575.158 395.53 574.668 395.04 574.063 395.04 573.658 395.04 573.305 395.26 573.115 395.587L571.963 395.587 571.963 395.319C571.964 394.803 572.17 394.344 572.508 394.005 572.846 393.667 573.306 393.461 573.822 393.461L576.279 393.461 576.279 416.539ZM591.315 414.681C591.314 415.197 591.108 415.656 590.77 415.995 590.432 416.333 589.972 416.539 589.456 416.539L576.827 416.539 576.827 393.461 589.456 393.461C589.972 393.461 590.432 393.667 590.77 394.005 591.108 394.344 591.314 394.803 591.315 395.319L591.315 414.681Z" fill="#4B4B4B"/><path d="M579.063 397.744 588.759 397.744 588.759 398.291 579.063 398.291Z" fill="#4B4B4B"/><path d="M579.063 401.258 588.759 401.258 588.759 401.806 579.063 401.806Z" fill="#4B4B4B"/><path d="M579.063 404.773 588.759 404.773 588.759 405.32 579.063 405.32Z" fill="#4B4B4B"/><path d="M579.063 408.287 588.759 408.287 588.759 408.835 579.063 408.835Z" fill="#4B4B4B"/><path d="M579.063 411.802 588.759 411.802 588.759 412.349 579.063 412.349Z" fill="#4B4B4B"/></g></g></g><g clip-path="url(#clip4)"><g clip-path="url(#clip5)"><g clip-path="url(#clip6)"><path d="M17.3045 0 2.34147 14.963 0 26 11.0346 23.6585 26 8.69314 17.3045 0ZM17.3045 2.65809 19.9721 5.32568 7.32601 17.9702 4.65918 15.3034 17.3045 2.65809ZM5.58832 22.8706 3.12858 20.4109 4.07281 16.1214 9.87695 21.9264 5.58832 22.8706ZM10.695 21.3392 8.02897 18.6732 20.6735 6.02713 23.3411 8.69314 10.695 21.3392Z" fill="#4B4B4B" transform="matrix(1 0 0 1.03846 568 265)"/></g></g></g><g clip-path="url(#clip7)"><g clip-path="url(#clip8)"><g clip-path="url(#clip9)"><path d="M437.486 410.029C437.29 409.956 437.076 409.855 436.859 409.735L433.224 414.759 432.966 411.468 431.035 411.468 430.776 414.759 427.142 409.735C426.918 409.86 426.702 409.963 426.514 410.029 424.611 410.699 419.935 412.626 420.237 416.235 420.31 417.101 425.073 418 432 418 438.928 418 443.691 417.101 443.763 416.235 444.065 412.622 439.377 410.736 437.486 410.029Z" fill="#4B4B4B"/><path d="M427.709 402.576C427.974 404.075 428.418 405.397 429.004 406.049 429.004 406.83 429.004 407.4 429.004 407.856 429.004 407.902 428.996 407.95 428.983 408L431.035 408.988 431.035 410.438 432.966 410.438 432.966 408.988 435.017 408C435.004 407.95 434.996 407.902 434.996 407.856 434.996 407.4 434.996 406.83 434.996 406.049 435.582 405.397 436.027 404.075 436.292 402.576 436.908 402.356 437.261 402.003 437.701 400.461 438.17 398.818 436.997 398.874 436.997 398.874 437.946 395.732 436.696 392.779 434.604 392.995 433.16 390.47 428.326 393.572 426.81 393.356 426.81 394.222 427.171 394.871 427.171 394.871 426.644 395.871 426.847 397.865 426.996 398.874 426.909 398.872 425.848 398.883 426.299 400.461 426.739 402.003 427.091 402.356 427.709 402.576Z" fill="#4B4B4B"/></g></g></g><g clip-path="url(#clip10)"><g clip-path="url(#clip11)"><g clip-path="url(#clip12)"><path d="M22.1603 20.6101C21.5436 19.6866 20.606 19.1749 19.723 18.842 19.2807 18.6754 18.8473 18.5528 18.4654 18.4484 18.0846 18.3448 17.7525 18.2568 17.5286 18.1727 17.2116 18.0551 16.8838 17.9084 16.6151 17.7488L16.6151 16.0729 16.0284 16.1706C16.0284 16.0114 16.0284 15.8444 16.0284 15.6598 16.5275 15.1046 17.2467 14.2445 17.5395 12.8767 17.6442 12.83 17.7474 12.7774 17.8467 12.7085 18.0881 12.5419 18.2932 12.2997 18.4677 11.9691 18.6433 11.637 18.7991 11.2114 18.966 10.6282 19.0501 10.3335 19.0891 10.0776 19.0891 9.85065 19.0895 9.58897 19.0354 9.36279 18.9372 9.17978 18.829 8.97614 18.6717 8.83985 18.5187 8.75342L18.5187 8.12424C18.5386 8.10636 18.5635 8.09001 18.5814 8.07132 19.0805 7.55193 18.8819 6.94997 18.5342 6.50259 18.9707 5.88936 19.8433 4.47484 19.5972 3.24446 19.0724 0.621004 15.3794 0 13 0 10.6206 0 6.92758 0.621004 6.40311 3.24446 6.15702 4.47484 7.02919 5.88936 7.46606 6.50259 7.12847 6.93672 6.93652 7.51649 7.38232 8.02537L7.38232 8.82355C7.2636 8.90845 7.14675 9.02215 7.06301 9.17983 6.96455 9.3632 6.91077 9.58902 6.91118 9.8507 6.91118 10.0781 6.95007 10.3335 7.03422 10.6283 7.25695 11.405 7.45819 11.9054 7.71712 12.2709 7.84682 12.4524 7.99358 12.5976 8.15359 12.7086 8.25287 12.7774 8.35606 12.83 8.46041 12.8768 8.75362 14.2446 9.47233 15.1046 9.97186 15.6599 9.97186 15.8444 9.97186 16.0115 9.97186 16.1707L9.38473 16.073 9.38473 17.7492C9.35436 17.7679 9.32552 17.7869 9.29363 17.8049 9.03505 17.9524 8.73798 18.0794 8.47828 18.1709 8.17263 18.2791 7.68285 18.3912 7.13421 18.5482 6.30998 18.7865 5.33696 19.1299 4.54614 19.8073 4.15177 20.1464 3.8056 20.572 3.5623 21.1008 3.31815 21.6295 3.17799 22.2572 3.1784 22.9938 3.1784 23.1644 3.18576 23.3411 3.20135 23.5237 3.21222 23.6483 3.25975 23.7499 3.31622 23.8344 3.42327 23.9921 3.56657 24.1104 3.7472 24.2319 4.06296 24.4414 4.50181 24.6462 5.06477 24.8479 6.74964 25.4487 9.54098 25.9988 13 26 15.8103 25.9996 18.1827 25.6351 19.8748 25.1773 20.7216 24.9476 21.3972 24.6961 21.8846 24.4457 22.1287 24.32 22.3262 24.1953 22.4815 24.0594 22.559 23.9909 22.6271 23.9193 22.684 23.8348 22.74 23.7503 22.788 23.6483 22.7984 23.5237 22.814 23.3411 22.8214 23.1651 22.8214 22.9946 22.8227 22.0138 22.5707 21.2242 22.1603 20.6101ZM12.4845 2.98086 13.0004 1.83036 13.5159 2.98086 14.7692 3.11558 13.8347 3.96124 14.0937 5.19553 13.0004 4.56788 11.9067 5.19553 12.1656 3.96124 11.2308 3.11563 12.4845 2.98086ZM13 24.9491C12.6329 24.9491 12.3354 24.6513 12.3354 24.2842 12.3354 23.9174 12.6329 23.6195 13 23.6195 13.3671 23.6195 13.665 23.9174 13.665 24.2842 13.665 24.6513 13.3671 24.9491 13 24.9491ZM13 21.6914C12.6329 21.6914 12.3354 21.3935 12.3354 21.0267 12.3354 20.6592 12.6329 20.3618 13 20.3618 13.3671 20.3618 13.665 20.6592 13.665 21.0267 13.665 21.3935 13.3671 21.6914 13 21.6914ZM13 19.0321 9.60598 18.4664C9.72588 18.3998 9.84349 18.3297 9.95485 18.253 10.0187 18.2086 10.0767 18.1584 10.1362 18.1097L12.8754 18.566 12.8754 16.6547 10.7032 16.2926C10.7032 16.0617 10.7032 15.8106 10.7032 15.5205L10.7032 15.3804 10.609 15.2757C10.0884 14.6951 9.37975 13.9219 9.13443 12.5482L9.09746 12.3387 8.89769 12.2671C8.76378 12.2196 8.66094 12.1705 8.57101 12.1082 8.43786 12.0144 8.31751 11.8855 8.17852 11.6262 8.0407 11.3684 7.89588 10.9842 7.73739 10.4278 7.66771 10.1836 7.64243 9.99324 7.64243 9.85075 7.64278 9.68602 7.67432 9.58791 7.70783 9.52484 7.75805 9.43333 7.82077 9.39362 7.89862 9.36249 7.9103 9.35817 7.92198 9.35507 7.93366 9.35157L9.2107 10.3386 9.2107 8.82634C10.5879 9.11874 12.287 9.17485 12.9999 9.17485 13.6961 9.17485 15.3318 9.12265 16.6902 8.84853L16.6902 10.3386 17.988 9.33522C18.0394 9.34263 18.1161 9.35939 18.1745 9.39829 18.2204 9.42749 18.2582 9.46217 18.2925 9.52484 18.3256 9.58791 18.3571 9.68561 18.3575 9.85075 18.3575 9.99324 18.3325 10.1833 18.2629 10.4278 18.0518 11.1703 17.8626 11.6032 17.6874 11.8458 17.5998 11.968 17.5192 12.0452 17.4292 12.1082 17.3393 12.1705 17.2362 12.2196 17.1026 12.2671L16.9024 12.3387 16.8655 12.5482C16.6206 13.9218 15.9119 14.6951 15.391 15.2757L15.2971 15.3804 15.2971 15.5205C15.2971 15.8106 15.2971 16.0618 15.2971 16.2926L13.1249 16.6547 13.1249 18.566 15.8543 18.1112C15.9949 18.2257 16.1498 18.3277 16.313 18.4216 16.341 18.4376 16.3714 18.45 16.3998 18.4652L13 19.0321Z" fill="#4B4B4B" transform="matrix(1.03846 0 0 1 419 329)"/></g></g></g><g clip-path="url(#clip13)"><g clip-path="url(#clip14)"><g clip-path="url(#clip15)"><path d="M8.25663 7.47464C8.25663 7.47464 11.1312 8.05005 14.8682 4.31239 16.5932 6.61278 17.744 7.76237 17.744 7.76237L17.744 11.2135C18.8981 10.0232 19.6125 8.40222 19.6125 6.61278 19.6125 2.96045 16.652 0 12.9997 0 9.34852 0 6.38808 2.96045 6.38808 6.61278 6.38808 8.40222 7.10135 10.0231 8.25657 11.2135L8.25657 7.47464Z" fill="#4B4B4B" transform="matrix(1 0 0 1.03846 419 265)"/><path d="M17.4342 15.1037C16.9702 15.3574 12.9997 24.0744 12.9997 24.0744 12.9997 24.0744 9.02987 15.3574 8.56522 15.1037 4.09571 16.7162 3.89614 20.3283 3.89614 26L22.1039 26C22.1039 20.3283 21.9043 16.7162 17.4342 15.1037Z" fill="#4B4B4B" transform="matrix(1 0 0 1.03846 419 265)"/><path d="M11.0204 14.7142 11.0204 17.3536 12.9997 16.6805 14.9796 17.3536 14.9796 14.7142 12.9997 15.3874Z" fill="#4B4B4B" transform="matrix(1 0 0 1.03846 419 265)"/></g></g></g><g clip-path="url(#clip16)"><g clip-path="url(#clip17)"><g clip-path="url(#clip18)"><path d="M5.19624 3.68103C4.9137 3.68022 4.66588 3.5688 4.47982 3.38396 4.29498 3.1979 4.18321 2.94968 4.18275 2.66713 4.18316 2.38459 4.29498 2.13637 4.47941 1.9503 4.66548 1.76541 4.9137 1.65405 5.19624 1.65323L22.6438 1.65359 22.6438 0.000355469 5.19624 0C3.72303 0.0008125 2.52992 1.19392 2.52952 2.66713L2.52952 23.3328C2.52992 24.806 3.72303 25.9991 5.19624 25.9999L23.4705 25.9999 23.4705 3.68103 5.19624 3.68103ZM21.8172 24.3464 5.80816 24.3468 5.80816 5.33432 21.8172 5.33432 21.8172 24.3464Z" fill="#4B4B4B" transform="matrix(1.03846 0 0 1 568 329)"/><path d="M19.4407 21.4536 19.4407 7.60754 8.2812 7.60754 8.2812 22.0735 19.4407 22.0735 19.4407 21.4536ZM18.2007 20.8336 9.52113 20.8336 9.52113 8.84747 18.2007 8.84747 18.2007 20.8336Z" fill="#4B4B4B" transform="matrix(1.03846 0 0 1 568 329)"/><path d="M11.381 17.4238 16.3408 17.4238 16.3408 18.3537 11.381 18.3537Z" fill="#4B4B4B" transform="matrix(1.03846 0 0 1 568 329)"/></g></g></g><path d="M446.5 342.167 449.167 342.167 449.167 342.833 446.5 342.833ZM451.167 342.167 453.833 342.167 453.833 342.833 451.167 342.833ZM455.833 342.167 457.939 342.167 458.502 342.17 458.498 342.837 457.936 342.833 457.938 342.833 455.833 342.833ZM460.502 342.181 463.169 342.196 463.165 342.863 460.498 342.848ZM465.168 342.207 467.835 342.222 467.831 342.889 465.165 342.874ZM469.835 342.234 472.502 342.25 472.498 342.917 469.831 342.901ZM474.502 342.262 477.168 342.278 477.164 342.945 474.498 342.929ZM479.168 342.29 479.378 342.292 481.837 342.325 481.828 342.991 479.371 342.958 479.373 342.958 479.164 342.957ZM483.837 342.352 486.504 342.387 486.495 343.054 483.828 343.018ZM488.503 342.414 488.692 342.417 488.688 342.417 491.166 342.417 491.166 343.083 488.685 343.083 488.494 343.081ZM493.171 342.423 495.837 342.467 495.826 343.134 493.16 343.089ZM497.838 342.504 499.819 342.542 500.505 342.557 500.49 343.224 499.806 343.208 497.825 343.17ZM502.504 342.601 502.634 342.604 504.823 342.667 505.175 342.68 505.15 343.346 504.8 343.333 504.803 343.333 502.616 343.271 502.618 343.271 502.49 343.268ZM507.181 342.771 507.538 342.793 507.93 342.859 508.305 342.921 508.271 342.917 509.271 342.98 509.262 342.979 509.826 343 509.801 343.667 509.233 343.646 508.212 343.582 507.82 343.516 507.445 343.454 507.479 343.458 507.14 343.437ZM511.822 343.067 513.135 343.104 513.132 343.104 514.486 343.134 514.471 343.801 513.117 343.771 511.803 343.733ZM516.484 343.177 519.151 343.228 519.138 343.895 516.471 343.844ZM521.149 343.262 522.943 343.292 522.938 343.292 523.81 343.292 523.81 343.958 522.935 343.958 521.138 343.928ZM525.81 343.292 527.065 343.292 528.481 343.311 528.472 343.977 527.058 343.958 527.063 343.958 525.81 343.958ZM530.481 343.338 533.147 343.373 533.139 344.04 530.472 344.004ZM535.147 343.4 536.38 343.417 536.377 343.417 537.811 343.425 537.807 344.092 536.372 344.083 535.138 344.067ZM539.811 343.438 542.478 343.454 542.474 344.12 539.807 344.104ZM544.478 343.466 546.69 343.479 547.144 343.482 547.141 344.148 546.686 344.146 544.474 344.132ZM549.144 343.493 551.811 343.508 551.807 344.175 549.141 344.16ZM553.811 343.519 556.478 343.534 556.474 344.201 553.807 344.186ZM558.476 343.542 561.142 343.542 561.142 344.208 558.476 344.208ZM563.142 343.542 565.809 343.542 565.809 344.208 563.142 344.208ZM567.809 343.542 568.59 343.542 568.59 344.208 567.809 344.208ZM560.758 338.92 569.252 343.875 560.758 348.83C560.599 348.922 560.395 348.869 560.302 348.71 560.209 348.551 560.263 348.347 560.422 348.254L568.422 343.587 568.422 344.163 560.422 339.496C560.263 339.404 560.209 339.199 560.302 339.04 560.395 338.881 560.599 338.828 560.758 338.92Z" fill="#FF0000"/><g clip-path="url(#clip19)"><g clip-path="url(#clip20)"><g clip-path="url(#clip21)"><path d="M496.13 341.916 507.327 341.916 507.327 342.856 496.13 342.856Z" stroke="#FF0000" stroke-width="0.0508138" fill="#FF0000"/><path d="M495.164 345.634 506.362 345.634 506.362 346.575 495.164 346.575Z" stroke="#FF0000" stroke-width="0.0508138" fill="#FF0000"/><path d="M511.964 331.859 511.964 331.254 493.014 331.254 493.014 331.859C493.014 333.108 493.048 334.415 493.048 335.771 493.048 337.749 492.976 339.833 492.623 342.003 492.288 344.066 491.7 346.207 490.68 348.415L488.856 348.415C488.534 348.415 488.209 348.466 487.895 348.575 487.424 348.739 486.979 349.037 486.642 349.475 486.304 349.912 486.081 350.481 486.015 351.152 486.005 351.249 486 351.345 486 351.441 486 351.927 486.125 352.385 486.335 352.787 486.652 353.391 487.152 353.871 487.733 354.206 488.315 354.541 488.982 354.734 489.662 354.738L504.068 354.746C504.616 354.748 505.092 354.636 505.496 354.452 505.902 354.269 506.232 354.025 506.539 353.781 507.794 352.781 508.764 351.543 509.508 350.168 510.625 348.103 511.241 345.731 511.586 343.319 511.93 340.907 512 338.452 512 336.217 512 334.616 511.964 333.128 511.964 331.859ZM489.669 353.529 489.669 353.529C489.369 353.527 489.057 353.468 488.763 353.358 488.32 353.194 487.919 352.915 487.643 352.579 487.504 352.411 487.396 352.229 487.322 352.04 487.249 351.85 487.21 351.652 487.21 351.441 487.21 351.386 487.212 351.329 487.218 351.272 487.25 350.953 487.327 350.697 487.429 350.49 487.582 350.181 487.79 349.975 488.035 349.834 488.28 349.695 488.567 349.631 488.856 349.631L501.82 349.631C501.68 349.793 501.555 349.977 501.455 350.185 501.307 350.491 501.208 350.846 501.168 351.245 501.16 351.336 501.155 351.425 501.155 351.514 501.155 351.936 501.256 352.336 501.432 352.691 501.59 353.011 501.807 353.294 502.065 353.536L489.669 353.529ZM509.964 345.432C509.615 346.923 509.125 348.336 508.444 349.592 507.764 350.849 506.896 351.949 505.785 352.835 505.505 353.059 505.259 353.232 504.999 353.349 504.739 353.465 504.461 353.535 504.068 353.537L503.664 353.536C503.298 353.433 502.959 353.249 502.683 353.009 502.46 352.815 502.279 352.586 502.155 352.334 502.031 352.082 501.962 351.808 501.962 351.514 501.962 351.452 501.964 351.389 501.971 351.326 502.003 351.009 502.078 350.749 502.181 350.535 502.336 350.216 502.549 349.998 502.796 349.852 503.042 349.707 503.326 349.636 503.608 349.637 503.894 349.636 504.177 349.71 504.411 349.841 504.646 349.973 504.83 350.159 504.941 350.39 505 350.512 505.036 350.675 505.036 350.839 505.036 350.974 505.012 351.108 504.968 351.22 504.925 351.333 504.863 351.421 504.791 351.483 504.656 351.596 504.518 351.639 504.379 351.64 504.257 351.64 504.136 351.604 504.035 351.538 503.933 351.473 503.854 351.382 503.808 351.274L503.067 351.592C503.18 351.856 503.37 352.07 503.6 352.217 503.828 352.364 504.098 352.446 504.379 352.446 504.699 352.448 505.036 352.334 505.314 352.096 505.504 351.934 505.636 351.729 505.72 351.512 505.804 351.296 505.842 351.066 505.842 350.839 505.842 350.564 505.786 350.289 505.668 350.041 505.478 349.645 505.166 349.34 504.805 349.138 504.451 348.94 504.047 348.836 503.637 348.831L503.637 348.825 491.825 348.825C492.867 346.541 493.472 344.32 493.817 342.197 494.185 339.932 494.258 337.778 494.258 335.771 494.258 334.617 494.234 333.514 494.227 332.463L510.757 332.463C510.765 333.606 510.79 334.875 510.79 336.217 510.791 339.162 510.663 342.451 509.964 345.432Z" stroke="#FF0000" stroke-width="0.0508138" fill="#FF0000"/><path d="M502.817 339.564C502.959 337.983 502.966 336.47 502.951 335.039L496.687 335.039C496.701 336.47 496.694 337.983 496.552 339.564L502.817 339.564Z" stroke="#FF0000" stroke-width="0.0508138" fill="#FF0000"/></g></g></g><text font-family="Calibri,Calibri_MSFontService,sans-serif" font-weight="400" font-size="11" transform="translate(503.283 341)">3</text><path d="M445.5 279.167 448.167 279.167 448.167 279.833 445.5 279.833ZM450.167 279.167 452.833 279.167 452.833 279.833 450.167 279.833ZM454.833 279.167 456.939 279.167 457.502 279.17 457.498 279.837 456.936 279.833 456.938 279.833 454.833 279.833ZM459.502 279.181 462.169 279.196 462.165 279.863 459.498 279.848ZM464.168 279.207 466.835 279.222 466.831 279.889 464.165 279.874ZM468.835 279.234 471.502 279.25 471.498 279.917 468.831 279.901ZM473.502 279.262 476.168 279.278 476.164 279.945 473.498 279.929ZM478.168 279.29 478.378 279.292 480.837 279.325 480.828 279.991 478.371 279.958 478.373 279.958 478.164 279.957ZM482.837 279.352 485.504 279.387 485.495 280.054 482.828 280.018ZM487.503 279.414 487.692 279.417 487.688 279.417 490.166 279.417 490.166 280.083 487.685 280.083 487.494 280.081ZM492.171 279.423 494.837 279.467 494.826 280.134 492.16 280.089ZM496.838 279.504 498.819 279.542 499.505 279.557 499.49 280.224 498.806 280.208 496.825 280.17ZM501.504 279.601 501.634 279.604 503.823 279.667 504.175 279.68 504.15 280.346 503.8 280.333 503.803 280.333 501.616 280.271 501.618 280.271 501.49 280.268ZM506.181 279.771 506.538 279.793 506.93 279.859 507.305 279.921 507.271 279.917 508.271 279.98 508.262 279.979 508.826 280 508.801 280.667 508.233 280.646 507.212 280.582 506.82 280.516 506.445 280.454 506.479 280.458 506.14 280.437ZM510.822 280.067 512.135 280.104 512.132 280.104 513.486 280.134 513.471 280.801 512.117 280.771 510.803 280.733ZM515.484 280.177 518.151 280.228 518.138 280.895 515.471 280.844ZM520.149 280.262 521.943 280.292 521.938 280.292 522.81 280.292 522.81 280.958 521.935 280.958 520.138 280.928ZM524.81 280.292 526.065 280.292 527.481 280.311 527.472 280.977 526.058 280.958 526.063 280.958 524.81 280.958ZM529.481 280.338 532.147 280.373 532.139 281.04 529.472 281.004ZM534.147 280.4 535.38 280.417 535.377 280.417 536.811 280.425 536.807 281.092 535.372 281.083 534.138 281.067ZM538.811 280.438 541.478 280.454 541.474 281.12 538.807 281.104ZM543.478 280.466 545.69 280.479 546.144 280.482 546.141 281.148 545.686 281.146 543.474 281.132ZM548.144 280.493 550.811 280.508 550.807 281.175 548.141 281.16ZM552.811 280.519 555.478 280.534 555.474 281.201 552.807 281.186ZM557.476 280.542 560.142 280.542 560.142 281.208 557.476 281.208ZM562.142 280.542 564.809 280.542 564.809 281.208 562.142 281.208ZM566.809 280.542 567.59 280.542 567.59 281.208 566.809 281.208ZM559.758 275.92 568.252 280.875 559.758 285.83C559.599 285.922 559.395 285.869 559.302 285.71 559.209 285.551 559.263 285.347 559.422 285.254L567.422 280.587 567.422 281.163 559.422 276.496C559.263 276.404 559.209 276.199 559.302 276.04 559.395 275.881 559.599 275.828 559.758 275.92Z"/><path d="M445.52 279.167 448.182 279.326 448.142 279.992 445.48 279.833ZM450.178 279.446 452.84 279.605 452.8 280.27 450.139 280.111ZM454.837 279.724 457.041 279.856 457.533 279.948 457.41 280.603 456.939 280.515 456.98 280.52 454.797 280.39ZM459.499 280.314 462.12 280.803 461.998 281.458 459.376 280.97ZM464.086 281.17 466.708 281.658 466.586 282.314 463.964 281.825ZM468.694 282.091 471.249 282.856 471.058 283.495 468.503 282.73ZM473.165 283.43 475.72 284.195 475.528 284.833 472.974 284.068ZM477.635 284.768 478.615 285.061 480.159 285.735 479.892 286.346 478.367 285.681 478.404 285.694 477.444 285.407ZM481.992 286.535 484.436 287.601 484.17 288.212 481.725 287.146ZM486.269 288.401 487.961 289.139 488.706 289.556 488.38 290.138 487.65 289.728 487.679 289.743 486.003 289.012ZM490.451 290.534 492.111 291.465 492.768 291.9 492.401 292.456 491.754 292.028 491.775 292.041 490.125 291.116ZM494.437 293.002 495.821 293.917 496.633 294.561 496.219 295.083 495.418 294.449 495.441 294.466 494.069 293.559ZM498.2 295.803 499.16 296.563 500.207 297.611 499.736 298.082 498.702 297.048 498.731 297.074 497.786 296.326ZM501.621 299.025 501.936 299.34 503.347 301.103 502.826 301.52 501.427 299.771 501.452 299.798 501.15 299.496ZM504.544 302.762 505.873 305.074 505.295 305.406 503.966 303.094ZM506.558 307.02 506.951 308.174 507.143 309.676 506.482 309.761 506.294 308.292 506.31 308.357 505.927 307.234ZM507.396 311.66 507.706 314.083 507.691 314.018 507.763 314.23 507.132 314.445 507.049 314.201 506.735 311.745ZM508.407 316.123 508.691 316.955 508.664 316.897 509.555 318.447 508.977 318.779 508.07 317.201 507.776 316.338ZM510.573 320.104 512.239 322.187 511.718 322.603 510.052 320.521ZM513.593 323.598 515.296 325.262 515.27 325.239 515.494 325.417 515.08 325.939 514.842 325.751 513.127 324.075ZM517.062 326.659 518.582 327.864 518.562 327.849 519.164 328.257 518.79 328.809 518.178 328.394 516.648 327.181ZM520.819 329.379 522.25 330.349 522.224 330.333 523.045 330.787 522.723 331.37 521.888 330.909 520.445 329.931ZM524.796 331.754 526.411 332.646 526.384 332.632 527.136 332.963 526.868 333.573 526.102 333.237 524.474 332.337ZM528.967 333.767 531.409 334.839 531.141 335.45 528.699 334.377ZM533.24 335.643 535.634 336.695 535.596 336.681 535.645 336.696 535.454 337.334 535.385 337.314 532.972 336.254ZM537.561 337.269 540.116 338.034 539.925 338.673 537.37 337.908ZM542.032 338.608 544.587 339.373 544.395 340.011 541.841 339.246ZM546.479 339.884 549.103 340.359 548.985 341.015 546.36 340.54ZM551.071 340.714 553.695 341.189 553.577 341.845 550.953 341.37ZM555.664 341.545 557.059 341.797 557.02 341.792 558.266 341.867 558.226 342.532 556.96 342.457 555.545 342.201ZM560.262 341.986 562.924 342.145 562.885 342.811 560.223 342.652ZM564.921 342.265 567.583 342.424 567.543 343.089 564.881 342.93ZM560.319 337.36 568.502 342.813 559.727 347.252C559.563 347.335 559.363 347.269 559.28 347.105 559.196 346.94 559.262 346.74 559.427 346.657L567.691 342.476 567.656 343.051 559.949 337.915C559.796 337.813 559.754 337.606 559.857 337.453 559.959 337.299 560.166 337.258 560.319 337.36Z" fill="#FF0000"/><path d="M0.019892-0.332739 2.68181-0.173603 2.64202 0.491875-0.019892 0.332739ZM4.67824-0.054251 7.34015 0.104885 7.30037 0.770364 4.63846 0.611228ZM9.33659 0.224237 11.5397 0.355947 12.0311 0.444785 11.9125 1.10082 11.4407 1.01552 11.4801 1.02024 9.29681 0.889716ZM13.9992 0.800599 16.6233 1.27502 16.5047 1.93105 13.8806 1.45663ZM18.5914 1.63083 21.2156 2.10525 21.097 2.76128 18.4728 2.28686ZM23.2051 2.53194 25.7597 3.29679 25.5685 3.93545 23.0139 3.17059ZM27.6757 3.87044 30.2303 4.63529 30.0391 5.27395 27.4845 4.50909ZM32.1463 5.20894 33.1149 5.49894 34.6692 6.177 34.4026 6.78805 32.8667 6.11803 32.9044 6.13183 31.9551 5.84759ZM36.5023 6.9767 38.9466 8.04297 38.68 8.65402 36.2358 7.58775ZM40.7797 8.84267 42.4592 9.57534 43.2174 9.9889 42.8982 10.5742 42.1529 10.1676 42.1792 10.1805 40.5132 9.45372ZM44.9732 10.9466 46.6112 11.8401 47.3007 12.3075 46.9266 12.8593 46.2504 12.4009 46.2779 12.4176 44.654 11.5319ZM48.9561 13.4298 50.3207 14.355 51.1425 14.9907 50.7345 15.518 49.921 14.8887 49.9379 14.9009 48.582 13.9816ZM52.7244 16.2144 53.6582 16.9368 54.739 18.0175 54.2675 18.489 53.2018 17.4232 53.2335 17.4512 52.3165 16.7417ZM56.1532 19.4318 56.4363 19.7149 57.8751 21.5134 57.3545 21.9298 55.9272 20.1457 55.9518 20.1732 55.6818 19.9032ZM59.0707 23.1703 60.4296 25.4855 60.4457 25.5328 59.8146 25.7476 59.8094 25.7324 59.8375 25.7937 58.4958 23.5078ZM61.0902 27.4261 61.4514 28.4869 61.6557 30.0872 60.9944 30.1716 60.7943 28.6047 60.8094 28.6699 60.4591 27.6409ZM61.9089 32.0711 62.2056 34.3953 62.1905 34.3301 62.2948 34.6364 61.6637 34.8513 61.5486 34.5131 61.2477 32.1555ZM62.9394 36.5298 63.1905 37.2676 63.1625 37.2063 64.1178 38.8339 63.5429 39.1713 62.5704 37.5145 62.3083 36.7446ZM65.1686 40.4741 66.8345 42.5564 66.3139 42.9728 64.648 40.8905ZM68.1927 43.9713 69.7982 45.5768 69.7665 45.5488 70.0797 45.7912 69.6718 46.3185 69.3418 46.0632 67.7213 44.4427ZM71.6617 47.0149 73.079 48.1113 73.062 48.0991 73.7861 48.59 73.412 49.1418 72.6793 48.645 71.2537 47.5422ZM75.4415 49.7123 76.7495 50.5991 76.7236 50.5832 77.6746 51.1084 77.3524 51.692 76.388 51.1594 75.0674 50.2641ZM79.4254 52.0752 80.9111 52.8957 80.8823 52.8815 81.7721 53.2663 81.5075 53.8782 80.6029 53.4871 79.1031 52.6588ZM83.6078 54.0602 86.0555 55.1186 85.7908 55.7305 83.3432 54.6721ZM87.8912 55.9124 90.1323 56.8815 90.0956 56.8682 90.3111 56.9327 90.1199 57.5714 89.8857 57.5012 87.6266 56.5243ZM92.2271 57.5063 94.7817 58.2712 94.5905 58.9098 92.0359 58.145ZM96.6977 58.8448 99.2523 59.6097 99.0611 60.2484 96.5065 59.4835ZM101.149 60.1024 103.773 60.5768 103.655 61.2329 101.031 60.7585ZM105.741 60.9327 108.366 61.4071 108.247 62.0631 105.623 61.5887ZM110.334 61.7629 111.559 61.9845 111.52 61.9798 112.939 62.0646 112.899 62.73 111.46 62.6441 110.215 62.4189ZM114.935 62.1839 117.597 62.3431 117.557 63.0085 114.895 62.8494ZM119.593 62.4624 122.255 62.6216 122.215 63.287 119.554 63.1279ZM114.819 57.5475 123.002 63.0001 114.227 67.439C114.063 67.5221 113.863 67.4563 113.78 67.2921 113.696 67.1278 113.762 66.9273 113.926 66.8442L122.191 62.6632 122.156 63.238 114.449 58.1023C114.296 58.0002 114.254 57.7932 114.357 57.64 114.459 57.4868 114.666 57.4454 114.819 57.5475Z" fill="#FF0000" transform="matrix(1 0 0 -1 445.5 405.461)"/><g clip-path="url(#clip22)"><g clip-path="url(#clip23)"><g clip-path="url(#clip24)"><path d="M10.1296 11.9158 21.3271 11.9158 21.3271 12.8564 10.1296 12.8564Z" transform="matrix(1.03846 0 0 1 509 260)"/><path d="M9.16403 15.6341 20.3615 15.6341 20.3615 16.5752 9.16403 16.5752Z" transform="matrix(1.03846 0 0 1 509 260)"/><path d="M25.9636 1.8587 25.9636 1.25359 7.01375 1.25359 7.01375 1.8587C7.01375 3.10837 7.04849 4.41472 7.04849 5.77109 7.04849 7.74922 6.97562 9.83323 6.62299 12.0028 6.28753 14.0661 5.70004 16.2072 4.68041 18.4146L2.85639 18.4146C2.53409 18.4146 2.20868 18.4664 1.89475 18.5753 1.42446 18.7386 0.979215 19.0368 0.641977 19.475 0.303875 19.9123 0.0808437 20.481 0.0145234 21.1515 0.004875 21.2485 0 21.3451 0 21.4408-0.000457031 21.9269 0.124719 22.3853 0.335461 22.7871 0.652031 23.3913 1.15218 23.8713 1.73311 24.2063 2.31497 24.5409 2.98233 24.7336 3.66204 24.7384L18.0676 24.7464C18.6161 24.7477 19.0916 24.6357 19.4965 24.4517 19.9017 24.2687 20.2324 24.0254 20.5393 23.7808 21.7943 22.7814 22.7638 21.5427 23.5081 20.1679 24.6247 18.1033 25.2412 15.7313 25.5859 13.3193 25.9297 10.9073 25.9995 8.45183 25.9999 6.21679 26 4.61622 25.9636 3.12812 25.9636 1.8587ZM3.66869 23.5288 3.66915 23.5288C3.36878 23.5274 3.05744 23.4681 2.7628 23.358 2.32025 23.1937 1.91887 22.9153 1.64267 22.5794 1.50394 22.4112 1.39593 22.2294 1.32214 22.0398 1.24886 21.8496 1.20971 21.6517 1.20971 21.4409 1.20971 21.3856 1.21235 21.3293 1.21809 21.2723 1.25013 20.9526 1.32696 20.6966 1.42883 20.4898 1.5825 20.1807 1.79024 19.9752 2.03526 19.8342 2.27982 19.6946 2.56654 19.6314 2.85639 19.6314L15.8204 19.6314C15.6799 19.7925 15.5548 19.9769 15.4546 20.1855 15.3071 20.4911 15.2083 20.8459 15.1683 21.2451 15.1595 21.3359 15.1551 21.4251 15.1551 21.5138 15.1551 21.9362 15.2561 22.3362 15.4317 22.6915 15.5898 23.0107 15.8072 23.2944 16.0649 23.5359L3.66869 23.5288ZM23.9644 15.4322C23.6153 16.923 23.1248 18.3355 22.4442 19.5922 21.7636 20.8489 20.8964 21.9493 19.7854 22.835 19.5053 23.0589 19.2589 23.2324 18.9994 23.3487 18.7386 23.465 18.4607 23.5353 18.0681 23.5366L17.6642 23.5362C17.2984 23.4326 16.959 23.2495 16.6828 23.0088 16.4597 22.8152 16.2792 22.586 16.1549 22.334 16.0307 22.0819 15.9617 21.8079 15.9617 21.5137 15.9617 21.4523 15.9644 21.3895 15.971 21.3258 16.0026 21.0092 16.0781 20.7488 16.1808 20.5354 16.3359 20.2158 16.5493 19.9984 16.7961 19.8522 17.0424 19.7069 17.3256 19.6361 17.6083 19.6366 17.8938 19.6357 18.1765 19.7095 18.4106 19.8408 18.6455 19.973 18.8295 20.1587 18.9411 20.3901 18.9999 20.5122 19.0363 20.6751 19.0363 20.8394 19.0363 20.9741 19.0122 21.1081 18.9683 21.2201 18.9248 21.3329 18.8628 21.4212 18.7908 21.4827 18.6556 21.5964 18.5177 21.6394 18.3785 21.6403 18.2573 21.6403 18.1362 21.6038 18.0352 21.5384 17.9333 21.4734 17.8542 21.3821 17.8077 21.2736L17.0665 21.5916C17.1798 21.8564 17.3703 22.0702 17.5996 22.2173 17.8283 22.3644 18.0979 22.4465 18.3785 22.4465 18.6995 22.4478 19.0363 22.3341 19.3138 22.0965 19.5039 21.934 19.6356 21.7285 19.7199 21.5121 19.8038 21.2956 19.842 21.0663 19.842 20.8394 19.842 20.5636 19.7863 20.2892 19.6677 20.0411 19.4776 19.6454 19.1663 19.3402 18.8053 19.1378 18.4514 18.9398 18.0474 18.8362 17.6368 18.8309L17.6368 18.8247 5.82461 18.8247C6.86705 16.541 7.47216 14.32 7.81681 12.1969 8.18477 9.9321 8.25764 7.77832 8.25764 5.77119 8.25764 4.61723 8.23438 3.51421 8.22692 2.46345L24.7569 2.46345C24.7648 3.60638 24.7902 4.87541 24.7902 6.21684 24.7912 9.1618 24.6634 12.4507 23.9644 15.4322Z" transform="matrix(1.03846 0 0 1 509 260)"/><path d="M16.8171 9.56404C16.959 7.98327 16.966 6.47014 16.9515 5.03912L10.6868 5.03912C10.7013 6.47014 10.6938 7.98327 10.552 9.56404L16.8171 9.56404Z" transform="matrix(1.03846 0 0 1 509 260)"/></g></g></g><text font-family="Calibri,Calibri_MSFontService,sans-serif" font-weight="400" font-size="11" transform="translate(524.681 271)">12</text><g clip-path="url(#clip25)"><g clip-path="url(#clip26)"><g clip-path="url(#clip27)"><path d="M10.1296 11.9158 21.3271 11.9158 21.3271 12.8564 10.1296 12.8564Z" stroke="#FF0000" stroke-width="0.0508138" fill="#FF0000" transform="matrix(1 0 0 1.03846 476 281)"/><path d="M9.16403 15.6341 20.3615 15.6341 20.3615 16.5752 9.16403 16.5752Z" stroke="#FF0000" stroke-width="0.0508138" fill="#FF0000" transform="matrix(1 0 0 1.03846 476 281)"/><path d="M25.9636 1.8587 25.9636 1.25359 7.01375 1.25359 7.01375 1.8587C7.01375 3.10837 7.04849 4.41472 7.04849 5.77109 7.04849 7.74922 6.97562 9.83323 6.62299 12.0028 6.28753 14.0661 5.70004 16.2072 4.68041 18.4146L2.85639 18.4146C2.53409 18.4146 2.20868 18.4664 1.89475 18.5753 1.42446 18.7386 0.979215 19.0368 0.641977 19.475 0.303875 19.9123 0.0808437 20.481 0.0145234 21.1515 0.004875 21.2485 0 21.3451 0 21.4408-0.000457031 21.9269 0.124719 22.3853 0.335461 22.7871 0.652031 23.3913 1.15218 23.8713 1.73311 24.2063 2.31497 24.5409 2.98233 24.7336 3.66204 24.7384L18.0676 24.7464C18.6161 24.7477 19.0916 24.6357 19.4965 24.4517 19.9017 24.2687 20.2324 24.0254 20.5393 23.7808 21.7943 22.7814 22.7638 21.5427 23.5081 20.1679 24.6247 18.1033 25.2412 15.7313 25.5859 13.3193 25.9297 10.9073 25.9995 8.45183 25.9999 6.21679 26 4.61622 25.9636 3.12812 25.9636 1.8587ZM3.66869 23.5288 3.66915 23.5288C3.36878 23.5274 3.05744 23.4681 2.7628 23.358 2.32025 23.1937 1.91887 22.9153 1.64267 22.5794 1.50394 22.4112 1.39593 22.2294 1.32214 22.0398 1.24886 21.8496 1.20971 21.6517 1.20971 21.4409 1.20971 21.3856 1.21235 21.3293 1.21809 21.2723 1.25013 20.9526 1.32696 20.6966 1.42883 20.4898 1.5825 20.1807 1.79024 19.9752 2.03526 19.8342 2.27982 19.6946 2.56654 19.6314 2.85639 19.6314L15.8204 19.6314C15.6799 19.7925 15.5548 19.9769 15.4546 20.1855 15.3071 20.4911 15.2083 20.8459 15.1683 21.2451 15.1595 21.3359 15.1551 21.4251 15.1551 21.5138 15.1551 21.9362 15.2561 22.3362 15.4317 22.6915 15.5898 23.0107 15.8072 23.2944 16.0649 23.5359L3.66869 23.5288ZM23.9644 15.4322C23.6153 16.923 23.1248 18.3355 22.4442 19.5922 21.7636 20.8489 20.8964 21.9493 19.7854 22.835 19.5053 23.0589 19.2589 23.2324 18.9994 23.3487 18.7386 23.465 18.4607 23.5353 18.0681 23.5366L17.6642 23.5362C17.2984 23.4326 16.959 23.2495 16.6828 23.0088 16.4597 22.8152 16.2792 22.586 16.1549 22.334 16.0307 22.0819 15.9617 21.8079 15.9617 21.5137 15.9617 21.4523 15.9644 21.3895 15.971 21.3258 16.0026 21.0092 16.0781 20.7488 16.1808 20.5354 16.3359 20.2158 16.5493 19.9984 16.7961 19.8522 17.0424 19.7069 17.3256 19.6361 17.6083 19.6366 17.8938 19.6357 18.1765 19.7095 18.4106 19.8408 18.6455 19.973 18.8295 20.1587 18.9411 20.3901 18.9999 20.5122 19.0363 20.6751 19.0363 20.8394 19.0363 20.9741 19.0122 21.1081 18.9683 21.2201 18.9248 21.3329 18.8628 21.4212 18.7908 21.4827 18.6556 21.5964 18.5177 21.6394 18.3785 21.6403 18.2573 21.6403 18.1362 21.6038 18.0352 21.5384 17.9333 21.4734 17.8542 21.3821 17.8077 21.2736L17.0665 21.5916C17.1798 21.8564 17.3703 22.0702 17.5996 22.2173 17.8283 22.3644 18.0979 22.4465 18.3785 22.4465 18.6995 22.4478 19.0363 22.3341 19.3138 22.0965 19.5039 21.934 19.6356 21.7285 19.7199 21.5121 19.8038 21.2956 19.842 21.0663 19.842 20.8394 19.842 20.5636 19.7863 20.2892 19.6677 20.0411 19.4776 19.6454 19.1663 19.3402 18.8053 19.1378 18.4514 18.9398 18.0474 18.8362 17.6368 18.8309L17.6368 18.8247 5.82461 18.8247C6.86705 16.541 7.47216 14.32 7.81681 12.1969 8.18477 9.9321 8.25764 7.77832 8.25764 5.77119 8.25764 4.61723 8.23438 3.51421 8.22692 2.46345L24.7569 2.46345C24.7648 3.60638 24.7902 4.87541 24.7902 6.21684 24.7912 9.1618 24.6634 12.4507 23.9644 15.4322Z" stroke="#FF0000" stroke-width="0.0508138" fill="#FF0000" transform="matrix(1 0 0 1.03846 476 281)"/><path d="M16.8171 9.56404C16.959 7.98327 16.966 6.47014 16.9515 5.03912L10.6868 5.03912C10.7013 6.47014 10.6938 7.98327 10.552 9.56404L16.8171 9.56404Z" stroke="#FF0000" stroke-width="0.0508138" fill="#FF0000" transform="matrix(1 0 0 1.03846 476 281)"/></g></g></g><text font-family="Calibri,Calibri_MSFontService,sans-serif" font-weight="400" font-size="11" transform="translate(493.654 292)">2</text><g clip-path="url(#clip28)"><g clip-path="url(#clip29)"><g clip-path="url(#clip30)"><path d="M477.13 392.916 488.327 392.916 488.327 393.856 477.13 393.856Z" stroke="#FF0000" stroke-width="0.0508138" fill="#FF0000"/><path d="M476.164 396.634 487.362 396.634 487.362 397.575 476.164 397.575Z" stroke="#FF0000" stroke-width="0.0508138" fill="#FF0000"/><path d="M492.964 382.859 492.964 382.254 474.014 382.254 474.014 382.859C474.014 384.108 474.048 385.415 474.048 386.771 474.048 388.749 473.976 390.833 473.623 393.003 473.288 395.066 472.7 397.207 471.68 399.415L469.856 399.415C469.534 399.415 469.209 399.466 468.895 399.575 468.424 399.739 467.979 400.037 467.642 400.475 467.304 400.912 467.081 401.481 467.015 402.152 467.005 402.249 467 402.345 467 402.441 467 402.927 467.125 403.385 467.335 403.787 467.652 404.391 468.152 404.871 468.733 405.206 469.315 405.541 469.982 405.734 470.662 405.738L485.068 405.746C485.616 405.748 486.092 405.636 486.496 405.452 486.902 405.269 487.232 405.025 487.539 404.781 488.794 403.781 489.764 402.543 490.508 401.168 491.625 399.103 492.241 396.731 492.586 394.319 492.93 391.907 493 389.452 493 387.217 493 385.616 492.964 384.128 492.964 382.859ZM470.669 404.529 470.669 404.529C470.369 404.527 470.057 404.468 469.763 404.358 469.32 404.194 468.919 403.915 468.643 403.579 468.504 403.411 468.396 403.229 468.322 403.04 468.249 402.85 468.21 402.652 468.21 402.441 468.21 402.386 468.212 402.329 468.218 402.272 468.25 401.953 468.327 401.697 468.429 401.49 468.582 401.181 468.79 400.975 469.035 400.834 469.28 400.695 469.567 400.631 469.856 400.631L482.82 400.631C482.68 400.793 482.555 400.977 482.455 401.185 482.307 401.491 482.208 401.846 482.168 402.245 482.16 402.336 482.155 402.425 482.155 402.514 482.155 402.936 482.256 403.336 482.432 403.691 482.59 404.011 482.807 404.294 483.065 404.536L470.669 404.529ZM490.964 396.432C490.615 397.923 490.125 399.336 489.444 400.592 488.764 401.849 487.896 402.949 486.785 403.835 486.505 404.059 486.259 404.232 485.999 404.349 485.739 404.465 485.461 404.535 485.068 404.537L484.664 404.536C484.298 404.433 483.959 404.249 483.683 404.009 483.46 403.815 483.279 403.586 483.155 403.334 483.031 403.082 482.962 402.808 482.962 402.514 482.962 402.452 482.964 402.389 482.971 402.326 483.003 402.009 483.078 401.749 483.181 401.535 483.336 401.216 483.549 400.998 483.796 400.852 484.042 400.707 484.326 400.636 484.608 400.637 484.894 400.636 485.177 400.71 485.411 400.841 485.646 400.973 485.83 401.159 485.941 401.39 486 401.512 486.036 401.675 486.036 401.839 486.036 401.974 486.012 402.108 485.968 402.22 485.925 402.333 485.863 402.421 485.791 402.483 485.656 402.596 485.518 402.639 485.379 402.64 485.257 402.64 485.136 402.604 485.035 402.538 484.933 402.473 484.854 402.382 484.808 402.274L484.067 402.592C484.18 402.856 484.37 403.07 484.6 403.217 484.828 403.364 485.098 403.446 485.379 403.446 485.699 403.448 486.036 403.334 486.314 403.096 486.504 402.934 486.636 402.729 486.72 402.512 486.804 402.296 486.842 402.066 486.842 401.839 486.842 401.564 486.786 401.289 486.668 401.041 486.478 400.645 486.166 400.34 485.805 400.138 485.451 399.94 485.047 399.836 484.637 399.831L484.637 399.825 472.825 399.825C473.867 397.541 474.472 395.32 474.817 393.197 475.185 390.932 475.258 388.778 475.258 386.771 475.258 385.617 475.234 384.514 475.227 383.463L491.757 383.463C491.765 384.606 491.79 385.875 491.79 387.217 491.791 390.162 491.663 393.451 490.964 396.432Z" stroke="#FF0000" stroke-width="0.0508138" fill="#FF0000"/><path d="M483.817 390.564C483.959 388.983 483.966 387.47 483.951 386.039L477.687 386.039C477.701 387.47 477.694 388.983 477.552 390.564L483.817 390.564Z" stroke="#FF0000" stroke-width="0.0508138" fill="#FF0000"/></g></g></g><text font-family="Calibri,Calibri_MSFontService,sans-serif" font-weight="400" font-size="11" transform="translate(484.451 392)">1</text><path d="M67.5001 343.5 380.918 343.5 380.918 378.375 394.25 378.375 394.25 366.75 417.5 390 394.25 413.25 394.25 401.625 380.918 401.625 380.918 436.5 67.5001 436.5Z" stroke="#FFC000" stroke-width="0.666667" stroke-miterlimit="8" fill="url(#fill31)" fill-rule="evenodd"/><text font-family="Yu Gothic,Yu Gothic_MSFontService,sans-serif" font-weight="400" font-size="13" transform="translate(76.7151 360)">概念情報モデル上の定義を使って<tspan font-size="13" x="0" y="16">クエリーを組み立てる</tspan><tspan font-family="Calibri,Calibri_MSFontService,sans-serif" font-size="13" x="0" y="48">products := [</tspan><tspan font-family="Calibri,Calibri_MSFontService,sans-serif" font-size="13" x="68.3333" y="48">N008:</tspan><tspan font-size="13" x="101" y="48">商品</tspan><tspan font-family="Calibri,Calibri_MSFontService,sans-serif" font-size="13" x="127.667" y="48">]</tspan></text><path d="M144.715 408.943 204.715 408.943 204.715 409.943 144.715 409.943Z" fill-rule="evenodd"/><text font-family="Calibri,Calibri_MSFontService,sans-serif" font-weight="400" font-size="13" transform="translate(76.7151 424)">SELECT * FROM <tspan font-family="Yu Gothic,Yu Gothic_MSFontService,sans-serif" font-size="13" x="87.6667" y="0">注文</tspan><tspan font-size="13" x="117.333" y="0">RELATED BY products.R1</tspan></text><path d="M0 14 16 0 32 14Z" fill="#FF0000" fill-rule="evenodd" fill-opacity="0.501961" transform="matrix(1 0 0 -1 280 196)"/><path d="M558.5 325.667C558.5 321.156 562.156 317.5 566.667 317.5L602.333 317.5C606.844 317.5 610.5 321.156 610.5 325.667L610.5 358.333C610.5 362.844 606.844 366.5 602.333 366.5L566.667 366.5C562.156 366.5 558.5 362.844 558.5 358.333Z" stroke="#FF0000" stroke-width="1.33333" stroke-miterlimit="8" fill="none" fill-rule="evenodd"/><path d="M435 429 435 458.081" stroke="#000000" stroke-width="8" stroke-miterlimit="8" stroke-dasharray="8 8" fill="none" fill-rule="evenodd"/><path d="M583 428 583 457.081" stroke="#000000" stroke-width="8" stroke-miterlimit="8" stroke-dasharray="8 8" fill="none" fill-rule="evenodd"/><path d="M0 13 34 0 68 13Z" fill="#FF0000" fill-rule="evenodd" fill-opacity="0.501961" transform="matrix(1 0 0 -1 188 467)"/><text font-family="Yu Gothic,Yu Gothic_MSFontService,sans-serif" font-weight="400" font-size="13" transform="translate(398.191 546)">クエリーをかけた時点に存在する<tspan font-family="Calibri,Calibri_MSFontService,sans-serif" font-size="13" x="0" y="16">N008:</tspan><tspan font-size="13" x="32.6667" y="16">商品</tspan><tspan font-size="13" x="59.3333" y="16">に関係</tspan><tspan font-family="Calibri,Calibri_MSFontService,sans-serif" font-size="13" x="99.3333" y="16">R1</tspan>でリンクされた</text><path d="M398.191 562.701 427.691 562.701 457.191 562.701 457.191 563.701 427.691 563.701 398.191 563.701Z" fill-rule="evenodd"/><text font-family="Yu Gothic,Yu Gothic_MSFontService,sans-serif" font-weight="400" font-size="13" transform="translate(398.191 578)">注文インスタンスを取り出す</text><path d="M0 57 0 23.625C-3.62843e-15 13.4768 8.22678 5.25 18.375 5.25L31.5 5.25 31.5 0 42 10.5 31.5 21 31.5 15.75 18.375 15.75C14.0258 15.75 10.5 19.2758 10.5 23.625L10.5 57Z" stroke="#BC8C00" stroke-width="1.33333" stroke-miterlimit="8" stroke-opacity="0.501961" fill="#FFC000" fill-rule="evenodd" fill-opacity="0.501961" transform="matrix(1.83697e-16 1 1 -1.83697e-16 214.5 237.5)"/><text font-family="Yu Gothic,Yu Gothic_MSFontService,sans-serif" font-weight="400" font-size="13" transform="translate(282.083 177)">起点</text><path d="M0 15 15.5 0 31 15Z" fill="#FF0000" fill-rule="evenodd" fill-opacity="0.501961" transform="matrix(6.12323e-17 1 1 -6.12323e-17 253 284)"/><text font-family="Yu Gothic,Yu Gothic_MSFontService,sans-serif" font-weight="400" font-size="13" transform="translate(271.566 305)">ターゲット<tspan font-family="Calibri,Calibri_MSFontService,sans-serif" font-size="11" x="-68.9314" y="-80">R1</tspan></text><rect x="247.5" y="479.5" width="56" height="29" stroke="#000000" stroke-width="0.666667" stroke-miterlimit="8" fill="#FFFFFF"/><text font-family="Yu Gothic,Yu Gothic_MSFontService,sans-serif" font-weight="400" font-size="12" transform="translate(258.172 497)">顧客<tspan font-family="Calibri,Calibri_MSFontService,sans-serif" font-size="12" x="24" y="0">ID</tspan></text><rect x="247.5" y="508.5" width="56" height="29" stroke="#000000" stroke-width="0.666667" stroke-miterlimit="8" fill="#FFFFFF"/><text font-family="Calibri,Calibri_MSFontService,sans-serif" font-weight="400" font-size="11" transform="translate(264.505 526)">C003</text><rect x="247.5" y="537.5" width="56" height="29" stroke="#000000" stroke-width="0.666667" stroke-miterlimit="8" fill="#FFFFFF"/><text font-family="Calibri,Calibri_MSFontService,sans-serif" font-weight="400" font-size="11" transform="translate(264.505 555)">C003</text><rect x="247.5" y="566.5" width="56" height="29" stroke="#000000" stroke-width="0.666667" stroke-miterlimit="8" fill="#FFFFFF"/><text font-family="Calibri,Calibri_MSFontService,sans-serif" font-weight="400" font-size="11" transform="translate(264.505 584)">C026</text><rect x="247.5" y="595.5" width="56" height="29" stroke="#000000" stroke-width="0.666667" stroke-miterlimit="8" fill="#FFFFFF"/><text font-family="Yu Gothic,Yu Gothic_MSFontService,sans-serif" font-weight="400" font-size="11" transform="translate(259.338 613)">・・・</text><rect x="303.5" y="479.5" width="56" height="29" stroke="#000000" stroke-width="0.666667" stroke-miterlimit="8" fill="#FFFFFF"/><text font-family="Yu Gothic,Yu Gothic_MSFontService,sans-serif" font-weight="400" font-size="11" transform="translate(320.742 491)">商品<tspan font-size="11" x="-5.33331" y="13">コード</tspan></text><rect x="303.5" y="508.5" width="56" height="29" stroke="#000000" stroke-width="0.666667" stroke-miterlimit="8" fill="#FFFFFF"/><text font-family="Calibri,Calibri_MSFontService,sans-serif" font-weight="400" font-size="11" transform="translate(319.992 526)">N008</text><rect x="303.5" y="537.5" width="56" height="29" stroke="#000000" stroke-width="0.666667" stroke-miterlimit="8" fill="#FFFFFF"/><text font-family="Calibri,Calibri_MSFontService,sans-serif" font-weight="400" font-size="11" transform="translate(319.992 555)">N008</text><rect x="303.5" y="566.5" width="56" height="29" stroke="#000000" stroke-width="0.666667" stroke-miterlimit="8" fill="#FFFFFF"/><text font-family="Calibri,Calibri_MSFontService,sans-serif" font-weight="400" font-size="11" transform="translate(319.992 584)">N008</text><rect x="303.5" y="595.5" width="56" height="29" stroke="#000000" stroke-width="0.666667" stroke-miterlimit="8" fill="#FFFFFF"/><text font-family="Yu Gothic,Yu Gothic_MSFontService,sans-serif" font-weight="400" font-size="11" transform="translate(315.409 613)">・・・</text><rect x="81.5001" y="479.5" width="56" height="29" stroke="#000000" stroke-width="0.666667" stroke-miterlimit="8" fill="#FFFFFF"/><text font-family="Yu Gothic,Yu Gothic_MSFontService,sans-serif" font-weight="400" font-size="12" transform="translate(91.5249 497)">注文<tspan font-family="Calibri,Calibri_MSFontService,sans-serif" font-size="12" x="24" y="0">ID</tspan></text><rect x="137.5" y="479.5" width="56" height="29" stroke="#000000" stroke-width="0.666667" stroke-miterlimit="8" fill="#FFFFFF"/><text font-family="Yu Gothic,Yu Gothic_MSFontService,sans-serif" font-weight="400" font-size="12" transform="translate(152.762 497)">個数</text><rect x="192.5" y="479.5" width="56" height="29" stroke="#000000" stroke-width="0.666667" stroke-miterlimit="8" fill="#FFFFFF"/><text font-family="Yu Gothic,Yu Gothic_MSFontService,sans-serif" font-weight="400" font-size="12" transform="translate(207.79 497)">金額</text><rect x="81.5001" y="508.5" width="56" height="29" stroke="#000000" stroke-width="0.666667" stroke-miterlimit="8" fill="#FFFFFF"/><text font-family="Calibri,Calibri_MSFontService,sans-serif" font-weight="400" font-size="11" transform="translate(91.775 520)">C172N0<tspan font-size="11" x="1.91333" y="13">08</tspan><tspan font-size="11" x="12.58" y="13">-</tspan><tspan font-size="11" x="15.9133" y="13">003</tspan></text><rect x="137.5" y="508.5" width="56" height="29" stroke="#000000" stroke-width="0.666667" stroke-miterlimit="8" fill="#FFFFFF"/><text font-family="Calibri,Calibri_MSFontService,sans-serif" font-weight="400" font-size="11" transform="translate(162.096 526)">2</text><rect x="192.5" y="508.5" width="56" height="29" stroke="#000000" stroke-width="0.666667" stroke-miterlimit="8" fill="#FFFFFF"/><text font-family="Calibri,Calibri_MSFontService,sans-serif" font-weight="400" font-size="11" transform="translate(209.123 526)">7000</text><rect x="81.5001" y="537.5" width="56" height="29" stroke="#000000" stroke-width="0.666667" stroke-miterlimit="8" fill="#FFFFFF"/><text font-family="Calibri,Calibri_MSFontService,sans-serif" font-weight="400" font-size="11" transform="translate(91.775 549)">C003N0<tspan font-size="11" x="1.91333" y="13">08</tspan><tspan font-size="11" x="12.58" y="13">-</tspan><tspan font-size="11" x="15.9133" y="13">005</tspan></text><rect x="137.5" y="537.5" width="56" height="29" stroke="#000000" stroke-width="0.666667" stroke-miterlimit="8" fill="#FFFFFF"/><text font-family="Calibri,Calibri_MSFontService,sans-serif" font-weight="400" font-size="11" transform="translate(162.096 555)">1</text><rect x="192.5" y="537.5" width="56" height="29" stroke="#000000" stroke-width="0.666667" stroke-miterlimit="8" fill="#FFFFFF"/><text font-family="Calibri,Calibri_MSFontService,sans-serif" font-weight="400" font-size="11" transform="translate(209.123 555)">3500</text><rect x="81.5001" y="566.5" width="56" height="29" stroke="#000000" stroke-width="0.666667" stroke-miterlimit="8" fill="#FFFFFF"/><text font-family="Calibri,Calibri_MSFontService,sans-serif" font-weight="400" font-size="11" transform="translate(91.775 578)">C026N0<tspan font-size="11" x="1.91333" y="13">08</tspan><tspan font-size="11" x="12.58" y="13">-</tspan><tspan font-size="11" x="15.9133" y="13">052</tspan></text><rect x="137.5" y="566.5" width="56" height="29" stroke="#000000" stroke-width="0.666667" stroke-miterlimit="8" fill="#FFFFFF"/><text font-family="Calibri,Calibri_MSFontService,sans-serif" font-weight="400" font-size="11" transform="translate(159.429 584)">5<tspan font-size="11" x="5.33334" y="0">0</tspan></text><rect x="192.5" y="566.5" width="56" height="29" stroke="#000000" stroke-width="0.666667" stroke-miterlimit="8" fill="#FFFFFF"/><text font-family="Calibri,Calibri_MSFontService,sans-serif" font-weight="400" font-size="11" transform="translate(206.456 584)">63000</text><rect x="81.5001" y="595.5" width="56" height="29" stroke="#000000" stroke-width="0.666667" stroke-miterlimit="8" fill="#FFFFFF"/><text font-family="Yu Gothic,Yu Gothic_MSFontService,sans-serif" font-weight="400" font-size="11" transform="translate(92.6917 613)">・・・</text><rect x="137.5" y="595.5" width="56" height="29" stroke="#000000" stroke-width="0.666667" stroke-miterlimit="8" fill="#FFFFFF"/><text font-family="Yu Gothic,Yu Gothic_MSFontService,sans-serif" font-weight="400" font-size="11" transform="translate(148.762 613)">・・・</text><rect x="192.5" y="595.5" width="56" height="29" stroke="#000000" stroke-width="0.666667" stroke-miterlimit="8" fill="#FFFFFF"/><text font-family="Yu Gothic,Yu Gothic_MSFontService,sans-serif" font-weight="400" font-size="11" transform="translate(203.79 613)">・・・</text></g></svg>