<svg width="608" height="566" xmlns="http://www.w3.org/2000/svg" xmlns:xlink="http://www.w3.org/1999/xlink" overflow="hidden"><defs><clipPath id="clip0"><rect x="56" y="93" width="608" height="566"/></clipPath><clipPath id="clip1"><rect x="78" y="148" width="270" height="222"/></clipPath><clipPath id="clip2"><rect x="78" y="148" width="271" height="222"/></clipPath><clipPath id="clip3"><rect x="78" y="148" width="271" height="222"/></clipPath><clipPath id="clip4"><rect x="78" y="148" width="270" height="222"/></clipPath><clipPath id="clip5"><rect x="253" y="271" width="9" height="10"/></clipPath><clipPath id="clip6"><rect x="253" y="271" width="9" height="10"/></clipPath><clipPath id="clip7"><rect x="253" y="271" width="9" height="10"/></clipPath><clipPath id="clip8"><rect x="328" y="303" width="13" height="12"/></clipPath><clipPath id="clip9"><rect x="328" y="303" width="13" height="12"/></clipPath><clipPath id="clip10"><rect x="328" y="303" width="13" height="12"/></clipPath><linearGradient x1="119.616" y1="139.13" x2="119.616" y2="141.664" gradientUnits="userSpaceOnUse" spreadMethod="reflect" id="fill11"><stop offset="0" stop-color="#FFDD9C"/><stop offset="0.5" stop-color="#FFD78E"/><stop offset="1" stop-color="#FFD479"/></linearGradient><clipPath id="clip12"><rect x="152" y="158" width="14" height="14"/></clipPath><clipPath id="clip13"><rect x="152" y="158" width="14" height="14"/></clipPath><clipPath id="clip14"><rect x="152" y="158" width="14" height="14"/></clipPath><clipPath id="clip15"><rect x="364" y="213" width="283" height="243"/></clipPath><clipPath id="clip16"><rect x="364" y="213" width="283" height="243"/></clipPath><clipPath id="clip17"><rect x="364" y="213" width="283" height="243"/></clipPath><clipPath id="clip18"><rect x="364" y="213" width="283" height="243"/></clipPath><clipPath id="clip19"><rect x="381" y="284" width="33" height="33"/></clipPath><clipPath id="clip20"><rect x="381" y="284" width="33" height="33"/></clipPath><clipPath id="clip21"><rect x="381" y="284" width="33" height="33"/></clipPath><linearGradient x1="223.661" y1="324.841" x2="223.661" y2="339.549" gradientUnits="userSpaceOnUse" spreadMethod="reflect" id="fill22"><stop offset="0" stop-color="#FFDD9C"/><stop offset="0.5" stop-color="#FFD78E"/><stop offset="1" stop-color="#FFD479"/></linearGradient><clipPath id="clip23"><rect x="485" y="228" width="17" height="17"/></clipPath><clipPath id="clip24"><rect x="485" y="228" width="17" height="17"/></clipPath><clipPath id="clip25"><rect x="485" y="228" width="17" height="17"/></clipPath><clipPath id="clip26"><rect x="574" y="245" width="13" height="12"/></clipPath><clipPath id="clip27"><rect x="574" y="245" width="13" height="12"/></clipPath><clipPath id="clip28"><rect x="574" y="245" width="13" height="12"/></clipPath><clipPath id="clip29"><rect x="520" y="228" width="20" height="17"/></clipPath><clipPath id="clip30"><rect x="520" y="228" width="20" height="17"/></clipPath><clipPath id="clip31"><rect x="520" y="228" width="20" height="17"/></clipPath><clipPath id="clip32"><rect x="558" y="228" width="17" height="17"/></clipPath><clipPath id="clip33"><rect x="558" y="228" width="17" height="17"/></clipPath><clipPath id="clip34"><rect x="558" y="228" width="17" height="17"/></clipPath><linearGradient x1="222.901" y1="397.874" x2="222.901" y2="412.582" gradientUnits="userSpaceOnUse" spreadMethod="reflect" id="fill35"><stop offset="0" stop-color="#FFDD9C"/><stop offset="0.5" stop-color="#FFD78E"/><stop offset="1" stop-color="#FFD479"/></linearGradient><clipPath id="clip36"><rect x="484" y="303" width="17" height="17"/></clipPath><clipPath id="clip37"><rect x="484" y="303" width="17" height="17"/></clipPath><clipPath id="clip38"><rect x="484" y="303" width="17" height="17"/></clipPath><clipPath id="clip39"><rect x="500" y="319" width="12" height="13"/></clipPath><clipPath id="clip40"><rect x="500" y="319" width="12" height="13"/></clipPath><clipPath id="clip41"><rect x="500" y="319" width="12" height="13"/></clipPath><clipPath id="clip42"><rect x="521" y="302" width="17" height="17"/></clipPath><clipPath id="clip43"><rect x="521" y="302" width="17" height="17"/></clipPath><clipPath id="clip44"><rect x="521" y="302" width="17" height="17"/></clipPath><clipPath id="clip45"><rect x="557" y="303" width="17" height="17"/></clipPath><clipPath id="clip46"><rect x="557" y="303" width="17" height="17"/></clipPath><clipPath id="clip47"><rect x="557" y="303" width="17" height="17"/></clipPath><clipPath id="clip48"><rect x="593" y="303" width="17" height="17"/></clipPath><clipPath id="clip49"><rect x="593" y="303" width="17" height="17"/></clipPath><clipPath id="clip50"><rect x="593" y="303" width="17" height="17"/></clipPath><linearGradient x1="222.901" y1="474.456" x2="222.901" y2="488.657" gradientUnits="userSpaceOnUse" spreadMethod="reflect" id="fill51"><stop offset="0" stop-color="#FFDD9C"/><stop offset="0.5" stop-color="#FFD78E"/><stop offset="1" stop-color="#FFD479"/></linearGradient><clipPath id="clip52"><rect x="484" y="378" width="17" height="16"/></clipPath><clipPath id="clip53"><rect x="484" y="378" width="17" height="16"/></clipPath><clipPath id="clip54"><rect x="484" y="378" width="17" height="16"/></clipPath><clipPath id="clip55"><rect x="521" y="378" width="17" height="17"/></clipPath><clipPath id="clip56"><rect x="521" y="378" width="17" height="17"/></clipPath><clipPath id="clip57"><rect x="521" y="378" width="17" height="17"/></clipPath><clipPath id="clip58"><rect x="557" y="379" width="17" height="16"/></clipPath><clipPath id="clip59"><rect x="557" y="379" width="17" height="16"/></clipPath><clipPath id="clip60"><rect x="557" y="379" width="17" height="16"/></clipPath><clipPath id="clip61"><rect x="381" y="391" width="32" height="33"/></clipPath><clipPath id="clip62"><rect x="381" y="391" width="32" height="33"/></clipPath><clipPath id="clip63"><rect x="381" y="391" width="32" height="33"/></clipPath><clipPath id="clip64"><rect x="535" y="394" width="13" height="13"/></clipPath><clipPath id="clip65"><rect x="535" y="394" width="13" height="13"/></clipPath><clipPath id="clip66"><rect x="535" y="394" width="13" height="13"/></clipPath><linearGradient x1="233" y1="386.5" x2="233" y2="471.5" gradientUnits="userSpaceOnUse" spreadMethod="reflect" id="fill67"><stop offset="0" stop-color="#FFDD9C"/><stop offset="0.5" stop-color="#FFD78E"/><stop offset="1" stop-color="#FFD479"/></linearGradient></defs><g clip-path="url(#clip0)" transform="translate(-56 -93)"><rect x="58.5001" y="94.5001" width="604" height="564" stroke="#D9D9D9" stroke-width="1.33333" stroke-miterlimit="8" fill="none"/><text font-family="Yu Gothic,Yu Gothic_MSFontService,sans-serif" font-weight="400" font-size="16" transform="translate(67.2378 114)">条件に合致したインスタンスを取り出す</text><g clip-path="url(#clip1)"><g clip-path="url(#clip2)"><g clip-path="url(#clip3)"><g clip-path="url(#clip4)"><path d="M77.8014 35.2261 141.664 35.2261 141.664 79.322 77.8014 79.322Z" stroke="#000000" stroke-width="0.675797" stroke-miterlimit="8" fill="#FFFFFF" transform="matrix(1.00132 0 0 1 28.7707 113.534)"/><text font-family="Yu Gothic,Yu Gothic_MSFontService,sans-serif" font-weight="400" font-size="13" transform="matrix(0.507519 0 0 0.506849 131.671 157)">工場<tspan font-family="Consolas,Consolas_MSFontService,sans-serif" font-size="12" x="-40.2467" y="15.7838">*</tspan><tspan font-size="12" x="-33.58" y="15.7838">工場</tspan><tspan font-family="Consolas,Consolas_MSFontService,sans-serif" font-size="12" x="-9.58" y="15.7838">ID</tspan><tspan font-size="12" x="-28.2467" y="29.5946">工場名</tspan><tspan font-size="12" x="-28.2467" y="43.4054">所在地</tspan><tspan font-size="12" x="-28.2467" y="59.1892">消費電力</tspan><tspan font-family="Consolas,Consolas_MSFontService,sans-serif" font-size="12" x="19.7533" y="59.1892">(</tspan><tspan font-family="Consolas,Consolas_MSFontService,sans-serif" font-size="12" x="26.7533" y="59.1892">M</tspan><tspan font-family="Consolas,Consolas_MSFontService,sans-serif" font-size="12" x="33.7533" y="59.1892">)</tspan></text><path d="M77.8014 104.158 141.664 104.158 141.664 148.253 77.8014 148.253Z" stroke="#000000" stroke-width="0.675797" stroke-miterlimit="8" fill="#FFFFFF" transform="matrix(1.00132 0 0 1 28.7707 113.534)"/><text font-family="Yu Gothic,Yu Gothic_MSFontService,sans-serif" font-weight="400" font-size="13" transform="matrix(0.507519 0 0 0.506849 121.52 226)">生産ライン<tspan font-family="Consolas,Consolas_MSFontService,sans-serif" font-size="12" x="-20.2467" y="15.7838">*</tspan><tspan font-size="12" x="-13.58" y="15.7838">生産</tspan><tspan font-size="12" x="10.42" y="15.7838">ライン</tspan><tspan font-family="Consolas,Consolas_MSFontService,sans-serif" font-size="12" x="46.42" y="15.7838">ID</tspan><tspan font-size="12" x="-8.24666" y="29.5946">消費電力</tspan><tspan font-family="Consolas,Consolas_MSFontService,sans-serif" font-size="12" x="39.7533" y="29.5946">(</tspan><tspan font-family="Consolas,Consolas_MSFontService,sans-serif" font-size="12" x="46.7533" y="29.5946">M</tspan><tspan font-family="Consolas,Consolas_MSFontService,sans-serif" font-size="12" x="53.7533" y="29.5946">)</tspan><tspan font-size="12" x="-8.24666" y="43.4054">稼働状態</tspan></text><path d="M109.733 79.3219 109.733 104.095" stroke="#000000" stroke-width="0.3379" stroke-miterlimit="8" fill="none" fill-rule="evenodd" transform="matrix(1.00132 0 0 1 28.7707 113.534)"/><text font-family="Calibri,Calibri_MSFontService,sans-serif" font-weight="400" font-size="11" transform="matrix(0.507519 0 0 0.506849 134.869 206)">R<tspan font-size="11" x="6.00002" y="0">_</tspan><tspan font-size="11" x="11" y="0">FL</tspan><tspan font-size="11" x="21" y="0">1</tspan><tspan font-size="11" x="-0.814804" y="-13.8108">1</tspan></text><path d="M254.185 178.664 318.048 178.664 318.048 222.76 254.185 222.76Z" stroke="#000000" stroke-width="0.675797" stroke-miterlimit="8" fill="#FFFFFF" transform="matrix(1.00132 0 0 1 28.7707 113.534)"/><text font-family="Yu Gothic,Yu Gothic_MSFontService,sans-serif" font-weight="400" font-size="13" transform="matrix(0.507519 0 0 0.506849 308.363 300)">製品<tspan font-family="Consolas,Consolas_MSFontService,sans-serif" font-size="12" x="-40.2466" y="15.7838">*</tspan><tspan font-size="12" x="-33.58" y="15.7838">製品</tspan><tspan font-family="Consolas,Consolas_MSFontService,sans-serif" font-size="12" x="-9.58" y="15.7838">ID</tspan></text><path d="M77.8014 173.089 141.664 173.089 141.664 227.829 77.8014 227.829Z" stroke="#000000" stroke-width="0.675797" stroke-miterlimit="8" fill="#FFFFFF" transform="matrix(1.00132 0 0 1 28.7707 113.534)"/><text font-family="Yu Gothic,Yu Gothic_MSFontService,sans-serif" font-weight="400" font-size="13" transform="matrix(0.507519 0 0 0.506849 131.671 295)">装置<tspan font-family="Consolas,Consolas_MSFontService,sans-serif" font-size="12" x="-40.2467" y="15.7838">*</tspan><tspan font-size="12" x="-33.58" y="15.7838">装置</tspan><tspan font-family="Consolas,Consolas_MSFontService,sans-serif" font-size="12" x="-9.58" y="15.7838">ID</tspan><tspan font-size="12" x="-28.2467" y="29.5946">消費電力</tspan><tspan font-family="Consolas,Consolas_MSFontService,sans-serif" font-size="12" x="19.7533" y="29.5946">(</tspan><tspan font-family="Consolas,Consolas_MSFontService,sans-serif" font-size="12" x="26.7533" y="29.5946">M</tspan><tspan font-family="Consolas,Consolas_MSFontService,sans-serif" font-size="12" x="33.7533" y="29.5946">)</tspan><tspan font-size="12" x="-28.2467" y="43.4054">稼働状態</tspan><tspan font-size="12" x="-28.2467" y="57.2162">温度</tspan><tspan font-size="12" x="-28.2467" y="73">危険上限温度</tspan></text><path d="M0 0 5.32126e-05 24.7731" stroke="#000000" stroke-width="0.3379" stroke-miterlimit="8" fill="none" fill-rule="evenodd" transform="matrix(-1.00132 0 0 1 138.648 261.788)"/><path d="M0 0 17.6469 0 17.6469 74.6371 0.675797 74.6371" stroke="#000000" stroke-width="0.3379" stroke-miterlimit="8" fill="none" fill-rule="evenodd" transform="matrix(-1.00132 1.22465e-16 1.22627e-16 1 107.351 239.486)"/><path d="M125.759 227.829 125.759 246.161 95.0342 246.161 95.0342 228.504" stroke="#000000" stroke-width="0.3379" stroke-miterlimit="8" fill="none" fill-rule="evenodd" transform="matrix(1.00132 0 0 1 28.7707 113.534)"/><path d="M0 0 112.37 5.32126e-05" stroke="#000000" stroke-width="0.3379" stroke-miterlimit="8" fill="none" fill-rule="evenodd" transform="matrix(-1.00132 0 0 1 283.141 313.993)"/><path d="M0 0 52.2947 0 52.2947 144.415" stroke="#000000" stroke-width="0.3379" stroke-miterlimit="8" fill="none" fill-rule="evenodd" transform="matrix(-1.8394e-16 -1 -1.00132 1.83697e-16 315.227 291.781)"/><text font-family="Calibri,Calibri_MSFontService,sans-serif" font-weight="400" font-size="11" transform="matrix(0.507519 0 0 0.506849 134.456 267)">1<tspan font-size="11" x="76.0836" y="-59.1892">1</tspan><tspan font-size="11" x="-79.9445" y="-43.4054">0</tspan>..1<tspan font-size="11" x="-69.3974" y="86.8108">1</tspan><tspan font-size="11" x="-10.7708" y="-104.568">1</tspan><tspan font-size="11" x="-4.77082" y="-104.568">..*</tspan><tspan font-size="11" x="-9.55896" y="33.5405">1</tspan><tspan font-size="11" x="-3.55894" y="33.5405">..*</tspan><tspan font-size="11" x="345.494" y="41.4324">*</tspan><tspan font-size="11" x="76.1132" y="106.541">0</tspan><tspan font-size="11" x="82.1132" y="106.541">..</tspan><tspan font-size="11" x="88.1132" y="106.541">1</tspan><tspan font-size="11" x="273.139" y="84.8378">0</tspan><tspan font-size="11" x="279.139" y="84.8378">..</tspan>1<tspan font-size="11" x="-16.3168" y="159.811">0</tspan>..<tspan font-size="11" x="-4.3168" y="159.811">1</tspan><tspan font-size="11" x="19.7595" y="157.838">0</tspan><tspan font-size="11" x="25.7595" y="157.838">..</tspan><tspan font-size="11" x="31.7595" y="157.838">1</tspan><tspan font-family="Yu Gothic,Yu Gothic_MSFontService,sans-serif" font-size="11" x="-69.3974" y="163.757">前</tspan><tspan font-family="Yu Gothic,Yu Gothic_MSFontService,sans-serif" font-size="11" x="-58.7307" y="163.757">の</tspan><tspan font-family="Yu Gothic,Yu Gothic_MSFontService,sans-serif" font-size="11" x="-47.7307" y="163.757">工程</tspan><tspan font-family="Yu Gothic,Yu Gothic_MSFontService,sans-serif" font-size="11" x="43.1512" y="163.757">後</tspan><tspan font-family="Yu Gothic,Yu Gothic_MSFontService,sans-serif" font-size="11" x="54.1512" y="163.757">の</tspan><tspan font-family="Yu Gothic,Yu Gothic_MSFontService,sans-serif" font-size="11" x="65.1512" y="163.757">工程</tspan><tspan font-family="Yu Gothic,Yu Gothic_MSFontService,sans-serif" font-size="11" x="246.94" y="106.541">仕掛</tspan><tspan font-family="Yu Gothic,Yu Gothic_MSFontService,sans-serif" font-size="11" x="268.94" y="106.541">り</tspan><tspan font-family="Yu Gothic,Yu Gothic_MSFontService,sans-serif" font-size="11" x="279.94" y="106.541">品</tspan><tspan font-family="Yu Gothic,Yu Gothic_MSFontService,sans-serif" font-size="11" x="76.7743" y="84.8378">加工中</tspan><tspan font-family="Yu Gothic,Yu Gothic_MSFontService,sans-serif" font-size="11" x="361.61" y="41.4324">生産製品</tspan><tspan font-family="Yu Gothic,Yu Gothic_MSFontService,sans-serif" font-size="11" x="14.1912" y="-132.189">設置場所</tspan><tspan font-family="Yu Gothic,Yu Gothic_MSFontService,sans-serif" font-size="11" x="10.917" y="3.94595">設置場所</tspan><tspan font-family="Yu Gothic,Yu Gothic_MSFontService,sans-serif" font-size="11" x="-100.633" y="108.514">開始装置</tspan><tspan font-size="11" x="-0.816999" y="21.7027">R</tspan><tspan font-size="11" x="5.18299" y="21.7027">_</tspan><tspan font-size="11" x="10.183" y="21.7027">LE</tspan><tspan font-size="11" x="20.183" y="21.7027">1</tspan><tspan font-size="11" x="-83.6964" y="19.7297">R</tspan>_<tspan font-size="11" x="-72.6964" y="19.7297">LE</tspan><tspan font-size="11" x="-62.6964" y="19.7297">2</tspan><tspan font-size="11" x="-4.62416" y="193.351">R</tspan><tspan font-size="11" x="1.37586" y="193.351">_</tspan><tspan font-size="11" x="6.37583" y="193.351">EO</tspan>1<tspan font-size="11" x="116.175" y="104.568">R</tspan><tspan font-size="11" x="122.175" y="104.568">_</tspan><tspan font-size="11" x="127.175" y="104.568">EP</tspan>1<tspan font-size="11" x="216.602" y="-59.1892">R</tspan><tspan font-size="11" x="222.602" y="-59.1892">_</tspan><tspan font-size="11" x="227.602" y="-59.1892">LP</tspan><tspan font-size="11" x="238.602" y="-59.1892">1</tspan></text><path d="M172.075 146.733 235.938 146.733 235.938 174.103 172.075 174.103Z" stroke="#000000" stroke-width="0.675797" stroke-miterlimit="8" fill="#FFFFFF" transform="matrix(1.00132 0 0 1 28.7707 113.534)"/><text font-family="Yu Gothic,Yu Gothic_MSFontService,sans-serif" font-weight="400" font-size="13" transform="matrix(0.507519 0 0 0.506849 212.574 269)">オーダー<tspan font-size="13" x="51" y="0">仕様</tspan><tspan font-size="12" x="-13.58" y="13.8108">製造</tspan><tspan font-size="12" x="10.42" y="13.8108">ステップ</tspan><tspan font-size="12" x="-13.58" y="27.6216">装置</tspan><tspan font-size="12" x="10.42" y="27.6216">コマンド</tspan></text><path d="M141.664 139.637 204.022 139.637 204.022 146.525" stroke="#000000" stroke-width="0.3379" stroke-miterlimit="8" fill="none" fill-rule="evenodd" transform="matrix(1.00132 0 0 1 28.7707 113.534)"/><path d="M0 0 62.4565 0 62.4565 6.43248" stroke="#000000" stroke-width="0.3379" stroke-miterlimit="8" fill="none" fill-rule="evenodd" transform="matrix(1.00132 0 0 -1 170.622 294.069)"/><text font-family="Calibri,Calibri_MSFontService,sans-serif" font-weight="400" font-size="11" transform="matrix(0.507519 0 0 0.506849 173.306 251)">1<tspan font-size="11" x="124.404" y="13.8108">1</tspan><tspan font-size="11" x="130.404" y="13.8108">..*</tspan><tspan font-size="11" x="130.035" y="84.8378">1</tspan><tspan font-size="11" x="0.673797" y="80.8919">1</tspan><tspan font-family="Yu Gothic,Yu Gothic_MSFontService,sans-serif" font-size="11" x="124.228" y="1.97297">製造指示仕様</tspan><tspan font-family="Yu Gothic,Yu Gothic_MSFontService,sans-serif" font-size="11" x="118.549" y="96.6757">製造指示仕様</tspan><tspan font-size="11" x="43.3781" y="1.97297">R</tspan><tspan font-size="11" x="49.3781" y="1.97297">_</tspan><tspan font-size="11" x="54.3781" y="1.97297">LOS</tspan><tspan font-size="11" x="71.3781" y="1.97297">1</tspan><tspan font-size="11" x="42.2527" y="92.7297">R</tspan><tspan font-size="11" x="48.2527" y="92.7297">_</tspan><tspan font-size="11" x="53.2527" y="92.7297">POS</tspan><tspan font-size="11" x="71.2527" y="92.7297">1</tspan></text><path d="M127.219 182.466 135.836 182.466 135.836 191.082 127.219 191.082Z" stroke="#2F528F" stroke-width="1.0137" stroke-miterlimit="8" fill="#FFFFFF" transform="matrix(1.00132 0 0 1 28.7707 113.534)"/><path d="M128.74 187.027C128.74 185.628 129.988 184.493 131.527 184.493 133.067 184.493 134.315 185.628 134.315 187.027 134.315 188.427 133.067 189.562 131.527 189.562 129.988 189.562 128.74 188.427 128.74 187.027Z" stroke="#AE5A21" stroke-width="1.0137" stroke-miterlimit="8" fill="#FFFFFF" fill-rule="evenodd" transform="matrix(1.00132 0 0 1 28.7707 113.534)"/><path d="M127.219 181.452 127.599 179.932 135.455 179.932 135.836 181.452Z" stroke="#2F528F" stroke-width="1.0137" stroke-miterlimit="8" fill="#FFFFFF" fill-rule="evenodd" transform="matrix(1.00132 0 0 1 28.7707 113.534)"/><path d="M0 1.52055 0.380135 0 8.2363 0 8.61644 1.52055Z" stroke="#2F528F" stroke-width="1.0137" stroke-miterlimit="8" fill="#FFFFFF" fill-rule="evenodd" transform="matrix(1.00132 0 0 -1 156.158 307.658)"/><path d="M128.233 177.397 134.822 177.397 134.822 178.918 128.233 178.918Z" stroke="#2F528F" stroke-width="1.0137" stroke-miterlimit="8" fill="#FFFFFF" transform="matrix(1.00132 0 0 1 28.7707 113.534)"/><path d="M129.9 188.017 132.202 185.853 131.95 185.584 132.991 185.617 132.959 186.658 132.707 186.39 130.405 188.553Z" stroke="#AE5A21" stroke-width="1.0137" stroke-miterlimit="8" fill="#ED7D31" fill-rule="evenodd" transform="matrix(1.00132 0 0 1 28.7707 113.534)"/><g clip-path="url(#clip5)"><g clip-path="url(#clip6)"><g clip-path="url(#clip7)"><path d="M3.16366 3.72154 6.66088 3.72154 6.66088 4.0153 3.16366 4.0153Z" fill="#4B4B4B" transform="matrix(1 0 0 1.0611 253.602 271.671)"/><path d="M2.86211 4.88284 6.35931 4.88284 6.35931 5.17674 2.86211 5.17674Z" fill="#4B4B4B" transform="matrix(1 0 0 1.0611 253.602 271.671)"/><path d="M8.10893 0.580505 8.10893 0.391519 2.19053 0.391519 2.19053 0.580505C2.19053 0.970802 2.20138 1.3788 2.20138 1.80242 2.20138 2.42023 2.17862 3.07111 2.06849 3.74871 1.96372 4.39311 1.78023 5.06182 1.46178 5.7512L0.892106 5.7512C0.791445 5.7512 0.689814 5.76739 0.591767 5.80145 0.444888 5.85245 0.305828 5.94553 0.200502 6.08241 0.094906 6.21898 0.0252491 6.39661 0.00453595 6.60602 0.00152256 6.63632 0 6.66646 0 6.69635-0.00014274 6.8482 0.0389521 6.99138 0.104771 7.11683 0.203642 7.30558 0.359847 7.45545 0.541284 7.5601 0.723006 7.6646 0.931439 7.72479 1.14372 7.72631L5.64285 7.72875C5.81414 7.72916 5.96269 7.69419 6.08911 7.63674 6.21568 7.57959 6.31896 7.50356 6.41483 7.42718 6.80679 7.11506 7.10958 6.72823 7.34202 6.29882 7.69079 5.65401 7.88334 4.91318 7.99098 4.15986 8.09832 3.40655 8.12015 2.63967 8.1203 1.94162 8.1203 1.44173 8.10893 0.976974 8.10893 0.580505ZM1.1458 7.34847 1.14595 7.34847C1.05213 7.34806 0.954897 7.32954 0.862878 7.29513 0.724656 7.24387 0.599298 7.15693 0.513035 7.05197 0.469709 6.99944 0.435974 6.9427 0.41293 6.88343 0.390044 6.82405 0.377816 6.76223 0.377816 6.69641 0.377816 6.6791 0.378641 6.66154 0.380433 6.64373 0.390441 6.5439 0.414437 6.46396 0.446252 6.39935 0.494244 6.30282 0.559128 6.23862 0.635652 6.19462 0.712034 6.15103 0.80158 6.13123 0.892106 6.13123L4.94101 6.13123C4.89713 6.18158 4.85805 6.23918 4.82677 6.3043 4.7807 6.39976 4.74985 6.51055 4.73735 6.63525 4.73461 6.66362 4.73323 6.69148 4.73323 6.71919 4.73323 6.8511 4.76478 6.97605 4.81962 7.08699 4.86899 7.18667 4.93689 7.27528 5.01738 7.3507L1.1458 7.34847ZM7.48453 4.81976C7.37552 5.28535 7.22235 5.72654 7.00975 6.11905 6.7972 6.51152 6.52634 6.85516 6.1794 7.13181 6.0919 7.20174 6.01496 7.25589 5.93391 7.29223 5.85245 7.32857 5.76562 7.3505 5.643 7.35095L5.51683 7.3508C5.40264 7.31842 5.29662 7.26127 5.21034 7.18611 5.14066 7.12561 5.08432 7.05405 5.0455 6.97534 5.0067 6.89662 4.98515 6.811 4.98515 6.71914 4.98515 6.69996 4.98598 6.68037 4.98804 6.66047 4.99792 6.56161 5.0215 6.48025 5.05359 6.41362 5.10198 6.31379 5.16867 6.24588 5.24571 6.20025 5.32265 6.15483 5.41111 6.13276 5.49942 6.13291 5.58859 6.1326 5.6769 6.15564 5.74998 6.19665 5.82337 6.23796 5.88082 6.29592 5.91564 6.36824 5.93406 6.40636 5.94543 6.45726 5.94543 6.50852 5.94543 6.55065 5.93787 6.59247 5.92417 6.62743 5.91056 6.66266 5.89123 6.69026 5.86874 6.70945 5.82652 6.74498 5.78343 6.75842 5.73994 6.75868 5.70213 6.75868 5.66426 6.74731 5.63275 6.72686 5.60093 6.70656 5.57621 6.67803 5.5617 6.64418L5.33022 6.74345C5.36559 6.82618 5.42507 6.89297 5.49668 6.9389 5.56814 6.98483 5.65234 7.01046 5.73994 7.01046 5.84022 7.01086 5.94538 6.97534 6.03206 6.90114 6.09144 6.85044 6.1326 6.78624 6.15889 6.71864 6.18513 6.65103 6.19706 6.57942 6.19706 6.50852 6.19706 6.4224 6.17965 6.33673 6.1426 6.25923 6.08322 6.13565 5.98598 6.04034 5.87326 5.9771 5.76272 5.91523 5.63655 5.8829 5.5083 5.88128L5.5083 5.8793 1.81913 5.8793C2.14471 5.16608 2.3337 4.47241 2.44134 3.80934 2.55626 3.10199 2.57902 2.42932 2.57902 1.80245 2.57902 1.44205 2.57175 1.09756 2.56943 0.769383L7.73205 0.769383C7.73454 1.12634 7.74245 1.52268 7.74245 1.94164 7.74276 2.86141 7.70287 3.88859 7.48453 4.81976Z" fill="#4B4B4B" transform="matrix(1 0 0 1.0611 253.602 271.671)"/><path d="M5.25231 2.98703C5.29662 2.49333 5.2988 2.02075 5.29428 1.57382L3.3377 1.57382C3.34222 2.02075 3.33988 2.49333 3.2956 2.98703L5.25231 2.98703Z" fill="#4B4B4B" transform="matrix(1 0 0 1.0611 253.602 271.671)"/></g></g></g><g clip-path="url(#clip8)"><g clip-path="url(#clip9)"><g clip-path="url(#clip10)"><path d="M302.39 189.562 308.363 189.562 308.363 190.137 302.39 190.137Z" fill="#7F7F7F" transform="matrix(1.00132 0 0 1 28.7707 113.534)"/><path d="M308.937 191.385C308.842 191.217 308.218 190.401 308.218 190.401L307.509 190.401C307.188 190.793 306.374 192.275 307.229 196.614 307.397 197.464 307.481 199.456 306.94 200.427L304.807 200.427C305.538 199.528 306.51 197.765 306.222 195.678 305.855 193.016 305.795 191.387 306.173 190.401L302.536 190.401C302.536 190.401 301.912 191.217 301.816 191.385 301.72 191.553 301.744 191.625 301.744 191.864 301.744 192.104 301.744 199.516 301.744 199.828 301.744 200.14 301.833 200.537 302.056 200.644 302.509 200.859 302.341 201.219 302.823 201.219L307.93 201.219C308.412 201.219 308.244 200.859 308.698 200.644 308.921 200.537 309.009 200.14 309.009 199.828 309.009 199.516 309.009 192.104 309.009 191.864 309.009 191.625 309.034 191.553 308.937 191.385Z" fill="#7F7F7F" transform="matrix(1.00132 0 0 1 28.7707 113.534)"/></g></g></g><path d="M106.692 141.664 107.325 139.13 132.541 139.13 131.908 141.664Z" stroke="#FFC000" stroke-width="0.3379" stroke-miterlimit="8" fill="url(#fill11)" fill-rule="evenodd" transform="matrix(1.00132 0 0 1 28.7707 113.534)"/><g clip-path="url(#clip12)"><g clip-path="url(#clip13)"><g clip-path="url(#clip14)"><path d="M11.8133 2.93723 8.09144 5.57357 8.09144 2.93723 4.20749 5.68832 3.88393 0.671499 0.6471 0.671499 0 11.9997 12.6712 11.9997 11.8133 2.93723ZM4.81729 9.14564 3.28858 9.14564 3.28858 7.61668 4.81729 7.61668 4.81729 9.14564ZM9.15963 9.14564 7.63046 9.14564 7.63046 7.61668 9.15963 7.61668 9.15963 9.14564Z" fill="#4B4B4B" transform="matrix(1.04137 0 0 1 152.098 158.644)"/></g></g></g></g></g></g></g><g clip-path="url(#clip15)"><g clip-path="url(#clip16)"><g clip-path="url(#clip17)"><g clip-path="url(#clip18)"><path d="M41.5878 263.728 323.573 263.728 323.573 505.647 41.5878 505.647Z" fill="#D9D9D9" transform="matrix(1 0 0 1.00237 322.919 -50.8431)"/><text font-family="Yu Gothic,Yu Gothic_MSFontService,sans-serif" font-weight="400" font-size="16" transform="matrix(0.507168 0 0 0.508368 369.3 224)">現実世界</text><path d="M132.371 422.979 162.209 422.979 162.209 422.979 206.967 422.979 311.401 422.979 311.401 467.948 311.401 467.948 311.401 487.22 311.401 500.068 206.967 500.068 162.209 500.068 162.209 500.068 132.371 500.068 132.371 487.22 86.3926 461.761 132.371 467.948Z" fill="#F2F2F2" fill-rule="evenodd" transform="matrix(1 0 0 1.00237 322.919 -50.8431)"/><path d="M132.371 271.842 162.294 271.842 162.294 271.842 207.178 271.842 311.909 271.842 311.909 356.455 311.909 356.455 311.909 392.717 311.909 416.892 207.178 416.892 162.294 416.892 162.294 416.892 132.371 416.892 132.371 392.717 87.3841 354.339 132.371 356.455Z" fill="#F2F2F2" fill-rule="evenodd" transform="matrix(1 0 0 1.00237 322.919 -50.8431)"/><g clip-path="url(#clip19)"><g clip-path="url(#clip20)"><g clip-path="url(#clip21)"><path d="M88.1129 342.138 78.7278 348.785 78.7278 342.138 68.9338 349.075 68.1178 336.425 59.9559 336.425 58.3244 364.989 90.276 364.989 88.1129 342.138ZM70.4716 357.793 66.6166 357.793 66.6166 353.937 70.4716 353.937 70.4716 357.793ZM81.4213 357.793 77.5653 357.793 77.5653 353.937 81.4213 353.937 81.4213 357.793Z" fill="#4B4B4B" transform="matrix(1 0 0 1.00237 322.919 -50.8431)"/></g></g></g><path d="M147.332 339.549 151.009 324.841 299.99 324.841 296.313 339.549Z" stroke="#FFC000" stroke-width="0.338112" stroke-miterlimit="8" fill="url(#fill22)" fill-rule="evenodd" transform="matrix(1 0 0 1.00237 322.919 -50.8431)"/><g clip-path="url(#clip23)"><g clip-path="url(#clip24)"><g clip-path="url(#clip25)"><path d="M168.927 285.641 175.697 285.641 175.697 286.21 168.927 286.21Z" fill="#4B4B4B" transform="matrix(1 0 0 1.00237 322.919 -50.8431)"/><path d="M168.342 287.89 175.114 287.89 175.114 288.459 168.342 288.459Z" fill="#4B4B4B" transform="matrix(1 0 0 1.00237 322.919 -50.8431)"/><path d="M178.501 279.559 178.501 279.194 167.043 279.194 167.043 279.559C167.043 280.315 167.063 281.105 167.063 281.925 167.063 283.121 167.019 284.382 166.806 285.694 166.603 286.941 166.248 288.236 165.631 289.571L164.529 289.571C164.333 289.571 164.136 289.602 163.947 289.668 163.662 289.767 163.393 289.947 163.189 290.212 162.985 290.477 162.85 290.821 162.81 291.226 162.804 291.285 162.801 291.343 162.801 291.401 162.801 291.695 162.877 291.972 163.004 292.215 163.195 292.58 163.498 292.871 163.849 293.073 164.201 293.275 164.605 293.392 165.015 293.395L173.727 293.4C174.058 293.401 174.346 293.333 174.591 293.221 174.836 293.111 175.035 292.964 175.221 292.816 175.98 292.211 176.566 291.463 177.016 290.631 177.692 289.383 178.064 287.948 178.273 286.49 178.481 285.031 178.523 283.546 178.523 282.195 178.523 281.227 178.501 280.327 178.501 279.559ZM165.019 292.664 165.02 292.664C164.838 292.663 164.65 292.627 164.472 292.56 164.204 292.461 163.961 292.292 163.795 292.089 163.71 291.988 163.645 291.878 163.6 291.763 163.556 291.648 163.532 291.528 163.532 291.401 163.532 291.367 163.534 291.333 163.537 291.299 163.557 291.106 163.603 290.951 163.665 290.826 163.758 290.639 163.884 290.515 164.032 290.429 164.18 290.345 164.353 290.307 164.529 290.307L172.368 290.307C172.283 290.404 172.207 290.516 172.147 290.642 172.057 290.827 171.998 291.041 171.973 291.283 171.968 291.337 171.966 291.391 171.966 291.445 171.966 291.701 172.026 291.942 172.132 292.157 172.228 292.35 172.36 292.522 172.515 292.668L165.019 292.664ZM177.292 287.767C177.081 288.669 176.785 289.523 176.373 290.283 175.962 291.043 175.437 291.708 174.765 292.244 174.596 292.379 174.447 292.484 174.29 292.555 174.132 292.625 173.964 292.667 173.727 292.668L173.483 292.668C173.261 292.605 173.056 292.495 172.889 292.349 172.754 292.232 172.645 292.093 172.57 291.941 172.495 291.788 172.453 291.623 172.453 291.445 172.453 291.408 172.455 291.37 172.459 291.331 172.478 291.14 172.523 290.982 172.586 290.854 172.679 290.66 172.809 290.528 172.958 290.44 173.107 290.352 173.278 290.309 173.449 290.31 173.622 290.309 173.792 290.354 173.934 290.433 174.076 290.513 174.188 290.625 174.255 290.765 174.29 290.839 174.312 290.938 174.312 291.037 174.312 291.119 174.298 291.199 174.271 291.267 174.245 291.335 174.207 291.389 174.164 291.426 174.082 291.495 173.999 291.521 173.915 291.521 173.841 291.521 173.768 291.499 173.707 291.46 173.645 291.421 173.598 291.365 173.569 291.3L173.121 291.492C173.19 291.652 173.305 291.781 173.444 291.87 173.582 291.959 173.745 292.009 173.915 292.009 174.109 292.01 174.312 291.941 174.48 291.797 174.595 291.699 174.675 291.575 174.726 291.444 174.776 291.313 174.8 291.175 174.8 291.037 174.8 290.87 174.766 290.704 174.694 290.554 174.579 290.315 174.391 290.131 174.173 290.008 173.959 289.888 173.714 289.826 173.466 289.822L173.466 289.819 166.323 289.819C166.954 288.438 167.319 287.095 167.528 285.811 167.751 284.441 167.795 283.139 167.795 281.925 167.795 281.227 167.78 280.561 167.776 279.925L177.772 279.925C177.776 280.616 177.792 281.384 177.792 282.195 177.792 283.976 177.715 285.964 177.292 287.767Z" fill="#4B4B4B" transform="matrix(1 0 0 1.00237 322.919 -50.8431)"/><path d="M172.97 284.219C173.056 283.263 173.061 282.348 173.051 281.483L169.263 281.483C169.272 282.348 169.267 283.263 169.182 284.219L172.97 284.219Z" fill="#4B4B4B" transform="matrix(1 0 0 1.00237 322.919 -50.8431)"/></g></g></g><path d="M164.069 311.655 178.27 311.655 178.27 325.856 164.069 325.856Z" stroke="#2F528F" stroke-width="1.52151" stroke-miterlimit="8" fill="#FFFFFF" transform="matrix(1 0 0 1.00237 322.919 -50.8431)"/><path d="M166.605 319.009C166.605 316.628 168.535 314.698 170.916 314.698 173.296 314.698 175.227 316.628 175.227 319.009 175.227 321.39 173.296 323.32 170.916 323.32 168.535 323.32 166.605 321.39 166.605 319.009Z" stroke="#AE5A21" stroke-width="0.676223" stroke-miterlimit="8" fill="#FFFFFF" fill-rule="evenodd" transform="matrix(1 0 0 1.00237 322.919 -50.8431)"/><path d="M164.069 309.626 164.576 307.598 177.255 307.598 177.763 309.626Z" stroke="#2F528F" stroke-width="1.52151" stroke-miterlimit="8" fill="#FFFFFF" fill-rule="evenodd" transform="matrix(1 0 0 1.00237 322.919 -50.8431)"/><path d="M0 2.53584 0.633956 0 13.0596 0 13.6935 2.53584Z" stroke="#2F528F" stroke-width="1.52151" stroke-miterlimit="8" fill="#FFFFFF" fill-rule="evenodd" transform="matrix(1 0 0 -1.00237 486.988 280.359)"/><path d="M165.083 303.033 176.748 303.033 176.748 305.569 165.083 305.569Z" stroke="#2F528F" stroke-width="1.52151" stroke-miterlimit="8" fill="#FFFFFF" transform="matrix(1 0 0 1.00237 322.919 -50.8431)"/><path d="M168.188 320.708 171.423 316.615 170.946 316.237 172.655 316.036 172.856 317.746 172.378 317.369 169.143 321.463Z" stroke="#AE5A21" stroke-width="0.676223" stroke-miterlimit="8" fill="#ED7D31" fill-rule="evenodd" transform="matrix(1 0 0 1.00237 322.919 -50.8431)"/><path d="M200.078 311.655 214.279 311.655 214.279 325.856 200.078 325.856Z" stroke="#2F528F" stroke-width="1.52151" stroke-miterlimit="8" fill="#FFFFFF" transform="matrix(1 0 0 1.00237 322.919 -50.8431)"/><path d="M203.121 319.009C203.121 316.628 205.051 314.698 207.432 314.698 209.813 314.698 211.743 316.628 211.743 319.009 211.743 321.39 209.813 323.32 207.432 323.32 205.051 323.32 203.121 321.39 203.121 319.009Z" stroke="#AE5A21" stroke-width="0.676223" stroke-miterlimit="8" fill="#FFFFFF" fill-rule="evenodd" transform="matrix(1 0 0 1.00237 322.919 -50.8431)"/><path d="M200.078 309.626 200.585 307.598 213.772 307.598 214.279 309.626Z" stroke="#2F528F" stroke-width="1.52151" stroke-miterlimit="8" fill="#FFFFFF" fill-rule="evenodd" transform="matrix(1 0 0 1.00237 322.919 -50.8431)"/><path d="M0 2.53584 0.633956 0 13.5668 0 14.2007 2.53584Z" stroke="#2F528F" stroke-width="1.52151" stroke-miterlimit="8" fill="#FFFFFF" fill-rule="evenodd" transform="matrix(1 0 0 -1.00237 522.997 280.359)"/><path d="M201.599 303.033 212.757 303.033 212.757 305.569 201.599 305.569Z" stroke="#2F528F" stroke-width="1.52151" stroke-miterlimit="8" fill="#FFFFFF" transform="matrix(1 0 0 1.00237 322.919 -50.8431)"/><path d="M209.16 321.074 205.128 317.762 204.742 318.232 204.574 316.519 206.287 316.351 205.901 316.821 209.933 320.133Z" stroke="#AE5A21" stroke-width="0.676223" stroke-miterlimit="8" fill="#ED7D31" fill-rule="evenodd" transform="matrix(1 0 0 1.00237 322.919 -50.8431)"/><path d="M236.594 311.148 250.795 311.148 250.795 325.349 236.594 325.349Z" stroke="#2F528F" stroke-width="1.52151" stroke-miterlimit="8" fill="#FFFFFF" transform="matrix(1 0 0 1.00237 322.919 -50.8431)"/><path d="M239.637 318.502C239.637 316.121 241.454 314.191 243.694 314.191 245.935 314.191 247.752 316.121 247.752 318.502 247.752 320.882 245.935 322.813 243.694 322.813 241.454 322.813 239.637 320.882 239.637 318.502Z" stroke="#AE5A21" stroke-width="0.676223" stroke-miterlimit="8" fill="#FFFFFF" fill-rule="evenodd" transform="matrix(1 0 0 1.00237 322.919 -50.8431)"/><path d="M236.594 309.626 237.228 307.091 250.161 307.091 250.795 309.626Z" stroke="#2F528F" stroke-width="1.52151" stroke-miterlimit="8" fill="#FFFFFF" fill-rule="evenodd" transform="matrix(1 0 0 1.00237 322.919 -50.8431)"/><path d="M0 2.53584 0.633956 0 13.5668 0 14.2007 2.53584Z" stroke="#2F528F" stroke-width="1.52151" stroke-miterlimit="8" fill="#FFFFFF" fill-rule="evenodd" transform="matrix(1 0 0 -1.00237 559.513 279.85)"/><path d="M238.116 303.033 249.273 303.033 249.273 305.062 238.116 305.062Z" stroke="#2F528F" stroke-width="1.52151" stroke-miterlimit="8" fill="#FFFFFF" transform="matrix(1 0 0 1.00237 322.919 -50.8431)"/><path d="M241.635 320.948 243.687 316.15 243.127 315.911 244.725 315.27 245.366 316.868 244.806 316.629 242.754 321.426Z" stroke="#AE5A21" stroke-width="0.676223" stroke-miterlimit="8" fill="#ED7D31" fill-rule="evenodd" transform="matrix(1 0 0 1.00237 322.919 -50.8431)"/><g clip-path="url(#clip26)"><g clip-path="url(#clip27)"><g clip-path="url(#clip28)"><path d="M254.907 295.172 260.883 295.172 260.883 295.748 254.907 295.748Z" fill="#70AD47" transform="matrix(1 0 0 1.00237 322.919 -50.8431)"/><path d="M261.458 296.996C261.362 296.828 260.738 296.012 260.738 296.012L260.028 296.012C259.708 296.404 258.893 297.887 259.749 302.229 259.917 303.079 260.001 305.073 259.46 306.045L257.325 306.045C258.057 305.145 259.029 303.381 258.741 301.293 258.373 298.629 258.314 296.998 258.692 296.012L255.052 296.012C255.052 296.012 254.428 296.828 254.332 296.996 254.236 297.164 254.26 297.236 254.26 297.476 254.26 297.716 254.26 305.133 254.26 305.445 254.26 305.757 254.349 306.154 254.572 306.261 255.026 306.477 254.858 306.837 255.34 306.837L260.45 306.837C260.933 306.837 260.765 306.477 261.218 306.261 261.441 306.154 261.53 305.757 261.53 305.445 261.53 305.133 261.53 297.716 261.53 297.476 261.53 297.236 261.554 297.164 261.458 296.996Z" fill="#70AD47" transform="matrix(1 0 0 1.00237 322.919 -50.8431)"/></g></g></g><g clip-path="url(#clip29)"><g clip-path="url(#clip30)"><g clip-path="url(#clip31)"><path d="M6.13987 7.22254 12.927 7.22254 12.927 7.79267 6.13987 7.79267Z" fill="#4B4B4B" transform="matrix(1.22292 0 0 1 520.208 228.759)"/><path d="M5.55458 9.47634 12.3418 9.47634 12.3418 10.0467 5.55458 10.0467Z" fill="#4B4B4B" transform="matrix(1.22292 0 0 1 520.208 228.759)"/><path d="M15.7374 1.12662 15.7374 0.759838 4.25125 0.759838 4.25125 1.12662C4.25125 1.88408 4.27231 2.6759 4.27231 3.49804 4.27231 4.69704 4.22814 5.96021 4.0144 7.27526 3.81107 8.52589 3.45498 9.82371 2.83694 11.1616L1.73135 11.1616C1.53599 11.1616 1.33875 11.193 1.14846 11.2591 0.863413 11.3581 0.593535 11.5388 0.389122 11.8044 0.184188 12.0695 0.0490019 12.4141 0.00880311 12.8206 0.00295489 12.8794 0 12.9379 0 12.9959-0.000277021 13.2906 0.0755959 13.5684 0.203334 13.812 0.395217 14.1782 0.698371 14.4691 1.05049 14.6722 1.40317 14.875 1.80769 14.9918 2.21968 14.9947L10.9514 14.9996C11.2838 15.0004 11.572 14.9325 11.8174 14.821 12.0631 14.71 12.2635 14.5625 12.4495 14.4143 13.2102 13.8086 13.7979 13.0577 14.249 12.2244 14.9258 10.973 15.2995 9.53521 15.5084 8.07324 15.7168 6.61123 15.7592 5.12293 15.7594 3.76819 15.7594 2.79803 15.7374 1.89606 15.7374 1.12662ZM2.22371 14.2615 2.22398 14.2615C2.04192 14.2607 1.85321 14.2248 1.67462 14.158 1.40638 14.0585 1.16309 13.8897 0.995675 13.6861 0.911586 13.5842 0.846113 13.4739 0.801392 13.359 0.756975 13.2438 0.733245 13.1237 0.733245 12.996 0.733245 12.9625 0.734846 12.9284 0.738323 12.8938 0.757743 12.7 0.804315 12.5448 0.866061 12.4195 0.959199 12.2322 1.08512 12.1076 1.23364 12.0221 1.38187 11.9375 1.55566 11.8992 1.73135 11.8992L9.58925 11.8992C9.50405 11.9969 9.42825 12.1087 9.36755 12.2351 9.27813 12.4203 9.21824 12.6353 9.19399 12.8773 9.18865 12.9324 9.18596 12.9864 9.18596 13.0402 9.18596 13.2962 9.24722 13.5387 9.35362 13.7541 9.44945 13.9475 9.58122 14.1195 9.73744 14.2658L2.22371 14.2615ZM14.5256 9.35392C14.314 10.2575 14.0167 11.1137 13.6041 11.8755 13.1916 12.6372 12.6659 13.3041 11.9926 13.841 11.8228 13.9767 11.6735 14.0819 11.5162 14.1524 11.3581 14.2229 11.1896 14.2655 10.9517 14.2663L10.7068 14.266C10.4851 14.2032 10.2794 14.0922 10.112 13.9464 9.97673 13.829 9.86732 13.6901 9.79204 13.5373 9.71675 13.3845 9.67491 13.2184 9.67491 13.0402 9.67491 13.0029 9.67648 12.9648 9.6805 12.9262 9.69967 12.7344 9.74542 12.5765 9.80769 12.4472 9.90169 12.2535 10.0311 12.1217 10.1806 12.0331 10.3299 11.945 10.5016 11.9021 10.673 11.9024 10.846 11.9018 11.0174 11.9466 11.1592 12.0261 11.3016 12.1062 11.4132 12.2188 11.4808 12.3591 11.5164 12.4331 11.5385 12.5318 11.5385 12.6314 11.5385 12.7131 11.5239 12.7943 11.4973 12.8621 11.4709 12.9305 11.4334 12.984 11.3897 13.0213 11.3077 13.0902 11.2242 13.1163 11.1398 13.1169 11.0664 13.1169 10.9929 13.0948 10.9317 13.0551 10.8699 13.0157 10.822 12.9603 10.7938 12.8946L10.3445 13.0873C10.4132 13.2478 10.5287 13.3775 10.6676 13.4666 10.8063 13.5557 10.9697 13.6055 11.1398 13.6055 11.3343 13.6063 11.5385 13.5374 11.7067 13.3934 11.8219 13.2949 11.9018 13.1703 11.9529 13.0391 12.0037 12.9079 12.0269 12.769 12.0269 12.6314 12.0269 12.4643 11.9931 12.2979 11.9212 12.1475 11.8059 11.9077 11.6173 11.7227 11.3985 11.6 11.1839 11.48 10.9391 11.4172 10.6902 11.414L10.6902 11.4102 3.53048 11.4102C4.16233 10.026 4.52911 8.67983 4.73801 7.39294 4.96104 6.02015 5.00522 4.71468 5.00522 3.4981 5.00522 2.79865 4.99112 2.13008 4.98659 1.49317L15.0059 1.49317C15.0107 2.18594 15.0261 2.95513 15.0261 3.76822 15.0267 5.55326 14.9492 7.54678 14.5256 9.35392Z" fill="#4B4B4B" transform="matrix(1.22292 0 0 1 520.208 228.759)"/><path d="M10.1934 5.79708C10.2794 4.83891 10.2836 3.92176 10.2748 3.05437L6.47763 3.05437C6.48637 3.92176 6.48185 4.83891 6.39593 5.79708L10.1934 5.79708Z" fill="#4B4B4B" transform="matrix(1.22292 0 0 1 520.208 228.759)"/></g></g></g><g clip-path="url(#clip32)"><g clip-path="url(#clip33)"><g clip-path="url(#clip34)"><path d="M6.13987 7.22254 12.927 7.22254 12.927 7.79267 6.13987 7.79267Z" fill="#4B4B4B" transform="matrix(1.02982 0 0 1 558.246 228.251)"/><path d="M5.55458 9.47634 12.3418 9.47634 12.3418 10.0467 5.55458 10.0467Z" fill="#4B4B4B" transform="matrix(1.02982 0 0 1 558.246 228.251)"/><path d="M15.7374 1.12662 15.7374 0.759838 4.25125 0.759838 4.25125 1.12662C4.25125 1.88408 4.27231 2.6759 4.27231 3.49804 4.27231 4.69704 4.22814 5.96021 4.0144 7.27526 3.81107 8.52589 3.45498 9.82371 2.83694 11.1616L1.73135 11.1616C1.53599 11.1616 1.33875 11.193 1.14846 11.2591 0.863413 11.3581 0.593535 11.5388 0.389122 11.8044 0.184188 12.0695 0.0490019 12.4141 0.00880311 12.8206 0.00295489 12.8794 0 12.9379 0 12.9959-0.000277021 13.2906 0.0755959 13.5684 0.203334 13.812 0.395217 14.1782 0.698371 14.4691 1.05049 14.6722 1.40317 14.875 1.80769 14.9918 2.21968 14.9947L10.9514 14.9996C11.2838 15.0004 11.572 14.9325 11.8174 14.821 12.0631 14.71 12.2635 14.5625 12.4495 14.4143 13.2102 13.8086 13.7979 13.0577 14.249 12.2244 14.9258 10.973 15.2995 9.53521 15.5084 8.07324 15.7168 6.61123 15.7592 5.12293 15.7594 3.76819 15.7594 2.79803 15.7374 1.89606 15.7374 1.12662ZM2.22371 14.2615 2.22398 14.2615C2.04192 14.2607 1.85321 14.2248 1.67462 14.158 1.40638 14.0585 1.16309 13.8897 0.995675 13.6861 0.911586 13.5842 0.846113 13.4739 0.801392 13.359 0.756975 13.2438 0.733245 13.1237 0.733245 12.996 0.733245 12.9625 0.734846 12.9284 0.738323 12.8938 0.757743 12.7 0.804315 12.5448 0.866061 12.4195 0.959199 12.2322 1.08512 12.1076 1.23364 12.0221 1.38187 11.9375 1.55566 11.8992 1.73135 11.8992L9.58925 11.8992C9.50405 11.9969 9.42825 12.1087 9.36755 12.2351 9.27813 12.4203 9.21824 12.6353 9.19399 12.8773 9.18865 12.9324 9.18596 12.9864 9.18596 13.0402 9.18596 13.2962 9.24722 13.5387 9.35362 13.7541 9.44945 13.9475 9.58122 14.1195 9.73744 14.2658L2.22371 14.2615ZM14.5256 9.35392C14.314 10.2575 14.0167 11.1137 13.6041 11.8755 13.1916 12.6372 12.6659 13.3041 11.9926 13.841 11.8228 13.9767 11.6735 14.0819 11.5162 14.1524 11.3581 14.2229 11.1896 14.2655 10.9517 14.2663L10.7068 14.266C10.4851 14.2032 10.2794 14.0922 10.112 13.9464 9.97673 13.829 9.86732 13.6901 9.79204 13.5373 9.71675 13.3845 9.67491 13.2184 9.67491 13.0402 9.67491 13.0029 9.67648 12.9648 9.6805 12.9262 9.69967 12.7344 9.74542 12.5765 9.80769 12.4472 9.90169 12.2535 10.0311 12.1217 10.1806 12.0331 10.3299 11.945 10.5016 11.9021 10.673 11.9024 10.846 11.9018 11.0174 11.9466 11.1592 12.0261 11.3016 12.1062 11.4132 12.2188 11.4808 12.3591 11.5164 12.4331 11.5385 12.5318 11.5385 12.6314 11.5385 12.7131 11.5239 12.7943 11.4973 12.8621 11.4709 12.9305 11.4334 12.984 11.3897 13.0213 11.3077 13.0902 11.2242 13.1163 11.1398 13.1169 11.0664 13.1169 10.9929 13.0948 10.9317 13.0551 10.8699 13.0157 10.822 12.9603 10.7938 12.8946L10.3445 13.0873C10.4132 13.2478 10.5287 13.3775 10.6676 13.4666 10.8063 13.5557 10.9697 13.6055 11.1398 13.6055 11.3343 13.6063 11.5385 13.5374 11.7067 13.3934 11.8219 13.2949 11.9018 13.1703 11.9529 13.0391 12.0037 12.9079 12.0269 12.769 12.0269 12.6314 12.0269 12.4643 11.9931 12.2979 11.9212 12.1475 11.8059 11.9077 11.6173 11.7227 11.3985 11.6 11.1839 11.48 10.9391 11.4172 10.6902 11.414L10.6902 11.4102 3.53048 11.4102C4.16233 10.026 4.52911 8.67983 4.73801 7.39294 4.96104 6.02015 5.00522 4.71468 5.00522 3.4981 5.00522 2.79865 4.99112 2.13008 4.98659 1.49317L15.0059 1.49317C15.0107 2.18594 15.0261 2.95513 15.0261 3.76822 15.0267 5.55326 14.9492 7.54678 14.5256 9.35392Z" fill="#4B4B4B" transform="matrix(1.02982 0 0 1 558.246 228.251)"/><path d="M10.1934 5.79708C10.2794 4.83891 10.2836 3.92176 10.2748 3.05437L6.47763 3.05437C6.48637 3.92176 6.48185 4.83891 6.39593 5.79708L10.1934 5.79708Z" fill="#4B4B4B" transform="matrix(1.02982 0 0 1 558.246 228.251)"/></g></g></g><path d="M178.016 316.98 181.059 316.98 181.059 320.023 178.016 320.023ZM184.102 316.98 187.145 316.98 187.145 320.023 184.102 320.023ZM190.188 316.98 192.616 316.98 192.616 320.023 190.188 320.023ZM191.094 313.937 200.224 318.502 191.094 323.066Z" fill="#4472C4" transform="matrix(1 0 0 1.00237 322.919 -50.8431)"/><path d="M0.0227833-1.52133 3.06545-1.47577 3.01988 1.5669-0.0227833 1.52133ZM6.10813-1.4302 9.15079-1.38464 9.10525 1.65804 6.06254 1.61247ZM12.1934-1.33907 14.6235-1.30268 14.5779 1.73999 12.1479 1.7036ZM13.1478-4.36813 22.2074 0.332575 13.0111 4.75988Z" fill="#4472C4" transform="matrix(1 0 0 -1.00237 536.944 268.237)"/><path d="M146.825 412.582 150.502 397.874 298.976 397.874 295.299 412.582Z" stroke="#FFC000" stroke-width="0.338112" stroke-miterlimit="8" fill="url(#fill35)" fill-rule="evenodd" transform="matrix(1 0 0 1.00237 322.919 -50.8431)"/><g clip-path="url(#clip36)"><g clip-path="url(#clip37)"><g clip-path="url(#clip38)"><path d="M168.11 360.935 175.099 360.935 175.099 361.521 168.11 361.521Z" fill="#4B4B4B" transform="matrix(1 0 0 1.00237 322.919 -50.8431)"/><path d="M167.507 363.255 174.496 363.255 174.496 363.843 167.507 363.843Z" fill="#4B4B4B" transform="matrix(1 0 0 1.00237 322.919 -50.8431)"/><path d="M177.993 354.657 177.993 354.279 166.165 354.279 166.165 354.657C166.165 355.437 166.186 356.252 166.186 357.099 166.186 358.333 166.141 359.634 165.921 360.989 165.711 362.277 165.345 363.613 164.708 364.991L163.57 364.991C163.369 364.991 163.165 365.023 162.969 365.091 162.676 365.193 162.398 365.379 162.187 365.653 161.976 365.926 161.837 366.281 161.796 366.7 161.79 366.76 161.787 366.82 161.787 366.88 161.786 367.183 161.865 367.469 161.996 367.72 162.193 368.097 162.506 368.397 162.869 368.606 163.232 368.815 163.649 368.935 164.073 368.938L173.065 368.943C173.407 368.944 173.704 368.874 173.957 368.759 174.209 368.645 174.416 368.493 174.607 368.341 175.391 367.717 175.996 366.943 176.461 366.085 177.158 364.797 177.542 363.316 177.757 361.81 177.973 360.305 178.016 358.772 178.016 357.377 178.016 356.378 177.993 355.449 177.993 354.657ZM164.077 368.183 164.077 368.183C163.889 368.182 163.695 368.145 163.511 368.077 163.235 367.974 162.985 367.8 162.812 367.591 162.726 367.486 162.658 367.372 162.612 367.254 162.566 367.135 162.542 367.011 162.542 366.88 162.542 366.846 162.543 366.811 162.547 366.775 162.567 366.575 162.615 366.416 162.679 366.286 162.775 366.093 162.904 365.965 163.057 365.877 163.21 365.79 163.389 365.751 163.57 365.751L171.662 365.751C171.574 365.851 171.496 365.966 171.434 366.097 171.342 366.287 171.28 366.508 171.255 366.758 171.249 366.815 171.246 366.87 171.246 366.926 171.246 367.189 171.31 367.439 171.419 367.661 171.518 367.86 171.654 368.037 171.814 368.188L164.077 368.183ZM176.746 363.129C176.528 364.06 176.221 364.942 175.797 365.726 175.372 366.51 174.831 367.198 174.137 367.75 173.962 367.89 173.808 367.998 173.646 368.071 173.484 368.143 173.31 368.187 173.065 368.188L172.813 368.188C172.584 368.123 172.373 368.009 172.2 367.859 172.061 367.738 171.948 367.595 171.871 367.437 171.793 367.28 171.75 367.109 171.75 366.925 171.75 366.887 171.752 366.848 171.756 366.808 171.775 366.61 171.823 366.448 171.887 366.315 171.984 366.115 172.117 365.979 172.271 365.888 172.425 365.798 172.602 365.754 172.778 365.754 172.956 365.753 173.133 365.799 173.279 365.881 173.425 365.964 173.54 366.08 173.61 366.224 173.646 366.3 173.669 366.402 173.669 366.504 173.669 366.588 173.654 366.672 173.627 366.742 173.6 366.813 173.561 366.868 173.516 366.906 173.432 366.977 173.346 367.004 173.259 367.004 173.183 367.004 173.107 366.982 173.044 366.941 172.981 366.9 172.931 366.843 172.902 366.776L172.44 366.974C172.51 367.139 172.63 367.273 172.773 367.364 172.916 367.456 173.083 367.507 173.259 367.507 173.459 367.508 173.669 367.437 173.843 367.289 173.961 367.188 174.043 367.06 174.096 366.924 174.148 366.789 174.172 366.646 174.172 366.504 174.172 366.332 174.137 366.161 174.063 366.006 173.945 365.759 173.75 365.569 173.525 365.442 173.304 365.319 173.052 365.254 172.796 365.251L172.796 365.247 165.423 365.247C166.073 363.821 166.451 362.435 166.666 361.11 166.896 359.696 166.941 358.352 166.941 357.099 166.941 356.379 166.927 355.69 166.922 355.034L177.24 355.034C177.245 355.748 177.261 356.539 177.261 357.377 177.261 359.215 177.182 361.268 176.746 363.129Z" fill="#4B4B4B" transform="matrix(1 0 0 1.00237 322.919 -50.8431)"/><path d="M172.284 359.466C172.373 358.48 172.377 357.535 172.368 356.642L168.458 356.642C168.467 357.535 168.462 358.48 168.373 359.466L172.284 359.466Z" fill="#4B4B4B" transform="matrix(1 0 0 1.00237 322.919 -50.8431)"/></g></g></g><path d="M163.055 384.687 177.255 384.687 177.255 398.888 163.055 398.888Z" stroke="#2F528F" stroke-width="1.52151" stroke-miterlimit="8" fill="#FFFFFF" transform="matrix(1 0 0 1.00237 322.919 -50.8431)"/><path d="M166.098 392.041C166.098 389.661 168.028 387.73 170.409 387.73 172.789 387.73 174.72 389.661 174.72 392.041 174.72 394.422 172.789 396.352 170.409 396.352 168.028 396.352 166.098 394.422 166.098 392.041Z" stroke="#AE5A21" stroke-width="0.676223" stroke-miterlimit="8" fill="#FFFFFF" fill-rule="evenodd" transform="matrix(1 0 0 1.00237 322.919 -50.8431)"/><path d="M163.055 383.166 163.689 380.63 176.621 380.63 177.255 383.166Z" stroke="#2F528F" stroke-width="1.52151" stroke-miterlimit="8" fill="#FFFFFF" fill-rule="evenodd" transform="matrix(1 0 0 1.00237 322.919 -50.8431)"/><path d="M0 2.53584 0.633956 0 13.5668 0 14.2007 2.53584Z" stroke="#2F528F" stroke-width="1.52151" stroke-miterlimit="8" fill="#FFFFFF" fill-rule="evenodd" transform="matrix(1 0 0 -1.00237 485.974 353.564)"/><path d="M164.576 376.065 175.734 376.065 175.734 378.601 164.576 378.601Z" stroke="#2F528F" stroke-width="1.52151" stroke-miterlimit="8" fill="#FFFFFF" transform="matrix(1 0 0 1.00237 322.919 -50.8431)"/><path d="M171.336 394.656 168.364 390.368 167.864 390.714 168.171 389.021 169.865 389.328 169.364 389.674 172.336 393.963Z" stroke="#AE5A21" stroke-width="0.676223" stroke-miterlimit="8" fill="#ED7D31" fill-rule="evenodd" transform="matrix(1 0 0 1.00237 322.919 -50.8431)"/><path d="M199.571 384.687 213.772 384.687 213.772 398.888 199.571 398.888Z" stroke="#2F528F" stroke-width="1.52151" stroke-miterlimit="8" fill="#FFFFFF" transform="matrix(1 0 0 1.00237 322.919 -50.8431)"/><path d="M202.614 392.041C202.614 389.661 204.43 387.73 206.671 387.73 208.912 387.73 210.729 389.661 210.729 392.041 210.729 394.422 208.912 396.352 206.671 396.352 204.43 396.352 202.614 394.422 202.614 392.041Z" stroke="#AE5A21" stroke-width="0.676223" stroke-miterlimit="8" fill="#FFFFFF" fill-rule="evenodd" transform="matrix(1 0 0 1.00237 322.919 -50.8431)"/><path d="M199.571 383.166 200.205 380.63 213.138 380.63 213.772 383.166Z" stroke="#2F528F" stroke-width="1.52151" stroke-miterlimit="8" fill="#FFFFFF" fill-rule="evenodd" transform="matrix(1 0 0 1.00237 322.919 -50.8431)"/><path d="M0 2.53584 0.633956 0 13.5668 0 14.2007 2.53584Z" stroke="#2F528F" stroke-width="1.52151" stroke-miterlimit="8" fill="#FFFFFF" fill-rule="evenodd" transform="matrix(1 0 0 -1.00237 522.49 353.564)"/><path d="M201.092 376.065 212.25 376.065 212.25 378.601 201.092 378.601Z" stroke="#2F528F" stroke-width="1.52151" stroke-miterlimit="8" fill="#FFFFFF" transform="matrix(1 0 0 1.00237 322.919 -50.8431)"/><path d="M203.937 393.819 207.161 389.716 206.682 389.34 208.391 389.135 208.596 390.844 208.118 390.469 204.894 394.571Z" stroke="#AE5A21" stroke-width="0.676223" stroke-miterlimit="8" fill="#ED7D31" fill-rule="evenodd" transform="matrix(1 0 0 1.00237 322.919 -50.8431)"/><path d="M236.087 384.687 250.288 384.687 250.288 398.888 236.087 398.888Z" stroke="#2F528F" stroke-width="1.52151" stroke-miterlimit="8" fill="#FFFFFF" transform="matrix(1 0 0 1.00237 322.919 -50.8431)"/><path d="M238.623 391.534C238.623 389.153 240.553 387.223 242.934 387.223 245.314 387.223 247.245 389.153 247.245 391.534 247.245 393.915 245.314 395.845 242.934 395.845 240.553 395.845 238.623 393.915 238.623 391.534Z" stroke="#AE5A21" stroke-width="0.676223" stroke-miterlimit="8" fill="#FFFFFF" fill-rule="evenodd" transform="matrix(1 0 0 1.00237 322.919 -50.8431)"/><path d="M236.087 382.659 236.721 380.123 249.654 380.123 250.288 382.659Z" stroke="#2F528F" stroke-width="1.52151" stroke-miterlimit="8" fill="#FFFFFF" fill-rule="evenodd" transform="matrix(1 0 0 1.00237 322.919 -50.8431)"/><path d="M0 2.02867 0.507166 0 13.6935 0 14.2007 2.02867Z" stroke="#2F528F" stroke-width="1.52151" stroke-miterlimit="8" fill="#FFFFFF" fill-rule="evenodd" transform="matrix(1 0 0 -1.00237 559.006 353.055)"/><path d="M237.608 376.065 248.766 376.065 248.766 378.601 237.608 378.601Z" stroke="#2F528F" stroke-width="1.52151" stroke-miterlimit="8" fill="#FFFFFF" transform="matrix(1 0 0 1.00237 322.919 -50.8431)"/><path d="M245.951 390.434 241.288 392.774 241.561 393.318 239.927 392.776 240.469 391.142 240.742 391.686 245.406 389.346Z" stroke="#AE5A21" stroke-width="0.676223" stroke-miterlimit="8" fill="#ED7D31" fill-rule="evenodd" transform="matrix(1 0 0 1.00237 322.919 -50.8431)"/><g clip-path="url(#clip39)"><g clip-path="url(#clip40)"><g clip-path="url(#clip41)"><path d="M2.72054 0 8.4372 0 8.4372 0.550846 2.72054 0.550846Z" fill="#5B9BD5" transform="matrix(1 0 0 1.04792 500.428 319.757)"/><path d="M8.98682 1.74485C8.89518 1.58429 8.29809 0.803401 8.29809 0.803401L7.61919 0.803401C7.31281 1.17888 6.53314 2.59674 7.35217 6.74991 7.51274 7.56345 7.59323 9.47026 7.07541 10.4L5.03361 10.4C5.73349 9.53923 6.66348 7.85178 6.38784 5.85435 6.03627 3.30678 5.97916 1.74692 6.34092 0.803401L2.85962 0.803401C2.85962 0.803401 2.26253 1.58426 2.17089 1.74485 2.07876 1.90559 2.10212 1.97437 2.10212 2.20406 2.10212 2.43358 2.10212 9.52767 2.10212 9.82598 2.10212 10.1245 2.18704 10.5049 2.40041 10.6069 2.83419 10.8132 2.67343 11.1577 3.13505 11.1577L8.02269 11.1577C8.48432 11.1577 8.32355 10.8132 8.75733 10.6069 8.97069 10.5049 9.05559 10.1245 9.05559 9.82598 9.05559 9.52772 9.05559 2.43358 9.05559 2.20406 9.05559 1.97437 9.07882 1.90561 8.98682 1.74485Z" fill="#5B9BD5" transform="matrix(1 0 0 1.04792 500.428 319.757)"/></g></g></g><g clip-path="url(#clip42)"><g clip-path="url(#clip43)"><g clip-path="url(#clip44)"><path d="M6.13987 7.22254 12.927 7.22254 12.927 7.79267 6.13987 7.79267Z" fill="#4B4B4B" transform="matrix(1.02982 0 0 1 521.222 302.981)"/><path d="M5.55458 9.47634 12.3418 9.47634 12.3418 10.0467 5.55458 10.0467Z" fill="#4B4B4B" transform="matrix(1.02982 0 0 1 521.222 302.981)"/><path d="M15.7374 1.12662 15.7374 0.759838 4.25125 0.759838 4.25125 1.12662C4.25125 1.88408 4.27231 2.6759 4.27231 3.49804 4.27231 4.69704 4.22814 5.96021 4.0144 7.27526 3.81107 8.52589 3.45498 9.82371 2.83694 11.1616L1.73135 11.1616C1.53599 11.1616 1.33875 11.193 1.14846 11.2591 0.863413 11.3581 0.593535 11.5388 0.389122 11.8044 0.184188 12.0695 0.0490019 12.4141 0.00880311 12.8206 0.00295489 12.8794 0 12.9379 0 12.9959-0.000277021 13.2906 0.0755959 13.5684 0.203334 13.812 0.395217 14.1782 0.698371 14.4691 1.05049 14.6722 1.40317 14.875 1.80769 14.9918 2.21968 14.9947L10.9514 14.9996C11.2838 15.0004 11.572 14.9325 11.8174 14.821 12.0631 14.71 12.2635 14.5625 12.4495 14.4143 13.2102 13.8086 13.7979 13.0577 14.249 12.2244 14.9258 10.973 15.2995 9.53521 15.5084 8.07324 15.7168 6.61123 15.7592 5.12293 15.7594 3.76819 15.7594 2.79803 15.7374 1.89606 15.7374 1.12662ZM2.22371 14.2615 2.22398 14.2615C2.04192 14.2607 1.85321 14.2248 1.67462 14.158 1.40638 14.0585 1.16309 13.8897 0.995675 13.6861 0.911586 13.5842 0.846113 13.4739 0.801392 13.359 0.756975 13.2438 0.733245 13.1237 0.733245 12.996 0.733245 12.9625 0.734846 12.9284 0.738323 12.8938 0.757743 12.7 0.804315 12.5448 0.866061 12.4195 0.959199 12.2322 1.08512 12.1076 1.23364 12.0221 1.38187 11.9375 1.55566 11.8992 1.73135 11.8992L9.58925 11.8992C9.50405 11.9969 9.42825 12.1087 9.36755 12.2351 9.27813 12.4203 9.21824 12.6353 9.19399 12.8773 9.18865 12.9324 9.18596 12.9864 9.18596 13.0402 9.18596 13.2962 9.24722 13.5387 9.35362 13.7541 9.44945 13.9475 9.58122 14.1195 9.73744 14.2658L2.22371 14.2615ZM14.5256 9.35392C14.314 10.2575 14.0167 11.1137 13.6041 11.8755 13.1916 12.6372 12.6659 13.3041 11.9926 13.841 11.8228 13.9767 11.6735 14.0819 11.5162 14.1524 11.3581 14.2229 11.1896 14.2655 10.9517 14.2663L10.7068 14.266C10.4851 14.2032 10.2794 14.0922 10.112 13.9464 9.97673 13.829 9.86732 13.6901 9.79204 13.5373 9.71675 13.3845 9.67491 13.2184 9.67491 13.0402 9.67491 13.0029 9.67648 12.9648 9.6805 12.9262 9.69967 12.7344 9.74542 12.5765 9.80769 12.4472 9.90169 12.2535 10.0311 12.1217 10.1806 12.0331 10.3299 11.945 10.5016 11.9021 10.673 11.9024 10.846 11.9018 11.0174 11.9466 11.1592 12.0261 11.3016 12.1062 11.4132 12.2188 11.4808 12.3591 11.5164 12.4331 11.5385 12.5318 11.5385 12.6314 11.5385 12.7131 11.5239 12.7943 11.4973 12.8621 11.4709 12.9305 11.4334 12.984 11.3897 13.0213 11.3077 13.0902 11.2242 13.1163 11.1398 13.1169 11.0664 13.1169 10.9929 13.0948 10.9317 13.0551 10.8699 13.0157 10.822 12.9603 10.7938 12.8946L10.3445 13.0873C10.4132 13.2478 10.5287 13.3775 10.6676 13.4666 10.8063 13.5557 10.9697 13.6055 11.1398 13.6055 11.3343 13.6063 11.5385 13.5374 11.7067 13.3934 11.8219 13.2949 11.9018 13.1703 11.9529 13.0391 12.0037 12.9079 12.0269 12.769 12.0269 12.6314 12.0269 12.4643 11.9931 12.2979 11.9212 12.1475 11.8059 11.9077 11.6173 11.7227 11.3985 11.6 11.1839 11.48 10.9391 11.4172 10.6902 11.414L10.6902 11.4102 3.53048 11.4102C4.16233 10.026 4.52911 8.67983 4.73801 7.39294 4.96104 6.02015 5.00522 4.71468 5.00522 3.4981 5.00522 2.79865 4.99112 2.13008 4.98659 1.49317L15.0059 1.49317C15.0107 2.18594 15.0261 2.95513 15.0261 3.76822 15.0267 5.55326 14.9492 7.54678 14.5256 9.35392Z" fill="#4B4B4B" transform="matrix(1.02982 0 0 1 521.222 302.981)"/><path d="M10.1934 5.79708C10.2794 4.83891 10.2836 3.92176 10.2748 3.05437L6.47763 3.05437C6.48637 3.92176 6.48185 4.83891 6.39593 5.79708L10.1934 5.79708Z" fill="#4B4B4B" transform="matrix(1.02982 0 0 1 521.222 302.981)"/></g></g></g><g clip-path="url(#clip45)"><g clip-path="url(#clip46)"><g clip-path="url(#clip47)"><path d="M241.142 360.935 248.132 360.935 248.132 361.521 241.142 361.521Z" fill="#4B4B4B" transform="matrix(1 0 0 1.00237 322.919 -50.8431)"/><path d="M240.539 363.255 247.529 363.255 247.529 363.843 240.539 363.843Z" fill="#4B4B4B" transform="matrix(1 0 0 1.00237 322.919 -50.8431)"/><path d="M251.026 354.657 251.026 354.279 239.197 354.279 239.197 354.657C239.197 355.437 239.219 356.252 239.219 357.099 239.219 358.333 239.173 359.634 238.953 360.989 238.743 362.277 238.377 363.613 237.74 364.991L236.602 364.991C236.401 364.991 236.197 365.023 236.002 365.091 235.708 365.193 235.43 365.379 235.22 365.653 235.009 365.926 234.869 366.281 234.828 366.7 234.822 366.76 234.819 366.82 234.819 366.88 234.818 367.183 234.897 367.469 235.028 367.72 235.226 368.097 235.538 368.397 235.901 368.606 236.264 368.815 236.681 368.935 237.105 368.938L246.097 368.943C246.439 368.944 246.736 368.874 246.989 368.759 247.242 368.645 247.448 368.493 247.64 368.341 248.423 367.717 249.028 366.943 249.493 366.085 250.19 364.797 250.575 363.316 250.79 361.81 251.005 360.305 251.048 358.772 251.048 357.377 251.048 356.378 251.026 355.449 251.026 354.657ZM237.109 368.183 237.109 368.183C236.922 368.182 236.727 368.145 236.543 368.077 236.267 367.974 236.017 367.8 235.844 367.591 235.758 367.486 235.69 367.372 235.644 367.254 235.599 367.135 235.574 367.011 235.574 366.88 235.574 366.846 235.576 366.811 235.579 366.775 235.6 366.575 235.647 366.416 235.711 366.286 235.807 366.093 235.936 365.965 236.089 365.877 236.242 365.79 236.421 365.751 236.602 365.751L244.694 365.751C244.606 365.851 244.528 365.966 244.466 366.097 244.374 366.287 244.312 366.508 244.287 366.758 244.282 366.815 244.279 366.87 244.279 366.926 244.279 367.189 244.342 367.439 244.452 367.661 244.55 367.86 244.686 368.037 244.847 368.188L237.109 368.183ZM249.778 363.129C249.56 364.06 249.254 364.942 248.829 365.726 248.404 366.51 247.863 367.198 247.169 367.75 246.995 367.89 246.84 367.998 246.679 368.071 246.516 368.143 246.342 368.187 246.097 368.188L245.845 368.188C245.617 368.123 245.405 368.009 245.233 367.859 245.093 367.738 244.981 367.595 244.903 367.437 244.825 367.28 244.782 367.109 244.782 366.925 244.782 366.887 244.784 366.848 244.788 366.808 244.808 366.61 244.855 366.448 244.919 366.315 245.016 366.115 245.149 365.979 245.303 365.888 245.457 365.798 245.634 365.754 245.81 365.754 245.988 365.753 246.165 365.799 246.311 365.881 246.458 365.964 246.573 366.08 246.642 366.224 246.679 366.3 246.701 366.402 246.701 366.504 246.701 366.588 246.687 366.672 246.659 366.742 246.632 366.813 246.593 366.868 246.548 366.906 246.464 366.977 246.378 367.004 246.291 367.004 246.216 367.004 246.14 366.982 246.077 366.941 246.013 366.9 245.964 366.843 245.935 366.776L245.472 366.974C245.543 367.139 245.662 367.273 245.805 367.364 245.948 367.456 246.116 367.507 246.291 367.507 246.491 367.508 246.701 367.437 246.875 367.289 246.994 367.188 247.076 367.06 247.128 366.924 247.181 366.789 247.205 366.646 247.205 366.504 247.205 366.332 247.17 366.161 247.096 366.006 246.977 365.759 246.783 365.569 246.557 365.442 246.336 365.319 246.084 365.254 245.828 365.251L245.828 365.247 238.455 365.247C239.106 363.821 239.483 362.435 239.698 361.11 239.928 359.696 239.973 358.352 239.973 357.099 239.973 356.379 239.959 355.69 239.954 355.034L250.272 355.034C250.277 355.748 250.293 356.539 250.293 357.377 250.294 359.215 250.214 361.268 249.778 363.129Z" fill="#4B4B4B" transform="matrix(1 0 0 1.00237 322.919 -50.8431)"/><path d="M245.316 359.466C245.405 358.48 245.409 357.535 245.4 356.642L241.49 356.642C241.499 357.535 241.494 358.48 241.406 359.466L245.316 359.466Z" fill="#4B4B4B" transform="matrix(1 0 0 1.00237 322.919 -50.8431)"/></g></g></g><path d="M177.002 390.013 180.045 390.013 180.045 393.056 177.002 393.056ZM183.088 390.013 186.131 390.013 186.131 393.056 183.088 393.056ZM189.174 390.013 191.602 390.013 191.602 393.056 189.174 393.056ZM190.08 386.97 199.209 391.534 190.08 396.099Z" fill="#4472C4" transform="matrix(1 0 0 1.00237 322.919 -50.8431)"/><path d="M0.0227833-1.52133 3.06545-1.47577 3.01988 1.5669-0.0227833 1.52133ZM6.10813-1.4302 9.15079-1.38464 9.10525 1.65804 6.06254 1.61247ZM12.1934-1.33907 14.6235-1.30268 14.5779 1.73999 12.1479 1.7036ZM13.1478-4.36813 22.2074 0.332575 13.0111 4.75988Z" fill="#4472C4" transform="matrix(1 0 0 -1.00237 536.437 341.951)"/><path d="M272.096 384.687 286.297 384.687 286.297 398.888 272.096 398.888Z" stroke="#2F528F" stroke-width="1.52151" stroke-miterlimit="8" fill="#FFFFFF" transform="matrix(1 0 0 1.00237 322.919 -50.8431)"/><path d="M275.139 392.041C275.139 389.661 276.956 387.73 279.196 387.73 281.437 387.73 283.254 389.661 283.254 392.041 283.254 394.422 281.437 396.352 279.196 396.352 276.956 396.352 275.139 394.422 275.139 392.041Z" stroke="#AE5A21" stroke-width="0.676223" stroke-miterlimit="8" fill="#FFFFFF" fill-rule="evenodd" transform="matrix(1 0 0 1.00237 322.919 -50.8431)"/><path d="M272.096 383.166 272.73 380.63 285.663 380.63 286.297 383.166Z" stroke="#2F528F" stroke-width="1.52151" stroke-miterlimit="8" fill="#FFFFFF" fill-rule="evenodd" transform="matrix(1 0 0 1.00237 322.919 -50.8431)"/><path d="M0 2.53584 0.633956 0 13.5668 0 14.2007 2.53584Z" stroke="#2F528F" stroke-width="1.52151" stroke-miterlimit="8" fill="#FFFFFF" fill-rule="evenodd" transform="matrix(1 0 0 -1.00237 595.015 353.564)"/><path d="M273.617 376.065 284.775 376.065 284.775 378.601 273.617 378.601Z" stroke="#2F528F" stroke-width="1.52151" stroke-miterlimit="8" fill="#FFFFFF" transform="matrix(1 0 0 1.00237 322.919 -50.8431)"/><path d="M276.198 393.408 280 389.835 279.583 389.391 281.304 389.445 281.25 391.165 280.833 390.722 277.032 394.295Z" stroke="#AE5A21" stroke-width="0.676223" stroke-miterlimit="8" fill="#ED7D31" fill-rule="evenodd" transform="matrix(1 0 0 1.00237 322.919 -50.8431)"/><path d="M250.056 390.013 253.098 390.056 253.055 393.099 250.012 393.056ZM256.141 390.1 259.184 390.144 259.14 393.186 256.098 393.143ZM262.227 390.188 264.413 390.219 264.37 393.261 262.183 393.23ZM262.936 387.155 271.998 391.85 262.805 396.283Z" fill="#4472C4" transform="matrix(1 0 0 1.00237 322.919 -50.8431)"/><g clip-path="url(#clip48)"><g clip-path="url(#clip49)"><g clip-path="url(#clip50)"><path d="M277.151 360.935 284.141 360.935 284.141 361.521 277.151 361.521Z" fill="#4B4B4B" transform="matrix(1 0 0 1.00237 322.919 -50.8431)"/><path d="M276.548 363.255 283.538 363.255 283.538 363.843 276.548 363.843Z" fill="#4B4B4B" transform="matrix(1 0 0 1.00237 322.919 -50.8431)"/><path d="M287.035 354.657 287.035 354.279 275.206 354.279 275.206 354.657C275.206 355.437 275.228 356.252 275.228 357.099 275.228 358.333 275.182 359.634 274.962 360.989 274.753 362.277 274.386 363.613 273.749 364.991L272.611 364.991C272.41 364.991 272.206 365.023 272.011 365.091 271.717 365.193 271.439 365.379 271.229 365.653 271.018 365.926 270.878 366.281 270.837 366.7 270.831 366.76 270.828 366.82 270.828 366.88 270.827 367.183 270.906 367.469 271.037 367.72 271.235 368.097 271.547 368.397 271.91 368.606 272.273 368.815 272.69 368.935 273.114 368.938L282.106 368.943C282.448 368.944 282.745 368.874 282.998 368.759 283.251 368.645 283.457 368.493 283.649 368.341 284.432 367.717 285.037 366.943 285.502 366.085 286.199 364.797 286.584 363.316 286.799 361.81 287.014 360.305 287.057 358.772 287.057 357.377 287.057 356.378 287.035 355.449 287.035 354.657ZM273.118 368.183 273.118 368.183C272.931 368.182 272.736 368.145 272.552 368.077 272.276 367.974 272.026 367.8 271.853 367.591 271.767 367.486 271.699 367.372 271.653 367.254 271.607 367.135 271.583 367.011 271.583 366.88 271.583 366.846 271.585 366.811 271.588 366.775 271.608 366.575 271.656 366.416 271.72 366.286 271.816 366.093 271.945 365.965 272.098 365.877 272.251 365.79 272.43 365.751 272.611 365.751L280.703 365.751C280.615 365.851 280.537 365.966 280.475 366.097 280.383 366.287 280.321 366.508 280.296 366.758 280.291 366.815 280.288 366.87 280.288 366.926 280.288 367.189 280.351 367.439 280.461 367.661 280.559 367.86 280.695 368.037 280.856 368.188L273.118 368.183ZM285.787 363.129C285.569 364.06 285.262 364.942 284.838 365.726 284.413 366.51 283.872 367.198 283.178 367.75 283.004 367.89 282.849 367.998 282.688 368.071 282.525 368.143 282.351 368.187 282.106 368.188L281.854 368.188C281.626 368.123 281.414 368.009 281.242 367.859 281.102 367.738 280.99 367.595 280.912 367.437 280.834 367.28 280.791 367.109 280.791 366.925 280.791 366.887 280.793 366.848 280.797 366.808 280.817 366.61 280.864 366.448 280.928 366.315 281.025 366.115 281.158 365.979 281.312 365.888 281.466 365.798 281.643 365.754 281.819 365.754 281.997 365.753 282.174 365.799 282.32 365.881 282.466 365.964 282.582 366.08 282.651 366.224 282.688 366.3 282.71 366.402 282.71 366.504 282.71 366.588 282.696 366.672 282.668 366.742 282.641 366.813 282.602 366.868 282.557 366.906 282.473 366.977 282.387 367.004 282.3 367.004 282.225 367.004 282.148 366.982 282.086 366.941 282.022 366.9 281.972 366.843 281.944 366.776L281.481 366.974C281.552 367.139 281.671 367.273 281.814 367.364 281.957 367.456 282.125 367.507 282.3 367.507 282.5 367.508 282.71 367.437 282.884 367.289 283.003 367.188 283.085 367.06 283.137 366.924 283.19 366.789 283.214 366.646 283.214 366.504 283.214 366.332 283.179 366.161 283.104 366.006 282.986 365.759 282.792 365.569 282.566 365.442 282.345 365.319 282.093 365.254 281.837 365.251L281.837 365.247 274.464 365.247C275.115 363.821 275.492 362.435 275.707 361.11 275.937 359.696 275.982 358.352 275.982 357.099 275.982 356.379 275.968 355.69 275.963 355.034L286.281 355.034C286.286 355.748 286.302 356.539 286.302 357.377 286.303 359.215 286.223 361.268 285.787 363.129Z" fill="#4B4B4B" transform="matrix(1 0 0 1.00237 322.919 -50.8431)"/><path d="M281.325 359.466C281.414 358.48 281.418 357.535 281.409 356.642L277.499 356.642C277.508 357.535 277.503 358.48 277.415 359.466L281.325 359.466Z" fill="#4B4B4B" transform="matrix(1 0 0 1.00237 322.919 -50.8431)"/></g></g></g><path d="M146.825 488.657 150.375 474.456 298.976 474.456 295.426 488.657Z" stroke="#FFC000" stroke-width="0.338112" stroke-miterlimit="8" fill="url(#fill51)" fill-rule="evenodd" transform="matrix(1 0 0 1.00237 322.919 -50.8431)"/><g clip-path="url(#clip52)"><g clip-path="url(#clip53)"><g clip-path="url(#clip54)"><path d="M6.13987 7.22254 12.927 7.22254 12.927 7.79267 6.13987 7.79267Z" fill="#4B4B4B" transform="matrix(1.02982 0 0 1 484.706 378.22)"/><path d="M5.55458 9.47634 12.3418 9.47634 12.3418 10.0467 5.55458 10.0467Z" fill="#4B4B4B" transform="matrix(1.02982 0 0 1 484.706 378.22)"/><path d="M15.7374 1.12662 15.7374 0.759838 4.25125 0.759838 4.25125 1.12662C4.25125 1.88408 4.27231 2.6759 4.27231 3.49804 4.27231 4.69704 4.22814 5.96021 4.0144 7.27526 3.81107 8.52589 3.45498 9.82371 2.83694 11.1616L1.73135 11.1616C1.53599 11.1616 1.33875 11.193 1.14846 11.2591 0.863413 11.3581 0.593535 11.5388 0.389122 11.8044 0.184188 12.0695 0.0490019 12.4141 0.00880311 12.8206 0.00295489 12.8794 0 12.9379 0 12.9959-0.000277021 13.2906 0.0755959 13.5684 0.203334 13.812 0.395217 14.1782 0.698371 14.4691 1.05049 14.6722 1.40317 14.875 1.80769 14.9918 2.21968 14.9947L10.9514 14.9996C11.2838 15.0004 11.572 14.9325 11.8174 14.821 12.0631 14.71 12.2635 14.5625 12.4495 14.4143 13.2102 13.8086 13.7979 13.0577 14.249 12.2244 14.9258 10.973 15.2995 9.53521 15.5084 8.07324 15.7168 6.61123 15.7592 5.12293 15.7594 3.76819 15.7594 2.79803 15.7374 1.89606 15.7374 1.12662ZM2.22371 14.2615 2.22398 14.2615C2.04192 14.2607 1.85321 14.2248 1.67462 14.158 1.40638 14.0585 1.16309 13.8897 0.995675 13.6861 0.911586 13.5842 0.846113 13.4739 0.801392 13.359 0.756975 13.2438 0.733245 13.1237 0.733245 12.996 0.733245 12.9625 0.734846 12.9284 0.738323 12.8938 0.757743 12.7 0.804315 12.5448 0.866061 12.4195 0.959199 12.2322 1.08512 12.1076 1.23364 12.0221 1.38187 11.9375 1.55566 11.8992 1.73135 11.8992L9.58925 11.8992C9.50405 11.9969 9.42825 12.1087 9.36755 12.2351 9.27813 12.4203 9.21824 12.6353 9.19399 12.8773 9.18865 12.9324 9.18596 12.9864 9.18596 13.0402 9.18596 13.2962 9.24722 13.5387 9.35362 13.7541 9.44945 13.9475 9.58122 14.1195 9.73744 14.2658L2.22371 14.2615ZM14.5256 9.35392C14.314 10.2575 14.0167 11.1137 13.6041 11.8755 13.1916 12.6372 12.6659 13.3041 11.9926 13.841 11.8228 13.9767 11.6735 14.0819 11.5162 14.1524 11.3581 14.2229 11.1896 14.2655 10.9517 14.2663L10.7068 14.266C10.4851 14.2032 10.2794 14.0922 10.112 13.9464 9.97673 13.829 9.86732 13.6901 9.79204 13.5373 9.71675 13.3845 9.67491 13.2184 9.67491 13.0402 9.67491 13.0029 9.67648 12.9648 9.6805 12.9262 9.69967 12.7344 9.74542 12.5765 9.80769 12.4472 9.90169 12.2535 10.0311 12.1217 10.1806 12.0331 10.3299 11.945 10.5016 11.9021 10.673 11.9024 10.846 11.9018 11.0174 11.9466 11.1592 12.0261 11.3016 12.1062 11.4132 12.2188 11.4808 12.3591 11.5164 12.4331 11.5385 12.5318 11.5385 12.6314 11.5385 12.7131 11.5239 12.7943 11.4973 12.8621 11.4709 12.9305 11.4334 12.984 11.3897 13.0213 11.3077 13.0902 11.2242 13.1163 11.1398 13.1169 11.0664 13.1169 10.9929 13.0948 10.9317 13.0551 10.8699 13.0157 10.822 12.9603 10.7938 12.8946L10.3445 13.0873C10.4132 13.2478 10.5287 13.3775 10.6676 13.4666 10.8063 13.5557 10.9697 13.6055 11.1398 13.6055 11.3343 13.6063 11.5385 13.5374 11.7067 13.3934 11.8219 13.2949 11.9018 13.1703 11.9529 13.0391 12.0037 12.9079 12.0269 12.769 12.0269 12.6314 12.0269 12.4643 11.9931 12.2979 11.9212 12.1475 11.8059 11.9077 11.6173 11.7227 11.3985 11.6 11.1839 11.48 10.9391 11.4172 10.6902 11.414L10.6902 11.4102 3.53048 11.4102C4.16233 10.026 4.52911 8.67983 4.73801 7.39294 4.96104 6.02015 5.00522 4.71468 5.00522 3.4981 5.00522 2.79865 4.99112 2.13008 4.98659 1.49317L15.0059 1.49317C15.0107 2.18594 15.0261 2.95513 15.0261 3.76822 15.0267 5.55326 14.9492 7.54678 14.5256 9.35392Z" fill="#4B4B4B" transform="matrix(1.02982 0 0 1 484.706 378.22)"/><path d="M10.1934 5.79708C10.2794 4.83891 10.2836 3.92176 10.2748 3.05437L6.47763 3.05437C6.48637 3.92176 6.48185 4.83891 6.39593 5.79708L10.1934 5.79708Z" fill="#4B4B4B" transform="matrix(1.02982 0 0 1 484.706 378.22)"/></g></g></g><g clip-path="url(#clip55)"><g clip-path="url(#clip56)"><g clip-path="url(#clip57)"><path d="M204.626 435.488 211.616 435.488 211.616 436.075 204.626 436.075Z" fill="#4B4B4B" transform="matrix(1 0 0 1.00237 322.919 -50.8431)"/><path d="M204.023 437.809 211.013 437.809 211.013 438.396 204.023 438.396Z" fill="#4B4B4B" transform="matrix(1 0 0 1.00237 322.919 -50.8431)"/><path d="M214.509 429.211 214.509 428.833 202.681 428.833 202.681 429.211C202.681 429.991 202.703 430.806 202.703 431.653 202.703 432.887 202.657 434.188 202.437 435.543 202.227 436.83 201.861 438.167 201.224 439.545L200.086 439.545C199.885 439.545 199.681 439.577 199.486 439.645 199.192 439.747 198.914 439.933 198.704 440.207 198.493 440.48 198.353 440.834 198.312 441.253 198.306 441.314 198.303 441.374 198.303 441.434 198.302 441.737 198.381 442.023 198.512 442.274 198.71 442.651 199.022 442.951 199.385 443.16 199.748 443.369 200.165 443.489 200.589 443.492L209.581 443.497C209.923 443.498 210.22 443.428 210.473 443.313 210.725 443.199 210.932 443.047 211.124 442.895 211.907 442.271 212.512 441.497 212.977 440.639 213.674 439.35 214.059 437.87 214.274 436.364 214.489 434.858 214.532 433.326 214.532 431.931 214.532 430.932 214.509 430.003 214.509 429.211ZM200.593 442.737 200.593 442.737C200.406 442.736 200.211 442.699 200.027 442.63 199.751 442.528 199.501 442.354 199.328 442.144 199.242 442.039 199.174 441.926 199.128 441.808 199.082 441.689 199.058 441.565 199.058 441.434 199.058 441.399 199.06 441.364 199.063 441.328 199.083 441.129 199.131 440.969 199.195 440.84 199.291 440.647 199.42 440.519 199.573 440.431 199.726 440.344 199.905 440.304 200.086 440.304L208.178 440.304C208.09 440.405 208.012 440.52 207.95 440.65 207.858 440.841 207.796 441.062 207.771 441.312 207.766 441.368 207.763 441.424 207.763 441.479 207.763 441.743 207.826 441.993 207.936 442.214 208.034 442.414 208.17 442.591 208.331 442.741L200.593 442.737ZM213.262 437.683C213.044 438.613 212.737 439.495 212.313 440.28 211.888 441.064 211.347 441.751 210.653 442.304 210.478 442.444 210.324 442.552 210.163 442.625 210 442.697 209.826 442.741 209.581 442.742L209.329 442.742C209.1 442.677 208.889 442.563 208.717 442.413 208.577 442.292 208.465 442.148 208.387 441.991 208.309 441.834 208.266 441.663 208.266 441.479 208.266 441.441 208.268 441.402 208.272 441.362 208.292 441.164 208.339 441.002 208.403 440.868 208.5 440.669 208.633 440.533 208.787 440.442 208.941 440.352 209.118 440.307 209.294 440.307 209.472 440.307 209.649 440.353 209.795 440.435 209.941 440.517 210.056 440.634 210.126 440.778 210.163 440.854 210.185 440.956 210.185 441.058 210.185 441.142 210.171 441.226 210.143 441.296 210.116 441.366 210.077 441.422 210.032 441.46 209.948 441.531 209.862 441.558 209.775 441.558 209.699 441.558 209.623 441.535 209.56 441.495 209.497 441.454 209.447 441.397 209.418 441.329L208.956 441.528C209.026 441.693 209.146 441.826 209.289 441.918 209.432 442.01 209.6 442.061 209.775 442.061 209.975 442.062 210.185 441.991 210.359 441.843 210.477 441.742 210.56 441.613 210.612 441.478 210.665 441.343 210.688 441.2 210.688 441.058 210.688 440.886 210.653 440.715 210.579 440.56 210.461 440.313 210.266 440.122 210.041 439.996 209.82 439.872 209.568 439.808 209.312 439.805L209.312 439.801 201.939 439.801C202.589 438.375 202.967 436.989 203.182 435.664 203.412 434.25 203.457 432.905 203.457 431.653 203.457 430.932 203.443 430.244 203.438 429.588L213.756 429.588C213.761 430.302 213.777 431.093 213.777 431.931 213.778 433.769 213.698 435.822 213.262 437.683Z" fill="#4B4B4B" transform="matrix(1 0 0 1.00237 322.919 -50.8431)"/><path d="M208.8 434.02C208.889 433.034 208.893 432.089 208.884 431.196L204.974 431.196C204.983 432.089 204.978 433.034 204.889 434.02L208.8 434.02Z" fill="#4B4B4B" transform="matrix(1 0 0 1.00237 322.919 -50.8431)"/></g></g></g><g clip-path="url(#clip58)"><g clip-path="url(#clip59)"><g clip-path="url(#clip60)"><path d="M240.945 436.27 247.715 436.27 247.715 436.839 240.945 436.839Z" fill="#4B4B4B" transform="matrix(1 0 0 1.00237 322.919 -50.8431)"/><path d="M240.36 438.519 247.132 438.519 247.132 439.088 240.36 439.088Z" fill="#4B4B4B" transform="matrix(1 0 0 1.00237 322.919 -50.8431)"/><path d="M250.519 430.188 250.519 429.823 239.06 429.823 239.06 430.188C239.06 430.944 239.081 431.734 239.081 432.554 239.081 433.75 239.037 435.011 238.824 436.323 238.621 437.57 238.266 438.865 237.649 440.2L236.546 440.2C236.351 440.2 236.154 440.231 235.965 440.297 235.68 440.396 235.411 440.576 235.207 440.841 235.003 441.106 234.868 441.45 234.828 441.855 234.822 441.914 234.819 441.972 234.819 442.03 234.818 442.324 234.895 442.601 235.022 442.844 235.213 443.209 235.516 443.5 235.867 443.702 236.219 443.904 236.622 444.021 237.033 444.024L245.744 444.029C246.076 444.03 246.364 443.962 246.609 443.851 246.854 443.74 247.053 443.593 247.239 443.445 247.998 442.84 248.584 442.092 249.034 441.26 249.709 440.012 250.082 438.577 250.291 437.119 250.499 435.66 250.541 434.175 250.541 432.824 250.541 431.856 250.519 430.956 250.519 430.188ZM237.037 443.293 237.038 443.293C236.856 443.292 236.668 443.256 236.49 443.189 236.222 443.09 235.979 442.921 235.813 442.719 235.728 442.617 235.663 442.507 235.618 442.392 235.574 442.277 235.55 442.157 235.55 442.03 235.55 441.996 235.552 441.962 235.555 441.928 235.575 441.735 235.621 441.58 235.683 441.455 235.776 441.268 235.902 441.144 236.05 441.058 236.197 440.974 236.371 440.936 236.546 440.936L244.386 440.936C244.301 441.033 244.225 441.145 244.165 441.271 244.075 441.456 244.015 441.67 243.991 441.912 243.986 441.966 243.984 442.02 243.984 442.074 243.984 442.33 244.044 442.571 244.15 442.786 244.246 442.979 244.378 443.151 244.533 443.297L237.037 443.293ZM249.31 438.396C249.099 439.298 248.803 440.152 248.391 440.912 247.98 441.672 247.455 442.337 246.783 442.873 246.614 443.008 246.465 443.113 246.308 443.184 246.15 443.254 245.982 443.296 245.745 443.297L245.5 443.297C245.279 443.234 245.074 443.124 244.907 442.978 244.772 442.861 244.663 442.722 244.588 442.57 244.513 442.417 244.471 442.252 244.471 442.074 244.471 442.037 244.472 441.999 244.477 441.96 244.496 441.769 244.541 441.611 244.604 441.483 244.697 441.289 244.826 441.157 244.976 441.069 245.125 440.981 245.296 440.938 245.467 440.939 245.639 440.938 245.81 440.983 245.952 441.062 246.094 441.142 246.205 441.254 246.273 441.394 246.308 441.468 246.33 441.567 246.33 441.666 246.33 441.748 246.315 441.828 246.289 441.896 246.263 441.964 246.225 442.018 246.182 442.055 246.1 442.124 246.017 442.15 245.933 442.15 245.859 442.15 245.786 442.128 245.725 442.089 245.663 442.05 245.616 441.994 245.587 441.929L245.139 442.121C245.208 442.281 245.323 442.41 245.461 442.499 245.6 442.588 245.763 442.638 245.933 442.638 246.127 442.639 246.33 442.57 246.498 442.426 246.613 442.328 246.693 442.204 246.744 442.073 246.794 441.942 246.818 441.804 246.818 441.666 246.818 441.499 246.784 441.333 246.712 441.183 246.597 440.944 246.409 440.76 246.191 440.637 245.977 440.517 245.732 440.455 245.484 440.451L245.484 440.448 238.341 440.448C238.972 439.067 239.337 437.724 239.546 436.44 239.768 435.07 239.813 433.768 239.813 432.554 239.813 431.857 239.798 431.19 239.794 430.554L249.79 430.554C249.794 431.245 249.81 432.013 249.81 432.824 249.81 434.605 249.733 436.593 249.31 438.396Z" fill="#4B4B4B" transform="matrix(1 0 0 1.00237 322.919 -50.8431)"/><path d="M244.988 434.848C245.074 433.892 245.079 432.977 245.069 432.112L241.281 432.112C241.29 432.977 241.285 433.892 241.2 434.848L244.988 434.848Z" fill="#4B4B4B" transform="matrix(1 0 0 1.00237 322.919 -50.8431)"/></g></g></g><g clip-path="url(#clip61)"><g clip-path="url(#clip62)"><g clip-path="url(#clip63)"><path d="M29.3156 7.28892 20.0794 13.8311 20.0794 7.28892 10.4411 14.1159 9.63823 1.66637 1.60582 1.66637 0 29.7781 31.4444 29.7781 29.3156 7.28892ZM11.9544 22.6954 8.1608 22.6954 8.1608 18.9013 11.9544 18.9013 11.9544 22.6954ZM22.7302 22.6954 18.9354 22.6954 18.9354 18.9013 22.7302 18.9013 22.7302 22.6954Z" fill="#4B4B4B" transform="matrix(1 0 0 1.01853 381.244 391.437)"/></g></g></g><text font-family="Calibri,Calibri_MSFontService,sans-serif" font-weight="400" font-size="11" transform="matrix(0.507168 0 0 0.508368 385.585 321)">F<tspan font-size="11" x="4.99997" y="0">001</tspan><tspan font-size="11" x="23" y="0">:</tspan><tspan font-family="Yu Gothic,Yu Gothic_MSFontService,sans-serif" font-size="11" x="23.6667" y="0">工場</tspan></text><path d="M62.6652 371.69 68.3709 371.69 74.0765 371.69 79.7822 371.69 85.4878 371.69 85.4878 372.197 79.7822 372.197 74.0765 372.197 68.3709 372.197 62.6652 372.197Z" fill-rule="evenodd" transform="matrix(1 0 0 1.00237 322.919 -50.8431)"/><text font-family="Calibri,Calibri_MSFontService,sans-serif" font-weight="400" font-size="11" transform="matrix(0.507168 0 0 0.508368 386.339 429)">F<tspan font-size="11" x="4.99997" y="0">002</tspan><tspan font-size="11" x="23" y="0">:</tspan><tspan font-family="Yu Gothic,Yu Gothic_MSFontService,sans-serif" font-size="11" x="23.6667" y="0">工場</tspan></text><path d="M63.4199 478.586 69.1255 478.586 74.8312 478.586 80.5368 478.586 86.2425 478.586 86.2425 479.093 80.5368 479.093 74.8312 479.093 69.1255 479.093 63.4199 479.093Z" fill-rule="evenodd" transform="matrix(1 0 0 1.00237 322.919 -50.8431)"/><path d="M163.055 459.748 177.255 459.748 177.255 473.949 163.055 473.949Z" stroke="#2F528F" stroke-width="1.52151" stroke-miterlimit="8" fill="#FFFFFF" transform="matrix(1 0 0 1.00237 322.919 -50.8431)"/><path d="M166.098 466.595C166.098 464.214 167.914 462.284 170.155 462.284 172.396 462.284 174.212 464.214 174.212 466.595 174.212 468.976 172.396 470.906 170.155 470.906 167.914 470.906 166.098 468.976 166.098 466.595Z" stroke="#AE5A21" stroke-width="0.676223" stroke-miterlimit="8" fill="#FFFFFF" fill-rule="evenodd" transform="matrix(1 0 0 1.00237 322.919 -50.8431)"/><path d="M163.055 457.72 163.689 455.184 176.621 455.184 177.255 457.72Z" stroke="#2F528F" stroke-width="1.52151" stroke-miterlimit="8" fill="#FFFFFF" fill-rule="evenodd" transform="matrix(1 0 0 1.00237 322.919 -50.8431)"/><path d="M0 2.53584 0.633956 0 13.5668 0 14.2007 2.53584Z" stroke="#2F528F" stroke-width="1.52151" stroke-miterlimit="8" fill="#FFFFFF" fill-rule="evenodd" transform="matrix(1 0 0 -1.00237 485.974 428.802)"/><path d="M164.576 451.126 175.734 451.126 175.734 453.662 164.576 453.662Z" stroke="#2F528F" stroke-width="1.52151" stroke-miterlimit="8" fill="#FFFFFF" transform="matrix(1 0 0 1.00237 322.919 -50.8431)"/><path d="M167.45 468.675 170.685 464.582 170.207 464.204 171.916 464.004 172.117 465.714 171.64 465.336 168.405 469.43Z" stroke="#AE5A21" stroke-width="0.676223" stroke-miterlimit="8" fill="#ED7D31" fill-rule="evenodd" transform="matrix(1 0 0 1.00237 322.919 -50.8431)"/><path d="M199.571 459.748 213.772 459.748 213.772 473.949 199.571 473.949Z" stroke="#2F528F" stroke-width="1.52151" stroke-miterlimit="8" fill="#FFFFFF" transform="matrix(1 0 0 1.00237 322.919 -50.8431)"/><path d="M202.107 466.595C202.107 464.214 204.037 462.284 206.418 462.284 208.798 462.284 210.729 464.214 210.729 466.595 210.729 468.976 208.798 470.906 206.418 470.906 204.037 470.906 202.107 468.976 202.107 466.595Z" stroke="#AE5A21" stroke-width="0.676223" stroke-miterlimit="8" fill="#FFFFFF" fill-rule="evenodd" transform="matrix(1 0 0 1.00237 322.919 -50.8431)"/><path d="M199.571 457.72 200.205 455.184 213.138 455.184 213.772 457.72Z" stroke="#2F528F" stroke-width="1.52151" stroke-miterlimit="8" fill="#FFFFFF" fill-rule="evenodd" transform="matrix(1 0 0 1.00237 322.919 -50.8431)"/><path d="M0 2.53584 0.633956 0 13.5668 0 14.2007 2.53584Z" stroke="#2F528F" stroke-width="1.52151" stroke-miterlimit="8" fill="#FFFFFF" fill-rule="evenodd" transform="matrix(1 0 0 -1.00237 522.49 428.802)"/><path d="M201.092 451.126 212.25 451.126 212.25 453.662 201.092 453.662Z" stroke="#2F528F" stroke-width="1.52151" stroke-miterlimit="8" fill="#FFFFFF" transform="matrix(1 0 0 1.00237 322.919 -50.8431)"/><path d="M208.421 469.041 204.389 465.729 204.003 466.199 203.836 464.486 205.548 464.318 205.162 464.788 209.194 468.1Z" stroke="#AE5A21" stroke-width="0.676223" stroke-miterlimit="8" fill="#ED7D31" fill-rule="evenodd" transform="matrix(1 0 0 1.00237 322.919 -50.8431)"/><path d="M236.087 459.241 250.288 459.241 250.288 473.442 236.087 473.442Z" stroke="#2F528F" stroke-width="1.52151" stroke-miterlimit="8" fill="#FFFFFF" transform="matrix(1 0 0 1.00237 322.919 -50.8431)"/><path d="M238.623 466.595C238.623 464.214 240.553 462.284 242.934 462.284 245.314 462.284 247.245 464.214 247.245 466.595 247.245 468.976 245.314 470.906 242.934 470.906 240.553 470.906 238.623 468.976 238.623 466.595Z" stroke="#AE5A21" stroke-width="0.676223" stroke-miterlimit="8" fill="#FFFFFF" fill-rule="evenodd" transform="matrix(1 0 0 1.00237 322.919 -50.8431)"/><path d="M236.087 457.72 236.721 455.184 249.654 455.184 250.288 457.72Z" stroke="#2F528F" stroke-width="1.52151" stroke-miterlimit="8" fill="#FFFFFF" fill-rule="evenodd" transform="matrix(1 0 0 1.00237 322.919 -50.8431)"/><path d="M0 2.53584 0.633956 0 13.5668 0 14.2007 2.53584Z" stroke="#2F528F" stroke-width="1.52151" stroke-miterlimit="8" fill="#FFFFFF" fill-rule="evenodd" transform="matrix(1 0 0 -1.00237 559.006 428.294)"/><path d="M237.101 450.619 248.766 450.619 248.766 453.155 237.101 453.155Z" stroke="#2F528F" stroke-width="1.52151" stroke-miterlimit="8" fill="#FFFFFF" transform="matrix(1 0 0 1.00237 322.919 -50.8431)"/><path d="M240.896 468.915 242.948 464.117 242.388 463.878 243.986 463.238 244.627 464.835 244.067 464.596 242.016 469.394Z" stroke="#AE5A21" stroke-width="0.676223" stroke-miterlimit="8" fill="#ED7D31" fill-rule="evenodd" transform="matrix(1 0 0 1.00237 322.919 -50.8431)"/><g clip-path="url(#clip64)"><g clip-path="url(#clip65)"><g clip-path="url(#clip66)"><path d="M215.348 444.28 221.324 444.28 221.324 444.855 215.348 444.855Z" fill="#70AD47" transform="matrix(1 0 0 1.00237 322.919 -50.8431)"/><path d="M221.899 446.104C221.803 445.936 221.179 445.119 221.179 445.119L220.469 445.119C220.149 445.512 219.334 446.994 220.19 451.336 220.358 452.187 220.442 454.181 219.901 455.152L217.766 455.152C218.498 454.253 219.47 452.488 219.182 450.4 218.814 447.736 218.754 446.106 219.133 445.119L215.493 445.119C215.493 445.119 214.869 445.936 214.773 446.104 214.677 446.272 214.701 446.344 214.701 446.584 214.701 446.824 214.701 454.24 214.701 454.552 214.701 454.864 214.79 455.262 215.013 455.369 215.466 455.584 215.299 455.944 215.781 455.944L220.891 455.944C221.373 455.944 221.206 455.584 221.659 455.369 221.882 455.262 221.971 454.864 221.971 454.552 221.971 454.24 221.971 446.824 221.971 446.584 221.971 446.344 221.995 446.272 221.899 446.104Z" fill="#70AD47" transform="matrix(1 0 0 1.00237 322.919 -50.8431)"/></g></g></g><path d="M177.002 465.073 180.045 465.073 180.045 468.116 177.002 468.116ZM183.088 465.073 186.131 465.073 186.131 468.116 183.088 468.116ZM189.174 465.073 191.602 465.073 191.602 468.116 189.174 468.116ZM190.08 462.03 199.209 466.595 190.08 471.16Z" fill="#4472C4" transform="matrix(1 0 0 1.00237 322.919 -50.8431)"/><path d="M0.0227833-1.52133 3.06545-1.47577 3.01988 1.5669-0.0227833 1.52133ZM6.10813-1.4302 9.15079-1.38464 9.10525 1.65804 6.06254 1.61247ZM12.1934-1.33907 14.6235-1.30268 14.5779 1.73999 12.1479 1.7036ZM13.1478-4.36813 22.2074 0.332575 13.0111 4.75988Z" fill="#4472C4" transform="matrix(1 0 0 -1.00237 536.437 416.681)"/><path d="M170.749 303.049 170.662 294.411" stroke="#262626" stroke-width="0.338112" stroke-miterlimit="8" stroke-dasharray="0.338112 0.338112" fill="none" fill-rule="evenodd" transform="matrix(1 0 0 1.00237 322.919 -50.8431)"/><path d="M207.228 302.991 207.178 294.918" stroke="#262626" stroke-width="0.338112" stroke-miterlimit="8" stroke-dasharray="0.338112 0.338112" fill="none" fill-rule="evenodd" transform="matrix(1 0 0 1.00237 322.919 -50.8431)"/><path d="M243.793 302.716 243.694 294.411" stroke="#262626" stroke-width="0.338112" stroke-miterlimit="8" stroke-dasharray="0.338112 0.338112" fill="none" fill-rule="evenodd" transform="matrix(1 0 0 1.00237 322.919 -50.8431)"/><path d="M0 0 11.2801 8.37442" stroke="#44546A" stroke-width="0.338112" stroke-miterlimit="8" stroke-dasharray="0.338112 0.338112" fill="none" fill-rule="evenodd" transform="matrix(1 0 0 -1.00237 569.657 265.368)"/><path d="M170.242 376.404 170.155 369.979" stroke="#262626" stroke-width="0.338112" stroke-miterlimit="8" stroke-dasharray="0.338112 0.338112" fill="none" fill-rule="evenodd" transform="matrix(1 0 0 1.00237 322.919 -50.8431)"/><path d="M206.753 376.139 206.671 368.965" stroke="#262626" stroke-width="0.338112" stroke-miterlimit="8" stroke-dasharray="0.338112 0.338112" fill="none" fill-rule="evenodd" transform="matrix(1 0 0 1.00237 322.919 -50.8431)"/><path d="M0 0 0.166234 6.14709" stroke="#262626" stroke-width="0.338112" stroke-miterlimit="8" stroke-dasharray="0.338112 0.338112" fill="none" fill-rule="evenodd" transform="matrix(1 0 0 -1.00237 566.107 326.173)"/><path d="M279.196 376.411 279.196 369.979" stroke="#262626" stroke-width="0.338112" stroke-miterlimit="8" stroke-dasharray="0.338112 0.338112" fill="none" fill-rule="evenodd" transform="matrix(1 0 0 1.00237 322.919 -50.8431)"/><path d="M0 0 10.0596 7.48986" stroke="#44546A" stroke-width="0.338112" stroke-miterlimit="8" stroke-dasharray="0.338112 0.338112" fill="none" fill-rule="evenodd" transform="matrix(1 0 0 -1.00237 496.117 339.212)"/><path d="M0 0 9.09951 7.60154" stroke="#44546A" stroke-width="0.338112" stroke-miterlimit="8" stroke-dasharray="0.338112 0.338112" fill="none" fill-rule="evenodd" transform="matrix(1 0 0 -1.00237 532.633 414.054)"/><path d="M170.177 451.057 170.155 444.026" stroke="#262626" stroke-width="0.338112" stroke-miterlimit="8" stroke-dasharray="0.338112 0.338112" fill="none" fill-rule="evenodd" transform="matrix(1 0 0 1.00237 322.919 -50.8431)"/><path d="M0 0 0.0805079 6.76553" stroke="#262626" stroke-width="0.338112" stroke-miterlimit="8" stroke-dasharray="0.338112 0.338112" fill="none" fill-rule="evenodd" transform="matrix(1 0 0 -1.00237 529.591 401.523)"/><path d="M0 0 0.0805079 5.60994" stroke="#262626" stroke-width="0.338112" stroke-miterlimit="8" stroke-dasharray="0.338112 0.338112" fill="none" fill-rule="evenodd" transform="matrix(1 0 0 -1.00237 566.107 400.873)"/></g></g></g></g><path d="M73.5001 386.5 359.158 386.5 359.158 418.375 371.25 418.375 371.25 407.75 392.5 429 371.25 450.25 371.25 439.625 359.158 439.625 359.158 471.5 73.5001 471.5Z" stroke="#FFC000" stroke-width="0.666667" stroke-miterlimit="8" fill="url(#fill67)" fill-rule="evenodd"/><text font-family="Yu Gothic,Yu Gothic_MSFontService,sans-serif" font-weight="400" font-size="13" transform="translate(83.0935 403)">概念情報モデル上の定義を使って<tspan font-size="13" x="0" y="16">クエリーを組み立てる</tspan><tspan font-family="Calibri,Calibri_MSFontService,sans-serif" font-size="13" x="0" y="48">SELECT * FROM </tspan><tspan font-size="13" x="90.6667" y="48">装置</tspan><tspan font-family="Calibri,Calibri_MSFontService,sans-serif" font-size="13" x="120.333" y="48">WHERE </tspan><tspan font-size="13" x="163.667" y="48">装置</tspan><tspan font-family="Calibri,Calibri_MSFontService,sans-serif" font-size="13" x="190.333" y="48">.</tspan><tspan font-size="13" x="193.667" y="48">温度</tspan><tspan font-family="Calibri,Calibri_MSFontService,sans-serif" font-size="13" x="223.333" y="48">&gt; =30.0</tspan></text><path d="M0 15 15.5 0 31 15Z" fill="#FF0000" fill-rule="evenodd" fill-opacity="0.501961" transform="matrix(1 0 0 -1 121 285)"/><path d="M0 13 34 0 68 13Z" fill="#FF0000" fill-rule="evenodd" fill-opacity="0.501961" transform="matrix(1 0 0 -1 189 494)"/><rect x="145.5" y="512.5" width="56" height="29" stroke="#000000" stroke-width="0.666667" stroke-miterlimit="8" fill="#FFFFFF"/><text font-family="Yu Gothic,Yu Gothic_MSFontService,sans-serif" font-weight="400" font-size="12" transform="translate(156.13 530)">装置<tspan font-family="Calibri,Calibri_MSFontService,sans-serif" font-size="12" x="24" y="0">ID</tspan></text><rect x="201.5" y="512.5" width="37" height="29" stroke="#000000" stroke-width="0.666667" stroke-miterlimit="8" fill="#FFFFFF"/><text font-family="Yu Gothic,Yu Gothic_MSFontService,sans-serif" font-weight="400" font-size="5" transform="translate(211.819 528)">・・・</text><rect x="238.5" y="512.5" width="65" height="29" stroke="#000000" stroke-width="0.666667" stroke-miterlimit="8" fill="#FFFFFF"/><text font-family="Yu Gothic,Yu Gothic_MSFontService,sans-serif" font-weight="400" font-size="12" transform="translate(258.57 530)">温度</text><rect x="145.5" y="541.5" width="56" height="29" stroke="#000000" stroke-width="0.666667" stroke-miterlimit="8" fill="#FFFFFF"/><text font-family="Calibri,Calibri_MSFontService,sans-serif" font-weight="400" font-size="12" transform="translate(155.38 560)">ETP009</text><rect x="201.5" y="541.5" width="37" height="29" stroke="#000000" stroke-width="0.666667" stroke-miterlimit="8" fill="#FFFFFF"/><text font-family="Yu Gothic,Yu Gothic_MSFontService,sans-serif" font-weight="400" font-size="5" transform="translate(210.932 558)">・・・</text><rect x="238.5" y="541.5" width="65" height="29" stroke="#000000" stroke-width="0.666667" stroke-miterlimit="8" fill="#FFFFFF"/><text font-family="Calibri,Calibri_MSFontService,sans-serif" font-weight="400" font-size="12" transform="translate(257.07 560)">30.01</text><rect x="145.5" y="570.5" width="56" height="29" stroke="#000000" stroke-width="0.666667" stroke-miterlimit="8" fill="#FFFFFF"/><text font-family="Calibri,Calibri_MSFontService,sans-serif" font-weight="400" font-size="12" transform="translate(155.38 589)">ETP102</text><rect x="201.5" y="570.5" width="37" height="29" stroke="#000000" stroke-width="0.666667" stroke-miterlimit="8" fill="#FFFFFF"/><text font-family="Yu Gothic,Yu Gothic_MSFontService,sans-serif" font-weight="400" font-size="5" transform="translate(210.932 587)">・・・</text><rect x="238.5" y="570.5" width="65" height="29" stroke="#000000" stroke-width="0.666667" stroke-miterlimit="8" fill="#FFFFFF"/><text font-family="Calibri,Calibri_MSFontService,sans-serif" font-weight="400" font-size="12" transform="translate(257.07 589)">32.72<tspan font-family="Yu Gothic,Yu Gothic_MSFontService,sans-serif" font-size="13" x="70.6228" y="-47">クエリーをかけた時点で条件を満たす</tspan><tspan font-family="Yu Gothic,Yu Gothic_MSFontService,sans-serif" font-size="13" x="70.6228" y="-31">インスタンスをリストアップ</tspan></text></g></svg>