<svg width="607" height="552" xmlns="http://www.w3.org/2000/svg" xmlns:xlink="http://www.w3.org/1999/xlink" overflow="hidden"><defs><clipPath id="clip0"><rect x="60" y="12" width="607" height="552"/></clipPath><clipPath id="clip1"><rect x="258" y="239" width="26" height="26"/></clipPath><clipPath id="clip2"><rect x="258" y="239" width="26" height="26"/></clipPath><clipPath id="clip3"><rect x="258" y="239" width="26" height="26"/></clipPath><clipPath id="clip4"><rect x="258" y="113" width="26" height="26"/></clipPath><clipPath id="clip5"><rect x="258" y="113" width="26" height="26"/></clipPath><clipPath id="clip6"><rect x="258" y="113" width="26" height="26"/></clipPath><clipPath id="clip7"><rect x="109" y="239" width="26" height="26"/></clipPath><clipPath id="clip8"><rect x="109" y="239" width="26" height="26"/></clipPath><clipPath id="clip9"><rect x="109" y="239" width="26" height="26"/></clipPath><clipPath id="clip10"><rect x="109" y="176" width="27" height="26"/></clipPath><clipPath id="clip11"><rect x="109" y="176" width="27" height="26"/></clipPath><clipPath id="clip12"><rect x="109" y="176" width="27" height="26"/></clipPath><clipPath id="clip13"><rect x="109" y="113" width="26" height="26"/></clipPath><clipPath id="clip14"><rect x="109" y="113" width="26" height="26"/></clipPath><clipPath id="clip15"><rect x="109" y="113" width="26" height="26"/></clipPath><clipPath id="clip16"><rect x="258" y="176" width="27" height="26"/></clipPath><clipPath id="clip17"><rect x="258" y="176" width="27" height="26"/></clipPath><clipPath id="clip18"><rect x="258" y="176" width="27" height="26"/></clipPath><clipPath id="clip19"><rect x="176" y="177" width="26" height="26"/></clipPath><clipPath id="clip20"><rect x="176" y="177" width="26" height="26"/></clipPath><clipPath id="clip21"><rect x="176" y="177" width="26" height="26"/></clipPath><clipPath id="clip22"><rect x="199" y="107" width="27" height="27"/></clipPath><clipPath id="clip23"><rect x="199" y="107" width="27" height="27"/></clipPath><clipPath id="clip24"><rect x="199" y="107" width="27" height="27"/></clipPath><clipPath id="clip25"><rect x="166" y="129" width="26" height="26"/></clipPath><clipPath id="clip26"><rect x="166" y="129" width="26" height="26"/></clipPath><clipPath id="clip27"><rect x="166" y="129" width="26" height="26"/></clipPath><clipPath id="clip28"><rect x="157" y="228" width="26" height="26"/></clipPath><clipPath id="clip29"><rect x="157" y="228" width="26" height="26"/></clipPath><clipPath id="clip30"><rect x="157" y="228" width="26" height="26"/></clipPath><clipPath id="clip31"><rect x="258" y="467" width="26" height="26"/></clipPath><clipPath id="clip32"><rect x="258" y="467" width="26" height="26"/></clipPath><clipPath id="clip33"><rect x="258" y="467" width="26" height="26"/></clipPath><clipPath id="clip34"><rect x="258" y="340" width="26" height="27"/></clipPath><clipPath id="clip35"><rect x="258" y="340" width="26" height="27"/></clipPath><clipPath id="clip36"><rect x="258" y="340" width="26" height="27"/></clipPath><clipPath id="clip37"><rect x="109" y="467" width="26" height="26"/></clipPath><clipPath id="clip38"><rect x="109" y="467" width="26" height="26"/></clipPath><clipPath id="clip39"><rect x="109" y="467" width="26" height="26"/></clipPath><clipPath id="clip40"><rect x="109" y="404" width="27" height="26"/></clipPath><clipPath id="clip41"><rect x="109" y="404" width="27" height="26"/></clipPath><clipPath id="clip42"><rect x="109" y="404" width="27" height="26"/></clipPath><clipPath id="clip43"><rect x="109" y="340" width="26" height="27"/></clipPath><clipPath id="clip44"><rect x="109" y="340" width="26" height="27"/></clipPath><clipPath id="clip45"><rect x="109" y="340" width="26" height="27"/></clipPath><clipPath id="clip46"><rect x="258" y="404" width="27" height="26"/></clipPath><clipPath id="clip47"><rect x="258" y="404" width="27" height="26"/></clipPath><clipPath id="clip48"><rect x="258" y="404" width="27" height="26"/></clipPath><clipPath id="clip49"><rect x="176" y="405" width="26" height="26"/></clipPath><clipPath id="clip50"><rect x="176" y="405" width="26" height="26"/></clipPath><clipPath id="clip51"><rect x="176" y="405" width="26" height="26"/></clipPath><clipPath id="clip52"><rect x="199" y="335" width="27" height="26"/></clipPath><clipPath id="clip53"><rect x="199" y="335" width="27" height="26"/></clipPath><clipPath id="clip54"><rect x="199" y="335" width="27" height="26"/></clipPath><clipPath id="clip55"><rect x="166" y="356" width="26" height="26"/></clipPath><clipPath id="clip56"><rect x="166" y="356" width="26" height="26"/></clipPath><clipPath id="clip57"><rect x="166" y="356" width="26" height="26"/></clipPath><clipPath id="clip58"><rect x="157" y="456" width="26" height="26"/></clipPath><clipPath id="clip59"><rect x="157" y="456" width="26" height="26"/></clipPath><clipPath id="clip60"><rect x="157" y="456" width="26" height="26"/></clipPath></defs><g clip-path="url(#clip0)" transform="translate(-60 -12)"><rect x="61.5001" y="14.5001" width="605" height="548" stroke="#D9D9D9" stroke-width="1.33333" stroke-miterlimit="8" fill="none"/><rect x="79" y="67" width="223" height="474" fill="#F2F2F2"/><text font-family="Yu Gothic,Yu Gothic_MSFontService,sans-serif" font-weight="400" font-size="16" transform="translate(150.146 86)">現実の世界</text><g clip-path="url(#clip1)"><g clip-path="url(#clip2)"><g clip-path="url(#clip3)"><path d="M281.803 239.972C281.205 239.373 280.37 239 279.456 239L263.822 239C262.907 239 262.073 239.373 261.475 239.972 260.875 240.571 260.503 241.405 260.503 242.319L260.503 242.587 259.773 242.587C259.47 242.587 259.225 242.832 259.225 243.135 259.225 243.438 259.47 243.683 259.773 243.683L260.503 243.683 260.503 246.971 259.773 246.971C259.47 246.971 259.225 247.217 259.225 247.52 259.225 247.822 259.47 248.068 259.773 248.068L260.503 248.068 260.503 251.356 259.773 251.356C259.47 251.356 259.225 251.602 259.225 251.904 259.225 252.206 259.47 252.451 259.773 252.451L260.503 252.451 260.503 255.74 259.773 255.74C259.47 255.74 259.225 255.986 259.225 256.288 259.225 256.591 259.47 256.836 259.773 256.836L260.503 256.836 260.503 260.125 259.773 260.125C259.47 260.125 259.225 260.37 259.225 260.672 259.225 260.975 259.47 261.221 259.773 261.221L260.503 261.221 260.503 261.681C260.503 262.595 260.875 263.429 261.475 264.028 262.073 264.627 262.907 265 263.822 265L279.456 265C280.37 265 281.205 264.627 281.803 264.028 282.402 263.429 282.776 262.595 282.775 261.681L282.775 242.319C282.776 241.405 282.402 240.571 281.803 239.972ZM266.279 263.539 263.822 263.539C263.306 263.539 262.846 263.333 262.508 262.995 262.17 262.656 261.964 262.197 261.963 261.681L261.963 261.221 263.123 261.221C263.314 261.54 263.663 261.756 264.063 261.756 264.668 261.756 265.158 261.266 265.158 260.661 265.158 260.056 264.668 259.565 264.063 259.565 263.653 259.565 263.296 259.791 263.108 260.125L261.963 260.125 261.963 256.836 263.121 256.836C263.311 257.158 263.661 257.374 264.063 257.374 264.668 257.374 265.158 256.884 265.158 256.279 265.158 255.674 264.668 255.184 264.063 255.184 263.654 255.184 263.298 255.409 263.11 255.74L261.963 255.74 261.963 252.451 263.119 252.451C263.309 252.775 263.66 252.993 264.063 252.993 264.668 252.993 265.158 252.503 265.158 251.898 265.158 251.293 264.668 250.802 264.063 250.802 263.655 250.802 263.3 251.025 263.112 251.356L261.963 251.356 261.963 248.068 263.117 248.068C263.307 248.392 263.659 248.612 264.063 248.612 264.668 248.612 265.158 248.121 265.158 247.516 265.158 246.912 264.668 246.421 264.063 246.421 263.657 246.421 263.302 246.643 263.113 246.971L261.963 246.971 261.963 243.683 263.115 243.683C263.305 244.01 263.658 244.23 264.063 244.23 264.668 244.23 265.158 243.74 265.158 243.135 265.158 242.53 264.668 242.04 264.063 242.04 263.658 242.04 263.305 242.26 263.115 242.587L261.963 242.587 261.963 242.319C261.964 241.803 262.17 241.344 262.508 241.005 262.846 240.667 263.306 240.461 263.822 240.461L266.279 240.461 266.279 263.539ZM281.315 261.681C281.314 262.197 281.108 262.656 280.77 262.995 280.432 263.333 279.972 263.539 279.456 263.539L266.827 263.539 266.827 240.461 279.456 240.461C279.972 240.461 280.432 240.667 280.77 241.005 281.108 241.344 281.314 241.803 281.315 242.319L281.315 261.681Z" fill="#4B4B4B"/><path d="M269.063 244.744 278.759 244.744 278.759 245.291 269.063 245.291Z" fill="#4B4B4B"/><path d="M269.063 248.258 278.759 248.258 278.759 248.806 269.063 248.806Z" fill="#4B4B4B"/><path d="M269.063 251.773 278.759 251.773 278.759 252.32 269.063 252.32Z" fill="#4B4B4B"/><path d="M269.063 255.287 278.759 255.287 278.759 255.835 269.063 255.835Z" fill="#4B4B4B"/><path d="M269.063 258.802 278.759 258.802 278.759 259.349 269.063 259.349Z" fill="#4B4B4B"/></g></g></g><g clip-path="url(#clip4)"><g clip-path="url(#clip5)"><g clip-path="url(#clip6)"><path d="M275.305 113 260.341 127.963 258 139 269.035 136.659 284 121.693 275.305 113ZM275.305 115.658 277.972 118.326 265.326 130.97 262.659 128.303 275.305 115.658ZM263.588 135.871 261.129 133.411 262.073 129.121 267.877 134.926 263.588 135.871ZM268.695 134.339 266.029 131.673 278.673 119.027 281.341 121.693 268.695 134.339Z" fill="#4B4B4B"/></g></g></g><g clip-path="url(#clip7)"><g clip-path="url(#clip8)"><g clip-path="url(#clip9)"><path d="M127.486 257.029C127.29 256.956 127.076 256.855 126.859 256.735L123.224 261.759 122.966 258.468 121.035 258.468 120.776 261.759 117.142 256.735C116.918 256.86 116.702 256.963 116.514 257.029 114.611 257.699 109.935 259.626 110.237 263.235 110.309 264.101 115.073 265 122 265 128.928 265 133.691 264.101 133.763 263.235 134.065 259.622 129.377 257.736 127.486 257.029Z" fill="#4B4B4B"/><path d="M117.709 249.576C117.974 251.075 118.418 252.397 119.004 253.049 119.004 253.83 119.004 254.4 119.004 254.856 119.004 254.902 118.996 254.95 118.983 255L121.035 255.988 121.035 257.438 122.966 257.438 122.966 255.988 125.017 255C125.004 254.95 124.996 254.902 124.996 254.856 124.996 254.4 124.996 253.83 124.996 253.049 125.582 252.397 126.027 251.075 126.292 249.576 126.908 249.356 127.261 249.003 127.701 247.461 128.17 245.818 126.997 245.873 126.997 245.873 127.946 242.732 126.696 239.779 124.604 239.995 123.16 237.47 118.326 240.572 116.81 240.356 116.81 241.222 117.171 241.871 117.171 241.871 116.644 242.871 116.847 244.865 116.996 245.873 116.909 245.872 115.848 245.883 116.299 247.461 116.739 249.003 117.091 249.356 117.709 249.576Z" fill="#4B4B4B"/></g></g></g><g clip-path="url(#clip10)"><g clip-path="url(#clip11)"><g clip-path="url(#clip12)"><path d="M22.1603 20.6101C21.5436 19.6866 20.606 19.1749 19.723 18.842 19.2807 18.6754 18.8473 18.5528 18.4654 18.4484 18.0846 18.3448 17.7525 18.2568 17.5286 18.1727 17.2116 18.0551 16.8838 17.9084 16.6151 17.7488L16.6151 16.0729 16.0284 16.1706C16.0284 16.0114 16.0284 15.8444 16.0284 15.6598 16.5275 15.1046 17.2467 14.2445 17.5395 12.8767 17.6442 12.83 17.7474 12.7774 17.8467 12.7085 18.0881 12.5419 18.2932 12.2997 18.4677 11.9691 18.6433 11.637 18.7991 11.2114 18.966 10.6282 19.0501 10.3335 19.0891 10.0776 19.0891 9.85065 19.0895 9.58897 19.0354 9.36279 18.9372 9.17978 18.829 8.97614 18.6717 8.83985 18.5187 8.75342L18.5187 8.12424C18.5386 8.10636 18.5635 8.09001 18.5814 8.07132 19.0805 7.55193 18.8819 6.94997 18.5342 6.50259 18.9707 5.88936 19.8433 4.47484 19.5972 3.24446 19.0724 0.621004 15.3794 0 13 0 10.6206 0 6.92758 0.621004 6.40311 3.24446 6.15702 4.47484 7.02919 5.88936 7.46606 6.50259 7.12847 6.93672 6.93652 7.51649 7.38232 8.02537L7.38232 8.82355C7.2636 8.90845 7.14675 9.02215 7.06301 9.17983 6.96455 9.3632 6.91077 9.58902 6.91118 9.8507 6.91118 10.0781 6.95007 10.3335 7.03422 10.6283 7.25695 11.405 7.45819 11.9054 7.71712 12.2709 7.84682 12.4524 7.99358 12.5976 8.15359 12.7086 8.25287 12.7774 8.35606 12.83 8.46041 12.8768 8.75362 14.2446 9.47233 15.1046 9.97186 15.6599 9.97186 15.8444 9.97186 16.0115 9.97186 16.1707L9.38473 16.073 9.38473 17.7492C9.35436 17.7679 9.32552 17.7869 9.29363 17.8049 9.03505 17.9524 8.73798 18.0794 8.47828 18.1709 8.17263 18.2791 7.68285 18.3912 7.13421 18.5482 6.30998 18.7865 5.33696 19.1299 4.54614 19.8073 4.15177 20.1464 3.8056 20.572 3.5623 21.1008 3.31815 21.6295 3.17799 22.2572 3.1784 22.9938 3.1784 23.1644 3.18576 23.3411 3.20135 23.5237 3.21222 23.6483 3.25975 23.7499 3.31622 23.8344 3.42327 23.9921 3.56657 24.1104 3.7472 24.2319 4.06296 24.4414 4.50181 24.6462 5.06477 24.8479 6.74964 25.4487 9.54098 25.9988 13 26 15.8103 25.9996 18.1827 25.6351 19.8748 25.1773 20.7216 24.9476 21.3972 24.6961 21.8846 24.4457 22.1287 24.32 22.3262 24.1953 22.4815 24.0594 22.559 23.9909 22.6271 23.9193 22.684 23.8348 22.74 23.7503 22.788 23.6483 22.7984 23.5237 22.814 23.3411 22.8214 23.1651 22.8214 22.9946 22.8227 22.0138 22.5707 21.2242 22.1603 20.6101ZM12.4845 2.98086 13.0004 1.83036 13.5159 2.98086 14.7692 3.11558 13.8347 3.96124 14.0937 5.19553 13.0004 4.56788 11.9067 5.19553 12.1656 3.96124 11.2308 3.11563 12.4845 2.98086ZM13 24.9491C12.6329 24.9491 12.3354 24.6513 12.3354 24.2842 12.3354 23.9174 12.6329 23.6195 13 23.6195 13.3671 23.6195 13.665 23.9174 13.665 24.2842 13.665 24.6513 13.3671 24.9491 13 24.9491ZM13 21.6914C12.6329 21.6914 12.3354 21.3935 12.3354 21.0267 12.3354 20.6592 12.6329 20.3618 13 20.3618 13.3671 20.3618 13.665 20.6592 13.665 21.0267 13.665 21.3935 13.3671 21.6914 13 21.6914ZM13 19.0321 9.60598 18.4664C9.72588 18.3998 9.84349 18.3297 9.95485 18.253 10.0187 18.2086 10.0767 18.1584 10.1362 18.1097L12.8754 18.566 12.8754 16.6547 10.7032 16.2926C10.7032 16.0617 10.7032 15.8106 10.7032 15.5205L10.7032 15.3804 10.609 15.2757C10.0884 14.6951 9.37975 13.9219 9.13443 12.5482L9.09746 12.3387 8.89769 12.2671C8.76378 12.2196 8.66094 12.1705 8.57101 12.1082 8.43786 12.0144 8.31751 11.8855 8.17852 11.6262 8.0407 11.3684 7.89588 10.9842 7.73739 10.4278 7.66771 10.1836 7.64243 9.99324 7.64243 9.85075 7.64278 9.68602 7.67432 9.58791 7.70783 9.52484 7.75805 9.43333 7.82077 9.39362 7.89862 9.36249 7.9103 9.35817 7.92198 9.35507 7.93366 9.35157L9.2107 10.3386 9.2107 8.82634C10.5879 9.11874 12.287 9.17485 12.9999 9.17485 13.6961 9.17485 15.3318 9.12265 16.6902 8.84853L16.6902 10.3386 17.988 9.33522C18.0394 9.34263 18.1161 9.35939 18.1745 9.39829 18.2204 9.42749 18.2582 9.46217 18.2925 9.52484 18.3256 9.58791 18.3571 9.68561 18.3575 9.85075 18.3575 9.99324 18.3325 10.1833 18.2629 10.4278 18.0518 11.1703 17.8626 11.6032 17.6874 11.8458 17.5998 11.968 17.5192 12.0452 17.4292 12.1082 17.3393 12.1705 17.2362 12.2196 17.1026 12.2671L16.9024 12.3387 16.8655 12.5482C16.6206 13.9218 15.9119 14.6951 15.391 15.2757L15.2971 15.3804 15.2971 15.5205C15.2971 15.8106 15.2971 16.0618 15.2971 16.2926L13.1249 16.6547 13.1249 18.566 15.8543 18.1112C15.9949 18.2257 16.1498 18.3277 16.313 18.4216 16.341 18.4376 16.3714 18.45 16.3998 18.4652L13 19.0321Z" fill="#4B4B4B" transform="matrix(1.03846 0 0 1 109 176)"/></g></g></g><g clip-path="url(#clip13)"><g clip-path="url(#clip14)"><g clip-path="url(#clip15)"><path d="M117.257 120.475C117.257 120.475 120.131 121.05 123.868 117.312 125.593 119.613 126.744 120.762 126.744 120.762L126.744 124.213C127.898 123.023 128.612 121.402 128.612 119.613 128.612 115.96 125.652 113 122 113 118.349 113 115.388 115.96 115.388 119.613 115.388 121.402 116.101 123.023 117.257 124.213L117.257 120.475Z" fill="#4B4B4B"/><path d="M126.434 128.104C125.97 128.357 122 137.074 122 137.074 122 137.074 118.03 128.357 117.565 128.104 113.096 129.716 112.896 133.328 112.896 139L131.104 139C131.104 133.328 130.904 129.716 126.434 128.104Z" fill="#4B4B4B"/><path d="M120.02 127.714 120.02 130.354 122 129.681 123.98 130.354 123.98 127.714 122 128.387Z" fill="#4B4B4B"/></g></g></g><g clip-path="url(#clip16)"><g clip-path="url(#clip17)"><g clip-path="url(#clip18)"><path d="M5.19624 3.68103C4.9137 3.68022 4.66588 3.5688 4.47982 3.38396 4.29498 3.1979 4.18321 2.94968 4.18275 2.66713 4.18316 2.38459 4.29498 2.13637 4.47941 1.9503 4.66548 1.76541 4.9137 1.65405 5.19624 1.65323L22.6438 1.65359 22.6438 0.000355469 5.19624 0C3.72303 0.0008125 2.52992 1.19392 2.52952 2.66713L2.52952 23.3328C2.52992 24.806 3.72303 25.9991 5.19624 25.9999L23.4705 25.9999 23.4705 3.68103 5.19624 3.68103ZM21.8172 24.3464 5.80816 24.3468 5.80816 5.33432 21.8172 5.33432 21.8172 24.3464Z" fill="#4B4B4B" transform="matrix(1.03846 0 0 1 258 176)"/><path d="M19.4407 21.4536 19.4407 7.60754 8.2812 7.60754 8.2812 22.0735 19.4407 22.0735 19.4407 21.4536ZM18.2007 20.8336 9.52113 20.8336 9.52113 8.84747 18.2007 8.84747 18.2007 20.8336Z" fill="#4B4B4B" transform="matrix(1.03846 0 0 1 258 176)"/><path d="M11.381 17.4238 16.3408 17.4238 16.3408 18.3537 11.381 18.3537Z" fill="#4B4B4B" transform="matrix(1.03846 0 0 1 258 176)"/></g></g></g><path d="M136.5 189.167 139.167 189.167 139.167 189.833 136.5 189.833ZM141.167 189.167 143.833 189.167 143.833 189.833 141.167 189.833ZM145.833 189.167 147.938 189.167 148.502 189.17 148.498 189.837 147.936 189.833 147.938 189.833 145.833 189.833ZM150.502 189.181 153.169 189.196 153.165 189.863 150.498 189.848ZM155.168 189.207 157.835 189.222 157.831 189.889 155.165 189.874ZM159.835 189.234 162.502 189.25 162.498 189.917 159.831 189.901ZM164.502 189.262 167.168 189.278 167.164 189.945 164.498 189.929ZM169.168 189.29 169.378 189.292 171.837 189.325 171.828 189.991 169.371 189.958 169.373 189.958 169.164 189.957ZM173.837 189.352 176.504 189.387 176.495 190.054 173.828 190.018ZM178.503 189.414 178.692 189.417 178.688 189.417 181.166 189.417 181.166 190.083 178.685 190.083 178.494 190.081ZM183.171 189.423 185.837 189.467 185.826 190.134 183.16 190.089ZM187.838 189.504 189.819 189.542 190.505 189.557 190.49 190.224 189.806 190.208 187.825 190.17ZM192.504 189.601 192.634 189.604 194.823 189.667 195.175 189.68 195.15 190.346 194.8 190.333 194.803 190.333 192.616 190.271 192.618 190.271 192.49 190.268ZM197.181 189.771 197.538 189.793 197.93 189.859 198.305 189.921 198.271 189.917 199.271 189.98 199.262 189.979 199.826 190 199.801 190.667 199.233 190.645 198.212 190.582 197.82 190.516 197.445 190.454 197.479 190.458 197.14 190.436ZM201.822 190.067 203.135 190.104 203.132 190.104 204.486 190.134 204.471 190.801 203.117 190.771 201.803 190.733ZM206.484 190.177 209.15 190.228 209.138 190.895 206.471 190.844ZM211.149 190.262 212.943 190.292 212.938 190.292 213.81 190.292 213.81 190.958 212.935 190.958 211.138 190.928ZM215.81 190.292 217.065 190.292 218.481 190.311 218.472 190.977 217.058 190.958 217.063 190.958 215.81 190.958ZM220.481 190.338 223.147 190.373 223.139 191.04 220.472 191.004ZM225.147 190.4 226.38 190.417 226.377 190.417 227.811 190.425 227.807 191.092 226.372 191.083 225.138 191.067ZM229.811 190.438 232.478 190.454 232.474 191.12 229.807 191.104ZM234.478 190.466 236.69 190.479 237.144 190.482 237.141 191.148 236.686 191.146 234.474 191.132ZM239.144 190.493 241.811 190.508 241.807 191.175 239.141 191.16ZM243.811 190.519 246.478 190.534 246.474 191.201 243.807 191.186ZM248.476 190.542 251.142 190.542 251.142 191.208 248.476 191.208ZM253.142 190.542 255.809 190.542 255.809 191.208 253.142 191.208ZM257.809 190.542 258.59 190.542 258.59 191.208 257.809 191.208ZM250.758 185.92 259.252 190.875 250.758 195.83C250.599 195.922 250.395 195.869 250.302 195.71 250.209 195.551 250.263 195.347 250.422 195.254L258.422 190.587 258.422 191.163 250.422 186.496C250.263 186.404 250.209 186.199 250.302 186.04 250.395 185.881 250.599 185.828 250.758 185.92Z"/><g clip-path="url(#clip19)"><g clip-path="url(#clip20)"><g clip-path="url(#clip21)"><path d="M186.13 188.916 197.327 188.916 197.327 189.856 186.13 189.856Z" fill="#5B9BD5"/><path d="M185.164 192.634 196.362 192.634 196.362 193.575 185.164 193.575Z" fill="#5B9BD5"/><path d="M201.964 178.859 201.964 178.254 183.014 178.254 183.014 178.859C183.014 180.108 183.048 181.415 183.048 182.771 183.048 184.749 182.976 186.833 182.623 189.003 182.288 191.066 181.7 193.207 180.68 195.415L178.856 195.415C178.534 195.415 178.209 195.466 177.895 195.575 177.424 195.739 176.979 196.037 176.642 196.475 176.304 196.912 176.081 197.481 176.015 198.152 176.005 198.249 176 198.345 176 198.441 176 198.927 176.125 199.385 176.335 199.787 176.652 200.391 177.152 200.871 177.733 201.206 178.315 201.541 178.982 201.734 179.662 201.738L194.068 201.746C194.616 201.748 195.092 201.636 195.496 201.452 195.902 201.269 196.232 201.025 196.539 200.781 197.794 199.781 198.764 198.543 199.508 197.168 200.625 195.103 201.241 192.731 201.586 190.319 201.93 187.907 202 185.452 202 183.217 202 181.616 201.964 180.128 201.964 178.859ZM179.669 200.529 179.669 200.529C179.369 200.527 179.057 200.468 178.763 200.358 178.32 200.194 177.919 199.915 177.643 199.579 177.504 199.411 177.396 199.229 177.322 199.04 177.249 198.85 177.21 198.652 177.21 198.441 177.21 198.386 177.212 198.329 177.218 198.272 177.25 197.953 177.327 197.697 177.429 197.49 177.582 197.181 177.79 196.975 178.035 196.834 178.28 196.695 178.567 196.631 178.856 196.631L191.82 196.631C191.68 196.793 191.555 196.977 191.455 197.186 191.307 197.491 191.208 197.846 191.168 198.245 191.16 198.336 191.155 198.425 191.155 198.514 191.155 198.936 191.256 199.336 191.432 199.691 191.59 200.011 191.807 200.294 192.065 200.536L179.669 200.529ZM199.964 192.432C199.615 193.923 199.125 195.336 198.444 196.592 197.764 197.849 196.896 198.949 195.785 199.835 195.505 200.059 195.259 200.232 194.999 200.349 194.739 200.465 194.461 200.535 194.068 200.537L193.664 200.536C193.298 200.433 192.959 200.249 192.683 200.009 192.46 199.815 192.279 199.586 192.155 199.334 192.031 199.082 191.962 198.808 191.962 198.514 191.962 198.452 191.964 198.389 191.971 198.326 192.003 198.009 192.078 197.749 192.181 197.535 192.336 197.216 192.549 196.998 192.796 196.852 193.042 196.707 193.326 196.636 193.608 196.637 193.894 196.636 194.177 196.71 194.411 196.841 194.646 196.973 194.83 197.159 194.941 197.39 195 197.512 195.036 197.675 195.036 197.839 195.036 197.974 195.012 198.108 194.968 198.22 194.925 198.333 194.863 198.421 194.791 198.483 194.656 198.596 194.518 198.639 194.378 198.64 194.257 198.64 194.136 198.604 194.035 198.538 193.933 198.473 193.854 198.382 193.808 198.274L193.067 198.592C193.18 198.856 193.37 199.07 193.6 199.217 193.828 199.364 194.098 199.446 194.378 199.446 194.699 199.448 195.036 199.334 195.314 199.096 195.504 198.934 195.636 198.729 195.72 198.512 195.804 198.296 195.842 198.066 195.842 197.839 195.842 197.564 195.786 197.289 195.668 197.041 195.478 196.645 195.166 196.34 194.805 196.138 194.451 195.94 194.047 195.836 193.637 195.831L193.637 195.825 181.825 195.825C182.867 193.541 183.472 191.32 183.817 189.197 184.185 186.932 184.258 184.778 184.258 182.771 184.258 181.617 184.234 180.514 184.227 179.463L200.757 179.463C200.765 180.606 200.79 181.875 200.79 183.217 200.791 186.162 200.663 189.451 199.964 192.432Z" fill="#5B9BD5"/><path d="M192.817 186.564C192.959 184.983 192.966 183.47 192.951 182.039L186.687 182.039C186.701 183.47 186.694 184.983 186.552 186.564L192.817 186.564Z" fill="#5B9BD5"/></g></g></g><text font-family="Calibri,Calibri_MSFontService,sans-serif" font-weight="400" font-size="11" transform="translate(193.246 188)">3</text><path d="M135.5 126.167 138.167 126.167 138.167 126.833 135.5 126.833ZM140.167 126.167 142.833 126.167 142.833 126.833 140.167 126.833ZM144.833 126.167 146.938 126.167 147.502 126.17 147.498 126.837 146.936 126.833 146.938 126.833 144.833 126.833ZM149.502 126.181 152.169 126.196 152.165 126.863 149.498 126.848ZM154.168 126.207 156.835 126.222 156.831 126.889 154.165 126.874ZM158.835 126.234 161.502 126.25 161.498 126.917 158.831 126.901ZM163.502 126.262 166.168 126.278 166.164 126.945 163.498 126.929ZM168.168 126.29 168.378 126.292 170.837 126.325 170.828 126.991 168.371 126.958 168.373 126.958 168.164 126.957ZM172.837 126.352 175.504 126.387 175.495 127.054 172.828 127.018ZM177.503 126.414 177.692 126.417 177.688 126.417 180.166 126.417 180.166 127.083 177.685 127.083 177.494 127.081ZM182.171 126.423 184.837 126.467 184.826 127.134 182.16 127.089ZM186.838 126.504 188.819 126.542 189.505 126.557 189.49 127.224 188.806 127.208 186.825 127.17ZM191.504 126.601 191.634 126.604 193.823 126.667 194.175 126.68 194.15 127.346 193.8 127.333 193.803 127.333 191.616 127.271 191.618 127.271 191.49 127.268ZM196.181 126.771 196.538 126.793 196.93 126.859 197.305 126.921 197.271 126.917 198.271 126.98 198.262 126.979 198.826 127 198.801 127.667 198.233 127.646 197.212 127.582 196.82 127.516 196.445 127.454 196.479 127.458 196.14 127.437ZM200.822 127.067 202.135 127.104 202.132 127.104 203.486 127.134 203.471 127.801 202.117 127.771 200.803 127.733ZM205.484 127.177 208.15 127.228 208.138 127.895 205.471 127.844ZM210.149 127.262 211.943 127.292 211.938 127.292 212.81 127.292 212.81 127.958 211.935 127.958 210.138 127.928ZM214.81 127.292 216.065 127.292 217.481 127.311 217.472 127.977 216.058 127.958 216.063 127.958 214.81 127.958ZM219.481 127.338 222.147 127.373 222.139 128.04 219.472 128.004ZM224.147 127.4 225.38 127.417 225.377 127.417 226.811 127.425 226.807 128.092 225.372 128.083 224.138 128.067ZM228.811 127.438 231.478 127.454 231.474 128.12 228.807 128.104ZM233.478 127.466 235.69 127.479 236.144 127.482 236.141 128.148 235.686 128.146 233.474 128.132ZM238.144 127.493 240.811 127.508 240.807 128.175 238.141 128.16ZM242.811 127.519 245.478 127.534 245.474 128.201 242.807 128.186ZM247.476 127.542 250.142 127.542 250.142 128.208 247.476 128.208ZM252.142 127.542 254.809 127.542 254.809 128.208 252.142 128.208ZM256.809 127.542 257.59 127.542 257.59 128.208 256.809 128.208ZM249.758 122.92 258.252 127.875 249.758 132.83C249.599 132.922 249.395 132.869 249.302 132.71 249.209 132.551 249.263 132.347 249.422 132.254L257.422 127.587 257.422 128.163 249.422 123.496C249.263 123.404 249.209 123.199 249.302 123.04 249.395 122.881 249.599 122.828 249.758 122.92Z"/><path d="M135.52 126.167 138.182 126.326 138.142 126.992 135.48 126.833ZM140.178 126.446 142.84 126.605 142.8 127.27 140.139 127.111ZM144.837 126.724 147.041 126.856 147.532 126.948 147.41 127.603 146.939 127.515 146.98 127.52 144.797 127.39ZM149.499 127.314 152.12 127.803 151.998 128.458 149.376 127.97ZM154.086 128.17 156.708 128.658 156.586 129.314 153.964 128.825ZM158.694 129.091 161.249 129.856 161.058 130.495 158.503 129.73ZM163.165 130.43 165.72 131.195 165.528 131.833 162.974 131.068ZM167.635 131.768 168.615 132.061 170.159 132.735 169.892 133.346 168.367 132.681 168.404 132.694 167.444 132.407ZM171.992 133.535 174.436 134.601 174.17 135.212 171.725 134.146ZM176.269 135.401 177.961 136.139 178.706 136.556 178.38 137.138 177.65 136.728 177.679 136.743 176.003 136.012ZM180.451 137.534 182.111 138.465 182.768 138.9 182.401 139.456 181.754 139.028 181.775 139.041 180.125 138.116ZM184.437 140.002 185.821 140.917 186.633 141.561 186.219 142.083 185.418 141.449 185.441 141.466 184.069 140.559ZM188.2 142.803 189.16 143.563 190.207 144.611 189.736 145.082 188.702 144.048 188.731 144.074 187.786 143.326ZM191.621 146.025 191.936 146.34 193.347 148.103 192.826 148.52 191.427 146.771 191.452 146.798 191.15 146.496ZM194.544 149.762 195.873 152.074 195.295 152.406 193.966 150.094ZM196.558 154.02 196.951 155.174 197.143 156.676 196.482 156.761 196.294 155.292 196.309 155.357 195.927 154.234ZM197.396 158.66 197.706 161.083 197.691 161.018 197.763 161.23 197.132 161.445 197.049 161.201 196.735 158.745ZM198.407 163.123 198.691 163.955 198.664 163.897 199.555 165.447 198.977 165.779 198.07 164.201 197.776 163.338ZM200.573 167.104 202.239 169.187 201.718 169.603 200.052 167.521ZM203.593 170.598 205.296 172.262 205.27 172.239 205.494 172.417 205.08 172.939 204.842 172.751 203.127 171.075ZM207.062 173.659 208.582 174.864 208.562 174.849 209.164 175.257 208.79 175.809 208.178 175.394 206.648 174.181ZM210.819 176.379 212.25 177.349 212.224 177.333 213.045 177.787 212.723 178.37 211.888 177.909 210.445 176.931ZM214.796 178.754 216.411 179.646 216.384 179.632 217.136 179.963 216.868 180.573 216.102 180.237 214.474 179.337ZM218.967 180.767 221.409 181.839 221.141 182.45 218.699 181.377ZM223.24 182.643 225.634 183.695 225.596 183.681 225.645 183.696 225.454 184.334 225.385 184.313 222.972 183.254ZM227.561 184.269 230.116 185.034 229.925 185.673 227.37 184.908ZM232.032 185.608 234.587 186.373 234.395 187.011 231.841 186.246ZM236.479 186.884 239.103 187.359 238.985 188.015 236.36 187.54ZM241.071 187.714 243.695 188.189 243.577 188.845 240.953 188.37ZM245.664 188.545 247.059 188.797 247.02 188.792 248.266 188.867 248.226 189.532 246.96 189.457 245.545 189.201ZM250.262 188.986 252.924 189.145 252.884 189.811 250.223 189.652ZM254.921 189.265 257.583 189.424 257.543 190.089 254.881 189.93ZM250.319 184.36 258.502 189.813 249.727 194.252C249.563 194.335 249.363 194.269 249.28 194.105 249.196 193.94 249.262 193.74 249.427 193.657L257.691 189.476 257.656 190.051 249.949 184.915C249.796 184.813 249.754 184.606 249.857 184.453 249.959 184.299 250.166 184.258 250.319 184.36Z" fill="#FF0000"/><path d="M0.019892-0.332739 2.68181-0.173603 2.64202 0.491875-0.019892 0.332739ZM4.67824-0.054251 7.34015 0.104885 7.30037 0.770364 4.63846 0.611228ZM9.33659 0.224237 11.5397 0.355947 12.0311 0.444785 11.9125 1.10082 11.4407 1.01552 11.4801 1.02024 9.29681 0.889716ZM13.9992 0.800599 16.6233 1.27502 16.5047 1.93105 13.8806 1.45663ZM18.5914 1.63083 21.2156 2.10525 21.097 2.76128 18.4728 2.28686ZM23.2051 2.53194 25.7597 3.29679 25.5685 3.93545 23.0139 3.17059ZM27.6757 3.87044 30.2303 4.63529 30.0391 5.27395 27.4845 4.50909ZM32.1463 5.20894 33.1149 5.49894 34.6692 6.177 34.4026 6.78805 32.8667 6.11803 32.9044 6.13183 31.9551 5.84759ZM36.5023 6.9767 38.9466 8.04297 38.68 8.65402 36.2358 7.58775ZM40.7797 8.84267 42.4592 9.57534 43.2174 9.9889 42.8982 10.5742 42.1529 10.1676 42.1792 10.1805 40.5132 9.45372ZM44.9732 10.9466 46.6112 11.8401 47.3007 12.3075 46.9266 12.8593 46.2504 12.4009 46.2779 12.4176 44.654 11.5319ZM48.9561 13.4298 50.3207 14.355 51.1425 14.9907 50.7345 15.518 49.921 14.8887 49.9379 14.9009 48.582 13.9816ZM52.7244 16.2144 53.6582 16.9368 54.739 18.0175 54.2675 18.489 53.2018 17.4232 53.2335 17.4512 52.3165 16.7417ZM56.1532 19.4318 56.4363 19.7149 57.8751 21.5134 57.3545 21.9298 55.9272 20.1457 55.9518 20.1732 55.6818 19.9032ZM59.0707 23.1703 60.4296 25.4855 60.4457 25.5328 59.8146 25.7476 59.8094 25.7324 59.8375 25.7937 58.4958 23.5078ZM61.0902 27.4261 61.4514 28.4869 61.6557 30.0872 60.9944 30.1716 60.7943 28.6047 60.8094 28.6699 60.4591 27.6409ZM61.9089 32.0711 62.2056 34.3953 62.1905 34.3301 62.2948 34.6364 61.6637 34.8513 61.5486 34.5131 61.2477 32.1555ZM62.9394 36.5298 63.1905 37.2676 63.1625 37.2063 64.1178 38.8339 63.5429 39.1713 62.5704 37.5145 62.3083 36.7446ZM65.1686 40.4741 66.8345 42.5564 66.3139 42.9728 64.648 40.8905ZM68.1927 43.9713 69.7982 45.5768 69.7665 45.5488 70.0797 45.7912 69.6718 46.3185 69.3418 46.0632 67.7213 44.4427ZM71.6617 47.0149 73.079 48.1113 73.062 48.0991 73.7861 48.59 73.412 49.1418 72.6793 48.645 71.2537 47.5422ZM75.4415 49.7123 76.7495 50.5991 76.7236 50.5832 77.6746 51.1084 77.3524 51.692 76.388 51.1594 75.0674 50.2641ZM79.4254 52.0752 80.9111 52.8957 80.8823 52.8815 81.7721 53.2663 81.5075 53.8782 80.6029 53.4871 79.1031 52.6588ZM83.6078 54.0602 86.0555 55.1186 85.7908 55.7305 83.3432 54.6721ZM87.8912 55.9124 90.1323 56.8815 90.0956 56.8682 90.3111 56.9327 90.1199 57.5714 89.8857 57.5012 87.6266 56.5243ZM92.2271 57.5063 94.7817 58.2712 94.5905 58.9098 92.0359 58.145ZM96.6977 58.8448 99.2523 59.6097 99.0611 60.2484 96.5065 59.4835ZM101.149 60.1024 103.773 60.5768 103.655 61.2329 101.031 60.7585ZM105.741 60.9327 108.366 61.4071 108.247 62.0631 105.623 61.5887ZM110.334 61.7629 111.559 61.9845 111.52 61.9798 112.939 62.0646 112.899 62.73 111.46 62.6441 110.215 62.4189ZM114.935 62.1839 117.597 62.3431 117.557 63.0085 114.895 62.8494ZM119.593 62.4624 122.255 62.6216 122.215 63.287 119.554 63.1279ZM114.819 57.5475 123.002 63.0001 114.227 67.439C114.063 67.5221 113.863 67.4563 113.78 67.2921 113.696 67.1278 113.762 66.9273 113.926 66.8442L122.191 62.6632 122.156 63.238 114.449 58.1023C114.296 58.0002 114.254 57.7932 114.357 57.64 114.459 57.4868 114.666 57.4454 114.819 57.5475Z" transform="matrix(1 0 0 -1 135.5 252.461)"/><g clip-path="url(#clip22)"><g clip-path="url(#clip23)"><g clip-path="url(#clip24)"><path d="M209.519 119.374 221.147 119.374 221.147 120.351 209.519 120.351Z"/><path d="M208.516 123.235 220.145 123.235 220.145 124.213 208.516 124.213Z"/><path d="M225.962 108.93 225.962 108.302 206.284 108.302 206.284 108.93C206.284 110.228 206.32 111.585 206.32 112.993 206.32 115.047 206.244 117.211 205.878 119.464 205.529 121.607 204.919 123.831 203.86 126.123L201.966 126.123C201.632 126.123 201.294 126.177 200.968 126.29 200.479 126.459 200.017 126.769 199.667 127.224 199.316 127.678 199.084 128.269 199.015 128.965 199.005 129.066 199 129.166 199 129.265 199 129.77 199.13 130.246 199.348 130.663 199.677 131.291 200.196 131.789 200.8 132.137 201.404 132.485 202.097 132.685 202.803 132.69L217.763 132.698C218.332 132.7 218.826 132.583 219.246 132.392 219.667 132.202 220.011 131.949 220.329 131.695 221.633 130.658 222.639 129.371 223.412 127.944 224.572 125.8 225.212 123.336 225.57 120.832 225.927 118.327 226 115.777 226 113.456 226 111.794 225.962 110.248 225.962 108.93ZM202.81 131.434 202.81 131.434C202.498 131.432 202.175 131.371 201.869 131.256 201.409 131.086 200.993 130.797 200.706 130.448 200.562 130.273 200.45 130.084 200.373 129.887 200.297 129.69 200.256 129.484 200.256 129.266 200.256 129.208 200.259 129.15 200.265 129.09 200.298 128.758 200.378 128.493 200.484 128.278 200.643 127.957 200.859 127.743 201.114 127.597 201.368 127.452 201.665 127.386 201.966 127.386L215.429 127.386C215.283 127.554 215.153 127.745 215.049 127.962 214.896 128.279 214.793 128.648 214.752 129.062 214.743 129.157 214.738 129.249 214.738 129.341 214.738 129.78 214.843 130.195 215.025 130.564 215.189 130.896 215.415 131.19 215.683 131.441L202.81 131.434ZM223.886 123.026C223.524 124.574 223.014 126.041 222.307 127.346 221.601 128.651 220.7 129.793 219.546 130.713 219.256 130.946 219 131.126 218.73 131.247 218.459 131.368 218.171 131.44 217.763 131.442L217.344 131.441C216.964 131.334 216.611 131.144 216.324 130.894 216.093 130.693 215.905 130.455 215.776 130.193 215.647 129.931 215.576 129.647 215.576 129.341 215.576 129.277 215.578 129.212 215.585 129.146 215.618 128.817 215.696 128.547 215.803 128.325 215.964 127.993 216.186 127.768 216.442 127.616 216.698 127.465 216.992 127.391 217.286 127.392 217.582 127.391 217.876 127.468 218.119 127.604 218.363 127.741 218.554 127.934 218.67 128.174 218.731 128.301 218.768 128.47 218.768 128.641 218.768 128.781 218.743 128.92 218.698 129.036 218.653 129.153 218.588 129.245 218.514 129.309 218.373 129.427 218.23 129.472 218.085 129.473 217.96 129.473 217.834 129.435 217.729 129.367 217.623 129.299 217.541 129.204 217.493 129.092L216.723 129.422C216.841 129.697 217.038 129.919 217.276 130.072 217.514 130.225 217.794 130.31 218.085 130.31 218.419 130.311 218.768 130.193 219.057 129.946 219.254 129.778 219.391 129.564 219.478 129.339 219.566 129.115 219.605 128.877 219.605 128.641 219.605 128.355 219.547 128.07 219.424 127.812 219.227 127.401 218.903 127.084 218.529 126.874 218.161 126.668 217.742 126.561 217.315 126.555L217.315 126.549 205.049 126.549C206.131 124.177 206.76 121.871 207.117 119.666 207.5 117.314 207.575 115.077 207.575 112.993 207.575 111.795 207.551 110.649 207.543 109.558L224.709 109.558C224.717 110.745 224.744 112.063 224.744 113.456 224.745 116.514 224.612 119.93 223.886 123.026Z"/><path d="M216.464 116.932C216.611 115.29 216.618 113.719 216.603 112.233L210.098 112.233C210.113 113.719 210.105 115.29 209.958 116.932L216.464 116.932Z"/></g></g></g><text font-family="Calibri,Calibri_MSFontService,sans-serif" font-weight="400" font-size="11" transform="translate(214.645 118)">12</text><g clip-path="url(#clip25)"><g clip-path="url(#clip26)"><g clip-path="url(#clip27)"><path d="M176.13 140.916 187.327 140.916 187.327 141.856 176.13 141.856Z" fill="#FF0000"/><path d="M175.164 144.634 186.362 144.634 186.362 145.575 175.164 145.575Z" fill="#FF0000"/><path d="M191.964 130.859 191.964 130.254 173.014 130.254 173.014 130.859C173.014 132.108 173.048 133.415 173.048 134.771 173.048 136.749 172.976 138.833 172.623 141.003 172.288 143.066 171.7 145.207 170.68 147.415L168.856 147.415C168.534 147.415 168.209 147.466 167.895 147.575 167.424 147.739 166.979 148.037 166.642 148.475 166.304 148.912 166.081 149.481 166.015 150.152 166.005 150.249 166 150.345 166 150.441 166 150.927 166.125 151.385 166.335 151.787 166.652 152.391 167.152 152.871 167.733 153.206 168.315 153.541 168.982 153.734 169.662 153.738L184.068 153.746C184.616 153.748 185.092 153.636 185.496 153.452 185.902 153.269 186.232 153.025 186.539 152.781 187.794 151.781 188.764 150.543 189.508 149.168 190.625 147.103 191.241 144.731 191.586 142.319 191.93 139.907 192 137.452 192 135.217 192 133.616 191.964 132.128 191.964 130.859ZM169.669 152.529 169.669 152.529C169.369 152.527 169.057 152.468 168.763 152.358 168.32 152.194 167.919 151.915 167.643 151.579 167.504 151.411 167.396 151.229 167.322 151.04 167.249 150.85 167.21 150.652 167.21 150.441 167.21 150.386 167.212 150.329 167.218 150.272 167.25 149.953 167.327 149.697 167.429 149.49 167.582 149.181 167.79 148.975 168.035 148.834 168.28 148.695 168.567 148.631 168.856 148.631L181.82 148.631C181.68 148.793 181.555 148.977 181.455 149.186 181.307 149.491 181.208 149.846 181.168 150.245 181.16 150.336 181.155 150.425 181.155 150.514 181.155 150.936 181.256 151.336 181.432 151.691 181.59 152.011 181.807 152.294 182.065 152.536L169.669 152.529ZM189.964 144.432C189.615 145.923 189.125 147.336 188.444 148.592 187.764 149.849 186.896 150.949 185.785 151.835 185.505 152.059 185.259 152.232 184.999 152.349 184.739 152.465 184.461 152.535 184.068 152.537L183.664 152.536C183.298 152.433 182.959 152.249 182.683 152.009 182.46 151.815 182.279 151.586 182.155 151.334 182.031 151.082 181.962 150.808 181.962 150.514 181.962 150.452 181.964 150.389 181.971 150.326 182.003 150.009 182.078 149.749 182.181 149.535 182.336 149.216 182.549 148.998 182.796 148.852 183.042 148.707 183.326 148.636 183.608 148.637 183.894 148.636 184.177 148.71 184.411 148.841 184.646 148.973 184.83 149.159 184.941 149.39 185 149.512 185.036 149.675 185.036 149.839 185.036 149.974 185.012 150.108 184.968 150.22 184.925 150.333 184.863 150.421 184.791 150.483 184.656 150.596 184.518 150.639 184.378 150.64 184.257 150.64 184.136 150.604 184.035 150.538 183.933 150.473 183.854 150.382 183.808 150.274L183.067 150.592C183.18 150.856 183.37 151.07 183.6 151.217 183.828 151.364 184.098 151.446 184.378 151.446 184.699 151.448 185.036 151.334 185.314 151.096 185.504 150.934 185.636 150.729 185.72 150.512 185.804 150.296 185.842 150.066 185.842 149.839 185.842 149.564 185.786 149.289 185.668 149.041 185.478 148.645 185.166 148.34 184.805 148.138 184.451 147.94 184.047 147.836 183.637 147.831L183.637 147.825 171.825 147.825C172.867 145.541 173.472 143.32 173.817 141.197 174.185 138.932 174.258 136.778 174.258 134.771 174.258 133.617 174.234 132.514 174.227 131.463L190.757 131.463C190.765 132.606 190.79 133.875 190.79 135.217 190.791 138.162 190.663 141.451 189.964 144.432Z" fill="#FF0000"/><path d="M182.817 138.564C182.959 136.983 182.966 135.47 182.951 134.039L176.687 134.039C176.701 135.47 176.694 136.983 176.552 138.564L182.817 138.564Z" fill="#FF0000"/></g></g></g><text font-family="Calibri,Calibri_MSFontService,sans-serif" font-weight="400" font-size="11" transform="translate(183.618 140)">2</text><g clip-path="url(#clip28)"><g clip-path="url(#clip29)"><g clip-path="url(#clip30)"><path d="M167.13 239.916 178.327 239.916 178.327 240.856 167.13 240.856Z" fill="#70AD47"/><path d="M166.164 243.634 177.362 243.634 177.362 244.575 166.164 244.575Z" fill="#70AD47"/><path d="M182.964 229.859 182.964 229.254 164.014 229.254 164.014 229.859C164.014 231.108 164.048 232.415 164.048 233.771 164.048 235.749 163.976 237.833 163.623 240.003 163.288 242.066 162.7 244.207 161.68 246.415L159.856 246.415C159.534 246.415 159.209 246.466 158.895 246.575 158.424 246.739 157.979 247.037 157.642 247.475 157.304 247.912 157.081 248.481 157.015 249.152 157.005 249.249 157 249.345 157 249.441 157 249.927 157.125 250.385 157.335 250.787 157.652 251.391 158.152 251.871 158.733 252.206 159.315 252.541 159.982 252.734 160.662 252.738L175.068 252.746C175.616 252.748 176.092 252.636 176.496 252.452 176.902 252.269 177.232 252.025 177.539 251.781 178.794 250.781 179.764 249.543 180.508 248.168 181.625 246.103 182.241 243.731 182.586 241.319 182.93 238.907 183 236.452 183 234.217 183 232.616 182.964 231.128 182.964 229.859ZM160.669 251.529 160.669 251.529C160.369 251.527 160.057 251.468 159.763 251.358 159.32 251.194 158.919 250.915 158.643 250.579 158.504 250.411 158.396 250.229 158.322 250.04 158.249 249.85 158.21 249.652 158.21 249.441 158.21 249.386 158.212 249.329 158.218 249.272 158.25 248.953 158.327 248.697 158.429 248.49 158.582 248.181 158.79 247.975 159.035 247.834 159.28 247.695 159.567 247.631 159.856 247.631L172.82 247.631C172.68 247.793 172.555 247.977 172.455 248.186 172.307 248.491 172.208 248.846 172.168 249.245 172.16 249.336 172.155 249.425 172.155 249.514 172.155 249.936 172.256 250.336 172.432 250.691 172.59 251.011 172.807 251.294 173.065 251.536L160.669 251.529ZM180.964 243.432C180.615 244.923 180.125 246.336 179.444 247.592 178.764 248.849 177.896 249.949 176.785 250.835 176.505 251.059 176.259 251.232 175.999 251.349 175.739 251.465 175.461 251.535 175.068 251.537L174.664 251.536C174.298 251.433 173.959 251.249 173.683 251.009 173.46 250.815 173.279 250.586 173.155 250.334 173.031 250.082 172.962 249.808 172.962 249.514 172.962 249.452 172.964 249.389 172.971 249.326 173.003 249.009 173.078 248.749 173.181 248.535 173.336 248.216 173.549 247.998 173.796 247.852 174.042 247.707 174.326 247.636 174.608 247.637 174.894 247.636 175.177 247.71 175.411 247.841 175.646 247.973 175.83 248.159 175.941 248.39 176 248.512 176.036 248.675 176.036 248.839 176.036 248.974 176.012 249.108 175.968 249.22 175.925 249.333 175.863 249.421 175.791 249.483 175.656 249.596 175.518 249.639 175.378 249.64 175.257 249.64 175.136 249.604 175.035 249.538 174.933 249.473 174.854 249.382 174.808 249.274L174.067 249.592C174.18 249.856 174.37 250.07 174.6 250.217 174.828 250.364 175.098 250.446 175.378 250.446 175.699 250.448 176.036 250.334 176.314 250.096 176.504 249.934 176.636 249.729 176.72 249.512 176.804 249.296 176.842 249.066 176.842 248.839 176.842 248.564 176.786 248.289 176.668 248.041 176.478 247.645 176.166 247.34 175.805 247.138 175.451 246.94 175.047 246.836 174.637 246.831L174.637 246.825 162.825 246.825C163.867 244.541 164.472 242.32 164.817 240.197 165.185 237.932 165.258 235.778 165.258 233.771 165.258 232.617 165.234 231.514 165.227 230.463L181.757 230.463C181.765 231.606 181.79 232.875 181.79 234.217 181.791 237.162 181.663 240.451 180.964 243.432Z" fill="#70AD47"/><path d="M173.817 237.564C173.959 235.983 173.966 234.47 173.951 233.039L167.687 233.039C167.701 234.47 167.694 235.983 167.552 237.564L173.817 237.564Z" fill="#70AD47"/></g></g></g><text font-family="Calibri,Calibri_MSFontService,sans-serif" font-weight="400" font-size="11" transform="translate(174.414 239)">1</text><path d="M179.5 307.5 187 307.5 187 292.5 202 292.5 202 307.5 209.5 307.5 194.5 322.5Z" stroke="#AE5A21" stroke-width="1.33333" stroke-miterlimit="8" stroke-opacity="0.501961" fill="#ED7D31" fill-rule="evenodd" fill-opacity="0.501961"/><g clip-path="url(#clip31)"><g clip-path="url(#clip32)"><g clip-path="url(#clip33)"><path d="M281.803 467.972C281.205 467.373 280.37 467 279.456 467L263.822 467C262.907 467 262.073 467.373 261.475 467.972 260.875 468.571 260.503 469.405 260.503 470.319L260.503 470.587 259.773 470.587C259.47 470.587 259.225 470.832 259.225 471.135 259.225 471.438 259.47 471.683 259.773 471.683L260.503 471.683 260.503 474.971 259.773 474.971C259.47 474.971 259.225 475.217 259.225 475.52 259.225 475.822 259.47 476.068 259.773 476.068L260.503 476.068 260.503 479.356 259.773 479.356C259.47 479.356 259.225 479.602 259.225 479.904 259.225 480.206 259.47 480.451 259.773 480.451L260.503 480.451 260.503 483.74 259.773 483.74C259.47 483.74 259.225 483.986 259.225 484.288 259.225 484.591 259.47 484.836 259.773 484.836L260.503 484.836 260.503 488.125 259.773 488.125C259.47 488.125 259.225 488.37 259.225 488.672 259.225 488.975 259.47 489.221 259.773 489.221L260.503 489.221 260.503 489.681C260.503 490.595 260.875 491.429 261.475 492.028 262.073 492.627 262.907 493 263.822 493L279.456 493C280.37 493 281.205 492.627 281.803 492.028 282.402 491.429 282.776 490.595 282.775 489.681L282.775 470.319C282.776 469.405 282.402 468.571 281.803 467.972ZM266.279 491.539 263.822 491.539C263.306 491.539 262.846 491.333 262.508 490.995 262.17 490.656 261.964 490.197 261.963 489.681L261.963 489.221 263.123 489.221C263.314 489.54 263.663 489.756 264.063 489.756 264.668 489.756 265.158 489.266 265.158 488.661 265.158 488.056 264.668 487.565 264.063 487.565 263.653 487.565 263.296 487.791 263.108 488.125L261.963 488.125 261.963 484.836 263.121 484.836C263.311 485.158 263.661 485.374 264.063 485.374 264.668 485.374 265.158 484.884 265.158 484.279 265.158 483.674 264.668 483.184 264.063 483.184 263.654 483.184 263.298 483.409 263.11 483.74L261.963 483.74 261.963 480.451 263.119 480.451C263.309 480.775 263.66 480.993 264.063 480.993 264.668 480.993 265.158 480.503 265.158 479.898 265.158 479.293 264.668 478.802 264.063 478.802 263.655 478.802 263.3 479.025 263.112 479.356L261.963 479.356 261.963 476.068 263.117 476.068C263.307 476.392 263.659 476.612 264.063 476.612 264.668 476.612 265.158 476.121 265.158 475.516 265.158 474.912 264.668 474.421 264.063 474.421 263.657 474.421 263.302 474.643 263.113 474.971L261.963 474.971 261.963 471.683 263.115 471.683C263.305 472.01 263.658 472.23 264.063 472.23 264.668 472.23 265.158 471.74 265.158 471.135 265.158 470.53 264.668 470.04 264.063 470.04 263.658 470.04 263.305 470.26 263.115 470.587L261.963 470.587 261.963 470.319C261.964 469.803 262.17 469.344 262.508 469.005 262.846 468.667 263.306 468.461 263.822 468.461L266.279 468.461 266.279 491.539ZM281.315 489.681C281.314 490.197 281.108 490.656 280.77 490.995 280.432 491.333 279.972 491.539 279.456 491.539L266.827 491.539 266.827 468.461 279.456 468.461C279.972 468.461 280.432 468.667 280.77 469.005 281.108 469.344 281.314 469.803 281.315 470.319L281.315 489.681Z" fill="#4B4B4B"/><path d="M269.063 472.744 278.759 472.744 278.759 473.291 269.063 473.291Z" fill="#4B4B4B"/><path d="M269.063 476.258 278.759 476.258 278.759 476.806 269.063 476.806Z" fill="#4B4B4B"/><path d="M269.063 479.773 278.759 479.773 278.759 480.32 269.063 480.32Z" fill="#4B4B4B"/><path d="M269.063 483.287 278.759 483.287 278.759 483.835 269.063 483.835Z" fill="#4B4B4B"/><path d="M269.063 486.802 278.759 486.802 278.759 487.349 269.063 487.349Z" fill="#4B4B4B"/></g></g></g><g clip-path="url(#clip34)"><g clip-path="url(#clip35)"><g clip-path="url(#clip36)"><path d="M17.3045 0 2.34147 14.963 0 26 11.0346 23.6585 26 8.69314 17.3045 0ZM17.3045 2.65809 19.9721 5.32568 7.32601 17.9702 4.65918 15.3034 17.3045 2.65809ZM5.58832 22.8706 3.12858 20.4109 4.07281 16.1214 9.87695 21.9264 5.58832 22.8706ZM10.695 21.3392 8.02897 18.6732 20.6735 6.02713 23.3411 8.69314 10.695 21.3392Z" fill="#4B4B4B" transform="matrix(1 0 0 1.03846 258 340)"/></g></g></g><g clip-path="url(#clip37)"><g clip-path="url(#clip38)"><g clip-path="url(#clip39)"><path d="M127.486 485.029C127.29 484.956 127.076 484.855 126.859 484.735L123.224 489.759 122.966 486.468 121.035 486.468 120.776 489.759 117.142 484.735C116.918 484.86 116.702 484.963 116.514 485.029 114.611 485.699 109.935 487.626 110.237 491.235 110.309 492.101 115.073 493 122 493 128.928 493 133.691 492.101 133.763 491.235 134.065 487.622 129.377 485.736 127.486 485.029Z" fill="#4B4B4B"/><path d="M117.709 477.576C117.974 479.075 118.418 480.397 119.004 481.049 119.004 481.83 119.004 482.4 119.004 482.856 119.004 482.902 118.996 482.95 118.983 483L121.035 483.988 121.035 485.438 122.966 485.438 122.966 483.988 125.017 483C125.004 482.95 124.996 482.902 124.996 482.856 124.996 482.4 124.996 481.83 124.996 481.049 125.582 480.397 126.027 479.075 126.292 477.576 126.908 477.356 127.261 477.003 127.701 475.461 128.17 473.818 126.997 473.874 126.997 473.874 127.946 470.732 126.696 467.779 124.604 467.995 123.16 465.47 118.326 468.572 116.81 468.356 116.81 469.222 117.171 469.871 117.171 469.871 116.644 470.871 116.847 472.865 116.996 473.874 116.909 473.872 115.848 473.883 116.299 475.461 116.739 477.003 117.091 477.356 117.709 477.576Z" fill="#4B4B4B"/></g></g></g><g clip-path="url(#clip40)"><g clip-path="url(#clip41)"><g clip-path="url(#clip42)"><path d="M22.1603 20.6101C21.5436 19.6866 20.606 19.1749 19.723 18.842 19.2807 18.6754 18.8473 18.5528 18.4654 18.4484 18.0846 18.3448 17.7525 18.2568 17.5286 18.1727 17.2116 18.0551 16.8838 17.9084 16.6151 17.7488L16.6151 16.0729 16.0284 16.1706C16.0284 16.0114 16.0284 15.8444 16.0284 15.6598 16.5275 15.1046 17.2467 14.2445 17.5395 12.8767 17.6442 12.83 17.7474 12.7774 17.8467 12.7085 18.0881 12.5419 18.2932 12.2997 18.4677 11.9691 18.6433 11.637 18.7991 11.2114 18.966 10.6282 19.0501 10.3335 19.0891 10.0776 19.0891 9.85065 19.0895 9.58897 19.0354 9.36279 18.9372 9.17978 18.829 8.97614 18.6717 8.83985 18.5187 8.75342L18.5187 8.12424C18.5386 8.10636 18.5635 8.09001 18.5814 8.07132 19.0805 7.55193 18.8819 6.94997 18.5342 6.50259 18.9707 5.88936 19.8433 4.47484 19.5972 3.24446 19.0724 0.621004 15.3794 0 13 0 10.6206 0 6.92758 0.621004 6.40311 3.24446 6.15702 4.47484 7.02919 5.88936 7.46606 6.50259 7.12847 6.93672 6.93652 7.51649 7.38232 8.02537L7.38232 8.82355C7.2636 8.90845 7.14675 9.02215 7.06301 9.17983 6.96455 9.3632 6.91077 9.58902 6.91118 9.8507 6.91118 10.0781 6.95007 10.3335 7.03422 10.6283 7.25695 11.405 7.45819 11.9054 7.71712 12.2709 7.84682 12.4524 7.99358 12.5976 8.15359 12.7086 8.25287 12.7774 8.35606 12.83 8.46041 12.8768 8.75362 14.2446 9.47233 15.1046 9.97186 15.6599 9.97186 15.8444 9.97186 16.0115 9.97186 16.1707L9.38473 16.073 9.38473 17.7492C9.35436 17.7679 9.32552 17.7869 9.29363 17.8049 9.03505 17.9524 8.73798 18.0794 8.47828 18.1709 8.17263 18.2791 7.68285 18.3912 7.13421 18.5482 6.30998 18.7865 5.33696 19.1299 4.54614 19.8073 4.15177 20.1464 3.8056 20.572 3.5623 21.1008 3.31815 21.6295 3.17799 22.2572 3.1784 22.9938 3.1784 23.1644 3.18576 23.3411 3.20135 23.5237 3.21222 23.6483 3.25975 23.7499 3.31622 23.8344 3.42327 23.9921 3.56657 24.1104 3.7472 24.2319 4.06296 24.4414 4.50181 24.6462 5.06477 24.8479 6.74964 25.4487 9.54098 25.9988 13 26 15.8103 25.9996 18.1827 25.6351 19.8748 25.1773 20.7216 24.9476 21.3972 24.6961 21.8846 24.4457 22.1287 24.32 22.3262 24.1953 22.4815 24.0594 22.559 23.9909 22.6271 23.9193 22.684 23.8348 22.74 23.7503 22.788 23.6483 22.7984 23.5237 22.814 23.3411 22.8214 23.1651 22.8214 22.9946 22.8227 22.0138 22.5707 21.2242 22.1603 20.6101ZM12.4845 2.98086 13.0004 1.83036 13.5159 2.98086 14.7692 3.11558 13.8347 3.96124 14.0937 5.19553 13.0004 4.56788 11.9067 5.19553 12.1656 3.96124 11.2308 3.11563 12.4845 2.98086ZM13 24.9491C12.6329 24.9491 12.3354 24.6513 12.3354 24.2842 12.3354 23.9174 12.6329 23.6195 13 23.6195 13.3671 23.6195 13.665 23.9174 13.665 24.2842 13.665 24.6513 13.3671 24.9491 13 24.9491ZM13 21.6914C12.6329 21.6914 12.3354 21.3935 12.3354 21.0267 12.3354 20.6592 12.6329 20.3618 13 20.3618 13.3671 20.3618 13.665 20.6592 13.665 21.0267 13.665 21.3935 13.3671 21.6914 13 21.6914ZM13 19.0321 9.60598 18.4664C9.72588 18.3998 9.84349 18.3297 9.95485 18.253 10.0187 18.2086 10.0767 18.1584 10.1362 18.1097L12.8754 18.566 12.8754 16.6547 10.7032 16.2926C10.7032 16.0617 10.7032 15.8106 10.7032 15.5205L10.7032 15.3804 10.609 15.2757C10.0884 14.6951 9.37975 13.9219 9.13443 12.5482L9.09746 12.3387 8.89769 12.2671C8.76378 12.2196 8.66094 12.1705 8.57101 12.1082 8.43786 12.0144 8.31751 11.8855 8.17852 11.6262 8.0407 11.3684 7.89588 10.9842 7.73739 10.4278 7.66771 10.1836 7.64243 9.99324 7.64243 9.85075 7.64278 9.68602 7.67432 9.58791 7.70783 9.52484 7.75805 9.43333 7.82077 9.39362 7.89862 9.36249 7.9103 9.35817 7.92198 9.35507 7.93366 9.35157L9.2107 10.3386 9.2107 8.82634C10.5879 9.11874 12.287 9.17485 12.9999 9.17485 13.6961 9.17485 15.3318 9.12265 16.6902 8.84853L16.6902 10.3386 17.988 9.33522C18.0394 9.34263 18.1161 9.35939 18.1745 9.39829 18.2204 9.42749 18.2582 9.46217 18.2925 9.52484 18.3256 9.58791 18.3571 9.68561 18.3575 9.85075 18.3575 9.99324 18.3325 10.1833 18.2629 10.4278 18.0518 11.1703 17.8626 11.6032 17.6874 11.8458 17.5998 11.968 17.5192 12.0452 17.4292 12.1082 17.3393 12.1705 17.2362 12.2196 17.1026 12.2671L16.9024 12.3387 16.8655 12.5482C16.6206 13.9218 15.9119 14.6951 15.391 15.2757L15.2971 15.3804 15.2971 15.5205C15.2971 15.8106 15.2971 16.0618 15.2971 16.2926L13.1249 16.6547 13.1249 18.566 15.8543 18.1112C15.9949 18.2257 16.1498 18.3277 16.313 18.4216 16.341 18.4376 16.3714 18.45 16.3998 18.4652L13 19.0321Z" fill="#4B4B4B" transform="matrix(1.03846 0 0 1 109 404)"/></g></g></g><g clip-path="url(#clip43)"><g clip-path="url(#clip44)"><g clip-path="url(#clip45)"><path d="M8.25663 7.47464C8.25663 7.47464 11.1312 8.05005 14.8682 4.31239 16.5932 6.61278 17.744 7.76237 17.744 7.76237L17.744 11.2135C18.8981 10.0232 19.6125 8.40222 19.6125 6.61278 19.6125 2.96045 16.652 0 12.9997 0 9.34852 0 6.38808 2.96045 6.38808 6.61278 6.38808 8.40222 7.10135 10.0231 8.25657 11.2135L8.25657 7.47464Z" fill="#4B4B4B" transform="matrix(1 0 0 1.03846 109 340)"/><path d="M17.4342 15.1037C16.9702 15.3574 12.9997 24.0744 12.9997 24.0744 12.9997 24.0744 9.02987 15.3574 8.56522 15.1037 4.09571 16.7162 3.89614 20.3283 3.89614 26L22.1039 26C22.1039 20.3283 21.9043 16.7162 17.4342 15.1037Z" fill="#4B4B4B" transform="matrix(1 0 0 1.03846 109 340)"/><path d="M11.0204 14.7142 11.0204 17.3536 12.9997 16.6805 14.9796 17.3536 14.9796 14.7142 12.9997 15.3874Z" fill="#4B4B4B" transform="matrix(1 0 0 1.03846 109 340)"/></g></g></g><g clip-path="url(#clip46)"><g clip-path="url(#clip47)"><g clip-path="url(#clip48)"><path d="M5.19624 3.68103C4.9137 3.68022 4.66588 3.5688 4.47982 3.38396 4.29498 3.1979 4.18321 2.94968 4.18275 2.66713 4.18316 2.38459 4.29498 2.13637 4.47941 1.9503 4.66548 1.76541 4.9137 1.65405 5.19624 1.65323L22.6438 1.65359 22.6438 0.000355469 5.19624 0C3.72303 0.0008125 2.52992 1.19392 2.52952 2.66713L2.52952 23.3328C2.52992 24.806 3.72303 25.9991 5.19624 25.9999L23.4705 25.9999 23.4705 3.68103 5.19624 3.68103ZM21.8172 24.3464 5.80816 24.3468 5.80816 5.33432 21.8172 5.33432 21.8172 24.3464Z" fill="#4B4B4B" transform="matrix(1.03846 0 0 1 258 404)"/><path d="M19.4407 21.4536 19.4407 7.60754 8.2812 7.60754 8.2812 22.0735 19.4407 22.0735 19.4407 21.4536ZM18.2007 20.8336 9.52113 20.8336 9.52113 8.84747 18.2007 8.84747 18.2007 20.8336Z" fill="#4B4B4B" transform="matrix(1.03846 0 0 1 258 404)"/><path d="M11.381 17.4238 16.3408 17.4238 16.3408 18.3537 11.381 18.3537Z" fill="#4B4B4B" transform="matrix(1.03846 0 0 1 258 404)"/></g></g></g><path d="M136.5 417.167 139.167 417.167 139.167 417.833 136.5 417.833ZM141.167 417.167 143.833 417.167 143.833 417.833 141.167 417.833ZM145.833 417.167 147.938 417.167 148.502 417.17 148.498 417.837 147.936 417.833 147.938 417.833 145.833 417.833ZM150.502 417.181 153.169 417.196 153.165 417.863 150.498 417.848ZM155.168 417.207 157.835 417.222 157.831 417.889 155.165 417.874ZM159.835 417.234 162.502 417.25 162.498 417.917 159.831 417.901ZM164.502 417.262 167.168 417.278 167.164 417.945 164.498 417.929ZM169.168 417.29 169.378 417.292 171.837 417.325 171.828 417.991 169.371 417.958 169.373 417.958 169.164 417.957ZM173.837 417.352 176.504 417.387 176.495 418.054 173.828 418.018ZM178.503 417.414 178.692 417.417 178.688 417.417 181.166 417.417 181.166 418.083 178.685 418.083 178.494 418.081ZM183.171 417.423 185.837 417.467 185.826 418.134 183.16 418.089ZM187.838 417.504 189.819 417.542 190.505 417.557 190.49 418.224 189.806 418.208 187.825 418.17ZM192.504 417.601 192.634 417.604 194.823 417.667 195.175 417.68 195.15 418.346 194.8 418.333 194.803 418.333 192.616 418.271 192.618 418.271 192.49 418.268ZM197.181 417.771 197.538 417.793 197.93 417.859 198.305 417.921 198.271 417.917 199.271 417.98 199.262 417.979 199.826 418 199.801 418.667 199.233 418.646 198.212 418.582 197.82 418.516 197.445 418.454 197.479 418.458 197.14 418.437ZM201.822 418.067 203.135 418.104 203.132 418.104 204.486 418.134 204.471 418.801 203.117 418.771 201.803 418.733ZM206.484 418.177 209.15 418.228 209.138 418.895 206.471 418.844ZM211.149 418.262 212.943 418.292 212.938 418.292 213.81 418.292 213.81 418.958 212.935 418.958 211.138 418.928ZM215.81 418.292 217.065 418.292 218.481 418.311 218.472 418.977 217.058 418.958 217.063 418.958 215.81 418.958ZM220.481 418.338 223.147 418.373 223.139 419.04 220.472 419.004ZM225.147 418.4 226.38 418.417 226.377 418.417 227.811 418.425 227.807 419.092 226.372 419.083 225.138 419.067ZM229.811 418.438 232.478 418.454 232.474 419.12 229.807 419.104ZM234.478 418.466 236.69 418.479 237.144 418.482 237.141 419.148 236.686 419.146 234.474 419.132ZM239.144 418.493 241.811 418.508 241.807 419.175 239.141 419.16ZM243.811 418.519 246.478 418.534 246.474 419.201 243.807 419.186ZM248.476 418.542 251.142 418.542 251.142 419.208 248.476 419.208ZM253.142 418.542 255.809 418.542 255.809 419.208 253.142 419.208ZM257.809 418.542 258.59 418.542 258.59 419.208 257.809 419.208ZM250.758 413.92 259.252 418.875 250.758 423.83C250.599 423.922 250.395 423.869 250.302 423.71 250.209 423.551 250.263 423.347 250.422 423.254L258.422 418.587 258.422 419.163 250.422 414.496C250.263 414.404 250.209 414.199 250.302 414.04 250.395 413.881 250.599 413.828 250.758 413.92Z"/><g clip-path="url(#clip49)"><g clip-path="url(#clip50)"><g clip-path="url(#clip51)"><path d="M186.13 416.916 197.327 416.916 197.327 417.856 186.13 417.856Z" fill="#5B9BD5"/><path d="M185.164 420.634 196.362 420.634 196.362 421.575 185.164 421.575Z" fill="#5B9BD5"/><path d="M201.964 406.859 201.964 406.254 183.014 406.254 183.014 406.859C183.014 408.108 183.048 409.415 183.048 410.771 183.048 412.749 182.976 414.833 182.623 417.003 182.288 419.066 181.7 421.207 180.68 423.415L178.856 423.415C178.534 423.415 178.209 423.466 177.895 423.575 177.424 423.739 176.979 424.037 176.642 424.475 176.304 424.912 176.081 425.481 176.015 426.152 176.005 426.249 176 426.345 176 426.441 176 426.927 176.125 427.385 176.335 427.787 176.652 428.391 177.152 428.871 177.733 429.206 178.315 429.541 178.982 429.734 179.662 429.738L194.068 429.746C194.616 429.748 195.092 429.636 195.496 429.452 195.902 429.269 196.232 429.025 196.539 428.781 197.794 427.781 198.764 426.543 199.508 425.168 200.625 423.103 201.241 420.731 201.586 418.319 201.93 415.907 202 413.452 202 411.217 202 409.616 201.964 408.128 201.964 406.859ZM179.669 428.529 179.669 428.529C179.369 428.527 179.057 428.468 178.763 428.358 178.32 428.194 177.919 427.915 177.643 427.579 177.504 427.411 177.396 427.229 177.322 427.04 177.249 426.85 177.21 426.652 177.21 426.441 177.21 426.386 177.212 426.329 177.218 426.272 177.25 425.953 177.327 425.697 177.429 425.49 177.582 425.181 177.79 424.975 178.035 424.834 178.28 424.695 178.567 424.631 178.856 424.631L191.82 424.631C191.68 424.793 191.555 424.977 191.455 425.185 191.307 425.491 191.208 425.846 191.168 426.245 191.16 426.336 191.155 426.425 191.155 426.514 191.155 426.936 191.256 427.336 191.432 427.691 191.59 428.011 191.807 428.294 192.065 428.536L179.669 428.529ZM199.964 420.432C199.615 421.923 199.125 423.336 198.444 424.592 197.764 425.849 196.896 426.949 195.785 427.835 195.505 428.059 195.259 428.232 194.999 428.349 194.739 428.465 194.461 428.535 194.068 428.537L193.664 428.536C193.298 428.433 192.959 428.249 192.683 428.009 192.46 427.815 192.279 427.586 192.155 427.334 192.031 427.082 191.962 426.808 191.962 426.514 191.962 426.452 191.964 426.389 191.971 426.326 192.003 426.009 192.078 425.749 192.181 425.535 192.336 425.216 192.549 424.998 192.796 424.852 193.042 424.707 193.326 424.636 193.608 424.637 193.894 424.636 194.177 424.71 194.411 424.841 194.646 424.973 194.83 425.159 194.941 425.39 195 425.512 195.036 425.675 195.036 425.839 195.036 425.974 195.012 426.108 194.968 426.22 194.925 426.333 194.863 426.421 194.791 426.483 194.656 426.596 194.518 426.639 194.378 426.64 194.257 426.64 194.136 426.604 194.035 426.538 193.933 426.473 193.854 426.382 193.808 426.274L193.067 426.592C193.18 426.856 193.37 427.07 193.6 427.217 193.828 427.364 194.098 427.446 194.378 427.446 194.699 427.448 195.036 427.334 195.314 427.096 195.504 426.934 195.636 426.729 195.72 426.512 195.804 426.296 195.842 426.066 195.842 425.839 195.842 425.564 195.786 425.289 195.668 425.041 195.478 424.645 195.166 424.34 194.805 424.138 194.451 423.94 194.047 423.836 193.637 423.831L193.637 423.825 181.825 423.825C182.867 421.541 183.472 419.32 183.817 417.197 184.185 414.932 184.258 412.778 184.258 410.771 184.258 409.617 184.234 408.514 184.227 407.463L200.757 407.463C200.765 408.606 200.79 409.875 200.79 411.217 200.791 414.162 200.663 417.451 199.964 420.432Z" fill="#5B9BD5"/><path d="M192.817 414.564C192.959 412.983 192.966 411.47 192.951 410.039L186.687 410.039C186.701 411.47 186.694 412.983 186.552 414.564L192.817 414.564Z" fill="#5B9BD5"/></g></g></g><text font-family="Calibri,Calibri_MSFontService,sans-serif" font-weight="400" font-size="11" transform="translate(193.246 416)">3</text><path d="M135.5 353.167 138.167 353.167 138.167 353.833 135.5 353.833ZM140.167 353.167 142.833 353.167 142.833 353.833 140.167 353.833ZM144.833 353.167 146.938 353.167 147.502 353.17 147.498 353.837 146.936 353.833 146.938 353.833 144.833 353.833ZM149.502 353.181 152.169 353.196 152.165 353.863 149.498 353.848ZM154.168 353.207 156.835 353.222 156.831 353.889 154.165 353.874ZM158.835 353.234 161.502 353.25 161.498 353.917 158.831 353.901ZM163.502 353.262 166.168 353.278 166.164 353.945 163.498 353.929ZM168.168 353.29 168.378 353.292 170.837 353.325 170.828 353.991 168.371 353.958 168.373 353.958 168.164 353.957ZM172.837 353.352 175.504 353.387 175.495 354.054 172.828 354.018ZM177.503 353.414 177.692 353.417 177.688 353.417 180.166 353.417 180.166 354.083 177.685 354.083 177.494 354.081ZM182.171 353.423 184.837 353.467 184.826 354.134 182.16 354.089ZM186.838 353.504 188.819 353.542 189.505 353.557 189.49 354.224 188.806 354.208 186.825 354.17ZM191.504 353.601 191.634 353.604 193.823 353.667 194.175 353.68 194.15 354.346 193.8 354.333 193.803 354.333 191.616 354.271 191.618 354.271 191.49 354.268ZM196.181 353.771 196.538 353.793 196.93 353.859 197.305 353.921 197.271 353.917 198.271 353.98 198.262 353.979 198.826 354 198.801 354.667 198.233 354.646 197.212 354.582 196.82 354.516 196.445 354.454 196.479 354.458 196.14 354.437ZM200.822 354.067 202.135 354.104 202.132 354.104 203.486 354.134 203.471 354.801 202.117 354.771 200.803 354.733ZM205.484 354.177 208.15 354.228 208.138 354.895 205.471 354.844ZM210.149 354.262 211.943 354.292 211.938 354.292 212.81 354.292 212.81 354.958 211.935 354.958 210.138 354.928ZM214.81 354.292 216.065 354.292 217.481 354.311 217.472 354.977 216.058 354.958 216.063 354.958 214.81 354.958ZM219.481 354.338 222.147 354.373 222.139 355.04 219.472 355.004ZM224.147 354.4 225.38 354.417 225.377 354.417 226.811 354.425 226.807 355.092 225.372 355.083 224.138 355.067ZM228.811 354.438 231.478 354.454 231.474 355.12 228.807 355.104ZM233.478 354.466 235.69 354.479 236.144 354.482 236.141 355.148 235.686 355.146 233.474 355.132ZM238.144 354.493 240.811 354.508 240.807 355.175 238.141 355.16ZM242.811 354.519 245.478 354.534 245.474 355.201 242.807 355.186ZM247.476 354.542 250.142 354.542 250.142 355.208 247.476 355.208ZM252.142 354.542 254.809 354.542 254.809 355.208 252.142 355.208ZM256.809 354.542 257.59 354.542 257.59 355.208 256.809 355.208ZM249.758 349.92 258.252 354.875 249.758 359.83C249.599 359.922 249.395 359.869 249.302 359.71 249.209 359.551 249.263 359.347 249.422 359.254L257.422 354.587 257.422 355.163 249.422 350.496C249.263 350.404 249.209 350.199 249.302 350.04 249.395 349.881 249.599 349.828 249.758 349.92Z"/><path d="M135.52 353.167 138.182 353.326 138.142 353.992 135.48 353.833ZM140.178 353.446 142.84 353.605 142.8 354.27 140.139 354.111ZM144.837 353.724 147.041 353.856 147.532 353.948 147.41 354.603 146.939 354.515 146.98 354.52 144.797 354.39ZM149.499 354.314 152.12 354.803 151.998 355.458 149.376 354.97ZM154.086 355.17 156.708 355.658 156.586 356.314 153.964 355.825ZM158.694 356.091 161.249 356.856 161.058 357.495 158.503 356.73ZM163.165 357.43 165.72 358.195 165.528 358.833 162.974 358.068ZM167.635 358.768 168.615 359.061 170.159 359.735 169.892 360.346 168.367 359.681 168.404 359.694 167.444 359.407ZM171.992 360.535 174.436 361.601 174.17 362.212 171.725 361.146ZM176.269 362.401 177.961 363.139 178.706 363.556 178.38 364.138 177.65 363.728 177.679 363.743 176.003 363.012ZM180.451 364.534 182.111 365.465 182.768 365.9 182.401 366.456 181.754 366.028 181.775 366.041 180.125 365.116ZM184.437 367.002 185.821 367.917 186.633 368.561 186.219 369.083 185.418 368.449 185.441 368.466 184.069 367.559ZM188.2 369.803 189.16 370.563 190.207 371.611 189.736 372.082 188.702 371.048 188.731 371.074 187.786 370.326ZM191.621 373.025 191.936 373.34 193.347 375.103 192.826 375.52 191.427 373.771 191.452 373.798 191.15 373.496ZM194.544 376.762 195.873 379.074 195.295 379.406 193.966 377.094ZM196.558 381.02 196.951 382.174 197.143 383.676 196.482 383.761 196.294 382.292 196.309 382.357 195.927 381.234ZM197.396 385.66 197.706 388.083 197.691 388.018 197.763 388.23 197.132 388.445 197.049 388.201 196.735 385.745ZM198.407 390.123 198.691 390.955 198.664 390.897 199.555 392.447 198.977 392.779 198.07 391.201 197.776 390.338ZM200.573 394.104 202.239 396.187 201.718 396.603 200.052 394.521ZM203.593 397.598 205.296 399.262 205.27 399.239 205.494 399.417 205.08 399.939 204.842 399.751 203.127 398.075ZM207.062 400.659 208.582 401.864 208.562 401.849 209.164 402.257 208.79 402.809 208.178 402.394 206.648 401.181ZM210.819 403.379 212.25 404.349 212.224 404.333 213.045 404.787 212.723 405.37 211.888 404.909 210.445 403.931ZM214.796 405.754 216.411 406.646 216.384 406.632 217.136 406.963 216.868 407.573 216.102 407.237 214.474 406.337ZM218.967 407.767 221.409 408.839 221.141 409.45 218.699 408.377ZM223.24 409.643 225.634 410.695 225.596 410.681 225.645 410.696 225.454 411.334 225.385 411.314 222.972 410.254ZM227.561 411.269 230.116 412.034 229.925 412.673 227.37 411.908ZM232.032 412.608 234.587 413.373 234.395 414.011 231.841 413.246ZM236.479 413.884 239.103 414.359 238.985 415.015 236.36 414.54ZM241.071 414.714 243.695 415.189 243.577 415.845 240.953 415.37ZM245.664 415.545 247.059 415.797 247.02 415.792 248.266 415.867 248.226 416.532 246.96 416.457 245.545 416.201ZM250.262 415.986 252.924 416.145 252.884 416.811 250.223 416.652ZM254.921 416.265 257.583 416.424 257.543 417.089 254.881 416.93ZM250.319 411.36 258.502 416.813 249.727 421.252C249.563 421.335 249.363 421.269 249.28 421.105 249.196 420.94 249.262 420.74 249.427 420.657L257.691 416.476 257.656 417.051 249.949 411.915C249.796 411.813 249.754 411.606 249.857 411.453 249.959 411.299 250.166 411.258 250.319 411.36Z" fill="#000000" fill-opacity="0.101961"/><path d="M0.019892-0.332739 2.68181-0.173603 2.64202 0.491875-0.019892 0.332739ZM4.67824-0.054251 7.34015 0.104885 7.30037 0.770364 4.63846 0.611228ZM9.33659 0.224237 11.5397 0.355947 12.0311 0.444785 11.9125 1.10082 11.4407 1.01552 11.4801 1.02024 9.29681 0.889716ZM13.9992 0.800599 16.6233 1.27502 16.5047 1.93105 13.8806 1.45663ZM18.5914 1.63083 21.2156 2.10525 21.097 2.76128 18.4728 2.28686ZM23.2051 2.53194 25.7597 3.29679 25.5685 3.93545 23.0139 3.17059ZM27.6757 3.87044 30.2303 4.63529 30.0391 5.27395 27.4845 4.50909ZM32.1463 5.20894 33.1149 5.49894 34.6692 6.177 34.4026 6.78805 32.8667 6.11803 32.9044 6.13183 31.9551 5.84759ZM36.5023 6.9767 38.9466 8.04297 38.68 8.65402 36.2358 7.58775ZM40.7797 8.84267 42.4592 9.57534 43.2174 9.9889 42.8982 10.5742 42.1529 10.1676 42.1792 10.1805 40.5132 9.45372ZM44.9732 10.9466 46.6112 11.8401 47.3007 12.3075 46.9266 12.8593 46.2504 12.4009 46.2779 12.4176 44.654 11.5319ZM48.9561 13.4298 50.3207 14.355 51.1425 14.9907 50.7345 15.518 49.921 14.8887 49.9379 14.9009 48.582 13.9816ZM52.7244 16.2144 53.6582 16.9368 54.739 18.0175 54.2675 18.489 53.2018 17.4232 53.2335 17.4512 52.3165 16.7417ZM56.1532 19.4318 56.4363 19.7149 57.8751 21.5134 57.3545 21.9298 55.9272 20.1457 55.9518 20.1732 55.6818 19.9032ZM59.0707 23.1703 60.4296 25.4855 60.4457 25.5328 59.8146 25.7476 59.8094 25.7324 59.8375 25.7937 58.4958 23.5078ZM61.0902 27.4261 61.4514 28.4869 61.6557 30.0872 60.9944 30.1716 60.7943 28.6047 60.8094 28.6699 60.4591 27.6409ZM61.9089 32.0711 62.2056 34.3953 62.1905 34.3301 62.2948 34.6364 61.6637 34.8513 61.5486 34.5131 61.2477 32.1555ZM62.9394 36.5298 63.1905 37.2676 63.1625 37.2063 64.1178 38.8339 63.5429 39.1713 62.5704 37.5145 62.3083 36.7446ZM65.1686 40.4741 66.8345 42.5564 66.3139 42.9728 64.648 40.8905ZM68.1927 43.9713 69.7982 45.5768 69.7665 45.5488 70.0797 45.7912 69.6718 46.3185 69.3418 46.0632 67.7213 44.4427ZM71.6617 47.0149 73.079 48.1113 73.062 48.0991 73.7861 48.59 73.412 49.1418 72.6793 48.645 71.2537 47.5422ZM75.4415 49.7123 76.7495 50.5991 76.7236 50.5832 77.6746 51.1084 77.3524 51.692 76.388 51.1594 75.0674 50.2641ZM79.4254 52.0752 80.9111 52.8957 80.8823 52.8815 81.7721 53.2663 81.5075 53.8782 80.6029 53.4871 79.1031 52.6588ZM83.6078 54.0602 86.0555 55.1186 85.7908 55.7305 83.3432 54.6721ZM87.8912 55.9124 90.1323 56.8815 90.0956 56.8682 90.3111 56.9327 90.1199 57.5714 89.8857 57.5012 87.6266 56.5243ZM92.2271 57.5063 94.7817 58.2712 94.5905 58.9098 92.0359 58.145ZM96.6977 58.8448 99.2523 59.6097 99.0611 60.2484 96.5065 59.4835ZM101.149 60.1024 103.773 60.5768 103.655 61.2329 101.031 60.7585ZM105.741 60.9327 108.366 61.4071 108.247 62.0631 105.623 61.5887ZM110.334 61.7629 111.559 61.9845 111.52 61.9798 112.939 62.0646 112.899 62.73 111.46 62.6441 110.215 62.4189ZM114.935 62.1839 117.597 62.3431 117.557 63.0085 114.895 62.8494ZM119.593 62.4624 122.255 62.6216 122.215 63.287 119.554 63.1279ZM114.819 57.5475 123.002 63.0001 114.227 67.439C114.063 67.5221 113.863 67.4563 113.78 67.2921 113.696 67.1278 113.762 66.9273 113.926 66.8442L122.191 62.6632 122.156 63.238 114.449 58.1023C114.296 58.0002 114.254 57.7932 114.357 57.64 114.459 57.4868 114.666 57.4454 114.819 57.5475Z" transform="matrix(1 0 0 -1 135.5 480.461)"/><g clip-path="url(#clip52)"><g clip-path="url(#clip53)"><g clip-path="url(#clip54)"><path d="M10.1296 11.9158 21.3271 11.9158 21.3271 12.8564 10.1296 12.8564Z" transform="matrix(1.03846 0 0 1 199 335)"/><path d="M9.16403 15.6341 20.3615 15.6341 20.3615 16.5752 9.16403 16.5752Z" transform="matrix(1.03846 0 0 1 199 335)"/><path d="M25.9636 1.8587 25.9636 1.25359 7.01375 1.25359 7.01375 1.8587C7.01375 3.10837 7.04849 4.41472 7.04849 5.77109 7.04849 7.74922 6.97562 9.83323 6.62299 12.0028 6.28753 14.0661 5.70004 16.2072 4.68041 18.4146L2.85639 18.4146C2.53409 18.4146 2.20868 18.4664 1.89475 18.5753 1.42446 18.7386 0.979215 19.0368 0.641977 19.475 0.303875 19.9123 0.0808437 20.481 0.0145234 21.1515 0.004875 21.2485 0 21.3451 0 21.4408-0.000457031 21.9269 0.124719 22.3853 0.335461 22.7871 0.652031 23.3913 1.15218 23.8713 1.73311 24.2063 2.31497 24.5409 2.98233 24.7336 3.66204 24.7384L18.0676 24.7464C18.6161 24.7477 19.0916 24.6357 19.4965 24.4517 19.9017 24.2687 20.2324 24.0254 20.5393 23.7808 21.7943 22.7814 22.7638 21.5427 23.5081 20.1679 24.6247 18.1033 25.2412 15.7313 25.5859 13.3193 25.9297 10.9073 25.9995 8.45183 25.9999 6.21679 26 4.61622 25.9636 3.12812 25.9636 1.8587ZM3.66869 23.5288 3.66915 23.5288C3.36878 23.5274 3.05744 23.4681 2.7628 23.358 2.32025 23.1937 1.91887 22.9153 1.64267 22.5794 1.50394 22.4112 1.39593 22.2294 1.32214 22.0398 1.24886 21.8496 1.20971 21.6517 1.20971 21.4409 1.20971 21.3856 1.21235 21.3293 1.21809 21.2723 1.25013 20.9526 1.32696 20.6966 1.42883 20.4898 1.5825 20.1807 1.79024 19.9752 2.03526 19.8342 2.27982 19.6946 2.56654 19.6314 2.85639 19.6314L15.8204 19.6314C15.6799 19.7925 15.5548 19.9769 15.4546 20.1855 15.3071 20.4911 15.2083 20.8459 15.1683 21.2451 15.1595 21.3359 15.1551 21.4251 15.1551 21.5138 15.1551 21.9362 15.2561 22.3362 15.4317 22.6915 15.5898 23.0107 15.8072 23.2944 16.0649 23.5359L3.66869 23.5288ZM23.9644 15.4322C23.6153 16.923 23.1248 18.3355 22.4442 19.5922 21.7636 20.8489 20.8964 21.9493 19.7854 22.835 19.5053 23.0589 19.2589 23.2324 18.9994 23.3487 18.7386 23.465 18.4607 23.5353 18.0681 23.5366L17.6642 23.5362C17.2984 23.4326 16.959 23.2495 16.6828 23.0088 16.4597 22.8152 16.2792 22.586 16.1549 22.334 16.0307 22.0819 15.9617 21.8079 15.9617 21.5137 15.9617 21.4523 15.9644 21.3895 15.971 21.3258 16.0026 21.0092 16.0781 20.7488 16.1808 20.5354 16.3359 20.2158 16.5493 19.9984 16.7961 19.8522 17.0424 19.7069 17.3256 19.6361 17.6083 19.6366 17.8938 19.6357 18.1765 19.7095 18.4106 19.8408 18.6455 19.973 18.8295 20.1587 18.9411 20.3901 18.9999 20.5122 19.0363 20.6751 19.0363 20.8394 19.0363 20.9741 19.0122 21.1081 18.9683 21.2201 18.9248 21.3329 18.8628 21.4212 18.7908 21.4827 18.6556 21.5964 18.5177 21.6394 18.3785 21.6403 18.2573 21.6403 18.1362 21.6038 18.0352 21.5384 17.9333 21.4734 17.8542 21.3821 17.8077 21.2736L17.0665 21.5916C17.1798 21.8564 17.3703 22.0702 17.5996 22.2173 17.8283 22.3644 18.0979 22.4465 18.3785 22.4465 18.6995 22.4478 19.0363 22.3341 19.3138 22.0965 19.5039 21.934 19.6356 21.7285 19.7199 21.5121 19.8038 21.2956 19.842 21.0663 19.842 20.8394 19.842 20.5636 19.7863 20.2892 19.6677 20.0411 19.4776 19.6454 19.1663 19.3402 18.8053 19.1378 18.4514 18.9398 18.0474 18.8362 17.6368 18.8309L17.6368 18.8247 5.82461 18.8247C6.86705 16.541 7.47216 14.32 7.81681 12.1969 8.18477 9.9321 8.25764 7.77832 8.25764 5.77119 8.25764 4.61723 8.23438 3.51421 8.22692 2.46345L24.7569 2.46345C24.7648 3.60638 24.7902 4.87541 24.7902 6.21684 24.7912 9.1618 24.6634 12.4507 23.9644 15.4322Z" transform="matrix(1.03846 0 0 1 199 335)"/><path d="M16.8171 9.56404C16.959 7.98327 16.966 6.47014 16.9515 5.03912L10.6868 5.03912C10.7013 6.47014 10.6938 7.98327 10.552 9.56404L16.8171 9.56404Z" transform="matrix(1.03846 0 0 1 199 335)"/></g></g></g><text font-family="Calibri,Calibri_MSFontService,sans-serif" font-weight="400" font-size="11" transform="translate(214.645 346)">12</text><g clip-path="url(#clip55)"><g clip-path="url(#clip56)"><g clip-path="url(#clip57)"><path d="M176.13 367.916 187.327 367.916 187.327 368.856 176.13 368.856Z" fill="#4472C4" fill-opacity="0.1"/><path d="M175.164 371.634 186.362 371.634 186.362 372.575 175.164 372.575Z" fill="#4472C4" fill-opacity="0.1"/><path d="M191.964 357.859 191.964 357.254 173.014 357.254 173.014 357.859C173.014 359.108 173.048 360.415 173.048 361.771 173.048 363.749 172.976 365.833 172.623 368.003 172.288 370.066 171.7 372.207 170.68 374.415L168.856 374.415C168.534 374.415 168.209 374.466 167.895 374.575 167.424 374.739 166.979 375.037 166.642 375.475 166.304 375.912 166.081 376.481 166.015 377.152 166.005 377.249 166 377.345 166 377.441 166 377.927 166.125 378.385 166.335 378.787 166.652 379.391 167.152 379.871 167.733 380.206 168.315 380.541 168.982 380.734 169.662 380.738L184.068 380.746C184.616 380.748 185.092 380.636 185.496 380.452 185.902 380.269 186.232 380.025 186.539 379.781 187.794 378.781 188.764 377.543 189.508 376.168 190.625 374.103 191.241 371.731 191.586 369.319 191.93 366.907 192 364.452 192 362.217 192 360.616 191.964 359.128 191.964 357.859ZM169.669 379.529 169.669 379.529C169.369 379.527 169.057 379.468 168.763 379.358 168.32 379.194 167.919 378.915 167.643 378.579 167.504 378.411 167.396 378.229 167.322 378.04 167.249 377.85 167.21 377.652 167.21 377.441 167.21 377.386 167.212 377.329 167.218 377.272 167.25 376.953 167.327 376.697 167.429 376.49 167.582 376.181 167.79 375.975 168.035 375.834 168.28 375.695 168.567 375.631 168.856 375.631L181.82 375.631C181.68 375.793 181.555 375.977 181.455 376.185 181.307 376.491 181.208 376.846 181.168 377.245 181.16 377.336 181.155 377.425 181.155 377.514 181.155 377.936 181.256 378.336 181.432 378.691 181.59 379.011 181.807 379.294 182.065 379.536L169.669 379.529ZM189.964 371.432C189.615 372.923 189.125 374.336 188.444 375.592 187.764 376.849 186.896 377.949 185.785 378.835 185.505 379.059 185.259 379.232 184.999 379.349 184.739 379.465 184.461 379.535 184.068 379.537L183.664 379.536C183.298 379.433 182.959 379.249 182.683 379.009 182.46 378.815 182.279 378.586 182.155 378.334 182.031 378.082 181.962 377.808 181.962 377.514 181.962 377.452 181.964 377.389 181.971 377.326 182.003 377.009 182.078 376.749 182.181 376.535 182.336 376.216 182.549 375.998 182.796 375.852 183.042 375.707 183.326 375.636 183.608 375.637 183.894 375.636 184.177 375.71 184.411 375.841 184.646 375.973 184.83 376.159 184.941 376.39 185 376.512 185.036 376.675 185.036 376.839 185.036 376.974 185.012 377.108 184.968 377.22 184.925 377.333 184.863 377.421 184.791 377.483 184.656 377.596 184.518 377.639 184.378 377.64 184.257 377.64 184.136 377.604 184.035 377.538 183.933 377.473 183.854 377.382 183.808 377.274L183.067 377.592C183.18 377.856 183.37 378.07 183.6 378.217 183.828 378.364 184.098 378.446 184.378 378.446 184.699 378.448 185.036 378.334 185.314 378.096 185.504 377.934 185.636 377.729 185.72 377.512 185.804 377.296 185.842 377.066 185.842 376.839 185.842 376.564 185.786 376.289 185.668 376.041 185.478 375.645 185.166 375.34 184.805 375.138 184.451 374.94 184.047 374.836 183.637 374.831L183.637 374.825 171.825 374.825C172.867 372.541 173.472 370.32 173.817 368.197 174.185 365.932 174.258 363.778 174.258 361.771 174.258 360.617 174.234 359.514 174.227 358.463L190.757 358.463C190.765 359.606 190.79 360.875 190.79 362.217 190.791 365.162 190.663 368.451 189.964 371.432Z" fill="#4472C4" fill-opacity="0.1"/><path d="M182.817 365.564C182.959 363.983 182.966 362.47 182.951 361.039L176.687 361.039C176.701 362.47 176.694 363.983 176.552 365.564L182.817 365.564Z" fill="#4472C4" fill-opacity="0.1"/></g></g></g><g clip-path="url(#clip58)"><g clip-path="url(#clip59)"><g clip-path="url(#clip60)"><path d="M167.13 467.916 178.327 467.916 178.327 468.856 167.13 468.856Z" fill="#70AD47"/><path d="M166.164 471.634 177.362 471.634 177.362 472.575 166.164 472.575Z" fill="#70AD47"/><path d="M182.964 457.859 182.964 457.254 164.014 457.254 164.014 457.859C164.014 459.108 164.048 460.415 164.048 461.771 164.048 463.749 163.976 465.833 163.623 468.003 163.288 470.066 162.7 472.207 161.68 474.415L159.856 474.415C159.534 474.415 159.209 474.466 158.895 474.575 158.424 474.739 157.979 475.037 157.642 475.475 157.304 475.912 157.081 476.481 157.015 477.152 157.005 477.249 157 477.345 157 477.441 157 477.927 157.125 478.385 157.335 478.787 157.652 479.391 158.152 479.871 158.733 480.206 159.315 480.541 159.982 480.734 160.662 480.738L175.068 480.746C175.616 480.748 176.092 480.636 176.496 480.452 176.902 480.269 177.232 480.025 177.539 479.781 178.794 478.781 179.764 477.543 180.508 476.168 181.625 474.103 182.241 471.731 182.586 469.319 182.93 466.907 183 464.452 183 462.217 183 460.616 182.964 459.128 182.964 457.859ZM160.669 479.529 160.669 479.529C160.369 479.527 160.057 479.468 159.763 479.358 159.32 479.194 158.919 478.915 158.643 478.579 158.504 478.411 158.396 478.229 158.322 478.04 158.249 477.85 158.21 477.652 158.21 477.441 158.21 477.386 158.212 477.329 158.218 477.272 158.25 476.953 158.327 476.697 158.429 476.49 158.582 476.181 158.79 475.975 159.035 475.834 159.28 475.695 159.567 475.631 159.856 475.631L172.82 475.631C172.68 475.793 172.555 475.977 172.455 476.185 172.307 476.491 172.208 476.846 172.168 477.245 172.16 477.336 172.155 477.425 172.155 477.514 172.155 477.936 172.256 478.336 172.432 478.691 172.59 479.011 172.807 479.294 173.065 479.536L160.669 479.529ZM180.964 471.432C180.615 472.923 180.125 474.336 179.444 475.592 178.764 476.849 177.896 477.949 176.785 478.835 176.505 479.059 176.259 479.232 175.999 479.349 175.739 479.465 175.461 479.535 175.068 479.537L174.664 479.536C174.298 479.433 173.959 479.249 173.683 479.009 173.46 478.815 173.279 478.586 173.155 478.334 173.031 478.082 172.962 477.808 172.962 477.514 172.962 477.452 172.964 477.389 172.971 477.326 173.003 477.009 173.078 476.749 173.181 476.535 173.336 476.216 173.549 475.998 173.796 475.852 174.042 475.707 174.326 475.636 174.608 475.637 174.894 475.636 175.177 475.71 175.411 475.841 175.646 475.973 175.83 476.159 175.941 476.39 176 476.512 176.036 476.675 176.036 476.839 176.036 476.974 176.012 477.108 175.968 477.22 175.925 477.333 175.863 477.421 175.791 477.483 175.656 477.596 175.518 477.639 175.378 477.64 175.257 477.64 175.136 477.604 175.035 477.538 174.933 477.473 174.854 477.382 174.808 477.274L174.067 477.592C174.18 477.856 174.37 478.07 174.6 478.217 174.828 478.364 175.098 478.446 175.378 478.446 175.699 478.448 176.036 478.334 176.314 478.096 176.504 477.934 176.636 477.729 176.72 477.512 176.804 477.296 176.842 477.066 176.842 476.839 176.842 476.564 176.786 476.289 176.668 476.041 176.478 475.645 176.166 475.34 175.805 475.138 175.451 474.94 175.047 474.836 174.637 474.831L174.637 474.825 162.825 474.825C163.867 472.541 164.472 470.32 164.817 468.197 165.185 465.932 165.258 463.778 165.258 461.771 165.258 460.617 165.234 459.514 165.227 458.463L181.757 458.463C181.765 459.606 181.79 460.875 181.79 462.217 181.791 465.162 181.663 468.451 180.964 471.432Z" fill="#70AD47"/><path d="M173.817 465.564C173.959 463.983 173.966 462.47 173.951 461.039L167.687 461.039C167.701 462.47 167.694 463.983 167.552 465.564L173.817 465.564Z" fill="#70AD47"/></g></g></g><text font-family="Calibri,Calibri_MSFontService,sans-serif" font-weight="400" font-size="11" transform="translate(174.414 467)">1</text><rect x="342" y="67" width="306" height="474" fill="#F2F2F2"/><text font-family="Yu Gothic,Yu Gothic_MSFontService,sans-serif" font-weight="400" font-size="16" transform="translate(438.791 86)">インスタンス表</text><rect x="520.5" y="116.5" width="56" height="29" stroke="#000000" stroke-width="0.666667" stroke-miterlimit="8" fill="#FFFFFF"/><text font-family="Yu Gothic,Yu Gothic_MSFontService,sans-serif" font-weight="400" font-size="12" transform="translate(530.539 135)">顧客<tspan font-family="Calibri,Calibri_MSFontService,sans-serif" font-size="12" x="24" y="0">ID</tspan></text><rect x="520.5" y="145.5" width="56" height="29" stroke="#000000" stroke-width="0.666667" stroke-miterlimit="8" fill="#FFFFFF"/><text font-family="Calibri,Calibri_MSFontService,sans-serif" font-weight="400" font-size="11" transform="translate(536.873 163)">C003</text><rect x="520.5" y="174.5" width="56" height="29" stroke="#000000" stroke-width="0.666667" stroke-miterlimit="8" fill="#FFFFFF"/><text font-family="Calibri,Calibri_MSFontService,sans-serif" font-weight="400" font-size="11" transform="translate(536.873 193)">C003</text><rect x="520.5" y="203.5" width="56" height="30" stroke="#000000" stroke-width="0.666667" stroke-miterlimit="8" fill="#FFFFFF"/><text font-family="Calibri,Calibri_MSFontService,sans-serif" font-weight="400" font-size="11" transform="translate(536.873 222)">C026</text><rect x="520.5" y="233.5" width="56" height="29" stroke="#000000" stroke-width="0.666667" stroke-miterlimit="8" fill="#FFFFFF"/><text font-family="Calibri,Calibri_MSFontService,sans-serif" font-weight="400" font-size="11" transform="translate(536.873 251)">C172</text><rect x="576.5" y="116.5" width="56" height="29" stroke="#000000" stroke-width="0.666667" stroke-miterlimit="8" fill="#FFFFFF"/><text font-family="Yu Gothic,Yu Gothic_MSFontService,sans-serif" font-weight="400" font-size="11" transform="translate(593.11 128)">商品<tspan font-size="11" x="-5.33337" y="13">コード</tspan></text><rect x="576.5" y="145.5" width="56" height="29" stroke="#000000" stroke-width="0.666667" stroke-miterlimit="8" fill="#FFFFFF"/><text font-family="Calibri,Calibri_MSFontService,sans-serif" font-weight="400" font-size="11" transform="translate(593.027 163)">P031</text><rect x="576.5" y="174.5" width="56" height="29" stroke="#000000" stroke-width="0.666667" stroke-miterlimit="8" fill="#FFFFFF"/><text font-family="Calibri,Calibri_MSFontService,sans-serif" font-weight="400" font-size="11" transform="translate(592.36 193)">N008</text><rect x="576.5" y="203.5" width="56" height="30" stroke="#000000" stroke-width="0.666667" stroke-miterlimit="8" fill="#FFFFFF"/><text font-family="Calibri,Calibri_MSFontService,sans-serif" font-weight="400" font-size="11" transform="translate(592.36 222)">N008</text><rect x="576.5" y="233.5" width="56" height="29" stroke="#000000" stroke-width="0.666667" stroke-miterlimit="8" fill="#FFFFFF"/><text font-family="Calibri,Calibri_MSFontService,sans-serif" font-weight="400" font-size="11" transform="translate(592.36 251)">N008</text><rect x="353.5" y="116.5" width="56" height="29" stroke="#000000" stroke-width="0.666667" stroke-miterlimit="8" fill="#FFFFFF"/><text font-family="Yu Gothic,Yu Gothic_MSFontService,sans-serif" font-weight="400" font-size="12" transform="translate(363.892 135)">注文<tspan font-family="Calibri,Calibri_MSFontService,sans-serif" font-size="12" x="24" y="0">ID</tspan></text><rect x="409.5" y="116.5" width="56" height="29" stroke="#000000" stroke-width="0.666667" stroke-miterlimit="8" fill="#FFFFFF"/><text font-family="Yu Gothic,Yu Gothic_MSFontService,sans-serif" font-weight="400" font-size="12" transform="translate(425.13 135)">個数</text><rect x="464.5" y="116.5" width="56" height="29" stroke="#000000" stroke-width="0.666667" stroke-miterlimit="8" fill="#FFFFFF"/><text font-family="Yu Gothic,Yu Gothic_MSFontService,sans-serif" font-weight="400" font-size="12" transform="translate(480.157 135)">金額</text><rect x="353.5" y="145.5" width="56" height="29" stroke="#000000" stroke-width="0.666667" stroke-miterlimit="8" fill="#FFFFFF"/><text font-family="Calibri,Calibri_MSFontService,sans-serif" font-weight="400" font-size="11" transform="translate(364.809 157)">C003P0<tspan font-size="11" x="1.24667" y="13">31</tspan><tspan font-size="11" x="11.9134" y="13">-</tspan><tspan font-size="11" x="15.2467" y="13">001</tspan></text><rect x="409.5" y="145.5" width="56" height="29" stroke="#000000" stroke-width="0.666667" stroke-miterlimit="8" fill="#FFFFFF"/><text font-family="Calibri,Calibri_MSFontService,sans-serif" font-weight="400" font-size="11" transform="translate(434.463 163)">2</text><rect x="464.5" y="145.5" width="56" height="29" stroke="#000000" stroke-width="0.666667" stroke-miterlimit="8" fill="#FFFFFF"/><text font-family="Calibri,Calibri_MSFontService,sans-serif" font-weight="400" font-size="11" transform="translate(481.49 163)">1400</text><rect x="353.5" y="174.5" width="56" height="29" stroke="#000000" stroke-width="0.666667" stroke-miterlimit="8" fill="#FFFFFF"/><text font-family="Calibri,Calibri_MSFontService,sans-serif" font-weight="400" font-size="11" transform="translate(364.143 186)">C003N0<tspan font-size="11" x="1.91333" y="13">08</tspan><tspan font-size="11" x="12.58" y="13">-</tspan><tspan font-size="11" x="15.9133" y="13">005</tspan></text><rect x="409.5" y="174.5" width="56" height="29" stroke="#000000" stroke-width="0.666667" stroke-miterlimit="8" fill="#FFFFFF"/><text font-family="Calibri,Calibri_MSFontService,sans-serif" font-weight="400" font-size="11" transform="translate(434.463 193)">1</text><rect x="464.5" y="174.5" width="56" height="29" stroke="#000000" stroke-width="0.666667" stroke-miterlimit="8" fill="#FFFFFF"/><text font-family="Calibri,Calibri_MSFontService,sans-serif" font-weight="400" font-size="11" transform="translate(481.49 193)">3500</text><rect x="353.5" y="203.5" width="56" height="30" stroke="#000000" stroke-width="0.666667" stroke-miterlimit="8" fill="#FFFFFF"/><text font-family="Calibri,Calibri_MSFontService,sans-serif" font-weight="400" font-size="11" transform="translate(364.143 215)">C026N0<tspan font-size="11" x="1.91333" y="13">08</tspan><tspan font-size="11" x="12.58" y="13">-</tspan><tspan font-size="11" x="15.9133" y="13">052</tspan></text><rect x="409.5" y="203.5" width="56" height="30" stroke="#000000" stroke-width="0.666667" stroke-miterlimit="8" fill="#FFFFFF"/><text font-family="Calibri,Calibri_MSFontService,sans-serif" font-weight="400" font-size="11" transform="translate(431.797 222)">5<tspan font-size="11" x="5.33334" y="0">0</tspan></text><rect x="464.5" y="203.5" width="56" height="30" stroke="#000000" stroke-width="0.666667" stroke-miterlimit="8" fill="#FFFFFF"/><text font-family="Calibri,Calibri_MSFontService,sans-serif" font-weight="400" font-size="11" transform="translate(478.824 222)">63000</text><rect x="353.5" y="233.5" width="56" height="29" stroke="#000000" stroke-width="0.666667" stroke-miterlimit="8" fill="#FFFFFF"/><text font-family="Calibri,Calibri_MSFontService,sans-serif" font-weight="400" font-size="11" transform="translate(364.143 244)">C072N0<tspan font-size="11" x="1.91333" y="13">08</tspan><tspan font-size="11" x="12.58" y="13">-</tspan><tspan font-size="11" x="15.9133" y="13">001</tspan></text><rect x="409.5" y="233.5" width="56" height="29" stroke="#000000" stroke-width="0.666667" stroke-miterlimit="8" fill="#FFFFFF"/><text font-family="Calibri,Calibri_MSFontService,sans-serif" font-weight="400" font-size="11" transform="translate(434.463 251)">1</text><rect x="464.5" y="233.5" width="56" height="29" stroke="#000000" stroke-width="0.666667" stroke-miterlimit="8" fill="#FFFFFF"/><text font-family="Calibri,Calibri_MSFontService,sans-serif" font-weight="400" font-size="11" transform="translate(481.49 251)">3500</text><path d="M346.5 176C346.5 171.858 349.858 168.5 354 168.5L631 168.5C635.142 168.5 638.5 171.858 638.5 176L638.5 206C638.5 210.142 635.142 213.5 631 213.5L354 213.5C349.858 213.5 346.5 210.142 346.5 206Z" stroke="#FF0000" stroke-width="1.33333" stroke-miterlimit="8" fill="none" fill-rule="evenodd"/><rect x="520.5" y="349.5" width="56" height="29" stroke="#000000" stroke-width="0.666667" stroke-miterlimit="8" fill="#FFFFFF"/><text font-family="Yu Gothic,Yu Gothic_MSFontService,sans-serif" font-weight="400" font-size="12" transform="translate(530.539 367)">顧客<tspan font-family="Calibri,Calibri_MSFontService,sans-serif" font-size="12" x="24" y="0">ID</tspan></text><rect x="520.5" y="378.5" width="56" height="29" stroke="#000000" stroke-width="0.666667" stroke-miterlimit="8" fill="#FFFFFF"/><text font-family="Calibri,Calibri_MSFontService,sans-serif" font-weight="400" font-size="11" transform="translate(536.873 396)">C003</text><rect x="520.5" y="407.5" width="56" height="29" stroke="#000000" stroke-width="0.666667" stroke-miterlimit="8" fill="#FFFFFF"/><text font-family="Calibri,Calibri_MSFontService,sans-serif" font-weight="400" font-size="11" transform="translate(536.873 425)">C026</text><rect x="520.5" y="436.5" width="56" height="29" stroke="#000000" stroke-width="0.666667" stroke-miterlimit="8" fill="#FFFFFF"/><text font-family="Calibri,Calibri_MSFontService,sans-serif" font-weight="400" font-size="11" transform="translate(536.873 454)">C172</text><rect x="576.5" y="349.5" width="56" height="29" stroke="#000000" stroke-width="0.666667" stroke-miterlimit="8" fill="#FFFFFF"/><text font-family="Yu Gothic,Yu Gothic_MSFontService,sans-serif" font-weight="400" font-size="11" transform="translate(593.11 361)">商品<tspan font-size="11" x="-5.33337" y="13">コード</tspan></text><rect x="576.5" y="378.5" width="56" height="29" stroke="#000000" stroke-width="0.666667" stroke-miterlimit="8" fill="#FFFFFF"/><text font-family="Calibri,Calibri_MSFontService,sans-serif" font-weight="400" font-size="11" transform="translate(593.027 396)">P031</text><rect x="576.5" y="407.5" width="56" height="29" stroke="#000000" stroke-width="0.666667" stroke-miterlimit="8" fill="#FFFFFF"/><text font-family="Calibri,Calibri_MSFontService,sans-serif" font-weight="400" font-size="11" transform="translate(592.36 425)">N008</text><rect x="576.5" y="436.5" width="56" height="29" stroke="#000000" stroke-width="0.666667" stroke-miterlimit="8" fill="#FFFFFF"/><text font-family="Calibri,Calibri_MSFontService,sans-serif" font-weight="400" font-size="11" transform="translate(592.36 454)">N008</text><rect x="353.5" y="349.5" width="56" height="29" stroke="#000000" stroke-width="0.666667" stroke-miterlimit="8" fill="#FFFFFF"/><text font-family="Yu Gothic,Yu Gothic_MSFontService,sans-serif" font-weight="400" font-size="12" transform="translate(363.892 367)">注文<tspan font-family="Calibri,Calibri_MSFontService,sans-serif" font-size="12" x="24" y="0">ID</tspan></text><rect x="409.5" y="349.5" width="56" height="29" stroke="#000000" stroke-width="0.666667" stroke-miterlimit="8" fill="#FFFFFF"/><text font-family="Yu Gothic,Yu Gothic_MSFontService,sans-serif" font-weight="400" font-size="12" transform="translate(425.13 367)">個数</text><rect x="464.5" y="349.5" width="56" height="29" stroke="#000000" stroke-width="0.666667" stroke-miterlimit="8" fill="#FFFFFF"/><text font-family="Yu Gothic,Yu Gothic_MSFontService,sans-serif" font-weight="400" font-size="12" transform="translate(480.157 367)">金額</text><rect x="353.5" y="378.5" width="56" height="29" stroke="#000000" stroke-width="0.666667" stroke-miterlimit="8" fill="#FFFFFF"/><text font-family="Calibri,Calibri_MSFontService,sans-serif" font-weight="400" font-size="11" transform="translate(364.809 390)">C003P0<tspan font-size="11" x="1.24667" y="13">31</tspan><tspan font-size="11" x="11.9134" y="13">-</tspan><tspan font-size="11" x="15.2467" y="13">001</tspan></text><rect x="409.5" y="378.5" width="56" height="29" stroke="#000000" stroke-width="0.666667" stroke-miterlimit="8" fill="#FFFFFF"/><text font-family="Calibri,Calibri_MSFontService,sans-serif" font-weight="400" font-size="11" transform="translate(434.463 396)">2</text><rect x="464.5" y="378.5" width="56" height="29" stroke="#000000" stroke-width="0.666667" stroke-miterlimit="8" fill="#FFFFFF"/><text font-family="Calibri,Calibri_MSFontService,sans-serif" font-weight="400" font-size="11" transform="translate(481.49 396)">1400</text><rect x="353.5" y="407.5" width="56" height="29" stroke="#000000" stroke-width="0.666667" stroke-miterlimit="8" fill="#FFFFFF"/><text font-family="Calibri,Calibri_MSFontService,sans-serif" font-weight="400" font-size="11" transform="translate(364.143 419)">C026N0<tspan font-size="11" x="1.91333" y="13">08</tspan><tspan font-size="11" x="12.58" y="13">-</tspan><tspan font-size="11" x="15.9133" y="13">052</tspan></text><rect x="409.5" y="407.5" width="56" height="29" stroke="#000000" stroke-width="0.666667" stroke-miterlimit="8" fill="#FFFFFF"/><text font-family="Calibri,Calibri_MSFontService,sans-serif" font-weight="400" font-size="11" transform="translate(431.797 425)">5<tspan font-size="11" x="5.33334" y="0">0</tspan></text><rect x="464.5" y="407.5" width="56" height="29" stroke="#000000" stroke-width="0.666667" stroke-miterlimit="8" fill="#FFFFFF"/><text font-family="Calibri,Calibri_MSFontService,sans-serif" font-weight="400" font-size="11" transform="translate(478.824 425)">63000</text><rect x="353.5" y="436.5" width="56" height="29" stroke="#000000" stroke-width="0.666667" stroke-miterlimit="8" fill="#FFFFFF"/><text font-family="Calibri,Calibri_MSFontService,sans-serif" font-weight="400" font-size="11" transform="translate(364.143 448)">C072N0<tspan font-size="11" x="1.91333" y="13">08</tspan><tspan font-size="11" x="12.58" y="13">-</tspan><tspan font-size="11" x="15.9133" y="13">001</tspan></text><rect x="409.5" y="436.5" width="56" height="29" stroke="#000000" stroke-width="0.666667" stroke-miterlimit="8" fill="#FFFFFF"/><text font-family="Calibri,Calibri_MSFontService,sans-serif" font-weight="400" font-size="11" transform="translate(434.463 454)">1</text><rect x="464.5" y="436.5" width="56" height="29" stroke="#000000" stroke-width="0.666667" stroke-miterlimit="8" fill="#FFFFFF"/><text font-family="Calibri,Calibri_MSFontService,sans-serif" font-weight="400" font-size="11" transform="translate(481.49 454)">3500</text><path d="M480.5 304 488 304 488 289.5 503 289.5 503 304 510.5 304 495.5 318.5Z" stroke="#AE5A21" stroke-width="1.33333" stroke-miterlimit="8" stroke-opacity="0.501961" fill="#ED7D31" fill-rule="evenodd" fill-opacity="0.501961"/><text font-family="Yu Gothic,Yu Gothic_MSFontService,sans-serif" font-weight="400" font-size="16" transform="translate(88.1546 42)">リンクを切る<tspan font-size="16" x="278.666" y="453">関係</tspan>クラスが定義されている場合は、<tspan font-size="16" x="278.666" y="472">該当するクラスのインスタンス表か</tspan><tspan font-size="16" x="278.666" y="491">ら該当行を削除する</tspan></text><path d="M332 444.5 332 437.25 298.5 437.25 298.5 422.75 332 422.75 332 415.5 346.5 430Z" stroke="#AE5A21" stroke-width="1.33333" stroke-miterlimit="8" stroke-opacity="0.501961" fill="#ED7D31" fill-rule="evenodd" fill-opacity="0.501961"/></g></svg>