<svg width="607" height="429" xmlns="http://www.w3.org/2000/svg" xmlns:xlink="http://www.w3.org/1999/xlink" overflow="hidden"><defs><clipPath id="clip0"><rect x="60" y="12" width="607" height="429"/></clipPath><linearGradient x1="201.5" y1="171.5" x2="201.5" y2="199.5" gradientUnits="userSpaceOnUse" spreadMethod="reflect" id="fill1"><stop offset="0" stop-color="#FFDD9C"/><stop offset="0.5" stop-color="#FFD78E"/><stop offset="1" stop-color="#FFD479"/></linearGradient><linearGradient x1="201.5" y1="301.5" x2="201.5" y2="329.5" gradientUnits="userSpaceOnUse" spreadMethod="reflect" id="fill2"><stop offset="0" stop-color="#FFDD9C"/><stop offset="0.5" stop-color="#FFD78E"/><stop offset="1" stop-color="#FFD479"/></linearGradient></defs><g clip-path="url(#clip0)" transform="translate(-60 -12)"><rect x="72" y="70" width="269" height="348" fill="#F2F2F2"/><text font-family="Yu Gothic,Yu Gothic_MSFontService,sans-serif" font-weight="400" font-size="16" transform="translate(166.293 90)">現実の世界</text><rect x="61.5001" y="14.5001" width="605" height="425" stroke="#D9D9D9" stroke-width="1.33333" stroke-miterlimit="8" fill="none"/><path d="M86.5001 199.5 93.5002 171.5 316.5 171.5 309.5 199.5Z" stroke="#FFC000" stroke-width="0.666667" stroke-miterlimit="8" fill="url(#fill1)" fill-rule="evenodd"/><rect x="118.5" y="145.5" width="28" height="28" stroke="#2F528F" stroke-width="3" stroke-miterlimit="8" fill="#FFFFFF"/><path d="M124.5 159C124.5 154.306 128.082 150.5 132.5 150.5 136.918 150.5 140.5 154.306 140.5 159 140.5 163.694 136.918 167.5 132.5 167.5 128.082 167.5 124.5 163.694 124.5 159Z" stroke="#AE5A21" stroke-width="1.33333" stroke-miterlimit="8" fill="#FFFFFF" fill-rule="evenodd"/><path d="M118.5 141.5 119.75 136.5 145.25 136.5 146.5 141.5Z" stroke="#2F528F" stroke-width="3" stroke-miterlimit="8" fill="#FFFFFF" fill-rule="evenodd"/><path d="M0 5 1.24999 0 26.75 0 28 5Z" stroke="#2F528F" stroke-width="3" stroke-miterlimit="8" fill="#FFFFFF" fill-rule="evenodd" transform="matrix(1 0 0 -1 118.5 182.5)"/><rect x="121.5" y="128.5" width="22" height="5" stroke="#2F528F" stroke-width="3" stroke-miterlimit="8" fill="#FFFFFF"/><path d="M127.164 162.989 133.542 154.916 132.601 154.173 135.972 153.777 136.367 157.148 135.426 156.404 129.048 164.477Z" stroke="#AE5A21" stroke-width="1.33333" stroke-miterlimit="8" fill="#ED7D31" fill-rule="evenodd"/><rect x="190.5" y="145.5" width="28" height="28" stroke="#2F528F" stroke-width="3" stroke-miterlimit="8" fill="#FFFFFF"/><path d="M195.5 159C195.5 154.306 199.306 150.5 204 150.5 208.694 150.5 212.5 154.306 212.5 159 212.5 163.694 208.694 167.5 204 167.5 199.306 167.5 195.5 163.694 195.5 159Z" stroke="#AE5A21" stroke-width="1.33333" stroke-miterlimit="8" fill="#FFFFFF" fill-rule="evenodd"/><path d="M190.5 141.5 191.75 136.5 217.25 136.5 218.5 141.5Z" stroke="#2F528F" stroke-width="3" stroke-miterlimit="8" fill="#FFFFFF" fill-rule="evenodd"/><path d="M0 5 1.24999 0 26.75 0 28 5Z" stroke="#2F528F" stroke-width="3" stroke-miterlimit="8" fill="#FFFFFF" fill-rule="evenodd" transform="matrix(1 0 0 -1 190.5 182.5)"/><rect x="193.5" y="128.5" width="22" height="5" stroke="#2F528F" stroke-width="3" stroke-miterlimit="8" fill="#FFFFFF"/><path d="M207.95 163.709 200 157.179 199.238 158.106 198.907 154.728 202.285 154.397 201.523 155.324 209.473 161.855Z" stroke="#AE5A21" stroke-width="1.33333" stroke-miterlimit="8" fill="#ED7D31" fill-rule="evenodd"/><rect x="262.5" y="144.5" width="28" height="28" stroke="#2F528F" stroke-width="3" stroke-miterlimit="8" fill="#FFFFFF"/><path d="M267.5 159C267.5 154.306 271.306 150.5 276 150.5 280.694 150.5 284.5 154.306 284.5 159 284.5 163.694 280.694 167.5 276 167.5 271.306 167.5 267.5 163.694 267.5 159Z" stroke="#AE5A21" stroke-width="1.33333" stroke-miterlimit="8" fill="#FFFFFF" fill-rule="evenodd"/><path d="M262.5 140.5 263.5 136.5 289.5 136.5 290.5 140.5Z" stroke="#2F528F" stroke-width="3" stroke-miterlimit="8" fill="#FFFFFF" fill-rule="evenodd"/><path d="M0 5 1.24999 0 26.75 0 28 5Z" stroke="#2F528F" stroke-width="3" stroke-miterlimit="8" fill="#FFFFFF" fill-rule="evenodd" transform="matrix(1 0 0 -1 262.5 181.5)"/><rect x="264.5" y="127.5" width="23" height="5.00001" stroke="#2F528F" stroke-width="3" stroke-miterlimit="8" fill="#FFFFFF"/><path d="M271.982 163.461 276.027 154.001 274.924 153.529 278.074 152.266 279.337 155.417 278.234 154.945 274.189 164.404Z" stroke="#AE5A21" stroke-width="1.33333" stroke-miterlimit="8" fill="#ED7D31" fill-rule="evenodd"/><path d="M146 156 152 156 152 162 146 162ZM158 156 164 156 164 162 158 162ZM170 156 174.787 156 174.787 162 170 162ZM171.787 150 189.787 159 171.787 168Z" fill="#4472C4"/><path d="M0.0449225-2.99966 6.04425-2.90982 5.9544 3.08951-0.0449225 2.99966ZM12.0436-2.81997 18.0429-2.73013 17.9531 3.2692 11.9537 3.17935ZM24.0422-2.64028 28.8337-2.56853 28.7438 3.4308 23.9524 3.35904ZM25.9239-8.61278 43.7871 0.655748 25.6543 9.3852Z" fill="#4472C4" transform="matrix(1 0 0 -1 218 158.656)"/><text font-family="Calibri,Calibri_MSFontService,sans-serif" font-weight="400" font-size="11" transform="translate(103.672 194)">ETP003:<tspan font-family="Yu Gothic,Yu Gothic_MSFontService,sans-serif" font-size="11" x="34.6667" y="0">装置</tspan></text><path d="M103.672 194.857 117.672 194.857 131.672 194.857 145.672 194.857 159.672 194.857 159.672 195.857 145.672 195.857 131.672 195.857 117.672 195.857 103.672 195.857Z" fill-rule="evenodd"/><text font-family="Calibri,Calibri_MSFontService,sans-serif" font-weight="400" font-size="11" transform="translate(175.853 194)">ETP007:<tspan font-family="Yu Gothic,Yu Gothic_MSFontService,sans-serif" font-size="11" x="34.6667" y="0">装置</tspan></text><path d="M175.853 194.713 189.853 194.713 203.853 194.713 217.853 194.713 231.853 194.713 231.853 195.713 217.853 195.713 203.853 195.713 189.853 195.713 175.853 195.713Z" fill-rule="evenodd"/><text font-family="Calibri,Calibri_MSFontService,sans-serif" font-weight="400" font-size="11" transform="translate(247.212 194)">ETP009:<tspan font-family="Yu Gothic,Yu Gothic_MSFontService,sans-serif" font-size="11" x="34.6667" y="0">装置</tspan></text><path d="M247.212 195.426 261.212 195.426 275.212 195.426 289.212 195.426 303.212 195.426 303.212 196.426 289.212 196.426 275.212 196.426 261.212 196.426 247.212 196.426Z" fill-rule="evenodd"/><text font-family="Yu Gothic,Yu Gothic_MSFontService,sans-serif" font-weight="400" font-size="16" transform="translate(88.1546 42)">リンクを切る</text><path d="M86.5001 329.5 93.5002 301.5 316.5 301.5 309.5 329.5Z" stroke="#FFC000" stroke-width="0.666667" stroke-miterlimit="8" fill="url(#fill2)" fill-rule="evenodd"/><rect x="118.5" y="275.5" width="28" height="28" stroke="#2F528F" stroke-width="3" stroke-miterlimit="8" fill="#FFFFFF"/><path d="M124.5 289C124.5 284.306 128.082 280.5 132.5 280.5 136.918 280.5 140.5 284.306 140.5 289 140.5 293.694 136.918 297.5 132.5 297.5 128.082 297.5 124.5 293.694 124.5 289Z" stroke="#AE5A21" stroke-width="1.33333" stroke-miterlimit="8" fill="#FFFFFF" fill-rule="evenodd"/><path d="M118.5 271.5 119.75 266.5 145.25 266.5 146.5 271.5Z" stroke="#2F528F" stroke-width="3" stroke-miterlimit="8" fill="#FFFFFF" fill-rule="evenodd"/><path d="M0 4 0.999996 0 27 0 28 4Z" stroke="#2F528F" stroke-width="3" stroke-miterlimit="8" fill="#FFFFFF" fill-rule="evenodd" transform="matrix(1 0 0 -1 118.5 311.5)"/><rect x="121.5" y="258.5" width="22" height="5" stroke="#2F528F" stroke-width="3" stroke-miterlimit="8" fill="#FFFFFF"/><path d="M127.164 292.818 133.542 284.745 132.601 284.002 135.972 283.606 136.367 286.977 135.426 286.233 129.048 294.306Z" stroke="#AE5A21" stroke-width="1.33333" stroke-miterlimit="8" fill="#ED7D31" fill-rule="evenodd"/><rect x="190.5" y="275.5" width="28" height="28" stroke="#2F528F" stroke-width="3" stroke-miterlimit="8" fill="#FFFFFF"/><path d="M195.5 289C195.5 284.306 199.306 280.5 204 280.5 208.694 280.5 212.5 284.306 212.5 289 212.5 293.694 208.694 297.5 204 297.5 199.306 297.5 195.5 293.694 195.5 289Z" stroke="#AE5A21" stroke-width="1.33333" stroke-miterlimit="8" fill="#FFFFFF" fill-rule="evenodd"/><path d="M190.5 271.5 191.75 266.5 217.25 266.5 218.5 271.5Z" stroke="#2F528F" stroke-width="3" stroke-miterlimit="8" fill="#FFFFFF" fill-rule="evenodd"/><path d="M0 4 0.999996 0 27 0 28 4Z" stroke="#2F528F" stroke-width="3" stroke-miterlimit="8" fill="#FFFFFF" fill-rule="evenodd" transform="matrix(1 0 0 -1 190.5 311.5)"/><rect x="193.5" y="258.5" width="22" height="5" stroke="#2F528F" stroke-width="3" stroke-miterlimit="8" fill="#FFFFFF"/><path d="M207.95 293.538 200 287.008 199.238 287.935 198.907 284.557 202.285 284.226 201.523 285.153 209.473 291.684Z" stroke="#AE5A21" stroke-width="1.33333" stroke-miterlimit="8" fill="#ED7D31" fill-rule="evenodd"/><rect x="262.5" y="274.5" width="28" height="28" stroke="#4472C4" stroke-width="3" stroke-miterlimit="8" stroke-opacity="0.101961" fill="#FFFFFF"/><path d="M267.5 288.5C267.5 284.082 271.306 280.5 276 280.5 280.694 280.5 284.5 284.082 284.5 288.5 284.5 292.918 280.694 296.5 276 296.5 271.306 296.5 267.5 292.918 267.5 288.5Z" stroke="#4472C4" stroke-width="1.33333" stroke-miterlimit="8" stroke-opacity="0.101961" fill="#FFFFFF" fill-rule="evenodd"/><path d="M262.5 270.5 263.75 265.5 289.25 265.5 290.5 270.5Z" stroke="#4472C4" stroke-width="3" stroke-miterlimit="8" stroke-opacity="0.101961" fill="#FFFFFF" fill-rule="evenodd"/><path d="M0 5 1.24999 0 26.75 0 28 5Z" stroke="#4472C4" stroke-width="3" stroke-miterlimit="8" stroke-opacity="0.101961" fill="#FFFFFF" fill-rule="evenodd" transform="matrix(1 0 0 -1 262.5 311.5)"/><rect x="264.5" y="257.5" width="23" height="5" stroke="#4472C4" stroke-width="3" stroke-miterlimit="8" stroke-opacity="0.101961" fill="#FFFFFF"/><path d="M271.982 293.29 276.027 283.83 274.924 283.358 278.074 282.095 279.337 285.246 278.234 284.774 274.189 294.233Z" stroke="#4472C4" stroke-width="1.33333" stroke-miterlimit="8" stroke-opacity="0.101961" fill="#ED7D31" fill-rule="evenodd"/><path d="M146 286 152 286 152 292 146 292ZM158 286 164 286 164 292 158 292ZM170 286 174.787 286 174.787 292 170 292ZM171.787 280 189.787 289 171.787 298Z" fill="#4472C4"/><path d="M0.0449225-2.99966 6.04425-2.90982 5.9544 3.08951-0.0449225 2.99966ZM12.0436-2.81997 18.0429-2.73013 17.9531 3.2692 11.9537 3.17935ZM24.0422-2.64028 28.8337-2.56853 28.7438 3.4308 23.9524 3.35904ZM25.9239-8.61278 43.7871 0.655748 25.6543 9.3852Z" fill="#4472C4" fill-opacity="0.101961" transform="matrix(1 0 0 -1 218 288.656)"/><text font-family="Calibri,Calibri_MSFontService,sans-serif" font-weight="400" font-size="11" transform="translate(103.672 324)">ETP003:<tspan font-family="Yu Gothic,Yu Gothic_MSFontService,sans-serif" font-size="11" x="34.6667" y="0">装置</tspan></text><path d="M103.672 324.686 117.672 324.686 131.672 324.686 145.672 324.686 159.672 324.686 159.672 325.686 145.672 325.686 131.672 325.686 117.672 325.686 103.672 325.686Z" fill-rule="evenodd"/><text font-family="Calibri,Calibri_MSFontService,sans-serif" font-weight="400" font-size="11" transform="translate(175.853 324)">ETP007:<tspan font-family="Yu Gothic,Yu Gothic_MSFontService,sans-serif" font-size="11" x="34.6667" y="0">装置</tspan></text><path d="M175.853 324.542 189.853 324.542 203.853 324.542 217.853 324.542 231.853 324.542 231.853 325.542 217.853 325.542 203.853 325.542 189.853 325.542 175.853 325.542Z" fill-rule="evenodd"/><text font-family="Calibri,Calibri_MSFontService,sans-serif" font-weight="400" font-size="11" transform="translate(247.212 324)">ETP009:<tspan font-family="Yu Gothic,Yu Gothic_MSFontService,sans-serif" font-size="11" x="34.6667" y="0">装置</tspan></text><path d="M247.212 325.255 261.212 325.255 275.212 325.255 289.212 325.255 303.212 325.255 303.212 326.255 289.212 326.255 275.212 326.255 261.212 326.255 247.212 326.255Z" fill-rule="evenodd"/><path d="M190.5 231 197.75 231 197.75 215.5 212.25 215.5 212.25 231 219.5 231 205 245.5Z" stroke="#AE5A21" stroke-width="1.33333" stroke-miterlimit="8" stroke-opacity="0.501961" fill="#ED7D31" fill-rule="evenodd" fill-opacity="0.501961"/><text font-family="Yu Gothic,Yu Gothic_MSFontService,sans-serif" font-weight="400" font-size="16" transform="translate(110.959 382)">一番最後<tspan font-size="16" x="64" y="0">の装置をライン</tspan><tspan font-size="16" x="0" y="19">から取っ払う</tspan></text><rect x="360" y="71" width="285" height="348" fill="#F2F2F2"/><text font-family="Yu Gothic,Yu Gothic_MSFontService,sans-serif" font-weight="400" font-size="16" transform="translate(446.521 91)">インスタンス表</text><rect x="390.5" y="109.5" width="56" height="29" stroke="#000000" stroke-width="0.666667" stroke-miterlimit="8" fill="#FFFFFF"/><text font-family="Yu Gothic,Yu Gothic_MSFontService,sans-serif" font-weight="400" font-size="12" transform="translate(400.593 127)">装置<tspan font-family="Calibri,Calibri_MSFontService,sans-serif" font-size="12" x="24" y="0">ID</tspan></text><rect x="446.5" y="109.5" width="64" height="29" stroke="#000000" stroke-width="0.666667" stroke-miterlimit="8" fill="#FFFFFF"/><text font-family="Yu Gothic,Yu Gothic_MSFontService,sans-serif" font-weight="400" font-size="12" transform="translate(460.059 127)">・・・</text><rect x="510.5" y="109.5" width="93" height="29" stroke="#000000" stroke-width="0.666667" stroke-miterlimit="8" fill="#FFFFFF"/><text font-family="Yu Gothic,Yu Gothic_MSFontService,sans-serif" font-weight="400" font-size="12" transform="translate(521.627 127)">後工程装置<tspan font-family="Calibri,Calibri_MSFontService,sans-serif" font-size="12" x="60.0001" y="0">ID</tspan></text><rect x="390.5" y="138.5" width="56" height="29" stroke="#000000" stroke-width="0.666667" stroke-miterlimit="8" fill="#FFFFFF"/><text font-family="Calibri,Calibri_MSFontService,sans-serif" font-weight="400" font-size="12" transform="translate(399.843 156)">ETP003</text><rect x="446.5" y="138.5" width="64" height="29" stroke="#000000" stroke-width="0.666667" stroke-miterlimit="8" fill="#FFFFFF"/><text font-family="Yu Gothic,Yu Gothic_MSFontService,sans-serif" font-weight="400" font-size="12" transform="translate(455.395 156)">・・・</text><rect x="510.5" y="138.5" width="93" height="29" stroke="#000000" stroke-width="0.666667" stroke-miterlimit="8" fill="#FFFFFF"/><text font-family="Calibri,Calibri_MSFontService,sans-serif" font-weight="400" font-size="12" transform="translate(538.877 156)">ETP007</text><rect x="390.5" y="167.5" width="56" height="29" stroke="#000000" stroke-width="0.666667" stroke-miterlimit="8" fill="#FFFFFF"/><text font-family="Calibri,Calibri_MSFontService,sans-serif" font-weight="400" font-size="12" transform="translate(399.843 185)">ETP007</text><rect x="446.5" y="167.5" width="64" height="29" stroke="#000000" stroke-width="0.666667" stroke-miterlimit="8" fill="#FFFFFF"/><text font-family="Yu Gothic,Yu Gothic_MSFontService,sans-serif" font-weight="400" font-size="12" transform="translate(455.395 185)">・・・</text><rect x="510.5" y="167.5" width="93" height="29" stroke="#000000" stroke-width="0.666667" stroke-miterlimit="8" fill="#FFFFFF"/><text font-family="Calibri,Calibri_MSFontService,sans-serif" font-weight="400" font-size="12" transform="translate(538.877 185)">ETP009</text><rect x="390.5" y="196.5" width="56" height="29" stroke="#000000" stroke-width="0.666667" stroke-miterlimit="8" fill="#FFFFFF"/><text font-family="Calibri,Calibri_MSFontService,sans-serif" font-weight="400" font-size="12" transform="translate(399.843 214)">ETP<tspan font-size="12" x="17.8333" y="0">009</tspan></text><rect x="446.5" y="196.5" width="64" height="29" stroke="#000000" stroke-width="0.666667" stroke-miterlimit="8" fill="#FFFFFF"/><text font-family="Yu Gothic,Yu Gothic_MSFontService,sans-serif" font-weight="400" font-size="12" transform="translate(455.395 214)">・・・</text><rect x="510.5" y="196.5" width="93" height="29" stroke="#000000" stroke-width="0.666667" stroke-miterlimit="8" fill="#FFFFFF"/><text font-family="Calibri,Calibri_MSFontService,sans-serif" font-weight="400" font-size="12" transform="translate(544.127 214)">NULL</text><rect x="534.5" y="173.5" width="49" height="17" stroke="#FF0000" stroke-width="1.33333" stroke-miterlimit="8" fill="none"/><rect x="390.5" y="243.5" width="56" height="30" stroke="#000000" stroke-width="0.666667" stroke-miterlimit="8" fill="#FFFFFF"/><text font-family="Yu Gothic,Yu Gothic_MSFontService,sans-serif" font-weight="400" font-size="12" transform="translate(400.451 262)">装置<tspan font-family="Calibri,Calibri_MSFontService,sans-serif" font-size="12" x="24" y="0">ID</tspan></text><rect x="446.5" y="243.5" width="64" height="30" stroke="#000000" stroke-width="0.666667" stroke-miterlimit="8" fill="#FFFFFF"/><text font-family="Yu Gothic,Yu Gothic_MSFontService,sans-serif" font-weight="400" font-size="12" transform="translate(459.917 262)">・・・</text><rect x="510.5" y="243.5" width="93" height="30" stroke="#000000" stroke-width="0.666667" stroke-miterlimit="8" fill="#FFFFFF"/><text font-family="Yu Gothic,Yu Gothic_MSFontService,sans-serif" font-weight="400" font-size="12" transform="translate(521.485 262)">後工程装置<tspan font-family="Calibri,Calibri_MSFontService,sans-serif" font-size="12" x="60" y="0">ID</tspan></text><rect x="390.5" y="273.5" width="56" height="29" stroke="#000000" stroke-width="0.666667" stroke-miterlimit="8" fill="#FFFFFF"/><text font-family="Calibri,Calibri_MSFontService,sans-serif" font-weight="400" font-size="12" transform="translate(399.701 291)">ETP003</text><rect x="446.5" y="273.5" width="64" height="29" stroke="#000000" stroke-width="0.666667" stroke-miterlimit="8" fill="#FFFFFF"/><text font-family="Yu Gothic,Yu Gothic_MSFontService,sans-serif" font-weight="400" font-size="12" transform="translate(455.253 291)">・・・</text><rect x="510.5" y="273.5" width="93" height="29" stroke="#000000" stroke-width="0.666667" stroke-miterlimit="8" fill="#FFFFFF"/><text font-family="Calibri,Calibri_MSFontService,sans-serif" font-weight="400" font-size="12" transform="translate(538.735 291)">ETP007</text><rect x="390.5" y="302.5" width="56" height="29" stroke="#000000" stroke-width="0.666667" stroke-miterlimit="8" fill="#FFFFFF"/><text font-family="Calibri,Calibri_MSFontService,sans-serif" font-weight="400" font-size="12" transform="translate(399.701 320)">ETP007</text><rect x="446.5" y="302.5" width="64" height="29" stroke="#000000" stroke-width="0.666667" stroke-miterlimit="8" fill="#FFFFFF"/><text font-family="Yu Gothic,Yu Gothic_MSFontService,sans-serif" font-weight="400" font-size="12" transform="translate(455.253 320)">・・・</text><rect x="510.5" y="302.5" width="93" height="29" stroke="#000000" stroke-width="0.666667" stroke-miterlimit="8" fill="#FFFFFF"/><text font-family="Calibri,Calibri_MSFontService,sans-serif" font-weight="400" font-size="12" transform="translate(543.985 320)">NULL</text><rect x="390.5" y="331.5" width="56" height="29" stroke="#000000" stroke-width="0.666667" stroke-miterlimit="8" fill="#FFFFFF"/><text font-family="Calibri,Calibri_MSFontService,sans-serif" font-weight="400" font-size="12" transform="translate(399.701 349)">ETP<tspan font-size="12" x="17.8333" y="0">009</tspan></text><rect x="446.5" y="331.5" width="64" height="29" stroke="#000000" stroke-width="0.666667" stroke-miterlimit="8" fill="#FFFFFF"/><text font-family="Yu Gothic,Yu Gothic_MSFontService,sans-serif" font-weight="400" font-size="12" transform="translate(455.253 349)">・・・</text><rect x="510.5" y="331.5" width="93" height="29" stroke="#000000" stroke-width="0.666667" stroke-miterlimit="8" fill="#FFFFFF"/><text font-family="Calibri,Calibri_MSFontService,sans-serif" font-weight="400" font-size="12" transform="translate(543.985 349)">NULL</text><rect x="534.5" y="307.5" width="48" height="18" stroke="#FF0000" stroke-width="1.33333" stroke-miterlimit="8" fill="none"/><path d="M557.833 196.496 559.079 301.346 558.412 301.354 557.167 196.504ZM562.729 299.969 558.824 308.016 554.73 300.064Z" fill="#FF0000"/><text font-family="Yu Gothic,Yu Gothic_MSFontService,sans-serif" font-weight="400" font-size="16" transform="translate(407.953 386)">関係を示す特徴値を<tspan font-family="Calibri,Calibri_MSFontService,sans-serif" font-size="16" x="144" y="0">NULL</tspan><tspan font-size="16" x="0" y="19">にセットする</tspan></text><path d="M474.5 238 481.75 238 481.75 222.5 496.25 222.5 496.25 238 503.5 238 489 252.5Z" stroke="#AE5A21" stroke-width="1.33333" stroke-miterlimit="8" stroke-opacity="0.501961" fill="#ED7D31" fill-rule="evenodd" fill-opacity="0.501961"/><path d="M363 316.5 363 309.25 328.5 309.25 328.5 294.75 363 294.75 363 287.5 377.5 302Z" stroke="#AE5A21" stroke-width="1.33333" stroke-miterlimit="8" stroke-opacity="0.501961" fill="#ED7D31" fill-rule="evenodd" fill-opacity="0.501961"/></g></svg>