<svg width="607" height="369" xmlns="http://www.w3.org/2000/svg" xmlns:xlink="http://www.w3.org/1999/xlink" overflow="hidden"><defs><clipPath id="clip0"><rect x="60" y="57" width="607" height="369"/></clipPath></defs><g clip-path="url(#clip0)" transform="translate(-60 -57)"><rect x="280" y="76" width="355" height="150" fill="#F2F2F2"/><text font-family="Yu Gothic,Yu Gothic_MSFontService,sans-serif" font-weight="400" font-size="16" transform="translate(417.565 96)">現実の世界</text><rect x="61.5001" y="58.5001" width="605" height="367" stroke="#D9D9D9" stroke-width="1.33333" stroke-miterlimit="8" fill="none"/><rect x="352.5" y="148.5" width="28" height="28" stroke="#2F528F" stroke-width="3" stroke-miterlimit="8" fill="#FFFFFF"/><path d="M357.5 163C357.5 158.306 361.306 154.5 366 154.5 370.694 154.5 374.5 158.306 374.5 163 374.5 167.694 370.694 171.5 366 171.5 361.306 171.5 357.5 167.694 357.5 163Z" stroke="#AE5A21" stroke-width="1.33333" stroke-miterlimit="8" fill="#FFFFFF" fill-rule="evenodd"/><path d="M352.5 145.5 353.75 140.5 379.25 140.5 380.5 145.5Z" stroke="#2F528F" stroke-width="3" stroke-miterlimit="8" fill="#FFFFFF" fill-rule="evenodd"/><path d="M0 5 1.24999 0 26.75 0 28 5Z" stroke="#2F528F" stroke-width="3" stroke-miterlimit="8" fill="#FFFFFF" fill-rule="evenodd" transform="matrix(1 0 0 -1 352.5 185.5)"/><rect x="355.5" y="132.5" width="22" height="4" stroke="#2F528F" stroke-width="3" stroke-miterlimit="8" fill="#FFFFFF"/><path d="M360.821 166.701 367.199 158.629 366.257 157.885 369.628 157.489 370.023 160.86 369.082 160.117 362.704 168.189Z" stroke="#AE5A21" stroke-width="1.33333" stroke-miterlimit="8" fill="#ED7D31" fill-rule="evenodd"/><text font-family="Yu Gothic,Yu Gothic_MSFontService,sans-serif" font-weight="400" font-size="16" transform="translate(86.969 99)">特徴値<tspan font-size="16" x="48" y="0">を更新する</tspan></text><rect x="87.5001" y="151.5" width="153" height="131" stroke="#000000" stroke-width="1.33333" stroke-miterlimit="8" fill="#FFFFFF"/><text font-family="Yu Gothic,Yu Gothic_MSFontService,sans-serif" font-weight="400" font-size="13" transform="translate(150.078 168)">装置<tspan font-family="Consolas,Consolas_MSFontService,sans-serif" font-size="12" x="-53" y="15">*</tspan><tspan font-size="12" x="-46.3333" y="15">装置</tspan><tspan font-family="Consolas,Consolas_MSFontService,sans-serif" font-size="12" x="-22.3333" y="15">ID</tspan><tspan font-size="12" x="-41" y="29">消費電力</tspan><tspan font-family="Consolas,Consolas_MSFontService,sans-serif" font-size="12" x="7" y="29">(M)</tspan><tspan font-size="12" x="-41" y="44">稼働状態</tspan><tspan font-size="12" x="-41" y="58">温度</tspan><tspan font-size="12" x="-41" y="73">危険上限温度</tspan><tspan font-weight="700" font-size="12" x="-41" y="87">後工程装置</tspan><tspan font-family="Consolas,Consolas_MSFontService,sans-serif" font-weight="700" font-size="12" x="19" y="87">ID(R_EO1)</tspan></text><path d="M182.12 282.5 182.12 318.669 121.5 318.669 121.5 283.833" stroke="#000000" stroke-width="0.666667" stroke-miterlimit="8" fill="none" fill-rule="evenodd"/><text font-family="Calibri,Calibri_MSFontService,sans-serif" font-weight="400" font-size="11" transform="translate(126.495 295)">0..1<tspan font-size="11" x="36.0763" y="-2">0..1</tspan><tspan font-family="Yu Gothic,Yu Gothic_MSFontService,sans-serif" font-size="11" x="-53.0805" y="4">前</tspan><tspan font-family="Yu Gothic,Yu Gothic_MSFontService,sans-serif" font-size="11" x="-42.4139" y="4">の工程</tspan><tspan font-family="Yu Gothic,Yu Gothic_MSFontService,sans-serif" font-size="11" x="59.468" y="4">後の工程</tspan><tspan font-size="11" x="11.6927" y="34">R_EO1</tspan></text><rect x="188" y="171" width="17" height="17" stroke="#2F528F" stroke-width="2" stroke-miterlimit="8" fill="#FFFFFF"/><path d="M191 179C191 176.239 193.462 174 196.5 174 199.538 174 202 176.239 202 179 202 181.761 199.538 184 196.5 184 193.462 184 191 181.761 191 179Z" stroke="#AE5A21" stroke-width="2" stroke-miterlimit="8" fill="#FFFFFF" fill-rule="evenodd"/><path d="M188 169 188.75 166 204.25 166 205 169Z" stroke="#2F528F" stroke-width="2" stroke-miterlimit="8" fill="#FFFFFF" fill-rule="evenodd"/><path d="M0 3 0.749997 0 16.25 0 17 3Z" stroke="#2F528F" stroke-width="2" stroke-miterlimit="8" fill="#FFFFFF" fill-rule="evenodd" transform="matrix(1 0 0 -1 188 193)"/><rect x="190" y="161" width="13" height="3" stroke="#2F528F" stroke-width="2" stroke-miterlimit="8" fill="#FFFFFF"/><path d="M193.267 181.481 197.809 177.212 197.311 176.682 199.366 176.746 199.303 178.801 198.805 178.272 194.263 182.54Z" stroke="#AE5A21" stroke-width="2" stroke-miterlimit="8" fill="#ED7D31" fill-rule="evenodd"/><text font-family="Calibri,Calibri_MSFontService,sans-serif" font-weight="400" font-size="11" transform="translate(337.328 198)">ETP003:<tspan font-family="Yu Gothic,Yu Gothic_MSFontService,sans-serif" font-size="11" x="34.6667" y="0">装置</tspan></text><path d="M337.328 198.57 351.328 198.57 365.328 198.57 379.328 198.57 393.328 198.57 393.328 199.57 379.328 199.57 365.328 199.57 351.328 199.57 337.328 199.57Z" fill-rule="evenodd"/><rect x="523.5" y="146.5" width="28" height="28" stroke="#2F528F" stroke-width="3" stroke-miterlimit="8" fill="#FFFFFF"/><path d="M528.5 160.5C528.5 156.082 532.306 152.5 537 152.5 541.694 152.5 545.5 156.082 545.5 160.5 545.5 164.918 541.694 168.5 537 168.5 532.306 168.5 528.5 164.918 528.5 160.5Z" stroke="#AE5A21" stroke-width="1.33333" stroke-miterlimit="8" fill="#FFFFFF" fill-rule="evenodd"/><path d="M523.5 142.5 524.5 138.5 550.5 138.5 551.5 142.5Z" stroke="#2F528F" stroke-width="3" stroke-miterlimit="8" fill="#FFFFFF" fill-rule="evenodd"/><path d="M0 5 1.24999 0 26.75 0 28 5Z" stroke="#2F528F" stroke-width="3" stroke-miterlimit="8" fill="#FFFFFF" fill-rule="evenodd" transform="matrix(1 0 0 -1 523.5 183.5)"/><rect x="526.5" y="129.5" width="22" height="5" stroke="#2F528F" stroke-width="3" stroke-miterlimit="8" fill="#FFFFFF"/><path d="M538.17 166.342 534.238 156.835 533.129 157.294 534.429 154.159 537.564 155.459 536.456 155.918 540.388 165.425Z" stroke="#AE5A21" stroke-width="1.33333" stroke-miterlimit="8" fill="#ED7D31" fill-rule="evenodd"/><text font-family="Calibri,Calibri_MSFontService,sans-serif" font-weight="400" font-size="11" transform="translate(508.487 195)">ETP003:<tspan font-family="Yu Gothic,Yu Gothic_MSFontService,sans-serif" font-size="11" x="34.6667" y="0">装置</tspan></text><path d="M508.487 196.123 522.487 196.123 536.487 196.123 550.487 196.123 564.487 196.123 564.487 197.123 550.487 197.123 536.487 197.123 522.487 197.123 508.487 197.123Z" fill-rule="evenodd"/><text font-family="Yu Gothic,Yu Gothic_MSFontService,sans-serif" font-weight="400" font-size="11" transform="translate(331.942 118)">温度：<tspan font-family="Calibri,Calibri_MSFontService,sans-serif" font-size="11" x="32" y="0">27.3</tspan><tspan font-family="MS Gothic,MS Gothic_MSFontService,sans-serif" font-size="11" x="50.6667" y="0">℃</tspan><tspan font-size="11" x="173.852" y="-1">温度：</tspan><tspan font-family="Calibri,Calibri_MSFontService,sans-serif" font-size="11" x="205.852" y="-1">21.</tspan><tspan font-family="Calibri,Calibri_MSFontService,sans-serif" font-size="11" x="219.185" y="-1">6</tspan><tspan font-family="MS Gothic,MS Gothic_MSFontService,sans-serif" font-size="11" x="224.518" y="-1">℃</tspan></text><path d="M466 178.5 466 171.25 432.5 171.25 432.5 156.75 466 156.75 466 149.5 480.5 164Z" stroke="#AE5A21" stroke-width="1.33333" stroke-miterlimit="8" stroke-opacity="0.501961" fill="#ED7D31" fill-rule="evenodd" fill-opacity="0.501961"/><rect x="280" y="250" width="355" height="159" fill="#F2F2F2"/><text font-family="Yu Gothic,Yu Gothic_MSFontService,sans-serif" font-weight="400" font-size="16" transform="translate(401.565 270)">インスタンス表</text><rect x="296.5" y="293.5" width="56" height="30" stroke="#000000" stroke-width="0.666667" stroke-miterlimit="8" fill="#FFFFFF"/><text font-family="Yu Gothic,Yu Gothic_MSFontService,sans-serif" font-weight="400" font-size="12" transform="translate(306.501 312)">装置<tspan font-family="Calibri,Calibri_MSFontService,sans-serif" font-size="12" x="24" y="0">ID</tspan></text><rect x="352.5" y="293.5" width="37" height="30" stroke="#000000" stroke-width="0.666667" stroke-miterlimit="8" fill="#FFFFFF"/><text font-family="Yu Gothic,Yu Gothic_MSFontService,sans-serif" font-weight="400" font-size="12" transform="translate(364.191 297)">・<tspan font-size="12" x="0" y="14">・</tspan><tspan font-size="12" x="0" y="29">・</tspan></text><rect x="389.5" y="293.5" width="64" height="30" stroke="#000000" stroke-width="0.666667" stroke-miterlimit="8" fill="#FFFFFF"/><text font-family="Yu Gothic,Yu Gothic_MSFontService,sans-serif" font-weight="400" font-size="12" transform="translate(408.942 312)">温度</text><rect x="296.5" y="323.5" width="56" height="29" stroke="#000000" stroke-width="0.666667" stroke-miterlimit="8" fill="#FFFFFF"/><text font-family="Calibri,Calibri_MSFontService,sans-serif" font-weight="400" font-size="12" transform="translate(305.751 341)">ETP003</text><rect x="352.5" y="323.5" width="37" height="29" stroke="#000000" stroke-width="0.666667" stroke-miterlimit="8" fill="#FFFFFF"/><text font-family="Yu Gothic,Yu Gothic_MSFontService,sans-serif" font-weight="400" font-size="12" transform="translate(361.304 327)">・<tspan font-size="12" x="0" y="14">・</tspan><tspan font-size="12" x="0" y="29">・</tspan></text><rect x="389.5" y="323.5" width="64" height="29" stroke="#000000" stroke-width="0.666667" stroke-miterlimit="8" fill="#FFFFFF"/><text font-family="Calibri,Calibri_MSFontService,sans-serif" font-weight="400" font-size="12" transform="translate(410.442 341)">27.3</text><rect x="296.5" y="352.5" width="56" height="29" stroke="#000000" stroke-width="0.666667" stroke-miterlimit="8" fill="#FFFFFF"/><text font-family="Yu Gothic,Yu Gothic_MSFontService,sans-serif" font-weight="400" font-size="12" transform="translate(305.668 370)">・・・</text><rect x="352.5" y="352.5" width="37" height="29" stroke="#000000" stroke-width="0.666667" stroke-miterlimit="8" fill="#FFFFFF"/><text font-family="Yu Gothic,Yu Gothic_MSFontService,sans-serif" font-weight="400" font-size="12" transform="translate(361.304 356)">・<tspan font-size="12" x="0" y="14">・</tspan><tspan font-size="12" x="0" y="29">・</tspan></text><rect x="389.5" y="352.5" width="64" height="29" stroke="#000000" stroke-width="0.666667" stroke-miterlimit="8" fill="#FFFFFF"/><text font-family="Yu Gothic,Yu Gothic_MSFontService,sans-serif" font-weight="400" font-size="12" transform="translate(402.942 370)">・・・</text><rect x="468.5" y="293.5" width="56" height="30" stroke="#000000" stroke-width="0.666667" stroke-miterlimit="8" fill="#FFFFFF"/><text font-family="Yu Gothic,Yu Gothic_MSFontService,sans-serif" font-weight="400" font-size="12" transform="translate(479.195 312)">装置<tspan font-family="Calibri,Calibri_MSFontService,sans-serif" font-size="12" x="24" y="0">ID</tspan></text><rect x="524.5" y="293.5" width="37" height="30" stroke="#000000" stroke-width="0.666667" stroke-miterlimit="8" fill="#FFFFFF"/><text font-family="Yu Gothic,Yu Gothic_MSFontService,sans-serif" font-weight="400" font-size="12" transform="translate(536.884 297)">・<tspan font-size="12" x="0" y="14">・</tspan><tspan font-size="12" x="0" y="29">・</tspan></text><rect x="561.5" y="293.5" width="65" height="30" stroke="#000000" stroke-width="0.666667" stroke-miterlimit="8" fill="#FFFFFF"/><text font-family="Yu Gothic,Yu Gothic_MSFontService,sans-serif" font-weight="400" font-size="12" transform="translate(581.635 312)">温度</text><rect x="468.5" y="323.5" width="56" height="29" stroke="#000000" stroke-width="0.666667" stroke-miterlimit="8" fill="#FFFFFF"/><text font-family="Calibri,Calibri_MSFontService,sans-serif" font-weight="400" font-size="12" transform="translate(478.445 341)">ETP003</text><rect x="524.5" y="323.5" width="37" height="29" stroke="#000000" stroke-width="0.666667" stroke-miterlimit="8" fill="#FFFFFF"/><text font-family="Yu Gothic,Yu Gothic_MSFontService,sans-serif" font-weight="400" font-size="12" transform="translate(533.997 327)">・<tspan font-size="12" x="0" y="14">・</tspan><tspan font-size="12" x="0" y="29">・</tspan></text><rect x="561.5" y="323.5" width="65" height="29" stroke="#000000" stroke-width="0.666667" stroke-miterlimit="8" fill="#FFFFFF"/><text font-family="Calibri,Calibri_MSFontService,sans-serif" font-weight="400" font-size="12" transform="translate(583.135 341)">21.6</text><rect x="468.5" y="352.5" width="56" height="29" stroke="#000000" stroke-width="0.666667" stroke-miterlimit="8" fill="#FFFFFF"/><text font-family="Yu Gothic,Yu Gothic_MSFontService,sans-serif" font-weight="400" font-size="12" transform="translate(478.361 370)">・・・</text><rect x="524.5" y="352.5" width="37" height="29" stroke="#000000" stroke-width="0.666667" stroke-miterlimit="8" fill="#FFFFFF"/><text font-family="Yu Gothic,Yu Gothic_MSFontService,sans-serif" font-weight="400" font-size="12" transform="translate(533.997 356)">・<tspan font-size="12" x="0" y="14">・</tspan><tspan font-size="12" x="0" y="29">・</tspan></text><rect x="561.5" y="352.5" width="65" height="29" stroke="#000000" stroke-width="0.666667" stroke-miterlimit="8" fill="#FFFFFF"/><text font-family="Yu Gothic,Yu Gothic_MSFontService,sans-serif" font-weight="400" font-size="12" transform="translate(575.635 370)">・・・</text><rect x="568.5" y="329.5" width="49" height="17" stroke="#FF0000" stroke-width="1.33333" stroke-miterlimit="8" fill="none"/><path d="M453.501 337.167 561.587 337.367 561.586 338.034 453.499 337.833ZM560.261 333.698 568.254 337.713 560.246 341.698Z" fill="#FF0000"/><rect x="399.5" y="326.5" width="49" height="17" stroke="#FF0000" stroke-width="1.33333" stroke-miterlimit="8" fill="none"/><path d="M450.5 243.5 458 243.5 458 217.5 473 217.5 473 243.5 480.5 243.5 465.5 258.5Z" stroke="#AE5A21" stroke-width="1.33333" stroke-miterlimit="8" stroke-opacity="0.501961" fill="#ED7D31" fill-rule="evenodd" fill-opacity="0.501961"/></g></svg>