<svg width="607" height="521" xmlns="http://www.w3.org/2000/svg" xmlns:xlink="http://www.w3.org/1999/xlink" overflow="hidden"><defs><clipPath id="clip0"><rect x="51" y="69" width="607" height="521"/></clipPath></defs><g clip-path="url(#clip0)" transform="translate(-51 -69)"><rect x="52.5001" y="70.5001" width="605" height="519" stroke="#D9D9D9" stroke-width="1.33333" stroke-miterlimit="8" fill="none"/><rect x="120.5" y="131.5" width="199" height="51" stroke="#000000" stroke-width="1.33333" stroke-miterlimit="8" fill="#FFFFFF"/><text font-family="Yu Gothic,Yu Gothic_MSFontService,sans-serif" font-weight="400" font-size="11" transform="translate(179.489 146)">&lt;&lt; <tspan font-size="11" x="18.3333" y="0">interface</tspan><tspan font-size="11" x="62.1667" y="0"> </tspan>&gt;&gt;<tspan font-size="11" x="-1.24667" y="13">DomainClassDef</tspan><tspan font-style="oblique" font-size="11" x="-49.7467" y="25">GetProperties</tspan>(<tspan font-size="11" x="22.7533" y="25">)</tspan></text><rect x="120.5" y="223.5" width="199" height="51" stroke="#000000" stroke-width="1.33333" stroke-miterlimit="8" fill="#FFFFFF"/><text font-family="Yu Gothic,Yu Gothic_MSFontService,sans-serif" font-weight="400" font-size="11" transform="translate(179.501 238)">&lt;&lt; <tspan font-size="11" x="18.3333" y="0">interface</tspan><tspan font-size="11" x="62.1667" y="0"> </tspan>&gt;&gt;<tspan font-size="11" x="-20.58" y="13">DomainClass</tspan><tspan font-style="oblique" font-size="11" x="44.7533" y="13">ClassName</tspan></text><rect x="120.5" y="317.5" width="199" height="49" stroke="#000000" stroke-width="1.33333" stroke-miterlimit="8" fill="#FFFFFF"/><text font-family="Yu Gothic,Yu Gothic_MSFontService,sans-serif" font-weight="400" font-size="11" transform="translate(146.575 332)">DomainClass<tspan font-style="oblique" font-size="11" x="65.3333" y="0">ClassName</tspan><tspan font-size="11" x="121.667" y="0">Base</tspan><tspan font-size="11" x="-13.8333" y="13">GetProperties</tspan>(<tspan font-size="11" x="58.8333" y="13">)</tspan></text><rect x="99.5001" y="407.5" width="242" height="51" stroke="#000000" stroke-width="3" stroke-miterlimit="8" fill="#FFFFFF"/><text font-family="Yu Gothic,Yu Gothic_MSFontService,sans-serif" font-weight="700" font-size="11" transform="translate(109.031 422)">DomainClassClassNameAzureDigitalTwins<tspan font-weight="400" font-size="11" x="2.08667" y="13">dtId</tspan><tspan font-weight="400" font-size="11" x="24.42" y="13">:</tspan><tspan font-weight="400" font-size="11" x="30.42" y="13">string</tspan><tspan font-weight="400" font-size="11" x="2.08667" y="25">GetProperties</tspan><tspan font-weight="400" font-size="11" x="70.5867" y="25">(</tspan><tspan font-weight="400" font-size="11" x="74.7533" y="25">)</tspan></text><path d="M212.5 195.5 220.5 182.5 228.5 195.5Z" stroke="#000000" stroke-width="1.33333" stroke-miterlimit="8" fill="#FFFFFF" fill-rule="evenodd"/><path d="M0 0 0.160525 27.6016" stroke="#000000" stroke-width="0.666667" stroke-miterlimit="8" fill="none" fill-rule="evenodd" transform="matrix(-1 0 0 1 220.661 195.5)"/><path d="M212.5 289.5 220.5 275.5 228.5 289.5Z" stroke="#000000" stroke-width="1.33333" stroke-miterlimit="8" fill="#FFFFFF" fill-rule="evenodd"/><path d="M0 0 0.160525 27.6016" stroke="#000000" stroke-width="0.666667" stroke-miterlimit="8" fill="none" fill-rule="evenodd" transform="matrix(-1 0 0 1 220.661 289.5)"/><path d="M212.5 379.5 220.5 366.5 228.5 379.5Z" stroke="#000000" stroke-width="1.33333" stroke-miterlimit="8" fill="#FFFFFF" fill-rule="evenodd"/><path d="M220.5 379.5 220.661 407.102" stroke="#000000" stroke-width="0.666667" stroke-miterlimit="8" fill="none" fill-rule="evenodd"/><rect x="444.5" y="287.5" width="150" height="109" stroke="#000000" stroke-width="1.33333" stroke-miterlimit="8" fill="#FFFFFF"/><text font-family="Yu Gothic,Yu Gothic_MSFontService,sans-serif" font-weight="400" font-size="11" transform="translate(480.257 302)">&lt;&lt; <tspan font-size="11" x="18.3333" y="0">abstract</tspan><tspan font-size="11" x="62" y="0">&gt;&gt;</tspan><tspan font-size="11" x="-27.08" y="13">InstanceRepository</tspan><tspan font-size="11" x="-21.08" y="25">SyncChangedStates</tspan><tspan font-size="11" x="78.0867" y="25">()</tspan><tspan font-style="oblique" font-size="11" x="-21.08" y="38">UpdateCInstance</tspan><tspan font-size="11" x="64.5867" y="38">()</tspan><tspan font-style="oblique" font-size="11" x="-21.08" y="51">UpdateCLink</tspan><tspan font-size="11" x="43.2534" y="51">()</tspan><tspan font-style="oblique" font-size="11" x="-21.08" y="64">UpdateState</tspan><tspan font-size="11" x="41.2534" y="64">()</tspan><tspan font-style="oblique" font-size="11" x="-21.08" y="77">SelectInstances</tspan><tspan font-size="11" x="57.5867" y="77">(</tspan><tspan font-size="11" x="61.7534" y="77">)</tspan></text><rect x="411.5" y="438.5" width="216" height="108" stroke="#000000" stroke-width="3" stroke-miterlimit="8" fill="#FFFFFF"/><text font-family="Yu Gothic,Yu Gothic_MSFontService,sans-serif" font-weight="700" font-size="11" transform="translate(420.379 452)">InstanceRepositoryAzureDigitalTwins<tspan font-weight="400" font-size="11" x="6" y="13">UpdateCInstance</tspan><tspan font-weight="400" font-size="11" x="91.6667" y="13">()</tspan><tspan font-weight="400" font-size="11" x="6" y="25">UpdateCLink</tspan><tspan font-weight="400" font-size="11" x="70.3333" y="25">()</tspan><tspan font-weight="400" font-size="11" x="6" y="38">UpdateState</tspan><tspan font-weight="400" font-size="11" x="68.3333" y="38">()</tspan><tspan font-weight="400" font-size="11" x="6" y="51">SelectInstances</tspan><tspan font-weight="400" font-size="11" x="84.6667" y="51">(</tspan><tspan font-weight="400" font-size="11" x="88.8333" y="51">)</tspan></text><path d="M511.5 410.5 519.5 397.5 527.5 410.5Z" stroke="#000000" stroke-width="1.33333" stroke-miterlimit="8" fill="#FFFFFF" fill-rule="evenodd"/><path d="M519.5 410.5 519.516 437.623" stroke="#000000" stroke-width="0.666667" stroke-miterlimit="8" fill="none" fill-rule="evenodd"/><path d="M0.662-0.332594 124.211-0.19454 124.211 0.472126 0.661255 0.334072ZM8.4865 4.96408-0.00154492-1.76422e-06 8.49757-4.9451C8.65669-5.03768 8.86074-4.98374 8.95332-4.82462 9.04591-4.6655 8.99197-4.46146 8.83284-4.36887L0.827635 0.288851 0.828278-0.287001 8.82306 4.3886C8.98197 4.48154 9.03545 4.68571 8.94252 4.84462 8.84958 5.00353 8.64541 5.05702 8.4865 4.96408Z" transform="matrix(-1 0 0 1 443.711 341.5)"/><text font-family="Yu Gothic,Yu Gothic_MSFontService,sans-serif" font-weight="400" font-size="11" transform="translate(346.245 358)">instanceRepository</text><path d="M0-0.333333 99.1683-0.333333 99.1683 198.796 98.5016 198.796 98.5016 0 98.835 0.333333 0 0.333333ZM103.79 190.964 98.835 199.458 93.8804 190.964C93.7876 190.805 93.8413 190.601 94.0003 190.508 94.1594 190.415 94.3635 190.469 94.4562 190.628L99.1229 198.628 98.547 198.628 103.214 190.628C103.306 190.469 103.511 190.415 103.67 190.508 103.829 190.601 103.882 190.805 103.79 190.964Z" transform="matrix(-1.83697e-16 -1 -1 1.83697e-16 518.956 255.335)"/><path d="M0 15 8 0 16 15 8 30Z" stroke="#000000" stroke-width="1.33333" stroke-miterlimit="8" fill="#FFFFFF" fill-rule="evenodd" transform="matrix(-1 0 0 1 527.5 255.5)"/><text font-family="Yu Gothic,Yu Gothic_MSFontService,sans-serif" font-weight="400" font-size="11" transform="translate(338.884 148)">domainInstances</text><path d="M0.659984-0.333333 3.32665-0.333333 3.32665 0.333333 0.659984 0.333333ZM5.32665-0.333333 7.99332-0.333333 7.99332 0.333333 5.32665 0.333333ZM9.99332-0.333333 12.66-0.333333 12.66 0.333333 9.99332 0.333333ZM14.66-0.333333 17.3267-0.333333 17.3267 0.333333 14.66 0.333333ZM19.3266-0.333333 21.9933-0.333333 21.9933 0.333333 19.3266 0.333333ZM23.9933-0.333333 26.66-0.333333 26.66 0.333333 23.9933 0.333333ZM28.66-0.333333 31.3266-0.333333 31.3266 0.333333 28.66 0.333333ZM33.3266-0.333333 34.4498-0.333333 34.4498 1.87689 33.7831 1.87689 33.7831 0 34.1164 0.333333 33.3266 0.333333ZM34.4498 3.87689 34.4498 6.54355 33.7831 6.54355 33.7831 3.87689ZM34.4498 8.54355 34.4498 11.2102 33.7831 11.2102 33.7831 8.54355ZM34.4498 13.2102 34.4498 15.8769 33.7831 15.8769 33.7831 13.2102ZM34.4498 17.8769 34.4498 20.5436 33.7831 20.5436 33.7831 17.8769ZM34.4498 22.5436 34.4498 25.2102 33.7831 25.2102 33.7831 22.5436ZM34.4498 27.2102 34.4498 29.8769 33.7831 29.8769 33.7831 27.2102ZM34.4498 31.8769 34.4498 34.5436 33.7831 34.5436 33.7831 31.8769ZM34.4498 36.5436 34.4498 39.2102 33.7831 39.2102 33.7831 36.5436ZM34.4498 41.2102 34.4498 43.8769 33.7831 43.8769 33.7831 41.2102ZM34.4498 45.8769 34.4498 48.5436 33.7831 48.5436 33.7831 45.8769ZM34.4498 50.5436 34.4498 53.2102 33.7831 53.2102 33.7831 50.5436ZM34.4498 55.2102 34.4498 57.8769 33.7831 57.8769 33.7831 55.2102ZM34.4498 59.8769 34.4498 62.5436 33.7831 62.5436 33.7831 59.8769ZM34.4498 64.5436 34.4498 67.2102 33.7831 67.2102 33.7831 64.5436ZM34.4498 69.2102 34.4498 71.8769 33.7831 71.8769 33.7831 69.2102ZM34.4498 73.8769 34.4498 76.5436 33.7831 76.5436 33.7831 73.8769ZM34.4498 78.5436 34.4498 81.2102 33.7831 81.2102 33.7831 78.5436ZM34.4498 83.2102 34.4498 85.8769 33.7831 85.8769 33.7831 83.2102ZM34.4498 87.8769 34.4498 90.5436 33.7831 90.5436 33.7831 87.8769ZM34.4498 92.5436 34.4498 95.2102 33.7831 95.2102 33.7831 92.5436ZM34.4498 97.2102 34.4498 99.8769 33.7831 99.8769 33.7831 97.2102ZM34.4498 101.877 34.4498 104.544 33.7831 104.544 33.7831 101.877ZM34.4498 106.544 34.4498 109.21 33.7831 109.21 33.7831 106.544ZM34.4498 111.21 34.4498 113.877 33.7831 113.877 33.7831 111.21ZM34.4498 115.877 34.4498 118.544 33.7831 118.544 33.7831 115.877ZM34.4498 120.544 34.4498 123.21 33.7831 123.21 33.7831 120.544ZM34.4498 125.21 34.4498 127.877 33.7831 127.877 33.7831 125.21ZM34.4498 129.877 34.4498 132.544 33.7831 132.544 33.7831 129.877ZM34.4498 134.544 34.4498 137.21 33.7831 137.21 33.7831 134.544ZM34.4498 139.21 34.4498 141.877 33.7831 141.877 33.7831 139.21ZM34.4498 143.877 34.4498 146.544 33.7831 146.544 33.7831 143.877ZM34.4498 148.544 34.4498 151.21 33.7831 151.21 33.7831 148.544ZM34.4498 153.21 34.4498 155.877 33.7831 155.877 33.7831 153.21ZM34.4498 157.877 34.4498 160.544 33.7831 160.544 33.7831 157.877ZM34.4498 162.544 34.4498 165.21 33.7831 165.21 33.7831 162.544ZM34.4498 167.21 34.4498 169.877 33.7831 169.877 33.7831 167.21ZM34.4498 171.877 34.4498 174.544 33.7831 174.544 33.7831 171.877ZM34.4498 176.544 34.4498 179.21 33.7831 179.21 33.7831 176.544ZM34.4498 181.21 34.4498 183.877 33.7831 183.877 33.7831 181.21ZM34.4498 185.877 34.4498 188.544 33.7831 188.544 33.7831 185.877ZM34.4498 190.544 34.4498 191.025 33.7831 191.025 33.7831 190.544ZM8.49204 4.95459-0.00154497 0 8.49204-4.95459C8.65106-5.04735 8.85517-4.99364 8.94793-4.83462 9.04069-4.67561 8.98697-4.4715 8.82796-4.37874L0.827957 0.287926 0.827957-0.287926 8.82796 4.37874C8.98697 4.4715 9.04069 4.67561 8.94793 4.83462 8.85517 4.99364 8.65106 5.04735 8.49204 4.95459Z" transform="matrix(1.83697e-16 1 1 -1.83697e-16 220.5 458.5)"/><text font-family="Yu Gothic,Yu Gothic_MSFontService,sans-serif" font-weight="400" font-size="11" transform="translate(246.214 101)">概念情報<tspan font-size="11" x="42.6667" y="0">クラス</tspan>全<tspan font-size="11" x="85.3333" y="0">てが</tspan><tspan font-size="11" x="106.667" y="0">持</tspan><tspan font-size="11" x="117.333" y="0">つべき</tspan>操作<tspan font-size="11" x="170.667" y="0">とプロパティを</tspan><tspan font-size="11" x="244.5" y="0">定義</tspan></text><path d="M386.654 109.5C386.654 115.11 345.115 120.72 303.577 120.72 262.038 120.72 220.5 126.33 220.5 131.94" stroke="#000000" stroke-width="0.333333" stroke-miterlimit="8" stroke-dasharray="0.333333 0.333333" fill="none" fill-rule="evenodd"/><text font-family="Yu Gothic,Yu Gothic_MSFontService,sans-serif" font-weight="400" font-size="11" transform="translate(332.077 200)">個々<tspan font-size="11" x="21.3333" y="0">の</tspan><tspan font-size="11" x="32" y="0">概念</tspan><tspan font-size="11" x="53.3333" y="0">情報</tspan><tspan font-size="11" x="74.6667" y="0">クラスが</tspan><tspan font-size="11" x="117.333" y="0">持</tspan><tspan font-size="11" x="128" y="0">つべき</tspan><tspan font-size="11" x="0" y="13">操作</tspan><tspan font-size="11" x="21.3333" y="13">とプロパティを</tspan><tspan font-size="11" x="95.1667" y="13">定義</tspan></text><path d="M415.286 221.5C415.286 235.058 367.393 248.616 319.5 248.616" stroke="#000000" stroke-width="0.333333" stroke-miterlimit="8" stroke-dasharray="0.333333 0.333333" fill="none" fill-rule="evenodd"/><text font-family="Yu Gothic,Yu Gothic_MSFontService,sans-serif" font-weight="400" font-size="11" transform="translate(85.1834 291)">永続的ストレージの有無に<tspan font-size="11" x="0" y="13">かかわらず共通な実装</tspan></text><path d="M76.5001 294.5C73.5298 294.5 70.5595 306.477 70.5595 318.455 70.5595 330.432 95.8091 342.409 121.059 342.409" stroke="#000000" stroke-width="0.333333" stroke-miterlimit="8" stroke-dasharray="0.333333 0.333333" fill="none" fill-rule="evenodd"/><text font-family="Yu Gothic,Yu Gothic_MSFontService,sans-serif" font-weight="400" font-size="11" transform="translate(78.8745 509)">Azure Digital<tspan font-size="11" x="66" y="0">Twins</tspan><tspan font-size="11" x="98.5" y="0">と</tspan><tspan font-size="11" x="0" y="13">組み合わせる場合の処理</tspan></text><path d="M99.5001 432.5C87.5 432.5 75.4999 443.372 75.4999 454.244 75.4999 465.115 91.9741 475.987 108.448 475.987 124.923 475.987 141.397 485.086 141.397 494.185" stroke="#000000" stroke-width="0.333333" stroke-miterlimit="8" stroke-dasharray="0.333333 0.333333" fill="none" fill-rule="evenodd"/></g></svg>