<svg width="607" height="761" xmlns="http://www.w3.org/2000/svg" xmlns:xlink="http://www.w3.org/1999/xlink" overflow="hidden"><defs><filter id="fx0" x="-10%" y="-10%" width="120%" height="120%" filterUnits="userSpaceOnUse" primitiveUnits="userSpaceOnUse"><feComponentTransfer color-interpolation-filters="sRGB"><feFuncR type="discrete" tableValues="0 0"/><feFuncG type="discrete" tableValues="0 0"/><feFuncB type="discrete" tableValues="0 0"/><feFuncA type="linear" slope="0.431373" intercept="0"/></feComponentTransfer><feGaussianBlur stdDeviation="0.413243 0.413243"/></filter><filter id="fx1" x="-10%" y="-10%" width="120%" height="120%" filterUnits="userSpaceOnUse" primitiveUnits="userSpaceOnUse"><feComponentTransfer color-interpolation-filters="sRGB"><feFuncR type="discrete" tableValues="0 0"/><feFuncG type="discrete" tableValues="0 0"/><feFuncB type="discrete" tableValues="0 0"/><feFuncA type="linear" slope="0.431373" intercept="0"/></feComponentTransfer><feGaussianBlur stdDeviation="0.413243 0.413243"/></filter><filter id="fx2" x="-10%" y="-10%" width="120%" height="120%" filterUnits="userSpaceOnUse" primitiveUnits="userSpaceOnUse"><feComponentTransfer color-interpolation-filters="sRGB"><feFuncR type="discrete" tableValues="0 0"/><feFuncG type="discrete" tableValues="0 0"/><feFuncB type="discrete" tableValues="0 0"/><feFuncA type="linear" slope="0.431373" intercept="0"/></feComponentTransfer><feGaussianBlur stdDeviation="0.463613 0.463613"/></filter><filter id="fx3" x="-10%" y="-10%" width="120%" height="120%" filterUnits="userSpaceOnUse" primitiveUnits="userSpaceOnUse"><feComponentTransfer color-interpolation-filters="sRGB"><feFuncR type="discrete" tableValues="0 0"/><feFuncG type="discrete" tableValues="0 0"/><feFuncB type="discrete" tableValues="0 0"/><feFuncA type="linear" slope="0.431373" intercept="0"/></feComponentTransfer><feGaussianBlur stdDeviation="0.463613 0.463613"/></filter><filter id="fx4" x="-10%" y="-10%" width="120%" height="120%" filterUnits="userSpaceOnUse" primitiveUnits="userSpaceOnUse"><feComponentTransfer color-interpolation-filters="sRGB"><feFuncR type="discrete" tableValues="0 0"/><feFuncG type="discrete" tableValues="0 0"/><feFuncB type="discrete" tableValues="0 0"/><feFuncA type="linear" slope="0.431373" intercept="0"/></feComponentTransfer><feGaussianBlur stdDeviation="0.463613 0.463613"/></filter><filter id="fx5" x="-10%" y="-10%" width="120%" height="120%" filterUnits="userSpaceOnUse" primitiveUnits="userSpaceOnUse"><feComponentTransfer color-interpolation-filters="sRGB"><feFuncR type="discrete" tableValues="0 0"/><feFuncG type="discrete" tableValues="0 0"/><feFuncB type="discrete" tableValues="0 0"/><feFuncA type="linear" slope="0.431373" intercept="0"/></feComponentTransfer><feGaussianBlur stdDeviation="0.463613 0.463613"/></filter><filter id="fx6" x="-10%" y="-10%" width="120%" height="120%" filterUnits="userSpaceOnUse" primitiveUnits="userSpaceOnUse"><feComponentTransfer color-interpolation-filters="sRGB"><feFuncR type="discrete" tableValues="0 0"/><feFuncG type="discrete" tableValues="0 0"/><feFuncB type="discrete" tableValues="0 0"/><feFuncA type="linear" slope="0.431373" intercept="0"/></feComponentTransfer><feGaussianBlur stdDeviation="0.463613 0.463613"/></filter><clipPath id="clip7"><rect x="60" y="69" width="607" height="761"/></clipPath><clipPath id="clip8"><rect x="10" y="7" width="28" height="14"/></clipPath><clipPath id="clip9"><rect x="0" y="0" width="48" height="34"/></clipPath><clipPath id="clip10"><rect x="11" y="8" width="53" height="13"/></clipPath><clipPath id="clip11"><rect x="0" y="0" width="75" height="34"/></clipPath><clipPath id="clip12"><rect x="463" y="327" width="35" height="35"/></clipPath><clipPath id="clip13"><rect x="463" y="327" width="35" height="35"/></clipPath><clipPath id="clip14"><rect x="463" y="327" width="35" height="35"/></clipPath><linearGradient x1="481.008" y1="326.292" x2="475.091" y2="365.99" gradientUnits="userSpaceOnUse" spreadMethod="pad" id="fill15"><stop offset="0" stop-color="#32BEDD"/><stop offset="1" stop-color="#198AB3"/></linearGradient><linearGradient x1="483.996" y1="341.366" x2="491.08" y2="364.073" gradientUnits="userSpaceOnUse" spreadMethod="pad" id="fill16"><stop offset="0" stop-color="#50E6FF"/><stop offset="0.997" stop-color="#32BEDD"/><stop offset="1" stop-color="#32BEDD"/></linearGradient><linearGradient x1="462.673" y1="334.999" x2="487.446" y2="348.185" gradientUnits="userSpaceOnUse" spreadMethod="pad" id="fill17"><stop offset="0" stop-color="#FFFFFF"/><stop offset="1" stop-color="#9CEBFF"/></linearGradient><clipPath id="clip18"><rect x="324" y="237" width="35" height="35"/></clipPath><clipPath id="clip19"><rect x="324" y="237" width="35" height="35"/></clipPath><clipPath id="clip20"><rect x="324" y="237" width="35" height="35"/></clipPath><linearGradient x1="341.743" y1="269.778" x2="341.743" y2="238.747" gradientUnits="userSpaceOnUse" spreadMethod="pad" id="fill21"><stop offset="0" stop-color="#FEA11B"/><stop offset="0.284" stop-color="#FEA51A"/><stop offset="0.547" stop-color="#FEB018"/><stop offset="0.8" stop-color="#FFC314"/><stop offset="1" stop-color="#FFD70F"/></linearGradient><clipPath id="clip22"><rect x="238" y="449" width="36" height="35"/></clipPath><clipPath id="clip23"><rect x="238" y="449" width="36" height="35"/></clipPath><clipPath id="clip24"><rect x="238" y="449" width="36" height="35"/></clipPath><clipPath id="clip25"><rect x="168" y="563" width="35" height="35"/></clipPath><clipPath id="clip26"><rect x="168" y="563" width="35" height="35"/></clipPath><clipPath id="clip27"><rect x="168" y="563" width="35" height="35"/></clipPath><linearGradient x1="185.743" y1="595.778" x2="185.743" y2="564.747" gradientUnits="userSpaceOnUse" spreadMethod="pad" id="fill28"><stop offset="0" stop-color="#FEA11B"/><stop offset="0.284" stop-color="#FEA51A"/><stop offset="0.547" stop-color="#FEB018"/><stop offset="0.8" stop-color="#FFC314"/><stop offset="1" stop-color="#FFD70F"/></linearGradient><clipPath id="clip29"><rect x="12" y="8" width="18" height="18"/></clipPath><clipPath id="clip30"><rect x="0" y="0" width="41" height="39"/></clipPath><clipPath id="clip31"><rect x="11" y="8" width="18" height="18"/></clipPath><clipPath id="clip32"><rect x="0" y="0" width="41" height="39"/></clipPath><clipPath id="clip33"><rect x="12" y="8" width="18" height="18"/></clipPath><clipPath id="clip34"><rect x="0" y="0" width="41" height="39"/></clipPath><clipPath id="clip35"><rect x="12" y="8" width="18" height="18"/></clipPath><clipPath id="clip36"><rect x="0" y="0" width="41" height="39"/></clipPath><clipPath id="clip37"><rect x="11" y="8" width="19" height="18"/></clipPath><clipPath id="clip38"><rect x="0" y="0" width="41" height="39"/></clipPath><clipPath id="clip39"><rect x="600" y="238" width="35" height="35"/></clipPath><clipPath id="clip40"><rect x="600" y="238" width="35" height="35"/></clipPath><clipPath id="clip41"><rect x="600" y="238" width="35" height="35"/></clipPath><linearGradient x1="617.743" y1="270.778" x2="617.743" y2="239.747" gradientUnits="userSpaceOnUse" spreadMethod="pad" id="fill42"><stop offset="0" stop-color="#FEA11B"/><stop offset="0.284" stop-color="#FEA51A"/><stop offset="0.547" stop-color="#FEB018"/><stop offset="0.8" stop-color="#FFC314"/><stop offset="1" stop-color="#FFD70F"/></linearGradient><clipPath id="clip43"><rect x="579" y="753" width="35" height="35"/></clipPath><clipPath id="clip44"><rect x="579" y="753" width="35" height="35"/></clipPath><clipPath id="clip45"><rect x="579" y="753" width="35" height="35"/></clipPath><linearGradient x1="596.743" y1="785.778" x2="596.743" y2="754.747" gradientUnits="userSpaceOnUse" spreadMethod="pad" id="fill46"><stop offset="0" stop-color="#FEA11B"/><stop offset="0.284" stop-color="#FEA51A"/><stop offset="0.547" stop-color="#FEB018"/><stop offset="0.8" stop-color="#FFC314"/><stop offset="1" stop-color="#FFD70F"/></linearGradient></defs><g clip-path="url(#clip7)" transform="translate(-60 -69)"><rect x="61.5001" y="70.5001" width="605" height="759" stroke="#D9D9D9" stroke-width="1.33333" stroke-miterlimit="8" fill="none"/><rect x="126.5" y="102.5" width="472" height="54" stroke="#000000" stroke-width="1.33333" stroke-miterlimit="8" fill="#FFC000"/><g clip-path="url(#clip8)" filter="url(#fx0)" transform="translate(312 115)"><g clip-path="url(#clip9)"><path d="M3.65625-5.89062C4.11328-5.48861 4.49414-5.11621 4.79883-4.77344 5.18815-5.61979 5.48649-6.55924 5.69385-7.5918L3.84668-7.5918C3.30078-6.4196 2.56445-5.33203 1.6377-4.3291 1.52344-4.19792 1.43669-4.13232 1.37744-4.13232 1.3182-4.13232 1.24414-4.21908 1.15527-4.39258 0.998698-4.6888 0.782878-4.95329 0.507812-5.18604 1.7985-6.47672 2.70833-8.01074 3.2373-9.78809 3.33887-10.1309 3.396-10.4715 3.40869-10.8101 3.99268-10.7127 4.4349-10.6175 4.73535-10.5244 4.86654-10.4863 4.93213-10.4271 4.93213-10.3467 4.93213-10.2578 4.90039-10.1838 4.83691-10.1245 4.77767-10.0653 4.69092-9.8431 4.57666-9.45801 4.43278-9.0306 4.35872-8.81055 4.35449-8.79785L5.69385-8.79785C5.86312-8.79785 5.9943-8.82324 6.0874-8.87402 6.15511-8.90788 6.21435-8.9248 6.26514-8.9248 6.39209-8.9248 6.58252-8.80843 6.83643-8.57568 7.09033-8.35563 7.21728-8.2054 7.21729-8.125 7.21728-8.07845 7.17285-8.00439 7.08398-7.90283L7.00781-7.77588C7.36751-7.18766 7.80127-6.6333 8.30908-6.11279L8.30908-8.86133C8.30908-9.72461 8.27311-10.3826 8.20117-10.8354 8.79362-10.8228 9.27181-10.7889 9.63574-10.7339 9.76693-10.7212 9.83252-10.6789 9.83252-10.6069 9.83252-10.5646 9.80924-10.4779 9.7627-10.3467 9.70345-10.1901 9.67383-9.70768 9.67383-8.89941L9.67383-4.96387C10.444-4.42643 11.4618-3.90804 12.7271-3.40869 12.4858-3.09977 12.2954-2.757 12.1558-2.38037 12.0711-2.16455 11.9928-2.05664 11.9209-2.05664 11.8743-2.05664 11.7749-2.09049 11.6226-2.1582 10.8862-2.50521 10.2367-2.86914 9.67383-3.25L9.67383-1.37744 9.69922 0.882324C9.69922 0.950033 9.69075 0.99235 9.67383 1.00928 9.6569 1.02197 9.6167 1.02832 9.55322 1.02832L8.42334 1.02832C8.35563 1.02832 8.31543 1.01986 8.30273 1.00293 8.29004 0.986003 8.28369 0.945801 8.28369 0.882324L8.30908-1.37744 8.30908-4.3291C7.70394-4.89616 7.16227-5.53727 6.68408-6.25244 6.27783-4.68245 5.63672-3.30501 4.76074-2.12012 4.02441-1.12988 3.09131-0.228516 1.96143 0.583984 1.80062 0.706706 1.69694 0.768066 1.65039 0.768066 1.60807 0.768066 1.51286 0.681315 1.36475 0.507812 1.17855 0.26237 0.926758 0.0317383 0.609375-0.184082 2.13281-1.08968 3.31559-2.2238 4.15771-3.58643 3.75993-4.05615 3.33252-4.49837 2.87549-4.91309 2.82471-4.9681 2.79932-5.0083 2.79932-5.03369 2.79932-5.07178 2.82471-5.12256 2.87549-5.18604L3.40869-5.87793C3.45524-5.93717 3.49333-5.9668 3.52295-5.9668 3.5568-5.9668 3.60124-5.94141 3.65625-5.89062ZM22.5946-1.91064C22.6242-1.91064 22.6686-1.91064 22.7279-1.91064 23.8451-1.91064 24.4036-2.26611 24.4036-2.97705 24.4036-3.43408 24.2788-3.86149 24.0291-4.25928 23.7837-4.65283 23.3499-5.13525 22.7279-5.70654 23.223-6.73909 23.6694-7.87533 24.0672-9.11523L22.2454-9.11523 22.2454-1.83447 22.2708 0.882324C22.2708 0.950033 22.2624 0.990234 22.2454 1.00293 22.2285 1.01562 22.1904 1.02197 22.1312 1.02197L21.0838 1.02197C21.0119 1.02197 20.9674 1.01351 20.9505 0.996582 20.9378 0.979655 20.9315 0.941569 20.9315 0.882324L20.9569-1.82178 20.9569-7.43945 20.9315-10.1753C20.9315-10.2472 20.9421-10.2896 20.9632-10.3022 20.9801-10.3149 21.0225-10.3213 21.0902-10.3213L22.2454-10.2959 24.3275-10.2959C24.4883-10.2959 24.5962-10.3086 24.6512-10.334 24.7316-10.3594 24.7972-10.3721 24.848-10.3721 24.9495-10.3721 25.1315-10.2409 25.3939-9.97852 25.6012-9.74154 25.7049-9.56592 25.7049-9.45166 25.7049-9.37126 25.6647-9.29297 25.5843-9.2168 25.5081-9.16178 25.4172-9.00098 25.3114-8.73438 24.922-7.70182 24.5285-6.76237 24.1307-5.91602 24.7951-5.3151 25.2394-4.76074 25.4637-4.25293 25.633-3.86784 25.7176-3.40869 25.7176-2.87549 25.7176-1.54248 24.9538-0.804036 23.4261-0.660156 23.3161-0.651693 23.2441-0.647461 23.2103-0.647461 23.1172-0.647461 23.0558-0.677083 23.0262-0.736328 23.0093-0.778646 22.9881-0.88444 22.9627-1.05371 22.8993-1.41764 22.7765-1.70329 22.5946-1.91064ZM15.9359 0.869629 14.9329 0.869629C14.8356 0.869629 14.7869 0.825195 14.7869 0.736328L14.8123-1.45361 14.8123-2.39307 14.7869-3.84668C14.7869-3.91439 14.7954-3.95459 14.8123-3.96729 14.8293-3.97998 14.8695-3.98633 14.9329-3.98633L16.3739-3.96094 18.2464-3.96094 19.6873-3.98633C19.7635-3.98633 19.8101-3.97786 19.827-3.96094 19.8397-3.94401 19.846-3.90592 19.846-3.84668L19.8206-2.5708 19.8206-1.49805 19.846 0.685547C19.846 0.761719 19.8354 0.808268 19.8143 0.825195 19.7974 0.837891 19.755 0.844238 19.6873 0.844238L18.6908 0.844238C18.6188 0.844238 18.5765 0.833659 18.5638 0.8125 18.5511 0.795573 18.5448 0.753255 18.5448 0.685547L18.5448 0.0888672 16.0755 0.0888672 16.0755 0.736328C16.0755 0.825195 16.029 0.869629 15.9359 0.869629ZM16.0755-2.83105 16.0755-1.05371 18.5448-1.05371 18.5448-2.83105ZM15.8026-4.93213 14.1331-4.90674C14.0485-4.90674 14.0062-4.95329 14.0062-5.04639L14.0062-5.98584C14.0062-6.07894 14.0485-6.12549 14.1331-6.12549L15.8026-6.1001 17.6878-6.1001C17.8698-6.56559 18.0285-7.06071 18.1639-7.58545 18.2104-7.74626 18.2464-7.96208 18.2718-8.23291 18.75-8.14404 19.1266-8.05729 19.4017-7.97266 19.5329-7.93034 19.5985-7.87321 19.5985-7.80127 19.5985-7.73356 19.5646-7.66585 19.4969-7.59814 19.4334-7.53467 19.3763-7.4331 19.3255-7.29346 19.1986-6.89144 19.0505-6.49365 18.8812-6.1001L20.3475-6.12549C20.4194-6.12549 20.4618-6.11702 20.4744-6.1001 20.4871-6.08317 20.4935-6.04508 20.4935-5.98584L20.4935-5.04639C20.4935-4.97868 20.485-4.93848 20.4681-4.92578 20.4512-4.91309 20.411-4.90674 20.3475-4.90674L18.6971-4.93213ZM16.0311-8.42334 14.4378-8.39795C14.3659-8.39795 14.3236-8.40641 14.3109-8.42334 14.2982-8.44027 14.2918-8.47835 14.2918-8.5376L14.2918-9.45166C14.2918-9.5236 14.3003-9.56803 14.3172-9.58496 14.3341-9.59766 14.3743-9.604 14.4378-9.604L16.0311-9.57861 16.6214-9.57861 16.6214-9.81348C16.6214-10.2959 16.5939-10.6556 16.5389-10.8926 16.814-10.8841 17.252-10.8545 17.8529-10.8037 17.9925-10.7868 18.0623-10.7466 18.0623-10.6831 18.0623-10.6323 18.0327-10.5456 17.9735-10.4229 17.9354-10.3424 17.9163-10.1351 17.9163-9.80078L17.9163-9.57861 18.5828-9.57861 20.1698-9.604C20.2375-9.604 20.2777-9.59554 20.2904-9.57861 20.3031-9.56169 20.3094-9.51937 20.3094-9.45166L20.3094-8.5376C20.3094-8.46989 20.3009-8.42969 20.284-8.41699 20.2671-8.4043 20.229-8.39795 20.1698-8.39795L18.5828-8.42334ZM15.1615-7.83936C15.1445-7.88167 15.1361-7.91341 15.1361-7.93457 15.1361-7.96842 15.1932-8.00228 15.3075-8.03613L16.0184-8.22656C16.0734-8.23926 16.1136-8.24561 16.139-8.24561 16.1898-8.24561 16.2321-8.2054 16.266-8.125 16.4606-7.62565 16.6003-7.14958 16.6849-6.69678 16.6891-6.66292 16.6912-6.63753 16.6912-6.62061 16.6912-6.57829 16.6362-6.53809 16.5262-6.5L15.7581-6.27783C15.6989-6.2609 15.6566-6.25244 15.6312-6.25244 15.5804-6.25244 15.5465-6.30534 15.5296-6.41113 15.4365-6.98242 15.3138-7.4585 15.1615-7.83936Z" fill="#FFFFFF" transform="translate(10.7817 19)"/></g></g><path d="M3.65625-5.89062C4.11328-5.48861 4.49414-5.11621 4.79883-4.77344 5.18815-5.61979 5.48649-6.55924 5.69385-7.5918L3.84668-7.5918C3.30078-6.4196 2.56445-5.33203 1.6377-4.3291 1.52344-4.19792 1.43669-4.13232 1.37744-4.13232 1.3182-4.13232 1.24414-4.21908 1.15527-4.39258 0.998698-4.6888 0.782878-4.95329 0.507812-5.18604 1.7985-6.47672 2.70833-8.01074 3.2373-9.78809 3.33887-10.1309 3.396-10.4715 3.40869-10.8101 3.99268-10.7127 4.4349-10.6175 4.73535-10.5244 4.86654-10.4863 4.93213-10.4271 4.93213-10.3467 4.93213-10.2578 4.90039-10.1838 4.83691-10.1245 4.77767-10.0653 4.69092-9.8431 4.57666-9.45801 4.43278-9.0306 4.35872-8.81055 4.35449-8.79785L5.69385-8.79785C5.86312-8.79785 5.9943-8.82324 6.0874-8.87402 6.15511-8.90788 6.21435-8.9248 6.26514-8.9248 6.39209-8.9248 6.58252-8.80843 6.83643-8.57568 7.09033-8.35563 7.21728-8.2054 7.21729-8.125 7.21728-8.07845 7.17285-8.00439 7.08398-7.90283L7.00781-7.77588C7.36751-7.18766 7.80127-6.6333 8.30908-6.11279L8.30908-8.86133C8.30908-9.72461 8.27311-10.3826 8.20117-10.8354 8.79362-10.8228 9.27181-10.7889 9.63574-10.7339 9.76693-10.7212 9.83252-10.6789 9.83252-10.6069 9.83252-10.5646 9.80924-10.4779 9.7627-10.3467 9.70345-10.1901 9.67383-9.70768 9.67383-8.89941L9.67383-4.96387C10.444-4.42643 11.4618-3.90804 12.7271-3.40869 12.4858-3.09977 12.2954-2.757 12.1558-2.38037 12.0711-2.16455 11.9928-2.05664 11.9209-2.05664 11.8743-2.05664 11.7749-2.09049 11.6226-2.1582 10.8862-2.50521 10.2367-2.86914 9.67383-3.25L9.67383-1.37744 9.69922 0.882324C9.69922 0.950033 9.69075 0.99235 9.67383 1.00928 9.6569 1.02197 9.6167 1.02832 9.55322 1.02832L8.42334 1.02832C8.35563 1.02832 8.31543 1.01986 8.30273 1.00293 8.29004 0.986003 8.28369 0.945801 8.28369 0.882324L8.30908-1.37744 8.30908-4.3291C7.70394-4.89616 7.16227-5.53727 6.68408-6.25244 6.27783-4.68245 5.63672-3.30501 4.76074-2.12012 4.02441-1.12988 3.09131-0.228516 1.96143 0.583984 1.80062 0.706706 1.69694 0.768066 1.65039 0.768066 1.60807 0.768066 1.51286 0.681315 1.36475 0.507812 1.17855 0.26237 0.926758 0.0317383 0.609375-0.184082 2.13281-1.08968 3.31559-2.2238 4.15771-3.58643 3.75993-4.05615 3.33252-4.49837 2.87549-4.91309 2.82471-4.9681 2.79932-5.0083 2.79932-5.03369 2.79932-5.07178 2.82471-5.12256 2.87549-5.18604L3.40869-5.87793C3.45524-5.93717 3.49333-5.9668 3.52295-5.9668 3.5568-5.9668 3.60124-5.94141 3.65625-5.89062ZM22.5946-1.91064C22.6242-1.91064 22.6686-1.91064 22.7279-1.91064 23.8451-1.91064 24.4036-2.26611 24.4036-2.97705 24.4036-3.43408 24.2788-3.86149 24.0291-4.25928 23.7837-4.65283 23.3499-5.13525 22.7279-5.70654 23.223-6.73909 23.6694-7.87533 24.0672-9.11523L22.2454-9.11523 22.2454-1.83447 22.2708 0.882324C22.2708 0.950033 22.2624 0.990234 22.2454 1.00293 22.2285 1.01562 22.1904 1.02197 22.1312 1.02197L21.0838 1.02197C21.0119 1.02197 20.9674 1.01351 20.9505 0.996582 20.9378 0.979655 20.9315 0.941569 20.9315 0.882324L20.9569-1.82178 20.9569-7.43945 20.9315-10.1753C20.9315-10.2472 20.9421-10.2896 20.9632-10.3022 20.9801-10.3149 21.0225-10.3213 21.0902-10.3213L22.2454-10.2959 24.3275-10.2959C24.4883-10.2959 24.5962-10.3086 24.6512-10.334 24.7316-10.3594 24.7972-10.3721 24.848-10.3721 24.9495-10.3721 25.1315-10.2409 25.3939-9.97852 25.6012-9.74154 25.7049-9.56592 25.7049-9.45166 25.7049-9.37126 25.6647-9.29297 25.5843-9.2168 25.5081-9.16178 25.4172-9.00098 25.3114-8.73438 24.922-7.70182 24.5285-6.76237 24.1307-5.91602 24.7951-5.3151 25.2394-4.76074 25.4637-4.25293 25.633-3.86784 25.7176-3.40869 25.7176-2.87549 25.7176-1.54248 24.9538-0.804036 23.4261-0.660156 23.3161-0.651693 23.2441-0.647461 23.2103-0.647461 23.1172-0.647461 23.0558-0.677083 23.0262-0.736328 23.0093-0.778646 22.9881-0.88444 22.9627-1.05371 22.8993-1.41764 22.7765-1.70329 22.5946-1.91064ZM15.9359 0.869629 14.9329 0.869629C14.8356 0.869629 14.7869 0.825195 14.7869 0.736328L14.8123-1.45361 14.8123-2.39307 14.7869-3.84668C14.7869-3.91439 14.7954-3.95459 14.8123-3.96729 14.8293-3.97998 14.8695-3.98633 14.9329-3.98633L16.3739-3.96094 18.2464-3.96094 19.6873-3.98633C19.7635-3.98633 19.8101-3.97786 19.827-3.96094 19.8397-3.94401 19.846-3.90592 19.846-3.84668L19.8206-2.5708 19.8206-1.49805 19.846 0.685547C19.846 0.761719 19.8354 0.808268 19.8143 0.825195 19.7974 0.837891 19.755 0.844238 19.6873 0.844238L18.6908 0.844238C18.6188 0.844238 18.5765 0.833659 18.5638 0.8125 18.5511 0.795573 18.5448 0.753255 18.5448 0.685547L18.5448 0.0888672 16.0755 0.0888672 16.0755 0.736328C16.0755 0.825195 16.029 0.869629 15.9359 0.869629ZM16.0755-2.83105 16.0755-1.05371 18.5448-1.05371 18.5448-2.83105ZM15.8026-4.93213 14.1331-4.90674C14.0485-4.90674 14.0062-4.95329 14.0062-5.04639L14.0062-5.98584C14.0062-6.07894 14.0485-6.12549 14.1331-6.12549L15.8026-6.1001 17.6878-6.1001C17.8698-6.56559 18.0285-7.06071 18.1639-7.58545 18.2104-7.74626 18.2464-7.96208 18.2718-8.23291 18.75-8.14404 19.1266-8.05729 19.4017-7.97266 19.5329-7.93034 19.5985-7.87321 19.5985-7.80127 19.5985-7.73356 19.5646-7.66585 19.4969-7.59814 19.4334-7.53467 19.3763-7.4331 19.3255-7.29346 19.1986-6.89144 19.0505-6.49365 18.8812-6.1001L20.3475-6.12549C20.4194-6.12549 20.4618-6.11702 20.4744-6.1001 20.4871-6.08317 20.4935-6.04508 20.4935-5.98584L20.4935-5.04639C20.4935-4.97868 20.485-4.93848 20.4681-4.92578 20.4512-4.91309 20.411-4.90674 20.3475-4.90674L18.6971-4.93213ZM16.0311-8.42334 14.4378-8.39795C14.3659-8.39795 14.3236-8.40641 14.3109-8.42334 14.2982-8.44027 14.2918-8.47835 14.2918-8.5376L14.2918-9.45166C14.2918-9.5236 14.3003-9.56803 14.3172-9.58496 14.3341-9.59766 14.3743-9.604 14.4378-9.604L16.0311-9.57861 16.6214-9.57861 16.6214-9.81348C16.6214-10.2959 16.5939-10.6556 16.5389-10.8926 16.814-10.8841 17.252-10.8545 17.8529-10.8037 17.9925-10.7868 18.0623-10.7466 18.0623-10.6831 18.0623-10.6323 18.0327-10.5456 17.9735-10.4229 17.9354-10.3424 17.9163-10.1351 17.9163-9.80078L17.9163-9.57861 18.5828-9.57861 20.1698-9.604C20.2375-9.604 20.2777-9.59554 20.2904-9.57861 20.3031-9.56169 20.3094-9.51937 20.3094-9.45166L20.3094-8.5376C20.3094-8.46989 20.3009-8.42969 20.284-8.41699 20.2671-8.4043 20.229-8.39795 20.1698-8.39795L18.5828-8.42334ZM15.1615-7.83936C15.1445-7.88167 15.1361-7.91341 15.1361-7.93457 15.1361-7.96842 15.1932-8.00228 15.3075-8.03613L16.0184-8.22656C16.0734-8.23926 16.1136-8.24561 16.139-8.24561 16.1898-8.24561 16.2321-8.2054 16.266-8.125 16.4606-7.62565 16.6003-7.14958 16.6849-6.69678 16.6891-6.66292 16.6912-6.63753 16.6912-6.62061 16.6912-6.57829 16.6362-6.53809 16.5262-6.5L15.7581-6.27783C15.6989-6.2609 15.6566-6.25244 15.6312-6.25244 15.5804-6.25244 15.5465-6.30534 15.5296-6.41113 15.4365-6.98242 15.3138-7.4585 15.1615-7.83936Z" fill="#FFFFFF" transform="translate(321.905 133)"/><g clip-path="url(#clip10)" filter="url(#fx1)" transform="translate(338 115)"><g clip-path="url(#clip11)"><path d="M1.28857-5.65576C1.31396-5.69385 1.45784-5.92871 1.72021-6.36035 1.83447-6.54655 1.92122-6.67985 1.98047-6.76025 2.04395-6.84912 2.10954-6.89355 2.17725-6.89355 2.19417-6.89355 2.20898-6.89144 2.22168-6.88721 3.12305-6.58675 3.95671-6.16146 4.72266-5.61133 4.81575-5.54362 4.8623-5.48014 4.8623-5.4209 4.8623-5.39128 4.84538-5.34261 4.81152-5.2749 4.7015-5.0083 4.51107-4.67822 4.24023-4.28467 4.16829-4.20003 4.11117-4.15771 4.06885-4.15771 4.03076-4.15771 3.97998-4.18311 3.9165-4.23389 3.17594-4.77979 2.29997-5.25374 1.28857-5.65576ZM2.86279-8.70898 3.54834-9.75C3.60758-9.84733 3.66895-9.896 3.73242-9.896 3.77051-9.896 3.81917-9.88118 3.87842-9.85156 4.86442-9.45378 5.67904-8.97347 6.32227-8.41064 6.38997-8.36409 6.42383-8.30697 6.42383-8.23926 6.42383-8.18424 6.4069-8.12923 6.37305-8.07422 6.12337-7.62565 5.9012-7.2998 5.70654-7.09668 5.67692-7.0459 5.6346-7.02051 5.57959-7.02051 5.52458-7.02051 5.45898-7.05013 5.38281-7.10938 4.57031-7.78223 3.73031-8.31543 2.86279-8.70898ZM2.31689-1.30127C2.86702-1.40706 3.45524-1.61865 4.08154-1.93604 5.48649-2.67659 6.6735-3.42562 7.64258-4.18311 8.98405-5.20719 10.2324-6.41748 11.3877-7.81396 11.4469-7.40348 11.5739-6.91683 11.7686-6.354 11.8109-6.25244 11.832-6.16992 11.832-6.10645 11.832-6.00488 11.7855-5.90544 11.6924-5.80811 10.7021-4.75016 9.59977-3.74935 8.38525-2.80566 7.37809-2.03971 6.08317-1.2251 4.50049-0.361816 4.04346-0.116374 3.79167 0.0317383 3.74512 0.0825195 3.67741 0.150228 3.60758 0.184082 3.53564 0.184082 3.44255 0.184082 3.35579 0.131185 3.27539 0.0253906 3.02995-0.220052 2.71045-0.662272 2.31689-1.30127ZM21.2679-4.75439C22.4782-3.85726 23.6779-2.8099 24.867-1.6123 24.9347-1.5446 24.9686-1.48324 24.9686-1.42822 24.9686-1.37321 24.939-1.30973 24.8797-1.23779 24.6047-0.903483 24.3148-0.607259 24.0101-0.349121 23.9551-0.29834 23.9022-0.272949 23.8514-0.272949 23.8006-0.272949 23.7393-0.306803 23.6673-0.374512 22.6898-1.52132 21.5641-2.59619 20.2904-3.59912 18.932-2.18148 17.4762-1.03678 15.9232-0.165039 15.7666-0.0973307 15.6672-0.0634766 15.6248-0.0634766 15.5402-0.0634766 15.4661-0.101562 15.4027-0.177734 15.1615-0.47819 14.7975-0.761719 14.3109-1.02832 15.3561-1.55729 16.2533-2.10319 17.0023-2.66602 17.6117-3.12305 18.2401-3.68164 18.8875-4.3418 19.8143-5.30241 20.6289-6.38997 21.3314-7.60449L17.9798-7.5918C17.3112-7.5918 16.6257-7.56429 15.9232-7.50928 15.8385-7.50081 15.7814-7.57487 15.7518-7.73145 15.6756-8.05729 15.6375-8.50797 15.6375-9.0835 16.103-9.04964 16.8351-9.03271 17.8338-9.03271L21.4076-9.03271C21.8604-9.03271 22.1587-9.07292 22.3026-9.15332 22.3491-9.18717 22.3978-9.2041 22.4486-9.2041 22.4909-9.2041 22.5649-9.17025 22.6707-9.10254 22.95-8.88249 23.2314-8.5778 23.515-8.18848 23.5573-8.11654 23.5784-8.06152 23.5785-8.02344 23.5784-7.93457 23.5213-7.84782 23.4071-7.76318 23.2293-7.60661 23.0706-7.41406 22.931-7.18555 22.4443-6.36035 21.89-5.54997 21.2679-4.75439ZM34.1125-5.31934C34.0702-4.52799 33.9876-3.88265 33.8649-3.3833 33.7549-2.91781 33.5814-2.45866 33.3444-2.00586 33.0778-1.47689 32.7096-0.973307 32.2399-0.495117 31.8506-0.101563 31.457 0.213704 31.0592 0.450684 30.8942 0.556478 30.7651 0.609375 30.672 0.609375 30.5747 0.609375 30.4837 0.567057 30.3991 0.482422 30.1198 0.203125 29.7326-0.0275065 29.2375-0.209473 29.9357-0.5861 30.4858-0.958496 30.8879-1.32666 31.2645-1.67367 31.5776-2.07357 31.8273-2.52637 32.0728-2.96224 32.242-3.40869 32.3351-3.86572 32.4113-4.23389 32.4621-4.71842 32.4875-5.31934L30.0182-5.31934C29.6035-5.31934 28.9539-5.29395 28.0695-5.24316 27.9722-5.23047 27.915-5.31299 27.8981-5.49072 27.8304-5.88004 27.7966-6.29476 27.7966-6.73486 28.2832-6.69255 29.0195-6.67139 30.0055-6.67139L35.8454-6.67139C36.7721-6.67139 37.6164-6.69678 38.3781-6.74756 38.4712-6.74756 38.5177-6.66081 38.5177-6.4873 38.5262-6.39844 38.5304-6.23128 38.5304-5.98584 38.5304-5.74463 38.5262-5.57959 38.5177-5.49072 38.5177-5.34261 38.4543-5.26855 38.3273-5.26855 37.409-5.30241 36.5859-5.31934 35.8581-5.31934ZM29.3835-9.75C30.141-9.70768 30.8604-9.68652 31.5417-9.68652L34.4552-9.68652C35.3439-9.68652 36.0739-9.70345 36.6452-9.7373 36.751-9.7373 36.8039-9.65479 36.8039-9.48975 36.8166-9.32894 36.8229-9.17236 36.8229-9.02002 36.8229-8.85921 36.8166-8.70052 36.8039-8.54395 36.8039-8.37891 36.7467-8.29639 36.6325-8.29639 35.9258-8.32178 35.2-8.33447 34.4552-8.33447L31.5417-8.33447C31.2962-8.33447 30.6805-8.31754 29.6945-8.28369 29.5591-8.28369 29.485-8.35775 29.4723-8.50586 29.4596-8.62435 29.4448-8.82747 29.4279-9.11523 29.4067-9.41146 29.3919-9.62305 29.3835-9.75ZM44.8114-10.2197C45.6789-9.96159 46.2629-9.73519 46.5633-9.54053 46.6691-9.46859 46.722-9.39876 46.722-9.33105 46.722-9.25911 46.6776-9.17236 46.5887-9.0708 46.4321-8.86768 46.2565-8.50797 46.0619-7.9917 45.0589-5.25798 44.312-3.30924 43.8211-2.14551 45.7677-2.31055 47.2848-2.47559 48.3724-2.64062 47.9323-3.41927 47.4499-4.11117 46.9251-4.71631L48.0614-5.34473C48.1079-5.37012 48.1481-5.38281 48.182-5.38281 48.2412-5.38281 48.3047-5.34473 48.3724-5.26855 49.4049-4.0625 50.2809-2.64486 51.0003-1.01562 51.0342-0.95638 51.0511-0.899251 51.0511-0.844238 51.0511-0.759603 50.994-0.685547 50.8797-0.62207 50.6004-0.435872 50.2725-0.258138 49.8958-0.0888672 49.8408-0.0634766 49.7879-0.0507812 49.7371-0.0507812 49.6567-0.0507812 49.5954-0.112142 49.5531-0.234863 49.3245-0.768066 49.1722-1.11507 49.096-1.27588 47.4964-1.03467 45.4398-0.782878 42.9261-0.520508 42.1644-0.440104 41.6566-0.33431 41.4027-0.203125 41.3434-0.177734 41.2884-0.165039 41.2376-0.165039 41.1361-0.165039 41.0662-0.222168 41.0282-0.336426 40.9308-0.543783 40.7785-1.10238 40.5711-2.01221 40.8081-1.99528 41.0726-1.98682 41.3646-1.98682 41.5042-1.98682 41.7687-1.99105 42.158-1.99951 43.0171-4.17041 43.7746-6.31592 44.4305-8.43604 44.6548-9.1639 44.7817-9.75846 44.8114-10.2197Z" fill="#FFFFFF" transform="translate(11.4484 19)"/></g></g><path d="M1.28857-5.65576C1.31396-5.69385 1.45784-5.92871 1.72021-6.36035 1.83447-6.54655 1.92122-6.67985 1.98047-6.76025 2.04395-6.84912 2.10954-6.89355 2.17725-6.89355 2.19417-6.89355 2.20898-6.89144 2.22168-6.88721 3.12305-6.58675 3.95671-6.16146 4.72266-5.61133 4.81575-5.54362 4.8623-5.48014 4.8623-5.4209 4.8623-5.39128 4.84538-5.34261 4.81152-5.2749 4.7015-5.0083 4.51107-4.67822 4.24023-4.28467 4.16829-4.20003 4.11117-4.15771 4.06885-4.15771 4.03076-4.15771 3.97998-4.18311 3.9165-4.23389 3.17594-4.77979 2.29997-5.25374 1.28857-5.65576ZM2.86279-8.70898 3.54834-9.75C3.60758-9.84733 3.66895-9.896 3.73242-9.896 3.77051-9.896 3.81917-9.88118 3.87842-9.85156 4.86442-9.45378 5.67904-8.97347 6.32227-8.41064 6.38997-8.36409 6.42383-8.30697 6.42383-8.23926 6.42383-8.18424 6.4069-8.12923 6.37305-8.07422 6.12337-7.62565 5.9012-7.2998 5.70654-7.09668 5.67692-7.0459 5.6346-7.02051 5.57959-7.02051 5.52458-7.02051 5.45898-7.05013 5.38281-7.10938 4.57031-7.78223 3.73031-8.31543 2.86279-8.70898ZM2.31689-1.30127C2.86702-1.40706 3.45524-1.61865 4.08154-1.93604 5.48649-2.67659 6.6735-3.42562 7.64258-4.18311 8.98405-5.20719 10.2324-6.41748 11.3877-7.81396 11.4469-7.40348 11.5739-6.91683 11.7686-6.354 11.8109-6.25244 11.832-6.16992 11.832-6.10645 11.832-6.00488 11.7855-5.90544 11.6924-5.80811 10.7021-4.75016 9.59977-3.74935 8.38525-2.80566 7.37809-2.03971 6.08317-1.2251 4.50049-0.361816 4.04346-0.116374 3.79167 0.0317383 3.74512 0.0825195 3.67741 0.150228 3.60758 0.184082 3.53564 0.184082 3.44255 0.184082 3.35579 0.131185 3.27539 0.0253906 3.02995-0.220052 2.71045-0.662272 2.31689-1.30127ZM21.2679-4.75439C22.4782-3.85726 23.6779-2.8099 24.867-1.6123 24.9347-1.5446 24.9686-1.48324 24.9686-1.42822 24.9686-1.37321 24.939-1.30973 24.8797-1.23779 24.6047-0.903483 24.3148-0.607259 24.0101-0.349121 23.9551-0.29834 23.9022-0.272949 23.8514-0.272949 23.8006-0.272949 23.7393-0.306803 23.6673-0.374512 22.6898-1.52132 21.5641-2.59619 20.2904-3.59912 18.932-2.18148 17.4762-1.03678 15.9232-0.165039 15.7666-0.0973307 15.6672-0.0634766 15.6248-0.0634766 15.5402-0.0634766 15.4661-0.101562 15.4027-0.177734 15.1615-0.47819 14.7975-0.761719 14.3109-1.02832 15.3561-1.55729 16.2533-2.10319 17.0023-2.66602 17.6117-3.12305 18.2401-3.68164 18.8875-4.3418 19.8143-5.30241 20.6289-6.38997 21.3314-7.60449L17.9798-7.5918C17.3112-7.5918 16.6257-7.56429 15.9232-7.50928 15.8385-7.50081 15.7814-7.57487 15.7518-7.73145 15.6756-8.05729 15.6375-8.50797 15.6375-9.0835 16.103-9.04964 16.8351-9.03271 17.8338-9.03271L21.4076-9.03271C21.8604-9.03271 22.1587-9.07292 22.3026-9.15332 22.3491-9.18717 22.3978-9.2041 22.4486-9.2041 22.4909-9.2041 22.5649-9.17025 22.6707-9.10254 22.95-8.88249 23.2314-8.5778 23.515-8.18848 23.5573-8.11654 23.5784-8.06152 23.5785-8.02344 23.5784-7.93457 23.5213-7.84782 23.4071-7.76318 23.2293-7.60661 23.0706-7.41406 22.931-7.18555 22.4443-6.36035 21.89-5.54997 21.2679-4.75439ZM34.1125-5.31934C34.0702-4.52799 33.9876-3.88265 33.8649-3.3833 33.7549-2.91781 33.5814-2.45866 33.3444-2.00586 33.0778-1.47689 32.7096-0.973307 32.2399-0.495117 31.8506-0.101563 31.457 0.213704 31.0592 0.450684 30.8942 0.556478 30.7651 0.609375 30.672 0.609375 30.5747 0.609375 30.4837 0.567057 30.3991 0.482422 30.1198 0.203125 29.7326-0.0275065 29.2375-0.209473 29.9357-0.5861 30.4858-0.958496 30.8879-1.32666 31.2645-1.67367 31.5776-2.07357 31.8273-2.52637 32.0728-2.96224 32.242-3.40869 32.3351-3.86572 32.4113-4.23389 32.4621-4.71842 32.4875-5.31934L30.0182-5.31934C29.6035-5.31934 28.9539-5.29395 28.0695-5.24316 27.9722-5.23047 27.915-5.31299 27.8981-5.49072 27.8304-5.88004 27.7966-6.29476 27.7966-6.73486 28.2832-6.69255 29.0195-6.67139 30.0055-6.67139L35.8454-6.67139C36.7721-6.67139 37.6164-6.69678 38.3781-6.74756 38.4712-6.74756 38.5177-6.66081 38.5177-6.4873 38.5262-6.39844 38.5304-6.23128 38.5304-5.98584 38.5304-5.74463 38.5262-5.57959 38.5177-5.49072 38.5177-5.34261 38.4543-5.26855 38.3273-5.26855 37.409-5.30241 36.5859-5.31934 35.8581-5.31934ZM29.3835-9.75C30.141-9.70768 30.8604-9.68652 31.5417-9.68652L34.4552-9.68652C35.3439-9.68652 36.0739-9.70345 36.6452-9.7373 36.751-9.7373 36.8039-9.65479 36.8039-9.48975 36.8166-9.32894 36.8229-9.17236 36.8229-9.02002 36.8229-8.85921 36.8166-8.70052 36.8039-8.54395 36.8039-8.37891 36.7467-8.29639 36.6325-8.29639 35.9258-8.32178 35.2-8.33447 34.4552-8.33447L31.5417-8.33447C31.2962-8.33447 30.6805-8.31754 29.6945-8.28369 29.5591-8.28369 29.485-8.35775 29.4723-8.50586 29.4596-8.62435 29.4448-8.82747 29.4279-9.11523 29.4067-9.41146 29.3919-9.62305 29.3835-9.75ZM44.8114-10.2197C45.6789-9.96159 46.2629-9.73519 46.5633-9.54053 46.6691-9.46859 46.722-9.39876 46.722-9.33105 46.722-9.25911 46.6776-9.17236 46.5887-9.0708 46.4321-8.86768 46.2565-8.50797 46.0619-7.9917 45.0589-5.25798 44.312-3.30924 43.8211-2.14551 45.7677-2.31055 47.2848-2.47559 48.3724-2.64062 47.9323-3.41927 47.4499-4.11117 46.9251-4.71631L48.0614-5.34473C48.1079-5.37012 48.1481-5.38281 48.182-5.38281 48.2412-5.38281 48.3047-5.34473 48.3724-5.26855 49.4049-4.0625 50.2809-2.64486 51.0003-1.01562 51.0342-0.95638 51.0511-0.899251 51.0511-0.844238 51.0511-0.759603 50.994-0.685547 50.8797-0.62207 50.6004-0.435872 50.2725-0.258138 49.8958-0.0888672 49.8408-0.0634766 49.7879-0.0507812 49.7371-0.0507812 49.6567-0.0507812 49.5954-0.112142 49.5531-0.234863 49.3245-0.768066 49.1722-1.11507 49.096-1.27588 47.4964-1.03467 45.4398-0.782878 42.9261-0.520508 42.1644-0.440104 41.6566-0.33431 41.4027-0.203125 41.3434-0.177734 41.2884-0.165039 41.2376-0.165039 41.1361-0.165039 41.0662-0.222168 41.0282-0.336426 40.9308-0.543783 40.7785-1.10238 40.5711-2.01221 40.8081-1.99528 41.0726-1.98682 41.3646-1.98682 41.5042-1.98682 41.7687-1.99105 42.158-1.99951 43.0171-4.17041 43.7746-6.31592 44.4305-8.43604 44.6548-9.1639 44.7817-9.75846 44.8114-10.2197Z" fill="#FFFFFF" transform="translate(348.572 133)"/><path d="M510.5 318.125C510.5 326.202 442.223 332.75 358 332.75 273.777 332.75 205.5 326.202 205.5 318.125 205.5 310.048 273.777 303.5 358 303.5 442.223 303.5 510.5 310.048 510.5 318.125L510.5 405.875C510.5 413.952 442.223 420.5 358 420.5 273.777 420.5 205.5 413.952 205.5 405.875L205.5 318.125" stroke="#2F528F" stroke-width="1.33333" stroke-miterlimit="8" fill="none" fill-rule="evenodd"/><g clip-path="url(#clip12)"><g clip-path="url(#clip13)"><g clip-path="url(#clip14)"><path d="M491.054 333.514 480.953 327.681C479.375 326.771 477.432 326.771 475.855 327.681L465.753 333.514C464.177 334.426 463.205 336.108 463.204 337.93L463.204 349.596C463.204 351.418 464.176 353.102 465.753 354.014L475.864 359.848C477.442 360.757 479.385 360.757 480.963 359.848L491.074 354.014C492.651 353.102 493.623 351.418 493.623 349.596L493.623 337.93C493.618 336.104 492.639 334.421 491.054 333.514Z" fill="url(#fill15)"/><path d="M495.748 342.056 488.645 337.955C487.377 337.224 485.816 337.224 484.548 337.955L477.447 342.056C476.178 342.786 475.397 344.139 475.4 345.603L475.4 353.804C475.4 355.267 476.18 356.619 477.447 357.351L484.548 361.452C485.816 362.183 487.377 362.183 488.645 361.452L495.748 357.351C497.019 356.621 497.803 355.269 497.806 353.804L497.806 345.603C497.803 344.137 497.019 342.785 495.748 342.056Z" fill="url(#fill16)"/><path d="M477.735 332.761 479.781 331.63 488.55 349.804 487.838 350.582 468.513 350.582 468.73 348.255 485.027 348.255 477.735 332.761Z" fill="url(#fill17)"/><path d="M471.229 349.526C471.229 351.137 469.923 352.443 468.312 352.443 466.701 352.443 465.396 351.137 465.396 349.526 465.396 347.916 466.701 346.61 468.312 346.61 469.923 346.61 471.229 347.916 471.229 349.526Z" fill="#FFFFFF"/><path d="M491.156 349.703C491.156 352.221 489.115 354.261 486.598 354.261 484.081 354.261 482.04 352.221 482.04 349.703 482.04 347.186 484.081 345.146 486.598 345.146 489.115 345.146 491.156 347.186 491.156 349.703Z" fill="#FFFFFF"/><path d="M481.552 331.974C481.552 333.585 480.246 334.891 478.635 334.891 477.024 334.891 475.719 333.585 475.719 331.974 475.719 330.363 477.024 329.057 478.635 329.057 480.246 329.057 481.552 330.363 481.552 331.974Z" fill="#FFFFFF"/></g></g></g><path d="M265.5 362C265.5 356.753 269.753 352.5 275 352.5 280.247 352.5 284.5 356.753 284.5 362 284.5 367.247 280.247 371.5 275 371.5 269.753 371.5 265.5 367.247 265.5 362Z" stroke="#2F528F" stroke-width="1.33333" stroke-miterlimit="8" fill="#4472C4" fill-rule="evenodd"/><path d="M246.5 396C246.5 390.753 250.753 386.5 256 386.5 261.247 386.5 265.5 390.753 265.5 396 265.5 401.247 261.247 405.5 256 405.5 250.753 405.5 246.5 401.247 246.5 396Z" stroke="#2F528F" stroke-width="1.33333" stroke-miterlimit="8" fill="#4472C4" fill-rule="evenodd"/><path d="M284.5 396C284.5 390.753 288.977 386.5 294.5 386.5 300.023 386.5 304.5 390.753 304.5 396 304.5 401.247 300.023 405.5 294.5 405.5 288.977 405.5 284.5 401.247 284.5 396Z" stroke="#2F528F" stroke-width="1.33333" stroke-miterlimit="8" fill="#4472C4" fill-rule="evenodd"/><path d="M0.963581-0.267416 4.81818 13.6219 2.89102 14.1567-0.963581 0.267416ZM7.35237 11.5349 5.63738 20.3132-0.356277 13.6742Z" fill="#4472C4" transform="matrix(-1 0 0 1 267.637 368)"/><path d="M281.964 367.733 285.818 381.622 283.891 382.157 280.036 368.267ZM288.352 379.535 286.637 388.313 280.644 381.674Z" fill="#4472C4"/><path d="M337.5 362C337.5 356.753 341.753 352.5 347 352.5 352.247 352.5 356.5 356.753 356.5 362 356.5 367.247 352.247 371.5 347 371.5 341.753 371.5 337.5 367.247 337.5 362Z" stroke="#2F528F" stroke-width="1.33333" stroke-miterlimit="8" fill="#4472C4" fill-rule="evenodd"/><path d="M318.5 396C318.5 390.753 322.753 386.5 328 386.5 333.247 386.5 337.5 390.753 337.5 396 337.5 401.247 333.247 405.5 328 405.5 322.753 405.5 318.5 401.247 318.5 396Z" stroke="#2F528F" stroke-width="1.33333" stroke-miterlimit="8" fill="#4472C4" fill-rule="evenodd"/><path d="M356.5 396C356.5 390.753 360.753 386.5 366 386.5 371.247 386.5 375.5 390.753 375.5 396 375.5 401.247 371.247 405.5 366 405.5 360.753 405.5 356.5 401.247 356.5 396Z" stroke="#2F528F" stroke-width="1.33333" stroke-miterlimit="8" fill="#4472C4" fill-rule="evenodd"/><path d="M0.963581-0.267416 4.81818 13.6219 2.89102 14.1567-0.963581 0.267416ZM7.35237 11.5349 5.63738 20.3132-0.356277 13.6742Z" fill="#4472C4" transform="matrix(-1 0 0 1 339.637 368)"/><path d="M353.964 367.733 357.818 381.622 355.891 382.157 352.036 368.267ZM360.352 379.535 358.637 388.313 352.644 381.674Z" fill="#4472C4"/><path d="M403.5 396C403.5 390.753 407.753 386.5 413 386.5 418.247 386.5 422.5 390.753 422.5 396 422.5 401.247 418.247 405.5 413 405.5 407.753 405.5 403.5 401.247 403.5 396Z" stroke="#2F528F" stroke-width="1.33333" stroke-miterlimit="8" fill="#4472C4" fill-rule="evenodd"/><path d="M3.80339e-06-1 20.9368-0.99992 20.9368 1.00008-3.80339e-06 1ZM19.6035-3.99993 27.6035 0.000104987 19.6034 4.00007Z" fill="#4472C4" transform="matrix(-1 0 0 1 402.603 396)"/><rect x="126.5" y="188.5" width="242" height="86" stroke="#2F528F" stroke-width="1.33333" stroke-miterlimit="8" fill="none"/><g clip-path="url(#clip18)"><g clip-path="url(#clip19)"><g clip-path="url(#clip20)"><path d="M334.773 262.482 333.633 263.625C333.431 263.828 333.102 263.828 332.899 263.626L324.434 255.185C324.029 254.781 324.028 254.124 324.432 253.719L325.577 252.571 325.577 252.571 334.778 261.745C334.981 261.948 334.981 262.276 334.779 262.479Z" fill="#50E6FF"/><path d="M333.457 245.371 334.603 246.514C334.807 246.717 334.807 247.045 334.605 247.249L325.566 256.312 325.566 256.312 324.418 255.167C324.013 254.763 324.012 254.107 324.416 253.702L332.725 245.369C332.928 245.168 333.255 245.169 333.457 245.371Z" fill="#1490DF"/><path d="M357.424 252.579 358.568 253.726C358.972 254.131 358.971 254.787 358.566 255.191L350.101 263.632C349.898 263.835 349.569 263.834 349.367 263.631L348.228 262.49C348.026 262.287 348.026 261.958 348.23 261.756L357.428 252.583 357.428 252.583Z" fill="#50E6FF"/><path d="M358.576 255.162 357.429 256.306 357.429 256.306 348.391 247.242C348.188 247.039 348.189 246.71 348.392 246.508L349.539 245.364C349.742 245.162 350.07 245.162 350.273 245.365L358.582 253.698C358.986 254.103 358.985 254.76 358.58 255.164Z" fill="#1490DF"/><path d="M340.448 256.25 333.469 256.25C333.266 256.258 333.093 256.102 333.081 255.898 333.081 255.847 333.093 255.797 333.116 255.752L341.483 239.197C341.555 239.066 341.695 238.987 341.844 238.991L350.098 238.991C350.302 238.983 350.475 239.14 350.487 239.343 350.487 239.414 350.463 239.482 350.419 239.538L340.594 252.489 350.176 252.489C350.38 252.482 350.552 252.638 350.565 252.841 350.564 252.931 350.527 253.016 350.464 253.079L334.541 269.643C334.391 269.733 333.328 270.616 333.849 269.276L333.849 269.276Z" fill="url(#fill21)"/></g></g></g><path d="M175.5 219.834C175.5 216.336 178.336 213.5 181.833 213.5L314.167 213.5C317.664 213.5 320.5 216.336 320.5 219.834L320.5 245.167C320.5 248.664 317.664 251.5 314.167 251.5L181.833 251.5C178.336 251.5 175.5 248.664 175.5 245.167Z" stroke="#4472C4" stroke-width="1.33333" stroke-miterlimit="8" fill="#FFFFFF" fill-rule="evenodd"/><text font-family="Arial,Arial_MSFontService,sans-serif" font-weight="400" font-size="13" transform="translate(186.238 236)">•<tspan font-family="Yu Gothic,Yu Gothic_MSFontService,sans-serif" font-size="13" x="18" y="0">Telemetry</tspan><tspan font-family="Yu Gothic,Yu Gothic_MSFontService,sans-serif" font-size="13" x="83.6667" y="0">送信</tspan></text><g clip-path="url(#clip22)"><g clip-path="url(#clip23)"><g clip-path="url(#clip24)"><path d="M21.0583 16.3722C21.0696 16.6444 20.8632 16.8765 20.5917 16.8972L16.5278 16.8972C16.2556 16.9085 16.0235 16.7021 16.0028 16.4306L16.0028 13.3972C15.9915 13.1251 16.1979 12.8929 16.4694 12.8722L20.5333 12.8722C20.8055 12.861 21.0376 13.0673 21.0583 13.3389L21.0583 16.3722Z" fill="#76BC2D" transform="matrix(1.02857 0 0 1 238 449)"/><path d="M28.2722 19.4444C28.2835 19.7166 28.0771 19.9487 27.8056 19.9694L23.7417 19.9694C23.4695 19.9807 23.2374 19.7744 23.2167 19.5028L23.2167 16.4889C23.2054 16.2168 23.4118 15.9846 23.6833 15.9639L27.7472 15.9639C28.0194 15.9526 28.2515 16.159 28.2722 16.4306L28.2722 19.4444Z" fill="#76BC2D" transform="matrix(1.02857 0 0 1 238 449)"/><path d="M21.0583 22.5556C21.0696 22.8277 20.8632 23.0598 20.5917 23.0806L16.5278 23.0806C16.2556 23.0918 16.0235 22.8855 16.0028 22.6139L16.0028 19.5806C15.9915 19.3084 16.1979 19.0763 16.4694 19.0556L20.5333 19.0556C20.8055 19.0443 21.0376 19.2506 21.0583 19.5222L21.0583 22.5556Z" fill="#76BC2D" transform="matrix(1.02857 0 0 1 238 449)"/><path d="M13.8444 13.3C13.8557 13.5614 13.6581 13.7849 13.3972 13.8056L9.21667 13.8056C8.95137 13.8175 8.72204 13.6222 8.69167 13.3583L8.69167 10.2083C8.70081 9.95113 8.90172 9.74186 9.15833 9.72222L13.2222 9.72222C13.65 9.72222 13.8444 9.93611 13.8444 10.2472Z" fill="#86D633" transform="matrix(1.02857 0 0 1 238 449)"/><path d="M13.8444 19.4444C13.8667 19.712 13.6679 19.9469 13.4003 19.9692 13.3993 19.9693 13.3983 19.9694 13.3972 19.9694L9.21667 19.9694C8.93767 19.9804 8.70262 19.7631 8.69167 19.4841 8.69115 19.4709 8.69115 19.4577 8.69167 19.4444L8.69167 16.3722C8.69088 16.1075 8.89441 15.887 9.15833 15.8667L13.2222 15.8667C13.65 15.8667 13.8444 16.0806 13.8444 16.3722Z" fill="#76BC2D" transform="matrix(1.02857 0 0 1 238 449)"/><path d="M13.8444 25.6472C13.8667 25.9148 13.6679 26.1497 13.4003 26.172 13.3993 26.1721 13.3983 26.1721 13.3972 26.1722L9.21667 26.1722C8.94453 26.1835 8.71239 25.9771 8.69167 25.7056L8.69167 22.5556C8.68072 22.2873 8.88931 22.061 9.15756 22.05 9.15781 22.05 9.15807 22.05 9.15833 22.05L13.2222 22.05C13.65 22.05 13.8444 22.2444 13.8444 22.5556Z" fill="#76BC2D" transform="matrix(1.02857 0 0 1 238 449)"/><path d="M2.08056 2.93611 4.58889 2.93611 4.58889 2.93611 4.58889 9.93611C4.58889 10.2475 4.33643 10.5 4.025 10.5L1.53611 10.5C1.22468 10.5 0.972222 10.2475 0.972222 9.93611L0.972222 4.10278C0.940005 3.49151 1.40942 2.96986 2.02068 2.93765 2.04062 2.93659 2.06059 2.93608 2.08056 2.93611Z" fill="#999999" transform="matrix(1.02857 0 0 1 238 449)"/><path d="M2.08056 2.93611 4.58889 2.93611 4.58889 2.93611 4.58889 9.93611C4.58889 10.2475 4.33643 10.5 4.025 10.5L1.53611 10.5C1.22468 10.5 0.972222 10.2475 0.972222 9.93611L0.972222 4.10278C0.940005 3.49151 1.40942 2.96986 2.02068 2.93765 2.04062 2.93659 2.06059 2.93608 2.08056 2.93611Z" fill="#999999" fill-opacity="0.5" transform="matrix(1.02857 0 0 1 238 449)"/><path d="M30.4111 2.93611 32.9194 2.93611C33.5316 2.93611 34.0278 3.43233 34.0278 4.04444L34.0278 9.87778C34.0278 10.1892 33.7753 10.4417 33.4639 10.4417L30.9556 10.4417C30.6441 10.4417 30.3917 10.1892 30.3917 9.87778L30.3917 2.93611 30.4111 2.93611Z" fill="#999999" transform="matrix(1.02857 0 0 1 238 449)"/><path d="M30.4111 2.93611 32.9194 2.93611C33.5316 2.93611 34.0278 3.43233 34.0278 4.04444L34.0278 9.87778C34.0278 10.1892 33.7753 10.4417 33.4639 10.4417L30.9556 10.4417C30.6441 10.4417 30.3917 10.1892 30.3917 9.87778L30.3917 2.93611 30.4111 2.93611Z" fill="#999999" fill-opacity="0.5" transform="matrix(1.02857 0 0 1 238 449)"/><path d="M16.8389-11.8222 19.2694-11.8222 19.2694-11.8222 19.2694 21.2333 19.2694 21.2333 16.8389 21.2333C16.2268 21.2333 15.7306 20.7371 15.7306 20.125L15.7306-10.7333C15.7412-11.3378 16.2343-11.8223 16.8389-11.8222Z" fill="#949494" transform="matrix(6.29818e-17 1 -1.02857 6.12323e-17 260.84 436.206)"/><path d="M1.53611 24.8111 4.04444 24.8111C4.35587 24.8111 4.60833 25.0636 4.60833 25.375L4.60833 32.375 4.60833 32.375 2.08056 32.375C1.46844 32.375 0.972222 31.8788 0.972222 31.2667L0.972222 25.2778C1.01997 25.0048 1.25901 24.807 1.53611 24.8111Z" fill="#999999" transform="matrix(1.02857 0 0 1 238 449)"/><path d="M1.53611 24.8111 4.04444 24.8111C4.35587 24.8111 4.60833 25.0636 4.60833 25.375L4.60833 32.375 4.60833 32.375 2.08056 32.375C1.46844 32.375 0.972222 31.8788 0.972222 31.2667L0.972222 25.2778C1.01997 25.0048 1.25901 24.807 1.53611 24.8111Z" fill="#999999" fill-opacity="0.5" transform="matrix(1.02857 0 0 1 238 449)"/><path d="M30.9556 24.8111 33.4639 24.8111C33.7753 24.8111 34.0278 25.0636 34.0278 25.375L34.0278 31.2083C34.0278 31.8204 33.5316 32.3167 32.9194 32.3167L30.4111 32.3167 30.4111 32.3167 30.4111 25.2778C30.4576 25.012 30.6858 24.8164 30.9556 24.8111Z" fill="#999999" transform="matrix(1.02857 0 0 1 238 449)"/><path d="M30.9556 24.8111 33.4639 24.8111C33.7753 24.8111 34.0278 25.0636 34.0278 25.375L34.0278 31.2083C34.0278 31.8204 33.5316 32.3167 32.9194 32.3167L30.4111 32.3167 30.4111 32.3167 30.4111 25.2778C30.4576 25.012 30.6858 24.8164 30.9556 24.8111Z" fill="#999999" fill-opacity="0.5" transform="matrix(1.02857 0 0 1 238 449)"/><path d="M16.8389 14.0778 19.2694 14.0778 19.2694 14.0778 19.2694 47.1333 19.2694 47.1333 16.8389 47.1333C16.2268 47.1333 15.7306 46.6371 15.7306 46.025L15.7306 15.1861C15.7306 14.574 16.2268 14.0778 16.8389 14.0778Z" fill="#949494" transform="matrix(6.29818e-17 -1 1.02857 6.12323e-17 224.52 497.106)"/></g></g></g><path d="M246.5 438 251.25 438 251.25 412.5 260.75 412.5 260.75 438 265.5 438 256 447.5Z" stroke="#2F528F" stroke-width="1.33333" stroke-miterlimit="8" stroke-opacity="0.501961" fill="#4472C4" fill-rule="evenodd" fill-opacity="0.501961"/><path d="M237.5 204 242.25 204 242.25 162.5 251.75 162.5 251.75 204 256.5 204 247 213.5Z" stroke="#2F528F" stroke-width="1.33333" stroke-miterlimit="8" stroke-opacity="0.501961" fill="#ED7D31" fill-rule="evenodd" fill-opacity="0.501961"/><text font-family="Yu Gothic,Yu Gothic_MSFontService,sans-serif" font-weight="400" font-size="13" transform="translate(262.018 181)">HTTP Trigger <tspan font-size="13" x="-169.399" y="256">Telemetry Event Routing</tspan></text><path d="M248.422 251.5 248.422 254.167 247.755 254.167 247.755 251.5ZM248.422 256.167 248.422 258.833 247.755 258.833 247.755 256.167ZM248.422 260.833 248.422 263.5 247.755 263.5 247.755 260.833ZM248.422 265.5 248.422 268.167 247.755 268.167 247.755 265.5ZM248.422 270.167 248.422 272.833 247.755 272.833 247.755 270.167ZM248.422 274.833 248.422 277.5 247.755 277.5 247.755 274.833ZM248.422 279.5 248.422 282.167 247.755 282.167 247.755 279.5ZM248.422 284.167 248.422 286.833 247.755 286.833 247.755 284.167ZM248.422 288.833 248.422 291.5 247.755 291.5 247.755 288.833ZM248.422 293.5 248.422 296.167 247.755 296.167 247.755 293.5ZM248.422 298.167 248.422 300.833 247.755 300.833 247.755 298.167ZM248.422 302.833 248.422 305.5 247.755 305.5 247.755 302.833ZM248.422 307.5 248.422 310.167 247.755 310.167 247.755 307.5ZM248.422 312.167 248.422 314.833 247.755 314.833 247.755 312.167ZM248.422 316.833 248.422 319.432 247.687 319.432 247.687 318.765 248.089 318.765 247.755 319.098 247.755 316.833ZM245.687 319.432 243.02 319.432 243.02 318.765 245.687 318.765ZM241.02 319.432 238.354 319.432 238.354 318.765 241.02 318.765ZM236.354 319.432 233.687 319.432 233.687 318.765 236.354 318.765ZM231.687 319.432 229.02 319.432 229.02 318.765 231.687 318.765ZM227.02 319.432 224.354 319.432 224.354 318.765 227.02 318.765ZM222.833 319.245 222.833 321.911 222.167 321.911 222.167 319.245ZM222.833 323.911 222.833 326.578 222.167 326.578 222.167 323.911ZM222.833 328.578 222.833 331.245 222.167 331.245 222.167 328.578ZM222.833 333.245 222.833 335.911 222.167 335.911 222.167 333.245ZM222.833 337.911 222.833 340.578 222.167 340.578 222.167 337.911ZM222.833 342.578 222.833 345.245 222.167 345.245 222.167 342.578ZM222.833 347.245 222.833 349.911 222.167 349.911 222.167 347.245ZM222.833 351.911 222.833 354.578 222.167 354.578 222.167 351.911ZM222.833 356.578 222.833 359.245 222.167 359.245 222.167 356.578ZM222.833 361.245 222.833 363.911 222.167 363.911 222.167 361.245ZM222.833 365.911 222.833 368.578 222.167 368.578 222.167 365.911ZM222.833 370.578 222.833 373.245 222.167 373.245 222.167 370.578ZM222.833 375.245 222.833 377.911 222.167 377.911 222.167 375.245ZM222.833 379.911 222.833 382.578 222.167 382.578 222.167 379.911ZM222.833 384.578 222.833 387.245 222.167 387.245 222.167 384.578ZM222.833 389.245 222.833 391.911 222.167 391.911 222.167 389.245ZM222.833 393.911 222.833 396.322 222.5 395.988 222.757 395.988 222.757 396.655 222.167 396.655 222.167 393.911ZM224.757 395.988 227.423 395.988 227.423 396.655 224.757 396.655ZM229.423 395.988 232.09 395.988 232.09 396.655 229.423 396.655ZM234.09 395.988 236.757 395.988 236.757 396.655 234.09 396.655ZM238.757 395.988 241.423 395.988 241.423 396.655 238.757 396.655ZM243.423 395.988 245.84 395.988 245.84 396.655 243.423 396.655ZM238.008 391.367 246.502 396.322 238.008 401.276C237.849 401.369 237.645 401.315 237.552 401.156 237.459 400.997 237.513 400.793 237.672 400.7L245.672 396.034 245.672 396.609 237.672 391.943C237.513 391.85 237.459 391.646 237.552 391.487 237.645 391.328 237.849 391.274 238.008 391.367Z" fill="#4472C4"/><rect x="163.5" y="502.5" width="259" height="99" stroke="#2F528F" stroke-width="1.33333" stroke-miterlimit="8" fill="none"/><path d="M205.5 529.5C205.5 522.873 210.873 517.5 217.5 517.5L397.5 517.5C404.127 517.5 409.5 522.873 409.5 529.5L409.5 577.5C409.5 584.127 404.127 589.5 397.5 589.5L217.5 589.5C210.873 589.5 205.5 584.127 205.5 577.5Z" stroke="#4472C4" stroke-width="1.33333" stroke-miterlimit="8" fill="#FFFFFF" fill-rule="evenodd"/><text font-family="Arial,Arial_MSFontService,sans-serif" font-weight="400" font-size="13" transform="translate(217.673 541)">•<tspan font-family="Yu Gothic,Yu Gothic_MSFontService,sans-serif" font-size="13" x="18" y="0">受信した</tspan><tspan font-family="Yu Gothic,Yu Gothic_MSFontService,sans-serif" font-size="13" x="75.1667" y="0">Twin</tspan><tspan font-family="Yu Gothic,Yu Gothic_MSFontService,sans-serif" font-size="13" x="108.833" y="0">に対応する</tspan><tspan font-family="Yu Gothic,Yu Gothic_MSFontService,sans-serif" font-size="13" x="18" y="16">オーケストレーションに</tspan><tspan font-family="Yu Gothic,Yu Gothic_MSFontService,sans-serif" font-size="13" x="18" y="32">外部イベントを送付</tspan></text><path d="M246.5 511 251.25 511 251.25 485.5 260.75 485.5 260.75 511 265.5 511 256 520.5Z" stroke="#2F528F" stroke-width="1.33333" stroke-miterlimit="8" stroke-opacity="0.501961" fill="#4472C4" fill-rule="evenodd" fill-opacity="0.501961"/><g clip-path="url(#clip25)"><g clip-path="url(#clip26)"><g clip-path="url(#clip27)"><path d="M178.773 588.482 177.633 589.625C177.431 589.828 177.102 589.828 176.899 589.626L168.434 581.185C168.029 580.781 168.028 580.124 168.432 579.719L169.577 578.571 169.577 578.571 178.778 587.745C178.981 587.948 178.981 588.276 178.779 588.479Z" fill="#50E6FF"/><path d="M177.457 571.371 178.603 572.514C178.807 572.717 178.807 573.045 178.605 573.249L169.566 582.312 169.566 582.312 168.418 581.167C168.013 580.763 168.012 580.107 168.416 579.702L176.725 571.369C176.928 571.168 177.255 571.169 177.457 571.371Z" fill="#1490DF"/><path d="M201.424 578.579 202.568 579.726C202.972 580.131 202.971 580.787 202.566 581.191L194.101 589.632C193.898 589.835 193.569 589.834 193.367 589.631L192.228 588.49C192.026 588.287 192.026 587.958 192.23 587.756L201.428 578.583 201.428 578.583Z" fill="#50E6FF"/><path d="M202.576 581.162 201.429 582.306 201.429 582.306 192.391 573.242C192.188 573.039 192.189 572.71 192.392 572.508L193.539 571.364C193.742 571.162 194.07 571.162 194.273 571.365L202.582 579.698C202.986 580.103 202.985 580.76 202.58 581.164Z" fill="#1490DF"/><path d="M184.448 582.25 177.469 582.25C177.266 582.258 177.093 582.102 177.081 581.898 177.081 581.847 177.093 581.797 177.116 581.752L185.482 565.197C185.555 565.066 185.695 564.987 185.844 564.991L194.098 564.991C194.302 564.983 194.475 565.14 194.487 565.343 194.487 565.414 194.463 565.482 194.419 565.537L184.594 578.489 194.176 578.489C194.38 578.482 194.552 578.638 194.565 578.841 194.564 578.931 194.527 579.016 194.464 579.079L178.541 595.643C178.391 595.733 177.327 596.616 177.849 595.276L177.849 595.276Z" fill="url(#fill28)"/></g></g></g><path d="M289.5 640.167C289.5 627.648 299.648 617.5 312.167 617.5L534.833 617.5C547.352 617.5 557.5 627.648 557.5 640.167L557.5 730.833C557.5 743.352 547.352 753.5 534.833 753.5L312.167 753.5C299.648 753.5 289.5 743.352 289.5 730.833Z" stroke="#4472C4" stroke-width="1.33333" stroke-miterlimit="8" fill="#FFFFFF" fill-rule="evenodd"/><text font-family="Yu Gothic,Yu Gothic_MSFontService,sans-serif" font-weight="400" font-size="13" transform="translate(336.814 641)">&lt;&lt;<tspan font-size="13" x="19.3333" y="0">オーケストレーション</tspan>&gt;&gt;<tspan font-family="Arial,Arial_MSFontService,sans-serif" font-size="13" x="-31.6667" y="16">•</tspan><tspan font-size="13" x="-13.6667" y="16">外部イベント</tspan><tspan font-size="13" x="66.3333" y="16">を状態マシンの</tspan><tspan font-size="13" x="-13.6667" y="32">イベントに変換</tspan><tspan font-family="Arial,Arial_MSFontService,sans-serif" font-size="13" x="-31.6667" y="48">•</tspan><tspan font-size="13" x="-13.6667" y="48">遷移先の状態を決定し、</tspan><tspan font-size="13" x="-13.6667" y="64">エントリアクションを、</tspan><tspan font-size="13" x="133" y="64">Twin</tspan><tspan font-size="13" x="-13.6667" y="80">Graph</tspan><tspan font-size="13" x="27.5" y="80">を参照しながら実行</tspan><tspan font-family="Arial,Arial_MSFontService,sans-serif" font-size="13" x="-31.6667" y="96">•</tspan><tspan font-size="13" x="-13.6667" y="96">更新結果を元</tspan><tspan font-size="13" x="66.3333" y="96">に</tspan><tspan font-size="13" x="83.5" y="96">Twin</tspan><tspan font-size="13" x="117.167" y="96">Graph</tspan>を更新</text><path d="M280.5 648.167C280.5 635.648 290.648 625.5 303.167 625.5L525.833 625.5C538.352 625.5 548.5 635.648 548.5 648.167L548.5 738.833C548.5 751.352 538.352 761.5 525.833 761.5L303.167 761.5C290.648 761.5 280.5 751.352 280.5 738.833Z" stroke="#4472C4" stroke-width="1.33333" stroke-miterlimit="8" fill="#FFFFFF" fill-rule="evenodd"/><text font-family="Yu Gothic,Yu Gothic_MSFontService,sans-serif" font-weight="400" font-size="13" transform="translate(328.327 649)">&lt;&lt;<tspan font-size="13" x="19.3333" y="0">オーケストレーション</tspan><tspan font-size="13" x="152.667" y="0">&gt;&gt;</tspan><tspan font-family="Arial,Arial_MSFontService,sans-serif" font-size="13" x="-31.6667" y="16">•</tspan><tspan font-size="13" x="-13.6667" y="16">外部</tspan><tspan font-size="13" x="13" y="16">イベント</tspan><tspan font-size="13" x="65.6667" y="16">を</tspan><tspan font-size="13" x="79" y="16">状態</tspan><tspan font-size="13" x="105.667" y="16">マシンの</tspan><tspan font-size="13" x="-13.6667" y="32">イベントに</tspan><tspan font-size="13" x="52.3333" y="32">変換</tspan><tspan font-family="Arial,Arial_MSFontService,sans-serif" font-size="13" x="-31.6667" y="48">•</tspan><tspan font-size="13" x="-13.6667" y="48">遷移先</tspan>の<tspan font-size="13" x="39.6667" y="48">状態</tspan><tspan font-size="13" x="66.3333" y="48">を</tspan><tspan font-size="13" x="79.6667" y="48">決定</tspan><tspan font-size="13" x="106.333" y="48">し</tspan><tspan font-size="13" x="119.667" y="48">、</tspan><tspan font-size="13" x="-13.6667" y="64">エントリアクションを</tspan><tspan font-size="13" x="119.667" y="64">、</tspan><tspan font-size="13" x="133" y="64">Twin</tspan><tspan font-size="13" x="161.667" y="64"> </tspan><tspan font-size="13" x="165.5" y="64">Graph</tspan><tspan font-size="13" x="202.833" y="64"> </tspan><tspan font-size="13" x="-13.6667" y="80">を</tspan><tspan font-size="13" x="-0.333344" y="80">参照</tspan><tspan font-size="13" x="26.3333" y="80">しながら</tspan><tspan font-size="13" x="79.6667" y="80">実行</tspan><tspan font-family="Arial,Arial_MSFontService,sans-serif" font-size="13" x="-31.6667" y="96">•</tspan><tspan font-size="13" x="-13.6667" y="96">更新結果</tspan><tspan font-size="13" x="39.6667" y="96">を</tspan><tspan font-size="13" x="53" y="96">元</tspan><tspan font-size="13" x="66.3333" y="96">に</tspan><tspan font-size="13" x="79.6667" y="96"> </tspan><tspan font-size="13" x="83.5" y="96">Twin</tspan><tspan font-size="13" x="112.167" y="96"> </tspan><tspan font-size="13" x="116" y="96">Graph</tspan>を<tspan font-size="13" x="166.667" y="96">更新</tspan></text><path d="M272.5 658.167C272.5 645.648 282.648 635.5 295.167 635.5L517.833 635.5C530.352 635.5 540.5 645.648 540.5 658.167L540.5 748.833C540.5 761.352 530.352 771.5 517.833 771.5L295.167 771.5C282.648 771.5 272.5 761.352 272.5 748.833Z" stroke="#4472C4" stroke-width="1.33333" stroke-miterlimit="8" fill="#FFFFFF" fill-rule="evenodd"/><text font-family="Yu Gothic,Yu Gothic_MSFontService,sans-serif" font-weight="400" font-size="13" transform="translate(319.839 659)">&lt;&lt;<tspan font-size="13" x="19.3333" y="0">オーケストレーション</tspan>&gt;&gt;<tspan font-family="Arial,Arial_MSFontService,sans-serif" font-size="13" x="-31.6667" y="16">•</tspan><tspan font-size="13" x="-13.6667" y="16">外部</tspan><tspan font-size="13" x="13" y="16">イベント</tspan><tspan font-size="13" x="65.6667" y="16">を</tspan><tspan font-size="13" x="79" y="16">状態</tspan><tspan font-size="13" x="105.667" y="16">マシンの</tspan><tspan font-size="13" x="-13.6667" y="32">イベントに</tspan><tspan font-size="13" x="52.3333" y="32">変換</tspan><tspan font-family="Arial,Arial_MSFontService,sans-serif" font-size="13" x="-31.6667" y="48">•</tspan><tspan font-size="13" x="-13.6667" y="48">遷移先</tspan>の<tspan font-size="13" x="39.6667" y="48">状態</tspan><tspan font-size="13" x="66.3333" y="48">を</tspan><tspan font-size="13" x="79.6667" y="48">決定</tspan><tspan font-size="13" x="106.333" y="48">し</tspan><tspan font-size="13" x="119.667" y="48">、</tspan><tspan font-size="13" x="-13.6667" y="64">エントリアクションを</tspan>、<tspan font-size="13" x="133" y="64">Twin</tspan><tspan font-size="13" x="161.667" y="64"> </tspan><tspan font-size="13" x="165.5" y="64">Graph</tspan> <tspan font-size="13" x="-13.6667" y="80">を</tspan><tspan font-size="13" x="-0.333344" y="80">参照</tspan><tspan font-size="13" x="26.3333" y="80">しながら</tspan><tspan font-size="13" x="79.6667" y="80">実行</tspan><tspan font-family="Arial,Arial_MSFontService,sans-serif" font-size="13" x="-31.6667" y="96">•</tspan><tspan font-size="13" x="-13.6667" y="96">更新結果</tspan><tspan font-size="13" x="39.6667" y="96">を</tspan><tspan font-size="13" x="53" y="96">元</tspan><tspan font-size="13" x="66.3333" y="96">に</tspan><tspan font-size="13" x="79.6667" y="96"> </tspan><tspan font-size="13" x="83.5" y="96">Twin</tspan><tspan font-size="13" x="112.167" y="96"> </tspan><tspan font-size="13" x="116" y="96">Graph</tspan><tspan font-size="13" x="153.333" y="96">を</tspan><tspan font-size="13" x="166.667" y="96">更新</tspan></text><path d="M263.5 666.167C263.5 653.648 273.648 643.5 286.167 643.5L508.833 643.5C521.352 643.5 531.5 653.648 531.5 666.167L531.5 756.833C531.5 769.352 521.352 779.5 508.833 779.5L286.167 779.5C273.648 779.5 263.5 769.352 263.5 756.833Z" stroke="#4472C4" stroke-width="1.33333" stroke-miterlimit="8" fill="#FFFFFF" fill-rule="evenodd"/><text font-family="Yu Gothic,Yu Gothic_MSFontService,sans-serif" font-weight="400" font-size="13" transform="translate(311.352 667)">&lt;&lt;<tspan font-size="13" x="19.3333" y="0">オーケストレーション</tspan>&gt;&gt;<tspan font-family="Arial,Arial_MSFontService,sans-serif" font-size="13" x="-31.6667" y="16">•</tspan><tspan font-size="13" x="-13.6667" y="16">外部</tspan><tspan font-size="13" x="13" y="16">イベント</tspan><tspan font-size="13" x="65.6667" y="16">を</tspan><tspan font-size="13" x="79" y="16">状態</tspan><tspan font-size="13" x="105.667" y="16">マシンの</tspan><tspan font-size="13" x="-13.6667" y="32">イベントに</tspan><tspan font-size="13" x="52.3333" y="32">変換</tspan><tspan font-family="Arial,Arial_MSFontService,sans-serif" font-size="13" x="-31.6667" y="48">•</tspan><tspan font-size="13" x="-13.6667" y="48">遷移先</tspan>の<tspan font-size="13" x="39.6667" y="48">状態</tspan><tspan font-size="13" x="66.3333" y="48">を</tspan><tspan font-size="13" x="79.6667" y="48">決定</tspan><tspan font-size="13" x="106.333" y="48">し</tspan><tspan font-size="13" x="119.667" y="48">、</tspan><tspan font-size="13" x="-13.6667" y="64">エントリアクションを</tspan><tspan font-size="13" x="119.667" y="64">、</tspan><tspan font-size="13" x="133" y="64">Twin</tspan><tspan font-size="13" x="161.667" y="64"> </tspan><tspan font-size="13" x="165.5" y="64">Graph</tspan> <tspan font-size="13" x="-13.6667" y="80">を</tspan><tspan font-size="13" x="-0.333344" y="80">参照</tspan><tspan font-size="13" x="26.3333" y="80">しながら</tspan><tspan font-size="13" x="79.6667" y="80">実行</tspan><tspan font-family="Arial,Arial_MSFontService,sans-serif" font-size="13" x="-31.6667" y="96">•</tspan><tspan font-size="13" x="-13.6667" y="96">更新結果</tspan><tspan font-size="13" x="39.6667" y="96">を</tspan><tspan font-size="13" x="53" y="96">元</tspan><tspan font-size="13" x="66.3333" y="96">に</tspan><tspan font-size="13" x="79.6667" y="96"> </tspan><tspan font-size="13" x="83.5" y="96">Twin</tspan><tspan font-size="13" x="112.167" y="96"> </tspan><tspan font-size="13" x="116" y="96">Graph</tspan>を<tspan font-size="13" x="166.667" y="96">更新</tspan></text><path d="M435.5 422 452 405.5 468.5 422 460.25 422 460.25 631 468.5 631 452 647.5 435.5 631 443.75 631 443.75 422Z" stroke="#2F528F" stroke-width="1.33333" stroke-miterlimit="8" stroke-opacity="0.501961" fill="#4472C4" fill-rule="evenodd" fill-opacity="0.501961"/><path d="M0 92 0 28.6874C-5.85642e-15 16.3646 9.98967 6.3749 22.3125 6.3749L38.25 6.375 38.25 0 51 12.75 38.25 25.5 38.25 19.125 22.3125 19.125C17.0313 19.125 12.75 23.4063 12.75 28.6875L12.75 92Z" stroke="#2F528F" stroke-width="1.33333" stroke-miterlimit="8" stroke-opacity="0.501961" fill="#4472C4" fill-rule="evenodd" fill-opacity="0.501961" transform="matrix(1 0 0 -1 226.5 675.5)"/><g clip-path="url(#clip29)" filter="url(#fx2)" transform="translate(203 160)"><g clip-path="url(#clip30)"><path d="M9.07031-11.0938 9.07031-2.48438 11.0234-2.48438 11.0234-1.1875 5.375-1.1875 5.375-2.48438 7.45312-2.48438 7.45312-9.44531C6.91667-9.08073 6.25521-8.77604 5.46875-8.53125L5.17969-9.875C6.1901-10.2135 7.03385-10.6198 7.71094-11.0938ZM8-13.7109C9.38021-13.7109 10.6641-13.362 11.8516-12.6641 13.0026-11.9922 13.9141-11.0807 14.5859-9.92969 15.2839-8.74219 15.6328-7.45833 15.6328-6.07812 15.6328-4.69792 15.2839-3.41406 14.5859-2.22656 13.9141-1.07552 13.0026-0.164062 11.8516 0.507812 10.6641 1.20573 9.38021 1.55469 8 1.55469 6.61979 1.55469 5.33594 1.20573 4.14844 0.507812 2.9974-0.164062 2.08594-1.07552 1.41406-2.22656 0.716146-3.41406 0.367188-4.69792 0.367188-6.07812 0.367188-7.45833 0.716146-8.74219 1.41406-9.92969 2.08594-11.0807 2.9974-11.9922 4.14844-12.6641 5.33594-13.362 6.61979-13.7109 8-13.7109ZM8-13.1797C6.71875-13.1797 5.52604-12.8542 4.42188-12.2031 3.35417-11.5729 2.50521-10.724 1.875-9.65625 1.22396-8.55208 0.898438-7.35938 0.898438-6.07812 0.898438-4.79688 1.22396-3.60417 1.875-2.5 2.50521-1.43229 3.35417-0.583333 4.42188 0.046875 5.52604 0.697917 6.71875 1.02344 8 1.02344 9.28125 1.02344 10.474 0.697917 11.5781 0.046875 12.6458-0.583333 13.4948-1.43229 14.125-2.5 14.776-3.60417 15.1016-4.79688 15.1016-6.07812 15.1016-7.35938 14.776-8.55208 14.125-9.65625 13.4948-10.724 12.6458-11.5729 11.5781-12.2031 10.474-12.8542 9.28125-13.1797 8-13.1797Z" transform="translate(12.9711 23)"/></g></g><text font-family="Yu Gothic,Yu Gothic_MSFontService,sans-serif" font-weight="700" font-size="16" transform="translate(214.988 182)">①</text><g clip-path="url(#clip31)" filter="url(#fx3)" transform="translate(261 275)"><g clip-path="url(#clip32)"><path d="M4.71875-8.5C4.86979-9.42708 5.27083-10.1302 5.92188-10.6094 6.48438-11.026 7.17708-11.2344 8-11.2344 9.04167-11.2344 9.85677-10.9714 10.4453-10.4453 10.9714-9.97135 11.2344-9.34896 11.2344-8.57812 11.2344-7.94792 11.0521-7.38021 10.6875-6.875 10.3854-6.46354 9.83594-5.92187 9.03906-5.25 8.1901-4.52083 7.60156-3.98958 7.27344-3.65625 6.90365-3.28125 6.61719-2.91667 6.41406-2.5625L11.2656-2.5625 11.2656-1.21875 4.625-1.21875 4.625-2.42188C5.25521-3.59375 6.29167-4.78646 7.73438-6 8.44792-6.66146 8.92188-7.18229 9.15625-7.5625 9.34896-7.88021 9.44531-8.21875 9.44531-8.57812 9.44531-9.03646 9.30208-9.38802 9.01562-9.63281 8.76562-9.84635 8.43229-9.95312 8.01562-9.95312 7.03646-9.95312 6.48177-9.35677 6.35156-8.16406ZM8-13.7109C9.38021-13.7109 10.6641-13.362 11.8516-12.6641 13.0026-11.9922 13.9141-11.0807 14.5859-9.92969 15.2839-8.74219 15.6328-7.45833 15.6328-6.07812 15.6328-4.69792 15.2839-3.41406 14.5859-2.22656 13.9141-1.07552 13.0026-0.164062 11.8516 0.507812 10.6641 1.20573 9.38021 1.55469 8 1.55469 6.61979 1.55469 5.33594 1.20573 4.14844 0.507812 2.9974-0.164062 2.08594-1.07552 1.41406-2.22656 0.716146-3.41406 0.367188-4.69792 0.367188-6.07812 0.367188-7.45833 0.716146-8.74219 1.41406-9.92969 2.08594-11.0807 2.9974-11.9922 4.14844-12.6641 5.33594-13.362 6.61979-13.7109 8-13.7109ZM8-13.1797C6.71875-13.1797 5.52604-12.8542 4.42188-12.2031 3.35417-11.5729 2.50521-10.724 1.875-9.65625 1.22396-8.55208 0.898438-7.35938 0.898438-6.07812 0.898438-4.79688 1.22396-3.60417 1.875-2.5 2.50521-1.43229 3.35417-0.583333 4.42188 0.046875 5.52604 0.697917 6.71875 1.02344 8 1.02344 9.28125 1.02344 10.474 0.697917 11.5781 0.046875 12.6458-0.583333 13.4948-1.43229 14.125-2.5 14.776-3.60417 15.1016-4.79688 15.1016-6.07812 15.1016-7.35938 14.776-8.55208 14.125-9.65625 13.4948-10.724 12.6458-11.5729 11.5781-12.2031 10.474-12.8542 9.28125-13.1797 8-13.1797Z" transform="translate(12.0208 23)"/></g></g><path d="M4.71875-8.5C4.86979-9.42708 5.27083-10.1302 5.92188-10.6094 6.48438-11.026 7.17708-11.2344 8-11.2344 9.04167-11.2344 9.85677-10.9714 10.4453-10.4453 10.9714-9.97135 11.2344-9.34896 11.2344-8.57812 11.2344-7.94792 11.0521-7.38021 10.6875-6.875 10.3854-6.46354 9.83594-5.92187 9.03906-5.25 8.1901-4.52083 7.60156-3.98958 7.27344-3.65625 6.90365-3.28125 6.61719-2.91667 6.41406-2.5625L11.2656-2.5625 11.2656-1.21875 4.625-1.21875 4.625-2.42188C5.25521-3.59375 6.29167-4.78646 7.73438-6 8.44792-6.66146 8.92188-7.18229 9.15625-7.5625 9.34896-7.88021 9.44531-8.21875 9.44531-8.57812 9.44531-9.03646 9.30208-9.38802 9.01562-9.63281 8.76562-9.84635 8.43229-9.95312 8.01562-9.95312 7.03646-9.95312 6.48177-9.35677 6.35156-8.16406ZM8-13.7109C9.38021-13.7109 10.6641-13.362 11.8516-12.6641 13.0026-11.9922 13.9141-11.0807 14.5859-9.92969 15.2839-8.74219 15.6328-7.45833 15.6328-6.07812 15.6328-4.69792 15.2839-3.41406 14.5859-2.22656 13.9141-1.07552 13.0026-0.164062 11.8516 0.507812 10.6641 1.20573 9.38021 1.55469 8 1.55469 6.61979 1.55469 5.33594 1.20573 4.14844 0.507812 2.9974-0.164062 2.08594-1.07552 1.41406-2.22656 0.716146-3.41406 0.367188-4.69792 0.367188-6.07812 0.367188-7.45833 0.716146-8.74219 1.41406-9.92969 2.08594-11.0807 2.9974-11.9922 4.14844-12.6641 5.33594-13.362 6.61979-13.7109 8-13.7109ZM8-13.1797C6.71875-13.1797 5.52604-12.8542 4.42188-12.2031 3.35417-11.5729 2.50521-10.724 1.875-9.65625 1.22396-8.55208 0.898438-7.35938 0.898438-6.07812 0.898438-4.79688 1.22396-3.60417 1.875-2.5 2.50521-1.43229 3.35417-0.583333 4.42188 0.046875 5.52604 0.697917 6.71875 1.02344 8 1.02344 9.28125 1.02344 10.474 0.697917 11.5781 0.046875 12.6458-0.583333 13.4948-1.43229 14.125-2.5 14.776-3.60417 15.1016-4.79688 15.1016-6.07812 15.1016-7.35938 14.776-8.55208 14.125-9.65625 13.4948-10.724 12.6458-11.5729 11.5781-12.2031 10.474-12.8542 9.28125-13.1797 8-13.1797Z" transform="translate(272.037 297)"/><text font-family="Yu Gothic,Yu Gothic_MSFontService,sans-serif" font-weight="400" font-size="13" transform="translate(315.42 296)">Publish Telemetry</text><g clip-path="url(#clip33)" filter="url(#fx4)" transform="translate(264 418)"><g clip-path="url(#clip34)"><path d="M4.67188-9.05469C5.13542-10.4766 6.21094-11.1875 7.89844-11.1875 8.92969-11.1875 9.73958-10.9245 10.3281-10.3984 10.8333-9.95052 11.0859-9.38021 11.0859-8.6875 11.0859-8.07292 10.8802-7.56771 10.4688-7.17188 10.1146-6.83333 9.63802-6.60156 9.03906-6.47656L9.03906-6.38281C10.5547-6.09115 11.3125-5.26562 11.3125-3.90625 11.3125-2.95833 10.9583-2.21354 10.25-1.67188 9.63542-1.20833 8.85417-0.976562 7.90625-0.976562 6.125-0.976562 4.99219-1.70833 4.50781-3.17188L6.09375-3.64844C6.32812-2.72135 6.9375-2.25781 7.92188-2.25781 8.43229-2.25781 8.83594-2.42188 9.13281-2.75 9.39323-3.04688 9.52344-3.42708 9.52344-3.89062 9.52344-5.07292 8.83854-5.66406 7.46875-5.66406L6.67188-5.66406 6.67188-6.99219 7.375-6.99219C8.69792-6.99219 9.35938-7.51562 9.35938-8.5625 9.35938-9.00521 9.20312-9.34896 8.89062-9.59375 8.63021-9.80208 8.29688-9.90625 7.89062-9.90625 7.04688-9.90625 6.49219-9.46875 6.22656-8.59375ZM8-13.7109C9.38021-13.7109 10.6641-13.362 11.8516-12.6641 13.0026-11.9922 13.9141-11.0807 14.5859-9.92969 15.2839-8.74219 15.6328-7.45833 15.6328-6.07812 15.6328-4.69792 15.2839-3.41406 14.5859-2.22656 13.9141-1.07552 13.0026-0.164062 11.8516 0.507812 10.6641 1.20573 9.38021 1.55469 8 1.55469 6.61979 1.55469 5.33594 1.20573 4.14844 0.507812 2.9974-0.164062 2.08594-1.07552 1.41406-2.22656 0.716146-3.41406 0.367188-4.69792 0.367188-6.07812 0.367188-7.45833 0.716146-8.74219 1.41406-9.92969 2.08594-11.0807 2.9974-11.9922 4.14844-12.6641 5.33594-13.362 6.61979-13.7109 8-13.7109ZM8-13.1797C6.71875-13.1797 5.52604-12.8542 4.42188-12.2031 3.35417-11.5729 2.50521-10.724 1.875-9.65625 1.22396-8.55208 0.898438-7.35938 0.898438-6.07812 0.898438-4.79688 1.22396-3.60417 1.875-2.5 2.50521-1.43229 3.35417-0.583333 4.42188 0.046875 5.52604 0.697917 6.71875 1.02344 8 1.02344 9.28125 1.02344 10.474 0.697917 11.5781 0.046875 12.6458-0.583333 13.4948-1.43229 14.125-2.5 14.776-3.60417 15.1016-4.79688 15.1016-6.07812 15.1016-7.35938 14.776-8.55208 14.125-9.65625 13.4948-10.724 12.6458-11.5729 11.5781-12.2031 10.474-12.8542 9.28125-13.1797 8-13.1797Z" transform="translate(12.8651 23)"/></g></g><text font-family="Yu Gothic,Yu Gothic_MSFontService,sans-serif" font-weight="700" font-size="16" transform="translate(275.882 440)">③</text><g clip-path="url(#clip35)" filter="url(#fx5)" transform="translate(191 600)"><g clip-path="url(#clip36)"><path d="M9.78906-11.0547 9.78906-4.67188 11.2109-4.67188 11.2109-3.40625 9.78906-3.40625 9.78906-1.14844 8.26562-1.14844 8.26562-3.40625 4.125-3.40625 4.125-4.59375 7.6875-11.0547ZM8.26562-4.67188 8.26562-6.75C8.26562-7.24479 8.29167-8.27865 8.34375-9.85156L8.1875-9.85156C7.72396-8.77865 7.3125-7.92708 6.95312-7.29688L5.53125-4.67188ZM8-13.7109C9.38021-13.7109 10.6641-13.362 11.8516-12.6641 13.0026-11.9922 13.9141-11.0807 14.5859-9.92969 15.2839-8.74219 15.6328-7.45833 15.6328-6.07812 15.6328-4.69792 15.2839-3.41406 14.5859-2.22656 13.9141-1.07552 13.0026-0.164062 11.8516 0.507812 10.6641 1.20573 9.38021 1.55469 8 1.55469 6.61979 1.55469 5.33594 1.20573 4.14844 0.507812 2.9974-0.164062 2.08594-1.07552 1.41406-2.22656 0.716146-3.41406 0.367188-4.69792 0.367188-6.07812 0.367188-7.45833 0.716146-8.74219 1.41406-9.92969 2.08594-11.0807 2.9974-11.9922 4.14844-12.6641 5.33594-13.362 6.61979-13.7109 8-13.7109ZM8-13.1797C6.71875-13.1797 5.52604-12.8542 4.42188-12.2031 3.35417-11.5729 2.50521-10.724 1.875-9.65625 1.22396-8.55208 0.898438-7.35938 0.898438-6.07812 0.898438-4.79688 1.22396-3.60417 1.875-2.5 2.50521-1.43229 3.35417-0.583333 4.42188 0.046875 5.52604 0.697917 6.71875 1.02344 8 1.02344 9.28125 1.02344 10.474 0.697917 11.5781 0.046875 12.6458-0.583333 13.4948-1.43229 14.125-2.5 14.776-3.60417 15.1016-4.79688 15.1016-6.07812 15.1016-7.35938 14.776-8.55208 14.125-9.65625 13.4948-10.724 12.6458-11.5729 11.5781-12.2031 10.474-12.8542 9.28125-13.1797 8-13.1797Z" transform="translate(12.692 23)"/></g></g><text font-family="Yu Gothic,Yu Gothic_MSFontService,sans-serif" font-weight="700" font-size="16" transform="translate(202.709 622)">④</text><g clip-path="url(#clip37)" filter="url(#fx6)" transform="translate(456 529)"><g clip-path="url(#clip38)"><path d="M10.9141-11.0078 10.9141-9.64844 6.6875-9.64844 6.5625-7.64844C6.54687-7.3776 6.51823-7.07812 6.47656-6.75 6.89844-7.33854 7.52344-7.63281 8.35156-7.63281 9.30469-7.63281 10.0599-7.30469 10.6172-6.64844 11.112-6.07031 11.3594-5.32031 11.3594-4.39844 11.3594-3.28906 11.0026-2.41667 10.2891-1.78125 9.67448-1.23438 8.89583-0.960937 7.95312-0.960938 6.22917-0.960937 5.14062-1.66927 4.6875-3.08594L6.32031-3.61719C6.55469-2.70052 7.08854-2.24219 7.92188-2.24219 8.46875-2.24219 8.89323-2.45833 9.19531-2.89062 9.45573-3.26042 9.58594-3.7474 9.58594-4.35156 9.58594-5.03385 9.42188-5.55469 9.09375-5.91406 8.81771-6.21615 8.45312-6.36719 8-6.36719 7.23958-6.36719 6.72135-6.00521 6.44531-5.28125L5.00781-5.46875 5.26562-11.0078ZM8-13.7109C9.38021-13.7109 10.6641-13.362 11.8516-12.6641 13.0026-11.9922 13.9141-11.0807 14.5859-9.92969 15.2839-8.74219 15.6328-7.45833 15.6328-6.07812 15.6328-4.69792 15.2839-3.41406 14.5859-2.22656 13.9141-1.07552 13.0026-0.164062 11.8516 0.507812 10.6641 1.20573 9.38021 1.55469 8 1.55469 6.61979 1.55469 5.33594 1.20573 4.14844 0.507812 2.9974-0.164062 2.08594-1.07552 1.41406-2.22656 0.716146-3.41406 0.367188-4.69792 0.367188-6.07812 0.367188-7.45833 0.716146-8.74219 1.41406-9.92969 2.08594-11.0807 2.9974-11.9922 4.14844-12.6641 5.33594-13.362 6.61979-13.7109 8-13.7109ZM8-13.1797C6.71875-13.1797 5.52604-12.8542 4.42188-12.2031 3.35417-11.5729 2.50521-10.724 1.875-9.65625 1.22396-8.55208 0.898438-7.35938 0.898438-6.07812 0.898438-4.79688 1.22396-3.60417 1.875-2.5 2.50521-1.43229 3.35417-0.583333 4.42188 0.046875 5.52604 0.697917 6.71875 1.02344 8 1.02344 9.28125 1.02344 10.474 0.697917 11.5781 0.046875 12.6458-0.583333 13.4948-1.43229 14.125-2.5 14.776-3.60417 15.1016-4.79688 15.1016-6.07812 15.1016-7.35938 14.776-8.55208 14.125-9.65625 13.4948-10.724 12.6458-11.5729 11.5781-12.2031 10.474-12.8542 9.28125-13.1797 8-13.1797Z" transform="translate(12.4908 23)"/></g></g><path d="M10.9141-11.0078 10.9141-9.64844 6.6875-9.64844 6.5625-7.64844C6.54687-7.3776 6.51823-7.07812 6.47656-6.75 6.89844-7.33854 7.52344-7.63281 8.35156-7.63281 9.30469-7.63281 10.0599-7.30469 10.6172-6.64844 11.112-6.07031 11.3594-5.32031 11.3594-4.39844 11.3594-3.28906 11.0026-2.41667 10.2891-1.78125 9.67448-1.23438 8.89583-0.960937 7.95312-0.960938 6.22917-0.960937 5.14062-1.66927 4.6875-3.08594L6.32031-3.61719C6.55469-2.70052 7.08854-2.24219 7.92188-2.24219 8.46875-2.24219 8.89323-2.45833 9.19531-2.89062 9.45573-3.26042 9.58594-3.7474 9.58594-4.35156 9.58594-5.03385 9.42188-5.55469 9.09375-5.91406 8.81771-6.21615 8.45312-6.36719 8-6.36719 7.23958-6.36719 6.72135-6.00521 6.44531-5.28125L5.00781-5.46875 5.26562-11.0078ZM8-13.7109C9.38021-13.7109 10.6641-13.362 11.8516-12.6641 13.0026-11.9922 13.9141-11.0807 14.5859-9.92969 15.2839-8.74219 15.6328-7.45833 15.6328-6.07812 15.6328-4.69792 15.2839-3.41406 14.5859-2.22656 13.9141-1.07552 13.0026-0.164062 11.8516 0.507812 10.6641 1.20573 9.38021 1.55469 8 1.55469 6.61979 1.55469 5.33594 1.20573 4.14844 0.507812 2.9974-0.164062 2.08594-1.07552 1.41406-2.22656 0.716146-3.41406 0.367188-4.69792 0.367188-6.07812 0.367188-7.45833 0.716146-8.74219 1.41406-9.92969 2.08594-11.0807 2.9974-11.9922 4.14844-12.6641 5.33594-13.362 6.61979-13.7109 8-13.7109ZM8-13.1797C6.71875-13.1797 5.52604-12.8542 4.42188-12.2031 3.35417-11.5729 2.50521-10.724 1.875-9.65625 1.22396-8.55208 0.898438-7.35938 0.898438-6.07812 0.898438-4.79688 1.22396-3.60417 1.875-2.5 2.50521-1.43229 3.35417-0.583333 4.42188 0.046875 5.52604 0.697917 6.71875 1.02344 8 1.02344 9.28125 1.02344 10.474 0.697917 11.5781 0.046875 12.6458-0.583333 13.4948-1.43229 14.125-2.5 14.776-3.60417 15.1016-4.79688 15.1016-6.07812 15.1016-7.35938 14.776-8.55208 14.125-9.65625 13.4948-10.724 12.6458-11.5729 11.5781-12.2031 10.474-12.8542 9.28125-13.1797 8-13.1797Z" transform="translate(467.507 551)"/><rect x="382.5" y="188.5" width="258" height="86" stroke="#2F528F" stroke-width="1.33333" stroke-miterlimit="8" fill="none"/><g clip-path="url(#clip39)"><g clip-path="url(#clip40)"><g clip-path="url(#clip41)"><path d="M610.773 263.482 609.633 264.625C609.431 264.828 609.102 264.828 608.899 264.626L600.434 256.185C600.029 255.781 600.028 255.124 600.432 254.719L601.577 253.571 601.577 253.571 610.778 262.745C610.981 262.948 610.981 263.276 610.779 263.479Z" fill="#50E6FF"/><path d="M609.457 246.371 610.603 247.514C610.807 247.717 610.807 248.045 610.604 248.249L601.566 257.312 601.566 257.312 600.418 256.167C600.013 255.763 600.012 255.107 600.416 254.702L608.725 246.369C608.928 246.168 609.255 246.169 609.457 246.371Z" fill="#1490DF"/><path d="M633.424 253.579 634.568 254.726C634.972 255.131 634.971 255.787 634.566 256.191L626.101 264.632C625.898 264.835 625.569 264.834 625.367 264.631L624.229 263.49C624.026 263.287 624.026 262.958 624.23 262.756L633.428 253.583 633.428 253.583Z" fill="#50E6FF"/><path d="M634.576 256.162 633.429 257.306 633.429 257.306 624.391 248.242C624.188 248.039 624.189 247.71 624.392 247.508L625.539 246.364C625.742 246.162 626.07 246.162 626.273 246.365L634.582 254.698C634.986 255.103 634.985 255.76 634.58 256.164Z" fill="#1490DF"/><path d="M616.448 257.25 609.469 257.25C609.266 257.258 609.093 257.102 609.081 256.898 609.081 256.847 609.093 256.797 609.116 256.752L617.482 240.197C617.555 240.066 617.695 239.987 617.844 239.991L626.098 239.991C626.302 239.983 626.475 240.14 626.487 240.343 626.487 240.414 626.463 240.482 626.419 240.538L616.594 253.489 626.176 253.489C626.38 253.482 626.552 253.638 626.565 253.841 626.564 253.931 626.527 254.016 626.464 254.079L610.541 270.643C610.391 270.733 609.328 271.616 609.849 270.276L609.849 270.276Z" fill="url(#fill42)"/></g></g></g><path d="M395.5 204.833C395.5 202.44 397.44 200.5 399.833 200.5L585.167 200.5C587.56 200.5 589.5 202.44 589.5 204.833L589.5 222.167C589.5 224.56 587.56 226.5 585.167 226.5L399.833 226.5C397.44 226.5 395.5 224.56 395.5 222.167Z" stroke="#4472C4" stroke-width="1.33333" stroke-miterlimit="8" fill="#FFFFFF" fill-rule="evenodd"/><text font-family="Arial,Arial_MSFontService,sans-serif" font-weight="400" font-size="13" transform="translate(405.735 217)">•<tspan font-family="Yu Gothic,Yu Gothic_MSFontService,sans-serif" font-size="13" x="18" y="0">ドメインオペレーション</tspan></text><path d="M395.5 241C395.5 238.515 397.515 236.5 400 236.5L586 236.5C588.485 236.5 590.5 238.515 590.5 241L590.5 259C590.5 261.485 588.485 263.5 586 263.5L400 263.5C397.515 263.5 395.5 261.485 395.5 259Z" stroke="#4472C4" stroke-width="1.33333" stroke-miterlimit="8" fill="#FFFFFF" fill-rule="evenodd"/><text font-family="Arial,Arial_MSFontService,sans-serif" font-weight="400" font-size="13" transform="translate(405.833 254)">•<tspan font-family="Yu Gothic,Yu Gothic_MSFontService,sans-serif" font-size="13" x="18" y="0">クラスオペレーション</tspan></text><path d="M481.5 185 486.25 185 486.25 163.5 495.75 163.5 495.75 185 500.5 185 491 194.5Z" stroke="#2F528F" stroke-width="1.33333" stroke-miterlimit="8" stroke-opacity="0.501961" fill="#ED7D31" fill-rule="evenodd" fill-opacity="0.501961"/><text font-family="Yu Gothic,Yu Gothic_MSFontService,sans-serif" font-weight="400" font-size="13" transform="translate(506.151 181)">HTTP Trigger</text><path d="M435.5 286 452 269.5 468.5 286 460.25 286 460.25 328 468.5 328 452 344.5 435.5 328 443.75 328 443.75 286Z" stroke="#2F528F" stroke-width="1.33333" stroke-miterlimit="8" stroke-opacity="0.501961" fill="#4472C4" fill-rule="evenodd" fill-opacity="0.501961"/><rect x="247.5" y="607.5" width="375" height="186" stroke="#2F528F" stroke-width="1.33333" stroke-miterlimit="8" fill="none"/><g clip-path="url(#clip43)"><g clip-path="url(#clip44)"><g clip-path="url(#clip45)"><path d="M589.773 778.482 588.633 779.625C588.431 779.828 588.102 779.828 587.899 779.626L579.434 771.185C579.029 770.781 579.028 770.124 579.432 769.719L580.577 768.571 580.577 768.571 589.778 777.745C589.981 777.948 589.981 778.276 589.779 778.479Z" fill="#50E6FF"/><path d="M588.457 761.371 589.603 762.514C589.807 762.717 589.807 763.045 589.604 763.249L580.566 772.312 580.566 772.312 579.418 771.167C579.013 770.763 579.012 770.107 579.416 769.702L587.725 761.369C587.928 761.168 588.255 761.169 588.457 761.371Z" fill="#1490DF"/><path d="M612.424 768.579 613.568 769.726C613.972 770.131 613.971 770.787 613.566 771.191L605.101 779.632C604.898 779.835 604.569 779.834 604.367 779.631L603.229 778.49C603.026 778.287 603.026 777.958 603.23 777.756L612.428 768.583 612.428 768.583Z" fill="#50E6FF"/><path d="M613.576 771.162 612.429 772.306 612.429 772.306 603.391 763.242C603.188 763.039 603.189 762.71 603.392 762.508L604.539 761.364C604.742 761.162 605.07 761.162 605.273 761.365L613.582 769.698C613.986 770.103 613.985 770.76 613.58 771.164Z" fill="#1490DF"/><path d="M595.448 772.25 588.469 772.25C588.266 772.258 588.093 772.102 588.081 771.898 588.081 771.847 588.093 771.797 588.116 771.752L596.482 755.197C596.555 755.066 596.695 754.987 596.844 754.991L605.098 754.991C605.302 754.983 605.475 755.14 605.487 755.343 605.487 755.414 605.463 755.482 605.419 755.537L595.594 768.489 605.176 768.489C605.38 768.482 605.552 768.638 605.565 768.841 605.564 768.931 605.527 769.016 605.464 769.079L589.541 785.643C589.391 785.733 588.328 786.616 588.849 785.276L588.849 785.276Z" fill="url(#fill46)"/></g></g></g></g></svg>