<svg width="607" height="963" xmlns="http://www.w3.org/2000/svg" xmlns:xlink="http://www.w3.org/1999/xlink" overflow="hidden"><defs><filter id="fx0" x="-10%" y="-10%" width="120%" height="120%" filterUnits="userSpaceOnUse" primitiveUnits="userSpaceOnUse"><feComponentTransfer color-interpolation-filters="sRGB"><feFuncR type="discrete" tableValues="0 0"/><feFuncG type="discrete" tableValues="0 0"/><feFuncB type="discrete" tableValues="0 0"/><feFuncA type="linear" slope="0.431373" intercept="0"/></feComponentTransfer><feGaussianBlur stdDeviation="0.376246 0.376246"/></filter><clipPath id="clip1"><rect x="60" y="69" width="607" height="963"/></clipPath><clipPath id="clip2"><rect x="10" y="8" width="12" height="10"/></clipPath><clipPath id="clip3"><rect x="0" y="0" width="30" height="29"/></clipPath><clipPath id="clip4"><rect x="261" y="102" width="13" height="13"/></clipPath><clipPath id="clip5"><rect x="261" y="102" width="13" height="13"/></clipPath><clipPath id="clip6"><rect x="261" y="102" width="13" height="13"/></clipPath><linearGradient x1="267.59" y1="114.175" x2="267.59" y2="102.649" gradientUnits="userSpaceOnUse" spreadMethod="pad" id="fill7"><stop offset="0" stop-color="#FEA11B"/><stop offset="0.284" stop-color="#FEA51A"/><stop offset="0.547" stop-color="#FEB018"/><stop offset="0.8" stop-color="#FFC314"/><stop offset="1" stop-color="#FFD70F"/></linearGradient></defs><g clip-path="url(#clip1)" transform="translate(-60 -69)"><rect x="61.5001" y="70.5001" width="605" height="960" stroke="#D9D9D9" stroke-width="1.33333" stroke-miterlimit="8" fill="none"/><path d="M75.5001 117.501C75.5001 103.141 87.1408 91.5001 101.5 91.5001L258.5 91.5001C272.859 91.5001 284.5 103.141 284.5 117.501L284.5 221.5C284.5 235.859 272.859 247.5 258.5 247.5L101.5 247.5C87.1408 247.5 75.5001 235.859 75.5001 221.5Z" stroke="#4472C4" stroke-width="1.33333" stroke-miterlimit="8" fill="#FFFFFF" fill-rule="evenodd"/><text font-family="Yu Gothic,Yu Gothic_MSFontService,sans-serif" font-weight="400" font-size="12" transform="translate(95.2939 231)">状態機械<tspan font-size="12" x="48" y="0">オーケストレーション</tspan></text><path d="M124.5 127.834C124.5 124.888 126.888 122.5 129.834 122.5L264.167 122.5C267.112 122.5 269.5 124.888 269.5 127.834L269.5 149.167C269.5 152.112 267.112 154.5 264.167 154.5L129.834 154.5C126.888 154.5 124.5 152.112 124.5 149.167Z" stroke="#4472C4" stroke-width="1.33333" stroke-miterlimit="8" fill="#FFFFFF" fill-rule="evenodd"/><text font-family="Yu Gothic,Yu Gothic_MSFontService,sans-serif" font-weight="400" font-size="12" transform="translate(135.151 142)">状態アクション</text><path d="M197.833 101.5 197.833 121.88 197.167 121.88 197.167 101.5ZM193.5 101.5C193.5 99.2909 195.291 97.5001 197.5 97.5001 199.709 97.5 201.5 99.2909 201.5 101.5 201.5 103.709 199.709 105.5 197.5 105.5 195.291 105.5 193.5 103.709 193.5 101.5ZM202.455 114.048 197.5 122.542 192.546 114.048C192.453 113.889 192.506 113.685 192.665 113.592 192.824 113.5 193.029 113.553 193.121 113.712L197.788 121.712 197.212 121.712 201.879 113.712C201.972 113.553 202.176 113.5 202.335 113.592 202.494 113.685 202.547 113.889 202.455 114.048Z" fill="#4472C4"/><path d="M125.833 198.975 101.5 198.975 101.5 138.167 123.84 138.167 123.84 138.833 101.833 138.833 102.167 138.5 102.167 198.641 101.833 198.308 125.833 198.308ZM116.008 133.545 124.502 138.5 116.008 143.455C115.849 143.547 115.645 143.494 115.552 143.335 115.459 143.176 115.513 142.972 115.672 142.879L123.672 138.212 123.672 138.788 115.672 134.121C115.513 134.029 115.459 133.824 115.552 133.665 115.645 133.506 115.849 133.453 116.008 133.545Z" fill="#4472C4"/><path d="M124.5 187.167C124.5 184.037 127.037 181.5 130.167 181.5L263.833 181.5C266.963 181.5 269.5 184.037 269.5 187.167L269.5 209.833C269.5 212.963 266.963 215.5 263.833 215.5L130.167 215.5C127.037 215.5 124.5 212.963 124.5 209.833Z" stroke="#4472C4" stroke-width="1.33333" stroke-miterlimit="8" fill="#FFFFFF" fill-rule="evenodd"/><text font-family="Yu Gothic,Yu Gothic_MSFontService,sans-serif" font-weight="400" font-size="12" transform="translate(135.258 202)">状態アクション</text><path d="M197.833 154.5 197.833 155.167 197.167 155.167 197.167 154.5ZM197.833 155.833 197.833 156.5 197.167 156.5 197.167 155.833ZM197.833 157.167 197.833 157.833 197.167 157.833 197.167 157.167ZM197.833 158.5 197.833 159.167 197.167 159.167 197.167 158.5ZM197.833 159.833 197.833 160.5 197.167 160.5 197.167 159.833ZM197.833 161.167 197.833 161.833 197.167 161.833 197.167 161.167ZM197.833 162.5 197.833 163.167 197.167 163.167 197.167 162.5ZM197.833 163.833 197.833 164.5 197.167 164.5 197.167 163.833ZM197.833 165.167 197.833 165.833 197.167 165.833 197.167 165.167ZM197.833 166.5 197.833 167.167 197.167 167.167 197.167 166.5ZM197.833 167.833 197.833 168.5 197.167 168.5 197.167 167.833ZM197.833 169.167 197.833 169.833 197.167 169.833 197.167 169.167ZM197.833 170.5 197.833 171.167 197.167 171.167 197.167 170.5ZM197.833 171.833 197.833 172.5 197.167 172.5 197.167 171.833ZM197.833 173.167 197.833 173.833 197.167 173.833 197.167 173.167ZM197.833 174.5 197.833 175.167 197.167 175.167 197.167 174.5ZM197.833 175.833 197.833 176.5 197.167 176.5 197.167 175.833ZM197.833 177.167 197.833 177.833 197.167 177.833 197.167 177.167ZM197.833 178.5 197.833 179.167 197.167 179.167 197.167 178.5ZM197.833 179.833 197.833 180.5 197.167 180.5 197.167 179.833ZM202.455 172.955 197.5 181.449 192.546 172.955C192.453 172.796 192.506 172.592 192.665 172.499 192.825 172.407 193.029 172.46 193.121 172.619L197.788 180.619 197.212 180.619 201.879 172.619C201.972 172.46 202.176 172.407 202.335 172.499 202.494 172.592 202.547 172.796 202.455 172.955Z" fill="#4472C4"/><path d="M246.5 153.375C246.5 155.515 253.44 157.25 262 157.25 270.56 157.25 277.5 155.515 277.5 153.375L277.5 176.625C277.5 178.765 270.56 180.5 262 180.5 253.44 180.5 246.5 178.765 246.5 176.625Z" fill="#FFC000" fill-rule="evenodd"/><path d="M246.5 153.375C246.5 151.235 253.44 149.5 262 149.5 270.56 149.5 277.5 151.235 277.5 153.375 277.5 155.515 270.56 157.25 262 157.25 253.44 157.25 246.5 155.515 246.5 153.375Z" fill="#FFD966" fill-rule="evenodd"/><path d="M277.5 153.375C277.5 155.515 270.56 157.25 262 157.25 253.44 157.25 246.5 155.515 246.5 153.375 246.5 151.235 253.44 149.5 262 149.5 270.56 149.5 277.5 151.235 277.5 153.375L277.5 176.625C277.5 178.765 270.56 180.5 262 180.5 253.44 180.5 246.5 178.765 246.5 176.625L246.5 153.375" stroke="#BC8C00" stroke-width="1.33333" stroke-miterlimit="8" fill="none" fill-rule="evenodd"/><g clip-path="url(#clip2)" filter="url(#fx0)" transform="translate(247 154)"><g clip-path="url(#clip3)"><path d="M2.51904-8.51318 2.51904 0.0214844 1.02051 0.0214844 1.02051-8.51318ZM4.52051-8.51318 7.5874-8.51318C9.60335-8.51318 10.6113-7.73975 10.6113-6.19287 10.6113-5.62354 10.4466-5.1473 10.1172-4.76416 9.82715-4.42399 9.4279-4.17692 8.91943-4.02295L10.8906 0.0214844 9.29541 0.0214844 7.56592-3.80273 7.1792-3.79199 5.9707-3.79199 5.9707 0.0214844 4.52051 0.0214844ZM5.9707-7.40137 5.9707-4.89307 7.4585-4.89307C8.5721-4.89307 9.12891-5.31917 9.12891-6.17139 9.12891-6.99137 8.59359-7.40137 7.52295-7.40137Z" transform="translate(9.98343 17)"/></g></g><path d="M2.51904-8.51318 2.51904 0.0214844 1.02051 0.0214844 1.02051-8.51318ZM4.52051-8.51318 7.5874-8.51318C9.60335-8.51318 10.6113-7.73975 10.6113-6.19287 10.6113-5.62354 10.4466-5.1473 10.1172-4.76416 9.82715-4.42399 9.4279-4.17692 8.91943-4.02295L10.8906 0.0214844 9.29541 0.0214844 7.56592-3.80273 7.1792-3.79199 5.9707-3.79199 5.9707 0.0214844 4.52051 0.0214844ZM5.9707-7.40137 5.9707-4.89307 7.4585-4.89307C8.5721-4.89307 9.12891-5.31917 9.12891-6.17139 9.12891-6.99137 8.59359-7.40137 7.52295-7.40137Z" transform="translate(256.185 170)"/><g clip-path="url(#clip4)"><g clip-path="url(#clip5)"><g clip-path="url(#clip6)"><path d="M265.001 111.465 264.578 111.889C264.503 111.965 264.381 111.965 264.305 111.89L261.161 108.754C261.011 108.604 261.01 108.361 261.161 108.21L261.586 107.783 261.586 107.783 265.003 111.191C265.078 111.266 265.079 111.388 265.003 111.464Z" fill="#50E6FF"/><path d="M264.512 105.109 264.938 105.534C265.014 105.609 265.014 105.731 264.939 105.807L261.582 109.173 261.582 109.173 261.155 108.748C261.005 108.598 261.004 108.354 261.154 108.203L264.241 105.108C264.316 105.034 264.437 105.034 264.512 105.109Z" fill="#1490DF"/><path d="M273.415 107.786 273.84 108.212C273.99 108.363 273.989 108.607 273.839 108.757L270.695 111.892C270.619 111.967 270.497 111.967 270.422 111.892L269.999 111.468C269.924 111.392 269.924 111.27 270 111.195L273.416 107.788 273.416 107.788Z" fill="#50E6FF"/><path d="M273.843 108.746 273.417 109.171 273.417 109.171 270.059 105.804C269.984 105.729 269.984 105.607 270.06 105.532L270.486 105.107C270.561 105.031 270.683 105.032 270.759 105.107L273.845 108.202C273.995 108.353 273.995 108.596 273.844 108.747Z" fill="#1490DF"/><path d="M267.109 109.15 264.517 109.15C264.442 109.153 264.377 109.095 264.373 109.019 264.373 109 264.377 108.982 264.386 108.965L267.493 102.816C267.52 102.768 267.572 102.738 267.628 102.74L270.694 102.74C270.769 102.737 270.833 102.795 270.838 102.87 270.838 102.896 270.829 102.922 270.813 102.942L267.163 107.753 270.723 107.753C270.798 107.75 270.862 107.808 270.867 107.884 270.866 107.917 270.853 107.949 270.829 107.972L264.915 114.125C264.86 114.158 264.465 114.486 264.658 113.988L264.658 113.988Z" fill="url(#fill7)"/></g></g></g><path d="M135.5 324C135.5 318.201 140.201 313.5 146 313.5L446 313.5C451.799 313.5 456.5 318.201 456.5 324L456.5 366C456.5 371.799 451.799 376.5 446 376.5L146 376.5C140.201 376.5 135.5 371.799 135.5 366Z" stroke="#000000" stroke-width="1.33333" stroke-miterlimit="8" fill="#FFFFFF" fill-rule="evenodd"/><text font-family="Yu Gothic,Yu Gothic_MSFontService,sans-serif" font-weight="400" font-size="13" transform="translate(147.801 333)">Twin<tspan font-size="13" x="33.6667" y="0">Graph</tspan><tspan font-size="13" x="74.8333" y="0">から該当する</tspan><tspan font-size="13" x="158.667" y="0">Twin</tspan><tspan font-size="13" x="192.333" y="0">情報を取得し、</tspan><tspan font-size="13" x="0" y="16">DomainClass</tspan><tspan font-style="oblique" font-size="13" x="81.5" y="16">ClassName</tspan><tspan font-size="13" x="151.833" y="16">AzureDigitalTwins</tspan><tspan font-size="13" x="0" y="32">instance </tspan>を作成し、状態機械を初期化</text><path d="M296.833 278.5 296.833 306.875 296.167 306.875 296.167 278.5ZM289.833 278.5C289.833 274.818 292.818 271.833 296.5 271.833 300.182 271.833 303.167 274.818 303.167 278.5 303.167 282.182 300.182 285.167 296.5 285.167 292.818 285.167 289.833 282.182 289.833 278.5ZM300.5 305.542 296.5 313.542 292.5 305.542Z"/><path d="M246.5 410.5 345 410.5 370.5 436 345 461.5 246.5 461.5 272 436Z" stroke="#000000" stroke-width="1.33333" stroke-miterlimit="8" fill="#FFFFFF" fill-rule="evenodd"/><text font-family="Yu Gothic,Yu Gothic_MSFontService,sans-serif" font-weight="400" font-size="13" transform="translate(281.34 431)">外部イベ<tspan font-size="13" x="0" y="16">ント待ち</tspan></text><path d="M0.33331-0.00393236 0.650254 26.8605-0.0163668 26.8683-0.33331 0.00393236ZM4.30094 25.484 0.395591 33.5306-3.69851 25.5783Z" transform="matrix(-1 0 0 1 295.896 376.5)"/><path d="M207.051 420.5 213.552 429.226 210.87 430.255 219.059 437.732 216.377 438.981 226.5 451.5 209.333 441.906 212.607 440.574 201.94 434.429 205.762 432.53 194.5 426.083Z" stroke="#2F528F" stroke-width="1.33333" stroke-miterlimit="8" fill="#4472C4" fill-rule="evenodd"/><path d="M135.5 573.167C135.5 562.858 143.858 554.5 154.167 554.5L437.833 554.5C448.143 554.5 456.5 562.858 456.5 573.167L456.5 647.833C456.5 658.143 448.143 666.5 437.833 666.5L154.167 666.5C143.858 666.5 135.5 658.143 135.5 647.833Z" stroke="#000000" stroke-width="1.33333" stroke-miterlimit="8" fill="#FFFFFF" fill-rule="evenodd"/><text font-family="Yu Gothic,Yu Gothic_MSFontService,sans-serif" font-weight="400" font-size="13" transform="translate(150.218 576)">受信<tspan font-size="13" x="26.6667" y="0">した</tspan><tspan font-size="13" x="53.3333" y="0"> </tspan><tspan font-size="13" x="57.1667" y="0">eventNumber</tspan><tspan font-size="13" x="140.167" y="0">、</tspan><tspan font-size="13" x="153.5" y="0">引数</tspan><tspan font-size="13" x="180.167" y="0">を</tspan><tspan font-size="13" x="193.5" y="0">元</tspan><tspan font-size="13" x="206.833" y="0">に</tspan><tspan font-size="13" x="220.167" y="0">、</tspan><tspan font-size="13" x="0" y="16">DomainClass</tspan><tspan font-style="oblique" font-size="13" x="81.5" y="16">ClassName</tspan>StateMachine <tspan font-size="13" x="241.333" y="16">で</tspan><tspan font-size="13" x="254.667" y="16">定義</tspan><tspan font-size="13" x="0" y="32">された</tspan>対応する<tspan font-size="13" x="92.8333" y="32"> </tspan><tspan font-size="13" x="96.6667" y="32">Event</tspan> <tspan font-size="13" x="135.167" y="32">class </tspan>の<tspan font-size="13" x="183.833" y="32"> </tspan><tspan font-size="13" x="187.667" y="32">instance </tspan><tspan font-size="13" x="243.667" y="32">を</tspan><tspan font-size="13" x="257" y="32">作成</tspan><tspan font-size="13" x="0" y="48">し</tspan><tspan font-size="13" x="13.3333" y="48">、</tspan><tspan font-size="13" x="26.6667" y="48">DomainClass</tspan><tspan font-style="oblique" font-size="13" x="108.167" y="48">ClassName</tspan> <tspan font-size="13" x="182.333" y="48">の</tspan><tspan font-size="13" x="195.667" y="48"> </tspan><tspan font-size="13" x="199.5" y="48">TakeEvent</tspan> <tspan font-size="13" x="0" y="64">method </tspan><tspan font-size="13" x="50.3333" y="64">をコール</tspan><tspan font-size="13" x="103.667" y="64"></tspan></text><path d="M135.5 724C135.5 719.306 139.306 715.5 144 715.5L448 715.5C452.694 715.5 456.5 719.306 456.5 724L456.5 758C456.5 762.694 452.694 766.5 448 766.5L144 766.5C139.306 766.5 135.5 762.694 135.5 758Z" stroke="#000000" stroke-width="1.33333" stroke-miterlimit="8" fill="#FFFFFF" fill-rule="evenodd"/><text font-family="Yu Gothic,Yu Gothic_MSFontService,sans-serif" font-weight="400" font-size="13" transform="translate(146.818 735)">状態機械<tspan font-size="13" x="53.3333" y="0">の</tspan><tspan font-size="13" x="66.6667" y="0">遷移先</tspan>の<tspan font-size="13" x="120" y="0">状態</tspan><tspan font-size="13" x="146.667" y="0">アクションを</tspan>実行<tspan font-size="13" x="0" y="16">実行完了後更新情報</tspan><tspan font-size="13" x="120" y="16">を</tspan><tspan font-size="13" x="133.333" y="16"> </tspan><tspan font-size="13" x="137.167" y="16">Twin</tspan><tspan font-size="13" x="165.833" y="16"> </tspan><tspan font-size="13" x="169.667" y="16">Graph</tspan> <tspan font-size="13" x="210.833" y="16">に</tspan><tspan font-size="13" x="224.167" y="16">同期</tspan></text><path d="M295.833 461.5 295.833 484.359 295.167 484.359 295.167 461.5ZM299.5 483.026 295.5 491.026 291.5 483.026Z"/><path d="M0.333322-0.00269821 0.674949 42.2 0.00830398 42.2054-0.333322 0.00269821ZM4.3307 40.8371 0.395591 48.8692-3.66903 40.9018Z" transform="matrix(-1 0 0 1 295.896 666.5)"/><path d="M135.5 824C135.5 819.306 139.306 815.5 144 815.5L448 815.5C452.694 815.5 456.5 819.306 456.5 824L456.5 858C456.5 862.694 452.694 866.5 448 866.5L144 866.5C139.306 866.5 135.5 862.694 135.5 858Z" stroke="#000000" stroke-width="1.33333" stroke-miterlimit="8" fill="#FFFFFF" fill-rule="evenodd"/><text font-family="Yu Gothic,Yu Gothic_MSFontService,sans-serif" font-weight="400" font-size="13" transform="translate(146.818 834)">状態機械<tspan font-size="13" x="53.3333" y="0">の</tspan><tspan font-size="13" x="66.6667" y="0">遷移</tspan>を<tspan font-size="13" x="106.667" y="0">確定</tspan></text><path d="M295.833 766.5 295.833 808.703 295.167 808.703 295.167 766.5ZM299.5 807.369 295.5 815.369 291.5 807.369Z"/><path d="M0-0.333333 223.969-0.333333 223.969 473.641 56.9685 473.641 56.9685 472.974 223.636 472.974 223.302 473.307 223.302 0 223.636 0.333333 0 0.333333ZM58.3019 477.307 50.3019 473.307 58.3019 469.307Z" transform="matrix(1 0 0 -1 320.5 908.807)"/><path d="M96.5001 278.5 187.5 278.5 184.45 218.47 324 278.5 642.5 278.5 642.5 399.333 642.5 399.333 642.5 580.583 642.5 1003.5 324 1003.5 187.5 1003.5 187.5 1003.5 96.5001 1003.5 96.5001 580.583 96.5001 399.333 96.5001 399.333Z" stroke="#2F528F" stroke-width="1.33333" stroke-miterlimit="8" fill="none" fill-rule="evenodd"/><text font-family="Yu Gothic,Yu Gothic_MSFontService,sans-serif" font-weight="400" font-size="11" transform="translate(400.304 682)">処理<tspan font-size="11" x="21.3333" y="0">で</tspan><tspan font-size="11" x="32" y="0">必要</tspan><tspan font-size="11" x="53.3333" y="0">な</tspan><tspan font-size="11" x="64" y="0">概念</tspan><tspan font-size="11" x="85.3333" y="0">インスタンスは</tspan><tspan font-size="11" x="160" y="0">、</tspan><tspan font-size="11" x="170.667" y="0">都度都度</tspan><tspan font-size="11" x="213.333" y="0">、</tspan><tspan font-size="11" x="0" y="13">InstanceRepository</tspan> の<tspan font-size="11" x="108.5" y="13"> </tspan>SelectInstances<tspan font-size="11" x="190.167" y="13">()</tspan><tspan font-size="11" x="198.5" y="13"> </tspan>で<tspan font-size="11" x="212.167" y="13"> </tspan><tspan font-size="11" x="0" y="25">Twin Graph</tspan><tspan font-size="11" x="56" y="25"> </tspan>から<tspan font-size="11" x="80.3333" y="25">取</tspan><tspan font-size="11" x="91" y="25">り</tspan><tspan font-size="11" x="101.667" y="25">出</tspan><tspan font-size="11" x="112.333" y="25">す</tspan></text><path d="M514.134 715.5C514.134 728.233 485.317 740.966 456.5 740.966" stroke="#000000" stroke-width="0.333333" stroke-miterlimit="8" stroke-dasharray="0.333333 0.333333" fill="none" fill-rule="evenodd"/><text font-family="Yu Gothic,Yu Gothic_MSFontService,sans-serif" font-weight="400" font-size="13" transform="translate(133.584 439)">5⃣</text><path d="M7.77399e-07-0.333333 44.3563-0.33323 44.3563 0.333437-7.77399e-07 0.333333ZM36.5242-4.95451 45.0178 0.000104954 36.5242 4.95468C36.3652 5.04744 36.1611 4.99373 36.0683 4.83471 35.9756 4.67569 36.0293 4.47158 36.1883 4.37882L44.1883-0.287823 44.1883 0.288029 36.1883-4.37866C36.0293-4.47142 35.9756-4.67552 36.0684-4.83454 36.1611-4.99356 36.3652-5.04727 36.5242-4.95451Z" transform="matrix(1 0 0 -1 157.5 434.5)"/><path d="M271.5 909 296 898.5 320.5 909 296 919.5Z" stroke="#000000" stroke-width="1.33333" stroke-miterlimit="8" fill="#FFFFFF" fill-rule="evenodd"/><path d="M295.833 866.5 295.833 891.918 295.167 891.918 295.167 866.5ZM299.5 890.585 295.5 898.585 291.5 890.585Z"/><path d="M289.5 952C289.5 948.41 292.41 945.5 296 945.5 299.59 945.5 302.5 948.41 302.5 952 302.5 955.59 299.59 958.5 296 958.5 292.41 958.5 289.5 955.59 289.5 952Z" stroke="#000000" stroke-width="1.33333" stroke-miterlimit="8" fill="none" fill-rule="evenodd"/><path d="M292.5 952C292.5 950.067 294.067 948.5 296 948.5 297.933 948.5 299.5 950.067 299.5 952 299.5 953.933 297.933 955.5 296 955.5 294.067 955.5 292.5 953.933 292.5 952Z" stroke="#000000" stroke-width="1.33333" stroke-miterlimit="8" fill="#4472C4" fill-rule="evenodd"/><path d="M0.333333-1.35518e-06 0.333411 19.1568-0.333255 19.1569-0.333333 1.35518e-06ZM4.00007 17.8235 0.000104987 25.8235-3.99993 17.8235Z" transform="matrix(-1 0 0 1 295.5 919.5)"/><text font-family="Yu Gothic,Yu Gothic_MSFontService,sans-serif" font-weight="400" font-size="13" transform="translate(120.243 934)">[<tspan font-size="13" x="5.16667" y="0">状態</tspan><tspan font-size="13" x="31.8333" y="0">モデルのライフサイクル</tspan><tspan font-size="13" x="176.5" y="0">消滅</tspan><tspan font-size="13" x="203.167" y="0">]</tspan></text><path d="M271.5 501 296 490.5 320.5 501 296 511.5Z" stroke="#000000" stroke-width="1.33333" stroke-miterlimit="8" fill="#FFFFFF" fill-rule="evenodd"/><path d="M295.833 511.497 296.167 547.438 295.5 547.444 295.167 511.503ZM299.821 546.07 295.896 554.107 291.822 546.145Z"/><path d="M208.5 501C208.5 497.41 211.41 494.5 215 494.5 218.59 494.5 221.5 497.41 221.5 501 221.5 504.59 218.59 507.5 215 507.5 211.41 507.5 208.5 504.59 208.5 501Z" stroke="#000000" stroke-width="1.33333" stroke-miterlimit="8" fill="none" fill-rule="evenodd"/><path d="M211.5 501C211.5 499.067 213.067 497.5 215 497.5 216.933 497.5 218.5 499.067 218.5 501 218.5 502.933 216.933 504.5 215 504.5 213.067 504.5 211.5 502.933 211.5 501Z" stroke="#000000" stroke-width="1.33333" stroke-miterlimit="8" fill="#4472C4" fill-rule="evenodd"/><path d="M271.8 502.142 228.165 501.874 228.169 501.208 271.804 501.475ZM229.475 505.549 221.5 501.5 229.524 497.549Z"/><text font-family="Yu Gothic,Yu Gothic_MSFontService,sans-serif" font-weight="400" font-size="13" transform="translate(202.697 490)">[<tspan font-size="13" x="5.16666" y="0">終了指示</tspan><tspan font-size="13" x="58.5" y="0">]</tspan></text></g></svg>