<svg width="607" height="687" xmlns="http://www.w3.org/2000/svg" xmlns:xlink="http://www.w3.org/1999/xlink" overflow="hidden"><defs><clipPath id="clip0"><rect x="60" y="69" width="607" height="687"/></clipPath><clipPath id="clip1"><rect x="204" y="137" width="13" height="13"/></clipPath><clipPath id="clip2"><rect x="204" y="137" width="13" height="13"/></clipPath><clipPath id="clip3"><rect x="204" y="137" width="13" height="13"/></clipPath><linearGradient x1="210.59" y1="149.175" x2="210.59" y2="137.649" gradientUnits="userSpaceOnUse" spreadMethod="pad" id="fill4"><stop offset="0" stop-color="#FEA11B"/><stop offset="0.284" stop-color="#FEA51A"/><stop offset="0.547" stop-color="#FEB018"/><stop offset="0.8" stop-color="#FFC314"/><stop offset="1" stop-color="#FFD70F"/></linearGradient></defs><g clip-path="url(#clip0)" transform="translate(-60 -69)"><rect x="61.5001" y="70.5001" width="605" height="685" stroke="#D9D9D9" stroke-width="1.33333" stroke-miterlimit="8" fill="none"/><path d="M120.5 281.333C120.5 277.007 124.007 273.5 128.333 273.5L380.667 273.5C384.993 273.5 388.5 277.007 388.5 281.333L388.5 312.667C388.5 316.993 384.993 320.5 380.667 320.5L128.333 320.5C124.007 320.5 120.5 316.993 120.5 312.667Z" stroke="#000000" stroke-width="1.33333" stroke-miterlimit="8" fill="#FFFFFF" fill-rule="evenodd"/><text font-family="Yu Gothic,Yu Gothic_MSFontService,sans-serif" font-weight="400" font-size="13" transform="translate(131.636 292)">受信<tspan font-size="13" x="26.6667" y="0">した</tspan><tspan font-size="13" x="53.3333" y="0">JSON</tspan>の<tspan font-size="13" x="100.167" y="0">解析</tspan></text><path d="M120.5 357.333C120.5 353.007 124.007 349.5 128.333 349.5L380.667 349.5C384.993 349.5 388.5 353.007 388.5 357.333L388.5 388.667C388.5 392.993 384.993 396.5 380.667 396.5L128.333 396.5C124.007 396.5 120.5 392.993 120.5 388.667Z" stroke="#000000" stroke-width="1.33333" stroke-miterlimit="8" fill="#FFFFFF" fill-rule="evenodd"/><text font-family="Yu Gothic,Yu Gothic_MSFontService,sans-serif" font-weight="400" font-size="13" transform="translate(131.636 368)">modelId<tspan font-size="13" x="49.1667" y="0"> </tspan><tspan font-size="13" x="53" y="0">と</tspan><tspan font-size="13" x="66.3333" y="0">識別子情報</tspan><tspan font-size="13" x="133" y="0">から</tspan><tspan font-size="13" x="159.667" y="0">、</tspan><tspan font-size="13" x="173" y="0">Twin Graph</tspan><tspan font-size="13" x="242.833" y="0"> </tspan><tspan font-size="13" x="0" y="16">上</tspan><tspan font-size="13" x="13.3333" y="16">の</tspan><tspan font-size="13" x="26.6667" y="16">対応</tspan><tspan font-size="13" x="53.3333" y="16">する</tspan> <tspan font-size="13" x="83.3333" y="16">Twin</tspan> <tspan font-size="13" x="115.833" y="16">を</tspan><tspan font-size="13" x="129.167" y="16">特定</tspan><tspan font-size="13" x="155.833" y="16"></tspan></text><path d="M120.5 591.334C120.5 587.007 124.007 583.5 128.334 583.5L318.666 583.5C322.993 583.5 326.5 587.007 326.5 591.334L326.5 622.666C326.5 626.993 322.993 630.5 318.666 630.5L128.334 630.5C124.007 630.5 120.5 626.993 120.5 622.666Z" stroke="#000000" stroke-width="1.33333" stroke-miterlimit="8" fill="#FFFFFF" fill-rule="evenodd"/><text font-family="Yu Gothic,Yu Gothic_MSFontService,sans-serif" font-weight="400" font-size="13" transform="translate(131.636 602)">該当<tspan font-size="13" x="26.6667" y="0">する</tspan><tspan font-size="13" x="52.8333" y="0">Twin</tspan> <tspan font-size="13" x="85.3333" y="0">に</tspan><tspan font-size="13" x="98.6667" y="0">、</tspan><tspan font-size="13" x="112" y="0">該当</tspan><tspan font-size="13" x="138.667" y="0">する</tspan><tspan font-size="13" x="0" y="16">Telemetry</tspan> <tspan font-size="13" x="64.3333" y="16">を</tspan><tspan font-size="13" x="77.6667" y="16"> </tspan><tspan font-size="13" x="81.5" y="16">Publish</tspan></text><path d="M254.833 236.5 254.833 267.629 254.167 267.629 254.167 236.5ZM247.833 236.5C247.833 232.818 250.818 229.833 254.5 229.833 258.182 229.833 261.167 232.818 261.167 236.5 261.167 240.182 258.182 243.167 254.5 243.167 250.818 243.167 247.833 240.182 247.833 236.5ZM258.5 266.295 254.5 274.295 250.5 266.295Z"/><path d="M254.833 320.5 254.833 343.14 254.167 343.14 254.167 320.5ZM258.5 341.807 254.5 349.807 250.5 341.807Z"/><path d="M0-0.333333 6.92189-0.333333 6.92189 145.096 6.25522 145.096 6.25522 0 6.58856 0.333333 0 0.333333ZM10.5886 143.762 6.58856 151.762 2.58856 143.762Z" transform="matrix(-1 1.22465e-16 1.22465e-16 1 230.089 432.5)"/><path d="M84.5001 124.834C84.5001 121.336 87.3356 118.5 90.8335 118.5L223.167 118.5C226.664 118.5 229.5 121.336 229.5 124.834L229.5 150.167C229.5 153.664 226.664 156.5 223.167 156.5L90.8335 156.5C87.3356 156.5 84.5001 153.664 84.5001 150.167Z" stroke="#4472C4" stroke-width="1.33333" stroke-miterlimit="8" fill="#FFFFFF" fill-rule="evenodd"/><text font-family="Yu Gothic,Yu Gothic_MSFontService,sans-serif" font-weight="400" font-size="12" transform="translate(95.5887 140)">Telemetry 送信</text><path d="M157.833 97.5001 157.833 117.88 157.167 117.88 157.167 97.5001ZM153.5 97.5001C153.5 95.2909 155.291 93.5001 157.5 93.5001 159.709 93.5 161.5 95.2909 161.5 97.5 161.5 99.7092 159.709 101.5 157.5 101.5 155.291 101.5 153.5 99.7092 153.5 97.5001ZM162.455 110.048 157.5 118.542 152.546 110.048C152.453 109.889 152.506 109.685 152.665 109.592 152.824 109.5 153.029 109.553 153.121 109.712L157.788 117.712 157.212 117.712 161.879 109.712C161.972 109.553 162.176 109.5 162.335 109.592 162.494 109.685 162.547 109.889 162.455 110.048Z" fill="#4472C4"/><path d="M150.5 177C150.5 173.41 153.41 170.5 157 170.5 160.59 170.5 163.5 173.41 163.5 177 163.5 180.59 160.59 183.5 157 183.5 153.41 183.5 150.5 180.59 150.5 177Z" stroke="#2F528F" stroke-width="1.33333" stroke-miterlimit="8" fill="none" fill-rule="evenodd"/><path d="M153.5 177C153.5 175.067 155.067 173.5 157 173.5 158.933 173.5 160.5 175.067 160.5 177 160.5 178.933 158.933 180.5 157 180.5 155.067 180.5 153.5 178.933 153.5 177Z" stroke="#2F528F" stroke-width="1.33333" stroke-miterlimit="8" fill="#4472C4" fill-rule="evenodd"/><path d="M0.333333-2.42594e-06 0.333434 13.7656-0.333233 13.7656-0.333333 2.42594e-06ZM4.95464 5.93354 0.000104977 14.4272-4.95455 5.93361C-5.04731 5.77459-4.9936 5.57049-4.83458 5.47773-4.67557 5.38496-4.47146 5.43867-4.3787 5.59769L0.288025 13.5977-0.287827 13.5977 4.37878 5.59763C4.47154 5.43861 4.67565 5.3849 4.83466 5.47766 4.99368 5.57041 5.04739 5.77452 4.95464 5.93354Z" fill="#4472C4" transform="matrix(-1 0 0 1 157.5 156.5)"/><g clip-path="url(#clip1)"><g clip-path="url(#clip2)"><g clip-path="url(#clip3)"><path d="M208.001 146.465 207.578 146.889C207.503 146.965 207.381 146.965 207.305 146.89L204.161 143.754C204.011 143.604 204.01 143.361 204.161 143.21L204.586 142.783 204.586 142.783 208.003 146.191C208.078 146.266 208.079 146.388 208.003 146.464Z" fill="#50E6FF"/><path d="M207.512 140.109 207.938 140.534C208.014 140.609 208.014 140.731 207.939 140.807L204.582 144.173 204.582 144.173 204.155 143.748C204.005 143.598 204.004 143.354 204.154 143.203L207.241 140.108C207.316 140.034 207.437 140.034 207.512 140.109Z" fill="#1490DF"/><path d="M216.415 142.786 216.84 143.212C216.99 143.363 216.989 143.607 216.839 143.757L213.695 146.892C213.619 146.967 213.497 146.967 213.422 146.892L212.999 146.468C212.924 146.392 212.924 146.27 213 146.195L216.416 142.788 216.416 142.788Z" fill="#50E6FF"/><path d="M216.843 143.746 216.417 144.171 216.417 144.171 213.059 140.804C212.984 140.729 212.984 140.607 213.06 140.532L213.486 140.107C213.561 140.031 213.683 140.032 213.759 140.107L216.845 143.202C216.995 143.353 216.995 143.596 216.844 143.747Z" fill="#1490DF"/><path d="M210.109 144.15 207.517 144.15C207.442 144.153 207.377 144.095 207.373 144.019 207.373 144 207.377 143.982 207.386 143.965L210.493 137.816C210.52 137.768 210.572 137.738 210.628 137.74L213.694 137.74C213.769 137.737 213.833 137.795 213.838 137.87 213.838 137.896 213.829 137.922 213.813 137.943L210.163 142.753 213.723 142.753C213.798 142.75 213.862 142.808 213.867 142.884 213.866 142.917 213.853 142.949 213.829 142.972L207.915 149.125C207.86 149.158 207.464 149.486 207.658 148.988L207.658 148.988Z" fill="url(#fill4)"/></g></g></g><path d="M217.5 657.5C217.5 654.186 220.186 651.5 223.5 651.5 226.814 651.5 229.5 654.186 229.5 657.5 229.5 660.814 226.814 663.5 223.5 663.5 220.186 663.5 217.5 660.814 217.5 657.5Z" stroke="#000000" stroke-width="1.33333" stroke-miterlimit="8" fill="none" fill-rule="evenodd"/><path d="M220.5 657.5C220.5 655.843 221.843 654.5 223.5 654.5 225.157 654.5 226.5 655.843 226.5 657.5 226.5 659.157 225.157 660.5 223.5 660.5 221.843 660.5 220.5 659.157 220.5 657.5Z" stroke="#000000" stroke-width="1.33333" stroke-miterlimit="8" fill="#4472C4" fill-rule="evenodd"/><path d="M0.333333-1.66998e-06 0.333405 14.289-0.333262 14.289-0.333333 1.66998e-06ZM4.00006 12.9557 0.000104987 20.9557-3.99994 12.9557Z" transform="matrix(-1 0 0 1 223.5 630.5)"/><path d="M94.5001 207.5 182.833 207.5 187.838 143.942 315.333 207.5 624.5 207.5 624.5 291.167 624.5 291.167 624.5 416.667 624.5 709.5 315.333 709.5 182.833 709.5 182.833 709.5 94.5001 709.5 94.5001 416.667 94.5001 291.167 94.5001 291.167Z" stroke="#2F528F" stroke-width="1.33333" stroke-miterlimit="8" fill="none" fill-rule="evenodd"/><path d="M230.5 432 254.5 421.5 278.5 432 254.5 442.5Z" stroke="#000000" stroke-width="1.33333" stroke-miterlimit="8" fill="#FFFFFF" fill-rule="evenodd"/><path d="M0.333333-4.16625e-06 0.333565 18.5327-0.333102 18.5327-0.333333 4.16625e-06ZM4.00021 17.1993 0.000314961 25.1994-3.99978 17.1994Z" transform="matrix(-1 0 0 1 254.5 396.5)"/><path d="M278.5 476.667C278.5 473.261 281.261 470.5 284.667 470.5L478.333 470.5C481.739 470.5 484.5 473.261 484.5 476.667L484.5 501.333C484.5 504.739 481.739 507.5 478.333 507.5L284.667 507.5C281.261 507.5 278.5 504.739 278.5 501.333Z" stroke="#000000" stroke-width="1.33333" stroke-miterlimit="8" fill="#FFFFFF" fill-rule="evenodd"/><text font-family="Yu Gothic,Yu Gothic_MSFontService,sans-serif" font-weight="400" font-size="13" transform="translate(289.433 489)">入力<tspan font-size="13" x="26.6667" y="0">データ</tspan>から<tspan font-size="13" x="92.8333" y="0"> </tspan><tspan font-size="13" x="96.6667" y="0">Twin</tspan><tspan font-size="13" x="125.333" y="0"> </tspan><tspan font-size="13" x="129.167" y="0">を</tspan><tspan font-size="13" x="142.5" y="0">作成</tspan></text><path d="M278.5 432.167 382.025 432.167 382.025 464.592 381.358 464.592 381.358 432.5 381.691 432.833 278.5 432.833ZM385.691 463.259 381.691 471.259 377.691 463.259Z"/><path d="M382.092 507.5 382.092 545.774 223.5 545.774 223.833 545.441 223.833 576.715 223.167 576.715 223.167 545.107 381.759 545.107 381.425 545.441 381.425 507.5ZM227.5 575.381 223.5 583.381 219.5 575.381Z"/><text font-family="Yu Gothic,Yu Gothic_MSFontService,sans-serif" font-weight="400" font-size="13" transform="translate(296.177 428)">[<tspan font-size="13" x="5.16669" y="0">該当</tspan><tspan font-size="13" x="31.8333" y="0">する</tspan><tspan font-size="13" x="58" y="0"> </tspan><tspan font-size="13" x="61.8333" y="0">Twin</tspan><tspan font-size="13" x="90.5" y="0"> </tspan><tspan font-size="13" x="94.3333" y="0">が</tspan><tspan font-size="13" x="107.667" y="0">無</tspan><tspan font-size="13" x="121" y="0">く</tspan><tspan font-size="13" x="134.333" y="0">、</tspan><tspan font-size="13" x="147.667" y="0">かつ</tspan><tspan font-size="13" x="174.333" y="0">、</tspan><tspan font-size="13" x="187.667" y="0">概念</tspan><tspan font-size="13" x="214.333" y="0">モデルの</tspan><tspan font-size="13" x="0" y="16">イベントが</tspan><tspan font-size="13" x="66" y="16">生成</tspan><tspan font-size="13" x="92.6667" y="16">イベントの</tspan>場合<tspan font-size="13" x="185.333" y="16">]</tspan></text></g></svg>