<svg width="607" height="610" xmlns="http://www.w3.org/2000/svg" xmlns:xlink="http://www.w3.org/1999/xlink" overflow="hidden"><defs><filter id="fx0" x="-10%" y="-10%" width="120%" height="120%" filterUnits="userSpaceOnUse" primitiveUnits="userSpaceOnUse"><feComponentTransfer color-interpolation-filters="sRGB"><feFuncR type="discrete" tableValues="0 0"/><feFuncG type="discrete" tableValues="0 0"/><feFuncB type="discrete" tableValues="0 0"/><feFuncA type="linear" slope="0.431373" intercept="0"/></feComponentTransfer><feGaussianBlur stdDeviation="0.376246 0.376246"/></filter><clipPath id="clip1"><rect x="60" y="69" width="607" height="610"/></clipPath><clipPath id="clip2"><rect x="10" y="7" width="12" height="10"/></clipPath><clipPath id="clip3"><rect x="0" y="0" width="30" height="29"/></clipPath><clipPath id="clip4"><rect x="173" y="122" width="13" height="14"/></clipPath><clipPath id="clip5"><rect x="173" y="122" width="13" height="14"/></clipPath><clipPath id="clip6"><rect x="173" y="122" width="13" height="14"/></clipPath><linearGradient x1="6.59034" y1="12.1745" x2="6.59034" y2="0.648739" gradientUnits="userSpaceOnUse" spreadMethod="pad" id="fill7"><stop offset="0" stop-color="#FEA11B"/><stop offset="0.284" stop-color="#FEA51A"/><stop offset="0.547" stop-color="#FEB018"/><stop offset="0.8" stop-color="#FFC314"/><stop offset="1" stop-color="#FFD70F"/></linearGradient></defs><g clip-path="url(#clip1)" transform="translate(-60 -69)"><rect x="61.5001" y="70.5001" width="605" height="607" stroke="#D9D9D9" stroke-width="1.33333" stroke-miterlimit="8" fill="none"/><path d="M120.5 281.333C120.5 277.007 124.007 273.5 128.333 273.5L380.667 273.5C384.993 273.5 388.5 277.007 388.5 281.333L388.5 312.667C388.5 316.993 384.993 320.5 380.667 320.5L128.333 320.5C124.007 320.5 120.5 316.993 120.5 312.667Z" stroke="#000000" stroke-width="1.33333" stroke-miterlimit="8" fill="#FFFFFF" fill-rule="evenodd"/><text font-family="Yu Gothic,Yu Gothic_MSFontService,sans-serif" font-weight="400" font-size="13" transform="translate(131.636 292)">受信<tspan font-size="13" x="26.6667" y="0">した</tspan><tspan font-size="13" x="53.3333" y="0">JSON</tspan>の<tspan font-size="13" x="100.167" y="0">解析</tspan></text><path d="M120.5 357.333C120.5 353.007 124.007 349.5 128.333 349.5L380.667 349.5C384.993 349.5 388.5 353.007 388.5 357.333L388.5 388.667C388.5 392.993 384.993 396.5 380.667 396.5L128.333 396.5C124.007 396.5 120.5 392.993 120.5 388.667Z" stroke="#000000" stroke-width="1.33333" stroke-miterlimit="8" fill="#FFFFFF" fill-rule="evenodd"/><text font-family="Yu Gothic,Yu Gothic_MSFontService,sans-serif" font-weight="400" font-size="13" transform="translate(131.636 368)">InstanceRepository<tspan font-size="13" x="117.833" y="0"> </tspan><tspan font-size="13" x="121.667" y="0">instance </tspan>作成<tspan font-size="13" x="0" y="16">CIM</tspan><tspan font-style="oblique" font-size="13" x="25.3333" y="16">DomainName</tspan>Lib <tspan font-size="13" x="132.5" y="16">instance </tspan><tspan font-size="13" x="188.5" y="16">作成</tspan></text><path d="M120.5 438C120.5 431.097 126.097 425.5 133 425.5L376 425.5C382.904 425.5 388.5 431.097 388.5 438L388.5 488C388.5 494.904 382.904 500.5 376 500.5L133 500.5C126.097 500.5 120.5 494.904 120.5 488Z" stroke="#000000" stroke-width="1.33333" stroke-miterlimit="8" fill="#FFFFFF" fill-rule="evenodd"/><text font-family="Yu Gothic,Yu Gothic_MSFontService,sans-serif" font-weight="400" font-size="13" transform="translate(133.012 446)">対応<tspan font-size="13" x="26.6667" y="0">する</tspan><tspan font-size="13" x="52.8333" y="0"> </tspan><tspan font-size="13" x="56.6667" y="0">CIM</tspan><tspan font-style="oblique" font-size="13" x="82" y="0">DomainName</tspan><tspan font-size="13" x="166.167" y="0">Lib</tspan><tspan font-size="13" x="185.333" y="0"> </tspan><tspan font-size="13" x="189.167" y="0">の</tspan><tspan font-size="13" x="202.5" y="0"> </tspan><tspan font-size="13" x="0" y="16">o</tspan>peration<tspan font-size="13" x="58.3333" y="16"> </tspan><tspan font-size="13" x="62.1667" y="16">に</tspan><tspan font-size="13" x="75.5" y="16">対応</tspan>する <tspan font-size="13" x="132.167" y="16">method </tspan><tspan font-size="13" x="182.5" y="16">を</tspan><tspan font-size="13" x="195.833" y="16">実行</tspan><tspan font-size="13" x="0" y="32">実行</tspan><tspan font-size="13" x="26.6667" y="32">完了後</tspan>、<tspan font-size="13" x="80" y="32">更新情報</tspan>を<tspan font-size="13" x="146.667" y="32"> </tspan><tspan font-size="13" x="150.5" y="32">Twin Graph</tspan> <tspan font-size="13" x="224.167" y="32">に</tspan><tspan font-size="13" x="0" y="48">同期</tspan></text><path d="M120.5 537.167C120.5 532.933 123.933 529.5 128.167 529.5L380.833 529.5C385.067 529.5 388.5 532.933 388.5 537.167L388.5 567.833C388.5 572.067 385.067 575.5 380.833 575.5L128.167 575.5C123.933 575.5 120.5 572.067 120.5 567.833Z" stroke="#000000" stroke-width="1.33333" stroke-miterlimit="8" fill="#FFFFFF" fill-rule="evenodd"/><text font-family="Yu Gothic,Yu Gothic_MSFontService,sans-serif" font-weight="400" font-size="13" transform="translate(131.636 548)">結果を<tspan font-size="13" x="43.8333" y="0">response </tspan>で返す</text><path d="M254.833 236.5 254.833 267.629 254.167 267.629 254.167 236.5ZM247.833 236.5C247.833 232.818 250.818 229.833 254.5 229.833 258.182 229.833 261.167 232.818 261.167 236.5 261.167 240.182 258.182 243.167 254.5 243.167 250.818 243.167 247.833 240.182 247.833 236.5ZM258.5 266.295 254.5 274.295 250.5 266.295Z"/><path d="M254.833 320.5 254.833 343.14 254.167 343.14 254.167 320.5ZM258.5 341.807 254.5 349.807 250.5 341.807Z"/><path d="M254.833 396.5 254.833 419.14 254.167 419.14 254.167 396.5ZM258.5 417.807 254.5 425.807 250.5 417.807Z"/><path d="M254.833 500.5 254.833 522.507 254.167 522.507 254.167 500.5ZM258.5 521.173 254.5 529.173 250.5 521.173Z"/><path d="M84.5001 124.834C84.5001 121.336 87.3356 118.5 90.8335 118.5L223.167 118.5C226.664 118.5 229.5 121.336 229.5 124.834L229.5 150.167C229.5 153.664 226.664 156.5 223.167 156.5L90.8335 156.5C87.3356 156.5 84.5001 153.664 84.5001 150.167Z" stroke="#4472C4" stroke-width="1.33333" stroke-miterlimit="8" fill="#FFFFFF" fill-rule="evenodd"/><text font-family="Yu Gothic,Yu Gothic_MSFontService,sans-serif" font-weight="400" font-size="12" transform="translate(95.5887 133)">ドメイン<tspan font-size="12" x="0" y="14">オペレーション</tspan></text><path d="M157.833 97.5001 157.833 117.88 157.167 117.88 157.167 97.5001ZM153.5 97.5001C153.5 95.2909 155.291 93.5001 157.5 93.5001 159.709 93.5 161.5 95.2909 161.5 97.5 161.5 99.7092 159.709 101.5 157.5 101.5 155.291 101.5 153.5 99.7092 153.5 97.5001ZM162.455 110.048 157.5 118.542 152.546 110.048C152.453 109.889 152.506 109.685 152.665 109.592 152.824 109.5 153.029 109.553 153.121 109.712L157.788 117.712 157.212 117.712 161.879 109.712C161.972 109.553 162.176 109.5 162.335 109.592 162.494 109.685 162.547 109.889 162.455 110.048Z" fill="#4472C4"/><path d="M150.5 177C150.5 173.41 153.41 170.5 157 170.5 160.59 170.5 163.5 173.41 163.5 177 163.5 180.59 160.59 183.5 157 183.5 153.41 183.5 150.5 180.59 150.5 177Z" stroke="#2F528F" stroke-width="1.33333" stroke-miterlimit="8" fill="none" fill-rule="evenodd"/><path d="M153.5 177C153.5 175.067 155.067 173.5 157 173.5 158.933 173.5 160.5 175.067 160.5 177 160.5 178.933 158.933 180.5 157 180.5 155.067 180.5 153.5 178.933 153.5 177Z" stroke="#2F528F" stroke-width="1.33333" stroke-miterlimit="8" fill="#4472C4" fill-rule="evenodd"/><path d="M0.333333-2.42594e-06 0.333434 13.7656-0.333233 13.7656-0.333333 2.42594e-06ZM4.95464 5.93354 0.000104977 14.4272-4.95455 5.93361C-5.04731 5.77459-4.9936 5.57049-4.83458 5.47773-4.67557 5.38496-4.47146 5.43867-4.3787 5.59769L0.288025 13.5977-0.287827 13.5977 4.37878 5.59763C4.47154 5.43861 4.67565 5.3849 4.83466 5.47766 4.99368 5.57041 5.04739 5.77452 4.95464 5.93354Z" fill="#4472C4" transform="matrix(-1 0 0 1 157.5 156.5)"/><path d="M190.5 125.25C190.5 127.321 197.44 129 206 129 214.56 129 221.5 127.321 221.5 125.25L221.5 147.75C221.5 149.821 214.56 151.5 206 151.5 197.44 151.5 190.5 149.821 190.5 147.75Z" fill="#FFC000" fill-rule="evenodd"/><path d="M190.5 125.25C190.5 123.179 197.44 121.5 206 121.5 214.56 121.5 221.5 123.179 221.5 125.25 221.5 127.321 214.56 129 206 129 197.44 129 190.5 127.321 190.5 125.25Z" fill="#FFD966" fill-rule="evenodd"/><path d="M221.5 125.25C221.5 127.321 214.56 129 206 129 197.44 129 190.5 127.321 190.5 125.25 190.5 123.179 197.44 121.5 206 121.5 214.56 121.5 221.5 123.179 221.5 125.25L221.5 147.75C221.5 149.821 214.56 151.5 206 151.5 197.44 151.5 190.5 149.821 190.5 147.75L190.5 125.25" stroke="#BC8C00" stroke-width="1.33333" stroke-miterlimit="8" fill="none" fill-rule="evenodd"/><g clip-path="url(#clip2)" filter="url(#fx0)" transform="translate(191 126)"><g clip-path="url(#clip3)"><path d="M2.51904-8.51318 2.51904 0.0214844 1.02051 0.0214844 1.02051-8.51318ZM4.52051-8.51318 7.5874-8.51318C9.60335-8.51318 10.6113-7.73975 10.6113-6.19287 10.6113-5.62354 10.4466-5.1473 10.1172-4.76416 9.82715-4.42399 9.4279-4.17692 8.91943-4.02295L10.8906 0.0214844 9.29541 0.0214844 7.56592-3.80273 7.1792-3.79199 5.9707-3.79199 5.9707 0.0214844 4.52051 0.0214844ZM5.9707-7.40137 5.9707-4.89307 7.4585-4.89307C8.5721-4.89307 9.12891-5.31917 9.12891-6.17139 9.12891-6.99137 8.59359-7.40137 7.52295-7.40137Z" transform="translate(9.93861 16)"/></g></g><path d="M2.51904-8.51318 2.51904 0.0214844 1.02051 0.0214844 1.02051-8.51318ZM4.52051-8.51318 7.5874-8.51318C9.60335-8.51318 10.6113-7.73975 10.6113-6.19287 10.6113-5.62354 10.4466-5.1473 10.1172-4.76416 9.82715-4.42399 9.4279-4.17692 8.91943-4.02295L10.8906 0.0214844 9.29541 0.0214844 7.56592-3.80273 7.1792-3.79199 5.9707-3.79199 5.9707 0.0214844 4.52051 0.0214844ZM5.9707-7.40137 5.9707-4.89307 7.4585-4.89307C8.5721-4.89307 9.12891-5.31917 9.12891-6.17139 9.12891-6.99137 8.59359-7.40137 7.52295-7.40137Z" transform="translate(200.14 142)"/><g clip-path="url(#clip4)"><g clip-path="url(#clip5)"><g clip-path="url(#clip6)"><path d="M1.77366 5.59414 2.39482 5.59414C2.50517 5.59414 2.59463 5.6836 2.59463 5.79396L2.59463 10.395C2.59463 10.6153 2.41605 10.7939 2.19575 10.7939L1.5716 10.7939 1.5716 10.7939 1.5716 5.79321C1.5716 5.68285 1.66106 5.59339 1.77141 5.59339Z" fill="#50E6FF" transform="matrix(-0.681426 0.735922 -0.683356 -0.733844 182.033 134.993)"/><path d="M1.74035 2.69473 2.36388 2.69473C2.47426 2.69473 2.56374 2.78421 2.56374 2.89459L2.56374 7.8222 2.56374 7.8222 1.93946 7.8222C1.71911 7.8222 1.54049 7.64358 1.54049 7.42323L1.54049 2.89309C1.54131 2.7833 1.63055 2.69473 1.74035 2.69473Z" fill="#1490DF" transform="matrix(0.683213 0.73369 -0.681284 0.735768 177.159 122.089)"/><path d="M10.874 5.59414 11.4974 5.59414C11.7177 5.59414 11.8962 5.77273 11.8962 5.99303L11.8962 10.5941C11.8962 10.7044 11.8068 10.7939 11.6964 10.7939L11.076 10.7939C10.9657 10.7939 10.8762 10.7044 10.8762 10.5941L10.8762 5.59414 10.8762 5.59414Z" fill="#50E6FF" transform="matrix(0.681426 0.735922 -0.683356 0.733844 181.828 116.124)"/><path d="M11.3089 2.69473 11.9324 2.69473 11.9324 2.69473 11.9324 7.62235C11.9324 7.73272 11.8429 7.8222 11.7326 7.8222L11.109 7.8222C10.9986 7.8222 10.9092 7.73272 10.9092 7.62235L10.9092 3.0922C10.9092 2.87186 11.0878 2.69323 11.3081 2.69323Z" fill="#1490DF" transform="matrix(-0.683213 0.73369 -0.681284 -0.735768 195.405 122.95)"/><path d="M6.10928 7.15 3.51722 7.15C3.44156 7.15289 3.37743 7.09485 3.37278 7.01928 3.3728 7.00045 3.37725 6.9819 3.38578 6.96511L6.4935 0.816111C6.52046 0.767502 6.57227 0.737976 6.62783 0.739556L9.69367 0.739556C9.76933 0.736666 9.83346 0.794705 9.83811 0.870278 9.83785 0.896476 9.82897 0.921859 9.81283 0.9425L6.16344 5.75322 9.72256 5.75322C9.79822 5.75033 9.86235 5.80837 9.867 5.88394 9.86645 5.91709 9.85297 5.94871 9.82944 5.97206L3.91517 12.1247C3.85956 12.1579 3.4645 12.4858 3.65806 11.9882L3.65806 11.9882Z" fill="url(#fill7)" transform="matrix(1 0 0 1.07692 173 122)"/></g></g></g><path d="M248.5 604.5C248.5 601.186 251.186 598.5 254.5 598.5 257.814 598.5 260.5 601.186 260.5 604.5 260.5 607.814 257.814 610.5 254.5 610.5 251.186 610.5 248.5 607.814 248.5 604.5Z" stroke="#000000" stroke-width="1.33333" stroke-miterlimit="8" fill="none" fill-rule="evenodd"/><path d="M250.5 604C250.5 602.067 252.067 600.5 254 600.5 255.933 600.5 257.5 602.067 257.5 604 257.5 605.933 255.933 607.5 254 607.5 252.067 607.5 250.5 605.933 250.5 604Z" stroke="#000000" stroke-width="1.33333" stroke-miterlimit="8" fill="#4472C4" fill-rule="evenodd"/><path d="M0.333333-1.56146e-06 0.333407 15.7455-0.33326 15.7455-0.333333 1.56146e-06ZM4.00007 14.4122 0.000104987 22.4122-3.99993 14.4122Z" transform="matrix(-1 0 0 1 254.5 575.5)"/><text font-family="Yu Gothic,Yu Gothic_MSFontService,sans-serif" font-weight="400" font-size="11" transform="translate(404.056 393)">処理<tspan font-size="11" x="21.3333" y="0">で</tspan><tspan font-size="11" x="32" y="0">必要</tspan><tspan font-size="11" x="53.3333" y="0">な</tspan><tspan font-size="11" x="64" y="0">概念</tspan><tspan font-size="11" x="85.3333" y="0">インスタンスは</tspan>、<tspan font-size="11" x="170.667" y="0">都度都度</tspan><tspan font-size="11" x="213.333" y="0">、</tspan><tspan font-size="11" x="0" y="13">InstanceRepository</tspan> の<tspan font-size="11" x="108.5" y="13"> </tspan>SelectInstances<tspan font-size="11" x="190.167" y="13">()</tspan><tspan font-size="11" x="198.5" y="13"> </tspan>で<tspan font-size="11" x="212.167" y="13"> </tspan><tspan font-size="11" x="0" y="25">Twin Graph</tspan><tspan font-size="11" x="56" y="25"> </tspan>から<tspan font-size="11" x="80.3333" y="25">取</tspan><tspan font-size="11" x="91" y="25">り</tspan><tspan font-size="11" x="101.667" y="25">出</tspan><tspan font-size="11" x="112.333" y="25">す</tspan></text><path d="M517.926 426.5C517.926 444.496 453.213 462.492 388.5 462.492" stroke="#000000" stroke-width="0.333333" stroke-miterlimit="8" stroke-dasharray="0.333333 0.333333" fill="none" fill-rule="evenodd"/><path d="M94.5001 207.5 185.5 207.5 180.549 147.707 322 207.5 640.5 207.5 640.5 278.667 640.5 278.667 640.5 385.417 640.5 634.5 322 634.5 185.5 634.5 185.5 634.5 94.5001 634.5 94.5001 385.417 94.5001 278.667 94.5001 278.667Z" stroke="#2F528F" stroke-width="1.33333" stroke-miterlimit="8" fill="none" fill-rule="evenodd"/></g></svg>