<svg width="607" height="516" xmlns="http://www.w3.org/2000/svg" xmlns:xlink="http://www.w3.org/1999/xlink" overflow="hidden"><defs><clipPath id="clip0"><rect x="60" y="69" width="607" height="516"/></clipPath><clipPath id="clip1"><rect x="204" y="137" width="13" height="13"/></clipPath><clipPath id="clip2"><rect x="204" y="137" width="13" height="13"/></clipPath><clipPath id="clip3"><rect x="204" y="137" width="13" height="13"/></clipPath><linearGradient x1="210.59" y1="149.175" x2="210.59" y2="137.649" gradientUnits="userSpaceOnUse" spreadMethod="pad" id="fill4"><stop offset="0" stop-color="#FEA11B"/><stop offset="0.284" stop-color="#FEA51A"/><stop offset="0.547" stop-color="#FEB018"/><stop offset="0.8" stop-color="#FFC314"/><stop offset="1" stop-color="#FFD70F"/></linearGradient></defs><g clip-path="url(#clip0)" transform="translate(-60 -69)"><rect x="61.5001" y="70.5001" width="605" height="513" stroke="#D9D9D9" stroke-width="1.33333" stroke-miterlimit="8" fill="none"/><path d="M120.5 281.333C120.5 277.007 124.007 273.5 128.333 273.5L380.667 273.5C384.993 273.5 388.5 277.007 388.5 281.333L388.5 312.667C388.5 316.993 384.993 320.5 380.667 320.5L128.333 320.5C124.007 320.5 120.5 316.993 120.5 312.667Z" stroke="#000000" stroke-width="1.33333" stroke-miterlimit="8" fill="#FFFFFF" fill-rule="evenodd"/><text font-family="Yu Gothic,Yu Gothic_MSFontService,sans-serif" font-weight="400" font-size="13" transform="translate(131.636 292)">受信<tspan font-size="13" x="26.6667" y="0">した</tspan><tspan font-size="13" x="53.3333" y="0">JSON</tspan>の<tspan font-size="13" x="100.167" y="0">解析</tspan></text><path d="M120.5 357.333C120.5 353.007 124.007 349.5 128.333 349.5L380.667 349.5C384.993 349.5 388.5 353.007 388.5 357.333L388.5 388.667C388.5 392.993 384.993 396.5 380.667 396.5L128.333 396.5C124.007 396.5 120.5 392.993 120.5 388.667Z" stroke="#000000" stroke-width="1.33333" stroke-miterlimit="8" fill="#FFFFFF" fill-rule="evenodd"/><text font-family="Yu Gothic,Yu Gothic_MSFontService,sans-serif" font-weight="400" font-size="13" transform="translate(131.636 368)">modelId<tspan font-size="13" x="49.1667" y="0"> </tspan><tspan font-size="13" x="53" y="0">と</tspan><tspan font-size="13" x="66.3333" y="0">識別子情報</tspan><tspan font-size="13" x="133" y="0">から</tspan><tspan font-size="13" x="159.667" y="0">、</tspan><tspan font-size="13" x="173" y="0">オーケスト</tspan><tspan font-size="13" x="0" y="16">レーションの</tspan><tspan font-size="13" x="80" y="16"> </tspan><tspan font-size="13" x="83.8333" y="16">instanceId</tspan><tspan font-size="13" x="147.5" y="16"> </tspan><tspan font-size="13" x="151.333" y="16">を</tspan><tspan font-size="13" x="164.667" y="16">決定</tspan></text><path d="M120.5 433.333C120.5 429.007 124.007 425.5 128.333 425.5L380.667 425.5C384.993 425.5 388.5 429.007 388.5 433.333L388.5 464.667C388.5 468.993 384.993 472.5 380.667 472.5L128.333 472.5C124.007 472.5 120.5 468.993 120.5 464.667Z" stroke="#000000" stroke-width="1.33333" stroke-miterlimit="8" fill="#FFFFFF" fill-rule="evenodd"/><text font-family="Yu Gothic,Yu Gothic_MSFontService,sans-serif" font-weight="400" font-size="13" transform="translate(131.636 444)">3⃣<tspan font-size="13" x="13.3333" y="0"> </tspan><tspan font-size="13" x="17.1667" y="0">を</tspan><tspan font-size="13" x="30.5" y="0">起動</tspan><tspan font-size="13" x="57.1667" y="0">し</tspan><tspan font-size="13" x="70.5" y="0">、</tspan><tspan font-size="13" x="83.8333" y="0">オーケストレーションへの</tspan><tspan font-size="13" x="0" y="16">外部</tspan><tspan font-size="13" x="26.6667" y="16">イベント</tspan>送信用URL<tspan font-size="13" x="146.167" y="16">を</tspan><tspan font-size="13" x="159.5" y="16">返</tspan><tspan font-size="13" x="172.833" y="16">す</tspan></text><path d="M254.833 236.5 254.833 267.629 254.167 267.629 254.167 236.5ZM247.833 236.5C247.833 232.818 250.818 229.833 254.5 229.833 258.182 229.833 261.167 232.818 261.167 236.5 261.167 240.182 258.182 243.167 254.5 243.167 250.818 243.167 247.833 240.182 247.833 236.5ZM258.5 266.295 254.5 274.295 250.5 266.295Z"/><path d="M254.833 320.5 254.833 343.14 254.167 343.14 254.167 320.5ZM258.5 341.807 254.5 349.807 250.5 341.807Z"/><path d="M254.833 396.5 254.833 419.14 254.167 419.14 254.167 396.5ZM258.5 417.807 254.5 425.807 250.5 417.807Z"/><path d="M84.5001 124.834C84.5001 121.336 87.3356 118.5 90.8335 118.5L223.167 118.5C226.664 118.5 229.5 121.336 229.5 124.834L229.5 150.167C229.5 153.664 226.664 156.5 223.167 156.5L90.8335 156.5C87.3356 156.5 84.5001 153.664 84.5001 150.167Z" stroke="#4472C4" stroke-width="1.33333" stroke-miterlimit="8" fill="#FFFFFF" fill-rule="evenodd"/><text font-family="Yu Gothic,Yu Gothic_MSFontService,sans-serif" font-weight="400" font-size="12" transform="translate(95.5887 133)">オーケストレーション<tspan font-size="12" x="0" y="14">起動</tspan></text><path d="M157.833 97.5001 157.833 117.88 157.167 117.88 157.167 97.5001ZM153.5 97.5001C153.5 95.2909 155.291 93.5001 157.5 93.5001 159.709 93.5 161.5 95.2909 161.5 97.5 161.5 99.7092 159.709 101.5 157.5 101.5 155.291 101.5 153.5 99.7092 153.5 97.5001ZM162.455 110.048 157.5 118.542 152.546 110.048C152.453 109.889 152.506 109.685 152.665 109.592 152.824 109.5 153.029 109.553 153.121 109.712L157.788 117.712 157.212 117.712 161.879 109.712C161.972 109.553 162.176 109.5 162.335 109.592 162.494 109.685 162.547 109.889 162.455 110.048Z" fill="#4472C4"/><path d="M150.5 177C150.5 173.41 153.41 170.5 157 170.5 160.59 170.5 163.5 173.41 163.5 177 163.5 180.59 160.59 183.5 157 183.5 153.41 183.5 150.5 180.59 150.5 177Z" stroke="#2F528F" stroke-width="1.33333" stroke-miterlimit="8" fill="none" fill-rule="evenodd"/><path d="M153.5 177C153.5 175.067 155.067 173.5 157 173.5 158.933 173.5 160.5 175.067 160.5 177 160.5 178.933 158.933 180.5 157 180.5 155.067 180.5 153.5 178.933 153.5 177Z" stroke="#2F528F" stroke-width="1.33333" stroke-miterlimit="8" fill="#4472C4" fill-rule="evenodd"/><path d="M0.333333-2.42594e-06 0.333434 13.7656-0.333233 13.7656-0.333333 2.42594e-06ZM4.95464 5.93354 0.000104977 14.4272-4.95455 5.93361C-5.04731 5.77459-4.9936 5.57049-4.83458 5.47773-4.67557 5.38496-4.47146 5.43867-4.3787 5.59769L0.288025 13.5977-0.287827 13.5977 4.37878 5.59763C4.47154 5.43861 4.67565 5.3849 4.83466 5.47766 4.99368 5.57041 5.04739 5.77452 4.95464 5.93354Z" fill="#4472C4" transform="matrix(-1 0 0 1 157.5 156.5)"/><g clip-path="url(#clip1)"><g clip-path="url(#clip2)"><g clip-path="url(#clip3)"><path d="M208.001 146.465 207.578 146.889C207.503 146.965 207.381 146.965 207.305 146.89L204.161 143.754C204.011 143.604 204.01 143.361 204.161 143.21L204.586 142.783 204.586 142.783 208.003 146.191C208.078 146.266 208.079 146.388 208.003 146.464Z" fill="#50E6FF"/><path d="M207.512 140.109 207.938 140.534C208.014 140.609 208.014 140.731 207.939 140.807L204.582 144.173 204.582 144.173 204.155 143.748C204.005 143.598 204.004 143.354 204.154 143.203L207.241 140.108C207.316 140.034 207.437 140.034 207.512 140.109Z" fill="#1490DF"/><path d="M216.415 142.786 216.84 143.212C216.99 143.363 216.989 143.607 216.839 143.757L213.695 146.892C213.619 146.967 213.497 146.967 213.422 146.892L212.999 146.468C212.924 146.392 212.924 146.27 213 146.195L216.416 142.788 216.416 142.788Z" fill="#50E6FF"/><path d="M216.843 143.746 216.417 144.171 216.417 144.171 213.059 140.804C212.984 140.729 212.984 140.607 213.06 140.532L213.486 140.107C213.561 140.032 213.683 140.032 213.759 140.107L216.845 143.202C216.995 143.353 216.995 143.596 216.844 143.747Z" fill="#1490DF"/><path d="M210.109 144.15 207.517 144.15C207.442 144.153 207.377 144.095 207.373 144.019 207.373 144 207.377 143.982 207.386 143.965L210.493 137.816C210.52 137.768 210.572 137.738 210.628 137.74L213.694 137.74C213.769 137.737 213.833 137.795 213.838 137.87 213.838 137.896 213.829 137.922 213.813 137.943L210.163 142.753 213.723 142.753C213.798 142.75 213.862 142.808 213.867 142.884 213.866 142.917 213.853 142.949 213.829 142.972L207.915 149.125C207.86 149.158 207.464 149.486 207.658 148.988L207.658 148.988Z" fill="url(#fill4)"/></g></g></g><path d="M248.5 501C248.5 497.41 251.186 494.5 254.5 494.5 257.814 494.5 260.5 497.41 260.5 501 260.5 504.59 257.814 507.5 254.5 507.5 251.186 507.5 248.5 504.59 248.5 501Z" stroke="#000000" stroke-width="1.33333" stroke-miterlimit="8" fill="none" fill-rule="evenodd"/><path d="M250.5 501C250.5 499.067 252.067 497.5 254 497.5 255.933 497.5 257.5 499.067 257.5 501 257.5 502.933 255.933 504.5 254 504.5 252.067 504.5 250.5 502.933 250.5 501Z" stroke="#000000" stroke-width="1.33333" stroke-miterlimit="8" fill="#4472C4" fill-rule="evenodd"/><path d="M0.333333-1.56146e-06 0.333407 15.7455-0.33326 15.7455-0.333333 1.56146e-06ZM4.00007 14.4122 0.000104987 22.4122-3.99993 14.4122Z" transform="matrix(-1 0 0 1 254.5 472.5)"/><text font-family="Yu Gothic,Yu Gothic_MSFontService,sans-serif" font-weight="400" font-size="11" transform="translate(397.402 319)">概念情報<tspan font-size="11" x="42.6667" y="0">クラスの</tspan><tspan font-size="11" x="85.3333" y="0">概念</tspan><tspan font-size="11" x="106.667" y="0">インスタンスは</tspan>、<tspan font-size="11" x="192" y="0">同一</tspan><tspan font-size="11" x="213.333" y="0">の</tspan><tspan font-size="11" x="0" y="13">識別子特徴値</tspan>（<tspan font-size="11" x="74.6667" y="13">の</tspan><tspan font-size="11" x="85.3333" y="13">組</tspan><tspan font-size="11" x="96" y="13">）</tspan><tspan font-size="11" x="106.667" y="13">を</tspan><tspan font-size="11" x="117.333" y="13">持</tspan><tspan font-size="11" x="128" y="13">つのは</tspan>唯一<tspan font-size="11" x="181.333" y="13">つだけな</tspan><tspan font-size="11" x="0" y="25">ので</tspan><tspan font-size="11" x="21.3333" y="25">、</tspan><tspan font-size="11" x="32" y="25">instanceId</tspan><tspan font-size="11" x="83.3333" y="25"> </tspan>の<tspan font-size="11" x="97" y="25">一意性</tspan>は<tspan font-size="11" x="139.667" y="25">担保</tspan><tspan font-size="11" x="161" y="25">できる</tspan></text><path d="M511.271 353.5C511.271 363.375 449.886 373.25 388.5 373.25" stroke="#000000" stroke-width="0.333333" stroke-miterlimit="8" stroke-dasharray="0.333333 0.333333" fill="none" fill-rule="evenodd"/><path d="M94.5001 207.5 185.5 207.5 171.994 150.839 322 207.5 640.5 207.5 640.5 262.5 640.5 262.5 640.5 345 640.5 537.5 322 537.5 185.5 537.5 185.5 537.5 94.5001 537.5 94.5001 345 94.5001 262.5 94.5001 262.5Z" stroke="#2F528F" stroke-width="1.33333" stroke-miterlimit="8" fill="none" fill-rule="evenodd"/></g></svg>