<svg width="607" height="610" xmlns="http://www.w3.org/2000/svg" xmlns:xlink="http://www.w3.org/1999/xlink" overflow="hidden"><defs><clipPath id="clip0"><rect x="60" y="69" width="607" height="610"/></clipPath><clipPath id="clip1"><rect x="593" y="541" width="35" height="35"/></clipPath><clipPath id="clip2"><rect x="593" y="541" width="35" height="35"/></clipPath><clipPath id="clip3"><rect x="593" y="541" width="35" height="35"/></clipPath><linearGradient x1="611.008" y1="540.292" x2="605.091" y2="579.99" gradientUnits="userSpaceOnUse" spreadMethod="pad" id="fill4"><stop offset="0" stop-color="#32BEDD"/><stop offset="1" stop-color="#198AB3"/></linearGradient><linearGradient x1="613.996" y1="555.366" x2="621.08" y2="578.073" gradientUnits="userSpaceOnUse" spreadMethod="pad" id="fill5"><stop offset="0" stop-color="#50E6FF"/><stop offset="0.997" stop-color="#32BEDD"/><stop offset="1" stop-color="#32BEDD"/></linearGradient><linearGradient x1="592.673" y1="548.999" x2="617.446" y2="562.185" gradientUnits="userSpaceOnUse" spreadMethod="pad" id="fill6"><stop offset="0" stop-color="#FFFFFF"/><stop offset="1" stop-color="#9CEBFF"/></linearGradient></defs><g clip-path="url(#clip0)" transform="translate(-60 -69)"><rect x="61.5001" y="70.5001" width="605" height="607" stroke="#D9D9D9" stroke-width="1.33333" stroke-miterlimit="8" fill="none"/><path d="M640.5 533.125C640.5 541.202 572 547.75 487.5 547.75 403 547.75 334.5 541.202 334.5 533.125 334.5 525.048 403 518.5 487.5 518.5 572 518.5 640.5 525.048 640.5 533.125L640.5 620.875C640.5 628.952 572 635.5 487.5 635.5 403 635.5 334.5 628.952 334.5 620.875L334.5 533.125" stroke="#2F528F" stroke-width="1.33333" stroke-miterlimit="8" fill="none" fill-rule="evenodd"/><g clip-path="url(#clip1)"><g clip-path="url(#clip2)"><g clip-path="url(#clip3)"><path d="M621.054 547.514 610.953 541.681C609.375 540.771 607.432 540.771 605.855 541.681L595.753 547.514C594.177 548.426 593.205 550.108 593.204 551.93L593.204 563.596C593.204 565.418 594.176 567.102 595.753 568.014L605.864 573.847C607.442 574.757 609.385 574.757 610.963 573.847L621.074 568.014C622.651 567.102 623.623 565.418 623.623 563.596L623.623 551.93C623.618 550.104 622.639 548.421 621.054 547.514Z" fill="url(#fill4)"/><path d="M625.748 556.056 618.645 551.955C617.377 551.224 615.816 551.224 614.548 551.955L607.447 556.056C606.178 556.786 605.397 558.139 605.4 559.602L605.4 567.804C605.4 569.267 606.18 570.619 607.447 571.351L614.548 575.452C615.816 576.183 617.377 576.183 618.645 575.452L625.748 571.351C627.019 570.621 627.803 569.269 627.806 567.804L627.806 559.602C627.803 558.138 627.019 556.785 625.748 556.056Z" fill="url(#fill5)"/><path d="M607.735 546.761 609.781 545.63 618.55 563.804 617.838 564.582 598.513 564.582 598.73 562.255 615.027 562.255 607.735 546.761Z" fill="url(#fill6)"/><path d="M601.229 563.526C601.229 565.137 599.923 566.443 598.312 566.443 596.701 566.443 595.396 565.137 595.396 563.526 595.396 561.916 596.701 560.61 598.312 560.61 599.923 560.61 601.229 561.916 601.229 563.526Z" fill="#FFFFFF"/><path d="M621.156 563.703C621.156 566.221 619.115 568.261 616.598 568.261 614.081 568.261 612.04 566.221 612.04 563.703 612.04 561.186 614.081 559.146 616.598 559.146 619.115 559.146 621.156 561.186 621.156 563.703Z" fill="#FFFFFF"/><path d="M611.552 545.974C611.552 547.585 610.246 548.891 608.635 548.891 607.024 548.891 605.719 547.585 605.719 545.974 605.719 544.363 607.024 543.057 608.635 543.057 610.246 543.057 611.552 544.363 611.552 545.974Z" fill="#FFFFFF"/></g></g></g><path d="M395.5 577C395.5 571.753 399.753 567.5 405 567.5 410.247 567.5 414.5 571.753 414.5 577 414.5 582.247 410.247 586.5 405 586.5 399.753 586.5 395.5 582.247 395.5 577Z" stroke="#2F528F" stroke-width="1.33333" stroke-miterlimit="8" fill="#4472C4" fill-rule="evenodd"/><path d="M375.5 611C375.5 605.753 379.977 601.5 385.5 601.5 391.023 601.5 395.5 605.753 395.5 611 395.5 616.247 391.023 620.5 385.5 620.5 379.977 620.5 375.5 616.247 375.5 611Z" stroke="#2F528F" stroke-width="1.33333" stroke-miterlimit="8" fill="#4472C4" fill-rule="evenodd"/><path d="M414.5 611C414.5 605.753 418.753 601.5 424 601.5 429.247 601.5 433.5 605.753 433.5 611 433.5 616.247 429.247 620.5 424 620.5 418.753 620.5 414.5 616.247 414.5 611Z" stroke="#2F528F" stroke-width="1.33333" stroke-miterlimit="8" fill="#4472C4" fill-rule="evenodd"/><path d="M0.963581-0.267416 4.81818 13.6219 2.89102 14.1567-0.963581 0.267416ZM7.35237 11.5349 5.63738 20.3132-0.356277 13.6742Z" fill="#4472C4" transform="matrix(-1 0 0 1 397.637 583)"/><path d="M411.964 582.733 415.818 596.622 413.891 597.157 410.036 583.267ZM418.352 594.535 416.637 603.313 410.644 596.674Z" fill="#4472C4"/><path d="M466.5 577C466.5 571.753 470.977 567.5 476.5 567.5 482.023 567.5 486.5 571.753 486.5 577 486.5 582.247 482.023 586.5 476.5 586.5 470.977 586.5 466.5 582.247 466.5 577Z" stroke="#2F528F" stroke-width="1.33333" stroke-miterlimit="8" fill="#4472C4" fill-rule="evenodd"/><path d="M447.5 611C447.5 605.753 451.753 601.5 457 601.5 462.247 601.5 466.5 605.753 466.5 611 466.5 616.247 462.247 620.5 457 620.5 451.753 620.5 447.5 616.247 447.5 611Z" stroke="#2F528F" stroke-width="1.33333" stroke-miterlimit="8" fill="#4472C4" fill-rule="evenodd"/><path d="M486.5 611C486.5 605.753 490.753 601.5 496 601.5 501.247 601.5 505.5 605.753 505.5 611 505.5 616.247 501.247 620.5 496 620.5 490.753 620.5 486.5 616.247 486.5 611Z" stroke="#2F528F" stroke-width="1.33333" stroke-miterlimit="8" fill="#4472C4" fill-rule="evenodd"/><path d="M0.963581-0.267416 4.81818 13.6219 2.89102 14.1567-0.963581 0.267416ZM7.35237 11.5349 5.63738 20.3132-0.356277 13.6742Z" fill="#4472C4" transform="matrix(-1 0 0 1 469.637 583)"/><path d="M483.964 582.733 487.818 596.622 485.891 597.157 482.036 583.267ZM490.352 594.535 488.637 603.313 482.644 596.674Z" fill="#4472C4"/><path d="M533.5 611C533.5 605.753 537.753 601.5 543 601.5 548.247 601.5 552.5 605.753 552.5 611 552.5 616.247 548.247 620.5 543 620.5 537.753 620.5 533.5 616.247 533.5 611Z" stroke="#2F528F" stroke-width="1.33333" stroke-miterlimit="8" fill="#4472C4" fill-rule="evenodd"/><path d="M3.80339e-06-1 20.9368-0.99992 20.9368 1.00008-3.80339e-06 1ZM19.6035-3.99993 27.6035 0.000104987 19.6034 4.00007Z" fill="#4472C4" transform="matrix(-1 0 0 1 532.603 610)"/><rect x="273.5" y="171.5" width="252" height="108" stroke="#000000" stroke-width="1.33333" stroke-miterlimit="8" fill="#FFFFFF"/><text font-family="Yu Gothic,Yu Gothic_MSFontService,sans-serif" font-weight="400" font-size="11" transform="translate(360.185 186)">&lt;&lt; <tspan font-size="11" x="18.3333" y="0">abstract</tspan><tspan font-size="11" x="59" y="0"> </tspan>&gt;&gt;<tspan font-size="11" x="-77.4133" y="13">InstanceRepository</tspan><tspan font-size="11" x="-77.4133" y="25"> </tspan>SyncChangedStates()<tspan font-size="11" x="-77.4133" y="38"> </tspan><tspan font-style="oblique" font-size="11" x="-71.4133" y="38">UpdateCInstance</tspan><tspan font-size="11" x="14.2533" y="38">()</tspan><tspan font-size="11" x="-77.4133" y="51"> </tspan><tspan font-style="oblique" font-size="11" x="-71.4133" y="51">UpdateCLink</tspan><tspan font-size="11" x="-7.08002" y="51">()</tspan><tspan font-size="11" x="-77.4133" y="64"> </tspan><tspan font-style="oblique" font-size="11" x="-71.4133" y="64">UpdateState</tspan><tspan font-size="11" x="-9.08002" y="64">()</tspan><tspan font-size="11" x="-77.4133" y="77"> </tspan><tspan font-style="oblique" font-size="11" x="-71.4133" y="77">SelectInstances</tspan><tspan font-size="11" x="7.25333" y="77">(</tspan><tspan font-size="11" x="11.42" y="77">)</tspan></text><path d="M388.5 293.5 396.5 279.5 404.5 293.5Z" stroke="#000000" stroke-width="1.33333" stroke-miterlimit="8" fill="#FFFFFF" fill-rule="evenodd"/><path d="M395.991 293.5 395.991 318.745 229.5 318.745 229.5 343.991" stroke="#000000" stroke-width="0.666667" stroke-miterlimit="8" fill="none" fill-rule="evenodd"/><rect x="131.5" y="344.5" width="197" height="108" stroke="#000000" stroke-width="1.33333" stroke-miterlimit="8" fill="#FFFFFF"/><text font-family="Yu Gothic,Yu Gothic_MSFontService,sans-serif" font-weight="400" font-size="11" transform="translate(140.125 358)">InstanceRepositoryInMemory<tspan font-style="oblique" font-size="11" x="0" y="13"> </tspan>UpdateCInstance<tspan font-size="11" x="91.6667" y="13">()</tspan><tspan font-size="11" x="0" y="25"> </tspan>UpdateCLink<tspan font-size="11" x="70.3333" y="25">()</tspan><tspan font-size="11" x="0" y="38"> </tspan>UpdateState<tspan font-size="11" x="68.3333" y="38">()</tspan><tspan font-size="11" x="0" y="51"> </tspan>SelectInstances(<tspan font-size="11" x="88.8333" y="51">)</tspan></text><rect x="376.5" y="344.5" width="217" height="108" stroke="#000000" stroke-width="3" stroke-miterlimit="8" fill="#FFFFFF"/><text font-family="Yu Gothic,Yu Gothic_MSFontService,sans-serif" font-weight="700" font-size="11" transform="translate(386.008 358)">InstanceRepositoryAzureDigitalTwins<tspan font-weight="400" font-size="11" x="6" y="13">UpdateCInstance</tspan><tspan font-weight="400" font-size="11" x="91.6667" y="13">()</tspan><tspan font-weight="400" font-size="11" x="6" y="25">UpdateCLink</tspan><tspan font-weight="400" font-size="11" x="70.3333" y="25">()</tspan><tspan font-weight="400" font-size="11" x="6" y="38">UpdateState</tspan><tspan font-weight="400" font-size="11" x="68.3333" y="38">()</tspan><tspan font-weight="400" font-size="11" x="6" y="51">SelectInstances</tspan><tspan font-weight="400" font-size="11" x="84.6667" y="51">(</tspan><tspan font-weight="400" font-size="11" x="88.8333" y="51">)</tspan></text><path d="M0 0 25.2453 0 25.2453 88.7112 50.4906 88.7112" stroke="#000000" stroke-width="0.666667" stroke-miterlimit="8" fill="none" fill-rule="evenodd" transform="matrix(1.83697e-16 1 1 -1.83697e-16 396.5 293.5)"/><path d="M464.5 445 481 428.5 497.5 445 489.25 445 489.25 528 497.5 528 481 544.5 464.5 528 472.75 528 472.75 445Z" stroke="#2F528F" stroke-width="1.33333" stroke-miterlimit="8" stroke-opacity="0.501961" fill="#4472C4" fill-rule="evenodd" fill-opacity="0.501961"/><path d="M82.5001 171.5 196.5 171.5 196.5 261.5 178.5 279.5 82.5001 279.5Z" fill="#FFFFFF" fill-rule="evenodd"/><path d="M178.5 279.5 182.1 265.1 196.5 261.5Z" fill="#CDCDCD" fill-rule="evenodd"/><path d="M178.5 279.5 182.1 265.1 196.5 261.5 178.5 279.5 82.5001 279.5 82.5001 171.5 196.5 171.5 196.5 261.5" stroke="#000000" stroke-width="1.33333" stroke-miterlimit="8" fill="none" fill-rule="evenodd"/><text font-family="Yu Gothic,Yu Gothic_MSFontService,sans-serif" font-weight="400" font-size="13" transform="translate(99.3289 212)">振舞<tspan font-size="13" x="26.6667" y="0">ロジック</tspan><tspan font-size="13" x="20" y="16">コード</tspan></text><path d="M196.5 224.833 200.5 224.833 200.5 226.167 196.5 226.167ZM201.833 224.833 205.833 224.833 205.833 226.167 201.833 226.167ZM207.167 224.833 211.167 224.833 211.167 226.167 207.167 226.167ZM212.5 224.833 216.5 224.833 216.5 226.167 212.5 226.167ZM217.833 224.833 221.833 224.833 221.833 226.167 217.833 226.167ZM223.167 224.833 227.167 224.833 227.167 226.167 223.167 226.167ZM228.5 224.833 232.5 224.833 232.5 226.167 228.5 226.167ZM233.833 224.833 237.833 224.833 237.833 226.167 233.833 226.167ZM239.167 224.833 243.167 224.833 243.167 226.167 239.167 226.167ZM244.5 224.833 248.5 224.833 248.5 226.167 244.5 226.167ZM249.833 224.833 253.833 224.833 253.833 226.167 249.833 226.167ZM255.167 224.833 259.167 224.833 259.167 226.167 255.167 226.167ZM260.5 224.833 264.5 224.833 264.5 226.167 260.5 226.167ZM265.833 224.833 266.807 224.833 266.807 226.167 265.833 226.167ZM265.473 221.5 273.473 225.5 265.473 229.5Z"/><text font-family="Yu Gothic,Yu Gothic_MSFontService,sans-serif" font-weight="400" font-size="13" transform="translate(500.786 491)">Azure Digital Twins <tspan font-size="13" x="121.833" y="0">SDK</tspan><tspan font-size="13" x="0" y="16">Data</tspan><tspan font-size="13" x="29.6667" y="16"> </tspan><tspan font-size="13" x="33.5" y="16">Plane</tspan> <tspan font-size="13" x="72.3333" y="16">API</tspan></text><rect x="407.5" y="114.5" width="171" height="40" stroke="#000000" stroke-width="1.33333" stroke-miterlimit="8" fill="#FFFFFF"/><text font-family="Yu Gothic,Yu Gothic_MSFontService,sans-serif" font-weight="400" font-size="11" transform="translate(452.185 129)">&lt;&lt; <tspan font-size="11" x="18.3333" y="0">interface </tspan><tspan font-size="11" x="65.1667" y="0">&gt;&gt;</tspan><tspan font-size="11" x="-35.3333" y="13">DomainClassDef</tspan></text><path d="M0-0.333333 47.695-0.333333 47.695 93.1661 24.0216 93.1661 24.0216 92.4994 47.3616 92.4994 47.0283 92.8328 47.0283 0 47.3616 0.333333 0 0.333333ZM31.8537 97.7873 23.3601 92.8328 31.8537 87.8782C32.0127 87.7854 32.2168 87.8391 32.3096 87.9981 32.4024 88.1572 32.3487 88.3613 32.1896 88.454L24.1896 93.1207 24.1896 92.5448 32.1896 97.2115C32.3487 97.3043 32.4024 97.5084 32.3096 97.6674 32.2168 97.8264 32.0127 97.8801 31.8537 97.7873Z" transform="matrix(1 0 0 -1 554.5 227.333)"/><path d="M0 14.5 8 0 16 14.5 8 29Z" stroke="#000000" stroke-width="1.33333" stroke-miterlimit="8" fill="#FFFFFF" fill-rule="evenodd" transform="matrix(-6.12323e-17 -1 -1 6.12323e-17 554.5 235.5)"/><text font-family="Yu Gothic,Yu Gothic_MSFontService,sans-serif" font-weight="400" font-size="11" transform="translate(552.727 171)">domainInstances</text></g></svg>