<svg width="607" height="866" xmlns="http://www.w3.org/2000/svg" xmlns:xlink="http://www.w3.org/1999/xlink" overflow="hidden"><defs><filter id="fx0" x="-10%" y="-10%" width="120%" height="120%" filterUnits="userSpaceOnUse" primitiveUnits="userSpaceOnUse"><feComponentTransfer color-interpolation-filters="sRGB"><feFuncR type="discrete" tableValues="0 0"/><feFuncG type="discrete" tableValues="0 0"/><feFuncB type="discrete" tableValues="0 0"/><feFuncA type="linear" slope="0.431373" intercept="0"/></feComponentTransfer><feGaussianBlur stdDeviation="0.413243 0.413243"/></filter><filter id="fx1" x="-10%" y="-10%" width="120%" height="120%" filterUnits="userSpaceOnUse" primitiveUnits="userSpaceOnUse"><feComponentTransfer color-interpolation-filters="sRGB"><feFuncR type="discrete" tableValues="0 0"/><feFuncG type="discrete" tableValues="0 0"/><feFuncB type="discrete" tableValues="0 0"/><feFuncA type="linear" slope="0.431373" intercept="0"/></feComponentTransfer><feGaussianBlur stdDeviation="0.413243 0.413243"/></filter><filter id="fx2" x="-10%" y="-10%" width="120%" height="120%" filterUnits="userSpaceOnUse" primitiveUnits="userSpaceOnUse"><feComponentTransfer color-interpolation-filters="sRGB"><feFuncR type="discrete" tableValues="0 0"/><feFuncG type="discrete" tableValues="0 0"/><feFuncB type="discrete" tableValues="0 0"/><feFuncA type="linear" slope="0.431373" intercept="0"/></feComponentTransfer><feGaussianBlur stdDeviation="0.463613 0.463613"/></filter><filter id="fx3" x="-10%" y="-10%" width="120%" height="120%" filterUnits="userSpaceOnUse" primitiveUnits="userSpaceOnUse"><feComponentTransfer color-interpolation-filters="sRGB"><feFuncR type="discrete" tableValues="0 0"/><feFuncG type="discrete" tableValues="0 0"/><feFuncB type="discrete" tableValues="0 0"/><feFuncA type="linear" slope="0.431373" intercept="0"/></feComponentTransfer><feGaussianBlur stdDeviation="0.463613 0.463613"/></filter><filter id="fx4" x="-10%" y="-10%" width="120%" height="120%" filterUnits="userSpaceOnUse" primitiveUnits="userSpaceOnUse"><feComponentTransfer color-interpolation-filters="sRGB"><feFuncR type="discrete" tableValues="0 0"/><feFuncG type="discrete" tableValues="0 0"/><feFuncB type="discrete" tableValues="0 0"/><feFuncA type="linear" slope="0.431373" intercept="0"/></feComponentTransfer><feGaussianBlur stdDeviation="0.463613 0.463613"/></filter><filter id="fx5" x="-10%" y="-10%" width="120%" height="120%" filterUnits="userSpaceOnUse" primitiveUnits="userSpaceOnUse"><feComponentTransfer color-interpolation-filters="sRGB"><feFuncR type="discrete" tableValues="0 0"/><feFuncG type="discrete" tableValues="0 0"/><feFuncB type="discrete" tableValues="0 0"/><feFuncA type="linear" slope="0.431373" intercept="0"/></feComponentTransfer><feGaussianBlur stdDeviation="0.463613 0.463613"/></filter><filter id="fx6" x="-10%" y="-10%" width="120%" height="120%" filterUnits="userSpaceOnUse" primitiveUnits="userSpaceOnUse"><feComponentTransfer color-interpolation-filters="sRGB"><feFuncR type="discrete" tableValues="0 0"/><feFuncG type="discrete" tableValues="0 0"/><feFuncB type="discrete" tableValues="0 0"/><feFuncA type="linear" slope="0.431373" intercept="0"/></feComponentTransfer><feGaussianBlur stdDeviation="0.463613 0.463613"/></filter><filter id="fx7" x="-10%" y="-10%" width="120%" height="120%" filterUnits="userSpaceOnUse" primitiveUnits="userSpaceOnUse"><feComponentTransfer color-interpolation-filters="sRGB"><feFuncR type="discrete" tableValues="0 0"/><feFuncG type="discrete" tableValues="0 0"/><feFuncB type="discrete" tableValues="0 0"/><feFuncA type="linear" slope="0.431373" intercept="0"/></feComponentTransfer><feGaussianBlur stdDeviation="0.463613 0.463613"/></filter><clipPath id="clip8"><rect x="60" y="69" width="607" height="866"/></clipPath><clipPath id="clip9"><rect x="10" y="7" width="28" height="14"/></clipPath><clipPath id="clip10"><rect x="0" y="0" width="48" height="34"/></clipPath><clipPath id="clip11"><rect x="11" y="8" width="53" height="13"/></clipPath><clipPath id="clip12"><rect x="0" y="0" width="75" height="34"/></clipPath><clipPath id="clip13"><rect x="463" y="327" width="35" height="35"/></clipPath><clipPath id="clip14"><rect x="463" y="327" width="35" height="35"/></clipPath><clipPath id="clip15"><rect x="463" y="327" width="35" height="35"/></clipPath><linearGradient x1="481.008" y1="326.292" x2="475.091" y2="365.99" gradientUnits="userSpaceOnUse" spreadMethod="pad" id="fill16"><stop offset="0" stop-color="#32BEDD"/><stop offset="1" stop-color="#198AB3"/></linearGradient><linearGradient x1="483.996" y1="341.366" x2="491.08" y2="364.073" gradientUnits="userSpaceOnUse" spreadMethod="pad" id="fill17"><stop offset="0" stop-color="#50E6FF"/><stop offset="0.997" stop-color="#32BEDD"/><stop offset="1" stop-color="#32BEDD"/></linearGradient><linearGradient x1="462.673" y1="334.999" x2="487.446" y2="348.185" gradientUnits="userSpaceOnUse" spreadMethod="pad" id="fill18"><stop offset="0" stop-color="#FFFFFF"/><stop offset="1" stop-color="#9CEBFF"/></linearGradient><clipPath id="clip19"><rect x="324" y="237" width="35" height="35"/></clipPath><clipPath id="clip20"><rect x="324" y="237" width="35" height="35"/></clipPath><clipPath id="clip21"><rect x="324" y="237" width="35" height="35"/></clipPath><linearGradient x1="341.743" y1="269.778" x2="341.743" y2="238.747" gradientUnits="userSpaceOnUse" spreadMethod="pad" id="fill22"><stop offset="0" stop-color="#FEA11B"/><stop offset="0.284" stop-color="#FEA51A"/><stop offset="0.547" stop-color="#FEB018"/><stop offset="0.8" stop-color="#FFC314"/><stop offset="1" stop-color="#FFD70F"/></linearGradient><clipPath id="clip23"><rect x="238" y="449" width="36" height="35"/></clipPath><clipPath id="clip24"><rect x="238" y="449" width="36" height="35"/></clipPath><clipPath id="clip25"><rect x="238" y="449" width="36" height="35"/></clipPath><clipPath id="clip26"><rect x="153" y="552" width="35" height="35"/></clipPath><clipPath id="clip27"><rect x="153" y="552" width="35" height="35"/></clipPath><clipPath id="clip28"><rect x="153" y="552" width="35" height="35"/></clipPath><linearGradient x1="170.743" y1="584.778" x2="170.743" y2="553.747" gradientUnits="userSpaceOnUse" spreadMethod="pad" id="fill29"><stop offset="0" stop-color="#FEA11B"/><stop offset="0.284" stop-color="#FEA51A"/><stop offset="0.547" stop-color="#FEB018"/><stop offset="0.8" stop-color="#FFC314"/><stop offset="1" stop-color="#FFD70F"/></linearGradient><clipPath id="clip30"><rect x="600" y="238" width="35" height="35"/></clipPath><clipPath id="clip31"><rect x="600" y="238" width="35" height="35"/></clipPath><clipPath id="clip32"><rect x="600" y="238" width="35" height="35"/></clipPath><linearGradient x1="617.743" y1="270.778" x2="617.743" y2="239.747" gradientUnits="userSpaceOnUse" spreadMethod="pad" id="fill33"><stop offset="0" stop-color="#FEA11B"/><stop offset="0.284" stop-color="#FEA51A"/><stop offset="0.547" stop-color="#FEB018"/><stop offset="0.8" stop-color="#FFC314"/><stop offset="1" stop-color="#FFD70F"/></linearGradient><clipPath id="clip34"><rect x="11" y="8" width="19" height="18"/></clipPath><clipPath id="clip35"><rect x="0" y="0" width="41" height="39"/></clipPath><clipPath id="clip36"><rect x="11" y="8" width="19" height="18"/></clipPath><clipPath id="clip37"><rect x="0" y="0" width="41" height="39"/></clipPath><clipPath id="clip38"><rect x="11" y="7" width="19" height="18"/></clipPath><clipPath id="clip39"><rect x="0" y="0" width="41" height="39"/></clipPath><clipPath id="clip40"><rect x="11" y="8" width="19" height="18"/></clipPath><clipPath id="clip41"><rect x="0" y="0" width="41" height="39"/></clipPath><clipPath id="clip42"><rect x="11" y="7" width="19" height="18"/></clipPath><clipPath id="clip43"><rect x="0" y="0" width="41" height="39"/></clipPath><clipPath id="clip44"><rect x="11" y="7" width="19" height="18"/></clipPath><clipPath id="clip45"><rect x="0" y="0" width="41" height="39"/></clipPath><clipPath id="clip46"><rect x="583" y="851" width="35" height="35"/></clipPath><clipPath id="clip47"><rect x="583" y="851" width="35" height="35"/></clipPath><clipPath id="clip48"><rect x="583" y="851" width="35" height="35"/></clipPath><linearGradient x1="600.743" y1="883.778" x2="600.743" y2="852.747" gradientUnits="userSpaceOnUse" spreadMethod="pad" id="fill49"><stop offset="0" stop-color="#FEA11B"/><stop offset="0.284" stop-color="#FEA51A"/><stop offset="0.547" stop-color="#FEB018"/><stop offset="0.8" stop-color="#FFC314"/><stop offset="1" stop-color="#FFD70F"/></linearGradient></defs><g clip-path="url(#clip8)" transform="translate(-60 -69)"><rect x="61.5001" y="70.5001" width="605" height="864" stroke="#D9D9D9" stroke-width="1.33333" stroke-miterlimit="8" fill="none"/><rect x="126.5" y="102.5" width="472" height="54" stroke="#000000" stroke-width="1.33333" stroke-miterlimit="8" fill="#FFC000"/><g clip-path="url(#clip9)" filter="url(#fx0)" transform="translate(312 115)"><g clip-path="url(#clip10)"><path d="M3.65625-5.89062C4.11328-5.48861 4.49414-5.11621 4.79883-4.77344 5.18815-5.61979 5.48649-6.55924 5.69385-7.5918L3.84668-7.5918C3.30078-6.4196 2.56445-5.33203 1.6377-4.3291 1.52344-4.19792 1.43669-4.13232 1.37744-4.13232 1.3182-4.13232 1.24414-4.21908 1.15527-4.39258 0.998698-4.6888 0.782878-4.95329 0.507812-5.18604 1.7985-6.47672 2.70833-8.01074 3.2373-9.78809 3.33887-10.1309 3.396-10.4715 3.40869-10.8101 3.99268-10.7127 4.4349-10.6175 4.73535-10.5244 4.86654-10.4863 4.93213-10.4271 4.93213-10.3467 4.93213-10.2578 4.90039-10.1838 4.83691-10.1245 4.77767-10.0653 4.69092-9.8431 4.57666-9.45801 4.43278-9.0306 4.35872-8.81055 4.35449-8.79785L5.69385-8.79785C5.86312-8.79785 5.9943-8.82324 6.0874-8.87402 6.15511-8.90788 6.21435-8.9248 6.26514-8.9248 6.39209-8.9248 6.58252-8.80843 6.83643-8.57568 7.09033-8.35563 7.21728-8.2054 7.21729-8.125 7.21728-8.07845 7.17285-8.00439 7.08398-7.90283L7.00781-7.77588C7.36751-7.18766 7.80127-6.6333 8.30908-6.11279L8.30908-8.86133C8.30908-9.72461 8.27311-10.3826 8.20117-10.8354 8.79362-10.8228 9.27181-10.7889 9.63574-10.7339 9.76693-10.7212 9.83252-10.6789 9.83252-10.6069 9.83252-10.5646 9.80924-10.4779 9.7627-10.3467 9.70345-10.1901 9.67383-9.70768 9.67383-8.89941L9.67383-4.96387C10.444-4.42643 11.4618-3.90804 12.7271-3.40869 12.4858-3.09977 12.2954-2.757 12.1558-2.38037 12.0711-2.16455 11.9928-2.05664 11.9209-2.05664 11.8743-2.05664 11.7749-2.09049 11.6226-2.1582 10.8862-2.50521 10.2367-2.86914 9.67383-3.25L9.67383-1.37744 9.69922 0.882324C9.69922 0.950033 9.69075 0.99235 9.67383 1.00928 9.6569 1.02197 9.6167 1.02832 9.55322 1.02832L8.42334 1.02832C8.35563 1.02832 8.31543 1.01986 8.30273 1.00293 8.29004 0.986003 8.28369 0.945801 8.28369 0.882324L8.30908-1.37744 8.30908-4.3291C7.70394-4.89616 7.16227-5.53727 6.68408-6.25244 6.27783-4.68245 5.63672-3.30501 4.76074-2.12012 4.02441-1.12988 3.09131-0.228516 1.96143 0.583984 1.80062 0.706706 1.69694 0.768066 1.65039 0.768066 1.60807 0.768066 1.51286 0.681315 1.36475 0.507812 1.17855 0.26237 0.926758 0.0317383 0.609375-0.184082 2.13281-1.08968 3.31559-2.2238 4.15771-3.58643 3.75993-4.05615 3.33252-4.49837 2.87549-4.91309 2.82471-4.9681 2.79932-5.0083 2.79932-5.03369 2.79932-5.07178 2.82471-5.12256 2.87549-5.18604L3.40869-5.87793C3.45524-5.93717 3.49333-5.9668 3.52295-5.9668 3.5568-5.9668 3.60124-5.94141 3.65625-5.89062ZM22.5946-1.91064C22.6242-1.91064 22.6686-1.91064 22.7279-1.91064 23.8451-1.91064 24.4036-2.26611 24.4036-2.97705 24.4036-3.43408 24.2788-3.86149 24.0291-4.25928 23.7837-4.65283 23.3499-5.13525 22.7279-5.70654 23.223-6.73909 23.6694-7.87533 24.0672-9.11523L22.2454-9.11523 22.2454-1.83447 22.2708 0.882324C22.2708 0.950033 22.2624 0.990234 22.2454 1.00293 22.2285 1.01562 22.1904 1.02197 22.1312 1.02197L21.0838 1.02197C21.0119 1.02197 20.9674 1.01351 20.9505 0.996582 20.9378 0.979655 20.9315 0.941569 20.9315 0.882324L20.9569-1.82178 20.9569-7.43945 20.9315-10.1753C20.9315-10.2472 20.9421-10.2896 20.9632-10.3022 20.9801-10.3149 21.0225-10.3213 21.0902-10.3213L22.2454-10.2959 24.3275-10.2959C24.4883-10.2959 24.5962-10.3086 24.6512-10.334 24.7316-10.3594 24.7972-10.3721 24.848-10.3721 24.9495-10.3721 25.1315-10.2409 25.3939-9.97852 25.6012-9.74154 25.7049-9.56592 25.7049-9.45166 25.7049-9.37126 25.6647-9.29297 25.5843-9.2168 25.5081-9.16178 25.4172-9.00098 25.3114-8.73438 24.922-7.70182 24.5285-6.76237 24.1307-5.91602 24.7951-5.3151 25.2394-4.76074 25.4637-4.25293 25.633-3.86784 25.7176-3.40869 25.7176-2.87549 25.7176-1.54248 24.9538-0.804036 23.4261-0.660156 23.3161-0.651693 23.2441-0.647461 23.2103-0.647461 23.1172-0.647461 23.0558-0.677083 23.0262-0.736328 23.0093-0.778646 22.9881-0.88444 22.9627-1.05371 22.8993-1.41764 22.7765-1.70329 22.5946-1.91064ZM15.9359 0.869629 14.9329 0.869629C14.8356 0.869629 14.7869 0.825195 14.7869 0.736328L14.8123-1.45361 14.8123-2.39307 14.7869-3.84668C14.7869-3.91439 14.7954-3.95459 14.8123-3.96729 14.8293-3.97998 14.8695-3.98633 14.9329-3.98633L16.3739-3.96094 18.2464-3.96094 19.6873-3.98633C19.7635-3.98633 19.8101-3.97786 19.827-3.96094 19.8397-3.94401 19.846-3.90592 19.846-3.84668L19.8206-2.5708 19.8206-1.49805 19.846 0.685547C19.846 0.761719 19.8354 0.808268 19.8143 0.825195 19.7974 0.837891 19.755 0.844238 19.6873 0.844238L18.6908 0.844238C18.6188 0.844238 18.5765 0.833659 18.5638 0.8125 18.5511 0.795573 18.5448 0.753255 18.5448 0.685547L18.5448 0.0888672 16.0755 0.0888672 16.0755 0.736328C16.0755 0.825195 16.029 0.869629 15.9359 0.869629ZM16.0755-2.83105 16.0755-1.05371 18.5448-1.05371 18.5448-2.83105ZM15.8026-4.93213 14.1331-4.90674C14.0485-4.90674 14.0062-4.95329 14.0062-5.04639L14.0062-5.98584C14.0062-6.07894 14.0485-6.12549 14.1331-6.12549L15.8026-6.1001 17.6878-6.1001C17.8698-6.56559 18.0285-7.06071 18.1639-7.58545 18.2104-7.74626 18.2464-7.96208 18.2718-8.23291 18.75-8.14404 19.1266-8.05729 19.4017-7.97266 19.5329-7.93034 19.5985-7.87321 19.5985-7.80127 19.5985-7.73356 19.5646-7.66585 19.4969-7.59814 19.4334-7.53467 19.3763-7.4331 19.3255-7.29346 19.1986-6.89144 19.0505-6.49365 18.8812-6.1001L20.3475-6.12549C20.4194-6.12549 20.4618-6.11702 20.4744-6.1001 20.4871-6.08317 20.4935-6.04508 20.4935-5.98584L20.4935-5.04639C20.4935-4.97868 20.485-4.93848 20.4681-4.92578 20.4512-4.91309 20.411-4.90674 20.3475-4.90674L18.6971-4.93213ZM16.0311-8.42334 14.4378-8.39795C14.3659-8.39795 14.3236-8.40641 14.3109-8.42334 14.2982-8.44027 14.2918-8.47835 14.2918-8.5376L14.2918-9.45166C14.2918-9.5236 14.3003-9.56803 14.3172-9.58496 14.3341-9.59766 14.3743-9.604 14.4378-9.604L16.0311-9.57861 16.6214-9.57861 16.6214-9.81348C16.6214-10.2959 16.5939-10.6556 16.5389-10.8926 16.814-10.8841 17.252-10.8545 17.8529-10.8037 17.9925-10.7868 18.0623-10.7466 18.0623-10.6831 18.0623-10.6323 18.0327-10.5456 17.9735-10.4229 17.9354-10.3424 17.9163-10.1351 17.9163-9.80078L17.9163-9.57861 18.5828-9.57861 20.1698-9.604C20.2375-9.604 20.2777-9.59554 20.2904-9.57861 20.3031-9.56169 20.3094-9.51937 20.3094-9.45166L20.3094-8.5376C20.3094-8.46989 20.3009-8.42969 20.284-8.41699 20.2671-8.4043 20.229-8.39795 20.1698-8.39795L18.5828-8.42334ZM15.1615-7.83936C15.1445-7.88167 15.1361-7.91341 15.1361-7.93457 15.1361-7.96842 15.1932-8.00228 15.3075-8.03613L16.0184-8.22656C16.0734-8.23926 16.1136-8.24561 16.139-8.24561 16.1898-8.24561 16.2321-8.2054 16.266-8.125 16.4606-7.62565 16.6003-7.14958 16.6849-6.69678 16.6891-6.66292 16.6912-6.63753 16.6912-6.62061 16.6912-6.57829 16.6362-6.53809 16.5262-6.5L15.7581-6.27783C15.6989-6.2609 15.6566-6.25244 15.6312-6.25244 15.5804-6.25244 15.5465-6.30534 15.5296-6.41113 15.4365-6.98242 15.3138-7.4585 15.1615-7.83936Z" fill="#FFFFFF" transform="translate(10.7817 19)"/></g></g><path d="M3.65625-5.89062C4.11328-5.48861 4.49414-5.11621 4.79883-4.77344 5.18815-5.61979 5.48649-6.55924 5.69385-7.5918L3.84668-7.5918C3.30078-6.4196 2.56445-5.33203 1.6377-4.3291 1.52344-4.19792 1.43669-4.13232 1.37744-4.13232 1.3182-4.13232 1.24414-4.21908 1.15527-4.39258 0.998698-4.6888 0.782878-4.95329 0.507812-5.18604 1.7985-6.47672 2.70833-8.01074 3.2373-9.78809 3.33887-10.1309 3.396-10.4715 3.40869-10.8101 3.99268-10.7127 4.4349-10.6175 4.73535-10.5244 4.86654-10.4863 4.93213-10.4271 4.93213-10.3467 4.93213-10.2578 4.90039-10.1838 4.83691-10.1245 4.77767-10.0653 4.69092-9.8431 4.57666-9.45801 4.43278-9.0306 4.35872-8.81055 4.35449-8.79785L5.69385-8.79785C5.86312-8.79785 5.9943-8.82324 6.0874-8.87402 6.15511-8.90788 6.21435-8.9248 6.26514-8.9248 6.39209-8.9248 6.58252-8.80843 6.83643-8.57568 7.09033-8.35563 7.21728-8.2054 7.21729-8.125 7.21728-8.07845 7.17285-8.00439 7.08398-7.90283L7.00781-7.77588C7.36751-7.18766 7.80127-6.6333 8.30908-6.11279L8.30908-8.86133C8.30908-9.72461 8.27311-10.3826 8.20117-10.8354 8.79362-10.8228 9.27181-10.7889 9.63574-10.7339 9.76693-10.7212 9.83252-10.6789 9.83252-10.6069 9.83252-10.5646 9.80924-10.4779 9.7627-10.3467 9.70345-10.1901 9.67383-9.70768 9.67383-8.89941L9.67383-4.96387C10.444-4.42643 11.4618-3.90804 12.7271-3.40869 12.4858-3.09977 12.2954-2.757 12.1558-2.38037 12.0711-2.16455 11.9928-2.05664 11.9209-2.05664 11.8743-2.05664 11.7749-2.09049 11.6226-2.1582 10.8862-2.50521 10.2367-2.86914 9.67383-3.25L9.67383-1.37744 9.69922 0.882324C9.69922 0.950033 9.69075 0.99235 9.67383 1.00928 9.6569 1.02197 9.6167 1.02832 9.55322 1.02832L8.42334 1.02832C8.35563 1.02832 8.31543 1.01986 8.30273 1.00293 8.29004 0.986003 8.28369 0.945801 8.28369 0.882324L8.30908-1.37744 8.30908-4.3291C7.70394-4.89616 7.16227-5.53727 6.68408-6.25244 6.27783-4.68245 5.63672-3.30501 4.76074-2.12012 4.02441-1.12988 3.09131-0.228516 1.96143 0.583984 1.80062 0.706706 1.69694 0.768066 1.65039 0.768066 1.60807 0.768066 1.51286 0.681315 1.36475 0.507812 1.17855 0.26237 0.926758 0.0317383 0.609375-0.184082 2.13281-1.08968 3.31559-2.2238 4.15771-3.58643 3.75993-4.05615 3.33252-4.49837 2.87549-4.91309 2.82471-4.9681 2.79932-5.0083 2.79932-5.03369 2.79932-5.07178 2.82471-5.12256 2.87549-5.18604L3.40869-5.87793C3.45524-5.93717 3.49333-5.9668 3.52295-5.9668 3.5568-5.9668 3.60124-5.94141 3.65625-5.89062ZM22.5946-1.91064C22.6242-1.91064 22.6686-1.91064 22.7279-1.91064 23.8451-1.91064 24.4036-2.26611 24.4036-2.97705 24.4036-3.43408 24.2788-3.86149 24.0291-4.25928 23.7837-4.65283 23.3499-5.13525 22.7279-5.70654 23.223-6.73909 23.6694-7.87533 24.0672-9.11523L22.2454-9.11523 22.2454-1.83447 22.2708 0.882324C22.2708 0.950033 22.2624 0.990234 22.2454 1.00293 22.2285 1.01562 22.1904 1.02197 22.1312 1.02197L21.0838 1.02197C21.0119 1.02197 20.9674 1.01351 20.9505 0.996582 20.9378 0.979655 20.9315 0.941569 20.9315 0.882324L20.9569-1.82178 20.9569-7.43945 20.9315-10.1753C20.9315-10.2472 20.9421-10.2896 20.9632-10.3022 20.9801-10.3149 21.0225-10.3213 21.0902-10.3213L22.2454-10.2959 24.3275-10.2959C24.4883-10.2959 24.5962-10.3086 24.6512-10.334 24.7316-10.3594 24.7972-10.3721 24.848-10.3721 24.9495-10.3721 25.1315-10.2409 25.3939-9.97852 25.6012-9.74154 25.7049-9.56592 25.7049-9.45166 25.7049-9.37126 25.6647-9.29297 25.5843-9.2168 25.5081-9.16178 25.4172-9.00098 25.3114-8.73438 24.922-7.70182 24.5285-6.76237 24.1307-5.91602 24.7951-5.3151 25.2394-4.76074 25.4637-4.25293 25.633-3.86784 25.7176-3.40869 25.7176-2.87549 25.7176-1.54248 24.9538-0.804036 23.4261-0.660156 23.3161-0.651693 23.2441-0.647461 23.2103-0.647461 23.1172-0.647461 23.0558-0.677083 23.0262-0.736328 23.0093-0.778646 22.9881-0.88444 22.9627-1.05371 22.8993-1.41764 22.7765-1.70329 22.5946-1.91064ZM15.9359 0.869629 14.9329 0.869629C14.8356 0.869629 14.7869 0.825195 14.7869 0.736328L14.8123-1.45361 14.8123-2.39307 14.7869-3.84668C14.7869-3.91439 14.7954-3.95459 14.8123-3.96729 14.8293-3.97998 14.8695-3.98633 14.9329-3.98633L16.3739-3.96094 18.2464-3.96094 19.6873-3.98633C19.7635-3.98633 19.8101-3.97786 19.827-3.96094 19.8397-3.94401 19.846-3.90592 19.846-3.84668L19.8206-2.5708 19.8206-1.49805 19.846 0.685547C19.846 0.761719 19.8354 0.808268 19.8143 0.825195 19.7974 0.837891 19.755 0.844238 19.6873 0.844238L18.6908 0.844238C18.6188 0.844238 18.5765 0.833659 18.5638 0.8125 18.5511 0.795573 18.5448 0.753255 18.5448 0.685547L18.5448 0.0888672 16.0755 0.0888672 16.0755 0.736328C16.0755 0.825195 16.029 0.869629 15.9359 0.869629ZM16.0755-2.83105 16.0755-1.05371 18.5448-1.05371 18.5448-2.83105ZM15.8026-4.93213 14.1331-4.90674C14.0485-4.90674 14.0062-4.95329 14.0062-5.04639L14.0062-5.98584C14.0062-6.07894 14.0485-6.12549 14.1331-6.12549L15.8026-6.1001 17.6878-6.1001C17.8698-6.56559 18.0285-7.06071 18.1639-7.58545 18.2104-7.74626 18.2464-7.96208 18.2718-8.23291 18.75-8.14404 19.1266-8.05729 19.4017-7.97266 19.5329-7.93034 19.5985-7.87321 19.5985-7.80127 19.5985-7.73356 19.5646-7.66585 19.4969-7.59814 19.4334-7.53467 19.3763-7.4331 19.3255-7.29346 19.1986-6.89144 19.0505-6.49365 18.8812-6.1001L20.3475-6.12549C20.4194-6.12549 20.4618-6.11702 20.4744-6.1001 20.4871-6.08317 20.4935-6.04508 20.4935-5.98584L20.4935-5.04639C20.4935-4.97868 20.485-4.93848 20.4681-4.92578 20.4512-4.91309 20.411-4.90674 20.3475-4.90674L18.6971-4.93213ZM16.0311-8.42334 14.4378-8.39795C14.3659-8.39795 14.3236-8.40641 14.3109-8.42334 14.2982-8.44027 14.2918-8.47835 14.2918-8.5376L14.2918-9.45166C14.2918-9.5236 14.3003-9.56803 14.3172-9.58496 14.3341-9.59766 14.3743-9.604 14.4378-9.604L16.0311-9.57861 16.6214-9.57861 16.6214-9.81348C16.6214-10.2959 16.5939-10.6556 16.5389-10.8926 16.814-10.8841 17.252-10.8545 17.8529-10.8037 17.9925-10.7868 18.0623-10.7466 18.0623-10.6831 18.0623-10.6323 18.0327-10.5456 17.9735-10.4229 17.9354-10.3424 17.9163-10.1351 17.9163-9.80078L17.9163-9.57861 18.5828-9.57861 20.1698-9.604C20.2375-9.604 20.2777-9.59554 20.2904-9.57861 20.3031-9.56169 20.3094-9.51937 20.3094-9.45166L20.3094-8.5376C20.3094-8.46989 20.3009-8.42969 20.284-8.41699 20.2671-8.4043 20.229-8.39795 20.1698-8.39795L18.5828-8.42334ZM15.1615-7.83936C15.1445-7.88167 15.1361-7.91341 15.1361-7.93457 15.1361-7.96842 15.1932-8.00228 15.3075-8.03613L16.0184-8.22656C16.0734-8.23926 16.1136-8.24561 16.139-8.24561 16.1898-8.24561 16.2321-8.2054 16.266-8.125 16.4606-7.62565 16.6003-7.14958 16.6849-6.69678 16.6891-6.66292 16.6912-6.63753 16.6912-6.62061 16.6912-6.57829 16.6362-6.53809 16.5262-6.5L15.7581-6.27783C15.6989-6.2609 15.6566-6.25244 15.6312-6.25244 15.5804-6.25244 15.5465-6.30534 15.5296-6.41113 15.4365-6.98242 15.3138-7.4585 15.1615-7.83936Z" fill="#FFFFFF" transform="translate(321.905 133)"/><g clip-path="url(#clip11)" filter="url(#fx1)" transform="translate(338 115)"><g clip-path="url(#clip12)"><path d="M1.28857-5.65576C1.31396-5.69385 1.45784-5.92871 1.72021-6.36035 1.83447-6.54655 1.92122-6.67985 1.98047-6.76025 2.04395-6.84912 2.10954-6.89355 2.17725-6.89355 2.19417-6.89355 2.20898-6.89144 2.22168-6.88721 3.12305-6.58675 3.95671-6.16146 4.72266-5.61133 4.81575-5.54362 4.8623-5.48014 4.8623-5.4209 4.8623-5.39128 4.84538-5.34261 4.81152-5.2749 4.7015-5.0083 4.51107-4.67822 4.24023-4.28467 4.16829-4.20003 4.11117-4.15771 4.06885-4.15771 4.03076-4.15771 3.97998-4.18311 3.9165-4.23389 3.17594-4.77979 2.29997-5.25374 1.28857-5.65576ZM2.86279-8.70898 3.54834-9.75C3.60758-9.84733 3.66895-9.896 3.73242-9.896 3.77051-9.896 3.81917-9.88118 3.87842-9.85156 4.86442-9.45378 5.67904-8.97347 6.32227-8.41064 6.38997-8.36409 6.42383-8.30697 6.42383-8.23926 6.42383-8.18424 6.4069-8.12923 6.37305-8.07422 6.12337-7.62565 5.9012-7.2998 5.70654-7.09668 5.67692-7.0459 5.6346-7.02051 5.57959-7.02051 5.52458-7.02051 5.45898-7.05013 5.38281-7.10938 4.57031-7.78223 3.73031-8.31543 2.86279-8.70898ZM2.31689-1.30127C2.86702-1.40706 3.45524-1.61865 4.08154-1.93604 5.48649-2.67659 6.6735-3.42562 7.64258-4.18311 8.98405-5.20719 10.2324-6.41748 11.3877-7.81396 11.4469-7.40348 11.5739-6.91683 11.7686-6.354 11.8109-6.25244 11.832-6.16992 11.832-6.10645 11.832-6.00488 11.7855-5.90544 11.6924-5.80811 10.7021-4.75016 9.59977-3.74935 8.38525-2.80566 7.37809-2.03971 6.08317-1.2251 4.50049-0.361816 4.04346-0.116374 3.79167 0.0317383 3.74512 0.0825195 3.67741 0.150228 3.60758 0.184082 3.53564 0.184082 3.44255 0.184082 3.35579 0.131185 3.27539 0.0253906 3.02995-0.220052 2.71045-0.662272 2.31689-1.30127ZM21.2679-4.75439C22.4782-3.85726 23.6779-2.8099 24.867-1.6123 24.9347-1.5446 24.9686-1.48324 24.9686-1.42822 24.9686-1.37321 24.939-1.30973 24.8797-1.23779 24.6047-0.903483 24.3148-0.607259 24.0101-0.349121 23.9551-0.29834 23.9022-0.272949 23.8514-0.272949 23.8006-0.272949 23.7393-0.306803 23.6673-0.374512 22.6898-1.52132 21.5641-2.59619 20.2904-3.59912 18.932-2.18148 17.4762-1.03678 15.9232-0.165039 15.7666-0.0973307 15.6672-0.0634766 15.6248-0.0634766 15.5402-0.0634766 15.4661-0.101562 15.4027-0.177734 15.1615-0.47819 14.7975-0.761719 14.3109-1.02832 15.3561-1.55729 16.2533-2.10319 17.0023-2.66602 17.6117-3.12305 18.2401-3.68164 18.8875-4.3418 19.8143-5.30241 20.6289-6.38997 21.3314-7.60449L17.9798-7.5918C17.3112-7.5918 16.6257-7.56429 15.9232-7.50928 15.8385-7.50081 15.7814-7.57487 15.7518-7.73145 15.6756-8.05729 15.6375-8.50797 15.6375-9.0835 16.103-9.04964 16.8351-9.03271 17.8338-9.03271L21.4076-9.03271C21.8604-9.03271 22.1587-9.07292 22.3026-9.15332 22.3491-9.18717 22.3978-9.2041 22.4486-9.2041 22.4909-9.2041 22.5649-9.17025 22.6707-9.10254 22.95-8.88249 23.2314-8.5778 23.515-8.18848 23.5573-8.11654 23.5784-8.06152 23.5785-8.02344 23.5784-7.93457 23.5213-7.84782 23.4071-7.76318 23.2293-7.60661 23.0706-7.41406 22.931-7.18555 22.4443-6.36035 21.89-5.54997 21.2679-4.75439ZM34.1125-5.31934C34.0702-4.52799 33.9876-3.88265 33.8649-3.3833 33.7549-2.91781 33.5814-2.45866 33.3444-2.00586 33.0778-1.47689 32.7096-0.973307 32.2399-0.495117 31.8506-0.101563 31.457 0.213704 31.0592 0.450684 30.8942 0.556478 30.7651 0.609375 30.672 0.609375 30.5747 0.609375 30.4837 0.567057 30.3991 0.482422 30.1198 0.203125 29.7326-0.0275065 29.2375-0.209473 29.9357-0.5861 30.4858-0.958496 30.8879-1.32666 31.2645-1.67367 31.5776-2.07357 31.8273-2.52637 32.0728-2.96224 32.242-3.40869 32.3351-3.86572 32.4113-4.23389 32.4621-4.71842 32.4875-5.31934L30.0182-5.31934C29.6035-5.31934 28.9539-5.29395 28.0695-5.24316 27.9722-5.23047 27.915-5.31299 27.8981-5.49072 27.8304-5.88004 27.7966-6.29476 27.7966-6.73486 28.2832-6.69255 29.0195-6.67139 30.0055-6.67139L35.8454-6.67139C36.7721-6.67139 37.6164-6.69678 38.3781-6.74756 38.4712-6.74756 38.5177-6.66081 38.5177-6.4873 38.5262-6.39844 38.5304-6.23128 38.5304-5.98584 38.5304-5.74463 38.5262-5.57959 38.5177-5.49072 38.5177-5.34261 38.4543-5.26855 38.3273-5.26855 37.409-5.30241 36.5859-5.31934 35.8581-5.31934ZM29.3835-9.75C30.141-9.70768 30.8604-9.68652 31.5417-9.68652L34.4552-9.68652C35.3439-9.68652 36.0739-9.70345 36.6452-9.7373 36.751-9.7373 36.8039-9.65479 36.8039-9.48975 36.8166-9.32894 36.8229-9.17236 36.8229-9.02002 36.8229-8.85921 36.8166-8.70052 36.8039-8.54395 36.8039-8.37891 36.7467-8.29639 36.6325-8.29639 35.9258-8.32178 35.2-8.33447 34.4552-8.33447L31.5417-8.33447C31.2962-8.33447 30.6805-8.31754 29.6945-8.28369 29.5591-8.28369 29.485-8.35775 29.4723-8.50586 29.4596-8.62435 29.4448-8.82747 29.4279-9.11523 29.4067-9.41146 29.3919-9.62305 29.3835-9.75ZM44.8114-10.2197C45.6789-9.96159 46.2629-9.73519 46.5633-9.54053 46.6691-9.46859 46.722-9.39876 46.722-9.33105 46.722-9.25911 46.6776-9.17236 46.5887-9.0708 46.4321-8.86768 46.2565-8.50797 46.0619-7.9917 45.0589-5.25798 44.312-3.30924 43.8211-2.14551 45.7677-2.31055 47.2848-2.47559 48.3724-2.64062 47.9323-3.41927 47.4499-4.11117 46.9251-4.71631L48.0614-5.34473C48.1079-5.37012 48.1481-5.38281 48.182-5.38281 48.2412-5.38281 48.3047-5.34473 48.3724-5.26855 49.4049-4.0625 50.2809-2.64486 51.0003-1.01562 51.0342-0.95638 51.0511-0.899251 51.0511-0.844238 51.0511-0.759603 50.994-0.685547 50.8797-0.62207 50.6004-0.435872 50.2725-0.258138 49.8958-0.0888672 49.8408-0.0634766 49.7879-0.0507812 49.7371-0.0507812 49.6567-0.0507812 49.5954-0.112142 49.5531-0.234863 49.3245-0.768066 49.1722-1.11507 49.096-1.27588 47.4964-1.03467 45.4398-0.782878 42.9261-0.520508 42.1644-0.440104 41.6566-0.33431 41.4027-0.203125 41.3434-0.177734 41.2884-0.165039 41.2376-0.165039 41.1361-0.165039 41.0662-0.222168 41.0282-0.336426 40.9308-0.543783 40.7785-1.10238 40.5711-2.01221 40.8081-1.99528 41.0726-1.98682 41.3646-1.98682 41.5042-1.98682 41.7687-1.99105 42.158-1.99951 43.0171-4.17041 43.7746-6.31592 44.4305-8.43604 44.6548-9.1639 44.7817-9.75846 44.8114-10.2197Z" fill="#FFFFFF" transform="translate(11.4484 19)"/></g></g><path d="M1.28857-5.65576C1.31396-5.69385 1.45784-5.92871 1.72021-6.36035 1.83447-6.54655 1.92122-6.67985 1.98047-6.76025 2.04395-6.84912 2.10954-6.89355 2.17725-6.89355 2.19417-6.89355 2.20898-6.89144 2.22168-6.88721 3.12305-6.58675 3.95671-6.16146 4.72266-5.61133 4.81575-5.54362 4.8623-5.48014 4.8623-5.4209 4.8623-5.39128 4.84538-5.34261 4.81152-5.2749 4.7015-5.0083 4.51107-4.67822 4.24023-4.28467 4.16829-4.20003 4.11117-4.15771 4.06885-4.15771 4.03076-4.15771 3.97998-4.18311 3.9165-4.23389 3.17594-4.77979 2.29997-5.25374 1.28857-5.65576ZM2.86279-8.70898 3.54834-9.75C3.60758-9.84733 3.66895-9.896 3.73242-9.896 3.77051-9.896 3.81917-9.88118 3.87842-9.85156 4.86442-9.45378 5.67904-8.97347 6.32227-8.41064 6.38997-8.36409 6.42383-8.30697 6.42383-8.23926 6.42383-8.18424 6.4069-8.12923 6.37305-8.07422 6.12337-7.62565 5.9012-7.2998 5.70654-7.09668 5.67692-7.0459 5.6346-7.02051 5.57959-7.02051 5.52458-7.02051 5.45898-7.05013 5.38281-7.10938 4.57031-7.78223 3.73031-8.31543 2.86279-8.70898ZM2.31689-1.30127C2.86702-1.40706 3.45524-1.61865 4.08154-1.93604 5.48649-2.67659 6.6735-3.42562 7.64258-4.18311 8.98405-5.20719 10.2324-6.41748 11.3877-7.81396 11.4469-7.40348 11.5739-6.91683 11.7686-6.354 11.8109-6.25244 11.832-6.16992 11.832-6.10645 11.832-6.00488 11.7855-5.90544 11.6924-5.80811 10.7021-4.75016 9.59977-3.74935 8.38525-2.80566 7.37809-2.03971 6.08317-1.2251 4.50049-0.361816 4.04346-0.116374 3.79167 0.0317383 3.74512 0.0825195 3.67741 0.150228 3.60758 0.184082 3.53564 0.184082 3.44255 0.184082 3.35579 0.131185 3.27539 0.0253906 3.02995-0.220052 2.71045-0.662272 2.31689-1.30127ZM21.2679-4.75439C22.4782-3.85726 23.6779-2.8099 24.867-1.6123 24.9347-1.5446 24.9686-1.48324 24.9686-1.42822 24.9686-1.37321 24.939-1.30973 24.8797-1.23779 24.6047-0.903483 24.3148-0.607259 24.0101-0.349121 23.9551-0.29834 23.9022-0.272949 23.8514-0.272949 23.8006-0.272949 23.7393-0.306803 23.6673-0.374512 22.6898-1.52132 21.5641-2.59619 20.2904-3.59912 18.932-2.18148 17.4762-1.03678 15.9232-0.165039 15.7666-0.0973307 15.6672-0.0634766 15.6248-0.0634766 15.5402-0.0634766 15.4661-0.101562 15.4027-0.177734 15.1615-0.47819 14.7975-0.761719 14.3109-1.02832 15.3561-1.55729 16.2533-2.10319 17.0023-2.66602 17.6117-3.12305 18.2401-3.68164 18.8875-4.3418 19.8143-5.30241 20.6289-6.38997 21.3314-7.60449L17.9798-7.5918C17.3112-7.5918 16.6257-7.56429 15.9232-7.50928 15.8385-7.50081 15.7814-7.57487 15.7518-7.73145 15.6756-8.05729 15.6375-8.50797 15.6375-9.0835 16.103-9.04964 16.8351-9.03271 17.8338-9.03271L21.4076-9.03271C21.8604-9.03271 22.1587-9.07292 22.3026-9.15332 22.3491-9.18717 22.3978-9.2041 22.4486-9.2041 22.4909-9.2041 22.5649-9.17025 22.6707-9.10254 22.95-8.88249 23.2314-8.5778 23.515-8.18848 23.5573-8.11654 23.5784-8.06152 23.5785-8.02344 23.5784-7.93457 23.5213-7.84782 23.4071-7.76318 23.2293-7.60661 23.0706-7.41406 22.931-7.18555 22.4443-6.36035 21.89-5.54997 21.2679-4.75439ZM34.1125-5.31934C34.0702-4.52799 33.9876-3.88265 33.8649-3.3833 33.7549-2.91781 33.5814-2.45866 33.3444-2.00586 33.0778-1.47689 32.7096-0.973307 32.2399-0.495117 31.8506-0.101563 31.457 0.213704 31.0592 0.450684 30.8942 0.556478 30.7651 0.609375 30.672 0.609375 30.5747 0.609375 30.4837 0.567057 30.3991 0.482422 30.1198 0.203125 29.7326-0.0275065 29.2375-0.209473 29.9357-0.5861 30.4858-0.958496 30.8879-1.32666 31.2645-1.67367 31.5776-2.07357 31.8273-2.52637 32.0728-2.96224 32.242-3.40869 32.3351-3.86572 32.4113-4.23389 32.4621-4.71842 32.4875-5.31934L30.0182-5.31934C29.6035-5.31934 28.9539-5.29395 28.0695-5.24316 27.9722-5.23047 27.915-5.31299 27.8981-5.49072 27.8304-5.88004 27.7966-6.29476 27.7966-6.73486 28.2832-6.69255 29.0195-6.67139 30.0055-6.67139L35.8454-6.67139C36.7721-6.67139 37.6164-6.69678 38.3781-6.74756 38.4712-6.74756 38.5177-6.66081 38.5177-6.4873 38.5262-6.39844 38.5304-6.23128 38.5304-5.98584 38.5304-5.74463 38.5262-5.57959 38.5177-5.49072 38.5177-5.34261 38.4543-5.26855 38.3273-5.26855 37.409-5.30241 36.5859-5.31934 35.8581-5.31934ZM29.3835-9.75C30.141-9.70768 30.8604-9.68652 31.5417-9.68652L34.4552-9.68652C35.3439-9.68652 36.0739-9.70345 36.6452-9.7373 36.751-9.7373 36.8039-9.65479 36.8039-9.48975 36.8166-9.32894 36.8229-9.17236 36.8229-9.02002 36.8229-8.85921 36.8166-8.70052 36.8039-8.54395 36.8039-8.37891 36.7467-8.29639 36.6325-8.29639 35.9258-8.32178 35.2-8.33447 34.4552-8.33447L31.5417-8.33447C31.2962-8.33447 30.6805-8.31754 29.6945-8.28369 29.5591-8.28369 29.485-8.35775 29.4723-8.50586 29.4596-8.62435 29.4448-8.82747 29.4279-9.11523 29.4067-9.41146 29.3919-9.62305 29.3835-9.75ZM44.8114-10.2197C45.6789-9.96159 46.2629-9.73519 46.5633-9.54053 46.6691-9.46859 46.722-9.39876 46.722-9.33105 46.722-9.25911 46.6776-9.17236 46.5887-9.0708 46.4321-8.86768 46.2565-8.50797 46.0619-7.9917 45.0589-5.25798 44.312-3.30924 43.8211-2.14551 45.7677-2.31055 47.2848-2.47559 48.3724-2.64062 47.9323-3.41927 47.4499-4.11117 46.9251-4.71631L48.0614-5.34473C48.1079-5.37012 48.1481-5.38281 48.182-5.38281 48.2412-5.38281 48.3047-5.34473 48.3724-5.26855 49.4049-4.0625 50.2809-2.64486 51.0003-1.01562 51.0342-0.95638 51.0511-0.899251 51.0511-0.844238 51.0511-0.759603 50.994-0.685547 50.8797-0.62207 50.6004-0.435872 50.2725-0.258138 49.8958-0.0888672 49.8408-0.0634766 49.7879-0.0507812 49.7371-0.0507812 49.6567-0.0507812 49.5954-0.112142 49.5531-0.234863 49.3245-0.768066 49.1722-1.11507 49.096-1.27588 47.4964-1.03467 45.4398-0.782878 42.9261-0.520508 42.1644-0.440104 41.6566-0.33431 41.4027-0.203125 41.3434-0.177734 41.2884-0.165039 41.2376-0.165039 41.1361-0.165039 41.0662-0.222168 41.0282-0.336426 40.9308-0.543783 40.7785-1.10238 40.5711-2.01221 40.8081-1.99528 41.0726-1.98682 41.3646-1.98682 41.5042-1.98682 41.7687-1.99105 42.158-1.99951 43.0171-4.17041 43.7746-6.31592 44.4305-8.43604 44.6548-9.1639 44.7817-9.75846 44.8114-10.2197Z" fill="#FFFFFF" transform="translate(348.572 133)"/><path d="M510.5 318.125C510.5 326.202 442.223 332.75 358 332.75 273.777 332.75 205.5 326.202 205.5 318.125 205.5 310.048 273.777 303.5 358 303.5 442.223 303.5 510.5 310.048 510.5 318.125L510.5 405.875C510.5 413.952 442.223 420.5 358 420.5 273.777 420.5 205.5 413.952 205.5 405.875L205.5 318.125" stroke="#2F528F" stroke-width="1.33333" stroke-miterlimit="8" fill="none" fill-rule="evenodd"/><g clip-path="url(#clip13)"><g clip-path="url(#clip14)"><g clip-path="url(#clip15)"><path d="M491.054 333.514 480.953 327.681C479.375 326.771 477.432 326.771 475.855 327.681L465.753 333.514C464.177 334.426 463.205 336.108 463.204 337.93L463.204 349.596C463.204 351.418 464.176 353.102 465.753 354.014L475.864 359.848C477.442 360.757 479.385 360.757 480.963 359.848L491.074 354.014C492.651 353.102 493.623 351.418 493.623 349.596L493.623 337.93C493.618 336.104 492.639 334.421 491.054 333.514Z" fill="url(#fill16)"/><path d="M495.748 342.056 488.645 337.955C487.377 337.224 485.816 337.224 484.548 337.955L477.447 342.056C476.178 342.786 475.397 344.139 475.4 345.603L475.4 353.804C475.4 355.267 476.18 356.619 477.447 357.351L484.548 361.452C485.816 362.183 487.377 362.183 488.645 361.452L495.748 357.351C497.019 356.621 497.803 355.269 497.806 353.804L497.806 345.603C497.803 344.137 497.019 342.785 495.748 342.056Z" fill="url(#fill17)"/><path d="M477.735 332.761 479.781 331.63 488.55 349.804 487.838 350.582 468.513 350.582 468.73 348.255 485.027 348.255 477.735 332.761Z" fill="url(#fill18)"/><path d="M471.229 349.526C471.229 351.137 469.923 352.443 468.312 352.443 466.701 352.443 465.396 351.137 465.396 349.526 465.396 347.916 466.701 346.61 468.312 346.61 469.923 346.61 471.229 347.916 471.229 349.526Z" fill="#FFFFFF"/><path d="M491.156 349.703C491.156 352.221 489.115 354.261 486.598 354.261 484.081 354.261 482.04 352.221 482.04 349.703 482.04 347.186 484.081 345.146 486.598 345.146 489.115 345.146 491.156 347.186 491.156 349.703Z" fill="#FFFFFF"/><path d="M481.552 331.974C481.552 333.585 480.246 334.891 478.635 334.891 477.024 334.891 475.719 333.585 475.719 331.974 475.719 330.363 477.024 329.057 478.635 329.057 480.246 329.057 481.552 330.363 481.552 331.974Z" fill="#FFFFFF"/></g></g></g><path d="M265.5 362C265.5 356.753 269.753 352.5 275 352.5 280.247 352.5 284.5 356.753 284.5 362 284.5 367.247 280.247 371.5 275 371.5 269.753 371.5 265.5 367.247 265.5 362Z" stroke="#2F528F" stroke-width="1.33333" stroke-miterlimit="8" fill="#4472C4" fill-rule="evenodd"/><path d="M246.5 396C246.5 390.753 250.753 386.5 256 386.5 261.247 386.5 265.5 390.753 265.5 396 265.5 401.247 261.247 405.5 256 405.5 250.753 405.5 246.5 401.247 246.5 396Z" stroke="#2F528F" stroke-width="1.33333" stroke-miterlimit="8" fill="#4472C4" fill-rule="evenodd"/><path d="M284.5 396C284.5 390.753 288.977 386.5 294.5 386.5 300.023 386.5 304.5 390.753 304.5 396 304.5 401.247 300.023 405.5 294.5 405.5 288.977 405.5 284.5 401.247 284.5 396Z" stroke="#2F528F" stroke-width="1.33333" stroke-miterlimit="8" fill="#4472C4" fill-rule="evenodd"/><path d="M0.963581-0.267416 4.81818 13.6219 2.89102 14.1567-0.963581 0.267416ZM7.35237 11.5349 5.63738 20.3132-0.356277 13.6742Z" fill="#4472C4" transform="matrix(-1 0 0 1 267.637 368)"/><path d="M281.964 367.733 285.818 381.622 283.891 382.157 280.036 368.267ZM288.352 379.535 286.637 388.313 280.644 381.674Z" fill="#4472C4"/><path d="M337.5 362C337.5 356.753 341.753 352.5 347 352.5 352.247 352.5 356.5 356.753 356.5 362 356.5 367.247 352.247 371.5 347 371.5 341.753 371.5 337.5 367.247 337.5 362Z" stroke="#2F528F" stroke-width="1.33333" stroke-miterlimit="8" fill="#4472C4" fill-rule="evenodd"/><path d="M318.5 396C318.5 390.753 322.753 386.5 328 386.5 333.247 386.5 337.5 390.753 337.5 396 337.5 401.247 333.247 405.5 328 405.5 322.753 405.5 318.5 401.247 318.5 396Z" stroke="#2F528F" stroke-width="1.33333" stroke-miterlimit="8" fill="#4472C4" fill-rule="evenodd"/><path d="M356.5 396C356.5 390.753 360.753 386.5 366 386.5 371.247 386.5 375.5 390.753 375.5 396 375.5 401.247 371.247 405.5 366 405.5 360.753 405.5 356.5 401.247 356.5 396Z" stroke="#2F528F" stroke-width="1.33333" stroke-miterlimit="8" fill="#4472C4" fill-rule="evenodd"/><path d="M0.963581-0.267416 4.81818 13.6219 2.89102 14.1567-0.963581 0.267416ZM7.35237 11.5349 5.63738 20.3132-0.356277 13.6742Z" fill="#4472C4" transform="matrix(-1 0 0 1 339.637 368)"/><path d="M353.964 367.733 357.818 381.622 355.891 382.157 352.036 368.267ZM360.352 379.535 358.637 388.313 352.644 381.674Z" fill="#4472C4"/><path d="M403.5 396C403.5 390.753 407.753 386.5 413 386.5 418.247 386.5 422.5 390.753 422.5 396 422.5 401.247 418.247 405.5 413 405.5 407.753 405.5 403.5 401.247 403.5 396Z" stroke="#2F528F" stroke-width="1.33333" stroke-miterlimit="8" fill="#4472C4" fill-rule="evenodd"/><path d="M3.80339e-06-1 20.9368-0.99992 20.9368 1.00008-3.80339e-06 1ZM19.6035-3.99993 27.6035 0.000104987 19.6034 4.00007Z" fill="#4472C4" transform="matrix(-1 0 0 1 402.603 396)"/><rect x="126.5" y="188.5" width="242" height="86" stroke="#2F528F" stroke-width="1.33333" stroke-miterlimit="8" fill="none"/><g clip-path="url(#clip19)"><g clip-path="url(#clip20)"><g clip-path="url(#clip21)"><path d="M334.773 262.482 333.633 263.625C333.431 263.828 333.102 263.828 332.899 263.626L324.434 255.185C324.029 254.781 324.028 254.124 324.432 253.719L325.577 252.571 325.577 252.571 334.778 261.745C334.981 261.948 334.981 262.276 334.779 262.479Z" fill="#50E6FF"/><path d="M333.457 245.371 334.603 246.514C334.807 246.717 334.807 247.045 334.605 247.249L325.566 256.312 325.566 256.312 324.418 255.167C324.013 254.763 324.012 254.107 324.416 253.702L332.725 245.369C332.928 245.168 333.255 245.169 333.457 245.371Z" fill="#1490DF"/><path d="M357.424 252.579 358.568 253.726C358.972 254.131 358.971 254.787 358.566 255.191L350.101 263.632C349.898 263.835 349.569 263.834 349.367 263.631L348.228 262.49C348.026 262.287 348.026 261.958 348.23 261.756L357.428 252.583 357.428 252.583Z" fill="#50E6FF"/><path d="M358.576 255.162 357.429 256.306 357.429 256.306 348.391 247.242C348.188 247.039 348.189 246.71 348.392 246.508L349.539 245.364C349.742 245.162 350.07 245.162 350.273 245.365L358.582 253.698C358.986 254.103 358.985 254.76 358.58 255.164Z" fill="#1490DF"/><path d="M340.448 256.25 333.469 256.25C333.266 256.258 333.093 256.102 333.081 255.898 333.081 255.847 333.093 255.797 333.116 255.752L341.483 239.197C341.555 239.066 341.695 238.987 341.844 238.991L350.098 238.991C350.302 238.983 350.475 239.14 350.487 239.343 350.487 239.414 350.463 239.482 350.419 239.538L340.594 252.489 350.176 252.489C350.38 252.482 350.552 252.638 350.565 252.841 350.564 252.931 350.527 253.016 350.464 253.079L334.541 269.643C334.391 269.733 333.328 270.616 333.849 269.276L333.849 269.276Z" fill="url(#fill22)"/></g></g></g><path d="M175.5 219.834C175.5 216.336 178.336 213.5 181.833 213.5L314.167 213.5C317.664 213.5 320.5 216.336 320.5 219.834L320.5 245.167C320.5 248.664 317.664 251.5 314.167 251.5L181.833 251.5C178.336 251.5 175.5 248.664 175.5 245.167Z" stroke="#FF0000" stroke-width="3" stroke-miterlimit="8" fill="#FFFFFF" fill-rule="evenodd"/><text font-family="Arial,Arial_MSFontService,sans-serif" font-weight="400" font-size="13" transform="translate(186.238 236)">•<tspan font-family="Yu Gothic,Yu Gothic_MSFontService,sans-serif" font-size="13" x="18" y="0">Telemetry</tspan><tspan font-family="Yu Gothic,Yu Gothic_MSFontService,sans-serif" font-size="13" x="78.5" y="0"> </tspan><tspan font-family="Yu Gothic,Yu Gothic_MSFontService,sans-serif" font-size="13" x="82.3333" y="0">送信</tspan></text><g clip-path="url(#clip23)"><g clip-path="url(#clip24)"><g clip-path="url(#clip25)"><path d="M21.0583 16.3722C21.0696 16.6444 20.8632 16.8765 20.5917 16.8972L16.5278 16.8972C16.2556 16.9085 16.0235 16.7021 16.0028 16.4306L16.0028 13.3972C15.9915 13.1251 16.1979 12.8929 16.4694 12.8722L20.5333 12.8722C20.8055 12.861 21.0376 13.0673 21.0583 13.3389L21.0583 16.3722Z" fill="#76BC2D" transform="matrix(1.02857 0 0 1 238 449)"/><path d="M28.2722 19.4444C28.2835 19.7166 28.0771 19.9487 27.8056 19.9694L23.7417 19.9694C23.4695 19.9807 23.2374 19.7744 23.2167 19.5028L23.2167 16.4889C23.2054 16.2168 23.4118 15.9846 23.6833 15.9639L27.7472 15.9639C28.0194 15.9526 28.2515 16.159 28.2722 16.4306L28.2722 19.4444Z" fill="#76BC2D" transform="matrix(1.02857 0 0 1 238 449)"/><path d="M21.0583 22.5556C21.0696 22.8277 20.8632 23.0598 20.5917 23.0806L16.5278 23.0806C16.2556 23.0918 16.0235 22.8855 16.0028 22.6139L16.0028 19.5806C15.9915 19.3084 16.1979 19.0763 16.4694 19.0556L20.5333 19.0556C20.8055 19.0443 21.0376 19.2506 21.0583 19.5222L21.0583 22.5556Z" fill="#76BC2D" transform="matrix(1.02857 0 0 1 238 449)"/><path d="M13.8444 13.3C13.8557 13.5614 13.6581 13.7849 13.3972 13.8056L9.21667 13.8056C8.95137 13.8175 8.72204 13.6222 8.69167 13.3583L8.69167 10.2083C8.70081 9.95113 8.90172 9.74186 9.15833 9.72222L13.2222 9.72222C13.65 9.72222 13.8444 9.93611 13.8444 10.2472Z" fill="#86D633" transform="matrix(1.02857 0 0 1 238 449)"/><path d="M13.8444 19.4444C13.8667 19.712 13.6679 19.9469 13.4003 19.9692 13.3993 19.9693 13.3983 19.9694 13.3972 19.9694L9.21667 19.9694C8.93767 19.9804 8.70262 19.7631 8.69167 19.4841 8.69115 19.4709 8.69115 19.4577 8.69167 19.4444L8.69167 16.3722C8.69088 16.1075 8.89441 15.887 9.15833 15.8667L13.2222 15.8667C13.65 15.8667 13.8444 16.0806 13.8444 16.3722Z" fill="#76BC2D" transform="matrix(1.02857 0 0 1 238 449)"/><path d="M13.8444 25.6472C13.8667 25.9148 13.6679 26.1497 13.4003 26.172 13.3993 26.1721 13.3983 26.1721 13.3972 26.1722L9.21667 26.1722C8.94453 26.1835 8.71239 25.9771 8.69167 25.7056L8.69167 22.5556C8.68072 22.2873 8.88931 22.061 9.15756 22.05 9.15781 22.05 9.15807 22.05 9.15833 22.05L13.2222 22.05C13.65 22.05 13.8444 22.2444 13.8444 22.5556Z" fill="#76BC2D" transform="matrix(1.02857 0 0 1 238 449)"/><path d="M2.08056 2.93611 4.58889 2.93611 4.58889 2.93611 4.58889 9.93611C4.58889 10.2475 4.33643 10.5 4.025 10.5L1.53611 10.5C1.22468 10.5 0.972222 10.2475 0.972222 9.93611L0.972222 4.10278C0.940005 3.49151 1.40942 2.96986 2.02068 2.93765 2.04062 2.93659 2.06059 2.93608 2.08056 2.93611Z" fill="#999999" transform="matrix(1.02857 0 0 1 238 449)"/><path d="M2.08056 2.93611 4.58889 2.93611 4.58889 2.93611 4.58889 9.93611C4.58889 10.2475 4.33643 10.5 4.025 10.5L1.53611 10.5C1.22468 10.5 0.972222 10.2475 0.972222 9.93611L0.972222 4.10278C0.940005 3.49151 1.40942 2.96986 2.02068 2.93765 2.04062 2.93659 2.06059 2.93608 2.08056 2.93611Z" fill="#999999" fill-opacity="0.5" transform="matrix(1.02857 0 0 1 238 449)"/><path d="M30.4111 2.93611 32.9194 2.93611C33.5316 2.93611 34.0278 3.43233 34.0278 4.04444L34.0278 9.87778C34.0278 10.1892 33.7753 10.4417 33.4639 10.4417L30.9556 10.4417C30.6441 10.4417 30.3917 10.1892 30.3917 9.87778L30.3917 2.93611 30.4111 2.93611Z" fill="#999999" transform="matrix(1.02857 0 0 1 238 449)"/><path d="M30.4111 2.93611 32.9194 2.93611C33.5316 2.93611 34.0278 3.43233 34.0278 4.04444L34.0278 9.87778C34.0278 10.1892 33.7753 10.4417 33.4639 10.4417L30.9556 10.4417C30.6441 10.4417 30.3917 10.1892 30.3917 9.87778L30.3917 2.93611 30.4111 2.93611Z" fill="#999999" fill-opacity="0.5" transform="matrix(1.02857 0 0 1 238 449)"/><path d="M16.8389-11.8222 19.2694-11.8222 19.2694-11.8222 19.2694 21.2333 19.2694 21.2333 16.8389 21.2333C16.2268 21.2333 15.7306 20.7371 15.7306 20.125L15.7306-10.7333C15.7412-11.3378 16.2343-11.8223 16.8389-11.8222Z" fill="#949494" transform="matrix(6.29818e-17 1 -1.02857 6.12323e-17 260.84 436.206)"/><path d="M1.53611 24.8111 4.04444 24.8111C4.35587 24.8111 4.60833 25.0636 4.60833 25.375L4.60833 32.375 4.60833 32.375 2.08056 32.375C1.46844 32.375 0.972222 31.8788 0.972222 31.2667L0.972222 25.2778C1.01997 25.0048 1.25901 24.807 1.53611 24.8111Z" fill="#999999" transform="matrix(1.02857 0 0 1 238 449)"/><path d="M1.53611 24.8111 4.04444 24.8111C4.35587 24.8111 4.60833 25.0636 4.60833 25.375L4.60833 32.375 4.60833 32.375 2.08056 32.375C1.46844 32.375 0.972222 31.8788 0.972222 31.2667L0.972222 25.2778C1.01997 25.0048 1.25901 24.807 1.53611 24.8111Z" fill="#999999" fill-opacity="0.5" transform="matrix(1.02857 0 0 1 238 449)"/><path d="M30.9556 24.8111 33.4639 24.8111C33.7753 24.8111 34.0278 25.0636 34.0278 25.375L34.0278 31.2083C34.0278 31.8204 33.5316 32.3167 32.9194 32.3167L30.4111 32.3167 30.4111 32.3167 30.4111 25.2778C30.4576 25.012 30.6858 24.8164 30.9556 24.8111Z" fill="#999999" transform="matrix(1.02857 0 0 1 238 449)"/><path d="M30.9556 24.8111 33.4639 24.8111C33.7753 24.8111 34.0278 25.0636 34.0278 25.375L34.0278 31.2083C34.0278 31.8204 33.5316 32.3167 32.9194 32.3167L30.4111 32.3167 30.4111 32.3167 30.4111 25.2778C30.4576 25.012 30.6858 24.8164 30.9556 24.8111Z" fill="#999999" fill-opacity="0.5" transform="matrix(1.02857 0 0 1 238 449)"/><path d="M16.8389 14.0778 19.2694 14.0778 19.2694 14.0778 19.2694 47.1333 19.2694 47.1333 16.8389 47.1333C16.2268 47.1333 15.7306 46.6371 15.7306 46.025L15.7306 15.1861C15.7306 14.574 16.2268 14.0778 16.8389 14.0778Z" fill="#949494" transform="matrix(6.29818e-17 -1 1.02857 6.12323e-17 224.52 497.106)"/></g></g></g><path d="M246.5 438 251.25 438 251.25 412.5 260.75 412.5 260.75 438 265.5 438 256 447.5Z" stroke="#2F528F" stroke-width="1.33333" stroke-miterlimit="8" stroke-opacity="0.501961" fill="#4472C4" fill-rule="evenodd" fill-opacity="0.501961"/><path d="M237.5 204 242.25 204 242.25 162.5 251.75 162.5 251.75 204 256.5 204 247 213.5Z" stroke="#2F528F" stroke-width="1.33333" stroke-miterlimit="8" stroke-opacity="0.501961" fill="#ED7D31" fill-rule="evenodd" fill-opacity="0.501961"/><text font-family="Yu Gothic,Yu Gothic_MSFontService,sans-serif" font-weight="400" font-size="13" transform="translate(262.018 181)">HTTP Trigger <tspan font-size="13" x="-169.399" y="256">Telemetry Event Routing</tspan></text><path d="M248.422 251.5 248.422 254.167 247.755 254.167 247.755 251.5ZM248.422 256.167 248.422 258.833 247.755 258.833 247.755 256.167ZM248.422 260.833 248.422 263.5 247.755 263.5 247.755 260.833ZM248.422 265.5 248.422 268.167 247.755 268.167 247.755 265.5ZM248.422 270.167 248.422 272.833 247.755 272.833 247.755 270.167ZM248.422 274.833 248.422 277.5 247.755 277.5 247.755 274.833ZM248.422 279.5 248.422 282.167 247.755 282.167 247.755 279.5ZM248.422 284.167 248.422 286.833 247.755 286.833 247.755 284.167ZM248.422 288.833 248.422 291.5 247.755 291.5 247.755 288.833ZM248.422 293.5 248.422 296.167 247.755 296.167 247.755 293.5ZM248.422 298.167 248.422 300.833 247.755 300.833 247.755 298.167ZM248.422 302.833 248.422 305.5 247.755 305.5 247.755 302.833ZM248.422 307.5 248.422 310.167 247.755 310.167 247.755 307.5ZM248.422 312.167 248.422 314.833 247.755 314.833 247.755 312.167ZM248.422 316.833 248.422 319.432 247.687 319.432 247.687 318.765 248.089 318.765 247.755 319.098 247.755 316.833ZM245.687 319.432 243.02 319.432 243.02 318.765 245.687 318.765ZM241.02 319.432 238.354 319.432 238.354 318.765 241.02 318.765ZM236.354 319.432 233.687 319.432 233.687 318.765 236.354 318.765ZM231.687 319.432 229.02 319.432 229.02 318.765 231.687 318.765ZM227.02 319.432 224.354 319.432 224.354 318.765 227.02 318.765ZM222.833 319.245 222.833 321.911 222.167 321.911 222.167 319.245ZM222.833 323.911 222.833 326.578 222.167 326.578 222.167 323.911ZM222.833 328.578 222.833 331.245 222.167 331.245 222.167 328.578ZM222.833 333.245 222.833 335.911 222.167 335.911 222.167 333.245ZM222.833 337.911 222.833 340.578 222.167 340.578 222.167 337.911ZM222.833 342.578 222.833 345.245 222.167 345.245 222.167 342.578ZM222.833 347.245 222.833 349.911 222.167 349.911 222.167 347.245ZM222.833 351.911 222.833 354.578 222.167 354.578 222.167 351.911ZM222.833 356.578 222.833 359.245 222.167 359.245 222.167 356.578ZM222.833 361.245 222.833 363.911 222.167 363.911 222.167 361.245ZM222.833 365.911 222.833 368.578 222.167 368.578 222.167 365.911ZM222.833 370.578 222.833 373.245 222.167 373.245 222.167 370.578ZM222.833 375.245 222.833 377.911 222.167 377.911 222.167 375.245ZM222.833 379.911 222.833 382.578 222.167 382.578 222.167 379.911ZM222.833 384.578 222.833 387.245 222.167 387.245 222.167 384.578ZM222.833 389.245 222.833 391.911 222.167 391.911 222.167 389.245ZM222.833 393.911 222.833 396.322 222.5 395.988 222.757 395.988 222.757 396.655 222.167 396.655 222.167 393.911ZM224.757 395.988 227.423 395.988 227.423 396.655 224.757 396.655ZM229.423 395.988 232.09 395.988 232.09 396.655 229.423 396.655ZM234.09 395.988 236.757 395.988 236.757 396.655 234.09 396.655ZM238.757 395.988 241.423 395.988 241.423 396.655 238.757 396.655ZM243.423 395.988 245.84 395.988 245.84 396.655 243.423 396.655ZM238.008 391.367 246.502 396.322 238.008 401.276C237.849 401.369 237.645 401.315 237.552 401.156 237.459 400.997 237.513 400.793 237.672 400.7L245.672 396.034 245.672 396.609 237.672 391.943C237.513 391.85 237.459 391.646 237.552 391.487 237.645 391.328 237.849 391.274 238.008 391.367Z" fill="#4472C4"/><rect x="143.5" y="504.5" width="279" height="94" stroke="#2F528F" stroke-width="1.33333" stroke-miterlimit="8" fill="none"/><path d="M205.5 529.5C205.5 522.873 210.873 517.5 217.5 517.5L397.5 517.5C404.127 517.5 409.5 522.873 409.5 529.5L409.5 577.5C409.5 584.127 404.127 589.5 397.5 589.5L217.5 589.5C210.873 589.5 205.5 584.127 205.5 577.5Z" stroke="#FF0000" stroke-width="3" stroke-miterlimit="8" fill="#FFFFFF" fill-rule="evenodd"/><text font-family="Arial,Arial_MSFontService,sans-serif" font-weight="400" font-size="13" transform="translate(217.673 541)">•<tspan font-family="Yu Gothic,Yu Gothic_MSFontService,sans-serif" font-size="13" x="18" y="0">受信</tspan><tspan font-family="Yu Gothic,Yu Gothic_MSFontService,sans-serif" font-size="13" x="44.6667" y="0">した</tspan><tspan font-family="Yu Gothic,Yu Gothic_MSFontService,sans-serif" font-size="13" x="71.3333" y="0"> </tspan><tspan font-family="Yu Gothic,Yu Gothic_MSFontService,sans-serif" font-size="13" x="75.1667" y="0">Twin</tspan><tspan font-family="Yu Gothic,Yu Gothic_MSFontService,sans-serif" font-size="13" x="103.833" y="0"> </tspan><tspan font-family="Yu Gothic,Yu Gothic_MSFontService,sans-serif" font-size="13" x="107.667" y="0">に</tspan><tspan font-family="Yu Gothic,Yu Gothic_MSFontService,sans-serif" font-size="13" x="121" y="0">対応</tspan><tspan font-family="Yu Gothic,Yu Gothic_MSFontService,sans-serif" font-size="13" x="147.667" y="0">する</tspan><tspan font-family="Yu Gothic,Yu Gothic_MSFontService,sans-serif" font-size="13" x="18" y="16">オーケストレーションに</tspan><tspan font-family="Yu Gothic,Yu Gothic_MSFontService,sans-serif" font-size="13" x="18" y="32">外部</tspan><tspan font-family="Yu Gothic,Yu Gothic_MSFontService,sans-serif" font-size="13" x="44.6667" y="32">イベントを</tspan><tspan font-family="Yu Gothic,Yu Gothic_MSFontService,sans-serif" font-size="13" x="110.667" y="32">送付</tspan></text><path d="M246.5 511 251.25 511 251.25 485.5 260.75 485.5 260.75 511 265.5 511 256 520.5Z" stroke="#2F528F" stroke-width="1.33333" stroke-miterlimit="8" stroke-opacity="0.501961" fill="#4472C4" fill-rule="evenodd" fill-opacity="0.501961"/><g clip-path="url(#clip26)"><g clip-path="url(#clip27)"><g clip-path="url(#clip28)"><path d="M163.773 577.482 162.633 578.625C162.431 578.828 162.102 578.828 161.899 578.626L153.434 570.185C153.029 569.781 153.028 569.124 153.432 568.719L154.577 567.571 154.577 567.571 163.778 576.745C163.981 576.948 163.981 577.276 163.779 577.479Z" fill="#50E6FF"/><path d="M162.457 560.371 163.603 561.514C163.807 561.717 163.807 562.045 163.605 562.249L154.566 571.312 154.566 571.312 153.418 570.167C153.013 569.763 153.012 569.107 153.416 568.702L161.725 560.369C161.928 560.168 162.255 560.169 162.457 560.371Z" fill="#1490DF"/><path d="M186.424 567.579 187.568 568.726C187.972 569.131 187.971 569.787 187.566 570.191L179.101 578.632C178.898 578.835 178.569 578.834 178.367 578.631L177.228 577.49C177.026 577.287 177.026 576.958 177.23 576.756L186.428 567.583 186.428 567.583Z" fill="#50E6FF"/><path d="M187.576 570.162 186.429 571.306 186.429 571.306 177.391 562.242C177.188 562.039 177.189 561.71 177.392 561.508L178.539 560.364C178.742 560.162 179.07 560.162 179.273 560.365L187.582 568.698C187.986 569.103 187.985 569.76 187.58 570.164Z" fill="#1490DF"/><path d="M169.448 571.25 162.469 571.25C162.266 571.258 162.093 571.102 162.081 570.898 162.081 570.847 162.093 570.797 162.116 570.752L170.482 554.197C170.555 554.066 170.695 553.987 170.844 553.991L179.098 553.991C179.302 553.983 179.475 554.14 179.487 554.343 179.487 554.414 179.463 554.482 179.419 554.537L169.594 567.489 179.176 567.489C179.38 567.482 179.552 567.638 179.565 567.841 179.564 567.931 179.527 568.016 179.464 568.079L163.541 584.643C163.391 584.733 162.327 585.616 162.849 584.276L162.849 584.276Z" fill="url(#fill29)"/></g></g></g><path d="M287.5 647.167C287.5 634.648 297.648 624.5 310.167 624.5L532.833 624.5C545.352 624.5 555.5 634.648 555.5 647.167L555.5 737.833C555.5 750.352 545.352 760.5 532.833 760.5L310.167 760.5C297.648 760.5 287.5 750.352 287.5 737.833Z" stroke="#4472C4" stroke-width="1.33333" stroke-miterlimit="8" fill="#FFFFFF" fill-rule="evenodd"/><text font-family="Yu Gothic,Yu Gothic_MSFontService,sans-serif" font-weight="400" font-size="13" transform="translate(334.993 648)">&lt;&lt;<tspan font-size="13" x="19.3333" y="0">オーケストレーション</tspan>&gt;&gt;<tspan font-family="Arial,Arial_MSFontService,sans-serif" font-size="13" x="-31.6667" y="16">•</tspan><tspan font-size="13" x="-13.6667" y="16">外部</tspan><tspan font-size="13" x="13" y="16">イベント</tspan><tspan font-size="13" x="65.6667" y="16">を</tspan><tspan font-size="13" x="79" y="16">状態</tspan><tspan font-size="13" x="105.667" y="16">マシンの</tspan><tspan font-size="13" x="-13.6667" y="32">イベントに</tspan><tspan font-size="13" x="52.3333" y="32">変換</tspan><tspan font-family="Arial,Arial_MSFontService,sans-serif" font-size="13" x="-31.6667" y="48">•</tspan><tspan font-size="13" x="-13.6667" y="48">遷移先</tspan>の<tspan font-size="13" x="39.6667" y="48">状態</tspan><tspan font-size="13" x="66.3333" y="48">を</tspan><tspan font-size="13" x="79.6667" y="48">決定</tspan><tspan font-size="13" x="106.333" y="48">し</tspan><tspan font-size="13" x="119.667" y="48">、</tspan><tspan font-size="13" x="-13.6667" y="64">エントリアクションを</tspan>、<tspan font-size="13" x="133" y="64">Twin</tspan><tspan font-size="13" x="161.667" y="64"> </tspan><tspan font-size="13" x="165.5" y="64">Graph</tspan> <tspan font-size="13" x="-13.6667" y="80">を</tspan><tspan font-size="13" x="-0.333313" y="80">参照</tspan><tspan font-size="13" x="26.3333" y="80">しながら</tspan><tspan font-size="13" x="79.6667" y="80">実行</tspan><tspan font-family="Arial,Arial_MSFontService,sans-serif" font-size="13" x="-31.6667" y="96">•</tspan><tspan font-size="13" x="-13.6667" y="96">更新結果</tspan><tspan font-size="13" x="39.6667" y="96">を</tspan><tspan font-size="13" x="53" y="96">元</tspan><tspan font-size="13" x="66.3333" y="96">に</tspan><tspan font-size="13" x="79.6667" y="96"> </tspan><tspan font-size="13" x="83.5" y="96">Twin</tspan><tspan font-size="13" x="112.167" y="96"> </tspan><tspan font-size="13" x="116" y="96">Graph</tspan>を<tspan font-size="13" x="166.667" y="96">更新</tspan></text><path d="M279.5 656.167C279.5 643.648 289.648 633.5 302.167 633.5L524.833 633.5C537.352 633.5 547.5 643.648 547.5 656.167L547.5 746.833C547.5 759.352 537.352 769.5 524.833 769.5L302.167 769.5C289.648 769.5 279.5 759.352 279.5 746.833Z" stroke="#4472C4" stroke-width="1.33333" stroke-miterlimit="8" fill="#FFFFFF" fill-rule="evenodd"/><text font-family="Yu Gothic,Yu Gothic_MSFontService,sans-serif" font-weight="400" font-size="13" transform="translate(326.505 657)">&lt;&lt;<tspan font-size="13" x="19.3333" y="0">オーケストレーション</tspan>&gt;&gt;<tspan font-family="Arial,Arial_MSFontService,sans-serif" font-size="13" x="-31.6667" y="16">•</tspan><tspan font-size="13" x="-13.6667" y="16">外部</tspan><tspan font-size="13" x="13" y="16">イベント</tspan><tspan font-size="13" x="65.6667" y="16">を</tspan><tspan font-size="13" x="79" y="16">状態</tspan><tspan font-size="13" x="105.667" y="16">マシンの</tspan><tspan font-size="13" x="-13.6667" y="32">イベントに</tspan><tspan font-size="13" x="52.3333" y="32">変換</tspan><tspan font-family="Arial,Arial_MSFontService,sans-serif" font-size="13" x="-31.6667" y="48">•</tspan><tspan font-size="13" x="-13.6667" y="48">遷移先</tspan>の<tspan font-size="13" x="39.6667" y="48">状態</tspan><tspan font-size="13" x="66.3333" y="48">を</tspan><tspan font-size="13" x="79.6667" y="48">決定</tspan><tspan font-size="13" x="106.333" y="48">し</tspan><tspan font-size="13" x="119.667" y="48">、</tspan><tspan font-size="13" x="-13.6667" y="64">エントリアクションを</tspan>、<tspan font-size="13" x="133" y="64">Twin</tspan><tspan font-size="13" x="161.667" y="64"> </tspan><tspan font-size="13" x="165.5" y="64">Graph</tspan><tspan font-size="13" x="202.833" y="64"> </tspan><tspan font-size="13" x="-13.6667" y="80">を</tspan><tspan font-size="13" x="-0.333344" y="80">参照</tspan><tspan font-size="13" x="26.3333" y="80">しながら</tspan><tspan font-size="13" x="79.6667" y="80">実行</tspan><tspan font-family="Arial,Arial_MSFontService,sans-serif" font-size="13" x="-31.6667" y="96">•</tspan><tspan font-size="13" x="-13.6667" y="96">更新結果</tspan><tspan font-size="13" x="39.6667" y="96">を</tspan><tspan font-size="13" x="53" y="96">元</tspan><tspan font-size="13" x="66.3333" y="96">に</tspan><tspan font-size="13" x="79.6667" y="96"> </tspan><tspan font-size="13" x="83.5" y="96">Twin</tspan><tspan font-size="13" x="112.167" y="96"> </tspan><tspan font-size="13" x="116" y="96">Graph</tspan>を<tspan font-size="13" x="166.667" y="96">更新</tspan></text><path d="M270.5 665.167C270.5 652.648 280.648 642.5 293.167 642.5L515.833 642.5C528.352 642.5 538.5 652.648 538.5 665.167L538.5 755.833C538.5 768.352 528.352 778.5 515.833 778.5L293.167 778.5C280.648 778.5 270.5 768.352 270.5 755.833Z" stroke="#4472C4" stroke-width="1.33333" stroke-miterlimit="8" fill="#FFFFFF" fill-rule="evenodd"/><text font-family="Yu Gothic,Yu Gothic_MSFontService,sans-serif" font-weight="400" font-size="13" transform="translate(318.018 666)">&lt;&lt;<tspan font-size="13" x="19.3333" y="0">オーケストレーション</tspan>&gt;&gt;<tspan font-family="Arial,Arial_MSFontService,sans-serif" font-size="13" x="-31.6667" y="16">•</tspan><tspan font-size="13" x="-13.6667" y="16">外部</tspan><tspan font-size="13" x="13" y="16">イベント</tspan><tspan font-size="13" x="65.6667" y="16">を</tspan><tspan font-size="13" x="79" y="16">状態</tspan><tspan font-size="13" x="105.667" y="16">マシンの</tspan><tspan font-size="13" x="-13.6667" y="32">イベントに</tspan><tspan font-size="13" x="52.3333" y="32">変換</tspan><tspan font-family="Arial,Arial_MSFontService,sans-serif" font-size="13" x="-31.6667" y="48">•</tspan><tspan font-size="13" x="-13.6667" y="48">遷移先</tspan>の<tspan font-size="13" x="39.6667" y="48">状態</tspan><tspan font-size="13" x="66.3333" y="48">を</tspan><tspan font-size="13" x="79.6667" y="48">決定</tspan><tspan font-size="13" x="106.333" y="48">し</tspan><tspan font-size="13" x="119.667" y="48">、</tspan><tspan font-size="13" x="-13.6667" y="64">エントリアクションを</tspan>、<tspan font-size="13" x="133" y="64">Twin</tspan><tspan font-size="13" x="161.667" y="64"> </tspan><tspan font-size="13" x="165.5" y="64">Graph</tspan><tspan font-size="13" x="202.833" y="64"> </tspan><tspan font-size="13" x="-13.6667" y="80">を</tspan><tspan font-size="13" x="-0.333313" y="80">参照</tspan><tspan font-size="13" x="26.3333" y="80">しながら</tspan><tspan font-size="13" x="79.6667" y="80">実行</tspan><tspan font-family="Arial,Arial_MSFontService,sans-serif" font-size="13" x="-31.6667" y="96">•</tspan><tspan font-size="13" x="-13.6667" y="96">更新結果</tspan><tspan font-size="13" x="39.6667" y="96">を</tspan><tspan font-size="13" x="53" y="96">元</tspan><tspan font-size="13" x="66.3333" y="96">に</tspan><tspan font-size="13" x="79.6667" y="96"> </tspan><tspan font-size="13" x="83.5" y="96">Twin</tspan><tspan font-size="13" x="112.167" y="96"> </tspan><tspan font-size="13" x="116" y="96">Graph</tspan>を<tspan font-size="13" x="166.667" y="96">更新</tspan></text><path d="M262.5 673.167C262.5 660.648 272.648 650.5 285.167 650.5L507.833 650.5C520.352 650.5 530.5 660.648 530.5 673.167L530.5 763.833C530.5 776.352 520.352 786.5 507.833 786.5L285.167 786.5C272.648 786.5 262.5 776.352 262.5 763.833Z" stroke="#FF0000" stroke-width="3" stroke-miterlimit="8" fill="#FFFFFF" fill-rule="evenodd"/><text font-family="Yu Gothic,Yu Gothic_MSFontService,sans-serif" font-weight="400" font-size="13" transform="translate(309.531 674)">&lt;&lt;<tspan font-size="13" x="19.3333" y="0">オーケストレーション</tspan><tspan font-size="13" x="152.667" y="0">&gt;&gt;</tspan><tspan font-family="Arial,Arial_MSFontService,sans-serif" font-size="13" x="-31.6667" y="16">•</tspan><tspan font-size="13" x="-13.6667" y="16">外部</tspan><tspan font-size="13" x="13" y="16">イベント</tspan><tspan font-size="13" x="65.6667" y="16">を</tspan><tspan font-size="13" x="79" y="16">状態</tspan><tspan font-size="13" x="105.667" y="16">マシンの</tspan><tspan font-size="13" x="-13.6667" y="32">イベントに</tspan><tspan font-size="13" x="52.3333" y="32">変換</tspan><tspan font-family="Arial,Arial_MSFontService,sans-serif" font-size="13" x="-31.6667" y="48">•</tspan><tspan font-size="13" x="-13.6667" y="48">遷移先</tspan>の<tspan font-size="13" x="39.6667" y="48">状態</tspan><tspan font-size="13" x="66.3333" y="48">を</tspan><tspan font-size="13" x="79.6667" y="48">決定</tspan><tspan font-size="13" x="106.333" y="48">し</tspan><tspan font-size="13" x="119.667" y="48">、</tspan><tspan font-size="13" x="-13.6667" y="64">エントリアクションを</tspan><tspan font-size="13" x="119.667" y="64">、</tspan><tspan font-size="13" x="133" y="64">Twin</tspan><tspan font-size="13" x="161.667" y="64"> </tspan><tspan font-size="13" x="165.5" y="64">Graph</tspan> <tspan font-size="13" x="-13.6667" y="80">を</tspan><tspan font-size="13" x="-0.333344" y="80">参照</tspan><tspan font-size="13" x="26.3333" y="80">しながら</tspan><tspan font-size="13" x="79.6667" y="80">実行</tspan><tspan font-family="Arial,Arial_MSFontService,sans-serif" font-size="13" x="-31.6667" y="96">•</tspan><tspan font-size="13" x="-13.6667" y="96">更新結果</tspan><tspan font-size="13" x="39.6667" y="96">を</tspan><tspan font-size="13" x="53" y="96">元</tspan><tspan font-size="13" x="66.3333" y="96">に</tspan><tspan font-size="13" x="79.6667" y="96"> </tspan><tspan font-size="13" x="83.5" y="96">Twin</tspan><tspan font-size="13" x="112.167" y="96"> </tspan><tspan font-size="13" x="116" y="96">Graph</tspan>を<tspan font-size="13" x="166.667" y="96">更新</tspan><tspan font-size="13" x="5.88913" y="-378">Publish Telemetry</tspan></text><rect x="382.5" y="188.5" width="258" height="86" stroke="#2F528F" stroke-width="1.33333" stroke-miterlimit="8" fill="none"/><g clip-path="url(#clip30)"><g clip-path="url(#clip31)"><g clip-path="url(#clip32)"><path d="M610.773 263.482 609.633 264.625C609.431 264.828 609.102 264.828 608.899 264.626L600.434 256.185C600.029 255.781 600.028 255.124 600.432 254.719L601.577 253.571 601.577 253.571 610.778 262.745C610.981 262.948 610.981 263.276 610.779 263.479Z" fill="#50E6FF"/><path d="M609.457 246.371 610.603 247.514C610.807 247.717 610.807 248.045 610.604 248.249L601.566 257.312 601.566 257.312 600.418 256.167C600.013 255.763 600.012 255.107 600.416 254.702L608.725 246.369C608.928 246.168 609.255 246.169 609.457 246.371Z" fill="#1490DF"/><path d="M633.424 253.579 634.568 254.726C634.972 255.131 634.971 255.787 634.566 256.191L626.101 264.632C625.898 264.835 625.569 264.834 625.367 264.631L624.229 263.49C624.026 263.287 624.026 262.958 624.23 262.756L633.428 253.583 633.428 253.583Z" fill="#50E6FF"/><path d="M634.576 256.162 633.429 257.306 633.429 257.306 624.391 248.242C624.188 248.039 624.189 247.71 624.392 247.508L625.539 246.364C625.742 246.162 626.07 246.162 626.273 246.365L634.582 254.698C634.986 255.103 634.985 255.76 634.58 256.164Z" fill="#1490DF"/><path d="M616.448 257.25 609.469 257.25C609.266 257.258 609.093 257.102 609.081 256.898 609.081 256.847 609.093 256.797 609.116 256.752L617.482 240.197C617.555 240.066 617.695 239.987 617.844 239.991L626.098 239.991C626.302 239.983 626.475 240.14 626.487 240.343 626.487 240.414 626.463 240.482 626.419 240.538L616.594 253.489 626.176 253.489C626.38 253.482 626.552 253.638 626.565 253.841 626.564 253.931 626.527 254.016 626.464 254.079L610.541 270.643C610.391 270.733 609.328 271.616 609.849 270.276L609.849 270.276Z" fill="url(#fill33)"/></g></g></g><path d="M395.5 204.833C395.5 202.44 397.44 200.5 399.833 200.5L585.167 200.5C587.56 200.5 589.5 202.44 589.5 204.833L589.5 222.167C589.5 224.56 587.56 226.5 585.167 226.5L399.833 226.5C397.44 226.5 395.5 224.56 395.5 222.167Z" stroke="#FF0000" stroke-width="3" stroke-miterlimit="8" fill="#FFFFFF" fill-rule="evenodd"/><text font-family="Arial,Arial_MSFontService,sans-serif" font-weight="400" font-size="13" transform="translate(405.735 217)">•<tspan font-family="Yu Gothic,Yu Gothic_MSFontService,sans-serif" font-size="13" x="18" y="0">ドメインオペレーション</tspan></text><path d="M395.5 241C395.5 238.515 397.515 236.5 400 236.5L586 236.5C588.485 236.5 590.5 238.515 590.5 241L590.5 259C590.5 261.485 588.485 263.5 586 263.5L400 263.5C397.515 263.5 395.5 261.485 395.5 259Z" stroke="#FF0000" stroke-width="3" stroke-miterlimit="8" fill="#FFFFFF" fill-rule="evenodd"/><text font-family="Arial,Arial_MSFontService,sans-serif" font-weight="400" font-size="13" transform="translate(405.833 254)">•<tspan font-family="Yu Gothic,Yu Gothic_MSFontService,sans-serif" font-size="13" x="18" y="0">クラスオペレーション</tspan></text><path d="M481.5 185 486.25 185 486.25 163.5 495.75 163.5 495.75 185 500.5 185 491 194.5Z" stroke="#2F528F" stroke-width="1.33333" stroke-miterlimit="8" stroke-opacity="0.501961" fill="#ED7D31" fill-rule="evenodd" fill-opacity="0.501961"/><text font-family="Yu Gothic,Yu Gothic_MSFontService,sans-serif" font-weight="400" font-size="13" transform="translate(506.151 181)">HTTP Trigger</text><path d="M435.5 286 452 269.5 468.5 286 460.25 286 460.25 328 468.5 328 452 344.5 435.5 328 443.75 328 443.75 286Z" stroke="#2F528F" stroke-width="1.33333" stroke-miterlimit="8" stroke-opacity="0.501961" fill="#4472C4" fill-rule="evenodd" fill-opacity="0.501961"/><path d="M270.5 817.5C270.5 810.873 275.873 805.5 282.5 805.5L543.5 805.5C550.127 805.5 555.5 810.873 555.5 817.5L555.5 865.5C555.5 872.127 550.127 877.5 543.5 877.5L282.5 877.5C275.873 877.5 270.5 872.127 270.5 865.5Z" stroke="#FF0000" stroke-width="3" stroke-miterlimit="8" fill="#FFFFFF" fill-rule="evenodd"/><text font-family="Arial,Arial_MSFontService,sans-serif" font-weight="400" font-size="13" transform="translate(283.194 837)">•<tspan font-family="Yu Gothic,Yu Gothic_MSFontService,sans-serif" font-size="13" x="18" y="0">Twin</tspan><tspan font-family="Yu Gothic,Yu Gothic_MSFontService,sans-serif" font-size="13" x="46.6667" y="0"> </tspan><tspan font-family="Yu Gothic,Yu Gothic_MSFontService,sans-serif" font-size="13" x="50.5" y="0">Graph</tspan><tspan font-family="Yu Gothic,Yu Gothic_MSFontService,sans-serif" font-size="13" x="87.8333" y="0"> </tspan><tspan font-family="Yu Gothic,Yu Gothic_MSFontService,sans-serif" font-size="13" x="91.6667" y="0">を</tspan><tspan font-family="Yu Gothic,Yu Gothic_MSFontService,sans-serif" font-size="13" x="105" y="0">参照</tspan><tspan font-family="Yu Gothic,Yu Gothic_MSFontService,sans-serif" font-size="13" x="131.667" y="0">して</tspan><tspan font-family="Yu Gothic,Yu Gothic_MSFontService,sans-serif" font-size="13" x="156.667" y="0">必要</tspan><tspan font-family="Yu Gothic,Yu Gothic_MSFontService,sans-serif" font-size="13" x="183.333" y="0">な</tspan><tspan font-family="Yu Gothic,Yu Gothic_MSFontService,sans-serif" font-size="13" x="18" y="16">永続的</tspan><tspan font-family="Yu Gothic,Yu Gothic_MSFontService,sans-serif" font-size="13" x="58" y="16">オーケストレーションを</tspan><tspan font-family="Yu Gothic,Yu Gothic_MSFontService,sans-serif" font-size="13" x="204.667" y="16">生成</tspan><tspan font-family="Yu Gothic,Yu Gothic_MSFontService,sans-serif" font-size="13" x="-211.46" y="-15">HTTP Trigger</tspan></text><path d="M0 22.5 4.74999 22.5 4.74999 0 14.25 0 14.25 22.5 19 22.5 9.50002 32Z" stroke="#2F528F" stroke-width="1.33333" stroke-miterlimit="8" stroke-opacity="0.501961" fill="#ED7D31" fill-rule="evenodd" fill-opacity="0.501961" transform="matrix(1 0 0 -1 449.5 810.5)"/><g clip-path="url(#clip34)" filter="url(#fx2)" transform="translate(561 198)"><g clip-path="url(#clip35)"><path d="M9.28125-12.2578 9.28125-1.53906 11.7344-1.53906 11.7344 0.03125 4.74219 0.03125 4.74219-1.53906 7.3125-1.53906 7.3125-10.2109C6.58854-9.73698 5.77865-9.375 4.88281-9.125L4.54688-10.8203C5.61458-11.1068 6.63021-11.5859 7.59375-12.2578ZM13.9219 1.92188 2.07812 1.92188C1.45833 1.92187 0.958333 1.72917 0.578125 1.34375 0.192708 0.973958 0 0.473958 0-0.15625L0-12C0-12.6354 0.192708-13.138 0.578125-13.5078 0.958333-13.888 1.45833-14.0781 2.07812-14.0781L13.9219-14.0781C14.5417-14.0781 15.0417-13.888 15.4219-13.5078 15.8073-13.138 16-12.6354 16-12L16-0.15625C16 0.473958 15.8073 0.973958 15.4219 1.34375 15.0417 1.72917 14.5417 1.92187 13.9219 1.92188ZM13.7109 1.39062C14.2995 1.39062 14.7422 1.24219 15.0391 0.945312 15.3255 0.658854 15.4687 0.221354 15.4688-0.367188L15.4688-11.7891C15.4687-12.3776 15.3255-12.8151 15.0391-13.1016 14.7422-13.4036 14.2995-13.5547 13.7109-13.5547L2.28906-13.5547C1.70052-13.5547 1.25781-13.4036 0.960938-13.1016 0.674479-12.8151 0.53125-12.3776 0.53125-11.7891L0.53125-0.367188C0.53125 0.221354 0.674479 0.658854 0.960938 0.945312 1.25781 1.24219 1.70052 1.39062 2.28906 1.39062Z" transform="translate(12.8423 23)"/></g></g><path d="M9.28125-12.2578 9.28125-1.53906 11.7344-1.53906 11.7344 0.03125 4.74219 0.03125 4.74219-1.53906 7.3125-1.53906 7.3125-10.2109C6.58854-9.73698 5.77865-9.375 4.88281-9.125L4.54688-10.8203C5.61458-11.1068 6.63021-11.5859 7.59375-12.2578ZM13.9219 1.92188 2.07812 1.92188C1.45833 1.92187 0.958333 1.72917 0.578125 1.34375 0.192708 0.973958 0 0.473958 0-0.15625L0-12C0-12.6354 0.192708-13.138 0.578125-13.5078 0.958333-13.888 1.45833-14.0781 2.07812-14.0781L13.9219-14.0781C14.5417-14.0781 15.0417-13.888 15.4219-13.5078 15.8073-13.138 16-12.6354 16-12L16-0.15625C16 0.473958 15.8073 0.973958 15.4219 1.34375 15.0417 1.72917 14.5417 1.92187 13.9219 1.92188ZM13.7109 1.39062C14.2995 1.39062 14.7422 1.24219 15.0391 0.945312 15.3255 0.658854 15.4687 0.221354 15.4688-0.367188L15.4688-11.7891C15.4687-12.3776 15.3255-12.8151 15.0391-13.1016 14.7422-13.4036 14.2995-13.5547 13.7109-13.5547L2.28906-13.5547C1.70052-13.5547 1.25781-13.4036 0.960938-13.1016 0.674479-12.8151 0.53125-12.3776 0.53125-11.7891L0.53125-0.367188C0.53125 0.221354 0.674479 0.658854 0.960938 0.945312 1.25781 1.24219 1.70052 1.39062 2.28906 1.39062Z" transform="translate(572.859 220)"/><g clip-path="url(#clip36)" filter="url(#fx3)" transform="translate(557 234)"><g clip-path="url(#clip37)"><path d="M4.04688-9.00781C4.19792-10.1536 4.68229-11.026 5.5-11.625 6.1875-12.1302 7.03125-12.3828 8.03125-12.3828 9.30208-12.3828 10.2839-12.0599 10.9766-11.4141 11.5964-10.8359 11.9062-10.0625 11.9062-9.09375 11.9062-8.36458 11.6927-7.67969 11.2656-7.03906 10.8802-6.46615 10.224-5.77344 9.29688-4.96094 8.32292-4.14323 7.60417-3.47917 7.14062-2.96875 6.70833-2.49479 6.38281-2.03385 6.16406-1.58594L11.9531-1.58594 11.9531 0.03125 3.9375 0.03125 3.9375-1.40625C4.66667-2.84375 5.89844-4.34896 7.63281-5.92188 8.52865-6.73438 9.11458-7.36458 9.39062-7.8125 9.63021-8.20312 9.75-8.63542 9.75-9.10938 9.75-9.67188 9.57292-10.1016 9.21875-10.3984 8.91146-10.6589 8.50521-10.7891 8-10.7891 7.42188-10.7891 6.96875-10.5781 6.64062-10.1562 6.34375-9.78125 6.17448-9.26042 6.13281-8.59375ZM13.9219 1.92188 2.07812 1.92188C1.45833 1.92187 0.958333 1.72917 0.578125 1.34375 0.192708 0.973958 0 0.473958 0-0.15625L0-12C0-12.6354 0.192708-13.138 0.578125-13.5078 0.958333-13.888 1.45833-14.0781 2.07812-14.0781L13.9219-14.0781C14.5417-14.0781 15.0417-13.888 15.4219-13.5078 15.8073-13.138 16-12.6354 16-12L16-0.15625C16 0.473958 15.8073 0.973958 15.4219 1.34375 15.0417 1.72917 14.5417 1.92187 13.9219 1.92188ZM13.7109 1.39062C14.2995 1.39062 14.7422 1.24219 15.0391 0.945312 15.3255 0.658854 15.4687 0.221354 15.4688-0.367188L15.4688-11.7891C15.4687-12.3776 15.3255-12.8151 15.0391-13.1016 14.7422-13.4036 14.2995-13.5547 13.7109-13.5547L2.28906-13.5547C1.70052-13.5547 1.25781-13.4036 0.960938-13.1016 0.674479-12.8151 0.53125-12.3776 0.53125-11.7891L0.53125-0.367188C0.53125 0.221354 0.674479 0.658854 0.960938 0.945312 1.25781 1.24219 1.70052 1.39062 2.28906 1.39062Z" transform="translate(12.1705 23)"/></g></g><path d="M4.04688-9.00781C4.19792-10.1536 4.68229-11.026 5.5-11.625 6.1875-12.1302 7.03125-12.3828 8.03125-12.3828 9.30208-12.3828 10.2839-12.0599 10.9766-11.4141 11.5964-10.8359 11.9062-10.0625 11.9062-9.09375 11.9062-8.36458 11.6927-7.67969 11.2656-7.03906 10.8802-6.46615 10.224-5.77344 9.29688-4.96094 8.32292-4.14323 7.60417-3.47917 7.14062-2.96875 6.70833-2.49479 6.38281-2.03385 6.16406-1.58594L11.9531-1.58594 11.9531 0.03125 3.9375 0.03125 3.9375-1.40625C4.66667-2.84375 5.89844-4.34896 7.63281-5.92188 8.52865-6.73438 9.11458-7.36458 9.39062-7.8125 9.63021-8.20312 9.75-8.63542 9.75-9.10938 9.75-9.67188 9.57292-10.1016 9.21875-10.3984 8.91146-10.6589 8.50521-10.7891 8-10.7891 7.42188-10.7891 6.96875-10.5781 6.64062-10.1562 6.34375-9.78125 6.17448-9.26042 6.13281-8.59375ZM13.9219 1.92188 2.07812 1.92188C1.45833 1.92187 0.958333 1.72917 0.578125 1.34375 0.192708 0.973958 0 0.473958 0-0.15625L0-12C0-12.6354 0.192708-13.138 0.578125-13.5078 0.958333-13.888 1.45833-14.0781 2.07812-14.0781L13.9219-14.0781C14.5417-14.0781 15.0417-13.888 15.4219-13.5078 15.8073-13.138 16-12.6354 16-12L16-0.15625C16 0.473958 15.8073 0.973958 15.4219 1.34375 15.0417 1.72917 14.5417 1.92187 13.9219 1.92188ZM13.7109 1.39062C14.2995 1.39062 14.7422 1.24219 15.0391 0.945312 15.3255 0.658854 15.4687 0.221354 15.4688-0.367188L15.4688-11.7891C15.4687-12.3776 15.3255-12.8151 15.0391-13.1016 14.7422-13.4036 14.2995-13.5547 13.7109-13.5547L2.28906-13.5547C1.70052-13.5547 1.25781-13.4036 0.960938-13.1016 0.674479-12.8151 0.53125-12.3776 0.53125-11.7891L0.53125-0.367188C0.53125 0.221354 0.674479 0.658854 0.960938 0.945312 1.25781 1.24219 1.70052 1.39062 2.28906 1.39062Z" transform="translate(568.187 256)"/><g clip-path="url(#clip38)" filter="url(#fx4)" transform="translate(495 653)"><g clip-path="url(#clip39)"><path d="M3.92188-9.75C4.18229-10.6562 4.69531-11.3385 5.46094-11.7969 6.11719-12.1875 6.90885-12.3828 7.83594-12.3828 9.08073-12.3828 10.0677-12.0547 10.7969-11.3984 11.4167-10.8411 11.7266-10.1458 11.7266-9.3125 11.7266-8.54167 11.4766-7.90365 10.9766-7.39844 10.5443-6.96094 9.96875-6.68229 9.25-6.5625L9.25-6.45312C10.1823-6.26042 10.8854-5.86979 11.3594-5.28125 11.776-4.76562 11.9844-4.13021 11.9844-3.375 11.9844-2.21875 11.5547-1.30208 10.6953-0.625 9.94531-0.0364584 8.99219 0.257812 7.83594 0.257812 5.63802 0.257812 4.26302-0.643229 3.71094-2.44531L5.75781-3.02344C5.91927-2.38281 6.18229-1.92708 6.54688-1.65625 6.86458-1.42708 7.28906-1.3125 7.82031-1.3125 8.47656-1.3125 8.99219-1.52083 9.36719-1.9375 9.69531-2.30208 9.85938-2.77604 9.85938-3.35938 9.85938-4.82292 9.00521-5.55469 7.29688-5.55469L6.32031-5.55469 6.32031-7.20312 7.21875-7.20312C8.82812-7.20312 9.63281-7.84375 9.63281-9.125 9.63281-9.69792 9.44271-10.1354 9.0625-10.4375 8.73958-10.6927 8.32031-10.8203 7.80469-10.8203 7.29427-10.8203 6.8776-10.6667 6.55469-10.3594 6.2474-10.0677 6.05208-9.66667 5.96875-9.15625ZM13.9219 1.92188 2.07812 1.92188C1.45833 1.92187 0.958333 1.72917 0.578125 1.34375 0.192708 0.973958 0 0.473958 0-0.15625L0-12C0-12.6354 0.192708-13.138 0.578125-13.5078 0.958333-13.888 1.45833-14.0781 2.07812-14.0781L13.9219-14.0781C14.5417-14.0781 15.0417-13.888 15.4219-13.5078 15.8073-13.138 16-12.6354 16-12L16-0.15625C16 0.473958 15.8073 0.973958 15.4219 1.34375 15.0417 1.72917 14.5417 1.92187 13.9219 1.92188ZM13.7109 1.39062C14.2995 1.39062 14.7422 1.24219 15.0391 0.945312 15.3255 0.658854 15.4687 0.221354 15.4688-0.367188L15.4688-11.7891C15.4687-12.3776 15.3255-12.8151 15.0391-13.1016 14.7422-13.4036 14.2995-13.5547 13.7109-13.5547L2.28906-13.5547C1.70052-13.5547 1.25781-13.4036 0.960938-13.1016 0.674479-12.8151 0.53125-12.3776 0.53125-11.7891L0.53125-0.367188C0.53125 0.221354 0.674479 0.658854 0.960938 0.945312 1.25781 1.24219 1.70052 1.39062 2.28906 1.39062Z" transform="translate(12.1343 22)"/></g></g><path d="M3.92188-9.75C4.18229-10.6562 4.69531-11.3385 5.46094-11.7969 6.11719-12.1875 6.90885-12.3828 7.83594-12.3828 9.08073-12.3828 10.0677-12.0547 10.7969-11.3984 11.4167-10.8411 11.7266-10.1458 11.7266-9.3125 11.7266-8.54167 11.4766-7.90365 10.9766-7.39844 10.5443-6.96094 9.96875-6.68229 9.25-6.5625L9.25-6.45312C10.1823-6.26042 10.8854-5.86979 11.3594-5.28125 11.776-4.76562 11.9844-4.13021 11.9844-3.375 11.9844-2.21875 11.5547-1.30208 10.6953-0.625 9.94531-0.0364584 8.99219 0.257812 7.83594 0.257812 5.63802 0.257812 4.26302-0.643229 3.71094-2.44531L5.75781-3.02344C5.91927-2.38281 6.18229-1.92708 6.54688-1.65625 6.86458-1.42708 7.28906-1.3125 7.82031-1.3125 8.47656-1.3125 8.99219-1.52083 9.36719-1.9375 9.69531-2.30208 9.85938-2.77604 9.85938-3.35938 9.85938-4.82292 9.00521-5.55469 7.29688-5.55469L6.32031-5.55469 6.32031-7.20312 7.21875-7.20312C8.82812-7.20312 9.63281-7.84375 9.63281-9.125 9.63281-9.69792 9.44271-10.1354 9.0625-10.4375 8.73958-10.6927 8.32031-10.8203 7.80469-10.8203 7.29427-10.8203 6.8776-10.6667 6.55469-10.3594 6.2474-10.0677 6.05208-9.66667 5.96875-9.15625ZM13.9219 1.92188 2.07812 1.92188C1.45833 1.92187 0.958333 1.72917 0.578125 1.34375 0.192708 0.973958 0 0.473958 0-0.15625L0-12C0-12.6354 0.192708-13.138 0.578125-13.5078 0.958333-13.888 1.45833-14.0781 2.07812-14.0781L13.9219-14.0781C14.5417-14.0781 15.0417-13.888 15.4219-13.5078 15.8073-13.138 16-12.6354 16-12L16-0.15625C16 0.473958 15.8073 0.973958 15.4219 1.34375 15.0417 1.72917 14.5417 1.92187 13.9219 1.92188ZM13.7109 1.39062C14.2995 1.39062 14.7422 1.24219 15.0391 0.945312 15.3255 0.658854 15.4687 0.221354 15.4688-0.367188L15.4688-11.7891C15.4687-12.3776 15.3255-12.8151 15.0391-13.1016 14.7422-13.4036 14.2995-13.5547 13.7109-13.5547L2.28906-13.5547C1.70052-13.5547 1.25781-13.4036 0.960938-13.1016 0.674479-12.8151 0.53125-12.3776 0.53125-11.7891L0.53125-0.367188C0.53125 0.221354 0.674479 0.658854 0.960938 0.945312 1.25781 1.24219 1.70052 1.39062 2.28906 1.39062Z" transform="translate(506.151 674)"/><g clip-path="url(#clip40)" filter="url(#fx5)" transform="translate(512 808)"><g clip-path="url(#clip41)"><path d="M10.1953-12.2578 10.1953-4.25781 11.8047-4.25781 11.8047-2.73438 10.1953-2.73438 10.1953 0.03125 8.28906 0.03125 8.28906-2.73438 3.3125-2.73438 3.3125-4.16406 7.50781-12.2578ZM8.28906-4.25781 8.28906-6.92969C8.28906-7.78385 8.32031-9.03125 8.38281-10.6719L8.14062-10.6719C8.08333-10.5417 7.82552-9.97656 7.36719-8.97656 7.09115-8.3724 6.85417-7.8724 6.65625-7.47656L5.05469-4.25781ZM13.9219 1.92188 2.07812 1.92188C1.45833 1.92187 0.958333 1.72917 0.578125 1.34375 0.192708 0.973958 0 0.473958 0-0.15625L0-12C0-12.6354 0.192708-13.138 0.578125-13.5078 0.958333-13.888 1.45833-14.0781 2.07812-14.0781L13.9219-14.0781C14.5417-14.0781 15.0417-13.888 15.4219-13.5078 15.8073-13.138 16-12.6354 16-12L16-0.15625C16 0.473958 15.8073 0.973958 15.4219 1.34375 15.0417 1.72917 14.5417 1.92187 13.9219 1.92188ZM13.7109 1.39062C14.2995 1.39062 14.7422 1.24219 15.0391 0.945312 15.3255 0.658854 15.4687 0.221354 15.4688-0.367188L15.4688-11.7891C15.4687-12.3776 15.3255-12.8151 15.0391-13.1016 14.7422-13.4036 14.2995-13.5547 13.7109-13.5547L2.28906-13.5547C1.70052-13.5547 1.25781-13.4036 0.960938-13.1016 0.674479-12.8151 0.53125-12.3776 0.53125-11.7891L0.53125-0.367188C0.53125 0.221354 0.674479 0.658854 0.960938 0.945312 1.25781 1.24219 1.70052 1.39062 2.28906 1.39062Z" transform="translate(12.1898 23)"/></g></g><path d="M10.1953-12.2578 10.1953-4.25781 11.8047-4.25781 11.8047-2.73438 10.1953-2.73438 10.1953 0.03125 8.28906 0.03125 8.28906-2.73438 3.3125-2.73438 3.3125-4.16406 7.50781-12.2578ZM8.28906-4.25781 8.28906-6.92969C8.28906-7.78385 8.32031-9.03125 8.38281-10.6719L8.14062-10.6719C8.08333-10.5417 7.82552-9.97656 7.36719-8.97656 7.09115-8.3724 6.85417-7.8724 6.65625-7.47656L5.05469-4.25781ZM13.9219 1.92188 2.07812 1.92188C1.45833 1.92187 0.958333 1.72917 0.578125 1.34375 0.192708 0.973958 0 0.473958 0-0.15625L0-12C0-12.6354 0.192708-13.138 0.578125-13.5078 0.958333-13.888 1.45833-14.0781 2.07812-14.0781L13.9219-14.0781C14.5417-14.0781 15.0417-13.888 15.4219-13.5078 15.8073-13.138 16-12.6354 16-12L16-0.15625C16 0.473958 15.8073 0.973958 15.4219 1.34375 15.0417 1.72917 14.5417 1.92187 13.9219 1.92188ZM13.7109 1.39062C14.2995 1.39062 14.7422 1.24219 15.0391 0.945312 15.3255 0.658854 15.4687 0.221354 15.4688-0.367188L15.4688-11.7891C15.4687-12.3776 15.3255-12.8151 15.0391-13.1016 14.7422-13.4036 14.2995-13.5547 13.7109-13.5547L2.28906-13.5547C1.70052-13.5547 1.25781-13.4036 0.960938-13.1016 0.674479-12.8151 0.53125-12.3776 0.53125-11.7891L0.53125-0.367188C0.53125 0.221354 0.674479 0.658854 0.960938 0.945312 1.25781 1.24219 1.70052 1.39062 2.28906 1.39062Z" transform="translate(523.206 830)"/><g clip-path="url(#clip42)" filter="url(#fx6)" transform="translate(373 553)"><g clip-path="url(#clip43)"><path d="M11.4531-12.1797 11.4531-10.5625 6.3125-10.5625 6.1875-8.13281C6.16667-7.6901 6.13281-7.30469 6.08594-6.97656 6.5651-7.67969 7.31771-8.03125 8.34375-8.03125 9.50521-8.03125 10.4245-7.61719 11.1016-6.78906 11.7005-6.0651 12-5.14062 12-4.01562 12-2.64583 11.5651-1.5625 10.6953-0.765625 9.94531-0.0833334 9.0026 0.257812 7.86719 0.257812 6.7526 0.257812 5.85156 0.00781249 5.16406-0.492188 4.54427-0.940104 4.13281-1.57552 3.92969-2.39844L5.94531-2.99219C6.1901-1.8724 6.82552-1.3125 7.85156-1.3125 8.5026-1.3125 9.01562-1.58073 9.39062-2.11719 9.72396-2.59635 9.89062-3.21875 9.89062-3.98438 9.89062-4.80729 9.6875-5.44271 9.28125-5.89062 8.93229-6.27083 8.48177-6.46094 7.92969-6.46094 7.00781-6.46094 6.38802-6.0026 6.07031-5.08594L4.34375-5.32812 4.60156-12.1797ZM13.9219 1.92188 2.07812 1.92188C1.45833 1.92187 0.958333 1.72917 0.578125 1.34375 0.192708 0.973958 0 0.473958 0-0.15625L0-12C0-12.6354 0.192708-13.138 0.578125-13.5078 0.958333-13.888 1.45833-14.0781 2.07812-14.0781L13.9219-14.0781C14.5417-14.0781 15.0417-13.888 15.4219-13.5078 15.8073-13.138 16-12.6354 16-12L16-0.15625C16 0.473958 15.8073 0.973958 15.4219 1.34375 15.0417 1.72917 14.5417 1.92187 13.9219 1.92188ZM13.7109 1.39062C14.2995 1.39062 14.7422 1.24219 15.0391 0.945312 15.3255 0.658854 15.4687 0.221354 15.4688-0.367188L15.4688-11.7891C15.4687-12.3776 15.3255-12.8151 15.0391-13.1016 14.7422-13.4036 14.2995-13.5547 13.7109-13.5547L2.28906-13.5547C1.70052-13.5547 1.25781-13.4036 0.960938-13.1016 0.674479-12.8151 0.53125-12.3776 0.53125-11.7891L0.53125-0.367188C0.53125 0.221354 0.674479 0.658854 0.960938 0.945312 1.25781 1.24219 1.70052 1.39062 2.28906 1.39062Z" transform="translate(12.8311 22)"/></g></g><path d="M11.4531-12.1797 11.4531-10.5625 6.3125-10.5625 6.1875-8.13281C6.16667-7.6901 6.13281-7.30469 6.08594-6.97656 6.5651-7.67969 7.31771-8.03125 8.34375-8.03125 9.50521-8.03125 10.4245-7.61719 11.1016-6.78906 11.7005-6.0651 12-5.14062 12-4.01562 12-2.64583 11.5651-1.5625 10.6953-0.765625 9.94531-0.0833334 9.0026 0.257812 7.86719 0.257812 6.7526 0.257812 5.85156 0.00781249 5.16406-0.492188 4.54427-0.940104 4.13281-1.57552 3.92969-2.39844L5.94531-2.99219C6.1901-1.8724 6.82552-1.3125 7.85156-1.3125 8.5026-1.3125 9.01562-1.58073 9.39062-2.11719 9.72396-2.59635 9.89062-3.21875 9.89062-3.98438 9.89062-4.80729 9.6875-5.44271 9.28125-5.89062 8.93229-6.27083 8.48177-6.46094 7.92969-6.46094 7.00781-6.46094 6.38802-6.0026 6.07031-5.08594L4.34375-5.32812 4.60156-12.1797ZM13.9219 1.92188 2.07812 1.92188C1.45833 1.92187 0.958333 1.72917 0.578125 1.34375 0.192708 0.973958 0 0.473958 0-0.15625L0-12C0-12.6354 0.192708-13.138 0.578125-13.5078 0.958333-13.888 1.45833-14.0781 2.07812-14.0781L13.9219-14.0781C14.5417-14.0781 15.0417-13.888 15.4219-13.5078 15.8073-13.138 16-12.6354 16-12L16-0.15625C16 0.473958 15.8073 0.973958 15.4219 1.34375 15.0417 1.72917 14.5417 1.92187 13.9219 1.92188ZM13.7109 1.39062C14.2995 1.39062 14.7422 1.24219 15.0391 0.945312 15.3255 0.658854 15.4687 0.221354 15.4688-0.367188L15.4688-11.7891C15.4687-12.3776 15.3255-12.8151 15.0391-13.1016 14.7422-13.4036 14.2995-13.5547 13.7109-13.5547L2.28906-13.5547C1.70052-13.5547 1.25781-13.4036 0.960938-13.1016 0.674479-12.8151 0.53125-12.3776 0.53125-11.7891L0.53125-0.367188C0.53125 0.221354 0.674479 0.658854 0.960938 0.945312 1.25781 1.24219 1.70052 1.39062 2.28906 1.39062Z" transform="translate(384.848 575)"/><g clip-path="url(#clip44)" filter="url(#fx7)" transform="translate(291 218)"><g clip-path="url(#clip45)"><path d="M11.875-10.3906 9.85156-9.66406C9.65365-10.4557 9.1849-10.8516 8.44531-10.8516 6.92448-10.8516 6.13021-9.41667 6.0625-6.54688 6.63542-7.51562 7.53125-8 8.75-8 9.83333-8 10.6849-7.60156 11.3047-6.80469 11.8516-6.09635 12.125-5.17188 12.125-4.03125 12.125-2.63021 11.7109-1.53646 10.8828-0.75 10.1745-0.078125 9.27083 0.257812 8.17188 0.257812 6.78646 0.257812 5.73958-0.268229 5.03125-1.32031 4.36458-2.3099 4.03125-3.73698 4.03125-5.60156 4.03125-10.1224 5.52344-12.3828 8.50781-12.3828 10.1589-12.3828 11.2812-11.7188 11.875-10.3906ZM6.07812-4.89844C6.07812-2.4974 6.77083-1.29688 8.15625-1.29688 8.80729-1.29688 9.29427-1.55208 9.61719-2.0625 9.90365-2.52083 10.0469-3.15625 10.0469-3.96875 10.0469-5.61979 9.45052-6.44531 8.25781-6.44531 7.34635-6.44531 6.61979-5.92969 6.07812-4.89844ZM13.9219 1.92188 2.07812 1.92188C1.45833 1.92187 0.958333 1.72917 0.578125 1.34375 0.192708 0.973958 0 0.473958 0-0.15625L0-12C0-12.6354 0.192708-13.138 0.578125-13.5078 0.958333-13.888 1.45833-14.0781 2.07812-14.0781L13.9219-14.0781C14.5417-14.0781 15.0417-13.888 15.4219-13.5078 15.8073-13.138 16-12.6354 16-12L16-0.15625C16 0.473958 15.8073 0.973958 15.4219 1.34375 15.0417 1.72917 14.5417 1.92187 13.9219 1.92188ZM13.7109 1.39062C14.2995 1.39062 14.7422 1.24219 15.0391 0.945312 15.3255 0.658854 15.4687 0.221354 15.4688-0.367188L15.4688-11.7891C15.4687-12.3776 15.3255-12.8151 15.0391-13.1016 14.7422-13.4036 14.2995-13.5547 13.7109-13.5547L2.28906-13.5547C1.70052-13.5547 1.25781-13.4036 0.960938-13.1016 0.674479-12.8151 0.53125-12.3776 0.53125-11.7891L0.53125-0.367188C0.53125 0.221354 0.674479 0.658854 0.960938 0.945312 1.25781 1.24219 1.70052 1.39062 2.28906 1.39062Z" transform="translate(12.3264 22)"/></g></g><path d="M11.875-10.3906 9.85156-9.66406C9.65365-10.4557 9.1849-10.8516 8.44531-10.8516 6.92448-10.8516 6.13021-9.41667 6.0625-6.54688 6.63542-7.51562 7.53125-8 8.75-8 9.83333-8 10.6849-7.60156 11.3047-6.80469 11.8516-6.09635 12.125-5.17188 12.125-4.03125 12.125-2.63021 11.7109-1.53646 10.8828-0.75 10.1745-0.078125 9.27083 0.257812 8.17188 0.257812 6.78646 0.257812 5.73958-0.268229 5.03125-1.32031 4.36458-2.3099 4.03125-3.73698 4.03125-5.60156 4.03125-10.1224 5.52344-12.3828 8.50781-12.3828 10.1589-12.3828 11.2812-11.7188 11.875-10.3906ZM6.07812-4.89844C6.07812-2.4974 6.77083-1.29688 8.15625-1.29688 8.80729-1.29688 9.29427-1.55208 9.61719-2.0625 9.90365-2.52083 10.0469-3.15625 10.0469-3.96875 10.0469-5.61979 9.45052-6.44531 8.25781-6.44531 7.34635-6.44531 6.61979-5.92969 6.07812-4.89844ZM13.9219 1.92188 2.07812 1.92188C1.45833 1.92187 0.958333 1.72917 0.578125 1.34375 0.192708 0.973958 0 0.473958 0-0.15625L0-12C0-12.6354 0.192708-13.138 0.578125-13.5078 0.958333-13.888 1.45833-14.0781 2.07812-14.0781L13.9219-14.0781C14.5417-14.0781 15.0417-13.888 15.4219-13.5078 15.8073-13.138 16-12.6354 16-12L16-0.15625C16 0.473958 15.8073 0.973958 15.4219 1.34375 15.0417 1.72917 14.5417 1.92187 13.9219 1.92188ZM13.7109 1.39062C14.2995 1.39062 14.7422 1.24219 15.0391 0.945312 15.3255 0.658854 15.4687 0.221354 15.4688-0.367188L15.4688-11.7891C15.4687-12.3776 15.3255-12.8151 15.0391-13.1016 14.7422-13.4036 14.2995-13.5547 13.7109-13.5547L2.28906-13.5547C1.70052-13.5547 1.25781-13.4036 0.960938-13.1016 0.674479-12.8151 0.53125-12.3776 0.53125-11.7891L0.53125-0.367188C0.53125 0.221354 0.674479 0.658854 0.960938 0.945312 1.25781 1.24219 1.70052 1.39062 2.28906 1.39062Z" transform="translate(302.343 240)"/><rect x="219.5" y="609.5" width="407" height="286" stroke="#2F528F" stroke-width="1.33333" stroke-miterlimit="8" fill="none"/><path d="M435.5 422 452 405.5 468.5 422 460.25 422 460.25 659 468.5 659 452 675.5 435.5 659 443.75 659 443.75 422Z" stroke="#2F528F" stroke-width="1.33333" stroke-miterlimit="8" stroke-opacity="0.501961" fill="#4472C4" fill-rule="evenodd" fill-opacity="0.501961"/><path d="M0 92 0 28.6874C-5.85642e-15 16.3646 9.98967 6.3749 22.3125 6.3749L38.25 6.375 38.25 0 51 12.75 38.25 25.5 38.25 19.125 22.3125 19.125C17.0313 19.125 12.75 23.4063 12.75 28.6875L12.75 92Z" stroke="#2F528F" stroke-width="1.33333" stroke-miterlimit="8" stroke-opacity="0.501961" fill="#4472C4" fill-rule="evenodd" fill-opacity="0.501961" transform="matrix(1 0 0 -1 226.5 675.5)"/><path d="M252 851.5 252 846.75 143.5 846.75 143.5 837.25 252 837.25 252 832.5 261.5 842Z" stroke="#2F528F" stroke-width="1.33333" stroke-miterlimit="8" stroke-opacity="0.501961" fill="#ED7D31" fill-rule="evenodd" fill-opacity="0.501961"/><g clip-path="url(#clip46)"><g clip-path="url(#clip47)"><g clip-path="url(#clip48)"><path d="M593.773 876.482 592.633 877.625C592.431 877.828 592.102 877.828 591.899 877.626L583.434 869.185C583.029 868.781 583.028 868.124 583.432 867.719L584.577 866.571 584.577 866.571 593.778 875.745C593.981 875.948 593.981 876.276 593.779 876.479Z" fill="#50E6FF"/><path d="M592.457 859.371 593.603 860.514C593.807 860.717 593.807 861.045 593.604 861.249L584.566 870.312 584.566 870.312 583.418 869.167C583.013 868.763 583.012 868.107 583.416 867.702L591.725 859.369C591.928 859.168 592.255 859.169 592.457 859.371Z" fill="#1490DF"/><path d="M616.424 866.579 617.568 867.726C617.972 868.131 617.971 868.787 617.566 869.191L609.101 877.632C608.898 877.835 608.569 877.834 608.367 877.631L607.229 876.49C607.026 876.287 607.026 875.958 607.23 875.756L616.428 866.583 616.428 866.583Z" fill="#50E6FF"/><path d="M617.576 869.162 616.429 870.306 616.429 870.306 607.391 861.242C607.188 861.039 607.189 860.71 607.392 860.508L608.539 859.364C608.742 859.162 609.07 859.162 609.273 859.365L617.582 867.698C617.986 868.103 617.985 868.76 617.58 869.164Z" fill="#1490DF"/><path d="M599.448 870.25 592.469 870.25C592.266 870.258 592.093 870.102 592.081 869.898 592.081 869.847 592.093 869.797 592.116 869.752L600.482 853.197C600.555 853.066 600.695 852.987 600.844 852.991L609.098 852.991C609.302 852.983 609.475 853.14 609.487 853.343 609.487 853.414 609.463 853.482 609.419 853.537L599.594 866.489 609.176 866.489C609.38 866.482 609.552 866.638 609.565 866.841 609.564 866.931 609.527 867.016 609.464 867.079L593.541 883.643C593.391 883.733 592.328 884.616 592.849 883.276L592.849 883.276Z" fill="url(#fill49)"/></g></g></g></g></svg>