<svg width="607" height="610" xmlns="http://www.w3.org/2000/svg" xmlns:xlink="http://www.w3.org/1999/xlink" overflow="hidden"><defs><filter id="fx0" x="-10%" y="-10%" width="120%" height="120%" filterUnits="userSpaceOnUse" primitiveUnits="userSpaceOnUse"><feComponentTransfer color-interpolation-filters="sRGB"><feFuncR type="discrete" tableValues="0 0"/><feFuncG type="discrete" tableValues="0 0"/><feFuncB type="discrete" tableValues="0 0"/><feFuncA type="linear" slope="0.431373" intercept="0"/></feComponentTransfer><feGaussianBlur stdDeviation="0.376246 0.376246"/></filter><filter id="fx1" x="-10%" y="-10%" width="120%" height="120%" filterUnits="userSpaceOnUse" primitiveUnits="userSpaceOnUse"><feComponentTransfer color-interpolation-filters="sRGB"><feFuncR type="discrete" tableValues="0 0"/><feFuncG type="discrete" tableValues="0 0"/><feFuncB type="discrete" tableValues="0 0"/><feFuncA type="linear" slope="0.431373" intercept="0"/></feComponentTransfer><feGaussianBlur stdDeviation="0.376246 0.376246"/></filter><filter id="fx2" x="-10%" y="-10%" width="120%" height="120%" filterUnits="userSpaceOnUse" primitiveUnits="userSpaceOnUse"><feComponentTransfer color-interpolation-filters="sRGB"><feFuncR type="discrete" tableValues="0 0"/><feFuncG type="discrete" tableValues="0 0"/><feFuncB type="discrete" tableValues="0 0"/><feFuncA type="linear" slope="0.431373" intercept="0"/></feComponentTransfer><feGaussianBlur stdDeviation="0.376246 0.376246"/></filter><filter id="fx3" x="-10%" y="-10%" width="120%" height="120%" filterUnits="userSpaceOnUse" primitiveUnits="userSpaceOnUse"><feComponentTransfer color-interpolation-filters="sRGB"><feFuncR type="discrete" tableValues="0 0"/><feFuncG type="discrete" tableValues="0 0"/><feFuncB type="discrete" tableValues="0 0"/><feFuncA type="linear" slope="0.431373" intercept="0"/></feComponentTransfer><feGaussianBlur stdDeviation="0.376246 0.376246"/></filter><clipPath id="clip4"><rect x="60" y="69" width="607" height="610"/></clipPath><clipPath id="clip5"><rect x="599" y="139" width="35" height="35"/></clipPath><clipPath id="clip6"><rect x="599" y="139" width="35" height="35"/></clipPath><clipPath id="clip7"><rect x="599" y="139" width="35" height="35"/></clipPath><linearGradient x1="617.008" y1="138.292" x2="611.091" y2="177.99" gradientUnits="userSpaceOnUse" spreadMethod="pad" id="fill8"><stop offset="0" stop-color="#32BEDD"/><stop offset="1" stop-color="#198AB3"/></linearGradient><linearGradient x1="619.996" y1="153.366" x2="627.08" y2="176.073" gradientUnits="userSpaceOnUse" spreadMethod="pad" id="fill9"><stop offset="0" stop-color="#50E6FF"/><stop offset="0.997" stop-color="#32BEDD"/><stop offset="1" stop-color="#32BEDD"/></linearGradient><linearGradient x1="598.673" y1="146.999" x2="623.446" y2="160.185" gradientUnits="userSpaceOnUse" spreadMethod="pad" id="fill10"><stop offset="0" stop-color="#FFFFFF"/><stop offset="1" stop-color="#9CEBFF"/></linearGradient><clipPath id="clip11"><rect x="9" y="7" width="13" height="10"/></clipPath><clipPath id="clip12"><rect x="0" y="0" width="30" height="29"/></clipPath><clipPath id="clip13"><rect x="9" y="7" width="12" height="10"/></clipPath><clipPath id="clip14"><rect x="0" y="0" width="30" height="29"/></clipPath><clipPath id="clip15"><rect x="9" y="7" width="13" height="10"/></clipPath><clipPath id="clip16"><rect x="0" y="0" width="30" height="29"/></clipPath><clipPath id="clip17"><rect x="9" y="8" width="13" height="10"/></clipPath><clipPath id="clip18"><rect x="0" y="0" width="30" height="29"/></clipPath><clipPath id="clip19"><rect x="212" y="149" width="13" height="13"/></clipPath><clipPath id="clip20"><rect x="212" y="149" width="13" height="13"/></clipPath><clipPath id="clip21"><rect x="212" y="149" width="13" height="13"/></clipPath><linearGradient x1="218.59" y1="161.175" x2="218.59" y2="149.649" gradientUnits="userSpaceOnUse" spreadMethod="pad" id="fill22"><stop offset="0" stop-color="#FEA11B"/><stop offset="0.284" stop-color="#FEA51A"/><stop offset="0.547" stop-color="#FEB018"/><stop offset="0.8" stop-color="#FFC314"/><stop offset="1" stop-color="#FFD70F"/></linearGradient><clipPath id="clip23"><rect x="193" y="266" width="13" height="13"/></clipPath><clipPath id="clip24"><rect x="193" y="266" width="13" height="13"/></clipPath><clipPath id="clip25"><rect x="193" y="266" width="13" height="13"/></clipPath><linearGradient x1="199.59" y1="278.175" x2="199.59" y2="266.649" gradientUnits="userSpaceOnUse" spreadMethod="pad" id="fill26"><stop offset="0" stop-color="#FEA11B"/><stop offset="0.284" stop-color="#FEA51A"/><stop offset="0.547" stop-color="#FEB018"/><stop offset="0.8" stop-color="#FFC314"/><stop offset="1" stop-color="#FFD70F"/></linearGradient><clipPath id="clip27"><rect x="334" y="218" width="14" height="13"/></clipPath><clipPath id="clip28"><rect x="334" y="218" width="14" height="13"/></clipPath><clipPath id="clip29"><rect x="334" y="218" width="14" height="13"/></clipPath><linearGradient x1="6.59034" y1="12.1745" x2="6.59034" y2="0.648739" gradientUnits="userSpaceOnUse" spreadMethod="pad" id="fill30"><stop offset="0" stop-color="#FEA11B"/><stop offset="0.284" stop-color="#FEA51A"/><stop offset="0.547" stop-color="#FEB018"/><stop offset="0.8" stop-color="#FFC314"/><stop offset="1" stop-color="#FFD70F"/></linearGradient><clipPath id="clip31"><rect x="375" y="311" width="13" height="13"/></clipPath><clipPath id="clip32"><rect x="375" y="311" width="13" height="13"/></clipPath><clipPath id="clip33"><rect x="375" y="311" width="13" height="13"/></clipPath><linearGradient x1="381.59" y1="323.175" x2="381.59" y2="311.649" gradientUnits="userSpaceOnUse" spreadMethod="pad" id="fill34"><stop offset="0" stop-color="#FEA11B"/><stop offset="0.284" stop-color="#FEA51A"/><stop offset="0.547" stop-color="#FEB018"/><stop offset="0.8" stop-color="#FFC314"/><stop offset="1" stop-color="#FFD70F"/></linearGradient><clipPath id="clip35"><rect x="385" y="402" width="14" height="13"/></clipPath><clipPath id="clip36"><rect x="385" y="402" width="14" height="13"/></clipPath><clipPath id="clip37"><rect x="385" y="402" width="14" height="13"/></clipPath><linearGradient x1="6.59034" y1="12.1745" x2="6.59034" y2="0.648739" gradientUnits="userSpaceOnUse" spreadMethod="pad" id="fill38"><stop offset="0" stop-color="#FEA11B"/><stop offset="0.284" stop-color="#FEA51A"/><stop offset="0.547" stop-color="#FEB018"/><stop offset="0.8" stop-color="#FFC314"/><stop offset="1" stop-color="#FFD70F"/></linearGradient><clipPath id="clip39"><rect x="444" y="450" width="14" height="13"/></clipPath><clipPath id="clip40"><rect x="444" y="450" width="14" height="13"/></clipPath><clipPath id="clip41"><rect x="444" y="450" width="14" height="13"/></clipPath><linearGradient x1="6.59034" y1="12.1745" x2="6.59034" y2="0.648739" gradientUnits="userSpaceOnUse" spreadMethod="pad" id="fill42"><stop offset="0" stop-color="#FEA11B"/><stop offset="0.284" stop-color="#FEA51A"/><stop offset="0.547" stop-color="#FEB018"/><stop offset="0.8" stop-color="#FFC314"/><stop offset="1" stop-color="#FFD70F"/></linearGradient><clipPath id="clip43"><rect x="159" y="528" width="13" height="13"/></clipPath><clipPath id="clip44"><rect x="159" y="528" width="13" height="13"/></clipPath><clipPath id="clip45"><rect x="159" y="528" width="13" height="13"/></clipPath><linearGradient x1="165.59" y1="540.174" x2="165.59" y2="528.649" gradientUnits="userSpaceOnUse" spreadMethod="pad" id="fill46"><stop offset="0" stop-color="#FEA11B"/><stop offset="0.284" stop-color="#FEA51A"/><stop offset="0.547" stop-color="#FEB018"/><stop offset="0.8" stop-color="#FFC314"/><stop offset="1" stop-color="#FFD70F"/></linearGradient></defs><g clip-path="url(#clip4)" transform="translate(-60 -69)"><path d="M107.5 111.5 107.5 655.5 101.5 661.5 95.5001 655.5 95.5001 111.5Z" stroke="#41719C" stroke-width="1.33333" stroke-miterlimit="8" stroke-opacity="0.501961" fill="#5B9BD5" fill-rule="evenodd" fill-opacity="0.501961"/><rect x="61.5001" y="70.5001" width="605" height="607" stroke="#D9D9D9" stroke-width="1.33333" stroke-miterlimit="8" fill="none"/><path d="M640.5 114.25C640.5 123.501 610.503 131 573.5 131 536.497 131 506.5 123.501 506.5 114.25 506.5 104.999 536.497 97.5001 573.5 97.5001 610.503 97.5001 640.5 104.999 640.5 114.25L640.5 612.75C640.5 622.001 610.503 629.5 573.5 629.5 536.497 629.5 506.5 622.001 506.5 612.75L506.5 114.25" stroke="#2F528F" stroke-width="1.33333" stroke-miterlimit="8" fill="none" fill-rule="evenodd"/><text font-family="Yu Gothic,Yu Gothic_MSFontService,sans-serif" font-weight="400" font-size="13" transform="translate(538.245 603)">Twin Graph</text><g clip-path="url(#clip5)"><g clip-path="url(#clip6)"><g clip-path="url(#clip7)"><path d="M627.054 145.514 616.953 139.681C615.375 138.771 613.432 138.771 611.855 139.681L601.753 145.514C600.177 146.426 599.205 148.108 599.204 149.93L599.204 161.596C599.204 163.418 600.176 165.102 601.753 166.014L611.864 171.848C613.442 172.757 615.385 172.757 616.963 171.848L627.074 166.014C628.651 165.102 629.623 163.418 629.623 161.596L629.623 149.93C629.618 148.104 628.639 146.421 627.054 145.514Z" fill="url(#fill8)"/><path d="M631.748 154.056 624.645 149.955C623.377 149.224 621.816 149.224 620.548 149.955L613.447 154.056C612.178 154.786 611.397 156.139 611.4 157.603L611.4 165.804C611.4 167.267 612.18 168.619 613.447 169.351L620.548 173.452C621.816 174.183 623.377 174.183 624.645 173.452L631.748 169.351C633.019 168.621 633.803 167.269 633.806 165.804L633.806 157.603C633.803 156.137 633.019 154.785 631.748 154.056Z" fill="url(#fill9)"/><path d="M613.735 144.761 615.781 143.63 624.55 161.804 623.838 162.582 604.513 162.582 604.73 160.255 621.027 160.255 613.735 144.761Z" fill="url(#fill10)"/><path d="M607.229 161.526C607.229 163.137 605.923 164.443 604.312 164.443 602.701 164.443 601.396 163.137 601.396 161.526 601.396 159.916 602.701 158.61 604.312 158.61 605.923 158.61 607.229 159.916 607.229 161.526Z" fill="#FFFFFF"/><path d="M627.156 161.703C627.156 164.221 625.115 166.261 622.598 166.261 620.081 166.261 618.04 164.221 618.04 161.703 618.04 159.186 620.081 157.146 622.598 157.146 625.115 157.146 627.156 159.186 627.156 161.703Z" fill="#FFFFFF"/><path d="M617.552 143.974C617.552 145.585 616.246 146.891 614.635 146.891 613.024 146.891 611.719 145.585 611.719 143.974 611.719 142.363 613.024 141.057 614.635 141.057 616.246 141.057 617.552 142.363 617.552 143.974Z" fill="#FFFFFF"/></g></g></g><path d="M544.5 226.5C544.5 220.977 548.977 216.5 554.5 216.5 560.023 216.5 564.5 220.977 564.5 226.5 564.5 232.023 560.023 236.5 554.5 236.5 548.977 236.5 544.5 232.023 544.5 226.5Z" stroke="#2F528F" stroke-width="1.33333" stroke-miterlimit="8" fill="#4472C4" fill-rule="evenodd"/><path d="M525.5 260.5C525.5 254.977 529.753 250.5 535 250.5 540.247 250.5 544.5 254.977 544.5 260.5 544.5 266.023 540.247 270.5 535 270.5 529.753 270.5 525.5 266.023 525.5 260.5Z" stroke="#2F528F" stroke-width="1.33333" stroke-miterlimit="8" fill="#4472C4" fill-rule="evenodd"/><path d="M564.5 260.5C564.5 254.977 568.753 250.5 574 250.5 579.247 250.5 583.5 254.977 583.5 260.5 583.5 266.023 579.247 270.5 574 270.5 568.753 270.5 564.5 266.023 564.5 260.5Z" stroke="#2F528F" stroke-width="1.33333" stroke-miterlimit="8" fill="#4472C4" fill-rule="evenodd"/><path d="M0.963581-0.267416 4.81818 13.6219 2.89102 14.1567-0.963581 0.267416ZM7.35237 11.5349 5.63738 20.3132-0.356277 13.6742Z" fill="#4472C4" transform="matrix(-1 0 0 1 546.637 233)"/><path d="M561.964 232.733 565.818 246.622 563.891 247.157 560.036 233.267ZM568.352 244.535 566.637 253.313 560.644 246.674Z" fill="#4472C4"/><path d="M610.5 260.5C610.5 254.977 614.977 250.5 620.5 250.5 626.023 250.5 630.5 254.977 630.5 260.5 630.5 266.023 626.023 270.5 620.5 270.5 614.977 270.5 610.5 266.023 610.5 260.5Z" stroke="#2F528F" stroke-width="1.33333" stroke-miterlimit="8" fill="#4472C4" fill-rule="evenodd"/><path d="M3.80339e-06-1 20.9368-0.99992 20.9368 1.00008-3.80339e-06 1ZM19.6035-3.99993 27.6035 0.000104987 19.6034 4.00007Z" fill="#4472C4" transform="matrix(-1 0 0 1 610.603 260)"/><path d="M576.5 302C576.5 296.753 580.753 292.5 586 292.5 591.247 292.5 595.5 296.753 595.5 302 595.5 307.247 591.247 311.5 586 311.5 580.753 311.5 576.5 307.247 576.5 302Z" stroke="#2F528F" stroke-width="1.33333" stroke-miterlimit="8" fill="#4472C4" fill-rule="evenodd"/><path d="M557.5 336C557.5 330.753 561.753 326.5 567 326.5 572.247 326.5 576.5 330.753 576.5 336 576.5 341.247 572.247 345.5 567 345.5 561.753 345.5 557.5 341.247 557.5 336Z" stroke="#2F528F" stroke-width="1.33333" stroke-miterlimit="8" fill="#4472C4" fill-rule="evenodd"/><path d="M595.5 336C595.5 330.753 599.753 326.5 605 326.5 610.247 326.5 614.5 330.753 614.5 336 614.5 341.247 610.247 345.5 605 345.5 599.753 345.5 595.5 341.247 595.5 336Z" stroke="#2F528F" stroke-width="1.33333" stroke-miterlimit="8" fill="#4472C4" fill-rule="evenodd"/><path d="M0.963581-0.267416 4.81818 13.6219 2.89102 14.1567-0.963581 0.267416ZM7.35237 11.5349 5.63738 20.3132-0.356277 13.6742Z" fill="#4472C4" transform="matrix(-1 0 0 1 578.637 309)"/><path d="M592.964 308.733 596.818 322.622 594.891 323.157 591.036 309.267ZM599.352 320.535 597.637 329.313 591.644 322.674Z" fill="#4472C4"/><path d="M550.5 404C550.5 398.753 554.977 394.5 560.5 394.5 566.023 394.5 570.5 398.753 570.5 404 570.5 409.247 566.023 413.5 560.5 413.5 554.977 413.5 550.5 409.247 550.5 404Z" stroke="#2F528F" stroke-width="1.33333" stroke-miterlimit="8" fill="#4472C4" fill-rule="evenodd"/><path d="M531.5 438C531.5 432.753 535.753 428.5 541 428.5 546.247 428.5 550.5 432.753 550.5 438 550.5 443.247 546.247 447.5 541 447.5 535.753 447.5 531.5 443.247 531.5 438Z" stroke="#2F528F" stroke-width="1.33333" stroke-miterlimit="8" fill="#4472C4" fill-rule="evenodd"/><path d="M570.5 438C570.5 432.753 574.753 428.5 580 428.5 585.247 428.5 589.5 432.753 589.5 438 589.5 443.247 585.247 447.5 580 447.5 574.753 447.5 570.5 443.247 570.5 438Z" stroke="#2F528F" stroke-width="1.33333" stroke-miterlimit="8" fill="#4472C4" fill-rule="evenodd"/><path d="M0.963581-0.267416 4.81818 13.6219 2.89102 14.1567-0.963581 0.267416ZM7.35237 11.5349 5.63738 20.3132-0.356277 13.6742Z" fill="#4472C4" transform="matrix(-1 0 0 1 553.637 410)"/><path d="M567.964 409.733 571.818 423.622 569.891 424.157 566.036 410.267ZM574.352 421.535 572.637 430.313 566.644 423.674Z" fill="#4472C4"/><path d="M586.5 376.5C586.5 370.977 590.753 366.5 596 366.5 601.247 366.5 605.5 370.977 605.5 376.5 605.5 382.023 601.247 386.5 596 386.5 590.753 386.5 586.5 382.023 586.5 376.5Z" stroke="#2F528F" stroke-width="1.33333" stroke-miterlimit="8" fill="#4472C4" fill-rule="evenodd"/><path d="M0.530642-0.847596 16.4569 9.12313 15.3956 10.8183-0.530642 0.847596ZM16.9187 5.87282 21.5769 13.5083 12.6736 12.6536Z" fill="#4472C4" transform="matrix(-1 0 0 1 588.577 383)"/><path d="M99.5001 150.834C99.5001 147.336 102.336 144.5 105.833 144.5L238.167 144.5C241.664 144.5 244.5 147.336 244.5 150.834L244.5 176.167C244.5 179.664 241.664 182.5 238.167 182.5L105.833 182.5C102.336 182.5 99.5001 179.664 99.5001 176.167Z" stroke="#70AD47" stroke-width="1.33333" stroke-miterlimit="8" fill="#FFFFFF" fill-rule="evenodd"/><text font-family="Yu Gothic,Yu Gothic_MSFontService,sans-serif" font-weight="400" font-size="12" transform="translate(110.064 166)">Telemetry 送信</text><path d="M171.833 123.5 171.833 143.88 171.167 143.88 171.167 123.5ZM167.5 123.5C167.5 121.291 169.291 119.5 171.5 119.5 173.709 119.5 175.5 121.291 175.5 123.5 175.5 125.709 173.709 127.5 171.5 127.5 169.291 127.5 167.5 125.709 167.5 123.5ZM176.455 136.048 171.5 144.542 166.546 136.048C166.453 135.889 166.506 135.685 166.665 135.592 166.824 135.5 167.029 135.553 167.121 135.712L171.788 143.712 171.212 143.712 175.879 135.712C175.972 135.553 176.176 135.5 176.335 135.592 176.494 135.685 176.547 135.889 176.455 136.048Z" fill="#4472C4"/><path d="M165.5 203C165.5 199.41 168.186 196.5 171.5 196.5 174.814 196.5 177.5 199.41 177.5 203 177.5 206.59 174.814 209.5 171.5 209.5 168.186 209.5 165.5 206.59 165.5 203Z" stroke="#2F528F" stroke-width="1.33333" stroke-miterlimit="8" fill="none" fill-rule="evenodd"/><path d="M168.5 203C168.5 201.067 169.843 199.5 171.5 199.5 173.157 199.5 174.5 201.067 174.5 203 174.5 204.933 173.157 206.5 171.5 206.5 169.843 206.5 168.5 204.933 168.5 203Z" stroke="#2F528F" stroke-width="1.33333" stroke-miterlimit="8" fill="#4472C4" fill-rule="evenodd"/><path d="M0.333333-2.42594e-06 0.333434 13.7656-0.333233 13.7656-0.333333 2.42594e-06ZM4.95464 5.93354 0.000104977 14.4272-4.95455 5.93361C-5.04731 5.77459-4.9936 5.57049-4.83458 5.47773-4.67557 5.38496-4.47146 5.43867-4.3787 5.59769L0.288025 13.5977-0.287827 13.5977 4.37878 5.59763C4.47154 5.43861 4.67565 5.3849 4.83466 5.47766 4.99368 5.57041 5.04739 5.77452 4.95464 5.93354Z" fill="#4472C4" transform="matrix(-1 0 0 1 171.5 182.5)"/><path d="M76.5001 263.834C76.5001 260.336 79.3356 257.5 82.8335 257.5L215.167 257.5C218.664 257.5 221.5 260.336 221.5 263.834L221.5 289.167C221.5 292.664 218.664 295.5 215.167 295.5L82.8335 295.5C79.3356 295.5 76.5001 292.664 76.5001 289.167Z" stroke="#70AD47" stroke-width="1.33333" stroke-miterlimit="8" fill="#FFFFFF" fill-rule="evenodd"/><text font-family="Yu Gothic,Yu Gothic_MSFontService,sans-serif" font-weight="400" font-size="12" transform="translate(87.0644 280)">Telemetry 送信</text><path d="M148.833 236.5 148.833 256.88 148.167 256.88 148.167 236.5ZM144.5 236.5C144.5 234.291 146.291 232.5 148.5 232.5 150.709 232.5 152.5 234.291 152.5 236.5 152.5 238.709 150.709 240.5 148.5 240.5 146.291 240.5 144.5 238.709 144.5 236.5ZM153.455 249.048 148.5 257.542 143.546 249.048C143.453 248.889 143.506 248.685 143.665 248.592 143.824 248.5 144.029 248.553 144.121 248.712L148.788 256.712 148.212 256.712 152.879 248.712C152.972 248.553 153.176 248.5 153.335 248.592 153.494 248.685 153.547 248.889 153.455 249.048Z" fill="#4472C4"/><path d="M142.5 316C142.5 312.41 145.186 309.5 148.5 309.5 151.814 309.5 154.5 312.41 154.5 316 154.5 319.59 151.814 322.5 148.5 322.5 145.186 322.5 142.5 319.59 142.5 316Z" stroke="#2F528F" stroke-width="1.33333" stroke-miterlimit="8" fill="none" fill-rule="evenodd"/><path d="M145.5 316C145.5 314.067 146.843 312.5 148.5 312.5 150.157 312.5 151.5 314.067 151.5 316 151.5 317.933 150.157 319.5 148.5 319.5 146.843 319.5 145.5 317.933 145.5 316Z" stroke="#2F528F" stroke-width="1.33333" stroke-miterlimit="8" fill="#4472C4" fill-rule="evenodd"/><path d="M0.333333-2.42594e-06 0.333434 13.7656-0.333233 13.7656-0.333333 2.42594e-06ZM4.95464 5.93354 0.000104977 14.4272-4.95455 5.93361C-5.04731 5.77459-4.9936 5.57049-4.83458 5.47773-4.67557 5.38496-4.47146 5.43867-4.3787 5.59769L0.288025 13.5977-0.287827 13.5977 4.37878 5.59763C4.47154 5.43861 4.67565 5.3849 4.83466 5.47766 4.99368 5.57041 5.04739 5.77452 4.95464 5.93354Z" fill="#4472C4" transform="matrix(-1 0 0 1 148.5 295.5)"/><path d="M255.5 216.834C255.5 213.336 258.336 210.5 261.833 210.5L394.167 210.5C397.664 210.5 400.5 213.336 400.5 216.834L400.5 242.167C400.5 245.664 397.664 248.5 394.167 248.5L261.833 248.5C258.336 248.5 255.5 245.664 255.5 242.167Z" stroke="#4472C4" stroke-width="1.33333" stroke-miterlimit="8" fill="#FFFFFF" fill-rule="evenodd"/><text font-family="Yu Gothic,Yu Gothic_MSFontService,sans-serif" font-weight="400" font-size="12" transform="translate(266.131 226)">ドメイン<tspan font-size="12" x="0" y="14">オペレーション</tspan></text><path d="M327.833 189.5 327.833 209.88 327.167 209.88 327.167 189.5ZM323.5 189.5C323.5 187.291 325.291 185.5 327.5 185.5 329.709 185.5 331.5 187.291 331.5 189.5 331.5 191.709 329.709 193.5 327.5 193.5 325.291 193.5 323.5 191.709 323.5 189.5ZM332.455 202.048 327.5 210.542 322.546 202.048C322.453 201.889 322.506 201.685 322.665 201.592 322.825 201.5 323.029 201.553 323.121 201.712L327.788 209.712 327.212 209.712 331.879 201.712C331.972 201.553 332.176 201.5 332.335 201.592 332.494 201.685 332.547 201.889 332.455 202.048Z" fill="#4472C4"/><path d="M321.5 269C321.5 265.41 324.41 262.5 328 262.5 331.59 262.5 334.5 265.41 334.5 269 334.5 272.59 331.59 275.5 328 275.5 324.41 275.5 321.5 272.59 321.5 269Z" stroke="#2F528F" stroke-width="1.33333" stroke-miterlimit="8" fill="none" fill-rule="evenodd"/><path d="M324.5 269C324.5 267.067 326.067 265.5 328 265.5 329.933 265.5 331.5 267.067 331.5 269 331.5 270.933 329.933 272.5 328 272.5 326.067 272.5 324.5 270.933 324.5 269Z" stroke="#2F528F" stroke-width="1.33333" stroke-miterlimit="8" fill="#4472C4" fill-rule="evenodd"/><path d="M0.333333-2.42594e-06 0.333434 13.7656-0.333233 13.7656-0.333333 2.42594e-06ZM4.95464 5.93354 0.000104977 14.4272-4.95455 5.93361C-5.04731 5.77459-4.9936 5.57049-4.83458 5.47773-4.67557 5.38496-4.47146 5.43867-4.3787 5.59769L0.288025 13.5977-0.287827 13.5977 4.37878 5.59763C4.47154 5.43861 4.67565 5.3849 4.83466 5.47766 4.99368 5.57041 5.04739 5.77452 4.95464 5.93354Z" fill="#4472C4" transform="matrix(-1 0 0 1 327.5 248.5)"/><path d="M296.5 310.833C296.5 307.336 299.336 304.5 302.833 304.5L436.167 304.5C439.665 304.5 442.5 307.336 442.5 310.833L442.5 336.167C442.5 339.664 439.665 342.5 436.167 342.5L302.833 342.5C299.336 342.5 296.5 339.664 296.5 336.167Z" stroke="#4472C4" stroke-width="1.33333" stroke-miterlimit="8" fill="#FFFFFF" fill-rule="evenodd"/><text font-family="Yu Gothic,Yu Gothic_MSFontService,sans-serif" font-weight="400" font-size="12" transform="translate(307.874 320)">クラス<tspan font-size="12" x="0" y="14">オペレーション</tspan></text><path d="M369.833 283.5 369.833 303.88 369.167 303.88 369.167 283.5ZM365.5 283.5C365.5 281.291 367.291 279.5 369.5 279.5 371.709 279.5 373.5 281.291 373.5 283.5 373.5 285.709 371.709 287.5 369.5 287.5 367.291 287.5 365.5 285.709 365.5 283.5ZM374.455 296.048 369.5 304.542 364.546 296.048C364.453 295.889 364.506 295.685 364.665 295.592 364.825 295.5 365.029 295.553 365.121 295.712L369.788 303.712 369.212 303.712 373.879 295.712C373.972 295.553 374.176 295.5 374.335 295.592 374.494 295.685 374.547 295.889 374.455 296.048Z" fill="#4472C4"/><path d="M363.5 363.5C363.5 360.186 366.186 357.5 369.5 357.5 372.814 357.5 375.5 360.186 375.5 363.5 375.5 366.814 372.814 369.5 369.5 369.5 366.186 369.5 363.5 366.814 363.5 363.5Z" stroke="#2F528F" stroke-width="1.33333" stroke-miterlimit="8" fill="none" fill-rule="evenodd"/><path d="M366.5 363.5C366.5 361.843 367.843 360.5 369.5 360.5 371.157 360.5 372.5 361.843 372.5 363.5 372.5 365.157 371.157 366.5 369.5 366.5 367.843 366.5 366.5 365.157 366.5 363.5Z" stroke="#2F528F" stroke-width="1.33333" stroke-miterlimit="8" fill="#4472C4" fill-rule="evenodd"/><path d="M0.333333-2.42594e-06 0.333434 13.7656-0.333233 13.7656-0.333333 2.42594e-06ZM4.95464 5.93354 0.000104977 14.4272-4.95455 5.93361C-5.04731 5.77459-4.9936 5.57049-4.83458 5.47773-4.67557 5.38496-4.47146 5.43867-4.3787 5.59769L0.288025 13.5977-0.287827 13.5977 4.37878 5.59763C4.47154 5.43861 4.67565 5.3849 4.83466 5.47766 4.99368 5.57041 5.04739 5.77452 4.95464 5.93354Z" fill="#4472C4" transform="matrix(-1 0 0 1 369.5 342.5)"/><path d="M206.5 415.667C206.5 401.215 218.215 389.5 232.667 389.5L389.333 389.5C403.785 389.5 415.5 401.215 415.5 415.667L415.5 520.333C415.5 534.785 403.785 546.5 389.333 546.5L232.667 546.5C218.215 546.5 206.5 534.785 206.5 520.333Z" stroke="#4472C4" stroke-width="1.33333" stroke-miterlimit="8" fill="#FFFFFF" fill-rule="evenodd"/><text font-family="Yu Gothic,Yu Gothic_MSFontService,sans-serif" font-weight="400" font-size="12" transform="translate(226.507 530)">状態機械オーケストレーション</text><path d="M255.5 425.834C255.5 422.888 257.888 420.5 260.834 420.5L395.167 420.5C398.112 420.5 400.5 422.888 400.5 425.834L400.5 447.167C400.5 450.112 398.112 452.5 395.167 452.5L260.834 452.5C257.888 452.5 255.5 450.112 255.5 447.167Z" stroke="#4472C4" stroke-width="1.33333" stroke-miterlimit="8" fill="#FFFFFF" fill-rule="evenodd"/><text font-family="Yu Gothic,Yu Gothic_MSFontService,sans-serif" font-weight="400" font-size="12" transform="translate(266.364 440)">状態アクション</text><path d="M328.833 399.5 328.833 419.88 328.167 419.88 328.167 399.5ZM324.5 399.5C324.5 397.291 326.291 395.5 328.5 395.5 330.709 395.5 332.5 397.291 332.5 399.5 332.5 401.709 330.709 403.5 328.5 403.5 326.291 403.5 324.5 401.709 324.5 399.5ZM333.455 412.048 328.5 420.542 323.546 412.048C323.453 411.889 323.506 411.685 323.665 411.592 323.825 411.5 324.029 411.553 324.121 411.712L328.788 419.712 328.212 419.712 332.879 411.712C332.972 411.553 333.176 411.5 333.335 411.592 333.494 411.685 333.547 411.889 333.455 412.048Z" fill="#4472C4"/><path d="M256.833 496.975 232.5 496.975 232.5 436.167 254.84 436.167 254.84 436.833 232.833 436.833 233.167 436.5 233.167 496.641 232.833 496.308 256.833 496.308ZM247.008 431.545 255.502 436.5 247.008 441.455C246.849 441.547 246.645 441.494 246.552 441.335 246.459 441.176 246.513 440.972 246.672 440.879L254.672 436.212 254.672 436.788 246.672 432.121C246.513 432.029 246.459 431.824 246.552 431.665 246.645 431.506 246.849 431.453 247.008 431.545Z" fill="#4472C4"/><path d="M255.5 485.334C255.5 482.112 258.112 479.5 261.333 479.5L394.667 479.5C397.888 479.5 400.5 482.112 400.5 485.334L400.5 508.667C400.5 511.888 397.888 514.5 394.667 514.5L261.333 514.5C258.112 514.5 255.5 511.888 255.5 508.667Z" stroke="#4472C4" stroke-width="1.33333" stroke-miterlimit="8" fill="#FFFFFF" fill-rule="evenodd"/><text font-family="Yu Gothic,Yu Gothic_MSFontService,sans-serif" font-weight="400" font-size="12" transform="translate(266.471 500)">状態アクション</text><path d="M328.833 452.5 328.833 453.167 328.167 453.167 328.167 452.5ZM328.833 453.833 328.833 454.5 328.167 454.5 328.167 453.833ZM328.833 455.167 328.833 455.833 328.167 455.833 328.167 455.167ZM328.833 456.5 328.833 457.167 328.167 457.167 328.167 456.5ZM328.833 457.833 328.833 458.5 328.167 458.5 328.167 457.833ZM328.833 459.167 328.833 459.833 328.167 459.833 328.167 459.167ZM328.833 460.5 328.833 461.167 328.167 461.167 328.167 460.5ZM328.833 461.833 328.833 462.5 328.167 462.5 328.167 461.833ZM328.833 463.167 328.833 463.833 328.167 463.833 328.167 463.167ZM328.833 464.5 328.833 465.167 328.167 465.167 328.167 464.5ZM328.833 465.833 328.833 466.5 328.167 466.5 328.167 465.833ZM328.833 467.167 328.833 467.833 328.167 467.833 328.167 467.167ZM328.833 468.5 328.833 469.167 328.167 469.167 328.167 468.5ZM328.833 469.833 328.833 470.5 328.167 470.5 328.167 469.833ZM328.833 471.167 328.833 471.833 328.167 471.833 328.167 471.167ZM328.833 472.5 328.833 473.167 328.167 473.167 328.167 472.5ZM328.833 473.833 328.833 474.5 328.167 474.5 328.167 473.833ZM328.833 475.167 328.833 475.833 328.167 475.833 328.167 475.167ZM328.833 476.5 328.833 477.167 328.167 477.167 328.167 476.5ZM328.833 477.833 328.833 478.5 328.167 478.5 328.167 477.833ZM333.455 470.955 328.5 479.449 323.546 470.955C323.453 470.796 323.507 470.592 323.665 470.499 323.825 470.407 324.029 470.46 324.121 470.619L328.788 478.619 328.212 478.619 332.879 470.619C332.972 470.46 333.176 470.407 333.335 470.499 333.494 470.592 333.547 470.796 333.455 470.955Z" fill="#4472C4"/><path d="M70.5001 530.833C70.5001 527.336 73.3356 524.5 76.8335 524.5L209.167 524.5C212.664 524.5 215.5 527.336 215.5 530.833L215.5 556.167C215.5 559.664 212.664 562.5 209.167 562.5L76.8335 562.5C73.3356 562.5 70.5001 559.664 70.5001 556.167Z" stroke="#4472C4" stroke-width="1.33333" stroke-miterlimit="8" fill="#FFFFFF" fill-rule="evenodd"/><text font-family="Yu Gothic,Yu Gothic_MSFontService,sans-serif" font-weight="400" font-size="12" transform="translate(81.3312 539)">ドメイン<tspan font-size="12" x="0" y="14">オペレーション</tspan></text><path d="M142.833 503.5 142.833 523.88 142.167 523.88 142.167 503.5ZM138.5 503.5C138.5 501.291 140.291 499.5 142.5 499.5 144.709 499.5 146.5 501.291 146.5 503.5 146.5 505.709 144.709 507.5 142.5 507.5 140.291 507.5 138.5 505.709 138.5 503.5ZM147.455 516.048 142.5 524.542 137.546 516.048C137.453 515.889 137.506 515.685 137.665 515.592 137.824 515.5 138.029 515.553 138.121 515.712L142.788 523.712 142.212 523.712 146.879 515.712C146.972 515.553 147.176 515.5 147.335 515.592 147.494 515.685 147.547 515.889 147.455 516.048Z" fill="#4472C4"/><path d="M136.5 582.5C136.5 579.186 139.41 576.5 143 576.5 146.59 576.5 149.5 579.186 149.5 582.5 149.5 585.814 146.59 588.5 143 588.5 139.41 588.5 136.5 585.814 136.5 582.5Z" stroke="#2F528F" stroke-width="1.33333" stroke-miterlimit="8" fill="none" fill-rule="evenodd"/><path d="M139.5 583C139.5 581.067 141.067 579.5 143 579.5 144.933 579.5 146.5 581.067 146.5 583 146.5 584.933 144.933 586.5 143 586.5 141.067 586.5 139.5 584.933 139.5 583Z" stroke="#2F528F" stroke-width="1.33333" stroke-miterlimit="8" fill="#4472C4" fill-rule="evenodd"/><path d="M0.333333-2.42594e-06 0.333434 13.7656-0.333233 13.7656-0.333333 2.42594e-06ZM4.95464 5.93354 0.000104977 14.4272-4.95455 5.93361C-5.04731 5.77459-4.9936 5.57049-4.83458 5.47773-4.67557 5.38496-4.47146 5.43867-4.3787 5.59769L0.288025 13.5977-0.287827 13.5977 4.37878 5.59763C4.47154 5.43861 4.67565 5.3849 4.83466 5.47766 4.99368 5.57041 5.04739 5.77452 4.95464 5.93354Z" fill="#4472C4" transform="matrix(-1 0 0 1 142.5 562.5)"/><path d="M359.5 218.25C359.5 220.321 366.44 222 375 222 383.56 222 390.5 220.321 390.5 218.25L390.5 240.75C390.5 242.821 383.56 244.5 375 244.5 366.44 244.5 359.5 242.821 359.5 240.75Z" fill="#FFC000" fill-rule="evenodd"/><path d="M359.5 218.25C359.5 216.179 366.44 214.5 375 214.5 383.56 214.5 390.5 216.179 390.5 218.25 390.5 220.321 383.56 222 375 222 366.44 222 359.5 220.321 359.5 218.25Z" fill="#FFD966" fill-rule="evenodd"/><path d="M390.5 218.25C390.5 220.321 383.56 222 375 222 366.44 222 359.5 220.321 359.5 218.25 359.5 216.179 366.44 214.5 375 214.5 383.56 214.5 390.5 216.179 390.5 218.25L390.5 240.75C390.5 242.821 383.56 244.5 375 244.5 366.44 244.5 359.5 242.821 359.5 240.75L359.5 218.25" stroke="#BC8C00" stroke-width="1.33333" stroke-miterlimit="8" fill="none" fill-rule="evenodd"/><g clip-path="url(#clip11)" filter="url(#fx0)" transform="translate(360 219)"><g clip-path="url(#clip12)"><path d="M2.51904-8.51318 2.51904 0.0214844 1.02051 0.0214844 1.02051-8.51318ZM4.52051-8.51318 7.5874-8.51318C9.60335-8.51318 10.6113-7.73975 10.6113-6.19287 10.6113-5.62354 10.4466-5.1473 10.1172-4.76416 9.82715-4.42399 9.4279-4.17692 8.91943-4.02295L10.8906 0.0214844 9.29541 0.0214844 7.56592-3.80273 7.1792-3.79199 5.9707-3.79199 5.9707 0.0214844 4.52051 0.0214844ZM5.9707-7.40137 5.9707-4.89307 7.4585-4.89307C8.5721-4.89307 9.12891-5.31917 9.12891-6.17139 9.12891-6.99137 8.59359-7.40137 7.52295-7.40137Z" transform="translate(9.44171 16)"/></g></g><path d="M2.51904-8.51318 2.51904 0.0214844 1.02051 0.0214844 1.02051-8.51318ZM4.52051-8.51318 7.5874-8.51318C9.60335-8.51318 10.6113-7.73975 10.6113-6.19287 10.6113-5.62354 10.4466-5.1473 10.1172-4.76416 9.82715-4.42399 9.4279-4.17692 8.91943-4.02295L10.8906 0.0214844 9.29541 0.0214844 7.56592-3.80273 7.1792-3.79199 5.9707-3.79199 5.9707 0.0214844 4.52051 0.0214844ZM5.9707-7.40137 5.9707-4.89307 7.4585-4.89307C8.5721-4.89307 9.12891-5.31917 9.12891-6.17139 9.12891-6.99137 8.59359-7.40137 7.52295-7.40137Z" transform="translate(368.644 234)"/><path d="M401.5 312.25C401.5 314.321 408.44 316 417 316 425.56 316 432.5 314.321 432.5 312.25L432.5 334.75C432.5 336.821 425.56 338.5 417 338.5 408.44 338.5 401.5 336.821 401.5 334.75Z" fill="#FFC000" fill-rule="evenodd"/><path d="M401.5 312.25C401.5 310.179 408.44 308.5 417 308.5 425.56 308.5 432.5 310.179 432.5 312.25 432.5 314.321 425.56 316 417 316 408.44 316 401.5 314.321 401.5 312.25Z" fill="#FFD966" fill-rule="evenodd"/><path d="M432.5 312.25C432.5 314.321 425.56 316 417 316 408.44 316 401.5 314.321 401.5 312.25 401.5 310.179 408.44 308.5 417 308.5 425.56 308.5 432.5 310.179 432.5 312.25L432.5 334.75C432.5 336.821 425.56 338.5 417 338.5 408.44 338.5 401.5 336.821 401.5 334.75L401.5 312.25" stroke="#BC8C00" stroke-width="1.33333" stroke-miterlimit="8" fill="none" fill-rule="evenodd"/><g clip-path="url(#clip13)" filter="url(#fx1)" transform="translate(403 313)"><g clip-path="url(#clip14)"><path d="M2.51904-8.51318 2.51904 0.0214844 1.02051 0.0214844 1.02051-8.51318ZM4.52051-8.51318 7.5874-8.51318C9.60335-8.51318 10.6113-7.73975 10.6113-6.19287 10.6113-5.62354 10.4466-5.1473 10.1172-4.76416 9.82715-4.42399 9.4279-4.17692 8.91943-4.02295L10.8906 0.0214844 9.29541 0.0214844 7.56592-3.80273 7.1792-3.79199 5.9707-3.79199 5.9707 0.0214844 4.52051 0.0214844ZM5.9707-7.40137 5.9707-4.89307 7.4585-4.89307C8.5721-4.89307 9.12891-5.31917 9.12891-6.17139 9.12891-6.99137 8.59359-7.40137 7.52295-7.40137Z" transform="translate(9.08905 16)"/></g></g><path d="M2.51904-8.51318 2.51904 0.0214844 1.02051 0.0214844 1.02051-8.51318ZM4.52051-8.51318 7.5874-8.51318C9.60335-8.51318 10.6113-7.73975 10.6113-6.19287 10.6113-5.62354 10.4466-5.1473 10.1172-4.76416 9.82715-4.42399 9.4279-4.17692 8.91943-4.02295L10.8906 0.0214844 9.29541 0.0214844 7.56592-3.80273 7.1792-3.79199 5.9707-3.79199 5.9707 0.0214844 4.52051 0.0214844ZM5.9707-7.40137 5.9707-4.89307 7.4585-4.89307C8.5721-4.89307 9.12891-5.31917 9.12891-6.17139 9.12891-6.99137 8.59359-7.40137 7.52295-7.40137Z" transform="translate(411.291 328)"/><path d="M176.5 531.25C176.5 533.321 183.44 535 192 535 200.56 535 207.5 533.321 207.5 531.25L207.5 553.75C207.5 555.821 200.56 557.5 192 557.5 183.44 557.5 176.5 555.821 176.5 553.75Z" fill="#FFC000" fill-rule="evenodd"/><path d="M176.5 531.25C176.5 529.179 183.44 527.5 192 527.5 200.56 527.5 207.5 529.179 207.5 531.25 207.5 533.321 200.56 535 192 535 183.44 535 176.5 533.321 176.5 531.25Z" fill="#FFD966" fill-rule="evenodd"/><path d="M207.5 531.25C207.5 533.321 200.56 535 192 535 183.44 535 176.5 533.321 176.5 531.25 176.5 529.179 183.44 527.5 192 527.5 200.56 527.5 207.5 529.179 207.5 531.25L207.5 553.75C207.5 555.821 200.56 557.5 192 557.5 183.44 557.5 176.5 555.821 176.5 553.75L176.5 531.25" stroke="#BC8C00" stroke-width="1.33333" stroke-miterlimit="8" fill="none" fill-rule="evenodd"/><g clip-path="url(#clip15)" filter="url(#fx2)" transform="translate(177 532)"><g clip-path="url(#clip16)"><path d="M2.51904-8.51318 2.51904 0.0214844 1.02051 0.0214844 1.02051-8.51318ZM4.52051-8.51318 7.5874-8.51318C9.60335-8.51318 10.6113-7.73975 10.6113-6.19287 10.6113-5.62354 10.4466-5.1473 10.1172-4.76416 9.82715-4.42399 9.4279-4.17692 8.91943-4.02295L10.8906 0.0214844 9.29541 0.0214844 7.56592-3.80273 7.1792-3.79199 5.9707-3.79199 5.9707 0.0214844 4.52051 0.0214844ZM5.9707-7.40137 5.9707-4.89307 7.4585-4.89307C8.5721-4.89307 9.12891-5.31917 9.12891-6.17139 9.12891-6.99137 8.59359-7.40137 7.52295-7.40137Z" transform="translate(9.68118 16)"/></g></g><path d="M2.51904-8.51318 2.51904 0.0214844 1.02051 0.0214844 1.02051-8.51318ZM4.52051-8.51318 7.5874-8.51318C9.60335-8.51318 10.6113-7.73975 10.6113-6.19287 10.6113-5.62354 10.4466-5.1473 10.1172-4.76416 9.82715-4.42399 9.4279-4.17692 8.91943-4.02295L10.8906 0.0214844 9.29541 0.0214844 7.56592-3.80273 7.1792-3.79199 5.9707-3.79199 5.9707 0.0214844 4.52051 0.0214844ZM5.9707-7.40137 5.9707-4.89307 7.4585-4.89307C8.5721-4.89307 9.12891-5.31917 9.12891-6.17139 9.12891-6.99137 8.59359-7.40137 7.52295-7.40137Z" transform="translate(185.883 548)"/><path d="M250.5 160.5 250.875 160.5 250.875 166.5 250.5 166.5ZM251.25 160.5 252 160.5 252 166.5 251.25 166.5ZM252.375 160.5 508.5 160.5 508.5 157.5 514.5 163.5 508.5 169.5 508.5 166.5 252.375 166.5Z" stroke="#70AD47" stroke-width="1.33333" stroke-miterlimit="8" stroke-opacity="0.501961" fill="#70AD47" fill-rule="evenodd" fill-opacity="0.501961"/><path d="M224.5 272.5 224.875 272.5 224.875 278.5 224.5 278.5ZM225.25 272.5 226 272.5 226 278.5 225.25 278.5ZM226.375 272.5 508.5 272.5 508.5 269.5 514.5 275.5 508.5 281.5 508.5 278.5 226.375 278.5Z" stroke="#70AD47" stroke-width="1.33333" stroke-miterlimit="8" stroke-opacity="0.501961" fill="#70AD47" fill-rule="evenodd" fill-opacity="0.501961"/><path d="M508.5 223.5 514.5 229.5 508.5 235.5 508.5 232.5 392.5 232.5 392.5 235.5 386.5 229.5 392.5 223.5 392.5 226.5 508.5 226.5Z" stroke="#2F528F" stroke-width="1.33333" stroke-miterlimit="8" stroke-opacity="0.501961" fill="#4472C4" fill-rule="evenodd" fill-opacity="0.501961"/><path d="M510 316.5 515.5 322 510 327.5 510 324.75 436 324.75 436 327.5 430.5 322 436 316.5 436 319.25 510 319.25Z" stroke="#2F528F" stroke-width="1.33333" stroke-miterlimit="8" stroke-opacity="0.501961" fill="#4472C4" fill-rule="evenodd" fill-opacity="0.501961"/><path d="M509.5 458.5 515.5 464.5 509.5 470.5 509.5 467.5 407.5 467.5 407.5 470.5 401.5 464.5 407.5 458.5 407.5 461.5 509.5 461.5Z" stroke="#2F528F" stroke-width="1.33333" stroke-miterlimit="8" stroke-opacity="0.501961" fill="#4472C4" fill-rule="evenodd" fill-opacity="0.501961"/><path d="M509 536.5 514.5 542 509 547.5 509 544.75 214 544.75 214 547.5 208.5 542 214 536.5 214 539.25 509 539.25Z" stroke="#2F528F" stroke-width="1.33333" stroke-miterlimit="8" stroke-opacity="0.501961" fill="#4472C4" fill-rule="evenodd" fill-opacity="0.501961"/><path d="M258.5 465.501C258.5 451.141 270.141 439.5 284.5 439.5L441.5 439.5C455.859 439.5 467.5 451.141 467.5 465.501L467.5 569.5C467.5 583.859 455.859 595.5 441.5 595.5L284.5 595.5C270.141 595.5 258.5 583.859 258.5 569.5Z" stroke="#4472C4" stroke-width="1.33333" stroke-miterlimit="8" fill="#FFFFFF" fill-rule="evenodd"/><text font-family="Yu Gothic,Yu Gothic_MSFontService,sans-serif" font-weight="400" font-size="12" transform="translate(278.739 579)">状態機械オーケストレーション</text><path d="M307.5 475.833C307.5 472.888 309.888 470.5 312.833 470.5L448.167 470.5C451.112 470.5 453.5 472.888 453.5 475.833L453.5 497.167C453.5 500.112 451.112 502.5 448.167 502.5L312.833 502.5C309.888 502.5 307.5 500.112 307.5 497.167Z" stroke="#4472C4" stroke-width="1.33333" stroke-miterlimit="8" fill="#FFFFFF" fill-rule="evenodd"/><text font-family="Yu Gothic,Yu Gothic_MSFontService,sans-serif" font-weight="400" font-size="12" transform="translate(318.596 490)">状態アクション</text><path d="M380.833 449.5 380.833 469.88 380.167 469.88 380.167 449.5ZM376.5 449.5C376.5 447.291 378.291 445.5 380.5 445.5 382.709 445.5 384.5 447.291 384.5 449.5 384.5 451.709 382.709 453.5 380.5 453.5 378.291 453.5 376.5 451.709 376.5 449.5ZM385.455 462.048 380.5 470.542 375.546 462.048C375.453 461.889 375.506 461.685 375.665 461.592 375.825 461.5 376.029 461.553 376.121 461.712L380.788 469.712 380.212 469.712 384.879 461.712C384.972 461.553 385.176 461.5 385.335 461.592 385.494 461.685 385.547 461.889 385.455 462.048Z" fill="#4472C4"/><path d="M308.833 546.975 284.5 546.975 284.5 486.167 306.84 486.167 306.84 486.833 284.833 486.833 285.167 486.5 285.167 546.641 284.833 546.308 308.833 546.308ZM299.008 481.545 307.502 486.5 299.008 491.455C298.849 491.547 298.645 491.494 298.552 491.335 298.459 491.176 298.513 490.972 298.672 490.879L306.672 486.212 306.672 486.788 298.672 482.121C298.513 482.029 298.459 481.824 298.552 481.665 298.645 481.506 298.849 481.453 299.008 481.545Z" fill="#4472C4"/><path d="M307.5 535.167C307.5 532.037 310.037 529.5 313.167 529.5L447.833 529.5C450.963 529.5 453.5 532.037 453.5 535.167L453.5 557.833C453.5 560.963 450.963 563.5 447.833 563.5L313.167 563.5C310.037 563.5 307.5 560.963 307.5 557.833Z" stroke="#4472C4" stroke-width="1.33333" stroke-miterlimit="8" fill="#FFFFFF" fill-rule="evenodd"/><text font-family="Yu Gothic,Yu Gothic_MSFontService,sans-serif" font-weight="400" font-size="12" transform="translate(318.704 550)">状態アクション</text><path d="M380.833 502.5 380.833 503.167 380.167 503.167 380.167 502.5ZM380.833 503.833 380.833 504.5 380.167 504.5 380.167 503.833ZM380.833 505.167 380.833 505.833 380.167 505.833 380.167 505.167ZM380.833 506.5 380.833 507.167 380.167 507.167 380.167 506.5ZM380.833 507.833 380.833 508.5 380.167 508.5 380.167 507.833ZM380.833 509.167 380.833 509.833 380.167 509.833 380.167 509.167ZM380.833 510.5 380.833 511.167 380.167 511.167 380.167 510.5ZM380.833 511.833 380.833 512.5 380.167 512.5 380.167 511.833ZM380.833 513.167 380.833 513.833 380.167 513.833 380.167 513.167ZM380.833 514.5 380.833 515.167 380.167 515.167 380.167 514.5ZM380.833 515.833 380.833 516.5 380.167 516.5 380.167 515.833ZM380.833 517.167 380.833 517.833 380.167 517.833 380.167 517.167ZM380.833 518.5 380.833 519.167 380.167 519.167 380.167 518.5ZM380.833 519.833 380.833 520.5 380.167 520.5 380.167 519.833ZM380.833 521.167 380.833 521.833 380.167 521.833 380.167 521.167ZM380.833 522.5 380.833 523.167 380.167 523.167 380.167 522.5ZM380.833 523.833 380.833 524.5 380.167 524.5 380.167 523.833ZM380.833 525.167 380.833 525.833 380.167 525.833 380.167 525.167ZM380.833 526.5 380.833 527.167 380.167 527.167 380.167 526.5ZM380.833 527.833 380.833 528.5 380.167 528.5 380.167 527.833ZM385.455 520.955 380.5 529.449 375.546 520.955C375.453 520.796 375.507 520.592 375.665 520.499 375.825 520.407 376.029 520.46 376.121 520.619L380.788 528.619 380.212 528.619 384.879 520.619C384.972 520.46 385.176 520.407 385.335 520.499 385.494 520.592 385.547 520.796 385.455 520.955Z" fill="#4472C4"/><path d="M430.5 501.25C430.5 503.321 437.44 505 446 505 454.56 505 461.5 503.321 461.5 501.25L461.5 523.75C461.5 525.821 454.56 527.5 446 527.5 437.44 527.5 430.5 525.821 430.5 523.75Z" fill="#FFC000" fill-rule="evenodd"/><path d="M430.5 501.25C430.5 499.179 437.44 497.5 446 497.5 454.56 497.5 461.5 499.179 461.5 501.25 461.5 503.321 454.56 505 446 505 437.44 505 430.5 503.321 430.5 501.25Z" fill="#FFD966" fill-rule="evenodd"/><path d="M461.5 501.25C461.5 503.321 454.56 505 446 505 437.44 505 430.5 503.321 430.5 501.25 430.5 499.179 437.44 497.5 446 497.5 454.56 497.5 461.5 499.179 461.5 501.25L461.5 523.75C461.5 525.821 454.56 527.5 446 527.5 437.44 527.5 430.5 525.821 430.5 523.75L430.5 501.25" stroke="#BC8C00" stroke-width="1.33333" stroke-miterlimit="8" fill="none" fill-rule="evenodd"/><g clip-path="url(#clip17)" filter="url(#fx3)" transform="translate(431 502)"><g clip-path="url(#clip18)"><path d="M2.51904-8.51318 2.51904 0.0214844 1.02051 0.0214844 1.02051-8.51318ZM4.52051-8.51318 7.5874-8.51318C9.60335-8.51318 10.6113-7.73975 10.6113-6.19287 10.6113-5.62354 10.4466-5.1473 10.1172-4.76416 9.82715-4.42399 9.4279-4.17692 8.91943-4.02295L10.8906 0.0214844 9.29541 0.0214844 7.56592-3.80273 7.1792-3.79199 5.9707-3.79199 5.9707 0.0214844 4.52051 0.0214844ZM5.9707-7.40137 5.9707-4.89307 7.4585-4.89307C8.5721-4.89307 9.12891-5.31917 9.12891-6.17139 9.12891-6.99137 8.59359-7.40137 7.52295-7.40137Z" transform="translate(9.42902 17)"/></g></g><text font-family="Yu Gothic,Yu Gothic_MSFontService,sans-serif" font-weight="700" font-size="11" transform="translate(439.631 518)">IR</text><path d="M510 510.5 515.5 516 510 521.5 510 518.75 465 518.75 465 521.5 459.5 516 465 510.5 465 513.25 510 513.25Z" stroke="#2F528F" stroke-width="1.33333" stroke-miterlimit="8" stroke-opacity="0.501961" fill="#4472C4" fill-rule="evenodd" fill-opacity="0.501961"/><text font-family="Yu Gothic,Yu Gothic_MSFontService,sans-serif" font-weight="400" font-size="13" transform="translate(71.0851 99)">時間<tspan font-size="13" x="26.6667" y="0">の</tspan>流れ</text><g clip-path="url(#clip19)"><g clip-path="url(#clip20)"><g clip-path="url(#clip21)"><path d="M216.001 158.465 215.578 158.889C215.503 158.965 215.381 158.965 215.305 158.89L212.161 155.754C212.011 155.604 212.01 155.361 212.161 155.21L212.586 154.783 212.586 154.783 216.003 158.191C216.078 158.266 216.079 158.388 216.003 158.464Z" fill="#50E6FF"/><path d="M215.512 152.109 215.938 152.534C216.014 152.609 216.014 152.731 215.939 152.807L212.582 156.173 212.582 156.173 212.155 155.748C212.005 155.598 212.004 155.354 212.154 155.203L215.241 152.108C215.316 152.034 215.437 152.034 215.512 152.109Z" fill="#1490DF"/><path d="M224.415 154.786 224.84 155.212C224.99 155.363 224.989 155.607 224.839 155.757L221.695 158.892C221.619 158.967 221.497 158.967 221.422 158.892L220.999 158.468C220.924 158.392 220.924 158.27 221 158.195L224.416 154.788 224.416 154.788Z" fill="#50E6FF"/><path d="M224.843 155.746 224.417 156.171 224.417 156.171 221.059 152.804C220.984 152.729 220.984 152.607 221.06 152.532L221.486 152.107C221.561 152.032 221.683 152.032 221.759 152.107L224.845 155.202C224.995 155.353 224.995 155.596 224.844 155.747Z" fill="#1490DF"/><path d="M218.109 156.15 215.517 156.15C215.442 156.153 215.377 156.095 215.373 156.019 215.373 156 215.377 155.982 215.386 155.965L218.493 149.816C218.52 149.768 218.572 149.738 218.628 149.74L221.694 149.74C221.769 149.737 221.833 149.795 221.838 149.87 221.838 149.896 221.829 149.922 221.813 149.943L218.163 154.753 221.723 154.753C221.798 154.75 221.862 154.808 221.867 154.884 221.866 154.917 221.853 154.949 221.829 154.972L215.915 161.125C215.86 161.158 215.464 161.486 215.658 160.988L215.658 160.988Z" fill="url(#fill22)"/></g></g></g><g clip-path="url(#clip23)"><g clip-path="url(#clip24)"><g clip-path="url(#clip25)"><path d="M197.001 275.465 196.578 275.889C196.503 275.965 196.381 275.965 196.305 275.89L193.161 272.754C193.011 272.604 193.01 272.361 193.161 272.21L193.586 271.783 193.586 271.783 197.003 275.191C197.078 275.266 197.079 275.388 197.003 275.464Z" fill="#50E6FF"/><path d="M196.512 269.109 196.938 269.534C197.014 269.609 197.014 269.731 196.939 269.807L193.582 273.173 193.582 273.173 193.155 272.748C193.005 272.598 193.004 272.354 193.154 272.203L196.241 269.108C196.316 269.034 196.437 269.034 196.512 269.109Z" fill="#1490DF"/><path d="M205.415 271.786 205.84 272.212C205.99 272.363 205.989 272.607 205.839 272.757L202.695 275.892C202.619 275.967 202.497 275.967 202.422 275.892L201.999 275.468C201.924 275.392 201.924 275.27 202 275.195L205.416 271.788 205.416 271.788Z" fill="#50E6FF"/><path d="M205.843 272.746 205.417 273.171 205.417 273.171 202.059 269.804C201.984 269.729 201.984 269.607 202.06 269.532L202.486 269.107C202.561 269.032 202.683 269.032 202.759 269.107L205.845 272.202C205.995 272.353 205.995 272.596 205.844 272.747Z" fill="#1490DF"/><path d="M199.109 273.15 196.517 273.15C196.442 273.153 196.377 273.095 196.373 273.019 196.373 273 196.377 272.982 196.386 272.965L199.493 266.816C199.52 266.768 199.572 266.738 199.628 266.74L202.694 266.74C202.769 266.737 202.833 266.795 202.838 266.87 202.838 266.896 202.829 266.922 202.813 266.943L199.163 271.753 202.723 271.753C202.798 271.75 202.862 271.808 202.867 271.884 202.866 271.917 202.853 271.949 202.829 271.972L196.915 278.125C196.86 278.158 196.464 278.486 196.658 277.988L196.658 277.988Z" fill="url(#fill26)"/></g></g></g><g clip-path="url(#clip27)"><g clip-path="url(#clip28)"><g clip-path="url(#clip29)"><path d="M1.77403 5.59531 2.39532 5.59531C2.5057 5.59531 2.59518 5.68479 2.59518 5.79517L2.59518 10.3972C2.59518 10.6175 2.41655 10.7961 2.19621 10.7961L1.57193 10.7961 1.57193 10.7961 1.57193 5.79442C1.57193 5.68404 1.66141 5.59456 1.77179 5.59456Z" fill="#50E6FF" transform="matrix(-0.73369 0.683213 -0.735768 -0.681284 343.728 230.065)"/><path d="M1.73998 2.69417 2.36338 2.69417C2.47374 2.69417 2.5632 2.78363 2.5632 2.89398L2.5632 7.82057 2.5632 7.82057 1.93905 7.82057C1.71875 7.82057 1.54017 7.64198 1.54017 7.42168L1.54017 2.89249C1.54099 2.78272 1.63021 2.69416 1.73998 2.69417Z" fill="#1490DF" transform="matrix(0.735922 0.681426 -0.733844 0.683356 338.479 218.082)"/><path d="M10.8762 5.59531 11.4998 5.59531C11.7201 5.59531 11.8987 5.77393 11.8987 5.99428L11.8987 10.5963C11.8987 10.7067 11.8093 10.7961 11.6989 10.7961L11.0783 10.7961C10.968 10.7961 10.8785 10.7067 10.8785 10.5963L10.8785 5.59531 10.8785 5.59531Z" fill="#50E6FF" transform="matrix(0.73369 0.683213 -0.735768 0.681284 343.507 212.544)"/><path d="M11.3065 2.69417 11.9299 2.69417 11.9299 2.69417 11.9299 7.62075C11.9299 7.73111 11.8405 7.82057 11.7301 7.82057L11.1067 7.82057C10.9963 7.82057 10.9069 7.73111 10.9069 7.62075L10.9069 3.09156C10.9069 2.87126 11.0855 2.69267 11.3058 2.69267Z" fill="#1490DF" transform="matrix(-0.735922 0.681426 -0.733844 -0.683356 358.128 218.883)"/><path d="M6.10928 7.15 3.51722 7.15C3.44156 7.15289 3.37743 7.09485 3.37278 7.01928 3.3728 7.00045 3.37725 6.9819 3.38578 6.96511L6.4935 0.816111C6.52046 0.767502 6.57227 0.737976 6.62783 0.739556L9.69367 0.739556C9.76933 0.736666 9.83346 0.794705 9.83811 0.870278 9.83785 0.896476 9.82897 0.921859 9.81283 0.9425L6.16344 5.75322 9.72256 5.75322C9.79822 5.75033 9.86235 5.80837 9.867 5.88394 9.86645 5.91709 9.85297 5.94871 9.82944 5.97206L3.91517 12.1247C3.85956 12.1579 3.4645 12.4858 3.65806 11.9882L3.65806 11.9882Z" fill="url(#fill30)" transform="matrix(1.07692 0 0 1 334 218)"/></g></g></g><g clip-path="url(#clip31)"><g clip-path="url(#clip32)"><g clip-path="url(#clip33)"><path d="M379.001 320.465 378.578 320.889C378.503 320.965 378.381 320.965 378.305 320.89L375.161 317.754C375.011 317.604 375.01 317.361 375.161 317.21L375.586 316.783 375.586 316.783 379.003 320.191C379.078 320.266 379.079 320.388 379.003 320.464Z" fill="#50E6FF"/><path d="M378.512 314.109 378.938 314.534C379.014 314.609 379.014 314.731 378.939 314.807L375.582 318.173 375.582 318.173 375.155 317.748C375.005 317.598 375.004 317.354 375.154 317.203L378.241 314.108C378.316 314.034 378.437 314.034 378.512 314.109Z" fill="#1490DF"/><path d="M387.415 316.786 387.84 317.212C387.99 317.363 387.989 317.607 387.839 317.757L384.695 320.892C384.619 320.967 384.497 320.967 384.422 320.892L383.999 320.468C383.924 320.392 383.924 320.27 384 320.195L387.416 316.788 387.416 316.788Z" fill="#50E6FF"/><path d="M387.843 317.746 387.417 318.171 387.417 318.171 384.059 314.804C383.984 314.729 383.984 314.607 384.06 314.532L384.486 314.107C384.561 314.032 384.683 314.032 384.759 314.107L387.845 317.202C387.995 317.353 387.995 317.596 387.844 317.747Z" fill="#1490DF"/><path d="M381.109 318.15 378.517 318.15C378.442 318.153 378.377 318.095 378.373 318.019 378.373 318 378.377 317.982 378.386 317.965L381.493 311.816C381.52 311.768 381.572 311.738 381.628 311.74L384.694 311.74C384.769 311.737 384.833 311.795 384.838 311.87 384.838 311.896 384.829 311.922 384.813 311.943L381.163 316.753 384.723 316.753C384.798 316.75 384.862 316.808 384.867 316.884 384.866 316.917 384.853 316.949 384.829 316.972L378.915 323.125C378.86 323.158 378.465 323.486 378.658 322.988L378.658 322.988Z" fill="url(#fill34)"/></g></g></g><g clip-path="url(#clip35)"><g clip-path="url(#clip36)"><g clip-path="url(#clip37)"><path d="M1.77403 5.59531 2.39532 5.59531C2.5057 5.59531 2.59518 5.68479 2.59518 5.79517L2.59518 10.3972C2.59518 10.6175 2.41655 10.7961 2.19621 10.7961L1.57193 10.7961 1.57193 10.7961 1.57193 5.79442C1.57193 5.68404 1.66141 5.59456 1.77179 5.59456Z" fill="#50E6FF" transform="matrix(-0.73369 0.683213 -0.735768 -0.681284 394.728 414.065)"/><path d="M1.73998 2.69417 2.36338 2.69417C2.47374 2.69417 2.5632 2.78363 2.5632 2.89398L2.5632 7.82057 2.5632 7.82057 1.93905 7.82057C1.71875 7.82057 1.54017 7.64198 1.54017 7.42168L1.54017 2.89249C1.54099 2.78272 1.63021 2.69416 1.73998 2.69417Z" fill="#1490DF" transform="matrix(0.735922 0.681426 -0.733844 0.683356 389.479 402.082)"/><path d="M10.8762 5.59531 11.4998 5.59531C11.7201 5.59531 11.8987 5.77393 11.8987 5.99428L11.8987 10.5963C11.8987 10.7067 11.8093 10.7961 11.6989 10.7961L11.0783 10.7961C10.968 10.7961 10.8785 10.7067 10.8785 10.5963L10.8785 5.59531 10.8785 5.59531Z" fill="#50E6FF" transform="matrix(0.73369 0.683213 -0.735768 0.681284 394.507 396.544)"/><path d="M11.3065 2.69417 11.9299 2.69417 11.9299 2.69417 11.9299 7.62075C11.9299 7.73111 11.8405 7.82057 11.7301 7.82057L11.1067 7.82057C10.9963 7.82057 10.9069 7.73111 10.9069 7.62075L10.9069 3.09156C10.9069 2.87126 11.0855 2.69267 11.3058 2.69267Z" fill="#1490DF" transform="matrix(-0.735922 0.681426 -0.733844 -0.683356 409.128 402.883)"/><path d="M6.10928 7.15 3.51722 7.15C3.44156 7.15289 3.37743 7.09485 3.37278 7.01928 3.3728 7.00045 3.37725 6.9819 3.38578 6.96511L6.4935 0.816111C6.52046 0.767502 6.57227 0.737976 6.62783 0.739556L9.69367 0.739556C9.76933 0.736666 9.83346 0.794705 9.83811 0.870278 9.83785 0.896476 9.82897 0.921859 9.81283 0.9425L6.16344 5.75322 9.72256 5.75322C9.79822 5.75033 9.86235 5.80837 9.867 5.88394 9.86645 5.91709 9.85297 5.94871 9.82944 5.97206L3.91517 12.1247C3.85956 12.1579 3.4645 12.4858 3.65806 11.9882L3.65806 11.9882Z" fill="url(#fill38)" transform="matrix(1.07692 0 0 1 385 402)"/></g></g></g><g clip-path="url(#clip39)"><g clip-path="url(#clip40)"><g clip-path="url(#clip41)"><path d="M1.77403 5.59531 2.39532 5.59531C2.5057 5.59531 2.59518 5.68479 2.59518 5.79517L2.59518 10.3972C2.59518 10.6175 2.41655 10.7961 2.19621 10.7961L1.57193 10.7961 1.57193 10.7961 1.57193 5.79442C1.57193 5.68404 1.66141 5.59456 1.77179 5.59456Z" fill="#50E6FF" transform="matrix(-0.73369 0.683213 -0.735768 -0.681284 453.728 462.065)"/><path d="M1.73998 2.69417 2.36338 2.69417C2.47374 2.69417 2.5632 2.78363 2.5632 2.89398L2.5632 7.82057 2.5632 7.82057 1.93905 7.82057C1.71875 7.82057 1.54017 7.64198 1.54017 7.42168L1.54017 2.89249C1.54099 2.78272 1.63021 2.69416 1.73998 2.69417Z" fill="#1490DF" transform="matrix(0.735922 0.681426 -0.733844 0.683356 448.479 450.082)"/><path d="M10.8762 5.59531 11.4998 5.59531C11.7201 5.59531 11.8987 5.77393 11.8987 5.99428L11.8987 10.5963C11.8987 10.7067 11.8093 10.7961 11.6989 10.7961L11.0783 10.7961C10.968 10.7961 10.8785 10.7067 10.8785 10.5963L10.8785 5.59531 10.8785 5.59531Z" fill="#50E6FF" transform="matrix(0.73369 0.683213 -0.735768 0.681284 453.507 444.544)"/><path d="M11.3065 2.69417 11.9299 2.69417 11.9299 2.69417 11.9299 7.62075C11.9299 7.73111 11.8405 7.82057 11.7301 7.82057L11.1067 7.82057C10.9963 7.82057 10.9069 7.73111 10.9069 7.62075L10.9069 3.09156C10.9069 2.87126 11.0855 2.69267 11.3058 2.69267Z" fill="#1490DF" transform="matrix(-0.735922 0.681426 -0.733844 -0.683356 468.128 450.883)"/><path d="M6.10928 7.15 3.51722 7.15C3.44156 7.15289 3.37743 7.09485 3.37278 7.01928 3.3728 7.00045 3.37725 6.9819 3.38578 6.96511L6.4935 0.816111C6.52046 0.767502 6.57227 0.737976 6.62783 0.739556L9.69367 0.739556C9.76933 0.736666 9.83346 0.794705 9.83811 0.870278 9.83785 0.896476 9.82897 0.921859 9.81283 0.9425L6.16344 5.75322 9.72256 5.75322C9.79822 5.75033 9.86235 5.80837 9.867 5.88394 9.86645 5.91709 9.85297 5.94871 9.82944 5.97206L3.91517 12.1247C3.85956 12.1579 3.4645 12.4858 3.65806 11.9882L3.65806 11.9882Z" fill="url(#fill42)" transform="matrix(1.07692 0 0 1 444 450)"/></g></g></g><g clip-path="url(#clip43)"><g clip-path="url(#clip44)"><g clip-path="url(#clip45)"><path d="M163.001 537.465 162.578 537.889C162.503 537.965 162.381 537.965 162.305 537.89L159.161 534.754C159.011 534.604 159.01 534.36 159.161 534.21L159.586 533.783 159.586 533.783 163.003 537.191C163.078 537.266 163.079 537.388 163.003 537.464Z" fill="#50E6FF"/><path d="M162.512 531.109 162.938 531.534C163.014 531.609 163.014 531.731 162.939 531.807L159.582 535.173 159.582 535.173 159.155 534.748C159.005 534.598 159.004 534.354 159.154 534.203L162.241 531.108C162.316 531.034 162.437 531.034 162.512 531.109Z" fill="#1490DF"/><path d="M171.415 533.786 171.84 534.212C171.99 534.363 171.989 534.607 171.839 534.757L168.695 537.892C168.619 537.967 168.497 537.967 168.422 537.892L167.999 537.468C167.924 537.392 167.924 537.27 168 537.195L171.416 533.788 171.416 533.788Z" fill="#50E6FF"/><path d="M171.843 534.746 171.417 535.171 171.417 535.171 168.059 531.804C167.984 531.729 167.984 531.607 168.06 531.532L168.486 531.107C168.561 531.032 168.683 531.032 168.759 531.107L171.845 534.202C171.995 534.353 171.995 534.596 171.844 534.747Z" fill="#1490DF"/><path d="M165.109 535.15 162.517 535.15C162.442 535.153 162.377 535.095 162.373 535.019 162.373 535 162.377 534.982 162.386 534.965L165.493 528.816C165.52 528.768 165.572 528.738 165.628 528.74L168.694 528.74C168.769 528.737 168.833 528.795 168.838 528.87 168.838 528.896 168.829 528.922 168.813 528.943L165.163 533.753 168.723 533.753C168.798 533.75 168.862 533.808 168.867 533.884 168.866 533.917 168.853 533.949 168.829 533.972L162.915 540.125C162.86 540.158 162.464 540.486 162.658 539.988L162.658 539.988Z" fill="url(#fill46)"/></g></g></g></g></svg>