<svg width="607" height="548" xmlns="http://www.w3.org/2000/svg" xmlns:xlink="http://www.w3.org/1999/xlink" overflow="hidden"><defs><filter id="fx0" x="-10%" y="-10%" width="120%" height="120%" filterUnits="userSpaceOnUse" primitiveUnits="userSpaceOnUse"><feComponentTransfer color-interpolation-filters="sRGB"><feFuncR type="discrete" tableValues="0 0"/><feFuncG type="discrete" tableValues="0 0"/><feFuncB type="discrete" tableValues="0 0"/><feFuncA type="linear" slope="0.431373" intercept="0"/></feComponentTransfer><feGaussianBlur stdDeviation="0.413243 0.413243"/></filter><clipPath id="clip1"><rect x="60" y="69" width="607" height="548"/></clipPath><clipPath id="clip2"><rect x="473" y="237" width="35" height="36"/></clipPath><clipPath id="clip3"><rect x="473" y="237" width="35" height="36"/></clipPath><clipPath id="clip4"><rect x="473" y="237" width="35" height="36"/></clipPath><linearGradient x1="18.0075" y1="-0.707778" x2="12.0906" y2="38.99" gradientUnits="userSpaceOnUse" spreadMethod="pad" id="fill5"><stop offset="0" stop-color="#32BEDD"/><stop offset="1" stop-color="#198AB3"/></linearGradient><linearGradient x1="20.9961" y1="14.3656" x2="28.0797" y2="37.0728" gradientUnits="userSpaceOnUse" spreadMethod="pad" id="fill6"><stop offset="0" stop-color="#50E6FF"/><stop offset="0.997" stop-color="#32BEDD"/><stop offset="1" stop-color="#32BEDD"/></linearGradient><linearGradient x1="-0.326667" y1="7.99944" x2="24.4456" y2="21.1847" gradientUnits="userSpaceOnUse" spreadMethod="pad" id="fill7"><stop offset="0" stop-color="#FFFFFF"/><stop offset="1" stop-color="#9CEBFF"/></linearGradient><clipPath id="clip8"><rect x="11" y="7" width="80" height="14"/></clipPath><clipPath id="clip9"><rect x="0" y="0" width="102" height="34"/></clipPath><clipPath id="clip10"><rect x="496" y="477" width="35" height="35"/></clipPath><clipPath id="clip11"><rect x="496" y="477" width="35" height="35"/></clipPath><clipPath id="clip12"><rect x="496" y="477" width="35" height="35"/></clipPath><linearGradient x1="513.743" y1="509.778" x2="513.743" y2="478.747" gradientUnits="userSpaceOnUse" spreadMethod="pad" id="fill13"><stop offset="0" stop-color="#FEA11B"/><stop offset="0.284" stop-color="#FEA51A"/><stop offset="0.547" stop-color="#FEB018"/><stop offset="0.8" stop-color="#FFC314"/><stop offset="1" stop-color="#FFD70F"/></linearGradient></defs><g clip-path="url(#clip1)" transform="translate(-60 -69)"><rect x="61.5001" y="70.5001" width="605" height="546" stroke="#D9D9D9" stroke-width="1.33333" stroke-miterlimit="8" fill="none"/><path d="M520.5 229.125C520.5 237.202 452.223 243.75 368 243.75 283.777 243.75 215.5 237.202 215.5 229.125 215.5 221.048 283.777 214.5 368 214.5 452.223 214.5 520.5 221.048 520.5 229.125L520.5 316.875C520.5 324.952 452.223 331.5 368 331.5 283.777 331.5 215.5 324.952 215.5 316.875L215.5 229.125" stroke="#2F528F" stroke-width="1.33333" stroke-miterlimit="8" fill="none" fill-rule="evenodd"/><g clip-path="url(#clip2)"><g clip-path="url(#clip3)"><g clip-path="url(#clip4)"><path d="M28.0544 6.51389 17.9531 0.680556C16.3754-0.229373 14.4324-0.229373 12.8547 0.680556L2.75333 6.51389C1.17661 7.4256 0.205173 9.10839 0.204167 10.9297L0.204167 22.5964C0.204479 24.4184 1.17601 26.1021 2.75333 27.0142L12.8644 32.8475C14.4421 33.7574 16.3851 33.7574 17.9628 32.8475L28.0739 27.0142C29.6512 26.1021 30.6227 24.4184 30.6231 22.5964L30.6231 10.9297C30.618 9.10437 29.6386 7.42065 28.0544 6.51389Z" fill="url(#fill5)" transform="matrix(1 0 0 1.02857 473 237)"/><path d="M32.7483 15.0558 25.6453 10.955C24.3775 10.224 22.8161 10.224 21.5483 10.955L14.4472 15.0558C13.1784 15.7856 12.3972 17.1387 12.3997 18.6025L12.3997 26.8042C12.3996 28.2673 13.1801 29.6193 14.4472 30.3508L21.5483 34.4517C22.8161 35.1827 24.3775 35.1827 25.6453 34.4517L32.7483 30.3508C34.0186 29.6212 34.8028 28.2691 34.8056 26.8042L34.8056 18.6025C34.8033 17.1375 34.0189 15.7852 32.7483 15.0558Z" fill="url(#fill6)" transform="matrix(1 0 0 1.02857 473 237)"/><path d="M14.735 5.76139 16.7806 4.62972 25.55 22.8044 24.8383 23.5822 5.5125 23.5822 5.73028 21.2547 22.0267 21.2547 14.735 5.76139Z" fill="url(#fill7)" transform="matrix(1 0 0 1.02857 473 237)"/><path d="M8.22889 22.5264C8.22889 24.1372 6.92305 25.4431 5.31222 25.4431 3.70139 25.4431 2.39556 24.1372 2.39556 22.5264 2.39556 20.9156 3.70139 19.6097 5.31222 19.6097 6.92305 19.6097 8.22889 20.9156 8.22889 22.5264Z" fill="#FFFFFF" transform="matrix(1 0 0 1.02857 473 237)"/><path d="M28.1556 22.7033C28.1556 25.2205 26.115 27.2611 23.5978 27.2611 21.0806 27.2611 19.04 25.2205 19.04 22.7033 19.04 20.1861 21.0806 18.1456 23.5978 18.1456 26.115 18.1456 28.1556 20.1861 28.1556 22.7033Z" fill="#FFFFFF" transform="matrix(1 0 0 1.02857 473 237)"/><path d="M18.5519 4.97389C18.5519 6.58472 17.2461 7.89056 15.6353 7.89056 14.0244 7.89056 12.7186 6.58472 12.7186 4.97389 12.7186 3.36306 14.0244 2.05722 15.6353 2.05722 17.2461 2.05722 18.5519 3.36306 18.5519 4.97389Z" fill="#FFFFFF" transform="matrix(1 0 0 1.02857 473 237)"/></g></g></g><path d="M275.5 273C275.5 267.753 279.753 263.5 285 263.5 290.247 263.5 294.5 267.753 294.5 273 294.5 278.247 290.247 282.5 285 282.5 279.753 282.5 275.5 278.247 275.5 273Z" stroke="#2F528F" stroke-width="1.33333" stroke-miterlimit="8" fill="#4472C4" fill-rule="evenodd"/><path d="M256.5 307C256.5 301.753 260.753 297.5 266 297.5 271.247 297.5 275.5 301.753 275.5 307 275.5 312.247 271.247 316.5 266 316.5 260.753 316.5 256.5 312.247 256.5 307Z" stroke="#2F528F" stroke-width="1.33333" stroke-miterlimit="8" fill="#4472C4" fill-rule="evenodd"/><path d="M294.5 307C294.5 301.753 298.977 297.5 304.5 297.5 310.023 297.5 314.5 301.753 314.5 307 314.5 312.247 310.023 316.5 304.5 316.5 298.977 316.5 294.5 312.247 294.5 307Z" stroke="#2F528F" stroke-width="1.33333" stroke-miterlimit="8" fill="#4472C4" fill-rule="evenodd"/><path d="M0.963581-0.267416 4.81818 13.6219 2.89102 14.1567-0.963581 0.267416ZM7.35237 11.5349 5.63738 20.3132-0.356277 13.6742Z" fill="#4472C4" transform="matrix(-1 0 0 1 277.637 279)"/><path d="M291.964 278.733 295.818 292.622 293.891 293.157 290.036 279.267ZM298.352 290.535 296.637 299.313 290.644 292.674Z" fill="#4472C4"/><path d="M347.5 273C347.5 267.753 351.753 263.5 357 263.5 362.247 263.5 366.5 267.753 366.5 273 366.5 278.247 362.247 282.5 357 282.5 351.753 282.5 347.5 278.247 347.5 273Z" stroke="#2F528F" stroke-width="1.33333" stroke-miterlimit="8" fill="#4472C4" fill-rule="evenodd"/><path d="M328.5 307C328.5 301.753 332.753 297.5 338 297.5 343.247 297.5 347.5 301.753 347.5 307 347.5 312.247 343.247 316.5 338 316.5 332.753 316.5 328.5 312.247 328.5 307Z" stroke="#2F528F" stroke-width="1.33333" stroke-miterlimit="8" fill="#4472C4" fill-rule="evenodd"/><path d="M366.5 307C366.5 301.753 370.753 297.5 376 297.5 381.247 297.5 385.5 301.753 385.5 307 385.5 312.247 381.247 316.5 376 316.5 370.753 316.5 366.5 312.247 366.5 307Z" stroke="#2F528F" stroke-width="1.33333" stroke-miterlimit="8" fill="#4472C4" fill-rule="evenodd"/><path d="M0.963581-0.267416 4.81818 13.6219 2.89102 14.1567-0.963581 0.267416ZM7.35237 11.5349 5.63738 20.3132-0.356277 13.6742Z" fill="#4472C4" transform="matrix(-1 0 0 1 349.637 279)"/><path d="M363.964 278.733 367.818 292.622 365.891 293.157 362.036 279.267ZM370.352 290.535 368.637 299.313 362.644 292.674Z" fill="#4472C4"/><path d="M413.5 307C413.5 301.753 417.753 297.5 423 297.5 428.247 297.5 432.5 301.753 432.5 307 432.5 312.247 428.247 316.5 423 316.5 417.753 316.5 413.5 312.247 413.5 307Z" stroke="#2F528F" stroke-width="1.33333" stroke-miterlimit="8" fill="#4472C4" fill-rule="evenodd"/><path d="M3.80339e-06-1 20.9368-0.99992 20.9368 1.00008-3.80339e-06 1ZM19.6035-3.99993 27.6035 0.000104987 19.6034 4.00007Z" fill="#4472C4" transform="matrix(-1 0 0 1 412.603 306)"/><rect x="215.5" y="104.5" width="305" height="54" stroke="#000000" stroke-width="1.33333" stroke-miterlimit="8" fill="#FFC000"/><text fill="#FFFFFF" font-family="Yu Gothic,Yu Gothic_MSFontService,sans-serif" font-weight="400" font-size="13" transform="translate(327.499 135)">外部システム</text><rect x="208.5" y="112.5" width="306" height="54" stroke="#000000" stroke-width="1.33333" stroke-miterlimit="8" fill="#FFC000"/><text fill="#FFFFFF" font-family="Yu Gothic,Yu Gothic_MSFontService,sans-serif" font-weight="400" font-size="13" transform="translate(321.348 143)">外部システム</text><rect x="204.5" y="119.5" width="305" height="54" stroke="#000000" stroke-width="1.33333" stroke-miterlimit="8" fill="#FFC000"/><g clip-path="url(#clip8)" filter="url(#fx0)" transform="translate(306 132)"><g clip-path="url(#clip9)"><path d="M3.65625-5.89062C4.11328-5.48861 4.49414-5.11621 4.79883-4.77344 5.18815-5.61979 5.48649-6.55924 5.69385-7.5918L3.84668-7.5918C3.30078-6.4196 2.56445-5.33203 1.6377-4.3291 1.52344-4.19792 1.43669-4.13232 1.37744-4.13232 1.3182-4.13232 1.24414-4.21908 1.15527-4.39258 0.998698-4.6888 0.782878-4.95329 0.507812-5.18604 1.7985-6.47672 2.70833-8.01074 3.2373-9.78809 3.33887-10.1309 3.396-10.4715 3.40869-10.8101 3.99268-10.7127 4.4349-10.6175 4.73535-10.5244 4.86654-10.4863 4.93213-10.4271 4.93213-10.3467 4.93213-10.2578 4.90039-10.1838 4.83691-10.1245 4.77767-10.0653 4.69092-9.8431 4.57666-9.45801 4.43278-9.0306 4.35872-8.81055 4.35449-8.79785L5.69385-8.79785C5.86312-8.79785 5.9943-8.82324 6.0874-8.87402 6.15511-8.90788 6.21435-8.9248 6.26514-8.9248 6.39209-8.9248 6.58252-8.80843 6.83643-8.57568 7.09033-8.35563 7.21728-8.2054 7.21729-8.125 7.21728-8.07845 7.17285-8.00439 7.08398-7.90283L7.00781-7.77588C7.36751-7.18766 7.80127-6.6333 8.30908-6.11279L8.30908-8.86133C8.30908-9.72461 8.27311-10.3826 8.20117-10.8354 8.79362-10.8228 9.27181-10.7889 9.63574-10.7339 9.76693-10.7212 9.83252-10.6789 9.83252-10.6069 9.83252-10.5646 9.80924-10.4779 9.7627-10.3467 9.70345-10.1901 9.67383-9.70768 9.67383-8.89941L9.67383-4.96387C10.444-4.42643 11.4618-3.90804 12.7271-3.40869 12.4858-3.09977 12.2954-2.757 12.1558-2.38037 12.0711-2.16455 11.9928-2.05664 11.9209-2.05664 11.8743-2.05664 11.7749-2.09049 11.6226-2.1582 10.8862-2.50521 10.2367-2.86914 9.67383-3.25L9.67383-1.37744 9.69922 0.882324C9.69922 0.950033 9.69075 0.99235 9.67383 1.00928 9.6569 1.02197 9.6167 1.02832 9.55322 1.02832L8.42334 1.02832C8.35563 1.02832 8.31543 1.01986 8.30273 1.00293 8.29004 0.986003 8.28369 0.945801 8.28369 0.882324L8.30908-1.37744 8.30908-4.3291C7.70394-4.89616 7.16227-5.53727 6.68408-6.25244 6.27783-4.68245 5.63672-3.30501 4.76074-2.12012 4.02441-1.12988 3.09131-0.228516 1.96143 0.583984 1.80062 0.706706 1.69694 0.768066 1.65039 0.768066 1.60807 0.768066 1.51286 0.681315 1.36475 0.507812 1.17855 0.26237 0.926758 0.0317383 0.609375-0.184082 2.13281-1.08968 3.31559-2.2238 4.15771-3.58643 3.75993-4.05615 3.33252-4.49837 2.87549-4.91309 2.82471-4.9681 2.79932-5.0083 2.79932-5.03369 2.79932-5.07178 2.82471-5.12256 2.87549-5.18604L3.40869-5.87793C3.45524-5.93717 3.49333-5.9668 3.52295-5.9668 3.5568-5.9668 3.60124-5.94141 3.65625-5.89062ZM22.5946-1.91064C22.6242-1.91064 22.6686-1.91064 22.7279-1.91064 23.8451-1.91064 24.4036-2.26611 24.4036-2.97705 24.4036-3.43408 24.2788-3.86149 24.0291-4.25928 23.7837-4.65283 23.3499-5.13525 22.7279-5.70654 23.223-6.73909 23.6694-7.87533 24.0672-9.11523L22.2454-9.11523 22.2454-1.83447 22.2708 0.882324C22.2708 0.950033 22.2624 0.990234 22.2454 1.00293 22.2285 1.01562 22.1904 1.02197 22.1312 1.02197L21.0838 1.02197C21.0119 1.02197 20.9674 1.01351 20.9505 0.996582 20.9378 0.979655 20.9315 0.941569 20.9315 0.882324L20.9569-1.82178 20.9569-7.43945 20.9315-10.1753C20.9315-10.2472 20.9421-10.2896 20.9632-10.3022 20.9801-10.3149 21.0225-10.3213 21.0902-10.3213L22.2454-10.2959 24.3275-10.2959C24.4883-10.2959 24.5962-10.3086 24.6512-10.334 24.7316-10.3594 24.7972-10.3721 24.848-10.3721 24.9495-10.3721 25.1315-10.2409 25.3939-9.97852 25.6012-9.74154 25.7049-9.56592 25.7049-9.45166 25.7049-9.37126 25.6647-9.29297 25.5843-9.2168 25.5081-9.16178 25.4172-9.00098 25.3114-8.73438 24.922-7.70182 24.5285-6.76237 24.1307-5.91602 24.7951-5.3151 25.2394-4.76074 25.4637-4.25293 25.633-3.86784 25.7176-3.40869 25.7176-2.87549 25.7176-1.54248 24.9538-0.804036 23.4261-0.660156 23.3161-0.651693 23.2441-0.647461 23.2103-0.647461 23.1172-0.647461 23.0558-0.677083 23.0262-0.736328 23.0093-0.778646 22.9881-0.88444 22.9627-1.05371 22.8993-1.41764 22.7765-1.70329 22.5946-1.91064ZM15.9359 0.869629 14.9329 0.869629C14.8356 0.869629 14.7869 0.825195 14.7869 0.736328L14.8123-1.45361 14.8123-2.39307 14.7869-3.84668C14.7869-3.91439 14.7954-3.95459 14.8123-3.96729 14.8293-3.97998 14.8695-3.98633 14.9329-3.98633L16.3739-3.96094 18.2464-3.96094 19.6873-3.98633C19.7635-3.98633 19.8101-3.97786 19.827-3.96094 19.8397-3.94401 19.846-3.90592 19.846-3.84668L19.8206-2.5708 19.8206-1.49805 19.846 0.685547C19.846 0.761719 19.8354 0.808268 19.8143 0.825195 19.7974 0.837891 19.755 0.844238 19.6873 0.844238L18.6908 0.844238C18.6188 0.844238 18.5765 0.833659 18.5638 0.8125 18.5511 0.795573 18.5448 0.753255 18.5448 0.685547L18.5448 0.0888672 16.0755 0.0888672 16.0755 0.736328C16.0755 0.825195 16.029 0.869629 15.9359 0.869629ZM16.0755-2.83105 16.0755-1.05371 18.5448-1.05371 18.5448-2.83105ZM15.8026-4.93213 14.1331-4.90674C14.0485-4.90674 14.0062-4.95329 14.0062-5.04639L14.0062-5.98584C14.0062-6.07894 14.0485-6.12549 14.1331-6.12549L15.8026-6.1001 17.6878-6.1001C17.8698-6.56559 18.0285-7.06071 18.1639-7.58545 18.2104-7.74626 18.2464-7.96208 18.2718-8.23291 18.75-8.14404 19.1266-8.05729 19.4017-7.97266 19.5329-7.93034 19.5985-7.87321 19.5985-7.80127 19.5985-7.73356 19.5646-7.66585 19.4969-7.59814 19.4334-7.53467 19.3763-7.4331 19.3255-7.29346 19.1986-6.89144 19.0505-6.49365 18.8812-6.1001L20.3475-6.12549C20.4194-6.12549 20.4618-6.11702 20.4744-6.1001 20.4871-6.08317 20.4935-6.04508 20.4935-5.98584L20.4935-5.04639C20.4935-4.97868 20.485-4.93848 20.4681-4.92578 20.4512-4.91309 20.411-4.90674 20.3475-4.90674L18.6971-4.93213ZM16.0311-8.42334 14.4378-8.39795C14.3659-8.39795 14.3236-8.40641 14.3109-8.42334 14.2982-8.44027 14.2918-8.47835 14.2918-8.5376L14.2918-9.45166C14.2918-9.5236 14.3003-9.56803 14.3172-9.58496 14.3341-9.59766 14.3743-9.604 14.4378-9.604L16.0311-9.57861 16.6214-9.57861 16.6214-9.81348C16.6214-10.2959 16.5939-10.6556 16.5389-10.8926 16.814-10.8841 17.252-10.8545 17.8529-10.8037 17.9925-10.7868 18.0623-10.7466 18.0623-10.6831 18.0623-10.6323 18.0327-10.5456 17.9735-10.4229 17.9354-10.3424 17.9163-10.1351 17.9163-9.80078L17.9163-9.57861 18.5828-9.57861 20.1698-9.604C20.2375-9.604 20.2777-9.59554 20.2904-9.57861 20.3031-9.56169 20.3094-9.51937 20.3094-9.45166L20.3094-8.5376C20.3094-8.46989 20.3009-8.42969 20.284-8.41699 20.2671-8.4043 20.229-8.39795 20.1698-8.39795L18.5828-8.42334ZM15.1615-7.83936C15.1445-7.88167 15.1361-7.91341 15.1361-7.93457 15.1361-7.96842 15.1932-8.00228 15.3075-8.03613L16.0184-8.22656C16.0734-8.23926 16.1136-8.24561 16.139-8.24561 16.1898-8.24561 16.2321-8.2054 16.266-8.125 16.4606-7.62565 16.6003-7.14958 16.6849-6.69678 16.6891-6.66292 16.6912-6.63753 16.6912-6.62061 16.6912-6.57829 16.6362-6.53809 16.5262-6.5L15.7581-6.27783C15.6989-6.2609 15.6566-6.25244 15.6312-6.25244 15.5804-6.25244 15.5465-6.30534 15.5296-6.41113 15.4365-6.98242 15.3138-7.4585 15.1615-7.83936ZM27.9552-5.65576C27.9806-5.69385 28.1245-5.92871 28.3869-6.36035 28.5011-6.54655 28.5879-6.67985 28.6471-6.76025 28.7106-6.84912 28.7762-6.89355 28.8439-6.89355 28.8608-6.89355 28.8757-6.89144 28.8883-6.88721 29.7897-6.58675 30.6234-6.16146 31.3893-5.61133 31.4824-5.54362 31.529-5.48014 31.529-5.4209 31.529-5.39128 31.512-5.34261 31.4782-5.2749 31.3682-5.0083 31.1777-4.67822 30.9069-4.28467 30.835-4.20003 30.7778-4.15771 30.7355-4.15771 30.6974-4.15771 30.6466-4.18311 30.5832-4.23389 29.8426-4.77979 28.9666-5.25374 27.9552-5.65576ZM29.5295-8.70898 30.215-9.75C30.2743-9.84733 30.3356-9.896 30.3991-9.896 30.4372-9.896 30.4858-9.88118 30.5451-9.85156 31.5311-9.45378 32.3457-8.97347 32.9889-8.41064 33.0566-8.36409 33.0905-8.30697 33.0905-8.23926 33.0905-8.18424 33.0736-8.12923 33.0397-8.07422 32.79-7.62565 32.5679-7.2998 32.3732-7.09668 32.3436-7.0459 32.3013-7.02051 32.2463-7.02051 32.1912-7.02051 32.1257-7.05013 32.0495-7.10938 31.237-7.78223 30.397-8.31543 29.5295-8.70898ZM28.9836-1.30127C29.5337-1.40706 30.1219-1.61865 30.7482-1.93604 32.1532-2.67659 33.3402-3.42562 34.3092-4.18311 35.6507-5.20719 36.8991-6.41748 38.0544-7.81396 38.1136-7.40348 38.2406-6.91683 38.4352-6.354 38.4775-6.25244 38.4987-6.16992 38.4987-6.10645 38.4987-6.00488 38.4521-5.90544 38.3591-5.80811 37.3688-4.75016 36.2664-3.74935 35.0519-2.80566 34.0448-2.03971 32.7498-1.2251 31.1672-0.361816 30.7101-0.116374 30.4583 0.0317383 30.4118 0.0825195 30.3441 0.150228 30.2743 0.184082 30.2023 0.184082 30.1092 0.184082 30.0225 0.131185 29.9421 0.0253906 29.6966-0.220052 29.3771-0.662272 28.9836-1.30127ZM47.9346-4.75439C49.1449-3.85726 50.3446-2.8099 51.5337-1.6123 51.6014-1.5446 51.6353-1.48324 51.6353-1.42822 51.6353-1.37321 51.6056-1.30973 51.5464-1.23779 51.2713-0.903483 50.9814-0.607259 50.6768-0.349121 50.6217-0.29834 50.5688-0.272949 50.5181-0.272949 50.4673-0.272949 50.4059-0.306803 50.334-0.374512 49.3564-1.52132 48.2308-2.59619 46.957-3.59912 45.5986-2.18148 44.1429-1.03678 42.5898-0.165039 42.4333-0.0973307 42.3338-0.0634766 42.2915-0.0634766 42.2069-0.0634766 42.1328-0.101562 42.0693-0.177734 41.8281-0.47819 41.4642-0.761719 40.9775-1.02832 42.0228-1.55729 42.9199-2.10319 43.6689-2.66602 44.2783-3.12305 44.9067-3.68164 45.5542-4.3418 46.481-5.30241 47.2956-6.38997 47.998-7.60449L44.6465-7.5918C43.9779-7.5918 43.2923-7.56429 42.5898-7.50928 42.5052-7.50081 42.4481-7.57487 42.4185-7.73145 42.3423-8.05729 42.3042-8.50797 42.3042-9.0835 42.7697-9.04964 43.5018-9.03271 44.5005-9.03271L48.0742-9.03271C48.527-9.03271 48.8254-9.07292 48.9692-9.15332 49.0158-9.18717 49.0645-9.2041 49.1152-9.2041 49.1576-9.2041 49.2316-9.17025 49.3374-9.10254 49.6167-8.88249 49.8981-8.5778 50.1816-8.18848 50.224-8.11654 50.2451-8.06152 50.2451-8.02344 50.2451-7.93457 50.188-7.84782 50.0737-7.76318 49.896-7.60661 49.7373-7.41406 49.5977-7.18555 49.111-6.36035 48.5566-5.54997 47.9346-4.75439ZM60.7791-5.31934C60.7368-4.52799 60.6543-3.88265 60.5316-3.3833 60.4216-2.91781 60.248-2.45866 60.0111-2.00586 59.7445-1.47689 59.3763-0.973307 58.9066-0.495117 58.5173-0.101563 58.1237 0.213704 57.7259 0.450684 57.5609 0.556478 57.4318 0.609375 57.3387 0.609375 57.2414 0.609375 57.1504 0.567057 57.0658 0.482422 56.7865 0.203125 56.3993-0.0275065 55.9041-0.209473 56.6024-0.5861 57.1525-0.958496 57.5545-1.32666 57.9312-1.67367 58.2443-2.07357 58.494-2.52637 58.7394-2.96224 58.9087-3.40869 59.0018-3.86572 59.078-4.23389 59.1287-4.71842 59.1541-5.31934L56.6849-5.31934C56.2702-5.31934 55.6206-5.29395 54.7362-5.24316 54.6388-5.23047 54.5817-5.31299 54.5648-5.49072 54.4971-5.88004 54.4632-6.29476 54.4632-6.73486 54.9499-6.69255 55.6862-6.67139 56.6722-6.67139L62.512-6.67139C63.4388-6.67139 64.283-6.69678 65.0448-6.74756 65.1379-6.74756 65.1844-6.66081 65.1844-6.4873 65.1929-6.39844 65.1971-6.23128 65.1971-5.98584 65.1971-5.74463 65.1929-5.57959 65.1844-5.49072 65.1844-5.34261 65.1209-5.26855 64.994-5.26855 64.0757-5.30241 63.2526-5.31934 62.5247-5.31934ZM56.0501-9.75C56.8076-9.70768 57.527-9.68652 58.2083-9.68652L61.1219-9.68652C62.0106-9.68652 62.7406-9.70345 63.3119-9.7373 63.4176-9.7373 63.4705-9.65479 63.4705-9.48975 63.4832-9.32894 63.4896-9.17236 63.4896-9.02002 63.4896-8.85921 63.4832-8.70052 63.4705-8.54395 63.4705-8.37891 63.4134-8.29639 63.2992-8.29639 62.5924-8.32178 61.8667-8.33447 61.1219-8.33447L58.2083-8.33447C57.9629-8.33447 57.3472-8.31754 56.3612-8.28369 56.2257-8.28369 56.1517-8.35775 56.139-8.50586 56.1263-8.62435 56.1115-8.82747 56.0946-9.11523 56.0734-9.41146 56.0586-9.62305 56.0501-9.75ZM72.1447-10.2197C73.0122-9.96159 73.5962-9.73519 73.8967-9.54053 74.0024-9.46859 74.0553-9.39876 74.0553-9.33105 74.0553-9.25911 74.0109-9.17236 73.922-9.0708 73.7655-8.86768 73.5898-8.50797 73.3952-7.9917 72.3923-5.25798 71.6453-3.30924 71.1545-2.14551 73.1011-2.31055 74.6182-2.47559 75.7057-2.64062 75.2656-3.41927 74.7832-4.11117 74.2585-4.71631L75.3947-5.34473C75.4412-5.37012 75.4814-5.38281 75.5153-5.38281 75.5745-5.38281 75.638-5.34473 75.7057-5.26855 76.7383-4.0625 77.6143-2.64486 78.3337-1.01562 78.3675-0.95638 78.3844-0.899251 78.3844-0.844238 78.3844-0.759603 78.3273-0.685547 78.2131-0.62207 77.9338-0.435872 77.6058-0.258138 77.2292-0.0888672 77.1742-0.0634766 77.1213-0.0507812 77.0705-0.0507812 76.9901-0.0507812 76.9287-0.112142 76.8864-0.234863 76.6579-0.768066 76.5055-1.11507 76.4294-1.27588 74.8298-1.03467 72.7731-0.782878 70.2594-0.520508 69.4977-0.440104 68.9899-0.33431 68.736-0.203125 68.6768-0.177734 68.6217-0.165039 68.571-0.165039 68.4694-0.165039 68.3996-0.222168 68.3615-0.336426 68.2642-0.543783 68.1118-1.10238 67.9045-2.01221 68.1414-1.99528 68.4059-1.98682 68.6979-1.98682 68.8376-1.98682 69.1021-1.99105 69.4914-1.99951 70.3504-4.17041 71.1079-6.31592 71.7638-8.43604 71.9881-9.1639 72.1151-9.75846 72.1447-10.2197Z" fill="#FFFFFF" transform="translate(11.3794 19)"/></g></g><text fill="#FFFFFF" font-family="Yu Gothic,Yu Gothic_MSFontService,sans-serif" font-weight="700" font-size="13" transform="translate(316.503 150)">外部システム</text><path d="M344.5 194 370 168.5 395.5 194 382.75 194 382.75 232.5 357.25 232.5 357.25 194Z" stroke="#2F528F" stroke-width="1.33333" stroke-miterlimit="8" stroke-opacity="0.501961" fill="#4472C4" fill-rule="evenodd" fill-opacity="0.501961"/><text font-family="Arial,Arial_MSFontService,sans-serif" font-weight="400" font-size="13" transform="translate(399.872 194)">•<tspan font-family="Yu Gothic,Yu Gothic_MSFontService,sans-serif" font-size="13" x="18" y="0">Twin Graph </tspan><tspan font-family="Yu Gothic,Yu Gothic_MSFontService,sans-serif" font-size="13" x="92.8333" y="0">の参照</tspan><tspan font-size="13" x="0" y="16">•</tspan><tspan font-family="Yu Gothic,Yu Gothic_MSFontService,sans-serif" font-size="13" x="18" y="16">Twin</tspan><tspan font-family="Yu Gothic,Yu Gothic_MSFontService,sans-serif" font-size="13" x="51.6667" y="16">Graph</tspan><tspan font-family="Yu Gothic,Yu Gothic_MSFontService,sans-serif" font-size="13" x="92.8333" y="16">更新の通知</tspan></text><rect x="191.5" y="360.5" width="356" height="167" stroke="#2F528F" stroke-width="1.33333" stroke-miterlimit="8" fill="none"/><g clip-path="url(#clip10)"><g clip-path="url(#clip11)"><g clip-path="url(#clip12)"><path d="M506.773 502.482 505.633 503.625C505.431 503.828 505.102 503.828 504.899 503.626L496.434 495.185C496.029 494.781 496.028 494.124 496.432 493.719L497.577 492.571 497.577 492.571 506.778 501.745C506.981 501.948 506.981 502.276 506.779 502.479Z" fill="#50E6FF"/><path d="M505.457 485.371 506.603 486.514C506.807 486.717 506.807 487.045 506.605 487.249L497.566 496.312 497.566 496.312 496.418 495.167C496.013 494.763 496.012 494.107 496.416 493.702L504.725 485.369C504.928 485.168 505.255 485.169 505.457 485.371Z" fill="#1490DF"/><path d="M529.424 492.579 530.568 493.726C530.972 494.131 530.971 494.787 530.566 495.191L522.101 503.632C521.898 503.835 521.569 503.834 521.367 503.631L520.229 502.49C520.026 502.287 520.026 501.958 520.23 501.756L529.428 492.583 529.428 492.583Z" fill="#50E6FF"/><path d="M530.576 495.162 529.429 496.306 529.429 496.306 520.391 487.242C520.188 487.039 520.189 486.71 520.392 486.508L521.539 485.364C521.742 485.162 522.07 485.162 522.273 485.365L530.582 493.698C530.986 494.103 530.985 494.76 530.58 495.164Z" fill="#1490DF"/><path d="M512.448 496.25 505.469 496.25C505.266 496.258 505.093 496.102 505.081 495.898 505.081 495.847 505.093 495.797 505.116 495.752L513.482 479.197C513.555 479.066 513.695 478.987 513.844 478.991L522.098 478.991C522.302 478.983 522.475 479.14 522.487 479.343 522.487 479.414 522.463 479.482 522.419 479.538L512.594 492.489 522.176 492.489C522.38 492.482 522.552 492.638 522.565 492.841 522.564 492.931 522.527 493.016 522.464 493.079L506.541 509.643C506.391 509.733 505.328 510.616 505.849 509.276L505.849 509.276Z" fill="url(#fill13)"/></g></g></g><path d="M208.5 453.334C208.5 446.798 213.798 441.5 220.334 441.5L452.666 441.5C459.202 441.5 464.5 446.798 464.5 453.334L464.5 500.667C464.5 507.202 459.202 512.5 452.666 512.5L220.334 512.5C213.798 512.5 208.5 507.202 208.5 500.667Z" stroke="#4472C4" stroke-width="1.33333" stroke-miterlimit="8" fill="#FFFFFF" fill-rule="evenodd"/><text font-family="Arial,Arial_MSFontService,sans-serif" font-weight="400" font-size="13" transform="translate(221.491 464)">•<tspan font-family="Yu Gothic,Yu Gothic_MSFontService,sans-serif" font-size="13" x="18" y="0">Telemetry</tspan><tspan font-family="Yu Gothic,Yu Gothic_MSFontService,sans-serif" font-size="13" x="83.6667" y="0">送信</tspan><tspan font-size="13" x="0" y="16">•</tspan><tspan font-family="Yu Gothic,Yu Gothic_MSFontService,sans-serif" font-size="13" x="18" y="16">ドメインオペレーション</tspan><tspan font-size="13" x="0" y="32">•</tspan><tspan font-family="Yu Gothic,Yu Gothic_MSFontService,sans-serif" font-size="13" x="18" y="32">概念情報クラス</tspan><tspan font-family="Yu Gothic,Yu Gothic_MSFontService,sans-serif" font-size="13" x="111.333" y="32">のオペレーション</tspan></text><path d="M204.5 148 180.5 148 182 146.5 182 476.562 180.5 475.062 201.834 475.062 201.834 478.062 179 478.062 179 145 204.5 145ZM200.334 472.062 209.334 476.562 200.334 481.062Z" fill="#4472C4"/><path d="M210.5 384.834C210.5 381.336 213.336 378.5 216.834 378.5L351.167 378.5C354.664 378.5 357.5 381.336 357.5 384.834L357.5 410.167C357.5 413.664 354.664 416.5 351.167 416.5L216.834 416.5C213.336 416.5 210.5 413.664 210.5 410.167Z" stroke="#4472C4" stroke-width="1.33333" stroke-miterlimit="8" fill="#FFFFFF" fill-rule="evenodd"/><text font-family="Arial,Arial_MSFontService,sans-serif" font-weight="400" font-size="13" transform="translate(221.312 401)">•<tspan font-family="Yu Gothic,Yu Gothic_MSFontService,sans-serif" font-size="13" x="18" y="0">Telemetry</tspan><tspan font-family="Yu Gothic,Yu Gothic_MSFontService,sans-serif" font-size="13" x="83.6667" y="0">送信</tspan></text><path d="M204.5 148 180.5 148 182 146.5 182 397.24 180.5 395.74 203.243 395.74 203.243 398.74 179 398.74 179 145 204.5 145ZM201.743 392.74 210.743 397.24 201.743 401.74Z" fill="#4472C4"/><path d="M412.5 340 438 314.5 463.5 340 450.75 340 450.75 435 463.5 435 438 460.5 412.5 435 425.25 435 425.25 340Z" stroke="#2F528F" stroke-width="1.33333" stroke-miterlimit="8" stroke-opacity="0.501961" fill="#4472C4" fill-rule="evenodd" fill-opacity="0.501961"/><path d="M386.5 380.834C386.5 376.231 390.231 372.5 394.834 372.5L523.167 372.5C527.769 372.5 531.5 376.231 531.5 380.834L531.5 414.167C531.5 418.769 527.769 422.5 523.167 422.5L394.834 422.5C390.231 422.5 386.5 418.769 386.5 414.167Z" stroke="#4472C4" stroke-width="1.33333" stroke-miterlimit="8" fill="#FFFFFF" fill-rule="evenodd"/><text font-family="Arial,Arial_MSFontService,sans-serif" font-weight="400" font-size="13" transform="translate(398.205 393)">•<tspan font-family="Yu Gothic,Yu Gothic_MSFontService,sans-serif" font-size="13" x="18" y="0">インスタンスの</tspan><tspan font-family="Yu Gothic,Yu Gothic_MSFontService,sans-serif" font-size="13" x="18" y="16">状態モデル</tspan></text><path d="M357.5 396 373.836 396 373.836 397.664 372.336 396.164 379.673 396.164 379.673 399.164 370.836 399.164 370.836 397.5 372.336 399 357.5 399ZM378.173 393.164 387.173 397.664 378.173 402.164Z" fill="#4472C4"/><path d="M110.5 345.168C110.5 318.842 131.842 297.5 158.168 297.5L561.833 297.5C588.159 297.5 609.5 318.842 609.5 345.168L609.5 535.833C609.5 562.159 588.159 583.5 561.833 583.5L158.168 583.5C131.842 583.5 110.5 562.159 110.5 535.833Z" stroke="#2F528F" stroke-width="1.33333" stroke-miterlimit="8" stroke-dasharray="5.33333 4" fill="none" fill-rule="evenodd"/><text font-family="Yu Gothic,Yu Gothic_MSFontService,sans-serif" font-weight="400" font-size="13" transform="translate(247.243 559)">本稿の“変換による自動生成”の対象範囲</text></g></svg>