<svg width="607" height="565" xmlns="http://www.w3.org/2000/svg" xmlns:xlink="http://www.w3.org/1999/xlink" overflow="hidden"><defs><clipPath id="clip0"><rect x="34" y="30" width="607" height="565"/></clipPath></defs><g clip-path="url(#clip0)" transform="translate(-34 -30)"><rect x="35.5001" y="32.5001" width="605" height="562" stroke="#D9D9D9" stroke-width="1.33333" stroke-miterlimit="8" fill="none"/><path d="M113 500C113 489.507 121.73 481 132.5 481 143.27 481 152 489.507 152 500 152 510.493 143.27 519 132.5 519 121.73 519 113 510.493 113 500Z" stroke="#4472C4" stroke-width="2" stroke-miterlimit="8" fill="#FFFFFF" fill-rule="evenodd"/><text font-family="Yu Gothic,Yu Gothic_MSFontService,sans-serif" font-weight="400" font-size="13" transform="translate(128.781 504)">1</text><path d="M190 500C190 489.507 198.507 481 209 481 219.493 481 228 489.507 228 500 228 510.493 219.493 519 209 519 198.507 519 190 510.493 190 500Z" stroke="#4472C4" stroke-width="2" stroke-miterlimit="8" fill="#FFFFFF" fill-rule="evenodd"/><text font-family="Yu Gothic,Yu Gothic_MSFontService,sans-serif" font-weight="400" font-size="13" transform="translate(205.46 504)">2</text><path d="M267 500C267 489.507 275.507 481 286 481 296.493 481 305 489.507 305 500 305 510.493 296.493 519 286 519 275.507 519 267 510.493 267 500Z" stroke="#4472C4" stroke-width="2" stroke-miterlimit="8" fill="#FFFFFF" fill-rule="evenodd"/><text font-family="Yu Gothic,Yu Gothic_MSFontService,sans-serif" font-weight="400" font-size="13" transform="translate(282.139 504)">3</text><path d="M343 500C343 489.507 351.73 481 362.5 481 373.27 481 382 489.507 382 500 382 510.493 373.27 519 362.5 519 351.73 519 343 510.493 343 500Z" stroke="#4472C4" stroke-width="2" stroke-miterlimit="8" fill="#FFFFFF" fill-rule="evenodd"/><text font-family="Yu Gothic,Yu Gothic_MSFontService,sans-serif" font-weight="400" font-size="13" transform="translate(358.818 504)">4</text><path d="M445 500C445 489.507 453.507 481 464 481 474.493 481 483 489.507 483 500 483 510.493 474.493 519 464 519 453.507 519 445 510.493 445 500Z" stroke="#4472C4" stroke-width="2" stroke-miterlimit="8" fill="#FFFFFF" fill-rule="evenodd"/><text font-family="Yu Gothic,Yu Gothic_MSFontService,sans-serif" font-weight="400" font-size="13" transform="translate(459.945 504)">8</text><path d="M521 500C521 489.507 529.507 481 540 481 550.493 481 559 489.507 559 500 559 510.493 550.493 519 540 519 529.507 519 521 510.493 521 500Z" stroke="#4472C4" stroke-width="2" stroke-miterlimit="8" fill="#FFFFFF" fill-rule="evenodd"/><text font-family="Yu Gothic,Yu Gothic_MSFontService,sans-serif" font-weight="400" font-size="13" transform="translate(536.624 504)">9</text><path d="M152 500 190.529 500" stroke="#4472C4" stroke-width="2" stroke-miterlimit="8" fill="none" fill-rule="evenodd"/><path d="M228 500 266.529 500" stroke="#4472C4" stroke-width="2" stroke-miterlimit="8" fill="none" fill-rule="evenodd"/><path d="M305 500 343.529 500" stroke="#4472C4" stroke-width="2" stroke-miterlimit="8" fill="none" fill-rule="evenodd"/><path d="M483 500 521.529 500" stroke="#4472C4" stroke-width="2" stroke-miterlimit="8" fill="none" fill-rule="evenodd"/><path d="M385 500 437.913 500" stroke="#4472C4" stroke-width="2" stroke-miterlimit="8" stroke-dasharray="2 2" fill="none" fill-rule="evenodd"/><text font-family="Yu Gothic,Yu Gothic_MSFontService,sans-serif" font-weight="400" font-size="13" transform="translate(94.2347 453)">predecessor<tspan font-size="13" x="86.152" y="0">successor</tspan></text><path d="M132.798 462.351 133.096 462.947 132.5 463.245 132.202 462.649ZM133.394 463.544 133.693 464.14 133.096 464.438 132.798 463.842ZM133.991 464.736 134.289 465.332 133.693 465.631 133.394 465.034ZM134.587 465.929 134.885 466.525 134.289 466.823 133.991 466.227ZM135.183 467.121 135.481 467.718 134.885 468.016 134.587 467.419ZM135.78 468.314 136.078 468.91 135.481 469.208 135.183 468.612ZM136.376 469.506 136.674 470.103 136.078 470.401 135.78 469.805ZM136.972 470.699 137.27 471.295 136.674 471.593 136.376 470.997ZM137.568 471.892 137.867 472.488 137.27 472.786 136.972 472.19ZM138.165 473.084 138.463 473.68 137.867 473.979 137.568 473.382ZM138.761 474.277 139.059 474.873 138.463 475.171 138.165 474.575ZM139.357 475.469 139.655 476.066 139.059 476.364 138.761 475.767ZM139.954 476.662 140.252 477.258 139.655 477.556 139.357 476.96ZM140.55 477.854 140.848 478.451 140.252 478.749 139.954 478.153ZM141.146 479.047 141.444 479.643 140.848 479.941 140.55 479.345ZM141.742 480.24 142.041 480.836 141.444 481.134 141.146 480.538ZM142.339 481.432 142.637 482.028 142.041 482.327 141.742 481.73ZM142.935 482.625 143.233 483.221 142.637 483.519 142.339 482.923ZM143.531 483.817 143.829 484.414 143.233 484.712 142.935 484.115ZM144.128 485.01 144.426 485.606 143.829 485.904 143.531 485.308ZM144.724 486.202 145.022 486.799 144.426 487.097 144.128 486.501ZM145.32 487.395 145.618 487.991 145.022 488.289 144.724 487.693ZM145.916 488.587 146.215 489.184 145.618 489.482 145.32 488.886ZM146.513 489.78 146.811 490.376 146.215 490.674 145.916 490.078ZM147.109 490.973 147.407 491.569 146.811 491.867 146.513 491.271ZM147.705 492.165 148.003 492.762 147.407 493.06 147.109 492.463ZM148.302 493.358 148.6 493.954 148.003 494.252 147.705 493.656ZM148.898 494.55 149.196 495.147 148.6 495.445 148.302 494.848ZM149.494 495.743 149.792 496.339 149.196 496.637 148.898 496.041ZM150.09 496.935 150.389 497.532 149.792 497.83 149.494 497.234ZM150.687 498.128 150.985 498.724 150.389 499.022 150.09 498.426ZM151.283 499.321 151.581 499.917 150.985 500.215 150.687 499.619ZM155.153 498.861C156.141 500.837 155.34 503.239 153.364 504.227 151.388 505.215 148.985 504.414 147.997 502.439 147.009 500.463 147.81 498.06 149.786 497.072 151.762 496.084 154.165 496.885 155.153 498.861Z" fill="#ED7D31"/><path d="M0.290185-0.164023 0.618232 0.416347 0.0378616 0.744394-0.290185 0.164023ZM0.946279 0.996717 1.27433 1.57709 0.693955 1.90513 0.365908 1.32476ZM1.60237 2.15746 1.93042 2.73783 1.35005 3.06587 1.022 2.4855ZM2.25847 3.3182 2.58651 3.89857 2.00614 4.22662 1.6781 3.64625ZM2.91456 4.47894 3.24261 5.05931 2.66224 5.38736 2.33419 4.80699ZM3.57065 5.63968 3.8987 6.22005 3.31833 6.5481 2.99028 5.96773ZM4.22675 6.80042 4.55479 7.38079 3.97442 7.70884 3.64638 7.12847ZM4.88284 7.96116 5.21089 8.54153 4.63052 8.86958 4.30247 8.28921ZM5.53893 9.1219 5.86698 9.70227 5.28661 10.0303 4.95856 9.44995ZM6.19503 10.2826 6.52307 10.863 5.9427 11.1911 5.61466 10.6107ZM6.85112 11.4434 7.17917 12.0238 6.5988 12.3518 6.27075 11.7714ZM7.50721 12.6041 7.83526 13.1845 7.25489 13.5125 6.92684 12.9322ZM8.16331 13.7649 8.49136 14.3452 7.91098 14.6733 7.58294 14.0929ZM8.8194 14.9256 9.14745 15.506 8.56708 15.834 8.23903 15.2537ZM9.4755 16.0863 9.80354 16.6667 9.22317 16.9948 8.89513 16.4144ZM10.1316 17.2471 10.4596 17.8275 9.87927 18.1555 9.55122 17.5751ZM10.7877 18.4078 11.1157 18.9882 10.5354 19.3162 10.2073 18.7359ZM11.4438 19.5686 11.7718 20.1489 11.1915 20.477 10.8634 19.8966ZM12.0999 20.7293 12.4279 21.3097 11.8475 21.6377 11.5195 21.0574ZM12.756 21.8901 13.084 22.4704 12.5036 22.7985 12.1756 22.2181ZM13.4121 23.0508 13.7401 23.6312 13.1597 23.9592 12.8317 23.3788ZM14.0682 24.2115 14.3962 24.7919 13.8158 25.12 13.4878 24.5396ZM14.7242 25.3723 15.0523 25.9527 14.4719 26.2807 14.1439 25.7003ZM15.3803 26.533 15.7084 27.1134 15.128 27.4414 14.8 26.8611ZM16.0364 27.6938 16.3645 28.2741 15.7841 28.6022 15.4561 28.0218ZM16.6925 28.8545 17.0206 29.4349 16.4402 29.7629 16.1122 29.1825ZM17.3486 30.0152 17.6767 30.5956 17.0963 30.9237 16.7682 30.3433ZM18.0047 31.176 18.3328 31.7564 17.7524 32.0844 17.4243 31.504ZM18.6608 32.3367 18.9888 32.9171 18.4085 33.2451 18.0804 32.6648ZM19.3169 33.4975 19.6449 34.0778 19.0646 34.4059 18.7365 33.8255ZM19.973 34.6582 20.301 35.2386 19.7207 35.5666 19.3926 34.9863ZM20.6291 35.8189 20.9571 36.3993 20.3768 36.7274 20.0487 36.147ZM21.2852 36.9797 21.6132 37.56 21.0329 37.8881 20.7048 37.3077ZM25.0458 36.1813C26.1328 38.1045 25.455 40.5448 23.5318 41.6318 21.6087 42.7189 19.1684 42.0411 18.0813 40.1179 16.9943 38.1947 17.6721 35.7544 19.5953 34.6674 21.5185 33.5803 23.9587 34.2581 25.0458 36.1813Z" fill="#ED7D31" transform="matrix(-1 0 0 1 212.064 462.5)"/><text font-family="Yu Gothic,Yu Gothic_MSFontService,sans-serif" font-weight="400" font-size="13" transform="translate(424.043 453)">predecessor<tspan font-size="13" x="86.152" y="0">successor</tspan></text><path d="M462.798 462.351 463.096 462.947 462.5 463.245 462.202 462.649ZM463.395 463.544 463.693 464.14 463.096 464.438 462.798 463.842ZM463.991 464.736 464.289 465.332 463.693 465.631 463.395 465.034ZM464.587 465.929 464.885 466.525 464.289 466.823 463.991 466.227ZM465.183 467.121 465.481 467.718 464.885 468.016 464.587 467.419ZM465.78 468.314 466.078 468.91 465.482 469.208 465.183 468.612ZM466.376 469.506 466.674 470.103 466.078 470.401 465.78 469.805ZM466.972 470.699 467.27 471.295 466.674 471.593 466.376 470.997ZM467.568 471.892 467.867 472.488 467.27 472.786 466.972 472.19ZM468.165 473.084 468.463 473.68 467.867 473.979 467.568 473.382ZM468.761 474.277 469.059 474.873 468.463 475.171 468.165 474.575ZM469.357 475.469 469.655 476.066 469.059 476.364 468.761 475.767ZM469.954 476.662 470.252 477.258 469.655 477.556 469.357 476.96ZM470.55 477.854 470.848 478.451 470.252 478.749 469.954 478.153ZM471.146 479.047 471.444 479.643 470.848 479.941 470.55 479.345ZM471.742 480.24 472.041 480.836 471.444 481.134 471.146 480.538ZM472.339 481.432 472.637 482.028 472.041 482.327 471.742 481.73ZM472.935 482.625 473.233 483.221 472.637 483.519 472.339 482.923ZM473.531 483.817 473.829 484.414 473.233 484.712 472.935 484.115ZM474.128 485.01 474.426 485.606 473.829 485.904 473.531 485.308ZM474.724 486.202 475.022 486.799 474.426 487.097 474.128 486.501ZM475.32 487.395 475.618 487.991 475.022 488.289 474.724 487.693ZM475.917 488.587 476.215 489.184 475.618 489.482 475.32 488.886ZM476.513 489.78 476.811 490.376 476.215 490.674 475.917 490.078ZM477.109 490.973 477.407 491.569 476.811 491.867 476.513 491.271ZM477.705 492.165 478.004 492.762 477.407 493.06 477.109 492.463ZM478.302 493.358 478.6 493.954 478.004 494.252 477.705 493.656ZM478.898 494.55 479.196 495.147 478.6 495.445 478.302 494.848ZM479.494 495.743 479.792 496.339 479.196 496.637 478.898 496.041ZM480.09 496.935 480.389 497.532 479.792 497.83 479.494 497.234ZM480.687 498.128 480.985 498.724 480.389 499.022 480.091 498.426ZM481.283 499.321 481.581 499.917 480.985 500.215 480.687 499.619ZM485.153 498.861C486.141 500.837 485.34 503.239 483.364 504.227 481.388 505.215 478.985 504.414 477.997 502.439 477.009 500.463 477.81 498.06 479.786 497.072 481.762 496.084 484.165 496.885 485.153 498.861Z" fill="#ED7D31"/><path d="M0.290185-0.164023 0.618232 0.416347 0.0378616 0.744394-0.290185 0.164023ZM0.946279 0.996717 1.27433 1.57709 0.693955 1.90513 0.365908 1.32476ZM1.60237 2.15746 1.93042 2.73783 1.35005 3.06587 1.022 2.4855ZM2.25847 3.3182 2.58651 3.89857 2.00614 4.22662 1.6781 3.64625ZM2.91456 4.47894 3.24261 5.05931 2.66224 5.38736 2.33419 4.80699ZM3.57065 5.63968 3.8987 6.22005 3.31833 6.5481 2.99028 5.96773ZM4.22675 6.80042 4.55479 7.38079 3.97442 7.70884 3.64638 7.12847ZM4.88284 7.96116 5.21089 8.54153 4.63052 8.86958 4.30247 8.28921ZM5.53893 9.1219 5.86698 9.70227 5.28661 10.0303 4.95856 9.44995ZM6.19503 10.2826 6.52307 10.863 5.9427 11.1911 5.61466 10.6107ZM6.85112 11.4434 7.17917 12.0238 6.5988 12.3518 6.27075 11.7714ZM7.50721 12.6041 7.83526 13.1845 7.25489 13.5125 6.92684 12.9322ZM8.16331 13.7649 8.49136 14.3452 7.91098 14.6733 7.58294 14.0929ZM8.8194 14.9256 9.14745 15.506 8.56708 15.834 8.23903 15.2537ZM9.4755 16.0863 9.80354 16.6667 9.22317 16.9948 8.89513 16.4144ZM10.1316 17.2471 10.4596 17.8275 9.87927 18.1555 9.55122 17.5751ZM10.7877 18.4078 11.1157 18.9882 10.5354 19.3162 10.2073 18.7359ZM11.4438 19.5686 11.7718 20.1489 11.1915 20.477 10.8634 19.8966ZM12.0999 20.7293 12.4279 21.3097 11.8475 21.6377 11.5195 21.0574ZM12.756 21.8901 13.084 22.4704 12.5036 22.7985 12.1756 22.2181ZM13.4121 23.0508 13.7401 23.6312 13.1597 23.9592 12.8317 23.3788ZM14.0682 24.2115 14.3962 24.7919 13.8158 25.12 13.4878 24.5396ZM14.7242 25.3723 15.0523 25.9527 14.4719 26.2807 14.1439 25.7003ZM15.3803 26.533 15.7084 27.1134 15.128 27.4414 14.8 26.8611ZM16.0364 27.6938 16.3645 28.2741 15.7841 28.6022 15.4561 28.0218ZM16.6925 28.8545 17.0206 29.4349 16.4402 29.7629 16.1122 29.1825ZM17.3486 30.0152 17.6767 30.5956 17.0963 30.9237 16.7682 30.3433ZM18.0047 31.176 18.3328 31.7564 17.7524 32.0844 17.4243 31.504ZM18.6608 32.3367 18.9888 32.9171 18.4085 33.2451 18.0804 32.6648ZM19.3169 33.4975 19.6449 34.0778 19.0646 34.4059 18.7365 33.8255ZM19.973 34.6582 20.301 35.2386 19.7207 35.5666 19.3926 34.9863ZM20.6291 35.8189 20.9571 36.3993 20.3768 36.7274 20.0487 36.147ZM21.2852 36.9797 21.6132 37.56 21.0329 37.8881 20.7048 37.3077ZM25.0458 36.1813C26.1328 38.1045 25.455 40.5448 23.5318 41.6318 21.6087 42.7189 19.1684 42.0411 18.0813 40.1179 16.9943 38.1947 17.6721 35.7544 19.5953 34.6674 21.5185 33.5803 23.9587 34.2581 25.0458 36.1813Z" fill="#ED7D31" transform="matrix(-1 0 0 1 542.064 462.5)"/><text font-family="Yu Gothic,Yu Gothic_MSFontService,sans-serif" font-weight="400" font-size="13" transform="translate(249.022 558)">predecessor<tspan font-size="13" x="86.152" y="0">successor</tspan></text><path d="M0.306803-0.130319 0.567441 0.483287-0.0461653 0.743925-0.306803 0.130319ZM0.828078 1.09689 1.08872 1.7105 0.47511 1.97114 0.214472 1.35753ZM1.34935 2.32411 1.60999 2.93771 0.996386 3.19835 0.735748 2.58474ZM1.87063 3.55132 2.13127 4.16492 1.51766 4.42556 1.25702 3.81196ZM2.3919 4.77853 2.65254 5.39214 2.03894 5.65277 1.7783 5.03917ZM2.91318 6.00574 3.17382 6.61935 2.56021 6.87999 2.29957 6.26638ZM3.43446 7.23295 3.69509 7.84656 3.08149 8.1072 2.82085 7.49359ZM3.95573 8.46017 4.21637 9.07377 3.60276 9.33441 3.34212 8.7208ZM4.47701 9.68738 4.73764 10.301 4.12404 10.5616 3.8634 9.94802ZM4.99828 10.9146 5.25892 11.5282 4.64531 11.7888 4.38468 11.1752ZM5.51956 12.1418 5.7802 12.7554 5.16659 13.016 4.90595 12.4024ZM6.04083 13.369 6.30147 13.9826 5.68786 14.2433 5.42723 13.6297ZM6.56211 14.5962 6.82275 15.2098 6.20914 15.4705 5.9485 14.8569ZM7.08338 15.8234 7.34402 16.437 6.73041 16.6977 6.46978 16.0841ZM7.60466 17.0506 7.8653 17.6643 7.25169 17.9249 6.99105 17.3113ZM8.12593 18.2779 8.38657 18.8915 7.77297 19.1521 7.51233 18.5385ZM8.64721 19.5051 8.90785 20.1187 8.29424 20.3793 8.0336 19.7657ZM9.16848 20.7323 9.42912 21.3459 8.81552 21.6065 8.55488 20.9929ZM9.68976 21.9595 9.9504 22.5731 9.33679 22.8337 9.07615 22.2201ZM10.211 23.1867 10.4717 23.8003 9.85807 24.0609 9.59743 23.4473ZM10.7323 24.4139 10.9929 25.0275 10.3793 25.2882 10.1187 24.6746ZM11.2536 25.6411 11.5142 26.2547 10.9006 26.5154 10.64 25.9018ZM11.7749 26.8683 12.0355 27.4819 11.4219 27.7426 11.1613 27.129ZM12.2961 28.0956 12.5568 28.7092 11.9432 28.9698 11.6825 28.3562ZM12.8174 29.3228 13.078 29.9364 12.4644 30.197 12.2038 29.5834ZM13.3387 30.55 13.5993 31.1636 12.9857 31.4242 12.7251 30.8106ZM13.86 31.7772 14.1206 32.3908 13.507 32.6514 13.2464 32.0378ZM14.3812 33.0044 14.6419 33.618 14.0283 33.8786 13.7676 33.265ZM14.9025 34.2316 15.1632 34.8452 14.5495 35.1059 14.2889 34.4922ZM15.4238 35.4588 15.6844 36.0724 15.0708 36.3331 14.8102 35.7195ZM15.9451 36.686 16.2057 37.2996 15.5921 37.5603 15.3315 36.9467ZM16.4663 37.9132 16.727 38.5269 16.1134 38.7875 15.8527 38.1739ZM16.9876 39.1405 17.2483 39.7541 16.6346 40.0147 16.374 39.4011ZM17.5089 40.3677 17.7695 40.9813 17.1559 41.2419 16.8953 40.6283ZM21.3269 39.9775C22.1906 42.0108 21.2424 44.3593 19.2091 45.2229 17.1758 46.0866 14.8273 45.1385 13.9636 43.1051 13.0999 41.0718 14.0481 38.7234 16.0814 37.8597 18.1147 36.996 20.4632 37.9442 21.3269 39.9775Z" fill="#ED7D31" transform="matrix(1 0 0 -1 287.5 542.041)"/><path d="M366.202 542.203 365.879 541.62 366.462 541.297 366.785 541.88ZM365.556 541.036 365.233 540.453 365.816 540.13 366.139 540.713ZM364.91 539.87 364.587 539.286 365.171 538.964 365.493 539.547ZM364.264 538.703 363.942 538.12 364.525 537.797 364.848 538.38ZM363.619 537.537 363.296 536.953 363.879 536.63 364.202 537.214ZM362.973 536.37 362.65 535.787 363.234 535.464 363.556 536.047ZM362.327 535.203 362.005 534.62 362.588 534.297 362.911 534.881ZM361.682 534.037 361.359 533.454 361.942 533.131 362.265 533.714ZM361.036 532.87 360.713 532.287 361.296 531.964 361.619 532.547ZM360.39 531.704 360.068 531.12 360.651 530.798 360.974 531.381ZM359.745 530.537 359.422 529.954 360.005 529.631 360.328 530.214ZM359.099 529.371 358.776 528.787 359.359 528.465 359.682 529.048ZM358.453 528.204 358.13 527.621 358.714 527.298 359.037 527.881ZM357.808 527.038 357.485 526.454 358.068 526.131 358.391 526.715ZM357.162 525.871 356.839 525.288 357.422 524.965 357.745 525.548ZM356.516 524.704 356.193 524.121 356.777 523.798 357.099 524.382ZM355.871 523.538 355.548 522.955 356.131 522.632 356.454 523.215ZM355.225 522.371 354.902 521.788 355.485 521.465 355.808 522.048ZM354.579 521.205 354.256 520.621 354.84 520.299 355.162 520.882ZM353.933 520.038 353.611 519.455 354.194 519.132 354.517 519.715ZM353.288 518.872 352.965 518.288 353.548 517.966 353.871 518.549ZM352.642 517.705 352.319 517.122 352.902 516.799 353.225 517.382ZM351.996 516.539 351.674 515.955 352.257 515.632 352.58 516.216ZM351.351 515.372 351.028 514.789 351.611 514.466 351.934 515.049ZM350.705 514.205 350.382 513.622 350.965 513.299 351.288 513.883ZM350.059 513.039 349.736 512.456 350.32 512.133 350.643 512.716ZM349.414 511.872 349.091 511.289 349.674 510.966 349.997 511.549ZM348.768 510.706 348.445 510.122 349.028 509.8 349.351 510.383ZM348.122 509.539 347.799 508.956 348.383 508.633 348.705 509.216ZM347.477 508.373 347.154 507.789 347.737 507.466 348.06 508.05ZM346.831 507.206 346.508 506.623 347.091 506.3 347.414 506.883ZM346.185 506.039 345.862 505.456 346.446 505.133 346.768 505.717ZM345.539 504.873 345.217 504.29 345.8 503.967 346.123 504.55ZM344.894 503.706 344.571 503.123 345.154 502.8 345.477 503.384ZM344.248 502.54 343.925 501.957 344.508 501.634 344.831 502.217ZM343.602 501.373 343.28 500.79 343.863 500.467 344.186 501.05ZM340 502.437C338.931 500.504 339.63 498.07 341.563 497 343.496 495.931 345.93 496.63 347 498.563 348.07 500.496 347.37 502.93 345.437 504 343.504 505.07 341.07 504.37 340 502.437Z" fill="#ED7D31"/><path d="M114 100C114 89.5066 122.507 81 133 81 143.493 81 152 89.5066 152 100 152 110.493 143.493 119 133 119 122.507 119 114 110.493 114 100Z" stroke="#4472C4" stroke-width="2" stroke-miterlimit="8" fill="#FFFFFF" fill-rule="evenodd"/><text font-family="Yu Gothic,Yu Gothic_MSFontService,sans-serif" font-weight="400" font-size="13" transform="translate(129.009 104)">1<tspan font-size="13" x="37.4876" y="0">R1 </tspan><tspan font-size="13" x="57.6543" y="0">の</tspan><tspan font-size="13" x="74.8209" y="0">predecessor </tspan>、<tspan font-size="13" x="167.488" y="0">successor </tspan>の両方が無い</text><path d="M113 218C113 207.507 121.73 199 132.5 199 143.27 199 152 207.507 152 218 152 228.493 143.27 237 132.5 237 121.73 237 113 228.493 113 218Z" stroke="#4472C4" stroke-width="2" stroke-miterlimit="8" fill="#FFFFFF" fill-rule="evenodd"/><text font-family="Yu Gothic,Yu Gothic_MSFontService,sans-serif" font-weight="400" font-size="13" transform="translate(128.859 222)">1</text><path d="M190 218C190 207.507 198.507 199 209 199 219.493 199 228 207.507 228 218 228 228.493 219.493 237 209 237 198.507 237 190 228.493 190 218Z" stroke="#4472C4" stroke-width="2" stroke-miterlimit="8" fill="#FFFFFF" fill-rule="evenodd"/><text font-family="Yu Gothic,Yu Gothic_MSFontService,sans-serif" font-weight="400" font-size="13" transform="translate(205.538 222)">2</text><path d="M152 218 190.529 218" stroke="#4472C4" stroke-width="2" stroke-miterlimit="8" fill="none" fill-rule="evenodd"/><text font-family="Yu Gothic,Yu Gothic_MSFontService,sans-serif" font-weight="400" font-size="13" transform="translate(94.3135 171)">predecessor<tspan font-size="13" x="86.152" y="0">successor</tspan></text><path d="M133.798 180.351 134.096 180.947 133.5 181.245 133.202 180.649ZM134.394 181.544 134.693 182.14 134.096 182.438 133.798 181.842ZM134.991 182.736 135.289 183.332 134.693 183.631 134.394 183.034ZM135.587 183.929 135.885 184.525 135.289 184.823 134.991 184.227ZM136.183 185.121 136.481 185.718 135.885 186.016 135.587 185.419ZM136.78 186.314 137.078 186.91 136.481 187.208 136.183 186.612ZM137.376 187.506 137.674 188.103 137.078 188.401 136.78 187.805ZM137.972 188.699 138.27 189.295 137.674 189.593 137.376 188.997ZM138.568 189.892 138.867 190.488 138.27 190.786 137.972 190.19ZM139.165 191.084 139.463 191.68 138.867 191.979 138.568 191.382ZM139.761 192.277 140.059 192.873 139.463 193.171 139.165 192.575ZM140.357 193.469 140.655 194.066 140.059 194.364 139.761 193.767ZM140.954 194.662 141.252 195.258 140.655 195.556 140.357 194.96ZM141.55 195.854 141.848 196.451 141.252 196.749 140.954 196.153ZM142.146 197.047 142.444 197.643 141.848 197.941 141.55 197.345ZM142.742 198.24 143.041 198.836 142.444 199.134 142.146 198.538ZM143.339 199.432 143.637 200.028 143.041 200.327 142.742 199.73ZM143.935 200.625 144.233 201.221 143.637 201.519 143.339 200.923ZM144.531 201.817 144.829 202.413 144.233 202.712 143.935 202.115ZM145.128 203.01 145.426 203.606 144.829 203.904 144.531 203.308ZM145.724 204.202 146.022 204.799 145.426 205.097 145.128 204.5ZM146.32 205.395 146.618 205.991 146.022 206.289 145.724 205.693ZM146.916 206.587 147.215 207.184 146.618 207.482 146.32 206.886ZM147.513 207.78 147.811 208.376 147.215 208.674 146.916 208.078ZM148.109 208.973 148.407 209.569 147.811 209.867 147.513 209.271ZM148.705 210.165 149.003 210.761 148.407 211.06 148.109 210.463ZM149.302 211.358 149.6 211.954 149.003 212.252 148.705 211.656ZM149.898 212.55 150.196 213.147 149.6 213.445 149.302 212.848ZM150.494 213.743 150.792 214.339 150.196 214.637 149.898 214.041ZM151.09 214.935 151.389 215.532 150.792 215.83 150.494 215.234ZM151.687 216.128 151.985 216.724 151.389 217.022 151.09 216.426ZM152.283 217.321 152.581 217.917 151.985 218.215 151.687 217.619ZM156.153 216.861C157.141 218.837 156.34 221.239 154.364 222.227 152.388 223.215 149.985 222.414 148.997 220.439 148.009 218.463 148.81 216.06 150.786 215.072 152.762 214.084 155.165 214.885 156.153 216.861Z" fill="#ED7D31"/><path d="M0.290185-0.164023 0.618232 0.416347 0.0378616 0.744394-0.290185 0.164023ZM0.946279 0.996717 1.27433 1.57709 0.693955 1.90513 0.365908 1.32476ZM1.60237 2.15746 1.93042 2.73783 1.35005 3.06587 1.022 2.4855ZM2.25847 3.3182 2.58651 3.89857 2.00614 4.22662 1.6781 3.64625ZM2.91456 4.47894 3.24261 5.05931 2.66224 5.38736 2.33419 4.80699ZM3.57065 5.63968 3.8987 6.22005 3.31833 6.5481 2.99028 5.96773ZM4.22675 6.80042 4.55479 7.38079 3.97442 7.70884 3.64638 7.12847ZM4.88284 7.96116 5.21089 8.54153 4.63052 8.86958 4.30247 8.28921ZM5.53893 9.1219 5.86698 9.70227 5.28661 10.0303 4.95856 9.44995ZM6.19503 10.2826 6.52307 10.863 5.9427 11.1911 5.61466 10.6107ZM6.85112 11.4434 7.17917 12.0238 6.5988 12.3518 6.27075 11.7714ZM7.50721 12.6041 7.83526 13.1845 7.25489 13.5125 6.92684 12.9322ZM8.16331 13.7649 8.49136 14.3452 7.91098 14.6733 7.58294 14.0929ZM8.8194 14.9256 9.14745 15.506 8.56708 15.834 8.23903 15.2537ZM9.4755 16.0863 9.80354 16.6667 9.22317 16.9948 8.89513 16.4144ZM10.1316 17.2471 10.4596 17.8275 9.87927 18.1555 9.55122 17.5751ZM10.7877 18.4078 11.1157 18.9882 10.5354 19.3162 10.2073 18.7359ZM11.4438 19.5686 11.7718 20.1489 11.1915 20.477 10.8634 19.8966ZM12.0999 20.7293 12.4279 21.3097 11.8475 21.6377 11.5195 21.0574ZM12.756 21.8901 13.084 22.4704 12.5036 22.7985 12.1756 22.2181ZM13.4121 23.0508 13.7401 23.6312 13.1597 23.9592 12.8317 23.3788ZM14.0682 24.2115 14.3962 24.7919 13.8158 25.12 13.4878 24.5396ZM14.7242 25.3723 15.0523 25.9527 14.4719 26.2807 14.1439 25.7003ZM15.3803 26.533 15.7084 27.1134 15.128 27.4414 14.8 26.8611ZM16.0364 27.6938 16.3645 28.2741 15.7841 28.6022 15.4561 28.0218ZM16.6925 28.8545 17.0206 29.4349 16.4402 29.7629 16.1122 29.1825ZM17.3486 30.0152 17.6767 30.5956 17.0963 30.9237 16.7682 30.3433ZM18.0047 31.176 18.3328 31.7564 17.7524 32.0844 17.4243 31.504ZM18.6608 32.3367 18.9888 32.9171 18.4085 33.2451 18.0804 32.6648ZM19.3169 33.4975 19.6449 34.0778 19.0646 34.4059 18.7365 33.8255ZM19.973 34.6582 20.301 35.2386 19.7207 35.5666 19.3926 34.9863ZM20.6291 35.8189 20.9571 36.3993 20.3768 36.7274 20.0487 36.147ZM21.2852 36.9797 21.6132 37.56 21.0329 37.8881 20.7048 37.3077ZM25.0458 36.1813C26.1328 38.1045 25.455 40.5448 23.5318 41.6318 21.6087 42.7189 19.1684 42.0411 18.0813 40.1179 16.9943 38.1947 17.6721 35.7544 19.5953 34.6674 21.5185 33.5803 23.9587 34.2581 25.0458 36.1813Z" fill="#ED7D31" transform="matrix(-1 0 0 1 212.064 180.5)"/><path d="M113 326C113 315.507 121.73 307 132.5 307 143.27 307 152 315.507 152 326 152 336.493 143.27 345 132.5 345 121.73 345 113 336.493 113 326Z" stroke="#4472C4" stroke-width="2" stroke-miterlimit="8" fill="#FFFFFF" fill-rule="evenodd"/><text font-family="Yu Gothic,Yu Gothic_MSFontService,sans-serif" font-weight="400" font-size="13" transform="translate(128.781 330)">1</text><path d="M190 326C190 315.507 198.507 307 209 307 219.493 307 228 315.507 228 326 228 336.493 219.493 345 209 345 198.507 345 190 336.493 190 326Z" stroke="#4472C4" stroke-width="2" stroke-miterlimit="8" fill="#FFFFFF" fill-rule="evenodd"/><text font-family="Yu Gothic,Yu Gothic_MSFontService,sans-serif" font-weight="400" font-size="13" transform="translate(205.46 330)">2</text><path d="M267 326C267 315.507 275.507 307 286 307 296.493 307 305 315.507 305 326 305 336.493 296.493 345 286 345 275.507 345 267 336.493 267 326Z" stroke="#4472C4" stroke-width="2" stroke-miterlimit="8" fill="#FFFFFF" fill-rule="evenodd"/><text font-family="Yu Gothic,Yu Gothic_MSFontService,sans-serif" font-weight="400" font-size="13" transform="translate(282.139 330)">3</text><path d="M152 326 190.529 326" stroke="#4472C4" stroke-width="2" stroke-miterlimit="8" fill="none" fill-rule="evenodd"/><path d="M228 326 266.529 326" stroke="#4472C4" stroke-width="2" stroke-miterlimit="8" fill="none" fill-rule="evenodd"/><text font-family="Yu Gothic,Yu Gothic_MSFontService,sans-serif" font-weight="400" font-size="13" transform="translate(94.2347 279)">predecessor<tspan font-size="13" x="86.152" y="0">successor</tspan></text><path d="M132.798 288.351 133.096 288.947 132.5 289.245 132.202 288.649ZM133.394 289.544 133.693 290.14 133.096 290.438 132.798 289.842ZM133.991 290.736 134.289 291.332 133.693 291.631 133.394 291.034ZM134.587 291.929 134.885 292.525 134.289 292.823 133.991 292.227ZM135.183 293.121 135.481 293.718 134.885 294.016 134.587 293.419ZM135.78 294.314 136.078 294.91 135.481 295.208 135.183 294.612ZM136.376 295.506 136.674 296.103 136.078 296.401 135.78 295.805ZM136.972 296.699 137.27 297.295 136.674 297.593 136.376 296.997ZM137.568 297.892 137.867 298.488 137.27 298.786 136.972 298.19ZM138.165 299.084 138.463 299.68 137.867 299.979 137.568 299.382ZM138.761 300.277 139.059 300.873 138.463 301.171 138.165 300.575ZM139.357 301.469 139.655 302.066 139.059 302.364 138.761 301.767ZM139.954 302.662 140.252 303.258 139.655 303.556 139.357 302.96ZM140.55 303.854 140.848 304.451 140.252 304.749 139.954 304.153ZM141.146 305.047 141.444 305.643 140.848 305.941 140.55 305.345ZM141.742 306.24 142.041 306.836 141.444 307.134 141.146 306.538ZM142.339 307.432 142.637 308.028 142.041 308.327 141.742 307.73ZM142.935 308.625 143.233 309.221 142.637 309.519 142.339 308.923ZM143.531 309.817 143.829 310.414 143.233 310.712 142.935 310.115ZM144.128 311.01 144.426 311.606 143.829 311.904 143.531 311.308ZM144.724 312.202 145.022 312.799 144.426 313.097 144.128 312.501ZM145.32 313.395 145.618 313.991 145.022 314.289 144.724 313.693ZM145.916 314.587 146.215 315.184 145.618 315.482 145.32 314.886ZM146.513 315.78 146.811 316.376 146.215 316.674 145.916 316.078ZM147.109 316.973 147.407 317.569 146.811 317.867 146.513 317.271ZM147.705 318.165 148.003 318.762 147.407 319.06 147.109 318.463ZM148.302 319.358 148.6 319.954 148.003 320.252 147.705 319.656ZM148.898 320.55 149.196 321.147 148.6 321.445 148.302 320.848ZM149.494 321.743 149.792 322.339 149.196 322.637 148.898 322.041ZM150.09 322.935 150.389 323.532 149.792 323.83 149.494 323.234ZM150.687 324.128 150.985 324.724 150.389 325.022 150.09 324.426ZM151.283 325.321 151.581 325.917 150.985 326.215 150.687 325.619ZM155.153 324.861C156.141 326.837 155.34 329.239 153.364 330.227 151.388 331.215 148.985 330.414 147.997 328.439 147.009 326.463 147.81 324.06 149.786 323.072 151.762 322.084 154.165 322.885 155.153 324.861Z" fill="#ED7D31"/><path d="M0.290185-0.164023 0.618232 0.416347 0.0378616 0.744394-0.290185 0.164023ZM0.946279 0.996717 1.27433 1.57709 0.693955 1.90513 0.365908 1.32476ZM1.60237 2.15746 1.93042 2.73783 1.35005 3.06587 1.022 2.4855ZM2.25847 3.3182 2.58651 3.89857 2.00614 4.22662 1.6781 3.64625ZM2.91456 4.47894 3.24261 5.05931 2.66224 5.38736 2.33419 4.80699ZM3.57065 5.63968 3.8987 6.22005 3.31833 6.5481 2.99028 5.96773ZM4.22675 6.80042 4.55479 7.38079 3.97442 7.70884 3.64638 7.12847ZM4.88284 7.96116 5.21089 8.54153 4.63052 8.86958 4.30247 8.28921ZM5.53893 9.1219 5.86698 9.70227 5.28661 10.0303 4.95856 9.44995ZM6.19503 10.2826 6.52307 10.863 5.9427 11.1911 5.61466 10.6107ZM6.85112 11.4434 7.17917 12.0238 6.5988 12.3518 6.27075 11.7714ZM7.50721 12.6041 7.83526 13.1845 7.25489 13.5125 6.92684 12.9322ZM8.16331 13.7649 8.49136 14.3452 7.91098 14.6733 7.58294 14.0929ZM8.8194 14.9256 9.14745 15.506 8.56708 15.834 8.23903 15.2537ZM9.4755 16.0863 9.80354 16.6667 9.22317 16.9948 8.89513 16.4144ZM10.1316 17.2471 10.4596 17.8275 9.87927 18.1555 9.55122 17.5751ZM10.7877 18.4078 11.1157 18.9882 10.5354 19.3162 10.2073 18.7359ZM11.4438 19.5686 11.7718 20.1489 11.1915 20.477 10.8634 19.8966ZM12.0999 20.7293 12.4279 21.3097 11.8475 21.6377 11.5195 21.0574ZM12.756 21.8901 13.084 22.4704 12.5036 22.7985 12.1756 22.2181ZM13.4121 23.0508 13.7401 23.6312 13.1597 23.9592 12.8317 23.3788ZM14.0682 24.2115 14.3962 24.7919 13.8158 25.12 13.4878 24.5396ZM14.7242 25.3723 15.0523 25.9527 14.4719 26.2807 14.1439 25.7003ZM15.3803 26.533 15.7084 27.1134 15.128 27.4414 14.8 26.8611ZM16.0364 27.6938 16.3645 28.2741 15.7841 28.6022 15.4561 28.0218ZM16.6925 28.8545 17.0206 29.4349 16.4402 29.7629 16.1122 29.1825ZM17.3486 30.0152 17.6767 30.5956 17.0963 30.9237 16.7682 30.3433ZM18.0047 31.176 18.3328 31.7564 17.7524 32.0844 17.4243 31.504ZM18.6608 32.3367 18.9888 32.9171 18.4085 33.2451 18.0804 32.6648ZM19.3169 33.4975 19.6449 34.0778 19.0646 34.4059 18.7365 33.8255ZM19.973 34.6582 20.301 35.2386 19.7207 35.5666 19.3926 34.9863ZM20.6291 35.8189 20.9571 36.3993 20.3768 36.7274 20.0487 36.147ZM21.2852 36.9797 21.6132 37.56 21.0329 37.8881 20.7048 37.3077ZM25.0458 36.1813C26.1328 38.1045 25.455 40.5448 23.5318 41.6318 21.6087 42.7189 19.1684 42.0411 18.0813 40.1179 16.9943 38.1947 17.6721 35.7544 19.5953 34.6674 21.5185 33.5803 23.9587 34.2581 25.0458 36.1813Z" fill="#ED7D31" transform="matrix(-1 0 0 1 212.064 288.5)"/><text font-family="Yu Gothic,Yu Gothic_MSFontService,sans-serif" font-weight="400" font-size="13" transform="translate(171.814 385)">predecessor<tspan font-size="13" x="86.152" y="0">successor</tspan></text><path d="M0.306803-0.130319 0.567441 0.483287-0.0461653 0.743925-0.306803 0.130319ZM0.828078 1.09689 1.08872 1.7105 0.47511 1.97114 0.214472 1.35753ZM1.34935 2.32411 1.60999 2.93771 0.996386 3.19835 0.735748 2.58474ZM1.87063 3.55132 2.13127 4.16492 1.51766 4.42556 1.25702 3.81196ZM2.3919 4.77853 2.65254 5.39214 2.03894 5.65277 1.7783 5.03917ZM2.91318 6.00574 3.17382 6.61935 2.56021 6.87999 2.29957 6.26638ZM3.43446 7.23295 3.69509 7.84656 3.08149 8.1072 2.82085 7.49359ZM3.95573 8.46017 4.21637 9.07377 3.60276 9.33441 3.34212 8.7208ZM4.47701 9.68738 4.73764 10.301 4.12404 10.5616 3.8634 9.94802ZM4.99828 10.9146 5.25892 11.5282 4.64531 11.7888 4.38468 11.1752ZM5.51956 12.1418 5.7802 12.7554 5.16659 13.016 4.90595 12.4024ZM6.04083 13.369 6.30147 13.9826 5.68786 14.2433 5.42723 13.6297ZM6.56211 14.5962 6.82275 15.2098 6.20914 15.4705 5.9485 14.8569ZM7.08338 15.8234 7.34402 16.437 6.73041 16.6977 6.46978 16.0841ZM7.60466 17.0506 7.8653 17.6643 7.25169 17.9249 6.99105 17.3113ZM8.12593 18.2779 8.38657 18.8915 7.77297 19.1521 7.51233 18.5385ZM8.64721 19.5051 8.90785 20.1187 8.29424 20.3793 8.0336 19.7657ZM9.16848 20.7323 9.42912 21.3459 8.81552 21.6065 8.55488 20.9929ZM9.68976 21.9595 9.9504 22.5731 9.33679 22.8337 9.07615 22.2201ZM10.211 23.1867 10.4717 23.8003 9.85807 24.0609 9.59743 23.4473ZM10.7323 24.4139 10.9929 25.0275 10.3793 25.2882 10.1187 24.6746ZM11.2536 25.6411 11.5142 26.2547 10.9006 26.5154 10.64 25.9018ZM11.7749 26.8683 12.0355 27.4819 11.4219 27.7426 11.1613 27.129ZM12.2961 28.0956 12.5568 28.7092 11.9432 28.9698 11.6825 28.3562ZM12.8174 29.3228 13.078 29.9364 12.4644 30.197 12.2038 29.5834ZM13.3387 30.55 13.5993 31.1636 12.9857 31.4242 12.7251 30.8106ZM13.86 31.7772 14.1206 32.3908 13.507 32.6514 13.2464 32.0378ZM14.3812 33.0044 14.6419 33.618 14.0283 33.8786 13.7676 33.265ZM14.9025 34.2316 15.1632 34.8452 14.5495 35.1059 14.2889 34.4922ZM15.4238 35.4588 15.6844 36.0724 15.0708 36.3331 14.8102 35.7195ZM15.9451 36.686 16.2057 37.2996 15.5921 37.5603 15.3315 36.9467ZM16.4663 37.9132 16.727 38.5269 16.1134 38.7875 15.8527 38.1739ZM16.9876 39.1405 17.2483 39.7541 16.6346 40.0147 16.374 39.4011ZM17.5089 40.3677 17.7695 40.9813 17.1559 41.2419 16.8953 40.6283ZM21.3269 39.9775C22.1906 42.0108 21.2424 44.3593 19.2091 45.2229 17.1758 46.0866 14.8273 45.1385 13.9636 43.1051 13.0999 41.0718 14.0481 38.7234 16.0814 37.8597 18.1147 36.996 20.4632 37.9442 21.3269 39.9775Z" fill="#ED7D31" transform="matrix(1 0 0 -1 210.5 369.041)"/><path d="M289.202 369.203 288.879 368.62 289.462 368.297 289.785 368.88ZM288.556 368.036 288.233 367.453 288.816 367.13 289.139 367.713ZM287.91 366.87 287.587 366.286 288.171 365.964 288.493 366.547ZM287.264 365.703 286.942 365.12 287.525 364.797 287.848 365.38ZM286.619 364.537 286.296 363.953 286.879 363.63 287.202 364.214ZM285.973 363.37 285.65 362.787 286.234 362.464 286.556 363.047ZM285.327 362.203 285.005 361.62 285.588 361.297 285.911 361.881ZM284.682 361.037 284.359 360.454 284.942 360.131 285.265 360.714ZM284.036 359.87 283.713 359.287 284.296 358.964 284.619 359.547ZM283.39 358.704 283.068 358.12 283.651 357.798 283.974 358.381ZM282.745 357.537 282.422 356.954 283.005 356.631 283.328 357.214ZM282.099 356.371 281.776 355.787 282.359 355.465 282.682 356.048ZM281.453 355.204 281.13 354.621 281.714 354.298 282.037 354.881ZM280.808 354.038 280.485 353.454 281.068 353.131 281.391 353.715ZM280.162 352.871 279.839 352.288 280.422 351.965 280.745 352.548ZM279.516 351.704 279.193 351.121 279.777 350.798 280.099 351.382ZM278.871 350.538 278.548 349.955 279.131 349.632 279.454 350.215ZM278.225 349.371 277.902 348.788 278.485 348.465 278.808 349.048ZM277.579 348.205 277.256 347.621 277.84 347.299 278.162 347.882ZM276.933 347.038 276.611 346.455 277.194 346.132 277.517 346.715ZM276.288 345.872 275.965 345.288 276.548 344.965 276.871 345.549ZM275.642 344.705 275.319 344.122 275.902 343.799 276.225 344.382ZM274.996 343.538 274.674 342.955 275.257 342.632 275.58 343.216ZM274.351 342.372 274.028 341.789 274.611 341.466 274.934 342.049ZM273.705 341.205 273.382 340.622 273.965 340.299 274.288 340.883ZM273.059 340.039 272.736 339.456 273.32 339.133 273.643 339.716ZM272.414 338.872 272.091 338.289 272.674 337.966 272.997 338.549ZM271.768 337.706 271.445 337.122 272.028 336.8 272.351 337.383ZM271.122 336.539 270.799 335.956 271.383 335.633 271.705 336.216ZM270.477 335.373 270.154 334.789 270.737 334.466 271.06 335.05ZM269.831 334.206 269.508 333.623 270.091 333.3 270.414 333.883ZM269.185 333.039 268.862 332.456 269.446 332.133 269.768 332.717ZM268.539 331.873 268.217 331.29 268.8 330.967 269.123 331.55ZM267.894 330.706 267.571 330.123 268.154 329.8 268.477 330.383ZM267.248 329.54 266.925 328.956 267.508 328.634 267.831 329.217ZM266.602 328.373 266.28 327.79 266.863 327.467 267.186 328.05ZM263 329.437C261.931 327.504 262.63 325.07 264.563 324 266.496 322.931 268.93 323.63 270 325.563 271.07 327.496 270.37 329.93 268.437 331 266.504 332.07 264.07 331.37 263 329.437Z" fill="#ED7D31"/></g></svg>