<svg width="607" height="436" xmlns="http://www.w3.org/2000/svg" xmlns:xlink="http://www.w3.org/1999/xlink" overflow="hidden"><defs><clipPath id="clip0"><rect x="34" y="85" width="607" height="436"/></clipPath></defs><g clip-path="url(#clip0)" transform="translate(-34 -85)"><rect x="69.5001" y="165.5" width="96" height="79" stroke="#000000" stroke-width="1.33333" stroke-miterlimit="8" fill="#FFFFFF"/><text font-family="Yu Gothic,Yu Gothic_MSFontService,sans-serif" font-weight="400" font-size="13" transform="translate(97.3465 182)">発電所<tspan font-size="13" x="-18.3333" y="16">送電電力量</tspan></text><rect x="69.5001" y="324.5" width="96" height="78" stroke="#000000" stroke-width="1.33333" stroke-miterlimit="8" fill="#FFFFFF"/><text font-family="Yu Gothic,Yu Gothic_MSFontService,sans-serif" font-weight="400" font-size="13" transform="translate(97.4131 340)">作業員</text><path d="M117.5 244.5 117.5 324.14" stroke="#000000" stroke-width="0.666667" stroke-miterlimit="8" fill="none" fill-rule="evenodd"/><text font-family="Yu Gothic,Yu Gothic_MSFontService,sans-serif" font-weight="400" font-size="13" transform="translate(127.013 315)">1..*<tspan font-size="13" x="-26.7924" y="-52">1</tspan></text><rect x="412.5" y="126.5" width="96" height="51" stroke="#000000" stroke-width="1.33333" stroke-miterlimit="8" fill="#FFFFFF"/><text font-family="Yu Gothic,Yu Gothic_MSFontService,sans-serif" font-weight="400" font-size="13" transform="translate(439.612 143)">発電所</text><path d="M452.5 191.5 460.5 177.5 468.5 191.5Z" stroke="#000000" stroke-width="1.33333" stroke-miterlimit="8" fill="#FFFFFF" fill-rule="evenodd"/><rect x="307.5" y="232.5" width="105" height="51" stroke="#000000" stroke-width="1.33333" stroke-miterlimit="8" fill="#FFFFFF"/><text font-family="Yu Gothic,Yu Gothic_MSFontService,sans-serif" font-weight="400" font-size="13" transform="translate(319.409 249)">点検中発電所</text><rect x="508.5" y="232.5" width="104" height="50" stroke="#000000" stroke-width="1.33333" stroke-miterlimit="8" fill="#FFFFFF"/><text font-family="Yu Gothic,Yu Gothic_MSFontService,sans-serif" font-weight="400" font-size="13" transform="translate(519.859 248)">稼働<tspan font-size="13" x="26.6667" y="0">中発電所</tspan><tspan font-size="13" x="-2.58002" y="16">送電電力量</tspan></text><rect x="412.5" y="434.5" width="96" height="50" stroke="#000000" stroke-width="1.33333" stroke-miterlimit="8" fill="#FFFFFF"/><text font-family="Yu Gothic,Yu Gothic_MSFontService,sans-serif" font-weight="400" font-size="13" transform="translate(439.679 450)">作業員</text><path d="M0 14 8 0 16 14Z" stroke="#000000" stroke-width="1.33333" stroke-miterlimit="8" fill="#FFFFFF" fill-rule="evenodd" transform="matrix(1 0 0 -1 452.5 434.5)"/><rect x="311.5" y="348.5" width="96" height="51" stroke="#000000" stroke-width="1.33333" stroke-miterlimit="8" fill="#FFFFFF"/><text font-family="Yu Gothic,Yu Gothic_MSFontService,sans-serif" font-weight="400" font-size="13" transform="translate(326.121 365)">点検作業員</text><rect x="512.5" y="347.5" width="96" height="51" stroke="#000000" stroke-width="1.33333" stroke-miterlimit="8" fill="#FFFFFF"/><text font-family="Yu Gothic,Yu Gothic_MSFontService,sans-serif" font-weight="400" font-size="13" transform="translate(526.57 364)">稼働<tspan font-size="13" x="26.6667" y="0">作業員</tspan></text><path d="M459.725 191.5 459.725 211.834 359.5 211.834 359.5 232.167" stroke="#000000" stroke-width="0.666667" stroke-miterlimit="8" fill="none" fill-rule="evenodd"/><path d="M0 0 20.1725 0 20.1725 100.225 40.3451 100.225" stroke="#000000" stroke-width="0.666667" stroke-miterlimit="8" fill="none" fill-rule="evenodd" transform="matrix(1.83697e-16 1 1 -1.83697e-16 460.5 191.5)"/><path d="M560.725 398.5 560.725 409.107 460.5 409.107 460.5 419.714" stroke="#000000" stroke-width="0.666667" stroke-miterlimit="8" fill="none" fill-rule="evenodd"/><path d="M0 0 10.3372 0 10.3372 100.225 20.6743 100.225" stroke="#000000" stroke-width="0.666667" stroke-miterlimit="8" fill="none" fill-rule="evenodd" transform="matrix(1.83697e-16 1 1 -1.83697e-16 359.5 399.5)"/><path d="M560.5 282.5 560.5 347.503" stroke="#000000" stroke-width="0.666667" stroke-miterlimit="8" fill="none" fill-rule="evenodd"/><path d="M359.5 283.5 359.5 348.721" stroke="#000000" stroke-width="0.666667" stroke-miterlimit="8" fill="none" fill-rule="evenodd"/><text font-family="Yu Gothic,Yu Gothic_MSFontService,sans-serif" font-weight="400" font-size="13" transform="translate(365.548 343)">1..*<tspan font-size="13" x="-17.1974" y="-41">1</tspan><tspan font-size="13" x="199.267" y="0">1..*</tspan><tspan font-size="13" x="182.07" y="-41">1</tspan></text><rect x="35.5001" y="86.5001" width="605" height="434" stroke="#D9D9D9" stroke-width="1.33333" stroke-miterlimit="8" fill="none"/><path d="M192.5 298 218 272.5 218 285.25 262 285.25 262 272.5 287.5 298 262 323.5 262 310.75 218 310.75 218 323.5Z" stroke="#2F528F" stroke-width="1.33333" stroke-miterlimit="8" stroke-opacity="0.501961" fill="#4472C4" fill-rule="evenodd" fill-opacity="0.501961"/></g></svg>