<svg width="607" height="423" xmlns="http://www.w3.org/2000/svg" xmlns:xlink="http://www.w3.org/1999/xlink" overflow="hidden"><defs><clipPath id="clip0"><rect x="34" y="85" width="607" height="423"/></clipPath></defs><g clip-path="url(#clip0)" transform="translate(-34 -85)"><rect x="35.5001" y="86.5001" width="605" height="421" stroke="#D9D9D9" stroke-width="1.33333" stroke-miterlimit="8" fill="none"/><path d="M139.5 233.5C139.5 229.634 142.634 226.5 146.5 226.5L228.5 226.5C232.366 226.5 235.5 229.634 235.5 233.5L235.5 261.5C235.5 265.366 232.366 268.5 228.5 268.5L146.5 268.5C142.634 268.5 139.5 265.366 139.5 261.5Z" stroke="#000000" stroke-width="1.33333" stroke-miterlimit="8" fill="#FFFFFF" fill-rule="evenodd"/><path d="M139.5 307.5C139.5 303.634 142.634 300.5 146.5 300.5L228.5 300.5C232.366 300.5 235.5 303.634 235.5 307.5L235.5 335.5C235.5 339.366 232.366 342.5 228.5 342.5L146.5 342.5C142.634 342.5 139.5 339.366 139.5 335.5Z" stroke="#000000" stroke-width="1.33333" stroke-miterlimit="8" fill="#FFFFFF" fill-rule="evenodd"/><path d="M139.5 382.5C139.5 378.634 142.634 375.5 146.5 375.5L228.5 375.5C232.366 375.5 235.5 378.634 235.5 382.5L235.5 410.5C235.5 414.366 232.366 417.5 228.5 417.5L146.5 417.5C142.634 417.5 139.5 414.366 139.5 410.5Z" stroke="#000000" stroke-width="1.33333" stroke-miterlimit="8" fill="#FFFFFF" fill-rule="evenodd"/><path d="M187.833 193.5 187.833 225.2 187.167 225.2 187.167 193.5ZM180.833 193.5C180.833 189.818 183.818 186.833 187.5 186.833 191.182 186.833 194.167 189.818 194.167 193.5 194.167 197.182 191.182 200.167 187.5 200.167 183.818 200.167 180.833 197.182 180.833 193.5ZM192.455 217.367 187.5 225.861 182.546 217.367C182.453 217.208 182.506 217.004 182.665 216.912 182.825 216.819 183.029 216.873 183.121 217.032L187.788 225.032 187.212 225.032 191.879 217.032C191.972 216.873 192.176 216.819 192.335 216.912 192.494 217.004 192.547 217.208 192.455 217.367Z"/><path d="M187.833 268.5 187.833 300.2 187.167 300.2 187.167 268.5ZM192.455 292.367 187.5 300.861 182.546 292.367C182.453 292.208 182.506 292.004 182.665 291.912 182.825 291.819 183.029 291.873 183.121 292.032L187.788 300.032 187.212 300.032 191.879 292.032C191.972 291.873 192.176 291.819 192.335 291.912 192.494 292.004 192.547 292.208 192.455 292.367Z"/><path d="M187.833 342.5 187.833 374.2 187.167 374.2 187.167 342.5ZM192.455 366.367 187.5 374.861 182.546 366.367C182.453 366.208 182.506 366.004 182.665 365.912 182.825 365.819 183.029 365.873 183.121 366.032L187.788 374.032 187.212 374.032 191.879 366.032C191.972 365.873 192.176 365.819 192.335 365.912 192.494 366.004 192.547 366.208 192.455 366.367Z"/><path d="M179.5 457.5C179.5 453.082 183.082 449.5 187.5 449.5 191.918 449.5 195.5 453.082 195.5 457.5 195.5 461.918 191.918 465.5 187.5 465.5 183.082 465.5 179.5 461.918 179.5 457.5Z" stroke="#000000" stroke-width="1.33333" stroke-miterlimit="8" fill="none" fill-rule="evenodd"/><path d="M180.5 457.5C180.5 454.186 183.41 451.5 187 451.5 190.59 451.5 193.5 454.186 193.5 457.5 193.5 460.814 190.59 463.5 187 463.5 183.41 463.5 180.5 460.814 180.5 457.5Z" stroke="#000000" stroke-width="1.33333" stroke-miterlimit="8" fill-rule="evenodd"/><path d="M187.833 417.5 187.833 450.911 187.167 450.911 187.167 417.5ZM192.455 443.079 187.5 451.573 182.546 443.079C182.453 442.92 182.506 442.716 182.665 442.624 182.825 442.531 183.029 442.585 183.121 442.743L187.788 450.743 187.212 450.743 191.879 442.743C191.972 442.584 192.176 442.531 192.335 442.624 192.494 442.716 192.547 442.92 192.455 443.079Z"/><path d="M333.5 251.5C333.5 247.634 336.634 244.5 340.5 244.5L422.5 244.5C426.366 244.5 429.5 247.634 429.5 251.5L429.5 279.5C429.5 283.366 426.366 286.5 422.5 286.5L340.5 286.5C336.634 286.5 333.5 283.366 333.5 279.5Z" stroke="#000000" stroke-width="1.33333" stroke-miterlimit="8" fill="#FFFFFF" fill-rule="evenodd"/><path d="M333.5 325.5C333.5 321.634 336.634 318.5 340.5 318.5L422.5 318.5C426.366 318.5 429.5 321.634 429.5 325.5L429.5 353.5C429.5 357.366 426.366 360.5 422.5 360.5L340.5 360.5C336.634 360.5 333.5 357.366 333.5 353.5Z" stroke="#000000" stroke-width="1.33333" stroke-miterlimit="8" fill="#FFFFFF" fill-rule="evenodd"/><path d="M381.833 286.5 381.833 318.2 381.167 318.2 381.167 286.5ZM386.455 310.367 381.5 318.861 376.546 310.367C376.453 310.208 376.507 310.004 376.666 309.912 376.825 309.819 377.029 309.873 377.121 310.032L381.788 318.032 381.212 318.032 385.879 310.032C385.972 309.873 386.176 309.819 386.335 309.912 386.494 310.004 386.547 310.208 386.455 310.367Z"/><path d="M482.5 325.5C482.5 321.634 485.634 318.5 489.5 318.5L571.5 318.5C575.366 318.5 578.5 321.634 578.5 325.5L578.5 353.5C578.5 357.366 575.366 360.5 571.5 360.5L489.5 360.5C485.634 360.5 482.5 357.366 482.5 353.5Z" stroke="#000000" stroke-width="1.33333" stroke-miterlimit="8" fill="#FFFFFF" fill-rule="evenodd"/><path d="M482.5 250.5C482.5 246.634 485.634 243.5 489.5 243.5L571.5 243.5C575.366 243.5 578.5 246.634 578.5 250.5L578.5 278.5C578.5 282.366 575.366 285.5 571.5 285.5L489.5 285.5C485.634 285.5 482.5 282.366 482.5 278.5Z" stroke="#000000" stroke-width="1.33333" stroke-miterlimit="8" fill="#FFFFFF" fill-rule="evenodd"/><path d="M429.5 339.167 481.694 339.167 481.694 339.833 429.5 339.833ZM473.862 334.546 482.356 339.5 473.862 344.455C473.703 344.548 473.499 344.494 473.406 344.335 473.313 344.176 473.367 343.972 473.526 343.879L481.526 339.212 481.526 339.788 473.526 335.121C473.367 335.029 473.313 334.825 473.406 334.666 473.499 334.507 473.703 334.453 473.862 334.546Z"/><path d="M0.333333-1.07253e-06 0.333436 31.9692-0.33323 31.9692-0.333333 1.07253e-06ZM4.95467 24.1371 0.000104963 32.6307-4.95451 24.1372C-5.04728 23.9781-4.99356 23.774-4.83455 23.6813-4.67553 23.5885-4.47142 23.6422-4.37866 23.8012L0.288029 31.8012-0.287824 31.8012 4.37882 23.8012C4.47158 23.6422 4.67568 23.5885 4.8347 23.6812 4.99372 23.774 5.04743 23.9781 4.95467 24.1371Z" transform="matrix(1 0 0 -1 530.5 318.129)"/><path d="M0.00170096-0.333329 52.1957-0.0669855 52.1923 0.599672-0.00170096 0.333329ZM44.3873-4.72815 52.8555 0.269719 44.3367 5.18091C44.1773 5.27285 43.9734 5.2181 43.8815 5.05861 43.7895 4.89912 43.8443 4.69529 44.0038 4.60335L52.0275-0.0224362 52.0245 0.553409 44.0485-4.15402C43.8899-4.24759 43.8373-4.45197 43.9308-4.61051 44.0244-4.76905 44.2288-4.82172 44.3873-4.72815Z" transform="matrix(-1 0 0 1 482.354 264.5)"/><text font-family="Yu Gothic,Yu Gothic_MSFontService,sans-serif" font-weight="400" font-size="13" transform="translate(148.46 157)">生成・消滅型<tspan font-size="13" x="266.427" y="55">巡回型</tspan></text></g></svg>