<svg width="608" height="370" xmlns="http://www.w3.org/2000/svg" xmlns:xlink="http://www.w3.org/1999/xlink" overflow="hidden"><defs><clipPath id="clip0"><rect x="90" y="41" width="608" height="370"/></clipPath></defs><g clip-path="url(#clip0)" transform="translate(-90 -41)"><rect x="92.5001" y="43.5001" width="604" height="367" stroke="#D9D9D9" stroke-width="1.33333" stroke-miterlimit="8" fill="none"/><rect x="101" y="103" width="289" height="291" fill="#F2F2F2"/><text font-family="Yu Gothic,Yu Gothic_MSFontService,sans-serif" font-weight="400" font-size="19" transform="translate(208.062 124)">商品販売</text><rect x="130.5" y="188.5" width="206" height="180" stroke="#000000" stroke-width="1.33333" stroke-miterlimit="8" fill="#FFFFFF"/><text font-family="Yu Gothic,Yu Gothic_MSFontService,sans-serif" font-weight="400" font-size="19" transform="translate(214.356 210)">商品<tspan font-size="16" x="-74.8444" y="31">商品</tspan><tspan font-size="16" x="-42.8444" y="31">コード</tspan><tspan font-family="Consolas,Consolas_MSFontService,sans-serif" font-size="16" x="5.15559" y="31">:</tspan><tspan font-size="16" x="13.9889" y="31">商品コード</tspan><tspan font-size="16" x="-74.8444" y="50">商品名</tspan><tspan font-size="16" x="-74.8444" y="69">在庫</tspan><tspan font-family="Consolas,Consolas_MSFontService,sans-serif" font-size="16" x="-42.8444" y="69">:</tspan><tspan font-size="16" x="-34.0111" y="69">自然数</tspan><tspan font-size="16" x="-74.8444" y="88">単価</tspan><tspan font-family="Consolas,Consolas_MSFontService,sans-serif" font-size="16" x="-42.8444" y="88">:</tspan><tspan font-size="16" x="-34.0111" y="88">円</tspan><tspan font-size="21" x="164.737" y="-131">例</tspan></text><rect x="399" y="103" width="289" height="291" fill="#F2F2F2"/><text font-family="Yu Gothic,Yu Gothic_MSFontService,sans-serif" font-weight="400" font-size="19" transform="translate(506.464 124)">装置管理</text><rect x="428.5" y="188.5" width="207" height="180" stroke="#000000" stroke-width="1.33333" stroke-miterlimit="8" fill="#FFFFFF"/><text font-family="Yu Gothic,Yu Gothic_MSFontService,sans-serif" font-weight="400" font-size="19" transform="translate(512.757 210)">装置<tspan font-size="16" x="-74.8444" y="31">装置</tspan><tspan font-family="Consolas,Consolas_MSFontService,sans-serif" font-size="16" x="-42.8444" y="31">ID:</tspan><tspan font-size="16" x="-16.3444" y="31">装置</tspan><tspan font-family="Consolas,Consolas_MSFontService,sans-serif" font-size="16" x="15.6556" y="31">ID</tspan><tspan font-size="16" x="-74.8444" y="50">設置日</tspan><tspan font-family="Consolas,Consolas_MSFontService,sans-serif" font-size="16" x="-26.8444" y="50">:</tspan><tspan font-size="16" x="-18.0111" y="50">日付</tspan><tspan font-size="16" x="-74.8444" y="69">状態</tspan><tspan font-family="Consolas,Consolas_MSFontService,sans-serif" font-size="16" x="-42.8444" y="69">:</tspan><tspan font-size="16" x="-34.0111" y="69">稼働状態</tspan><tspan font-size="16" x="-74.8444" y="88">稼働時間</tspan><tspan font-family="Consolas,Consolas_MSFontService,sans-serif" font-size="16" x="-10.8444" y="88">:</tspan><tspan font-size="16" x="-2.01108" y="88">時間</tspan></text></g></svg>