<svg width="608" height="693" xmlns="http://www.w3.org/2000/svg" xmlns:xlink="http://www.w3.org/1999/xlink" overflow="hidden"><defs><clipPath id="clip0"><rect x="90" y="52" width="608" height="693"/></clipPath></defs><g clip-path="url(#clip0)" transform="translate(-90 -52)"><rect x="92.5001" y="53.5001" width="604" height="691" stroke="#D9D9D9" stroke-width="1.33333" stroke-miterlimit="8" fill="none"/><rect x="118" y="86" width="550" height="291" fill="#F2F2F2"/><path d="M361.5 223.5 658.5 223.5 658.5 337.666 635.666 360.5 361.5 360.5Z" fill="#F2F2F2" fill-rule="evenodd"/><path d="M635.666 360.5 640.233 342.233 658.5 337.666Z" fill="#C3C3C3" fill-rule="evenodd"/><path d="M635.666 360.5 640.233 342.233 658.5 337.666 635.666 360.5 361.5 360.5 361.5 223.5 658.5 223.5 658.5 337.666" stroke="#2F528F" stroke-width="1.33333" stroke-miterlimit="8" fill="none" fill-rule="evenodd"/><rect x="137.5" y="180.5" width="207" height="180" stroke="#000000" stroke-width="1.33333" stroke-miterlimit="8" fill="#FFFFFF"/><text font-family="Yu Gothic,Yu Gothic_MSFontService,sans-serif" font-weight="400" font-size="19" transform="translate(203.065 202)">クラス名<tspan font-size="16" x="-56.1777" y="31">特性値名</tspan><tspan font-family="Consolas,Consolas_MSFontService,sans-serif" font-size="16" x="7.82227" y="31">:</tspan><tspan font-size="16" x="16.6556" y="31">データ型名</tspan><tspan font-size="16" x="-56.1777" y="50">・・・</tspan></text><path d="M126.5 228.167C126.5 220.067 133.067 213.5 141.167 213.5L312.833 213.5C320.933 213.5 327.5 220.067 327.5 228.167L327.5 286.833C327.5 294.933 320.933 301.5 312.833 301.5L141.167 301.5C133.067 301.5 126.5 294.933 126.5 286.833Z" stroke="#FF0000" stroke-width="1.33333" stroke-miterlimit="8" fill="none" fill-rule="evenodd"/><text font-family="Yu Gothic,Yu Gothic_MSFontService,sans-serif" font-weight="400" font-size="16" transform="translate(370.638 252)">特徴値のリスト</text><path d="M196.5 189.5C196.5 187.291 198.291 185.5 200.5 185.5L281.5 185.5C283.709 185.5 285.5 187.291 285.5 189.5L285.5 205.5C285.5 207.709 283.709 209.5 281.5 209.5L200.5 209.5C198.291 209.5 196.5 207.709 196.5 205.5Z" stroke="#FF0000" stroke-width="1.33333" stroke-miterlimit="8" fill="none" fill-rule="evenodd"/><text font-family="Yu Gothic,Yu Gothic_MSFontService,sans-serif" font-weight="400" font-size="16" transform="translate(370.638 188)">概念クラス名</text><path d="M0.0628377-0.327357 75.8134 14.2133 75.6877 14.868-0.0628377 0.327357ZM77.0073 7.99354C80.6232 8.68763 82.9918 12.1816 82.2977 15.7974 81.6036 19.4133 78.1097 21.7819 74.4938 21.0878 70.8779 20.3937 68.5093 16.8998 69.2034 13.2839 69.8975 9.66804 73.3914 7.29946 77.0073 7.99354Z" fill="#FF0000" transform="matrix(-1 0 0 1 361.251 183.5)"/><path d="M361.478 247.867 311.441 238.828 311.559 238.172 361.596 247.211ZM310.315 245.061C306.692 244.406 304.285 240.938 304.94 237.315 305.594 233.692 309.062 231.285 312.685 231.94 316.308 232.594 318.715 236.062 318.061 239.685 317.406 243.308 313.938 245.715 310.315 245.061Z" fill="#FF0000"/><text font-family="Yu Gothic,Yu Gothic_MSFontService,sans-serif" font-weight="400" font-size="16" transform="translate(426.282 287)">特性値名<tspan font-family="Consolas,Consolas_MSFontService,sans-serif" font-size="16" x="64" y="0">:</tspan><tspan font-size="16" x="72.8333" y="0">データ型名</tspan></text><path d="M426.282 288.758 458.282 288.758 490.282 288.758 490.282 289.758 458.282 289.758 426.282 289.758Z" fill-rule="evenodd"/><path d="M499.282 288.758 539.282 288.758 579.282 288.758 579.282 289.758 539.282 289.758 499.282 289.758Z" fill-rule="evenodd"/><text font-family="Yu Gothic,Yu Gothic_MSFontService,sans-serif" font-weight="400" font-size="16" transform="translate(388.476 334)">特徴値の名前<tspan font-size="16" x="114.341" y="0">特徴値のデータ型名</tspan></text><path d="M0.203698-0.263853 32.4428 24.6251 32.0354 25.1528-0.203698 0.263853ZM36.313 19.6119C39.2274 21.8618 39.7661 26.0484 37.5161 28.9629 35.2661 31.8773 31.0795 32.416 28.1651 30.166 25.2507 27.916 24.712 23.7294 26.962 20.815 29.212 17.9005 33.3986 17.3619 36.313 19.6119Z" fill="#FF0000" transform="matrix(1 0 0 -1 437.5 314.389)"/><path d="M576.321 314.339 553.257 289.728 553.743 289.272 576.807 313.883ZM548.636 294.059C546.118 291.372 546.255 287.153 548.941 284.636 551.628 282.118 555.847 282.255 558.365 284.941 560.882 287.628 560.745 291.847 558.059 294.364 555.372 296.882 551.153 296.745 548.636 294.059Z" fill="#FF0000"/><text font-family="Yu Gothic,Yu Gothic_MSFontService,sans-serif" font-weight="400" font-size="16" transform="translate(327.275 140)">概念クラス</text><path d="M0.174259-0.284156 48.536 29.3738 48.1875 29.9421-0.174259 0.284156ZM51.847 23.9748C54.9857 25.8996 55.9697 30.0044 54.0449 33.1431 52.1201 36.2818 48.0153 37.2659 44.8766 35.3411 41.7379 33.4163 40.7538 29.3115 42.6787 26.1728 44.6035 23.0341 48.7083 22.05 51.847 23.9748Z" fill="#FF0000" transform="matrix(-1 0 0 1 367.862 149.5)"/><text font-family="Yu Gothic,Yu Gothic_MSFontService,sans-serif" font-weight="400" font-size="16" transform="translate(129.284 478)">UML表記</text><rect x="131.5" y="513.5" width="206" height="180" stroke="#000000" stroke-width="1.33333" stroke-miterlimit="8" fill="#FFFFFF"/><text font-family="Yu Gothic,Yu Gothic_MSFontService,sans-serif" font-weight="400" font-size="19" transform="translate(197.018 535)">クラス名<tspan font-size="16" x="-56.1777" y="31">特性値名</tspan><tspan font-family="Consolas,Consolas_MSFontService,sans-serif" font-size="16" x="7.82225" y="31">:</tspan><tspan font-size="16" x="16.6556" y="31">データ型名</tspan><tspan font-size="16" x="-56.1777" y="50">・・・</tspan></text><path d="M131.5 544.5 337.722 544.5" stroke="#000000" stroke-width="0.666667" stroke-miterlimit="8" fill="none" fill-rule="evenodd"/><path d="M131.5 650.5 337.722 650.5" stroke="#000000" stroke-width="0.666667" stroke-miterlimit="8" fill="none" fill-rule="evenodd"/><text font-family="Yu Gothic,Yu Gothic_MSFontService,sans-serif" font-weight="400" font-size="16" transform="translate(140.84 503)">属性のパートに特徴値を記載<tspan font-size="16" x="337.885" y="-25">簡易表記</tspan></text><rect x="381.5" y="514.5" width="133" height="125" stroke="#000000" stroke-width="1.33333" stroke-miterlimit="8" fill="#FFFFFF"/><text font-family="Yu Gothic,Yu Gothic_MSFontService,sans-serif" font-weight="400" font-size="19" transform="translate(409.734 536)">クラス名<tspan font-size="16" x="-19.9132" y="23">特性値名</tspan><tspan font-size="16" x="-19.9132" y="42">・・・</tspan></text><rect x="552.5" y="514.5" width="100" height="87" stroke="#000000" stroke-width="1.33333" stroke-miterlimit="8" fill="#FFFFFF"/><text font-family="Yu Gothic,Yu Gothic_MSFontService,sans-serif" font-weight="400" font-size="19" transform="translate(564.753 563)">クラス名<tspan font-size="16" x="-174.932" y="-60">データ型なし</tspan><tspan font-size="16" x="-2.01556" y="-60">クラス名のみ</tspan><tspan font-size="16" x="-153.983" y="107">※</tspan><tspan font-size="16" x="-133.483" y="107">大規模なクラス図で使用</tspan><tspan font-size="19" x="-415.097" y="-437">問題領域名</tspan></text><path d="M140.5 106.834C140.5 103.336 143.336 100.5 146.833 100.5L248.167 100.5C251.664 100.5 254.5 103.336 254.5 106.834L254.5 132.167C254.5 135.664 251.664 138.5 248.167 138.5L146.833 138.5C143.336 138.5 140.5 135.664 140.5 132.167Z" stroke="#FF0000" stroke-width="1.33333" stroke-miterlimit="8" fill="none" fill-rule="evenodd"/><path d="M0.0568593-0.328448 48.5576 8.06777 48.4439 8.72467-0.0568593 0.328448ZM49.638 1.82726C53.2659 2.45531 55.6978 5.90547 55.0697 9.53341 54.4417 13.1613 50.9915 15.5932 47.3636 14.9652 43.7357 14.3371 41.3038 10.887 41.9318 7.25903 42.5599 3.6311 46.01 1.19921 49.638 1.82726Z" fill="#FF0000" transform="matrix(-1 0 0 1 303.001 104.5)"/><text font-family="Yu Gothic,Yu Gothic_MSFontService,sans-serif" font-weight="400" font-size="16" transform="translate(311.789 109)">モデル化対象の問題領域の名前<tspan font-size="16" x="-14.9958" y="614">※</tspan><tspan font-size="16" x="5.50421" y="614">図はなるべく見やすく描くこと</tspan><tspan font-size="16" x="-88.4061" y="294">※</tspan><tspan font-size="16" x="-67.9061" y="294">クラス名は同一の問題領域内で重複しないこと</tspan><tspan font-size="16" x="-88.4061" y="313">※</tspan><tspan font-size="16" x="-67.9061" y="313">特徴値名は同一のクラス内で重複しないこと</tspan></text></g></svg>