<svg width="607" height="324" xmlns="http://www.w3.org/2000/svg" xmlns:xlink="http://www.w3.org/1999/xlink" overflow="hidden"><defs><clipPath id="clip0"><rect x="727" y="55" width="607" height="324"/></clipPath><clipPath id="clip1"><rect x="780" y="114" width="57" height="56"/></clipPath><clipPath id="clip2"><rect x="780" y="114" width="57" height="56"/></clipPath><clipPath id="clip3"><rect x="780" y="114" width="57" height="56"/></clipPath><clipPath id="clip4"><rect x="801" y="85" width="53" height="19"/></clipPath><clipPath id="clip5"><rect x="801" y="85" width="53" height="19"/></clipPath><clipPath id="clip6"><rect x="801" y="85" width="53" height="55"/></clipPath><clipPath id="clip7"><path d="M859.298 189.92 843.539 179.958 871.972 134.98 887.731 144.942Z" fill-rule="evenodd" clip-rule="evenodd"/></clipPath><clipPath id="clip8"><path d="M859.298 189.92 843.539 179.958 871.972 134.98 887.731 144.942Z" fill-rule="evenodd" clip-rule="evenodd"/></clipPath><clipPath id="clip9"><path d="M859.298 189.92 814.321 161.489 842.753 116.51 887.731 144.942Z" fill-rule="evenodd" clip-rule="evenodd"/></clipPath><clipPath id="clip10"><path d="M757.16 144.439 772.222 133.452 803.58 176.443 788.517 187.429Z" fill-rule="evenodd" clip-rule="evenodd"/></clipPath><clipPath id="clip11"><path d="M757.16 144.439 772.222 133.452 803.58 176.443 788.517 187.429Z" fill-rule="evenodd" clip-rule="evenodd"/></clipPath><clipPath id="clip12"><path d="M757.16 144.439 800.149 113.082 831.507 156.073 788.517 187.429Z" fill-rule="evenodd" clip-rule="evenodd"/></clipPath><clipPath id="clip13"><rect x="778" y="219" width="107" height="107"/></clipPath><clipPath id="clip14"><rect x="778" y="219" width="107" height="107"/></clipPath><clipPath id="clip15"><rect x="778" y="219" width="107" height="107"/></clipPath></defs><g clip-path="url(#clip0)" transform="translate(-727 -55)"><rect x="728.5" y="56.5001" width="605" height="321" stroke="#D9D9D9" stroke-width="1.33333" stroke-miterlimit="8" fill="none"/><rect x="757" y="73" width="552" height="287" fill="#F2F2F2"/><g clip-path="url(#clip1)"><g clip-path="url(#clip2)"><g clip-path="url(#clip3)"><path d="M22.1618 37.7121 21.4828 39.0165 21.454 39.0694C19.8778 41.749 16.9668 43.4131 13.8549 43.4131 12.2939 43.4131 10.7518 42.9924 9.39991 42.1967 7.37166 41.0036 5.92911 39.0937 5.33969 36.816 5.31366 36.719 5.29222 36.6213 5.27056 36.5235L4.1475 45.1434 23.1369 45.1434 22.1618 37.7121Z" fill="#4B4B4B" transform="matrix(1.01786 0 0 1 780 114)"/><path d="M23.2841 6.46308 7.26753 30.7283C5.12619 34.3686 6.34167 39.0596 9.98484 41.2008 13.6269 43.3431 18.3159 42.1265 20.4582 38.4836L31.329 17.5861 25.3366 11.8896C23.7739 10.2784 23.2419 8.47875 23.2841 6.46308ZM16.4931 36.152C15.6391 37.6054 13.7687 38.0897 12.3163 37.2366 10.863 36.3809 10.3777 34.5122 11.2327 33.0589 12.0867 31.6055 13.9571 31.1212 15.4094 31.9752 16.8618 32.8301 17.3481 34.6997 16.4931 36.152Z" fill="#4B4B4B" transform="matrix(1.01786 0 0 1 780 114)"/><path d="M23.6689 46.1833 3.74916 46.1833C2.39269 46.1833 1.2938 47.283 1.2938 48.6395L1.2938 56 26.1232 56 26.1232 48.6395C26.1232 47.283 25.0243 46.1833 23.6689 46.1833Z" fill="#4B4B4B" transform="matrix(1.01786 0 0 1 780 114)"/><path d="M49.2214 20.315C50.0071 20.315 50.7616 20.4523 51.4614 20.7043L35.9302 2.13741C33.4533-0.553875 29.2632-0.726906 26.5728 1.75077 23.8815 4.22669 23.7093 8.41706 26.1861 11.1074L42.5875 26.6887C42.7273 23.1506 45.6483 20.315 49.2214 20.315ZM32.767 8.48061C31.7417 9.4243 30.145 9.35703 29.2012 8.33175 28.2556 7.30636 28.322 5.70959 29.3483 4.7658 30.3737 3.82036 31.9704 3.88664 32.916 4.91302 33.8598 5.9383 33.7933 7.53506 32.767 8.48061Z" fill="#4B4B4B" transform="matrix(1.01786 0 0 1 780 114)"/><path d="M47.2137 39.9467 49.355 42.3554 51.4954 39.9467 51.4954 35.9816 47.2137 35.9816Z" fill="#4B4B4B" transform="matrix(1.01786 0 0 1 780 114)"/><path d="M49.2214 21.4694C46.1919 21.4694 43.7357 23.9248 43.7357 26.9551L43.7357 34.8486 54.7061 34.8486 54.7061 26.9551C54.7062 23.9248 52.2517 21.4694 49.2214 21.4694ZM49.2214 28.9288C48.0382 28.9288 47.08 27.9698 47.08 26.7875 47.08 25.6042 48.0382 24.6453 49.2214 24.6453 50.4037 24.6453 51.3636 25.6041 51.3636 26.7875 51.3636 27.9697 50.4038 28.9288 49.2214 28.9288Z" fill="#4B4B4B" transform="matrix(1.01786 0 0 1 780 114)"/></g></g></g><path d="M2-7.22024e-06 2.00007 19.0813-1.99993 19.0813-2 7.22024e-06ZM6.00006 17.0812 0.000104987 29.0813-5.99994 17.0813Z" fill="#FF0000" transform="matrix(1 0 0 -1 828 131.081)"/><path d="M1.09864-1.67122 27.8283 15.9006 25.631 19.243-1.09864 1.67122ZM28.3544 11.4595 35.0858 23.065 21.7625 21.4868Z" fill="#FF0000" transform="matrix(-1 0 0 1 826.086 137)"/><path d="M827.169 135.377 851.087 152.599 848.749 155.845 824.831 138.623ZM851.801 148.184 858.033 160.065 844.789 157.922Z" fill="#FF0000"/><g clip-path="url(#clip4)"><g clip-path="url(#clip5)"><g clip-path="url(#clip6)"><path d="M11.9078 18.7873 11.9066 18.7873C10.6356 21.1941 10.0006 23.8489 10.0006 26.5026 10.0006 29.1536 10.6343 31.8072 11.904 34.2153L14.559 32.8141C13.5223 30.8499 13.0015 28.675 13.0015 26.5026 13.0015 24.3276 13.5223 22.155 14.5613 20.1884L11.9078 18.7873Z" fill="#FFC000" transform="matrix(6.26497e-17 1.02315 -1 6.12323e-17 854 85)"/><path d="M5.7152 15.5098 4.3871 14.8094 3.06034 14.1088 3.06034 14.1088 3.05909 14.1088 3.05909 14.1075C1.01808 17.9763 0 22.2406 0 26.5026 0 26.5026 0 26.5026 0 26.5037L0 26.5037C0 30.7644 1.01932 35.0275 3.05909 38.8926L5.71272 37.4902C3.9073 34.0665 3.00081 30.2858 3.00081 26.5037 3.00081 25.2626 3.10816 24.0225 3.30277 22.7937 3.70151 20.2764 4.49941 17.8113 5.7152 15.5098Z" fill="#FFC000" transform="matrix(6.26497e-17 1.02315 -1 6.12323e-17 854 85)"/><path d="M53 26.4925C53 23.5055 52.4879 20.5221 51.486 17.6737 51.0589 16.4573 50.5516 15.2633 49.9423 14.1075L49.941 14.1075 49.941 14.1075 48.6143 14.8081 47.2862 15.5088C49.0928 18.9299 49.998 22.7106 49.998 26.4925 49.998 30.2771 49.0928 34.0629 47.2837 37.4889L49.9373 38.8926C50.7879 37.2794 51.4513 35.5954 51.9473 33.8742 52.4936 31.9807 52.8352 30.0415 52.9524 28.0898 52.9839 27.5577 53 27.0259 53 26.4925Z" fill="#FFC000" transform="matrix(6.26497e-17 1.02315 -1 6.12323e-17 854 85)"/><path d="M38.4412 20.1859C39.4779 22.1501 39.9973 24.3225 39.9973 26.4976 39.9973 28.6725 39.4753 30.8451 38.4374 32.8117L41.0924 34.2128C42.3634 31.8048 42.9995 29.1512 42.9995 26.4977 42.9995 23.8453 42.3658 21.1917 41.0961 18.7849L38.4412 20.1859Z" fill="#FFC000" transform="matrix(6.26497e-17 1.02315 -1 6.12323e-17 854 85)"/><path d="M26.4826 21.4979C23.7199 21.5053 21.4879 23.7534 21.4978 26.5161 21.5064 29.2801 23.7534 31.5109 26.5161 31.5022 29.2788 31.4935 31.5109 29.2453 31.5021 26.4826 31.4935 23.72 29.2467 21.4879 26.4826 21.4979Z" fill="#FFC000" transform="matrix(6.26497e-17 1.02315 -1 6.12323e-17 854 85)"/></g></g></g><g clip-path="url(#clip7)"><g clip-path="url(#clip8)"><g clip-path="url(#clip9)"><path d="M11.9551 18.8619 11.9539 18.8619C10.6778 21.2783 10.0404 23.9436 10.0404 26.6078 10.0404 29.2694 10.6765 31.9336 11.9513 34.3512L14.6168 32.9445C13.576 30.9724 13.0531 28.7888 13.0531 26.6078 13.0531 24.4242 13.576 22.243 14.6192 20.2686L11.9551 18.8619Z" fill="#FFC000" transform="matrix(-0.845277 -0.534329 0.534339 -0.845292 859.298 189.92)"/><path d="M5.7379 15.5714 4.40452 14.8682 3.07249 14.1648 3.07249 14.1648 3.07124 14.1648 3.07124 14.1635C1.02212 18.0477 0 22.329 0 26.6078 0 26.6078 0 26.6078 0 26.609L0 26.609C0 30.8866 1.02337 35.1666 3.07124 39.047L5.7354 37.639C3.92282 34.2018 3.01273 30.406 3.01273 26.609 3.01273 25.3629 3.1205 24.1179 3.31589 22.8842 3.71621 20.357 4.51728 17.882 5.7379 15.5714Z" fill="#FFC000" transform="matrix(-0.845277 -0.534329 0.534339 -0.845292 859.298 189.92)"/><path d="M53.2105 26.5978C53.2105 23.5988 52.6963 20.6036 51.6904 17.7439 51.2616 16.5227 50.7524 15.3239 50.1406 14.1635L50.1393 14.1635 50.1393 14.1635 48.8073 14.8669 47.474 15.5704C49.2878 19.0051 50.1966 22.8008 50.1966 26.5978 50.1966 30.3973 49.2878 34.1981 47.4714 37.6378L50.1356 39.047C50.9896 37.4274 51.6556 35.7368 52.1536 34.0088 52.7021 32.1077 53.045 30.1608 53.1627 28.2013 53.1943 27.6672 53.2105 27.1332 53.2105 26.5978Z" fill="#FFC000" transform="matrix(-0.845277 -0.534329 0.534339 -0.845292 859.298 189.92)"/><path d="M38.5939 20.266C39.6346 22.238 40.1561 24.4191 40.1561 26.6028 40.1561 28.7863 39.632 30.9676 38.5901 32.942L41.2556 34.3487C42.5316 31.9311 43.1702 29.267 43.1702 26.6029 43.1702 23.94 42.5341 21.2759 41.2593 18.8595L38.5939 20.266Z" fill="#FFC000" transform="matrix(-0.845277 -0.534329 0.534339 -0.845292 859.298 189.92)"/><path d="M26.5878 21.5833C23.8141 21.5907 21.5732 23.8477 21.5832 26.6214 21.5918 29.3964 23.8477 31.636 26.6214 31.6273 29.395 31.6186 31.636 29.3615 31.6272 26.5878 31.6186 23.8142 29.3628 21.5732 26.5878 21.5833Z" fill="#FFC000" transform="matrix(-0.845277 -0.534329 0.534339 -0.845292 859.298 189.92)"/></g></g></g><g clip-path="url(#clip10)"><g clip-path="url(#clip11)"><g clip-path="url(#clip12)"><path d="M11.9551 18.8619 11.9539 18.8619C10.6778 21.2783 10.0404 23.9436 10.0404 26.6078 10.0404 29.2694 10.6765 31.9336 11.9513 34.3512L14.6168 32.9445C13.576 30.9724 13.0531 28.7888 13.0531 26.6078 13.0531 24.4242 13.576 22.243 14.6192 20.2686L11.9551 18.8619Z" fill="#FFC000" transform="matrix(0.807917 -0.589297 0.589308 0.807931 757.16 144.439)"/><path d="M5.7379 15.5714 4.40452 14.8682 3.07249 14.1648 3.07249 14.1648 3.07124 14.1648 3.07124 14.1635C1.02212 18.0477 0 22.329 0 26.6078 0 26.6078 0 26.6078 0 26.609L0 26.609C0 30.8866 1.02337 35.1666 3.07124 39.047L5.7354 37.639C3.92282 34.2018 3.01273 30.406 3.01273 26.609 3.01273 25.3629 3.1205 24.1179 3.31589 22.8842 3.71621 20.357 4.51728 17.882 5.7379 15.5714Z" fill="#FFC000" transform="matrix(0.807917 -0.589297 0.589308 0.807931 757.16 144.439)"/><path d="M53.2105 26.5978C53.2105 23.5988 52.6963 20.6036 51.6904 17.7439 51.2616 16.5227 50.7524 15.3239 50.1406 14.1635L50.1393 14.1635 50.1393 14.1635 48.8073 14.8669 47.474 15.5704C49.2878 19.0051 50.1966 22.8008 50.1966 26.5978 50.1966 30.3973 49.2878 34.1981 47.4714 37.6378L50.1356 39.047C50.9896 37.4274 51.6556 35.7368 52.1536 34.0088 52.7021 32.1077 53.045 30.1608 53.1627 28.2013 53.1943 27.6672 53.2105 27.1332 53.2105 26.5978Z" fill="#FFC000" transform="matrix(0.807917 -0.589297 0.589308 0.807931 757.16 144.439)"/><path d="M38.5939 20.266C39.6346 22.238 40.1561 24.4191 40.1561 26.6028 40.1561 28.7863 39.632 30.9676 38.5901 32.942L41.2556 34.3487C42.5316 31.9311 43.1702 29.267 43.1702 26.6029 43.1702 23.94 42.5341 21.2759 41.2593 18.8595L38.5939 20.266Z" fill="#FFC000" transform="matrix(0.807917 -0.589297 0.589308 0.807931 757.16 144.439)"/><path d="M26.5878 21.5833C23.8141 21.5907 21.5732 23.8477 21.5832 26.6214 21.5918 29.3964 23.8477 31.636 26.6214 31.6273 29.395 31.6186 31.636 29.3615 31.6272 26.5878 31.6186 23.8142 29.3628 21.5732 26.5878 21.5833Z" fill="#FFC000" transform="matrix(0.807917 -0.589297 0.589308 0.807931 757.16 144.439)"/></g></g></g><text font-family="Yu Gothic,Yu Gothic_MSFontService,sans-serif" font-weight="400" font-size="16" transform="translate(892.77 115)">加速度：<tspan font-size="16" x="0" y="19">単位：</tspan>1/(9.8m/s<tspan font-size="11" x="122.167" y="14">2</tspan><tspan font-size="16" x="128.167" y="19">)</tspan><tspan font-size="16" x="134.333" y="19">、数値：</tspan>Real<tspan font-size="16" x="231.167" y="19">、精度：</tspan>±<tspan font-size="16" x="315.667" y="19">0.01%</tspan><tspan font-size="16" x="0" y="38">“acceleration”:{“x”:0.01401,”y”:</tspan><tspan font-size="16" x="227.5" y="38">-</tspan>0.0712,”z”:0.99128}</text><g clip-path="url(#clip13)"><g clip-path="url(#clip14)"><g clip-path="url(#clip15)"><path d="M832.152 315.139C832.152 317.941 829.879 320.211 827.081 320.211L816.416 320.211C813.614 320.211 811.345 317.941 811.345 315.139L811.345 312.798C811.345 309.996 813.614 307.727 816.416 307.727L827.081 307.727C829.879 307.727 832.152 309.996 832.152 312.798L832.152 315.139Z" fill="#4B4B4B"/><path d="M785.712 295.423 784.82 295.423C782.021 295.423 779.749 297.696 779.749 300.494L779.749 307.499C779.749 310.3 781.055 312.573 783.292 312.573L783.85 312.573C786.27 312.573 785.711 314.842 785.711 317.644L785.711 320.929C785.712 323.727 787.984 326 790.783 326L798.535 326C801.336 326 803.606 323.727 803.606 320.929L803.606 312.573 803.606 300.494C803.606 297.696 801.337 295.423 798.535 295.423L785.712 295.423Z" fill="#4B4B4B"/><path d="M848.704 252.738C846.317 252.738 844.253 254.403 843.75 256.735L840.916 269.803C840.413 272.134 838.346 273.8 835.959 273.8L804.203 273.8C801.405 273.8 799.132 276.072 799.132 278.871L799.132 282.711C799.132 285.509 801.405 287.782 804.203 287.782L805.245 287.782C808.044 287.782 810.316 290.055 810.316 292.857L810.316 295.381C810.316 298.179 812.589 300.452 815.388 300.452L854.703 300.452C857.083 300.452 859.144 298.793 859.656 296.462L867.872 258.89C868.202 257.395 867.833 255.827 866.87 254.632 865.906 253.43 864.453 252.738 862.915 252.738L848.704 252.738Z" fill="#4B4B4B"/><path d="M879.973 241.727C879.516 244.114 877.43 245.842 874.99 245.842L852.939 245.842C851.427 245.842 849.991 245.172 849.034 244.006 848.067 242.837 847.672 241.303 847.956 239.82L851.143 223.121C851.601 220.731 853.69 219 856.126 219L878.181 219C879.692 219 881.123 219.673 882.086 220.842 883.053 222.007 883.445 223.542 883.161 225.028L879.973 241.727Z" fill="#4B4B4B"/></g></g></g><path d="M852.5 292.848 857.848 292.848 859.5 287.5 861.153 292.848 866.5 292.848 862.174 296.152 863.826 301.5 859.5 298.195 855.174 301.5 856.826 296.152Z" stroke="#BC8C00" stroke-width="1.33333" stroke-miterlimit="8" fill="#FFC000" fill-rule="evenodd"/><text font-family="Yu Gothic,Yu Gothic_MSFontService,sans-serif" font-weight="400" font-size="16" transform="translate(897.331 223)">位置<tspan font-size="16" x="36.5" y="0">－</tspan><tspan font-size="16" x="0" y="19">単位：度、数値：</tspan>Real<tspan font-size="16" x="16" y="38">緯度</tspan><tspan font-size="16" x="52.5" y="38">－</tspan><tspan font-size="16" x="73" y="38">値域：</tspan>-90<tspan font-size="16" x="145.667" y="38">～</tspan>90<tspan font-size="16" x="16" y="57">経度</tspan><tspan font-size="16" x="52.5" y="57">－</tspan><tspan font-size="16" x="73" y="57">値域：</tspan>-180～180<tspan font-size="16" x="0" y="77">“location”:{“latitude”:</tspan><tspan font-family="Yu Gothic Light,Yu Gothic Light_MSFontService,sans-serif" font-weight="300" font-size="16" x="156.833" y="77">34.939351</tspan>,”longitude”:<tspan font-family="Yu Gothic Light,Yu Gothic Light_MSFontService,sans-serif" font-weight="300" font-size="16" x="319.167" y="77">139.823074</tspan>}</text></g></svg>