<svg width="608" height="211" xmlns="http://www.w3.org/2000/svg" xmlns:xlink="http://www.w3.org/1999/xlink" overflow="hidden"><defs><clipPath id="clip0"><rect x="90" y="359" width="608" height="211"/></clipPath><clipPath id="clip1"><rect x="139" y="409" width="56" height="57"/></clipPath><clipPath id="clip2"><rect x="139" y="409" width="56" height="57"/></clipPath><clipPath id="clip3"><rect x="139" y="409" width="56" height="57"/></clipPath><clipPath id="clip4"><rect x="139" y="483" width="56" height="56"/></clipPath><clipPath id="clip5"><rect x="139" y="483" width="56" height="56"/></clipPath><clipPath id="clip6"><rect x="139" y="483" width="56" height="56"/></clipPath></defs><g clip-path="url(#clip0)" transform="translate(-90 -359)"><rect x="92.5001" y="360.5" width="604" height="209" stroke="#D9D9D9" stroke-width="1.33333" stroke-miterlimit="8" fill="none"/><rect x="121" y="377" width="551" height="172" fill="#F2F2F2"/><text font-family="Yu Gothic,Yu Gothic_MSFontService,sans-serif" font-weight="400" font-size="16" transform="translate(207.671 443)">携帯電話番号：<tspan fill="#333333" font-family="Calibri,Calibri_MSFontService,sans-serif" font-size="16" x="116.5" y="0">^0[789]0</tspan><tspan fill="#333333" font-family="Calibri,Calibri_MSFontService,sans-serif" font-size="16" x="175" y="0">-</tspan><tspan fill="#333333" font-family="Calibri,Calibri_MSFontService,sans-serif" font-size="16" x="179.833" y="0">¥</tspan><tspan fill="#333333" font-family="Calibri,Calibri_MSFontService,sans-serif" font-size="16" x="188" y="0">d{4}</tspan><tspan fill="#333333" font-family="Calibri,Calibri_MSFontService,sans-serif" font-size="16" x="214.5" y="0">-</tspan><tspan fill="#333333" font-family="Calibri,Calibri_MSFontService,sans-serif" font-size="16" x="219.333" y="0">¥</tspan><tspan fill="#333333" font-family="Calibri,Calibri_MSFontService,sans-serif" font-size="16" x="227.5" y="0">d{4}$</tspan><tspan font-size="16" x="0" y="74">商品コード</tspan><tspan font-size="16" x="84.5" y="74">－</tspan><tspan fill="#333333" font-family="Calibri,Calibri_MSFontService,sans-serif" font-size="16" x="105" y="74">^[a</tspan><tspan fill="#333333" font-family="Calibri,Calibri_MSFontService,sans-serif" font-size="16" x="125.5" y="74">-</tspan><tspan fill="#333333" font-family="Calibri,Calibri_MSFontService,sans-serif" font-size="16" x="130.333" y="74">z]4</tspan><tspan fill="#333333" font-family="Calibri,Calibri_MSFontService,sans-serif" font-size="16" x="149.667" y="74">-</tspan><tspan fill="#333333" font-family="Calibri,Calibri_MSFontService,sans-serif" font-size="16" x="154.5" y="74">d{6}$</tspan></text><g clip-path="url(#clip1)"><g clip-path="url(#clip2)"><g clip-path="url(#clip3)"><path d="M10.572 16.2244 8.17272 15.3208C5.97986 14.4948 3.53259 15.6033 2.7067 17.7944 1.8807 19.9877 2.98977 22.4334 5.18241 23.2594L10.572 25.291 10.572 16.2244Z" fill="#4B4B4B" transform="matrix(1 0 0 1.01786 139 409)"/><path d="M42.596 17.9712C42.5717 18.0576 42.548 18.1395 42.5242 18.2236L42.5242 47.6488C42.5242 48.4641 42.1894 49.2135 41.6551 49.7462 41.1214 50.2821 40.373 50.6152 39.5579 50.6152L17.8258 50.6152C17.9315 50.4428 18.0281 50.2615 18.1024 50.0642 18.2437 49.6869 18.3106 49.3029 18.3106 48.9255 18.3106 48.2754 18.1106 47.6403 17.7499 47.1075 17.3877 46.5747 16.8685 46.1488 16.2187 45.904L12.8743 44.6446 12.8732 44.6446C12.497 44.5023 12.1142 44.4353 11.7362 44.4353 11.0849 44.4353 10.4493 44.6348 9.91758 44.9962 9.38492 45.3585 8.95792 45.8782 8.71314 46.5275 8.57248 46.9026 8.50445 47.2866 8.50445 47.664 8.50445 48.3175 8.7057 48.9526 9.06631 49.4842 9.42867 50.0159 9.94788 50.4439 10.5976 50.6877L13.9425 51.9471C14.3194 52.0895 14.7033 52.1562 15.0801 52.1562 15.7315 52.1562 16.367 51.9556 16.8988 51.5955 16.9921 51.5318 17.0777 51.4574 17.1645 51.3842 19.8388 53.6314 24.0205 55.8441 30.2521 55.9929 43.2653 56.3013 46.7262 46.6589 48.6067 36.0893 48.6067 36.0893 53.0967 15.8407 53.4015 14.7709 54.925 9.42014 45.4902 7.80708 42.596 17.9712Z" fill="#4B4B4B" transform="matrix(1 0 0 1.01786 139 409)"/><path d="M15.6391 27.1531 15.6391 4.81567 37.4572 4.81567 37.4572 40.547 18.765 40.547C18.7224 40.9265 18.6356 41.305 18.4955 41.677 18.1418 42.6194 17.5131 43.3851 16.7384 43.9112 16.5345 44.0492 16.3216 44.17 16.1011 44.2746L16.7412 44.5151C17.683 44.8688 18.4504 45.4985 18.9765 46.2727 19.404 46.9025 19.6731 47.6292 19.7599 48.3906L39.5579 48.3906C39.766 48.3906 39.9439 48.3086 40.0819 48.1738 40.2177 48.0357 40.2987 47.8568 40.2987 47.6486L40.2987 0.741781C40.2987 0.532656 40.2177 0.355687 40.0819 0.217656 39.9439 0.0807187 39.766 0.000875 39.5579-0.000109375L13.5384-0.000109375C13.3303 0.000875 13.1519 0.0807187 13.0143 0.217656 12.8785 0.355687 12.7986 0.532547 12.7975 0.741781L12.7975 25.9658 14.7396 26.6947C15.061 26.8178 15.3608 26.972 15.6391 27.1531ZM26.5479 46.0183C25.8308 46.0183 25.2502 45.436 25.2502 44.72 25.2502 44.0029 25.8308 43.4218 26.5479 43.4218 27.2645 43.4218 27.8461 44.0029 27.8461 44.72 27.8461 45.436 27.2645 46.0183 26.5479 46.0183Z" fill="#4B4B4B" transform="matrix(1 0 0 1.01786 139 409)"/><path d="M12.9476 43.0379C13.3245 43.1791 13.7083 43.246 14.0851 43.246 14.737 43.246 15.3721 43.0465 15.9037 42.6852 16.4363 42.323 16.8623 41.8021 17.1076 41.154 17.2489 40.7776 17.3157 40.3938 17.3157 40.0164 17.3157 39.3649 17.1163 38.7288 16.755 38.1983 16.3933 37.6657 15.8736 37.2387 15.225 36.9939L11.8794 35.7334C11.5032 35.5922 11.1197 35.5252 10.7413 35.5252 10.0901 35.5252 9.45481 35.7247 8.92325 36.086 8.39114 36.4482 7.96414 36.9691 7.71936 37.6183 7.57706 37.9936 7.51067 38.3774 7.51023 38.7559 7.51023 39.4072 7.71072 40.0423 8.07198 40.5751 8.4338 41.1078 8.95355 41.5326 9.60367 41.7785L12.9476 43.0379Z" fill="#4B4B4B" transform="matrix(1 0 0 1.01786 139 409)"/><path d="M11.9399 34.1266C12.3168 34.2712 12.7006 34.3359 13.0774 34.3359 13.7287 34.3359 14.3654 34.1375 14.8971 33.775 15.4287 33.4128 15.8558 32.8941 16.0999 32.2459 16.2423 31.8663 16.308 31.4835 16.308 31.1052 16.3091 30.456 16.1092 29.8198 15.7485 29.2871 15.3862 28.7555 14.8659 28.3295 14.2161 28.0837L10.8718 26.8242C10.4943 26.6818 10.1115 26.6151 9.73361 26.6151 9.08239 26.6151 8.44714 26.8145 7.91514 27.1779 7.38347 27.5381 6.95647 28.059 6.71059 28.7092 6.56994 29.0843 6.503 29.4684 6.503 29.8457 6.503 30.4969 6.70305 31.1321 7.06431 31.6648 7.42613 32.1965 7.94642 32.6235 8.59622 32.8693L11.9399 34.1266Z" fill="#4B4B4B" transform="matrix(1 0 0 1.01786 139 409)"/><path d="M24.7885 20.6217 25.9677 19.8625C26.3457 19.621 26.4556 19.1185 26.2125 18.7411L24.5448 16.1401C24.3028 15.7628 23.8002 15.655 23.4223 15.8955 23.4137 15.9007 23.2817 15.9849 21.8544 16.9015 20.1916 17.969 21.0851 22.5422 23.4584 26.2419 25.8323 29.9416 29.6194 32.6589 31.2811 31.5914 32.7089 30.676 32.8398 30.5918 32.849 30.5843 33.2264 30.3438 33.3364 29.8393 33.0944 29.4618L31.4255 26.863C31.184 26.4856 30.681 26.3757 30.303 26.6194L29.1234 27.3762C28.7794 27.5962 28.3239 27.5262 28.0612 27.2135 28.0612 27.2135 27.2686 26.4015 26.0852 24.5564 24.9023 22.7137 24.4935 21.6525 24.4935 21.6525 24.3179 21.2838 24.4447 20.8417 24.7885 20.6217Z" fill="#4B4B4B" transform="matrix(1 0 0 1.01786 139 409)"/></g></g></g><g clip-path="url(#clip4)"><g clip-path="url(#clip5)"><g clip-path="url(#clip6)"><path d="M139 493.293 144.312 493.293 144.312 528.708 139 528.708Z" fill="#4B4B4B"/><path d="M146.968 493.293 149.624 493.293 149.624 528.708 146.968 528.708Z" fill="#4B4B4B"/><path d="M152.281 493.293 152.281 528.707 154.937 528.707 157.593 528.707 157.593 493.293 154.937 493.293Z" fill="#4B4B4B"/><path d="M160.249 493.293 160.249 528.707 162.905 528.707 165.561 528.707 165.561 493.293 162.905 493.293Z" fill="#4B4B4B"/><path d="M168.217 493.293 170.874 493.293 170.874 528.708 168.217 528.708Z" fill="#4B4B4B"/><path d="M176.186 493.293 173.53 493.293 173.53 528.707 176.186 528.707 178.842 528.707 181.498 528.707 181.498 493.293 178.842 493.293Z" fill="#4B4B4B"/><path d="M184.154 493.293 184.154 528.707 186.81 528.707 189.54 528.707 189.54 493.293 186.81 493.293Z" fill="#4B4B4B"/><path d="M192.27 493.293 195 493.293 195 528.708 192.27 528.708Z" fill="#4B4B4B"/></g></g></g></g></svg>