<svg width="608" height="634" xmlns="http://www.w3.org/2000/svg" xmlns:xlink="http://www.w3.org/1999/xlink" overflow="hidden"><defs><clipPath id="clip0"><rect x="90" y="55" width="608" height="634"/></clipPath></defs><g clip-path="url(#clip0)" transform="translate(-90 -55)"><rect x="92.5001" y="56.5001" width="604" height="631" stroke="#D9D9D9" stroke-width="1.33333" stroke-miterlimit="8" fill="none"/><rect x="121" y="73" width="534" height="228" fill="#F2F2F2"/><rect x="121" y="318" width="534" height="346" fill="#F2F2F2"/><path d="M245.5 212.5C245.5 203.111 253.111 195.5 262.5 195.5 271.889 195.5 279.5 203.111 279.5 212.5 279.5 221.889 271.889 229.5 262.5 229.5 253.111 229.5 245.5 221.889 245.5 212.5Z" stroke="#2F528F" stroke-width="1.33333" stroke-miterlimit="8" fill="#4472C4" fill-rule="evenodd"/><path d="M315.5 181.5C315.5 172.111 323.335 164.5 333 164.5 342.665 164.5 350.5 172.111 350.5 181.5 350.5 190.889 342.665 198.5 333 198.5 323.335 198.5 315.5 190.889 315.5 181.5Z" stroke="#AE5A21" stroke-width="1.33333" stroke-miterlimit="8" fill="#ED7D31" fill-rule="evenodd"/><path d="M315.5 265C315.5 255.335 323.335 247.5 333 247.5 342.665 247.5 350.5 255.335 350.5 265 350.5 274.665 342.665 282.5 333 282.5 323.335 282.5 315.5 274.665 315.5 265Z" stroke="#AE5A21" stroke-width="1.33333" stroke-miterlimit="8" fill="#ED7D31" fill-rule="evenodd"/><path d="M401.5 128C401.5 118.335 409.111 110.5 418.5 110.5 427.889 110.5 435.5 118.335 435.5 128 435.5 137.665 427.889 145.5 418.5 145.5 409.111 145.5 401.5 137.665 401.5 128Z" stroke="#507E32" stroke-width="1.33333" stroke-miterlimit="8" fill="#70AD47" fill-rule="evenodd"/><path d="M421.5 216C421.5 206.335 429.335 198.5 439 198.5 448.665 198.5 456.5 206.335 456.5 216 456.5 225.665 448.665 233.5 439 233.5 429.335 233.5 421.5 225.665 421.5 216Z" stroke="#AE5A21" stroke-width="1.33333" stroke-miterlimit="8" fill="#ED7D31" fill-rule="evenodd"/><path d="M511.5 252C511.5 242.335 519.335 234.5 529 234.5 538.665 234.5 546.5 242.335 546.5 252 546.5 261.665 538.665 269.5 529 269.5 519.335 269.5 511.5 261.665 511.5 252Z" stroke="#507E32" stroke-width="1.33333" stroke-miterlimit="8" fill="#70AD47" fill-rule="evenodd"/><path d="M0 0 40.8122 18.8169" stroke="#000000" stroke-width="0.666667" stroke-miterlimit="8" fill="none" fill-rule="evenodd" transform="matrix(1 0 0 -1 274.5 200.317)"/><path d="M0 0 61.5428 29.2256" stroke="#000000" stroke-width="0.666667" stroke-miterlimit="8" fill="none" fill-rule="evenodd" transform="matrix(1 0 0 -1 345.5 169.726)"/><path d="M274.5 224.5 320.333 252.991" stroke="#000000" stroke-width="0.666667" stroke-miterlimit="8" fill="none" fill-rule="evenodd"/><path d="M345.5 193.5 422.212 216.072" stroke="#000000" stroke-width="0.666667" stroke-miterlimit="8" fill="none" fill-rule="evenodd"/><path d="M451.5 228.5 512.263 252.297" stroke="#000000" stroke-width="0.666667" stroke-miterlimit="8" fill="none" fill-rule="evenodd"/><text font-family="Yu Gothic,Yu Gothic_MSFontService,sans-serif" font-weight="400" font-size="16" transform="translate(141.649 100)">木構造の関係にある概念インスタンス群の一例</text><rect x="330.5" y="360.5" width="113" height="57" stroke="#000000" stroke-width="1.33333" stroke-miterlimit="8" fill="#FFFFFF"/><text font-family="Consolas,Consolas_MSFontService,sans-serif" font-weight="400" font-size="16" transform="translate(368.591 394)">Node</text><rect x="132.5" y="475.5" width="113" height="57" stroke="#000000" stroke-width="1.33333" stroke-miterlimit="8" fill="#FFFFFF"/><text font-family="Consolas,Consolas_MSFontService,sans-serif" font-weight="400" font-size="16" transform="translate(175.205 509)">Top</text><path d="M377.5 435.5 387.5 417.5 397.5 435.5Z" stroke="#000000" stroke-width="1.33333" stroke-miterlimit="8" fill="none" fill-rule="evenodd"/><path d="M0 0 19.7913 0 19.7913 196.907 39.5826 196.907" stroke="#000000" stroke-width="0.666667" stroke-miterlimit="8" fill="none" fill-rule="evenodd" transform="matrix(1.83697e-16 1 1 -1.83697e-16 387.5 435.5)"/><text font-family="Yu Gothic,Yu Gothic_MSFontService,sans-serif" font-weight="400" font-size="16" transform="translate(230.329 440)">{complete, disjoint}</text><rect x="330.5" y="475.5" width="113" height="57" stroke="#000000" stroke-width="1.33333" stroke-miterlimit="8" fill="#FFFFFF"/><text font-family="Consolas,Consolas_MSFontService,sans-serif" font-weight="400" font-size="16" transform="translate(359.758 509)">Middle</text><rect x="527.5" y="474.5" width="113" height="58" stroke="#000000" stroke-width="1.33333" stroke-miterlimit="8" fill="#FFFFFF"/><text font-family="Consolas,Consolas_MSFontService,sans-serif" font-weight="400" font-size="16" transform="translate(565.928 509)">Leif</text><path d="M386.93 435.5 386.93 455.521 386.5 455.521 386.5 475.541" stroke="#000000" stroke-width="0.666667" stroke-miterlimit="8" fill="none" fill-rule="evenodd"/><path d="M386.733 435.5 386.733 455.521 188.5 455.521 188.5 475.541" stroke="#000000" stroke-width="0.666667" stroke-miterlimit="8" fill="none" fill-rule="evenodd"/><rect x="179.5" y="589.5" width="112" height="58" stroke="#000000" stroke-width="1.33333" stroke-miterlimit="8" fill="#FFFFFF"/><text font-family="Consolas,Consolas_MSFontService,sans-serif" font-weight="400" font-size="16" transform="translate(208.485 623)">Parent</text><rect x="473.5" y="589.5" width="113" height="58" stroke="#000000" stroke-width="1.33333" stroke-miterlimit="8" fill="#FFFFFF"/><text font-family="Consolas,Consolas_MSFontService,sans-serif" font-weight="400" font-size="16" transform="translate(507.369 623)">Child</text><path d="M0 17 10 0 20 17Z" stroke="#000000" stroke-width="1.33333" stroke-miterlimit="8" fill="none" fill-rule="evenodd" transform="matrix(1 0 0 -1 519.5 589.5)"/><path d="M0 17 10 0 20 17Z" stroke="#000000" stroke-width="1.33333" stroke-miterlimit="8" fill="none" fill-rule="evenodd" transform="matrix(1 0 0 -1 225.5 589.5)"/><path d="M583.642 532.5 583.642 552.511 529.5 552.511 529.5 572.522" stroke="#000000" stroke-width="0.666667" stroke-miterlimit="8" fill="none" fill-rule="evenodd"/><path d="M0 0 19.7816 0 19.7816 113.81 39.5632 113.81" stroke="#000000" stroke-width="0.666667" stroke-miterlimit="8" fill="none" fill-rule="evenodd" transform="matrix(1.83697e-16 1 1 -1.83697e-16 416.5 532.5)"/><path d="M0 0 19.7768 0 19.7768 46.4153 39.5535 46.4153" stroke="#000000" stroke-width="0.666667" stroke-miterlimit="8" fill="none" fill-rule="evenodd" transform="matrix(1.83697e-16 1 1 -1.83697e-16 188.5 532.5)"/><path d="M361.842 533.5 361.842 553.028 235.5 553.028 235.5 572.556" stroke="#000000" stroke-width="0.666667" stroke-miterlimit="8" fill="none" fill-rule="evenodd"/><path d="M291.5 618.5 473.156 618.5" stroke="#000000" stroke-width="0.666667" stroke-miterlimit="8" fill="none" fill-rule="evenodd"/><text font-family="Yu Gothic,Yu Gothic_MSFontService,sans-serif" font-weight="400" font-size="13" transform="translate(298.58 612)">1<tspan font-size="13" x="145.89" y="20">1..*</tspan><tspan font-size="16" x="-143.653" y="-41">{complete, disjoint}</tspan><tspan font-size="16" x="155.94" y="-43">{complete, disjoint}</tspan><tspan font-size="16" x="-55.5022" y="-271">木</tspan><tspan font-size="16" x="-39.5022" y="-271">構造の制約を表現する概念クラスと関係</tspan><tspan font-size="13" x="140.978" y="-5">part</tspan><tspan font-size="13" x="-4.05655" y="18">group</tspan></text><path d="M617.5 494.5C617.5 489.53 621.529 485.5 626.5 485.5 631.471 485.5 635.5 489.53 635.5 494.5 635.5 499.471 631.471 503.5 626.5 503.5 621.529 503.5 617.5 499.471 617.5 494.5Z" stroke="#507E32" stroke-width="1.33333" stroke-miterlimit="8" fill="#70AD47" fill-rule="evenodd"/><path d="M416.5 494C416.5 488.753 420.53 484.5 425.5 484.5 430.471 484.5 434.5 488.753 434.5 494 434.5 499.247 430.471 503.5 425.5 503.5 420.53 503.5 416.5 499.247 416.5 494Z" stroke="#AE5A21" stroke-width="1.33333" stroke-miterlimit="8" fill="#ED7D31" fill-rule="evenodd"/><path d="M217.5 493.5C217.5 488.53 221.529 484.5 226.5 484.5 231.471 484.5 235.5 488.53 235.5 493.5 235.5 498.471 231.471 502.5 226.5 502.5 221.529 502.5 217.5 498.471 217.5 493.5Z" stroke="#2F528F" stroke-width="1.33333" stroke-miterlimit="8" fill="#4472C4" fill-rule="evenodd"/></g></svg>