<svg width="608" height="634" xmlns="http://www.w3.org/2000/svg" xmlns:xlink="http://www.w3.org/1999/xlink" overflow="hidden"><defs><clipPath id="clip0"><rect x="90" y="55" width="608" height="634"/></clipPath></defs><g clip-path="url(#clip0)" transform="translate(-90 -55)"><rect x="92.5001" y="56.5001" width="604" height="631" stroke="#D9D9D9" stroke-width="1.33333" stroke-miterlimit="8" fill="none"/><rect x="137.5" y="136.5" width="113" height="120" stroke="#000000" stroke-width="1.33333" stroke-miterlimit="8" fill="#FFFFFF"/><text font-family="Consolas,Consolas_MSFontService,sans-serif" font-weight="400" font-size="19" transform="translate(188.262 203)">A</text><rect x="527.5" y="136.5" width="113" height="120" stroke="#000000" stroke-width="1.33333" stroke-miterlimit="8" fill="#FFFFFF"/><text font-family="Consolas,Consolas_MSFontService,sans-serif" font-weight="400" font-size="19" transform="translate(578.427 203)">B</text><path d="M0 0 277.354 0.000104987" stroke="#000000" stroke-width="2" stroke-miterlimit="8" fill="none" fill-rule="evenodd" transform="matrix(1 0 0 -1 250 196)"/><text font-family="Yu Gothic,Yu Gothic_MSFontService,sans-serif" font-weight="400" font-size="16" transform="translate(252.483 193)">A<tspan font-size="16" x="10.3333" y="0">の多重度</tspan><tspan font-size="16" x="191.697" y="0">B</tspan><tspan font-size="16" x="202.531" y="0">の多重度</tspan><tspan font-size="16" x="1.17816" y="23">A</tspan><tspan font-size="16" x="11.5115" y="23">の意味</tspan><tspan font-size="16" x="208.173" y="23">B</tspan><tspan font-size="16" x="219.006" y="23">の意味</tspan><tspan font-size="16" x="-127.763" y="-94">概念クラス</tspan></text><path d="M165.733 108.261 193.956 135.782 193.491 136.259 165.267 108.739ZM198.378 131.247C201.014 133.818 201.067 138.038 198.497 140.675 195.926 143.311 191.706 143.364 189.07 140.794 186.433 138.223 186.38 134.002 188.951 131.366 191.521 128.73 195.742 128.677 198.378 131.247Z" fill="#FF0000"/><text font-family="Yu Gothic,Yu Gothic_MSFontService,sans-serif" font-weight="400" font-size="16" transform="translate(355.15 190)">関係名<tspan font-size="16" x="221.209" y="-91">概念クラス</tspan></text><path d="M0.212541-0.256783 33.4615 27.2635 33.0364 27.7771-0.212541 0.256783ZM37.4997 22.3847C40.3361 24.7323 40.7322 28.9348 38.3846 31.7711 36.0369 34.6075 31.8345 35.0036 28.9981 32.656 26.1618 30.3083 25.7656 26.1058 28.1133 23.2695 30.4609 20.4332 34.6634 20.037 37.4997 22.3847Z" fill="#FF0000" transform="matrix(-1 0 0 1 617.749 108.5)"/><path d="M215.5 165C215.5 155.888 222.887 148.5 232 148.5L532 148.5C541.113 148.5 548.5 155.888 548.5 165L548.5 231C548.5 240.113 541.113 247.5 532 247.5L232 247.5C222.887 247.5 215.5 240.113 215.5 231Z" stroke="#FF0000" stroke-width="1.33333" stroke-miterlimit="8" fill="none" fill-rule="evenodd"/><path d="M394.845 319.313 382.172 247.558 382.828 247.442 395.501 319.197ZM375.935 248.66C375.295 245.034 377.715 241.575 381.341 240.935 384.966 240.295 388.425 242.715 389.065 246.341 389.705 249.966 387.285 253.425 383.66 254.065 380.034 254.705 376.575 252.285 375.935 248.66Z" fill="#FF0000"/><path d="M115.5 319.5 674.5 319.5 674.5 563.666 625.666 612.5 115.5 612.5Z" fill="#F2F2F2" fill-rule="evenodd"/><path d="M625.666 612.5 635.432 573.432 674.5 563.666Z" fill="#C3C3C3" fill-rule="evenodd"/><path d="M625.666 612.5 635.432 573.432 674.5 563.666 625.666 612.5 115.5 612.5 115.5 319.5 674.5 319.5 674.5 563.666" stroke="#2F528F" stroke-width="1.33333" stroke-miterlimit="8" fill="none" fill-rule="evenodd"/><text font-family="Yu Gothic,Yu Gothic_MSFontService,sans-serif" font-weight="400" font-size="16" transform="translate(183.465 348)">“<tspan font-size="16" x="6.66666" y="0">A”</tspan>と<tspan font-size="16" x="44.1667" y="0">“</tspan><tspan font-size="16" x="50.8333" y="0">B</tspan><tspan font-size="16" x="61.6667" y="0">”、二つの概念クラス間の“関係”を表記</tspan></text><path d="M0 0 286.502 0.000104987" stroke="#000000" stroke-width="3" stroke-miterlimit="8" fill="none" fill-rule="evenodd" transform="matrix(1 0 0 -1 248.5 472.5)"/><rect x="241.5" y="441.5" width="97" height="29" stroke="#FF0000" stroke-linejoin="round" stroke-miterlimit="10" fill="none"/><text font-family="Yu Gothic,Yu Gothic_MSFontService,sans-serif" font-weight="700" font-size="16" transform="translate(250.363 460)">Aの多重度</text><rect x="432.5" y="441.5" width="98" height="29" stroke="#FF0000" stroke-linejoin="round" stroke-miterlimit="10" fill="none"/><text font-family="Yu Gothic,Yu Gothic_MSFontService,sans-serif" font-weight="700" font-size="16" transform="translate(444.727 460)">B<tspan font-size="16" x="11.3333" y="0">の多重度</tspan></text><rect x="242.5" y="476.5" width="81" height="29" stroke="#FF0000" stroke-linejoin="round" stroke-miterlimit="10" fill="none"/><text font-family="Yu Gothic,Yu Gothic_MSFontService,sans-serif" font-weight="700" font-size="16" transform="translate(251.541 496)">Aの意味</text><rect x="448.5" y="476.5" width="82" height="29" stroke="#FF0000" stroke-linejoin="round" stroke-miterlimit="10" fill="none"/><text font-family="Yu Gothic,Yu Gothic_MSFontService,sans-serif" font-weight="700" font-size="16" transform="translate(460.702 496)">B<tspan font-size="16" x="11.3333" y="0">の意味</tspan><tspan font-size="16" x="-99.682" y="-30">関係名</tspan></text><path d="M534.5 420.5 534.5 525.389" stroke="#000000" stroke-width="0.666667" stroke-miterlimit="8" fill="none" fill-rule="evenodd"/><path d="M248.5 420.5 248.5 525.389" stroke="#000000" stroke-width="0.666667" stroke-miterlimit="8" fill="none" fill-rule="evenodd"/><path d="M338.5 447.667C338.5 443.156 342.156 439.5 346.667 439.5L413.333 439.5C417.844 439.5 421.5 443.156 421.5 447.667L421.5 480.333C421.5 484.844 417.844 488.5 413.333 488.5L346.667 488.5C342.156 488.5 338.5 484.844 338.5 480.333Z" stroke="#FF0000" stroke-width="1.33333" stroke-miterlimit="8" fill="none" fill-rule="evenodd"/><path d="M0.321158-0.0892655 8.78646 30.3671 8.14414 30.5456-0.321158 0.0892655ZM14.8885 28.6711C15.8745 32.2185 13.798 35.8935 10.2506 36.8795 6.70319 37.8655 3.02813 35.7891 2.04213 32.2417 1.05613 28.6943 3.13257 25.0192 6.67999 24.0332 10.2274 23.0472 13.9025 25.1236 14.8885 28.6711Z" fill="#FF0000" transform="matrix(-1 0 0 1 387.965 408.5)"/><text font-family="Yu Gothic,Yu Gothic_MSFontService,sans-serif" font-weight="400" font-size="16" transform="translate(282.835 399)">問題領域内で重複しない名前<tspan font-size="16" x="249.495" y="-15">A</tspan><tspan font-size="16" x="259.828" y="-15">のインスタンス</tspan><tspan font-size="16" x="249.495" y="4">から見た多重度</tspan></text><path d="M0.197246-0.26871 53.7451 39.0381 53.3506 39.5755-0.197246 0.26871ZM57.4927 33.9326C60.4608 36.1113 61.1007 40.2836 58.922 43.2517 56.7433 46.2198 52.571 46.8597 49.6029 44.681 46.6348 42.5022 45.9949 38.3299 48.1736 35.3618 50.3523 32.3938 54.5247 31.7539 57.4927 33.9326Z" fill="#FF0000" transform="matrix(-1 0 0 1 535.048 401.5)"/><text font-family="Yu Gothic,Yu Gothic_MSFontService,sans-serif" font-weight="400" font-size="16" transform="translate(445.105 563)">A<tspan font-size="16" x="10.3333" y="0">のインスタンスから見</tspan><tspan font-size="16" x="0" y="19">た、</tspan>B<tspan font-size="16" x="42.8333" y="19">の意味を表す簡潔</tspan><tspan font-size="16" x="0" y="38">なテキスト</tspan></text><path d="M505.903 544.032 489.194 505.633 489.806 505.367 506.515 543.766ZM483.387 508.16C481.918 504.784 483.464 500.856 486.84 499.387 490.216 497.918 494.144 499.464 495.613 502.84 497.082 506.216 495.536 510.144 492.16 511.613 488.784 513.082 484.856 511.536 483.387 508.16Z" fill="#FF0000"/><text font-family="Yu Gothic,Yu Gothic_MSFontService,sans-serif" font-weight="400" font-size="16" transform="translate(148.538 563)">B<tspan font-size="16" x="10.8333" y="0">のインスタンスから見</tspan><tspan font-size="16" x="0" y="19">た、</tspan>A<tspan font-size="16" x="42.3333" y="19">の意味を表す簡潔</tspan><tspan font-size="16" x="0" y="38">なテキスト</tspan></text><path d="M0.325977-0.0696414 9.08377 40.9238 8.43182 41.0631-0.325977 0.0696414ZM15.2773 39.6007C16.0466 43.2013 13.7513 46.7438 10.1506 47.513 6.54998 48.2823 3.00749 45.987 2.23825 42.3863 1.46901 38.7857 3.76432 35.2432 7.36497 34.4739 10.9656 33.7047 14.5081 36 15.2773 39.6007Z" fill="#FF0000" transform="matrix(1 0 0 -1 274.5 546.494)"/><text font-family="Yu Gothic,Yu Gothic_MSFontService,sans-serif" font-weight="400" font-size="16" transform="translate(128.175 390)">B<tspan font-size="16" x="10.8333" y="0">のインスタンス</tspan><tspan font-size="16" x="0" y="19">から見た多重度</tspan></text><path d="M230.641 413.198 289.769 440.708 289.488 441.313 230.359 413.802ZM292.441 434.966C295.779 436.519 297.226 440.485 295.673 443.823 294.12 447.161 290.154 448.608 286.816 447.055 283.478 445.502 282.031 441.537 283.584 438.198 285.137 434.86 289.102 433.413 292.441 434.966Z" fill="#FF0000"/><text font-family="Yu Gothic,Yu Gothic_MSFontService,sans-serif" font-weight="400" font-size="16" transform="translate(142.628 638)">※<tspan font-size="16" x="20.5" y="0">関係名、意味、多重度の線に対する上下の位置は見やすい位置でよい</tspan><tspan font-size="16" x="0" y="19">※</tspan><tspan font-size="16" x="20.5" y="19">大規模な図の場合は、関係名、意味は省略してよい</tspan></text><path d="M416.833 122.478 421.821 198.218 421.156 198.262 416.167 122.522ZM428.141 197.802C428.383 201.476 425.601 204.65 421.927 204.892 418.253 205.134 415.079 202.352 414.837 198.678 414.595 195.004 417.377 191.83 421.051 191.588 424.725 191.346 427.899 194.128 428.141 197.802Z" fill="#FF0000"/><text font-family="Yu Gothic,Yu Gothic_MSFontService,sans-serif" font-weight="400" font-size="16" transform="translate(322.771 93)">関係は、２つのクラスを<tspan font-size="16" x="0" y="19">つなぐ線で表現する</tspan></text></g></svg>