<svg width="608" height="634" xmlns="http://www.w3.org/2000/svg" xmlns:xlink="http://www.w3.org/1999/xlink" overflow="hidden"><defs><clipPath id="clip0"><rect x="90" y="55" width="608" height="634"/></clipPath></defs><g clip-path="url(#clip0)" transform="translate(-90 -55)"><rect x="92.5001" y="56.5001" width="604" height="631" stroke="#D9D9D9" stroke-width="1.33333" stroke-miterlimit="8" fill="none"/><rect x="250.5" y="167.5" width="112" height="120" stroke="#000000" stroke-width="1.33333" stroke-miterlimit="8" fill="#FFFFFF"/><text font-family="Consolas,Consolas_MSFontService,sans-serif" font-weight="400" font-size="19" transform="translate(269.915 234)">Element</text><path d="M362.406 227 453.018 227 453.018 143 306 143 306 167" stroke="#000000" stroke-width="2" stroke-miterlimit="8" fill="none" fill-rule="evenodd"/><text font-family="Yu Gothic,Yu Gothic_MSFontService,sans-serif" font-weight="400" font-size="14" transform="translate(247.288 156)">前にある<tspan font-size="14" x="124.799" y="90">後ろにある</tspan><tspan font-size="14" x="122.71" y="59">0..1</tspan><tspan font-size="14" x="68.3932" y="0">0..1</tspan></text><rect x="152.5" y="399.5" width="78" height="60" stroke="#000000" stroke-width="1.33333" stroke-miterlimit="8" fill="#FFFFFF"/><text font-family="Consolas,Consolas_MSFontService,sans-serif" font-weight="400" font-size="19" transform="translate(180.611 435)">E0<tspan font-family="Yu Gothic,Yu Gothic_MSFontService,sans-serif" font-size="14" x="279.333" y="-264">S</tspan></text><rect x="274.5" y="399.5" width="78" height="60" stroke="#000000" stroke-width="1.33333" stroke-miterlimit="8" fill="#FFFFFF"/><text font-family="Consolas,Consolas_MSFontService,sans-serif" font-weight="400" font-size="19" transform="translate(302.622 435)">E1</text><rect x="396.5" y="399.5" width="77" height="60" stroke="#000000" stroke-width="1.33333" stroke-miterlimit="8" fill="#FFFFFF"/><text font-family="Consolas,Consolas_MSFontService,sans-serif" font-weight="400" font-size="19" transform="translate(424.463 435)">E2</text><rect x="546.5" y="399.5" width="77" height="60" stroke="#000000" stroke-width="1.33333" stroke-miterlimit="8" fill="#FFFFFF"/><text font-family="Consolas,Consolas_MSFontService,sans-serif" font-weight="400" font-size="19" transform="translate(574.489 435)">E<tspan font-style="italic" font-size="19" x="10.3333" y="0">n</tspan></text><path d="M230.5 429.167 274.714 429.167 274.714 429.833 230.5 429.833ZM266.882 424.546 275.375 429.5 266.882 434.455C266.723 434.547 266.518 434.494 266.426 434.335 266.333 434.176 266.387 433.972 266.546 433.879L274.546 429.212 274.546 429.788 266.546 425.121C266.387 425.029 266.333 424.825 266.426 424.666 266.518 424.507 266.723 424.453 266.882 424.546Z"/><path d="M352.5 429.167 396.543 429.167 396.543 429.833 352.5 429.833ZM388.71 424.546 397.204 429.5 388.71 434.455C388.551 434.547 388.347 434.494 388.255 434.335 388.162 434.176 388.216 433.972 388.375 433.879L396.375 429.212 396.375 429.788 388.375 425.121C388.216 425.029 388.162 424.825 388.255 424.666 388.347 424.507 388.551 424.453 388.71 424.546Z"/><path d="M473.5 429.167 478.833 429.167 478.833 429.833 473.5 429.833ZM480.833 429.167 486.167 429.167 486.167 429.833 480.833 429.833ZM488.167 429.167 493.5 429.167 493.5 429.833 488.167 429.833ZM495.5 429.167 500.833 429.167 500.833 429.833 495.5 429.833ZM502.833 429.167 508.167 429.167 508.167 429.833 502.833 429.833ZM510.167 429.167 515.5 429.167 515.5 429.833 510.167 429.833ZM517.5 429.167 522.833 429.167 522.833 429.833 517.5 429.833ZM524.833 429.167 530.167 429.167 530.167 429.833 524.833 429.833ZM532.167 429.167 537.5 429.167 537.5 429.833 532.167 429.833ZM539.5 429.167 544.833 429.167 544.833 429.833 539.5 429.833ZM537.896 424.546 546.39 429.5 537.896 434.455C537.737 434.548 537.533 434.494 537.441 434.335 537.348 434.176 537.401 433.972 537.56 433.879L545.56 429.212 545.56 429.788 537.56 425.121C537.401 425.029 537.348 424.825 537.441 424.666 537.533 424.507 537.737 424.453 537.896 424.546Z"/><text font-family="Yu Gothic,Yu Gothic_MSFontService,sans-serif" font-weight="400" font-size="11" transform="translate(247.786 421)">S1<tspan font-size="11" x="117.33" y="0">S2</tspan><tspan font-size="11" x="-12.927" y="26">p</tspan><tspan font-size="11" x="15.4211" y="27">s</tspan><tspan font-size="11" x="108.066" y="27">p</tspan><tspan font-size="11" x="136.415" y="27">s</tspan><tspan font-size="11" x="228.959" y="26">p</tspan><tspan font-size="11" x="286.334" y="27">s</tspan><tspan font-size="16" x="-22.3323" y="-49">上のモデルを雛形にしたインスタンスの例</tspan><tspan font-size="16" x="-22.3323" y="-302">一つのクラスに定義された関係の例</tspan><tspan font-size="14" x="251.714" y="-231">両端の意味、多重度はモデ</tspan><tspan font-size="14" x="251.714" y="-214">ル化対象によって異なる</tspan><tspan font-size="14" x="-85.811" y="117">この例では、最初の要素には、その“前にある”インスタンスは存在しな</tspan><tspan font-size="14" x="-85.811" y="134">いので、“前にある”側の多重度が“</tspan><tspan font-size="14" x="127.689" y="134">0..1</tspan><tspan font-size="14" x="150.689" y="134">”になっており、最後の要素には、</tspan><tspan font-size="14" x="-85.811" y="150">その“後ろにある”インスタンスは存在しないので、“後ろにある”側の多</tspan><tspan font-size="14" x="-85.811" y="167">重度も</tspan><tspan font-size="14" x="-43.811" y="167">”0..1</tspan><tspan font-size="14" x="-14.9777" y="167">“になっている。</tspan><tspan font-size="14" x="-85.811" y="184">多重度を意図的に“</tspan><tspan font-size="14" x="32.0223" y="184">1</tspan><tspan font-size="14" x="39.8557" y="184">”や、“</tspan><tspan font-size="14" x="79.5223" y="184">*</tspan><tspan font-size="14" x="86.189" y="184">”、“</tspan><tspan font-size="14" x="111.856" y="184">1..*</tspan><tspan font-size="14" x="133.689" y="184">”に変えると、存在可能なインスタン</tspan><tspan font-size="14" x="-85.811" y="201">スとインスタンス間の関係が許されるか、また、その変更によって両端</tspan><tspan font-size="14" x="-85.811" y="218">の意味が適切なままか、不適切になるかを、確認してみよう。</tspan></text></g></svg>