<svg width="608" height="714" xmlns="http://www.w3.org/2000/svg" xmlns:xlink="http://www.w3.org/1999/xlink" overflow="hidden"><defs><clipPath id="clip0"><rect x="90" y="55" width="608" height="714"/></clipPath></defs><g clip-path="url(#clip0)" transform="translate(-90 -55)"><rect x="92.5001" y="56.5001" width="604" height="712" stroke="#D9D9D9" stroke-width="1.33333" stroke-miterlimit="8" fill="none"/><rect x="304.5" y="123.5" width="112" height="87" stroke="#000000" stroke-width="1.33333" stroke-miterlimit="8" fill="#FFFFFF"/><text font-family="Consolas,Consolas_MSFontService,sans-serif" font-weight="400" font-size="19" transform="translate(354.792 146)">P</text><rect x="222.5" y="278.5" width="112" height="87" stroke="#000000" stroke-width="1.33333" stroke-miterlimit="8" fill="#FFFFFF"/><text font-family="Consolas,Consolas_MSFontService,sans-serif" font-weight="400" font-size="19" transform="translate(267.666 300)">C1</text><rect x="394.5" y="278.5" width="113" height="87" stroke="#000000" stroke-width="1.33333" stroke-miterlimit="8" fill="#FFFFFF"/><text font-family="Consolas,Consolas_MSFontService,sans-serif" font-weight="400" font-size="19" transform="translate(439.99 300)">C2</text><path d="M350.5 228.5 360.5 210.5 370.5 228.5Z" stroke="#000000" stroke-width="1.33333" stroke-miterlimit="8" fill="none" fill-rule="evenodd"/><path d="M360.889 228.5 360.889 253.415 278.5 253.415 278.5 278.331" stroke="#000000" stroke-width="0.666667" stroke-miterlimit="8" fill="none" fill-rule="evenodd"/><path d="M0 0 24.9153 0 24.9153 89.935 49.8306 89.935" stroke="#000000" stroke-width="0.666667" stroke-miterlimit="8" fill="none" fill-rule="evenodd" transform="matrix(1.83697e-16 1 1 -1.83697e-16 360.5 228.5)"/><text font-family="Consolas,Consolas_MSFontService,sans-serif" font-weight="400" font-size="16" transform="translate(313.153 168)">P1<tspan font-size="16" x="0" y="19">p2</tspan><tspan font-size="16" x="-78.5718" y="167">c11</tspan><tspan font-size="16" x="-78.5718" y="186">c12</tspan><tspan font-size="16" x="90.3647" y="167">c21</tspan><tspan font-size="16" x="90.3647" y="186">c22</tspan><tspan font-family="Yu Gothic,Yu Gothic_MSFontService,sans-serif" font-size="16" x="135.398" y="-46">拡張される側に△をつけて、</tspan><tspan font-family="Yu Gothic,Yu Gothic_MSFontService,sans-serif" font-size="16" x="135.398" y="-27">拡張するクラスを線でつなぐ</tspan></text><path d="M0.317005-0.103049 16.0728 48.3657 15.4388 48.5718-0.317005 0.103049ZM22.0959 46.4078C23.2341 49.9093 21.3183 53.6706 17.8168 54.8089 14.3152 55.9471 10.554 54.0313 9.4157 50.5297 8.27746 47.0282 10.1933 43.2669 13.6948 42.1287 17.1964 40.9904 20.9576 42.9062 22.0959 46.4078Z" fill="#FF0000" transform="matrix(-1 0 0 1 491.256 148.5)"/><path d="M245.5 213.167C245.5 204.514 252.514 197.5 261.167 197.5L482.833 197.5C491.486 197.5 498.5 204.514 498.5 213.167L498.5 275.833C498.5 284.486 491.486 291.5 482.833 291.5L261.167 291.5C252.514 291.5 245.5 284.486 245.5 275.833Z" stroke="#FF0000" stroke-width="1.33333" stroke-miterlimit="8" fill="none" fill-rule="evenodd"/><text font-family="Yu Gothic,Yu Gothic_MSFontService,sans-serif" font-weight="400" font-size="16" transform="translate(289.4 246)">{complete, disjoint}<tspan font-size="16" x="-158.331" y="170">※</tspan><tspan font-size="16" x="-140.331" y="170">拡張した側のクラスの各インスタンスに対応する拡張された側のク</tspan><tspan font-size="16" x="-140.331" y="189">ラスのインスタンスが必ず一つだけ存在する、かつ、拡張された側</tspan><tspan font-size="16" x="-140.331" y="208">のクラスの各インスタンスに対応する、拡張したクラスのうちのど</tspan><tspan font-size="16" x="-140.331" y="227">れかのクラスのインスタンスが必ず一つだけ存在する。</tspan><tspan font-size="16" x="-158.331" y="246">※</tspan><tspan font-size="16" x="-140.331" y="246">拡張するクラスの数は、扱っている問題領域において意味的に正し</tspan><tspan font-size="16" x="-140.331" y="266">ければ、</tspan>2<tspan font-size="16" x="-67.4972" y="266">つ以上あっても構わない</tspan><tspan font-size="16" x="-158.331" y="285">※</tspan><tspan font-size="16" x="-140.331" y="285">{complete, disjoint}</tspan>は図の表記上、省略しても構わないが、モデリ<tspan font-size="16" x="-140.331" y="304">ングにおいては、</tspan>{complete, disjoint}になるように概念クラスを定<tspan font-size="16" x="-140.331" y="323">義すること</tspan></text><path d="M222.5 696.5C222.5 669.99 287.866 648.5 368.5 648.5 449.134 648.5 514.5 669.99 514.5 696.5 514.5 723.01 449.134 744.5 368.5 744.5 287.866 744.5 222.5 723.01 222.5 696.5Z" stroke="#000000" stroke-width="1.33333" stroke-miterlimit="8" fill="#FFFFFF" fill-rule="evenodd"/><path d="M0 0 44.0816 96.2675" stroke="#000000" stroke-width="0.666667" stroke-miterlimit="8" fill="none" fill-rule="evenodd" transform="matrix(-1 0 0 1 390.582 649.5)"/><text font-family="Yu Gothic,Yu Gothic_MSFontService,sans-serif" font-weight="400" font-size="16" transform="translate(374.457 612)">Pの集合<tspan font-size="16" x="-97.222" y="89">C1</tspan><tspan font-size="16" x="-77.5554" y="89">の集合</tspan><tspan font-size="16" x="21.5029" y="93">C2</tspan><tspan font-size="16" x="41.1696" y="93">の集合</tspan></text><path d="M0.193951-0.271098 36.7271 25.8658 36.3392 26.408-0.193951 0.271098ZM40.4122 20.715C43.4066 22.8573 44.0974 27.0215 41.9551 30.0159 39.8127 33.0104 35.6486 33.7012 32.6541 31.5589 29.6596 29.4165 28.9688 25.2523 31.1112 22.2579 33.2535 19.2634 37.4177 18.5726 40.4122 20.715Z" transform="matrix(-1 0 0 1 405.033 621.5)"/></g></svg>