<svg width="608" height="588" xmlns="http://www.w3.org/2000/svg" xmlns:xlink="http://www.w3.org/1999/xlink" overflow="hidden"><defs><clipPath id="clip0"><rect x="56" y="93" width="608" height="588"/></clipPath></defs><g clip-path="url(#clip0)" transform="translate(-56 -93)"><rect x="58.5001" y="94.5001" width="604" height="586" stroke="#D9D9D9" stroke-width="1.33333" stroke-miterlimit="8" fill="none"/><rect x="126.5" y="145.5" width="126" height="87" stroke="#000000" stroke-width="1.33333" stroke-miterlimit="8" fill="#FFFFFF"/><text font-family="Yu Gothic,Yu Gothic_MSFontService,sans-serif" font-weight="400" font-size="13" transform="translate(175.561 162)">工場<tspan font-family="Consolas,Consolas_MSFontService,sans-serif" font-size="12" x="-40.2467" y="15">*</tspan><tspan font-size="12" x="-33.58" y="15">工場</tspan><tspan font-family="Consolas,Consolas_MSFontService,sans-serif" font-size="12" x="-9.58" y="15">ID</tspan><tspan font-size="12" x="-28.2467" y="29">工場名</tspan><tspan font-size="12" x="-28.2467" y="44">所在地</tspan><tspan font-size="12" x="-28.2467" y="58">消費電力</tspan><tspan font-family="Consolas,Consolas_MSFontService,sans-serif" font-size="12" x="19.7533" y="58">(M)</tspan></text><rect x="126.5" y="281.5" width="126" height="87" stroke="#000000" stroke-width="1.33333" stroke-miterlimit="8" fill="#FFFFFF"/><text font-family="Yu Gothic,Yu Gothic_MSFontService,sans-serif" font-weight="400" font-size="13" transform="translate(155.561 298)">生産ライン<tspan font-family="Consolas,Consolas_MSFontService,sans-serif" font-size="12" x="-20.2467" y="15">*</tspan><tspan font-size="12" x="-13.58" y="15">生産ライン</tspan><tspan font-family="Consolas,Consolas_MSFontService,sans-serif" font-size="12" x="46.42" y="15">ID</tspan><tspan font-size="12" x="-8.24667" y="29">消費電力</tspan><tspan font-family="Consolas,Consolas_MSFontService,sans-serif" font-size="12" x="39.7533" y="29">(M)</tspan><tspan font-size="12" x="-8.24667" y="44">稼働状態</tspan></text><path d="M189.5 232.5 189.5 281.377" stroke="#000000" stroke-width="0.666667" stroke-miterlimit="8" fill="none" fill-rule="evenodd"/><text font-family="Calibri,Calibri_MSFontService,sans-serif" font-weight="400" font-size="11" transform="translate(181.863 259)">R_FL1<tspan font-size="11" x="-0.814804" y="-15">1</tspan><tspan font-size="11" x="236.29" y="353">*</tspan></text><rect x="474.5" y="428.5" width="126" height="87" stroke="#000000" stroke-width="1.33333" stroke-miterlimit="8" fill="#FFFFFF"/><text font-family="Yu Gothic,Yu Gothic_MSFontService,sans-serif" font-weight="400" font-size="13" transform="translate(523.71 445)">製品<tspan font-family="Consolas,Consolas_MSFontService,sans-serif" font-size="12" x="-40.2467" y="15">*</tspan><tspan font-size="12" x="-33.58" y="15">製品</tspan><tspan font-family="Consolas,Consolas_MSFontService,sans-serif" font-size="12" x="-9.58002" y="15">ID</tspan></text><rect x="126.5" y="417.5" width="126" height="109" stroke="#000000" stroke-width="1.33333" stroke-miterlimit="8" fill="#FFFFFF"/><text font-family="Yu Gothic,Yu Gothic_MSFontService,sans-serif" font-weight="400" font-size="13" transform="translate(175.56 434)">装置<tspan font-family="Consolas,Consolas_MSFontService,sans-serif" font-size="12" x="-40.2467" y="15">*</tspan><tspan font-size="12" x="-33.58" y="15">装置</tspan><tspan font-family="Consolas,Consolas_MSFontService,sans-serif" font-size="12" x="-9.58" y="15">ID</tspan><tspan font-size="12" x="-28.2467" y="29">消費電力</tspan><tspan font-family="Consolas,Consolas_MSFontService,sans-serif" font-size="12" x="19.7533" y="29">(M)</tspan><tspan font-size="12" x="-28.2467" y="44">稼働状態</tspan><tspan font-size="12" x="-28.2467" y="58">温度</tspan><tspan font-size="12" x="-28.2467" y="73">危険上限温度</tspan></text><path d="M0 0 0.000104987 48.8766" stroke="#000000" stroke-width="0.666667" stroke-miterlimit="8" fill="none" fill-rule="evenodd" transform="matrix(-1 0 0 1 189.5 368.5)"/><path d="M0 0 34.8169 0 34.8169 147.257 1.33333 147.257" stroke="#000000" stroke-width="0.666667" stroke-miterlimit="8" fill="none" fill-rule="evenodd" transform="matrix(-1 1.22465e-16 1.22465e-16 1 127.833 324.5)"/><path d="M221.12 525.5 221.12 561.669 160.5 561.669 160.5 526.833" stroke="#000000" stroke-width="0.666667" stroke-miterlimit="8" fill="none" fill-rule="evenodd"/><path d="M0 0 221.703 0.000104987" stroke="#000000" stroke-width="0.666667" stroke-miterlimit="8" fill="none" fill-rule="evenodd" transform="matrix(-1 0 0 1 474.203 472.5)"/><path d="M0 0 103.176 0 103.176 284.926" stroke="#000000" stroke-width="0.666667" stroke-miterlimit="8" fill="none" fill-rule="evenodd" transform="matrix(-1.83697e-16 -1 -1 1.83697e-16 537.426 428.676)"/><text font-family="Calibri,Calibri_MSFontService,sans-serif" font-weight="400" font-size="11" transform="translate(181.048 379)">1<tspan font-size="11" x="76.0836" y="-58">1</tspan><tspan font-size="11" x="-79.9445" y="-43">0..1</tspan><tspan font-size="11" x="-69.3974" y="87">1</tspan><tspan font-size="11" x="-10.7708" y="-104">1..*</tspan><tspan font-size="11" x="-9.55894" y="34">1..*</tspan><tspan font-size="11" x="345.494" y="43">*</tspan><tspan font-size="11" x="76.1132" y="107">0..1</tspan><tspan font-size="11" x="273.139" y="85">0..1</tspan><tspan font-size="11" x="-16.3168" y="160">0..1</tspan><tspan font-size="11" x="19.7595" y="158">0..1</tspan><tspan font-family="Yu Gothic,Yu Gothic_MSFontService,sans-serif" font-size="11" x="-69.3974" y="164">前の工程</tspan><tspan font-family="Yu Gothic,Yu Gothic_MSFontService,sans-serif" font-size="11" x="43.1512" y="164">後の工程</tspan><tspan font-family="Yu Gothic,Yu Gothic_MSFontService,sans-serif" font-size="11" x="246.94" y="107">仕掛り品</tspan><tspan font-family="Yu Gothic,Yu Gothic_MSFontService,sans-serif" font-size="11" x="76.7743" y="85">加工中</tspan><tspan font-family="Yu Gothic,Yu Gothic_MSFontService,sans-serif" font-size="11" x="361.61" y="41">生産製品</tspan><tspan font-family="Yu Gothic,Yu Gothic_MSFontService,sans-serif" font-size="11" x="14.1912" y="-133">設置場所</tspan><tspan font-family="Yu Gothic,Yu Gothic_MSFontService,sans-serif" font-size="11" x="10.917" y="4">設置場所</tspan><tspan font-family="Yu Gothic,Yu Gothic_MSFontService,sans-serif" font-size="11" x="-100.633" y="109">開始装置</tspan><tspan font-size="11" x="-0.817001" y="22">R_LE1</tspan><tspan font-size="11" x="-83.6964" y="20">R_LE2</tspan><tspan font-size="11" x="-4.62415" y="193">R_EO1</tspan><tspan font-size="11" x="116.175" y="105">R_EP1</tspan><tspan font-size="11" x="216.602" y="-60">R_LP1</tspan></text><rect x="312.5" y="365.5" width="126" height="54" stroke="#000000" stroke-width="1.33333" stroke-miterlimit="8" fill="#FFFFFF"/><text font-family="Yu Gothic,Yu Gothic_MSFontService,sans-serif" font-weight="400" font-size="13" transform="translate(334.97 382)">オーダー仕様<tspan font-size="12" x="-13.58" y="15">製造ステップ</tspan><tspan font-size="12" x="-13.58" y="29">装置コマンド</tspan></text><path d="M252.5 352.5 375.529 352.5 375.529 366.089" stroke="#000000" stroke-width="0.666667" stroke-miterlimit="8" fill="none" fill-rule="evenodd"/><path d="M0 0 123.225 0 123.225 12.6911" stroke="#000000" stroke-width="0.666667" stroke-miterlimit="8" fill="none" fill-rule="evenodd" transform="matrix(1 0 0 -1 252.5 432.191)"/><text font-family="Calibri,Calibri_MSFontService,sans-serif" font-weight="400" font-size="11" transform="translate(257.597 348)">1<tspan font-size="11" x="124.404" y="15">1..*</tspan><tspan font-size="11" x="130.035" y="84">1</tspan><tspan font-size="11" x="0.673798" y="80">1</tspan><tspan font-family="Yu Gothic,Yu Gothic_MSFontService,sans-serif" font-size="11" x="124.228" y="1">製造指示仕様</tspan><tspan font-family="Yu Gothic,Yu Gothic_MSFontService,sans-serif" font-size="11" x="118.549" y="96">製造指示仕様</tspan><tspan font-size="11" x="43.3781" y="1">R_LOS1</tspan><tspan font-size="11" x="42.2527" y="92">R_POS1</tspan></text><rect x="286.5" y="554.5" width="126" height="87" stroke="#000000" stroke-width="1.33333" stroke-miterlimit="8" fill="#FFFFFF"/><text font-family="Yu Gothic,Yu Gothic_MSFontService,sans-serif" font-weight="400" font-size="13" transform="translate(308.682 570)">インシデント<tspan font-family="Consolas,Consolas_MSFontService,sans-serif" font-size="12" x="-13.58" y="15">*</tspan><tspan font-size="12" x="-6.91333" y="15">インシデント</tspan><tspan font-family="Consolas,Consolas_MSFontService,sans-serif" font-size="12" x="65.0867" y="15">ID</tspan><tspan font-size="12" x="-1.57999" y="29">発生日</tspan><tspan font-size="12" x="-1.57999" y="44">状態</tspan></text><path d="M0 0 43.7101 0 43.7101 97.1666" stroke="#000000" stroke-width="0.666667" stroke-miterlimit="8" fill="none" fill-rule="evenodd" transform="matrix(-1.83697e-16 -1 -1 1.83697e-16 349.667 554.21)"/><rect x="521.5" y="554.5" width="126" height="87" stroke="#000000" stroke-width="1.33333" stroke-miterlimit="8" fill="#FFFFFF"/><text font-family="Yu Gothic,Yu Gothic_MSFontService,sans-serif" font-weight="400" font-size="13" transform="translate(563.845 570)">担当者<tspan font-family="Consolas,Consolas_MSFontService,sans-serif" font-size="12" x="-33.58" y="15">*</tspan><tspan font-size="12" x="-26.9133" y="15">担当者</tspan><tspan font-family="Consolas,Consolas_MSFontService,sans-serif" font-size="12" x="9.08667" y="15">ID</tspan><tspan font-size="12" x="-21.58" y="29">名前</tspan><tspan font-size="12" x="-21.58" y="44">状態</tspan></text><path d="M0 0 108.717 0.000104987" stroke="#000000" stroke-width="0.666667" stroke-miterlimit="8" fill="none" fill-rule="evenodd" transform="matrix(-1 0 0 1 521.217 597.5)"/><text font-family="Calibri,Calibri_MSFontService,sans-serif" font-weight="400" font-size="11" transform="translate(494.721 589)">0..1<tspan font-size="11" x="-132.615" y="-45">0..1</tspan><tspan font-size="11" x="-238.249" y="-70">1</tspan><tspan font-size="11" x="-144.892" y="-85">R_</tspan><tspan font-size="11" x="-133.726" y="-85">EI1</tspan><tspan font-size="11" x="-43.3813" y="0">R</tspan><tspan font-size="11" x="-37.548" y="0">_IR1</tspan><tspan font-family="Yu Gothic,Yu Gothic_MSFontService,sans-serif" font-size="16" x="-426.567" y="-475">ドメイン：装置管理</tspan></text></g></svg>