<svg width="608" height="470" xmlns="http://www.w3.org/2000/svg" xmlns:xlink="http://www.w3.org/1999/xlink" overflow="hidden"><defs><clipPath id="clip0"><rect x="56" y="93" width="608" height="470"/></clipPath></defs><g clip-path="url(#clip0)" transform="translate(-56 -93)"><rect x="58.5001" y="94.5001" width="604" height="468" stroke="#D9D9D9" stroke-width="1.33333" stroke-miterlimit="8" fill="none"/><text font-family="Yu Gothic,Yu Gothic_MSFontService,sans-serif" font-weight="400" font-size="16" transform="translate(68.1547 114)">ドメイン<tspan font-size="16" x="64" y="0">：</tspan>人事管理</text><rect x="154.5" y="189.5" width="165" height="87" stroke="#000000" stroke-width="1.33333" stroke-miterlimit="8" fill="#FFFFFF"/><text font-family="Yu Gothic,Yu Gothic_MSFontService,sans-serif" font-weight="400" font-size="13" transform="translate(222.887 206)">部署<tspan font-family="Consolas,Consolas_MSFontService,sans-serif" font-size="12" x="-59.4133" y="15">*</tspan><tspan font-size="12" x="-52.7467" y="15">部署</tspan><tspan font-family="Consolas,Consolas_MSFontService,sans-serif" font-size="12" x="-28.7467" y="15">ID</tspan><tspan font-size="12" x="-47.4133" y="29">名前</tspan><tspan font-size="12" x="-47.4133" y="44">コストセンターコード</tspan></text><rect x="415.5" y="144.5" width="185" height="69" stroke="#000000" stroke-width="1.33333" stroke-miterlimit="8" fill="#FFFFFF"/><text font-family="Yu Gothic,Yu Gothic_MSFontService,sans-serif" font-weight="400" font-size="13" transform="translate(474.455 160)">ミッション<tspan font-size="12" x="-37.5" y="15">名前</tspan><tspan font-size="12" x="-37.5" y="29">ミッションステートメント</tspan></text><path d="M0 0 49.6 0 49.6 62.0392 1.33333 62.0392" stroke="#000000" stroke-width="1.33333" stroke-miterlimit="8" fill="none" fill-rule="evenodd" transform="matrix(1.83697e-16 1 1 -1.83697e-16 175.5 275.5)"/><path d="M0 0 48.3438 0 48.3438 54.418 96.6876 54.418" stroke="#000000" stroke-width="1.33333" stroke-miterlimit="8" fill="none" fill-rule="evenodd" transform="matrix(1 0 0 -1 319.5 232.918)"/><rect x="191.5" y="413.5" width="145" height="83" stroke="#000000" stroke-width="1.33333" stroke-miterlimit="8" fill="#FFFFFF"/><text font-family="Yu Gothic,Yu Gothic_MSFontService,sans-serif" font-weight="400" font-size="13" transform="translate(249.908 430)">社員<tspan font-family="Consolas,Consolas_MSFontService,sans-serif" font-size="12" x="-49.3333" y="15">*</tspan><tspan font-size="12" x="-42.6667" y="15">社員番号</tspan><tspan font-size="12" x="-37.3333" y="29">名前</tspan><tspan font-size="12" x="-37.3333" y="44">等級</tspan><tspan font-family="Consolas,Consolas_MSFontService,sans-serif" font-size="12" x="-37.3333" y="58">…</tspan></text><rect x="415.5" y="262.5" width="185" height="69" stroke="#000000" stroke-width="1.33333" stroke-miterlimit="8" fill="#FFFFFF"/><text font-family="Yu Gothic,Yu Gothic_MSFontService,sans-serif" font-weight="400" font-size="13" transform="translate(434.455 279)">ジョブデスクリプション<tspan font-size="12" x="2.5" y="15">名前</tspan><tspan font-size="12" x="2.5" y="29">デスクリプション</tspan></text><path d="M508.5 213.5 508.5 263.225" stroke="#000000" stroke-width="1.33333" stroke-miterlimit="8" fill="none" fill-rule="evenodd"/><path d="M154.5 232.5 130.5 232.5 130.5 454.504 191.6 454.504" stroke="#000000" stroke-width="1.33333" stroke-miterlimit="8" fill="none" fill-rule="evenodd"/><path d="M299.723 276.5 299.723 345.012 263.5 345.012 263.5 413.524" stroke="#000000" stroke-width="1.33333" stroke-miterlimit="8" fill="none" fill-rule="evenodd"/><rect x="408.5" y="394.5" width="144" height="58" stroke="#000000" stroke-width="1.33333" stroke-miterlimit="8" fill="#FFFFFF"/><text font-family="Yu Gothic,Yu Gothic_MSFontService,sans-serif" font-weight="400" font-size="13" transform="translate(466.721 427)">任用</text><path d="M508.286 331.5 508.286 362.873 480.5 362.873 480.5 394.247" stroke="#000000" stroke-width="1.33333" stroke-miterlimit="8" fill="none" fill-rule="evenodd"/><path d="M298.5 328.5 407.988 423.129" stroke="#000000" stroke-width="1.33333" stroke-miterlimit="8" stroke-dasharray="1.33333 1.33333" fill="none" fill-rule="evenodd"/><text font-family="Calibri,Calibri_MSFontService,sans-serif" font-weight="400" font-size="11" transform="translate(345.114 172)">R<tspan font-size="11" x="5.83334" y="0">_HR_1</tspan><tspan font-size="11" x="-165.076" y="121">0..1</tspan><tspan font-size="11" x="-73.8019" y="235">1..*</tspan><tspan font-family="Yu Gothic,Yu Gothic_MSFontService,sans-serif" font-size="11" x="-191.608" y="123">上位</tspan><tspan font-family="Yu Gothic,Yu Gothic_MSFontService,sans-serif" font-size="11" x="-102.317" y="120">下位</tspan><tspan font-size="11" x="-117.994" y="119">*</tspan><tspan font-size="11" x="-211.861" y="55">0..1</tspan><tspan font-size="11" x="-164.171" y="277">1</tspan><tspan font-family="Yu Gothic,Yu Gothic_MSFontService,sans-serif" font-size="11" x="-222.489" y="305">マネージャー</tspan><tspan font-size="11" x="-64.3557" y="121">1..*</tspan><tspan font-size="11" x="-17.7032" y="53">1</tspan><tspan font-size="11" x="54.6397" y="-2">1</tspan><tspan font-size="11" x="151.849" y="53">1</tspan><tspan font-size="11" x="143.99" y="85">1..*</tspan><tspan font-family="Yu Gothic,Yu Gothic_MSFontService,sans-serif" font-size="11" x="173.982" y="80">遂行に必要なジョブ</tspan><tspan font-size="11" x="153.784" y="173">1</tspan><tspan font-size="11" x="112.855" y="216">1..*</tspan><tspan font-family="Yu Gothic,Yu Gothic_MSFontService,sans-serif" font-size="11" x="175.881" y="174">規定</tspan><tspan font-family="Yu Gothic,Yu Gothic_MSFontService,sans-serif" font-size="11" x="-36.3115" y="121">所属</tspan><tspan font-size="11" x="-151.477" y="167">R</tspan>_HR_2<tspan font-size="11" x="-207.574" y="207">R</tspan>_HR_3<tspan font-size="11" x="122.566" y="70">R</tspan><tspan font-size="11" x="128.399" y="70">_HR_4</tspan><tspan font-size="11" x="-70.9763" y="196">R</tspan><tspan font-size="11" x="-65.1429" y="196">_HR_5</tspan><tspan font-size="11" x="100.851" y="186">R</tspan><tspan font-size="11" x="106.684" y="186">_HR_6</tspan></text></g></svg>