<svg width="443" height="183" xmlns="http://www.w3.org/2000/svg" xmlns:xlink="http://www.w3.org/1999/xlink" overflow="hidden"><defs><clipPath id="clip0"><rect x="137" y="160" width="443" height="183"/></clipPath></defs><g clip-path="url(#clip0)" transform="translate(-137 -160)"><rect x="138.5" y="162.5" width="126" height="87" stroke="#000000" stroke-width="1.33333" stroke-miterlimit="8" fill="#FFFFFF"/><text font-family="Yu Gothic,Yu Gothic_MSFontService,sans-serif" font-weight="400" font-size="13" transform="translate(187.775 178)">顧客<tspan font-family="Consolas,Consolas_MSFontService,sans-serif" font-size="13" x="-40.2467" y="16">*</tspan><tspan font-size="13" x="-32.9133" y="16">顧客</tspan><tspan font-family="Consolas,Consolas_MSFontService,sans-serif" font-size="13" x="-6.24666" y="16">ID</tspan><tspan font-size="13" x="-26.9133" y="32">顧客名</tspan><tspan font-size="13" x="-26.9133" y="48">住所</tspan></text><rect x="452.5" y="162.5" width="127" height="87" stroke="#000000" stroke-width="1.33333" stroke-miterlimit="8" fill="#FFFFFF"/><text font-family="Yu Gothic,Yu Gothic_MSFontService,sans-serif" font-weight="400" font-size="13" transform="translate(502.015 178)">商品<tspan font-family="Consolas,Consolas_MSFontService,sans-serif" font-size="13" x="-40.2467" y="16">*</tspan><tspan font-size="13" x="-32.9133" y="16">商品コード</tspan><tspan font-size="13" x="-26.9133" y="32">商品名</tspan><tspan font-size="13" x="-26.9133" y="48">在庫</tspan><tspan font-size="13" x="-26.9133" y="64">単価</tspan></text><path d="M264.5 205.5 452.294 205.5" stroke="#000000" stroke-width="0.666667" stroke-miterlimit="8" fill="none" fill-rule="evenodd"/><path d="M0 0 6.11895 48.0202" stroke="#000000" stroke-width="2" stroke-miterlimit="8" stroke-dasharray="2 2" fill="none" fill-rule="evenodd" transform="matrix(1 0 0 -1 352 255.02)"/><text font-family="Yu Gothic,Yu Gothic_MSFontService,sans-serif" font-weight="400" font-size="11" transform="translate(275.76 197)">発注者<tspan font-family="Calibri,Calibri_MSFontService,sans-serif" font-size="11" x="-3.70016" y="21">*</tspan><tspan font-family="Calibri,Calibri_MSFontService,sans-serif" font-size="11" x="158.002" y="6">*</tspan><tspan font-size="11" x="125.323" y="21">購入予約</tspan></text><rect x="289.5" y="255.5" width="126" height="87" stroke="#000000" stroke-width="1.33333" stroke-miterlimit="8" fill="#FFFFFF"/><text font-family="Yu Gothic,Yu Gothic_MSFontService,sans-serif" font-weight="400" font-size="13" transform="translate(338.757 272)">注文<tspan font-family="Consolas,Consolas_MSFontService,sans-serif" font-size="13" x="-40.2467" y="16">*</tspan><tspan font-size="13" x="-32.9133" y="16">注文</tspan><tspan font-family="Consolas,Consolas_MSFontService,sans-serif" font-size="13" x="-6.24667" y="16">ID</tspan><tspan font-size="13" x="-26.9133" y="32">個数</tspan><tspan font-size="13" x="-26.9133" y="48">金額</tspan></text></g></svg>