<svg width="608" height="808" xmlns="http://www.w3.org/2000/svg" xmlns:xlink="http://www.w3.org/1999/xlink" overflow="hidden"><defs><clipPath id="clip0"><rect x="56" y="491" width="608" height="808"/></clipPath></defs><g clip-path="url(#clip0)" transform="translate(-56 -491)"><rect x="58.5001" y="492.5" width="604" height="806" stroke="#D9D9D9" stroke-width="1.33333" stroke-miterlimit="8" fill="none"/><text font-family="Calibri,Calibri_MSFontService,sans-serif" font-weight="400" font-size="16" transform="translate(140.357 512)">C/C++<tspan font-family="Yu Gothic,Yu Gothic_MSFontService,sans-serif" font-size="16" x="39.2867" y="0">におけるヘッダーファイルとソースファイルの依存関係</tspan></text><path d="M74.5001 810.5 394.5 810.5 394.5 915.5 373.5 936.5 74.5001 936.5Z" fill="#FFFFFF" fill-rule="evenodd"/><path d="M373.5 936.5 377.7 919.7 394.5 915.5Z" fill="#CDCDCD" fill-rule="evenodd"/><path d="M373.5 936.5 377.7 919.7 394.5 915.5 373.5 936.5 74.5001 936.5 74.5001 810.5 394.5 810.5 394.5 915.5" stroke="#000000" stroke-width="1.33333" stroke-miterlimit="8" fill="none" fill-rule="evenodd"/><text font-family="Calibri,Calibri_MSFontService,sans-serif" font-weight="400" font-size="13" transform="translate(219.525 826)">app.c</text><rect x="82" y="838" width="304" height="90"/><text fill="#569CD6" font-family="Consolas,Consolas_MSFontService,sans-serif" font-weight="400" font-size="13" transform="translate(91.897 855)">int<tspan fill="#9CDCFE" font-size="13" x="29.3333" y="0">result</tspan><tspan fill="#D4D4D4" font-size="13" x="73.3333" y="0">;</tspan><tspan fill="#4EC9B0" font-size="13" x="0" y="16">Foo</tspan><tspan fill="#9CDCFE" font-size="13" x="29.3333" y="16">f</tspan><tspan fill="#D4D4D4" font-size="13" x="36.6667" y="16">;</tspan><tspan fill="#9CDCFE" font-size="13" x="0" y="32">f</tspan><tspan fill="#D4D4D4" font-size="13" x="7.33333" y="32">.x</tspan><tspan fill="#D4D4D4" font-size="13" x="29.3333" y="32">= </tspan><tspan fill="#D4D4D4" font-size="13" x="44" y="32">globalf</tspan><tspan fill="#D4D4D4" font-size="13" x="95.3333" y="32">;</tspan><tspan fill="#9CDCFE" font-size="13" x="0" y="48">f</tspan><tspan fill="#D4D4D4" font-size="13" x="7.33333" y="48">.p</tspan><tspan fill="#D4D4D4" font-size="13" x="29.3333" y="48">= (</tspan><tspan font-size="13" x="51.3333" y="48">char</tspan><tspan fill="#D4D4D4" font-size="13" x="80.6667" y="48">*)</tspan><tspan fill="#DCDCAA" font-size="13" x="95.3333" y="48">malloc</tspan><tspan fill="#D4D4D4" font-size="13" x="139.333" y="48">(</tspan><tspan font-size="13" x="146.667" y="48">sizeof</tspan><tspan fill="#D4D4D4" font-size="13" x="190.667" y="48">(</tspan><tspan fill="#D4D4D4" font-size="13" x="198" y="48">globalf</tspan><tspan fill="#D4D4D4" font-size="13" x="249.333" y="48">));</tspan><tspan fill="#9CDCFE" font-size="13" x="0" y="64">result</tspan><tspan fill="#D4D4D4" font-size="13" x="51.3333" y="64">= </tspan><tspan fill="#DCDCAA" font-size="13" x="66" y="64">foo</tspan><tspan fill="#D4D4D4" font-size="13" x="88" y="64">(&amp;</tspan><tspan fill="#9CDCFE" font-size="13" x="102.667" y="64">f</tspan><tspan fill="#D4D4D4" font-size="13" x="110" y="64">);</tspan></text><path d="M242.5 571.5 478.5 571.5 478.5 709.833 450.833 737.5 242.5 737.5Z" fill="#FFFFFF" fill-rule="evenodd"/><path d="M450.833 737.5 456.366 715.366 478.5 709.833Z" fill="#CDCDCD" fill-rule="evenodd"/><path d="M450.833 737.5 456.366 715.366 478.5 709.833 450.833 737.5 242.5 737.5 242.5 571.5 478.5 571.5 478.5 709.833" stroke="#000000" stroke-width="1.33333" stroke-miterlimit="8" fill="none" fill-rule="evenodd"/><text font-family="Calibri,Calibri_MSFontService,sans-serif" font-weight="400" font-size="13" transform="translate(345.833 588)">foo.h</text><rect x="260" y="602" width="201" height="123"/><text fill="#569CD6" font-family="Consolas,Consolas_MSFontService,sans-serif" font-weight="400" font-size="13" transform="translate(269.959 620)">typedef<tspan font-size="13" x="58.6667" y="0">struct</tspan><tspan fill="#D4D4D4" font-size="13" x="110" y="0">{</tspan><tspan font-size="13" x="29.3333" y="16">int</tspan><tspan fill="#9CDCFE" font-size="13" x="58.6667" y="16">x</tspan><tspan fill="#D4D4D4" font-size="13" x="66" y="16">;</tspan><tspan font-size="13" x="29.3333" y="32">char</tspan><tspan fill="#D4D4D4" font-size="13" x="58.6667" y="32">* </tspan><tspan fill="#9CDCFE" font-size="13" x="73.3333" y="32">p</tspan><tspan fill="#D4D4D4" font-size="13" x="80.6667" y="32">;</tspan><tspan fill="#D4D4D4" font-size="13" x="0" y="48">} </tspan><tspan fill="#4EC9B0" font-size="13" x="14.6667" y="48">Foo</tspan><tspan fill="#D4D4D4" font-size="13" x="36.6667" y="48">;</tspan><tspan font-size="13" x="0" y="80">extern</tspan><tspan font-size="13" x="51.3333" y="80">int</tspan><tspan fill="#9CDCFE" font-size="13" x="80.6667" y="80">globalf</tspan><tspan fill="#D4D4D4" font-size="13" x="132" y="80">;</tspan><tspan font-size="13" x="0" y="96">extern</tspan><tspan font-size="13" x="51.3333" y="96">int</tspan><tspan fill="#DCDCAA" font-size="13" x="80.6667" y="96">foo</tspan><tspan fill="#D4D4D4" font-size="13" x="102.667" y="96">(</tspan><tspan fill="#4EC9B0" font-size="13" x="110" y="96">Foo</tspan><tspan fill="#D4D4D4" font-size="13" x="132" y="96">* </tspan><tspan fill="#9CDCFE" font-size="13" x="146.667" y="96">f</tspan><tspan fill="#D4D4D4" font-size="13" x="154" y="96">);</tspan></text><path d="M417.5 810.5 625.5 810.5 625.5 931.333 601.333 955.5 417.5 955.5Z" fill="#FFFFFF" fill-rule="evenodd"/><path d="M601.333 955.5 606.166 936.166 625.5 931.333Z" fill="#CDCDCD" fill-rule="evenodd"/><path d="M601.333 955.5 606.166 936.166 625.5 931.333 601.333 955.5 417.5 955.5 417.5 810.5 625.5 810.5 625.5 931.333" stroke="#000000" stroke-width="1.33333" stroke-miterlimit="8" fill="none" fill-rule="evenodd"/><text font-family="Calibri,Calibri_MSFontService,sans-serif" font-weight="400" font-size="13" transform="translate(507.528 826)">foo.c</text><rect x="432" y="838" width="180" height="106"/><text fill="#569CD6" font-family="Consolas,Consolas_MSFontService,sans-serif" font-weight="400" font-size="13" transform="translate(441.616 855)">int<tspan fill="#9CDCFE" font-size="13" x="29.3333" y="0">globalf</tspan><tspan fill="#D4D4D4" font-size="13" x="88" y="0">= </tspan><tspan fill="#B5CEA8" font-size="13" x="102.667" y="0">32</tspan><tspan fill="#D4D4D4" font-size="13" x="117.333" y="0">;</tspan><tspan font-size="13" x="0" y="16">int</tspan><tspan fill="#DCDCAA" font-size="13" x="29.3333" y="16">foo</tspan><tspan fill="#D4D4D4" font-size="13" x="51.3333" y="16">(</tspan><tspan fill="#4EC9B0" font-size="13" x="58.6667" y="16">Foo</tspan><tspan fill="#D4D4D4" font-size="13" x="80.6667" y="16">* </tspan><tspan fill="#9CDCFE" font-size="13" x="95.3333" y="16">f</tspan><tspan fill="#D4D4D4" font-size="13" x="102.667" y="16">) {</tspan><tspan font-size="13" x="29.3333" y="32">int</tspan><tspan fill="#9CDCFE" font-size="13" x="58.6667" y="32">x</tspan><tspan fill="#D4D4D4" font-size="13" x="73.3333" y="32">= </tspan><tspan fill="#9CDCFE" font-size="13" x="88" y="32">f</tspan><tspan fill="#D4D4D4" font-size="13" x="95.3333" y="32">-</tspan><tspan fill="#D4D4D4" font-size="13" x="102.667" y="32">&gt;</tspan><tspan fill="#9CDCFE" font-size="13" x="110" y="32">x</tspan><tspan fill="#D4D4D4" font-size="13" x="117.333" y="32">;</tspan><tspan font-size="13" x="29.3333" y="48">char</tspan><tspan fill="#D4D4D4" font-size="13" x="58.6667" y="48">* </tspan><tspan fill="#9CDCFE" font-size="13" x="73.3333" y="48">p</tspan><tspan fill="#D4D4D4" font-size="13" x="88" y="48">= </tspan><tspan fill="#9CDCFE" font-size="13" x="102.667" y="48">f</tspan><tspan fill="#D4D4D4" font-size="13" x="110" y="48">-</tspan><tspan fill="#D4D4D4" font-size="13" x="117.333" y="48">&gt;</tspan><tspan fill="#9CDCFE" font-size="13" x="124.667" y="48">p</tspan><tspan fill="#D4D4D4" font-size="13" x="132" y="48">;</tspan><tspan fill="#D4D4D4" font-size="13" x="29.3333" y="64">...</tspan><tspan fill="#D4D4D4" font-size="13" x="0" y="80">}</tspan></text><path d="M276.094 823.267 276.329 822.715 285.164 826.471 284.929 827.023ZM276.564 822.163 277.033 821.059 285.868 824.814 285.399 825.918ZM277.268 820.506 316.101 729.149 311.684 727.272 324.274 722.192 329.354 734.783 324.936 732.905 286.103 824.262Z" stroke="#2F528F" stroke-width="1.33333" stroke-miterlimit="8" stroke-opacity="0.501961" fill="#4472C4" fill-rule="evenodd" fill-opacity="0.501961"/><path d="M0 4.80003 0.599956 4.80003 0.599956 14.4 0 14.4ZM1.20003 4.80003 2.39995 4.80003 2.39995 14.4 1.20003 14.4ZM3.00002 4.80003 102.268 4.80003 102.268 0 111.868 9.60006 102.268 19.2 102.268 14.4 3.00002 14.4Z" stroke="#2F528F" stroke-width="1.33333" stroke-miterlimit="8" stroke-opacity="0.501961" fill="#4472C4" fill-rule="evenodd" fill-opacity="0.501961" transform="matrix(-0.391197 -0.920307 -0.920307 0.391197 462.732 821.39)"/><text font-family="Yu Gothic,Yu Gothic_MSFontService,sans-serif" font-weight="400" font-size="13" transform="translate(315.81 773)">参照による依存<tspan font-size="13" x="-117.533" y="-215">データ型や関数の宣言を行っているヘッダーファイル</tspan><tspan font-size="13" x="-231.954" y="28">利用側のソースファイル</tspan><tspan font-size="13" x="116.119" y="28">本体</tspan><tspan font-size="13" x="142.786" y="28">を定義するソースファイル</tspan></text><path d="M185 997.5C185 983.417 206.938 972 234 972 261.062 972 283 983.417 283 997.5 283 1011.58 261.062 1023 234 1023 206.938 1023 185 1011.58 185 997.5Z" stroke="#4472C4" stroke-width="2" stroke-miterlimit="8" fill="#FFFFFF" fill-rule="evenodd"/><text font-family="Calibri,Calibri_MSFontService,sans-serif" font-weight="400" font-size="13" transform="translate(210.087 1001)">compiler</text><path d="M0.999971-0.00760008 1.22048 29.0062-0.779457 29.0214-0.999971 0.00760008ZM4.21026 27.6501 0.271181 35.6803-3.7895 27.7109Z" fill="#4472C4" transform="matrix(-1 0 0 1 234.271 936)"/><path d="M472 996.5C472 982.417 493.938 971 521 971 548.062 971 570 982.417 570 996.5 570 1010.58 548.062 1022 521 1022 493.938 1022 472 1010.58 472 996.5Z" stroke="#4472C4" stroke-width="2" stroke-miterlimit="8" fill="#FFFFFF" fill-rule="evenodd"/><text font-family="Calibri,Calibri_MSFontService,sans-serif" font-weight="400" font-size="13" transform="translate(497.194 1001)">compiler</text><path d="M1-6.43579e-06 1.00006 9.64629-0.999938 9.64631-1 6.43579e-06ZM4.00005 8.31294 0.000104987 16.313-3.99995 8.31299Z" fill="#4472C4" transform="matrix(-1 0 0 1 521 955)"/><path d="M214.5 1051.5 254.5 1051.5 254.5 1096.83 247.833 1103.5 214.5 1103.5Z" fill="#FFFFFF" fill-rule="evenodd"/><path d="M247.833 1103.5 249.167 1098.17 254.5 1096.83Z" fill="#CDCDCD" fill-rule="evenodd"/><path d="M247.833 1103.5 249.167 1098.17 254.5 1096.83 247.833 1103.5 214.5 1103.5 214.5 1051.5 254.5 1051.5 254.5 1096.83" stroke="#000000" stroke-width="1.33333" stroke-miterlimit="8" fill="none" fill-rule="evenodd"/><text font-family="Calibri,Calibri_MSFontService,sans-serif" font-weight="400" font-size="13" transform="translate(230.254 1078)">B</text><path d="M501.5 1051.5 541.5 1051.5 541.5 1096.83 534.833 1103.5 501.5 1103.5Z" fill="#FFFFFF" fill-rule="evenodd"/><path d="M534.833 1103.5 536.167 1098.17 541.5 1096.83Z" fill="#CDCDCD" fill-rule="evenodd"/><path d="M534.833 1103.5 536.167 1098.17 541.5 1096.83 534.833 1103.5 501.5 1103.5 501.5 1051.5 541.5 1051.5 541.5 1096.83" stroke="#000000" stroke-width="1.33333" stroke-miterlimit="8" fill="none" fill-rule="evenodd"/><text font-family="Calibri,Calibri_MSFontService,sans-serif" font-weight="400" font-size="13" transform="translate(517.361 1078)">B</text><path d="M1-3.67811e-06 1.00008 21.8771-0.999919 21.8771-1 3.67811e-06ZM4.00008 20.5437 0.000104987 28.5437-3.99992 20.5437Z" fill="#4472C4" transform="matrix(-1 0 0 1 234 1023)"/><path d="M1-3.61199e-06 1.00008 22.3996-0.999919 22.3996-1 3.61199e-06ZM4.00008 21.0662 0.000104987 29.0662-3.99992 21.0663Z" fill="#4472C4" transform="matrix(-1 0 0 1 521 1022)"/><path d="M164 1156.5C164 1142.42 180.789 1131 201.5 1131 222.211 1131 239 1142.42 239 1156.5 239 1170.58 222.211 1182 201.5 1182 180.789 1182 164 1170.58 164 1156.5Z" stroke="#70AD47" stroke-width="2" stroke-miterlimit="8" fill="#FFFFFF" fill-rule="evenodd"/><text font-family="Calibri,Calibri_MSFontService,sans-serif" font-weight="400" font-size="13" transform="translate(184.959 1161)">Linker</text><path d="M182.5 1208.5 221.5 1208.5 221.5 1253 215 1259.5 182.5 1259.5Z" fill="#FFFFFF" fill-rule="evenodd"/><path d="M215 1259.5 216.3 1254.3 221.5 1253Z" fill="#CDCDCD" fill-rule="evenodd"/><path d="M215 1259.5 216.3 1254.3 221.5 1253 215 1259.5 182.5 1259.5 182.5 1208.5 221.5 1208.5 221.5 1253" stroke="#000000" stroke-width="1.33333" stroke-miterlimit="8" fill="none" fill-rule="evenodd"/><text font-family="Calibri,Calibri_MSFontService,sans-serif" font-weight="400" font-size="13" transform="translate(198.625 1234)">L</text><path d="M202 1182 202 1200.94 200 1200.94 200 1182ZM205 1199.61 201 1207.61 197 1199.61Z" fill="#70AD47"/><path d="M260.5 1106.5C260.5 1113.68 259.53 1119.5 258.334 1119.5L202.667 1119.5C201.47 1119.5 200.5 1125.32 200.5 1132.5 200.5 1125.32 199.53 1119.5 198.334 1119.5L142.667 1119.5C141.47 1119.5 140.5 1113.68 140.5 1106.5" stroke="#4472C4" stroke-width="0.666667" stroke-miterlimit="8" fill="none" fill-rule="evenodd"/><path d="M521 1155.5C521 1141.42 537.789 1130 558.5 1130 579.211 1130 596 1141.42 596 1155.5 596 1169.58 579.211 1181 558.5 1181 537.789 1181 521 1169.58 521 1155.5Z" stroke="#70AD47" stroke-width="2" stroke-miterlimit="8" fill="#FFFFFF" fill-rule="evenodd"/><text font-family="Calibri,Calibri_MSFontService,sans-serif" font-weight="400" font-size="13" transform="translate(541.94 1160)">Linker</text><path d="M617.5 1104.5C617.5 1111.68 616.53 1117.5 615.333 1117.5L559.667 1117.5C558.47 1117.5 557.5 1123.32 557.5 1130.5 557.5 1123.32 556.53 1117.5 555.333 1117.5L499.667 1117.5C498.47 1117.5 497.5 1111.68 497.5 1104.5" stroke="#4472C4" stroke-width="0.666667" stroke-miterlimit="8" fill="none" fill-rule="evenodd"/><path d="M539.5 1207.5 579.5 1207.5 579.5 1251.83 572.833 1258.5 539.5 1258.5Z" fill="#FFFFFF" fill-rule="evenodd"/><path d="M572.833 1258.5 574.167 1253.17 579.5 1251.83Z" fill="#CDCDCD" fill-rule="evenodd"/><path d="M572.833 1258.5 574.167 1253.17 579.5 1251.83 572.833 1258.5 539.5 1258.5 539.5 1207.5 579.5 1207.5 579.5 1251.83" stroke="#000000" stroke-width="1.33333" stroke-miterlimit="8" fill="none" fill-rule="evenodd"/><text font-family="Calibri,Calibri_MSFontService,sans-serif" font-weight="400" font-size="13" transform="translate(556.223 1233)">L</text><path d="M559 1180.98 559.456 1199.92 557.456 1199.97 557 1181.02ZM562.423 1198.52 558.616 1206.61 554.425 1198.71Z" fill="#70AD47"/><path d="M194.5 1080.5 212.105 1080.5" stroke="#000000" stroke-width="3" stroke-miterlimit="8" stroke-dasharray="3 3" fill="none" fill-rule="evenodd"/><path d="M548.5 1080.5 566.105 1080.5" stroke="#000000" stroke-width="3" stroke-miterlimit="8" stroke-dasharray="3 3" fill="none" fill-rule="evenodd"/><path d="M234.5 1229.25 235.094 1229.25 235.094 1238.75 234.5 1238.75ZM235.688 1229.25 236.875 1229.25 236.875 1238.75 235.688 1238.75ZM237.469 1229.25 517 1229.25 517 1224.5 526.5 1234 517 1243.5 517 1238.75 237.469 1238.75Z" stroke="#2F528F" stroke-width="1.33333" stroke-miterlimit="8" stroke-opacity="0.501961" fill="#ED7D31" fill-rule="evenodd" fill-opacity="0.501961"/><text font-family="Yu Gothic,Yu Gothic_MSFontService,sans-serif" font-weight="400" font-size="13" transform="translate(249.972 1161)">利用側<tspan font-size="13" x="40" y="0">のソースファイルと本体を定義した</tspan><tspan font-size="13" x="0" y="16">ソースファイルが異なるライブラリモ</tspan><tspan font-size="13" x="0" y="32">ジュールにパッケージ化された場合、ライ</tspan><tspan font-size="13" x="0" y="48">ブラリモジュール間に依存が生じる</tspan></text></g></svg>