<svg width="608" height="772" xmlns="http://www.w3.org/2000/svg" xmlns:xlink="http://www.w3.org/1999/xlink" overflow="hidden"><defs><clipPath id="clip0"><rect x="56" y="81" width="608" height="772"/></clipPath><clipPath id="clip1"><rect x="244" y="745" width="39" height="40"/></clipPath><clipPath id="clip2"><rect x="244" y="745" width="39" height="40"/></clipPath><clipPath id="clip3"><rect x="244" y="745" width="39" height="40"/></clipPath><clipPath id="clip4"><rect x="244" y="704" width="39" height="40"/></clipPath><clipPath id="clip5"><rect x="244" y="704" width="39" height="40"/></clipPath><clipPath id="clip6"><rect x="244" y="704" width="39" height="40"/></clipPath></defs><g clip-path="url(#clip0)" transform="translate(-56 -81)"><rect x="58.5001" y="82.5001" width="604" height="769" stroke="#D9D9D9" stroke-width="1.33333" stroke-miterlimit="8" fill="none"/><path d="M95.5001 189.5 134.5 189.5 134.5 234 128 240.5 95.5001 240.5Z" fill="#FFFFFF" fill-rule="evenodd"/><path d="M128 240.5 129.3 235.3 134.5 234Z" fill="#CDCDCD" fill-rule="evenodd"/><path d="M128 240.5 129.3 235.3 134.5 234 128 240.5 95.5001 240.5 95.5001 189.5 134.5 189.5 134.5 234" stroke="#000000" stroke-width="1.33333" stroke-miterlimit="8" fill="none" fill-rule="evenodd"/><text font-family="Calibri,Calibri_MSFontService,sans-serif" font-weight="400" font-size="13" transform="translate(111.385 215)">T</text><path d="M95.5001 258.5 134.5 258.5 134.5 303 128 309.5 95.5001 309.5Z" fill="#FFFFFF" fill-rule="evenodd"/><path d="M128 309.5 129.3 304.3 134.5 303Z" fill="#CDCDCD" fill-rule="evenodd"/><path d="M128 309.5 129.3 304.3 134.5 303 128 309.5 95.5001 309.5 95.5001 258.5 134.5 258.5 134.5 303" stroke="#000000" stroke-width="1.33333" stroke-miterlimit="8" fill="none" fill-rule="evenodd"/><text font-family="Calibri,Calibri_MSFontService,sans-serif" font-weight="400" font-size="13" transform="translate(111.385 284)">T</text><path d="M95.5001 326.5 134.5 326.5 134.5 372 128 378.5 95.5001 378.5Z" fill="#FFFFFF" fill-rule="evenodd"/><path d="M128 378.5 129.3 373.3 134.5 372Z" fill="#CDCDCD" fill-rule="evenodd"/><path d="M128 378.5 129.3 373.3 134.5 372 128 378.5 95.5001 378.5 95.5001 326.5 134.5 326.5 134.5 372" stroke="#000000" stroke-width="1.33333" stroke-miterlimit="8" fill="none" fill-rule="evenodd"/><text font-family="Calibri,Calibri_MSFontService,sans-serif" font-weight="400" font-size="13" transform="translate(111.385 353)">T</text><path d="M95.5001 395.5 134.5 395.5 134.5 440 128 446.5 95.5001 446.5Z" fill="#FFFFFF" fill-rule="evenodd"/><path d="M128 446.5 129.3 441.3 134.5 440Z" fill="#CDCDCD" fill-rule="evenodd"/><path d="M128 446.5 129.3 441.3 134.5 440 128 446.5 95.5001 446.5 95.5001 395.5 134.5 395.5 134.5 440" stroke="#000000" stroke-width="1.33333" stroke-miterlimit="8" fill="none" fill-rule="evenodd"/><text font-family="Calibri,Calibri_MSFontService,sans-serif" font-weight="400" font-size="13" transform="translate(111.385 422)">T</text><path d="M95.5001 464.5 134.5 464.5 134.5 509 128 515.5 95.5001 515.5Z" fill="#FFFFFF" fill-rule="evenodd"/><path d="M128 515.5 129.3 510.3 134.5 509Z" fill="#CDCDCD" fill-rule="evenodd"/><path d="M128 515.5 129.3 510.3 134.5 509 128 515.5 95.5001 515.5 95.5001 464.5 134.5 464.5 134.5 509" stroke="#000000" stroke-width="1.33333" stroke-miterlimit="8" fill="none" fill-rule="evenodd"/><text font-family="Calibri,Calibri_MSFontService,sans-serif" font-weight="400" font-size="13" transform="translate(111.385 490)">T</text><path d="M95.5001 556.5 134.5 556.5 134.5 601 128 607.5 95.5001 607.5Z" fill="#FFFFFF" fill-rule="evenodd"/><path d="M128 607.5 129.3 602.3 134.5 601Z" fill="#CDCDCD" fill-rule="evenodd"/><path d="M128 607.5 129.3 602.3 134.5 601 128 607.5 95.5001 607.5 95.5001 556.5 134.5 556.5 134.5 601" stroke="#000000" stroke-width="1.33333" stroke-miterlimit="8" fill="none" fill-rule="evenodd"/><text font-family="Calibri,Calibri_MSFontService,sans-serif" font-weight="400" font-size="13" transform="translate(111.385 582)">T</text><path d="M115.5 529.5 115.5 547.105" stroke="#000000" stroke-width="3" stroke-miterlimit="8" stroke-dasharray="3 3" fill="none" fill-rule="evenodd"/><path d="M172 214.5C172 200.417 193.938 189 221 189 248.062 189 270 200.417 270 214.5 270 228.583 248.062 240 221 240 193.938 240 172 228.583 172 214.5Z" stroke="#4472C4" stroke-width="2" stroke-miterlimit="8" fill="#FFFFFF" fill-rule="evenodd"/><text font-family="Calibri,Calibri_MSFontService,sans-serif" font-weight="400" font-size="13" transform="translate(197.107 218)">compiler</text><path d="M172 283.5C172 269.417 193.938 258 221 258 248.062 258 270 269.417 270 283.5 270 297.583 248.062 309 221 309 193.938 309 172 297.583 172 283.5Z" stroke="#4472C4" stroke-width="2" stroke-miterlimit="8" fill="#FFFFFF" fill-rule="evenodd"/><text font-family="Calibri,Calibri_MSFontService,sans-serif" font-weight="400" font-size="13" transform="translate(197.107 287)">compiler</text><path d="M172 352C172 337.641 193.938 326 221 326 248.062 326 270 337.641 270 352 270 366.359 248.062 378 221 378 193.938 378 172 366.359 172 352Z" stroke="#4472C4" stroke-width="2" stroke-miterlimit="8" fill="#FFFFFF" fill-rule="evenodd"/><text font-family="Calibri,Calibri_MSFontService,sans-serif" font-weight="400" font-size="13" transform="translate(197.107 356)">compiler</text><path d="M172 420.5C172 406.417 193.938 395 221 395 248.062 395 270 406.417 270 420.5 270 434.583 248.062 446 221 446 193.938 446 172 434.583 172 420.5Z" stroke="#4472C4" stroke-width="2" stroke-miterlimit="8" fill="#FFFFFF" fill-rule="evenodd"/><text font-family="Calibri,Calibri_MSFontService,sans-serif" font-weight="400" font-size="13" transform="translate(197.107 425)">compiler</text><path d="M172 489.5C172 475.417 193.938 464 221 464 248.062 464 270 475.417 270 489.5 270 503.583 248.062 515 221 515 193.938 515 172 503.583 172 489.5Z" stroke="#4472C4" stroke-width="2" stroke-miterlimit="8" fill="#FFFFFF" fill-rule="evenodd"/><text font-family="Calibri,Calibri_MSFontService,sans-serif" font-weight="400" font-size="13" transform="translate(197.107 494)">compiler</text><path d="M172 581.5C172 567.417 193.938 556 221 556 248.062 556 270 567.417 270 581.5 270 595.583 248.062 607 221 607 193.938 607 172 595.583 172 581.5Z" stroke="#4472C4" stroke-width="2" stroke-miterlimit="8" fill="#FFFFFF" fill-rule="evenodd"/><text font-family="Calibri,Calibri_MSFontService,sans-serif" font-weight="400" font-size="13" transform="translate(197.107 585)">compiler</text><path d="M134 213 164.744 213 164.744 215 134 215ZM163.411 210 171.411 214 163.411 218Z" fill="#4472C4"/><path d="M134 282 164.744 282 164.744 284 134 284ZM163.411 279 171.411 283 163.411 287Z" fill="#4472C4"/><path d="M134 351 164.744 351 164.744 353 134 353ZM163.411 348 171.411 352 163.411 356Z" fill="#4472C4"/><path d="M134 420 164.744 420 164.744 422 134 422ZM163.411 417 171.411 421 163.411 425Z" fill="#4472C4"/><path d="M134 489 164.744 489 164.744 491 134 491ZM163.411 486 171.411 490 163.411 494Z" fill="#4472C4"/><path d="M134 580 164.744 580 164.744 582 134 582ZM163.411 577 171.411 581 163.411 585Z" fill="#4472C4"/><path d="M221.5 529.5 221.5 547.105" stroke="#000000" stroke-width="3" stroke-miterlimit="8" stroke-dasharray="3 3" fill="none" fill-rule="evenodd"/><path d="M304.5 189.5 344.5 189.5 344.5 233.833 337.833 240.5 304.5 240.5Z" fill="#FFFFFF" fill-rule="evenodd"/><path d="M337.833 240.5 339.167 235.167 344.5 233.833Z" fill="#CDCDCD" fill-rule="evenodd"/><path d="M337.833 240.5 339.167 235.167 344.5 233.833 337.833 240.5 304.5 240.5 304.5 189.5 344.5 189.5 344.5 233.833" stroke="#000000" stroke-width="1.33333" stroke-miterlimit="8" fill="none" fill-rule="evenodd"/><text font-family="Calibri,Calibri_MSFontService,sans-serif" font-weight="400" font-size="13" transform="translate(320.474 215)">B</text><path d="M304.5 258.5 344.5 258.5 344.5 302.833 337.833 309.5 304.5 309.5Z" fill="#FFFFFF" fill-rule="evenodd"/><path d="M337.833 309.5 339.167 304.167 344.5 302.833Z" fill="#CDCDCD" fill-rule="evenodd"/><path d="M337.833 309.5 339.167 304.167 344.5 302.833 337.833 309.5 304.5 309.5 304.5 258.5 344.5 258.5 344.5 302.833" stroke="#000000" stroke-width="1.33333" stroke-miterlimit="8" fill="none" fill-rule="evenodd"/><text font-family="Calibri,Calibri_MSFontService,sans-serif" font-weight="400" font-size="13" transform="translate(320.474 284)">B</text><path d="M304.5 326.5 344.5 326.5 344.5 371.833 337.833 378.5 304.5 378.5Z" fill="#FFFFFF" fill-rule="evenodd"/><path d="M337.833 378.5 339.167 373.167 344.5 371.833Z" fill="#CDCDCD" fill-rule="evenodd"/><path d="M337.833 378.5 339.167 373.167 344.5 371.833 337.833 378.5 304.5 378.5 304.5 326.5 344.5 326.5 344.5 371.833" stroke="#000000" stroke-width="1.33333" stroke-miterlimit="8" fill="none" fill-rule="evenodd"/><text font-family="Calibri,Calibri_MSFontService,sans-serif" font-weight="400" font-size="13" transform="translate(320.474 353)">B</text><path d="M304.5 395.5 344.5 395.5 344.5 439.833 337.833 446.5 304.5 446.5Z" fill="#FFFFFF" fill-rule="evenodd"/><path d="M337.833 446.5 339.167 441.167 344.5 439.833Z" fill="#CDCDCD" fill-rule="evenodd"/><path d="M337.833 446.5 339.167 441.167 344.5 439.833 337.833 446.5 304.5 446.5 304.5 395.5 344.5 395.5 344.5 439.833" stroke="#000000" stroke-width="1.33333" stroke-miterlimit="8" fill="none" fill-rule="evenodd"/><text font-family="Calibri,Calibri_MSFontService,sans-serif" font-weight="400" font-size="13" transform="translate(320.474 422)">B</text><path d="M304.5 464.5 344.5 464.5 344.5 508.833 337.833 515.5 304.5 515.5Z" fill="#FFFFFF" fill-rule="evenodd"/><path d="M337.833 515.5 339.167 510.167 344.5 508.833Z" fill="#CDCDCD" fill-rule="evenodd"/><path d="M337.833 515.5 339.167 510.167 344.5 508.833 337.833 515.5 304.5 515.5 304.5 464.5 344.5 464.5 344.5 508.833" stroke="#000000" stroke-width="1.33333" stroke-miterlimit="8" fill="none" fill-rule="evenodd"/><text font-family="Calibri,Calibri_MSFontService,sans-serif" font-weight="400" font-size="13" transform="translate(320.474 490)">B</text><path d="M304.5 556.5 344.5 556.5 344.5 600.833 337.833 607.5 304.5 607.5Z" fill="#FFFFFF" fill-rule="evenodd"/><path d="M337.833 607.5 339.167 602.167 344.5 600.833Z" fill="#CDCDCD" fill-rule="evenodd"/><path d="M337.833 607.5 339.167 602.167 344.5 600.833 337.833 607.5 304.5 607.5 304.5 556.5 344.5 556.5 344.5 600.833" stroke="#000000" stroke-width="1.33333" stroke-miterlimit="8" fill="none" fill-rule="evenodd"/><text font-family="Calibri,Calibri_MSFontService,sans-serif" font-weight="400" font-size="13" transform="translate(320.474 582)">B</text><path d="M325.5 529.5 325.5 547.105" stroke="#000000" stroke-width="3" stroke-miterlimit="8" stroke-dasharray="3 3" fill="none" fill-rule="evenodd"/><path d="M270 213 297.639 213 297.639 215 270 215ZM296.306 210 304.306 214 296.306 218Z" fill="#4472C4"/><path d="M270 282 297.639 282 297.639 284 270 284ZM296.306 279 304.306 283 296.306 287Z" fill="#4472C4"/><path d="M270 351 297.639 351 297.639 353 270 353ZM296.306 348 304.306 352 296.306 356Z" fill="#4472C4"/><path d="M270 420 297.639 420 297.639 422 270 422ZM296.306 417 304.306 421 296.306 425Z" fill="#4472C4"/><path d="M270 489 297.639 489 297.639 491 270 491ZM296.306 486 304.306 490 296.306 494Z" fill="#4472C4"/><path d="M270 580 297.639 580 297.639 582 270 582ZM296.306 577 304.306 581 296.306 585Z" fill="#4472C4"/><path d="M355.5 189.5C362.68 189.5 368.5 190.47 368.5 191.667L368.5 247.334C368.5 248.53 374.32 249.5 381.5 249.5 374.32 249.5 368.5 250.47 368.5 251.667L368.5 307.333C368.5 308.53 362.68 309.5 355.5 309.5" stroke="#4472C4" stroke-width="0.666667" stroke-miterlimit="8" fill="none" fill-rule="evenodd"/><path d="M355.5 326.5C362.68 326.5 368.5 327.47 368.5 328.667L368.5 418.833C368.5 420.03 374.32 421 381.5 421 374.32 421 368.5 421.97 368.5 423.167L368.5 513.333C368.5 514.53 362.68 515.5 355.5 515.5" stroke="#4472C4" stroke-width="0.666667" stroke-miterlimit="8" fill="none" fill-rule="evenodd"/><path d="M355.5 533.5C362.68 533.5 368.5 534.47 368.5 535.667L368.5 568.333C368.5 569.53 374.32 570.5 381.5 570.5 374.32 570.5 368.5 571.47 368.5 572.667L368.5 605.333C368.5 606.53 362.68 607.5 355.5 607.5" stroke="#4472C4" stroke-width="0.666667" stroke-miterlimit="8" fill="none" fill-rule="evenodd"/><path d="M401 248.5C401 234.417 417.565 223 438 223 458.435 223 475 234.417 475 248.5 475 262.583 458.435 274 438 274 417.565 274 401 262.583 401 248.5Z" stroke="#70AD47" stroke-width="2" stroke-miterlimit="8" fill="#FFFFFF" fill-rule="evenodd"/><text font-family="Calibri,Calibri_MSFontService,sans-serif" font-weight="400" font-size="13" transform="translate(421.57 253)">Linker</text><path d="M5.23708e-06-1 13.3802-0.99993 13.3802 1.00007-5.23708e-06 1ZM12.0468-3.99994 20.0468 0.000104987 12.0468 4.00006Z" fill="#70AD47" transform="matrix(1 0 0 -1 381 249)"/><path d="M401 421.5C401 407.417 417.565 396 438 396 458.435 396 475 407.417 475 421.5 475 435.583 458.435 447 438 447 417.565 447 401 435.583 401 421.5Z" stroke="#70AD47" stroke-width="2" stroke-miterlimit="8" fill="#FFFFFF" fill-rule="evenodd"/><text font-family="Calibri,Calibri_MSFontService,sans-serif" font-weight="400" font-size="13" transform="translate(421.57 426)">Linker</text><path d="M381.036 420.001 394.42 420.48 394.349 422.478 380.964 421.999ZM393.195 417.434 401.047 421.717 392.909 425.429Z" fill="#70AD47"/><path d="M401 570.5C401 556.417 417.565 545 438 545 458.435 545 475 556.417 475 570.5 475 584.583 458.435 596 438 596 417.565 596 401 584.583 401 570.5Z" stroke="#70AD47" stroke-width="2" stroke-miterlimit="8" fill="#FFFFFF" fill-rule="evenodd"/><text font-family="Calibri,Calibri_MSFontService,sans-serif" font-weight="400" font-size="13" transform="translate(421.57 574)">Linker</text><path d="M381.038 569.001 394.425 569.509 394.349 571.507 380.962 570.999ZM393.206 566.46 401.049 570.761 392.903 574.455Z" fill="#70AD47"/><path d="M505.5 223.5 544.5 223.5 544.5 268 538 274.5 505.5 274.5Z" fill="#FFFFFF" fill-rule="evenodd"/><path d="M538 274.5 539.3 269.3 544.5 268Z" fill="#CDCDCD" fill-rule="evenodd"/><path d="M538 274.5 539.3 269.3 544.5 268 538 274.5 505.5 274.5 505.5 223.5 544.5 223.5 544.5 268" stroke="#000000" stroke-width="1.33333" stroke-miterlimit="8" fill="none" fill-rule="evenodd"/><text font-family="Calibri,Calibri_MSFontService,sans-serif" font-weight="400" font-size="13" transform="translate(521.74 249)">L</text><path d="M505.5 395.5 545.5 395.5 545.5 439.833 538.833 446.5 505.5 446.5Z" fill="#FFFFFF" fill-rule="evenodd"/><path d="M538.833 446.5 540.167 441.167 545.5 439.833Z" fill="#CDCDCD" fill-rule="evenodd"/><path d="M538.833 446.5 540.167 441.167 545.5 439.833 538.833 446.5 505.5 446.5 505.5 395.5 545.5 395.5 545.5 439.833" stroke="#000000" stroke-width="1.33333" stroke-miterlimit="8" fill="none" fill-rule="evenodd"/><text font-family="Calibri,Calibri_MSFontService,sans-serif" font-weight="400" font-size="13" transform="translate(521.931 422)">L</text><path d="M505.5 545.5 544.5 545.5 544.5 590 538 596.5 505.5 596.5Z" fill="#FFFFFF" fill-rule="evenodd"/><path d="M538 596.5 539.3 591.3 544.5 590Z" fill="#CDCDCD" fill-rule="evenodd"/><path d="M538 596.5 539.3 591.3 544.5 590 538 596.5 505.5 596.5 505.5 545.5 544.5 545.5 544.5 590" stroke="#000000" stroke-width="1.33333" stroke-miterlimit="8" fill="none" fill-rule="evenodd"/><text font-family="Calibri,Calibri_MSFontService,sans-serif" font-weight="400" font-size="13" transform="translate(514.725 572)">EXE</text><path d="M0.001815-0.999998 22.6621-0.95887 22.6585 1.04113-0.001815 0.999998ZM21.3342-3.96128 29.3269 0.0532283 21.3197 4.0387Z" fill="#70AD47" transform="matrix(1 0 0 -1 475 249.053)"/><path d="M0.0242992-0.999705 22.8778-0.444219 22.8292 1.55519-0.0242992 0.999705ZM21.6178-3.47573 29.5182 0.71748 21.4234 4.52191Z" fill="#70AD47" transform="matrix(1 0 0 -1 475 421.717)"/><path d="M475.014 569 497.826 569.319 497.798 571.319 474.986 571ZM496.535 566.301 504.478 570.412 496.423 574.3Z" fill="#70AD47"/><text font-family="Yu Gothic,Yu Gothic_MSFontService,sans-serif" font-weight="400" font-size="13" transform="translate(75.1437 130)">データ構造とロジック<tspan font-size="13" x="0" y="16">の実装が記述された</tspan><tspan font-size="13" x="0" y="32">テキストファイル</tspan><tspan font-size="13" x="201.561" y="1">実行プラットフォーム</tspan><tspan font-size="13" x="201.561" y="17">上で動作する形式に</tspan><tspan font-size="13" x="201.561" y="33">変換されたバイナリ</tspan><tspan font-size="13" x="201.561" y="49">ファイル</tspan><tspan font-size="13" x="396.29" y="39">適切な単位でバイナリ</tspan><tspan font-size="13" x="396.29" y="55">ファイルが結合された</tspan><tspan font-size="13" x="396.29" y="71">ライブラリファイル</tspan><tspan font-size="13" x="359.348" y="378">実行開始エントリの定義を</tspan><tspan font-size="13" x="359.348" y="394">含むバイナリファイル</tspan></text><g clip-path="url(#clip1)"><g clip-path="url(#clip2)"><g clip-path="url(#clip3)"><path d="M10.7638 0 13.2602 0 13.2602 5.4603 10.7638 5.4603Z" fill="#4B4B4B" transform="matrix(1 0 0 1.02564 244 745)"/><path d="M15.7564 0 18.2519 0 18.2519 5.4603 15.7564 5.4603Z" fill="#4B4B4B" transform="matrix(1 0 0 1.02564 244 745)"/><path d="M20.7482 0 23.2437 0 23.2437 5.4603 20.7482 5.4603Z" fill="#4B4B4B" transform="matrix(1 0 0 1.02564 244 745)"/><path d="M25.7399 0 28.2362 0 28.2362 5.4603 25.7399 5.4603Z" fill="#4B4B4B" transform="matrix(1 0 0 1.02564 244 745)"/><path d="M10.7638 33.5403 13.2602 33.5403 13.2602 39 10.7638 39Z" fill="#4B4B4B" transform="matrix(1 0 0 1.02564 244 745)"/><path d="M15.7564 33.5403 18.2519 33.5403 18.2519 39 15.7564 39Z" fill="#4B4B4B" transform="matrix(1 0 0 1.02564 244 745)"/><path d="M20.7482 33.5403 23.2437 33.5403 23.2437 39 20.7482 39Z" fill="#4B4B4B" transform="matrix(1 0 0 1.02564 244 745)"/><path d="M25.7399 33.5403 28.2362 33.5403 28.2362 39 25.7399 39Z" fill="#4B4B4B" transform="matrix(1 0 0 1.02564 244 745)"/><path d="M33.5403 10.7638 39 10.7638 39 13.2601 33.5403 13.2601Z" fill="#4B4B4B" transform="matrix(1 0 0 1.02564 244 745)"/><path d="M33.5403 15.7564 39 15.7564 39 18.2519 33.5403 18.2519Z" fill="#4B4B4B" transform="matrix(1 0 0 1.02564 244 745)"/><path d="M33.5403 20.7481 39 20.7481 39 23.2436 33.5403 23.2436Z" fill="#4B4B4B" transform="matrix(1 0 0 1.02564 244 745)"/><path d="M33.5403 25.7399 39 25.7399 39 28.2362 33.5403 28.2362Z" fill="#4B4B4B" transform="matrix(1 0 0 1.02564 244 745)"/><path d="M0 10.7638 5.46038 10.7638 5.46038 13.2601-1.85966e-07 13.2601Z" fill="#4B4B4B" transform="matrix(1 0 0 1.02564 244 745)"/><path d="M0 15.7564 5.46038 15.7564 5.46038 18.2519-1.85966e-07 18.2519Z" fill="#4B4B4B" transform="matrix(1 0 0 1.02564 244 745)"/><path d="M0 20.7481 5.46038 20.7481 5.46038 23.2436-1.85966e-07 23.2436Z" fill="#4B4B4B" transform="matrix(1 0 0 1.02564 244 745)"/><path d="M0 25.7399 5.46038 25.7399 5.46038 28.2362-1.85966e-07 28.2362Z" fill="#4B4B4B" transform="matrix(1 0 0 1.02564 244 745)"/><path d="M7.02015 31.9806 31.9806 31.9806 31.9806 7.02015 7.02015 7.02015 7.02015 31.9806ZM27.9826 9.945C28.6285 9.945 29.153 10.4688 29.153 11.1155 29.153 11.7612 28.6285 12.2851 27.9826 12.2851 27.3368 12.2851 26.813 11.7612 26.813 11.1155 26.813 10.4688 27.3368 9.945 27.9826 9.945ZM27.9826 26.9103C28.6285 26.9103 29.153 27.4341 29.153 28.0808 29.153 28.7265 28.6285 29.2504 27.9826 29.2504 27.3368 29.2504 26.813 28.7265 26.813 28.0808 26.813 27.4341 27.3368 26.9103 27.9826 26.9103ZM11.0173 9.945C11.664 9.945 12.1878 10.4688 12.1878 11.1155 12.1878 11.7606 11.664 12.2851 11.0173 12.2851 10.3716 12.2851 9.84773 11.7606 9.84773 11.1155 9.84773 10.4688 10.3716 9.945 11.0173 9.945ZM11.0173 26.9103C11.664 26.9103 12.1878 27.4341 12.1878 28.0808 12.1878 28.7259 11.664 29.2504 11.0173 29.2504 10.3716 29.2504 9.84773 28.7259 9.84773 28.0808 9.84773 27.4341 10.3716 26.9103 11.0173 26.9103Z" fill="#4B4B4B" transform="matrix(1 0 0 1.02564 244 745)"/></g></g></g><g clip-path="url(#clip4)"><g clip-path="url(#clip5)"><g clip-path="url(#clip6)"><path d="M21.1017 20.0144 19.0747 19.7949C18.7973 19.7648 18.5628 19.5825 18.4563 19.3247 18.455 19.3217 18.4537 19.3186 18.4525 19.3155 18.3456 19.0578 18.3824 18.7631 18.5573 18.5458L19.8355 16.9572C20.0765 16.6577 20.0531 16.2248 19.7812 15.9529L17.3886 13.5603C17.1167 13.2884 16.6838 13.265 16.3843 13.506L14.795 14.7847C14.5782 14.9592 14.2844 14.9962 14.0271 14.8903 14.0242 14.8892 14.0214 14.888 14.0186 14.8869 13.7599 14.7807 13.5769 14.5458 13.5468 14.2678L13.3272 12.2398C13.2858 11.8575 12.9632 11.5679 12.5787 11.5679L9.19501 11.5679C8.81057 11.5679 8.48791 11.8575 8.44655 12.2398L8.22694 14.2678C8.19686 14.5457 8.01374 14.7807 7.75506 14.8869 7.75224 14.888 7.74942 14.8892 7.74668 14.8903 7.48937 14.9963 7.1955 14.9592 6.97871 14.7847L5.38931 13.506C5.0898 13.265 4.65684 13.2884 4.38506 13.5603L1.99243 15.9529C1.72057 16.2248 1.69719 16.6577 1.93819 16.9572L3.21636 18.5458C3.39125 18.7632 3.42804 19.0578 3.32117 19.3155 3.31988 19.3186 3.31866 19.3217 3.31736 19.3247 3.2108 19.5825 2.97634 19.7648 2.699 19.7949L0.671836 20.0144C0.289605 20.0557 0 20.3784 0 20.7629L0 24.1466C0 24.531 0.289605 24.8537 0.671836 24.895L2.69892 25.1145C2.97626 25.1445 3.2108 25.3268 3.31729 25.5846 3.31858 25.5877 3.3198 25.5908 3.32109 25.5938 3.42796 25.8515 3.39117 26.1462 3.21628 26.3636L1.93812 27.9522C1.69711 28.2517 1.72049 28.6847 1.99235 28.9565L4.38499 31.3491C4.65684 31.621 5.0898 31.6444 5.38931 31.4034L6.97856 30.1247C7.19535 29.9502 7.48922 29.9132 7.74653 30.0191 7.74935 30.0203 7.75216 30.0214 7.75498 30.0225 8.01366 30.1287 8.1967 30.3636 8.22679 30.6417L8.44639 32.6697C8.48776 33.0519 8.81042 33.3415 9.19486 33.3415L12.5786 33.3415C12.963 33.3415 13.2857 33.0519 13.327 32.6697L13.5466 30.6417C13.5767 30.3637 13.7598 30.1287 14.0184 30.0225 14.0213 30.0214 14.0241 30.0203 14.0268 30.0191 14.2841 29.9132 14.578 29.9502 14.7949 30.1247L16.3841 31.4034C16.6836 31.6444 17.1166 31.621 17.3884 31.3491L19.7811 28.9565C20.0529 28.6847 20.0762 28.2517 19.8353 27.9522L18.5571 26.3636C18.3823 26.1463 18.3455 25.8516 18.4523 25.5938 18.4536 25.5908 18.4548 25.5877 18.4561 25.5846 18.5627 25.3268 18.7972 25.1445 19.0745 25.1145L21.1016 24.895C21.4837 24.8536 21.7734 24.5309 21.7734 24.1466L21.7734 20.7629C21.7736 20.3784 21.484 20.0557 21.1017 20.0144ZM10.8868 25.8489C9.01228 25.8489 7.49265 24.3292 7.49265 22.4547 7.49265 20.5802 9.01228 19.0606 10.8868 19.0606 12.7613 19.0606 14.2809 20.5802 14.2809 22.4547 14.2809 24.3292 12.7613 25.8489 10.8868 25.8489Z" fill="#4B4B4B" transform="matrix(1 0 0 1.02564 244 704)"/><path d="M38.6549 16.6216 37.2633 15.5227C37.0416 15.3476 36.9185 15.0793 36.9184 14.7968 36.9184 14.7938 36.9184 14.7908 36.9184 14.7878 36.9179 14.5046 37.0411 14.2356 37.2633 14.0602L38.6549 12.9612C38.9736 12.7095 39.0863 12.2768 38.9309 11.9016L38.3196 10.4259C38.1642 10.0507 37.7785 9.82442 37.3753 9.8718L35.6142 10.0787C35.3329 10.1117 35.0556 10.0086 34.8558 9.80804 34.8537 9.80591 34.8516 9.80378 34.8495 9.80172 34.6497 9.60185 34.5471 9.32504 34.5801 9.0445L34.7869 7.28348C34.8343 6.88022 34.608 6.49449 34.2329 6.3391L32.7571 5.7279C32.382 5.57251 31.9492 5.68524 31.6976 6.00387L30.5985 7.39537C30.4234 7.61711 30.1551 7.74013 29.8726 7.74028 29.8696 7.74028 29.8666 7.74028 29.8636 7.74028 29.5806 7.74074 29.3115 7.61757 29.136 7.39537L28.037 6.00379C27.7854 5.68509 27.3526 5.57235 26.9774 5.72774L25.5017 6.33902C25.1265 6.49441 24.9002 6.88015 24.9476 7.28348L25.1545 9.04457C25.1875 9.32572 25.0844 9.60306 24.8838 9.80294 24.8817 9.80507 24.8796 9.80721 24.8774 9.80934 24.6776 10.0091 24.4008 10.1117 24.1202 10.0788L22.3592 9.87188C21.9559 9.8245 21.5702 10.0508 21.4148 10.4259L20.8035 11.9017C20.6481 12.2768 20.7609 12.7097 21.0796 12.9613L22.4711 14.0603C22.6928 14.2354 22.8158 14.5037 22.816 14.7862 22.816 14.7892 22.816 14.7922 22.816 14.7952 22.8165 15.0783 22.6933 15.3473 22.4711 15.5228L21.0795 16.6218C20.7608 16.8734 20.6481 17.3062 20.8035 17.6813L21.4147 19.1571C21.5701 19.5322 21.9559 19.7585 22.3591 19.7111L24.1203 19.5043C24.4014 19.4712 24.6788 19.5743 24.8786 19.7749 24.8808 19.777 24.8828 19.7792 24.885 19.7812 25.0847 19.9811 25.1874 20.2578 25.1544 20.5385L24.9475 22.2995C24.9001 22.7029 25.1264 23.0885 25.5016 23.2439L26.9773 23.8552C27.3525 24.0106 27.7852 23.8979 28.037 23.5792L29.1359 22.1876C29.311 21.9659 29.5793 21.8429 29.8618 21.8427 29.8648 21.8427 29.8678 21.8427 29.8708 21.8427 30.1539 21.8422 30.423 21.9655 30.5984 22.1876L31.6974 23.5792C31.9491 23.8979 32.3818 24.0107 32.757 23.8553L34.2328 23.244C34.6079 23.0886 34.8342 22.7029 34.7869 22.2996L34.58 20.5385C34.5469 20.2574 34.6501 19.98 34.8506 19.7802 34.8527 19.778 34.8549 19.7759 34.857 19.7738 35.0569 19.5742 35.3336 19.4714 35.6142 19.5044L37.3753 19.7113C37.7787 19.7587 38.1643 19.5324 38.3197 19.1572L38.931 17.6815C39.0862 17.3061 38.9736 16.8733 38.6549 16.6216ZM30.7695 17.4206C29.3539 18.007 27.731 17.3347 27.1446 15.9191 26.5582 14.5034 27.2305 12.8806 28.6461 12.2942 30.0617 11.7078 31.6846 12.3801 32.271 13.7957 32.8573 15.2113 32.1851 16.8343 30.7695 17.4206Z" fill="#4B4B4B" transform="matrix(1 0 0 1.02564 244 704)"/></g></g></g><rect x="223.5" y="688.5" width="299" height="126" stroke="#000000" stroke-width="1.33333" stroke-miterlimit="8" fill="none"/><text font-family="Yu Gothic,Yu Gothic_MSFontService,sans-serif" font-weight="400" font-size="13" transform="translate(305.505 805)">実行プラットフォーム</text><path d="M337.5 720.5 377.5 720.5 377.5 764.833 370.833 771.5 337.5 771.5Z" fill="#FFFFFF" fill-rule="evenodd"/><path d="M370.833 771.5 372.167 766.167 377.5 764.833Z" fill="#CDCDCD" fill-rule="evenodd"/><path d="M370.833 771.5 372.167 766.167 377.5 764.833 370.833 771.5 337.5 771.5 337.5 720.5 377.5 720.5 377.5 764.833" stroke="#000000" stroke-width="1.33333" stroke-miterlimit="8" fill="none" fill-rule="evenodd"/><text font-family="Calibri,Calibri_MSFontService,sans-serif" font-weight="400" font-size="13" transform="translate(346.986 746)">EXE</text><path d="M525.739 596 525.739 658.693 357 658.693 358 657.693 358 712.718 356 712.718 356 656.693 524.739 656.693 523.739 657.693 523.739 596ZM361 711.385 357 719.385 353 711.385Z" fill="#ED7D31"/><path d="M391.5 720.5 431.5 720.5 431.5 764.833 424.833 771.5 391.5 771.5Z" fill="#FFFFFF" fill-rule="evenodd"/><path d="M424.833 771.5 426.167 766.167 431.5 764.833Z" fill="#CDCDCD" fill-rule="evenodd"/><path d="M424.833 771.5 426.167 766.167 431.5 764.833 424.833 771.5 391.5 771.5 391.5 720.5 431.5 720.5 431.5 764.833" stroke="#000000" stroke-width="1.33333" stroke-miterlimit="8" fill="none" fill-rule="evenodd"/><text font-family="Calibri,Calibri_MSFontService,sans-serif" font-weight="400" font-size="13" transform="translate(408.256 746)">L</text><path d="M445.5 720.5 484.5 720.5 484.5 765 478 771.5 445.5 771.5Z" fill="#FFFFFF" fill-rule="evenodd"/><path d="M478 771.5 479.3 766.3 484.5 765Z" fill="#CDCDCD" fill-rule="evenodd"/><path d="M478 771.5 479.3 766.3 484.5 765 478 771.5 445.5 771.5 445.5 720.5 484.5 720.5 484.5 765" stroke="#000000" stroke-width="1.33333" stroke-miterlimit="8" fill="none" fill-rule="evenodd"/><text font-family="Calibri,Calibri_MSFontService,sans-serif" font-weight="400" font-size="13" transform="translate(461.797 746)">L</text><path d="M0.0565133 0.998402-3.25599 1.1859-3.14196 1.17285-6.39196 1.73535-6.25444 1.70137-12.8169 3.82637-12.6504 3.75519-19.0254 7.19269-18.9038 7.11535-25.2163 11.8029-25.1204 11.7218-31.1829 17.5343-31.1143 17.4616-36.9268 24.2741-36.8698 24.2007-42.3698 32.0132-42.3278 31.9483-47.4528 40.5733-47.4193 40.5121-52.1068 49.8246-52.0809 49.7689-56.3934 59.8314-56.3701 59.7721-60.1201 70.3346-60.1002 70.2719-63.2252 81.3344-63.2117 81.2811-65.7742 92.7186-65.7635 92.6635-67.701 104.351-67.6925 104.287-68.88 116.162-68.8755 116.094-69.2505 128.094-69.2511 128.016-68.6886 140.016-68.6982 139.917-66.9482 151.792-66.9641 151.708-64.2141 163.396-64.2357 163.318-60.5482 174.756-60.5774 174.677-55.9524 185.739-55.9859 185.667-50.5484 196.23-50.5857 196.164-44.3982 206.226-44.4429 206.16-37.6304 215.472-37.6829 215.406-30.1829 224.031-30.236 223.975-22.2985 231.787-22.3718 231.722-13.9343 238.534-14.0092 238.48-5.25917 244.292-5.35556 244.235 3.76944 248.923 3.65879 248.874 12.9713 252.312 12.8447 252.274 22.2822 254.399 22.1786 254.382 26.9911 254.944 26.9144 254.938 31.6644 255.126 31.6511 255.125 41.2369 255.376 50.7246 256.067 60.0852 257.261 69.2551 258.831 78.0529 260.779 86.5393 263.105 94.5236 265.745 102.075 268.64 108.948 271.793 115.202 275.204 120.712 278.814 125.424 282.571 129.212 286.487 132.096 290.617 132.638 292.35 130.729 292.947 130.233 291.361 130.368 291.635 127.618 287.698 127.719 287.82 124.031 284.008 124.127 284.094 119.502 280.407 119.577 280.461 114.139 276.899 114.209 276.94 108.021 273.565 108.083 273.596 101.271 270.471 101.33 270.496 93.8296 267.621 93.8735 267.637 85.936 265.012 85.9857 265.027 77.5482 262.714 77.5963 262.726 68.8463 260.789 68.8937 260.798 59.7687 259.236 59.811 259.242 50.4985 258.054 50.5523 258.06 41.1148 257.372 41.1614 257.375 31.5922 257.124 26.7971 256.935 21.8942 256.362 12.3408 254.211 2.90942 250.73-6.31921 245.989-15.1545 240.12-23.6664 233.247-31.6666 225.373-39.2197 216.687-46.0808 207.308-52.3092 197.179-57.7823 186.547-62.4388 175.409-66.1517 163.893-68.9206 152.125-70.6841 140.159-71.2507 128.07-70.8734 115.997-69.6793 104.056-67.7319 92.3088-65.1573 80.8171-62.0159 69.6965-58.2442 59.0729-53.907 48.9528-49.19 39.5817-44.0274 30.8934-38.4784 23.0113-32.6032 16.1253-26.4592 10.2346-20.0382 5.46659-13.5196 1.95165-6.80301-0.223241-3.4264-0.807653-0.0565133-0.998402ZM135.169 290.275 133.5 299.062 127.471 292.455Z" fill="#ED7D31" transform="matrix(-1 0 0 1 544.44 421)"/><path d="M0.0866296 0.996241-4.22587 1.37124-4.06996 1.34514-8.31996 2.40764-8.18648 2.36411-12.499 4.11411-12.3872 4.06044-16.6372 6.43544-16.5347 6.36967-20.7222 9.43217-20.6516 9.37549-24.8391 13.063-24.7824 13.009-28.9074 17.259-28.8609 17.2076-32.9234 22.0201-32.8853 21.972-36.8853 27.347-36.8568 27.3067-40.7943 33.1817-40.7668 33.1383-44.5793 39.5133-44.5596 39.4789-48.3096 46.3539-48.2915 46.3191-51.9165 53.6316-51.9039 53.6052-55.4664 61.3552-55.453 61.3246-58.8905 69.5121-58.8784 69.4821-62.1284 77.9821-62.1158 77.9471-68.3033 96.1346-68.2886 96.0876-73.8511 115.525-73.8396 115.481-78.7146 135.981-78.7059 135.941-82.8934 157.441-82.886 157.398-86.1985 179.523-86.1935 179.485-88.6935 202.172-88.6898 202.13-90.2523 225.255-90.2502 225.209-90.7502 248.459-90.7502 248.416-90.5002 260.041-90.5014 260.009-89.8764 271.634-89.8792 271.596-88.8167 283.159-88.8209 283.121-87.3209 294.621-87.3248 294.593-85.5123 306.031-85.5192 305.992-83.2692 317.305-83.2802 317.256-77.7177 339.381-77.7353 339.32-70.8603 360.757-70.8815 360.697-62.819 381.26-62.8459 381.198-53.6584 400.635-53.6913 400.572-43.4413 418.759-43.4701 418.711-38.0326 427.211-38.0508 427.184-32.4258 435.371-32.4531 435.333-26.5781 443.083-26.6019 443.053-20.6019 450.366-20.6317 450.331-14.4442 457.206-14.4804 457.168-8.10539 463.543-8.14196 463.508-1.64196 469.383-1.67886 469.351 4.88364 474.726 4.83052 474.686 11.5805 479.498 11.5293 479.464 18.3418 483.714 18.2818 483.679 25.2193 487.367 25.1469 487.332 32.0844 490.332 32.0137 490.305 39.0762 492.742 38.9905 492.717 46.053 494.467 45.9463 494.446 53.4804 495.464 53.2128 497.446 45.6248 496.421 38.466 494.647 31.3254 492.183 24.3162 489.152 17.3126 485.429 10.4446 481.145 3.64224 476.295-2.96498 470.883-9.50176 464.975-15.9132 458.563-22.1336 451.652-28.1603 444.307-34.061 436.523-39.7085 428.303-45.1699 419.765-55.4513 401.522-64.6686 382.022-72.7551 361.398-79.6495 339.9-85.2259 317.72-87.4846 306.363-89.3023 294.893-90.8066 283.36-91.8725 271.76-92.4994 260.1-92.7502 248.437-92.2493 225.143-90.6838 201.974-88.1794 179.246-84.8607 157.08-80.6651 135.539-75.7801 114.997-70.2046 95.5137-64.0032 77.2853-60.7408 68.7528-57.2906 60.535-53.715 52.7565-50.0748 45.4133-46.3059 38.5037-42.47 32.0896-38.5045 26.1728-34.4714 20.7534-30.3668 15.8909-26.1903 11.5879-21.9394 7.84457-17.6661 4.71932-13.3086 2.28425-8.87331 0.484425-4.47812-0.614372-0.0866296-0.996241ZM52.268 492.379 60 496.875 51.7638 500.363Z" fill="#ED7D31" transform="matrix(-1 0 0 1 543.943 249)"/><path d="M318 717.5C318 710.044 324.044 704 331.5 704L487.5 704C494.956 704 501 710.044 501 717.5L501 771.5C501 778.956 494.956 785 487.5 785L331.5 785C324.044 785 318 778.956 318 771.5Z" stroke="#AE5A21" stroke-width="2" stroke-miterlimit="8" stroke-dasharray="8 6" fill="none" fill-rule="evenodd"/><text font-family="Yu Gothic,Yu Gothic_MSFontService,sans-serif" font-weight="400" font-size="13" transform="translate(182.195 650)">実行時、必要なファイルがロードされ、<tspan font-size="13" x="0" y="16">プロセスとして実行される</tspan></text></g></svg>