<svg width="608" height="348" xmlns="http://www.w3.org/2000/svg" xmlns:xlink="http://www.w3.org/1999/xlink" overflow="hidden"><defs><clipPath id="clip0"><rect x="56" y="81" width="608" height="348"/></clipPath></defs><g clip-path="url(#clip0)" transform="translate(-56 -81)"><rect x="111" y="131" width="480" height="108" fill="#F2F2F2"/><text font-family="Calibri,Calibri_MSFontService,sans-serif" font-weight="400" font-size="13" transform="translate(120.282 148)">C/C++<tspan font-family="Yu Gothic,Yu Gothic_MSFontService,sans-serif" font-size="13" x="35.8333" y="0">テキストファイル</tspan></text><rect x="58.5001" y="82.5001" width="604" height="346" stroke="#D9D9D9" stroke-width="1.33333" stroke-miterlimit="8" fill="none"/><text font-family="Yu Gothic,Yu Gothic_MSFontService,sans-serif" font-weight="400" font-size="16" transform="translate(272 102)">物理モジュール間の依存</text><path d="M173.5 171.5 305.5 171.5 305.5 214.833 296.833 223.5 173.5 223.5Z" fill="#FFFFFF" fill-rule="evenodd"/><path d="M296.833 223.5 298.567 216.567 305.5 214.833Z" fill="#CDCDCD" fill-rule="evenodd"/><path d="M296.833 223.5 298.567 216.567 305.5 214.833 296.833 223.5 173.5 223.5 173.5 171.5 305.5 171.5 305.5 214.833" stroke="#000000" stroke-width="1.33333" stroke-miterlimit="8" fill="none" fill-rule="evenodd"/><text font-family="Yu Gothic,Yu Gothic_MSFontService,sans-serif" font-weight="400" font-size="13" transform="translate(192.204 197)">ソースファイル</text><path d="M394.5 171.5 526.5 171.5 526.5 214 518 222.5 394.5 222.5Z" fill="#FFFFFF" fill-rule="evenodd"/><path d="M518 222.5 519.7 215.7 526.5 214Z" fill="#CDCDCD" fill-rule="evenodd"/><path d="M518 222.5 519.7 215.7 526.5 214 518 222.5 394.5 222.5 394.5 171.5 526.5 171.5 526.5 214" stroke="#000000" stroke-width="1.33333" stroke-miterlimit="8" fill="none" fill-rule="evenodd"/><text font-family="Yu Gothic,Yu Gothic_MSFontService,sans-serif" font-weight="400" font-size="13" transform="translate(406.864 196)">ヘッダーファイル</text><path d="M289.5 187.25 290.094 187.25 290.094 196.75 289.5 196.75ZM290.688 187.25 291.875 187.25 291.875 196.75 290.688 196.75ZM292.469 187.25 391 187.25 391 182.5 400.5 192 391 201.5 391 196.75 292.469 196.75Z" stroke="#2F528F" stroke-width="1.33333" stroke-miterlimit="8" stroke-opacity="0.501961" fill="#4472C4" fill-rule="evenodd" fill-opacity="0.501961"/><text font-family="Calibri,Calibri_MSFontService,sans-serif" font-weight="400" font-size="13" transform="translate(328.321 178)">include</text><rect x="111" y="260" width="480" height="145" fill="#F2F2F2"/><text font-family="Yu Gothic,Yu Gothic_MSFontService,sans-serif" font-weight="400" font-size="13" transform="translate(120.282 277)">ライブラリファイル</text><path d="M129.5 300.5 305.5 300.5 305.5 375.5 290.5 390.5 129.5 390.5Z" fill="#FFFFFF" fill-rule="evenodd"/><path d="M290.5 390.5 293.5 378.5 305.5 375.5Z" fill="#CDCDCD" fill-rule="evenodd"/><path d="M290.5 390.5 293.5 378.5 305.5 375.5 290.5 390.5 129.5 390.5 129.5 300.5 305.5 300.5 305.5 375.5" stroke="#000000" stroke-width="1.33333" stroke-miterlimit="8" fill="none" fill-rule="evenodd"/><text font-family="Calibri,Calibri_MSFontService,sans-serif" font-weight="400" font-size="13" transform="translate(198.206 317)">Library<tspan font-family="Yu Gothic,Yu Gothic_MSFontService,sans-serif" font-size="13" x="-59.6667" y="16">ソースファイルの外で宣</tspan><tspan font-family="Yu Gothic,Yu Gothic_MSFontService,sans-serif" font-size="13" x="-59.6667" y="32">言された変数の利用や関</tspan><tspan font-family="Yu Gothic,Yu Gothic_MSFontService,sans-serif" font-size="13" x="-59.6667" y="48">数・メソッドコール</tspan></text><path d="M378.5 300.5 568.5 300.5 568.5 375.5 553.5 390.5 378.5 390.5Z" fill="#FFFFFF" fill-rule="evenodd"/><path d="M553.5 390.5 556.5 378.5 568.5 375.5Z" fill="#CDCDCD" fill-rule="evenodd"/><path d="M553.5 390.5 556.5 378.5 568.5 375.5 553.5 390.5 378.5 390.5 378.5 300.5 568.5 300.5 568.5 375.5" stroke="#000000" stroke-width="1.33333" stroke-miterlimit="8" fill="none" fill-rule="evenodd"/><text font-family="Calibri,Calibri_MSFontService,sans-serif" font-weight="400" font-size="13" transform="translate(454.173 317)">Library<tspan font-family="Yu Gothic,Yu Gothic_MSFontService,sans-serif" font-size="13" x="-66.7467" y="16">外部</tspan><tspan font-family="Yu Gothic,Yu Gothic_MSFontService,sans-serif" font-size="13" x="-40.08" y="16">参照可能な変数の実装</tspan><tspan font-family="Yu Gothic,Yu Gothic_MSFontService,sans-serif" font-size="13" x="-66.7467" y="32">関数・メソッド実装</tspan></text><path d="M289.5 341.25 290.094 341.25 290.094 350.75 289.5 350.75ZM290.688 341.25 291.875 341.25 291.875 350.75 290.688 350.75ZM292.469 341.25 391 341.25 391 336.5 400.5 346 391 355.5 391 350.75 292.469 350.75Z" stroke="#2F528F" stroke-width="1.33333" stroke-miterlimit="8" stroke-opacity="0.501961" fill="#4472C4" fill-rule="evenodd" fill-opacity="0.501961"/><text font-family="Yu Gothic,Yu Gothic_MSFontService,sans-serif" font-weight="400" font-size="13" transform="translate(316.125 331)">参照解決</text></g></svg>