<svg width="608" height="595" xmlns="http://www.w3.org/2000/svg" xmlns:xlink="http://www.w3.org/1999/xlink" overflow="hidden"><defs><clipPath id="clip0"><rect x="56" y="81" width="608" height="595"/></clipPath></defs><g clip-path="url(#clip0)" transform="translate(-56 -81)"><rect x="111" y="142" width="480" height="97" fill="#F2F2F2"/><text font-family="Calibri,Calibri_MSFontService,sans-serif" font-weight="400" font-size="13" transform="translate(120.282 158)">C<tspan font-family="Yu Gothic,Yu Gothic_MSFontService,sans-serif" font-size="13" x="7.16666" y="0">言語</tspan></text><rect x="58.5001" y="82.5001" width="604" height="592" stroke="#D9D9D9" stroke-width="1.33333" stroke-miterlimit="8" fill="none"/><text font-family="Yu Gothic,Yu Gothic_MSFontService,sans-serif" font-weight="400" font-size="16" transform="translate(272 102)">論理モジュール間の依存</text><rect x="145.5" y="167.5" width="142" height="59" stroke="#000000" stroke-width="1.33333" stroke-miterlimit="8" fill="#FFFFFF"/><text font-family="Yu Gothic,Yu Gothic_MSFontService,sans-serif" font-weight="400" font-size="13" transform="translate(155.078 184)">変数<tspan font-size="13" x="26.6667" y="0">定義</tspan><tspan font-size="13" x="0" y="16">関数コール</tspan></text><rect x="374.5" y="167.5" width="176" height="59" stroke="#000000" stroke-width="1.33333" stroke-miterlimit="8" fill="#FFFFFF"/><text font-family="Yu Gothic,Yu Gothic_MSFontService,sans-serif" font-weight="400" font-size="13" transform="translate(384.094 184)">構造体等のデータ型宣言<tspan font-size="13" x="0" y="16">関数宣言</tspan></text><path d="M263.5 183.5 264.125 183.5 264.125 193.5 263.5 193.5ZM264.75 183.5 266 183.5 266 193.5 264.75 193.5ZM266.625 183.5 364.5 183.5 364.5 178.5 374.5 188.5 364.5 198.5 364.5 193.5 266.625 193.5Z" stroke="#2F528F" stroke-width="1.33333" stroke-miterlimit="8" stroke-opacity="0.501961" fill="#4472C4" fill-rule="evenodd" fill-opacity="0.501961"/><text font-family="Yu Gothic,Yu Gothic_MSFontService,sans-serif" font-weight="400" font-size="13" transform="translate(310.174 171)">利用</text><rect x="111" y="262" width="480" height="180" fill="#F2F2F2"/><text font-family="Calibri,Calibri_MSFontService,sans-serif" font-weight="400" font-size="13" transform="translate(120.282 278)">C++</text><rect x="145.5" y="287.5" width="142" height="141" stroke="#000000" stroke-width="1.33333" stroke-miterlimit="8" fill="#FFFFFF"/><text font-family="Yu Gothic,Yu Gothic_MSFontService,sans-serif" font-weight="400" font-size="13" transform="translate(155.078 304)">変数<tspan font-size="13" x="26.6667" y="0">定義</tspan><tspan font-size="13" x="0" y="16">インスタンス作成</tspan><tspan font-size="13" x="0" y="32">関数・メソッドコー</tspan><tspan font-size="13" x="0" y="48">ル</tspan><tspan font-size="13" x="0" y="64">スタティックメソッ</tspan><tspan font-size="13" x="0" y="80">ドコール</tspan><tspan font-family="Calibri,Calibri_MSFontService,sans-serif" font-size="13" x="0" y="96">template </tspan><tspan font-size="13" x="52.3333" y="96">利用</tspan><tspan font-family="Calibri,Calibri_MSFontService,sans-serif" font-size="13" x="0" y="112">class </tspan><tspan font-size="13" x="28.3333" y="112">の継承</tspan></text><rect x="374.5" y="287.5" width="176" height="141" stroke="#000000" stroke-width="1.33333" stroke-miterlimit="8" fill="#FFFFFF"/><text font-family="Yu Gothic,Yu Gothic_MSFontService,sans-serif" font-weight="400" font-size="13" transform="translate(384.094 304)">構造体等のデータ型宣言<tspan font-family="Calibri,Calibri_MSFontService,sans-serif" font-size="13" x="0" y="16">ckass</tspan><tspan font-size="13" x="31.3333" y="16">宣言</tspan><tspan font-size="13" x="0" y="32">関数宣言</tspan><tspan font-family="Calibri,Calibri_MSFontService,sans-serif" font-size="13" x="0" y="48">template </tspan><tspan font-size="13" x="52.3333" y="48">宣言</tspan></text><path d="M278.5 344.25 279.094 344.25 279.094 353.75 278.5 353.75ZM279.688 344.25 280.875 344.25 280.875 353.75 279.688 353.75ZM281.469 344.25 381 344.25 381 339.5 390.5 349 381 358.5 381 353.75 281.469 353.75Z" stroke="#2F528F" stroke-width="1.33333" stroke-miterlimit="8" stroke-opacity="0.501961" fill="#4472C4" fill-rule="evenodd" fill-opacity="0.501961"/><text font-family="Yu Gothic,Yu Gothic_MSFontService,sans-serif" font-weight="400" font-size="13" transform="translate(310.174 330)">利用</text><rect x="111" y="457" width="480" height="168" fill="#F2F2F2"/><text font-family="Calibri,Calibri_MSFontService,sans-serif" font-weight="400" font-size="13" transform="translate(120.282 474)">C<tspan font-family="Yu Gothic,Yu Gothic_MSFontService,sans-serif" font-size="13" x="7.16666" y="0">＃</tspan></text><rect x="145.5" y="483.5" width="142" height="129" stroke="#000000" stroke-width="1.33333" stroke-miterlimit="8" fill="#FFFFFF"/><text font-family="Yu Gothic,Yu Gothic_MSFontService,sans-serif" font-weight="400" font-size="13" transform="translate(155.078 500)">変数<tspan font-size="13" x="26.6667" y="0">定義</tspan><tspan font-size="13" x="0" y="16">インスタンス作成</tspan><tspan font-size="13" x="0" y="32">メソッドコール</tspan><tspan font-size="13" x="0" y="48">スタティックメソッ</tspan><tspan font-size="13" x="0" y="64">ドコール</tspan><tspan font-family="Calibri,Calibri_MSFontService,sans-serif" font-size="13" x="0" y="80">class </tspan><tspan font-size="13" x="28.3333" y="80">の拡張</tspan><tspan font-family="Calibri,Calibri_MSFontService,sans-serif" font-size="13" x="0" y="96">interface </tspan><tspan font-size="13" x="51.5" y="96">の実装</tspan></text><rect x="374.5" y="483.5" width="176" height="129" stroke="#000000" stroke-width="1.33333" stroke-miterlimit="8" fill="#FFFFFF"/><text font-family="Yu Gothic,Yu Gothic_MSFontService,sans-serif" font-weight="400" font-size="13" transform="translate(384.094 500)">構造体等のデータ型宣言<tspan font-family="Calibri,Calibri_MSFontService,sans-serif" font-size="13" x="0" y="16">class </tspan><tspan font-size="13" x="28.3333" y="16">宣言</tspan><tspan font-family="Calibri,Calibri_MSFontService,sans-serif" font-size="13" x="0" y="32">interface </tspan><tspan font-size="13" x="51.5" y="32">宣言</tspan></text><path d="M278.5 540.25 279.094 540.25 279.094 549.75 278.5 549.75ZM279.688 540.25 280.875 540.25 280.875 549.75 279.688 549.75ZM281.469 540.25 381 540.25 381 535.5 390.5 545 381 554.5 381 549.75 281.469 549.75Z" stroke="#2F528F" stroke-width="1.33333" stroke-miterlimit="8" stroke-opacity="0.501961" fill="#4472C4" fill-rule="evenodd" fill-opacity="0.501961"/><text font-family="Yu Gothic,Yu Gothic_MSFontService,sans-serif" font-weight="400" font-size="13" transform="translate(314.157 528)">利用</text><path d="M346.5 634.5 346.5 652.105" stroke="#000000" stroke-width="3" stroke-miterlimit="8" stroke-dasharray="3 3" fill="none" fill-rule="evenodd"/></g></svg>