<svg width="608" height="352" xmlns="http://www.w3.org/2000/svg" xmlns:xlink="http://www.w3.org/1999/xlink" overflow="hidden"><defs><clipPath id="clip0"><rect x="56" y="81" width="608" height="352"/></clipPath><clipPath id="clip1"><rect x="78" y="193" width="223" height="145"/></clipPath><clipPath id="clip2"><rect x="78" y="193" width="223" height="145"/></clipPath><clipPath id="clip3"><rect x="78" y="193" width="223" height="145"/></clipPath><clipPath id="clip4"><rect x="78" y="193" width="223" height="145"/></clipPath></defs><g clip-path="url(#clip0)" transform="translate(-56 -81)"><g clip-path="url(#clip1)"><g clip-path="url(#clip2)"><g clip-path="url(#clip3)"><g clip-path="url(#clip4)"><path d="M47.2548 74.3333 269.724 74.3333 269.724 114.686 47.2548 114.686Z" fill="#F2F2F2" transform="matrix(1 0 0 1.00034 31.2762 119.172)"/><text font-family="Calibri,Calibri_MSFontService,sans-serif" font-weight="400" font-size="13" transform="matrix(0.530952 0 0 0.531136 164.727 229)">Application<tspan font-size="13" x="64.1667" y="0">Layer</tspan></text><path d="M47.2548 125.305 269.724 125.305 269.724 165.657 47.2548 165.657Z" fill="#F2F2F2" transform="matrix(1 0 0 1.00034 31.2762 119.172)"/><text font-family="Calibri,Calibri_MSFontService,sans-serif" font-weight="400" font-size="13" transform="matrix(0.530952 0 0 0.531136 163.665 280)">Middleware<tspan font-size="13" x="68.1667" y="0">Layer</tspan></text><path d="M47.2548 176.276 269.724 176.276 269.724 216.629 47.2548 216.629Z" fill="#F2F2F2" transform="matrix(1 0 0 1.00034 31.2762 119.172)"/><text font-family="Calibri,Calibri_MSFontService,sans-serif" font-weight="400" font-size="13" transform="matrix(0.530952 0 0 0.531136 161.011 331)">Infrastructure<tspan font-size="13" x="78.1667" y="0">Layer</tspan></text><path d="M58.9357 84.9524 102.474 84.9524 102.474 99.8191 58.9357 99.8191Z" stroke="#000000" stroke-width="1.0619" stroke-miterlimit="8" fill="#FFFFFF" transform="matrix(1 0 0 1.00034 31.2762 119.172)"/><path d="M110.969 84.9524 155.038 84.9524 155.038 99.8191 110.969 99.8191Z" stroke="#000000" stroke-width="1.0619" stroke-miterlimit="8" fill="#FFFFFF" transform="matrix(1 0 0 1.00034 31.2762 119.172)"/><path d="M163.533 84.9524 207.602 84.9524 207.602 99.8191 163.533 99.8191Z" stroke="#000000" stroke-width="1.0619" stroke-miterlimit="8" fill="#FFFFFF" transform="matrix(1 0 0 1.00034 31.2762 119.172)"/><path d="M216.098 84.9524 259.636 84.9524 259.636 99.8191 216.098 99.8191Z" stroke="#000000" stroke-width="1.0619" stroke-miterlimit="8" fill="#FFFFFF" transform="matrix(1 0 0 1.00034 31.2762 119.172)"/><path d="M58.9357 134.331 102.474 134.331 102.474 149.198 58.9357 149.198Z" stroke="#000000" stroke-width="1.0619" stroke-miterlimit="8" fill="#FFFFFF" transform="matrix(1 0 0 1.00034 31.2762 119.172)"/><path d="M110.969 134.331 155.038 134.331 155.038 149.198 110.969 149.198Z" stroke="#000000" stroke-width="1.0619" stroke-miterlimit="8" fill="#FFFFFF" transform="matrix(1 0 0 1.00034 31.2762 119.172)"/><path d="M163.533 134.331 207.602 134.331 207.602 149.198 163.533 149.198Z" stroke="#000000" stroke-width="1.0619" stroke-miterlimit="8" fill="#FFFFFF" transform="matrix(1 0 0 1.00034 31.2762 119.172)"/><path d="M216.098 134.331 259.636 134.331 259.636 149.198 216.098 149.198Z" stroke="#000000" stroke-width="1.0619" stroke-miterlimit="8" fill="#FFFFFF" transform="matrix(1 0 0 1.00034 31.2762 119.172)"/><path d="M58.9357 185.833 102.474 185.833 102.474 201.231 58.9357 201.231Z" stroke="#000000" stroke-width="1.0619" stroke-miterlimit="8" fill="#FFFFFF" transform="matrix(1 0 0 1.00034 31.2762 119.172)"/><path d="M110.969 185.833 155.038 185.833 155.038 201.231 110.969 201.231Z" stroke="#000000" stroke-width="1.0619" stroke-miterlimit="8" fill="#FFFFFF" transform="matrix(1 0 0 1.00034 31.2762 119.172)"/><path d="M163.533 185.833 207.602 185.833 207.602 201.231 163.533 201.231Z" stroke="#000000" stroke-width="1.0619" stroke-miterlimit="8" fill="#FFFFFF" transform="matrix(1 0 0 1.00034 31.2762 119.172)"/><path d="M216.098 185.833 259.636 185.833 259.636 201.231 216.098 201.231Z" stroke="#000000" stroke-width="1.0619" stroke-miterlimit="8" fill="#FFFFFF" transform="matrix(1 0 0 1.00034 31.2762 119.172)"/></g></g></g></g><path d="M223 191.667C223 183.567 229.567 177 237.667 177L296.333 177C304.433 177 311 183.567 311 191.667L311 264.333C311 272.433 304.433 279 296.333 279L237.667 279C229.567 279 223 272.433 223 264.333Z" stroke="#FF0000" stroke-width="2" stroke-miterlimit="8" stroke-dasharray="8 6" fill="none" fill-rule="evenodd"/><path d="M377.5 95.5001 421.667 95.5001 421.667 95.5001 487.917 95.5001 642.5 95.5001 642.5 149.5 642.5 149.5 642.5 230.5 642.5 419.5 487.917 419.5 421.667 419.5 421.667 419.5 377.5 419.5 377.5 230.5 306.729 219.777 377.5 149.5Z" stroke="#FF0000" stroke-width="1.33333" stroke-miterlimit="8" stroke-opacity="0.501961" fill="#385723" fill-rule="evenodd" fill-opacity="0.501961"/><rect x="58.5001" y="82.5001" width="604" height="350" stroke="#D9D9D9" stroke-width="1.33333" stroke-miterlimit="8" fill="none"/><rect x="393" y="266" width="148" height="138" fill="#F2F2F2"/><rect x="426" y="346" width="82" height="53" stroke="#000000" stroke-width="2" stroke-miterlimit="8" fill="#FFFFFF"/><text font-family="Yu Gothic,Yu Gothic_MSFontService,sans-serif" font-weight="400" font-size="13" transform="translate(440.555 369)">具体的な<tspan font-size="13" x="0" y="16">実装技術</tspan></text><rect x="426" y="281" width="82" height="28" stroke="#4472C4" stroke-width="2" stroke-miterlimit="8" fill="#FFFFFF"/><text font-family="Calibri,Calibri_MSFontService,sans-serif" font-weight="400" font-size="13" transform="translate(442.972 299)">interface</text><path d="M458 326 467.5 309 477 326Z" stroke="#000000" stroke-width="2" stroke-miterlimit="8" fill="#FFFFFF" fill-rule="evenodd"/><path d="M0 0 0.0545932 20.3226" stroke="#000000" stroke-width="2" stroke-miterlimit="8" fill="none" fill-rule="evenodd" transform="matrix(1 0 0 -1 467 346.323)"/><rect x="393" y="152" width="148" height="90" fill="#F2F2F2"/><rect x="426" y="177" width="82" height="28" stroke="#000000" stroke-width="2" stroke-miterlimit="8" fill="#FFFFFF"/><path d="M468 205 468 274.357 466 274.357 466 205ZM471 273.024 467 281.024 463 273.024Z" fill="#4472C4"/><path d="M0 15 1.65623 15 1.65623 45 0 45ZM3.31253 15 6.625 15 6.625 45 3.31253 45ZM8.28123 15 26.5 15 26.5 0 53 30 26.5 60 26.5 45 8.28123 45Z" stroke="#ED7D31" stroke-width="1.33333" stroke-miterlimit="8" stroke-opacity="0.501961" fill="#ED7D31" fill-rule="evenodd" fill-opacity="0.501961" transform="matrix(6.12323e-17 1 1 -6.12323e-17 471.5 211.5)"/><path d="M492.5 352.5 492.5 350.875 522.5 350.875 522.5 352.5ZM492.5 349.25 492.5 346 522.5 346 522.5 349.25ZM492.5 344.375 492.5 326.5 477.5 326.5 507.5 300.5 537.5 326.5 522.5 326.5 522.5 344.375Z" stroke="#ED7D31" stroke-width="1.33333" stroke-miterlimit="8" stroke-opacity="0.501961" fill="#ED7D31" fill-rule="evenodd" fill-opacity="0.501961"/><text fill="#FFFFFF" font-family="Yu Gothic,Yu Gothic_MSFontService,sans-serif" font-weight="700" font-size="13" transform="translate(385.676 117)">上位<tspan font-size="13" x="26.6667" y="0">のレイヤーのモジュールと、下位の</tspan><tspan font-size="13" x="0" y="16">モジュールの実装技術は、</tspan>依存無し</text><path d="M545.676 133.865 598.676 133.865 598.676 134.865 545.676 134.865Z" fill="#FFFFFF" fill-rule="evenodd"/></g></svg>