<svg width="608" height="411" xmlns="http://www.w3.org/2000/svg" xmlns:xlink="http://www.w3.org/1999/xlink" overflow="hidden"><defs><clipPath id="clip0"><rect x="56" y="81" width="608" height="411"/></clipPath><clipPath id="clip1"><rect x="165" y="399" width="39" height="39"/></clipPath><clipPath id="clip2"><rect x="165" y="399" width="39" height="39"/></clipPath><clipPath id="clip3"><rect x="165" y="399" width="39" height="39"/></clipPath><clipPath id="clip4"><rect x="165" y="357" width="39" height="40"/></clipPath><clipPath id="clip5"><rect x="165" y="357" width="39" height="40"/></clipPath><clipPath id="clip6"><rect x="165" y="357" width="39" height="40"/></clipPath></defs><g clip-path="url(#clip0)" transform="translate(-56 -81)"><rect x="58.5001" y="82.5001" width="604" height="408" stroke="#D9D9D9" stroke-width="1.33333" stroke-miterlimit="8" fill="none"/><path d="M486.5 162.5 526.5 162.5 526.5 206.833 519.833 213.5 486.5 213.5Z" fill="#FFFFFF" fill-rule="evenodd"/><path d="M519.833 213.5 521.167 208.167 526.5 206.833Z" fill="#CDCDCD" fill-rule="evenodd"/><path d="M519.833 213.5 521.167 208.167 526.5 206.833 519.833 213.5 486.5 213.5 486.5 162.5 526.5 162.5 526.5 206.833" stroke="#000000" stroke-width="1.33333" stroke-miterlimit="8" fill="none" fill-rule="evenodd"/><text font-family="Calibri,Calibri_MSFontService,sans-serif" font-weight="400" font-size="13" transform="translate(503.194 188)">L</text><path d="M413.5 163.5 452.5 163.5 452.5 208 446 214.5 413.5 214.5Z" fill="#FFFFFF" fill-rule="evenodd"/><path d="M446 214.5 447.3 209.3 452.5 208Z" fill="#CDCDCD" fill-rule="evenodd"/><path d="M446 214.5 447.3 209.3 452.5 208 446 214.5 413.5 214.5 413.5 163.5 452.5 163.5 452.5 208" stroke="#000000" stroke-width="1.33333" stroke-miterlimit="8" fill="none" fill-rule="evenodd"/><text font-family="Calibri,Calibri_MSFontService,sans-serif" font-weight="400" font-size="13" transform="translate(429.436 189)">L</text><g clip-path="url(#clip1)"><g clip-path="url(#clip2)"><g clip-path="url(#clip3)"><path d="M175.764 399 178.26 399 178.26 404.46 175.764 404.46Z" fill="#4B4B4B"/><path d="M180.756 399 183.252 399 183.252 404.46 180.756 404.46Z" fill="#4B4B4B"/><path d="M185.748 399 188.244 399 188.244 404.46 185.748 404.46Z" fill="#4B4B4B"/><path d="M190.74 399 193.236 399 193.236 404.46 190.74 404.46Z" fill="#4B4B4B"/><path d="M175.764 432.54 178.26 432.54 178.26 438 175.764 438Z" fill="#4B4B4B"/><path d="M180.756 432.54 183.252 432.54 183.252 438 180.756 438Z" fill="#4B4B4B"/><path d="M185.748 432.54 188.244 432.54 188.244 438 185.748 438Z" fill="#4B4B4B"/><path d="M190.74 432.54 193.236 432.54 193.236 438 190.74 438Z" fill="#4B4B4B"/><path d="M198.54 409.764 204 409.764 204 412.26 198.54 412.26Z" fill="#4B4B4B"/><path d="M198.54 414.756 204 414.756 204 417.252 198.54 417.252Z" fill="#4B4B4B"/><path d="M198.54 419.748 204 419.748 204 422.244 198.54 422.244Z" fill="#4B4B4B"/><path d="M198.54 424.74 204 424.74 204 427.236 198.54 427.236Z" fill="#4B4B4B"/><path d="M165 409.764 170.46 409.764 170.46 412.26 165 412.26Z" fill="#4B4B4B"/><path d="M165 414.756 170.46 414.756 170.46 417.252 165 417.252Z" fill="#4B4B4B"/><path d="M165 419.748 170.46 419.748 170.46 422.244 165 422.244Z" fill="#4B4B4B"/><path d="M165 424.74 170.46 424.74 170.46 427.236 165 427.236Z" fill="#4B4B4B"/><path d="M172.02 430.981 196.981 430.981 196.981 406.02 172.02 406.02 172.02 430.981ZM192.983 408.945C193.629 408.945 194.153 409.469 194.153 410.115 194.153 410.761 193.629 411.285 192.983 411.285 192.337 411.285 191.813 410.761 191.813 410.115 191.813 409.469 192.337 408.945 192.983 408.945ZM192.983 425.91C193.629 425.91 194.153 426.434 194.153 427.081 194.153 427.727 193.629 428.25 192.983 428.25 192.337 428.25 191.813 427.727 191.813 427.081 191.813 426.434 192.337 425.91 192.983 425.91ZM176.017 408.945C176.664 408.945 177.188 409.469 177.188 410.115 177.188 410.761 176.664 411.285 176.017 411.285 175.372 411.285 174.848 410.761 174.848 410.115 174.848 409.469 175.372 408.945 176.017 408.945ZM176.017 425.91C176.664 425.91 177.188 426.434 177.188 427.081 177.188 427.726 176.664 428.25 176.017 428.25 175.372 428.25 174.848 427.726 174.848 427.081 174.848 426.434 175.372 425.91 176.017 425.91Z" fill="#4B4B4B"/></g></g></g><g clip-path="url(#clip4)"><g clip-path="url(#clip5)"><g clip-path="url(#clip6)"><path d="M21.1017 20.0144 19.0747 19.7949C18.7973 19.7648 18.5628 19.5825 18.4563 19.3247 18.455 19.3217 18.4537 19.3186 18.4525 19.3155 18.3456 19.0578 18.3824 18.7631 18.5573 18.5458L19.8355 16.9572C20.0765 16.6577 20.0531 16.2248 19.7812 15.9529L17.3886 13.5603C17.1167 13.2884 16.6838 13.265 16.3843 13.506L14.795 14.7847C14.5782 14.9592 14.2844 14.9962 14.0271 14.8903 14.0242 14.8892 14.0214 14.888 14.0186 14.8869 13.7599 14.7807 13.5769 14.5458 13.5468 14.2678L13.3272 12.2398C13.2858 11.8575 12.9632 11.5679 12.5787 11.5679L9.19501 11.5679C8.81057 11.5679 8.48791 11.8575 8.44655 12.2398L8.22694 14.2678C8.19686 14.5457 8.01374 14.7807 7.75506 14.8869 7.75224 14.888 7.74942 14.8892 7.74668 14.8903 7.48937 14.9963 7.1955 14.9592 6.97871 14.7847L5.38931 13.506C5.0898 13.265 4.65684 13.2884 4.38506 13.5603L1.99243 15.9529C1.72057 16.2248 1.69719 16.6577 1.93819 16.9572L3.21636 18.5458C3.39125 18.7632 3.42804 19.0578 3.32117 19.3155 3.31988 19.3186 3.31866 19.3217 3.31736 19.3247 3.2108 19.5825 2.97634 19.7648 2.699 19.7949L0.671836 20.0144C0.289605 20.0557 0 20.3784 0 20.7629L0 24.1466C0 24.531 0.289605 24.8537 0.671836 24.895L2.69892 25.1145C2.97626 25.1445 3.2108 25.3268 3.31729 25.5846 3.31858 25.5877 3.3198 25.5908 3.32109 25.5938 3.42796 25.8515 3.39117 26.1462 3.21628 26.3636L1.93812 27.9522C1.69711 28.2517 1.72049 28.6847 1.99235 28.9565L4.38499 31.3491C4.65684 31.621 5.0898 31.6444 5.38931 31.4034L6.97856 30.1247C7.19535 29.9502 7.48922 29.9132 7.74653 30.0191 7.74935 30.0203 7.75216 30.0214 7.75498 30.0225 8.01366 30.1287 8.1967 30.3636 8.22679 30.6417L8.44639 32.6697C8.48776 33.0519 8.81042 33.3415 9.19486 33.3415L12.5786 33.3415C12.963 33.3415 13.2857 33.0519 13.327 32.6697L13.5466 30.6417C13.5767 30.3637 13.7598 30.1287 14.0184 30.0225 14.0213 30.0214 14.0241 30.0203 14.0268 30.0191 14.2841 29.9132 14.578 29.9502 14.7949 30.1247L16.3841 31.4034C16.6836 31.6444 17.1166 31.621 17.3884 31.3491L19.7811 28.9565C20.0529 28.6847 20.0762 28.2517 19.8353 27.9522L18.5571 26.3636C18.3823 26.1463 18.3455 25.8516 18.4523 25.5938 18.4536 25.5908 18.4548 25.5877 18.4561 25.5846 18.5627 25.3268 18.7972 25.1445 19.0745 25.1145L21.1016 24.895C21.4837 24.8536 21.7734 24.5309 21.7734 24.1466L21.7734 20.7629C21.7736 20.3784 21.484 20.0557 21.1017 20.0144ZM10.8868 25.8489C9.01228 25.8489 7.49265 24.3292 7.49265 22.4547 7.49265 20.5802 9.01228 19.0606 10.8868 19.0606 12.7613 19.0606 14.2809 20.5802 14.2809 22.4547 14.2809 24.3292 12.7613 25.8489 10.8868 25.8489Z" fill="#4B4B4B" transform="matrix(1 0 0 1.02564 165 357)"/><path d="M38.6549 16.6216 37.2633 15.5227C37.0416 15.3476 36.9185 15.0793 36.9184 14.7968 36.9184 14.7938 36.9184 14.7908 36.9184 14.7878 36.9179 14.5046 37.0411 14.2356 37.2633 14.0602L38.6549 12.9612C38.9736 12.7095 39.0863 12.2768 38.9309 11.9016L38.3196 10.4259C38.1642 10.0507 37.7785 9.82442 37.3753 9.8718L35.6142 10.0787C35.3329 10.1117 35.0556 10.0086 34.8558 9.80804 34.8537 9.80591 34.8516 9.80378 34.8495 9.80172 34.6497 9.60185 34.5471 9.32504 34.5801 9.0445L34.7869 7.28348C34.8343 6.88022 34.608 6.49449 34.2329 6.3391L32.7571 5.7279C32.382 5.57251 31.9492 5.68524 31.6976 6.00387L30.5985 7.39537C30.4234 7.61711 30.1551 7.74013 29.8726 7.74028 29.8696 7.74028 29.8666 7.74028 29.8636 7.74028 29.5806 7.74074 29.3115 7.61757 29.136 7.39537L28.037 6.00379C27.7854 5.68509 27.3526 5.57235 26.9774 5.72774L25.5017 6.33902C25.1265 6.49441 24.9002 6.88015 24.9476 7.28348L25.1545 9.04457C25.1875 9.32572 25.0844 9.60306 24.8838 9.80294 24.8817 9.80507 24.8796 9.80721 24.8774 9.80934 24.6776 10.0091 24.4008 10.1117 24.1202 10.0788L22.3592 9.87188C21.9559 9.8245 21.5702 10.0508 21.4148 10.4259L20.8035 11.9017C20.6481 12.2768 20.7609 12.7097 21.0796 12.9613L22.4711 14.0603C22.6928 14.2354 22.8158 14.5037 22.816 14.7862 22.816 14.7892 22.816 14.7922 22.816 14.7952 22.8165 15.0783 22.6933 15.3473 22.4711 15.5228L21.0795 16.6218C20.7608 16.8734 20.6481 17.3062 20.8035 17.6813L21.4147 19.1571C21.5701 19.5322 21.9559 19.7585 22.3591 19.7111L24.1203 19.5043C24.4014 19.4712 24.6788 19.5743 24.8786 19.7749 24.8808 19.777 24.8828 19.7792 24.885 19.7812 25.0847 19.9811 25.1874 20.2578 25.1544 20.5385L24.9475 22.2995C24.9001 22.7029 25.1264 23.0885 25.5016 23.2439L26.9773 23.8552C27.3525 24.0106 27.7852 23.8979 28.037 23.5792L29.1359 22.1876C29.311 21.9659 29.5793 21.8429 29.8618 21.8427 29.8648 21.8427 29.8678 21.8427 29.8708 21.8427 30.1539 21.8422 30.423 21.9655 30.5984 22.1876L31.6974 23.5792C31.9491 23.8979 32.3818 24.0107 32.757 23.8553L34.2328 23.244C34.6079 23.0886 34.8342 22.7029 34.7869 22.2996L34.58 20.5385C34.5469 20.2574 34.6501 19.98 34.8506 19.7802 34.8527 19.778 34.8549 19.7759 34.857 19.7738 35.0569 19.5742 35.3336 19.4714 35.6142 19.5044L37.3753 19.7113C37.7787 19.7587 38.1643 19.5324 38.3197 19.1572L38.931 17.6815C39.0862 17.3061 38.9736 16.8733 38.6549 16.6216ZM30.7695 17.4206C29.3539 18.007 27.731 17.3347 27.1446 15.9191 26.5582 14.5034 27.2305 12.8806 28.6461 12.2942 30.0617 11.7078 31.6846 12.3801 32.271 13.7957 32.8573 15.2113 32.1851 16.8343 30.7695 17.4206Z" fill="#4B4B4B" transform="matrix(1 0 0 1.02564 165 357)"/></g></g></g><rect x="144.5" y="267.5" width="299" height="200" stroke="#000000" stroke-width="1.33333" stroke-miterlimit="8" fill="none"/><text font-family="Yu Gothic,Yu Gothic_MSFontService,sans-serif" font-weight="400" font-size="13" transform="translate(226.447 458)">実行プラットフォーム</text><path d="M258.5 373.5 298.5 373.5 298.5 417.833 291.833 424.5 258.5 424.5Z" fill="#FFFFFF" fill-rule="evenodd"/><path d="M291.833 424.5 293.167 419.167 298.5 417.833Z" fill="#CDCDCD" fill-rule="evenodd"/><path d="M291.833 424.5 293.167 419.167 298.5 417.833 291.833 424.5 258.5 424.5 258.5 373.5 298.5 373.5 298.5 417.833" stroke="#000000" stroke-width="1.33333" stroke-miterlimit="8" fill="none" fill-rule="evenodd"/><text font-family="Calibri,Calibri_MSFontService,sans-serif" font-weight="400" font-size="13" transform="translate(267.927 399)">EXE</text><path d="M312.5 373.5 352.5 373.5 352.5 417.833 345.833 424.5 312.5 424.5Z" fill="#FFFFFF" fill-rule="evenodd"/><path d="M345.833 424.5 347.167 419.167 352.5 417.833Z" fill="#CDCDCD" fill-rule="evenodd"/><path d="M345.833 424.5 347.167 419.167 352.5 417.833 345.833 424.5 312.5 424.5 312.5 373.5 352.5 373.5 352.5 417.833" stroke="#000000" stroke-width="1.33333" stroke-miterlimit="8" fill="none" fill-rule="evenodd"/><text font-family="Calibri,Calibri_MSFontService,sans-serif" font-weight="400" font-size="13" transform="translate(329.197 399)">L</text><path d="M366.5 373.5 405.5 373.5 405.5 418 399 424.5 366.5 424.5Z" fill="#FFFFFF" fill-rule="evenodd"/><path d="M399 424.5 400.3 419.3 405.5 418Z" fill="#CDCDCD" fill-rule="evenodd"/><path d="M399 424.5 400.3 419.3 405.5 418 399 424.5 366.5 424.5 366.5 373.5 405.5 373.5 405.5 418" stroke="#000000" stroke-width="1.33333" stroke-miterlimit="8" fill="none" fill-rule="evenodd"/><text font-family="Calibri,Calibri_MSFontService,sans-serif" font-weight="400" font-size="13" transform="translate(382.738 399)">L</text><path d="M0.137568 0.990492-2.11243 1.30299-1.88755 1.2445-4.13755 2.1195-3.95082 2.02321-6.13832 3.46071-6.01375 3.36396-8.13875 5.30146-8.05747 5.21819-10.12 7.59319-10.06 7.51702-12.06 10.3295-12.0131 10.257-13.8881 13.4445-13.8524 13.3784-15.6024 16.9409-15.567 16.86-18.6295 24.7975-18.596 24.6943-20.971 33.6318-20.9497 33.531-22.4497 43.031-22.4391 42.9322-23.0016 52.7447-23.0039 52.5992-22.5664 57.5367-22.5909 57.3883-21.4034 62.2633-21.4474 62.1265-19.5099 66.939-19.565 66.8239-16.94 71.5114-16.998 71.4198-13.748 75.9823-13.8187 75.8941-9.94367 80.2066-10.0015 80.1474-5.62649 84.2724-5.68534 84.2211-0.872841 88.0961-0.938499 88.0475 4.3115 91.61 4.23889 91.5652 9.92639 94.7527 9.86559 94.7213 15.8031 97.5338 15.7333 97.5039 21.9208 99.8789 21.8421 99.8524 28.2796 101.727 28.212 101.71 34.837 103.148 34.7547 103.133 41.4422 104.008 41.3587 104.001 48.118 104.314 54.9462 104.757 61.7555 106.157 68.4253 108.316 74.9581 111.297 81.2272 114.907 87.3055 119.212 92.9966 124.145 98.3047 129.516 103.171 135.393 107.593 141.71 111.51 148.408 114.797 155.361 117.454 162.51 119.419 169.925 120.615 178.205 118.636 178.491 117.448 170.268 117.471 170.381 115.533 163.069 115.563 163.161 112.938 156.098 112.971 156.177 109.721 149.302 109.762 149.38 105.887 142.755 105.931 142.823 101.556 136.573 101.605 136.638 96.7922 130.825 96.8512 130.89 91.6012 125.578 91.6576 125.631 86.0326 120.756 86.1095 120.816 80.1095 116.566 80.1885 116.617 74.001 113.054 74.0849 113.097 67.6474 110.16 67.7544 110.201 61.1919 108.076 61.2986 108.105 54.6111 106.73 54.7478 106.748 47.9978 106.31 48.0163 106.311 41.2244 105.997 34.4538 105.111 27.7539 103.657 21.243 101.761 14.9812 99.3575 8.97847 96.5141 3.22384 93.289-2.09532 89.6795-6.97009 85.7544-11.4036 81.5742-15.3442 77.1888-18.6585 72.536-21.3413 67.7453-23.3295 62.8066-24.5519 57.7884-25.0025 52.7031-24.433 42.7681-22.9172 33.1681-20.515 24.1282-17.417 16.0988-15.631 12.4629-13.715 9.20571-11.6618 6.31844-9.52932 3.86281-7.30279 1.83274-4.9609 0.293782-2.50343-0.661901-0.137568-0.990492ZM123.529 176.755 120.062 185 115.547 177.279Z" fill="#ED7D31" transform="matrix(-1 0 0 1 452.004 188)"/><path d="M0.267644 0.963518-1.98236 1.58852-1.63606 1.41435-3.88606 3.16435-3.70417 2.98052-5.89167 5.85552-5.81402 5.73686-7.93902 9.54936-7.89335 9.45642-9.95585 14.2689-9.93279 14.21-11.9328 19.835-11.9156 19.7822-13.7906 26.1572-13.7789 26.1135-15.5289 33.2385-15.5213 33.2052-17.1463 40.9552-17.1398 40.9217-18.5773 49.1717-18.5737 49.1494-19.8862 57.8369-19.8817 57.8032-20.9442 66.9282-20.9406 66.8909-22.4406 85.9534-22.4379 85.9036-23.0004 105.591-23.0007 105.525-22.8132 110.462-22.8204 110.374-22.1954 115.312-22.2099 115.227-21.1474 120.165-21.1625 120.104-19.7875 124.979-19.8224 124.877-15.9474 134.502-16.0036 134.384-10.6911 143.822-10.748 143.732-4.24801 152.857-4.31628 152.772 3.43372 161.459 3.37351 161.397 12.1235 169.647 12.0597 169.592 21.8097 177.342 21.7467 177.296 32.3092 184.421 32.243 184.38 43.493 190.755 43.4244 190.72 55.4244 196.345 55.3609 196.317 67.7984 201.13 67.7214 201.104 80.5964 204.916 80.5245 204.898 93.7745 207.773 93.6916 207.758 107.129 209.508 107.046 209.501 113.887 209.818 113.794 211.816 106.912 211.497 93.3916 209.736 80.0642 206.844 67.1146 203.01 54.6069 198.17 42.5406 192.514 31.2231 186.101 20.5959 178.932 10.7822 171.132 1.97005 162.823-5.8452 154.062-12.4078 144.849-17.7783 135.309-21.6978 125.573-23.096 120.616-24.1742 115.606-24.8101 110.582-25.0005 105.567-24.4364 85.8215-22.933 66.7154-21.8663 57.5549-20.5496 48.8395-19.1072 40.5615-17.4752 32.7781-15.7157 25.6145-13.8265 19.1912-11.8066 13.5102-9.71122 8.62093-7.52637 4.70105-5.21687 1.6657-2.708-0.285642-0.267644-0.963518ZM112.694 206.759 120.5 211.125 112.324 214.751Z" fill="#ED7D31" transform="matrix(-1 0 0 1 525.456 188)"/><path d="M239 370.5C239 363.044 245.044 357 252.5 357L408.5 357C415.956 357 422 363.044 422 370.5L422 424.5C422 431.956 415.956 438 408.5 438L252.5 438C245.044 438 239 431.956 239 424.5Z" stroke="#AE5A21" stroke-width="2" stroke-miterlimit="8" stroke-dasharray="8 6" fill="none" fill-rule="evenodd"/><text font-family="Yu Gothic,Yu Gothic_MSFontService,sans-serif" font-weight="400" font-size="13" transform="translate(422.105 139)">実行<tspan font-size="13" x="26.6667" y="0">に必要</tspan>なライブラリ群</text><path d="M199.5 168.5 238.5 168.5 238.5 213 232 219.5 199.5 219.5Z" fill="#FFFFFF" fill-rule="evenodd"/><path d="M232 219.5 233.3 214.3 238.5 213Z" fill="#CDCDCD" fill-rule="evenodd"/><path d="M232 219.5 233.3 214.3 238.5 213 232 219.5 199.5 219.5 199.5 168.5 238.5 168.5 238.5 213" stroke="#000000" stroke-width="1.33333" stroke-miterlimit="8" fill="none" fill-rule="evenodd"/><text font-family="Calibri,Calibri_MSFontService,sans-serif" font-weight="400" font-size="13" transform="translate(215.287 194)">T<tspan font-family="Yu Gothic,Yu Gothic_MSFontService,sans-serif" font-size="13" x="-83.8121" y="-60">データ</tspan><tspan font-family="Yu Gothic,Yu Gothic_MSFontService,sans-serif" font-size="13" x="-43.8121" y="-60">構造とロジックの実装スクリプトが</tspan><tspan font-family="Yu Gothic,Yu Gothic_MSFontService,sans-serif" font-size="13" x="-83.8121" y="-44">記述されたテキストファイル群</tspan></text><path d="M214 309.5C214 295.417 242.654 284 278 284 313.346 284 342 295.417 342 309.5 342 323.583 313.346 335 278 335 242.654 335 214 323.583 214 309.5Z" stroke="#4472C4" stroke-width="2" stroke-miterlimit="8" fill="#FFFFFF" fill-rule="evenodd"/><text font-family="Calibri,Calibri_MSFontService,sans-serif" font-weight="400" font-size="13" transform="translate(247.927 314)">interpreter</text><path d="M279 246 279 277.324 277 277.324 277 246ZM282 275.991 278 283.991 274 275.991Z" fill="#4472C4"/><path d="M279 335 279 366.045 277 366.045 277 335ZM282 364.712 278 372.712 274 364.712Z" fill="#4472C4"/><path d="M247.5 168.5 287.5 168.5 287.5 212.833 280.833 219.5 247.5 219.5Z" fill="#FFFFFF" fill-rule="evenodd"/><path d="M280.833 219.5 282.167 214.167 287.5 212.833Z" fill="#CDCDCD" fill-rule="evenodd"/><path d="M280.833 219.5 282.167 214.167 287.5 212.833 280.833 219.5 247.5 219.5 247.5 168.5 287.5 168.5 287.5 212.833" stroke="#000000" stroke-width="1.33333" stroke-miterlimit="8" fill="none" fill-rule="evenodd"/><text font-family="Calibri,Calibri_MSFontService,sans-serif" font-weight="400" font-size="13" transform="translate(263.807 194)">T</text><path d="M319.5 168.5 358.5 168.5 358.5 213 352 219.5 319.5 219.5Z" fill="#FFFFFF" fill-rule="evenodd"/><path d="M352 219.5 353.3 214.3 358.5 213Z" fill="#CDCDCD" fill-rule="evenodd"/><path d="M352 219.5 353.3 214.3 358.5 213 352 219.5 319.5 219.5 319.5 168.5 358.5 168.5 358.5 213" stroke="#000000" stroke-width="1.33333" stroke-miterlimit="8" fill="none" fill-rule="evenodd"/><text font-family="Calibri,Calibri_MSFontService,sans-serif" font-weight="400" font-size="13" transform="translate(335.291 194)">T</text><path d="M0 0 8.99076 0.129869" stroke="#000000" stroke-width="3" stroke-miterlimit="8" stroke-dasharray="3 3" fill="none" fill-rule="evenodd" transform="matrix(1 0 0 -1 299.5 193.63)"/><path d="M371.5 221.5C371.5 228.404 370.567 234 369.417 234L280.083 234C278.933 234 278 239.597 278 246.5 278 239.597 277.067 234 275.917 234L186.583 234C185.433 234 184.5 228.404 184.5 221.5" stroke="#4472C4" stroke-width="0.666667" stroke-miterlimit="8" fill="none" fill-rule="evenodd"/></g></svg>