<svg width="608" height="352" xmlns="http://www.w3.org/2000/svg" xmlns:xlink="http://www.w3.org/1999/xlink" overflow="hidden"><defs><clipPath id="clip0"><rect x="56" y="81" width="608" height="352"/></clipPath></defs><g clip-path="url(#clip0)" transform="translate(-56 -81)"><rect x="58.5001" y="82.5001" width="604" height="350" stroke="#D9D9D9" stroke-width="1.33333" stroke-miterlimit="8" fill="none"/><text font-family="Yu Gothic,Yu Gothic_MSFontService,sans-serif" font-weight="400" font-size="16" transform="translate(264 102)">レイヤー型アーキテクチャ</text><rect x="89" y="140" width="419" height="76" fill="#F2F2F2"/><text font-family="Calibri,Calibri_MSFontService,sans-serif" font-weight="400" font-size="13" transform="translate(251.343 207)">Application<tspan font-size="13" x="64.1667" y="0">Layer</tspan></text><rect x="89" y="236" width="419" height="76" fill="#F2F2F2"/><text font-family="Calibri,Calibri_MSFontService,sans-serif" font-weight="400" font-size="13" transform="translate(249.343 303)">Middleware<tspan font-size="13" x="68.1667" y="0">Layer</tspan></text><rect x="89" y="332" width="419" height="76" fill="#F2F2F2"/><text font-family="Calibri,Calibri_MSFontService,sans-serif" font-weight="400" font-size="13" transform="translate(244.343 399)">Infrastructure<tspan font-size="13" x="78.1667" y="0">Layer</tspan></text><rect x="111" y="160" width="82" height="28" stroke="#000000" stroke-width="2" stroke-miterlimit="8" fill="#FFFFFF"/><rect x="209" y="160" width="83" height="28" stroke="#000000" stroke-width="2" stroke-miterlimit="8" fill="#FFFFFF"/><rect x="308" y="160" width="83" height="28" stroke="#000000" stroke-width="2" stroke-miterlimit="8" fill="#FFFFFF"/><rect x="407" y="160" width="82" height="28" stroke="#000000" stroke-width="2" stroke-miterlimit="8" fill="#FFFFFF"/><rect x="111" y="253" width="82" height="28" stroke="#000000" stroke-width="2" stroke-miterlimit="8" fill="#FFFFFF"/><rect x="209" y="253" width="83" height="28" stroke="#000000" stroke-width="2" stroke-miterlimit="8" fill="#FFFFFF"/><rect x="308" y="253" width="83" height="28" stroke="#000000" stroke-width="2" stroke-miterlimit="8" fill="#FFFFFF"/><rect x="407" y="253" width="82" height="28" stroke="#000000" stroke-width="2" stroke-miterlimit="8" fill="#FFFFFF"/><rect x="111" y="350" width="82" height="29" stroke="#000000" stroke-width="2" stroke-miterlimit="8" fill="#FFFFFF"/><rect x="209" y="350" width="83" height="29" stroke="#000000" stroke-width="2" stroke-miterlimit="8" fill="#FFFFFF"/><rect x="308" y="350" width="83" height="29" stroke="#000000" stroke-width="2" stroke-miterlimit="8" fill="#FFFFFF"/><rect x="407" y="350" width="82" height="29" stroke="#000000" stroke-width="2" stroke-miterlimit="8" fill="#FFFFFF"/><path d="M0 15 1.65623 15 1.65623 45 0 45ZM3.31253 15 6.625 15 6.625 45 3.31253 45ZM8.28123 15 26.5 15 26.5 0 53 30 26.5 60 26.5 45 8.28123 45Z" stroke="#ED7D31" stroke-width="1.33333" stroke-miterlimit="8" stroke-opacity="0.501961" fill="#ED7D31" fill-rule="evenodd" fill-opacity="0.501961" transform="matrix(6.12323e-17 1 1 -6.12323e-17 482.5 201.5)"/><path d="M0 15 1.625 15 1.625 45 0 45ZM3.25 15 6.5 15 6.5 45 3.25 45ZM8.125 15 26 15 26 0 51.9999 30 26 60 26 45 8.125 45Z" stroke="#ED7D31" stroke-width="1.33333" stroke-miterlimit="8" stroke-opacity="0.501961" fill="#ED7D31" fill-rule="evenodd" fill-opacity="0.501961" transform="matrix(6.12323e-17 1 1 -6.12323e-17 482.5 295.5)"/><text font-family="Yu Gothic,Yu Gothic_MSFontService,sans-serif" font-weight="400" font-size="13" transform="translate(541.039 254)">依存方向<tspan font-size="13" x="53.3334" y="0">は</tspan><tspan font-size="13" x="0" y="16">上から下だけ</tspan><tspan font-size="13" x="0" y="32">に限る</tspan></text></g></svg>