<svg width="608" height="369" xmlns="http://www.w3.org/2000/svg" xmlns:xlink="http://www.w3.org/1999/xlink" overflow="hidden"><defs><clipPath id="clip0"><rect x="56" y="81" width="608" height="369"/></clipPath></defs><g clip-path="url(#clip0)" transform="translate(-56 -81)"><rect x="370" y="253" width="273" height="182" fill="#F2F2F2"/><rect x="77" y="253" width="285" height="182" fill="#F2F2F2"/><rect x="77" y="116" width="566" height="126" fill="#F2F2F2"/><rect x="58.5001" y="82.5001" width="604" height="367" stroke="#D9D9D9" stroke-width="1.33333" stroke-miterlimit="8" fill="none"/><text font-family="Yu Gothic,Yu Gothic_MSFontService,sans-serif" font-weight="400" font-size="16" transform="translate(288 102)">モジュール間の依存</text><rect x="93" y="131" width="83" height="41" stroke="#000000" stroke-width="2" stroke-miterlimit="8" fill="#FFFFFF"/><text font-family="Calibri,Calibri_MSFontService,sans-serif" font-weight="400" font-size="13" transform="translate(108.144 156)">Module<tspan font-size="13" x="45" y="0">A</tspan></text><rect x="255" y="131" width="83" height="41" stroke="#000000" stroke-width="2" stroke-miterlimit="8" fill="#FFFFFF"/><text font-family="Calibri,Calibri_MSFontService,sans-serif" font-weight="400" font-size="13" transform="translate(270.572 156)">Module<tspan font-size="13" x="45" y="0">B</tspan></text><rect x="174" y="192" width="83" height="41" stroke="#000000" stroke-width="2" stroke-miterlimit="8" fill="#FFFFFF"/><text font-family="Calibri,Calibri_MSFontService,sans-serif" font-weight="400" font-size="13" transform="translate(189.525 217)">Module<tspan font-size="13" x="45" y="0">C</tspan></text><path d="M0-1 41.4237-1 41.4237 33.2027 39.4237 33.2027 39.4237 0 40.4237 1 0 1ZM44.4237 31.8694 40.4237 39.8694 36.4237 31.8694Z" transform="matrix(1.83697e-16 1 1 -1.83697e-16 134 172)"/><path d="M297.87 172 297.87 213.424 263.667 213.424 263.667 211.424 296.87 211.424 295.87 212.424 295.87 172ZM265 216.424 257 212.424 265 208.424Z"/><path d="M176 151 249.072 151 249.072 153 176 153ZM247.739 148 255.739 152 247.739 156Z"/><text font-family="Yu Gothic,Yu Gothic_MSFontService,sans-serif" font-weight="400" font-size="13" transform="translate(369.6 151)">二つのモジュール間の依存方向は<tspan font-size="13" x="0" y="16">一方向にすること</tspan></text><rect x="111" y="295" width="82" height="42" stroke="#000000" stroke-width="2" stroke-miterlimit="8" fill="#FFFFFF"/><text font-family="Calibri,Calibri_MSFontService,sans-serif" font-weight="400" font-size="13" transform="translate(125.83 320)">Module<tspan font-size="13" x="45" y="0">A</tspan></text><rect x="273" y="295" width="83" height="42" stroke="#000000" stroke-width="2" stroke-miterlimit="8" fill="#FFFFFF"/><text font-family="Calibri,Calibri_MSFontService,sans-serif" font-weight="400" font-size="13" transform="translate(288.258 320)">Module<tspan font-size="13" x="45" y="0">B</tspan></text><rect x="192" y="356" width="83" height="42" stroke="#000000" stroke-width="2" stroke-miterlimit="8" fill="#FFFFFF"/><text font-family="Calibri,Calibri_MSFontService,sans-serif" font-weight="400" font-size="13" transform="translate(207.21 381)">Module<tspan font-size="13" x="45" y="0">C</tspan></text><path d="M0-1 41.4237-1 41.4237 33.2027 39.4237 33.2027 39.4237 0 40.4237 1 0 1ZM44.4237 31.8694 40.4237 39.8694 36.4237 31.8694Z" fill="#FF0000" transform="matrix(1.83697e-16 1 1 -1.83697e-16 152 337)"/><path d="M315.87 337 315.87 378.424 281.667 378.424 281.667 376.424 314.87 376.424 313.87 377.424 313.87 337ZM283 381.424 275 377.424 283 373.424Z"/><path d="M193 315 266.072 315 266.072 317 193 317ZM264.739 312 272.739 316 264.739 320Z"/><path d="M0 1-24.0002 1-23.0002 0-23.0002 146.391-24.0002 145.391 81.6 145.391 80.6 146.391 80.6 129.058 82.6 129.058 82.6 147.391-25.0002 147.391-25.0002-1 0-1ZM77.6 130.392 81.6 122.392 85.6 130.392Z" fill="#FF0000" transform="matrix(-6.12323e-17 -1 -1 6.12323e-17 233.392 397.6)"/><text font-family="Yu Gothic,Yu Gothic_MSFontService,sans-serif" font-weight="400" font-size="13" transform="translate(157.251 276)">双方向は<tspan font-family="Calibri,Calibri_MSFontService,sans-serif" font-size="13" x="53.3333" y="0">NG</tspan></text><path d="M115.817 380.297 123.297 372.817 144.5 394.019 165.703 372.817 173.184 380.297 151.981 401.5 173.184 422.703 165.703 430.184 144.5 408.981 123.297 430.184 115.817 422.703 137.019 401.5Z" stroke="#2F528F" stroke-width="1.33333" stroke-miterlimit="8" stroke-opacity="0.501961" fill="#FF0000" fill-rule="evenodd" fill-opacity="0.501961"/><rect x="386" y="296" width="82" height="41" stroke="#000000" stroke-width="2" stroke-miterlimit="8" fill="#FFFFFF"/><text font-family="Calibri,Calibri_MSFontService,sans-serif" font-weight="400" font-size="13" transform="translate(400.492 321)">Module<tspan font-size="13" x="45" y="0">A</tspan></text><rect x="548" y="296" width="82" height="41" stroke="#000000" stroke-width="2" stroke-miterlimit="8" fill="#FFFFFF"/><text font-family="Calibri,Calibri_MSFontService,sans-serif" font-weight="400" font-size="13" transform="translate(562.92 321)">Module<tspan font-size="13" x="45" y="0">B</tspan></text><rect x="467" y="357" width="82" height="41" stroke="#000000" stroke-width="2" stroke-miterlimit="8" fill="#FFFFFF"/><text font-family="Calibri,Calibri_MSFontService,sans-serif" font-weight="400" font-size="13" transform="translate(481.872 382)">Module<tspan font-size="13" x="45" y="0">C</tspan></text><path d="M466.869 378.424 426 378.424 426 343.667 428 343.667 428 377.424 427 376.424 466.869 376.424ZM423 345 427 337 431 345Z" fill="#FF0000"/><path d="M589.87 337 589.87 378.424 555.667 378.424 555.667 376.424 588.87 376.424 587.87 377.424 587.87 337ZM557 381.424 549 377.424 557 373.424Z" fill="#FF0000"/><path d="M468 316 541.072 316 541.072 318 468 318ZM539.739 313 547.739 317 539.739 321Z" fill="#FF0000"/><text font-family="Yu Gothic,Yu Gothic_MSFontService,sans-serif" font-weight="400" font-size="13" transform="translate(467.588 281)">循環も<tspan font-family="Calibri,Calibri_MSFontService,sans-serif" font-size="13" x="40" y="0">NG</tspan></text></g></svg>