<svg width="420" height="273" xmlns="http://www.w3.org/2000/svg" xmlns:xlink="http://www.w3.org/1999/xlink" overflow="hidden"><defs><clipPath id="clip0"><rect x="88" y="139" width="420" height="273"/></clipPath></defs><g clip-path="url(#clip0)" transform="translate(-88 -139)"><rect x="89" y="140" width="419" height="76" fill="#F2F2F2"/><text font-family="Calibri,Calibri_MSFontService,sans-serif" font-weight="400" font-size="13" transform="translate(251.343 207)">Application<tspan font-size="13" x="64.1667" y="0">Layer</tspan></text><rect x="89" y="236" width="419" height="76" fill="#F2F2F2"/><text font-family="Calibri,Calibri_MSFontService,sans-serif" font-weight="400" font-size="13" transform="translate(249.343 303)">Middleware<tspan font-size="13" x="68.1667" y="0">Layer</tspan></text><rect x="89" y="332" width="419" height="76" fill="#F2F2F2"/><text font-family="Calibri,Calibri_MSFontService,sans-serif" font-weight="400" font-size="13" transform="translate(244.343 399)">Infrastructure<tspan font-size="13" x="78.1667" y="0">Layer</tspan></text><rect x="111" y="160" width="82" height="28" stroke="#000000" stroke-width="2" stroke-miterlimit="8" fill="#FFFFFF"/><rect x="209" y="160" width="83" height="28" stroke="#000000" stroke-width="2" stroke-miterlimit="8" fill="#FFFFFF"/><rect x="308" y="160" width="83" height="28" stroke="#000000" stroke-width="2" stroke-miterlimit="8" fill="#FFFFFF"/><rect x="407" y="160" width="82" height="28" stroke="#000000" stroke-width="2" stroke-miterlimit="8" fill="#FFFFFF"/><rect x="111" y="253" width="82" height="28" stroke="#000000" stroke-width="2" stroke-miterlimit="8" fill="#FFFFFF"/><rect x="209" y="253" width="83" height="28" stroke="#000000" stroke-width="2" stroke-miterlimit="8" fill="#FFFFFF"/><rect x="308" y="253" width="83" height="28" stroke="#000000" stroke-width="2" stroke-miterlimit="8" fill="#FFFFFF"/><rect x="407" y="253" width="82" height="28" stroke="#000000" stroke-width="2" stroke-miterlimit="8" fill="#FFFFFF"/><rect x="111" y="350" width="82" height="29" stroke="#000000" stroke-width="2" stroke-miterlimit="8" fill="#FFFFFF"/><rect x="209" y="350" width="83" height="29" stroke="#000000" stroke-width="2" stroke-miterlimit="8" fill="#FFFFFF"/><rect x="308" y="350" width="83" height="29" stroke="#000000" stroke-width="2" stroke-miterlimit="8" fill="#FFFFFF"/><rect x="407" y="350" width="82" height="29" stroke="#000000" stroke-width="2" stroke-miterlimit="8" fill="#FFFFFF"/></g></svg>