<svg width="608" height="723" xmlns="http://www.w3.org/2000/svg" xmlns:xlink="http://www.w3.org/1999/xlink" overflow="hidden"><defs><clipPath id="clip0"><rect x="56" y="81" width="608" height="723"/></clipPath></defs><g clip-path="url(#clip0)" transform="translate(-56 -81)"><rect x="77" y="126" width="566" height="381" fill="#F2F2F2"/><rect x="58.5001" y="82.5001" width="604" height="721" stroke="#D9D9D9" stroke-width="1.33333" stroke-miterlimit="8" fill="none"/><text font-family="Yu Gothic,Yu Gothic_MSFontService,sans-serif" font-weight="400" font-size="16" transform="translate(248 102)">一方向依存のメリットと留意点</text><rect x="223" y="245" width="82" height="41" stroke="#000000" stroke-width="2" stroke-miterlimit="8" fill="#FFFFFF"/><text font-family="Calibri,Calibri_MSFontService,sans-serif" font-weight="400" font-size="13" transform="translate(237.581 270)">Module<tspan font-size="13" x="45" y="0">A</tspan></text><rect x="415" y="245" width="82" height="41" stroke="#000000" stroke-width="2" stroke-miterlimit="8" fill="#FFFFFF"/><text font-family="Calibri,Calibri_MSFontService,sans-serif" font-weight="400" font-size="13" transform="translate(429.919 270)">Module<tspan font-size="13" x="45" y="0">B</tspan></text><path d="M305 265 407.983 265 407.983 267 305 267ZM406.649 262 414.649 266 406.649 270Z"/><path d="M403.5 140.5 512.5 140.5 512.5 217.233 470 217.233 470 226.855 482 226.855 458 236.5 434 226.855 446 226.855 446 217.233 403.5 217.233Z" stroke="#ED7D31" stroke-width="1.33333" stroke-miterlimit="8" fill="#FFFFFF" fill-rule="evenodd"/><text font-family="Yu Gothic,Yu Gothic_MSFontService,sans-serif" font-weight="400" font-size="13" transform="translate(417.587 167)">機能<tspan font-size="13" x="26.6667" y="0">追加や仕</tspan><tspan font-size="13" x="0" y="16">様変更による</tspan><tspan font-size="13" x="13.3333" y="32">更新発生</tspan></text><path d="M0 143 0 35.4374C0 20.215 12.3402 7.87485 27.5626 7.87485L47.25 7.87501 47.25 0 63 15.75 47.25 31.5 47.25 23.625 27.5626 23.625C21.0387 23.625 15.75 28.9137 15.75 35.4375L15.75 143Z" stroke="#AE5A21" stroke-width="1.33333" stroke-miterlimit="8" stroke-opacity="0.501961" fill="#ED7D31" fill-rule="evenodd" fill-opacity="0.501961" transform="matrix(1.83697e-16 1 1 -1.83697e-16 250.5 173.5)"/><text font-family="Yu Gothic,Yu Gothic_MSFontService,sans-serif" font-weight="400" font-size="13" transform="translate(119.491 190)">変更の影響調査<tspan font-size="13" x="0" y="16">影響がある場合は対応</tspan></text><rect x="223" y="438" width="82" height="41" stroke="#000000" stroke-width="2" stroke-miterlimit="8" fill="#FFFFFF"/><text font-family="Calibri,Calibri_MSFontService,sans-serif" font-weight="400" font-size="13" transform="translate(237.581 463)">Module<tspan font-size="13" x="45" y="0">A</tspan></text><rect x="415" y="438" width="82" height="41" stroke="#000000" stroke-width="2" stroke-miterlimit="8" fill="#FFFFFF"/><text font-family="Calibri,Calibri_MSFontService,sans-serif" font-weight="400" font-size="13" transform="translate(429.919 463)">Module<tspan font-size="13" x="45" y="0">B</tspan></text><path d="M305 458 407.983 458 407.983 460 305 460ZM406.649 455 414.649 459 406.649 463Z"/><path d="M209.5 337.5 319.5 337.5 319.5 414.233 276.5 414.233 276.5 423.855 288.5 423.855 264.5 433.5 240.5 423.855 252.5 423.855 252.5 414.233 209.5 414.233Z" stroke="#ED7D31" stroke-width="1.33333" stroke-miterlimit="8" fill="#FFFFFF" fill-rule="evenodd"/><text font-family="Yu Gothic,Yu Gothic_MSFontService,sans-serif" font-weight="400" font-size="13" transform="translate(223.914 363)">機能<tspan font-size="13" x="26.6667" y="0">追加や仕</tspan><tspan font-size="13" x="0" y="16">様変更による</tspan><tspan font-size="13" x="13.3333" y="32">更新発生</tspan><tspan font-family="Calibri,Calibri_MSFontService,sans-serif" font-size="13" x="139.671" y="42">Module</tspan><tspan font-family="Calibri,Calibri_MSFontService,sans-serif" font-size="13" x="184.671" y="42">A</tspan><tspan font-size="13" x="192.337" y="42">には依存しておらず、</tspan><tspan font-size="13" x="139.671" y="58">無関係なので無視できる</tspan></text><rect x="77" y="530" width="566" height="251" fill="#F2F2F2"/><text font-family="Yu Gothic,Yu Gothic_MSFontService,sans-serif" font-weight="400" font-size="13" transform="translate(206.667 547)">変更頻度は依存する側の方が大きくなるように設計</text><rect x="223" y="673" width="82" height="41" stroke="#000000" stroke-width="2" stroke-miterlimit="8" fill="#FFFFFF"/><text font-family="Calibri,Calibri_MSFontService,sans-serif" font-weight="400" font-size="13" transform="translate(237.581 698)">Module<tspan font-size="13" x="45" y="0">A</tspan></text><rect x="415" y="673" width="82" height="41" stroke="#000000" stroke-width="2" stroke-miterlimit="8" fill="#FFFFFF"/><text font-family="Calibri,Calibri_MSFontService,sans-serif" font-weight="400" font-size="13" transform="translate(429.919 698)">Module<tspan font-size="13" x="45" y="0">B</tspan></text><path d="M305 693 407.983 693 407.983 695 305 695ZM406.649 690 414.649 694 406.649 698Z"/><path d="M209.5 572.5 319.5 572.5 319.5 649.233 276.5 649.233 276.5 658.855 288.5 658.855 264.5 668.5 240.5 658.855 252.5 658.855 252.5 649.233 209.5 649.233Z" stroke="#ED7D31" stroke-width="1.33333" stroke-miterlimit="8" fill="#FFFFFF" fill-rule="evenodd"/><text font-family="Yu Gothic,Yu Gothic_MSFontService,sans-serif" font-weight="400" font-size="13" transform="translate(237.248 614)">変更頻度</text><path d="M401.5 572.5 510.5 572.5 510.5 649.233 468 649.233 468 658.855 480 658.855 456 668.5 432 658.855 444 658.855 444 649.233 401.5 649.233Z" stroke="#ED7D31" stroke-width="1.33333" stroke-miterlimit="8" fill="#FFFFFF" fill-rule="evenodd"/><text font-family="Yu Gothic,Yu Gothic_MSFontService,sans-serif" font-weight="400" font-size="13" transform="translate(429.007 614)">変更頻度</text><path d="M331.5 587.5 346.416 587.5 393.5 613 346.416 638.5 331.5 638.5 378.584 613Z" stroke="#AE5A21" stroke-width="1.33333" stroke-miterlimit="8" fill="#ED7D31" fill-rule="evenodd"/><text font-family="Yu Gothic,Yu Gothic_MSFontService,sans-serif" font-weight="400" font-size="13" transform="translate(113.118 756)">頻度<tspan font-size="13" x="26.6667" y="0">が逆の場合、</tspan><tspan font-family="Calibri,Calibri_MSFontService,sans-serif" font-size="13" x="106.667" y="0">Module</tspan><tspan font-family="Calibri,Calibri_MSFontService,sans-serif" font-size="13" x="151.667" y="0">A</tspan><tspan font-size="13" x="159.333" y="0">は自身の問題領域に由来する変更以外の変更対応が多発</tspan></text></g></svg>