<svg width="608" height="570" xmlns="http://www.w3.org/2000/svg" xmlns:xlink="http://www.w3.org/1999/xlink" overflow="hidden"><defs><clipPath id="clip0"><rect x="56" y="81" width="608" height="570"/></clipPath></defs><g clip-path="url(#clip0)" transform="translate(-56 -81)"><rect x="110" y="505" width="480" height="102" fill="#F2F2F2"/><rect x="110" y="362" width="480" height="134" fill="#F2F2F2"/><rect x="111" y="219" width="480" height="134" fill="#F2F2F2"/><rect x="58.5001" y="82.5001" width="604" height="567" stroke="#D9D9D9" stroke-width="1.33333" stroke-miterlimit="8" fill="none"/><text font-family="Yu Gothic,Yu Gothic_MSFontService,sans-serif" font-weight="400" font-size="16" transform="translate(216 102)">様々な実行エントリポイントの記述形式</text><rect x="111" y="142" width="480" height="67" fill="#F2F2F2"/><rect x="214" y="146" width="360" height="58"/><text fill="#569CD6" font-family="Consolas,Consolas_MSFontService,sans-serif" font-weight="400" font-size="13" transform="translate(223.624 164)">int<tspan fill="#DCDCAA" font-size="13" x="29.3333" y="0">main</tspan><tspan fill="#D4D4D4" font-size="13" x="58.6667" y="0">(</tspan><tspan font-size="13" x="66" y="0">int</tspan><tspan fill="#9CDCFE" font-size="13" x="95.3333" y="0">argc</tspan><tspan fill="#D4D4D4" font-size="13" x="124.667" y="0">, </tspan><tspan font-size="13" x="139.333" y="0">char</tspan><tspan fill="#D4D4D4" font-size="13" x="168.667" y="0">** </tspan><tspan fill="#9CDCFE" font-size="13" x="190.667" y="0">argv</tspan><tspan fill="#D4D4D4" font-size="13" x="220" y="0">) {</tspan><tspan fill="#DCDCAA" font-size="13" x="29.3333" y="16">printf</tspan><tspan fill="#D4D4D4" font-size="13" x="73.3333" y="16">(</tspan><tspan fill="#CE9178" font-size="13" x="80.6667" y="16">"Hello World</tspan><tspan fill="#D7BA7D" font-size="13" x="168.667" y="16">¥</tspan><tspan fill="#D7BA7D" font-size="13" x="176" y="16">r</tspan><tspan fill="#D7BA7D" font-size="13" x="183.333" y="16">¥</tspan><tspan fill="#D7BA7D" font-size="13" x="190.667" y="16">n</tspan><tspan fill="#CE9178" font-size="13" x="198" y="16">"</tspan><tspan fill="#D4D4D4" font-size="13" x="205.333" y="16">);</tspan><tspan fill="#D4D4D4" font-size="13" x="0" y="32">}</tspan></text><rect x="214" y="224" width="360" height="123"/><text fill="#569CD6" font-family="Consolas,Consolas_MSFontService,sans-serif" font-weight="400" font-size="13" transform="translate(223.624 242)">class<tspan fill="#4EC9B0" font-size="13" x="44" y="0">Program</tspan><tspan fill="#D4D4D4" font-size="13" x="0" y="16">{</tspan><tspan font-size="13" x="29.3333" y="32">static</tspan><tspan font-size="13" x="80.6667" y="32">void</tspan><tspan fill="#DCDCAA" font-size="13" x="117.333" y="32">Main</tspan><tspan fill="#D4D4D4" font-size="13" x="146.667" y="32">(</tspan><tspan font-size="13" x="154" y="32">string</tspan><tspan fill="#D4D4D4" font-size="13" x="198" y="32">[] </tspan><tspan fill="#9CDCFE" font-size="13" x="220" y="32">args</tspan><tspan fill="#D4D4D4" font-size="13" x="249.333" y="32">)</tspan><tspan fill="#D4D4D4" font-size="13" x="29.3333" y="48">{</tspan><tspan fill="#9CDCFE" font-size="13" x="58.6667" y="64">Console</tspan><tspan fill="#D4D4D4" font-size="13" x="110" y="64">.</tspan><tspan fill="#DCDCAA" font-size="13" x="117.333" y="64">WriteLine</tspan><tspan fill="#D4D4D4" font-size="13" x="183.333" y="64">(</tspan><tspan fill="#CE9178" font-size="13" x="190.667" y="64">"Hello World!"</tspan><tspan fill="#D4D4D4" font-size="13" x="293.333" y="64">);</tspan><tspan fill="#D4D4D4" font-size="13" x="29.3333" y="80">}</tspan><tspan fill="#D4D4D4" font-size="13" x="0" y="96">}</tspan></text><rect x="214" y="367" width="360" height="123"/><text fill="#569CD6" font-family="Consolas,Consolas_MSFontService,sans-serif" font-weight="400" font-size="13" transform="translate(223.623 385)">class<tspan fill="#4EC9B0" font-size="13" x="44" y="0">Main</tspan><tspan fill="#D4D4D4" font-size="13" x="0" y="16">{</tspan><tspan font-size="13" x="29.3333" y="32">static</tspan><tspan font-size="13" x="80.6667" y="32">void</tspan><tspan fill="#DCDCAA" font-size="13" x="117.333" y="32">main</tspan><tspan fill="#D4D4D4" font-size="13" x="146.667" y="32">(</tspan><tspan font-size="13" x="154" y="32">String</tspan><tspan fill="#D4D4D4" font-size="13" x="198" y="32">[] </tspan><tspan fill="#9CDCFE" font-size="13" x="220" y="32">args</tspan><tspan fill="#D4D4D4" font-size="13" x="249.333" y="32">)</tspan><tspan fill="#D4D4D4" font-size="13" x="29.3333" y="48">{</tspan><tspan fill="#9CDCFE" font-size="13" x="58.6667" y="64">System</tspan><tspan fill="#D4D4D4" font-size="13" x="102.667" y="64">.out.</tspan><tspan fill="#DCDCAA" font-size="13" x="139.333" y="64">println</tspan><tspan fill="#D4D4D4" font-size="13" x="190.667" y="64">(</tspan><tspan fill="#CE9178" font-size="13" x="198" y="64">"</tspan><tspan fill="#CE9178" font-size="13" x="205.333" y="64">Hello World!"</tspan><tspan fill="#D4D4D4" font-size="13" x="300.667" y="64">);</tspan><tspan fill="#D4D4D4" font-size="13" x="29.3333" y="80">}</tspan><tspan fill="#D4D4D4" font-size="13" x="0" y="96">}</tspan></text><rect x="214" y="510" width="360" height="91"/><text fill="#D4D4D4" font-family="Consolas,Consolas_MSFontService,sans-serif" font-weight="400" font-size="13" transform="translate(223.623 528)">def main():<tspan font-size="13" x="29.3333" y="16">....</tspan><tspan fill="#C586C0" font-size="13" x="0" y="48">if</tspan><tspan font-size="13" x="22" y="48">__name__ == </tspan><tspan fill="#CE9178" font-size="13" x="110" y="48">"__main__"</tspan>:<tspan font-size="13" x="29.3333" y="64">main()</tspan><tspan fill="#000000" font-family="Calibri,Calibri_MSFontService,sans-serif" font-size="13" x="-103.341" y="-365">C</tspan><tspan fill="#000000" font-family="Yu Gothic,Yu Gothic_MSFontService,sans-serif" font-size="13" x="-96.1744" y="-365">言語、</tspan><tspan fill="#000000" font-family="Calibri,Calibri_MSFontService,sans-serif" font-size="13" x="-56.1744" y="-365">C++</tspan><tspan fill="#000000" font-family="Calibri,Calibri_MSFontService,sans-serif" font-size="13" x="-103.341" y="-287">C#</tspan><tspan fill="#000000" font-family="Calibri,Calibri_MSFontService,sans-serif" font-size="13" x="-104.47" y="-144">Java</tspan><tspan fill="#000000" font-family="Calibri,Calibri_MSFontService,sans-serif" font-size="13" x="-103.341" y="2">Python</tspan></text><path d="M375.5 617.5 375.5 635.105" stroke="#000000" stroke-width="3" stroke-miterlimit="8" stroke-dasharray="3 3" fill="none" fill-rule="evenodd"/></g></svg>