<svg width="1393" height="811" xmlns="http://www.w3.org/2000/svg" xmlns:xlink="http://www.w3.org/1999/xlink" overflow="hidden"><defs><clipPath id="clip0"><rect x="-152" y="-100" width="1393" height="811"/></clipPath></defs><g clip-path="url(#clip0)" transform="translate(152 100)"><rect x="324.5" y="293.5" width="118" height="96" stroke="#000000" stroke-width="1.33333" stroke-miterlimit="8" fill="#FFFFFF"/><text font-family="Yu Gothic,Yu Gothic_MSFontService,sans-serif" font-weight="400" font-size="13" transform="translate(358.072 345)">R_PART</text><rect x="324.5" y="117.5" width="118" height="96" stroke="#000000" stroke-width="1.33333" stroke-miterlimit="8" fill="#FFFFFF"/><text font-family="Yu Gothic,Yu Gothic_MSFontService,sans-serif" font-weight="400" font-size="13" transform="translate(361.905 169)">R_RTO</text><path d="M383.167 293.5 383.167 220.167 383.833 220.167 383.833 293.5ZM379.5 221.5 383.5 213.5 387.5 221.5Z"/><text font-family="Yu Gothic,Yu Gothic_MSFontService,sans-serif" font-weight="400" font-size="13" transform="translate(397.157 257)">R204</text><rect x="581.5" y="293.5" width="118" height="96" stroke="#000000" stroke-width="1.33333" stroke-miterlimit="8" fill="#FFFFFF"/><text font-family="Yu Gothic,Yu Gothic_MSFontService,sans-serif" font-weight="400" font-size="13" transform="translate(615.5 345)">R_SIMP</text><path d="M442.5 341.5 580.856 341.5" stroke="#000000" stroke-width="0.666667" stroke-miterlimit="8" fill="none" fill-rule="evenodd"/><text font-family="Yu Gothic,Yu Gothic_MSFontService,sans-serif" font-weight="400" font-size="13" transform="translate(505.933 332)">R207<tspan font-size="13" x="-59.1611" y="25">*</tspan><tspan font-size="13" x="59.1609" y="27">1</tspan></text><rect x="847.5" y="292.5" width="118" height="96" stroke="#000000" stroke-width="1.33333" stroke-miterlimit="8" fill="#FFFFFF"/><text font-family="Yu Gothic,Yu Gothic_MSFontService,sans-serif" font-weight="400" font-size="13" transform="translate(878.563 320)">R_FORM<tspan font-size="13" x="-22" y="16">Mult</tspan><tspan font-size="13" x="-22" y="32">Cond</tspan><tspan font-size="13" x="-22" y="48">Txt_Phrs</tspan></text><path d="M0 0 147.803 1.33732" stroke="#000000" stroke-width="0.666667" stroke-miterlimit="8" fill="none" fill-rule="evenodd" transform="matrix(1 0 0 -1 699.5 341.837)"/><text font-family="Yu Gothic,Yu Gothic_MSFontService,sans-serif" font-weight="400" font-size="13" transform="translate(757.317 329)">R208<tspan font-size="13" x="-50.0032" y="30">1</tspan><tspan font-size="13" x="69.1437" y="28">0..1</tspan></text><rect x="581.5" y="117.5" width="118" height="96" stroke="#000000" stroke-width="1.33333" stroke-miterlimit="8" fill="#FFFFFF"/><text font-family="Yu Gothic,Yu Gothic_MSFontService,sans-serif" font-weight="400" font-size="13" transform="translate(619.5 169)">R_REL</text><path d="M0.333333-4.37445e-07 0.33343 73.3333-0.333237 73.3333-0.333333 4.37445e-07ZM4.00009 72 0.000104987 80-3.99991 72Z" transform="matrix(1 0 0 -1 640.5 293.5)"/><text font-family="Yu Gothic,Yu Gothic_MSFontService,sans-serif" font-weight="400" font-size="13" transform="translate(645.365 257)">R206</text><rect x="847.5" y="467.5" width="118" height="96" stroke="#000000" stroke-width="1.33333" stroke-miterlimit="8" fill="#FFFFFF"/><text font-family="Yu Gothic,Yu Gothic_MSFontService,sans-serif" font-weight="400" font-size="13" transform="translate(884.041 519)">R_RGO</text><path d="M906.833 388.5 906.833 460.496 906.167 460.496 906.167 388.5ZM910.5 459.163 906.5 467.163 902.5 459.163Z"/><text font-family="Yu Gothic,Yu Gothic_MSFontService,sans-serif" font-weight="400" font-size="13" transform="translate(918.112 429)">R205</text><rect x="582.5" y="467.5" width="119" height="96" stroke="#000000" stroke-width="1.33333" stroke-miterlimit="8" fill="#FFFFFF"/><text font-family="Yu Gothic,Yu Gothic_MSFontService,sans-serif" font-weight="400" font-size="13" transform="translate(613.281 519)">O_RTIDA</text><path d="M701.5 515.5 847.855 515.5" stroke="#000000" stroke-width="0.666667" stroke-miterlimit="8" fill="none" fill-rule="evenodd"/><text font-family="Yu Gothic,Yu Gothic_MSFontService,sans-serif" font-weight="400" font-size="13" transform="translate(760.428 504)">R111</text><rect x="717.5" y="593.5" width="118" height="96" stroke="#000000" stroke-width="1.33333" stroke-miterlimit="8" fill="#FFFFFF"/><text font-family="Yu Gothic,Yu Gothic_MSFontService,sans-serif" font-weight="400" font-size="13" transform="translate(755.173 645)">O_REF</text><path d="M0 0 0.000104987 80.6372" stroke="#000000" stroke-width="0.666667" stroke-miterlimit="8" stroke-dasharray="0.666667 0.666667" fill="none" fill-rule="evenodd" transform="matrix(1 0 0 -1 776.5 594.137)"/><text font-family="Yu Gothic,Yu Gothic_MSFontService,sans-serif" font-weight="400" font-size="13" transform="translate(826.936 532)">*<tspan font-size="13" x="-117.619" y="2">*</tspan></text><rect x="1121.5" y="465.5" width="119" height="96" stroke="#000000" stroke-width="1.33333" stroke-miterlimit="8" fill="#FFFFFF"/><text font-family="Yu Gothic,Yu Gothic_MSFontService,sans-serif" font-weight="400" font-size="13" transform="translate(1161.49 517)">R_OIR</text><path d="M0.00421282-0.333307 149.546 1.55682 149.537 2.22343-0.00421282 0.333307ZM148.259-2.12641 156.208 1.97438 148.158 5.87296Z" transform="matrix(1 0 0 -1 965.5 515.474)"/><text font-family="Yu Gothic,Yu Gothic_MSFontService,sans-serif" font-weight="400" font-size="13" transform="translate(1018.94 505)">R203</text><rect x="1121.5" y="290.5" width="119" height="96" stroke="#000000" stroke-width="1.33333" stroke-miterlimit="8" fill="#FFFFFF"/><text font-family="Yu Gothic,Yu Gothic_MSFontService,sans-serif" font-weight="400" font-size="13" transform="translate(1158.4 342)">O_IOBJ</text><path d="M0 0 0.000104987 78.6628" stroke="#000000" stroke-width="0.666667" stroke-miterlimit="8" fill="none" fill-rule="evenodd" transform="matrix(1 0 0 -1 1181.5 465.163)"/><text font-family="Yu Gothic,Yu Gothic_MSFontService,sans-serif" font-weight="400" font-size="13" transform="translate(1139.56 429)">R202<tspan font-size="13" x="55.0009" y="-27">0..1</tspan><tspan font-size="13" x="55.0009" y="32">*</tspan></text><rect x="1043.5" y="122.5" width="119" height="96" stroke="#000000" stroke-width="1.33333" stroke-miterlimit="8" fill="#FFFFFF"/><text font-family="Yu Gothic,Yu Gothic_MSFontService,sans-serif" font-weight="400" font-size="13" transform="translate(1082.22 174)">O_OBJ</text><path d="M699.5 165.5 1043.73 170.188" stroke="#000000" stroke-width="0.666667" stroke-miterlimit="8" fill="none" fill-rule="evenodd"/><text font-family="Yu Gothic,Yu Gothic_MSFontService,sans-serif" font-weight="400" font-size="13" transform="translate(847.208 158)">R201<tspan font-size="13" x="171.731" y="37">1..*</tspan><tspan font-size="13" x="-123.854" y="31">*</tspan></text><path d="M1121.65 471.016 974.5 172.5" stroke="#000000" stroke-width="0.666667" stroke-miterlimit="8" stroke-dasharray="0.666667 0.666667" fill="none" fill-rule="evenodd"/><rect x="324.5" y="-74.5001" width="118" height="96.0001" stroke="#000000" stroke-width="1.33333" stroke-miterlimit="8" fill="#FFFFFF"/><text font-family="Yu Gothic,Yu Gothic_MSFontService,sans-serif" font-weight="400" font-size="13" transform="translate(368.155 -23)">O_ID</text><path d="M383.5 21.5001 383.5 117.5" stroke="#000000" stroke-width="0.666667" stroke-miterlimit="8" fill="none" fill-rule="evenodd"/><text font-family="Yu Gothic,Yu Gothic_MSFontService,sans-serif" font-weight="400" font-size="13" transform="translate(400.903 68)">R109<tspan font-size="13" x="-9.75446" y="-28">0..1</tspan><tspan font-size="13" x="-31.991" y="45">*</tspan></text><rect x="58.5001" y="120.5" width="118" height="96" stroke="#000000" stroke-width="1.33333" stroke-miterlimit="8" fill="#FFFFFF"/><text font-family="Yu Gothic,Yu Gothic_MSFontService,sans-serif" font-weight="400" font-size="13" transform="translate(92.4518 172)">O_OIDA</text><path d="M0 0 148.131 2.61848" stroke="#000000" stroke-width="0.666667" stroke-miterlimit="8" fill="none" fill-rule="evenodd" transform="matrix(1 0 0 -1 176.5 168.119)"/><text font-family="Yu Gothic,Yu Gothic_MSFontService,sans-serif" font-weight="400" font-size="13" transform="translate(222.21 159)">R110<tspan font-size="13" x="-40.6031" y="27">*</tspan><tspan font-size="13" x="76.2305" y="27">*</tspan></text><path d="M582.831 514.714 238.5 514.714 238.5 168.5" stroke="#000000" stroke-width="0.666667" stroke-miterlimit="8" stroke-dasharray="0.666667 0.666667" fill="none" fill-rule="evenodd"/><rect x="76.5001" y="-34.5001" width="118" height="96.0001" stroke="#000000" stroke-width="1.33333" stroke-miterlimit="8" fill="#FFFFFF"/><text font-family="Yu Gothic,Yu Gothic_MSFontService,sans-serif" font-weight="400" font-size="13" transform="translate(116.028 17)">R_OIR</text><path d="M324.09 123.194 199.382 18.0522 199.812 17.5425 324.519 122.684ZM198.038 21.7149 194.5 13.5001 203.195 15.5986Z"/><text font-family="Yu Gothic,Yu Gothic_MSFontService,sans-serif" font-weight="400" font-size="13" transform="translate(258.612 60)">R203</text><path d="M-60.5001-71.9385-60.5001-98.5 383.436-98.5 383.436-74.5001" stroke="#000000" stroke-width="0.666667" stroke-miterlimit="8" fill="none" fill-rule="evenodd"/><text font-family="Yu Gothic,Yu Gothic_MSFontService,sans-serif" font-weight="400" font-size="13" transform="translate(192.964 -75)">R105</text><rect x="-119.5" y="-71.5001" width="119" height="96.0001" stroke="#000000" stroke-width="1.33333" stroke-miterlimit="8" fill="#FFFFFF"/><text font-family="Yu Gothic,Yu Gothic_MSFontService,sans-serif" font-weight="400" font-size="13" transform="translate(-86.0313 -20)">O_ATTR</text><path d="M68.1774 124.285 44.5001-93.5" stroke="#000000" stroke-width="0.666667" stroke-miterlimit="8" stroke-dasharray="0.666667 0.666667" fill="none" fill-rule="evenodd"/><text font-family="Yu Gothic,Yu Gothic_MSFontService,sans-serif" font-weight="400" font-size="13" transform="translate(396.719 -75)">*<tspan font-size="13" x="-477.315" y="-2">*</tspan></text><rect x="-150.5" y="275.5" width="119" height="96" stroke="#000000" stroke-width="1.33333" stroke-miterlimit="8" fill="#FFFFFF"/><text font-family="Yu Gothic,Yu Gothic_MSFontService,sans-serif" font-weight="400" font-size="13" transform="translate(-121.4 327)">O_RATTR</text><path d="M0.330845-0.0406511 30.3864 244.572 29.7248 244.653-0.330845 0.0406511ZM33.8631 242.801 30.8686 251.229 25.9228 243.776Z" transform="matrix(1 0 0 -1 -90.5001 275.729)"/><text font-family="Yu Gothic,Yu Gothic_MSFontService,sans-serif" font-weight="400" font-size="13" transform="translate(-114.899 173)">R106</text><path d="M0 0 270.198 0 270.198 808.495" stroke="#000000" stroke-width="0.666667" stroke-miterlimit="8" fill="none" fill-rule="evenodd" transform="matrix(1.83697e-16 1 1 -1.83697e-16 -90.5001 371.5)"/><text font-family="Yu Gothic,Yu Gothic_MSFontService,sans-serif" font-weight="400" font-size="13" transform="translate(234.35 626)">R108<tspan font-size="13" x="-300.799" y="-233">1</tspan><tspan font-size="13" x="446.495" y="8">1,,*</tspan></text><path d="M-30.4952 38.1906-30.7578 43.6956-31.2731 50.0085-32.2064 56.5415-33.9951 62.5957-37.6147 70.4812-37.5361 70.2981-40.6611 78.1106-40.5951 77.9334-41.7201 81.1834-41.5777 80.6595-44.8919 97.2305-46.0186 102.739-45.938 101.999-46.2511 122.417-47.009 143.005-47.425 146.402-48.0841 149.566-48.0746 149.519-49.2621 155.581-49.2131 155.264-49.8381 160.764-49.8289 160.675-50.3386 166.281-51.479 174.137-51.4555 173.942-52.459 184.478-53.6624 195.055-54.755 201.611-56.0838 208.002-56.0703 207.934-57.2578 214.184-57.2247 213.981-58.0997 220.356-58.0778 220.162-59.1403 232.287-59.1342 232.209-59.5717 238.646-59.5707 238.631-60.0164 245.571-60.9363 252.733-62.6292 259.64-65.4256 266.232-68.4148 272.274-68.0158 270.144-67.0783 280.644-67.0938 280.501-65.7813 290.938-65.9187 290.288-64.4187 295.288-64.495 295.059-62.6539 300.074-61.5505 303.515-60.786 306.126-60.8303 305.985-60.1702 307.965-59.7659 309.448-59.7789 309.401-59.4961 310.391-59.3453 311.07-59.2202 311.632-59.2937 311.351-59.1062 311.976-59.2236 311.639-58.9574 312.305-58.5503 313.391-58.0345 314.873-58.0672 314.783-57.3102 316.802-56.3033 319.57-56.3091 319.555-54.8295 323.571-54.3378 327.926-54.374 327.676-53.6865 331.551-53.7588 331.224-52.9463 334.287-52.985 334.151-51.9225 337.651-49.7358 344.835-48.7394 348.074-47.9289 350.692-47.9419 350.651-47.3674 352.438-47.0529 353.487-46.2568 362.244-45.9352 370.798-46.0643 375.059-46.1899 378.889-46.443 385.784-46.8869 391.746-47.3315 397.272-47.9655 402.598-47.9637 402.582-48.5933 408.059-49.4112 414.099-50.3498 420.92-50.4527 419.325-48.5022 426.498-47.5659 430.31-47.0038 434.386-46.936 439.335-47.2603 445.108-47.8337 451.352-48.5941 457.878-49.4747 464.294-50.2869 470.23-50.9739 475.288-50.9684 475.246-51.4684 479.246-51.4604 479.178-52.0854 484.99-52.5851 489.674-52.5773 489.594-52.8898 493.219-53.1407 496.042-53.1323 495.929-53.2573 497.992-53.2535 497.916-53.3174 499.451-53.3848 500.596-53.4513 501.395-53.4425 501.262-53.5165 502.743-53.6826 503.739-53.8871 504.898-54.2163 506.412-54.1895 506.278-54.5724 508.384-55.1436 511.177-55.8955 514.81-56.1479 512.397-54.3797 516.438-52.9249 519.98-52.9604 519.897-51.6394 522.916-50.5687 525.435-49.6815 527.527-48.9831 529.241-49.0109 529.174-48.0734 531.362-48.0854 531.334-34.9223 561.421-41.8162 564.496-55.2734 534.89-55.8007 533.703-56.9371 530.963-57.3735 529.654-61.7812 507.615-49.7414 526.879-48.8297 528.773-48.1927 530.11-47.372 531.878-47.3807 531.859-46.3757 533.995-45.0833 536.784-44.0721 539.885-44.2636 539.405-43.0136 542.03-44.016 540.718-41.3285 543.03-41.5599 542.846-38.4024 545.18-35.7556 547.969-33.7697 550.366-32.1553 552.612-30.9107 554.687-29.0034 558.12-29.1004 557.955-27.1629 561.08-27.3778 560.767-26.1903 562.33-26.4917 561.978-24.9292 563.602-25.0832 563.451-23.2082 565.201-23.5507 564.915-21.1132 566.728-21.3615 566.557-18.299 568.495-18.3967 568.435-14.7092 570.622-14.883 570.525-10.383 572.9-10.4947 572.843-5.11967 575.468-5.16698 575.445 1.58302 578.633 7.52484 581.448 12.7011 583.88 17.2368 586.022 21.0778 587.911 21.0456 587.895 24.3068 589.463 27.0053 590.781 29.1851 591.839 29.1219 591.809 30.9957 592.679 32.3652 593.433 32.2829 593.389 33.8454 594.201 33.5757 594.073 63.195 606.768 60.4307 613.442 30.3419 601.407 29.3214 600.795 28.1104 599.947 23.0367 593.604 31.0753 592.6 32.4376 592.736 33.7615 593.067 35.2444 593.472 37.1629 594.067 39.4653 594.835 42.2578 595.786 45.5999 596.985 49.7125 598.463 54.5983 600.547 59.3124 602.841 59.1916 602.784 63.8166 604.847 63.2733 604.65 68.1483 606.025 67.8061 605.945 72.4311 606.82 72.3927 606.813 76.5802 607.563 76.5482 607.557 84.2357 608.87 84.1994 608.864 88.0744 609.488 88.0367 609.483 92.1617 610.108 92.1053 610.099 96.6679 610.724 101.782 611.41 101.626 611.393 108.251 612.018 108.176 612.011 115.295 612.549 117.64 613.33 119.173 613.841 121.331 614.603 121.165 614.548 122.602 614.986 122.095 614.867 123.22 615.054 122.925 615.016 124.3 615.141 124.059 615.127 126.227 615.193 127.832 615.326 127.775 615.322 129.588 615.447 129.534 615.444 131.855 615.573 134.686 615.83 140.51 616.394 140.497 616.392 145.184 616.83 145.15 616.827 148.885 617.143 151.807 617.461 151.717 617.452 153.954 617.644 155.692 617.837 155.62 617.83 158.308 618.08 158.119 618.067 160.916 618.194 162.775 618.322 162.605 618.314 165.011 618.377 168.053 618.504 172.003 618.692 171.964 618.69 176.902 618.878 183.038 619.128 182.802 619.126 203.239 618.751 203.165 618.753 223.54 618.003 223.246 618.024 226.621 617.649 226.38 617.684 229.63 617.121 229.571 617.132 236.313 615.86 245.243 614.72 244.56 614.868 248.39 613.676 251.719 612.671 254.585 611.798 254.514 611.821 257.082 610.986 261.597 609.696 265.796 608.663 270.337 607.703 273.002 607.196 276.064 606.621 279.615 606.051 279.572 606.058 283.595 605.366 288.305 604.613 293.721 603.731 296.522 603.349 296.508 603.351 299.7 602.904 306.304 602.206 309.216 601.952 309.144 601.959 311.575 601.704 313.256 601.574 313.121 601.587 313.999 601.489 336.485 602.569 339.247 602.762 341.502 602.955 343.402 603.152 344.952 603.354 346.949 603.676 346.906 603.669 348.156 603.857 347.562 603.812 348.437 603.812 347.742 603.873 348.805 603.686 348.632 603.72 350.32 603.345 350.17 603.382 351.381 603.063 353.675 602.489 361.684 603.673 369.031 604.898 372.396 605.791 375.515 606.83 375.421 606.8 378.483 607.738 377.957 607.615 381.019 608.115 380.581 608.068 392.706 608.693 392.582 608.688 404.707 608.938 404.666 608.938 428.955 609.188 433.182 609.314 437.014 609.44 443.834 609.69 443.815 609.689 449.718 609.878 455.184 610.129 460.5 610.379 466.145 610.63 472.487 611.007 472.453 611.005 479.952 611.386 490.574 612.588 490.528 612.583 501.028 613.645 500.831 613.63 512.956 614.255 512.894 614.253 525.019 614.69 524.974 614.689 613.362 616.88 648.897 620.213 653.982 620.912 653.791 620.891 658.728 621.328 658.516 621.315 692.203 622.502 692.181 622.502 725.937 623.506 736.615 624.523 747.25 625.796 751.608 626.655 755.817 627.675 755.761 627.662 759.886 628.599 759.474 628.528 763.662 629.028 762.601 629.043 764.289 628.793 763.316 629.066 764.941 628.379 764.824 628.431 766.711 627.559 769.031 626.872 781.515 625.578 793.756 624.637 793.527 624.661 795.839 624.349 795.551 624.398 796.738 624.148 795.505 624.632 796.442 624.07 795.199 625.241 796.011 624.054 795.486 625.148 795.923 623.71 795.869 623.905 796.314 622.126 797.182 620.004 799.681 616.696 801.995 613.932 801.268 615.235 802.149 612.591 802.781 610.758 802.748 610.858 803.149 609.589 803.428 608.821 803.307 609.217 803.369 608.967 803.25 609.937 803.25 609.875 810.079 612.703 807.62 615.162 802.931 612.348 802.612 609.479 802.696 608.047 802.832 606.216 803.164 603.69 803.677 600.291 804.467 595.817 806.042 589.977 807.888 584.373 807.69 585.485 808.441 563.962 808.946 553.096 810.001 541.822 810.817 539.511 812.533 537.663 815.374 535.824 820.153 533.816 824.798 532.268 822.726 533.857 825.273 530.003 827.091 527.772 829.729 525.818 833.406 524.679 836.756 524.375 842.625 524.375 842.534 524.376 870.106 523.751 897.677 523.251 895.765 523.777 897.515 522.777 897.08 523.065 898.642 521.878 897.939 522.564 899.189 521.001 898.832 521.528 899.895 519.653 899.597 520.311 901.097 515.998 900.966 516.463 901.904 512.15 901.895 512.19 902.283 510.315 902.673 508.691 902.582 509.232 903.031 504.68 903.796 499.809 904.507 497.854 905.297 496.273 905.233 496.407 905.858 495.032 905.641 495.635 906.016 494.26 905.891 494.95 906.391 489.45 906.377 489.676 906.565 484.165 907.008 472.967 908.146 461.843 908.126 462.353 907.689 445.29 907.691 445.348 907.003 428.223 907.037 428.603 906.662 425.853 906.755 426.322 906.004 423.447 906.123 423.824 905.06 420.949 905.165 421.204 904.04 418.704 904.164 418.956 901.477 413.956 901.524 414.042 898.487 408.71 896.996 403.74 895.909 398.598 896.013 397.052 896.167 395.432 896.914 392.104 897.675 388.869 898.307 386.342 898.208 386.909 898.71 381.95 899.275 376.928 899.272 376.956 899.56 374.22 900.119 372.318 901.366 370.24 906 366.885 910.815 364.769 916.134 363.405 921.263 362.443 918.044 366.969 917.983 366.559 925.894 365.371 926.528 369.596 917.737 371.244 917.993 371.187 913.118 372.437 913.734 372.225 909.609 374.037 910.346 373.615 906.721 376.24 907.805 375.058 907.243 375.995 907.65 375.066 907.337 376.129 907.478 375.419 907.226 377.808 906.662 382.822 906.667 382.778 906.138 388.003 905.443 390.783 905.456 390.729 904.706 393.916 904.715 393.876 904.028 396.939 904.107 396.441 903.982 397.754 903.991 397.641 903.928 398.579 903.851 397.486 904.789 401.923 904.706 401.601 906.019 405.976 905.663 405.145 908.5 410.125 911.277 415.293 912.517 418.047 913.695 421.236 914.556 424.535 914.989 427.711 915.685 445.056 916.13 462.403 914.979 473.657 914.997 473.408 914.559 484.471 914.56 484.449 914.369 490.062 913.827 496.025 913.274 498.05 912.486 499.785 911.765 501.226 911.947 500.804 911.447 502.179 911.639 501.433 910.951 505.808 910.981 505.58 910.516 510.291 910.077 512.121 910.104 511.998 909.725 513.83 908.732 518.398 907.034 523.281 905.635 525.75 903.877 527.948 901.712 529.593 898.846 531.231 870.26 531.749 870.278 531.749 842.67 532.375 836.937 532.375 837.3 532.359 834.55 532.609 835.37 532.446 832.745 533.259 833.943 532.652 832.256 533.902 832.976 533.214 831.601 534.902 831.837 534.581 828.638 539.42 822.827 541.357 823.112 541.25 818.8 543.062 819.423 542.733 817.298 544.108 818.056 543.472 817.244 544.347 818.084 542.956 817.709 544.019 817.92 543.06 816.92 553.748 816.933 553.561 816.433 564.311 816.435 564.264 815.665 586.335 813.674 592.377 813.737 592.166 812.237 597.729 812.314 597.383 811.564 601.633 811.58 601.534 811.08 604.847 811.091 604.772 810.778 607.147 810.802 606.921 810.677 608.608 810.68 608.547 810.618 609.61 810.601 608.933 810.663 609.496 808.745 606.507 809.058 606.695 804.171 607.297 811.25 600.217 811.25 610.43 811.018 611.359 810.697 612.242 810.752 612.08 810.361 613.317 809.719 615.179 809.732 615.14 808.617 618.485 805.88 621.755 806.004 621.599 803.879 624.411 804.39 623.514 803.827 624.889 804.006 624.345 803.606 625.943 802.96 628.064 801.308 630.48 799.044 631.838 797.056 632.257 794.484 632.604 782.182 633.551 782.287 633.541 770.225 634.791 770.949 634.648 769.261 635.148 769.801 634.944 768.118 635.721 765.965 636.632 763.244 637.035 758.318 636.447 753.96 635.457 749.808 634.45 749.977 634.487 745.852 633.675 746.149 633.722 735.712 632.472 735.808 632.482 725.308 631.482 725.569 631.498 691.932 630.498 658.128 629.306 652.988 628.851 647.893 628.15 648.064 628.17 612.751 624.857 613.026 624.874 524.753 622.686 512.575 622.246 500.32 621.615 489.699 620.54 479.175 619.35 479.422 619.37 472.03 618.994 465.7 618.618 465.76 618.621 460.124 618.371 454.816 618.121 449.379 617.871 449.435 617.873 443.55 617.685 436.728 617.435 436.744 617.435 432.943 617.311 428.756 617.186 428.834 617.187 404.563 616.937 392.356 616.685 379.948 616.046 376.401 615.467 373.032 614.435 369.985 613.42 370.224 613.491 367.162 612.679 367.53 612.758 360.405 611.571 360.478 611.582 353.29 610.519 354.845 610.443 353.345 610.818 353.393 610.806 352.131 611.138 350.282 611.549 348.788 611.812 347.264 611.812 345.697 611.577 343.738 611.261 343.858 611.279 342.42 611.091 342.526 611.104 340.713 610.916 340.783 610.923 338.596 610.735 338.659 610.74 335.972 610.553 336.058 610.558 313.933 609.495 314.566 609.476 313.937 609.545 312.244 609.676 312.356 609.665 309.945 609.919 307.034 610.172 307.108 610.165 300.608 610.853 300.742 610.836 297.61 611.275 294.853 611.651 294.955 611.635 289.569 612.512 284.882 613.262 284.928 613.255 280.906 613.946 277.385 614.512 277.487 614.494 274.498 615.054 271.873 615.554 271.952 615.539 267.514 616.476 267.644 616.446 263.581 617.446 263.724 617.409 259.349 618.659 259.486 618.617 256.951 619.441 254.031 620.329 250.719 621.329 250.752 621.319 246.605 622.611 237.444 623.78 237.679 623.743 231.024 624.999 227.625 625.587 223.982 625.992 203.423 626.749 182.83 627.126 176.598 626.872 171.641 626.684 167.685 626.495 167.708 626.497 164.708 626.371 164.77 626.374 162.31 626.309 160.412 626.178 160.506 626.183 157.661 626.054 154.844 625.792 153.121 625.601 153.221 625.61 150.988 625.419 148.068 625.102 148.162 625.111 144.458 624.797 139.747 624.357 133.927 623.794 133.95 623.796 131.2 623.546 131.341 623.556 129.064 623.43 127.196 623.301 125.668 623.174 125.879 623.186 123.696 623.119 122.052 622.97 120.522 622.715 118.751 622.176 116.544 621.397 116.61 621.42 115.11 620.92 113.235 620.295 114.199 620.489 107.537 619.986 100.796 619.35 95.5821 618.65 90.9914 618.022 86.8194 617.389 82.9074 616.758 75.1858 615.44 70.963 614.684 66.146 613.773 60.8229 612.271 55.8725 610.064 51.1876 607.784 51.3677 607.867 46.6802 605.867 46.8972 605.952 42.9001 604.515 39.5876 603.328 39.6468 603.349 36.8968 602.411 36.9225 602.42 34.6725 601.67 34.752 601.695 32.9395 601.133 33.0725 601.172 31.6975 600.797 31.7798 600.818 30.7798 600.568 31.3522 600.668 30.7272 600.605 31.6209 600.594 31.1209 600.657 33.7486 594.189 33.9986 594.501 33.1688 593.723 33.7938 594.161 33.558 594.008 34.183 594.383 33.6104 594.099 33.9229 594.224 30.8618 601.614 30.287 601.368 28.5507 600.465 27.2598 599.755 27.5031 599.878 25.7213 599.051 23.4947 597.969 20.8072 596.657 20.8293 596.667 17.5632 595.097 13.7347 593.214 13.792 593.242 9.29889 591.12 4.10016 588.677-1.83303 585.867-8.60675 582.668-14.0616 580.004-18.7051 577.553-22.5276 575.286-25.7659 573.237-28.5035 571.202-30.6209 569.225-32.4192 567.355-33.8621 565.457-35.9501 562.089-37.8716 558.63-37.805 558.745-38.93 556.87-38.7481 557.147-40.1856 555.147-40.0176 555.365-41.8301 553.177-41.6519 553.378-43.9644 550.94-43.4401 551.404-46.4342 549.191-49.8736 546.232-51.5977 542.611-52.6154 539.49-52.4417 539.932-53.6292 537.369-53.6193 537.391-54.6237 535.256-55.4405 533.497-55.4239 533.532-56.0489 532.22-56.0415 532.235-56.854 530.548-56.642 530.932-56.9545 530.432-49.6402 527.528-49.5777 527.841-49.7053 527.36-49.3928 528.297-49.4925 528.03-48.43 530.593-48.4698 530.5-47.9698 531.625-47.9835 531.595-47.671 532.282-54.9771 535.541-55.4207 534.527-56.3783 532.293-57.0794 530.572-57.0573 530.625-57.9313 528.565-58.9938 526.065-58.9771 526.103-60.3078 523.062-61.7626 519.52-61.7271 519.603-63.9875 514.437-62.9814 509.573-62.4189 506.823-62.4355 506.909-62.0482 504.78-61.7212 503.275-61.7516 503.43-61.5641 502.367-61.5706 502.405-61.4456 501.655-61.495 502.113-61.4292 500.796-61.3612 499.98-61.3681 500.078-61.3056 499.015-61.309 499.083-61.245 497.546-61.1143 495.389-60.8602 492.531-60.5442 488.866-60.0396 484.135-59.4109 478.288-58.904 474.233-58.2131 469.145-57.4003 463.206-56.5253 456.831-56.5356 456.912-55.7856 450.475-55.7957 450.572-55.2332 444.447-55.2437 444.588-54.9312 439.026-54.9371 439.305-54.9996 434.742-54.9625 435.234-55.4625 431.609-55.3845 432.017-56.2595 428.454-56.2348 428.55-58.3863 420.638-57.3388 413.026-56.5263 407.026-56.5363 407.106-55.9104 401.66-55.2845 396.402-55.2996 396.554-54.8621 391.117-54.864 391.14-54.4265 385.265-54.4348 385.416-54.1848 378.603-54.1854 378.619-54.0607 374.816-53.9357 370.691-53.9347 370.963-54.2472 362.65-54.2336 362.862-54.9836 354.612-54.8313 355.399-55.0188 354.774-54.9956 354.849-55.5647 353.078-56.3856 350.426-57.3892 347.165-59.5775 339.974-60.6606 336.407-61.5342 333.114-62.2731 328.949-62.7247 324.949-62.5034 325.883-63.8188 322.312-64.8217 319.554-64.8078 319.592-65.5747 317.547-66.0905 316.064-66.0578 316.154-66.4328 315.154-66.4014 315.236-66.7176 314.445-66.9982 313.51-67.1547 312.805-67.2797 312.243-67.2211 312.474-67.4777 311.576-67.8591 310.177-67.7947 310.39-68.4432 308.445-69.214 305.811-69.1839 305.909-70.2464 302.597-70.1925 302.753-72.0466 297.703-73.6771 292.267-75.0402 281.428-76.0842 269.735-72.6477 262.789-72.7448 263-70.1198 256.813-70.3225 257.423-68.76 251.048-68.8424 251.49-67.9674 244.678-67.9918 244.931-67.5538 238.111-67.1131 231.627-66.0387 219.366-65.1364 212.792-63.9233 206.407-62.6037 200.061-62.6331 200.217-61.5706 193.842-61.5994 194.048-60.4119 183.61-60.4195 183.683-59.4101 173.085-58.271 165.238-58.2961 165.45-57.792 159.906-57.1438 154.201-55.9208 147.958-55.2909 144.934-55.3453 145.264-54.9703 142.201-54.9973 142.54-54.2473 122.165-54.2495 122.251-53.9313 101.502-52.7314 95.6359-52.7348 95.653-49.369 78.8237-48.124 75.2272-44.9269 67.2344-41.3853 59.5188-41.5861 60.0541-39.9611 54.5541-40.0848 55.1218-39.2098 48.9968-39.2367 49.2371-38.7367 43.1121-38.7455 43.2469-38.4861 37.8094ZM921.938 365.965 913.385 377.577 916.484 350.924 935.947 369.395Z" fill="#FF0000" fill-opacity="0.501961"/><text font-family="Yu Gothic,Yu Gothic_MSFontService,sans-serif" font-weight="400" font-size="16" transform="translate(229.509 696)">O_ATTR<tspan font-size="16" x="60.6667" y="0">のある側の</tspan>Target</text><path d="M442.5-26.5001 1102.57-26.5001 1102.57 122.188" stroke="#000000" stroke-width="0.666667" stroke-miterlimit="8" fill="none" fill-rule="evenodd"/><text font-family="Yu Gothic,Yu Gothic_MSFontService,sans-serif" font-weight="400" font-size="13" transform="translate(625.064 -35)">R104<tspan font-size="13" x="-174.141" y="6">*</tspan><tspan font-size="13" x="485.189" y="150">1</tspan></text><path d="M-36.2823-83.3714-34.4296-86.0313-33.1759-87.7029-31.1982-89.3684-27.7251-90.8932-23.9882-91.6717-16.9202-91.9435-10.2427-91.4198-7.42336-91.0994-7.55174-91.1119-4.73592-90.8836-2.43731-90.091-1.0735-89.6136 1.02245-88.7464 2.20957-88.1132 3.67149-87.2494 5.56379-86.114 8.30704-84.4553 12.231-81.9237 12.1285-81.9877 16.066-79.6127 15.4959-79.8973 19.3709-78.3348 19.1753-78.4077 24.5626-76.5559 28.4573-70.0094 29.124-68.0928 29.59-66.495 29.4501-66.8947 30.9035-63.3558 31.9812-60.5666 31.9146-60.7283 32.7896-58.7283 33.4419-57.2281 33.8389-56.2356 33.6216-56.6926 33.9763-56.0541 34.625-54.7568 34.625-53.6875 34.4563-54.8369 34.681-54.088 34.8976-53.1494 34.8143-53.4545 35.2114-52.197 35.731-50.3137 35.6981-50.4263 36.4481-47.9888 36.4238-48.0653 38.4038-42.0612 40.4759-33.967 40.9401-31.3145 40.9184-31.4288 41.4184-28.9913 41.2334-29.6234 42.1709-27.1859 42.1043-27.3483 43.3667-24.4522 44.0273-20.4153 44.4503-16.5377 44.0521-9.76748 43.4842-3.39497 43.4919-3.49554 42.4919 12.192 42.4949 11.7347 43.1199 24.0472 43.1112 23.9178 43.6112 29.9178 43.5903 29.724 44.4028 35.849 44.3579 35.581 45.3579 40.5185 46.3736 45.4701 47.325 51.4322 47.2934 51.2587 48.3239 56.2822 48.7805 59.87 48.76 59.729 49.3225 63.1665 49.2085 62.6706 50.0835 65.6081 50.0115 65.3895 51.074 68.3269 51.0231 68.1936 52.9606 73.0061 52.9515 72.9837 55.0935 78.2127 57.2092 83.7264 58.9683 89.1342 61.0167 97.1354 62.9061 105.701 62.8281 105.402 64.0781 109.527 63.9146 109.084 65.6646 113.084 65.357 112.513 68.232 116.95 68.1739 116.863 71.3368 121.475 73.7084 126.295 74.0994 129.736 74.0959 129.706 74.3459 131.769 74.534 133.336 74.5223 133.247 74.7098 134.559 74.5961 134.026 74.9711 135.339 74.85 134.98 75.4125 136.417 75.2897 136.136 76.1647 137.948 76.1585 137.936 77.346 140.373 77.2989 140.28 78.1114 141.842 77.6583 141.155 78.7833 142.53 77.1451 141.337 78.5826 141.9 78.0952 141.744 79.5952 142.119 76.6372 142.529 83.9497 138.341 83.5566 138.598 86.9316 136.098 86.4551 136.513 89.4551 133.451 88.7348 134.461 89.1723 133.586 88.8694 134.405 89.1194 133.405 89.0451 133.776 89.4262 131.261 91.5328 125.96 91.268 127.817 91.018 125.192 91.0212 125.224 90.6434 121.572 90.2659 117.357 90.2699 117.398 89.8323 113.023 89.8391 113.086 89.3355 108.742 88.9573 104.961 88.9697 105.069 88.5947 102.132 88.4684 101.121 88.5152 101.409 88.3902 100.784 86.4517 91.0296 86.5289 91.3489 86.3711 90.7967 86.0952 89.5552 86.1375 89.7274 85.6787 88.0234 85.2232 86.006 85.2444 86.0951 84.2444 82.0951 84.2731 82.2035 83.813 80.5603 83.5438 79.4162 83.5606 79.4846 82.4543 75.1285 81.1898 37.5094 81.1902 37.5225 80.5027 18.8975 80.5058 18.9652 79.5058 0.402672 79.5777 0.971962 79.3277-0.278038 79.635 0.649857 79.064-0.555695 77.7699-3.35947 75.6933-11.8 75.0239-16.4859 74.6199-21.2672 74.9416-31.8199 75.6389-42.2162 75.9819-45.509 76.7458-49.0229 78.358-52.5404 80.0262-55.6099 81.1285-57.4472 82.6445-59.409 86.0811-62.0819 89.8915-64.2593 92.9436-64.9822 95.5605-65.4401 95.0338-65.3106 98.0206-66.2638 105.018-68.2996 116.842-71.2556 116.355-71.1 118.031-71.7559 120.083-72.2689 123.894-72.6092 127.98-72.9863 132.202-73.3014 136.323-73.6136 136.293-73.6112 140.084-73.9271 143.125-74.1172 145.196-74.2427 144.996-74.2255 145.778-74.3125 146.187-74.3125 145.288-74.2101 147.87-74.8059 150.603-75.2264 158.04-75.8034 164.527-76.1849 170.416-76.313 176.15-76.2493 181.957-76.0599 188.29-75.8091 195.547-75.4963 195.496-75.4982 199.621-75.3732 204.05-75.2484 203.773-75.2466 220.505-75.936 237.278-76.2512 260.418-75.4966 283.538-74.3029 294.387-73.2937 343.057-68.3507 344.41-67.7358 345.851-67.0152 345.666-67.1021 347.76-66.1861 350.158-64.9867 352.591-63.6719 354.931-62.2954 357.05-60.7816 358.934-58.9969 360.607-55.7388 361.464-52.8111 361.451-52.8554 363.263-46.9179 363.248-46.9662 364.186-44.0287 364.072-44.3396 365.287-41.399 366.372-38.4829 367.23-35.3788 367.023-35.954 368.148-33.454 367.07-34.8773 369.008-33.2523 367.958-33.8873 372.52-32.0123 372.43-32.0483 377.492-30.1108 377.414-30.1398 382.289-28.3898 382.15-28.4367 386.275-27.1242 385.628-27.2723 390.003-26.6473 389.774-26.6733 394.459-26.2774 399.172-25.2818 403.579-24.2744 403.338-24.3217 415.473-22.3207 425.027-18.7464 424.798-18.8242 429.485-17.3867 429.137-17.4767 433.887-16.4767 433.504-16.538 434.629-16.413 434.494-16.4257 436.142-16.299 438.289-16.1095 438.237-16.1138 440.737-15.9263 440.655-15.9316 446.405-15.6191 446.385-15.6201 452.698-15.3076 452.663-15.3092 458.795-15.0589 461.629-14.9329 464.095-14.8065 466.235-14.6806 466.148-14.6848 467.879-14.6207 468.985-14.5556 468.75-14.5625 469.624-14.5625 473.304-13.8681 473.263-13.8757 476.075-13.3757 476.049-13.3802 480.799-12.5677 480.752-12.5755 484.69-11.9505 484.46-11.9802 488.211-11.6052 487.991-11.621 492.179-11.4335 492.102-11.4362 494.54-11.3737 494.437-11.375 497.187-11.375 497.111-11.3743 500.361-11.4368 504.057-11.4994 508.316-11.5621 513.262-11.6247 513.11-11.6199 518.048-11.8699 517.792-11.8486 522.667-12.4111 522.641-12.4082 532.745-13.6388 548.579-12.7413 564.057-11.5507 563.912-11.5592 579.349-10.9342 579.122-10.937 586.81-11.062 586.583-11.0518 594.271-11.6143 594.162-11.6049 603.474-12.5424 603.422-12.5367 612.734-13.5992 612.412-13.5491 617.787-14.6116 617.743-14.6027 620.608-15.2023 623.647-15.5557 647.352-16.2492 671.162-16.5658 688.834-14.3409 706.169-11.9629 706.082-11.9738 723.457-9.97376 723.3-9.98872 740.738-8.67622 740.503-8.68697 763.503-8.31197 763.372-8.31197 786.372-8.68697 786.318-8.68571 809.351-9.37419 832.46-9.68817 847.757-9.31048 862.977-8.68412 862.606-8.68217 919.418-11.6197 919.059-11.5848 923.055-12.1556 927.304-12.6354 945.282-11.8066 963.052-10.6724 968.41-10.0345 968.34-10.0421 973.316-9.53825 982.741-8.39973 992.007-6.92987 1002.01-4.65686 1006.22-3.1192 1010.13-1.60527 1009.9-1.68598 1031.52 5.20787 1048.43 11.182 1052.83 13.3477 1056.03 15.5251 1059.24 17.7946 1059.22 17.7789 1060.75 18.8397 1061.96 19.78 1061.9 19.7375 1062.65 20.3 1062.31 20.0702 1063.55 20.8166 1067.79 28.5709 1069.64 32.205 1071.2 35.9991 1071.87 38.0845 1071.83 37.9812 1072.21 39.0437 1072.11 38.7992 1072.37 39.39 1072.54 39.9232 1072.25 39.2447 1072.6 39.8833 1073.32 41.3277 1074.37 43.8228 1074.32 43.6987 1075.1 45.3997 1076.01 47.6021 1077.2 50.4875 1078.53 53.7723 1079.11 55.2671 1079.57 56.4919 1079.5 56.3368 1079.83 57.1128 1080.1 57.7927 1080.56 60.0775 1080.82 61.5647 1080.81 61.5128 1080.99 62.5128 1080.98 62.4659 1081.13 63.1993 1085.7 95.1753 1081.08 96.0827 1073.1 64.2257 1073.86 59.6875 1079.47 59.6875 1081.56 62.4099 1082.19 63.746 1082.17 63.7178 1082.86 65.1649 1084.18 68.5488 1085.03 71.6027 1085.57 74.588 1086.11 78.0677 1086.49 84.1273 1086.81 89.3219 1086.8 89.2139 1086.94 90.7921 1078.97 91.4893 1078.82 89.8571 1078.51 84.6156 1078.51 84.6298 1078.13 78.7548 1078.17 79.1082 1077.67 75.8582 1077.69 75.9656 1077.19 73.2156 1077.27 73.5752 1076.52 70.8877 1076.65 71.2586 1075.46 68.1961 1075.58 68.4697 1074.94 67.1431 1074.5 66.1915 1074.95 66.9388 1074.33 66.1263 1077.5 67.6875 1077.25 67.6875 1081.2 64.3458 1081.13 64.7208 1081.07 63.0913 1081.13 63.3413 1073.29 64.8788 1073.23 64.4413 1073.26 64.6591 1073.14 64.0106 1072.94 62.9613 1072.68 61.4978 1072.7 61.597 1072.33 59.722 1072.54 60.4235 1072.41 60.111 1072.43 60.1632 1072.09 59.3363 1071.62 58.0705 1071.65 58.1449 1071.09 56.7074 1071.1 56.7479 1069.79 53.4979 1069.8 53.527 1068.61 50.6479 1067.74 48.5229 1067.81 48.6763 1067.03 46.9897 1066 44.5522 1066.11 44.7888 1065.48 43.5388 1065.57 43.6928 1065.07 42.8049 1064.83 42.0768 1064.95 42.3882 1064.71 41.8301 1064.27 40.5924 1063.63 38.603 1063.74 38.8947 1062.3 35.3947 1062.44 35.6897 1060.69 32.2522 1060.74 32.3552 1057.05 25.6052 1058.5 27.1173 1058.02 26.8237 1057.07 26.1165 1055.92 25.22 1056.09 25.3461 1054.64 24.3382 1051.44 22.0804 1051.5 22.1189 1048.56 20.1189 1049.05 20.4015 1045.11 18.464 1045.54 18.6464 1028.92 12.7714 1029.03 12.811 1007.36 5.89909 1003.37 4.35526 1003.44 4.38243 999.503 2.94493 999.988 3.08803 990.363 0.900528 990.623 0.950607 981.561-0.486893 981.708-0.466377 972.395-1.59138 972.472-1.58286 967.499-2.0864 962.215-2.71555 962.433-2.69563 944.808-3.82063 944.878-3.81675 927.253-4.62925 927.886-4.65025 924.011-4.21275 924.128-4.22771 920.012-3.63966 862.834-0.68325 847.461-1.31588 847.526-1.31372 832.339-1.68872 832.492-1.68787 809.492-1.37537 809.557-1.37679 786.53-0.688477 763.437-0.311974 740.255-0.689949 722.621-2.01721 705.124-4.03121 687.769-6.41212 687.813-6.40633 670.438-8.59383 670.991-8.56286 647.491-8.25036 647.554-8.25172 624.054-7.56422 624.399-7.58927 621.712-7.27677 622.069-7.33484 619.36-6.76777 613.803-5.66929 604.302-4.58528 594.909-3.63966 587.054-3.06488 579.139-2.93618 563.516-3.56872 548.006-4.76179 548.086-4.75642 532.649-5.63142 533.359-5.65434 523.596-4.46532 518.581-3.88662 513.439-3.62628 508.434-3.56293 504.193-3.50058 500.514-3.43825 497.226-3.375 494.386-3.375 491.859-3.4398 487.524-3.63392 483.549-4.03135 479.474-4.67822 474.688-5.49697 471.842-6.00294 468.508-6.63185 469.25-6.5625 468.632-6.5625 467.453-6.6319 467.539-6.62775 465.809-6.69186 463.64-6.8194 463.67-6.81775 461.233-6.94275 461.26-6.94144 458.447-7.06644 458.462-7.06583 452.32-7.31654 445.98-7.63037 440.179-7.94563 437.612-8.13817 435.461-8.32798 435.506-8.32428 433.813-8.45448 432.428-8.60838 427.312-9.68543 422.337-11.2113 413.036-14.6911 413.787-14.4908 401.916-16.4482 397.421-17.4756 397.486-17.4614 393.048-18.3989 393.538-18.3267 388.986-18.7114 384.167-19.3998 379.655-20.8355 374.672-22.6243 369.525-24.5942 364.343-26.7237 361.228-29.3361 359.601-32.9506 358.707-36.1837 358.814-35.8551 357.814-38.5426 357.865-38.4105 356.615-41.4385 355.619-44.5579 353.793-50.5417 353.036-53.1264 353.317-52.4228 352.129-54.7353 352.936-53.6587 351.749-54.7837 352.175-54.4326 350.425-55.6826 350.722-55.4898 348.597-56.7398 348.723-56.6687 346.41-57.9187 346.524-57.8598 344.274-58.9848 344.459-58.8979 342.365-59.8139 340.899-60.5473 341.032-60.4836 340.345-60.7961 341.596-60.458 293.596-65.333 293.629-65.3297 282.879-66.3297 283.044-66.3178 260.044-67.5053 260.12-67.5021 237.12-68.2521 237.325-68.2507 220.7-67.9382 220.79-67.9409 203.964-67.2477 199.379-67.3768 195.228-67.5026 187.953-67.8162 187.967-67.8156 181.654-68.0656 181.682-68.0646 175.932-68.2521 176.018-68.2502 170.393-68.3127 170.524-68.3134 164.774-68.1884 164.922-68.1944 158.547-67.8194 158.622-67.8245 151.372-67.262 151.671-67.2965 149.233-66.9215 149.524-66.9774 146.643-66.3125 146-66.3125 146.442-66.337 145.78-66.2634 143.625-66.1328 140.625-65.9453 140.707-65.9513 136.942-65.6376 132.798-65.3236 128.61-65.0111 128.68-65.0169 124.606-64.6409 121.106-64.3284 121.72-64.4319 120.22-64.0569 120.708-64.2125 119.031-63.5566 107.033-60.5569 107.18-60.5967 100.305-58.5967 100.404-58.6269 97.2072-57.6067 94.4395-57.1224 94.6719-57.1702 92.2969-56.6077 93.3596-57.027 90.297-55.277 90.7682-55.5926 87.9558-53.4051 88.6651-54.1167 87.6026-52.7417 87.8675-53.1295 86.93-51.567 87.0145-51.7149 85.452-48.8399 85.5738-49.0834 84.1988-46.0834 84.4712-46.9003 83.8462-44.0253 83.916-44.4606 83.6035-41.4606 83.616-41.6073 82.9285-31.3573 82.9356-31.5031 82.6231-21.2531 82.6108-21.7118 82.9858-17.2743 82.9598-17.5032 83.5848-13.1282 83.5092-13.5181 85.4467-5.64313 85.1943-6.36374 86.3193-3.92624 86.3024-3.96236 87.0757-2.32984 87.4787-0.314911 88.496 18.5686 89.185 37.2341 90.4352 74.4281 90.3144 73.5779 91.3231 77.5495 91.5812 78.6463 91.5393 78.484 91.992 80.1005 93.0167 84.1993 93.4643 86.1815 93.4249 86.0226 93.8855 87.7332 94.1547 88.9448 94.0961 88.7136 94.2662 89.3092 96.2348 99.2155 96.3885 99.9838 96.5303 101.118 96.9122 104.11 97.2926 107.914 97.2859 107.852 97.7895 112.196 98.2322 116.623 98.6091 120.831 98.6038 120.776 98.9804 124.417 99.3234 128.018 97.0297 133.79 97.2674 132.912 96.9265 135.161 96.5241 136.771 95.6094 138.601 91.9481 142.338 88.1294 145.167 79.2161 150.271 75.9061 149.443 73.2548 148.406 71.2046 145.9 70.177 143.924 68.9633 141.433 68.0185 139.476 67.331 137.719 66.8288 135.961 66.5963 134.334 66.4041 132.731 66.1523 130.654 65.8381 127.889 66.2235 129.204 64.286 125.266 64.5761 125.762 61.5465 121.344 58.4659 116.589 56.4905 112.074 55.1271 107.575 53.2189 98.9241 53.25 99.0545 51.25 91.242 51.3212 91.4874 49.6337 86.2999 49.703 86.4955 47.6405 81.1205 47.6735 81.2038 45.544 76.0051 43.5753 71.1151 42.4493 68.0023 41.4687 64.7101 40.8535 60.9507 40.407 57.4425 40.4566 57.7413 39.4389 52.7799 38.4875 46.8178 38.5191 46.9913 37.5171 42.1065 36.4901 37.0358 35.6469 30.6794 35.1334 24.5175 34.4935 11.9116 35.5113-4.0548 36.0783-10.4175 36.0694-10.2974 36.4444-16.6724 36.4611-16.0037 36.0861-19.4412 36.115-19.229 35.5525-22.6665 35.8332-21.7142 34.7356-24.2321 33.648-27.06 33.0699-29.8782 32.6224-32.4355 32.6875-32.133 30.6875-39.9455 30.7637-39.6847 28.8137-45.5978 28.0346-48.1297 27.519-49.9988 27.5607-49.858 27.138-51.1964 26.9149-52.1631 26.9812-51.9131 26.625-53.1004 26.625-53.8125 27.0473-52.0236 26.8598-52.3986 26.9409-52.2449 26.5052-53.029 26.0361-54.2019 26.0817-54.0926 25.4604-55.5217 24.5503-57.6018 23.4563-60.4334 23.4874-60.3553 21.9694-64.0515 21.4725-65.755 21.5345-65.5609 21.0345-66.9984 21.3749-66.2673 18.4374-71.2048 20.5747-69.4673 16.4759-70.8762 12.2077-72.5973 7.94477-75.1685 4.01899-77.7013 4.11782-77.6396 1.43032-79.2646 1.44202-79.2575-0.432983-80.3825-0.40992-80.3688-1.78492-81.1813-1.63235-81.0956-2.56985-81.5956-2.21691-81.4289-4.02941-82.1789-3.8214-82.0996-5.0714-82.5371-5.05396-82.531-6.86646-83.156-5.88576-82.9506-8.26256-83.1433-11.0766-83.4631-10.9378-83.4497-17.3128-83.9497-16.8463-83.9405-23.3463-83.6905-22.6842-83.7716-25.6842-83.1466-24.892-83.3999-27.4545-82.2749-26.486-82.8779-27.6735-81.8779-27.05-82.5375-27.9875-81.2875-27.9052-81.4013-29.7177-78.7991ZM1082.95 91.1407 1093.21 81.0003 1086 106.847 1069.65 85.5744Z" fill="#2F528F" fill-opacity="0.501961"/></g></svg>