<svg width="197" height="174" xmlns="http://www.w3.org/2000/svg" xmlns:xlink="http://www.w3.org/1999/xlink" overflow="hidden"><defs><clipPath id="clip0"><rect x="273" y="429" width="197" height="174"/></clipPath><clipPath id="clip1"><rect x="324" y="435" width="21" height="20"/></clipPath><clipPath id="clip2"><rect x="324" y="435" width="21" height="20"/></clipPath><clipPath id="clip3"><rect x="324" y="435" width="21" height="20"/></clipPath><clipPath id="clip4"><rect x="392" y="434" width="21" height="21"/></clipPath><clipPath id="clip5"><rect x="392" y="434" width="21" height="21"/></clipPath><clipPath id="clip6"><rect x="392" y="434" width="21" height="21"/></clipPath><clipPath id="clip7"><rect x="324" y="480" width="21" height="21"/></clipPath><clipPath id="clip8"><rect x="324" y="480" width="21" height="21"/></clipPath><clipPath id="clip9"><rect x="324" y="480" width="21" height="21"/></clipPath><clipPath id="clip10"><rect x="324" y="526" width="21" height="21"/></clipPath><clipPath id="clip11"><rect x="324" y="526" width="21" height="21"/></clipPath><clipPath id="clip12"><rect x="324" y="526" width="21" height="21"/></clipPath></defs><g clip-path="url(#clip0)" transform="translate(-273 -429)"><rect x="274" y="430" width="195" height="172" fill="#F2F2F2"/><path d="M299.5 445.5 335.5 445.5 335.5 468.833 330.833 473.5 299.5 473.5Z" fill="#FFFFFF" fill-rule="evenodd"/><path d="M330.833 473.5 331.767 469.767 335.5 468.833Z" fill="#CDCDCD" fill-rule="evenodd"/><path d="M330.833 473.5 331.767 469.767 335.5 468.833 330.833 473.5 299.5 473.5 299.5 445.5 335.5 445.5 335.5 468.833" stroke="#000000" stroke-width="1.33333" stroke-miterlimit="8" fill="none" fill-rule="evenodd"/><text font-family="Calibri,Calibri_MSFontService,sans-serif" font-weight="400" font-size="11" transform="translate(314.557 460)">T</text><path d="M362.5 522.5 398.5 522.5 398.5 545.833 393.833 550.5 362.5 550.5Z" fill="#FFFFFF" fill-rule="evenodd"/><path d="M393.833 550.5 394.767 546.767 398.5 545.833Z" fill="#CDCDCD" fill-rule="evenodd"/><path d="M393.833 550.5 394.767 546.767 398.5 545.833 393.833 550.5 362.5 550.5 362.5 522.5 398.5 522.5 398.5 545.833" stroke="#000000" stroke-width="1.33333" stroke-miterlimit="8" fill="none" fill-rule="evenodd"/><text font-family="Calibri,Calibri_MSFontService,sans-serif" font-weight="400" font-size="11" transform="translate(378.043 538)">L</text><path d="M413.5 522.5 449.5 522.5 449.5 545.833 444.833 550.5 413.5 550.5Z" fill="#FFFFFF" fill-rule="evenodd"/><path d="M444.833 550.5 445.767 546.767 449.5 545.833Z" fill="#CDCDCD" fill-rule="evenodd"/><path d="M444.833 550.5 445.767 546.767 449.5 545.833 444.833 550.5 413.5 550.5 413.5 522.5 449.5 522.5 449.5 545.833" stroke="#000000" stroke-width="1.33333" stroke-miterlimit="8" fill="none" fill-rule="evenodd"/><text font-family="Calibri,Calibri_MSFontService,sans-serif" font-weight="400" font-size="11" transform="translate(422.699 538)">EXE</text><path d="M366.5 445.5 402.5 445.5 402.5 468.833 397.833 473.5 366.5 473.5Z" fill="#FFFFFF" fill-rule="evenodd"/><path d="M397.833 473.5 398.767 469.767 402.5 468.833Z" fill="#CDCDCD" fill-rule="evenodd"/><path d="M397.833 473.5 398.767 469.767 402.5 468.833 397.833 473.5 366.5 473.5 366.5 445.5 402.5 445.5 402.5 468.833" stroke="#000000" stroke-width="1.33333" stroke-miterlimit="8" fill="none" fill-rule="evenodd"/><text font-family="Calibri,Calibri_MSFontService,sans-serif" font-weight="400" font-size="11" transform="translate(381.739 460)">S</text><g clip-path="url(#clip1)"><g clip-path="url(#clip2)"><g clip-path="url(#clip3)"><path d="M6.45836 8.48465 8.64148 10.1687C8.72551 10.8476 9.29781 11.3755 10 11.3755 10.7599 11.3755 11.3755 10.7595 11.3755 10 11.3755 9.97055 11.3688 9.94328 11.3669 9.91414L14.5662 6.12914C14.7898 5.87863 14.7935 5.51777 14.5759 5.3243 14.3579 5.13023 14.0005 5.17676 13.7776 5.42723L10.6336 8.78598C10.4433 8.68613 10.2297 8.62445 9.99996 8.62445 9.75379 8.62445 9.52629 8.69422 9.3266 8.80738L7.2709 7.37602C7.00582 7.1807 6.60836 7.27121 6.38359 7.57754 6.15949 7.88316 6.19234 8.28961 6.45836 8.48465Z" fill="#4B4B4B" transform="matrix(1.05 0 0 1 324 435)"/><path d="M10 0C9.56164 0 9.20637 0.355312 9.20637 0.793672 9.20637 1.23203 9.56168 1.5873 10 1.5873 12.3258 1.58762 14.4237 2.52762 15.9487 4.05133 17.4724 5.57602 18.4124 7.67422 18.4127 10 18.4124 12.3258 17.4724 14.4237 15.9487 15.9487 14.4237 17.4724 12.3258 18.4124 10 18.4127 7.67426 18.4124 5.57602 17.4724 4.05137 15.9487 2.52762 14.4237 1.58762 12.3258 1.5873 10 1.58762 8.31008 2.08613 6.74078 2.94273 5.42383L3.67934 5.97437C3.75902 6.03391 3.86441 6.04879 3.95773 6.01344 4.05074 5.97812 4.1202 5.89844 4.14066 5.80047L4.63637 3.45582C4.72473 3.30418 4.76254 3.12996 4.74113 2.95883L4.96527 1.89918C4.98914 1.78762 4.94543 1.67285 4.85457 1.60434 4.76309 1.53645 4.64066 1.52715 4.54019 1.58172L1.03293 3.47781C0.944883 3.52586 0.887539 3.61453 0.88043 3.71402 0.872969 3.81324 0.916992 3.90996 0.996992 3.9698L1.66785 4.47109C0.615078 6.05531-0.000273438 7.95727 0 10 0.000625 15.5233 4.47672 19.9994 10 20 15.5233 19.9994 19.9994 15.5233 20 10 19.9994 4.47672 15.5233 0.000625 10 0Z" fill="#4B4B4B" transform="matrix(1.05 0 0 1 324 435)"/></g></g></g><g clip-path="url(#clip4)"><g clip-path="url(#clip5)"><g clip-path="url(#clip6)"><path d="M398.781 442.909 401.074 444.677C401.162 445.39 401.763 445.944 402.5 445.944 403.298 445.944 403.944 445.298 403.944 444.5 403.944 444.469 403.937 444.44 403.935 444.41L407.295 440.436C407.529 440.173 407.533 439.794 407.305 439.591 407.076 439.387 406.701 439.436 406.466 439.699L403.165 443.225C402.965 443.12 402.741 443.056 402.5 443.056 402.241 443.056 402.003 443.129 401.793 443.248L399.634 441.745C399.356 441.54 398.939 441.635 398.703 441.956 398.467 442.277 398.502 442.704 398.781 442.909Z" fill="#4B4B4B"/><path d="M402.5 434C402.04 434 401.667 434.373 401.667 434.833 401.667 435.294 402.04 435.667 402.5 435.667 404.942 435.667 407.145 436.654 408.746 438.254 410.346 439.855 411.333 442.058 411.333 444.5 411.333 446.942 410.346 449.145 408.746 450.746 407.145 452.346 404.942 453.333 402.5 453.333 400.058 453.333 397.855 452.346 396.254 450.746 394.654 449.145 393.667 446.942 393.667 444.5 393.667 442.726 394.19 441.078 395.09 439.695L395.863 440.273C395.947 440.336 396.058 440.351 396.156 440.314 396.253 440.277 396.326 440.193 396.348 440.09L396.868 437.629C396.961 437.469 397.001 437.286 396.978 437.107L397.214 435.994C397.239 435.877 397.193 435.757 397.097 435.685 397.001 435.613 396.873 435.604 396.767 435.661L393.085 437.652C392.992 437.702 392.932 437.795 392.924 437.9 392.917 438.004 392.963 438.105 393.047 438.168L393.751 438.695C392.646 440.358 392 442.355 392 444.5 392.001 450.299 396.701 454.999 402.5 455 408.299 454.999 412.999 450.299 413 444.5 412.999 438.701 408.299 434.001 402.5 434Z" fill="#4B4B4B"/></g></g></g><path d="M299.5 491.5 335.5 491.5 335.5 514.833 330.833 519.5 299.5 519.5Z" fill="#FFFFFF" fill-rule="evenodd"/><path d="M330.833 519.5 331.767 515.767 335.5 514.833Z" fill="#CDCDCD" fill-rule="evenodd"/><path d="M330.833 519.5 331.767 515.767 335.5 514.833 330.833 519.5 299.5 519.5 299.5 491.5 335.5 491.5 335.5 514.833" stroke="#000000" stroke-width="1.33333" stroke-miterlimit="8" fill="none" fill-rule="evenodd"/><text font-family="Calibri,Calibri_MSFontService,sans-serif" font-weight="400" font-size="11" transform="translate(314.557 506)">T</text><g clip-path="url(#clip7)"><g clip-path="url(#clip8)"><g clip-path="url(#clip9)"><path d="M330.781 488.909 333.074 490.677C333.162 491.39 333.763 491.944 334.5 491.944 335.298 491.944 335.944 491.298 335.944 490.5 335.944 490.469 335.937 490.44 335.935 490.41L339.295 486.436C339.529 486.173 339.533 485.794 339.305 485.591 339.076 485.387 338.701 485.436 338.466 485.699L335.165 489.225C334.965 489.12 334.741 489.056 334.5 489.056 334.241 489.056 334.003 489.129 333.793 489.248L331.634 487.745C331.356 487.54 330.939 487.635 330.703 487.956 330.467 488.277 330.502 488.704 330.781 488.909Z" fill="#4B4B4B"/><path d="M334.5 480C334.04 480 333.667 480.373 333.667 480.833 333.667 481.294 334.04 481.667 334.5 481.667 336.942 481.667 339.145 482.654 340.746 484.254 342.346 485.855 343.333 488.058 343.333 490.5 343.333 492.942 342.346 495.145 340.746 496.746 339.145 498.346 336.942 499.333 334.5 499.333 332.058 499.333 329.855 498.346 328.254 496.746 326.654 495.145 325.667 492.942 325.667 490.5 325.667 488.726 326.19 487.078 327.09 485.695L327.863 486.273C327.947 486.336 328.058 486.351 328.156 486.314 328.253 486.277 328.326 486.193 328.348 486.09L328.868 483.629C328.961 483.469 329.001 483.286 328.978 483.107L329.214 481.994C329.239 481.877 329.193 481.757 329.097 481.685 329.001 481.613 328.873 481.604 328.767 481.661L325.085 483.652C324.992 483.702 324.932 483.795 324.924 483.9 324.917 484.004 324.963 484.105 325.047 484.168L325.751 484.695C324.646 486.358 324 488.355 324 490.5 324.001 496.299 328.701 500.999 334.5 501 340.299 500.999 344.999 496.299 345 490.5 344.999 484.701 340.299 480.001 334.5 480Z" fill="#4B4B4B"/></g></g></g><path d="M299.5 536.5 335.5 536.5 335.5 559.833 330.833 564.5 299.5 564.5Z" fill="#FFFFFF" fill-rule="evenodd"/><path d="M330.833 564.5 331.767 560.767 335.5 559.833Z" fill="#CDCDCD" fill-rule="evenodd"/><path d="M330.833 564.5 331.767 560.767 335.5 559.833 330.833 564.5 299.5 564.5 299.5 536.5 335.5 536.5 335.5 559.833" stroke="#000000" stroke-width="1.33333" stroke-miterlimit="8" fill="none" fill-rule="evenodd"/><text font-family="Calibri,Calibri_MSFontService,sans-serif" font-weight="400" font-size="11" transform="translate(314.345 552)">T</text><g clip-path="url(#clip10)"><g clip-path="url(#clip11)"><g clip-path="url(#clip12)"><path d="M330.781 534.909 333.074 536.677C333.162 537.39 333.763 537.944 334.5 537.944 335.298 537.944 335.944 537.297 335.944 536.5 335.944 536.469 335.937 536.44 335.935 536.41L339.295 532.436C339.529 532.173 339.533 531.794 339.305 531.591 339.076 531.387 338.701 531.436 338.466 531.699L335.165 535.225C334.965 535.12 334.741 535.056 334.5 535.056 334.241 535.056 334.003 535.129 333.793 535.248L331.634 533.745C331.356 533.54 330.939 533.635 330.703 533.956 330.467 534.277 330.502 534.704 330.781 534.909Z" fill="#4B4B4B"/><path d="M334.5 526C334.04 526 333.667 526.373 333.667 526.833 333.667 527.294 334.04 527.667 334.5 527.667 336.942 527.667 339.145 528.654 340.746 530.254 342.346 531.855 343.333 534.058 343.333 536.5 343.333 538.942 342.346 541.145 340.746 542.746 339.145 544.346 336.942 545.333 334.5 545.333 332.058 545.333 329.855 544.346 328.254 542.746 326.654 541.145 325.667 538.942 325.667 536.5 325.667 534.726 326.19 533.078 327.09 531.695L327.863 532.273C327.947 532.336 328.058 532.351 328.156 532.314 328.253 532.277 328.326 532.193 328.348 532.091L328.868 529.629C328.961 529.469 329.001 529.286 328.978 529.107L329.214 527.994C329.239 527.877 329.193 527.756 329.097 527.685 329.001 527.613 328.873 527.604 328.767 527.661L325.085 529.652C324.992 529.702 324.932 529.795 324.924 529.9 324.917 530.004 324.963 530.105 325.047 530.168L325.751 530.695C324.646 532.358 324 534.355 324 536.5 324.001 542.299 328.701 546.999 334.5 547 340.299 546.999 344.999 542.299 345 536.5 344.999 530.701 340.299 526.001 334.5 526Z" fill="#4B4B4B"/></g></g></g><path d="M317.5 575.5 317.5 593.105" stroke="#000000" stroke-width="3" stroke-miterlimit="8" stroke-dasharray="3 3" fill="none" fill-rule="evenodd"/><path d="M382.5 480.5 382.5 498.105" stroke="#000000" stroke-width="3" stroke-miterlimit="8" stroke-dasharray="3 3" fill="none" fill-rule="evenodd"/></g></svg>