<svg width="980" height="387" xmlns="http://www.w3.org/2000/svg" xmlns:xlink="http://www.w3.org/1999/xlink" overflow="hidden"><defs><clipPath id="clip0"><rect x="206" y="178" width="980" height="387"/></clipPath><linearGradient x1="345" y1="373.5" x2="345" y2="473.5" gradientUnits="userSpaceOnUse" spreadMethod="reflect" id="fill1"><stop offset="0" stop-color="#4472C4"/><stop offset="0.4" stop-color="#FFFFFF" stop-opacity="0.901961"/><stop offset="0.63" stop-color="#FFFFFF" stop-opacity="0.501961"/><stop offset="1" stop-color="#ED7D31"/></linearGradient><linearGradient x1="0" y1="13" x2="63" y2="13" gradientUnits="userSpaceOnUse" spreadMethod="reflect" id="fill2"><stop offset="0" stop-color="#ED7D31"/><stop offset="0.4" stop-color="#FFFFFF" stop-opacity="0.901961"/><stop offset="0.63" stop-color="#FFFFFF" stop-opacity="0.501961"/><stop offset="1" stop-color="#FFC000"/></linearGradient></defs><g clip-path="url(#clip0)" transform="translate(-206 -178)"><rect x="208.5" y="289.5" width="269" height="76" stroke="#FF0000" stroke-width="3" stroke-miterlimit="8" fill="#4472C4"/><text fill="#FFFFFF" font-family="Yu Gothic,Yu Gothic_MSFontService,sans-serif" font-weight="700" font-size="24" transform="translate(294.721 335)">目指す姿</text><rect x="208.5" y="486.5" width="269" height="76" stroke="#FF0000" stroke-width="3" stroke-miterlimit="8" fill="#ED7D31"/><text fill="#FFFFFF" font-family="Yu Gothic,Yu Gothic_MSFontService,sans-serif" font-weight="700" font-size="24" transform="translate(294.721 532)">現在の姿</text><path d="M319.5 399 345 373.5 370.5 399 357.75 399 357.75 448 370.5 448 345 473.5 319.5 448 332.25 448 332.25 399Z" stroke="#2F528F" stroke-width="1.33333" stroke-miterlimit="8" fill="url(#fill1)" fill-rule="evenodd"/><text font-family="Yu Gothic,Yu Gothic_MSFontService,sans-serif" font-weight="400" font-size="24" transform="translate(335.928 402)">G</text><text font-family="Yu Gothic,Yu Gothic_MSFontService,sans-serif" font-weight="400" font-size="24" transform="translate(335.928 431)">A</text><text font-family="Yu Gothic,Yu Gothic_MSFontService,sans-serif" font-weight="400" font-size="24" transform="translate(335.928 460)">P</text><path d="M395.5 423.5 414.5 404.5 414.5 414 446.326 414 446.326 385.5 695.5 385.5 695.5 461.5 446.326 461.5 446.326 433 414.5 433 414.5 442.5Z" stroke="#FF0000" stroke-width="1.33333" stroke-miterlimit="8" fill="#FFE699" fill-rule="evenodd"/><text font-family="Yu Gothic,Yu Gothic_MSFontService,sans-serif" font-weight="700" font-size="24" transform="translate(546.444 430)">問題</text><path d="M775.5 385.5 1025.5 385.5 1025.5 446.448C900.5 446.448 900.5 469.67 775.5 456.476Z" stroke="#2F528F" stroke-width="1.33333" stroke-miterlimit="8" fill="#F4B183" fill-rule="evenodd"/><text font-family="Yu Gothic,Yu Gothic_MSFontService,sans-serif" font-weight="700" font-size="24" transform="translate(875.755 423)">課題</text><path d="M0 6.50002 0.81251 6.50002 0.81251 19.5 0 19.5ZM1.62502 6.50002 3.24997 6.50002 3.24997 19.5 1.62502 19.5ZM4.06248 6.50002 50 6.50002 50 0 63 13 50 26 50 19.5 4.06248 19.5Z" stroke="#2F528F" stroke-width="1.33333" stroke-miterlimit="8" fill="url(#fill2)" fill-rule="evenodd" transform="matrix(-1 0 0 1 766.5 410.5)"/><text font-family="Yu Gothic,Yu Gothic_MSFontService,sans-serif" font-weight="400" font-size="24" transform="translate(947.788 500)">問題に対して</text><text font-family="Yu Gothic,Yu Gothic_MSFontService,sans-serif" font-weight="400" font-size="24" transform="translate(947.788 529)">やるべき事は何か？</text><path d="M330.07 201.789C327.16 194.338 342.139 187.477 363.525 186.463 372.191 186.053 381.002 186.667 388.548 188.207 396.544 182.956 415.229 180.96 430.282 183.749 432.914 184.237 435.33 184.855 437.454 185.585 443.681 181.232 458.85 179.464 471.334 181.635 474.789 182.236 477.803 183.105 480.144 184.175 490.182 180.059 507.918 179.551 519.76 183.04 524.737 184.506 528.092 186.529 529.248 188.761 545.694 190.324 555.396 196.246 550.918 201.988 550.542 202.471 550.069 202.944 549.505 203.403 562.694 209.386 559.466 217.961 542.293 222.556 536.947 223.987 530.633 224.913 523.96 225.245 523.812 231.682 508.704 236.858 490.215 236.806 484.038 236.789 477.995 236.177 472.755 235.038 466.501 242.254 444.688 246.333 424.034 244.148 415.378 243.233 407.899 241.296 402.873 238.669 381.726 243.113 354.278 240.723 341.566 233.329 341.405 233.236 341.248 233.143 341.093 233.048 327.254 233.613 314.717 230.172 313.093 225.363 312.227 222.799 314.655 220.234 319.731 218.349 307.748 215.891 303.722 210.496 310.74 206.298 314.789 203.877 321.89 202.276 329.859 201.988Z" fill="#DEEBF7" fill-rule="evenodd"/><path d="M344.905 297.337C344.905 298.319 344.11 299.115 343.128 299.115 342.146 299.115 341.35 298.319 341.35 297.337 341.35 296.355 342.146 295.56 343.128 295.56 344.11 295.56 344.905 296.355 344.905 297.337Z" fill="#DEEBF7" fill-rule="evenodd"/><path d="M364.765 280.173C364.765 282.136 363.173 283.728 361.21 283.728 359.246 283.728 357.654 282.136 357.654 280.173 357.654 278.209 359.246 276.617 361.21 276.617 363.173 276.617 364.765 278.209 364.765 280.173Z" fill="#DEEBF7" fill-rule="evenodd"/><path d="M387.203 260.561C387.203 263.506 384.816 265.894 381.87 265.894 378.925 265.894 376.537 263.506 376.537 260.561 376.537 257.615 378.925 255.227 381.87 255.227 384.816 255.227 387.203 257.615 387.203 260.561Z" fill="#DEEBF7" fill-rule="evenodd"/><path d="M330.07 201.789C327.16 194.338 342.139 187.477 363.525 186.463 372.191 186.053 381.002 186.667 388.548 188.207 396.544 182.956 415.229 180.96 430.282 183.749 432.914 184.237 435.33 184.855 437.454 185.585 443.681 181.232 458.85 179.464 471.334 181.635 474.789 182.236 477.803 183.105 480.144 184.175 490.182 180.059 507.918 179.551 519.76 183.04 524.737 184.506 528.092 186.529 529.248 188.761 545.694 190.324 555.396 196.246 550.918 201.988 550.542 202.471 550.069 202.944 549.505 203.403 562.694 209.386 559.466 217.961 542.293 222.556 536.947 223.987 530.633 224.913 523.96 225.245 523.812 231.682 508.704 236.858 490.215 236.806 484.038 236.789 477.995 236.177 472.755 235.038 466.501 242.254 444.688 246.333 424.034 244.148 415.378 243.233 407.899 241.296 402.873 238.669 381.726 243.113 354.278 240.723 341.566 233.329 341.405 233.236 341.248 233.143 341.093 233.048 327.254 233.613 314.717 230.172 313.093 225.363 312.227 222.799 314.655 220.234 319.731 218.349 307.748 215.891 303.722 210.496 310.74 206.298 314.789 203.877 321.89 202.276 329.859 201.988Z" stroke="#FF0000" stroke-width="3" stroke-miterlimit="8" fill="none" fill-rule="evenodd"/><path d="M344.905 297.337C344.905 298.319 344.11 299.115 343.128 299.115 342.146 299.115 341.35 298.319 341.35 297.337 341.35 296.355 342.146 295.56 343.128 295.56 344.11 295.56 344.905 296.355 344.905 297.337Z" stroke="#FF0000" stroke-width="3" stroke-miterlimit="8" fill="none" fill-rule="evenodd"/><path d="M364.765 280.173C364.765 282.136 363.173 283.728 361.21 283.728 359.246 283.728 357.654 282.136 357.654 280.173 357.654 278.209 359.246 276.617 361.21 276.617 363.173 276.617 364.765 278.209 364.765 280.173Z" stroke="#FF0000" stroke-width="3" stroke-miterlimit="8" fill="none" fill-rule="evenodd"/><path d="M387.203 260.561C387.203 263.506 384.816 265.894 381.87 265.894 378.925 265.894 376.537 263.506 376.537 260.561 376.537 257.615 378.925 255.227 381.87 255.227 384.816 255.227 387.203 257.615 387.203 260.561Z" stroke="#FF0000" stroke-width="3" stroke-miterlimit="8" fill="none" fill-rule="evenodd"/><path d="M334.659 219.281C329.543 219.42 324.427 219.008 319.999 218.1M347.593 232.202C345.535 232.488 343.379 232.678 341.179 232.767M402.859 238.411C401.311 237.602 400.016 236.738 398.994 235.833M474.323 231.983C474.095 232.942 473.578 233.89 472.78 234.812M505.006 214.506C516.605 216.473 523.925 220.586 523.822 225.077M549.387 203.247C547.508 204.776 544.64 206.133 541.008 207.211M529.282 188.539C529.603 189.156 529.751 189.783 529.725 190.411M475.776 186.355C476.867 185.491 478.313 184.687 480.068 183.967M435.631 187.493C436.076 186.779 436.775 186.087 437.71 185.434M388.519 188.192C391.249 188.749 393.775 189.42 396.041 190.189M331.383 203.891C330.787 203.204 330.348 202.501 330.07 201.789" stroke="#FF0000" stroke-width="3" stroke-miterlimit="8" fill="none" fill-rule="evenodd"/><text font-family="Yu Gothic,Yu Gothic_MSFontService,sans-serif" font-weight="700" font-size="24" transform="translate(363.081 218)">本来の目的</text><path d="M363.248 219.774 393.248 219.774 423.248 219.774 453.248 219.774 483.248 219.774 483.248 220.774 453.248 220.774 423.248 220.774 393.248 220.774 363.248 220.774Z" fill-rule="evenodd"/><path d="M938.933 508.386 900.167 508.386 900.167 456.5 900.833 456.5 900.833 508.053 900.5 507.72 938.933 507.72ZM893.833 456.5C893.833 452.818 896.818 449.833 900.5 449.833 904.182 449.833 907.167 452.818 907.167 456.5 907.167 460.182 904.182 463.167 900.5 463.167 896.818 463.167 893.833 460.182 893.833 456.5Z" fill="#F8CBAD"/><path d="M627 194 1172 194 1172 277.333 1155.33 294 627 294Z" fill="#FFF2CC" fill-rule="evenodd"/><path d="M1155.33 294 1158.67 280.666 1172 277.333Z" fill="#CDC3A4" fill-rule="evenodd"/><path d="M1151.45 293.03 1155.37 277.368 1185.04 269.95 1156.99 298 623 298 623 190 1176 190 1176 277.333 1173.33 277.333 1173.33 192.667 625.667 192.667 625.667 295.333 1155.89 295.333 1176.35 274.872 1157.57 279.567 1154.04 293.677ZM1156.63 294.323 1159.77 281.766 1167.65 279.794 1154.78 292.667 628.333 292.667 628.333 195.333 1170.67 195.333 1170.67 277.333 1168 277.333 1168 198 631 198 631 290 1153.68 290 1158.96 284.716 1161.96 283.965 1159.21 294.97Z" fill="#FF0000"/><text font-family="Yu Gothic,Yu Gothic_MSFontService,sans-serif" font-weight="700" font-size="24" transform="translate(637.043 229)">“本来の目的”を達成するための手段としての、</text><text font-family="Yu Gothic,Yu Gothic_MSFontService,sans-serif" font-weight="700" font-size="24" transform="translate(637.043 258)">IoT</text><text font-family="Yu Gothic,Yu Gothic_MSFontService,sans-serif" font-weight="700" font-size="24" transform="translate(674.709 258)">、</text><text font-family="Yu Gothic,Yu Gothic_MSFontService,sans-serif" font-weight="700" font-size="24" transform="translate(698.709 258)">Digital</text><text font-family="Yu Gothic,Yu Gothic_MSFontService,sans-serif" font-weight="700" font-size="24" transform="translate(781.709 258)">Twins</text><text font-family="Yu Gothic,Yu Gothic_MSFontService,sans-serif" font-weight="700" font-size="24" transform="translate(852.043 258)">、</text><text font-family="Yu Gothic,Yu Gothic_MSFontService,sans-serif" font-weight="700" font-size="24" transform="translate(876.043 258)">Digital Transformation</text></g></svg>