<svg width="1436" height="614" xmlns="http://www.w3.org/2000/svg" xmlns:xlink="http://www.w3.org/1999/xlink" overflow="hidden"><defs><filter id="fx0" x="-10%" y="-10%" width="120%" height="120%" filterUnits="userSpaceOnUse" primitiveUnits="userSpaceOnUse"><feComponentTransfer color-interpolation-filters="sRGB"><feFuncR type="discrete" tableValues="0 0"/><feFuncG type="discrete" tableValues="0 0"/><feFuncB type="discrete" tableValues="0 0"/><feFuncA type="linear" slope="0.431373" intercept="0"/></feComponentTransfer><feGaussianBlur stdDeviation="0.558453 0.558453"/></filter><filter id="fx1" x="-10%" y="-10%" width="120%" height="120%" filterUnits="userSpaceOnUse" primitiveUnits="userSpaceOnUse"><feComponentTransfer color-interpolation-filters="sRGB"><feFuncR type="discrete" tableValues="0 0"/><feFuncG type="discrete" tableValues="0 0"/><feFuncB type="discrete" tableValues="0 0"/><feFuncA type="linear" slope="0.431373" intercept="0"/></feComponentTransfer><feGaussianBlur stdDeviation="0.558453 0.558453"/></filter><filter id="fx2" x="-10%" y="-10%" width="120%" height="120%" filterUnits="userSpaceOnUse" primitiveUnits="userSpaceOnUse"><feComponentTransfer color-interpolation-filters="sRGB"><feFuncR type="discrete" tableValues="0 0"/><feFuncG type="discrete" tableValues="0 0"/><feFuncB type="discrete" tableValues="0 0"/><feFuncA type="linear" slope="0.431373" intercept="0"/></feComponentTransfer><feGaussianBlur stdDeviation="0.558453 0.558453"/></filter><clipPath id="clip3"><rect x="-158" y="81" width="1436" height="614"/></clipPath><linearGradient x1="345" y1="373.5" x2="345" y2="473.5" gradientUnits="userSpaceOnUse" spreadMethod="reflect" id="fill4"><stop offset="0" stop-color="#4472C4" stop-opacity="0.301961"/><stop offset="0.4" stop-color="#FFFFFF" stop-opacity="0.301961"/><stop offset="0.63" stop-color="#FFFFFF" stop-opacity="0.301961"/><stop offset="1" stop-color="#ED7D31" stop-opacity="0.301961"/></linearGradient><linearGradient x1="345" y1="177.5" x2="345" y2="276.5" gradientUnits="userSpaceOnUse" spreadMethod="reflect" id="fill5"><stop offset="0" stop-color="#4472C4"/><stop offset="0.4" stop-color="#FFFFFF" stop-opacity="0.901961"/><stop offset="0.63" stop-color="#FFFFFF" stop-opacity="0.501961"/><stop offset="1" stop-color="#ED7D31"/></linearGradient><linearGradient x1="0" y1="13" x2="63" y2="13" gradientUnits="userSpaceOnUse" spreadMethod="reflect" id="fill6"><stop offset="0" stop-color="#ED7D31" stop-opacity="0.501961"/><stop offset="0.4" stop-color="#FFFFFF" stop-opacity="0.501961"/><stop offset="0.63" stop-color="#FFFFFF" stop-opacity="0.501961"/><stop offset="1" stop-color="#FFC000" stop-opacity="0.501961"/></linearGradient><linearGradient x1="0" y1="13" x2="63" y2="13" gradientUnits="userSpaceOnUse" spreadMethod="reflect" id="fill7"><stop offset="0" stop-color="#ED7D31"/><stop offset="0.4" stop-color="#FFFFFF" stop-opacity="0.901961"/><stop offset="0.63" stop-color="#FFFFFF" stop-opacity="0.501961"/><stop offset="1" stop-color="#FFC000"/></linearGradient><clipPath id="clip8"><rect x="18" y="11" width="192" height="24"/></clipPath><clipPath id="clip9"><rect x="0" y="0" width="227" height="57"/></clipPath><linearGradient x1="0" y1="13" x2="144" y2="13" gradientUnits="userSpaceOnUse" spreadMethod="reflect" id="fill10"><stop offset="0" stop-color="#ED7D31"/><stop offset="0.4" stop-color="#FFFFFF" stop-opacity="0.901961"/><stop offset="0.63" stop-color="#FFFFFF" stop-opacity="0.501961"/><stop offset="1" stop-color="#FFC000"/></linearGradient><clipPath id="clip11"><rect x="18" y="12" width="75" height="25"/></clipPath><clipPath id="clip12"><rect x="0" y="0" width="111" height="57"/></clipPath><clipPath id="clip13"><rect x="16" y="12" width="181" height="21"/></clipPath><clipPath id="clip14"><rect x="0" y="0" width="215" height="57"/></clipPath></defs><g clip-path="url(#clip3)" transform="translate(158 -81)"><path d="M0 611 500 0 1000 611Z" stroke="#2F528F" stroke-width="1.33333" stroke-miterlimit="8" stroke-opacity="0.101961" fill="#4472C4" fill-rule="evenodd" fill-opacity="0.101961" transform="matrix(1 0 0 -1 -154.5 693.5)"/><rect x="208.5" y="289.5" width="269" height="76" stroke="#FF0000" stroke-width="3" stroke-miterlimit="8" stroke-opacity="0.301961" fill="#4472C4" fill-opacity="0.301961"/><text fill="#FFFFFF" fill-opacity="0.501961" font-family="Yu Gothic,Yu Gothic_MSFontService,sans-serif" font-weight="700" font-size="24" transform="translate(227.888 335)">目指す姿</text><text fill="#FFFFFF" font-family="Yu Gothic,Yu Gothic_MSFontService,sans-serif" font-weight="700" font-size="24" transform="translate(330.721 335)">⇒</text><text fill="#FFFFFF" font-family="Yu Gothic,Yu Gothic_MSFontService,sans-serif" font-weight="700" font-size="24" transform="translate(361.554 335)">現在の姿</text><path d="M319.5 399 345 373.5 370.5 399 357.75 399 357.75 448 370.5 448 345 473.5 319.5 448 332.25 448 332.25 399Z" stroke="#2F528F" stroke-width="1.33333" stroke-miterlimit="8" stroke-opacity="0.301961" fill="url(#fill4)" fill-rule="evenodd"/><text fill="#000000" fill-opacity="0.301961" font-family="Yu Gothic,Yu Gothic_MSFontService,sans-serif" font-weight="400" font-size="24" transform="translate(335.928 402)">G</text><text fill="#000000" fill-opacity="0.301961" font-family="Yu Gothic,Yu Gothic_MSFontService,sans-serif" font-weight="400" font-size="24" transform="translate(335.928 431)">A</text><text fill="#000000" fill-opacity="0.301961" font-family="Yu Gothic,Yu Gothic_MSFontService,sans-serif" font-weight="400" font-size="24" transform="translate(335.928 460)">P</text><path d="M319.5 203 345 177.5 370.5 203 357.75 203 357.75 251 370.5 251 345 276.5 319.5 251 332.25 251 332.25 203Z" stroke="#2F528F" stroke-width="1.33333" stroke-miterlimit="8" fill="url(#fill5)" fill-rule="evenodd"/><text font-family="Yu Gothic,Yu Gothic_MSFontService,sans-serif" font-weight="400" font-size="24" transform="translate(335.928 205)">G</text><text font-family="Yu Gothic,Yu Gothic_MSFontService,sans-serif" font-weight="400" font-size="24" transform="translate(335.928 234)">A</text><text font-family="Yu Gothic,Yu Gothic_MSFontService,sans-serif" font-weight="400" font-size="24" transform="translate(335.928 263)">P</text><rect x="208.5" y="89.5001" width="269" height="76" stroke="#FF0000" stroke-width="3" stroke-miterlimit="8" fill="#4472C4"/><text fill="#FFFFFF" font-family="Yu Gothic,Yu Gothic_MSFontService,sans-serif" font-weight="700" font-size="24" transform="translate(294.721 134)">目指す姿</text><rect x="208.5" y="486.5" width="269" height="76" stroke="#FF0000" stroke-width="3" stroke-miterlimit="8" stroke-opacity="0.501961" fill="#ED7D31" fill-opacity="0.501961"/><text fill="#FFFFFF" fill-opacity="0.501961" font-family="Yu Gothic,Yu Gothic_MSFontService,sans-serif" font-weight="700" font-size="24" transform="translate(234.721 532)">現在の姿</text><text fill="#FFFFFF" font-family="Yu Gothic,Yu Gothic_MSFontService,sans-serif" font-weight="700" font-size="24" transform="translate(330.721 532)">⇒</text><text fill="#FFFFFF" font-family="Yu Gothic,Yu Gothic_MSFontService,sans-serif" font-weight="700" font-size="24" transform="translate(354.721 532)">過去の姿</text><path d="M395.5 423.5 414.5 404.5 414.5 414 446.326 414 446.326 385.5 695.5 385.5 695.5 461.5 446.326 461.5 446.326 433 414.5 433 414.5 442.5Z" stroke="#FF0000" stroke-width="1.33333" stroke-miterlimit="8" stroke-opacity="0.501961" fill="#FFE699" fill-rule="evenodd" fill-opacity="0.501961"/><text fill="#000000" fill-opacity="0.501961" font-family="Yu Gothic,Yu Gothic_MSFontService,sans-serif" font-weight="700" font-size="24" transform="translate(546.444 430)">問題</text><path d="M775.5 385.5 1025.5 385.5 1025.5 446.448C900.5 446.448 900.5 469.67 775.5 456.476Z" stroke="#FF0000" stroke-width="1.33333" stroke-miterlimit="8" stroke-opacity="0.501961" fill="#F4B183" fill-rule="evenodd" fill-opacity="0.501961"/><text fill="#000000" fill-opacity="0.501961" font-family="Yu Gothic,Yu Gothic_MSFontService,sans-serif" font-weight="700" font-size="24" transform="translate(875.755 423)">課題</text><path d="M0 6.50002 0.81251 6.50002 0.81251 19.5 0 19.5ZM1.62502 6.50002 3.24997 6.50002 3.24997 19.5 1.62502 19.5ZM4.06248 6.50002 50 6.50002 50 0 63 13 50 26 50 19.5 4.06248 19.5Z" stroke="#FF0000" stroke-width="1.33333" stroke-miterlimit="8" stroke-opacity="0.501961" fill="url(#fill6)" fill-rule="evenodd" transform="matrix(-1 0 0 1 766.5 410.5)"/><path d="M395.5 227.5 414.5 208.5 414.5 218 446.326 218 446.326 189.5 695.5 189.5 695.5 265.5 446.326 265.5 446.326 237 414.5 237 414.5 246.5Z" stroke="#FF0000" stroke-width="1.33333" stroke-miterlimit="8" fill="#FFE699" fill-rule="evenodd"/><text font-family="Yu Gothic,Yu Gothic_MSFontService,sans-serif" font-weight="700" font-size="24" transform="translate(546.444 234)">問題</text><path d="M775.5 189.5 1025.5 189.5 1025.5 250.448C900.5 250.448 900.5 273.67 775.5 260.476Z" stroke="#2F528F" stroke-width="1.33333" stroke-miterlimit="8" fill="#F4B183" fill-rule="evenodd"/><text font-family="Yu Gothic,Yu Gothic_MSFontService,sans-serif" font-weight="700" font-size="24" transform="translate(875.755 227)">課題</text><path d="M0 6.50002 0.81251 6.50002 0.81251 19.5 0 19.5ZM1.62502 6.50002 3.24997 6.50002 3.24997 19.5 1.62502 19.5ZM4.06248 6.50002 50 6.50002 50 0 63 13 50 26 50 19.5 4.06248 19.5Z" stroke="#2F528F" stroke-width="1.33333" stroke-miterlimit="8" fill="url(#fill7)" fill-rule="evenodd" transform="matrix(-1 0 0 1 766.5 214.5)"/><g clip-path="url(#clip8)" filter="url(#fx0)" transform="translate(19 399)"><g clip-path="url(#clip9)"><path d="M13.8281-20.1328C14.5781-20.0234 15.3398-19.8633 16.1133-19.6523 16.4336-19.582 16.5938-19.4727 16.5938-19.3242 16.5938-19.1992 16.5391-19.0703 16.4297-18.9375 16.2578-18.7188 16.1055-18.3125 15.9727-17.7188 15.6055-16.4844 15.4102-15.8437 15.3867-15.7969L19.4414-15.7969 22.6406-15.8438C22.7656-15.8437 22.8398-15.8281 22.8633-15.7969 22.8867-15.7656 22.8984-15.6953 22.8984-15.5859L22.8984-13.8516C22.8984-13.7266 22.8828-13.6523 22.8516-13.6289 22.8203-13.6055 22.75-13.5937 22.6406-13.5938 22.625-13.5937 22.4336-13.5977 22.0664-13.6055 21.6836-13.6211 21.2656-13.6328 20.8125-13.6406 20.6016-10.0547 19.7148-7.02344 18.1523-4.54688 19.4648-3.07031 21.2227-1.76562 23.4258-0.632812 23.0039-0.179688 22.6367 0.378906 22.3242 1.04297 22.1445 1.41016 21.9844 1.59375 21.8438 1.59375 21.7109 1.59375 21.5195 1.51562 21.2695 1.35938 19.5742 0.273438 18.0547-1.06641 16.7109-2.66016 15.1016-0.878906 13.1641 0.523438 10.8984 1.54688 10.5938 1.67187 10.3945 1.73437 10.3008 1.73438 10.1914 1.73437 10.0547 1.59766 9.89062 1.32422 9.53125 0.699219 9.11719 0.171875 8.64844-0.257812 11.3359-1.19531 13.5352-2.64062 15.2461-4.59375 14.1992-6.25781 13.4375-8.13281 12.9609-10.2188 12.6797-9.73438 12.3437-9.22266 11.9531-8.68359 11.75-8.41016 11.6016-8.27344 11.5078-8.27344 11.4141-8.27344 11.2617-8.42578 11.0508-8.73047 10.7383-9.12109 10.4648-9.42188 10.2305-9.63281L10.2539-8.98828C10.2539-8.86328 10.2344-8.78906 10.1953-8.76562 10.1641-8.74219 10.0859-8.73047 9.96094-8.73047L8.08594-8.73047C7.96094-8.73047 7.88672-8.74609 7.86328-8.77734 7.83984-8.80859 7.82812-8.87891 7.82812-8.98828L7.82812-9.92578 4.34766-9.92578 4.34766-4.5C4.34766-3.90625 4.41797-3.55859 4.55859-3.45703 4.80859-3.26172 5.34766-3.16406 6.17578-3.16406 7.41797-3.16406 8.19922-3.34766 8.51953-3.71484 8.70703-3.92578 8.83984-4.25781 8.91797-4.71094 8.97266-5.08594 9.01953-5.71094 9.05859-6.58594 9.53516-6.28125 10.0625-6.05859 10.6406-5.91797 10.9766-5.82422 11.1758-5.75 11.2383-5.69531 11.3242-5.63281 11.3672-5.52344 11.3672-5.36719 11.3672-5.28906 11.3594-5.16016 11.3438-4.98047 11.2344-3.43359 10.8398-2.35547 10.1602-1.74609 9.73828-1.37109 9.125-1.11719 8.32031-0.984375 7.71094-0.882812 6.86719-0.832031 5.78906-0.832031 4.0625-0.832031 2.98828-1.03125 2.56641-1.42969 2.16797-1.78125 1.96875-2.42188 1.96875-3.35156L1.96875-9.39844 1.92188-11.9414C1.92187-12.082 1.94141-12.168 1.98047-12.1992 2.01172-12.2227 2.08984-12.2344 2.21484-12.2344L4.37109-12.1875 7.82812-12.1875 7.82812-16.0781 4.23047-16.0781 1.75781-16.0312C1.625-16.0312 1.54687-16.0508 1.52344-16.0898 1.5-16.1211 1.48828-16.1992 1.48828-16.3242L1.48828-18.1523C1.48828-18.2773 1.50391-18.3516 1.53516-18.375 1.56641-18.3984 1.64062-18.4102 1.75781-18.4102L4.23047-18.3633 7.41797-18.3633 9.96094-18.4102C10.1016-18.4102 10.1875-18.3945 10.2188-18.3633 10.2422-18.332 10.2539-18.2617 10.2539-18.1523L10.207-15.75 10.207-10.3828C11.8164-12.4453 12.9297-15 13.5469-18.0469 13.7266-19.1797 13.8203-19.875 13.8281-20.1328ZM18.3867-13.6406 14.625-13.6406C14.6094-13.6094 14.5859-13.5469 14.5547-13.4531 14.5391-13.3828 14.5234-13.332 14.5078-13.3008 14.9141-10.582 15.625-8.35156 16.6406-6.60938 17.6094-8.42188 18.1914-10.7656 18.3867-13.6406ZM28.6523-5.68359 25.6289-5.63672C25.4961-5.63672 25.418-5.65234 25.3945-5.68359 25.3711-5.71484 25.3594-5.78516 25.3594-5.89453L25.3594-7.39453C25.3594-7.51953 25.375-7.59375 25.4062-7.61719 25.4375-7.64062 25.5117-7.65234 25.6289-7.65234L28.6523-7.60547 29.9883-7.60547C29.7383-8.05859 29.4609-8.49609 29.1562-8.91797 29.0937-8.99609 29.0625-9.05859 29.0625-9.10547 29.0625-9.17578 29.1484-9.23438 29.3203-9.28125L30.6914-9.64453C30.8164-9.67578 30.9062-9.69141 30.9609-9.69141 31.0469-9.69141 31.1406-9.63281 31.2422-9.51562 31.6953-8.96875 32.1172-8.33203 32.5078-7.60547L34.6289-7.60547 34.6289-9.85547 28.7461-9.85547 25.7227-9.80859C25.5977-9.80859 25.5195-9.82422 25.4883-9.85547 25.4648-9.89453 25.4531-9.97656 25.4531-10.1016L25.4531-11.5078C25.4531-11.6406 25.4687-11.7188 25.5-11.7422 25.5312-11.7656 25.6055-11.7773 25.7227-11.7773L28.7461-11.7305 34.6289-11.7305 34.6289-12.9844 31.4766-12.9844 28.1719-12.9375C28.0391-12.9375 27.9609-12.9531 27.9375-12.9844 27.9141-13.0156 27.9023-13.0859 27.9023-13.1953L27.9023-14.4961C27.9023-14.6211 27.918-14.6953 27.9492-14.7188 27.9805-14.7422 28.0547-14.7539 28.1719-14.7539L31.4766-14.707 34.6289-14.707 34.6289-15.9141 30.1172-15.9141 26.8945-15.8672C26.7695-15.8672 26.6953-15.8828 26.6719-15.9141 26.6484-15.9453 26.6367-16.0195 26.6367-16.1367L26.6367-17.543C26.6367-17.6758 26.6523-17.7539 26.6836-17.7773 26.7148-17.8008 26.7852-17.8125 26.8945-17.8125L30.1172-17.7656 31.5469-17.7656C31.1875-18.3672 30.8281-18.8867 30.4688-19.3242 30.3906-19.4258 30.3516-19.4961 30.3516-19.5352 30.3516-19.582 30.4414-19.6328 30.6211-19.6875L32.1562-20.1211C32.2656-20.1523 32.3398-20.168 32.3789-20.168 32.4492-20.168 32.5234-20.1211 32.6016-20.0273 33.2109-19.3242 33.7344-18.5703 34.1719-17.7656L37.5234-17.7656C37.7109-18.0547 37.9688-18.4961 38.2969-19.0898 38.4609-19.4102 38.5977-19.7695 38.707-20.168 39.5195-20.0195 40.2539-19.8359 40.9102-19.6172 41.082-19.5625 41.168-19.4648 41.168-19.3242 41.168-19.1914 41.0977-19.082 40.957-18.9961 40.7852-18.8711 40.6328-18.7031 40.5-18.4922 40.3516-18.2422 40.1836-18 39.9961-17.7656L41.9414-17.7656 45.1641-17.8125C45.2891-17.8125 45.3633-17.7969 45.3867-17.7656 45.4102-17.7344 45.4219-17.6602 45.4219-17.543L45.4219-16.1367C45.4219-16.0039 45.4062-15.9258 45.375-15.9023 45.3438-15.8789 45.2734-15.8672 45.1641-15.8672L41.9414-15.9141 37.0781-15.9141 37.0781-14.707 40.582-14.707 43.8867-14.7539C44.0117-14.7539 44.0898-14.7383 44.1211-14.707 44.1445-14.6758 44.1562-14.6055 44.1562-14.4961L44.1562-13.1953C44.1562-13.0703 44.1367-12.9961 44.0977-12.9727 44.0742-12.9492 44.0039-12.9375 43.8867-12.9375L40.582-12.9844 37.0781-12.9844 37.0781-11.7305 43.3594-11.7305 46.3828-11.7773C46.5234-11.7773 46.6094-11.7617 46.6406-11.7305 46.6641-11.6992 46.6758-11.625 46.6758-11.5078L46.6758-10.1016C46.6758-9.96094 46.6562-9.875 46.6172-9.84375 46.5859-9.82031 46.5078-9.80859 46.3828-9.80859L43.3594-9.85547 37.0781-9.85547 37.0781-7.60547 39.3516-7.60547C39.5234-7.85547 39.7148-8.19141 39.9258-8.61328 40.1211-8.95703 40.2734-9.33203 40.3828-9.73828 41.2344-9.57422 41.9531-9.39062 42.5391-9.1875 42.7109-9.125 42.7969-9.02734 42.7969-8.89453 42.7969-8.78516 42.7188-8.68359 42.5625-8.58984 42.3984-8.46484 42.25-8.29688 42.1172-8.08594L41.8008-7.60547 43.4062-7.60547 46.4062-7.65234C46.5469-7.65234 46.6328-7.63672 46.6641-7.60547 46.6875-7.57422 46.6992-7.50391 46.6992-7.39453L46.6992-5.89453C46.6992-5.77734 46.6836-5.70508 46.6523-5.67773 46.6211-5.65039 46.5391-5.63672 46.4062-5.63672L43.4062-5.68359ZM30.457 1.89844 28.6172 1.89844C28.4922 1.89844 28.418 1.88281 28.3945 1.85156 28.3711 1.82031 28.3594 1.74609 28.3594 1.62891L28.3945-1.44141 28.3945-2.56641 28.3594-4.33594C28.3594-4.46875 28.375-4.54688 28.4062-4.57031 28.4375-4.59375 28.5078-4.60547 28.6172-4.60547L31.9453-4.55859 40.0898-4.55859 43.4062-4.60547C43.5469-4.60547 43.6289-4.58984 43.6523-4.55859 43.6836-4.52734 43.6992-4.45312 43.6992-4.33594L43.6406-2.82422 43.6406-1.46484 43.6992 1.55859C43.6992 1.68359 43.6797 1.76172 43.6406 1.79297 43.6094 1.81641 43.5273 1.82812 43.3945 1.82812L41.5547 1.82812C41.4219 1.82812 41.3438 1.8125 41.3203 1.78125 41.2969 1.75 41.2852 1.67578 41.2852 1.55859L41.2852 0.960938 30.75 0.960938 30.75 1.62891C30.75 1.76172 30.7305 1.83984 30.6914 1.86328 30.6602 1.88672 30.582 1.89844 30.457 1.89844ZM30.75-2.70703 30.75-0.9375 41.2852-0.9375 41.2852-2.70703ZM59.9766-11.5195C60.6875-11.5195 61.2812-11.2539 61.7578-10.7227 62.1719-10.2695 62.3789-9.73438 62.3789-9.11719 62.3789-8.40625 62.1133-7.8125 61.582-7.33594 61.1289-6.92187 60.5937-6.71484 59.9766-6.71484 59.2656-6.71484 58.6719-6.98047 58.1953-7.51172 57.7812-7.96484 57.5742-8.5 57.5742-9.11719 57.5742-9.82812 57.8398-10.4219 58.3711-10.8984 58.8242-11.3125 59.3594-11.5195 59.9766-11.5195ZM85.8281-20.1328C86.5781-20.0234 87.3398-19.8633 88.1133-19.6523 88.4336-19.582 88.5938-19.4727 88.5938-19.3242 88.5938-19.1992 88.5391-19.0703 88.4297-18.9375 88.2578-18.7188 88.1055-18.3125 87.9727-17.7188 87.6055-16.4844 87.4102-15.8437 87.3867-15.7969L91.4414-15.7969 94.6406-15.8438C94.7656-15.8437 94.8398-15.8281 94.8633-15.7969 94.8867-15.7656 94.8984-15.6953 94.8984-15.5859L94.8984-13.8516C94.8984-13.7266 94.8828-13.6523 94.8516-13.6289 94.8203-13.6055 94.75-13.5937 94.6406-13.5938 94.625-13.5937 94.4336-13.5977 94.0664-13.6055 93.6836-13.6211 93.2656-13.6328 92.8125-13.6406 92.6016-10.0547 91.7148-7.02344 90.1523-4.54688 91.4648-3.07031 93.2227-1.76562 95.4258-0.632812 95.0039-0.179688 94.6367 0.378906 94.3242 1.04297 94.1445 1.41016 93.9844 1.59375 93.8438 1.59375 93.7109 1.59375 93.5195 1.51562 93.2695 1.35938 91.5742 0.273438 90.0547-1.06641 88.7109-2.66016 87.1016-0.878906 85.1641 0.523438 82.8984 1.54688 82.5938 1.67187 82.3945 1.73437 82.3008 1.73438 82.1914 1.73437 82.0547 1.59766 81.8906 1.32422 81.5312 0.699219 81.1172 0.171875 80.6484-0.257812 83.3359-1.19531 85.5352-2.64062 87.2461-4.59375 86.1992-6.25781 85.4375-8.13281 84.9609-10.2188 84.6797-9.73438 84.3438-9.22266 83.9531-8.68359 83.75-8.41016 83.6016-8.27344 83.5078-8.27344 83.4141-8.27344 83.2617-8.42578 83.0508-8.73047 82.7383-9.12109 82.4648-9.42188 82.2305-9.63281L82.2539-8.98828C82.2539-8.86328 82.2344-8.78906 82.1953-8.76562 82.1641-8.74219 82.0859-8.73047 81.9609-8.73047L80.0859-8.73047C79.9609-8.73047 79.8867-8.74609 79.8633-8.77734 79.8398-8.80859 79.8281-8.87891 79.8281-8.98828L79.8281-9.92578 76.3477-9.92578 76.3477-4.5C76.3477-3.90625 76.418-3.55859 76.5586-3.45703 76.8086-3.26172 77.3477-3.16406 78.1758-3.16406 79.418-3.16406 80.1992-3.34766 80.5195-3.71484 80.707-3.92578 80.8398-4.25781 80.918-4.71094 80.9727-5.08594 81.0195-5.71094 81.0586-6.58594 81.5352-6.28125 82.0625-6.05859 82.6406-5.91797 82.9766-5.82422 83.1758-5.75 83.2383-5.69531 83.3242-5.63281 83.3672-5.52344 83.3672-5.36719 83.3672-5.28906 83.3594-5.16016 83.3438-4.98047 83.2344-3.43359 82.8398-2.35547 82.1602-1.74609 81.7383-1.37109 81.125-1.11719 80.3203-0.984375 79.7109-0.882812 78.8672-0.832031 77.7891-0.832031 76.0625-0.832031 74.9883-1.03125 74.5664-1.42969 74.168-1.78125 73.9688-2.42188 73.9688-3.35156L73.9688-9.39844 73.9219-11.9414C73.9219-12.082 73.9414-12.168 73.9805-12.1992 74.0117-12.2227 74.0898-12.2344 74.2148-12.2344L76.3711-12.1875 79.8281-12.1875 79.8281-16.0781 76.2305-16.0781 73.7578-16.0312C73.625-16.0312 73.5469-16.0508 73.5234-16.0898 73.5-16.1211 73.4883-16.1992 73.4883-16.3242L73.4883-18.1523C73.4883-18.2773 73.5039-18.3516 73.5352-18.375 73.5664-18.3984 73.6406-18.4102 73.7578-18.4102L76.2305-18.3633 79.418-18.3633 81.9609-18.4102C82.1016-18.4102 82.1875-18.3945 82.2188-18.3633 82.2422-18.332 82.2539-18.2617 82.2539-18.1523L82.207-15.75 82.207-10.3828C83.8164-12.4453 84.9297-15 85.5469-18.0469 85.7266-19.1797 85.8203-19.875 85.8281-20.1328ZM90.3867-13.6406 86.625-13.6406C86.6094-13.6094 86.5859-13.5469 86.5547-13.4531 86.5391-13.3828 86.5234-13.332 86.5078-13.3008 86.9141-10.582 87.625-8.35156 88.6406-6.60938 89.6094-8.42188 90.1914-10.7656 90.3867-13.6406ZM100.594-1.67578 97.5938-1.62891C97.4609-1.62891 97.3828-1.64453 97.3594-1.67578 97.3359-1.70703 97.3242-1.77734 97.3242-1.88672L97.3242-3.59766C97.3242-3.73047 97.3398-3.8125 97.3711-3.84375 97.4023-3.86719 97.4766-3.87891 97.5938-3.87891L100.594-3.83203 106.664-3.83203 106.664-5.40234 103.488-5.40234 100.16-5.35547C99.9805-5.35547 99.8906-5.43359 99.8906-5.58984L99.9375-7.39453 99.9375-9.36328 99.8906-11.1094C99.8906-11.25 99.9062-11.3359 99.9375-11.3672 99.9687-11.3906 100.043-11.4023 100.16-11.4023L103.488-11.3555 106.664-11.3555 106.664-12.8438 106.137-12.8438 103.406-12.7852C103.273-12.7852 103.195-12.8008 103.172-12.832 103.148-12.8633 103.137-12.9336 103.137-13.043L103.184-15.3398 103.184-15.9609 100.641-15.9609 97.6406-15.9141C97.5-15.9141 97.4141-15.9297 97.3828-15.9609 97.3594-15.9922 97.3476-16.0625 97.3477-16.1719L97.3477-17.8594C97.3476-17.9922 97.3672-18.0742 97.4062-18.1055 97.4375-18.1289 97.5156-18.1406 97.6406-18.1406L100.641-18.0938 103.184-18.0938C103.184-18.8438 103.133-19.5312 103.031-20.1562 104.07-20.125 104.871-20.0781 105.434-20.0156 105.66-19.9922 105.773-19.9102 105.773-19.7695 105.773-19.7148 105.754-19.6445 105.715-19.5586 105.668-19.457 105.641-19.3945 105.633-19.3711 105.562-19.1992 105.527-18.7734 105.527-18.0938L110.379-18.0938C110.379-18.8672 110.332-19.5547 110.238-20.1562 111.277-20.125 112.074-20.0781 112.629-20.0156 112.855-19.9922 112.969-19.9102 112.969-19.7695 112.969-19.7305 112.922-19.5977 112.828-19.3711 112.766-19.2383 112.734-18.8125 112.734-18.0938L115.371-18.0938 118.371-18.1406C118.512-18.1406 118.594-18.1211 118.617-18.082 118.648-18.0508 118.664-17.9766 118.664-17.8594L118.664-16.1719C118.664-16.0469 118.645-15.9727 118.605-15.9492 118.574-15.9258 118.496-15.9141 118.371-15.9141L115.371-15.9609 112.734-15.9609 112.734-15.3398 112.781-13.043C112.781-12.918 112.766-12.8437 112.734-12.8203 112.695-12.7969 112.613-12.7852 112.488-12.7852L109.781-12.8438 109.09-12.8438 109.09-11.3555 112.488-11.3555 115.828-11.4023C115.969-11.4023 116.055-11.3828 116.086-11.3438 116.109-11.3125 116.121-11.2344 116.121-11.1094L116.062-9.36328 116.062-7.39453 116.121-5.58984C116.121-5.48047 116.105-5.41406 116.074-5.39062 116.043-5.36719 115.961-5.35547 115.828-5.35547L112.488-5.40234 109.09-5.40234 109.09-3.83203 115.418-3.83203 118.418-3.87891C118.559-3.87891 118.645-3.85937 118.676-3.82031 118.699-3.78906 118.711-3.71484 118.711-3.59766L118.711-1.88672C118.711-1.76953 118.695-1.69727 118.664-1.66992 118.633-1.64258 118.551-1.62891 118.418-1.62891L115.418-1.67578 109.09-1.67578 109.09-1.62891 109.137 1.73438C109.137 1.85937 109.121 1.93359 109.09 1.95703 109.059 1.98047 108.984 1.99219 108.867 1.99219L106.852 1.99219C106.695 1.99219 106.617 1.90625 106.617 1.73438L106.664-1.62891 106.664-1.67578ZM113.672-7.27734 113.672-9.48047 109.09-9.48047 109.09-7.27734ZM102.34-7.27734 106.664-7.27734 106.664-9.48047 102.34-9.48047ZM110.379-14.5664 110.379-15.9609 105.527-15.9609 105.527-14.5664ZM133.535-14.707C132.934-10.2617 131.934-6.81641 130.535-4.37109 129.48-2.52734 128.117-1.60547 126.445-1.60547 125.234-1.60547 124.211-2.21484 123.375-3.43359 122.594-4.58984 122.203-6.03516 122.203-7.76953 122.203-10.1211 123.105-12.2031 124.91-14.0156 126.957-16.0625 129.559-17.0859 132.715-17.0859 135.723-17.0859 138.066-16.1953 139.746-14.4141 141.152-12.9141 141.855-11.0312 141.855-8.76562 141.855-4.42188 139.391-1.50781 134.461-0.0234375 134.32 0.015625 134.203 0.0351562 134.109 0.0351562 133.875 0.0351562 133.648-0.128906 133.43-0.457031 133.086-0.996094 132.527-1.5 131.754-1.96875 134.223-2.55469 136.02-3.37891 137.145-4.44141 138.379-5.60547 138.996-7.17187 138.996-9.14062 138.996-10.7422 138.438-12.0938 137.32-13.1953 136.305-14.2031 135.074-14.707 133.629-14.707ZM130.746-14.5664C129.035-14.2227 127.668-13.4961 126.645-12.3867 125.395-10.9805 124.77-9.5 124.77-7.94531 124.77-6.84375 124.969-5.95703 125.367-5.28516 125.68-4.76953 126.023-4.51172 126.398-4.51172 127.055-4.51172 127.656-5 128.203-5.97656 128.789-7.04687 129.324-8.42188 129.809-10.1016 130.246-11.625 130.559-13.1133 130.746-14.5664ZM144.996-9.89062C145.496-9.83594 145.957-9.80859 146.379-9.80859 146.527-9.80859 146.68-9.80859 146.836-9.80859 147.141-10.1992 147.582-10.793 148.16-11.5898 147.285-12.7852 146.238-13.9766 145.02-15.1641 144.941-15.2422 144.902-15.3125 144.902-15.375 144.902-15.4219 144.957-15.5273 145.066-15.6914L145.957-16.8633C146.059-17.0039 146.141-17.0742 146.203-17.0742 146.25-17.0742 146.309-17.0312 146.379-16.9453L146.965-16.3359C147.488-17.1953 147.957-18.0781 148.371-18.9844 148.59-19.4531 148.734-19.875 148.805-20.25 149.539-19.9766 150.203-19.6914 150.797-19.3945 151.008-19.2773 151.113-19.1484 151.113-19.0078 151.113-18.8828 151.043-18.7773 150.902-18.6914 150.754-18.5977 150.602-18.4062 150.445-18.1172 149.68-16.7422 148.988-15.6289 148.371-14.7773 148.84-14.2539 149.195-13.8477 149.438-13.5586 149.805-14.1367 150.324-15.0156 150.996-16.1953 151.285-16.75 151.508-17.2539 151.664-17.707 152.516-17.3945 153.18-17.0977 153.656-16.8164 153.844-16.7148 153.938-16.6055 153.938-16.4883 153.938-16.3555 153.852-16.2266 153.68-16.1016 153.516-15.9844 153.266-15.6719 152.93-15.1641 151.742-13.2578 150.535-11.5078 149.309-9.91406L151.734-10.0547C151.586-10.5391 151.398-11.0352 151.172-11.543 151.141-11.6133 151.125-11.668 151.125-11.707 151.125-11.793 151.219-11.875 151.406-11.9531L152.484-12.4102C152.586-12.457 152.656-12.4805 152.695-12.4805 152.75-12.4805 152.805-12.4102 152.859-12.2695 153.375-11.1992 153.863-9.8125 154.324-8.10938L154.324-15.7617C154.324-16.9961 154.27-18.1406 154.16-19.1953 154.887-19.1719 155.68-19.1094 156.539-19.0078 156.766-18.9609 156.879-18.8711 156.879-18.7383 156.879-18.6289 156.828-18.4766 156.727-18.2812 156.648-18.1016 156.609-17.4805 156.609-16.418L156.609-1.62891 163.91-1.62891 166.711-1.67578C166.836-1.67578 166.914-1.66016 166.945-1.62891 166.969-1.59766 166.98-1.52734 166.98-1.41797L166.98 0.386719C166.98 0.503906 166.967 0.576172 166.939 0.603516 166.912 0.630859 166.836 0.644531 166.711 0.644531L163.91 0.597656 156.609 0.597656 156.609 1.55859C156.609 1.68359 156.594 1.76172 156.562 1.79297 156.531 1.81641 156.457 1.82812 156.34 1.82812L154.535 1.82812C154.41 1.82812 154.336 1.80859 154.312 1.76953 154.289 1.74609 154.277 1.67578 154.277 1.55859L154.324-1.72266 154.324-7.60547C154.262-7.54297 154.184-7.50391 154.09-7.48828L152.906-7.05469C152.766-7 152.676-6.97266 152.637-6.97266 152.559-6.97266 152.508-7.05469 152.484-7.21875 152.398-7.64062 152.316-7.99219 152.238-8.27344L150.902-8.10938 150.902-1.51172 150.949 1.62891C150.949 1.75391 150.934 1.83203 150.902 1.86328 150.871 1.88672 150.801 1.89844 150.691 1.89844L148.863 1.89844C148.73 1.89844 148.652 1.87891 148.629 1.83984 148.605 1.81641 148.594 1.74609 148.594 1.62891L148.641-1.51172 148.641-7.89844 146.836-7.74609C146.406-7.72266 146.105-7.66016 145.934-7.55859 145.801-7.49609 145.68-7.46484 145.57-7.46484 145.414-7.46484 145.309-7.59375 145.254-7.85156 145.16-8.34375 145.074-9.02344 144.996-9.89062ZM160.594-19.8516C161.062-19.8359 161.766-19.7695 162.703-19.6523 163.008-19.6055 163.16-19.5195 163.16-19.3945 163.16-19.3086 163.113-19.1719 163.02-18.9844 162.918-18.7422 162.867-18.1094 162.867-17.0859L162.867-12.2695 163.734-12.2695 166.441-12.3164C166.566-12.3164 166.645-12.2969 166.676-12.2578 166.699-12.2266 166.711-12.1484 166.711-12.0234L166.711-10.3711C166.711-10.207 166.621-10.125 166.441-10.125L163.734-10.1719 163.348-10.1719C164.184-8.54688 165.375-7.06641 166.922-5.73047 166.578-5.32422 166.289-4.87109 166.055-4.37109 165.938-4.11328 165.82-3.98437 165.703-3.98438 165.602-3.98437 165.465-4.07031 165.293-4.24219 164.191-5.44531 163.344-6.80859 162.75-8.33203L162.867-2.61328C162.867-2.49609 162.854-2.42383 162.826-2.39648 162.799-2.36914 162.723-2.35547 162.598-2.35547L160.922-2.35547C160.797-2.35547 160.723-2.37109 160.699-2.40234 160.676-2.43359 160.664-2.50391 160.664-2.61328 160.664-2.72266 160.676-3.03125 160.699-3.53906 160.777-5.03125 160.82-6.57812 160.828-8.17969 160.234-6.6875 159.441-5.37109 158.449-4.23047 158.254-4.00391 158.105-3.89062 158.004-3.89062 157.91-3.89062 157.781-4.01172 157.617-4.25391 157.305-4.77734 156.992-5.16016 156.68-5.40234 158.281-6.83984 159.441-8.42969 160.16-10.1719L157.465-10.125C157.293-10.125 157.207-10.207 157.207-10.3711L157.207-12.0234C157.207-12.1641 157.223-12.25 157.254-12.2812 157.285-12.3047 157.355-12.3164 157.465-12.3164L160.207-12.2695 160.734-12.2695 160.734-16.875C160.734-17.9453 160.688-18.9375 160.594-19.8516ZM144.867-0.597656C145.406-1.89453 145.734-3.35156 145.852-4.96875 145.891-5.39062 145.91-5.75781 145.91-6.07031 145.91-6.21875 145.906-6.36328 145.898-6.50391 146.734-6.36328 147.352-6.23437 147.75-6.11719 148.023-6.05469 148.16-5.96094 148.16-5.83594 148.16-5.71094 148.121-5.58984 148.043-5.47266 147.965-5.34766 147.898-5.05078 147.844-4.58203 147.609-2.67578 147.348-1.23437 147.059-0.257812 146.934 0.125 146.828 0.316406 146.742 0.316406 146.68 0.316406 146.496 0.21875 146.191 0.0234375 145.723-0.265625 145.281-0.472656 144.867-0.597656ZM152.719-6.48047C152.82-6.51172 152.891-6.52734 152.93-6.52734 153.016-6.52734 153.082-6.45703 153.129-6.31641 153.504-5.27734 153.809-3.875 154.043-2.10938 154.051-2.05469 154.055-2.01172 154.055-1.98047 154.055-1.86328 153.953-1.76953 153.75-1.69922L152.52-1.30078C152.395-1.25391 152.309-1.23047 152.262-1.23047 152.191-1.23047 152.152-1.30859 152.145-1.46484 151.973-3.21484 151.715-4.67188 151.371-5.83594 151.348-5.91406 151.336-5.96875 151.336-6 151.336-6.07812 151.426-6.14062 151.605-6.1875ZM163.184-13.8398C163.754-15.0117 164.137-16.1328 164.332-17.2031 164.395-17.4453 164.449-17.7734 164.496-18.1875 165.262-17.9922 165.887-17.793 166.371-17.5898 166.566-17.5039 166.664-17.4062 166.664-17.2969 166.664-17.2188 166.609-17.125 166.5-17.0156 166.43-16.9531 166.348-16.7773 166.254-16.4883 166.043-15.7305 165.723-14.832 165.293-13.793 165.137-13.3945 164.984-13.1953 164.836-13.1953 164.734-13.1953 164.551-13.2656 164.285-13.4062 164.012-13.5781 163.645-13.7227 163.184-13.8398ZM159.047-17.7773C159.516-16.5898 159.879-15.3516 160.137-14.0625 160.152-13.9687 160.16-13.9023 160.16-13.8633 160.16-13.7695 160.047-13.6836 159.82-13.6055L158.672-13.2188C158.555-13.1797 158.465-13.1602 158.402-13.1602 158.309-13.1602 158.246-13.2461 158.215-13.418 158.012-14.7227 157.691-15.9687 157.254-17.1562 157.223-17.2344 157.207-17.2969 157.207-17.3438 157.207-17.4453 157.301-17.5195 157.488-17.5664L158.59-17.9766C158.684-18.0078 158.758-18.0234 158.812-18.0234 158.906-18.0234 158.984-17.9414 159.047-17.7773ZM168.926-9.83203C169.496-9.76953 170.07-9.73828 170.648-9.73828 171.125-10.3633 171.582-10.9883 172.02-11.6133 171.098-12.8633 170.062-14.0391 168.914-15.1406 168.836-15.2187 168.797-15.2891 168.797-15.3516 168.797-15.3906 168.855-15.4961 168.973-15.668L169.852-16.8398C169.961-16.9727 170.043-17.0391 170.098-17.0391 170.152-17.0391 170.215-16.9961 170.285-16.9102L170.883-16.2891C171.414-17.1484 171.887-18.0273 172.301-18.9258 172.473-19.3086 172.617-19.7344 172.734-20.2031 173.617-19.8672 174.281-19.5781 174.727-19.3359 174.938-19.2188 175.043-19.0938 175.043-18.9609 175.043-18.8359 174.973-18.7305 174.832-18.6445 174.684-18.5508 174.531-18.3594 174.375-18.0703 173.641-16.7656 172.949-15.6602 172.301-14.7539L173.309-13.582C173.801-14.3789 174.316-15.25 174.855-16.1953 175.145-16.7578 175.367-17.2617 175.523-17.707 176.57-17.2852 177.234-16.9883 177.516-16.8164 177.711-16.7148 177.809-16.6055 177.809-16.4883 177.809-16.3398 177.719-16.2109 177.539-16.1016 177.375-15.9844 177.129-15.6719 176.801-15.1641 175.637-13.3125 174.41-11.5352 173.121-9.83203 173.918-9.85547 174.734-9.90625 175.57-9.98438 175.414-10.4531 175.223-10.9375 174.996-11.4375 174.965-11.5078 174.949-11.5625 174.949-11.6016 174.949-11.6875 175.047-11.7695 175.242-11.8477L176.344-12.3047C176.406-12.3359 176.457-12.3516 176.496-12.3516 176.582-12.3516 176.652-12.2891 176.707-12.1641 177.316-10.8047 177.82-9.35547 178.219-7.81641L178.219-9.25781 178.16-10.3594C178.16-10.6172 178.258-10.7461 178.453-10.7461L181.547-10.6992 187.113-10.6992 190.254-10.7461C190.387-10.7461 190.465-10.7305 190.488-10.6992 190.512-10.668 190.523-10.5938 190.523-10.4766L190.477-9.52734 190.477-8.68359 190.523-6.50391C190.523-6.37891 190.51-6.30273 190.482-6.27539 190.455-6.24805 190.383-6.23437 190.266-6.23438L188.508-6.23438C188.375-6.23437 188.297-6.25 188.273-6.28125 188.258-6.30469 188.25-6.37891 188.25-6.50391L188.25-8.68359 180.445-8.68359 180.445-6.50391C180.445-6.37109 180.43-6.29297 180.398-6.26953 180.367-6.24609 180.297-6.23437 180.188-6.23438L178.453-6.23438C178.312-6.23437 178.227-6.25 178.195-6.28125 178.172-6.3125 178.16-6.38672 178.16-6.50391 178.16-6.51953 178.168-6.625 178.184-6.82031 178.191-7.03125 178.203-7.27734 178.219-7.55859 178.172-7.49609 178.074-7.4375 177.926-7.38281L176.754-6.96094C176.605-6.90625 176.512-6.87891 176.473-6.87891 176.402-6.87891 176.359-6.96094 176.344-7.125L176.098-8.17969C175.535-8.10938 175.145-8.07031 174.926-8.0625L174.926-1.46484 174.973 1.6875C174.973 1.8125 174.957 1.88672 174.926 1.91016 174.895 1.93359 174.82 1.94531 174.703 1.94531L172.875 1.94531C172.75 1.94531 172.676 1.92969 172.652 1.89844 172.629 1.86719 172.617 1.79687 172.617 1.6875L172.664-1.46484 172.664-7.83984 170.766-7.69922C170.367-7.67578 170.062-7.60937 169.852-7.5 169.727-7.4375 169.609-7.40625 169.5-7.40625 169.359-7.40625 169.262-7.53516 169.207-7.79297 169.082-8.44922 168.988-9.12891 168.926-9.83203ZM181.898-12.1406 178.945-12.0938C178.789-12.0937 178.711-12.1797 178.711-12.3516L178.711-13.8164C178.711-13.9961 178.789-14.0859 178.945-14.0859L181.898-14.0391 182.789-14.0391 182.789-15.5977 181.371-15.5977 178.254-15.5508C178.129-15.5508 178.051-15.5664 178.02-15.5977 177.996-15.6289 177.984-15.6992 177.984-15.8086L177.984-17.3203C177.984-17.4844 178.074-17.5664 178.254-17.5664L181.371-17.5195 182.789-17.5195 182.789-17.6836C182.789-18.9102 182.734-19.7344 182.625-20.1562 183.453-20.1328 184.258-20.0781 185.039-19.9922 185.297-19.9609 185.426-19.8789 185.426-19.7461 185.426-19.5977 185.371-19.4375 185.262-19.2656 185.184-19.0859 185.145-18.6406 185.145-17.9297L185.145-17.5195 187.301-17.5195 190.418-17.5664C190.598-17.5664 190.688-17.4844 190.688-17.3203L190.688-15.8086C190.688-15.6836 190.672-15.6094 190.641-15.5859 190.609-15.5625 190.535-15.5508 190.418-15.5508L187.301-15.5977 185.145-15.5977 185.145-14.0391 186.633-14.0391 189.586-14.0859C189.711-14.0859 189.785-14.0703 189.809-14.0391 189.832-14.0078 189.844-13.9336 189.844-13.8164L189.844-12.3516C189.844-12.2266 189.828-12.1523 189.797-12.1289 189.766-12.1055 189.695-12.0937 189.586-12.0938L186.633-12.1406ZM189.07-3.43359C189.469-3.18359 189.934-2.97656 190.465-2.8125 190.746-2.72656 190.918-2.65234 190.98-2.58984 191.043-2.52734 191.074-2.41797 191.074-2.26172 191.074-2.22266 191.07-2.125 191.062-1.96875 190.984-0.492188 190.715 0.46875 190.254 0.914062 189.746 1.34375 188.793 1.55859 187.395 1.55859 186.41 1.55859 185.73 1.44531 185.355 1.21875 184.91 0.945312 184.688 0.378906 184.688-0.480469L184.688-5.20312C184.688-6.26562 184.648-7.07422 184.57-7.62891 185.352-7.60547 186.094-7.55078 186.797-7.46484 187.07-7.44141 187.207-7.35156 187.207-7.19531 187.207-7.10937 187.148-6.92578 187.031-6.64453 186.953-6.42578 186.914-5.82812 186.914-4.85156L186.914-1.32422C186.914-0.980469 186.969-0.769531 187.078-0.691406 187.227-0.597656 187.484-0.550781 187.852-0.550781 188.305-0.550781 188.617-0.664062 188.789-0.890625 188.961-1.125 189.055-1.97266 189.07-3.43359ZM176.402-0.0703125C178.246-0.648437 179.523-1.46875 180.234-2.53125 180.758-3.3125 181.051-4.36328 181.113-5.68359L181.125-6.78516C181.125-7.10547 181.113-7.40234 181.09-7.67578 181.168-7.66797 181.551-7.62109 182.238-7.53516 182.621-7.48828 182.934-7.44922 183.176-7.41797 183.465-7.37109 183.609-7.27344 183.609-7.125 183.609-6.97656 183.57-6.80859 183.492-6.62109 183.422-6.38672 183.363-5.97266 183.316-5.37891 183.184-3.55078 182.758-2.10547 182.039-1.04297 181.312 0.0429687 180.188 0.921875 178.664 1.59375 178.383 1.71875 178.199 1.78125 178.113 1.78125 177.996 1.78125 177.82 1.60547 177.586 1.25391 177.227 0.691406 176.832 0.25 176.402-0.0703125ZM168.891-0.480469C169.43-1.77734 169.758-3.23438 169.875-4.85156 169.914-5.27344 169.934-5.63672 169.934-5.94141 169.934-6.10547 169.93-6.25391 169.922-6.38672 170.773-6.24609 171.391-6.11719 171.773-6 172.047-5.90625 172.184-5.80859 172.184-5.70703 172.184-5.58984 172.145-5.47266 172.066-5.35547 171.996-5.23047 171.93-4.93359 171.867-4.46484 171.617-2.51953 171.355-1.07812 171.082-0.140625 170.957 0.242187 170.852 0.433594 170.766 0.433594 170.695 0.433594 170.512 0.335937 170.215 0.140625 169.746-0.148437 169.305-0.355469 168.891-0.480469ZM176.789-6.43359C176.898-6.45703 176.977-6.46875 177.023-6.46875 177.102-6.46875 177.16-6.39844 177.199-6.25781 177.574-5.10938 177.855-3.91016 178.043-2.66016 178.051-2.58203 178.055-2.53125 178.055-2.50781 178.055-2.39844 177.953-2.30469 177.75-2.22656L176.555-1.82812C176.422-1.78125 176.328-1.75781 176.273-1.75781 176.195-1.75781 176.152-1.83594 176.145-1.99219 175.918-3.70312 175.684-4.94922 175.441-5.73047 175.418-5.80859 175.406-5.86719 175.406-5.90625 175.406-6 175.5-6.07031 175.688-6.11719Z" transform="translate(17.7167 32)"/></g></g><text font-family="Yu Gothic,Yu Gothic_MSFontService,sans-serif" font-weight="700" font-size="24" transform="translate(35.5321 430)">改善・改革の継続</text><path d="M501.5 327.5 518.5 310.5 518.5 319 618.777 319 618.777 293.5 1208.5 293.5 1208.5 361.5 618.777 361.5 618.777 336 518.5 336 518.5 344.5Z" stroke="#FF0000" stroke-width="1.33333" stroke-miterlimit="8" fill="#FFC000" fill-rule="evenodd"/><text font-family="Yu Gothic,Yu Gothic_MSFontService,sans-serif" font-weight="700" font-size="24" transform="translate(627.646 335)">IoT</text><text font-family="Yu Gothic,Yu Gothic_MSFontService,sans-serif" font-weight="700" font-size="24" transform="translate(665.313 335)">、</text><text font-family="Yu Gothic,Yu Gothic_MSFontService,sans-serif" font-weight="700" font-size="24" transform="translate(689.313 335)">Digital Twins</text><text font-family="Yu Gothic,Yu Gothic_MSFontService,sans-serif" font-weight="700" font-size="24" transform="translate(849.479 335)">による現状把握・制御の最適化</text><path d="M498.5 124 515.75 106.75 515.75 115.375 585.421 115.375 585.421 89.5001 1022.5 89.5001 1022.5 158.5 585.421 158.5 585.421 132.625 515.75 132.625 515.75 141.25Z" stroke="#FF0000" stroke-width="1.33333" stroke-miterlimit="8" fill="#FFC000" fill-rule="evenodd"/><text font-family="Yu Gothic,Yu Gothic_MSFontService,sans-serif" font-weight="700" font-size="24" transform="translate(594.323 131)">仕組みの変革</text><path d="M594.323 133.302 666.323 133.302 738.323 133.302 738.323 134.302 666.323 134.302 594.323 134.302Z" fill-rule="evenodd"/><path d="M0 6.5 0.812441 6.5 0.812441 19.5 0 19.5ZM1.62504 6.5 3.25008 6.5 3.25008 19.5 1.62504 19.5ZM4.06252 6.5 131 6.5 131 0 144 13 131 26 131 19.5 4.06252 19.5Z" stroke="#2F528F" stroke-width="1.33333" stroke-miterlimit="8" fill="url(#fill10)" fill-rule="evenodd" transform="matrix(-6.12323e-17 -1 -1 6.12323e-17 987.5 288.5)"/><g clip-path="url(#clip11)" filter="url(#fx1)" transform="translate(981 201)"><g clip-path="url(#clip12)"><path d="M2.22656-18.5742 8.46094-18.5742C11.4922-18.5742 13.7617-17.7227 15.2695-16.0195 16.6367-14.4648 17.3203-12.2539 17.3203-9.38672 17.3203-6.12109 16.3594-3.66406 14.4375-2.01562 12.8359-0.640625 10.6992 0.046875 8.02734 0.046875L2.22656 0.046875ZM5.4375-16.0781 5.4375-2.44922 7.95703-2.44922C9.97266-2.44922 11.4805-3.07422 12.4805-4.32422 13.418-5.48828 13.8867-7.16797 13.8867-9.36328 13.8867-13.8398 11.9648-16.0781 8.12109-16.0781ZM23.4453-13.125 23.4453 0.046875 20.4219 0.046875 20.4219-13.125ZM23.5742-18.5742 23.5742-15.4805 20.3047-15.4805 20.3047-18.5742ZM38.6341-14.9531 38.4466-12.5273C37.7747-12.5273 37.263-12.4687 36.9115-12.3516 36.638-12.2578 36.3646-12.0898 36.0911-11.8477 36.8099-11.1055 37.1693-10.2266 37.1693-9.21094 37.1693-7.77344 36.6224-6.66016 35.5286-5.87109 34.6068-5.19922 33.4271-4.86328 31.9896-4.86328 31.3802-4.86328 30.8099-4.9375 30.2786-5.08594 29.638-4.76562 29.3177-4.38281 29.3177-3.9375 29.3177-3.625 29.4505-3.40234 29.7161-3.26953 29.9818-3.13672 30.4583-3.03906 31.1458-2.97656L34.1224-2.73047C35.888-2.55859 37.1263-2.15234 37.8372-1.51172 38.3997-0.988281 38.681-0.257812 38.681 0.679688 38.681 1.95312 38.0365 2.95703 36.7474 3.69141 35.5677 4.35547 34.0052 4.6875 32.0599 4.6875 30.0599 4.6875 28.5286 4.35547 27.4661 3.69141 26.5755 3.12891 26.1302 2.39453 26.1302 1.48828 26.1302 0.363281 26.9388-0.492188 28.556-1.07812 27.3216-1.35156 26.7044-1.98438 26.7044-2.97656 26.7044-3.95312 27.3763-4.86328 28.7201-5.70703 27.4701-6.50391 26.8451-7.66406 26.8451-9.1875 26.8451-10.5469 27.3919-11.6172 28.4857-12.3984 29.4154-13.0781 30.5911-13.418 32.013-13.418 33.099-13.418 34.0326-13.207 34.8138-12.7852 35.2747-13.6211 35.8216-14.1992 36.4544-14.5195 37.0091-14.8086 37.7357-14.9531 38.6341-14.9531ZM32.0013-11.6367C31.2591-11.6367 30.6615-11.3945 30.2083-10.9102 29.8099-10.4727 29.6107-9.91406 29.6107-9.23438 29.6107-8.35156 29.8646-7.67969 30.3724-7.21875 30.7943-6.83594 31.3372-6.64453 32.0013-6.64453 32.7669-6.64453 33.3685-6.89062 33.806-7.38281 34.2044-7.84375 34.4036-8.45312 34.4036-9.21094 34.4036-10.0078 34.1419-10.6328 33.6185-11.0859 33.1888-11.4531 32.6497-11.6367 32.0013-11.6367ZM30.3724-0.714844C29.1927-0.339844 28.6029 0.257812 28.6029 1.07812 28.6029 1.6875 28.9779 2.15625 29.7279 2.48438 30.3685 2.76562 31.2005 2.90625 32.224 2.90625 33.5365 2.90625 34.5404 2.71094 35.2357 2.32031 35.7904 2.00781 36.0677 1.62109 36.0677 1.16016 36.0677 0.660156 35.888 0.300781 35.5286 0.0820312 35.1693-0.128906 34.5404-0.28125 33.6419-0.375ZM44.2786-13.125 44.2786 0.046875 41.2552 0.046875 41.2552-13.125ZM44.4076-18.5742 44.4076-15.4805 41.138-15.4805 41.138-18.5742ZM51.7096-17.4258 51.7096-13.125 54.6628-13.125 54.6628-10.9219 51.7096-10.9219 51.7096-3.69141C51.7096-2.42578 52.2526-1.79297 53.3385-1.79297 53.9245-1.79297 54.4362-1.84375 54.8737-1.94531L54.7565 0.210938C54.0924 0.3125 53.3073 0.363281 52.401 0.363281 51.0651 0.363281 50.1042 0.0429687 49.5182-0.597656 48.9948-1.16797 48.7331-2.01562 48.7331-3.14062L48.7331-10.9219 46.7643-10.9219 46.7643-13.125 48.7331-13.125 48.7331-16.7461ZM56.8919-9.80859C57.5716-12.2305 59.388-13.4414 62.3411-13.4414 65.7474-13.4414 67.4505-11.9844 67.4505-9.07031L67.4505-3.84375C67.4505-2.57031 67.5208-1.27344 67.6615 0.046875L64.8841 0.046875C64.7982-0.445312 64.724-1.01953 64.6615-1.67578 63.7161-0.316406 62.3333 0.363281 60.513 0.363281 59.2083 0.363281 58.1849-0.0351563 57.4427-0.832031 56.7865-1.53516 56.4583-2.44141 56.4583-3.55078 56.4583-5.89453 57.8919-7.34375 60.7591-7.89844 61.8216-8.10156 63.0755-8.22656 64.5208-8.27344L64.5208-9.02344C64.5208-9.89844 64.3138-10.5195 63.8997-10.8867 63.5404-11.1992 62.9857-11.3555 62.2357-11.3555 61.5482-11.3555 60.9779-11.1328 60.5247-10.6875 60.1107-10.2812 59.8411-9.73438 59.7161-9.04688ZM64.5208-6.41016C63.513-6.38672 62.5052-6.25781 61.4974-6.02344 60.0599-5.67969 59.3411-4.93359 59.3411-3.78516 59.3411-2.45703 60.0443-1.79297 61.4505-1.79297 62.7318-1.79297 63.7552-2.51562 64.5208-3.96094ZM74.3021-18.9141 74.3021 0.046875 71.2786 0.046875 71.2786-18.9141Z" transform="translate(17.011 32)"/></g></g><text font-family="Yu Gothic,Yu Gothic_MSFontService,sans-serif" font-weight="700" font-size="24" transform="translate(996.826 232)">Digital</text><g clip-path="url(#clip13)" filter="url(#fx2)" transform="translate(1064 201)"><g clip-path="url(#clip14)"><path d="M15.0469-18.5742 15.0469-15.9609 9.50391-15.9609 9.50391 0.046875 6.23438 0.046875 6.23438-15.9609 0.738281-15.9609 0.738281-18.5742ZM24.6927-13.418 24.4935-10.582C22.8138-10.582 21.5677-9.46875 20.7552-7.24219L20.7552 0.046875 17.7786 0.046875 17.7786-13.125 20.6146-13.125 20.6146-9.89062C21.4661-12.2422 22.8255-13.418 24.6927-13.418ZM26.7253-9.80859C27.4049-12.2305 29.2214-13.4414 32.1745-13.4414 35.5807-13.4414 37.2839-11.9844 37.2839-9.07031L37.2839-3.84375C37.2839-2.57031 37.3542-1.27344 37.4948 0.046875L34.7174 0.046875C34.6315-0.445312 34.5573-1.01953 34.4948-1.67578 33.5495-0.316406 32.1667 0.363281 30.3464 0.363281 29.0417 0.363281 28.0182-0.0351563 27.276-0.832031 26.6198-1.53516 26.2917-2.44141 26.2917-3.55078 26.2917-5.89453 27.7253-7.34375 30.5924-7.89844 31.6549-8.10156 32.9089-8.22656 34.3542-8.27344L34.3542-9.02344C34.3542-9.89844 34.1471-10.5195 33.7331-10.8867 33.3737-11.1992 32.819-11.3555 32.069-11.3555 31.3815-11.3555 30.8112-11.1328 30.3581-10.6875 29.944-10.2812 29.6745-9.73438 29.5495-9.04688ZM34.3542-6.41016C33.3464-6.38672 32.3385-6.25781 31.3307-6.02344 29.8932-5.67969 29.1745-4.93359 29.1745-3.78516 29.1745-2.45703 29.8776-1.79297 31.2839-1.79297 32.5651-1.79297 33.5885-2.51562 34.3542-3.96094ZM44.0417-13.125 44.0417-10.8164C44.6198-11.6758 45.3073-12.3359 46.1042-12.7969 46.8307-13.2109 47.5846-13.418 48.3659-13.418 49.5612-13.418 50.5026-13.0273 51.1901-12.2461 51.8151-11.543 52.1276-10.6133 52.1276-9.45703L52.1276 0.046875 49.0339 0.046875 49.0339-8.61328C49.0339-10.0898 48.4245-10.8281 47.2057-10.8281 46.6432-10.8281 46.0651-10.6016 45.4714-10.1484 44.9635-9.75 44.5182-9.23047 44.1354-8.58984L44.1354 0.046875 41.112 0.046875 41.112-13.125ZM65.4492-10.0547 62.5898-9.23438C62.2617-10.6484 61.4805-11.3555 60.2461-11.3555 59.5742-11.3555 59.0469-11.1992 58.6641-10.8867 58.3437-10.6367 58.1836-10.3203 58.1836-9.9375 58.1836-9.38281 58.3594-8.96875 58.7109-8.69531 59.0391-8.44531 59.6445-8.20312 60.5273-7.96875L61.6289-7.67578C63.2227-7.25391 64.3203-6.71094 64.9219-6.04688 65.4531-5.46094 65.7188-4.66797 65.7188-3.66797 65.7188-2.35547 65.2148-1.33984 64.207-0.621094 63.2773 0.0507812 62.0039 0.386719 60.3867 0.386719 57.5195 0.386719 55.6875-0.710938 54.8906-2.90625L57.7031-3.89062C58.125-2.41406 59.043-1.67578 60.457-1.67578 62.0586-1.67578 62.8594-2.24219 62.8594-3.375 62.8594-3.9375 62.6719-4.34766 62.2969-4.60547 61.9766-4.81641 61.3164-5.06641 60.3164-5.35547L59.2148-5.66016C57.6914-6.06641 56.6484-6.59766 56.0859-7.25391 55.5937-7.83203 55.3477-8.63672 55.3477-9.66797 55.3477-10.8477 55.8281-11.7812 56.7891-12.4688 57.6719-13.1016 58.8398-13.418 60.293-13.418 62.9727-13.418 64.6914-12.2969 65.4492-10.0547ZM75.5638-18.7617 75.224-16.6055C74.7083-16.6758 74.349-16.7109 74.1458-16.7109 73.0911-16.7109 72.5638-16.1094 72.5638-14.9062L72.5638-13.125 75.2943-13.125 75.2943-10.9453 72.5638-10.9453 72.5638 0.046875 69.5638 0.046875 69.5638-10.9453 67.431-10.9453 67.431-13.125 69.5638-13.125 69.5638-15.0938C69.5638-17.6406 70.8763-18.9141 73.5013-18.9141 74.1732-18.9141 74.8607-18.8633 75.5638-18.7617ZM82.9583-13.418C84.8802-13.418 86.3841-12.7266 87.4701-11.3438 88.431-10.1172 88.9115-8.51953 88.9115-6.55078 88.9115-4.27734 88.2943-2.50781 87.0599-1.24219 85.9974-0.15625 84.6224 0.386719 82.9349 0.386719 80.9974 0.386719 79.4896-0.304688 78.4115-1.6875 77.4583-2.90625 76.9818-4.50391 76.9818-6.48047 76.9818-8.74609 77.6029-10.5156 78.8451-11.7891 79.9154-12.875 81.2865-13.418 82.9583-13.418ZM82.9583-11.2383C81.0365-11.2383 80.0755-9.66797 80.0755-6.52734 80.0755-3.37109 81.0286-1.79297 82.9349-1.79297 84.8568-1.79297 85.8177-3.37109 85.8177-6.52734 85.8177-9.66797 84.8646-11.2383 82.9583-11.2383ZM98.8594-13.418 98.6602-10.582C96.9805-10.582 95.7344-9.46875 94.9219-7.24219L94.9219 0.046875 91.9453 0.046875 91.9453-13.125 94.7812-13.125 94.7812-9.89062C95.6328-12.2422 96.9922-13.418 98.8594-13.418ZM104.161-13.125 104.161-10.8164C105.286-12.5508 106.669-13.418 108.31-13.418 109.224-13.418 109.978-13.1523 110.572-12.6211 111.064-12.168 111.392-11.5742 111.556-10.8398 112.689-12.5586 114.079-13.418 115.728-13.418 116.892-13.418 117.798-13.0273 118.447-12.2461 119.033-11.5508 119.326-10.6211 119.326-9.45703L119.326 0.046875 116.302 0.046875 116.302-8.61328C116.302-10.0898 115.693-10.8281 114.474-10.8281 113.927-10.8281 113.384-10.5938 112.845-10.125 112.384-9.71875 112.009-9.20703 111.72-8.58984L111.72 0.046875 108.743 0.046875 108.743-8.61328C108.743-10.0898 108.201-10.8281 107.115-10.8281 106.56-10.8281 106.005-10.5977 105.451-10.1367 104.966-9.73047 104.568-9.21484 104.255-8.58984L104.255 0.046875 101.279 0.046875 101.279-13.125ZM122.725-9.80859C123.405-12.2305 125.221-13.4414 128.174-13.4414 131.581-13.4414 133.284-11.9844 133.284-9.07031L133.284-3.84375C133.284-2.57031 133.354-1.27344 133.495 0.046875L130.717 0.046875C130.632-0.445312 130.557-1.01953 130.495-1.67578 129.549-0.316406 128.167 0.363281 126.346 0.363281 125.042 0.363281 124.018-0.0351563 123.276-0.832031 122.62-1.53516 122.292-2.44141 122.292-3.55078 122.292-5.89453 123.725-7.34375 126.592-7.89844 127.655-8.10156 128.909-8.22656 130.354-8.27344L130.354-9.02344C130.354-9.89844 130.147-10.5195 129.733-10.8867 129.374-11.1992 128.819-11.3555 128.069-11.3555 127.382-11.3555 126.811-11.1328 126.358-10.6875 125.944-10.2812 125.674-9.73438 125.549-9.04688ZM130.354-6.41016C129.346-6.38672 128.339-6.25781 127.331-6.02344 125.893-5.67969 125.174-4.93359 125.174-3.78516 125.174-2.45703 125.878-1.79297 127.284-1.79297 128.565-1.79297 129.589-2.51562 130.354-3.96094ZM140.71-17.4258 140.71-13.125 143.663-13.125 143.663-10.9219 140.71-10.9219 140.71-3.69141C140.71-2.42578 141.253-1.79297 142.339-1.79297 142.924-1.79297 143.436-1.84375 143.874-1.94531L143.757 0.210938C143.092 0.3125 142.307 0.363281 141.401 0.363281 140.065 0.363281 139.104 0.0429687 138.518-0.597656 137.995-1.16797 137.733-2.01562 137.733-3.14062L137.733-10.9219 135.764-10.9219 135.764-13.125 137.733-13.125 137.733-16.7461ZM149.279-13.125 149.279 0.046875 146.255 0.046875 146.255-13.125ZM149.408-18.5742 149.408-15.4805 146.138-15.4805 146.138-18.5742ZM158.292-13.418C160.214-13.418 161.717-12.7266 162.803-11.3438 163.764-10.1172 164.245-8.51953 164.245-6.55078 164.245-4.27734 163.628-2.50781 162.393-1.24219 161.331-0.15625 159.956 0.386719 158.268 0.386719 156.331 0.386719 154.823-0.304688 153.745-1.6875 152.792-2.90625 152.315-4.50391 152.315-6.48047 152.315-8.74609 152.936-10.5156 154.178-11.7891 155.249-12.875 156.62-13.418 158.292-13.418ZM158.292-11.2383C156.37-11.2383 155.409-9.66797 155.409-6.52734 155.409-3.37109 156.362-1.79297 158.268-1.79297 160.19-1.79297 161.151-3.37109 161.151-6.52734 161.151-9.66797 160.198-11.2383 158.292-11.2383ZM170.208-13.125 170.208-10.8164C170.786-11.6758 171.474-12.3359 172.271-12.7969 172.997-13.2109 173.751-13.418 174.533-13.418 175.728-13.418 176.669-13.0273 177.357-12.2461 177.982-11.543 178.294-10.6133 178.294-9.45703L178.294 0.046875 175.201 0.046875 175.201-8.61328C175.201-10.0898 174.591-10.8281 173.372-10.8281 172.81-10.8281 172.232-10.6016 171.638-10.1484 171.13-9.75 170.685-9.23047 170.302-8.58984L170.302 0.046875 167.279 0.046875 167.279-13.125Z" transform="translate(17.011 32)"/></g></g><text font-family="Yu Gothic,Yu Gothic_MSFontService,sans-serif" font-weight="700" font-size="24" transform="translate(1079.83 232)">Transformation</text></g></svg>