<svg width="1101" height="521" xmlns="http://www.w3.org/2000/svg" xmlns:xlink="http://www.w3.org/1999/xlink" overflow="hidden"><defs><clipPath id="clip0"><rect x="86" y="141" width="1101" height="521"/></clipPath><clipPath id="clip1"><rect x="157" y="241" width="45" height="45"/></clipPath><clipPath id="clip2"><rect x="157" y="241" width="45" height="45"/></clipPath><clipPath id="clip3"><rect x="157" y="241" width="45" height="45"/></clipPath><clipPath id="clip4"><rect x="263" y="248" width="31" height="32"/></clipPath><clipPath id="clip5"><rect x="263" y="248" width="31" height="32"/></clipPath><clipPath id="clip6"><rect x="263" y="248" width="31" height="32"/></clipPath><linearGradient x1="15.7239" y1="32.395" x2="15.2417" y2="-13.95" gradientUnits="userSpaceOnUse" spreadMethod="pad" id="fill7"><stop offset="0" stop-color="#198AB3"/><stop offset="0" stop-color="#198AB3"/><stop offset="0.09" stop-color="#22A5CB"/><stop offset="0.19" stop-color="#29BADE"/><stop offset="0.29" stop-color="#2EC9EB"/><stop offset="0.42" stop-color="#31D1F3"/><stop offset="0.62" stop-color="#32D4F5"/><stop offset="1" stop-color="#32D4F5"/></linearGradient><clipPath id="clip8"><rect x="317" y="248" width="31" height="31"/></clipPath><clipPath id="clip9"><rect x="317" y="248" width="31" height="31"/></clipPath><clipPath id="clip10"><rect x="317" y="248" width="31" height="31"/></clipPath><linearGradient x1="336.082" y1="276.534" x2="336.082" y2="250.123" gradientUnits="userSpaceOnUse" spreadMethod="pad" id="fill11"><stop offset="0" stop-color="#949494"/><stop offset="0.33" stop-color="#9B9B9B"/><stop offset="0.82" stop-color="#AEAFB0"/><stop offset="1" stop-color="#B6B8B9"/></linearGradient><clipPath id="clip12"><rect x="371" y="248" width="31" height="31"/></clipPath><clipPath id="clip13"><rect x="371" y="248" width="31" height="31"/></clipPath><clipPath id="clip14"><rect x="371" y="248" width="31" height="31"/></clipPath><clipPath id="clip15"><rect x="425" y="248" width="32" height="31"/></clipPath><clipPath id="clip16"><rect x="425" y="248" width="32" height="31"/></clipPath><clipPath id="clip17"><rect x="425" y="248" width="32" height="31"/></clipPath><linearGradient x1="15.7154" y1="29.0315" x2="15.7154" y2="1.54699" gradientUnits="userSpaceOnUse" spreadMethod="pad" id="fill18"><stop offset="0" stop-color="#FEA11B"/><stop offset="0.284" stop-color="#FEA51A"/><stop offset="0.547" stop-color="#FEB018"/><stop offset="0.8" stop-color="#FFC314"/><stop offset="1" stop-color="#FFD70F"/></linearGradient><clipPath id="clip19"><rect x="480" y="248" width="31" height="32"/></clipPath><clipPath id="clip20"><rect x="480" y="248" width="31" height="32"/></clipPath><clipPath id="clip21"><rect x="480" y="248" width="31" height="32"/></clipPath><linearGradient x1="15.9495" y1="-0.626889" x2="10.7088" y2="34.534" gradientUnits="userSpaceOnUse" spreadMethod="pad" id="fill22"><stop offset="0" stop-color="#32BEDD"/><stop offset="1" stop-color="#198AB3"/></linearGradient><linearGradient x1="18.5966" y1="12.7238" x2="24.8706" y2="32.8359" gradientUnits="userSpaceOnUse" spreadMethod="pad" id="fill23"><stop offset="0" stop-color="#50E6FF"/><stop offset="0.997" stop-color="#32BEDD"/><stop offset="1" stop-color="#32BEDD"/></linearGradient><linearGradient x1="-0.289333" y1="7.08522" x2="21.6518" y2="18.7636" gradientUnits="userSpaceOnUse" spreadMethod="pad" id="fill24"><stop offset="0" stop-color="#FFFFFF"/><stop offset="1" stop-color="#9CEBFF"/></linearGradient><clipPath id="clip25"><rect x="480" y="306" width="31" height="31"/></clipPath><clipPath id="clip26"><rect x="480" y="306" width="31" height="31"/></clipPath><clipPath id="clip27"><rect x="480" y="306" width="31" height="31"/></clipPath><linearGradient x1="482.239" y1="320.811" x2="510.139" y2="320.811" gradientUnits="userSpaceOnUse" spreadMethod="pad" id="fill28"><stop offset="0" stop-color="#54AEF0"/><stop offset="0.1" stop-color="#54AEF0"/><stop offset="1" stop-color="#1988D9"/></linearGradient><linearGradient x1="480.859" y1="329.6" x2="493.965" y2="329.6" gradientUnits="userSpaceOnUse" spreadMethod="pad" id="fill29"><stop offset="0" stop-color="#B3B2B3"/><stop offset="1" stop-color="#979797"/></linearGradient><linearGradient x1="480.853" y1="323.352" x2="489.843" y2="323.352" gradientUnits="userSpaceOnUse" spreadMethod="pad" id="fill30"><stop offset="0" stop-color="#B3B2B3"/><stop offset="1" stop-color="#979797"/></linearGradient><linearGradient x1="489.1" y1="331.636" x2="498.072" y2="331.636" gradientUnits="userSpaceOnUse" spreadMethod="pad" id="fill31"><stop offset="0" stop-color="#B3B2B3"/><stop offset="1" stop-color="#979797"/></linearGradient><clipPath id="clip32"><rect x="317" y="306" width="31" height="31"/></clipPath><clipPath id="clip33"><rect x="317" y="306" width="31" height="31"/></clipPath><clipPath id="clip34"><rect x="317" y="306" width="31" height="31"/></clipPath><linearGradient x1="317.861" y1="323.153" x2="338.407" y2="323.153" gradientUnits="userSpaceOnUse" spreadMethod="pad" id="fill35"><stop offset="0" stop-color="#005BA1"/><stop offset="0.07" stop-color="#0060A9"/><stop offset="0.36" stop-color="#0071C8"/><stop offset="0.52" stop-color="#0078D4"/><stop offset="0.64" stop-color="#0074CD"/><stop offset="0.82" stop-color="#006ABB"/><stop offset="1" stop-color="#005BA1"/></linearGradient><linearGradient x1="337.271" y1="335.329" x2="337.271" y2="321.328" gradientUnits="userSpaceOnUse" spreadMethod="pad" id="fill36"><stop offset="0" stop-color="#198AB3"/><stop offset="0" stop-color="#198AB3"/><stop offset="0.11" stop-color="#22A5CB"/><stop offset="0.23" stop-color="#29BADE"/><stop offset="0.37" stop-color="#2EC9EB"/><stop offset="0.53" stop-color="#31D1F3"/><stop offset="0.78" stop-color="#32D4F5"/><stop offset="1" stop-color="#32D4F5"/></linearGradient><clipPath id="clip37"><rect x="263" y="190" width="31" height="31"/></clipPath><clipPath id="clip38"><rect x="263" y="190" width="31" height="31"/></clipPath><clipPath id="clip39"><rect x="263" y="190" width="31" height="31"/></clipPath><linearGradient x1="278.715" y1="219.032" x2="278.715" y2="191.547" gradientUnits="userSpaceOnUse" spreadMethod="pad" id="fill40"><stop offset="0" stop-color="#FEA11B"/><stop offset="0.284" stop-color="#FEA51A"/><stop offset="0.547" stop-color="#FEB018"/><stop offset="0.8" stop-color="#FFC314"/><stop offset="1" stop-color="#FFD70F"/></linearGradient><clipPath id="clip41"><rect x="480" y="191" width="31" height="31"/></clipPath><clipPath id="clip42"><rect x="480" y="191" width="31" height="31"/></clipPath><clipPath id="clip43"><rect x="480" y="191" width="31" height="31"/></clipPath><radialGradient cx="4649.52" cy="3578.36" r="48.597" gradientUnits="userSpaceOnUse" spreadMethod="pad" id="fill44" gradientTransform="matrix(0.258333 0 0 0.258333 -707.715 -720.617)"><stop offset="0" stop-color="#5EA0EF"/><stop offset="0.183" stop-color="#5EA0EF"/><stop offset="1" stop-color="#0078D4"/></radialGradient><linearGradient x1="486.62" y1="207.466" x2="486.574" y2="201.617" gradientUnits="userSpaceOnUse" spreadMethod="pad" id="fill45"><stop offset="0" stop-color="#CCCCCC"/><stop offset="0.123" stop-color="#D7D7D7"/><stop offset="1" stop-color="#FCFCFC"/></linearGradient><linearGradient x1="495.092" y1="213.317" x2="495.092" y2="208.072" gradientUnits="userSpaceOnUse" spreadMethod="pad" id="fill46"><stop offset="0" stop-color="#CCCCCC"/><stop offset="0.123" stop-color="#D7D7D7"/><stop offset="1" stop-color="#FCFCFC"/></linearGradient><linearGradient x1="486.62" y1="207.466" x2="486.574" y2="201.617" gradientUnits="userSpaceOnUse" spreadMethod="pad" id="fill47"><stop offset="0" stop-color="#CCCCCC"/><stop offset="0.123" stop-color="#D7D7D7"/><stop offset="1" stop-color="#FCFCFC"/></linearGradient><linearGradient x1="504.954" y1="217.786" x2="500.17" y2="203.328" gradientUnits="userSpaceOnUse" spreadMethod="pad" id="fill48"><stop offset="0" stop-color="#32BEDD"/><stop offset="0.576" stop-color="#32CEEF"/><stop offset="1" stop-color="#32D4F5"/></linearGradient><clipPath id="clip49"><rect x="393" y="297" width="41" height="40"/></clipPath><clipPath id="clip50"><rect x="393" y="297" width="41" height="40"/></clipPath><clipPath id="clip51"><rect x="393" y="297" width="41" height="40"/></clipPath><linearGradient x1="20" y1="42.5111" x2="20" y2="-0.644444" gradientUnits="userSpaceOnUse" spreadMethod="pad" id="fill52"><stop offset="0" stop-color="#0078D4"/><stop offset="0.16" stop-color="#1380DA"/><stop offset="0.53" stop-color="#3C91E5"/><stop offset="0.82" stop-color="#559CEC"/><stop offset="1" stop-color="#5EA0EF"/></linearGradient><clipPath id="clip53"><rect x="534" y="248" width="31" height="31"/></clipPath><clipPath id="clip54"><rect x="534" y="248" width="31" height="31"/></clipPath><clipPath id="clip55"><rect x="534" y="248" width="31" height="31"/></clipPath><linearGradient x1="549.715" y1="277.032" x2="549.715" y2="249.547" gradientUnits="userSpaceOnUse" spreadMethod="pad" id="fill56"><stop offset="0" stop-color="#FEA11B"/><stop offset="0.284" stop-color="#FEA51A"/><stop offset="0.547" stop-color="#FEB018"/><stop offset="0.8" stop-color="#FFC314"/><stop offset="1" stop-color="#FFD70F"/></linearGradient><clipPath id="clip57"><rect x="136" y="472" width="44" height="45"/></clipPath><clipPath id="clip58"><rect x="136" y="472" width="44" height="45"/></clipPath><clipPath id="clip59"><rect x="136" y="472" width="44" height="45"/></clipPath><clipPath id="clip60"><rect x="309" y="479" width="31" height="31"/></clipPath><clipPath id="clip61"><rect x="309" y="479" width="31" height="31"/></clipPath><clipPath id="clip62"><rect x="309" y="479" width="31" height="31"/></clipPath><linearGradient x1="324.724" y1="511.395" x2="324.242" y2="465.05" gradientUnits="userSpaceOnUse" spreadMethod="pad" id="fill63"><stop offset="0" stop-color="#198AB3"/><stop offset="0" stop-color="#198AB3"/><stop offset="0.09" stop-color="#22A5CB"/><stop offset="0.19" stop-color="#29BADE"/><stop offset="0.29" stop-color="#2EC9EB"/><stop offset="0.42" stop-color="#31D1F3"/><stop offset="0.62" stop-color="#32D4F5"/><stop offset="1" stop-color="#32D4F5"/></linearGradient><clipPath id="clip64"><rect x="474" y="481" width="31" height="31"/></clipPath><clipPath id="clip65"><rect x="474" y="481" width="31" height="31"/></clipPath><clipPath id="clip66"><rect x="474" y="481" width="31" height="31"/></clipPath><linearGradient x1="493.082" y1="509.534" x2="493.082" y2="483.123" gradientUnits="userSpaceOnUse" spreadMethod="pad" id="fill67"><stop offset="0" stop-color="#949494"/><stop offset="0.33" stop-color="#9B9B9B"/><stop offset="0.82" stop-color="#AEAFB0"/><stop offset="1" stop-color="#B6B8B9"/></linearGradient><clipPath id="clip68"><rect x="142" y="543" width="32" height="31"/></clipPath><clipPath id="clip69"><rect x="142" y="543" width="32" height="31"/></clipPath><clipPath id="clip70"><rect x="142" y="543" width="32" height="31"/></clipPath><linearGradient x1="15.7154" y1="29.0315" x2="15.7154" y2="1.54699" gradientUnits="userSpaceOnUse" spreadMethod="pad" id="fill71"><stop offset="0" stop-color="#FEA11B"/><stop offset="0.284" stop-color="#FEA51A"/><stop offset="0.547" stop-color="#FEB018"/><stop offset="0.8" stop-color="#FFC314"/><stop offset="1" stop-color="#FFD70F"/></linearGradient><clipPath id="clip72"><rect x="308" y="543" width="31" height="31"/></clipPath><clipPath id="clip73"><rect x="308" y="543" width="31" height="31"/></clipPath><clipPath id="clip74"><rect x="308" y="543" width="31" height="31"/></clipPath><clipPath id="clip75"><rect x="474" y="543" width="31" height="32"/></clipPath><clipPath id="clip76"><rect x="474" y="543" width="31" height="32"/></clipPath><clipPath id="clip77"><rect x="474" y="543" width="31" height="32"/></clipPath><linearGradient x1="15.9495" y1="-0.626889" x2="10.7088" y2="34.534" gradientUnits="userSpaceOnUse" spreadMethod="pad" id="fill78"><stop offset="0" stop-color="#32BEDD"/><stop offset="1" stop-color="#198AB3"/></linearGradient><linearGradient x1="18.5966" y1="12.7238" x2="24.8706" y2="32.8359" gradientUnits="userSpaceOnUse" spreadMethod="pad" id="fill79"><stop offset="0" stop-color="#50E6FF"/><stop offset="0.997" stop-color="#32BEDD"/><stop offset="1" stop-color="#32BEDD"/></linearGradient><linearGradient x1="-0.289333" y1="7.08522" x2="21.6518" y2="18.7636" gradientUnits="userSpaceOnUse" spreadMethod="pad" id="fill80"><stop offset="0" stop-color="#FFFFFF"/><stop offset="1" stop-color="#9CEBFF"/></linearGradient><clipPath id="clip81"><rect x="142" y="601" width="31" height="31"/></clipPath><clipPath id="clip82"><rect x="142" y="601" width="31" height="31"/></clipPath><clipPath id="clip83"><rect x="142" y="601" width="31" height="31"/></clipPath><linearGradient x1="142.861" y1="618.153" x2="163.407" y2="618.153" gradientUnits="userSpaceOnUse" spreadMethod="pad" id="fill84"><stop offset="0" stop-color="#005BA1"/><stop offset="0.07" stop-color="#0060A9"/><stop offset="0.36" stop-color="#0071C8"/><stop offset="0.52" stop-color="#0078D4"/><stop offset="0.64" stop-color="#0074CD"/><stop offset="0.82" stop-color="#006ABB"/><stop offset="1" stop-color="#005BA1"/></linearGradient><linearGradient x1="162.271" y1="630.329" x2="162.271" y2="616.328" gradientUnits="userSpaceOnUse" spreadMethod="pad" id="fill85"><stop offset="0" stop-color="#198AB3"/><stop offset="0" stop-color="#198AB3"/><stop offset="0.11" stop-color="#22A5CB"/><stop offset="0.23" stop-color="#29BADE"/><stop offset="0.37" stop-color="#2EC9EB"/><stop offset="0.53" stop-color="#31D1F3"/><stop offset="0.78" stop-color="#32D4F5"/><stop offset="1" stop-color="#32D4F5"/></linearGradient><clipPath id="clip86"><rect x="349" y="600" width="31" height="31"/></clipPath><clipPath id="clip87"><rect x="349" y="600" width="31" height="31"/></clipPath><clipPath id="clip88"><rect x="349" y="600" width="31" height="31"/></clipPath><linearGradient x1="351.239" y1="614.811" x2="379.139" y2="614.811" gradientUnits="userSpaceOnUse" spreadMethod="pad" id="fill89"><stop offset="0" stop-color="#54AEF0"/><stop offset="0.1" stop-color="#54AEF0"/><stop offset="1" stop-color="#1988D9"/></linearGradient><linearGradient x1="349.859" y1="623.6" x2="362.965" y2="623.6" gradientUnits="userSpaceOnUse" spreadMethod="pad" id="fill90"><stop offset="0" stop-color="#B3B2B3"/><stop offset="1" stop-color="#979797"/></linearGradient><linearGradient x1="349.853" y1="617.352" x2="358.843" y2="617.352" gradientUnits="userSpaceOnUse" spreadMethod="pad" id="fill91"><stop offset="0" stop-color="#B3B2B3"/><stop offset="1" stop-color="#979797"/></linearGradient><linearGradient x1="358.1" y1="625.636" x2="367.072" y2="625.636" gradientUnits="userSpaceOnUse" spreadMethod="pad" id="fill92"><stop offset="0" stop-color="#B3B2B3"/><stop offset="1" stop-color="#979797"/></linearGradient><clipPath id="clip93"><rect x="534" y="601" width="31" height="32"/></clipPath><clipPath id="clip94"><rect x="534" y="601" width="31" height="32"/></clipPath><clipPath id="clip95"><rect x="534" y="601" width="31" height="32"/></clipPath><radialGradient cx="4649.52" cy="3578.36" r="48.597" gradientUnits="userSpaceOnUse" spreadMethod="pad" id="fill96" gradientTransform="matrix(0.258333 0 0 0.258333 -1187.72 -911.617)"><stop offset="0" stop-color="#5EA0EF"/><stop offset="0.183" stop-color="#5EA0EF"/><stop offset="1" stop-color="#0078D4"/></radialGradient><linearGradient x1="6.62022" y1="16.4662" x2="6.57372" y2="10.6175" gradientUnits="userSpaceOnUse" spreadMethod="pad" id="fill97"><stop offset="0" stop-color="#CCCCCC"/><stop offset="0.123" stop-color="#D7D7D7"/><stop offset="1" stop-color="#FCFCFC"/></linearGradient><linearGradient x1="15.0918" y1="22.3166" x2="15.0918" y2="17.0724" gradientUnits="userSpaceOnUse" spreadMethod="pad" id="fill98"><stop offset="0" stop-color="#CCCCCC"/><stop offset="0.123" stop-color="#D7D7D7"/><stop offset="1" stop-color="#FCFCFC"/></linearGradient><linearGradient x1="6.62022" y1="16.4662" x2="6.57372" y2="10.6175" gradientUnits="userSpaceOnUse" spreadMethod="pad" id="fill99"><stop offset="0" stop-color="#CCCCCC"/><stop offset="0.123" stop-color="#D7D7D7"/><stop offset="1" stop-color="#FCFCFC"/></linearGradient><linearGradient x1="24.9539" y1="26.7859" x2="20.1702" y2="12.3281" gradientUnits="userSpaceOnUse" spreadMethod="pad" id="fill100"><stop offset="0" stop-color="#32BEDD"/><stop offset="0.576" stop-color="#32CEEF"/><stop offset="1" stop-color="#32D4F5"/></linearGradient><clipPath id="clip101"><rect x="606" y="248" width="31" height="31"/></clipPath><clipPath id="clip102"><rect x="606" y="248" width="31" height="31"/></clipPath><clipPath id="clip103"><rect x="606" y="248" width="31" height="31"/></clipPath><linearGradient x1="614.697" y1="266.169" x2="614.697" y2="271.216" gradientUnits="userSpaceOnUse" spreadMethod="pad" id="fill104"><stop offset="0" stop-color="#76BC2D"/><stop offset="1" stop-color="#5E9624"/></linearGradient><linearGradient x1="628.113" y1="266.204" x2="628.113" y2="271.25" gradientUnits="userSpaceOnUse" spreadMethod="pad" id="fill105"><stop offset="0" stop-color="#76BC2D"/><stop offset="1" stop-color="#5E9624"/></linearGradient></defs><g clip-path="url(#clip0)" transform="translate(-86 -141)"><g clip-path="url(#clip1)"><g clip-path="url(#clip2)"><g clip-path="url(#clip3)"><path d="M174.809 271.304 174.263 272.353 174.24 272.395C172.973 274.548 170.634 275.886 168.133 275.886 166.879 275.886 165.64 275.547 164.553 274.908 162.924 273.949 161.764 272.415 161.291 270.584 161.27 270.506 161.253 270.428 161.235 270.349L160.333 277.276 175.592 277.276 174.809 271.304Z" fill="#4B4B4B"/><path d="M175.71 246.194 162.84 265.692C161.119 268.618 162.096 272.387 165.024 274.108 167.95 275.829 171.718 274.852 173.44 271.924L182.175 255.132 177.36 250.554C176.104 249.259 175.676 247.813 175.71 246.194ZM170.253 270.051C169.567 271.219 168.064 271.608 166.897 270.922 165.729 270.235 165.339 268.733 166.026 267.565 166.713 266.397 168.216 266.008 169.383 266.694 170.55 267.381 170.94 268.884 170.253 270.051Z" fill="#4B4B4B"/><path d="M176.02 278.112 160.013 278.112C158.923 278.112 158.04 278.995 158.04 280.085L158.04 286 177.992 286 177.992 280.085C177.992 278.995 177.109 278.112 176.02 278.112Z" fill="#4B4B4B"/><path d="M196.553 257.325C197.184 257.325 197.791 257.435 198.353 257.637L185.873 242.718C183.882 240.555 180.515 240.416 178.353 242.407 176.19 244.396 176.052 247.764 178.042 249.926L191.222 262.446C191.334 259.603 193.682 257.325 196.553 257.325ZM183.331 247.815C182.507 248.573 181.224 248.519 180.465 247.695 179.705 246.871 179.759 245.588 180.583 244.83 181.407 244.07 182.691 244.123 183.45 244.948 184.209 245.772 184.155 247.055 183.331 247.815Z" fill="#4B4B4B"/><path d="M194.94 273.1 196.66 275.036 198.38 273.1 198.38 269.914 194.94 269.914Z" fill="#4B4B4B"/><path d="M196.553 258.252C194.118 258.252 192.145 260.225 192.145 262.66L192.145 269.003 200.96 269.003 200.96 262.66C200.96 260.225 198.988 258.252 196.553 258.252ZM196.553 264.246C195.602 264.246 194.832 263.476 194.832 262.526 194.832 261.575 195.602 260.804 196.553 260.804 197.503 260.804 198.274 261.575 198.274 262.526 198.274 263.476 197.503 264.246 196.553 264.246Z" fill="#4B4B4B"/></g></g></g><g clip-path="url(#clip4)"><g clip-path="url(#clip5)"><g clip-path="url(#clip6)"><path d="M23.0261 14.5356C23.0261 16.4093 21.5071 17.9283 19.6333 17.9283 17.7596 17.9283 16.2406 16.4093 16.2406 14.5356 16.2406 12.6618 17.7596 11.1428 19.6333 11.1428 21.5071 11.1428 23.0261 12.6618 23.0261 14.5356Z" fill="#FFFFFF" transform="matrix(1 0 0 1.03226 263 248)"/><path d="M27.9861 24.6278C27.9861 26.1021 26.791 27.2972 25.3167 27.2972 23.8424 27.2972 22.6472 26.1021 22.6472 24.6278 22.6472 23.1535 23.8424 21.9583 25.3167 21.9583 26.791 21.9583 27.9861 23.1535 27.9861 24.6278Z" fill="#FFFFFF" transform="matrix(1 0 0 1.03226 263 248)"/><path d="M17.05 22.8022C17.05 24.0673 16.0245 25.0928 14.7594 25.0928 13.4944 25.0928 12.4689 24.0673 12.4689 22.8022 12.4689 21.5372 13.4944 20.5117 14.7594 20.5117 16.0245 20.5117 17.05 21.5372 17.05 22.8022Z" fill="#FFFFFF" transform="matrix(1 0 0 1.03226 263 248)"/><path d="M15.9478 5.35611C15.9478 6.92552 14.6755 8.19778 13.1061 8.19778 11.5367 8.19778 10.2644 6.92552 10.2644 5.35611 10.2644 3.7867 11.5367 2.51444 13.1061 2.51444 14.6755 2.51444 15.9478 3.7867 15.9478 5.35611Z" fill="#FFFFFF" transform="matrix(1 0 0 1.03226 263 248)"/><path d="M7.78444 15.8272C7.78444 17.0923 6.75893 18.1178 5.49389 18.1178 4.22885 18.1178 3.20333 17.0923 3.20333 15.8272 3.20333 14.5622 4.22885 13.5367 5.49389 13.5367 6.75893 13.5367 7.78444 14.5622 7.78444 15.8272Z" fill="#FFFFFF" transform="matrix(1 0 0 1.03226 263 248)"/><path d="M25.9367 24.0939 20.2017 14.0533 19.6333 14.3806 20.0983 14.0361 13.6056 4.805 12.4172 5.66611 18.1694 13.8467 5.425 14.8972 5.54556 16.3783 18.1694 15.3278 13.9844 22.2856 15.2417 23.0433 19.5472 15.8789 24.6622 24.8172 25.9367 24.0939Z" fill="#949494" transform="matrix(1 0 0 1.03226 263 248)"/><path d="M30.1906 2.11833 30.1906 2.11833C30.1906 1.42399 29.6277 0.861111 28.9333 0.861111L22.3889 0.861111C22.0465 0.861111 21.7689 1.1387 21.7689 1.48111L21.7689 3.90944C21.7689 4.25186 22.0465 4.52944 22.3889 4.52944L26.4361 4.52944 26.4361 8.49055C26.4452 8.83867 26.7253 9.11874 27.0733 9.12778L29.4844 9.12778C29.8325 9.11874 30.1125 8.83867 30.1217 8.49055L30.1217 2.11833Z" fill="#949494" transform="matrix(1 0 0 1.03226 263 248)"/><path d="M8.61111 26.4706 4.495 26.4706 4.495 22.5094C4.48596 22.1614 4.20589 21.8813 3.85778 21.8722L1.44667 21.8722C1.09855 21.8813 0.818491 22.1614 0.809444 22.5094L0.809444 28.8817 0.809444 28.8817C0.818865 29.5693 1.37899 30.1217 2.06667 30.1217L8.61111 30.1217C8.95352 30.1217 9.23111 29.844 9.23111 29.5017L9.23111 27.0906C9.23111 26.7482 8.95352 26.4706 8.61111 26.4706Z" fill="#949494" transform="matrix(1 0 0 1.03226 263 248)"/><path d="M19.6333 11.1772C21.5357 11.1778 23.0773 12.7204 23.0767 14.6227 23.0761 16.525 21.5335 18.0666 19.6311 18.0661 17.7289 18.0656 16.1872 16.5229 16.1878 14.6206 16.1878 14.5922 16.1882 14.5639 16.1889 14.5356 16.2356 12.6669 17.7642 11.1766 19.6333 11.1772ZM10.3333 5.35611C10.3243 6.93501 11.5969 8.22229 13.1758 8.23134 14.7547 8.2404 16.042 6.96778 16.051 5.3889 16.0601 3.81 14.7875 2.52271 13.2086 2.51367 13.1801 2.5135 13.1517 2.51376 13.1233 2.51444 11.5741 2.54262 10.3331 3.80666 10.3333 5.35611ZM3.20333 15.81C3.20333 17.075 4.22885 18.1006 5.49389 18.1006 6.75893 18.1006 7.78444 17.075 7.78444 15.81 7.78444 14.545 6.75893 13.5194 5.49389 13.5194 4.22885 13.5194 3.20333 14.545 3.20333 15.81ZM12.4689 22.785C12.4594 24.0594 13.4849 25.1004 14.7594 25.11 16.0339 25.1195 17.0748 24.0939 17.0843 22.8194 17.0938 21.545 16.0683 20.5041 14.7938 20.4944 14.7881 20.4944 14.7824 20.4944 14.7767 20.4944 13.5117 20.485 12.4785 21.5026 12.469 22.7678 12.4689 22.7735 12.4689 22.7793 12.4689 22.785ZM22.6644 24.6278C22.655 26.102 23.8423 27.3048 25.3167 27.3144 26.7909 27.3239 27.9937 26.1364 28.0032 24.6622 28.0128 23.188 26.8253 21.9852 25.3511 21.9756 25.3453 21.9756 25.3396 21.9756 25.3339 21.9756 23.8788 21.9564 22.6837 23.1207 22.6646 24.5758 22.6644 24.5932 22.6643 24.6104 22.6644 24.6278Z" fill="url(#fill7)" transform="matrix(1 0 0 1.03226 263 248)"/></g></g></g><g clip-path="url(#clip8)"><g clip-path="url(#clip9)"><g clip-path="url(#clip10)"><path d="M348 264.688 348 261.606 347.828 261.451 344.659 260.383 343.849 258.333 345.417 255.096 345.589 254.734 344.556 253.683 343.35 252.495 342.937 252.702 339.837 254.269 337.753 253.683 336.409 250.239 333.327 250.239 333.172 250.394 332.104 253.546 329.934 254.355 326.352 252.633 324.147 254.786 324.354 255.199 326.007 258.333C327.669 257.332 329.579 256.819 331.518 256.852 333.72 256.863 335.866 257.549 337.667 258.816 337.883 258.951 338.09 259.1 338.287 259.263L338.287 259.263C339.011 259.889 339.562 260.689 339.888 261.588L339.888 261.588C340.129 262.197 340.252 262.846 340.25 263.5 340.25 266.572 337.759 269.063 334.687 269.063 334.676 269.063 334.664 269.063 334.653 269.063 333.501 269.062 332.377 268.707 331.432 268.047 329.568 269.839 327.125 270.908 324.543 271.061L324.216 271.732 326.421 273.954 326.868 273.833 329.968 272.111 332.104 272.989 333.464 276.709 336.564 276.709 336.685 276.279 337.787 272.989 339.888 272.111 343.522 273.833 345.709 271.663 345.503 271.25 343.901 268.167 344.556 266.014Z" fill="url(#fill11)"/><path d="M323.889 266.342 323.889 266.342C322.237 266.35 320.65 265.699 319.48 264.533 319.106 264.306 318.988 263.818 319.215 263.445 319.443 263.071 319.93 262.953 320.304 263.18 320.431 263.257 320.533 263.368 320.599 263.5 321.484 264.342 322.668 264.795 323.889 264.757L323.889 264.757C325.093 264.787 326.258 264.334 327.127 263.5 328.301 262.362 329.883 261.741 331.518 261.778 333.162 261.749 334.752 262.368 335.944 263.5 336.266 263.797 336.286 264.298 335.99 264.619 335.694 264.941 335.192 264.962 334.871 264.665 334.855 264.65 334.84 264.635 334.825 264.619 333.959 263.761 332.79 263.278 331.57 263.276L331.57 263.276C330.353 263.267 329.185 263.752 328.332 264.619 327.139 265.761 325.54 266.381 323.889 266.342Z" fill="#50E6FF"/><path d="M323.889 263.19 323.889 263.19C323.076 263.189 322.296 262.867 321.719 262.294 321.422 261.973 321.443 261.472 321.764 261.175 322.068 260.895 322.535 260.895 322.838 261.175 323.115 261.456 323.495 261.611 323.889 261.606L323.889 261.606C324.269 261.572 324.63 261.421 324.922 261.175 328.584 257.562 334.47 257.562 338.132 261.175 338.428 261.497 338.408 261.998 338.086 262.294 337.783 262.574 337.315 262.574 337.012 262.294 333.957 259.262 329.028 259.262 325.973 262.294 325.404 262.827 324.667 263.144 323.889 263.19Z" fill="#50E6FF"/><path d="M323.889 269.493C321.39 269.511 318.988 268.525 317.224 266.755 316.935 266.444 316.935 265.963 317.224 265.653 317.539 265.342 318.045 265.342 318.361 265.653 319.822 267.124 321.815 267.944 323.889 267.926 325.958 267.929 327.942 267.104 329.4 265.636 329.976 265.122 330.713 264.824 331.484 264.792 332.29 264.804 333.06 265.124 333.637 265.687 333.945 265.997 333.945 266.497 333.637 266.807 333.322 267.117 332.815 267.117 332.5 266.807 332.233 266.533 331.867 266.378 331.484 266.376L331.484 266.376C331.099 266.405 330.735 266.563 330.451 266.824 328.7 268.543 326.342 269.502 323.889 269.493Z" fill="#32BEDD"/></g></g></g><g clip-path="url(#clip12)"><g clip-path="url(#clip13)"><g clip-path="url(#clip14)"><path d="M389.652 262.501C389.662 262.742 389.479 262.948 389.238 262.966L385.639 262.966C385.398 262.976 385.192 262.793 385.174 262.553L385.174 259.866C385.164 259.625 385.347 259.419 385.587 259.401L389.187 259.401C389.428 259.391 389.633 259.574 389.652 259.814L389.652 262.501Z" fill="#76BC2D"/><path d="M396.041 265.222C396.051 265.463 395.868 265.669 395.628 265.687L392.028 265.687C391.787 265.697 391.582 265.514 391.563 265.274L391.563 262.604C391.553 262.363 391.736 262.158 391.977 262.139L395.576 262.139C395.817 262.129 396.023 262.312 396.041 262.553L396.041 265.222Z" fill="#76BC2D"/><path d="M389.652 267.978C389.662 268.219 389.479 268.424 389.238 268.443L385.639 268.443C385.398 268.453 385.192 268.27 385.174 268.029L385.174 265.343C385.164 265.102 385.347 264.896 385.587 264.878L389.187 264.878C389.428 264.868 389.633 265.051 389.652 265.291L389.652 267.978Z" fill="#76BC2D"/><path d="M383.262 259.78C383.272 260.012 383.097 260.209 382.866 260.228L379.163 260.228C378.928 260.238 378.725 260.065 378.698 259.832L378.698 257.042C378.706 256.814 378.884 256.629 379.112 256.611L382.711 256.611C383.09 256.611 383.262 256.801 383.262 257.076Z" fill="#86D633"/><path d="M383.262 265.222C383.282 265.459 383.106 265.667 382.869 265.687 382.868 265.687 382.867 265.687 382.866 265.687L379.163 265.687C378.916 265.697 378.708 265.504 378.698 265.257 378.698 265.246 378.698 265.234 378.698 265.222L378.698 262.501C378.698 262.267 378.878 262.071 379.112 262.053L382.711 262.053C383.09 262.053 383.262 262.243 383.262 262.501Z" fill="#76BC2D"/><path d="M383.262 270.716C383.282 270.953 383.106 271.161 382.869 271.181 382.868 271.181 382.867 271.181 382.866 271.181L379.163 271.181C378.922 271.191 378.717 271.008 378.698 270.768L378.698 267.978C378.689 267.74 378.873 267.54 379.111 267.53 379.111 267.53 379.111 267.53 379.112 267.53L382.711 267.53C383.09 267.53 383.262 267.702 383.262 267.978Z" fill="#76BC2D"/><path d="M372.843 250.601 375.064 250.601 375.064 250.601 375.064 256.801C375.064 257.076 374.841 257.3 374.565 257.3L372.361 257.3C372.085 257.3 371.861 257.076 371.861 256.801L371.861 251.634C371.833 251.092 372.248 250.63 372.79 250.602 372.807 250.601 372.825 250.601 372.843 250.601Z" fill="#999999"/><path d="M372.843 250.601 375.064 250.601 375.064 250.601 375.064 256.801C375.064 257.076 374.841 257.3 374.565 257.3L372.361 257.3C372.085 257.3 371.861 257.076 371.861 256.801L371.861 251.634C371.833 251.092 372.248 250.63 372.79 250.602 372.807 250.601 372.825 250.601 372.843 250.601Z" fill="#999999" fill-opacity="0.5"/><path d="M397.936 250.601 400.157 250.601C400.699 250.601 401.139 251.04 401.139 251.582L401.139 256.749C401.139 257.025 400.915 257.248 400.639 257.248L398.418 257.248C398.142 257.248 397.918 257.025 397.918 256.749L397.918 250.601 397.936 250.601Z" fill="#999999"/><path d="M397.936 250.601 400.157 250.601C400.699 250.601 401.139 251.04 401.139 251.582L401.139 256.749C401.139 257.025 400.915 257.248 400.639 257.248L398.418 257.248C398.142 257.248 397.918 257.025 397.918 256.749L397.918 250.601 397.936 250.601Z" fill="#999999" fill-opacity="0.5"/><path d="M401.139 251.582 401.139 253.735 401.139 253.735 371.861 253.735 371.861 253.735 371.861 251.582C371.861 251.04 372.301 250.601 372.843 250.601L400.174 250.601C400.71 250.61 401.139 251.047 401.139 251.582Z" fill="#949494"/><path d="M372.361 269.976 374.582 269.976C374.858 269.976 375.082 270.199 375.082 270.475L375.082 276.675 375.082 276.675 372.843 276.675C372.301 276.675 371.861 276.235 371.861 275.693L371.861 270.389C371.903 270.147 372.115 269.972 372.361 269.976Z" fill="#999999"/><path d="M372.361 269.976 374.582 269.976C374.858 269.976 375.082 270.199 375.082 270.475L375.082 276.675 375.082 276.675 372.843 276.675C372.301 276.675 371.861 276.235 371.861 275.693L371.861 270.389C371.903 270.147 372.115 269.972 372.361 269.976Z" fill="#999999" fill-opacity="0.5"/><path d="M398.418 269.976 400.639 269.976C400.915 269.976 401.139 270.199 401.139 270.475L401.139 275.642C401.139 276.184 400.699 276.623 400.157 276.623L397.936 276.623 397.936 276.623 397.936 270.389C397.977 270.153 398.179 269.98 398.418 269.976Z" fill="#999999"/><path d="M398.418 269.976 400.639 269.976C400.915 269.976 401.139 270.199 401.139 270.475L401.139 275.642C401.139 276.184 400.699 276.623 400.157 276.623L397.936 276.623 397.936 276.623 397.936 270.389C397.977 270.153 398.179 269.98 398.418 269.976Z" fill="#999999" fill-opacity="0.5"/><path d="M371.861 275.693 371.861 273.541 371.861 273.541 401.139 273.541 401.139 273.541 401.139 275.693C401.139 276.236 400.699 276.675 400.157 276.675L372.843 276.675C372.301 276.675 371.861 276.236 371.861 275.693Z" fill="#949494"/></g></g></g><g clip-path="url(#clip15)"><g clip-path="url(#clip16)"><g clip-path="url(#clip17)"><path d="M4.14612 13.0769 5.59813 13.0769C5.8561 13.0769 6.06523 13.286 6.06523 13.544L6.06523 24.2994C6.06523 24.8144 5.64777 25.2318 5.13279 25.2318L3.67378 25.2318 3.67378 25.2318 3.67378 13.5422C3.67378 13.2843 3.8829 13.0751 4.14087 13.0751Z" fill="#50E6FF" transform="matrix(-0.717553 0.697098 -0.719585 -0.69513 447.235 276.77)"/><path d="M4.06703 6.29734 5.52416 6.29734C5.78211 6.29734 5.99122 6.50644 5.99122 6.76439L5.99122 18.2798 5.99122 18.2798 4.53233 18.2798C4.0174 18.2798 3.59998 17.8624 3.59998 17.3474L3.59998 6.76089C3.6019 6.50431 3.81045 6.29734 4.06703 6.29734Z" fill="#1490DF" transform="matrix(0.71965 0.695192 -0.717617 0.697161 435.238 248.196)"/><path d="M25.419 13.0769 26.8763 13.0769C27.3913 13.0769 27.8087 13.4944 27.8087 14.0093L27.8087 24.7647C27.8087 25.0228 27.5997 25.2318 27.3416 25.2318L25.8914 25.2318C25.6333 25.2318 25.4243 25.0228 25.4243 24.7647L25.4243 13.0769 25.4243 13.0769Z" fill="#50E6FF" transform="matrix(0.717553 0.697098 -0.719585 0.69513 446.73 234.989)"/><path d="M26.4278 6.29734 27.885 6.29734 27.885 6.29734 27.885 17.8127C27.885 18.0707 27.6759 18.2798 27.4179 18.2798L25.9608 18.2798C25.7028 18.2798 25.4937 18.0707 25.4937 17.8127L25.4937 7.22619C25.4937 6.71126 25.9111 6.29384 26.4261 6.29384Z" fill="#1490DF" transform="matrix(-0.71965 0.695192 -0.717617 -0.697161 480.15 250.105)"/><path d="M14.5683 17.05 8.38722 17.05C8.2068 17.0569 8.05387 16.9185 8.04278 16.7383 8.04283 16.6934 8.05344 16.6491 8.07378 16.6091L15.4845 1.94611C15.5488 1.83019 15.6723 1.75978 15.8048 1.76356L23.1157 1.76356C23.2962 1.75667 23.4491 1.89506 23.4601 2.07528 23.4594 2.13774 23.4382 2.19828 23.3998 2.2475L14.6974 13.7192 23.1846 13.7192C23.365 13.7123 23.518 13.8507 23.529 14.0309 23.5276 14.11 23.4956 14.1854 23.4394 14.2411L9.33617 28.9127C9.20356 28.9919 8.2615 29.7738 8.72306 28.5872L8.72306 28.5872Z" fill="url(#fill18)" transform="matrix(1.03226 0 0 1 425 248)"/></g></g></g><g clip-path="url(#clip19)"><g clip-path="url(#clip20)"><g clip-path="url(#clip21)"><path d="M24.8482 5.76944 15.9013 0.602778C14.5039-0.203158 12.783-0.203158 11.3856 0.602778L2.43867 5.76944C1.04214 6.57696 0.181724 8.06742 0.180833 9.68061L0.180833 20.0139C0.181111 21.6277 1.04161 23.1189 2.43867 23.9268L11.3942 29.0935C12.7916 29.8995 14.5125 29.8995 15.9099 29.0935L24.8654 23.9268C26.2625 23.1189 27.1229 21.6277 27.1233 20.0139L27.1233 9.68061C27.1188 8.06388 26.2513 6.57257 24.8482 5.76944Z" fill="url(#fill22)" transform="matrix(1 0 0 1.03226 480 248)"/><path d="M29.0057 13.3352 22.7144 9.703C21.5915 9.0555 20.2086 9.0555 19.0857 9.703L12.7961 13.3352C11.6723 13.9816 10.9804 15.18 10.9826 16.4765L10.9826 23.7408C10.9825 25.0368 11.6738 26.2343 12.7961 26.8822L19.0857 30.5143C20.2086 31.1619 21.5915 31.1619 22.7144 30.5143L29.0057 26.8822C30.1308 26.2358 30.8254 25.0384 30.8278 23.7408L30.8278 16.4765C30.8257 15.1789 30.131 13.9812 29.0057 13.3352Z" fill="url(#fill23)" transform="matrix(1 0 0 1.03226 480 248)"/><path d="M13.051 5.10294 14.8628 4.10061 22.63 20.1982 21.9997 20.8871 4.8825 20.8871 5.07539 18.8256 19.5093 18.8256 13.051 5.10294Z" fill="url(#fill24)" transform="matrix(1 0 0 1.03226 480 248)"/><path d="M7.28844 19.9519C7.28844 21.3787 6.13185 22.5353 4.70511 22.5353 3.27838 22.5353 2.12178 21.3787 2.12178 19.9519 2.12178 18.5252 3.27838 17.3686 4.70511 17.3686 6.13185 17.3686 7.28844 18.5252 7.28844 19.9519Z" fill="#FFFFFF" transform="matrix(1 0 0 1.03226 480 248)"/><path d="M24.9378 20.1087C24.9378 22.3382 23.1304 24.1456 20.9009 24.1456 18.6714 24.1456 16.864 22.3382 16.864 20.1087 16.864 17.8792 18.6714 16.0718 20.9009 16.0718 23.1304 16.0718 24.9378 17.8792 24.9378 20.1087Z" fill="#FFFFFF" transform="matrix(1 0 0 1.03226 480 248)"/><path d="M16.4317 4.40544C16.4317 5.83218 15.2751 6.98878 13.8484 6.98878 12.4217 6.98878 11.2651 5.83218 11.2651 4.40544 11.2651 2.97871 12.4217 1.82211 13.8484 1.82211 15.2751 1.82211 16.4317 2.97871 16.4317 4.40544Z" fill="#FFFFFF" transform="matrix(1 0 0 1.03226 480 248)"/></g></g></g><rect x="87.5001" y="142.5" width="605" height="519" stroke="#D9D9D9" stroke-width="1.33333" stroke-miterlimit="8" fill="none"/><g clip-path="url(#clip25)"><g clip-path="url(#clip26)"><g clip-path="url(#clip27)"><path d="M482.532 308.532 508.468 334.468C508.824 334.878 509.443 334.922 509.853 334.567 510.08 334.37 510.204 334.08 510.191 333.779L510.191 307.843C510.191 307.301 509.752 306.861 509.21 306.86 509.193 306.86 509.175 306.86 509.157 306.861L483.221 306.861C482.678 306.867 482.244 307.311 482.249 307.853 482.252 308.107 482.353 308.351 482.532 308.532Z" fill="url(#fill28)"/><path d="M489.524 315.524 501.476 327.476 510.087 318.865 510.087 307.843C510.088 307.32 509.679 306.889 509.157 306.861L498.187 306.861Z" fill="#50E6FF"/><path d="M491.75 323.188C491.931 323.007 492.226 323.007 492.407 323.188L493.82 324.601C494.001 324.783 494.001 325.077 493.82 325.259L483.067 336.012C482.885 336.193 482.591 336.193 482.409 336.012L480.996 334.599C480.815 334.418 480.815 334.123 480.996 333.941Z" fill="url(#fill29)"/><path d="M487.64 318.998C487.822 318.816 488.116 318.816 488.298 318.998L489.71 320.41C489.892 320.592 489.892 320.886 489.71 321.068L483.073 327.705C482.892 327.887 482.597 327.887 482.416 327.705L481.003 326.292C480.821 326.111 480.821 325.816 481.003 325.635Z" fill="url(#fill30)"/><path d="M495.862 327.279C496.044 327.097 496.338 327.097 496.52 327.279L497.932 328.691C498.114 328.873 498.114 329.167 497.932 329.349L491.295 335.986C491.114 336.168 490.819 336.168 490.638 335.986L489.225 334.573C489.043 334.392 489.043 334.097 489.225 333.916Z" fill="url(#fill31)"/><path d="M496.827 314.038C497.082 313.782 497.497 313.782 497.752 314.038L498.897 315.182C499.153 315.438 499.153 315.852 498.897 316.108L497.752 317.253C497.497 317.508 497.082 317.508 496.827 317.253L495.682 316.108C495.427 315.852 495.427 315.438 495.682 315.182Z" fill="#FFFFFF"/><path d="M500.96 309.897C501.216 309.642 501.63 309.642 501.886 309.897L503.03 311.042C503.286 311.298 503.286 311.712 503.03 311.968L501.886 313.112C501.63 313.368 501.216 313.368 500.96 313.112L499.816 311.968C499.56 311.712 499.56 311.298 499.816 311.042Z" fill="#FFFFFF"/><path d="M500.967 318.171C501.223 317.915 501.637 317.915 501.893 318.171L503.038 319.316C503.293 319.571 503.293 319.986 503.038 320.241L501.893 321.386C501.637 321.642 501.223 321.642 500.967 321.386L499.823 320.241C499.567 319.986 499.567 319.571 499.823 319.316Z" fill="#FFFFFF"/><path d="M503.956 315.179 505.093 314.043C505.347 313.786 505.762 313.784 506.018 314.038 506.02 314.04 506.021 314.041 506.023 314.043L507.159 315.179C507.416 315.434 507.418 315.848 507.164 316.105 507.162 316.106 507.161 316.108 507.159 316.109L506.023 317.246C505.768 317.503 505.354 317.505 505.097 317.251 505.096 317.249 505.094 317.248 505.093 317.246L503.956 316.109C503.699 315.855 503.697 315.441 503.952 315.184 503.953 315.182 503.955 315.181 503.956 315.179" fill="#FFFFFF"/></g></g></g><g clip-path="url(#clip32)"><g clip-path="url(#clip33)"><g clip-path="url(#clip34)"><path d="M328.143 315.128C322.459 315.128 317.809 313.406 317.809 311.408L317.809 331.196C317.809 333.228 322.339 334.899 327.936 334.916L328.091 334.916C333.757 334.916 338.424 333.194 338.424 331.196L338.424 311.408C338.407 313.457 333.809 315.128 328.143 315.128Z" fill="url(#fill35)"/><path d="M338.407 311.408C338.407 313.457 333.809 315.128 328.074 315.128 322.339 315.128 317.741 313.406 317.741 311.408 317.741 309.41 322.459 307.722 328.143 307.722 333.826 307.722 338.476 309.444 338.476 311.459" fill="#EAEAEA"/><path d="M335.944 311.167C335.944 312.476 332.5 313.526 328.074 313.526 323.648 313.526 320.255 312.407 320.255 311.167 320.255 309.927 323.786 308.738 328.143 308.738 332.5 308.738 335.944 309.789 335.944 311.167" fill="#50E6FF"/><path d="M328.143 311.649C326.023 311.595 323.91 311.898 321.891 312.544 323.908 313.2 326.022 313.509 328.143 313.457 330.258 313.508 332.366 313.199 334.377 312.544 332.364 311.9 330.256 311.597 328.143 311.649Z" fill="#198AB3"/><path d="M345.847 327.941C345.135 327.274 344.243 326.831 343.281 326.667 343.151 323.611 340.585 321.231 337.529 321.328 335.086 321.281 332.878 322.778 332.018 325.065 329.421 325.353 327.428 327.501 327.333 330.111 327.445 333.066 329.924 335.375 332.879 335.278L333.378 335.278 342.386 335.278 342.609 335.278C345.013 335.261 346.978 333.357 347.07 330.955 347.057 329.824 346.592 328.745 345.778 327.958" fill="url(#fill36)"/><path d="M341.628 333.211 340.009 333.211 340.009 328.854C340.009 328.395 340.009 327.878 340.009 327.304L340.009 327.304C340.009 327.734 339.837 328.062 339.785 328.268L338.063 333.211 336.719 333.211 334.997 328.303C334.901 327.975 334.826 327.641 334.773 327.304L334.773 327.304C334.773 328.01 334.773 328.647 334.773 329.181L334.773 333.211 333.327 333.211 333.327 325.926 335.738 325.926 337.219 330.249C337.337 330.584 337.424 330.93 337.477 331.282L337.477 331.282C337.563 330.886 337.667 330.524 337.753 330.232L339.251 325.926 341.628 325.926Z" fill="#FFFFFF"/></g></g></g><g clip-path="url(#clip37)"><g clip-path="url(#clip38)"><g clip-path="url(#clip39)"><path d="M272.542 212.57 271.533 213.582C271.353 213.762 271.062 213.762 270.882 213.583L263.385 206.107C263.026 205.749 263.025 205.167 263.383 204.808L264.397 203.791 264.397 203.791 272.546 211.917C272.726 212.096 272.726 212.388 272.547 212.567Z" fill="#50E6FF"/><path d="M271.376 197.414 272.392 198.427C272.571 198.606 272.572 198.897 272.393 199.077L264.387 207.105 264.387 207.105 263.37 206.091C263.011 205.733 263.01 205.152 263.368 204.793L270.728 197.412C270.908 197.235 271.197 197.236 271.376 197.414Z" fill="#1490DF"/><path d="M292.604 203.798 293.617 204.814C293.975 205.173 293.974 205.754 293.616 206.112L286.118 213.589C285.938 213.768 285.647 213.768 285.468 213.588L284.46 212.577C284.28 212.397 284.281 212.106 284.46 211.927L292.608 203.802 292.608 203.802Z" fill="#50E6FF"/><path d="M293.624 206.087 292.609 207.1 292.609 207.1 284.603 199.072C284.424 198.892 284.424 198.601 284.604 198.421L285.62 197.408C285.8 197.229 286.091 197.229 286.27 197.409L293.63 204.79C293.988 205.149 293.987 205.73 293.628 206.088Z" fill="#1490DF"/><path d="M277.568 207.05 271.387 207.05C271.207 207.057 271.054 206.918 271.043 206.738 271.043 206.693 271.053 206.649 271.074 206.609L278.484 191.946C278.549 191.83 278.672 191.76 278.805 191.764L286.116 191.764C286.296 191.757 286.449 191.895 286.46 192.075 286.459 192.138 286.438 192.198 286.4 192.247L277.697 203.719 286.185 203.719C286.365 203.712 286.518 203.851 286.529 204.031 286.528 204.11 286.496 204.185 286.439 204.241L272.336 218.913C272.204 218.992 271.262 219.774 271.723 218.587L271.723 218.587Z" fill="url(#fill40)"/></g></g></g><g clip-path="url(#clip41)"><g clip-path="url(#clip42)"><g clip-path="url(#clip43)"><path d="M501.109 213.716C495.631 217.965 487.745 216.968 483.496 211.489 479.247 206.011 480.244 198.125 485.723 193.876L485.856 193.78C491.436 189.666 499.295 190.855 503.409 196.435 507.419 201.876 506.403 209.514 501.109 213.716" fill="url(#fill44)"/><path d="M490.003 201.184C493.555 197.807 498.263 195.915 503.164 195.895 502.524 195.093 501.787 194.375 500.97 193.756 498.583 193.908 496.239 194.461 494.036 195.392 491.767 196.357 489.717 197.771 488.008 199.549 488.834 199.862 489.534 200.436 490.003 201.184Z" fill="#FFFFFF" fill-opacity="0.6"/><path d="M483.789 206.226C483.284 207.486 482.871 208.781 482.554 210.101 482.832 210.574 483.139 211.029 483.474 211.463 483.729 211.797 484.002 212.116 484.292 212.419 484.649 210.661 485.184 208.945 485.89 207.296 485.098 207.157 484.366 206.785 483.789 206.226Z" fill="#FFFFFF" fill-opacity="0.6"/><path d="M485.234 199.528C484.711 198.127 484.369 196.666 484.216 195.178 483.596 195.835 483.048 196.557 482.583 197.331 482.758 198.516 483.041 199.683 483.429 200.817 483.898 200.226 484.523 199.78 485.234 199.528Z" fill="#F2F2F2" fill-opacity="0.55"/><path d="M490.623 203.326C490.623 205.555 488.816 207.361 486.587 207.361 484.359 207.361 482.552 205.555 482.552 203.326 482.552 201.097 484.359 199.291 486.587 199.291 488.816 199.291 490.623 201.097 490.623 203.326Z" fill="url(#fill45)"/><path d="M492.471 210.694C492.47 209.988 492.755 209.312 493.261 208.82 491.904 208.073 490.65 207.151 489.533 206.078 488.945 206.705 488.173 207.127 487.328 207.284 487.99 207.972 488.707 208.606 489.472 209.178 490.418 209.889 491.43 210.506 492.495 211.021 492.479 210.913 492.471 210.803 492.471 210.694Z" fill="#F2F2F2" fill-opacity="0.55"/><path d="M501.772 211.007C500.403 211.007 499.038 210.848 497.704 210.533 497.704 210.587 497.713 210.64 497.713 210.694 497.715 211.379 497.447 212.038 496.967 212.528 498.625 212.855 500.317 212.976 502.005 212.888 502.64 212.288 503.21 211.623 503.705 210.904 503.063 210.973 502.418 211.007 501.772 211.007Z" fill="#F2F2F2" fill-opacity="0.55"/><path d="M497.713 210.694C497.713 212.141 496.539 213.315 495.092 213.315 493.644 213.315 492.471 212.141 492.471 210.694 492.471 209.246 493.644 208.072 495.092 208.072 496.539 208.072 497.713 209.246 497.713 210.694Z" fill="url(#fill46)"/><path d="M498.316 203.689C498.453 203.118 498.77 202.606 499.22 202.229 496.784 200.46 494.571 198.402 492.629 196.101 491.505 194.769 490.524 193.323 489.7 191.787 489.151 191.956 488.615 192.162 488.094 192.405 488.971 194.083 490.027 195.66 491.244 197.11 493.319 199.588 495.695 201.798 498.316 203.689Z" fill="#F2F2F2" fill-opacity="0.7"/><path d="M503.851 204.192C503.851 205.73 502.604 206.977 501.066 206.977 499.528 206.977 498.281 205.73 498.281 204.192 498.281 202.654 499.528 201.407 501.066 201.407 502.604 201.407 503.851 202.654 503.851 204.192Z" fill="#F2F2F2"/><path d="M505.744 206.069C505.572 205.983 505.434 205.908 505.27 205.82L505.225 205.796C505.077 205.718 504.933 205.639 504.788 205.56L504.707 205.515 504.313 205.294 504.216 205.239C504.059 205.152 503.904 205.067 503.751 204.974 503.592 205.518 503.263 205.997 502.811 206.34 502.992 206.447 503.176 206.552 503.364 206.657L503.488 206.727 504.004 207.012 504.054 207.039C504.469 207.265 504.893 207.49 505.327 207.712L505.327 207.712C505.504 207.175 505.644 206.625 505.746 206.068Z" fill="#F2F2F2" fill-opacity="0.55"/><path d="M490.623 203.326C490.623 205.555 488.816 207.361 486.587 207.361 484.359 207.361 482.552 205.555 482.552 203.326 482.552 201.097 484.359 199.291 486.587 199.291 488.816 199.291 490.623 201.097 490.623 203.326Z" fill="url(#fill47)"/><path d="M497.713 210.694C497.713 212.141 496.539 213.315 495.092 213.315 493.644 213.315 492.471 212.141 492.471 210.694 492.471 209.246 493.644 208.072 495.092 208.072 496.539 208.072 497.713 209.246 497.713 210.694Z" fill="#F2F2F2"/><path d="M510.139 209.206 509.593 207.556 509.333 207.556 507.376 207.556 506.541 206.581 506.806 204.375 505.265 203.6 505.072 203.793 503.694 205.17 502.413 205.081 501.035 203.324 499.385 203.87 499.375 204.13 499.375 206.087 498.4 206.922 496.23 206.652 495.457 208.191 495.65 208.384 497.028 209.762 496.94 211.042 495.154 212.436 495.7 214.085 495.96 214.095 497.916 214.095 498.752 215.07 498.486 217.276 500.028 218.049 500.221 217.856 501.598 216.479 502.88 216.568 504.258 218.325 505.907 217.779 505.918 217.519 505.918 215.564 506.892 214.727 509.099 214.992 509.874 213.453 509.681 213.258 508.303 211.88 508.393 210.599ZM503.699 213.992C501.947 214.572 500.056 213.622 499.475 211.87 498.894 210.117 499.844 208.226 501.597 207.645 503.349 207.065 505.241 208.015 505.821 209.767 505.822 209.769 505.822 209.771 505.823 209.772 506.401 211.524 505.451 213.412 503.699 213.992Z" fill="url(#fill48)"/><path d="M493.111 216.408 493.111 215.04 492.917 214.97 491.453 214.489 491.072 213.561 491.816 211.978 490.85 211.01 490.657 211.107 489.29 211.796 488.354 211.412 487.762 209.772 486.395 209.772 486.322 209.963 485.844 211.427 484.907 211.811 483.348 211.067 482.389 212.027 482.483 212.219 483.172 213.587 482.79 214.522 481.118 215.111 481.118 216.489 481.309 216.561 482.773 217.042 483.157 217.977 482.413 219.56 483.372 220.519 483.563 220.422 484.931 219.734 485.866 220.116 486.467 221.773 487.834 221.773 487.905 221.58 488.385 220.116 489.321 219.734 490.905 220.476 491.864 219.517 491.768 219.325 491.079 217.958 491.463 217.023ZM487.115 218.394C485.66 218.395 484.48 217.216 484.479 215.762 484.479 214.308 485.657 213.128 487.111 213.127 488.565 213.126 489.745 214.304 489.746 215.759 489.746 215.759 489.746 215.76 489.746 215.76 489.747 217.214 488.57 218.393 487.116 218.394 487.116 218.394 487.115 218.394 487.115 218.394Z" fill="#50E6FF"/><path d="M505.992 210.818C505.992 212.664 504.495 214.16 502.649 214.16 500.803 214.16 499.306 212.664 499.306 210.818 499.306 208.971 500.803 207.475 502.649 207.475 504.495 207.475 505.992 208.971 505.992 210.818Z" fill="#FFFFFF"/><path d="M489.746 215.76C489.746 217.214 488.568 218.392 487.115 218.392 485.661 218.392 484.483 217.214 484.483 215.76 484.483 214.307 485.661 213.129 487.115 213.129 488.568 213.129 489.746 214.307 489.746 215.76Z" fill="#FFFFFF"/></g></g></g><g clip-path="url(#clip49)"><g clip-path="url(#clip50)"><g clip-path="url(#clip51)"><path d="M40 25.2889C39.9007 20.8771 36.5798 17.2061 32.2 16.6667 31.9351 10.4677 26.7351 5.63409 20.5333 5.82222 15.6007 5.71522 11.134 8.72267 9.37778 13.3333 4.10351 13.9743 0.105092 18.3991-4.6624e-07 23.7111 0.228971 29.7089 5.26827 34.3904 11.2667 34.1778L12.2444 34.1778 30.4889 34.1778C30.6511 34.2009 30.8156 34.2009 30.9778 34.1778 35.8896 34.1313 39.8804 30.1996 40 25.2889Z" fill="url(#fill52)" transform="matrix(1.025 0 0 1 393 297)"/><path d="M12.0444 23.0889 10.0889 23.0889C9.7882 21.7854 8.48773 20.9724 7.1842 21.2731 5.88067 21.5738 5.06771 22.8742 5.3684 24.1778 5.66909 25.4813 6.96956 26.2942 8.27309 25.9936 9.1758 25.7853 9.88067 25.0804 10.0889 24.1778L12.0444 24.1778C12.2899 24.1778 12.4889 24.3767 12.4889 24.6222L12.4889 34.1778 13.5778 34.1778 13.5778 24.6222C13.5778 23.7753 12.8913 23.0889 12.0444 23.0889ZM7.71111 25.0444C6.92564 25.0444 6.28889 24.4078 6.28889 23.6222 6.28889 22.8367 6.92564 22.2 7.71111 22.2 8.49658 22.2 9.13333 22.8367 9.13333 23.6222 9.13333 24.4078 8.49658 25.0444 7.71111 25.0444Z" fill="#9CEBFF" transform="matrix(1.025 0 0 1 393 297)"/><path d="M19.8667 23.5778 19.8667 21.3556C19.8667 20.4964 19.1702 19.8 18.3111 19.8L14.8667 19.8C14.6212 19.8 14.4222 19.601 14.4222 19.3556L14.4222 7.55556 13.9111 7.82222 13.3333 8.13333 13.3333 19.2444C13.3333 20.0913 14.0198 20.7778 14.8667 20.7778L18.3111 20.7778C18.5688 20.7778 18.7778 20.9867 18.7778 21.2444L18.7778 23.4667C17.6712 23.7078 16.8839 24.6898 16.8889 25.8222 16.8877 27.16 17.9713 28.2453 19.309 28.2464 20.6468 28.2478 21.7322 27.1642 21.7333 25.8264 21.7343 24.702 20.9612 23.7247 19.8667 23.4667ZM19.3111 27.3556 19.3111 27.3556C18.5256 27.3556 17.8889 26.7189 17.8889 25.9333 17.8889 25.1478 18.5256 24.5111 19.3111 24.5111 20.0966 24.5111 20.7333 25.1478 20.7333 25.9333 20.7333 26.7189 20.0966 27.3556 19.3111 27.3556Z" fill="#F2F2F2" transform="matrix(1.025 0 0 1 393 297)"/><path d="M32.2889 18.8889C30.9511 18.8937 29.8707 19.9821 29.8753 21.3198 29.8796 22.4369 30.6469 23.4064 31.7333 23.6667L31.7333 24.1111C31.7333 24.3689 31.5244 24.5778 31.2667 24.5778L26.8222 24.5778 26.8222 16.7556C26.8222 15.9087 26.1358 15.2222 25.2889 15.2222L23 15.2222C22.7589 14.1157 21.777 13.3283 20.6444 13.3333 19.3067 13.3322 18.2213 14.4157 18.2201 15.7535 18.219 17.0912 19.3025 18.1766 20.6402 18.1778 21.7648 18.1788 22.742 17.4057 23 16.3111L25.3778 16.3111C25.6233 16.3111 25.8222 16.5101 25.8222 16.7556L25.8222 34.1778 26.9111 34.1778 26.9111 25.6667 31.3556 25.6667C32.2147 25.6667 32.9111 24.9702 32.9111 24.1111L32.9111 23.6667C34.0129 23.418 34.7967 22.4407 34.8 21.3111L34.8 21.3111C34.8009 19.9734 33.7171 18.8882 32.3793 18.8873 32.3493 18.8872 32.3191 18.8878 32.2889 18.8889ZM20.6444 17.1778 20.6444 17.1778C19.859 17.1778 19.2222 16.541 19.2222 15.7556 19.2222 14.9701 19.859 14.3333 20.6444 14.3333 21.4299 14.3333 22.0667 14.9701 22.0667 15.7556 22.0667 16.541 21.4299 17.1778 20.6444 17.1778ZM32.2889 22.7333 32.2889 22.7333C31.5036 22.7456 30.8569 22.1189 30.8447 21.3335 30.8324 20.5481 31.4591 19.9015 32.2444 19.8892 33.0298 19.877 33.6764 20.5037 33.6887 21.2891 33.6889 21.2964 33.6889 21.3038 33.6889 21.3111 33.6889 22.088 33.0658 22.7211 32.2889 22.7333Z" fill="#9CEBFF" transform="matrix(1.025 0 0 1 393 297)"/></g></g></g><g clip-path="url(#clip53)"><g clip-path="url(#clip54)"><g clip-path="url(#clip55)"><path d="M543.542 270.57 542.533 271.582C542.353 271.762 542.062 271.762 541.882 271.583L534.385 264.107C534.026 263.749 534.025 263.167 534.383 262.808L535.397 261.791 535.397 261.791 543.546 269.917C543.726 270.096 543.726 270.388 543.547 270.567Z" fill="#50E6FF"/><path d="M542.376 255.414 543.392 256.427C543.571 256.606 543.572 256.897 543.393 257.077L535.387 265.105 535.387 265.105 534.37 264.091C534.011 263.733 534.01 263.152 534.368 262.793L541.728 255.412C541.908 255.235 542.197 255.236 542.376 255.414Z" fill="#1490DF"/><path d="M563.604 261.798 564.617 262.814C564.975 263.173 564.974 263.754 564.615 264.112L557.118 271.589C556.938 271.768 556.647 271.768 556.468 271.588L555.459 270.577C555.28 270.397 555.281 270.106 555.46 269.927L563.608 261.802 563.608 261.802Z" fill="#50E6FF"/><path d="M564.624 264.087 563.609 265.1 563.609 265.1 555.603 257.072C555.424 256.892 555.424 256.601 555.604 256.421L556.62 255.408C556.8 255.229 557.091 255.229 557.27 255.409L564.63 262.79C564.988 263.149 564.987 263.73 564.628 264.088Z" fill="#1490DF"/><path d="M548.568 265.05 542.387 265.05C542.207 265.057 542.054 264.918 542.043 264.738 542.043 264.693 542.053 264.649 542.074 264.609L549.484 249.946C549.549 249.83 549.672 249.76 549.805 249.764L557.116 249.764C557.296 249.757 557.449 249.895 557.46 250.075 557.459 250.138 557.438 250.198 557.4 250.247L548.697 261.719 557.185 261.719C557.365 261.712 557.518 261.851 557.529 262.031 557.528 262.11 557.496 262.185 557.439 262.241L543.336 276.913C543.204 276.992 542.261 277.774 542.723 276.587L542.723 276.587Z" fill="url(#fill56)"/></g></g></g><path d="M203.13 263.173 262.71 263.772 262.704 264.438 203.123 263.84ZM208.247 267.174 202.498 263.5 208.319 259.942C208.477 259.846 208.682 259.896 208.778 260.053 208.874 260.21 208.824 260.415 208.667 260.511L203.3 263.791 203.306 263.225 208.606 266.612C208.761 266.711 208.806 266.917 208.707 267.073 208.608 267.228 208.402 267.273 208.247 267.174ZM257.587 260.437 263.336 264.111 257.514 267.669C257.357 267.765 257.152 267.716 257.056 267.559 256.96 267.401 257.009 267.196 257.166 267.1L262.533 263.821 262.527 264.386 257.228 260.999C257.073 260.9 257.027 260.694 257.126 260.539 257.225 260.384 257.431 260.338 257.587 260.437Z" fill="#4472C4"/><path d="M0.00885693-0.333216 22.3489 0.260587 22.3312 0.927019-0.00885693 0.333216ZM14.6424-4.56715 23.0013 0.61138 14.3791 5.33854C14.2177 5.42704 14.0151 5.36793 13.9266 5.2065 13.8381 5.04508 13.8972 4.84247 14.0586 4.75397L22.1798 0.301514 22.1645 0.877164 14.2913-4.00042C14.1348-4.09737 14.0865-4.30284 14.1835-4.45933 14.2804-4.61583 14.4859-4.6641 14.6424-4.56715Z" fill="#4472C4" transform="matrix(1 0 0 -1 294.5 264.111)"/><path d="M348.5 263.167 370.84 263.167 370.84 263.833 348.5 263.833ZM363.008 258.546 371.502 263.5 363.008 268.455C362.849 268.547 362.645 268.494 362.552 268.335 362.459 268.176 362.513 267.972 362.672 267.879L370.672 263.212 370.672 263.788 362.672 259.121C362.513 259.029 362.46 258.825 362.552 258.665 362.645 258.506 362.849 258.453 363.008 258.546Z" fill="#4472C4"/><path d="M1.52156e-06-0.333333 22.34-0.333231 22.34 0.333435-1.52156e-06 0.333333ZM14.5079-4.95453 23.0014 0.00010501 14.5078 4.95466C14.3488 5.04742 14.1447 4.99371 14.0519 4.83469 13.9592 4.67567 14.0129 4.47156 14.1719 4.37881L22.1719-0.287825 22.1719 0.288027 14.172-4.37868C14.0129-4.47144 13.9592-4.67554 14.052-4.83456 14.1448-4.99358 14.3489-5.04729 14.5079-4.95453Z" fill="#4472C4" transform="matrix(1 0 0 -1 402.5 263.5)"/><path d="M457.509 263.167 479.849 263.761 479.831 264.427 457.491 263.833ZM472.143 258.933 480.501 264.111 471.879 268.839C471.718 268.927 471.515 268.868 471.427 268.707 471.338 268.545 471.397 268.342 471.559 268.254L479.68 263.801 479.665 264.377 471.791 259.5C471.635 259.403 471.587 259.197 471.684 259.041 471.781 258.884 471.986 258.836 472.143 258.933Z" fill="#4472C4"/><path d="M0.00885537-0.333216 22.3489 0.260483 22.3312 0.926914-0.00885537 0.333216ZM14.6425-4.56721 23.0014 0.611275 14.3792 5.33848C14.2178 5.42698 14.0152 5.36786 13.9267 5.20644 13.8382 5.04501 13.8973 4.84241 14.0587 4.7539L22.1799 0.301413 22.1646 0.877063 14.2914-4.00049C14.1349-4.09744 14.0866-4.3029 14.1836-4.45939 14.2805-4.61589 14.486-4.66416 14.6425-4.56721Z" fill="#4472C4" transform="matrix(1 0 0 -1 511.5 264.111)"/><path d="M495.833 222.5 495.833 247.896 495.167 247.896 495.167 222.5ZM500.455 240.064 495.5 248.557 490.546 240.064C490.453 239.905 490.507 239.701 490.665 239.608 490.825 239.515 491.029 239.569 491.121 239.728L495.788 247.728 495.212 247.728 499.879 239.728C499.972 239.569 500.176 239.515 500.335 239.608 500.494 239.701 500.547 239.905 500.455 240.064Z" fill="#4472C4"/><path d="M0-0.333333 41.3888-0.333333 41.3888 37.9509 40.7221 37.9509 40.7221 0 41.0554 0.333333 0 0.333333ZM46.01 30.1189 41.0554 38.6125 36.1008 30.1189C36.0081 29.9599 36.0618 29.7558 36.2208 29.663 36.3798 29.5702 36.5839 29.6239 36.6767 29.783L41.3434 37.783 40.7675 37.783 45.4342 29.783C45.5269 29.6239 45.731 29.5702 45.8901 29.663 46.0491 29.7558 46.1028 29.9599 46.01 30.1189Z" fill="#4472C4" transform="matrix(-1.83697e-16 -1 -1 1.83697e-16 550.111 248.555)"/><path d="M278.833 221.5 278.833 248.007 278.167 248.007 278.167 221.5ZM283.455 240.175 278.5 248.669 273.546 240.175C273.453 240.016 273.507 239.812 273.665 239.719 273.825 239.626 274.029 239.68 274.121 239.839L278.788 247.839 278.212 247.839 282.879 239.839C282.972 239.68 283.176 239.626 283.335 239.719 283.494 239.812 283.547 240.016 283.455 240.175Z" fill="#4472C4"/><path d="M480.164 207.945 295.161 206.837 295.165 206.171 480.168 207.278ZM302.962 211.505 294.499 206.5 303.022 201.596C303.181 201.505 303.385 201.56 303.477 201.719 303.569 201.879 303.514 202.082 303.354 202.174L295.326 206.793 295.33 206.217 303.302 210.932C303.46 211.025 303.513 211.23 303.419 211.388 303.325 211.547 303.121 211.599 302.962 211.505Z" fill="#4472C4"/><path d="M332.833 279.5 332.833 305.507 332.167 305.507 332.167 279.5ZM337.455 297.675 332.5 306.168 327.546 297.675C327.453 297.516 327.507 297.312 327.665 297.219 327.825 297.126 328.029 297.18 328.121 297.339L332.788 305.339 332.212 305.339 336.879 297.339C336.972 297.18 337.176 297.126 337.335 297.219 337.494 297.312 337.547 297.516 337.455 297.675Z" fill="#4472C4"/><path d="M495.833 280.5 495.833 305.896 495.167 305.896 495.167 280.5ZM500.455 298.064 495.5 306.557 490.546 298.064C490.453 297.905 490.507 297.701 490.665 297.608 490.825 297.515 491.029 297.569 491.121 297.728L495.788 305.728 495.212 305.728 499.879 297.728C499.972 297.569 500.176 297.515 500.335 297.608 500.494 297.701 500.547 297.905 500.455 298.064Z" fill="#4472C4"/><g clip-path="url(#clip57)"><g clip-path="url(#clip58)"><g clip-path="url(#clip59)"><path d="M17.4128 29.6309 16.8793 30.6558 16.8567 30.6974C15.6183 32.8028 13.3311 34.1103 10.886 34.1103 9.65946 34.1103 8.44783 33.7797 7.38564 33.1545 5.79202 32.2171 4.65859 30.7165 4.19547 28.9268 4.17502 28.8507 4.15817 28.7739 4.14116 28.697L3.25875 35.4698 18.179 35.4698 17.4128 29.6309Z" fill="#4B4B4B" transform="matrix(1 0 0 1.02273 136 472)"/><path d="M18.2946 5.07813 5.7102 24.1436C4.02772 27.0039 4.98274 30.6897 7.84523 32.3721 10.7069 34.0553 14.3911 33.0994 16.0743 30.2371L24.6157 13.8176 19.9073 9.34184C18.6795 8.07589 18.2615 6.66187 18.2946 5.07813ZM12.9589 28.4052C12.2879 29.5471 10.8182 29.9276 9.67708 29.2573 8.53523 28.585 8.15392 27.1167 8.8257 25.9749 9.4967 24.8329 10.9663 24.4524 12.1074 25.1234 13.2486 25.7951 13.6306 27.264 12.9589 28.4052Z" fill="#4B4B4B" transform="matrix(1 0 0 1.02273 136 472)"/><path d="M18.597 36.2869 2.94577 36.2869C1.87997 36.2869 1.01655 37.151 1.01655 38.2168L1.01655 44 20.5254 44 20.5254 38.2168C20.5254 37.151 19.662 36.2869 18.597 36.2869Z" fill="#4B4B4B" transform="matrix(1 0 0 1.02273 136 472)"/><path d="M38.6739 15.9618C39.2913 15.9618 39.8841 16.0696 40.4339 16.2676L28.2309 1.67939C26.2848-0.435188 22.9925-0.571141 20.8786 1.3756 18.764 3.32097 18.6288 6.61341 20.5748 8.72721L33.4616 20.9697C33.5715 18.1898 35.8665 15.9618 38.6739 15.9618ZM25.7455 6.66334C24.9399 7.4048 23.6853 7.35195 22.9438 6.54638 22.2008 5.74071 22.253 4.48611 23.0594 3.74455 23.865 3.00171 25.1196 3.05379 25.8625 3.86023 26.6041 4.6658 26.5519 5.92041 25.7455 6.66334Z" fill="#4B4B4B" transform="matrix(1 0 0 1.02273 136 472)"/><path d="M37.0965 31.3867 38.779 33.2792 40.4607 31.3867 40.4607 28.2713 37.0965 28.2713Z" fill="#4B4B4B" transform="matrix(1 0 0 1.02273 136 472)"/><path d="M38.6739 16.8688C36.2936 16.8688 34.3637 18.7981 34.3637 21.179L34.3637 27.3811 42.9834 27.3811 42.9834 21.179C42.9834 18.7981 41.0549 16.8688 38.6739 16.8688ZM38.6739 22.7298C37.7443 22.7298 36.9915 21.9763 36.9915 21.0473 36.9915 20.1176 37.7443 19.3641 38.6739 19.3641 39.6029 19.3641 40.3571 20.1175 40.3571 21.0473 40.3571 21.9762 39.603 22.7298 38.6739 22.7298Z" fill="#4B4B4B" transform="matrix(1 0 0 1.02273 136 472)"/></g></g></g><text font-family="Yu Gothic,Yu Gothic_MSFontService,sans-serif" font-weight="400" font-size="13" transform="translate(195.21 499)"></text><g clip-path="url(#clip60)"><g clip-path="url(#clip61)"><g clip-path="url(#clip62)"><path d="M332.026 493.536C332.026 495.409 330.507 496.928 328.633 496.928 326.76 496.928 325.241 495.409 325.241 493.536 325.241 491.662 326.76 490.143 328.633 490.143 330.507 490.143 332.026 491.662 332.026 493.536Z" fill="#FFFFFF"/><path d="M336.986 503.628C336.986 505.102 335.791 506.297 334.317 506.297 332.842 506.297 331.647 505.102 331.647 503.628 331.647 502.153 332.842 500.958 334.317 500.958 335.791 500.958 336.986 502.153 336.986 503.628Z" fill="#FFFFFF"/><path d="M326.05 501.802C326.05 503.067 325.024 504.093 323.759 504.093 322.494 504.093 321.469 503.067 321.469 501.802 321.469 500.537 322.494 499.512 323.759 499.512 325.024 499.512 326.05 500.537 326.05 501.802Z" fill="#FFFFFF"/><path d="M324.948 484.356C324.948 485.926 323.676 487.198 322.106 487.198 320.537 487.198 319.264 485.926 319.264 484.356 319.264 482.787 320.537 481.514 322.106 481.514 323.676 481.514 324.948 482.787 324.948 484.356Z" fill="#FFFFFF"/><path d="M316.784 494.827C316.784 496.092 315.759 497.118 314.494 497.118 313.229 497.118 312.203 496.092 312.203 494.827 312.203 493.562 313.229 492.537 314.494 492.537 315.759 492.537 316.784 493.562 316.784 494.827Z" fill="#FFFFFF"/><path d="M334.937 503.094 329.202 493.053 328.633 493.381 329.098 493.036 322.606 483.805 321.417 484.666 327.169 492.847 314.425 493.897 314.546 495.378 327.169 494.328 322.984 501.286 324.242 502.043 328.547 494.879 333.662 503.817 334.937 503.094Z" fill="#949494"/><path d="M339.191 481.118 339.191 481.118C339.191 480.424 338.628 479.861 337.933 479.861L331.389 479.861C331.047 479.861 330.769 480.139 330.769 480.481L330.769 482.909C330.769 483.252 331.047 483.529 331.389 483.529L335.436 483.529 335.436 487.491C335.445 487.839 335.725 488.119 336.073 488.128L338.484 488.128C338.833 488.119 339.113 487.839 339.122 487.491L339.122 481.118Z" fill="#949494"/><path d="M317.611 505.471 313.495 505.471 313.495 501.509C313.486 501.161 313.206 500.881 312.858 500.872L310.447 500.872C310.099 500.881 309.818 501.161 309.809 501.509L309.809 507.882 309.809 507.882C309.819 508.569 310.379 509.122 311.067 509.122L317.611 509.122C317.954 509.122 318.231 508.844 318.231 508.502L318.231 506.091C318.231 505.748 317.954 505.471 317.611 505.471Z" fill="#949494"/><path d="M328.633 490.177C330.536 490.178 332.077 491.72 332.077 493.623 332.076 495.525 330.533 497.067 328.631 497.066 326.729 497.066 325.187 495.523 325.188 493.621 325.188 493.592 325.188 493.564 325.189 493.536 325.236 491.667 326.764 490.177 328.633 490.177ZM319.333 484.356C319.324 485.935 320.597 487.222 322.176 487.231 323.755 487.24 325.042 485.968 325.051 484.389 325.06 482.81 323.787 481.523 322.209 481.514 322.18 481.513 322.152 481.514 322.123 481.514 320.574 481.543 319.333 482.807 319.333 484.356ZM312.203 494.81C312.203 496.075 313.229 497.101 314.494 497.101 315.759 497.101 316.784 496.075 316.784 494.81 316.784 493.545 315.759 492.519 314.494 492.519 313.229 492.519 312.203 493.545 312.203 494.81ZM321.469 501.785C321.459 503.059 322.485 504.1 323.759 504.11 325.034 504.119 326.075 503.094 326.084 501.819 326.094 500.545 325.068 499.504 323.794 499.494 323.788 499.494 323.782 499.494 323.777 499.494 322.512 499.485 321.478 500.503 321.469 501.768 321.469 501.773 321.469 501.779 321.469 501.785ZM331.664 503.628C331.655 505.102 332.842 506.305 334.317 506.314 335.791 506.324 336.994 505.136 337.003 503.662 337.013 502.188 335.825 500.985 334.351 500.976 334.345 500.976 334.34 500.976 334.334 500.976 332.879 500.956 331.684 502.121 331.665 503.576 331.664 503.593 331.664 503.61 331.664 503.628Z" fill="url(#fill63)"/></g></g></g><text font-family="Yu Gothic,Yu Gothic_MSFontService,sans-serif" font-weight="400" font-size="13" transform="translate(355.001 499)">Azure IoT</text><text font-family="Yu Gothic,Yu Gothic_MSFontService,sans-serif" font-weight="400" font-size="13" transform="translate(417.167 499)">Hub</text><g clip-path="url(#clip64)"><g clip-path="url(#clip65)"><g clip-path="url(#clip66)"><path d="M505 497.688 505 494.606 504.828 494.451 501.659 493.383 500.849 491.333 502.417 488.096 502.589 487.734 501.556 486.683 500.35 485.495 499.937 485.702 496.837 487.269 494.753 486.683 493.409 483.239 490.327 483.239 490.172 483.394 489.104 486.546 486.934 487.355 483.352 485.633 481.147 487.786 481.354 488.199 483.007 491.333C484.669 490.332 486.579 489.819 488.518 489.852 490.72 489.863 492.866 490.549 494.667 491.816 494.883 491.951 495.09 492.1 495.287 492.263L495.287 492.263C496.011 492.889 496.562 493.689 496.888 494.588L496.888 494.588C497.129 495.197 497.252 495.846 497.25 496.5 497.25 499.572 494.759 502.063 491.687 502.063 491.676 502.063 491.664 502.063 491.653 502.063 490.501 502.062 489.377 501.707 488.432 501.047 486.568 502.839 484.125 503.908 481.543 504.061L481.216 504.732 483.421 506.954 483.868 506.833 486.968 505.111 489.104 505.989 490.464 509.709 493.564 509.709 493.685 509.279 494.787 505.989 496.888 505.111 500.522 506.833 502.709 504.663 502.503 504.25 500.901 501.167 501.556 499.014Z" fill="url(#fill67)"/><path d="M480.889 499.342 480.889 499.342C479.237 499.35 477.65 498.699 476.48 497.533 476.106 497.306 475.988 496.818 476.215 496.445 476.443 496.071 476.93 495.953 477.304 496.18 477.431 496.257 477.533 496.368 477.599 496.5 478.484 497.342 479.668 497.795 480.889 497.757L480.889 497.757C482.093 497.787 483.258 497.334 484.127 496.5 485.301 495.362 486.883 494.741 488.518 494.778 490.162 494.749 491.752 495.368 492.944 496.5 493.266 496.797 493.286 497.298 492.99 497.619 492.694 497.941 492.192 497.962 491.871 497.665 491.855 497.65 491.84 497.635 491.825 497.619 490.959 496.761 489.79 496.278 488.57 496.276L488.57 496.276C487.353 496.267 486.185 496.752 485.332 497.619 484.139 498.761 482.54 499.381 480.889 499.342Z" fill="#50E6FF"/><path d="M480.889 496.19 480.889 496.19C480.076 496.189 479.296 495.867 478.719 495.294 478.422 494.973 478.443 494.472 478.764 494.175 479.068 493.895 479.535 493.895 479.838 494.175 480.115 494.456 480.495 494.611 480.889 494.606L480.889 494.606C481.269 494.572 481.63 494.421 481.922 494.175 485.584 490.562 491.47 490.562 495.132 494.175 495.428 494.497 495.408 494.998 495.086 495.294 494.783 495.574 494.315 495.574 494.012 495.294 490.957 492.262 486.028 492.262 482.973 495.294 482.404 495.827 481.667 496.144 480.889 496.19Z" fill="#50E6FF"/><path d="M480.889 502.493C478.39 502.511 475.988 501.525 474.224 499.755 473.935 499.444 473.935 498.963 474.224 498.653 474.539 498.342 475.045 498.342 475.361 498.653 476.822 500.124 478.815 500.944 480.889 500.926 482.958 500.929 484.942 500.104 486.4 498.636 486.976 498.122 487.713 497.824 488.484 497.792 489.29 497.804 490.06 498.124 490.637 498.687 490.945 498.997 490.945 499.497 490.637 499.807 490.322 500.117 489.815 500.117 489.5 499.807 489.233 499.533 488.867 499.378 488.484 499.376L488.484 499.376C488.099 499.405 487.735 499.563 487.451 499.824 485.7 501.543 483.342 502.502 480.889 502.493Z" fill="#32BEDD"/></g></g></g><text font-family="Yu Gothic,Yu Gothic_MSFontService,sans-serif" font-weight="400" font-size="13" transform="translate(520.355 499)">Azure Stream Analytics</text><g clip-path="url(#clip68)"><g clip-path="url(#clip69)"><g clip-path="url(#clip70)"><path d="M4.14612 13.0769 5.59813 13.0769C5.8561 13.0769 6.06523 13.286 6.06523 13.544L6.06523 24.2994C6.06523 24.8144 5.64777 25.2318 5.13279 25.2318L3.67378 25.2318 3.67378 25.2318 3.67378 13.5422C3.67378 13.2843 3.8829 13.0751 4.14087 13.0751Z" fill="#50E6FF" transform="matrix(-0.717553 0.697098 -0.719585 -0.69513 164.235 571.77)"/><path d="M4.06703 6.29734 5.52416 6.29734C5.78211 6.29734 5.99122 6.50644 5.99122 6.76439L5.99122 18.2798 5.99122 18.2798 4.53233 18.2798C4.0174 18.2798 3.59998 17.8624 3.59998 17.3474L3.59998 6.76089C3.6019 6.50431 3.81045 6.29734 4.06703 6.29734Z" fill="#1490DF" transform="matrix(0.71965 0.695192 -0.717617 0.697161 152.238 543.196)"/><path d="M25.419 13.0769 26.8763 13.0769C27.3913 13.0769 27.8087 13.4944 27.8087 14.0093L27.8087 24.7647C27.8087 25.0228 27.5997 25.2318 27.3416 25.2318L25.8914 25.2318C25.6333 25.2318 25.4243 25.0228 25.4243 24.7647L25.4243 13.0769 25.4243 13.0769Z" fill="#50E6FF" transform="matrix(0.717553 0.697098 -0.719585 0.69513 163.73 529.989)"/><path d="M26.4278 6.29734 27.885 6.29734 27.885 6.29734 27.885 17.8127C27.885 18.0707 27.6759 18.2798 27.4179 18.2798L25.9608 18.2798C25.7028 18.2798 25.4937 18.0707 25.4937 17.8127L25.4937 7.22619C25.4937 6.71126 25.9111 6.29384 26.4261 6.29384Z" fill="#1490DF" transform="matrix(-0.71965 0.695192 -0.717617 -0.697161 197.15 545.105)"/><path d="M14.5683 17.05 8.38722 17.05C8.2068 17.0569 8.05387 16.9185 8.04278 16.7383 8.04283 16.6934 8.05344 16.6491 8.07378 16.6091L15.4845 1.94611C15.5488 1.83019 15.6723 1.75978 15.8048 1.76356L23.1157 1.76356C23.2962 1.75667 23.4491 1.89506 23.4601 2.07528 23.4594 2.13774 23.4382 2.19828 23.3998 2.2475L14.6974 13.7192 23.1846 13.7192C23.365 13.7123 23.518 13.8507 23.529 14.0309 23.5276 14.11 23.4956 14.1854 23.4394 14.2411L9.33617 28.9127C9.20356 28.9919 8.2615 29.7738 8.72306 28.5872L8.72306 28.5872Z" fill="url(#fill71)" transform="matrix(1.03226 0 0 1 142 543)"/></g></g></g><text font-family="Yu Gothic,Yu Gothic_MSFontService,sans-serif" font-weight="400" font-size="13" transform="translate(195.385 562)">Azure Functions</text><g clip-path="url(#clip72)"><g clip-path="url(#clip73)"><g clip-path="url(#clip74)"><path d="M326.652 557.501C326.662 557.742 326.479 557.948 326.238 557.966L322.639 557.966C322.398 557.976 322.192 557.793 322.174 557.553L322.174 554.866C322.164 554.625 322.347 554.419 322.587 554.401L326.187 554.401C326.428 554.391 326.633 554.574 326.652 554.814L326.652 557.501Z" fill="#76BC2D"/><path d="M333.041 560.222C333.051 560.463 332.868 560.669 332.628 560.687L329.028 560.687C328.787 560.697 328.582 560.514 328.563 560.274L328.563 557.604C328.553 557.363 328.736 557.158 328.977 557.139L332.576 557.139C332.817 557.129 333.023 557.312 333.041 557.553L333.041 560.222Z" fill="#76BC2D"/><path d="M326.652 562.978C326.662 563.219 326.479 563.424 326.238 563.443L322.639 563.443C322.398 563.453 322.192 563.27 322.174 563.029L322.174 560.343C322.164 560.102 322.347 559.896 322.587 559.878L326.187 559.878C326.428 559.868 326.633 560.051 326.652 560.291L326.652 562.978Z" fill="#76BC2D"/><path d="M320.262 554.78C320.272 555.012 320.097 555.209 319.866 555.228L316.163 555.228C315.928 555.238 315.725 555.065 315.698 554.832L315.698 552.042C315.706 551.814 315.884 551.628 316.112 551.611L319.711 551.611C320.09 551.611 320.262 551.801 320.262 552.076Z" fill="#86D633"/><path d="M320.262 560.222C320.282 560.459 320.106 560.667 319.869 560.687 319.868 560.687 319.867 560.687 319.866 560.687L316.163 560.687C315.916 560.697 315.708 560.505 315.698 560.257 315.698 560.246 315.698 560.234 315.698 560.222L315.698 557.501C315.698 557.267 315.878 557.071 316.112 557.053L319.711 557.053C320.09 557.053 320.262 557.243 320.262 557.501Z" fill="#76BC2D"/><path d="M320.262 565.716C320.282 565.953 320.106 566.161 319.869 566.181 319.868 566.181 319.867 566.181 319.866 566.181L316.163 566.181C315.922 566.191 315.717 566.008 315.698 565.768L315.698 562.978C315.689 562.74 315.873 562.54 316.111 562.53 316.111 562.53 316.111 562.53 316.112 562.53L319.711 562.53C320.09 562.53 320.262 562.702 320.262 562.978Z" fill="#76BC2D"/><path d="M309.843 545.601 312.064 545.601 312.064 545.601 312.064 551.801C312.064 552.076 311.841 552.3 311.565 552.3L309.361 552.3C309.085 552.3 308.861 552.076 308.861 551.801L308.861 546.634C308.833 546.092 309.248 545.63 309.79 545.602 309.807 545.601 309.825 545.601 309.843 545.601Z" fill="#999999"/><path d="M309.843 545.601 312.064 545.601 312.064 545.601 312.064 551.801C312.064 552.076 311.841 552.3 311.565 552.3L309.361 552.3C309.085 552.3 308.861 552.076 308.861 551.801L308.861 546.634C308.833 546.092 309.248 545.63 309.79 545.602 309.807 545.601 309.825 545.601 309.843 545.601Z" fill="#999999" fill-opacity="0.5"/><path d="M334.936 545.601 337.157 545.601C337.699 545.601 338.139 546.04 338.139 546.582L338.139 551.749C338.139 552.025 337.915 552.248 337.639 552.248L335.418 552.248C335.142 552.248 334.918 552.025 334.918 551.749L334.918 545.601 334.936 545.601Z" fill="#999999"/><path d="M334.936 545.601 337.157 545.601C337.699 545.601 338.139 546.04 338.139 546.582L338.139 551.749C338.139 552.025 337.915 552.248 337.639 552.248L335.418 552.248C335.142 552.248 334.918 552.025 334.918 551.749L334.918 545.601 334.936 545.601Z" fill="#999999" fill-opacity="0.5"/><path d="M338.139 546.582 338.139 548.735 338.139 548.735 308.861 548.735 308.861 548.735 308.861 546.582C308.861 546.04 309.301 545.601 309.843 545.601L337.174 545.601C337.71 545.61 338.139 546.047 338.139 546.582Z" fill="#949494"/><path d="M309.361 564.976 311.582 564.976C311.858 564.976 312.082 565.199 312.082 565.475L312.082 571.675 312.082 571.675 309.843 571.675C309.301 571.675 308.861 571.235 308.861 570.693L308.861 565.389C308.903 565.147 309.115 564.972 309.361 564.976Z" fill="#999999"/><path d="M309.361 564.976 311.582 564.976C311.858 564.976 312.082 565.199 312.082 565.475L312.082 571.675 312.082 571.675 309.843 571.675C309.301 571.675 308.861 571.235 308.861 570.693L308.861 565.389C308.903 565.147 309.115 564.972 309.361 564.976Z" fill="#999999" fill-opacity="0.5"/><path d="M335.418 564.976 337.639 564.976C337.915 564.976 338.139 565.199 338.139 565.475L338.139 570.642C338.139 571.184 337.699 571.623 337.157 571.623L334.936 571.623 334.936 571.623 334.936 565.389C334.977 565.153 335.179 564.98 335.418 564.976Z" fill="#999999"/><path d="M335.418 564.976 337.639 564.976C337.915 564.976 338.139 565.199 338.139 565.475L338.139 570.642C338.139 571.184 337.699 571.623 337.157 571.623L334.936 571.623 334.936 571.623 334.936 565.389C334.977 565.153 335.179 564.98 335.418 564.976Z" fill="#999999" fill-opacity="0.5"/><path d="M308.861 570.693 308.861 568.541 308.861 568.541 338.139 568.541 338.139 568.541 338.139 570.693C338.139 571.235 337.699 571.675 337.157 571.675L309.843 571.675C309.301 571.675 308.861 571.235 308.861 570.693Z" fill="#949494"/></g></g></g><text font-family="Yu Gothic,Yu Gothic_MSFontService,sans-serif" font-weight="400" font-size="13" transform="translate(355.001 562)">Azure Event</text><text font-family="Yu Gothic,Yu Gothic_MSFontService,sans-serif" font-weight="400" font-size="13" transform="translate(432.167 562)">Hubs</text><g clip-path="url(#clip75)"><g clip-path="url(#clip76)"><g clip-path="url(#clip77)"><path d="M24.8482 5.76944 15.9013 0.602778C14.5039-0.203158 12.783-0.203158 11.3856 0.602778L2.43867 5.76944C1.04214 6.57696 0.181724 8.06742 0.180833 9.68061L0.180833 20.0139C0.181111 21.6277 1.04161 23.1189 2.43867 23.9268L11.3942 29.0935C12.7916 29.8995 14.5125 29.8995 15.9099 29.0935L24.8654 23.9268C26.2625 23.1189 27.1229 21.6277 27.1233 20.0139L27.1233 9.68061C27.1188 8.06388 26.2513 6.57257 24.8482 5.76944Z" fill="url(#fill78)" transform="matrix(1 0 0 1.03226 474 543)"/><path d="M29.0057 13.3352 22.7144 9.703C21.5915 9.0555 20.2086 9.0555 19.0857 9.703L12.7961 13.3352C11.6723 13.9816 10.9804 15.18 10.9826 16.4765L10.9826 23.7408C10.9825 25.0368 11.6738 26.2343 12.7961 26.8822L19.0857 30.5143C20.2086 31.1619 21.5915 31.1619 22.7144 30.5143L29.0057 26.8822C30.1308 26.2358 30.8254 25.0384 30.8278 23.7408L30.8278 16.4765C30.8257 15.1789 30.131 13.9812 29.0057 13.3352Z" fill="url(#fill79)" transform="matrix(1 0 0 1.03226 474 543)"/><path d="M13.051 5.10294 14.8628 4.10061 22.63 20.1982 21.9997 20.8871 4.8825 20.8871 5.07539 18.8256 19.5093 18.8256 13.051 5.10294Z" fill="url(#fill80)" transform="matrix(1 0 0 1.03226 474 543)"/><path d="M7.28844 19.9519C7.28844 21.3787 6.13185 22.5353 4.70511 22.5353 3.27838 22.5353 2.12178 21.3787 2.12178 19.9519 2.12178 18.5252 3.27838 17.3686 4.70511 17.3686 6.13185 17.3686 7.28844 18.5252 7.28844 19.9519Z" fill="#FFFFFF" transform="matrix(1 0 0 1.03226 474 543)"/><path d="M24.9378 20.1087C24.9378 22.3382 23.1304 24.1456 20.9009 24.1456 18.6714 24.1456 16.864 22.3382 16.864 20.1087 16.864 17.8792 18.6714 16.0718 20.9009 16.0718 23.1304 16.0718 24.9378 17.8792 24.9378 20.1087Z" fill="#FFFFFF" transform="matrix(1 0 0 1.03226 474 543)"/><path d="M16.4317 4.40544C16.4317 5.83218 15.2751 6.98878 13.8484 6.98878 12.4217 6.98878 11.2651 5.83218 11.2651 4.40544 11.2651 2.97871 12.4217 1.82211 13.8484 1.82211 15.2751 1.82211 16.4317 2.97871 16.4317 4.40544Z" fill="#FFFFFF" transform="matrix(1 0 0 1.03226 474 543)"/></g></g></g><text font-family="Yu Gothic,Yu Gothic_MSFontService,sans-serif" font-weight="400" font-size="13" transform="translate(520.355 562)">Azure Digital Twins</text><g clip-path="url(#clip81)"><g clip-path="url(#clip82)"><g clip-path="url(#clip83)"><path d="M153.143 610.128C147.459 610.128 142.809 608.406 142.809 606.408L142.809 626.196C142.809 628.228 147.339 629.899 152.936 629.916L153.091 629.916C158.757 629.916 163.424 628.194 163.424 626.196L163.424 606.408C163.407 608.457 158.809 610.128 153.143 610.128Z" fill="url(#fill84)"/><path d="M163.407 606.408C163.407 608.457 158.809 610.128 153.074 610.128 147.339 610.128 142.741 608.406 142.741 606.408 142.741 604.41 147.459 602.722 153.143 602.722 158.826 602.722 163.476 604.444 163.476 606.459" fill="#EAEAEA"/><path d="M160.944 606.167C160.944 607.476 157.5 608.526 153.074 608.526 148.648 608.526 145.255 607.407 145.255 606.167 145.255 604.927 148.786 603.738 153.143 603.738 157.5 603.738 160.944 604.789 160.944 606.167" fill="#50E6FF"/><path d="M153.143 606.649C151.023 606.596 148.91 606.898 146.891 607.544 148.908 608.2 151.022 608.509 153.143 608.457 155.258 608.508 157.366 608.199 159.377 607.544 157.364 606.9 155.256 606.597 153.143 606.649Z" fill="#198AB3"/><path d="M170.847 622.941C170.135 622.274 169.243 621.831 168.281 621.667 168.151 618.611 165.585 616.231 162.529 616.328 160.086 616.281 157.878 617.778 157.018 620.065 154.421 620.353 152.428 622.501 152.333 625.111 152.445 628.066 154.924 630.375 157.879 630.278L158.378 630.278 167.386 630.278 167.609 630.278C170.013 630.261 171.978 628.357 172.07 625.955 172.057 624.824 171.592 623.745 170.778 622.958" fill="url(#fill85)"/><path d="M166.628 628.211 165.009 628.211 165.009 623.854C165.009 623.395 165.009 622.878 165.009 622.304L165.009 622.304C165.009 622.734 164.837 623.062 164.785 623.268L163.063 628.211 161.719 628.211 159.997 623.303C159.901 622.975 159.826 622.641 159.773 622.304L159.773 622.304C159.773 623.01 159.773 623.647 159.773 624.181L159.773 628.211 158.327 628.211 158.327 620.926 160.738 620.926 162.219 625.249C162.337 625.584 162.424 625.93 162.477 626.282L162.477 626.282C162.563 625.886 162.667 625.524 162.753 625.232L164.251 620.926 166.628 620.926Z" fill="#FFFFFF"/></g></g></g><text font-family="Yu Gothic,Yu Gothic_MSFontService,sans-serif" font-weight="400" font-size="13" transform="translate(195.21 618)">Database</text><text font-family="Yu Gothic,Yu Gothic_MSFontService,sans-serif" font-weight="400" font-size="13" transform="translate(195.21 634)">SQLDB or Cosmos DB</text><g clip-path="url(#clip86)"><g clip-path="url(#clip87)"><g clip-path="url(#clip88)"><path d="M351.532 602.532 377.468 628.468C377.824 628.878 378.443 628.922 378.853 628.567 379.08 628.37 379.204 628.08 379.191 627.779L379.191 601.843C379.191 601.301 378.752 600.86 378.21 600.86 378.193 600.86 378.175 600.86 378.157 600.861L352.221 600.861C351.678 600.867 351.244 601.311 351.249 601.853 351.252 602.107 351.353 602.351 351.532 602.532Z" fill="url(#fill89)"/><path d="M358.524 609.524 370.476 621.476 379.087 612.865 379.087 601.843C379.088 601.32 378.679 600.889 378.157 600.861L367.187 600.861Z" fill="#50E6FF"/><path d="M360.75 617.188C360.931 617.007 361.226 617.007 361.407 617.188L362.82 618.601C363.001 618.783 363.001 619.077 362.82 619.259L352.067 630.012C351.885 630.193 351.591 630.193 351.409 630.012L349.996 628.599C349.815 628.418 349.815 628.123 349.996 627.942Z" fill="url(#fill90)"/><path d="M356.64 612.998C356.822 612.816 357.116 612.816 357.298 612.998L358.71 614.41C358.892 614.592 358.892 614.886 358.71 615.068L352.073 621.705C351.892 621.887 351.597 621.887 351.416 621.705L350.003 620.292C349.821 620.111 349.821 619.816 350.003 619.635Z" fill="url(#fill91)"/><path d="M364.862 621.279C365.044 621.097 365.338 621.097 365.52 621.279L366.932 622.691C367.114 622.873 367.114 623.167 366.932 623.349L360.295 629.986C360.114 630.168 359.819 630.168 359.638 629.986L358.225 628.573C358.043 628.392 358.043 628.097 358.225 627.916Z" fill="url(#fill92)"/><path d="M365.827 608.038C366.082 607.782 366.497 607.782 366.752 608.038L367.897 609.182C368.153 609.438 368.153 609.852 367.897 610.108L366.752 611.253C366.497 611.508 366.082 611.508 365.827 611.253L364.682 610.108C364.427 609.852 364.427 609.438 364.682 609.182Z" fill="#FFFFFF"/><path d="M369.96 603.897C370.216 603.642 370.63 603.642 370.886 603.897L372.03 605.042C372.286 605.298 372.286 605.712 372.03 605.968L370.886 607.112C370.63 607.368 370.216 607.368 369.96 607.112L368.816 605.968C368.56 605.712 368.56 605.298 368.816 605.042Z" fill="#FFFFFF"/><path d="M369.967 612.171C370.223 611.915 370.637 611.915 370.893 612.171L372.038 613.316C372.293 613.571 372.293 613.986 372.038 614.241L370.893 615.386C370.637 615.642 370.223 615.642 369.967 615.386L368.823 614.241C368.567 613.986 368.567 613.571 368.823 613.316Z" fill="#FFFFFF"/><path d="M372.956 609.179 374.093 608.043C374.347 607.786 374.762 607.784 375.018 608.038 375.02 608.04 375.021 608.041 375.023 608.043L376.159 609.179C376.416 609.434 376.418 609.848 376.164 610.105 376.162 610.106 376.161 610.108 376.159 610.109L375.023 611.246C374.768 611.503 374.354 611.505 374.097 611.251 374.096 611.249 374.094 611.248 374.093 611.246L372.956 610.109C372.699 609.855 372.697 609.441 372.952 609.184 372.953 609.182 372.955 609.181 372.956 609.179" fill="#FFFFFF"/></g></g></g><text font-family="Yu Gothic,Yu Gothic_MSFontService,sans-serif" font-weight="400" font-size="13" transform="translate(396.578 621)">Azure Data Explorer</text><g clip-path="url(#clip93)"><g clip-path="url(#clip94)"><g clip-path="url(#clip95)"><path d="M21.1093 22.7161C15.6306 26.965 7.74494 25.968 3.49611 20.4893-0.752708 15.0106 0.24428 7.12494 5.72294 2.87611L5.85556 2.77967C11.4361-1.33414 19.2949-0.145089 23.4088 5.43549 27.419 10.8755 26.4025 18.5141 21.1093 22.7161" fill="url(#fill96)" transform="matrix(1 0 0 1.03226 534 601)"/><path d="M10.0027 10.1835C13.5551 6.80729 18.263 4.91539 23.1639 4.89456 22.5239 4.09341 21.787 3.3749 20.9698 2.75556 18.5831 2.9084 16.2393 3.46148 14.0361 4.39167 11.7673 5.35733 9.71705 6.77143 8.00833 8.54911 8.83364 8.86169 9.53405 9.43568 10.0027 10.1835Z" fill="#FFFFFF" fill-opacity="0.6" transform="matrix(1 0 0 1.03226 534 601)"/><path d="M3.78889 15.2262C3.28376 16.4861 2.87107 17.7813 2.55406 19.1012 2.83214 19.5739 3.1393 20.0288 3.47372 20.4634 3.72904 20.7965 4.00212 21.1157 4.29178 21.4193 4.64874 19.6614 5.18427 17.9447 5.89 16.2957 5.0984 16.1574 4.36649 15.7848 3.78889 15.2262Z" fill="#FFFFFF" fill-opacity="0.6" transform="matrix(1 0 0 1.03226 534 601)"/><path d="M5.23383 8.52844C4.71148 7.12735 4.36945 5.66551 4.216 4.17811 3.59579 4.83478 3.04838 5.55656 2.58333 6.33089 2.75788 7.51626 3.04095 8.68308 3.42894 9.81667 3.89763 9.22625 4.52314 8.7798 5.23383 8.52844Z" fill="#F2F2F2" fill-opacity="0.55" transform="matrix(1 0 0 1.03226 534 601)"/><path d="M10.6227 12.3259C10.6227 14.5545 8.81606 16.3611 6.5875 16.3611 4.35894 16.3611 2.55233 14.5545 2.55233 12.3259 2.55233 10.0974 4.35894 8.29078 6.5875 8.29078 8.81606 8.29078 10.6227 10.0974 10.6227 12.3259Z" fill="url(#fill97)" transform="matrix(1 0 0 1.03226 534 601)"/><path d="M12.4706 19.6936C12.4698 18.9878 12.755 18.3119 13.2611 17.8198 11.9039 17.0725 10.6504 16.1508 9.5325 15.0781 8.94524 15.7049 8.17274 16.1274 7.32806 16.2836 7.99015 16.9723 8.70725 17.6059 9.47222 18.1781 10.4177 18.8888 11.4299 19.5059 12.4947 20.0208 12.4793 19.9125 12.4712 19.8031 12.4706 19.6936Z" fill="#F2F2F2" fill-opacity="0.55" transform="matrix(1 0 0 1.03226 534 601)"/><path d="M21.7723 20.0071C20.4026 20.0069 19.0376 19.8481 17.7044 19.5334 17.7044 19.5868 17.7131 19.6402 17.7131 19.6936 17.7151 20.3792 17.4473 21.0382 16.9673 21.5278 18.6251 21.8553 20.3172 21.9762 22.0048 21.8877 22.6398 21.2882 23.2097 20.6233 23.7047 19.9037 23.0628 19.9726 22.4178 20.0071 21.7723 20.0071Z" fill="#F2F2F2" fill-opacity="0.55" transform="matrix(1 0 0 1.03226 534 601)"/><path d="M17.7131 19.6936C17.7131 21.1413 16.5395 22.3148 15.0918 22.3148 13.6442 22.3148 12.4706 21.1413 12.4706 19.6936 12.4706 18.246 13.6442 17.0724 15.0918 17.0724 16.5395 17.0724 17.7131 18.2459 17.7131 19.6936Z" fill="url(#fill98)" transform="matrix(1 0 0 1.03226 534 601)"/><path d="M18.3158 12.6893C18.4526 12.1181 18.7696 11.606 19.22 11.2289 16.7838 9.45975 14.5707 7.40223 12.6291 5.10122 11.5054 3.76877 10.5236 2.32292 9.69956 0.787056 9.15091 0.955887 8.61459 1.16247 8.09444 1.40533 8.97135 3.0829 10.0275 4.66049 11.2444 6.11044 13.3194 8.58838 15.6948 10.7983 18.3158 12.6893Z" fill="#F2F2F2" fill-opacity="0.7" transform="matrix(1 0 0 1.03226 534 601)"/><path d="M23.8511 13.1922C23.8511 14.7302 22.6042 15.9771 21.0662 15.9771 19.5282 15.9771 18.2814 14.7302 18.2814 13.1922 18.2814 11.6542 19.5282 10.4074 21.0662 10.4074 22.6042 10.4074 23.8511 11.6542 23.8511 13.1922Z" fill="#F2F2F2" transform="matrix(1 0 0 1.03226 534 601)"/><path d="M25.7438 15.0694C25.5716 14.9833 25.4338 14.9076 25.2702 14.8197L25.2254 14.7956C25.0773 14.7181 24.9326 14.6389 24.7879 14.5597L24.707 14.5149 24.3126 14.2944 24.2162 14.2393C24.0594 14.1515 23.9044 14.0671 23.7512 13.9741 23.5922 14.5184 23.2626 14.9971 22.8108 15.3398 22.9917 15.4466 23.1759 15.5517 23.3637 15.6567L23.4877 15.7273 24.0043 16.0115 24.0543 16.0391C24.4693 16.2647 24.893 16.4903 25.327 16.7124L25.327 16.7124C25.5044 16.1745 25.6442 15.625 25.7455 15.0677Z" fill="#F2F2F2" fill-opacity="0.55" transform="matrix(1 0 0 1.03226 534 601)"/><path d="M10.6227 12.3259C10.6227 14.5545 8.81606 16.3611 6.5875 16.3611 4.35894 16.3611 2.55233 14.5545 2.55233 12.3259 2.55233 10.0974 4.35894 8.29078 6.5875 8.29078 8.81606 8.29078 10.6227 10.0974 10.6227 12.3259Z" fill="url(#fill99)" transform="matrix(1 0 0 1.03226 534 601)"/><path d="M17.7131 19.6936C17.7131 21.1413 16.5395 22.3148 15.0918 22.3148 13.6442 22.3148 12.4706 21.1413 12.4706 19.6936 12.4706 18.246 13.6442 17.0724 15.0918 17.0724 16.5395 17.0724 17.7131 18.2459 17.7131 19.6936Z" fill="#F2F2F2" transform="matrix(1 0 0 1.03226 534 601)"/><path d="M30.1389 18.2056 29.5929 16.5557 29.3329 16.5557 27.3764 16.5557 26.5412 15.5809 26.8064 13.3748 25.265 12.5998 25.0721 12.7927 23.6943 14.1704 22.413 14.0809 21.0352 12.3242 19.3853 12.8702 19.375 13.1302 19.375 15.0867 18.4002 15.9219 16.2302 15.6516 15.4569 17.1912 15.6498 17.3841 17.0276 18.7619 16.9398 20.0415 15.1538 21.4365 15.6998 23.0847 15.9598 23.095 17.9163 23.095 18.7516 24.0698 18.4863 26.2759 20.0277 27.0492 20.2206 26.8563 21.5984 25.4786 22.8797 25.5681 24.2575 27.3248 25.9074 26.7788 25.9177 26.5188 25.9177 24.5641 26.8925 23.7271 29.0987 23.9923 29.8737 22.4526 29.6808 22.258 28.303 20.8802 28.3926 19.5989ZM23.6995 22.9917C21.947 23.5724 20.0556 22.6224 19.4749 20.8699 18.8943 19.1174 19.8443 17.226 21.5967 16.6453 23.3492 16.0646 25.2407 17.0146 25.8213 18.7671 25.8218 18.7688 25.8225 18.7705 25.823 18.7722 26.4011 20.5237 25.4507 22.4125 23.6995 22.9917Z" fill="url(#fill100)" transform="matrix(1 0 0 1.03226 534 601)"/><path d="M13.1113 25.4079 13.1113 24.0405 12.9167 23.9699 11.4528 23.4894 11.0722 22.5611 11.8162 20.9784 10.85 20.0105 10.6571 20.1069 9.28967 20.7958 8.3545 20.4118 7.76206 18.7722 6.39461 18.7722 6.32228 18.9634 5.8435 20.4273 4.90661 20.8113 3.348 20.0673 2.38872 21.0266 2.48344 21.2195 3.17233 22.5869 2.79 23.5221 1.11772 24.1111 1.11772 25.4889 1.30889 25.5612 2.77278 26.0417 3.15683 26.9769 2.41283 28.5596 3.37211 29.5189 3.56328 29.4224 4.93072 28.7336 5.86589 29.1159 6.46694 30.7727 7.83439 30.7727 7.905 30.5798 8.3855 29.1159 9.32067 28.7336 10.9051 29.4758 11.8644 28.5166 11.7679 28.3254 11.0791 26.9579 11.4631 26.0228ZM7.1145 27.3937C5.66019 27.3947 4.48045 26.2164 4.4795 24.7621 4.47855 23.3079 5.65674 22.1281 7.11106 22.1271 8.56537 22.1261 9.74511 23.3044 9.74606 24.7587 9.74606 24.7592 9.74606 24.7599 9.74606 24.7604 9.747 26.2138 8.56959 27.3926 7.11622 27.3937 7.11565 27.3937 7.11507 27.3937 7.1145 27.3937Z" fill="#50E6FF" transform="matrix(1 0 0 1.03226 534 601)"/><path d="M25.9918 19.8176C25.9918 21.6638 24.4951 23.1604 22.6489 23.1604 20.8027 23.1604 19.3061 21.6638 19.3061 19.8176 19.3061 17.9714 20.8027 16.4748 22.6489 16.4748 24.4951 16.4748 25.9918 17.9714 25.9918 19.8176Z" fill="#FFFFFF" transform="matrix(1 0 0 1.03226 534 601)"/><path d="M9.74606 24.7604C9.74606 26.2138 8.56787 27.3919 7.1145 27.3919 5.66113 27.3919 4.48294 26.2138 4.48294 24.7604 4.48294 23.307 5.66113 22.1288 7.1145 22.1288 8.56787 22.1288 9.74606 23.307 9.74606 24.7604Z" fill="#FFFFFF" transform="matrix(1 0 0 1.03226 534 601)"/></g></g></g><text font-family="Yu Gothic,Yu Gothic_MSFontService,sans-serif" font-weight="400" font-size="13" transform="translate(577.934 621)">Web</text><path d="M114.5 391.5 666.01 391.5" stroke="#BFBFBF" stroke-width="0.666667" stroke-miterlimit="8" fill="none" fill-rule="evenodd"/><text font-family="Yu Gothic,Yu Gothic_MSFontService,sans-serif" font-weight="400" font-size="13" transform="translate(329.501 445)"></text><g clip-path="url(#clip101)"><g clip-path="url(#clip102)"><g clip-path="url(#clip103)"><path d="M611.494 274.867C610.568 274.94 609.643 274.71 608.859 274.212 608.268 273.584 607.985 272.727 608.084 271.87L608.084 265.791C608.084 264.792 607.688 264.258 606.861 264.258L606.861 262.742C607.688 262.742 608.084 262.208 608.084 261.158L608.084 255.182C607.99 254.31 608.272 253.439 608.859 252.788 609.632 252.265 610.566 252.033 611.494 252.133L611.494 253.666C610.616 253.666 610.133 254.131 610.133 255.13L610.133 260.986C610.133 262.329 609.737 263.156 608.859 263.5 609.773 263.984 610.283 264.991 610.133 266.014L610.133 271.818C610.117 272.229 610.219 272.635 610.426 272.989 610.694 273.243 611.058 273.369 611.425 273.334L611.425 274.867Z" fill="#949494"/><path d="M631.506 252.133C632.432 252.06 633.357 252.29 634.141 252.788 634.732 253.416 635.015 254.273 634.916 255.13L634.916 261.209C634.916 262.208 635.312 262.742 636.139 262.742L636.139 264.258C635.312 264.258 634.916 264.792 634.916 265.842L634.916 271.749C635.013 272.627 634.731 273.504 634.141 274.161 633.375 274.703 632.441 274.954 631.506 274.867L631.506 273.334C632.384 273.334 632.867 272.869 632.867 271.87L632.867 266.014C632.867 264.671 633.263 263.844 634.141 263.5 633.227 263.016 632.717 262.009 632.867 260.986L632.867 255.182C632.883 254.771 632.781 254.365 632.574 254.011 632.306 253.757 631.942 253.631 631.575 253.666Z" fill="#949494"/><path d="M622.206 262.381 622.206 260.193 620.656 260.193 620.656 262.381C620.656 262.552 620.517 262.691 620.346 262.691L614.611 262.691C614.269 262.691 613.991 262.968 613.991 263.311L613.991 266.152 615.541 266.152 615.541 264.585C615.541 264.42 615.669 264.284 615.834 264.275L627.097 264.275C627.268 264.275 627.407 264.414 627.407 264.585L627.407 266.187 628.94 266.187 628.94 263.311C628.94 262.975 628.673 262.7 628.337 262.691L622.516 262.691C622.345 262.691 622.206 262.552 622.206 262.381Z" fill="#005BA1"/><path d="M624.273 253.528 618.486 253.528C618.131 253.528 617.841 253.811 617.832 254.166L617.832 259.952C617.832 260.304 618.117 260.59 618.469 260.59 618.474 260.59 618.48 260.59 618.486 260.589L624.273 260.589C624.624 260.608 624.924 260.339 624.944 259.988 624.944 259.976 624.944 259.964 624.944 259.952L624.944 254.166C624.935 253.804 624.635 253.519 624.273 253.528 624.273 253.528 624.273 253.528 624.273 253.528ZM623.722 258.988C623.712 259.219 623.522 259.401 623.291 259.401L619.451 259.401C619.219 259.401 619.029 259.219 619.02 258.988L619.02 255.147C619.02 254.909 619.213 254.717 619.451 254.717L623.222 254.717C623.46 254.717 623.653 254.909 623.653 255.147Z" fill="#0078D4"/><path d="M616.764 266.169C617.021 266.169 617.229 266.378 617.229 266.634L617.229 270.768C617.229 271.025 617.021 271.233 616.764 271.233L612.631 271.233C612.374 271.233 612.166 271.025 612.166 270.768L612.166 266.634C612.166 266.378 612.374 266.169 612.631 266.169Z" fill="url(#fill104)"/><path d="M630.197 266.204C630.454 266.204 630.662 266.412 630.662 266.669L630.662 270.802C630.662 271.059 630.454 271.267 630.197 271.267L626.064 271.267C625.807 271.267 625.599 271.059 625.599 270.802L625.599 266.669C625.599 266.412 625.807 266.204 626.064 266.204Z" fill="url(#fill105)"/></g></g></g><path d="M565.501 263.167 606.354 263.336 606.351 264.002 565.499 263.833ZM598.541 258.682 607.014 263.672 598.5 268.591C598.341 268.683 598.137 268.629 598.045 268.469 597.953 268.31 598.007 268.106 598.167 268.014L606.186 263.38 606.183 263.956 598.203 259.257C598.044 259.163 597.991 258.959 598.085 258.8 598.178 258.642 598.382 258.589 598.541 258.682Z" fill="#4472C4"/><path d="M621.951 248.5 621.951 230.378 622.284 230.711 495.5 230.711 495.833 230.378 495.833 248.108 495.167 248.108 495.167 230.044 622.618 230.044 622.618 248.5ZM500.455 240.276 495.5 248.769 490.545 240.276C490.453 240.116 490.506 239.912 490.665 239.82 490.824 239.727 491.029 239.781 491.121 239.94L495.788 247.94 495.212 247.94 499.879 239.94C499.972 239.781 500.176 239.727 500.335 239.82 500.494 239.912 500.547 240.116 500.455 240.276Z" fill="#4472C4"/><text font-family="Yu Gothic,Yu Gothic_MSFontService,sans-serif" font-weight="400" font-size="24" transform="translate(782.044 206)"></text><text font-family="Arial,Arial_MSFontService,sans-serif" font-weight="400" font-size="24" transform="translate(782.044 235)"></text><text font-family="Yu Gothic,Yu Gothic_MSFontService,sans-serif" font-weight="400" font-size="24" transform="translate(812.044 235)"></text><text font-family="Arial,Arial_MSFontService,sans-serif" font-weight="400" font-size="24" transform="translate(782.044 264)"></text><text font-family="Yu Gothic,Yu Gothic_MSFontService,sans-serif" font-weight="400" font-size="24" transform="translate(812.044 264)"></text><text font-family="Yu Gothic,Yu Gothic_MSFontService,sans-serif" font-weight="400" font-size="24" transform="translate(782.044 321)"></text><text font-family="Arial,Arial_MSFontService,sans-serif" font-weight="400" font-size="24" transform="translate(782.044 350)"></text><text font-family="Yu Gothic,Yu Gothic_MSFontService,sans-serif" font-weight="400" font-size="24" transform="translate(812.044 350)"></text><text font-family="Arial,Arial_MSFontService,sans-serif" font-weight="400" font-size="24" transform="translate(782.044 379)"></text><text font-family="Yu Gothic,Yu Gothic_MSFontService,sans-serif" font-weight="400" font-size="24" transform="translate(812.044 379)"></text><text font-family="Arial,Arial_MSFontService,sans-serif" font-weight="400" font-size="24" transform="translate(782.044 408)"></text><text font-family="Yu Gothic,Yu Gothic_MSFontService,sans-serif" font-weight="400" font-size="24" transform="translate(812.044 408)"></text><text font-family="Yu Gothic,Yu Gothic_MSFontService,sans-serif" font-weight="400" font-size="24" transform="translate(782.044 465)"></text><text font-family="Yu Gothic,Yu Gothic_MSFontService,sans-serif" font-weight="400" font-size="24" transform="translate(782.044 494)"></text><text font-family="Yu Gothic,Yu Gothic_MSFontService,sans-serif" font-weight="400" font-size="24" transform="translate(782.044 523)"></text><text font-family="Yu Gothic,Yu Gothic_MSFontService,sans-serif" font-weight="400" font-size="24" transform="translate(782.044 580)"></text><text font-family="Yu Gothic,Yu Gothic_MSFontService,sans-serif" font-weight="400" font-size="24" transform="translate(812.878 580)"></text></g></svg>