<svg width="1016" height="357" xmlns="http://www.w3.org/2000/svg" xmlns:xlink="http://www.w3.org/1999/xlink" overflow="hidden"><defs><clipPath id="clip0"><rect x="206" y="287" width="1016" height="357"/></clipPath><linearGradient x1="345" y1="373.5" x2="345" y2="473.5" gradientUnits="userSpaceOnUse" spreadMethod="reflect" id="fill1"><stop offset="0" stop-color="#4472C4" stop-opacity="0.301961"/><stop offset="0.4" stop-color="#FFFFFF" stop-opacity="0.301961"/><stop offset="0.63" stop-color="#FFFFFF" stop-opacity="0.301961"/><stop offset="1" stop-color="#ED7D31" stop-opacity="0.301961"/></linearGradient></defs><g clip-path="url(#clip0)" transform="translate(-206 -287)"><rect x="208.5" y="289.5" width="269" height="76" stroke="#FF0000" stroke-width="3" stroke-miterlimit="8" stroke-opacity="0.301961" fill="#4472C4" fill-opacity="0.301961"/><text fill="#FFFFFF" fill-opacity="0.501961" font-family="Yu Gothic,Yu Gothic_MSFontService,sans-serif" font-weight="700" font-size="24" transform="translate(294.721 335)">目指す姿</text><rect x="208.5" y="486.5" width="269" height="76" stroke="#FF0000" stroke-width="3" stroke-miterlimit="8" fill="#ED7D31"/><text fill="#FFFFFF" font-family="Yu Gothic,Yu Gothic_MSFontService,sans-serif" font-weight="700" font-size="24" transform="translate(294.721 532)">現在の姿</text><path d="M319.5 399 345 373.5 370.5 399 357.75 399 357.75 448 370.5 448 345 473.5 319.5 448 332.25 448 332.25 399Z" stroke="#2F528F" stroke-width="1.33333" stroke-miterlimit="8" stroke-opacity="0.301961" fill="url(#fill1)" fill-rule="evenodd"/><text fill="#000000" fill-opacity="0.301961" font-family="Yu Gothic,Yu Gothic_MSFontService,sans-serif" font-weight="400" font-size="24" transform="translate(335.928 402)">G</text><text fill="#000000" fill-opacity="0.301961" font-family="Yu Gothic,Yu Gothic_MSFontService,sans-serif" font-weight="400" font-size="24" transform="translate(335.928 431)">A</text><text fill="#000000" fill-opacity="0.301961" font-family="Yu Gothic,Yu Gothic_MSFontService,sans-serif" font-weight="400" font-size="24" transform="translate(335.928 460)">P</text><text font-family="Yu Gothic,Yu Gothic_MSFontService,sans-serif" font-weight="700" font-size="24" transform="translate(328.838 614)">“現在の姿”を正確に把握・認識する</text><path d="M319.724 608.879 264.741 608.879 260.005 551.624 262.995 551.376 267.617 607.256 266.122 605.879 319.724 605.879ZM255.594 556.122C253.041 552.861 253.616 548.147 256.878 545.594 260.14 543.041 264.853 543.616 267.406 546.878 269.959 550.14 269.384 554.853 266.122 557.406 262.861 559.959 258.147 559.384 255.594 556.122Z" fill="#FF0000"/><path d="M724.5 601 743.75 581.75 743.75 591.375 792.221 591.375 792.221 562.5 1221.5 562.5 1221.5 639.5 792.221 639.5 792.221 610.625 743.75 610.625 743.75 620.25Z" stroke="#FF0000" stroke-width="1.33333" stroke-miterlimit="8" fill="#FFC000" fill-rule="evenodd"/><text font-family="Yu Gothic,Yu Gothic_MSFontService,sans-serif" font-weight="700" font-size="24" transform="translate(814.386 594)">複雑に絡み合う、人・モノ・コトの</text><text font-family="Yu Gothic,Yu Gothic_MSFontService,sans-serif" font-weight="700" font-size="24" transform="translate(838.386 623)">役割・状態を</text><text font-family="Yu Gothic,Yu Gothic_MSFontService,sans-serif" font-weight="700" font-size="24" transform="translate(982.386 623)">データ化</text><text font-family="Yu Gothic,Yu Gothic_MSFontService,sans-serif" font-weight="700" font-size="24" transform="translate(1078.39 623)">し、</text><text font-family="Yu Gothic,Yu Gothic_MSFontService,sans-serif" font-weight="700" font-size="24" transform="translate(1126.39 623)">収集</text><path d="M982.386 624.678 1078.39 624.678 1078.39 625.678 982.386 625.678Z" fill-rule="evenodd"/><path d="M1126.39 624.678 1174.39 624.678 1174.39 625.678 1126.39 625.678Z" fill-rule="evenodd"/><rect x="688.5" y="326.5" width="488" height="142" stroke="#5B9BD5" stroke-width="3" stroke-miterlimit="8" fill="#5B9BD5"/><path d="M674.743 326.5 674.743 468.5Z" stroke="#5B9BD5" stroke-width="3" stroke-miterlimit="8" fill="none" fill-rule="evenodd"/><path d="M674.743 350.963 607.165 353.125 607.165 468.5 814.682 578.593" stroke="#5B9BD5" stroke-width="3" stroke-miterlimit="8" fill="none" fill-rule="evenodd"/><text fill="#FFFFFF" font-family="Arial,Arial_MSFontService,sans-serif" font-weight="400" font-size="24" transform="translate(697.428 353)">•</text><text fill="#FFFFFF" font-family="Yu Gothic,Yu Gothic_MSFontService,sans-serif" font-weight="700" font-size="24" transform="translate(727.428 353)">現実世界（機器）からのデータ収集</text><text fill="#FFFFFF" font-family="Yu Gothic,Yu Gothic_MSFontService,sans-serif" font-weight="700" font-size="24" transform="translate(727.428 382)">→</text><text fill="#FFFFFF" font-family="Yu Gothic,Yu Gothic_MSFontService,sans-serif" font-weight="700" font-size="24" transform="translate(758.261 382)">IoT</text><text fill="#FFFFFF" font-family="Yu Gothic,Yu Gothic_MSFontService,sans-serif" font-weight="700" font-size="24" transform="translate(802.761 382)">の活用</text><text fill="#FFFFFF" font-family="Arial,Arial_MSFontService,sans-serif" font-weight="400" font-size="24" transform="translate(697.428 411)">•</text><text fill="#FFFFFF" font-family="Yu Gothic,Yu Gothic_MSFontService,sans-serif" font-weight="700" font-size="24" transform="translate(727.428 411)">概念モデリングによるデータ項目定義</text><text fill="#FFFFFF" font-family="Yu Gothic,Yu Gothic_MSFontService,sans-serif" font-weight="700" font-size="24" transform="translate(727.428 440)">→</text><text fill="#FFFFFF" font-family="Yu Gothic,Yu Gothic_MSFontService,sans-serif" font-weight="700" font-size="24" transform="translate(758.261 440)">Digital</text><text fill="#FFFFFF" font-family="Yu Gothic,Yu Gothic_MSFontService,sans-serif" font-weight="700" font-size="24" transform="translate(841.261 440)">Twins</text></g></svg>