<svg width="827" height="359" xmlns="http://www.w3.org/2000/svg" xmlns:xlink="http://www.w3.org/1999/xlink" overflow="hidden"><defs><clipPath id="clip0"><rect x="206" y="206" width="827" height="359"/></clipPath><linearGradient x1="345" y1="373.5" x2="345" y2="473.5" gradientUnits="userSpaceOnUse" spreadMethod="reflect" id="fill1"><stop offset="0" stop-color="#4472C4" stop-opacity="0.301961"/><stop offset="0.4" stop-color="#FFFFFF" stop-opacity="0.301961"/><stop offset="0.63" stop-color="#FFFFFF" stop-opacity="0.301961"/><stop offset="1" stop-color="#ED7D31" stop-opacity="0.301961"/></linearGradient></defs><g clip-path="url(#clip0)" transform="translate(-206 -206)"><rect x="208.5" y="289.5" width="269" height="76" stroke="#FF0000" stroke-width="3" stroke-miterlimit="8" fill="#4472C4"/><text fill="#FFFFFF" font-family="Yu Gothic,Yu Gothic_MSFontService,sans-serif" font-weight="700" font-size="24" transform="translate(239.888 335)">目指す姿</text><text fill="#FFFFFF" font-family="Yu Gothic,Yu Gothic_MSFontService,sans-serif" font-weight="700" font-size="24" transform="translate(342.721 335)">⇒</text><text fill="#FFFFFF" font-family="Yu Gothic,Yu Gothic_MSFontService,sans-serif" font-weight="700" font-size="24" transform="translate(373.554 335)">目標値</text><rect x="208.5" y="486.5" width="269" height="76" stroke="#FF0000" stroke-width="3" stroke-miterlimit="8" stroke-opacity="0.501961" fill="#ED7D31" fill-opacity="0.501961"/><text fill="#FFFFFF" fill-opacity="0.501961" font-family="Yu Gothic,Yu Gothic_MSFontService,sans-serif" font-weight="700" font-size="24" transform="translate(294.721 532)">現在の姿</text><path d="M319.5 399 345 373.5 370.5 399 357.75 399 357.75 448 370.5 448 345 473.5 319.5 448 332.25 448 332.25 399Z" stroke="#2F528F" stroke-width="1.33333" stroke-miterlimit="8" stroke-opacity="0.301961" fill="url(#fill1)" fill-rule="evenodd"/><text fill="#000000" fill-opacity="0.301961" font-family="Yu Gothic,Yu Gothic_MSFontService,sans-serif" font-weight="400" font-size="24" transform="translate(335.928 402)">G</text><text fill="#000000" fill-opacity="0.301961" font-family="Yu Gothic,Yu Gothic_MSFontService,sans-serif" font-weight="400" font-size="24" transform="translate(335.928 431)">A</text><text fill="#000000" fill-opacity="0.301961" font-family="Yu Gothic,Yu Gothic_MSFontService,sans-serif" font-weight="400" font-size="24" transform="translate(335.928 460)">P</text><text font-family="Yu Gothic,Yu Gothic_MSFontService,sans-serif" font-weight="700" font-size="24" transform="translate(486.988 236)">“目指す姿”をデータ項目と具体的な値で定義する</text><text font-family="Yu Gothic,Yu Gothic_MSFontService,sans-serif" font-weight="700" font-size="24" transform="translate(486.988 265)">この値はどこから来るか？</text><path d="M0-1.5 136.167-1.5 136.167 46.0406 133.167 46.0406 133.167 0 134.667 1.5 0 1.5ZM142.167 46.0406C142.167 50.1828 138.809 53.5406 134.667 53.5406 130.525 53.5406 127.167 50.1828 127.167 46.0406 127.167 41.8985 130.525 38.5406 134.667 38.5406 138.809 38.5406 142.167 41.8985 142.167 46.0406Z" fill="#FF0000" transform="matrix(-1 1.22465e-16 1.22465e-16 1 478.167 243.5)"/></g></svg>