<svg width="1380" height="669" xmlns="http://www.w3.org/2000/svg" xmlns:xlink="http://www.w3.org/1999/xlink" overflow="hidden"><defs><clipPath id="clip0"><rect x="-39" y="109" width="1380" height="669"/></clipPath><clipPath id="clip1"><rect x="267" y="405" width="475" height="231"/></clipPath><clipPath id="clip2"><rect x="267" y="405" width="475" height="231"/></clipPath><clipPath id="clip3"><rect x="267" y="405" width="475" height="231"/></clipPath><clipPath id="clip4"><rect x="267" y="405" width="475" height="231"/></clipPath><linearGradient x1="174.007" y1="188.381" x2="174.007" y2="238.818" gradientUnits="userSpaceOnUse" spreadMethod="reflect" id="fill5"><stop offset="0" stop-color="#4472C4"/><stop offset="0.4" stop-color="#FFFFFF" stop-opacity="0.901961"/><stop offset="0.63" stop-color="#FFFFFF" stop-opacity="0.501961"/><stop offset="1" stop-color="#ED7D31"/></linearGradient><linearGradient x1="0" y1="6.55677" x2="31.7751" y2="6.55677" gradientUnits="userSpaceOnUse" spreadMethod="reflect" id="fill6"><stop offset="0" stop-color="#ED7D31"/><stop offset="0.4" stop-color="#FFFFFF" stop-opacity="0.901961"/><stop offset="0.63" stop-color="#FFFFFF" stop-opacity="0.501961"/><stop offset="1" stop-color="#FFC000"/></linearGradient><clipPath id="clip7"><rect x="177" y="434" width="475" height="231"/></clipPath><clipPath id="clip8"><rect x="177" y="434" width="475" height="231"/></clipPath><clipPath id="clip9"><rect x="177" y="434" width="475" height="231"/></clipPath><clipPath id="clip10"><rect x="177" y="434" width="475" height="231"/></clipPath><linearGradient x1="174.007" y1="188.381" x2="174.007" y2="238.818" gradientUnits="userSpaceOnUse" spreadMethod="reflect" id="fill11"><stop offset="0" stop-color="#4472C4"/><stop offset="0.4" stop-color="#FFFFFF" stop-opacity="0.901961"/><stop offset="0.63" stop-color="#FFFFFF" stop-opacity="0.501961"/><stop offset="1" stop-color="#ED7D31"/></linearGradient><linearGradient x1="0" y1="6.55677" x2="31.7751" y2="6.55677" gradientUnits="userSpaceOnUse" spreadMethod="reflect" id="fill12"><stop offset="0" stop-color="#ED7D31"/><stop offset="0.4" stop-color="#FFFFFF" stop-opacity="0.901961"/><stop offset="0.63" stop-color="#FFFFFF" stop-opacity="0.501961"/><stop offset="1" stop-color="#FFC000"/></linearGradient><clipPath id="clip13"><rect x="87" y="463" width="475" height="231"/></clipPath><clipPath id="clip14"><rect x="87" y="463" width="475" height="231"/></clipPath><clipPath id="clip15"><rect x="87" y="463" width="475" height="231"/></clipPath><clipPath id="clip16"><rect x="87" y="463" width="475" height="231"/></clipPath><linearGradient x1="174.007" y1="188.381" x2="174.007" y2="238.818" gradientUnits="userSpaceOnUse" spreadMethod="reflect" id="fill17"><stop offset="0" stop-color="#4472C4"/><stop offset="0.4" stop-color="#FFFFFF" stop-opacity="0.901961"/><stop offset="0.63" stop-color="#FFFFFF" stop-opacity="0.501961"/><stop offset="1" stop-color="#ED7D31"/></linearGradient><linearGradient x1="0" y1="6.55677" x2="31.7751" y2="6.55677" gradientUnits="userSpaceOnUse" spreadMethod="reflect" id="fill18"><stop offset="0" stop-color="#ED7D31"/><stop offset="0.4" stop-color="#FFFFFF" stop-opacity="0.901961"/><stop offset="0.63" stop-color="#FFFFFF" stop-opacity="0.501961"/><stop offset="1" stop-color="#FFC000"/></linearGradient><clipPath id="clip19"><rect x="733" y="184" width="475" height="232"/></clipPath><clipPath id="clip20"><rect x="733" y="184" width="475" height="232"/></clipPath><clipPath id="clip21"><rect x="733" y="184" width="475" height="232"/></clipPath><clipPath id="clip22"><rect x="733" y="184" width="475" height="232"/></clipPath><linearGradient x1="174.15" y1="188.536" x2="174.15" y2="239.014" gradientUnits="userSpaceOnUse" spreadMethod="reflect" id="fill23"><stop offset="0" stop-color="#4472C4"/><stop offset="0.4" stop-color="#FFFFFF" stop-opacity="0.901961"/><stop offset="0.63" stop-color="#FFFFFF" stop-opacity="0.501961"/><stop offset="1" stop-color="#ED7D31"/></linearGradient><linearGradient x1="0" y1="6.56217" x2="31.8013" y2="6.56217" gradientUnits="userSpaceOnUse" spreadMethod="reflect" id="fill24"><stop offset="0" stop-color="#ED7D31"/><stop offset="0.4" stop-color="#FFFFFF" stop-opacity="0.901961"/><stop offset="0.63" stop-color="#FFFFFF" stop-opacity="0.501961"/><stop offset="1" stop-color="#FFC000"/></linearGradient><clipPath id="clip25"><rect x="643" y="213" width="475" height="232"/></clipPath><clipPath id="clip26"><rect x="643" y="213" width="475" height="232"/></clipPath><clipPath id="clip27"><rect x="643" y="213" width="475" height="232"/></clipPath><clipPath id="clip28"><rect x="643" y="213" width="475" height="232"/></clipPath><linearGradient x1="174.15" y1="188.536" x2="174.15" y2="239.014" gradientUnits="userSpaceOnUse" spreadMethod="reflect" id="fill29"><stop offset="0" stop-color="#4472C4"/><stop offset="0.4" stop-color="#FFFFFF" stop-opacity="0.901961"/><stop offset="0.63" stop-color="#FFFFFF" stop-opacity="0.501961"/><stop offset="1" stop-color="#ED7D31"/></linearGradient><linearGradient x1="0" y1="6.56217" x2="31.8013" y2="6.56217" gradientUnits="userSpaceOnUse" spreadMethod="reflect" id="fill30"><stop offset="0" stop-color="#ED7D31"/><stop offset="0.4" stop-color="#FFFFFF" stop-opacity="0.901961"/><stop offset="0.63" stop-color="#FFFFFF" stop-opacity="0.501961"/><stop offset="1" stop-color="#FFC000"/></linearGradient><clipPath id="clip31"><rect x="39" y="109" width="475" height="231"/></clipPath><clipPath id="clip32"><rect x="39" y="109" width="475" height="231"/></clipPath><clipPath id="clip33"><rect x="39" y="109" width="475" height="231"/></clipPath><clipPath id="clip34"><rect x="39" y="109" width="475" height="231"/></clipPath><linearGradient x1="174.007" y1="188.381" x2="174.007" y2="238.818" gradientUnits="userSpaceOnUse" spreadMethod="reflect" id="fill35"><stop offset="0" stop-color="#4472C4"/><stop offset="0.4" stop-color="#FFFFFF" stop-opacity="0.901961"/><stop offset="0.63" stop-color="#FFFFFF" stop-opacity="0.501961"/><stop offset="1" stop-color="#ED7D31"/></linearGradient><linearGradient x1="0" y1="6.55677" x2="31.7751" y2="6.55677" gradientUnits="userSpaceOnUse" spreadMethod="reflect" id="fill36"><stop offset="0" stop-color="#ED7D31"/><stop offset="0.4" stop-color="#FFFFFF" stop-opacity="0.901961"/><stop offset="0.63" stop-color="#FFFFFF" stop-opacity="0.501961"/><stop offset="1" stop-color="#FFC000"/></linearGradient></defs><g clip-path="url(#clip0)" transform="translate(39 -109)"><path d="M50.3472 498.545C39.1531 450.232 96.7912 405.74 179.086 399.168 212.432 396.505 246.337 400.486 275.373 410.473 306.142 376.424 378.04 363.483 435.964 381.57 446.092 384.732 455.388 388.741 463.562 393.47 487.525 365.246 545.893 353.779 593.932 367.858 607.227 371.755 618.826 377.391 627.835 384.333 666.459 357.641 734.709 354.344 780.276 376.968 799.428 386.477 812.336 399.593 816.787 414.066 880.071 424.203 917.404 462.604 900.173 499.835 898.724 502.965 896.906 506.032 894.733 509.014 945.488 547.808 933.063 603.412 866.982 633.209 846.412 642.484 822.116 648.49 796.439 650.645 795.869 692.382 737.732 725.945 666.587 725.611 642.817 725.499 619.564 721.531 599.4 714.146 575.336 760.939 491.4 787.386 411.923 773.219 378.615 767.281 349.837 754.725 330.496 737.691 249.121 766.509 143.5 751.007 94.5845 703.066 93.968 702.462 93.3623 701.854 92.7673 701.242 39.5112 704.902-8.72863 682.59-14.9793 651.406-18.311 634.784-8.96598 618.147 10.5654 605.929-35.5466 589.99-51.0365 555.004-24.0323 527.787-8.45313 512.084 18.8707 501.704 49.5368 499.838Z" stroke="#2F528F" stroke-width="1.33333" stroke-miterlimit="8" stroke-opacity="0.501961" fill="#DEEBF7" fill-rule="evenodd" fill-opacity="0.501961"/><path d="M68.0061 611.969C48.3201 612.874 28.6363 610.202 11.5974 604.312M117.776 695.757C109.86 697.607 101.562 698.839 93.0963 699.421M330.441 736.017C324.486 730.773 319.501 725.17 315.57 719.302M605.435 694.335C604.559 700.555 602.569 706.703 599.497 712.676M723.502 581.007C768.137 593.762 796.305 620.43 795.906 649.556M894.279 507.998C887.051 517.916 876.016 526.714 862.039 533.702M816.919 412.625C818.15 416.63 818.72 420.695 818.621 424.764M611.024 398.465C615.224 392.864 620.788 387.65 627.54 382.984M456.547 405.843C458.261 401.214 460.948 396.73 464.547 392.491M275.259 410.377C285.766 413.991 295.486 418.34 304.205 423.33M55.4021 512.177C53.1087 507.719 51.4196 503.162 50.3506 498.549" stroke="#2F528F" stroke-width="1.33333" stroke-miterlimit="8" stroke-opacity="0.501961" fill="none" fill-rule="evenodd"/><rect x="267" y="405" width="475" height="231" fill="#F2F2F2"/><text font-family="Yu Gothic,Yu Gothic_MSFontService,sans-serif" font-weight="400" font-size="16" transform="translate(276.457 425)">現場（調達）の課題</text><g clip-path="url(#clip1)"><g clip-path="url(#clip2)"><g clip-path="url(#clip3)"><g clip-path="url(#clip4)"><path d="M105.16 146.014 240.835 146.014 240.835 184.346 105.16 184.346Z" stroke="#FF0000" stroke-width="1.5131" stroke-miterlimit="8" fill="#4472C4" transform="matrix(1.00082 0 0 1 200.369 334.893)"/><text fill="#FFFFFF" font-family="Yu Gothic,Yu Gothic_MSFontService,sans-serif" font-weight="700" font-size="24" transform="matrix(0.504782 0 0 0.504367 349.139 504)">目指</text><text fill="#FFFFFF" font-family="Yu Gothic,Yu Gothic_MSFontService,sans-serif" font-weight="700" font-size="24" transform="matrix(0.504782 0 0 0.504367 373.368 504)">す</text><text fill="#FFFFFF" font-family="Yu Gothic,Yu Gothic_MSFontService,sans-serif" font-weight="700" font-size="24" transform="matrix(0.504782 0 0 0.504367 385.483 504)">姿</text><path d="M105.16 245.374 240.835 245.374 240.835 283.706 105.16 283.706Z" stroke="#FF0000" stroke-width="1.5131" stroke-miterlimit="8" fill="#ED7D31" transform="matrix(1.00082 0 0 1 200.369 334.893)"/><text fill="#FFFFFF" font-family="Yu Gothic,Yu Gothic_MSFontService,sans-serif" font-weight="700" font-size="24" transform="matrix(0.504782 0 0 0.504367 349.139 603)">現在</text><text fill="#FFFFFF" font-family="Yu Gothic,Yu Gothic_MSFontService,sans-serif" font-weight="700" font-size="24" transform="matrix(0.504782 0 0 0.504367 373.368 603)">の</text><text fill="#FFFFFF" font-family="Yu Gothic,Yu Gothic_MSFontService,sans-serif" font-weight="700" font-size="24" transform="matrix(0.504782 0 0 0.504367 385.483 603)">姿</text><path d="M161.145 201.242 174.007 188.381 186.868 201.242 180.437 201.242 180.437 225.956 186.868 225.956 174.007 238.818 161.145 225.956 167.576 225.956 167.576 201.242Z" stroke="#2F528F" stroke-width="0.672487" stroke-miterlimit="8" fill="url(#fill5)" fill-rule="evenodd" transform="matrix(1.00082 0 0 1 200.369 334.893)"/><text font-family="Yu Gothic,Yu Gothic_MSFontService,sans-serif" font-weight="400" font-size="24" transform="matrix(0.504782 0 0 0.504367 369.939 538)">G</text><text font-family="Yu Gothic,Yu Gothic_MSFontService,sans-serif" font-weight="400" font-size="24" transform="matrix(0.504782 0 0 0.504367 369.939 552)">A</text><text font-family="Yu Gothic,Yu Gothic_MSFontService,sans-serif" font-weight="400" font-size="24" transform="matrix(0.504782 0 0 0.504367 369.939 567)">P</text><path d="M199.477 213.599 209.06 204.016 209.06 208.808 225.112 208.808 225.112 194.433 350.787 194.433 350.787 232.765 225.112 232.765 225.112 218.391 209.06 218.391 209.06 223.182Z" stroke="#FF0000" stroke-width="0.672487" stroke-miterlimit="8" fill="#FFE699" fill-rule="evenodd" transform="matrix(1.00082 0 0 1 200.369 334.893)"/><text font-family="Yu Gothic,Yu Gothic_MSFontService,sans-serif" font-weight="700" font-size="24" transform="matrix(0.504782 0 0 0.504367 476.204 552)">問題</text><path d="M391.136 194.433 517.228 194.433 517.228 225.174C454.182 225.174 454.182 236.886 391.136 230.231Z" stroke="#2F528F" stroke-width="0.672487" stroke-miterlimit="8" fill="#F4B183" fill-rule="evenodd" transform="matrix(1.00082 0 0 1 200.369 334.893)"/><text font-family="Yu Gothic,Yu Gothic_MSFontService,sans-serif" font-weight="700" font-size="24" transform="matrix(0.504782 0 0 0.504367 642.434 548)">課題</text><path d="M0 3.27839 0.409803 3.27839 0.409803 9.83515 0 9.83515ZM0.819606 3.27839 1.63918 3.27839 1.63918 9.83515 0.819606 9.83515ZM2.04898 3.27839 25.2183 3.27839 25.2183 0 31.7751 6.55677 25.2183 13.1135 25.2183 9.83515 2.04898 9.83515Z" stroke="#2F528F" stroke-width="0.672487" stroke-miterlimit="8" fill="url(#fill6)" fill-rule="evenodd" transform="matrix(-1.00082 0 0 1 587.284 541.936)"/><path d="M166.476 101.776C165.009 98.0176 172.564 94.5572 183.35 94.0457 187.721 93.839 192.165 94.1486 195.971 94.9254 200.004 92.2769 209.428 91.2702 217.02 92.6769 218.347 92.923 219.566 93.2347 220.637 93.6029 223.778 91.4074 231.429 90.5157 237.725 91.6107 239.468 91.9138 240.988 92.3521 242.169 92.8918 247.232 90.8158 256.177 90.5596 262.15 92.3193 264.66 93.0587 266.352 94.079 266.935 95.2048 275.23 95.9931 280.123 98.98 277.865 101.876 277.675 102.12 277.437 102.358 277.152 102.59 283.804 105.607 282.176 109.932 273.515 112.25 270.818 112.972 267.634 113.439 264.268 113.606 264.193 116.853 256.573 119.463 247.248 119.437 244.133 119.429 241.085 119.12 238.442 118.545 235.288 122.185 224.286 124.242 213.869 123.14 209.503 122.679 205.731 121.702 203.196 120.377 192.53 122.618 178.686 121.413 172.275 117.683 172.193 117.636 172.114 117.59 172.036 117.542 165.056 117.827 158.733 116.091 157.914 113.666 157.477 112.372 158.702 111.079 161.262 110.128 155.218 108.888 153.187 106.167 156.727 104.05 158.769 102.829 162.351 102.021 166.37 101.876Z" fill="#DEEBF7" fill-rule="evenodd" transform="matrix(1.00082 0 0 1 200.369 334.893)"/><path d="M173.959 149.967C173.959 150.462 173.558 150.864 173.062 150.864 172.567 150.864 172.166 150.462 172.166 149.967 172.166 149.472 172.567 149.071 173.062 149.071 173.558 149.071 173.959 149.472 173.959 149.967Z" fill="#DEEBF7" fill-rule="evenodd" transform="matrix(1.00082 0 0 1 200.369 334.893)"/><path d="M183.975 141.31C183.975 142.3 183.172 143.103 182.182 143.103 181.192 143.103 180.389 142.3 180.389 141.31 180.389 140.319 181.192 139.516 182.182 139.516 183.172 139.516 183.975 140.319 183.975 141.31Z" fill="#DEEBF7" fill-rule="evenodd" transform="matrix(1.00082 0 0 1 200.369 334.893)"/><path d="M195.292 131.418C195.292 132.904 194.088 134.108 192.603 134.108 191.117 134.108 189.913 132.904 189.913 131.418 189.913 129.932 191.117 128.728 192.603 128.728 194.088 128.728 195.292 129.932 195.292 131.418Z" fill="#DEEBF7" fill-rule="evenodd" transform="matrix(1.00082 0 0 1 200.369 334.893)"/><path d="M166.476 101.776C165.009 98.0176 172.564 94.5572 183.35 94.0457 187.721 93.839 192.165 94.1486 195.971 94.9254 200.004 92.2769 209.428 91.2702 217.02 92.6769 218.347 92.923 219.566 93.2347 220.637 93.6029 223.778 91.4074 231.429 90.5157 237.725 91.6107 239.468 91.9138 240.988 92.3521 242.169 92.8918 247.232 90.8158 256.177 90.5596 262.15 92.3193 264.66 93.0587 266.352 94.079 266.935 95.2048 275.23 95.9931 280.123 98.98 277.865 101.876 277.675 102.12 277.437 102.358 277.152 102.59 283.804 105.607 282.176 109.932 273.515 112.25 270.818 112.972 267.634 113.439 264.268 113.606 264.193 116.853 256.573 119.463 247.248 119.437 244.133 119.429 241.085 119.12 238.442 118.545 235.288 122.185 224.286 124.242 213.869 123.14 209.503 122.679 205.731 121.702 203.196 120.377 192.53 122.618 178.686 121.413 172.275 117.683 172.193 117.636 172.114 117.59 172.036 117.542 165.056 117.827 158.733 116.091 157.914 113.666 157.477 112.372 158.702 111.079 161.262 110.128 155.218 108.888 153.187 106.167 156.727 104.05 158.769 102.829 162.351 102.021 166.37 101.876Z" stroke="#FF0000" stroke-width="1.5131" stroke-miterlimit="8" fill="none" fill-rule="evenodd" transform="matrix(1.00082 0 0 1 200.369 334.893)"/><path d="M173.959 149.967C173.959 150.462 173.558 150.864 173.062 150.864 172.567 150.864 172.166 150.462 172.166 149.967 172.166 149.472 172.567 149.071 173.062 149.071 173.558 149.071 173.959 149.472 173.959 149.967Z" stroke="#FF0000" stroke-width="1.5131" stroke-miterlimit="8" fill="none" fill-rule="evenodd" transform="matrix(1.00082 0 0 1 200.369 334.893)"/><path d="M183.975 141.31C183.975 142.3 183.172 143.103 182.182 143.103 181.192 143.103 180.389 142.3 180.389 141.31 180.389 140.319 181.192 139.516 182.182 139.516 183.172 139.516 183.975 140.319 183.975 141.31Z" stroke="#FF0000" stroke-width="1.5131" stroke-miterlimit="8" fill="none" fill-rule="evenodd" transform="matrix(1.00082 0 0 1 200.369 334.893)"/><path d="M195.292 131.418C195.292 132.904 194.088 134.108 192.603 134.108 191.117 134.108 189.913 132.904 189.913 131.418 189.913 129.932 191.117 128.728 192.603 128.728 194.088 128.728 195.292 129.932 195.292 131.418Z" stroke="#FF0000" stroke-width="1.5131" stroke-miterlimit="8" fill="none" fill-rule="evenodd" transform="matrix(1.00082 0 0 1 200.369 334.893)"/><path d="M168.791 110.598C166.211 110.668 163.63 110.46 161.397 110.002M175.314 117.115C174.276 117.259 173.189 117.355 172.079 117.4M203.189 120.247C202.408 119.839 201.755 119.403 201.239 118.946M239.233 117.005C239.118 117.488 238.857 117.966 238.455 118.431M254.708 108.19C260.558 109.182 264.25 111.256 264.198 113.521M277.093 102.511C276.145 103.282 274.698 103.967 272.866 104.51M266.952 95.0928C267.114 95.404 267.189 95.7203 267.176 96.037M239.966 93.9913C240.516 93.5555 241.245 93.15 242.13 92.7868M219.718 94.5652C219.942 94.2051 220.295 93.8561 220.766 93.5268M195.956 94.9178C197.333 95.1987 198.607 95.5372 199.75 95.925M167.139 102.836C166.838 102.489 166.617 102.135 166.476 101.776" stroke="#FF0000" stroke-width="1.5131" stroke-miterlimit="8" fill="none" fill-rule="evenodd" transform="matrix(1.00082 0 0 1 200.369 334.893)"/><text font-family="Yu Gothic,Yu Gothic_MSFontService,sans-serif" font-weight="700" font-size="24" transform="matrix(0.504782 0 0 0.504367 383.646 445)">本来</text><text font-family="Yu Gothic,Yu Gothic_MSFontService,sans-serif" font-weight="700" font-size="24" transform="matrix(0.504782 0 0 0.504367 407.875 445)">の</text><text font-family="Yu Gothic,Yu Gothic_MSFontService,sans-serif" font-weight="700" font-size="24" transform="matrix(0.504782 0 0 0.504367 419.99 445)">目的</text><path d="M183.21 110.847 198.341 110.847 213.472 110.847 228.603 110.847 243.734 110.847 243.734 111.351 228.603 111.351 213.472 111.351 198.341 111.351 183.21 111.351Z" fill-rule="evenodd" transform="matrix(1.00082 0 0 1 200.369 334.893)"/><path d="M67.333 70.8635 540.933 70.8635 540.933 300.855 67.333 300.855Z" stroke="#2F528F" stroke-width="0.672487" stroke-miterlimit="8" fill="none" transform="matrix(1.00082 0 0 1 200.369 334.893)"/></g></g></g></g><rect x="177" y="434" width="475" height="231" fill="#F2F2F2"/><text font-family="Yu Gothic,Yu Gothic_MSFontService,sans-serif" font-weight="400" font-size="16" transform="translate(186.457 454)">現場（バックオフィス）の課題</text><g clip-path="url(#clip7)"><g clip-path="url(#clip8)"><g clip-path="url(#clip9)"><g clip-path="url(#clip10)"><path d="M105.16 146.014 240.835 146.014 240.835 184.346 105.16 184.346Z" stroke="#FF0000" stroke-width="1.5131" stroke-miterlimit="8" fill="#4472C4" transform="matrix(1.00082 0 0 1 110.369 363.893)"/><text fill="#FFFFFF" font-family="Yu Gothic,Yu Gothic_MSFontService,sans-serif" font-weight="700" font-size="24" transform="matrix(0.504782 0 0 0.504367 259.139 533)">目指</text><text fill="#FFFFFF" font-family="Yu Gothic,Yu Gothic_MSFontService,sans-serif" font-weight="700" font-size="24" transform="matrix(0.504782 0 0 0.504367 283.368 533)">す</text><text fill="#FFFFFF" font-family="Yu Gothic,Yu Gothic_MSFontService,sans-serif" font-weight="700" font-size="24" transform="matrix(0.504782 0 0 0.504367 295.483 533)">姿</text><path d="M105.16 245.374 240.835 245.374 240.835 283.706 105.16 283.706Z" stroke="#FF0000" stroke-width="1.5131" stroke-miterlimit="8" fill="#ED7D31" transform="matrix(1.00082 0 0 1 110.369 363.893)"/><text fill="#FFFFFF" font-family="Yu Gothic,Yu Gothic_MSFontService,sans-serif" font-weight="700" font-size="24" transform="matrix(0.504782 0 0 0.504367 259.139 632)">現在</text><text fill="#FFFFFF" font-family="Yu Gothic,Yu Gothic_MSFontService,sans-serif" font-weight="700" font-size="24" transform="matrix(0.504782 0 0 0.504367 283.368 632)">の</text><text fill="#FFFFFF" font-family="Yu Gothic,Yu Gothic_MSFontService,sans-serif" font-weight="700" font-size="24" transform="matrix(0.504782 0 0 0.504367 295.483 632)">姿</text><path d="M161.145 201.242 174.007 188.381 186.868 201.242 180.437 201.242 180.437 225.956 186.868 225.956 174.007 238.818 161.145 225.956 167.576 225.956 167.576 201.242Z" stroke="#2F528F" stroke-width="0.672487" stroke-miterlimit="8" fill="url(#fill11)" fill-rule="evenodd" transform="matrix(1.00082 0 0 1 110.369 363.893)"/><text font-family="Yu Gothic,Yu Gothic_MSFontService,sans-serif" font-weight="400" font-size="24" transform="matrix(0.504782 0 0 0.504367 279.939 567)">G</text><text font-family="Yu Gothic,Yu Gothic_MSFontService,sans-serif" font-weight="400" font-size="24" transform="matrix(0.504782 0 0 0.504367 279.939 581)">A</text><text font-family="Yu Gothic,Yu Gothic_MSFontService,sans-serif" font-weight="400" font-size="24" transform="matrix(0.504782 0 0 0.504367 279.939 596)">P</text><path d="M199.477 213.599 209.06 204.016 209.06 208.808 225.112 208.808 225.112 194.433 350.787 194.433 350.787 232.765 225.112 232.765 225.112 218.391 209.06 218.391 209.06 223.182Z" stroke="#FF0000" stroke-width="0.672487" stroke-miterlimit="8" fill="#FFE699" fill-rule="evenodd" transform="matrix(1.00082 0 0 1 110.369 363.893)"/><text font-family="Yu Gothic,Yu Gothic_MSFontService,sans-serif" font-weight="700" font-size="24" transform="matrix(0.504782 0 0 0.504367 386.204 581)">問題</text><path d="M391.136 194.433 517.228 194.433 517.228 225.174C454.182 225.174 454.182 236.886 391.136 230.231Z" stroke="#2F528F" stroke-width="0.672487" stroke-miterlimit="8" fill="#F4B183" fill-rule="evenodd" transform="matrix(1.00082 0 0 1 110.369 363.893)"/><text font-family="Yu Gothic,Yu Gothic_MSFontService,sans-serif" font-weight="700" font-size="24" transform="matrix(0.504782 0 0 0.504367 552.434 577)">課題</text><path d="M0 3.27839 0.409803 3.27839 0.409803 9.83515 0 9.83515ZM0.819606 3.27839 1.63918 3.27839 1.63918 9.83515 0.819606 9.83515ZM2.04898 3.27839 25.2183 3.27839 25.2183 0 31.7751 6.55677 25.2183 13.1135 25.2183 9.83515 2.04898 9.83515Z" stroke="#2F528F" stroke-width="0.672487" stroke-miterlimit="8" fill="url(#fill12)" fill-rule="evenodd" transform="matrix(-1.00082 0 0 1 497.284 570.936)"/><path d="M166.476 101.776C165.009 98.0176 172.564 94.5572 183.35 94.0457 187.721 93.839 192.165 94.1486 195.971 94.9254 200.004 92.2769 209.428 91.2702 217.02 92.6769 218.347 92.923 219.566 93.2347 220.637 93.6029 223.778 91.4074 231.429 90.5157 237.725 91.6107 239.468 91.9138 240.988 92.3521 242.169 92.8918 247.232 90.8158 256.177 90.5596 262.15 92.3193 264.66 93.0587 266.352 94.079 266.935 95.2048 275.23 95.9931 280.123 98.98 277.865 101.876 277.675 102.12 277.437 102.358 277.152 102.59 283.804 105.607 282.176 109.932 273.515 112.25 270.818 112.972 267.634 113.439 264.268 113.606 264.193 116.853 256.573 119.463 247.248 119.437 244.133 119.429 241.085 119.12 238.442 118.545 235.288 122.185 224.286 124.242 213.869 123.14 209.503 122.679 205.731 121.702 203.196 120.377 192.53 122.618 178.686 121.413 172.275 117.683 172.193 117.636 172.114 117.59 172.036 117.542 165.056 117.827 158.733 116.091 157.914 113.666 157.477 112.372 158.702 111.079 161.262 110.128 155.218 108.888 153.187 106.167 156.727 104.05 158.769 102.829 162.351 102.021 166.37 101.876Z" fill="#DEEBF7" fill-rule="evenodd" transform="matrix(1.00082 0 0 1 110.369 363.893)"/><path d="M173.959 149.967C173.959 150.462 173.558 150.864 173.062 150.864 172.567 150.864 172.166 150.462 172.166 149.967 172.166 149.472 172.567 149.071 173.062 149.071 173.558 149.071 173.959 149.472 173.959 149.967Z" fill="#DEEBF7" fill-rule="evenodd" transform="matrix(1.00082 0 0 1 110.369 363.893)"/><path d="M183.975 141.31C183.975 142.3 183.172 143.103 182.182 143.103 181.192 143.103 180.389 142.3 180.389 141.31 180.389 140.319 181.192 139.516 182.182 139.516 183.172 139.516 183.975 140.319 183.975 141.31Z" fill="#DEEBF7" fill-rule="evenodd" transform="matrix(1.00082 0 0 1 110.369 363.893)"/><path d="M195.292 131.418C195.292 132.904 194.088 134.108 192.603 134.108 191.117 134.108 189.913 132.904 189.913 131.418 189.913 129.932 191.117 128.728 192.603 128.728 194.088 128.728 195.292 129.932 195.292 131.418Z" fill="#DEEBF7" fill-rule="evenodd" transform="matrix(1.00082 0 0 1 110.369 363.893)"/><path d="M166.476 101.776C165.009 98.0176 172.564 94.5572 183.35 94.0457 187.721 93.839 192.165 94.1486 195.971 94.9254 200.004 92.2769 209.428 91.2702 217.02 92.6769 218.347 92.923 219.566 93.2347 220.637 93.6029 223.778 91.4074 231.429 90.5157 237.725 91.6107 239.468 91.9138 240.988 92.3521 242.169 92.8918 247.232 90.8158 256.177 90.5596 262.15 92.3193 264.66 93.0587 266.352 94.079 266.935 95.2048 275.23 95.9931 280.123 98.98 277.865 101.876 277.675 102.12 277.437 102.358 277.152 102.59 283.804 105.607 282.176 109.932 273.515 112.25 270.818 112.972 267.634 113.439 264.268 113.606 264.193 116.853 256.573 119.463 247.248 119.437 244.133 119.429 241.085 119.12 238.442 118.545 235.288 122.185 224.286 124.242 213.869 123.14 209.503 122.679 205.731 121.702 203.196 120.377 192.53 122.618 178.686 121.413 172.275 117.683 172.193 117.636 172.114 117.59 172.036 117.542 165.056 117.827 158.733 116.091 157.914 113.666 157.477 112.372 158.702 111.079 161.262 110.128 155.218 108.888 153.187 106.167 156.727 104.05 158.769 102.829 162.351 102.021 166.37 101.876Z" stroke="#FF0000" stroke-width="1.5131" stroke-miterlimit="8" fill="none" fill-rule="evenodd" transform="matrix(1.00082 0 0 1 110.369 363.893)"/><path d="M173.959 149.967C173.959 150.462 173.558 150.864 173.062 150.864 172.567 150.864 172.166 150.462 172.166 149.967 172.166 149.472 172.567 149.071 173.062 149.071 173.558 149.071 173.959 149.472 173.959 149.967Z" stroke="#FF0000" stroke-width="1.5131" stroke-miterlimit="8" fill="none" fill-rule="evenodd" transform="matrix(1.00082 0 0 1 110.369 363.893)"/><path d="M183.975 141.31C183.975 142.3 183.172 143.103 182.182 143.103 181.192 143.103 180.389 142.3 180.389 141.31 180.389 140.319 181.192 139.516 182.182 139.516 183.172 139.516 183.975 140.319 183.975 141.31Z" stroke="#FF0000" stroke-width="1.5131" stroke-miterlimit="8" fill="none" fill-rule="evenodd" transform="matrix(1.00082 0 0 1 110.369 363.893)"/><path d="M195.292 131.418C195.292 132.904 194.088 134.108 192.603 134.108 191.117 134.108 189.913 132.904 189.913 131.418 189.913 129.932 191.117 128.728 192.603 128.728 194.088 128.728 195.292 129.932 195.292 131.418Z" stroke="#FF0000" stroke-width="1.5131" stroke-miterlimit="8" fill="none" fill-rule="evenodd" transform="matrix(1.00082 0 0 1 110.369 363.893)"/><path d="M168.791 110.598C166.211 110.668 163.63 110.46 161.397 110.002M175.314 117.115C174.276 117.259 173.189 117.355 172.079 117.4M203.189 120.247C202.408 119.839 201.755 119.403 201.239 118.946M239.233 117.005C239.118 117.488 238.857 117.966 238.455 118.431M254.708 108.19C260.558 109.182 264.25 111.256 264.198 113.521M277.093 102.511C276.145 103.282 274.698 103.967 272.866 104.51M266.952 95.0928C267.114 95.404 267.189 95.7203 267.176 96.037M239.966 93.9913C240.516 93.5555 241.245 93.15 242.13 92.7868M219.718 94.5652C219.942 94.2051 220.295 93.8561 220.766 93.5268M195.956 94.9178C197.333 95.1987 198.607 95.5372 199.75 95.925M167.139 102.836C166.838 102.489 166.617 102.135 166.476 101.776" stroke="#FF0000" stroke-width="1.5131" stroke-miterlimit="8" fill="none" fill-rule="evenodd" transform="matrix(1.00082 0 0 1 110.369 363.893)"/><text font-family="Yu Gothic,Yu Gothic_MSFontService,sans-serif" font-weight="700" font-size="24" transform="matrix(0.504782 0 0 0.504367 293.646 474)">本来</text><text font-family="Yu Gothic,Yu Gothic_MSFontService,sans-serif" font-weight="700" font-size="24" transform="matrix(0.504782 0 0 0.504367 317.875 474)">の</text><text font-family="Yu Gothic,Yu Gothic_MSFontService,sans-serif" font-weight="700" font-size="24" transform="matrix(0.504782 0 0 0.504367 329.99 474)">目的</text><path d="M183.21 110.847 198.341 110.847 213.472 110.847 228.603 110.847 243.734 110.847 243.734 111.351 228.603 111.351 213.472 111.351 198.341 111.351 183.21 111.351Z" fill-rule="evenodd" transform="matrix(1.00082 0 0 1 110.369 363.893)"/><path d="M67.333 70.8635 540.933 70.8635 540.933 300.855 67.333 300.855Z" stroke="#2F528F" stroke-width="0.672487" stroke-miterlimit="8" fill="none" transform="matrix(1.00082 0 0 1 110.369 363.893)"/></g></g></g></g><rect x="87" y="463" width="475" height="231" fill="#F2F2F2"/><text font-family="Yu Gothic,Yu Gothic_MSFontService,sans-serif" font-weight="400" font-size="16" transform="translate(96.4571 483)">現場（工場）の課題</text><g clip-path="url(#clip13)"><g clip-path="url(#clip14)"><g clip-path="url(#clip15)"><g clip-path="url(#clip16)"><path d="M105.16 146.014 240.835 146.014 240.835 184.346 105.16 184.346Z" stroke="#FF0000" stroke-width="1.5131" stroke-miterlimit="8" fill="#4472C4" transform="matrix(1.00082 0 0 1 20.3688 392.893)"/><text fill="#FFFFFF" font-family="Yu Gothic,Yu Gothic_MSFontService,sans-serif" font-weight="700" font-size="24" transform="matrix(0.504782 0 0 0.504367 169.139 562)">目指</text><text fill="#FFFFFF" font-family="Yu Gothic,Yu Gothic_MSFontService,sans-serif" font-weight="700" font-size="24" transform="matrix(0.504782 0 0 0.504367 193.368 562)">す</text><text fill="#FFFFFF" font-family="Yu Gothic,Yu Gothic_MSFontService,sans-serif" font-weight="700" font-size="24" transform="matrix(0.504782 0 0 0.504367 205.483 562)">姿</text><path d="M105.16 245.374 240.835 245.374 240.835 283.706 105.16 283.706Z" stroke="#FF0000" stroke-width="1.5131" stroke-miterlimit="8" fill="#ED7D31" transform="matrix(1.00082 0 0 1 20.3688 392.893)"/><text fill="#FFFFFF" font-family="Yu Gothic,Yu Gothic_MSFontService,sans-serif" font-weight="700" font-size="24" transform="matrix(0.504782 0 0 0.504367 169.139 661)">現在</text><text fill="#FFFFFF" font-family="Yu Gothic,Yu Gothic_MSFontService,sans-serif" font-weight="700" font-size="24" transform="matrix(0.504782 0 0 0.504367 193.368 661)">の</text><text fill="#FFFFFF" font-family="Yu Gothic,Yu Gothic_MSFontService,sans-serif" font-weight="700" font-size="24" transform="matrix(0.504782 0 0 0.504367 205.483 661)">姿</text><path d="M161.145 201.242 174.007 188.381 186.868 201.242 180.437 201.242 180.437 225.956 186.868 225.956 174.007 238.818 161.145 225.956 167.576 225.956 167.576 201.242Z" stroke="#2F528F" stroke-width="0.672487" stroke-miterlimit="8" fill="url(#fill17)" fill-rule="evenodd" transform="matrix(1.00082 0 0 1 20.3688 392.893)"/><text font-family="Yu Gothic,Yu Gothic_MSFontService,sans-serif" font-weight="400" font-size="24" transform="matrix(0.504782 0 0 0.504367 189.939 596)">G</text><text font-family="Yu Gothic,Yu Gothic_MSFontService,sans-serif" font-weight="400" font-size="24" transform="matrix(0.504782 0 0 0.504367 189.939 610)">A</text><text font-family="Yu Gothic,Yu Gothic_MSFontService,sans-serif" font-weight="400" font-size="24" transform="matrix(0.504782 0 0 0.504367 189.939 625)">P</text><path d="M199.477 213.599 209.06 204.016 209.06 208.808 225.112 208.808 225.112 194.433 350.787 194.433 350.787 232.765 225.112 232.765 225.112 218.391 209.06 218.391 209.06 223.182Z" stroke="#FF0000" stroke-width="0.672487" stroke-miterlimit="8" fill="#FFE699" fill-rule="evenodd" transform="matrix(1.00082 0 0 1 20.3688 392.893)"/><text font-family="Yu Gothic,Yu Gothic_MSFontService,sans-serif" font-weight="700" font-size="24" transform="matrix(0.504782 0 0 0.504367 296.204 610)">問題</text><path d="M391.136 194.433 517.228 194.433 517.228 225.174C454.182 225.174 454.182 236.886 391.136 230.231Z" stroke="#2F528F" stroke-width="0.672487" stroke-miterlimit="8" fill="#F4B183" fill-rule="evenodd" transform="matrix(1.00082 0 0 1 20.3688 392.893)"/><text font-family="Yu Gothic,Yu Gothic_MSFontService,sans-serif" font-weight="700" font-size="24" transform="matrix(0.504782 0 0 0.504367 462.434 606)">課題</text><path d="M0 3.27839 0.409803 3.27839 0.409803 9.83515 0 9.83515ZM0.819606 3.27839 1.63918 3.27839 1.63918 9.83515 0.819606 9.83515ZM2.04898 3.27839 25.2183 3.27839 25.2183 0 31.7751 6.55677 25.2183 13.1135 25.2183 9.83515 2.04898 9.83515Z" stroke="#2F528F" stroke-width="0.672487" stroke-miterlimit="8" fill="url(#fill18)" fill-rule="evenodd" transform="matrix(-1.00082 0 0 1 407.284 599.936)"/><path d="M166.476 101.776C165.009 98.0176 172.564 94.5572 183.35 94.0457 187.721 93.839 192.165 94.1486 195.971 94.9254 200.004 92.2769 209.428 91.2702 217.02 92.6769 218.347 92.923 219.566 93.2347 220.637 93.6029 223.778 91.4074 231.429 90.5157 237.725 91.6107 239.468 91.9138 240.988 92.3521 242.169 92.8918 247.232 90.8158 256.177 90.5596 262.15 92.3193 264.66 93.0587 266.352 94.079 266.935 95.2048 275.23 95.9931 280.123 98.98 277.865 101.876 277.675 102.12 277.437 102.358 277.152 102.59 283.804 105.607 282.176 109.932 273.515 112.25 270.818 112.972 267.634 113.439 264.268 113.606 264.193 116.853 256.573 119.463 247.248 119.437 244.133 119.429 241.085 119.12 238.442 118.545 235.288 122.185 224.286 124.242 213.869 123.14 209.503 122.679 205.731 121.702 203.196 120.377 192.53 122.618 178.686 121.413 172.275 117.683 172.193 117.636 172.114 117.59 172.036 117.542 165.056 117.827 158.733 116.091 157.914 113.666 157.477 112.372 158.702 111.079 161.262 110.128 155.218 108.888 153.187 106.167 156.727 104.05 158.769 102.829 162.351 102.021 166.37 101.876Z" fill="#DEEBF7" fill-rule="evenodd" transform="matrix(1.00082 0 0 1 20.3688 392.893)"/><path d="M173.959 149.967C173.959 150.462 173.558 150.864 173.062 150.864 172.567 150.864 172.166 150.462 172.166 149.967 172.166 149.472 172.567 149.071 173.062 149.071 173.558 149.071 173.959 149.472 173.959 149.967Z" fill="#DEEBF7" fill-rule="evenodd" transform="matrix(1.00082 0 0 1 20.3688 392.893)"/><path d="M183.975 141.31C183.975 142.3 183.172 143.103 182.182 143.103 181.192 143.103 180.389 142.3 180.389 141.31 180.389 140.319 181.192 139.516 182.182 139.516 183.172 139.516 183.975 140.319 183.975 141.31Z" fill="#DEEBF7" fill-rule="evenodd" transform="matrix(1.00082 0 0 1 20.3688 392.893)"/><path d="M195.292 131.418C195.292 132.904 194.088 134.108 192.603 134.108 191.117 134.108 189.913 132.904 189.913 131.418 189.913 129.932 191.117 128.728 192.603 128.728 194.088 128.728 195.292 129.932 195.292 131.418Z" fill="#DEEBF7" fill-rule="evenodd" transform="matrix(1.00082 0 0 1 20.3688 392.893)"/><path d="M166.476 101.776C165.009 98.0176 172.564 94.5572 183.35 94.0457 187.721 93.839 192.165 94.1486 195.971 94.9254 200.004 92.2769 209.428 91.2702 217.02 92.6769 218.347 92.923 219.566 93.2347 220.637 93.6029 223.778 91.4074 231.429 90.5157 237.725 91.6107 239.468 91.9138 240.988 92.3521 242.169 92.8918 247.232 90.8158 256.177 90.5596 262.15 92.3193 264.66 93.0587 266.352 94.079 266.935 95.2048 275.23 95.9931 280.123 98.98 277.865 101.876 277.675 102.12 277.437 102.358 277.152 102.59 283.804 105.607 282.176 109.932 273.515 112.25 270.818 112.972 267.634 113.439 264.268 113.606 264.193 116.853 256.573 119.463 247.248 119.437 244.133 119.429 241.085 119.12 238.442 118.545 235.288 122.185 224.286 124.242 213.869 123.14 209.503 122.679 205.731 121.702 203.196 120.377 192.53 122.618 178.686 121.413 172.275 117.683 172.193 117.636 172.114 117.59 172.036 117.542 165.056 117.827 158.733 116.091 157.914 113.666 157.477 112.372 158.702 111.079 161.262 110.128 155.218 108.888 153.187 106.167 156.727 104.05 158.769 102.829 162.351 102.021 166.37 101.876Z" stroke="#FF0000" stroke-width="1.5131" stroke-miterlimit="8" fill="none" fill-rule="evenodd" transform="matrix(1.00082 0 0 1 20.3688 392.893)"/><path d="M173.959 149.967C173.959 150.462 173.558 150.864 173.062 150.864 172.567 150.864 172.166 150.462 172.166 149.967 172.166 149.472 172.567 149.071 173.062 149.071 173.558 149.071 173.959 149.472 173.959 149.967Z" stroke="#FF0000" stroke-width="1.5131" stroke-miterlimit="8" fill="none" fill-rule="evenodd" transform="matrix(1.00082 0 0 1 20.3688 392.893)"/><path d="M183.975 141.31C183.975 142.3 183.172 143.103 182.182 143.103 181.192 143.103 180.389 142.3 180.389 141.31 180.389 140.319 181.192 139.516 182.182 139.516 183.172 139.516 183.975 140.319 183.975 141.31Z" stroke="#FF0000" stroke-width="1.5131" stroke-miterlimit="8" fill="none" fill-rule="evenodd" transform="matrix(1.00082 0 0 1 20.3688 392.893)"/><path d="M195.292 131.418C195.292 132.904 194.088 134.108 192.603 134.108 191.117 134.108 189.913 132.904 189.913 131.418 189.913 129.932 191.117 128.728 192.603 128.728 194.088 128.728 195.292 129.932 195.292 131.418Z" stroke="#FF0000" stroke-width="1.5131" stroke-miterlimit="8" fill="none" fill-rule="evenodd" transform="matrix(1.00082 0 0 1 20.3688 392.893)"/><path d="M168.791 110.598C166.211 110.668 163.63 110.46 161.397 110.002M175.314 117.115C174.276 117.259 173.189 117.355 172.079 117.4M203.189 120.247C202.408 119.839 201.755 119.403 201.239 118.946M239.233 117.005C239.118 117.488 238.857 117.966 238.455 118.431M254.708 108.19C260.558 109.182 264.25 111.256 264.198 113.521M277.093 102.511C276.145 103.282 274.698 103.967 272.866 104.51M266.952 95.0928C267.114 95.404 267.189 95.7203 267.176 96.037M239.966 93.9913C240.516 93.5555 241.245 93.15 242.13 92.7868M219.718 94.5652C219.942 94.2051 220.295 93.8561 220.766 93.5268M195.956 94.9178C197.333 95.1987 198.607 95.5372 199.75 95.925M167.139 102.836C166.838 102.489 166.617 102.135 166.476 101.776" stroke="#FF0000" stroke-width="1.5131" stroke-miterlimit="8" fill="none" fill-rule="evenodd" transform="matrix(1.00082 0 0 1 20.3688 392.893)"/><text font-family="Yu Gothic,Yu Gothic_MSFontService,sans-serif" font-weight="700" font-size="24" transform="matrix(0.504782 0 0 0.504367 203.646 503)">本来</text><text font-family="Yu Gothic,Yu Gothic_MSFontService,sans-serif" font-weight="700" font-size="24" transform="matrix(0.504782 0 0 0.504367 227.875 503)">の</text><text font-family="Yu Gothic,Yu Gothic_MSFontService,sans-serif" font-weight="700" font-size="24" transform="matrix(0.504782 0 0 0.504367 239.99 503)">目的</text><path d="M183.21 110.847 198.341 110.847 213.472 110.847 228.603 110.847 243.734 110.847 243.734 111.351 228.603 111.351 213.472 111.351 198.341 111.351 183.21 111.351Z" fill-rule="evenodd" transform="matrix(1.00082 0 0 1 20.3688 392.893)"/><path d="M67.333 70.8635 540.933 70.8635 540.933 300.855 67.333 300.855Z" stroke="#2F528F" stroke-width="0.672487" stroke-miterlimit="8" fill="none" transform="matrix(1.00082 0 0 1 20.3688 392.893)"/></g></g></g></g><path d="M754 560 832 560" stroke="#4472C4" stroke-width="8" stroke-miterlimit="8" stroke-dasharray="8 8" fill="none" fill-rule="evenodd"/><path d="M608.993 253.545C599.649 205.232 647.761 160.74 716.454 154.168 744.289 151.505 772.589 155.486 796.827 165.473 822.51 131.424 882.525 118.483 930.875 136.57 939.329 139.732 947.089 143.741 953.911 148.47 973.914 120.246 1022.64 108.779 1062.73 122.858 1073.83 126.755 1083.51 132.391 1091.03 139.333 1123.27 112.641 1180.24 109.344 1218.28 131.968 1234.27 141.477 1245.04 154.593 1248.76 169.066 1301.58 179.203 1332.74 217.604 1318.36 254.835 1317.15 257.965 1315.63 261.032 1313.82 264.014 1356.18 302.808 1345.81 358.412 1290.65 388.209 1273.48 397.484 1253.2 403.49 1231.77 405.645 1231.29 447.382 1182.77 480.945 1123.38 480.611 1103.54 480.499 1084.13 476.531 1067.3 469.146 1047.21 515.939 977.148 542.386 910.808 528.219 883.005 522.281 858.983 509.725 842.838 492.691 774.914 521.509 686.75 506.007 645.919 458.066 645.404 457.462 644.899 456.854 644.402 456.242 599.948 459.902 559.681 437.59 554.464 406.406 551.683 389.784 559.483 373.147 575.786 360.929 537.296 344.99 524.366 310.004 546.907 282.787 559.911 267.084 582.719 256.704 608.317 254.838Z" fill="#E2F0D9" fill-rule="evenodd" fill-opacity="0.501961"/><path d="M774.176 598.851C774.176 605.217 769.015 610.379 762.648 610.379 756.282 610.379 751.121 605.217 751.121 598.851 751.121 592.484 756.282 587.323 762.648 587.323 769.015 587.323 774.176 592.484 774.176 598.851Z" fill="#E2F0D9" fill-rule="evenodd" fill-opacity="0.501961"/><path d="M798.261 579.097C798.261 591.831 787.939 602.153 775.206 602.153 762.472 602.153 752.15 591.831 752.15 579.097 752.15 566.364 762.472 556.042 775.206 556.042 787.939 556.042 798.261 566.364 798.261 579.097Z" fill="#E2F0D9" fill-rule="evenodd" fill-opacity="0.501961"/><path d="M834.714 539.888C834.714 558.988 819.23 574.471 800.131 574.471 781.031 574.471 765.547 558.988 765.547 539.888 765.547 520.788 781.031 505.304 800.131 505.304 819.23 505.304 834.714 520.788 834.714 539.888Z" fill="#E2F0D9" fill-rule="evenodd" fill-opacity="0.501961"/><path d="M608.993 253.545C599.649 205.232 647.761 160.74 716.454 154.168 744.289 151.505 772.589 155.486 796.827 165.473 822.51 131.424 882.525 118.483 930.875 136.57 939.329 139.732 947.089 143.741 953.911 148.47 973.914 120.246 1022.64 108.779 1062.73 122.858 1073.83 126.755 1083.51 132.391 1091.03 139.333 1123.27 112.641 1180.24 109.344 1218.28 131.968 1234.27 141.477 1245.04 154.593 1248.76 169.066 1301.58 179.203 1332.74 217.604 1318.36 254.835 1317.15 257.965 1315.63 261.032 1313.82 264.014 1356.18 302.808 1345.81 358.412 1290.65 388.209 1273.48 397.484 1253.2 403.49 1231.77 405.645 1231.29 447.382 1182.77 480.945 1123.38 480.611 1103.54 480.499 1084.13 476.531 1067.3 469.146 1047.21 515.939 977.148 542.386 910.808 528.219 883.005 522.281 858.983 509.725 842.838 492.691 774.914 521.509 686.75 506.007 645.919 458.066 645.404 457.462 644.899 456.854 644.402 456.242 599.948 459.902 559.681 437.59 554.464 406.406 551.683 389.784 559.483 373.147 575.786 360.929 537.296 344.99 524.366 310.004 546.907 282.787 559.911 267.084 582.719 256.704 608.317 254.838Z" stroke="#2F528F" stroke-width="1.33333" stroke-miterlimit="8" stroke-opacity="0.501961" fill="none" fill-rule="evenodd"/><path d="M774.176 598.851C774.176 605.217 769.015 610.379 762.648 610.379 756.282 610.379 751.121 605.217 751.121 598.851 751.121 592.484 756.282 587.323 762.648 587.323 769.015 587.323 774.176 592.484 774.176 598.851Z" stroke="#2F528F" stroke-width="1.33333" stroke-miterlimit="8" stroke-opacity="0.501961" fill="none" fill-rule="evenodd"/><path d="M798.261 579.097C798.261 591.831 787.939 602.153 775.206 602.153 762.472 602.153 752.15 591.831 752.15 579.097 752.15 566.364 762.472 556.042 775.206 556.042 787.939 556.042 798.261 566.364 798.261 579.097Z" stroke="#2F528F" stroke-width="1.33333" stroke-miterlimit="8" stroke-opacity="0.501961" fill="none" fill-rule="evenodd"/><path d="M834.714 539.888C834.714 558.988 819.23 574.471 800.131 574.471 781.031 574.471 765.547 558.988 765.547 539.888 765.547 520.788 781.031 505.304 800.131 505.304 819.23 505.304 834.714 520.788 834.714 539.888Z" stroke="#2F528F" stroke-width="1.33333" stroke-miterlimit="8" stroke-opacity="0.501961" fill="none" fill-rule="evenodd"/><path d="M623.733 366.969C607.301 367.874 590.871 365.202 576.648 359.312M665.277 450.757C658.67 452.607 651.743 453.839 644.677 454.421M842.792 491.017C837.822 485.773 833.661 480.17 830.38 474.302M1072.34 449.335C1071.6 455.555 1069.94 461.703 1067.38 467.676M1170.89 336.007C1208.15 348.762 1231.66 375.43 1231.33 404.556M1313.44 262.998C1307.41 272.916 1298.19 281.714 1286.53 288.702M1248.87 167.625C1249.89 171.63 1250.37 175.695 1250.29 179.764M1077 153.465C1080.51 147.864 1085.15 142.65 1090.79 137.984M948.056 160.843C949.487 156.214 951.73 151.73 954.733 147.491M796.732 165.377C805.501 168.991 813.615 173.34 820.893 178.33M613.213 267.177C611.298 262.719 609.888 258.162 608.996 253.549" stroke="#2F528F" stroke-width="1.33333" stroke-miterlimit="8" stroke-opacity="0.501961" fill="none" fill-rule="evenodd"/><rect x="733" y="184" width="475" height="232" fill="#D9D9D9"/><text font-family="Yu Gothic,Yu Gothic_MSFontService,sans-serif" font-weight="400" font-size="16" transform="translate(1006.66 204)">事業部全体（営業）の課題</text><g clip-path="url(#clip19)"><g clip-path="url(#clip20)"><g clip-path="url(#clip21)"><g clip-path="url(#clip22)"><path d="M105.247 146.134 241.033 146.134 241.033 184.498 105.247 184.498Z" stroke="#FF0000" stroke-width="1.51435" stroke-miterlimit="8" fill="#4472C4" transform="matrix(1 0 0 1.0035 666.369 113.59)"/><text fill="#FFFFFF" font-family="Yu Gothic,Yu Gothic_MSFontService,sans-serif" font-weight="700" font-size="24" transform="matrix(0.504782 0 0 0.50655 815.139 283)">目指</text><text fill="#FFFFFF" font-family="Yu Gothic,Yu Gothic_MSFontService,sans-serif" font-weight="700" font-size="24" transform="matrix(0.504782 0 0 0.50655 839.368 283)">す</text><text fill="#FFFFFF" font-family="Yu Gothic,Yu Gothic_MSFontService,sans-serif" font-weight="700" font-size="24" transform="matrix(0.504782 0 0 0.50655 851.483 283)">姿</text><path d="M105.247 245.577 241.033 245.577 241.033 283.94 105.247 283.94Z" stroke="#FF0000" stroke-width="1.51435" stroke-miterlimit="8" fill="#ED7D31" transform="matrix(1 0 0 1.0035 666.369 113.59)"/><text fill="#FFFFFF" font-family="Yu Gothic,Yu Gothic_MSFontService,sans-serif" font-weight="700" font-size="24" transform="matrix(0.504782 0 0 0.50655 815.139 383)">現在</text><text fill="#FFFFFF" font-family="Yu Gothic,Yu Gothic_MSFontService,sans-serif" font-weight="700" font-size="24" transform="matrix(0.504782 0 0 0.50655 839.368 383)">の</text><text fill="#FFFFFF" font-family="Yu Gothic,Yu Gothic_MSFontService,sans-serif" font-weight="700" font-size="24" transform="matrix(0.504782 0 0 0.50655 851.483 383)">姿</text><path d="M161.278 201.408 174.15 188.536 187.022 201.408 180.586 201.408 180.586 226.142 187.022 226.142 174.15 239.014 161.278 226.142 167.714 226.142 167.714 201.408Z" stroke="#2F528F" stroke-width="0.673041" stroke-miterlimit="8" fill="url(#fill23)" fill-rule="evenodd" transform="matrix(1 0 0 1.0035 666.369 113.59)"/><text font-family="Yu Gothic,Yu Gothic_MSFontService,sans-serif" font-weight="400" font-size="24" transform="matrix(0.504782 0 0 0.50655 835.939 317)">G</text><text font-family="Yu Gothic,Yu Gothic_MSFontService,sans-serif" font-weight="400" font-size="24" transform="matrix(0.504782 0 0 0.50655 835.939 332)">A</text><text font-family="Yu Gothic,Yu Gothic_MSFontService,sans-serif" font-weight="400" font-size="24" transform="matrix(0.504782 0 0 0.50655 835.939 347)">P</text><path d="M199.641 213.775 209.232 204.184 209.232 208.98 225.297 208.98 225.297 194.594 351.076 194.594 351.076 232.957 225.297 232.957 225.297 218.571 209.232 218.571 209.232 223.366Z" stroke="#FF0000" stroke-width="0.673041" stroke-miterlimit="8" fill="#FFE699" fill-rule="evenodd" transform="matrix(1 0 0 1.0035 666.369 113.59)"/><text font-family="Yu Gothic,Yu Gothic_MSFontService,sans-serif" font-weight="700" font-size="24" transform="matrix(0.504782 0 0 0.50655 942.204 331)">問題</text><path d="M391.459 194.594 517.654 194.594 517.654 225.359C454.556 225.359 454.556 237.081 391.459 230.421Z" stroke="#2F528F" stroke-width="0.673041" stroke-miterlimit="8" fill="#F4B183" fill-rule="evenodd" transform="matrix(1 0 0 1.0035 666.369 113.59)"/><text font-family="Yu Gothic,Yu Gothic_MSFontService,sans-serif" font-weight="700" font-size="24" transform="matrix(0.504782 0 0 0.50655 1108.43 328)">課題</text><path d="M0 3.28109 0.410141 3.28109 0.410141 9.84325 0 9.84325ZM0.820281 3.28109 1.64053 3.28109 1.64053 9.84325 0.820281 9.84325ZM2.05067 3.28109 25.2391 3.28109 25.2391 0 31.8013 6.56217 25.2391 13.1243 25.2391 9.84325 2.05067 9.84325Z" stroke="#2F528F" stroke-width="0.673041" stroke-miterlimit="8" fill="url(#fill24)" fill-rule="evenodd" transform="matrix(-1 0 0 1.0035 1053.28 321.528)"/><path d="M166.613 101.859C165.145 98.0984 172.706 94.635 183.501 94.1232 187.875 93.9162 192.323 94.2262 196.132 95.0035 200.168 92.3529 209.6 91.3454 217.199 92.7532 218.527 92.9995 219.747 93.3115 220.819 93.68 223.962 91.4827 231.619 90.5902 237.921 91.6861 239.665 91.9895 241.186 92.4281 242.368 92.9683 247.435 90.8906 256.388 90.6341 262.366 92.3953 264.878 93.1353 266.571 94.1565 267.155 95.2832 275.457 96.0722 280.354 99.0615 278.094 101.96 277.904 102.204 277.665 102.443 277.38 102.674 284.038 105.694 282.408 110.023 273.74 112.342 271.041 113.065 267.854 113.532 264.486 113.7 264.411 116.949 256.785 119.562 247.452 119.535 244.334 119.527 241.283 119.218 238.638 118.643 235.481 122.285 224.471 124.344 214.045 123.242 209.675 122.78 205.9 121.802 203.363 120.476 192.688 122.719 178.833 121.513 172.416 117.78 172.335 117.733 172.256 117.686 172.178 117.638 165.192 117.924 158.864 116.187 158.044 113.759 157.607 112.465 158.832 111.17 161.394 110.219 155.346 108.978 153.313 106.255 156.856 104.136 158.9 102.913 162.484 102.105 166.507 101.96Z" fill="#DEEBF7" fill-rule="evenodd" transform="matrix(1 0 0 1.0035 666.369 113.59)"/><path d="M174.102 150.09C174.102 150.586 173.701 150.988 173.205 150.988 172.709 150.988 172.307 150.586 172.307 150.09 172.307 149.595 172.709 149.193 173.205 149.193 173.701 149.193 174.102 149.595 174.102 150.09Z" fill="#DEEBF7" fill-rule="evenodd" transform="matrix(1 0 0 1.0035 666.369 113.59)"/><path d="M184.127 141.426C184.127 142.417 183.323 143.221 182.332 143.221 181.341 143.221 180.537 142.417 180.537 141.426 180.537 140.435 181.341 139.631 182.332 139.631 183.323 139.631 184.127 140.435 184.127 141.426Z" fill="#DEEBF7" fill-rule="evenodd" transform="matrix(1 0 0 1.0035 666.369 113.59)"/><path d="M195.453 131.527C195.453 133.013 194.248 134.219 192.761 134.219 191.275 134.219 190.069 133.013 190.069 131.527 190.069 130.039 191.275 128.834 192.761 128.834 194.248 128.834 195.453 130.039 195.453 131.527Z" fill="#DEEBF7" fill-rule="evenodd" transform="matrix(1 0 0 1.0035 666.369 113.59)"/><path d="M166.613 101.859C165.145 98.0984 172.706 94.635 183.501 94.1232 187.875 93.9162 192.323 94.2262 196.132 95.0035 200.168 92.3529 209.6 91.3454 217.199 92.7532 218.527 92.9995 219.747 93.3115 220.819 93.68 223.962 91.4827 231.619 90.5902 237.921 91.6861 239.665 91.9895 241.186 92.4281 242.368 92.9683 247.435 90.8906 256.388 90.6341 262.366 92.3953 264.878 93.1353 266.571 94.1565 267.155 95.2832 275.457 96.0722 280.354 99.0615 278.094 101.96 277.904 102.204 277.665 102.443 277.38 102.674 284.038 105.694 282.408 110.023 273.74 112.342 271.041 113.065 267.854 113.532 264.486 113.7 264.411 116.949 256.785 119.562 247.452 119.535 244.334 119.527 241.283 119.218 238.638 118.643 235.481 122.285 224.471 124.344 214.045 123.242 209.675 122.78 205.9 121.802 203.363 120.476 192.688 122.719 178.833 121.513 172.416 117.78 172.335 117.733 172.256 117.686 172.178 117.638 165.192 117.924 158.864 116.187 158.044 113.759 157.607 112.465 158.832 111.17 161.394 110.219 155.346 108.978 153.313 106.255 156.856 104.136 158.9 102.913 162.484 102.105 166.507 101.96Z" stroke="#FF0000" stroke-width="1.51435" stroke-miterlimit="8" fill="none" fill-rule="evenodd" transform="matrix(1 0 0 1.0035 666.369 113.59)"/><path d="M174.102 150.09C174.102 150.586 173.701 150.988 173.205 150.988 172.709 150.988 172.307 150.586 172.307 150.09 172.307 149.595 172.709 149.193 173.205 149.193 173.701 149.193 174.102 149.595 174.102 150.09Z" stroke="#FF0000" stroke-width="1.51435" stroke-miterlimit="8" fill="none" fill-rule="evenodd" transform="matrix(1 0 0 1.0035 666.369 113.59)"/><path d="M184.127 141.426C184.127 142.417 183.323 143.221 182.332 143.221 181.341 143.221 180.537 142.417 180.537 141.426 180.537 140.435 181.341 139.631 182.332 139.631 183.323 139.631 184.127 140.435 184.127 141.426Z" stroke="#FF0000" stroke-width="1.51435" stroke-miterlimit="8" fill="none" fill-rule="evenodd" transform="matrix(1 0 0 1.0035 666.369 113.59)"/><path d="M195.453 131.527C195.453 133.013 194.248 134.219 192.761 134.219 191.275 134.219 190.069 133.013 190.069 131.527 190.069 130.039 191.275 128.834 192.761 128.834 194.248 128.834 195.453 130.039 195.453 131.527Z" stroke="#FF0000" stroke-width="1.51435" stroke-miterlimit="8" fill="none" fill-rule="evenodd" transform="matrix(1 0 0 1.0035 666.369 113.59)"/><path d="M168.93 110.689C166.347 110.759 163.765 110.551 161.53 110.093M175.459 117.211C174.42 117.356 173.332 117.452 172.221 117.497M203.356 120.346C202.575 119.937 201.921 119.501 201.405 119.044M239.43 117.101C239.315 117.585 239.054 118.063 238.651 118.529M254.918 108.279C260.773 109.272 264.468 111.348 264.416 113.615M277.321 102.595C276.372 103.367 274.925 104.052 273.091 104.596M267.172 95.1711C267.334 95.4826 267.409 95.7991 267.396 96.1161M240.163 94.0687C240.714 93.6325 241.444 93.2267 242.33 92.8633M219.899 94.6431C220.123 94.2827 220.476 93.9334 220.948 93.6038M196.117 94.996C197.495 95.2771 198.771 95.6158 199.914 96.004M167.276 102.921C166.975 102.574 166.754 102.219 166.613 101.859" stroke="#FF0000" stroke-width="1.51435" stroke-miterlimit="8" fill="none" fill-rule="evenodd" transform="matrix(1 0 0 1.0035 666.369 113.59)"/><text font-family="Yu Gothic,Yu Gothic_MSFontService,sans-serif" font-weight="700" font-size="24" transform="matrix(0.504782 0 0 0.50655 849.646 224)">本来</text><text font-family="Yu Gothic,Yu Gothic_MSFontService,sans-serif" font-weight="700" font-size="24" transform="matrix(0.504782 0 0 0.50655 873.875 224)">の</text><text font-family="Yu Gothic,Yu Gothic_MSFontService,sans-serif" font-weight="700" font-size="24" transform="matrix(0.504782 0 0 0.50655 885.99 224)">目的</text><path d="M183.361 110.938 198.505 110.938 213.648 110.938 228.791 110.938 243.935 110.938 243.935 111.443 228.791 111.443 213.648 111.443 198.505 111.443 183.361 111.443Z" fill-rule="evenodd" transform="matrix(1 0 0 1.0035 666.369 113.59)"/><path d="M67.3884 70.9219 541.379 70.9219 541.379 301.103 67.3884 301.103Z" stroke="#2F528F" stroke-width="0.673041" stroke-miterlimit="8" fill="none" transform="matrix(1 0 0 1.0035 666.369 113.59)"/></g></g></g></g><rect x="643" y="213" width="475" height="232" fill="#D9D9D9"/><text font-family="Yu Gothic,Yu Gothic_MSFontService,sans-serif" font-weight="400" font-size="16" transform="translate(916.66 233)">事業部全体（製造）の課題</text><g clip-path="url(#clip25)"><g clip-path="url(#clip26)"><g clip-path="url(#clip27)"><g clip-path="url(#clip28)"><path d="M105.247 146.134 241.033 146.134 241.033 184.498 105.247 184.498Z" stroke="#FF0000" stroke-width="1.51435" stroke-miterlimit="8" fill="#4472C4" transform="matrix(1 0 0 1.0035 576.369 142.59)"/><text fill="#FFFFFF" font-family="Yu Gothic,Yu Gothic_MSFontService,sans-serif" font-weight="700" font-size="24" transform="matrix(0.504782 0 0 0.50655 725.139 312)">目指</text><text fill="#FFFFFF" font-family="Yu Gothic,Yu Gothic_MSFontService,sans-serif" font-weight="700" font-size="24" transform="matrix(0.504782 0 0 0.50655 749.368 312)">す</text><text fill="#FFFFFF" font-family="Yu Gothic,Yu Gothic_MSFontService,sans-serif" font-weight="700" font-size="24" transform="matrix(0.504782 0 0 0.50655 761.483 312)">姿</text><path d="M105.247 245.577 241.033 245.577 241.033 283.94 105.247 283.94Z" stroke="#FF0000" stroke-width="1.51435" stroke-miterlimit="8" fill="#ED7D31" transform="matrix(1 0 0 1.0035 576.369 142.59)"/><text fill="#FFFFFF" font-family="Yu Gothic,Yu Gothic_MSFontService,sans-serif" font-weight="700" font-size="24" transform="matrix(0.504782 0 0 0.50655 725.139 412)">現在</text><text fill="#FFFFFF" font-family="Yu Gothic,Yu Gothic_MSFontService,sans-serif" font-weight="700" font-size="24" transform="matrix(0.504782 0 0 0.50655 749.368 412)">の</text><text fill="#FFFFFF" font-family="Yu Gothic,Yu Gothic_MSFontService,sans-serif" font-weight="700" font-size="24" transform="matrix(0.504782 0 0 0.50655 761.483 412)">姿</text><path d="M161.278 201.408 174.15 188.536 187.022 201.408 180.586 201.408 180.586 226.142 187.022 226.142 174.15 239.014 161.278 226.142 167.714 226.142 167.714 201.408Z" stroke="#2F528F" stroke-width="0.673041" stroke-miterlimit="8" fill="url(#fill29)" fill-rule="evenodd" transform="matrix(1 0 0 1.0035 576.369 142.59)"/><text font-family="Yu Gothic,Yu Gothic_MSFontService,sans-serif" font-weight="400" font-size="24" transform="matrix(0.504782 0 0 0.50655 745.939 346)">G</text><text font-family="Yu Gothic,Yu Gothic_MSFontService,sans-serif" font-weight="400" font-size="24" transform="matrix(0.504782 0 0 0.50655 745.939 361)">A</text><text font-family="Yu Gothic,Yu Gothic_MSFontService,sans-serif" font-weight="400" font-size="24" transform="matrix(0.504782 0 0 0.50655 745.939 376)">P</text><path d="M199.641 213.775 209.232 204.184 209.232 208.98 225.297 208.98 225.297 194.594 351.076 194.594 351.076 232.957 225.297 232.957 225.297 218.571 209.232 218.571 209.232 223.366Z" stroke="#FF0000" stroke-width="0.673041" stroke-miterlimit="8" fill="#FFE699" fill-rule="evenodd" transform="matrix(1 0 0 1.0035 576.369 142.59)"/><text font-family="Yu Gothic,Yu Gothic_MSFontService,sans-serif" font-weight="700" font-size="24" transform="matrix(0.504782 0 0 0.50655 852.204 360)">問題</text><path d="M391.459 194.594 517.654 194.594 517.654 225.359C454.556 225.359 454.556 237.081 391.459 230.421Z" stroke="#2F528F" stroke-width="0.673041" stroke-miterlimit="8" fill="#F4B183" fill-rule="evenodd" transform="matrix(1 0 0 1.0035 576.369 142.59)"/><text font-family="Yu Gothic,Yu Gothic_MSFontService,sans-serif" font-weight="700" font-size="24" transform="matrix(0.504782 0 0 0.50655 1018.43 357)">課題</text><path d="M0 3.28109 0.410141 3.28109 0.410141 9.84325 0 9.84325ZM0.820281 3.28109 1.64053 3.28109 1.64053 9.84325 0.820281 9.84325ZM2.05067 3.28109 25.2391 3.28109 25.2391 0 31.8013 6.56217 25.2391 13.1243 25.2391 9.84325 2.05067 9.84325Z" stroke="#2F528F" stroke-width="0.673041" stroke-miterlimit="8" fill="url(#fill30)" fill-rule="evenodd" transform="matrix(-1 0 0 1.0035 963.284 350.528)"/><path d="M166.613 101.859C165.145 98.0984 172.706 94.635 183.501 94.1232 187.875 93.9162 192.323 94.2262 196.132 95.0035 200.168 92.3529 209.6 91.3454 217.199 92.7532 218.527 92.9995 219.747 93.3115 220.819 93.68 223.962 91.4827 231.619 90.5902 237.921 91.6861 239.665 91.9895 241.186 92.4281 242.368 92.9683 247.435 90.8906 256.388 90.6341 262.366 92.3953 264.878 93.1353 266.571 94.1565 267.155 95.2832 275.457 96.0722 280.354 99.0615 278.094 101.96 277.904 102.204 277.665 102.443 277.38 102.674 284.038 105.694 282.408 110.023 273.74 112.342 271.041 113.065 267.854 113.532 264.486 113.7 264.411 116.949 256.785 119.562 247.452 119.535 244.334 119.527 241.283 119.218 238.638 118.643 235.481 122.285 224.471 124.344 214.045 123.242 209.675 122.78 205.9 121.802 203.363 120.476 192.688 122.719 178.833 121.513 172.416 117.78 172.335 117.733 172.256 117.686 172.178 117.638 165.192 117.924 158.864 116.187 158.044 113.759 157.607 112.465 158.832 111.17 161.394 110.219 155.346 108.978 153.313 106.255 156.856 104.136 158.9 102.913 162.484 102.105 166.507 101.96Z" fill="#DEEBF7" fill-rule="evenodd" transform="matrix(1 0 0 1.0035 576.369 142.59)"/><path d="M174.102 150.09C174.102 150.586 173.701 150.988 173.205 150.988 172.709 150.988 172.307 150.586 172.307 150.09 172.307 149.595 172.709 149.193 173.205 149.193 173.701 149.193 174.102 149.595 174.102 150.09Z" fill="#DEEBF7" fill-rule="evenodd" transform="matrix(1 0 0 1.0035 576.369 142.59)"/><path d="M184.127 141.426C184.127 142.417 183.323 143.221 182.332 143.221 181.341 143.221 180.537 142.417 180.537 141.426 180.537 140.435 181.341 139.631 182.332 139.631 183.323 139.631 184.127 140.435 184.127 141.426Z" fill="#DEEBF7" fill-rule="evenodd" transform="matrix(1 0 0 1.0035 576.369 142.59)"/><path d="M195.453 131.527C195.453 133.013 194.248 134.219 192.761 134.219 191.275 134.219 190.069 133.013 190.069 131.527 190.069 130.039 191.275 128.834 192.761 128.834 194.248 128.834 195.453 130.039 195.453 131.527Z" fill="#DEEBF7" fill-rule="evenodd" transform="matrix(1 0 0 1.0035 576.369 142.59)"/><path d="M166.613 101.859C165.145 98.0984 172.706 94.635 183.501 94.1232 187.875 93.9162 192.323 94.2262 196.132 95.0035 200.168 92.3529 209.6 91.3454 217.199 92.7532 218.527 92.9995 219.747 93.3115 220.819 93.68 223.962 91.4827 231.619 90.5902 237.921 91.6861 239.665 91.9895 241.186 92.4281 242.368 92.9683 247.435 90.8906 256.388 90.6341 262.366 92.3953 264.878 93.1353 266.571 94.1565 267.155 95.2832 275.457 96.0722 280.354 99.0615 278.094 101.96 277.904 102.204 277.665 102.443 277.38 102.674 284.038 105.694 282.408 110.023 273.74 112.342 271.041 113.065 267.854 113.532 264.486 113.7 264.411 116.949 256.785 119.562 247.452 119.535 244.334 119.527 241.283 119.218 238.638 118.643 235.481 122.285 224.471 124.344 214.045 123.242 209.675 122.78 205.9 121.802 203.363 120.476 192.688 122.719 178.833 121.513 172.416 117.78 172.335 117.733 172.256 117.686 172.178 117.638 165.192 117.924 158.864 116.187 158.044 113.759 157.607 112.465 158.832 111.17 161.394 110.219 155.346 108.978 153.313 106.255 156.856 104.136 158.9 102.913 162.484 102.105 166.507 101.96Z" stroke="#FF0000" stroke-width="1.51435" stroke-miterlimit="8" fill="none" fill-rule="evenodd" transform="matrix(1 0 0 1.0035 576.369 142.59)"/><path d="M174.102 150.09C174.102 150.586 173.701 150.988 173.205 150.988 172.709 150.988 172.307 150.586 172.307 150.09 172.307 149.595 172.709 149.193 173.205 149.193 173.701 149.193 174.102 149.595 174.102 150.09Z" stroke="#FF0000" stroke-width="1.51435" stroke-miterlimit="8" fill="none" fill-rule="evenodd" transform="matrix(1 0 0 1.0035 576.369 142.59)"/><path d="M184.127 141.426C184.127 142.417 183.323 143.221 182.332 143.221 181.341 143.221 180.537 142.417 180.537 141.426 180.537 140.435 181.341 139.631 182.332 139.631 183.323 139.631 184.127 140.435 184.127 141.426Z" stroke="#FF0000" stroke-width="1.51435" stroke-miterlimit="8" fill="none" fill-rule="evenodd" transform="matrix(1 0 0 1.0035 576.369 142.59)"/><path d="M195.453 131.527C195.453 133.013 194.248 134.219 192.761 134.219 191.275 134.219 190.069 133.013 190.069 131.527 190.069 130.039 191.275 128.834 192.761 128.834 194.248 128.834 195.453 130.039 195.453 131.527Z" stroke="#FF0000" stroke-width="1.51435" stroke-miterlimit="8" fill="none" fill-rule="evenodd" transform="matrix(1 0 0 1.0035 576.369 142.59)"/><path d="M168.93 110.689C166.347 110.759 163.765 110.551 161.53 110.093M175.459 117.211C174.42 117.356 173.332 117.452 172.221 117.497M203.356 120.346C202.575 119.937 201.921 119.501 201.405 119.044M239.43 117.101C239.315 117.585 239.054 118.063 238.651 118.529M254.918 108.279C260.773 109.272 264.468 111.348 264.416 113.615M277.321 102.595C276.372 103.367 274.925 104.052 273.091 104.596M267.172 95.1711C267.334 95.4826 267.409 95.7991 267.396 96.1161M240.163 94.0687C240.714 93.6325 241.444 93.2267 242.33 92.8633M219.899 94.6431C220.123 94.2827 220.476 93.9334 220.948 93.6038M196.117 94.996C197.495 95.2771 198.771 95.6158 199.914 96.004M167.276 102.921C166.975 102.574 166.754 102.219 166.613 101.859" stroke="#FF0000" stroke-width="1.51435" stroke-miterlimit="8" fill="none" fill-rule="evenodd" transform="matrix(1 0 0 1.0035 576.369 142.59)"/><text font-family="Yu Gothic,Yu Gothic_MSFontService,sans-serif" font-weight="700" font-size="24" transform="matrix(0.504782 0 0 0.50655 759.646 253)">本来</text><text font-family="Yu Gothic,Yu Gothic_MSFontService,sans-serif" font-weight="700" font-size="24" transform="matrix(0.504782 0 0 0.50655 783.875 253)">の</text><text font-family="Yu Gothic,Yu Gothic_MSFontService,sans-serif" font-weight="700" font-size="24" transform="matrix(0.504782 0 0 0.50655 795.99 253)">目的</text><path d="M183.361 110.938 198.505 110.938 213.648 110.938 228.791 110.938 243.935 110.938 243.935 111.443 228.791 111.443 213.648 111.443 198.505 111.443 183.361 111.443Z" fill-rule="evenodd" transform="matrix(1 0 0 1.0035 576.369 142.59)"/><path d="M67.3884 70.9219 541.379 70.9219 541.379 301.103 67.3884 301.103Z" stroke="#2F528F" stroke-width="0.673041" stroke-miterlimit="8" fill="none" transform="matrix(1 0 0 1.0035 576.369 142.59)"/></g></g></g></g><path d="M1219 296 1297 296" stroke="#70AD47" stroke-width="8" stroke-miterlimit="8" stroke-dasharray="8 8" fill="none" fill-rule="evenodd"/><path d="M820 478 1250 478 1250 654.66 1214.67 689.993 820 689.993Z" fill="#FFF2CC" fill-rule="evenodd"/><path d="M1214.67 689.993 1221.73 661.726 1250 654.66Z" fill="#CDC3A4" fill-rule="evenodd"/><path d="M1210.79 689.023 1218.44 658.428 1263.04 647.277 1216.32 693.993 816 693.993 816 474 1254 474 1254 654.66 1251.33 654.66 1251.33 476.667 818.667 476.667 818.667 691.326 1215.22 691.326 1254.35 652.199 1220.63 660.627 1213.37 689.67ZM1215.96 690.316 1222.83 662.826 1245.65 657.121 1214.11 688.66 821.333 688.66 821.333 479.333 1248.67 479.333 1248.67 654.66 1246 654.66 1246 482 824 482 824 685.993 1213.01 685.993 1236.96 662.043 1225.03 665.025 1218.55 690.963Z" fill="#FF0000"/><text font-family="Arial,Arial_MSFontService,sans-serif" font-weight="400" font-size="24" transform="translate(829.685 505)">•</text><text font-family="Yu Gothic,Yu Gothic_MSFontService,sans-serif" font-weight="400" font-size="24" transform="translate(859.685 505)">それぞれの役割・階層ごとに、</text><text font-family="Yu Gothic,Yu Gothic_MSFontService,sans-serif" font-weight="400" font-size="24" transform="translate(859.685 534)">扱う主題・問題は異なる</text><text font-family="Arial,Arial_MSFontService,sans-serif" font-weight="400" font-size="24" transform="translate(829.685 563)">•</text><text font-family="Yu Gothic,Yu Gothic_MSFontService,sans-serif" font-weight="400" font-size="24" transform="translate(859.685 563)">それぞれの異なる視点から、</text><text font-family="Yu Gothic,Yu Gothic_MSFontService,sans-serif" font-weight="400" font-size="24" transform="translate(859.685 591)">“問題”、“課題”は定義される</text><text font-family="Arial,Arial_MSFontService,sans-serif" font-weight="400" font-size="24" transform="translate(829.685 620)">•</text><text font-family="Yu Gothic,Yu Gothic_MSFontService,sans-serif" font-weight="400" font-size="24" transform="translate(859.685 620)">用語も違えば、同じ言葉でも意味</text><text font-family="Yu Gothic,Yu Gothic_MSFontService,sans-serif" font-weight="400" font-size="24" transform="translate(859.685 649)">が異なる場合もある</text><path d="M509.817 127.453 627.794 345.731 316.577 335.005Z" fill="#DAE3F3" fill-rule="evenodd"/><rect x="39" y="109" width="475" height="232" fill="#DAE3F3"/><text font-family="Yu Gothic,Yu Gothic_MSFontService,sans-serif" font-weight="400" font-size="16" transform="translate(220.382 129)">企業全体の課題</text><g clip-path="url(#clip31)"><g clip-path="url(#clip32)"><g clip-path="url(#clip33)"><g clip-path="url(#clip34)"><path d="M105.16 146.014 240.835 146.014 240.835 184.346 105.16 184.346Z" stroke="#FF0000" stroke-width="1.5131" stroke-miterlimit="8" fill="#4472C4" transform="matrix(1.00082 0 0 1 -27.6312 38.893)"/><text fill="#FFFFFF" font-family="Yu Gothic,Yu Gothic_MSFontService,sans-serif" font-weight="700" font-size="24" transform="matrix(0.504782 0 0 0.504367 121.139 208)">目指</text><text fill="#FFFFFF" font-family="Yu Gothic,Yu Gothic_MSFontService,sans-serif" font-weight="700" font-size="24" transform="matrix(0.504782 0 0 0.504367 145.368 208)">す</text><text fill="#FFFFFF" font-family="Yu Gothic,Yu Gothic_MSFontService,sans-serif" font-weight="700" font-size="24" transform="matrix(0.504782 0 0 0.504367 157.483 208)">姿</text><path d="M105.16 245.374 240.835 245.374 240.835 283.706 105.16 283.706Z" stroke="#FF0000" stroke-width="1.5131" stroke-miterlimit="8" fill="#ED7D31" transform="matrix(1.00082 0 0 1 -27.6312 38.893)"/><text fill="#FFFFFF" font-family="Yu Gothic,Yu Gothic_MSFontService,sans-serif" font-weight="700" font-size="24" transform="matrix(0.504782 0 0 0.504367 121.139 307)">現在</text><text fill="#FFFFFF" font-family="Yu Gothic,Yu Gothic_MSFontService,sans-serif" font-weight="700" font-size="24" transform="matrix(0.504782 0 0 0.504367 145.368 307)">の</text><text fill="#FFFFFF" font-family="Yu Gothic,Yu Gothic_MSFontService,sans-serif" font-weight="700" font-size="24" transform="matrix(0.504782 0 0 0.504367 157.483 307)">姿</text><path d="M161.145 201.242 174.007 188.381 186.868 201.242 180.437 201.242 180.437 225.956 186.868 225.956 174.007 238.818 161.145 225.956 167.576 225.956 167.576 201.242Z" stroke="#2F528F" stroke-width="0.672487" stroke-miterlimit="8" fill="url(#fill35)" fill-rule="evenodd" transform="matrix(1.00082 0 0 1 -27.6312 38.893)"/><text font-family="Yu Gothic,Yu Gothic_MSFontService,sans-serif" font-weight="400" font-size="24" transform="matrix(0.504782 0 0 0.504367 141.939 242)">G</text><text font-family="Yu Gothic,Yu Gothic_MSFontService,sans-serif" font-weight="400" font-size="24" transform="matrix(0.504782 0 0 0.504367 141.939 256)">A</text><text font-family="Yu Gothic,Yu Gothic_MSFontService,sans-serif" font-weight="400" font-size="24" transform="matrix(0.504782 0 0 0.504367 141.939 271)">P</text><path d="M199.477 213.599 209.06 204.016 209.06 208.808 225.112 208.808 225.112 194.433 350.787 194.433 350.787 232.765 225.112 232.765 225.112 218.391 209.06 218.391 209.06 223.182Z" stroke="#FF0000" stroke-width="0.672487" stroke-miterlimit="8" fill="#FFE699" fill-rule="evenodd" transform="matrix(1.00082 0 0 1 -27.6312 38.893)"/><text font-family="Yu Gothic,Yu Gothic_MSFontService,sans-serif" font-weight="700" font-size="24" transform="matrix(0.504782 0 0 0.504367 248.204 256)">問題</text><path d="M391.136 194.433 517.228 194.433 517.228 225.174C454.182 225.174 454.182 236.886 391.136 230.231Z" stroke="#2F528F" stroke-width="0.672487" stroke-miterlimit="8" fill="#F4B183" fill-rule="evenodd" transform="matrix(1.00082 0 0 1 -27.6312 38.893)"/><text font-family="Yu Gothic,Yu Gothic_MSFontService,sans-serif" font-weight="700" font-size="24" transform="matrix(0.504782 0 0 0.504367 414.434 252)">課題</text><path d="M0 3.27839 0.409803 3.27839 0.409803 9.83515 0 9.83515ZM0.819606 3.27839 1.63918 3.27839 1.63918 9.83515 0.819606 9.83515ZM2.04898 3.27839 25.2183 3.27839 25.2183 0 31.7751 6.55677 25.2183 13.1135 25.2183 9.83515 2.04898 9.83515Z" stroke="#2F528F" stroke-width="0.672487" stroke-miterlimit="8" fill="url(#fill36)" fill-rule="evenodd" transform="matrix(-1.00082 0 0 1 359.284 245.936)"/><path d="M166.476 101.776C165.009 98.0176 172.564 94.5572 183.35 94.0457 187.721 93.839 192.165 94.1486 195.971 94.9254 200.004 92.2769 209.428 91.2702 217.02 92.6769 218.347 92.923 219.566 93.2347 220.637 93.6029 223.778 91.4074 231.429 90.5157 237.725 91.6107 239.468 91.9138 240.988 92.3521 242.169 92.8918 247.232 90.8158 256.177 90.5596 262.15 92.3193 264.66 93.0587 266.352 94.079 266.935 95.2048 275.23 95.9931 280.123 98.98 277.865 101.876 277.675 102.12 277.437 102.358 277.152 102.59 283.804 105.607 282.176 109.932 273.515 112.25 270.818 112.972 267.634 113.439 264.268 113.606 264.193 116.853 256.573 119.463 247.248 119.437 244.133 119.429 241.085 119.12 238.442 118.545 235.288 122.185 224.286 124.242 213.869 123.14 209.503 122.679 205.731 121.702 203.196 120.377 192.53 122.618 178.686 121.413 172.275 117.683 172.193 117.636 172.114 117.59 172.036 117.542 165.056 117.827 158.733 116.091 157.914 113.666 157.477 112.372 158.702 111.079 161.262 110.128 155.218 108.888 153.187 106.167 156.727 104.05 158.769 102.829 162.351 102.021 166.37 101.876Z" fill="#DEEBF7" fill-rule="evenodd" transform="matrix(1.00082 0 0 1 -27.6312 38.893)"/><path d="M173.959 149.967C173.959 150.462 173.558 150.864 173.062 150.864 172.567 150.864 172.166 150.462 172.166 149.967 172.166 149.472 172.567 149.071 173.062 149.071 173.558 149.071 173.959 149.472 173.959 149.967Z" fill="#DEEBF7" fill-rule="evenodd" transform="matrix(1.00082 0 0 1 -27.6312 38.893)"/><path d="M183.975 141.31C183.975 142.3 183.172 143.103 182.182 143.103 181.192 143.103 180.389 142.3 180.389 141.31 180.389 140.319 181.192 139.516 182.182 139.516 183.172 139.516 183.975 140.319 183.975 141.31Z" fill="#DEEBF7" fill-rule="evenodd" transform="matrix(1.00082 0 0 1 -27.6312 38.893)"/><path d="M195.292 131.418C195.292 132.904 194.088 134.108 192.603 134.108 191.117 134.108 189.913 132.904 189.913 131.418 189.913 129.932 191.117 128.728 192.603 128.728 194.088 128.728 195.292 129.932 195.292 131.418Z" fill="#DEEBF7" fill-rule="evenodd" transform="matrix(1.00082 0 0 1 -27.6312 38.893)"/><path d="M166.476 101.776C165.009 98.0176 172.564 94.5572 183.35 94.0457 187.721 93.839 192.165 94.1486 195.971 94.9254 200.004 92.2769 209.428 91.2702 217.02 92.6769 218.347 92.923 219.566 93.2347 220.637 93.6029 223.778 91.4074 231.429 90.5157 237.725 91.6107 239.468 91.9138 240.988 92.3521 242.169 92.8918 247.232 90.8158 256.177 90.5596 262.15 92.3193 264.66 93.0587 266.352 94.079 266.935 95.2048 275.23 95.9931 280.123 98.98 277.865 101.876 277.675 102.12 277.437 102.358 277.152 102.59 283.804 105.607 282.176 109.932 273.515 112.25 270.818 112.972 267.634 113.439 264.268 113.606 264.193 116.853 256.573 119.463 247.248 119.437 244.133 119.429 241.085 119.12 238.442 118.545 235.288 122.185 224.286 124.242 213.869 123.14 209.503 122.679 205.731 121.702 203.196 120.377 192.53 122.618 178.686 121.413 172.275 117.683 172.193 117.636 172.114 117.59 172.036 117.542 165.056 117.827 158.733 116.091 157.914 113.666 157.477 112.372 158.702 111.079 161.262 110.128 155.218 108.888 153.187 106.167 156.727 104.05 158.769 102.829 162.351 102.021 166.37 101.876Z" stroke="#FF0000" stroke-width="1.5131" stroke-miterlimit="8" fill="none" fill-rule="evenodd" transform="matrix(1.00082 0 0 1 -27.6312 38.893)"/><path d="M173.959 149.967C173.959 150.462 173.558 150.864 173.062 150.864 172.567 150.864 172.166 150.462 172.166 149.967 172.166 149.472 172.567 149.071 173.062 149.071 173.558 149.071 173.959 149.472 173.959 149.967Z" stroke="#FF0000" stroke-width="1.5131" stroke-miterlimit="8" fill="none" fill-rule="evenodd" transform="matrix(1.00082 0 0 1 -27.6312 38.893)"/><path d="M183.975 141.31C183.975 142.3 183.172 143.103 182.182 143.103 181.192 143.103 180.389 142.3 180.389 141.31 180.389 140.319 181.192 139.516 182.182 139.516 183.172 139.516 183.975 140.319 183.975 141.31Z" stroke="#FF0000" stroke-width="1.5131" stroke-miterlimit="8" fill="none" fill-rule="evenodd" transform="matrix(1.00082 0 0 1 -27.6312 38.893)"/><path d="M195.292 131.418C195.292 132.904 194.088 134.108 192.603 134.108 191.117 134.108 189.913 132.904 189.913 131.418 189.913 129.932 191.117 128.728 192.603 128.728 194.088 128.728 195.292 129.932 195.292 131.418Z" stroke="#FF0000" stroke-width="1.5131" stroke-miterlimit="8" fill="none" fill-rule="evenodd" transform="matrix(1.00082 0 0 1 -27.6312 38.893)"/><path d="M168.791 110.598C166.211 110.668 163.63 110.46 161.397 110.002M175.314 117.115C174.276 117.259 173.189 117.355 172.079 117.4M203.189 120.247C202.408 119.839 201.755 119.403 201.239 118.946M239.233 117.005C239.118 117.488 238.857 117.966 238.455 118.431M254.708 108.19C260.558 109.182 264.25 111.256 264.198 113.521M277.093 102.511C276.145 103.282 274.698 103.967 272.866 104.51M266.952 95.0928C267.114 95.404 267.189 95.7203 267.176 96.037M239.966 93.9913C240.516 93.5555 241.245 93.15 242.13 92.7868M219.718 94.5652C219.942 94.2051 220.295 93.8561 220.766 93.5268M195.956 94.9178C197.333 95.1987 198.607 95.5372 199.75 95.925M167.139 102.836C166.838 102.489 166.617 102.135 166.476 101.776" stroke="#FF0000" stroke-width="1.5131" stroke-miterlimit="8" fill="none" fill-rule="evenodd" transform="matrix(1.00082 0 0 1 -27.6312 38.893)"/><text font-family="Yu Gothic,Yu Gothic_MSFontService,sans-serif" font-weight="700" font-size="24" transform="matrix(0.504782 0 0 0.504367 155.646 149)">本来</text><text font-family="Yu Gothic,Yu Gothic_MSFontService,sans-serif" font-weight="700" font-size="24" transform="matrix(0.504782 0 0 0.504367 179.875 149)">の</text><text font-family="Yu Gothic,Yu Gothic_MSFontService,sans-serif" font-weight="700" font-size="24" transform="matrix(0.504782 0 0 0.504367 191.99 149)">目的</text><path d="M183.21 110.847 198.341 110.847 213.472 110.847 228.603 110.847 243.734 110.847 243.734 111.351 228.603 111.351 213.472 111.351 198.341 111.351 183.21 111.351Z" fill-rule="evenodd" transform="matrix(1.00082 0 0 1 -27.6312 38.893)"/><path d="M67.333 70.8635 540.933 70.8635 540.933 300.855 67.333 300.855Z" stroke="#2F528F" stroke-width="0.672487" stroke-miterlimit="8" fill="none" transform="matrix(1.00082 0 0 1 -27.6312 38.893)"/></g></g></g></g></g></svg>