<svg width="1225" height="536" xmlns="http://www.w3.org/2000/svg" xmlns:xlink="http://www.w3.org/1999/xlink" overflow="hidden"><defs><clipPath id="clip0"><rect x="49" y="136" width="1225" height="536"/></clipPath><clipPath id="clip1"><rect x="87" y="188" width="267" height="130"/></clipPath><clipPath id="clip2"><rect x="87" y="188" width="267" height="130"/></clipPath><clipPath id="clip3"><rect x="87" y="188" width="267" height="130"/></clipPath><clipPath id="clip4"><rect x="87" y="188" width="267" height="130"/></clipPath><linearGradient x1="97.8905" y1="105.977" x2="97.8905" y2="134.351" gradientUnits="userSpaceOnUse" spreadMethod="reflect" id="fill5"><stop offset="0" stop-color="#4472C4"/><stop offset="0.4" stop-color="#FFFFFF" stop-opacity="0.901961"/><stop offset="0.63" stop-color="#FFFFFF" stop-opacity="0.501961"/><stop offset="1" stop-color="#ED7D31"/></linearGradient><linearGradient x1="0" y1="3.68863" x2="17.8757" y2="3.68863" gradientUnits="userSpaceOnUse" spreadMethod="reflect" id="fill6"><stop offset="0" stop-color="#ED7D31"/><stop offset="0.4" stop-color="#FFFFFF" stop-opacity="0.901961"/><stop offset="0.63" stop-color="#FFFFFF" stop-opacity="0.501961"/><stop offset="1" stop-color="#FFC000"/></linearGradient><clipPath id="clip7"><rect x="405" y="220" width="120" height="69"/></clipPath><clipPath id="clip8"><rect x="405" y="220" width="120" height="69"/></clipPath><clipPath id="clip9"><rect x="388" y="205" width="232" height="87"/></clipPath><clipPath id="clip10"><rect x="388" y="205" width="232" height="87"/></clipPath><clipPath id="clip11"><rect x="87" y="490" width="267" height="130"/></clipPath><clipPath id="clip12"><rect x="87" y="490" width="267" height="130"/></clipPath><clipPath id="clip13"><rect x="87" y="490" width="267" height="130"/></clipPath><clipPath id="clip14"><rect x="87" y="490" width="267" height="130"/></clipPath><linearGradient x1="97.8905" y1="105.977" x2="97.8905" y2="134.351" gradientUnits="userSpaceOnUse" spreadMethod="reflect" id="fill15"><stop offset="0" stop-color="#4472C4"/><stop offset="0.4" stop-color="#FFFFFF" stop-opacity="0.901961"/><stop offset="0.63" stop-color="#FFFFFF" stop-opacity="0.501961"/><stop offset="1" stop-color="#ED7D31"/></linearGradient><linearGradient x1="0" y1="3.68863" x2="17.8757" y2="3.68863" gradientUnits="userSpaceOnUse" spreadMethod="reflect" id="fill16"><stop offset="0" stop-color="#ED7D31"/><stop offset="0.4" stop-color="#FFFFFF" stop-opacity="0.901961"/><stop offset="0.63" stop-color="#FFFFFF" stop-opacity="0.501961"/><stop offset="1" stop-color="#FFC000"/></linearGradient><clipPath id="clip17"><rect x="405" y="522" width="120" height="69"/></clipPath><clipPath id="clip18"><rect x="405" y="522" width="120" height="69"/></clipPath><clipPath id="clip19"><rect x="388" y="507" width="232" height="87"/></clipPath><clipPath id="clip20"><rect x="388" y="507" width="232" height="87"/></clipPath></defs><g clip-path="url(#clip0)" transform="translate(-49 -136)"><rect x="76.5001" y="137.5" width="475" height="232" stroke="#000000" stroke-width="1.33333" stroke-miterlimit="8" fill="#DAE3F3"/><text font-family="Yu Gothic,Yu Gothic_MSFontService,sans-serif" font-weight="700" font-size="19" transform="translate(173.382 159)">上位（経営層・事業部）のモデル</text><g clip-path="url(#clip1)"><g clip-path="url(#clip2)"><g clip-path="url(#clip3)"><g clip-path="url(#clip4)"><path d="M59.1599 82.1429 135.486 82.1429 135.486 103.707 59.1599 103.707Z" stroke="#FF0000" stroke-width="0.851222" stroke-miterlimit="8" fill="#4472C4" transform="matrix(1 0 0 1.00036 49.5462 148.546)"/><text fill="#FFFFFF" font-family="Yu Gothic,Yu Gothic_MSFontService,sans-serif" font-weight="700" font-size="24" transform="matrix(0.283741 0 0 0.283843 133.171 244)">目指</text><text fill="#FFFFFF" font-family="Yu Gothic,Yu Gothic_MSFontService,sans-serif" font-weight="700" font-size="24" transform="matrix(0.283741 0 0 0.283843 146.79 244)">す</text><text fill="#FFFFFF" font-family="Yu Gothic,Yu Gothic_MSFontService,sans-serif" font-weight="700" font-size="24" transform="matrix(0.283741 0 0 0.283843 153.6 244)">姿</text><path d="M59.1599 138.04 135.486 138.04 135.486 159.604 59.1599 159.604Z" stroke="#FF0000" stroke-width="0.851222" stroke-miterlimit="8" fill="#ED7D31" transform="matrix(1 0 0 1.00036 49.5462 148.546)"/><text fill="#FFFFFF" font-family="Yu Gothic,Yu Gothic_MSFontService,sans-serif" font-weight="700" font-size="24" transform="matrix(0.283741 0 0 0.283843 133.171 300)">現在</text><text fill="#FFFFFF" font-family="Yu Gothic,Yu Gothic_MSFontService,sans-serif" font-weight="700" font-size="24" transform="matrix(0.283741 0 0 0.283843 146.79 300)">の</text><text fill="#FFFFFF" font-family="Yu Gothic,Yu Gothic_MSFontService,sans-serif" font-weight="700" font-size="24" transform="matrix(0.283741 0 0 0.283843 153.6 300)">姿</text><path d="M90.6552 113.213 97.8905 105.977 105.126 113.213 101.508 113.213 101.508 127.116 105.126 127.116 97.8905 134.351 90.6552 127.116 94.2729 127.116 94.2729 113.213Z" stroke="#2F528F" stroke-width="0.37832" stroke-miterlimit="8" fill="url(#fill5)" fill-rule="evenodd" transform="matrix(1 0 0 1.00036 49.5462 148.546)"/><text font-family="Yu Gothic,Yu Gothic_MSFontService,sans-serif" font-weight="400" font-size="24" transform="matrix(0.283741 0 0 0.283843 144.863 263)">G</text><text font-family="Yu Gothic,Yu Gothic_MSFontService,sans-serif" font-weight="400" font-size="24" transform="matrix(0.283741 0 0 0.283843 144.863 271)">A</text><text font-family="Yu Gothic,Yu Gothic_MSFontService,sans-serif" font-weight="400" font-size="24" transform="matrix(0.283741 0 0 0.283843 144.863 279)">P</text><path d="M112.219 120.164 117.611 114.773 117.611 117.469 126.641 117.469 126.641 109.382 197.342 109.382 197.342 130.946 126.641 130.946 126.641 122.86 117.611 122.86 117.611 125.555Z" stroke="#FF0000" stroke-width="0.37832" stroke-miterlimit="8" fill="#FFE699" fill-rule="evenodd" transform="matrix(1 0 0 1.00036 49.5462 148.546)"/><text font-family="Yu Gothic,Yu Gothic_MSFontService,sans-serif" font-weight="700" font-size="24" transform="matrix(0.283741 0 0 0.283843 204.595 271)">問題</text><path d="M220.041 109.382 290.976 109.382 290.976 126.675C255.508 126.675 255.508 133.264 220.041 129.521Z" stroke="#2F528F" stroke-width="0.37832" stroke-miterlimit="8" fill="#F4B183" fill-rule="evenodd" transform="matrix(1 0 0 1.00036 49.5462 148.546)"/><text font-family="Yu Gothic,Yu Gothic_MSFontService,sans-serif" font-weight="700" font-size="24" transform="matrix(0.283741 0 0 0.283843 298.034 269)">課題</text><path d="M0 1.84432 0.230542 1.84432 0.230542 5.53294 0 5.53294ZM0.461084 1.84432 0.922149 1.84432 0.922149 5.53294 0.461084 5.53294ZM1.15269 1.84432 14.187 1.84432 14.187 0 17.8757 3.68863 14.187 7.37726 14.187 5.53294 1.15269 5.53294Z" stroke="#2F528F" stroke-width="0.37832" stroke-miterlimit="8" fill="url(#fill6)" fill-rule="evenodd" transform="matrix(-1 0 0 1.00036 267.033 265.063)"/><path d="M93.6543 57.2558C92.8286 55.1416 97.0788 53.1949 103.147 52.9071 105.606 52.7908 108.106 52.965 110.247 53.402 112.516 51.9121 117.817 51.3457 122.089 52.1371 122.835 52.2755 123.521 52.4509 124.124 52.658 125.89 51.4229 130.194 50.9212 133.737 51.5372 134.717 51.7078 135.572 51.9543 136.236 52.2579 139.085 51.0901 144.117 50.9459 147.477 51.9359 148.889 52.3519 149.841 52.9259 150.169 53.5592 154.836 54.0027 157.588 55.683 156.318 57.3122 156.211 57.4493 156.077 57.5835 155.917 57.7137 159.659 59.4113 158.743 61.8444 153.871 63.1482 152.354 63.5542 150.562 63.817 148.669 63.9112 148.627 65.7376 144.34 67.2063 139.094 67.1915 137.341 67.1867 135.627 67.013 134.14 66.6898 132.365 68.7373 126.176 69.8947 120.316 69.2747 117.86 69.0151 115.738 68.4655 114.311 67.7201 108.311 68.9811 100.523 68.3029 96.9162 66.2049 96.8705 66.1785 96.8259 66.1522 96.782 66.1252 92.8553 66.2855 89.298 65.3092 88.8372 63.9447 88.5915 63.2171 89.2804 62.4893 90.7207 61.9545 87.3206 61.2571 86.1783 59.7263 88.1696 58.5351 89.3185 57.8482 91.3333 57.3939 93.5944 57.3122Z" fill="#DEEBF7" fill-rule="evenodd" transform="matrix(1 0 0 1.00036 49.5462 148.546)"/><path d="M97.8636 84.3666C97.8636 84.6452 97.638 84.8711 97.3594 84.8711 97.0807 84.8711 96.8549 84.6452 96.8549 84.3666 96.8549 84.088 97.0807 83.8624 97.3594 83.8624 97.638 83.8624 97.8636 84.088 97.8636 84.3666Z" fill="#DEEBF7" fill-rule="evenodd" transform="matrix(1 0 0 1.00036 49.5462 148.546)"/><path d="M103.499 79.4965C103.499 80.0535 103.047 80.5052 102.49 80.5052 101.933 80.5052 101.481 80.0535 101.481 79.4965 101.481 78.9392 101.933 78.4875 102.49 78.4875 103.047 78.4875 103.499 78.9392 103.499 79.4965Z" fill="#DEEBF7" fill-rule="evenodd" transform="matrix(1 0 0 1.00036 49.5462 148.546)"/><path d="M109.865 73.9318C109.865 74.7674 109.188 75.445 108.352 75.445 107.516 75.445 106.839 74.7674 106.839 73.9318 106.839 73.0959 107.516 72.4183 108.352 72.4183 109.188 72.4183 109.865 73.0959 109.865 73.9318Z" fill="#DEEBF7" fill-rule="evenodd" transform="matrix(1 0 0 1.00036 49.5462 148.546)"/><path d="M93.6543 57.2558C92.8286 55.1416 97.0788 53.1949 103.147 52.9071 105.606 52.7908 108.106 52.965 110.247 53.402 112.516 51.9121 117.817 51.3457 122.089 52.1371 122.835 52.2755 123.521 52.4509 124.124 52.658 125.89 51.4229 130.194 50.9212 133.737 51.5372 134.717 51.7078 135.572 51.9543 136.236 52.2579 139.085 51.0901 144.117 50.9459 147.477 51.9359 148.889 52.3519 149.841 52.9259 150.169 53.5592 154.836 54.0027 157.588 55.683 156.318 57.3122 156.211 57.4493 156.077 57.5835 155.917 57.7137 159.659 59.4113 158.743 61.8444 153.871 63.1482 152.354 63.5542 150.562 63.817 148.669 63.9112 148.627 65.7376 144.34 67.2063 139.094 67.1915 137.341 67.1867 135.627 67.013 134.14 66.6898 132.365 68.7373 126.176 69.8947 120.316 69.2747 117.86 69.0151 115.738 68.4655 114.311 67.7201 108.311 68.9811 100.523 68.3029 96.9162 66.2049 96.8705 66.1785 96.8259 66.1522 96.782 66.1252 92.8553 66.2855 89.298 65.3092 88.8372 63.9447 88.5915 63.2171 89.2804 62.4893 90.7207 61.9545 87.3206 61.2571 86.1783 59.7263 88.1696 58.5351 89.3185 57.8482 91.3333 57.3939 93.5944 57.3122Z" stroke="#FF0000" stroke-width="0.851222" stroke-miterlimit="8" fill="none" fill-rule="evenodd" transform="matrix(1 0 0 1.00036 49.5462 148.546)"/><path d="M97.8636 84.3666C97.8636 84.6452 97.638 84.8711 97.3594 84.8711 97.0807 84.8711 96.8549 84.6452 96.8549 84.3666 96.8549 84.088 97.0807 83.8624 97.3594 83.8624 97.638 83.8624 97.8636 84.088 97.8636 84.3666Z" stroke="#FF0000" stroke-width="0.851222" stroke-miterlimit="8" fill="none" fill-rule="evenodd" transform="matrix(1 0 0 1.00036 49.5462 148.546)"/><path d="M103.499 79.4965C103.499 80.0535 103.047 80.5052 102.49 80.5052 101.933 80.5052 101.481 80.0535 101.481 79.4965 101.481 78.9392 101.933 78.4875 102.49 78.4875 103.047 78.4875 103.499 78.9392 103.499 79.4965Z" stroke="#FF0000" stroke-width="0.851222" stroke-miterlimit="8" fill="none" fill-rule="evenodd" transform="matrix(1 0 0 1.00036 49.5462 148.546)"/><path d="M109.865 73.9318C109.865 74.7674 109.188 75.445 108.352 75.445 107.516 75.445 106.839 74.7674 106.839 73.9318 106.839 73.0959 107.516 72.4183 108.352 72.4183 109.188 72.4183 109.865 73.0959 109.865 73.9318Z" stroke="#FF0000" stroke-width="0.851222" stroke-miterlimit="8" fill="none" fill-rule="evenodd" transform="matrix(1 0 0 1.00036 49.5462 148.546)"/><path d="M94.9564 62.2189C93.5048 62.2584 92.0531 62.1415 90.7967 61.8839M98.6263 65.8852C98.0423 65.9663 97.4306 66.0202 96.8064 66.0455M114.307 67.6469C113.868 67.4174 113.501 67.1722 113.211 66.9154M134.585 65.823C134.52 66.0951 134.373 66.3641 134.147 66.6257M143.291 60.8641C146.582 61.4222 148.659 62.5892 148.63 63.8635M155.883 57.6694C155.35 58.1033 154.537 58.4883 153.506 58.7942M150.179 53.4962C150.27 53.6713 150.312 53.8492 150.305 54.0273M134.997 52.8765C135.307 52.6313 135.717 52.4032 136.215 52.1989M123.606 53.1994C123.733 52.9968 123.931 52.8005 124.196 52.6152M110.239 53.3977C111.013 53.5558 111.73 53.7462 112.373 53.9644M94.0268 57.8522C93.8577 57.6572 93.7332 57.4578 93.6543 57.2558" stroke="#FF0000" stroke-width="0.851222" stroke-miterlimit="8" fill="none" fill-rule="evenodd" transform="matrix(1 0 0 1.00036 49.5462 148.546)"/><text font-family="Yu Gothic,Yu Gothic_MSFontService,sans-serif" font-weight="700" font-size="24" transform="matrix(0.283741 0 0 0.283843 152.567 210)">本来</text><text font-family="Yu Gothic,Yu Gothic_MSFontService,sans-serif" font-weight="700" font-size="24" transform="matrix(0.283741 0 0 0.283843 166.187 210)">の</text><text font-family="Yu Gothic,Yu Gothic_MSFontService,sans-serif" font-weight="700" font-size="24" transform="matrix(0.283741 0 0 0.283843 172.996 210)">目的</text><path d="M103.068 62.3588 111.58 62.3588 120.093 62.3588 128.605 62.3588 137.117 62.3588 137.117 62.6426 128.605 62.6426 120.093 62.6426 111.58 62.6426 103.068 62.6426Z" fill-rule="evenodd" transform="matrix(1 0 0 1.00036 49.5462 148.546)"/><path d="M37.8794 39.8656 304.312 39.8656 304.312 169.251 37.8794 169.251Z" stroke="#2F528F" stroke-width="0.37832" stroke-miterlimit="8" fill="none" transform="matrix(1 0 0 1.00036 49.5462 148.546)"/></g></g></g></g><path d="M365.5 228.5 376.5 228.5 387.5 253.5 376.5 278.5 365.5 278.5Z" stroke="#2F528F" stroke-width="1.33333" stroke-miterlimit="8" fill="#E2F0D9" fill-rule="evenodd"/><g clip-path="url(#clip7)"><g clip-path="url(#clip8)"><g clip-path="url(#clip9)"><g clip-path="url(#clip10)"><path d="M18.5183 64.1315 246.975 64.1315 246.975 149.51 18.5183 149.51Z" stroke="#000000" stroke-width="2.24741" stroke-miterlimit="8" fill="none" transform="matrix(1.00443 0 0 1 370.941 141.793)"/><text fill="#FFFFFF" font-family="Bahnschrift SemiBold,Bahnschrift SemiBold_MSFontService,sans-serif" font-weight="600" font-size="16" transform="matrix(0.391584 0 0 0.389857 491.365 214)">Modeling</text><path d="M96.0998 91.8114 124.949 91.8114 124.949 107.016 96.0998 107.016Z" stroke="#000000" stroke-width="2.24741" stroke-miterlimit="8" fill="none" transform="matrix(1.00443 0 0 1 370.941 141.793)"/><path d="M137.425 91.8114 166.274 91.8114 166.274 107.016 137.425 107.016Z" stroke="#000000" stroke-width="2.24741" stroke-miterlimit="8" fill="none" transform="matrix(1.00443 0 0 1 370.941 141.793)"/><path d="M78.5562 118.322 107.406 118.322 107.406 133.526 78.5562 133.526Z" stroke="#000000" stroke-width="2.24741" stroke-miterlimit="8" fill="none" transform="matrix(1.00443 0 0 1 370.941 141.793)"/><path d="M107.406 112.084 110.525 107.016 113.643 112.084Z" stroke="#000000" stroke-width="2.24741" stroke-miterlimit="8" fill="none" fill-rule="evenodd" transform="matrix(1.00443 0 0 1 370.941 141.793)"/><path d="M110.512 112.084 110.512 115.232 92.981 115.232 92.981 118.381" stroke="#000000" stroke-width="2.24741" stroke-miterlimit="8" fill="none" fill-rule="evenodd" transform="matrix(1.00443 0 0 1 370.941 141.793)"/><path d="M113.643 118.322 142.493 118.322 142.493 133.526 113.643 133.526Z" stroke="#000000" stroke-width="2.24741" stroke-miterlimit="8" fill="none" transform="matrix(1.00443 0 0 1 370.941 141.793)"/><path d="M0 0 3.14835 0 3.14835 17.5316 6.29666 17.5316" stroke="#000000" stroke-width="2.24741" stroke-miterlimit="8" fill="none" fill-rule="evenodd" transform="matrix(1.8451e-16 1 1.00443 -1.83697e-16 481.955 253.877)"/><path d="M151.949 107.016 151.949 125.936 142.493 125.936" stroke="#000000" stroke-width="2.24741" stroke-miterlimit="8" fill="none" fill-rule="evenodd" transform="matrix(1.00443 0 0 1 370.941 141.793)"/><path d="M39.9604 91.8114 68.8098 91.8114 68.8098 107.016 39.9604 107.016Z" stroke="#000000" stroke-width="2.24741" stroke-miterlimit="8" fill="none" transform="matrix(1.00443 0 0 1 370.941 141.793)"/><path d="M68.8098 99.2187 95.8612 99.2187" stroke="#000000" stroke-width="2.24741" stroke-miterlimit="8" fill="none" fill-rule="evenodd" transform="matrix(1.00443 0 0 1 370.941 141.793)"/><path d="M39.9604 118.322 68.8098 118.322 68.8098 133.526 39.9604 133.526Z" stroke="#000000" stroke-width="2.24741" stroke-miterlimit="8" fill="none" transform="matrix(1.00443 0 0 1 370.941 141.793)"/><path d="M54.3851 118.371 54.3851 111.655 82.4228 111.655 82.4228 98.8288" stroke="#000000" stroke-width="2.24741" stroke-miterlimit="8" stroke-dasharray="0.259905 0.259905" fill="none" fill-rule="evenodd" transform="matrix(1.00443 0 0 1 370.941 141.793)"/><text fill="#FFFFFF" font-family="Yu Gothic,Yu Gothic_MSFontService,sans-serif" font-weight="400" font-size="11" transform="matrix(0.391584 0 0 0.389857 441.297 240)">0</text><text fill="#FFFFFF" font-family="Yu Gothic,Yu Gothic_MSFontService,sans-serif" font-weight="400" font-size="11" transform="matrix(0.391584 0 0 0.389857 443.646 240)">..</text><text fill="#FFFFFF" font-family="Yu Gothic,Yu Gothic_MSFontService,sans-serif" font-weight="400" font-size="11" transform="matrix(0.391584 0 0 0.389857 445.996 240)">1</text><text fill="#FFFFFF" font-family="Yu Gothic,Yu Gothic_MSFontService,sans-serif" font-weight="400" font-size="11" transform="matrix(0.391584 0 0 0.389857 463.267 240)">＊</text><text fill="#FFFFFF" font-family="Yu Gothic,Yu Gothic_MSFontService,sans-serif" font-weight="400" font-size="11" transform="matrix(0.391584 0 0 0.389857 515.173 272)">1</text><text fill="#FFFFFF" font-family="Yu Gothic,Yu Gothic_MSFontService,sans-serif" font-weight="400" font-size="11" transform="matrix(0.391584 0 0 0.389857 517.523 272)">..</text><text fill="#FFFFFF" font-family="Yu Gothic,Yu Gothic_MSFontService,sans-serif" font-weight="400" font-size="11" transform="matrix(0.391584 0 0 0.389857 519.742 272)">＊</text><text fill="#FFFFFF" font-family="Yu Gothic,Yu Gothic_MSFontService,sans-serif" font-weight="400" font-size="11" transform="matrix(0.391584 0 0 0.389857 525.264 254)">1</text><path d="M211.225 108.836 214.015 106.495 216.244 108.365 214.423 111.519C215.718 112.976 216.703 114.681 217.317 116.531L220.959 116.53 221.464 119.396 218.041 120.641C218.097 122.589 217.755 124.529 217.036 126.34L219.826 128.681 218.372 131.201 214.949 129.955C213.74 131.483 212.231 132.749 210.516 133.675L211.149 137.262 208.415 138.257 206.594 135.103C204.685 135.496 202.716 135.496 200.807 135.103L198.986 138.257 196.252 137.262 196.885 133.675C195.17 132.749 193.661 131.483 192.451 129.955L189.029 131.201 187.574 128.681 190.365 126.34C189.646 124.529 189.304 122.589 189.36 120.641L185.937 119.396 186.442 116.53 190.084 116.531C190.698 114.681 191.683 112.976 192.978 111.519L191.157 108.365 193.386 106.495 196.175 108.836C197.835 107.813 199.685 107.14 201.614 106.857L202.246 103.27 205.155 103.27 205.787 106.857C207.716 107.14 209.566 107.813 211.225 108.836Z" stroke="#000000" stroke-width="2.24741" stroke-miterlimit="8" fill="none" fill-rule="evenodd" transform="matrix(1.00443 0 0 1 370.941 141.793)"/><text fill="#FFFFFF" font-family="Bahnschrift SemiBold,Bahnschrift SemiBold_MSFontService,sans-serif" font-weight="600" font-size="11" transform="matrix(0.391584 0 0 0.389857 568.356 261)">Domain</text><text fill="#FFFFFF" font-family="Bahnschrift SemiBold,Bahnschrift SemiBold_MSFontService,sans-serif" font-weight="600" font-size="11" transform="matrix(0.391584 0 0 0.389857 567.521 266)">Analysis</text><path d="M184.592 101.156 188.435 99.9594 189.889 102.424 186.981 105.207C187.416 106.774 187.416 108.427 186.981 109.994L189.889 112.778 188.435 115.242 184.592 114.045C183.423 115.197 181.962 116.023 180.359 116.439L179.438 120.357 176.502 120.357 175.581 116.439C173.978 116.023 172.517 115.197 171.347 114.045L167.505 115.242 166.051 112.778 168.958 109.994C168.524 108.427 168.524 106.774 168.958 105.207L166.051 102.424 167.505 99.9594 171.347 101.156C172.517 100.004 173.978 99.1781 175.581 98.7629L176.502 94.8449 179.438 94.8449 180.359 98.7629C181.962 99.1781 183.423 100.004 184.592 101.156Z" stroke="#000000" stroke-width="2.24741" stroke-miterlimit="8" fill="none" fill-rule="evenodd" transform="matrix(1.00443 0 0 1 370.941 141.793)"/><text fill="#FFFFFF" font-family="Bahnschrift SemiBold,Bahnschrift SemiBold_MSFontService,sans-serif" font-weight="600" font-size="11" transform="matrix(0.391584 0 0 0.389857 543.869 251)">Model</text><path d="M196.672 81.3258 200.033 79.2439 202.002 81.2139 199.921 84.5745C200.723 85.9534 201.143 87.5206 201.138 89.1155L204.62 90.9857 203.9 93.6761 199.948 93.5537C199.155 94.9377 198.008 96.085 196.624 96.8784L196.746 100.83 194.056 101.55 192.186 98.0674C190.591 98.0721 189.023 97.6522 187.645 96.8507L184.284 98.9321 182.314 96.9626 184.396 93.6016C183.594 92.2227 183.174 90.6555 183.179 89.0606L179.696 87.1908 180.417 84.5 184.368 84.6224C185.162 83.2388 186.309 82.0911 187.692 81.2981L187.57 77.3469 190.261 76.6257 192.131 80.1087C193.726 80.104 195.293 80.5238 196.672 81.3258Z" stroke="#000000" stroke-width="2.24741" stroke-miterlimit="8" fill="none" fill-rule="evenodd" transform="matrix(1.00443 0 0 1 370.941 141.793)"/><text fill="#FFFFFF" font-family="Bahnschrift SemiBold,Bahnschrift SemiBold_MSFontService,sans-serif" font-weight="600" font-size="11" transform="matrix(0.391584 0 0 0.389857 558.006 230)">Digital</text><text fill="#FFFFFF" font-family="Bahnschrift SemiBold,Bahnschrift SemiBold_MSFontService,sans-serif" font-weight="600" font-size="11" transform="matrix(0.391584 0 0 0.389857 558.554 235)">Twins</text><path d="M204.963 99.4873C216.98 99.4315 226.767 109.04 226.823 120.95 226.848 126.084 225.023 131.058 221.676 134.978L222.696 135.988 219.692 135.532 219.12 132.447 220.14 133.457C227.06 125.214 225.921 112.978 217.595 106.126 214.051 103.209 209.582 101.622 204.973 101.643Z" stroke="#000000" stroke-width="2.24741" stroke-linejoin="round" stroke-miterlimit="10" fill="none" fill-rule="evenodd" transform="matrix(1.00443 0 0 1 370.941 141.793)"/><path d="M170.887 91.7116 171.722 93.7073C166.471 95.9037 163.229 101.226 163.684 106.899L165.084 106.592 162.889 108.891 160.153 107.672 161.554 107.365C160.886 100.663 164.673 94.3111 170.887 91.7116Z" stroke="#000000" stroke-width="2.24741" stroke-linejoin="round" stroke-miterlimit="10" fill="none" fill-rule="evenodd" transform="matrix(1.00443 0 0 1 370.941 141.793)"/><path d="M175.17 90.6765C174.789 86.0824 176.301 81.5332 179.349 78.1067L178.406 77.0416 181.312 77.6463 181.726 80.7905 180.784 79.7266C178.238 82.6926 176.984 86.5768 177.309 90.4944Z" stroke="#000000" stroke-width="2.24741" stroke-linejoin="round" stroke-miterlimit="10" fill="none" fill-rule="evenodd" transform="matrix(1.00443 0 0 1 370.941 141.793)"/></g></g></g></g><rect x="76.5001" y="440.5" width="475" height="231" stroke="#000000" stroke-width="1.33333" stroke-miterlimit="8" fill="#FFF2CC"/><text font-family="Yu Gothic,Yu Gothic_MSFontService,sans-serif" font-weight="700" font-size="19" transform="translate(220.049 461)">下位（現場）のモデル</text><g clip-path="url(#clip11)"><g clip-path="url(#clip12)"><g clip-path="url(#clip13)"><g clip-path="url(#clip14)"><path d="M59.1599 82.1429 135.486 82.1429 135.486 103.707 59.1599 103.707Z" stroke="#FF0000" stroke-width="0.851222" stroke-miterlimit="8" fill="#4472C4" transform="matrix(1 0 0 1.00036 49.5462 450.546)"/><text fill="#FFFFFF" font-family="Yu Gothic,Yu Gothic_MSFontService,sans-serif" font-weight="700" font-size="24" transform="matrix(0.283741 0 0 0.283843 133.171 546)">目指</text><text fill="#FFFFFF" font-family="Yu Gothic,Yu Gothic_MSFontService,sans-serif" font-weight="700" font-size="24" transform="matrix(0.283741 0 0 0.283843 146.79 546)">す</text><text fill="#FFFFFF" font-family="Yu Gothic,Yu Gothic_MSFontService,sans-serif" font-weight="700" font-size="24" transform="matrix(0.283741 0 0 0.283843 153.6 546)">姿</text><path d="M59.1599 138.04 135.486 138.04 135.486 159.604 59.1599 159.604Z" stroke="#FF0000" stroke-width="0.851222" stroke-miterlimit="8" fill="#ED7D31" transform="matrix(1 0 0 1.00036 49.5462 450.546)"/><text fill="#FFFFFF" font-family="Yu Gothic,Yu Gothic_MSFontService,sans-serif" font-weight="700" font-size="24" transform="matrix(0.283741 0 0 0.283843 133.171 602)">現在</text><text fill="#FFFFFF" font-family="Yu Gothic,Yu Gothic_MSFontService,sans-serif" font-weight="700" font-size="24" transform="matrix(0.283741 0 0 0.283843 146.79 602)">の</text><text fill="#FFFFFF" font-family="Yu Gothic,Yu Gothic_MSFontService,sans-serif" font-weight="700" font-size="24" transform="matrix(0.283741 0 0 0.283843 153.6 602)">姿</text><path d="M90.6552 113.213 97.8905 105.977 105.126 113.213 101.508 113.213 101.508 127.116 105.126 127.116 97.8905 134.351 90.6552 127.116 94.2729 127.116 94.2729 113.213Z" stroke="#2F528F" stroke-width="0.37832" stroke-miterlimit="8" fill="url(#fill15)" fill-rule="evenodd" transform="matrix(1 0 0 1.00036 49.5462 450.546)"/><text font-family="Yu Gothic,Yu Gothic_MSFontService,sans-serif" font-weight="400" font-size="24" transform="matrix(0.283741 0 0 0.283843 144.863 565)">G</text><text font-family="Yu Gothic,Yu Gothic_MSFontService,sans-serif" font-weight="400" font-size="24" transform="matrix(0.283741 0 0 0.283843 144.863 573)">A</text><text font-family="Yu Gothic,Yu Gothic_MSFontService,sans-serif" font-weight="400" font-size="24" transform="matrix(0.283741 0 0 0.283843 144.863 581)">P</text><path d="M112.219 120.164 117.611 114.773 117.611 117.469 126.641 117.469 126.641 109.382 197.342 109.382 197.342 130.946 126.641 130.946 126.641 122.86 117.611 122.86 117.611 125.555Z" stroke="#FF0000" stroke-width="0.37832" stroke-miterlimit="8" fill="#FFE699" fill-rule="evenodd" transform="matrix(1 0 0 1.00036 49.5462 450.546)"/><text font-family="Yu Gothic,Yu Gothic_MSFontService,sans-serif" font-weight="700" font-size="24" transform="matrix(0.283741 0 0 0.283843 204.595 573)">問題</text><path d="M220.041 109.382 290.976 109.382 290.976 126.675C255.508 126.675 255.508 133.264 220.041 129.521Z" stroke="#2F528F" stroke-width="0.37832" stroke-miterlimit="8" fill="#F4B183" fill-rule="evenodd" transform="matrix(1 0 0 1.00036 49.5462 450.546)"/><text font-family="Yu Gothic,Yu Gothic_MSFontService,sans-serif" font-weight="700" font-size="24" transform="matrix(0.283741 0 0 0.283843 298.034 571)">課題</text><path d="M0 1.84432 0.230542 1.84432 0.230542 5.53294 0 5.53294ZM0.461084 1.84432 0.922149 1.84432 0.922149 5.53294 0.461084 5.53294ZM1.15269 1.84432 14.187 1.84432 14.187 0 17.8757 3.68863 14.187 7.37726 14.187 5.53294 1.15269 5.53294Z" stroke="#2F528F" stroke-width="0.37832" stroke-miterlimit="8" fill="url(#fill16)" fill-rule="evenodd" transform="matrix(-1 0 0 1.00036 267.033 567.063)"/><path d="M93.6543 57.2558C92.8286 55.1416 97.0788 53.1949 103.147 52.9071 105.606 52.7908 108.106 52.965 110.247 53.402 112.516 51.9121 117.817 51.3457 122.089 52.1371 122.835 52.2755 123.521 52.4509 124.124 52.658 125.89 51.4229 130.194 50.9212 133.737 51.5372 134.717 51.7078 135.572 51.9543 136.236 52.2579 139.085 51.0901 144.117 50.9459 147.477 51.9359 148.889 52.3519 149.841 52.9259 150.169 53.5592 154.836 54.0027 157.588 55.683 156.318 57.3122 156.211 57.4493 156.077 57.5835 155.917 57.7137 159.659 59.4113 158.743 61.8444 153.871 63.1482 152.354 63.5542 150.562 63.817 148.669 63.9112 148.627 65.7376 144.34 67.2063 139.094 67.1915 137.341 67.1867 135.627 67.013 134.14 66.6898 132.365 68.7373 126.176 69.8947 120.316 69.2747 117.86 69.0151 115.738 68.4655 114.311 67.7201 108.311 68.9811 100.523 68.3029 96.9162 66.2049 96.8705 66.1785 96.8259 66.1522 96.782 66.1252 92.8553 66.2855 89.298 65.3092 88.8372 63.9447 88.5915 63.2171 89.2804 62.4893 90.7207 61.9545 87.3206 61.2571 86.1783 59.7263 88.1696 58.5351 89.3185 57.8482 91.3333 57.3939 93.5944 57.3122Z" fill="#DEEBF7" fill-rule="evenodd" transform="matrix(1 0 0 1.00036 49.5462 450.546)"/><path d="M97.8636 84.3666C97.8636 84.6452 97.638 84.8711 97.3594 84.8711 97.0807 84.8711 96.8549 84.6452 96.8549 84.3666 96.8549 84.088 97.0807 83.8624 97.3594 83.8624 97.638 83.8624 97.8636 84.088 97.8636 84.3666Z" fill="#DEEBF7" fill-rule="evenodd" transform="matrix(1 0 0 1.00036 49.5462 450.546)"/><path d="M103.499 79.4965C103.499 80.0535 103.047 80.5052 102.49 80.5052 101.933 80.5052 101.481 80.0535 101.481 79.4965 101.481 78.9392 101.933 78.4875 102.49 78.4875 103.047 78.4875 103.499 78.9392 103.499 79.4965Z" fill="#DEEBF7" fill-rule="evenodd" transform="matrix(1 0 0 1.00036 49.5462 450.546)"/><path d="M109.865 73.9318C109.865 74.7674 109.188 75.445 108.352 75.445 107.516 75.445 106.839 74.7674 106.839 73.9318 106.839 73.0959 107.516 72.4183 108.352 72.4183 109.188 72.4183 109.865 73.0959 109.865 73.9318Z" fill="#DEEBF7" fill-rule="evenodd" transform="matrix(1 0 0 1.00036 49.5462 450.546)"/><path d="M93.6543 57.2558C92.8286 55.1416 97.0788 53.1949 103.147 52.9071 105.606 52.7908 108.106 52.965 110.247 53.402 112.516 51.9121 117.817 51.3457 122.089 52.1371 122.835 52.2755 123.521 52.4509 124.124 52.658 125.89 51.4229 130.194 50.9212 133.737 51.5372 134.717 51.7078 135.572 51.9543 136.236 52.2579 139.085 51.0901 144.117 50.9459 147.477 51.9359 148.889 52.3519 149.841 52.9259 150.169 53.5592 154.836 54.0027 157.588 55.683 156.318 57.3122 156.211 57.4493 156.077 57.5835 155.917 57.7137 159.659 59.4113 158.743 61.8444 153.871 63.1482 152.354 63.5542 150.562 63.817 148.669 63.9112 148.627 65.7376 144.34 67.2063 139.094 67.1915 137.341 67.1867 135.627 67.013 134.14 66.6898 132.365 68.7373 126.176 69.8947 120.316 69.2747 117.86 69.0151 115.738 68.4655 114.311 67.7201 108.311 68.9811 100.523 68.3029 96.9162 66.2049 96.8705 66.1785 96.8259 66.1522 96.782 66.1252 92.8553 66.2855 89.298 65.3092 88.8372 63.9447 88.5915 63.2171 89.2804 62.4893 90.7207 61.9545 87.3206 61.2571 86.1783 59.7263 88.1696 58.5351 89.3185 57.8482 91.3333 57.3939 93.5944 57.3122Z" stroke="#FF0000" stroke-width="0.851222" stroke-miterlimit="8" fill="none" fill-rule="evenodd" transform="matrix(1 0 0 1.00036 49.5462 450.546)"/><path d="M97.8636 84.3666C97.8636 84.6452 97.638 84.8711 97.3594 84.8711 97.0807 84.8711 96.8549 84.6452 96.8549 84.3666 96.8549 84.088 97.0807 83.8624 97.3594 83.8624 97.638 83.8624 97.8636 84.088 97.8636 84.3666Z" stroke="#FF0000" stroke-width="0.851222" stroke-miterlimit="8" fill="none" fill-rule="evenodd" transform="matrix(1 0 0 1.00036 49.5462 450.546)"/><path d="M103.499 79.4965C103.499 80.0535 103.047 80.5052 102.49 80.5052 101.933 80.5052 101.481 80.0535 101.481 79.4965 101.481 78.9392 101.933 78.4875 102.49 78.4875 103.047 78.4875 103.499 78.9392 103.499 79.4965Z" stroke="#FF0000" stroke-width="0.851222" stroke-miterlimit="8" fill="none" fill-rule="evenodd" transform="matrix(1 0 0 1.00036 49.5462 450.546)"/><path d="M109.865 73.9318C109.865 74.7674 109.188 75.445 108.352 75.445 107.516 75.445 106.839 74.7674 106.839 73.9318 106.839 73.0959 107.516 72.4183 108.352 72.4183 109.188 72.4183 109.865 73.0959 109.865 73.9318Z" stroke="#FF0000" stroke-width="0.851222" stroke-miterlimit="8" fill="none" fill-rule="evenodd" transform="matrix(1 0 0 1.00036 49.5462 450.546)"/><path d="M94.9564 62.2189C93.5048 62.2584 92.0531 62.1415 90.7967 61.8839M98.6263 65.8852C98.0423 65.9663 97.4306 66.0202 96.8064 66.0455M114.307 67.6469C113.868 67.4174 113.501 67.1722 113.211 66.9154M134.585 65.823C134.52 66.0951 134.373 66.3641 134.147 66.6257M143.291 60.8641C146.582 61.4222 148.659 62.5892 148.63 63.8635M155.883 57.6694C155.35 58.1033 154.537 58.4883 153.506 58.7942M150.179 53.4962C150.27 53.6713 150.312 53.8492 150.305 54.0273M134.997 52.8765C135.307 52.6313 135.717 52.4032 136.215 52.1989M123.606 53.1994C123.733 52.9968 123.931 52.8005 124.196 52.6152M110.239 53.3977C111.013 53.5558 111.73 53.7462 112.373 53.9644M94.0268 57.8522C93.8577 57.6572 93.7332 57.4578 93.6543 57.2558" stroke="#FF0000" stroke-width="0.851222" stroke-miterlimit="8" fill="none" fill-rule="evenodd" transform="matrix(1 0 0 1.00036 49.5462 450.546)"/><text font-family="Yu Gothic,Yu Gothic_MSFontService,sans-serif" font-weight="700" font-size="24" transform="matrix(0.283741 0 0 0.283843 152.567 512)">本来</text><text font-family="Yu Gothic,Yu Gothic_MSFontService,sans-serif" font-weight="700" font-size="24" transform="matrix(0.283741 0 0 0.283843 166.187 512)">の</text><text font-family="Yu Gothic,Yu Gothic_MSFontService,sans-serif" font-weight="700" font-size="24" transform="matrix(0.283741 0 0 0.283843 172.996 512)">目的</text><path d="M103.068 62.3588 111.58 62.3588 120.093 62.3588 128.605 62.3588 137.117 62.3588 137.117 62.6426 128.605 62.6426 120.093 62.6426 111.58 62.6426 103.068 62.6426Z" fill-rule="evenodd" transform="matrix(1 0 0 1.00036 49.5462 450.546)"/><path d="M37.8794 39.8656 304.312 39.8656 304.312 169.251 37.8794 169.251Z" stroke="#2F528F" stroke-width="0.37832" stroke-miterlimit="8" fill="none" transform="matrix(1 0 0 1.00036 49.5462 450.546)"/></g></g></g></g><path d="M365.5 530.5 376.5 530.5 387.5 556 376.5 581.5 365.5 581.5Z" stroke="#2F528F" stroke-width="1.33333" stroke-miterlimit="8" fill="#E2F0D9" fill-rule="evenodd"/><g clip-path="url(#clip17)"><g clip-path="url(#clip18)"><g clip-path="url(#clip19)"><g clip-path="url(#clip20)"><path d="M18.5183 64.1315 246.975 64.1315 246.975 149.51 18.5183 149.51Z" stroke="#000000" stroke-width="2.24741" stroke-miterlimit="8" fill="none" transform="matrix(1.00443 0 0 1 370.941 443.793)"/><text fill="#FFFFFF" font-family="Bahnschrift SemiBold,Bahnschrift SemiBold_MSFontService,sans-serif" font-weight="600" font-size="16" transform="matrix(0.391584 0 0 0.389857 491.365 516)">Modeling</text><path d="M96.0998 91.8114 124.949 91.8114 124.949 107.016 96.0998 107.016Z" stroke="#000000" stroke-width="2.24741" stroke-miterlimit="8" fill="none" transform="matrix(1.00443 0 0 1 370.941 443.793)"/><path d="M137.425 91.8114 166.274 91.8114 166.274 107.016 137.425 107.016Z" stroke="#000000" stroke-width="2.24741" stroke-miterlimit="8" fill="none" transform="matrix(1.00443 0 0 1 370.941 443.793)"/><path d="M78.5562 118.322 107.406 118.322 107.406 133.526 78.5562 133.526Z" stroke="#000000" stroke-width="2.24741" stroke-miterlimit="8" fill="none" transform="matrix(1.00443 0 0 1 370.941 443.793)"/><path d="M107.406 112.084 110.525 107.016 113.643 112.084Z" stroke="#000000" stroke-width="2.24741" stroke-miterlimit="8" fill="none" fill-rule="evenodd" transform="matrix(1.00443 0 0 1 370.941 443.793)"/><path d="M110.512 112.084 110.512 115.232 92.981 115.232 92.981 118.381" stroke="#000000" stroke-width="2.24741" stroke-miterlimit="8" fill="none" fill-rule="evenodd" transform="matrix(1.00443 0 0 1 370.941 443.793)"/><path d="M113.643 118.322 142.493 118.322 142.493 133.526 113.643 133.526Z" stroke="#000000" stroke-width="2.24741" stroke-miterlimit="8" fill="none" transform="matrix(1.00443 0 0 1 370.941 443.793)"/><path d="M0 0 3.14835 0 3.14835 17.5316 6.29666 17.5316" stroke="#000000" stroke-width="2.24741" stroke-miterlimit="8" fill="none" fill-rule="evenodd" transform="matrix(1.8451e-16 1 1.00443 -1.83697e-16 481.955 555.877)"/><path d="M151.949 107.016 151.949 125.936 142.493 125.936" stroke="#000000" stroke-width="2.24741" stroke-miterlimit="8" fill="none" fill-rule="evenodd" transform="matrix(1.00443 0 0 1 370.941 443.793)"/><path d="M39.9604 91.8114 68.8098 91.8114 68.8098 107.016 39.9604 107.016Z" stroke="#000000" stroke-width="2.24741" stroke-miterlimit="8" fill="none" transform="matrix(1.00443 0 0 1 370.941 443.793)"/><path d="M68.8098 99.2187 95.8612 99.2187" stroke="#000000" stroke-width="2.24741" stroke-miterlimit="8" fill="none" fill-rule="evenodd" transform="matrix(1.00443 0 0 1 370.941 443.793)"/><path d="M39.9604 118.322 68.8098 118.322 68.8098 133.526 39.9604 133.526Z" stroke="#000000" stroke-width="2.24741" stroke-miterlimit="8" fill="none" transform="matrix(1.00443 0 0 1 370.941 443.793)"/><path d="M54.3851 118.371 54.3851 111.655 82.4228 111.655 82.4228 98.8288" stroke="#000000" stroke-width="2.24741" stroke-miterlimit="8" stroke-dasharray="0.259905 0.259905" fill="none" fill-rule="evenodd" transform="matrix(1.00443 0 0 1 370.941 443.793)"/><text fill="#FFFFFF" font-family="Yu Gothic,Yu Gothic_MSFontService,sans-serif" font-weight="400" font-size="11" transform="matrix(0.391584 0 0 0.389857 441.297 542)">0</text><text fill="#FFFFFF" font-family="Yu Gothic,Yu Gothic_MSFontService,sans-serif" font-weight="400" font-size="11" transform="matrix(0.391584 0 0 0.389857 443.646 542)">..</text><text fill="#FFFFFF" font-family="Yu Gothic,Yu Gothic_MSFontService,sans-serif" font-weight="400" font-size="11" transform="matrix(0.391584 0 0 0.389857 445.996 542)">1</text><text fill="#FFFFFF" font-family="Yu Gothic,Yu Gothic_MSFontService,sans-serif" font-weight="400" font-size="11" transform="matrix(0.391584 0 0 0.389857 463.267 542)">＊</text><text fill="#FFFFFF" font-family="Yu Gothic,Yu Gothic_MSFontService,sans-serif" font-weight="400" font-size="11" transform="matrix(0.391584 0 0 0.389857 515.173 574)">1</text><text fill="#FFFFFF" font-family="Yu Gothic,Yu Gothic_MSFontService,sans-serif" font-weight="400" font-size="11" transform="matrix(0.391584 0 0 0.389857 517.523 574)">..</text><text fill="#FFFFFF" font-family="Yu Gothic,Yu Gothic_MSFontService,sans-serif" font-weight="400" font-size="11" transform="matrix(0.391584 0 0 0.389857 519.742 574)">＊</text><text fill="#FFFFFF" font-family="Yu Gothic,Yu Gothic_MSFontService,sans-serif" font-weight="400" font-size="11" transform="matrix(0.391584 0 0 0.389857 525.264 556)">1</text><path d="M211.225 108.836 214.015 106.495 216.244 108.365 214.423 111.519C215.718 112.976 216.703 114.681 217.317 116.531L220.959 116.53 221.464 119.396 218.041 120.641C218.097 122.589 217.755 124.529 217.036 126.34L219.826 128.681 218.372 131.201 214.949 129.955C213.74 131.483 212.231 132.749 210.516 133.675L211.149 137.262 208.415 138.257 206.594 135.103C204.685 135.496 202.716 135.496 200.807 135.103L198.986 138.257 196.252 137.262 196.885 133.675C195.17 132.749 193.661 131.483 192.451 129.955L189.029 131.201 187.574 128.681 190.365 126.34C189.646 124.529 189.304 122.589 189.36 120.641L185.937 119.396 186.442 116.53 190.084 116.531C190.698 114.681 191.683 112.976 192.978 111.519L191.157 108.365 193.386 106.495 196.175 108.836C197.835 107.813 199.685 107.14 201.614 106.857L202.246 103.27 205.155 103.27 205.787 106.857C207.716 107.14 209.566 107.813 211.225 108.836Z" stroke="#000000" stroke-width="2.24741" stroke-miterlimit="8" fill="none" fill-rule="evenodd" transform="matrix(1.00443 0 0 1 370.941 443.793)"/><text fill="#FFFFFF" font-family="Bahnschrift SemiBold,Bahnschrift SemiBold_MSFontService,sans-serif" font-weight="600" font-size="11" transform="matrix(0.391584 0 0 0.389857 568.356 563)">Domain</text><text fill="#FFFFFF" font-family="Bahnschrift SemiBold,Bahnschrift SemiBold_MSFontService,sans-serif" font-weight="600" font-size="11" transform="matrix(0.391584 0 0 0.389857 567.521 568)">Analysis</text><path d="M184.592 101.156 188.435 99.9594 189.889 102.424 186.981 105.207C187.416 106.774 187.416 108.427 186.981 109.994L189.889 112.778 188.435 115.242 184.592 114.045C183.423 115.197 181.962 116.023 180.359 116.439L179.438 120.357 176.502 120.357 175.581 116.439C173.978 116.023 172.517 115.197 171.347 114.045L167.505 115.242 166.051 112.778 168.958 109.994C168.524 108.427 168.524 106.774 168.958 105.207L166.051 102.424 167.505 99.9594 171.347 101.156C172.517 100.004 173.978 99.1781 175.581 98.7629L176.502 94.8449 179.438 94.8449 180.359 98.7629C181.962 99.1781 183.423 100.004 184.592 101.156Z" stroke="#000000" stroke-width="2.24741" stroke-miterlimit="8" fill="none" fill-rule="evenodd" transform="matrix(1.00443 0 0 1 370.941 443.793)"/><text fill="#FFFFFF" font-family="Bahnschrift SemiBold,Bahnschrift SemiBold_MSFontService,sans-serif" font-weight="600" font-size="11" transform="matrix(0.391584 0 0 0.389857 543.869 553)">Model</text><path d="M196.672 81.3258 200.033 79.2439 202.002 81.2139 199.921 84.5745C200.723 85.9534 201.143 87.5206 201.138 89.1155L204.62 90.9857 203.9 93.6761 199.948 93.5537C199.155 94.9377 198.008 96.085 196.624 96.8784L196.746 100.83 194.056 101.55 192.186 98.0674C190.591 98.0721 189.023 97.6522 187.645 96.8507L184.284 98.9321 182.314 96.9626 184.396 93.6016C183.594 92.2227 183.174 90.6555 183.179 89.0606L179.696 87.1908 180.417 84.5 184.368 84.6224C185.162 83.2388 186.309 82.0911 187.692 81.2981L187.57 77.3469 190.261 76.6257 192.131 80.1087C193.726 80.104 195.293 80.5238 196.672 81.3258Z" stroke="#000000" stroke-width="2.24741" stroke-miterlimit="8" fill="none" fill-rule="evenodd" transform="matrix(1.00443 0 0 1 370.941 443.793)"/><text fill="#FFFFFF" font-family="Bahnschrift SemiBold,Bahnschrift SemiBold_MSFontService,sans-serif" font-weight="600" font-size="11" transform="matrix(0.391584 0 0 0.389857 558.006 532)">Digital</text><text fill="#FFFFFF" font-family="Bahnschrift SemiBold,Bahnschrift SemiBold_MSFontService,sans-serif" font-weight="600" font-size="11" transform="matrix(0.391584 0 0 0.389857 558.554 537)">Twins</text><path d="M204.963 99.4873C216.98 99.4315 226.767 109.04 226.823 120.95 226.848 126.084 225.023 131.058 221.676 134.978L222.696 135.988 219.692 135.532 219.12 132.447 220.14 133.457C227.06 125.214 225.921 112.978 217.595 106.126 214.051 103.209 209.582 101.622 204.973 101.643Z" stroke="#000000" stroke-width="2.24741" stroke-linejoin="round" stroke-miterlimit="10" fill="none" fill-rule="evenodd" transform="matrix(1.00443 0 0 1 370.941 443.793)"/><path d="M170.887 91.7116 171.722 93.7073C166.471 95.9037 163.229 101.226 163.684 106.899L165.084 106.592 162.889 108.891 160.153 107.672 161.554 107.365C160.886 100.663 164.673 94.3111 170.887 91.7116Z" stroke="#000000" stroke-width="2.24741" stroke-linejoin="round" stroke-miterlimit="10" fill="none" fill-rule="evenodd" transform="matrix(1.00443 0 0 1 370.941 443.793)"/><path d="M175.17 90.6765C174.789 86.0824 176.301 81.5332 179.349 78.1067L178.406 77.0416 181.312 77.6463 181.726 80.7905 180.784 79.7266C178.238 82.6926 176.984 86.5768 177.309 90.4944Z" stroke="#000000" stroke-width="2.24741" stroke-linejoin="round" stroke-miterlimit="10" fill="none" fill-rule="evenodd" transform="matrix(1.00443 0 0 1 370.941 443.793)"/></g></g></g></g><rect x="398.5" y="188.5" width="127" height="130" stroke="#2F528F" stroke-width="1.33333" stroke-miterlimit="8" fill="none"/><rect x="398.5" y="490.5" width="127" height="130" stroke="#2F528F" stroke-width="1.33333" stroke-miterlimit="8" fill="none"/><path d="M122.5 391 139 374.5 155.5 391 147.25 391 147.25 418 155.5 418 139 434.5 122.5 418 130.75 418 130.75 391Z" stroke="#2F528F" stroke-width="1.33333" stroke-miterlimit="8" fill="#A9D18E" fill-rule="evenodd"/><text font-family="Yu Gothic,Yu Gothic_MSFontService,sans-serif" font-weight="700" font-size="24" transform="translate(63.7437 411)">独立</text><text font-family="Yu Gothic,Yu Gothic_MSFontService,sans-serif" font-weight="700" font-size="24" transform="translate(204.775 411)">指標要求</text><path d="M322.25 374.5 322.25 375.531 305.75 375.531 305.75 374.5ZM322.25 376.563 322.25 378.625 305.75 378.625 305.75 376.563ZM322.25 379.656 322.25 418 330.5 418 314 434.5 297.5 418 305.75 418 305.75 379.656Z" stroke="#2F528F" stroke-width="1.33333" stroke-miterlimit="8" fill="#CC0033" fill-rule="evenodd"/><path d="M0 8.25 1.03123 8.25 1.03123 24.75 0 24.75ZM2.06253 8.25 4.125 8.25 4.125 24.75 2.06253 24.75ZM5.15623 8.25 43.5 8.25 43.5 0 60 16.5 43.5 33 43.5 24.75 5.15623 24.75Z" stroke="#2F528F" stroke-width="1.33333" stroke-miterlimit="8" fill="#8FAADC" fill-rule="evenodd" transform="matrix(-1.83697e-16 -1 -1 1.83697e-16 470.5 434.5)"/><text font-family="Yu Gothic,Yu Gothic_MSFontService,sans-serif" font-weight="700" font-size="24" transform="translate(474.6 411)">解決策</text><path d="M609 252 1260 252 1260 362 1238 384 609 384Z" fill="#FFF2CC" fill-rule="evenodd"/><path d="M1238 384 1242.4 366.399 1260 362Z" fill="#CDC3A4" fill-rule="evenodd"/><path d="M1234.12 383.03 1239.1 363.101 1273.04 354.617 1239.66 388 605 388 605 248 1264 248 1264 362 1261.33 362 1261.33 250.667 607.667 250.667 607.667 385.333 1238.55 385.333 1264.35 359.539 1241.3 365.3 1236.71 383.677ZM1239.29 384.323 1243.5 367.499 1255.65 364.46 1237.45 382.667 610.333 382.667 610.333 253.333 1258.67 253.333 1258.67 362 1256 362 1256 256 613 256 613 380 1236.34 380 1246.96 369.382 1245.7 369.698 1241.88 384.97Z" fill="#FF0000"/><text font-family="Arial,Arial_MSFontService,sans-serif" font-weight="400" font-size="24" transform="translate(618.534 279)">•</text><text font-family="Yu Gothic,Yu Gothic_MSFontService,sans-serif" font-weight="700" font-size="24" transform="translate(648.534 279)">“異なる主題・問題の領域”を“ドメイン”と呼ぶ</text><text font-family="Arial,Arial_MSFontService,sans-serif" font-weight="400" font-size="24" transform="translate(618.534 308)">•</text><text font-family="Yu Gothic,Yu Gothic_MSFontService,sans-serif" font-weight="700" font-size="24" transform="translate(648.534 308)">異なる“ドメイン”は、“ドメイン”毎に分けて考える</text><text font-family="Arial,Arial_MSFontService,sans-serif" font-weight="400" font-size="24" transform="translate(618.534 337)">•</text><text font-family="Yu Gothic,Yu Gothic_MSFontService,sans-serif" font-weight="700" font-size="24" transform="translate(648.534 337)">“ドメイン”毎に、主題・問題に適した表現形式は異なる</text><text font-family="Arial,Arial_MSFontService,sans-serif" font-weight="400" font-size="24" transform="translate(618.534 366)">•</text><text font-family="Yu Gothic,Yu Gothic_MSFontService,sans-serif" font-weight="700" font-size="24" transform="translate(648.534 366)">解決策は交換可能、かつ、要求元も交換可能</text><rect x="619.5" y="469.5" width="631" height="170" stroke="#5B9BD5" stroke-width="3" stroke-miterlimit="8" fill="#5B9BD5"/><path d="M601.712 469.5 601.712 639.5Z" stroke="#5B9BD5" stroke-width="3" stroke-miterlimit="8" fill="none" fill-rule="evenodd"/><path d="M601.712 527.38 575.557 451.047 584.315 359.119 625.255 326.222" stroke="#5B9BD5" stroke-width="3" stroke-miterlimit="8" fill="none" fill-rule="evenodd"/><text fill="#FFFFFF" font-family="Arial,Arial_MSFontService,sans-serif" font-weight="400" font-size="24" transform="translate(628.318 496)">•</text><text fill="#FFFFFF" font-family="Yu Gothic,Yu Gothic_MSFontService,sans-serif" font-weight="700" font-size="24" transform="translate(658.318 496)">ドメイン毎に、適したモデル図により、見える化する</text><text fill="#FFFFFF" font-family="Arial,Arial_MSFontService,sans-serif" font-weight="400" font-size="24" transform="translate(628.318 525)">•</text><text fill="#FFFFFF" font-family="Yu Gothic,Yu Gothic_MSFontService,sans-serif" font-weight="700" font-size="24" transform="translate(658.318 525)">複数“ドメイン”組合せによる、</text><text fill="#FFFFFF" font-family="Yu Gothic,Yu Gothic_MSFontService,sans-serif" font-weight="700" font-size="24" transform="translate(992.984 525)">IT</text><text fill="#FFFFFF" font-family="Yu Gothic,Yu Gothic_MSFontService,sans-serif" font-weight="700" font-size="24" transform="translate(1016.48 525)">ソリューション構築</text><text fill="#FFFFFF" font-family="Arial,Arial_MSFontService,sans-serif" font-weight="400" font-size="24" transform="translate(628.318 554)">•</text><text fill="#FFFFFF" font-family="Yu Gothic,Yu Gothic_MSFontService,sans-serif" font-weight="700" font-size="24" transform="translate(658.318 554)">上位のモデルの語彙と、下位のモデルの語彙は異なっ</text><text fill="#FFFFFF" font-family="Yu Gothic,Yu Gothic_MSFontService,sans-serif" font-weight="700" font-size="24" transform="translate(658.318 583)">ていて構わない。上位のモデルの語彙で定義された目</text><text fill="#FFFFFF" font-family="Yu Gothic,Yu Gothic_MSFontService,sans-serif" font-weight="700" font-size="24" transform="translate(658.318 611)">標値を、下位のモデルの語彙で解釈し、再定義する</text><path d="M87.5001 529.834C87.5001 525.783 90.7834 522.5 94.8336 522.5L199.167 522.5C203.217 522.5 206.5 525.783 206.5 529.834L206.5 559.167C206.5 563.217 203.217 566.5 199.167 566.5L94.8336 566.5C90.7834 566.5 87.5001 563.217 87.5001 559.167Z" stroke="#CC0033" stroke-width="3" stroke-miterlimit="8" fill="none" fill-rule="evenodd"/><path d="M1.20133-0.89823 82.7494 108.167 80.3467 109.964-1.20133 0.89823ZM81.548 109.065 83.9617 99.7689 86.9374 116.273 71.9485 108.751Z" fill="#FF0000" transform="matrix(-1 0 0 1 253.437 423.5)"/></g></svg>