<svg width="1071" height="503" xmlns="http://www.w3.org/2000/svg" xmlns:xlink="http://www.w3.org/1999/xlink" overflow="hidden"><defs><clipPath id="clip0"><rect x="206" y="181" width="1071" height="503"/></clipPath><linearGradient x1="345" y1="373.5" x2="345" y2="473.5" gradientUnits="userSpaceOnUse" spreadMethod="reflect" id="fill1"><stop offset="0" stop-color="#4472C4"/><stop offset="0.4" stop-color="#FFFFFF" stop-opacity="0.901961"/><stop offset="0.63" stop-color="#FFFFFF" stop-opacity="0.501961"/><stop offset="1" stop-color="#ED7D31"/></linearGradient><clipPath id="clip2"><rect x="639" y="501" width="120" height="69"/></clipPath><clipPath id="clip3"><rect x="639" y="501" width="120" height="69"/></clipPath><clipPath id="clip4"><rect x="622" y="486" width="232" height="87"/></clipPath><clipPath id="clip5"><rect x="622" y="486" width="232" height="87"/></clipPath><linearGradient x1="555" y1="510.5" x2="555" y2="561.498" gradientUnits="userSpaceOnUse" spreadMethod="reflect" id="fill6"><stop offset="0" stop-color="#B1CBE9"/><stop offset="0.5" stop-color="#A3C1E5"/><stop offset="1" stop-color="#92B9E4"/></linearGradient><linearGradient x1="0" y1="13" x2="63" y2="13" gradientUnits="userSpaceOnUse" spreadMethod="reflect" id="fill7"><stop offset="0" stop-color="#ED7D31"/><stop offset="0.4" stop-color="#FFFFFF" stop-opacity="0.901961"/><stop offset="0.63" stop-color="#FFFFFF" stop-opacity="0.501961"/><stop offset="1" stop-color="#FFC000"/></linearGradient><linearGradient x1="562.141" y1="400.996" x2="591.112" y2="442.822" gradientUnits="userSpaceOnUse" spreadMethod="reflect" id="fill8"><stop offset="0" stop-color="#B1CBE9" stop-opacity="0.501961"/><stop offset="0.5" stop-color="#A3C1E5" stop-opacity="0.501961"/><stop offset="1" stop-color="#92B9E4" stop-opacity="0.501961"/></linearGradient></defs><g clip-path="url(#clip0)" transform="translate(-206 -181)"><rect x="208.5" y="289.5" width="269" height="76" stroke="#FF0000" stroke-width="3" stroke-miterlimit="8" fill="#4472C4"/><text fill="#FFFFFF" font-family="Yu Gothic,Yu Gothic_MSFontService,sans-serif" font-weight="700" font-size="24" transform="translate(306.721 335)">目標値</text><rect x="208.5" y="486.5" width="269" height="76" stroke="#FF0000" stroke-width="3" stroke-miterlimit="8" fill="#ED7D31"/><text fill="#FFFFFF" font-family="Yu Gothic,Yu Gothic_MSFontService,sans-serif" font-weight="700" font-size="24" transform="translate(294.721 532)">現在の姿</text><path d="M319.5 399 345 373.5 370.5 399 357.75 399 357.75 448 370.5 448 345 473.5 319.5 448 332.25 448 332.25 399Z" stroke="#2F528F" stroke-width="1.33333" stroke-miterlimit="8" fill="url(#fill1)" fill-rule="evenodd"/><text font-family="Yu Gothic,Yu Gothic_MSFontService,sans-serif" font-weight="400" font-size="24" transform="translate(335.928 402)">G</text><text font-family="Yu Gothic,Yu Gothic_MSFontService,sans-serif" font-weight="400" font-size="24" transform="translate(335.928 431)">A</text><text font-family="Yu Gothic,Yu Gothic_MSFontService,sans-serif" font-weight="400" font-size="24" transform="translate(335.928 460)">P</text><g clip-path="url(#clip2)"><g clip-path="url(#clip3)"><g clip-path="url(#clip4)"><g clip-path="url(#clip5)"><path d="M18.5183 64.1315 246.975 64.1315 246.975 149.51 18.5183 149.51Z" stroke="#000000" stroke-width="2.24741" stroke-miterlimit="8" fill="none" transform="matrix(1.00443 0 0 1 604.941 422.793)"/><text fill="#FFFFFF" font-family="Bahnschrift SemiBold,Bahnschrift SemiBold_MSFontService,sans-serif" font-weight="600" font-size="16" transform="matrix(0.391584 0 0 0.389857 725.365 495)">Modeling</text><path d="M96.0998 91.8114 124.949 91.8114 124.949 107.016 96.0998 107.016Z" stroke="#000000" stroke-width="2.24741" stroke-miterlimit="8" fill="none" transform="matrix(1.00443 0 0 1 604.941 422.793)"/><path d="M137.425 91.8114 166.274 91.8114 166.274 107.016 137.425 107.016Z" stroke="#000000" stroke-width="2.24741" stroke-miterlimit="8" fill="none" transform="matrix(1.00443 0 0 1 604.941 422.793)"/><path d="M78.5562 118.322 107.406 118.322 107.406 133.526 78.5562 133.526Z" stroke="#000000" stroke-width="2.24741" stroke-miterlimit="8" fill="none" transform="matrix(1.00443 0 0 1 604.941 422.793)"/><path d="M107.406 112.084 110.525 107.016 113.643 112.084Z" stroke="#000000" stroke-width="2.24741" stroke-miterlimit="8" fill="none" fill-rule="evenodd" transform="matrix(1.00443 0 0 1 604.941 422.793)"/><path d="M110.512 112.084 110.512 115.232 92.981 115.232 92.981 118.381" stroke="#000000" stroke-width="2.24741" stroke-miterlimit="8" fill="none" fill-rule="evenodd" transform="matrix(1.00443 0 0 1 604.941 422.793)"/><path d="M113.643 118.322 142.493 118.322 142.493 133.526 113.643 133.526Z" stroke="#000000" stroke-width="2.24741" stroke-miterlimit="8" fill="none" transform="matrix(1.00443 0 0 1 604.941 422.793)"/><path d="M0 0 3.14835 0 3.14835 17.5316 6.29666 17.5316" stroke="#000000" stroke-width="2.24741" stroke-miterlimit="8" fill="none" fill-rule="evenodd" transform="matrix(1.8451e-16 1 1.00443 -1.83697e-16 715.955 534.877)"/><path d="M151.949 107.016 151.949 125.936 142.493 125.936" stroke="#000000" stroke-width="2.24741" stroke-miterlimit="8" fill="none" fill-rule="evenodd" transform="matrix(1.00443 0 0 1 604.941 422.793)"/><path d="M39.9604 91.8114 68.8098 91.8114 68.8098 107.016 39.9604 107.016Z" stroke="#000000" stroke-width="2.24741" stroke-miterlimit="8" fill="none" transform="matrix(1.00443 0 0 1 604.941 422.793)"/><path d="M68.8098 99.2187 95.8612 99.2187" stroke="#000000" stroke-width="2.24741" stroke-miterlimit="8" fill="none" fill-rule="evenodd" transform="matrix(1.00443 0 0 1 604.941 422.793)"/><path d="M39.9604 118.322 68.8098 118.322 68.8098 133.526 39.9604 133.526Z" stroke="#000000" stroke-width="2.24741" stroke-miterlimit="8" fill="none" transform="matrix(1.00443 0 0 1 604.941 422.793)"/><path d="M54.3851 118.371 54.3851 111.655 82.4228 111.655 82.4228 98.8288" stroke="#000000" stroke-width="2.24741" stroke-miterlimit="8" stroke-dasharray="0.259905 0.259905" fill="none" fill-rule="evenodd" transform="matrix(1.00443 0 0 1 604.941 422.793)"/><text fill="#FFFFFF" font-family="Yu Gothic,Yu Gothic_MSFontService,sans-serif" font-weight="400" font-size="11" transform="matrix(0.391584 0 0 0.389857 675.297 521)">0</text><text fill="#FFFFFF" font-family="Yu Gothic,Yu Gothic_MSFontService,sans-serif" font-weight="400" font-size="11" transform="matrix(0.391584 0 0 0.389857 677.646 521)">..</text><text fill="#FFFFFF" font-family="Yu Gothic,Yu Gothic_MSFontService,sans-serif" font-weight="400" font-size="11" transform="matrix(0.391584 0 0 0.389857 679.996 521)">1</text><text fill="#FFFFFF" font-family="Yu Gothic,Yu Gothic_MSFontService,sans-serif" font-weight="400" font-size="11" transform="matrix(0.391584 0 0 0.389857 697.267 521)">＊</text><text fill="#FFFFFF" font-family="Yu Gothic,Yu Gothic_MSFontService,sans-serif" font-weight="400" font-size="11" transform="matrix(0.391584 0 0 0.389857 749.173 553)">1</text><text fill="#FFFFFF" font-family="Yu Gothic,Yu Gothic_MSFontService,sans-serif" font-weight="400" font-size="11" transform="matrix(0.391584 0 0 0.389857 751.523 553)">..</text><text fill="#FFFFFF" font-family="Yu Gothic,Yu Gothic_MSFontService,sans-serif" font-weight="400" font-size="11" transform="matrix(0.391584 0 0 0.389857 753.742 553)">＊</text><text fill="#FFFFFF" font-family="Yu Gothic,Yu Gothic_MSFontService,sans-serif" font-weight="400" font-size="11" transform="matrix(0.391584 0 0 0.389857 759.264 535)">1</text><path d="M211.225 108.836 214.015 106.495 216.244 108.365 214.423 111.519C215.718 112.976 216.703 114.681 217.317 116.531L220.959 116.53 221.464 119.396 218.041 120.641C218.097 122.589 217.755 124.529 217.036 126.34L219.826 128.681 218.372 131.201 214.949 129.955C213.74 131.483 212.231 132.749 210.516 133.675L211.149 137.262 208.415 138.257 206.594 135.103C204.685 135.496 202.716 135.496 200.807 135.103L198.986 138.257 196.252 137.262 196.885 133.675C195.17 132.749 193.661 131.483 192.451 129.955L189.029 131.201 187.574 128.681 190.365 126.34C189.646 124.529 189.304 122.589 189.36 120.641L185.937 119.396 186.442 116.53 190.084 116.531C190.698 114.681 191.683 112.976 192.978 111.519L191.157 108.365 193.386 106.495 196.175 108.836C197.835 107.813 199.685 107.14 201.614 106.857L202.246 103.27 205.155 103.27 205.787 106.857C207.716 107.14 209.566 107.813 211.225 108.836Z" stroke="#000000" stroke-width="2.24741" stroke-miterlimit="8" fill="none" fill-rule="evenodd" transform="matrix(1.00443 0 0 1 604.941 422.793)"/><text fill="#FFFFFF" font-family="Bahnschrift SemiBold,Bahnschrift SemiBold_MSFontService,sans-serif" font-weight="600" font-size="11" transform="matrix(0.391584 0 0 0.389857 802.356 542)">Domain</text><text fill="#FFFFFF" font-family="Bahnschrift SemiBold,Bahnschrift SemiBold_MSFontService,sans-serif" font-weight="600" font-size="11" transform="matrix(0.391584 0 0 0.389857 801.521 547)">Analysis</text><path d="M184.592 101.156 188.435 99.9594 189.889 102.424 186.981 105.207C187.416 106.774 187.416 108.427 186.981 109.994L189.889 112.778 188.435 115.242 184.592 114.045C183.423 115.197 181.962 116.023 180.359 116.439L179.438 120.357 176.502 120.357 175.581 116.439C173.978 116.023 172.517 115.197 171.347 114.045L167.505 115.242 166.051 112.778 168.958 109.994C168.524 108.427 168.524 106.774 168.958 105.207L166.051 102.424 167.505 99.9594 171.347 101.156C172.517 100.004 173.978 99.1781 175.581 98.7629L176.502 94.8449 179.438 94.8449 180.359 98.7629C181.962 99.1781 183.423 100.004 184.592 101.156Z" stroke="#000000" stroke-width="2.24741" stroke-miterlimit="8" fill="none" fill-rule="evenodd" transform="matrix(1.00443 0 0 1 604.941 422.793)"/><text fill="#FFFFFF" font-family="Bahnschrift SemiBold,Bahnschrift SemiBold_MSFontService,sans-serif" font-weight="600" font-size="11" transform="matrix(0.391584 0 0 0.389857 777.869 532)">Model</text><path d="M196.672 81.3258 200.033 79.2439 202.002 81.2139 199.921 84.5745C200.723 85.9534 201.143 87.5206 201.138 89.1155L204.62 90.9857 203.9 93.6761 199.948 93.5537C199.155 94.9377 198.008 96.085 196.624 96.8784L196.746 100.83 194.056 101.55 192.186 98.0674C190.591 98.0721 189.023 97.6522 187.645 96.8507L184.284 98.9321 182.314 96.9626 184.396 93.6016C183.594 92.2227 183.174 90.6555 183.179 89.0606L179.696 87.1908 180.417 84.5 184.368 84.6224C185.162 83.2388 186.309 82.0911 187.692 81.2981L187.57 77.3469 190.261 76.6257 192.131 80.1087C193.726 80.104 195.293 80.5238 196.672 81.3258Z" stroke="#000000" stroke-width="2.24741" stroke-miterlimit="8" fill="none" fill-rule="evenodd" transform="matrix(1.00443 0 0 1 604.941 422.793)"/><text fill="#FFFFFF" font-family="Bahnschrift SemiBold,Bahnschrift SemiBold_MSFontService,sans-serif" font-weight="600" font-size="11" transform="matrix(0.391584 0 0 0.389857 792.006 511)">Digital</text><text fill="#FFFFFF" font-family="Bahnschrift SemiBold,Bahnschrift SemiBold_MSFontService,sans-serif" font-weight="600" font-size="11" transform="matrix(0.391584 0 0 0.389857 792.554 516)">Twins</text><path d="M204.963 99.4873C216.98 99.4315 226.767 109.04 226.823 120.95 226.848 126.084 225.023 131.058 221.676 134.978L222.696 135.988 219.692 135.532 219.12 132.447 220.14 133.457C227.06 125.214 225.921 112.978 217.595 106.126 214.051 103.209 209.582 101.622 204.973 101.643Z" stroke="#000000" stroke-width="2.24741" stroke-linejoin="round" stroke-miterlimit="10" fill="none" fill-rule="evenodd" transform="matrix(1.00443 0 0 1 604.941 422.793)"/><path d="M170.887 91.7116 171.722 93.7073C166.471 95.9037 163.229 101.226 163.684 106.899L165.084 106.592 162.889 108.891 160.153 107.672 161.554 107.365C160.886 100.663 164.673 94.3111 170.887 91.7116Z" stroke="#000000" stroke-width="2.24741" stroke-linejoin="round" stroke-miterlimit="10" fill="none" fill-rule="evenodd" transform="matrix(1.00443 0 0 1 604.941 422.793)"/><path d="M175.17 90.6765C174.789 86.0824 176.301 81.5332 179.349 78.1067L178.406 77.0416 181.312 77.6463 181.726 80.7905 180.784 79.7266C178.238 82.6926 176.984 86.5768 177.309 90.4944Z" stroke="#000000" stroke-width="2.24741" stroke-linejoin="round" stroke-miterlimit="10" fill="none" fill-rule="evenodd" transform="matrix(1.00443 0 0 1 604.941 422.793)"/></g></g></g></g><rect x="632.5" y="469.5" width="127" height="130" stroke="#2F528F" stroke-width="1.33333" stroke-miterlimit="8" fill="none"/><text font-family="Yu Gothic,Yu Gothic_MSFontService,sans-serif" font-weight="400" font-size="24" transform="translate(667.099 496)">As</text><text font-family="Yu Gothic,Yu Gothic_MSFontService,sans-serif" font-weight="400" font-size="24" transform="translate(694.766 496)">-</text><text font-family="Yu Gothic,Yu Gothic_MSFontService,sans-serif" font-weight="400" font-size="24" transform="translate(705.266 496)">Is</text><path d="M503.5 523.25 505.094 523.25 505.094 548.749 503.5 548.749ZM506.688 523.25 509.875 523.25 509.875 548.749 506.688 548.749ZM511.469 523.25 581.001 523.25 581.001 510.5 606.5 535.999 581.001 561.498 581.001 548.749 511.469 548.749Z" stroke="#5B9BD5" stroke-width="0.666667" stroke-miterlimit="8" fill="url(#fill6)" fill-rule="evenodd"/><path d="M395.5 423.5 414.5 404.5 414.5 414 446.326 414 446.326 385.5 695.5 385.5 695.5 461.5 446.326 461.5 446.326 433 414.5 433 414.5 442.5Z" stroke="#FF0000" stroke-width="1.33333" stroke-miterlimit="8" fill="#FFE699" fill-rule="evenodd"/><text font-family="Yu Gothic,Yu Gothic_MSFontService,sans-serif" font-weight="700" font-size="24" transform="translate(546.444 430)">問題</text><path d="M775.5 385.5 1025.5 385.5 1025.5 446.448C900.5 446.448 900.5 469.67 775.5 456.476Z" stroke="#2F528F" stroke-width="1.33333" stroke-miterlimit="8" fill="#F4B183" fill-rule="evenodd"/><text font-family="Yu Gothic,Yu Gothic_MSFontService,sans-serif" font-weight="700" font-size="24" transform="translate(803.755 423)">課題解決の具体策</text><path d="M0 6.50002 0.81251 6.50002 0.81251 19.5 0 19.5ZM1.62502 6.50002 3.24997 6.50002 3.24997 19.5 1.62502 19.5ZM4.06248 6.50002 50 6.50002 50 0 63 13 50 26 50 19.5 4.06248 19.5Z" stroke="#2F528F" stroke-width="1.33333" stroke-miterlimit="8" fill="url(#fill7)" fill-rule="evenodd" transform="matrix(-1 0 0 1 766.5 410.5)"/><rect x="561.5" y="289.5" width="269" height="76" stroke="#FF0000" stroke-width="3" stroke-miterlimit="8" fill="#5B9BD5"/><text fill="#FFFFFF" font-family="Yu Gothic,Yu Gothic_MSFontService,sans-serif" font-weight="700" font-size="24" transform="translate(635.766 335)">あるべき姿</text><text fill="#FFFFFF" font-family="Bahnschrift SemiBold,Bahnschrift SemiBold_MSFontService,sans-serif" font-weight="600" font-size="21" transform="translate(912.555 240)">Modeling</text><path d="M889.495 245.483 918.495 245.483 918.495 260.483 889.495 260.483Z" stroke="#000000" stroke-width="1.16672" stroke-miterlimit="8" fill="none" fill-rule="evenodd"/><path d="M930.495 245.483 959.495 245.483 959.495 260.483 930.495 260.483Z" stroke="#000000" stroke-width="1.16672" stroke-miterlimit="8" fill="none" fill-rule="evenodd"/><path d="M871.495 271.482 900.495 271.482 900.495 287.482 871.495 287.482Z" stroke="#000000" stroke-width="1.16672" stroke-miterlimit="8" fill="none" fill-rule="evenodd"/><path d="M900.495 265.483 903.495 260.483 906.495 265.483Z" stroke="#000000" stroke-width="1.16672" stroke-miterlimit="8" fill="none" fill-rule="evenodd"/><path d="M903.495 265.484 903.495 268.484 886.495 268.484 886.495 271.484" stroke="#000000" stroke-width="1.16672" stroke-miterlimit="8" fill="none" fill-rule="evenodd"/><path d="M906.495 271.482 935.495 271.482 935.495 287.482 906.495 287.482Z" stroke="#000000" stroke-width="1.16672" stroke-miterlimit="8" fill="none" fill-rule="evenodd"/><path d="M0.0250992 0.011785 3.02515 0.011785 3.02515 18.0118 6.0251 18.0118" stroke="#000000" stroke-width="1.16672" stroke-miterlimit="8" fill="none" fill-rule="evenodd" transform="matrix(6.12323e-17 1 1 -6.12323e-17 903.5 265.5)"/><path d="M945.495 260.483 945.495 279.483 935.495 279.483" stroke="#000000" stroke-width="1.16672" stroke-miterlimit="8" fill="none" fill-rule="evenodd"/><path d="M832.495 245.483 861.495 245.483 861.495 260.483 832.495 260.483Z" stroke="#000000" stroke-width="1.16672" stroke-miterlimit="8" fill="none" fill-rule="evenodd"/><path d="M861.495 252.456 888.495 252.456" stroke="#000000" stroke-width="1.16672" stroke-miterlimit="8" fill="none" fill-rule="evenodd"/><path d="M832.495 271.482 861.495 271.482 861.495 287.482 832.495 287.482Z" stroke="#000000" stroke-width="1.16672" stroke-miterlimit="8" fill="none" fill-rule="evenodd"/><path d="M847.495 271.484 847.495 264.954 875.495 264.954 875.495 252.484" stroke="#000000" stroke-width="1.16672" stroke-miterlimit="8" stroke-dasharray="0.58336 0.58336" fill="none" fill-rule="evenodd"/><text fill="#FFFFFF" font-family="Yu Gothic,Yu Gothic_MSFontService,sans-serif" font-weight="400" font-size="15" transform="translate(862.487 260)">0..1</text><text fill="#FFFFFF" font-family="Yu Gothic,Yu Gothic_MSFontService,sans-serif" font-weight="400" font-size="15" transform="translate(884.457 260)">＊</text><rect x="803.5" y="185.5" width="175" height="130" stroke="#2F528F" stroke-width="1.33333" stroke-miterlimit="8" fill="none"/><text font-family="Yu Gothic,Yu Gothic_MSFontService,sans-serif" font-weight="400" font-size="24" transform="translate(856.222 211)">To</text><text font-family="Yu Gothic,Yu Gothic_MSFontService,sans-serif" font-weight="400" font-size="24" transform="translate(884.889 211)">-</text><text font-family="Yu Gothic,Yu Gothic_MSFontService,sans-serif" font-weight="400" font-size="24" transform="translate(895.389 211)">Be</text><path d="M843.495 297.483 872.495 297.483 872.495 312.483 843.495 312.483Z" stroke="#000000" stroke-width="1.16672" stroke-miterlimit="8" fill="none" fill-rule="evenodd"/><path d="M888.493 287.486 888.493 303.486 874.493 303.486" stroke="#000000" stroke-width="1.16672" stroke-miterlimit="8" fill="none" fill-rule="evenodd"/><path d="M451.745 492.938 453.052 492.033 467.538 512.946 466.231 513.851ZM454.36 491.127 456.974 489.317 471.46 510.229 468.845 512.04ZM458.281 488.411 666.109 344.453 658.866 333.997 694.265 340.424 687.838 375.823 680.595 365.366 472.767 509.324Z" stroke="#5B9BD5" stroke-width="0.666667" stroke-miterlimit="8" stroke-opacity="0.501961" fill="url(#fill8)" fill-rule="evenodd"/><path d="M0 151 0 76.3962C-1.42591e-14 39.9109 29.5771 10.3338 66.0624 10.3338L204.399 10.3338 204.399 0 224 22.2695 204.399 44.5389 204.399 34.2053 66.0624 34.2053C42.761 34.2053 23.8715 53.0948 23.8715 76.3962L23.8715 151Z" stroke="#41719C" stroke-width="1.33333" stroke-miterlimit="8" stroke-opacity="0.501961" fill="#5B9BD5" fill-rule="evenodd" fill-opacity="0.501961" transform="matrix(-6.12323e-17 -1 -1 6.12323e-17 935.5 544.5)"/><rect x="843.5" y="578.5" width="432" height="101" stroke="#5B9BD5" stroke-width="3" stroke-miterlimit="8" fill="#5B9BD5"/><path d="M831.322 578.5 831.322 679.5Z" stroke="#5B9BD5" stroke-width="3" stroke-miterlimit="8" fill="none" fill-rule="evenodd"/><path d="M831.322 612.888 806.677 602.612 801.95 559.281 841.82 530.396" stroke="#5B9BD5" stroke-width="3" stroke-miterlimit="8" fill="none" fill-rule="evenodd"/><text fill="#FFFFFF" font-family="Arial,Arial_MSFontService,sans-serif" font-weight="400" font-size="24" transform="translate(852.842 605)">•</text><text fill="#FFFFFF" font-family="Yu Gothic,Yu Gothic_MSFontService,sans-serif" font-weight="700" font-size="24" transform="translate(882.842 605)">パラメータ調整</text><text fill="#FFFFFF" font-family="Arial,Arial_MSFontService,sans-serif" font-weight="400" font-size="24" transform="translate(852.842 634)">•</text><text fill="#FFFFFF" font-family="Yu Gothic,Yu Gothic_MSFontService,sans-serif" font-weight="700" font-size="24" transform="translate(882.842 634)">冗長プロセスの整理・統合・排除</text><text fill="#FFFFFF" font-family="Arial,Arial_MSFontService,sans-serif" font-weight="400" font-size="24" transform="translate(852.842 663)">•</text><text fill="#FFFFFF" font-family="Yu Gothic,Yu Gothic_MSFontService,sans-serif" font-weight="700" font-size="24" transform="translate(882.842 663)">IT</text><text fill="#FFFFFF" font-family="Yu Gothic,Yu Gothic_MSFontService,sans-serif" font-weight="700" font-size="24" transform="translate(913.175 663)">活用によるプロセスの置き換え</text></g></svg>