<svg width="607" height="323" xmlns="http://www.w3.org/2000/svg" xmlns:xlink="http://www.w3.org/1999/xlink" overflow="hidden"><defs><clipPath id="clip0"><rect x="64" y="67" width="607" height="323"/></clipPath><clipPath id="clip1"><rect x="83" y="162" width="187" height="153"/></clipPath><clipPath id="clip2"><rect x="83" y="162" width="187" height="153"/></clipPath><clipPath id="clip3"><rect x="83" y="162" width="187" height="153"/></clipPath><clipPath id="clip4"><rect x="83" y="162" width="187" height="153"/></clipPath><clipPath id="clip5"><rect x="204" y="247" width="7" height="7"/></clipPath><clipPath id="clip6"><rect x="204" y="247" width="7" height="7"/></clipPath><clipPath id="clip7"><rect x="204" y="247" width="7" height="7"/></clipPath><clipPath id="clip8"><rect x="256" y="268" width="9" height="9"/></clipPath><clipPath id="clip9"><rect x="256" y="268" width="9" height="9"/></clipPath><clipPath id="clip10"><rect x="256" y="268" width="9" height="9"/></clipPath><linearGradient x1="82.4384" y1="95.887" x2="82.4384" y2="97.6336" gradientUnits="userSpaceOnUse" spreadMethod="reflect" id="fill11"><stop offset="0" stop-color="#FFDD9C"/><stop offset="0.5" stop-color="#FFD78E"/><stop offset="1" stop-color="#FFD479"/></linearGradient><clipPath id="clip12"><rect x="134" y="169" width="10" height="10"/></clipPath><clipPath id="clip13"><rect x="134" y="169" width="10" height="10"/></clipPath><clipPath id="clip14"><rect x="134" y="169" width="10" height="10"/></clipPath><clipPath id="clip15"><rect x="577" y="124" width="30" height="30"/></clipPath><clipPath id="clip16"><rect x="577" y="124" width="30" height="30"/></clipPath><clipPath id="clip17"><rect x="577" y="124" width="30" height="30"/></clipPath><clipPath id="clip18"><rect x="375" y="315" width="34" height="33"/></clipPath><clipPath id="clip19"><rect x="375" y="315" width="34" height="33"/></clipPath><clipPath id="clip20"><rect x="375" y="315" width="34" height="33"/></clipPath></defs><g clip-path="url(#clip0)" transform="translate(-64 -67)"><path d="M302.5 183.076C302.5 176.683 307.683 171.5 314.076 171.5L516.924 171.5C523.317 171.5 528.5 176.683 528.5 183.076L528.5 272.924C528.5 279.317 523.317 284.5 516.924 284.5L314.076 284.5C307.683 284.5 302.5 279.317 302.5 272.924Z" stroke="#5B9BD5" stroke-width="1.33333" stroke-miterlimit="8" fill="#F2F2F2" fill-rule="evenodd" fill-opacity="0.501961"/><rect x="81.5001" y="141.5" width="208" height="181" stroke="#5B9BD5" stroke-width="1.33333" stroke-miterlimit="8" fill="#F2F2F2"/><text font-family="Yu Gothic,Yu Gothic_MSFontService,sans-serif" font-weight="400" font-size="13" transform="translate(151.485 158)">概念モデル</text><rect x="65.5001" y="68.5001" width="605" height="318" stroke="#D9D9D9" stroke-width="1.33333" stroke-miterlimit="8" fill="none"/><rect x="309.5" y="120.5" width="209" height="38" stroke="#000000" stroke-width="1.33333" stroke-miterlimit="8" fill="#FFFFFF"/><text font-family="Calibri,Calibri_MSFontService,sans-serif" font-weight="400" font-size="13" transform="translate(400.315 143)">View</text><rect x="309.5" y="182.5" width="209" height="38" stroke="#000000" stroke-width="1.33333" stroke-miterlimit="8" fill="#FFFFFF"/><text font-family="Calibri,Calibri_MSFontService,sans-serif" font-weight="400" font-size="13" transform="translate(375.062 197)">Business Logic<tspan font-size="13" x="-8.41333" y="16">(Behavior Model)</tspan></text><rect x="309.5" y="236.5" width="209" height="38" stroke="#000000" stroke-width="1.33333" stroke-miterlimit="8" fill="#FFFFFF"/><text font-family="Calibri,Calibri_MSFontService,sans-serif" font-weight="400" font-size="13" transform="translate(328.065 259)">Conceptual Instance Repository</text><g clip-path="url(#clip1)"><g clip-path="url(#clip2)"><g clip-path="url(#clip3)"><g clip-path="url(#clip4)"><path d="M53.6199 24.2774 97.6336 24.2774 97.6336 54.6678 53.6199 54.6678Z" stroke="#000000" stroke-width="0.465752" stroke-miterlimit="8" fill="#FFFFFF" transform="matrix(1.00627 0 0 1 48.9041 138.247)"/><text font-family="Yu Gothic,Yu Gothic_MSFontService,sans-serif" font-weight="400" font-size="13" transform="matrix(0.351504 0 0 0.349315 120.172 168)">工場<tspan font-family="Consolas,Consolas_MSFontService,sans-serif" font-size="12" x="-40.2467" y="17.1765">*</tspan><tspan font-size="12" x="-33.58" y="17.1765">工場</tspan><tspan font-family="Consolas,Consolas_MSFontService,sans-serif" font-size="12" x="-9.58001" y="17.1765">ID</tspan><tspan font-size="12" x="-28.2467" y="28.6275">工場名</tspan><tspan font-size="12" x="-28.2467" y="45.8039">所在地</tspan><tspan font-size="12" x="-28.2467" y="60.1176">消費電力</tspan><tspan font-family="Consolas,Consolas_MSFontService,sans-serif" font-size="12" x="19.7533" y="60.1176">(</tspan><tspan font-family="Consolas,Consolas_MSFontService,sans-serif" font-size="12" x="26.7533" y="60.1176">M</tspan><tspan font-family="Consolas,Consolas_MSFontService,sans-serif" font-size="12" x="33.7533" y="60.1176">)</tspan></text><path d="M53.6199 71.7842 97.6336 71.7842 97.6336 102.175 53.6199 102.175Z" stroke="#000000" stroke-width="0.465752" stroke-miterlimit="8" fill="#FFFFFF" transform="matrix(1.00627 0 0 1 48.9041 138.247)"/><text font-family="Yu Gothic,Yu Gothic_MSFontService,sans-serif" font-weight="400" font-size="13" transform="matrix(0.351504 0 0 0.349315 113.142 216)">生産<tspan font-size="13" x="26" y="0">ライン</tspan><tspan font-family="Consolas,Consolas_MSFontService,sans-serif" font-size="12" x="-20.2467" y="14.3137">*</tspan><tspan font-size="12" x="-13.58" y="14.3137">生産</tspan><tspan font-size="12" x="10.42" y="14.3137">ライン</tspan><tspan font-family="Consolas,Consolas_MSFontService,sans-serif" font-size="12" x="46.42" y="14.3137">ID</tspan><tspan font-size="12" x="-8.24667" y="28.6275">消費電力</tspan><tspan font-family="Consolas,Consolas_MSFontService,sans-serif" font-size="12" x="39.7533" y="28.6275">(</tspan><tspan font-family="Consolas,Consolas_MSFontService,sans-serif" font-size="12" x="46.7533" y="28.6275">M</tspan><tspan font-family="Consolas,Consolas_MSFontService,sans-serif" font-size="12" x="53.7533" y="28.6275">)</tspan><tspan font-size="12" x="-8.24667" y="42.9412">稼働状態</tspan></text><path d="M75.6267 54.6678 75.6267 71.7413" stroke="#000000" stroke-width="0.232877" stroke-miterlimit="8" fill="none" fill-rule="evenodd" transform="matrix(1.00627 0 0 1 48.9041 138.247)"/><text font-family="Calibri,Calibri_MSFontService,sans-serif" font-weight="400" font-size="11" transform="matrix(0.351504 0 0 0.349315 122.387 202)">R<tspan font-size="11" x="5.99998" y="0">_</tspan><tspan font-size="11" x="11" y="0">FL</tspan>1<tspan font-size="11" x="-0.814806" y="-14.3137">1</tspan></text><path d="M175.182 123.134 219.195 123.134 219.195 153.524 175.182 153.524Z" stroke="#000000" stroke-width="0.465752" stroke-miterlimit="8" fill="#FFFFFF" transform="matrix(1.00627 0 0 1 48.9041 138.247)"/><text font-family="Yu Gothic,Yu Gothic_MSFontService,sans-serif" font-weight="400" font-size="13" transform="matrix(0.351504 0 0 0.349315 242.548 267)">製品<tspan font-family="Consolas,Consolas_MSFontService,sans-serif" font-size="12" x="-40.2466" y="14.3137">*</tspan><tspan font-size="12" x="-33.58" y="14.3137">製品</tspan><tspan font-family="Consolas,Consolas_MSFontService,sans-serif" font-size="12" x="-9.57999" y="14.3137">ID</tspan></text><path d="M53.6199 119.291 97.6336 119.291 97.6336 157.017 53.6199 157.017Z" stroke="#000000" stroke-width="0.465752" stroke-miterlimit="8" fill="#FFFFFF" transform="matrix(1.00627 0 0 1 48.9041 138.247)"/><text font-family="Yu Gothic,Yu Gothic_MSFontService,sans-serif" font-weight="400" font-size="13" transform="matrix(0.351504 0 0 0.349315 120.172 263)">装置<tspan font-family="Consolas,Consolas_MSFontService,sans-serif" font-size="12" x="-40.2467" y="17.1765">*</tspan><tspan font-size="12" x="-33.58" y="17.1765">装置</tspan><tspan font-family="Consolas,Consolas_MSFontService,sans-serif" font-size="12" x="-9.58001" y="17.1765">ID</tspan><tspan font-size="12" x="-28.2467" y="28.6275">消費電力</tspan><tspan font-family="Consolas,Consolas_MSFontService,sans-serif" font-size="12" x="19.7533" y="28.6275">(</tspan><tspan font-family="Consolas,Consolas_MSFontService,sans-serif" font-size="12" x="26.7533" y="28.6275">M</tspan><tspan font-family="Consolas,Consolas_MSFontService,sans-serif" font-size="12" x="33.7533" y="28.6275">)</tspan><tspan font-size="12" x="-28.2467" y="45.8039">稼働状態</tspan><tspan font-size="12" x="-28.2467" y="60.1176">温度</tspan><tspan font-size="12" x="-28.2467" y="74.4314">危険上限温度</tspan></text><path d="M0 0 3.66735e-05 17.0733" stroke="#000000" stroke-width="0.232877" stroke-miterlimit="8" fill="none" fill-rule="evenodd" transform="matrix(-1.00627 0 0 1 125.005 240.421)"/><path d="M0 0 12.1621 0 12.1621 51.4391 0.465752 51.4391" stroke="#000000" stroke-width="0.232877" stroke-miterlimit="8" fill="none" fill-rule="evenodd" transform="matrix(-1.00627 1.22465e-16 1.23232e-16 1 103.329 225.051)"/><path d="M86.6721 157.017 86.6721 169.652 65.4966 169.652 65.4966 157.483" stroke="#000000" stroke-width="0.232877" stroke-miterlimit="8" fill="none" fill-rule="evenodd" transform="matrix(1.00627 0 0 1 48.9041 138.247)"/><path d="M0 0 77.4442 3.66735e-05" stroke="#000000" stroke-width="0.232877" stroke-miterlimit="8" fill="none" fill-rule="evenodd" transform="matrix(-1.00627 0 0 1 225.079 276.401)"/><path d="M0 0 36.0409 0 36.0409 99.5289" stroke="#000000" stroke-width="0.232877" stroke-miterlimit="8" fill="none" fill-rule="evenodd" transform="matrix(-1.84848e-16 -1 -1.00627 1.83697e-16 247.302 261.092)"/><text font-family="Calibri,Calibri_MSFontService,sans-serif" font-weight="400" font-size="11" transform="matrix(0.351504 0 0 0.349315 122.101 244)">1<tspan font-size="11" x="76.0836" y="-60.1176">1</tspan><tspan font-size="11" x="-79.9445" y="-42.9412">0</tspan><tspan font-size="11" x="-73.9445" y="-42.9412">..</tspan>1<tspan font-size="11" x="-69.3974" y="85.8824">1</tspan><tspan font-size="11" x="-10.7708" y="-103.059">1</tspan><tspan font-size="11" x="-4.77081" y="-103.059">..*</tspan><tspan font-size="11" x="-9.55895" y="34.3529">1</tspan><tspan font-size="11" x="-3.55895" y="34.3529">..*</tspan><tspan font-size="11" x="345.494" y="42.9412">*</tspan><tspan font-size="11" x="76.1132" y="105.922">0</tspan><tspan font-size="11" x="82.1132" y="105.922">..</tspan><tspan font-size="11" x="88.1132" y="105.922">1</tspan><tspan font-size="11" x="273.139" y="83.0196">0</tspan>..1<tspan font-size="11" x="-16.3168" y="160.314">0</tspan><tspan font-size="11" x="-10.3168" y="160.314">..</tspan><tspan font-size="11" x="-4.3168" y="160.314">1</tspan><tspan font-size="11" x="19.7595" y="157.451">0</tspan><tspan font-size="11" x="25.7595" y="157.451">..</tspan><tspan font-size="11" x="31.7595" y="157.451">1</tspan><tspan font-family="Yu Gothic,Yu Gothic_MSFontService,sans-serif" font-size="11" x="-69.3974" y="163.176">前</tspan><tspan font-family="Yu Gothic,Yu Gothic_MSFontService,sans-serif" font-size="11" x="-58.7307" y="163.176">の</tspan><tspan font-family="Yu Gothic,Yu Gothic_MSFontService,sans-serif" font-size="11" x="-47.7307" y="163.176">工程</tspan><tspan font-family="Yu Gothic,Yu Gothic_MSFontService,sans-serif" font-size="11" x="43.1512" y="163.176">後</tspan><tspan font-family="Yu Gothic,Yu Gothic_MSFontService,sans-serif" font-size="11" x="54.1512" y="163.176">の</tspan><tspan font-family="Yu Gothic,Yu Gothic_MSFontService,sans-serif" font-size="11" x="65.1512" y="163.176">工程</tspan><tspan font-family="Yu Gothic,Yu Gothic_MSFontService,sans-serif" font-size="11" x="246.94" y="105.922">仕掛</tspan><tspan font-family="Yu Gothic,Yu Gothic_MSFontService,sans-serif" font-size="11" x="268.94" y="105.922">り</tspan><tspan font-family="Yu Gothic,Yu Gothic_MSFontService,sans-serif" font-size="11" x="279.94" y="105.922">品</tspan><tspan font-family="Yu Gothic,Yu Gothic_MSFontService,sans-serif" font-size="11" x="76.7743" y="83.0196">加工中</tspan><tspan font-family="Yu Gothic,Yu Gothic_MSFontService,sans-serif" font-size="11" x="361.61" y="40.0784">生産製品</tspan><tspan font-family="Yu Gothic,Yu Gothic_MSFontService,sans-serif" font-size="11" x="14.1912" y="-131.686">設置場所</tspan><tspan font-family="Yu Gothic,Yu Gothic_MSFontService,sans-serif" font-size="11" x="10.917" y="2.86275">設置場所</tspan><tspan font-family="Yu Gothic,Yu Gothic_MSFontService,sans-serif" font-size="11" x="-100.633" y="108.784">開始装置</tspan><tspan font-size="11" x="-0.816998" y="20.0392">R</tspan><tspan font-size="11" x="5.18298" y="20.0392">_</tspan><tspan font-size="11" x="10.183" y="20.0392">LE</tspan>1<tspan font-size="11" x="-83.6964" y="20.0392">R</tspan><tspan font-size="11" x="-77.6964" y="20.0392">_</tspan><tspan font-size="11" x="-72.6964" y="20.0392">LE</tspan>2<tspan font-size="11" x="-4.62417" y="194.667">R</tspan><tspan font-size="11" x="1.37584" y="194.667">_</tspan><tspan font-size="11" x="6.37585" y="194.667">EO</tspan><tspan font-size="11" x="18.3758" y="194.667">1</tspan><tspan font-size="11" x="116.175" y="105.922">R</tspan>_<tspan font-size="11" x="127.175" y="105.922">EP</tspan><tspan font-size="11" x="138.175" y="105.922">1</tspan><tspan font-size="11" x="216.602" y="-60.1176">R</tspan><tspan font-size="11" x="222.602" y="-60.1176">_</tspan><tspan font-size="11" x="227.602" y="-60.1176">LP</tspan>1</text><path d="M118.592 101.127 162.606 101.127 162.606 119.99 118.592 119.99Z" stroke="#000000" stroke-width="0.465752" stroke-miterlimit="8" fill="#FFFFFF" transform="matrix(1.00627 0 0 1 48.9041 138.247)"/><text font-family="Yu Gothic,Yu Gothic_MSFontService,sans-serif" font-weight="400" font-size="13" transform="matrix(0.351504 0 0 0.349315 176.205 245)">オーダー<tspan font-size="13" x="51" y="0">仕様</tspan><tspan font-size="12" x="-13.58" y="14.3137">製造</tspan><tspan font-size="12" x="10.42" y="14.3137">ステップ</tspan><tspan font-size="12" x="-13.58" y="28.6275">装置</tspan><tspan font-size="12" x="10.42" y="28.6275">コマンド</tspan></text><path d="M97.6336 96.2363 140.609 96.2363 140.609 100.983" stroke="#000000" stroke-width="0.232877" stroke-miterlimit="8" fill="none" fill-rule="evenodd" transform="matrix(1.00627 0 0 1 48.9041 138.247)"/><path d="M0 0 43.0443 0 43.0443 4.43319" stroke="#000000" stroke-width="0.232877" stroke-miterlimit="8" fill="none" fill-rule="evenodd" transform="matrix(1.00627 0 0 -1 147.149 262.669)"/><text font-family="Calibri,Calibri_MSFontService,sans-serif" font-weight="400" font-size="11" transform="matrix(0.351504 0 0 0.349315 149.008 233)">1<tspan font-size="11" x="124.404" y="14.3137">1</tspan>..*<tspan font-size="11" x="130.035" y="85.8824">1</tspan><tspan font-size="11" x="0.673767" y="80.1569">1</tspan><tspan font-family="Yu Gothic,Yu Gothic_MSFontService,sans-serif" font-size="11" x="124.228" y="2.86275">製造指示仕様</tspan><tspan font-family="Yu Gothic,Yu Gothic_MSFontService,sans-serif" font-size="11" x="118.549" y="97.3333">製造指示仕様</tspan><tspan font-size="11" x="43.3781" y="2.86275">R</tspan><tspan font-size="11" x="49.3781" y="2.86275">_</tspan><tspan font-size="11" x="54.3781" y="2.86275">LOS</tspan><tspan font-size="11" x="71.3781" y="2.86275">1</tspan><tspan font-size="11" x="42.2527" y="91.6078">R</tspan><tspan font-size="11" x="48.2527" y="91.6078">_</tspan><tspan font-size="11" x="53.2527" y="91.6078">POS</tspan><tspan font-size="11" x="71.2527" y="91.6078">1</tspan></text><path d="M87.6781 125.753 93.6164 125.753 93.6164 131.692 87.6781 131.692Z" stroke="#2F528F" stroke-width="0.69863" stroke-miterlimit="8" fill="#FFFFFF" transform="matrix(1.00627 0 0 1 48.9041 138.247)"/><path d="M88.726 128.897C88.726 127.933 89.586 127.151 90.6473 127.151 91.7085 127.151 92.5685 127.933 92.5685 128.897 92.5685 129.862 91.7085 130.644 90.6473 130.644 89.586 130.644 88.726 129.862 88.726 128.897Z" stroke="#AE5A21" stroke-width="0.69863" stroke-miterlimit="8" fill="#FFFFFF" fill-rule="evenodd" transform="matrix(1.00627 0 0 1 48.9041 138.247)"/><path d="M87.6781 125.055 87.9401 124.007 93.3545 124.007 93.6164 125.055Z" stroke="#2F528F" stroke-width="0.69863" stroke-miterlimit="8" fill="#FFFFFF" fill-rule="evenodd" transform="matrix(1.00627 0 0 1 48.9041 138.247)"/><path d="M0 1.04795 0.261985 0 5.67637 0 5.93836 1.04795Z" stroke="#2F528F" stroke-width="0.69863" stroke-miterlimit="8" fill="#FFFFFF" fill-rule="evenodd" transform="matrix(1.00627 0 0 -1 137.132 272.034)"/><path d="M88.3767 122.26 92.9178 122.26 92.9178 123.308 88.3767 123.308Z" stroke="#2F528F" stroke-width="0.69863" stroke-miterlimit="8" fill="#FFFFFF" transform="matrix(1.00627 0 0 1 48.9041 138.247)"/><path d="M89.5256 129.579 91.1122 128.088 90.9382 127.903 91.6561 127.925 91.6341 128.643 91.4601 128.458 89.8735 129.949Z" stroke="#AE5A21" stroke-width="0.69863" stroke-miterlimit="8" fill="#ED7D31" fill-rule="evenodd" transform="matrix(1.00627 0 0 1 48.9041 138.247)"/><g clip-path="url(#clip5)"><g clip-path="url(#clip6)"><g clip-path="url(#clip7)"><path d="M2.19113 2.57751 4.61328 2.57751 4.61328 2.78096 2.19113 2.78096Z" fill="#4B4B4B" transform="matrix(1 0 0 1.05588 204.62 247.233)"/><path d="M1.98227 3.38182 4.40441 3.38182 4.40441 3.58537 1.98227 3.58537Z" fill="#4B4B4B" transform="matrix(1 0 0 1.05588 204.62 247.233)"/><path d="M5.61619 0.402054 5.61619 0.271163 1.51715 0.271163 1.51715 0.402054C1.51715 0.67237 1.52466 0.954948 1.52466 1.24834 1.52466 1.67623 1.5089 2.12703 1.43262 2.59633 1.36006 3.04264 1.23298 3.50578 1.01242 3.98324L0.617866 3.98324C0.548149 3.98324 0.47776 3.99445 0.409853 4.01804 0.308126 4.05337 0.211814 4.11783 0.138866 4.21263 0.0657312 4.30722 0.0174873 4.43025 0.00314157 4.57528 0.00105451 4.59626 0 4.61714 0 4.63785-9.88604e-05 4.74302 0.0269779 4.84218 0.0725634 4.92907 0.141041 5.05979 0.249227 5.16359 0.374889 5.23607 0.500749 5.30844 0.645108 5.35013 0.792135 5.35119L3.90819 5.35288C4.02683 5.35316 4.12971 5.32894 4.21727 5.28915 4.30494 5.24957 4.37647 5.19691 4.44287 5.14401 4.71433 4.92784 4.92404 4.65992 5.08503 4.36251 5.32658 3.91593 5.45994 3.40283 5.5345 2.88109 5.60884 2.35935 5.62395 1.82822 5.62406 1.34475 5.62406 0.998534 5.61619 0.676645 5.61619 0.402054ZM0.793576 5.08949 0.793674 5.08949C0.728699 5.08921 0.661354 5.07638 0.597623 5.05255 0.501891 5.01705 0.41507 4.95684 0.355325 4.88414 0.325317 4.84776 0.301953 4.80847 0.285992 4.76741 0.270142 4.72628 0.261673 4.68347 0.261673 4.63788 0.261673 4.6259 0.262244 4.61373 0.263485 4.6014 0.270416 4.53225 0.287036 4.47689 0.309071 4.43215 0.34231 4.36529 0.387248 4.32083 0.440248 4.29035 0.493149 4.26016 0.555169 4.24645 0.617866 4.24645L3.42211 4.24645C3.39172 4.28132 3.36465 4.32121 3.34299 4.36631 3.31108 4.43243 3.28971 4.50916 3.28106 4.59553 3.27916 4.61517 3.2782 4.63447 3.2782 4.65366 3.2782 4.74502 3.30005 4.83156 3.33803 4.9084 3.37223 4.97743 3.41925 5.03881 3.475 5.09104L0.793576 5.08949ZM5.18373 3.33813C5.10823 3.6606 5.00214 3.96616 4.8549 4.23801 4.70769 4.50983 4.52009 4.74783 4.2798 4.93944 4.2192 4.98787 4.16592 5.02538 4.10978 5.05055 4.05337 5.07571 3.99322 5.0909 3.9083 5.09122L3.82092 5.09111C3.74183 5.06868 3.6684 5.0291 3.60864 4.97705 3.56038 4.93515 3.52136 4.88559 3.49447 4.83107 3.46761 4.77655 3.45268 4.71725 3.45268 4.65363 3.45268 4.64034 3.45325 4.62677 3.45468 4.61299 3.46152 4.54452 3.47786 4.48818 3.50008 4.44202 3.5336 4.37288 3.57978 4.32585 3.63314 4.29425 3.68643 4.26279 3.7477 4.2475 3.80886 4.24761 3.87062 4.2474 3.93178 4.26335 3.9824 4.29176 4.03322 4.32037 4.07301 4.36051 4.09713 4.4106 4.10989 4.437 4.11776 4.47225 4.11776 4.50775 4.11776 4.53693 4.11252 4.56589 4.10303 4.59011 4.09361 4.61451 4.08022 4.63363 4.06465 4.64691 4.0354 4.67152 4.00556 4.68083 3.97544 4.68101 3.94925 4.68101 3.92303 4.67314 3.9012 4.65897 3.87916 4.64491 3.86204 4.62516 3.85199 4.60171L3.69167 4.67047C3.71617 4.72776 3.75736 4.77402 3.80696 4.80583 3.85645 4.83764 3.91477 4.85539 3.97544 4.85539 4.04489 4.85567 4.11773 4.83107 4.17776 4.77968 4.21889 4.74456 4.2474 4.7001 4.2656 4.65328 4.28378 4.60646 4.29204 4.55686 4.29204 4.50775 4.29204 4.4481 4.27998 4.38877 4.25432 4.3351 4.21319 4.24951 4.14585 4.18349 4.06778 4.13969 3.99122 4.09685 3.90384 4.07446 3.81501 4.07333L3.81501 4.07196 1.25992 4.07196C1.48541 3.57799 1.6163 3.09756 1.69085 2.63832 1.77045 2.14841 1.78621 1.68253 1.78621 1.24837 1.78621 0.998756 1.78118 0.760159 1.77957 0.532869L5.35516 0.532869C5.35688 0.780096 5.36237 1.0546 5.36237 1.34477 5.36258 1.98179 5.33495 2.69321 5.18373 3.33813Z" fill="#4B4B4B" transform="matrix(1 0 0 1.05588 204.62 247.233)"/><path d="M3.63771 2.0688C3.6684 1.72686 3.66991 1.39956 3.66678 1.09001L2.31166 1.09001C2.3148 1.39956 2.31318 1.72686 2.28251 2.0688L3.63771 2.0688Z" fill="#4B4B4B" transform="matrix(1 0 0 1.05588 204.62 247.233)"/></g></g></g><g clip-path="url(#clip8)"><g clip-path="url(#clip9)"><g clip-path="url(#clip10)"><path d="M208.404 130.644 212.521 130.644 212.521 131.04 208.404 131.04Z" fill="#7F7F7F" transform="matrix(1.00627 0 0 1 48.9041 138.247)"/><path d="M212.916 131.9C212.85 131.785 212.42 131.222 212.42 131.222L211.932 131.222C211.711 131.493 211.149 132.514 211.739 135.504 211.855 136.09 211.913 137.463 211.54 138.132L210.07 138.132C210.574 137.513 211.243 136.298 211.045 134.859 210.792 133.025 210.751 131.902 211.011 131.222L208.504 131.222C208.504 131.222 208.074 131.785 208.008 131.9 207.942 132.016 207.959 132.066 207.959 132.231 207.959 132.396 207.959 137.504 207.959 137.719 207.959 137.934 208.02 138.208 208.174 138.282 208.486 138.43 208.37 138.678 208.702 138.678L212.222 138.678C212.554 138.678 212.439 138.43 212.751 138.282 212.905 138.208 212.966 137.934 212.966 137.719 212.966 137.504 212.966 132.396 212.966 132.231 212.966 132.066 212.983 132.016 212.916 131.9Z" fill="#7F7F7F" transform="matrix(1.00627 0 0 1 48.9041 138.247)"/></g></g></g><path d="M73.5308 97.6336 73.9675 95.887 91.3459 95.887 90.9092 97.6336Z" stroke="#FFC000" stroke-width="0.232877" stroke-miterlimit="8" fill="url(#fill11)" fill-rule="evenodd" transform="matrix(1.00627 0 0 1 48.9041 138.247)"/><g clip-path="url(#clip12)"><g clip-path="url(#clip13)"><g clip-path="url(#clip14)"><path d="M8.14163 2.02431 5.57654 3.84124 5.57654 2.02431 2.89976 3.92033 2.67676 0.46279 0.445974 0.46279 0 8.27007 8.73288 8.27007 8.14163 2.02431ZM3.32003 6.30308 2.26645 6.30308 2.26645 5.24933 3.32003 5.24933 3.32003 6.30308ZM6.31272 6.30308 5.25883 6.30308 5.25883 5.24933 6.31272 5.24933 6.31272 6.30308Z" fill="#4B4B4B" transform="matrix(1.04652 0 0 1 134.32 169.336)"/></g></g></g></g></g></g></g><path d="M166.284 187.53 171.53 187.53 171.53 182.284 176.47 182.284 176.47 187.53 181.716 187.53 181.716 192.47 176.47 192.47 176.47 197.716 171.53 197.716 171.53 192.47 166.284 192.47Z" stroke="#AE5A21" stroke-width="1.33333" stroke-miterlimit="8" fill="#ED7D31" fill-rule="evenodd"/><text font-family="Yu Gothic,Yu Gothic_MSFontService,sans-serif" font-weight="400" font-size="11" transform="translate(193.513 193)">概念振舞モデル</text><path d="M282.5 220.25 283.219 220.25 283.219 231.75 282.5 231.75ZM283.938 220.25 285.375 220.25 285.375 231.75 283.938 231.75ZM286.094 220.25 298 220.25 298 214.5 309.5 226 298 237.5 298 231.75 286.094 231.75Z" stroke="#2F528F" stroke-width="1.33333" stroke-miterlimit="8" stroke-opacity="0.501961" fill="#4472C4" fill-rule="evenodd" fill-opacity="0.501961"/><path d="M528.5 140 539 129.5 539 134.75 560 134.75 560 129.5 570.5 140 560 150.5 560 145.25 539 145.25 539 150.5Z" stroke="#2F528F" stroke-width="1.33333" stroke-miterlimit="8" stroke-opacity="0.501961" fill="#4472C4" fill-rule="evenodd" fill-opacity="0.501961"/><g clip-path="url(#clip15)"><g clip-path="url(#clip16)"><g clip-path="url(#clip17)"><path d="M9.52687 8.62459C9.52687 8.62459 12.8437 9.28852 17.1557 4.97584 19.146 7.63014 20.4738 8.95658 20.4738 8.95658L20.4738 12.9386C21.8055 11.5652 22.6298 9.69486 22.6298 7.63014 22.6298 3.4159 19.2139 0 14.9996 0 10.7868 0 7.37086 3.4159 7.37086 7.63014 7.37086 9.69486 8.19387 11.5651 9.52682 12.9386L9.52682 8.62459Z" fill="#4B4B4B" transform="matrix(-1 0 0 1 607 124)"/><path d="M20.1164 17.4273C19.581 17.72 14.9997 27.7782 14.9997 27.7782 14.9997 27.7782 10.4191 17.7201 9.88295 17.4273 4.72582 19.2879 4.49555 23.4557 4.49555 30L25.5045 30C25.5045 23.4557 25.2742 19.2879 20.1164 17.4273Z" fill="#4B4B4B" transform="matrix(-1 0 0 1 607 124)"/><path d="M12.7158 16.9779 12.7158 20.0234 14.9996 19.2468 17.2841 20.0234 17.2841 16.9779 14.9996 17.7547Z" fill="#4B4B4B" transform="matrix(-1 0 0 1 607 124)"/></g></g></g><path d="M528.5 255.5 538.5 245.5 538.5 250.5 560.5 250.5 560.5 245.5 570.5 255.5 560.5 265.5 560.5 260.5 538.5 260.5 538.5 265.5Z" stroke="#2F528F" stroke-width="1.33333" stroke-miterlimit="8" stroke-opacity="0.501961" fill="#4472C4" fill-rule="evenodd" fill-opacity="0.501961"/><text font-family="Yu Gothic,Yu Gothic_MSFontService,sans-serif" font-weight="400" font-size="13" transform="translate(579.324 258)">他<tspan font-size="13" x="13.3333" y="0">のシステム</tspan></text><path d="M414 280.5 424.5 291 419.25 291 419.25 303 424.5 303 414 313.5 403.5 303 408.75 303 408.75 291 403.5 291Z" stroke="#2F528F" stroke-width="1.33333" stroke-miterlimit="8" stroke-opacity="0.501961" fill="#4472C4" fill-rule="evenodd" fill-opacity="0.501961"/><text font-family="Yu Gothic,Yu Gothic_MSFontService,sans-serif" font-weight="400" font-size="13" transform="translate(382.789 377)">現実の世界</text><rect x="467.5" y="326.5" width="18" height="18" stroke="#2F528F" stroke-width="1.33333" stroke-miterlimit="8" fill="#FFFFFF"/><path d="M470.5 335.5C470.5 332.739 472.962 330.5 476 330.5 479.038 330.5 481.5 332.739 481.5 335.5 481.5 338.261 479.038 340.5 476 340.5 472.962 340.5 470.5 338.261 470.5 335.5Z" stroke="#AE5A21" stroke-width="1.33333" stroke-miterlimit="8" fill="#FFFFFF" fill-rule="evenodd"/><path d="M467.5 324.5 468.25 321.5 484.75 321.5 485.5 324.5Z" stroke="#2F528F" stroke-width="1.33333" stroke-miterlimit="8" fill="#FFFFFF" fill-rule="evenodd"/><path d="M0 2.99996 0.75 0 17.25 0 18 2.99996Z" stroke="#2F528F" stroke-width="1.33333" stroke-miterlimit="8" fill="#FFFFFF" fill-rule="evenodd" transform="matrix(1 0 0 -1 467.5 350.5)"/><rect x="468.5" y="315.5" width="15" height="3" stroke="#2F528F" stroke-width="1.33333" stroke-miterlimit="8" fill="#FFFFFF"/><path d="M472.155 337.283 476.956 332.771 476.429 332.212 478.602 332.279 478.534 334.451 478.008 333.891 473.208 338.403Z" stroke="#AE5A21" stroke-width="1.33333" stroke-miterlimit="8" fill="#ED7D31" fill-rule="evenodd"/><g clip-path="url(#clip18)"><g clip-path="url(#clip19)"><g clip-path="url(#clip20)"><path d="M30.7658 7.64949 21.0727 14.5154 21.0727 7.64949 10.9577 14.8142 10.115 1.74881 1.68526 1.74881 0 31.2512 33 31.2512 30.7658 7.64949ZM12.5458 23.8182 8.56453 23.8182 8.56453 19.8364 12.5458 19.8364 12.5458 23.8182ZM23.8546 23.8182 19.8722 23.8182 19.8722 19.8364 23.8546 19.8364 23.8546 23.8182Z" fill="#4B4B4B" transform="matrix(1.0303 0 0 1 375 315)"/></g></g></g><path d="M331.276 332C331.428 331.593 331.719 330.924 332.232 329.75 332.467 329.209 332.731 328.612 333 328L330.639 328C329.735 328 329 328.894 329 330 329 331.104 329.735 332 330.639 332L331.276 332Z" stroke="#FFFFFF" stroke-width="2" stroke-miterlimit="8" stroke-opacity="0.501961" fill-rule="evenodd"/><path d="M360.359 328 358 328C358.27 328.612 358.532 329.209 358.766 329.75 359.279 330.924 359.569 331.593 359.724 332L360.359 332C361.264 332 362 331.104 362 330 362 328.894 361.264 328 360.359 328Z" stroke="#FFFFFF" stroke-width="2" stroke-miterlimit="8" stroke-opacity="0.501961" fill-rule="evenodd"/><path d="M331 345.944C331 347.079 332.122 348 333.501 348 334.882 348 336 347.079 336 345.944L336 344 331 344 331 345.944Z" stroke="#FFFFFF" stroke-width="2" stroke-miterlimit="8" stroke-opacity="0.501961" fill-rule="evenodd"/><path d="M355 345.944C355 347.079 356.118 348 357.499 348 358.881 348 360 347.079 360 345.944L360 344 355 344 355 345.944Z" stroke="#FFFFFF" stroke-width="2" stroke-miterlimit="8" stroke-opacity="0.501961" fill-rule="evenodd"/><path d="M359.073 331.906C359.18 331.939 355.12 324.197 354.925 323.777 354.413 322.668 353.148 322 351.911 322 350.484 322 346.509 322 346.509 322 346.509 322 340.514 322 339.087 322 337.85 322 336.585 322.668 336.072 323.777 335.878 324.197 331.818 331.939 331.927 331.906 331.927 331.906 330.612 333.266 330.513 333.374 329.96 333.992 330.001 334.526 330.001 335.059 330.001 335.059 330.001 340.071 330.001 341.221 330.001 342.371 330.198 343 331.501 343L359.498 343C360.801 343 360.999 342.371 360.999 341.221 360.999 340.071 360.999 335.059 360.999 335.059 360.999 334.526 361.039 333.992 360.485 333.374 360.388 333.266 359.073 331.906 359.073 331.906ZM335.286 329.53C335.286 329.53 337.893 324.65 338.047 324.331 338.31 323.785 339.061 323.391 339.828 323.391L351.171 323.391C351.939 323.391 352.688 323.785 352.951 324.331 353.107 324.65 355.714 329.53 355.714 329.53 355.954 329.979 355.742 330.816 355.031 330.816L335.968 330.816C335.256 330.816 335.046 329.979 335.286 329.53ZM338.948 339.896C338.769 340.125 338.495 340.249 338.214 340.227L333.776 339.888C333.389 339.86 333.069 339.565 332.993 339.169L332.696 337.631C332.643 337.352 332.718 337.064 332.902 336.854 333.084 336.644 333.35 336.535 333.622 336.561L337.942 336.975C338.293 337.008 338.591 337.262 338.69 337.616L339.106 339.079C339.186 339.361 339.127 339.668 338.948 339.896ZM349.138 341.056C349.138 341.238 348.994 341.386 348.821 341.386L342.181 341.386C342.005 341.386 341.862 341.238 341.862 341.056L341.862 338.016C341.862 337.836 342.005 337.689 342.181 337.689L348.821 337.689C348.994 337.689 349.138 337.836 349.138 338.016L349.138 341.056ZM358.304 337.631 358.006 339.169C357.931 339.565 357.61 339.86 357.224 339.888L352.786 340.227C352.504 340.249 352.229 340.125 352.05 339.896 351.873 339.668 351.814 339.361 351.894 339.079L352.309 337.616C352.409 337.262 352.705 337.008 353.057 336.975L357.377 336.561C357.649 336.535 357.915 336.644 358.098 336.854 358.282 337.064 358.357 337.352 358.304 337.631Z" stroke="#FFFFFF" stroke-width="2" stroke-miterlimit="8" stroke-opacity="0.501961" fill-rule="evenodd"/><path d="M430.014 335.277C429.706 335.096 429.356 335 429.001 335 428.296 335 427.634 335.378 427.276 335.987 427.095 336.293 426.999 336.644 427 336.999 426.999 337.705 427.378 338.366 427.986 338.723 428.293 338.904 428.643 339 428.998 339L429 339C429.705 339 430.366 338.622 430.723 338.013 430.904 337.706 431 337.356 431 337.001 431.001 336.295 430.622 335.634 430.014 335.277ZM430.076 337.633C429.85 338.019 429.447 338.249 428.998 338.25 428.773 338.249 428.561 338.191 428.367 338.078 427.981 337.85 427.75 337.447 427.75 336.999 427.75 336.775 427.808 336.562 427.923 336.366 428.146 335.987 428.559 335.751 429.001 335.751 429.223 335.751 429.442 335.811 429.633 335.923 430.013 336.146 430.249 336.559 430.249 337.001 430.249 337.226 430.191 337.439 430.076 337.633Z" stroke="#FFFFFF" stroke-width="2" stroke-miterlimit="8" stroke-opacity="0.501961" fill-rule="evenodd"/><path d="M439.498 318C439.122 318 438.762 318.188 438.484 318.529 438.176 318.906 438 319.443 438 320.001 438 320.503 438.14 320.984 438.396 321.355 438.679 321.765 439.081 322 439.5 322L439.502 322C439.878 322 440.238 321.812 440.516 321.472 440.824 321.094 441 320.557 441 319.999 441 319.496 440.859 319.015 440.603 318.646 440.32 318.236 439.919 318 439.498 318ZM440.08 320.839C439.922 321.033 439.716 321.14 439.5 321.141 439.258 321.14 439.035 321.01 438.871 320.774 438.725 320.562 438.644 320.287 438.644 320.001 438.645 319.677 438.743 319.379 438.921 319.161 439.079 318.967 439.285 318.86 439.5 318.86 439.742 318.86 439.965 318.991 440.13 319.227 440.275 319.439 440.355 319.714 440.355 319.999 440.355 320.323 440.257 320.621 440.08 320.839Z" stroke="#FFFFFF" stroke-width="2" stroke-miterlimit="8" stroke-opacity="0.501961" fill-rule="evenodd"/><path d="M450.5 330C450.123 330 449.762 330.141 449.484 330.396 449.176 330.68 449 331.082 449 331.5 449 331.877 449.14 332.238 449.396 332.516 449.68 332.823 450.082 333 450.501 333L450.503 333C450.878 333 451.238 332.859 451.516 332.604 451.824 332.32 452.001 331.918 452 331.5 452 331.123 451.859 330.763 451.604 330.484 451.32 330.176 450.918 330 450.5 330ZM450.973 332.013C450.843 332.132 450.675 332.197 450.501 332.197 450.302 332.196 450.12 332.117 449.987 331.972 449.867 331.842 449.804 331.679 449.803 331.501 449.804 331.303 449.883 331.12 450.027 330.987 450.157 330.868 450.325 330.803 450.5 330.803 450.697 330.803 450.879 330.883 451.013 331.028 451.134 331.159 451.197 331.322 451.197 331.5 451.197 331.697 451.117 331.88 450.973 332.013Z" stroke="#FFFFFF" stroke-width="2" stroke-miterlimit="8" stroke-opacity="0.501961" fill-rule="evenodd"/><path d="M452.55 328.518 442.743 316.52C441.876 315.556 440.646 315.002 439.34 315 438.187 315.003 437.084 315.445 436.235 316.244 435.835 316.622 435.505 317.067 435.261 317.556L424.537 334.183C424.298 334.598 424.115 335.053 423.993 335.533L423.933 335.524 422.84 342.698C421.801 342.833 421 343.754 421 344.834L421 350 437.16 350 437.16 344.834C437.159 343.745 436.383 342.844 435.34 342.701L434.717 337.268 439.978 326.835 446.154 332.885 446.154 337.121 448.241 337.121 448.241 339.59 450.157 341.796 452.074 339.59 452.074 337.121 454 337.121 454 331.628C454 330.409 453.466 329.27 452.55 328.518ZM424.448 338.816C424.858 339.842 425.582 340.703 426.523 341.27 427.286 341.728 428.154 341.971 429.036 341.971 430.789 341.971 432.428 341.011 433.323 339.454L433.839 338.43 434.357 342.945 423.818 342.945 424.448 338.816ZM435.055 343.708C435.348 343.708 435.625 343.825 435.833 344.037 436.041 344.251 436.155 344.534 436.155 344.834L436.155 348.971 422.005 348.971 422.005 344.834C422.005 344.533 422.119 344.25 422.327 344.037 422.535 343.825 422.812 343.708 423.105 343.708L435.055 343.708ZM432.672 339.084C431.917 340.394 430.523 341.208 429.034 341.208 428.287 341.208 427.549 341.002 426.901 340.612 425.618 339.84 424.821 338.413 424.82 336.887 424.82 336.123 425.021 335.37 425.398 334.713L435.011 319.812C435.034 320.894 435.439 321.925 436.168 322.735L439.346 325.848 432.672 339.084ZM446.413 331.716 436.702 322.204C436.091 321.522 435.755 320.637 435.755 319.713 435.755 318.671 436.167 317.708 436.916 317.001 437.582 316.373 438.448 316.028 439.353 316.028 440.357 316.028 441.323 316.461 441.999 317.211L450.786 327.951C450.552 327.903 450.315 327.879 450.077 327.879 448.058 327.879 446.414 329.561 446.413 331.628L446.413 331.716ZM451.069 339.199 450.157 340.249 449.246 339.199 449.246 336.949 451.069 336.949 451.069 339.199ZM452.996 336.092 447.159 336.092 447.159 331.628C447.159 330.83 447.463 330.08 448.013 329.516 448.565 328.951 449.298 328.641 450.077 328.641 450.856 328.641 451.589 328.951 452.141 329.516 452.692 330.081 452.996 330.831 452.996 331.628L452.996 336.092Z" stroke="#FFFFFF" stroke-width="2" stroke-miterlimit="8" stroke-opacity="0.501961" fill-rule="evenodd"/><path d="M414 145.5 424.5 156 419.25 156 419.25 168 424.5 168 414 178.5 403.5 168 408.75 168 408.75 156 403.5 156Z" stroke="#2F528F" stroke-width="1.33333" stroke-miterlimit="8" stroke-opacity="0.501961" fill="#4472C4" fill-rule="evenodd" fill-opacity="0.501961"/><text font-family="Yu Gothic,Yu Gothic_MSFontService,sans-serif" font-weight="400" font-size="16" transform="translate(74.7685 88)">概念情報モデルと、<tspan font-family="Calibri,Calibri_MSFontService,sans-serif" font-size="16" x="144" y="0">IT</tspan><tspan font-size="16" x="159.5" y="0">システム</tspan></text></g></svg>