<svg width="611" height="642" xmlns="http://www.w3.org/2000/svg" xmlns:xlink="http://www.w3.org/1999/xlink" overflow="hidden"><defs><clipPath id="clip0"><rect x="62" y="26" width="611" height="642"/></clipPath></defs><g clip-path="url(#clip0)" transform="translate(-62 -26)"><rect x="67.5001" y="27.5001" width="605" height="639" stroke="#D9D9D9" stroke-width="1.33333" stroke-miterlimit="8" fill="none"/><rect x="109.5" y="117.5" width="106" height="53" stroke="#000000" stroke-width="1.33333" stroke-miterlimit="8" fill="#FFFFFF"/><text font-family="Consolas,Consolas_MSFontService,sans-serif" font-weight="400" font-size="11" transform="translate(144.674 132)">Domain<tspan font-size="8" x="-26" y="10">*Name</tspan><tspan font-size="8" x="-18" y="20">Description</tspan></text><path d="M0 0 0.000104987 48.8615" stroke="#000000" stroke-width="0.666667" stroke-miterlimit="8" fill="none" fill-rule="evenodd" transform="matrix(-1 0 0 1 162.5 170.5)"/><text font-family="Calibri,Calibri_MSFontService,sans-serif" font-weight="400" font-size="11" transform="translate(151.196 199)">R1<tspan font-size="8" x="4.62341" y="-21">1</tspan><tspan font-size="8" x="14.911" y="16">1..*</tspan></text><rect x="109.5" y="219.5" width="106" height="53" stroke="#000000" stroke-width="1.33333" stroke-miterlimit="8" fill="#FFFFFF"/><text font-family="Consolas,Consolas_MSFontService,sans-serif" font-weight="400" font-size="11" transform="translate(147.587 234)">Class<tspan font-size="8" x="-28.9133" y="10">*Domain Name</tspan><tspan font-size="8" x="-28.9133" y="20">*Name</tspan><tspan font-size="8" x="-24.58" y="30">Description</tspan></text><rect x="345.5" y="215.5" width="106" height="61" stroke="#000000" stroke-width="1.33333" stroke-miterlimit="8" fill="#FFFFFF"/><text font-family="Consolas,Consolas_MSFontService,sans-serif" font-weight="400" font-size="11" transform="translate(374.84 230)">Property<tspan font-size="8" x="-20.1667" y="10">*Domain name</tspan><tspan font-size="8" x="-20.1667" y="20">*Class Name</tspan><tspan font-size="8" x="-20.1667" y="30">*Name</tspan><tspan font-size="8" x="-15.8333" y="39">Description</tspan><tspan font-family="Calibri,Calibri_MSFontService,sans-serif" font-size="8" x="-246.437" y="-17">concept</tspan></text><path d="M345.245 246.663 215.5 246.5" stroke="#000000" stroke-width="0.666667" stroke-miterlimit="8" fill="none" fill-rule="evenodd"/><text font-family="Calibri,Calibri_MSFontService,sans-serif" font-weight="400" font-size="11" transform="translate(274.532 241)">R2<tspan font-size="8" x="-56.6949" y="-2">1</tspan><tspan font-size="8" x="59.6045" y="16">*</tspan></text><rect x="345.5" y="117.5" width="106" height="53" stroke="#000000" stroke-width="1.33333" stroke-miterlimit="8" fill="#FFFFFF"/><text font-family="Consolas,Consolas_MSFontService,sans-serif" font-weight="400" font-size="11" transform="translate(371.92 132)">Data Type<tspan font-size="8" x="-17.2467" y="10">*Domain Name</tspan><tspan font-size="8" x="-17.2467" y="20">*Name</tspan><tspan font-size="8" x="-12.9133" y="30">Description</tspan></text><path d="M0 0 129.744 0.000104987" stroke="#000000" stroke-width="0.666667" stroke-miterlimit="8" fill="none" fill-rule="evenodd" transform="matrix(-1 0 0 1 345.244 144.5)"/><text font-family="Calibri,Calibri_MSFontService,sans-serif" font-weight="400" font-size="11" transform="translate(386.6 200)">R3<tspan font-size="8" x="3.89145" y="-21">1</tspan><tspan font-size="8" x="17.0728" y="-19">specify</tspan><tspan font-size="8" x="15.6047" y="13">*</tspan></text><path d="M398.5 170.5 398.5 215.243" stroke="#000000" stroke-width="0.666667" stroke-miterlimit="8" fill="none" fill-rule="evenodd"/><text font-family="Calibri,Calibri_MSFontService,sans-serif" font-weight="400" font-size="11" transform="translate(274.532 136)">R20<tspan font-size="8" x="-55.8067" y="4">1</tspan><tspan font-size="8" x="52.6764" y="2">1..*</tspan></text><rect x="532.5" y="198.5" width="120" height="36" stroke="#000000" stroke-width="1.33333" stroke-miterlimit="8" fill="#FFFFFF"/><text font-family="Consolas,Consolas_MSFontService,sans-serif" font-weight="400" font-size="11" transform="translate(545.032 213)">String Data Type<tspan font-size="8" x="4.25336" y="10">Pattern</tspan></text><rect x="532.5" y="243.5" width="120" height="53" stroke="#000000" stroke-width="1.33333" stroke-miterlimit="8" fill="#FFFFFF"/><text font-family="Consolas,Consolas_MSFontService,sans-serif" font-weight="400" font-size="11" transform="translate(545.032 258)">Number Data Type<tspan font-size="8" x="4.25336" y="10">Unit</tspan><tspan font-size="8" x="4.25336" y="20">Kind</tspan><tspan font-size="8" x="4.25336" y="29">Domain</tspan></text><rect x="532.5" y="304.5" width="106" height="22" stroke="#000000" stroke-width="1.33333" stroke-miterlimit="8" fill="#FFFFFF"/><text font-family="Consolas,Consolas_MSFontService,sans-serif" font-weight="400" font-size="11" transform="translate(543.98 319)">Enum Data Type<tspan font-family="Calibri,Calibri_MSFontService,sans-serif" font-size="8" x="-89.5237" y="-158">{complete, </tspan><tspan font-family="Calibri,Calibri_MSFontService,sans-serif" font-size="8" x="-89.5237" y="-148">disjoint}</tspan></text><path d="M464.5 152.5 452.5 145.5 464.5 138.5Z" stroke="#000000" stroke-width="1.33333" stroke-miterlimit="8" fill="none" fill-rule="evenodd"/><path d="M532.268 216.641 498.384 216.641 498.384 145.5 464.5 145.5" stroke="#000000" stroke-width="0.666667" stroke-miterlimit="8" fill="none" fill-rule="evenodd"/><path d="M532.268 269.653 498.384 269.653 498.384 145.5 464.5 145.5" stroke="#000000" stroke-width="0.666667" stroke-miterlimit="8" fill="none" fill-rule="evenodd"/><path d="M532.268 315.599 498.384 315.599 498.384 145.5 464.5 145.5" stroke="#000000" stroke-width="0.666667" stroke-miterlimit="8" fill="none" fill-rule="evenodd"/><text font-family="Calibri,Calibri_MSFontService,sans-serif" font-weight="400" font-size="11" transform="translate(464.453 132)">R21</text><rect x="532.5" y="339.5" width="106" height="62" stroke="#000000" stroke-width="1.33333" stroke-miterlimit="8" fill="#FFFFFF"/><text font-family="Consolas,Consolas_MSFontService,sans-serif" font-weight="400" font-size="11" transform="translate(555.618 354)">Enum Value<tspan font-size="8" x="-14.3333" y="10">*Domain Name</tspan><tspan font-size="8" x="-14.3333" y="20">*Data Type Name</tspan><tspan font-size="8" x="-14.3333" y="30">*Name</tspan><tspan font-size="8" x="-6.33331" y="39">Description</tspan></text><path d="M0 0 24.0001 0 24.0001 54.6858 0.000104987 54.6858" stroke="#000000" stroke-width="0.666667" stroke-miterlimit="8" fill="none" fill-rule="evenodd" transform="matrix(1 0 0 -1 638.5 370.186)"/><text font-family="Calibri,Calibri_MSFontService,sans-serif" font-weight="400" font-size="8" transform="translate(641.016 312)">1<tspan font-size="8" x="-0.598999" y="67">1..*</tspan><tspan font-size="8" x="0.943298" y="54">values</tspan><tspan font-size="11" x="1.28711" y="29">R22</tspan></text><rect x="313.5" y="356.5" width="106" height="56" stroke="#000000" stroke-width="1.33333" stroke-miterlimit="8" fill="#FFFFFF"/><text font-family="Consolas,Consolas_MSFontService,sans-serif" font-weight="400" font-size="11" transform="translate(331.095 371)">Relationship<tspan font-size="8" x="-8.5" y="10">*Domain Name</tspan><tspan font-family="Yu Gothic,Yu Gothic_MSFontService,sans-serif" font-size="8" x="43.5" y="10">名</tspan><tspan font-size="8" x="-8.5" y="20">*Name</tspan><tspan font-size="8" x="-0.5" y="29">Description</tspan></text><rect x="172.5" y="533.5" width="141" height="43" stroke="#000000" stroke-width="1.33333" stroke-miterlimit="8" fill="#FFFFFF"/><text font-family="Consolas,Consolas_MSFontService,sans-serif" font-weight="400" font-size="11" transform="translate(184.272 548)">Side of Relationship<tspan font-size="8" x="5.58667" y="10">Multiplicity</tspan><tspan font-size="8" x="5.58667" y="20">Mean</tspan></text><rect x="172.5" y="398.5" width="106" height="31" stroke="#000000" stroke-width="1.33333" stroke-miterlimit="8" fill="#FFFFFF"/><text font-family="Consolas,Consolas_MSFontService,sans-serif" font-weight="400" font-size="11" transform="translate(207.154 413)">Binary <tspan font-size="11" x="-17.5" y="13">Relationship</tspan></text><rect x="172.5" y="351.5" width="106" height="31" stroke="#000000" stroke-width="1.33333" stroke-miterlimit="8" fill="#FFFFFF"/><text font-family="Consolas,Consolas_MSFontService,sans-serif" font-weight="400" font-size="11" transform="translate(198.563 366)">Super Sub <tspan font-size="11" x="-8.74666" y="13">Relationship</tspan></text><path d="M0 11 7 0 14 11Z" stroke="#000000" stroke-width="1.33333" stroke-miterlimit="8" fill="none" fill-rule="evenodd" transform="matrix(-6.12323e-17 -1 -1 6.12323e-17 313.5 391.5)"/><path d="M302.304 384.267 290.402 384.267 290.402 366.5 278.5 366.5" stroke="#000000" stroke-width="0.666667" stroke-miterlimit="8" fill="none" fill-rule="evenodd"/><path d="M0 0 11.9832 0 11.9832 29.7491 23.9664 29.7491" stroke="#000000" stroke-width="0.666667" stroke-miterlimit="8" fill="none" fill-rule="evenodd" transform="matrix(-1 1.22465e-16 1.22465e-16 1 302.466 384.5)"/><text font-family="Calibri,Calibri_MSFontService,sans-serif" font-weight="400" font-size="8" transform="translate(223.824 393)">{complete, disjoint}<tspan font-size="11" x="67.125" y="-24">R10</tspan></text><path d="M0 0 89.8848 0 89.8848 48.2159" stroke="#000000" stroke-width="0.666667" stroke-miterlimit="8" fill="none" fill-rule="evenodd" transform="matrix(-1.83697e-16 -1 -1 1.83697e-16 263.716 351.385)"/><path d="M171.741 414.269 123.5 414.269 123.5 272.5" stroke="#000000" stroke-width="0.666667" stroke-miterlimit="8" fill="none" fill-rule="evenodd"/><path d="M172.686 555.27 85.5004 555.27 85.5004 246.5 109.5 246.5" stroke="#000000" stroke-width="0.666667" stroke-miterlimit="8" fill="none" fill-rule="evenodd"/><path d="M164.5 475.665 164.5 452.582 195.281 452.582 195.281 429.5" stroke="#000000" stroke-width="0.666667" stroke-miterlimit="8" fill="none" fill-rule="evenodd"/><path d="M0 0 23.0815 0 23.0815 29.0301 46.163 29.0301" stroke="#000000" stroke-width="0.666667" stroke-miterlimit="8" fill="none" fill-rule="evenodd" transform="matrix(-1.83697e-16 -1 -1 1.83697e-16 286.53 475.663)"/><text font-family="Calibri,Calibri_MSFontService,sans-serif" font-weight="400" font-size="11" transform="translate(267.538 302)">R11<tspan font-size="11" x="-99.4382" y="38">R12</tspan><tspan font-size="8" x="-48.408" y="-43">1</tspan><tspan font-size="8" x="-48.7901" y="-30">Super class</tspan><tspan font-size="8" x="-70.985" y="35">1..*</tspan><tspan font-size="8" x="-109.171" y="-20">Sub class</tspan><tspan font-size="8" x="-71.7048" y="1">*</tspan></text><rect x="139.5" y="306.5" width="107" height="23" stroke="#000000" stroke-width="1.33333" stroke-miterlimit="8" fill="#FFFFFF"/><text font-family="Consolas,Consolas_MSFontService,sans-serif" font-weight="400" font-size="11" transform="translate(169.067 320)">Sub Side</text><path d="M186.5 351.491 186.5 340.496 193.249 340.496 193.249 329.5" stroke="#000000" stroke-width="0.666667" stroke-miterlimit="8" fill="none" fill-rule="evenodd"/><path d="M192.5 306.091 192.5 289.296 193.827 289.296 193.827 272.5" stroke="#000000" stroke-width="0.666667" stroke-miterlimit="8" fill="none" fill-rule="evenodd"/><text font-family="Calibri,Calibri_MSFontService,sans-serif" font-weight="400" font-size="8" transform="translate(266.81 347)">*<tspan font-size="8" x="-69.888" y="-68">1</tspan><tspan font-size="8" x="-77.9914" y="1">1</tspan><tspan font-size="11" x="-94.2691" y="-54">R13</tspan><tspan font-size="8" x="-16.0182" y="89">1</tspan><tspan font-size="8" x="-68.7666" y="91">1</tspan><tspan font-size="8" x="25.7456" y="124">1</tspan><tspan font-size="8" x="-112.789" y="123">1</tspan></text><path d="M0 11 6.5 0 13 11Z" stroke="#000000" stroke-width="1.33333" stroke-miterlimit="8" fill="none" fill-rule="evenodd" transform="matrix(1 -1.22465e-16 -1.22465e-16 -1 219.5 533.5)"/><rect x="111.5" y="475.5" width="106" height="31" stroke="#000000" stroke-width="1.33333" stroke-miterlimit="8" fill="#FFFFFF"/><text font-family="Consolas,Consolas_MSFontService,sans-serif" font-weight="400" font-size="11" transform="translate(131.813 490)">One Side of <tspan font-size="11" x="-2.91335" y="13">Relationship</tspan></text><rect x="233.5" y="475.5" width="106" height="31" stroke="#000000" stroke-width="1.33333" stroke-miterlimit="8" fill="#FFFFFF"/><text font-family="Consolas,Consolas_MSFontService,sans-serif" font-weight="400" font-size="11" transform="translate(247.763 490)">Other Side of <tspan font-size="11" x="2.92" y="13">Relationship</tspan></text><path d="M285.793 506.5 285.793 514.325 225.5 514.325 225.5 522.151" stroke="#000000" stroke-width="0.666667" stroke-miterlimit="8" fill="none" fill-rule="evenodd"/><path d="M0 0 7.65297 0 7.65297 61.4871 15.3059 61.4871" stroke="#000000" stroke-width="0.666667" stroke-miterlimit="8" fill="none" fill-rule="evenodd" transform="matrix(1.83697e-16 1 1 -1.83697e-16 164.5 506.5)"/><text font-family="Calibri,Calibri_MSFontService,sans-serif" font-weight="400" font-size="8" transform="translate(241.174 527)">{complete, disjoint}<tspan font-size="11" x="-44.621" y="1">R14</tspan><tspan font-size="11" x="-65.476" y="-80">R15</tspan><tspan font-size="11" x="24.6356" y="-78">R16</tspan><tspan font-size="8" x="-81.5156" y="-104">*</tspan><tspan font-size="8" x="-131.323" y="-245">0..</tspan><tspan font-size="8" x="-123.323" y="-245">1</tspan><tspan font-size="8" x="-77.1893" y="39">*</tspan><tspan font-size="8" x="-145.651" y="-232">Relationship class</tspan><tspan font-size="11" x="-131.341" y="24">R17</tspan><tspan font-size="11" x="-135.453" y="-150">R18</tspan><tspan font-size="8" x="-141.029" y="-287">1</tspan><tspan font-size="8" x="-101.375" y="23">linked by</tspan></text><rect x="532.5" y="126.5" width="120" height="26" stroke="#000000" stroke-width="1.33333" stroke-miterlimit="8" fill="#FFFFFF"/><text font-family="Consolas,Consolas_MSFontService,sans-serif" font-weight="400" font-size="11" transform="translate(542.177 141)">Complex Data Type</text><path d="M0 0 33.8837 0 33.8837 6.12819 67.7673 6.12819" stroke="#000000" stroke-width="0.666667" stroke-miterlimit="8" fill="none" fill-rule="evenodd" transform="matrix(-1 1.22465e-16 1.22465e-16 1 532.267 139.5)"/><path d="M0 0 32.7038 0 32.7038 193.559 8.70373 193.559" stroke="#000000" stroke-width="0.666667" stroke-miterlimit="8" fill="none" fill-rule="evenodd" transform="matrix(-1.83697e-16 -1 -1 1.83697e-16 592.059 126.204)"/><text font-family="Calibri,Calibri_MSFontService,sans-serif" font-weight="400" font-size="8" transform="translate(594.604 124)">*<tspan font-size="8" x="-189.836" y="-10">1..*</tspan><tspan font-size="8" x="-37.1582" y="-5">parent</tspan><tspan font-size="8" x="-215.632" y="-12">child</tspan><tspan font-size="11" x="-121.024" y="-41">R23</tspan><tspan font-family="Yu Gothic,Yu Gothic_MSFontService,sans-serif" font-size="16" x="-522.796" y="-76">概念情報モデルの概念情報モデル（抜粋）</tspan><tspan font-family="MS Gothic,MS Gothic_MSFontService,sans-serif" font-size="13" x="-502.189" y="493">※</tspan><tspan font-family="Yu Gothic,Yu Gothic_MSFontService,sans-serif" font-size="13" x="-485.855" y="493">概念クラス名は全て英語で表記</tspan><tspan font-family="MS Gothic,MS Gothic_MSFontService,sans-serif" font-size="13" x="-502.189" y="509">※</tspan><tspan font-family="Yu Gothic,Yu Gothic_MSFontService,sans-serif" font-size="13" x="-485.855" y="509">一部のみを図示化していることに留意</tspan><tspan font-family="MS Gothic,MS Gothic_MSFontService,sans-serif" font-size="13" x="-502.189" y="525">※</tspan><tspan font-family="Yu Gothic,Yu Gothic_MSFontService,sans-serif" font-size="13" x="-485.855" y="525">関係の意味が類推できるものは省略</tspan></text><rect x="532.5" y="163.5" width="120" height="26" stroke="#000000" stroke-width="1.33333" stroke-miterlimit="8" fill="#FFFFFF"/><text font-family="Consolas,Consolas_MSFontService,sans-serif" font-weight="400" font-size="11" transform="translate(542.177 178)">Boolean Data Type</text><path d="M532.267 176.415 498.384 176.415 498.384 145.5 464.5 145.5" stroke="#000000" stroke-width="0.666667" stroke-miterlimit="8" fill="none" fill-rule="evenodd"/><rect x="532.5" y="414.5" width="130" height="26" stroke="#000000" stroke-width="1.33333" stroke-miterlimit="8" fill="#FFFFFF"/><text font-family="Consolas,Consolas_MSFontService,sans-serif" font-weight="400" font-size="11" transform="translate(541.587 429)">Reference Data Type</text><path d="M532.267 427.729 498.384 427.729 498.384 145.5 464.5 145.5" stroke="#000000" stroke-width="0.666667" stroke-miterlimit="8" fill="none" fill-rule="evenodd"/><path d="M0 0-24.0001 0-24.0001 121.535 56.6534 121.535 56.6534 177.752" stroke="#000000" stroke-width="0.666667" stroke-miterlimit="8" fill="none" fill-rule="evenodd" transform="matrix(-6.12323e-17 -1 -1 6.12323e-17 597.252 441.154)"/><text font-family="Calibri,Calibri_MSFontService,sans-serif" font-weight="400" font-size="8" transform="translate(602.153 449)">*<tspan font-size="8" x="-179.631" y="-72">1</tspan><tspan font-size="8" x="-30.9714" y="2">holde</tspan><tspan font-size="8" x="-12.6381" y="2">r</tspan><tspan font-size="11" x="-92.5246" y="32">R24</tspan></text></g></svg>