<svg width="607" height="275" xmlns="http://www.w3.org/2000/svg" xmlns:xlink="http://www.w3.org/1999/xlink" overflow="hidden"><defs><clipPath id="clip0"><rect x="64" y="78" width="607" height="275"/></clipPath><clipPath id="clip1"><rect x="325" y="240" width="26" height="26"/></clipPath><clipPath id="clip2"><rect x="325" y="240" width="26" height="26"/></clipPath><clipPath id="clip3"><rect x="325" y="240" width="26" height="26"/></clipPath></defs><g clip-path="url(#clip0)" transform="translate(-64 -78)"><rect x="65.5001" y="79.5001" width="605" height="273" stroke="#D9D9D9" stroke-width="1.33333" stroke-miterlimit="8" fill="none"/><path d="M124.5 198.544C124.5 195.206 127.206 192.5 130.544 192.5L238.456 192.5C241.794 192.5 244.5 195.206 244.5 198.544L244.5 245.456C244.5 248.794 241.794 251.5 238.456 251.5L130.544 251.5C127.206 251.5 124.5 248.794 124.5 245.456Z" stroke="#5B9BD5" stroke-width="1.33333" stroke-miterlimit="8" fill="#F2F2F2" fill-rule="evenodd" fill-opacity="0.501961"/><text font-family="Yu Gothic,Yu Gothic_MSFontService,sans-serif" font-weight="400" font-size="13" transform="translate(150.741 226)">モジュール</text><path d="M10 0C15.5228-2.54627e-15 20 4.47715 20 10" stroke="#000000" stroke-width="2" stroke-miterlimit="8" fill="none" fill-rule="evenodd" transform="matrix(-1 0 0 1 319 212)"/><path d="M309 232C303.477 232 299 227.523 299 222" stroke="#000000" stroke-width="2" stroke-miterlimit="8" fill="none" fill-rule="evenodd"/><path d="M244 222 299.247 222.114" stroke="#000000" stroke-width="2" stroke-miterlimit="8" fill="none" fill-rule="evenodd"/><path d="M257.5 208.25 257.844 208.25 257.844 213.75 257.5 213.75ZM258.188 208.25 258.875 208.25 258.875 213.75 258.188 213.75ZM259.219 208.25 284 208.25 284 205.5 289.5 211 284 216.5 284 213.75 259.219 213.75Z" stroke="#2F528F" stroke-width="1.33333" stroke-miterlimit="8" fill="#4472C4" fill-rule="evenodd"/><text font-family="Yu Gothic,Yu Gothic_MSFontService,sans-serif" font-weight="400" font-size="13" transform="translate(239.572 180)">メッセージ<tspan font-size="13" x="20" y="16">出力</tspan></text><path d="M381 165C381 160.582 384.582 157 389 157 393.418 157 397 160.582 397 165 397 169.418 393.418 173 389 173 384.582 173 381 169.418 381 165Z" stroke="#000000" stroke-width="2" stroke-miterlimit="8" fill="none" fill-rule="evenodd"/><path d="M327.416 220.913 332.913 220.913 332.913 215.416 338.087 215.416 338.087 220.913 343.584 220.913 343.584 226.087 338.087 226.087 338.087 231.584 332.913 231.584 332.913 226.087 327.416 226.087Z" stroke="#2F528F" stroke-width="1.33333" stroke-miterlimit="8" fill="#4472C4" fill-rule="evenodd"/><path d="M370.5 307.5C366.082 307.5 362.5 306.903 362.5 306.167L362.5 225.333C362.5 224.597 358.918 224 354.5 224 358.918 224 362.5 223.403 362.5 222.667L362.5 141.833C362.5 141.097 366.082 140.5 370.5 140.5" stroke="#000000" stroke-width="0.666667" stroke-miterlimit="8" fill="none" fill-rule="evenodd"/><path d="M448.5 142.544C448.5 139.206 451.206 136.5 454.544 136.5L561.456 136.5C564.794 136.5 567.5 139.206 567.5 142.544L567.5 189.456C567.5 192.794 564.794 195.5 561.456 195.5L454.544 195.5C451.206 195.5 448.5 192.794 448.5 189.456Z" stroke="#5B9BD5" stroke-width="1.33333" stroke-miterlimit="8" fill="#F2F2F2" fill-rule="evenodd" fill-opacity="0.501961"/><text font-family="Yu Gothic,Yu Gothic_MSFontService,sans-serif" font-weight="400" font-size="13" transform="translate(474.235 169)">モジュール</text><path d="M397 165 448.024 165" stroke="#000000" stroke-width="2" stroke-miterlimit="8" fill="none" fill-rule="evenodd"/><path d="M381 232C381 227.582 384.582 224 389 224 393.418 224 397 227.582 397 232 397 236.418 393.418 240 389 240 384.582 240 381 236.418 381 232Z" stroke="#000000" stroke-width="2" stroke-miterlimit="8" fill="none" fill-rule="evenodd"/><path d="M448.5 208.544C448.5 205.206 451.206 202.5 454.544 202.5L561.456 202.5C564.794 202.5 567.5 205.206 567.5 208.544L567.5 255.456C567.5 258.794 564.794 261.5 561.456 261.5L454.544 261.5C451.206 261.5 448.5 258.794 448.5 255.456Z" stroke="#5B9BD5" stroke-width="1.33333" stroke-miterlimit="8" fill="#F2F2F2" fill-rule="evenodd" fill-opacity="0.501961"/><text font-family="Yu Gothic,Yu Gothic_MSFontService,sans-serif" font-weight="400" font-size="13" transform="translate(474.235 236)">モジュール</text><path d="M397 232 448.024 232" stroke="#000000" stroke-width="2" stroke-miterlimit="8" fill="none" fill-rule="evenodd"/><path d="M475 275 475 313.641" stroke="#5B9BD5" stroke-width="8" stroke-miterlimit="8" stroke-dasharray="8 8" fill="none" fill-rule="evenodd"/><path d="M406.5 153.25 406.844 153.25 406.844 158.75 406.5 158.75ZM407.188 153.25 407.875 153.25 407.875 158.75 407.188 158.75ZM408.219 153.25 434 153.25 434 150.5 439.5 156 434 161.5 434 158.75 408.219 158.75Z" stroke="#2F528F" stroke-width="1.33333" stroke-miterlimit="8" fill="#4472C4" fill-rule="evenodd"/><text font-family="Yu Gothic,Yu Gothic_MSFontService,sans-serif" font-weight="400" font-size="13" transform="translate(389.175 125)">メッセージ<tspan font-size="13" x="20" y="16">転送</tspan></text><path d="M406.5 220.25 406.844 220.25 406.844 225.75 406.5 225.75ZM407.188 220.25 407.875 220.25 407.875 225.75 407.188 225.75ZM408.219 220.25 434 220.25 434 217.5 439.5 223 434 228.5 434 225.75 408.219 225.75Z" stroke="#2F528F" stroke-width="1.33333" stroke-miterlimit="8" fill="#4472C4" fill-rule="evenodd"/><text font-family="Yu Gothic,Yu Gothic_MSFontService,sans-serif" font-weight="400" font-size="13" transform="translate(490.666 298)">いくらでも後付け可能</text><g clip-path="url(#clip1)"><g clip-path="url(#clip2)"><g clip-path="url(#clip3)"><path d="M348.26 248.578 333.768 248.578 333.768 247.053C333.768 244.714 335.671 242.811 338.01 242.811 340.17 242.811 341.958 244.435 342.218 246.526L345.043 246.526C344.773 242.882 341.722 240 338.01 240 334.121 240 330.957 243.164 330.957 247.053L330.957 248.578 327.74 248.578C326.586 248.578 325.668 249.544 325.727 250.696L326.458 264.087C326.512 265.159 327.397 266 328.471 266L347.529 266C348.603 266 349.488 265.159 349.542 264.087L350.273 250.696C350.332 249.544 349.414 248.578 348.26 248.578ZM339.047 257.358 339.047 260.276C339.047 260.778 338.636 261.189 338.134 261.189 337.631 261.189 337.22 260.778 337.22 260.276L337.22 257.358C336.632 257.034 336.229 256.415 336.229 255.697 336.229 254.645 337.082 253.792 338.134 253.792 339.185 253.792 340.038 254.645 340.038 255.697 340.038 256.416 339.635 257.034 339.047 257.358Z" fill="#4472C4"/></g></g></g><text font-family="Yu Gothic,Yu Gothic_MSFontService,sans-serif" font-weight="400" font-size="13" transform="translate(283.927 272)">適切な<tspan font-size="13" x="-13.3333" y="16">アクセス権</tspan></text></g></svg>