<svg width="607" height="923" xmlns="http://www.w3.org/2000/svg" xmlns:xlink="http://www.w3.org/1999/xlink" overflow="hidden"><defs><clipPath id="clip0"><rect x="66" y="57" width="607" height="923"/></clipPath><clipPath id="clip1"><rect x="177" y="103" width="415" height="178"/></clipPath><clipPath id="clip2"><rect x="177" y="103" width="416" height="178"/></clipPath><clipPath id="clip3"><rect x="133" y="74" width="481" height="227"/></clipPath><clipPath id="clip4"><rect x="133" y="74" width="481" height="227"/></clipPath></defs><g clip-path="url(#clip0)" transform="translate(-66 -57)"><rect x="506" y="749" width="120" height="207" fill="#F2F2F2"/><text font-family="Yu Gothic,Yu Gothic_MSFontService,sans-serif" font-weight="400" font-size="16" transform="translate(515.786 769)">関係の凡例</text><rect x="174" y="80" width="390" height="207" fill="#F2F2F2"/><text font-family="Yu Gothic,Yu Gothic_MSFontService,sans-serif" font-weight="400" font-size="16" transform="translate(183.441 100)">商品販売</text><path d="M379.5 396.834C379.5 386.156 388.156 377.5 398.834 377.5L476.166 377.5C486.844 377.5 495.5 386.156 495.5 396.834L495.5 664.166C495.5 674.844 486.844 683.5 476.166 683.5L398.834 683.5C388.156 683.5 379.5 674.844 379.5 664.166Z" stroke="#2F528F" stroke-width="0.333333" stroke-miterlimit="8" fill="#F2F2F2" fill-rule="evenodd"/><text font-family="Calibri,Calibri_MSFontService,sans-serif" font-weight="400" font-size="13" transform="translate(393.887 399)">Property</text><path d="M256.5 392.834C256.5 384.365 263.365 377.5 271.834 377.5L333.166 377.5C341.635 377.5 348.5 384.365 348.5 392.834L348.5 600.166C348.5 608.635 341.635 615.5 333.166 615.5L271.834 615.5C263.365 615.5 256.5 608.635 256.5 600.166Z" stroke="#2F528F" stroke-width="0.333333" stroke-miterlimit="8" fill="#F2F2F2" fill-rule="evenodd"/><text font-family="Calibri,Calibri_MSFontService,sans-serif" font-weight="400" font-size="13" transform="translate(269.799 398)">Class</text><path d="M132.5 390.5C132.5 383.32 138.32 377.5 145.5 377.5L211.5 377.5C218.68 377.5 224.5 383.32 224.5 390.5L224.5 442.5C224.5 449.68 218.68 455.5 211.5 455.5L145.5 455.5C138.32 455.5 132.5 449.68 132.5 442.5Z" stroke="#2F528F" stroke-width="0.333333" stroke-miterlimit="8" fill="#F2F2F2" fill-rule="evenodd"/><text font-family="Calibri,Calibri_MSFontService,sans-serif" font-weight="400" font-size="13" transform="translate(144.979 398)">Domain</text><rect x="67.5001" y="58.5001" width="605" height="920" stroke="#D9D9D9" stroke-width="1.33333" stroke-miterlimit="8" fill="none"/><g clip-path="url(#clip1)"><g clip-path="url(#clip2)"><g clip-path="url(#clip3)"><g clip-path="url(#clip4)"><path d="M46.1419 74.5368 522.546 74.5368 522.546 298.541 46.1419 298.541Z" stroke="#D9D9D9" stroke-width="1.05166" stroke-miterlimit="8" fill="none" transform="matrix(1.00017 0 0 1 89.6788 1.53663)"/><path d="M109.242 128.172 208.624 128.172 208.624 196.793 109.242 196.793Z" stroke="#000000" stroke-width="1.05166" stroke-miterlimit="8" fill="#FFFFFF" transform="matrix(1.00017 0 0 1 89.6788 1.53663)"/><text font-family="Yu Gothic,Yu Gothic_MSFontService,sans-serif" font-weight="400" font-size="13" transform="matrix(0.788884 0 0 0.788748 237.811 142)">顧客<tspan font-family="Consolas,Consolas_MSFontService,sans-serif" font-size="13" x="-40.2467" y="16.4818">*</tspan><tspan font-size="13" x="-32.9133" y="16.4818">顧客</tspan><tspan font-family="Consolas,Consolas_MSFontService,sans-serif" font-size="13" x="-6.24666" y="16.4818">ID</tspan><tspan font-size="13" x="-26.9133" y="31.6958">顧客名</tspan><tspan font-size="13" x="-26.9133" y="48.1776">住所</tspan></text><path d="M356.909 128.172 457.08 128.172 457.08 196.793 356.909 196.793Z" stroke="#000000" stroke-width="1.05166" stroke-miterlimit="8" fill="#FFFFFF" transform="matrix(1.00017 0 0 1 89.6788 1.53663)"/><text font-family="Yu Gothic,Yu Gothic_MSFontService,sans-serif" font-weight="400" font-size="13" transform="matrix(0.788884 0 0 0.788748 485.71 142)">商品<tspan font-family="Consolas,Consolas_MSFontService,sans-serif" font-size="13" x="-40.2467" y="16.4818">*</tspan><tspan font-size="13" x="-32.9133" y="16.4818">商品</tspan><tspan font-size="13" x="-6.91331" y="16.4818">コード</tspan><tspan font-size="13" x="-26.9133" y="31.6958">商品名</tspan><tspan font-size="13" x="-26.9133" y="48.1776">在庫</tspan><tspan font-size="13" x="-26.9133" y="63.3916">単価</tspan></text><path d="M208.624 162.088 356.746 162.088" stroke="#000000" stroke-width="0.525832" stroke-miterlimit="8" fill="none" fill-rule="evenodd" transform="matrix(1.00017 0 0 1 89.6788 1.53663)"/><path d="M0 0 4.82631 37.8759" stroke="#000000" stroke-width="1.5775" stroke-miterlimit="8" stroke-dasharray="1.5775 1.5775" fill="none" fill-rule="evenodd" transform="matrix(1.00017 0 0 -1 367.366 202.683)"/><text font-family="Yu Gothic,Yu Gothic_MSFontService,sans-serif" font-weight="400" font-size="11" transform="matrix(0.788884 0 0 0.788748 307.221 157)">発注者<tspan font-family="Calibri,Calibri_MSFontService,sans-serif" font-size="11" x="-3.70017" y="20.2853">*</tspan><tspan font-family="Calibri,Calibri_MSFontService,sans-serif" font-size="11" x="158.002" y="6.33916">*</tspan><tspan font-size="11" x="125.323" y="20.2853">購入予約</tspan></text><path d="M228.343 201.525 327.725 201.525 327.725 270.146 228.343 270.146Z" stroke="#000000" stroke-width="1.05166" stroke-miterlimit="8" fill="#FFFFFF" transform="matrix(1.00017 0 0 1 89.6788 1.53663)"/><text font-family="Yu Gothic,Yu Gothic_MSFontService,sans-serif" font-weight="400" font-size="13" transform="matrix(0.788884 0 0 0.788748 356.919 216)">注文<tspan font-family="Consolas,Consolas_MSFontService,sans-serif" font-size="13" x="-40.2467" y="16.4818">*</tspan><tspan font-size="13" x="-32.9133" y="16.4818">注文</tspan><tspan font-family="Consolas,Consolas_MSFontService,sans-serif" font-size="13" x="-6.24666" y="16.4818">ID</tspan><tspan font-size="13" x="-26.9133" y="31.6958">個数</tspan><tspan font-size="13" x="-26.9133" y="48.1776">金額</tspan><tspan font-size="16" x="-271.519" y="-158.479">ドメイン</tspan><tspan font-size="16" x="-208.519" y="-158.479">：</tspan><tspan font-size="16" x="-192.519" y="-158.479">商品販売</tspan></text></g></g></g></g><text font-family="Yu Gothic,Yu Gothic_MSFontService,sans-serif" font-weight="400" font-size="13" transform="translate(154.81 434)">商品販売</text><path d="M154.81 434.687 168.06 434.687 181.31 434.687 194.56 434.687 207.81 434.687 207.81 435.687 194.56 435.687 181.31 435.687 168.06 435.687 154.81 435.687Z" fill-rule="evenodd"/><text font-family="Yu Gothic,Yu Gothic_MSFontService,sans-serif" font-weight="400" font-size="13" transform="translate(286.171 434)">顧客</text><path d="M286.171 434.687 292.921 434.687 299.671 434.687 306.421 434.687 313.171 434.687 313.171 435.687 306.421 435.687 299.671 435.687 292.921 435.687 286.171 435.687Z" fill-rule="evenodd"/><text font-family="Yu Gothic,Yu Gothic_MSFontService,sans-serif" font-weight="400" font-size="13" transform="translate(286.171 511)">商品</text><path d="M286.171 511.515 292.921 511.515 299.671 511.515 306.421 511.515 313.171 511.515 313.171 512.515 306.421 512.515 299.671 512.515 292.921 512.515 286.171 512.515Z" fill-rule="evenodd"/><text font-family="Calibri,Calibri_MSFontService,sans-serif" font-weight="400" font-size="13" transform="translate(355.51 153)">R_GS_1<tspan font-family="Yu Gothic,Yu Gothic_MSFontService,sans-serif" font-size="13" x="-69.3388" y="434">注文</tspan></text><path d="M286.171 588.344 292.921 588.344 299.671 588.344 306.421 588.344 313.171 588.344 313.171 589.344 306.421 589.344 299.671 589.344 292.921 589.344 286.171 589.344Z" fill-rule="evenodd"/><text font-family="Yu Gothic,Yu Gothic_MSFontService,sans-serif" font-weight="400" font-size="13" transform="translate(405.653 434)">顧客<tspan font-family="Calibri,Calibri_MSFontService,sans-serif" font-size="13" x="26.6667" y="0">ID</tspan></text><path d="M405.653 434.687 415.153 434.687 424.653 434.687 434.153 434.687 443.653 434.687 443.653 435.687 434.153 435.687 424.653 435.687 415.153 435.687 405.653 435.687Z" fill-rule="evenodd"/><text font-family="Yu Gothic,Yu Gothic_MSFontService,sans-serif" font-weight="400" font-size="13" transform="translate(405.653 460)">顧客名</text><path d="M405.653 460.537 415.653 460.537 425.653 460.537 435.653 460.537 445.653 460.537 445.653 461.537 435.653 461.537 425.653 461.537 415.653 461.537 405.653 461.537Z" fill-rule="evenodd"/><text font-family="Yu Gothic,Yu Gothic_MSFontService,sans-serif" font-weight="400" font-size="13" transform="translate(405.653 485)">住所</text><path d="M405.653 486.387 412.403 486.387 419.153 486.387 425.903 486.387 432.653 486.387 432.653 487.387 425.903 487.387 419.153 487.387 412.403 487.387 405.653 487.387Z" fill-rule="evenodd"/><text font-family="Yu Gothic,Yu Gothic_MSFontService,sans-serif" font-weight="400" font-size="13" transform="translate(405.653 511)">商品コード</text><path d="M405.653 511.708 422.403 511.708 439.153 511.708 455.903 511.708 472.653 511.708 472.653 512.708 455.903 512.708 439.153 512.708 422.403 512.708 405.653 512.708Z" fill-rule="evenodd"/><text font-family="Yu Gothic,Yu Gothic_MSFontService,sans-serif" font-weight="400" font-size="13" transform="translate(405.653 537)">商品名</text><path d="M405.653 537.557 415.653 537.557 425.653 537.557 435.653 537.557 445.653 537.557 445.653 538.557 435.653 538.557 425.653 538.557 415.653 538.557 405.653 538.557Z" fill-rule="evenodd"/><text font-family="Yu Gothic,Yu Gothic_MSFontService,sans-serif" font-weight="400" font-size="13" transform="translate(405.653 562)">在庫</text><path d="M405.653 563.407 412.403 563.407 419.153 563.407 425.903 563.407 432.653 563.407 432.653 564.407 425.903 564.407 419.153 564.407 412.403 564.407 405.653 564.407Z" fill-rule="evenodd"/><text font-family="Yu Gothic,Yu Gothic_MSFontService,sans-serif" font-weight="400" font-size="13" transform="translate(405.653 588)">単価</text><path d="M405.653 588.728 412.403 588.728 419.153 588.728 425.903 588.728 432.653 588.728 432.653 589.728 425.903 589.728 419.153 589.728 412.403 589.728 405.653 589.728Z" fill-rule="evenodd"/><text font-family="Yu Gothic,Yu Gothic_MSFontService,sans-serif" font-weight="400" font-size="13" transform="translate(405.653 614)">注文<tspan font-family="Calibri,Calibri_MSFontService,sans-serif" font-size="13" x="26.6667" y="0">ID</tspan></text><path d="M405.653 614.578 415.153 614.578 424.653 614.578 434.153 614.578 443.653 614.578 443.653 615.578 434.153 615.578 424.653 615.578 415.153 615.578 405.653 615.578Z" fill-rule="evenodd"/><text font-family="Yu Gothic,Yu Gothic_MSFontService,sans-serif" font-weight="400" font-size="13" transform="translate(405.653 639)">個数</text><path d="M405.653 640.428 412.403 640.428 419.153 640.428 425.903 640.428 432.653 640.428 432.653 641.428 425.903 641.428 419.153 641.428 412.403 641.428 405.653 641.428Z" fill-rule="evenodd"/><text font-family="Yu Gothic,Yu Gothic_MSFontService,sans-serif" font-weight="400" font-size="13" transform="translate(405.653 665)">金額</text><path d="M405.653 666.278 412.403 666.278 419.153 666.278 425.903 666.278 432.653 666.278 432.653 667.278 425.903 667.278 419.153 667.278 412.403 667.278 405.653 667.278Z" fill-rule="evenodd"/><path d="M0 0 58.1197 0.000104987" stroke="#44546A" stroke-width="1.33333" stroke-miterlimit="8" fill="none" fill-rule="evenodd" transform="matrix(1 0 0 -1 218.5 430.5)"/><path d="M218.5 430.5 276.62 507.328" stroke="#44546A" stroke-width="1.33333" stroke-miterlimit="8" fill="none" fill-rule="evenodd"/><path d="M218.5 430.5 276.62 584.156" stroke="#44546A" stroke-width="1.33333" stroke-miterlimit="8" fill="none" fill-rule="evenodd"/><path d="M323.5 430.5 396.667 430.5" stroke="#4472C4" stroke-width="1.33333" stroke-miterlimit="8" fill="none" fill-rule="evenodd"/><path d="M323.5 430.5 396.667 456.35" stroke="#4472C4" stroke-width="1.33333" stroke-miterlimit="8" fill="none" fill-rule="evenodd"/><path d="M323.5 430.5 396.667 482.2" stroke="#4472C4" stroke-width="1.33333" stroke-miterlimit="8" fill="none" fill-rule="evenodd"/><path d="M323.5 507.5 396.667 507.692" stroke="#4472C4" stroke-width="1.33333" stroke-miterlimit="8" fill="none" fill-rule="evenodd"/><path d="M323.5 507.5 396.667 533.542" stroke="#4472C4" stroke-width="1.33333" stroke-miterlimit="8" fill="none" fill-rule="evenodd"/><path d="M323.5 507.5 396.667 559.392" stroke="#4472C4" stroke-width="1.33333" stroke-miterlimit="8" fill="none" fill-rule="evenodd"/><path d="M323.5 507.5 396.667 584.713" stroke="#4472C4" stroke-width="1.33333" stroke-miterlimit="8" fill="none" fill-rule="evenodd"/><path d="M323.5 583.5 396.667 609.734" stroke="#4472C4" stroke-width="1.33333" stroke-miterlimit="8" fill="none" fill-rule="evenodd"/><path d="M323.5 583.5 396.667 635.584" stroke="#4472C4" stroke-width="1.33333" stroke-miterlimit="8" fill="none" fill-rule="evenodd"/><path d="M323.5 583.5 396.667 661.434" stroke="#4472C4" stroke-width="1.33333" stroke-miterlimit="8" fill="none" fill-rule="evenodd"/><path d="M525.5 398.167C525.5 386.753 534.753 377.5 546.167 377.5L628.833 377.5C640.247 377.5 649.5 386.753 649.5 398.167L649.5 562.833C649.5 574.247 640.247 583.5 628.833 583.5L546.167 583.5C534.753 583.5 525.5 574.247 525.5 562.833Z" stroke="#2F528F" stroke-width="0.333333" stroke-miterlimit="8" fill="#F2F2F2" fill-rule="evenodd"/><text font-family="Calibri,Calibri_MSFontService,sans-serif" font-weight="400" font-size="13" transform="translate(540.365 400)">String Data Type<tspan font-family="Yu Gothic,Yu Gothic_MSFontService,sans-serif" font-size="13" x="7.73962" y="34">顧客</tspan><tspan font-size="13" x="34.4063" y="34">ID</tspan></text><path d="M548.105 435.216 557.605 435.216 567.105 435.216 576.605 435.216 586.105 435.216 586.105 436.216 576.605 436.216 567.105 436.216 557.605 436.216 548.105 436.216Z" fill-rule="evenodd"/><text font-family="Yu Gothic,Yu Gothic_MSFontService,sans-serif" font-weight="400" font-size="13" transform="translate(548.105 460)">顧客名</text><path d="M548.105 461.066 558.105 461.066 568.105 461.066 578.105 461.066 588.105 461.066 588.105 462.066 578.105 462.066 568.105 462.066 558.105 462.066 548.105 462.066Z" fill-rule="evenodd"/><text font-family="Yu Gothic,Yu Gothic_MSFontService,sans-serif" font-weight="400" font-size="13" transform="translate(548.105 486)">住所</text><path d="M548.105 486.916 554.855 486.916 561.605 486.916 568.355 486.916 575.105 486.916 575.105 487.916 568.355 487.916 561.605 487.916 554.855 487.916 548.105 487.916Z" fill-rule="evenodd"/><text font-family="Yu Gothic,Yu Gothic_MSFontService,sans-serif" font-weight="400" font-size="13" transform="translate(548.105 511)">商品コード</text><path d="M548.105 512.237 564.855 512.237 581.605 512.237 598.355 512.237 615.105 512.237 615.105 513.237 598.355 513.237 581.605 513.237 564.855 513.237 548.105 513.237Z" fill-rule="evenodd"/><text font-family="Yu Gothic,Yu Gothic_MSFontService,sans-serif" font-weight="400" font-size="13" transform="translate(548.301 537)">商品名</text><path d="M548.301 538.087 558.301 538.087 568.301 538.087 578.301 538.087 588.301 538.087 588.301 539.087 578.301 539.087 568.301 539.087 558.301 539.087 548.301 539.087Z" fill-rule="evenodd"/><path d="M454.5 430.5 539.025 431.03" stroke="#ED7D31" stroke-width="1.33333" stroke-miterlimit="8" fill="none" fill-rule="evenodd"/><path d="M456.5 456.5 539.174 457.03" stroke="#ED7D31" stroke-width="1.33333" stroke-miterlimit="8" fill="none" fill-rule="evenodd"/><path d="M442.5 482.5 538.638 483.03" stroke="#ED7D31" stroke-width="1.33333" stroke-miterlimit="8" fill="none" fill-rule="evenodd"/><path d="M483.5 507.5 539.247 508.03" stroke="#ED7D31" stroke-width="1.33333" stroke-miterlimit="8" fill="none" fill-rule="evenodd"/><path d="M456.5 533.5 539.37 534.029" stroke="#ED7D31" stroke-width="1.33333" stroke-miterlimit="8" fill="none" fill-rule="evenodd"/><text font-family="Yu Gothic,Yu Gothic_MSFontService,sans-serif" font-weight="400" font-size="13" transform="translate(548.105 563)">注文<tspan font-family="Calibri,Calibri_MSFontService,sans-serif" font-size="13" x="26.6667" y="0">ID</tspan></text><path d="M548.105 563.937 557.605 563.937 567.105 563.937 576.605 563.937 586.105 563.937 586.105 564.937 576.605 564.937 567.105 564.937 557.605 564.937 548.105 564.937Z" fill-rule="evenodd"/><path d="M0 0 84.5251 50.6412" stroke="#ED7D31" stroke-width="1.33333" stroke-miterlimit="8" fill="none" fill-rule="evenodd" transform="matrix(1 0 0 -1 454.5 610.141)"/><path d="M525.5 618.667C525.5 608.634 533.634 600.5 543.667 600.5L642.333 600.5C652.366 600.5 660.5 608.634 660.5 618.667L660.5 691.333C660.5 701.366 652.366 709.5 642.333 709.5L543.667 709.5C533.634 709.5 525.5 701.366 525.5 691.333Z" stroke="#2F528F" stroke-width="0.333333" stroke-miterlimit="8" fill="#F2F2F2" fill-rule="evenodd"/><text font-family="Calibri,Calibri_MSFontService,sans-serif" font-weight="400" font-size="13" transform="translate(539.627 622)">Numeric<tspan font-size="13" x="49.3334" y="0">Data</tspan><tspan font-size="13" x="77.6667" y="0">Typ</tspan>e<tspan font-family="Yu Gothic,Yu Gothic_MSFontService,sans-serif" font-size="13" x="8.97211" y="27">個数</tspan></text><path d="M548.599 650.157 555.349 650.157 562.099 650.157 568.849 650.157 575.599 650.157 575.599 651.157 568.849 651.157 562.099 651.157 555.349 651.157 548.599 651.157Z" fill-rule="evenodd"/><text font-family="Yu Gothic,Yu Gothic_MSFontService,sans-serif" font-weight="400" font-size="13" transform="translate(548.105 675)">金額</text><path d="M548.105 675.918 554.855 675.918 561.605 675.918 568.355 675.918 575.105 675.918 575.105 676.918 568.355 676.918 561.605 676.918 554.855 676.918 548.105 676.918Z" fill-rule="evenodd"/><path d="M442.5 559.5 539.132 646.249" stroke="#ED7D31" stroke-width="1.33333" stroke-miterlimit="8" fill="none" fill-rule="evenodd"/><path d="M442.5 636.5 539.132 646.229" stroke="#ED7D31" stroke-width="1.33333" stroke-miterlimit="8" fill="none" fill-rule="evenodd"/><path d="M442.5 661.5 538.638 671.141" stroke="#ED7D31" stroke-width="1.33333" stroke-miterlimit="8" fill="none" fill-rule="evenodd"/><path d="M224.5 807C224.5 801.201 229.201 796.5 235 796.5L350 796.5C355.799 796.5 360.5 801.201 360.5 807L360.5 849C360.5 854.799 355.799 859.5 350 859.5L235 859.5C229.201 859.5 224.5 854.799 224.5 849Z" stroke="#2F528F" stroke-width="0.333333" stroke-miterlimit="8" fill="#F2F2F2" fill-rule="evenodd"/><text font-family="Calibri,Calibri_MSFontService,sans-serif" font-weight="400" font-size="13" transform="translate(237.031 816)">Binary Relationship<tspan font-size="13" x="10.5527" y="20">R_GS_1</tspan></text><path d="M247.583 837.431 258.083 837.431 268.583 837.431 279.083 837.431 289.583 837.431 289.583 838.431 279.083 838.431 268.583 838.431 258.083 838.431 247.583 838.431Z" fill-rule="evenodd"/><path d="M131.5 708.334C131.5 701.246 137.246 695.5 144.334 695.5L248.667 695.5C255.754 695.5 261.5 701.246 261.5 708.334L261.5 759.667C261.5 766.754 255.754 772.5 248.667 772.5L144.334 772.5C137.246 772.5 131.5 766.754 131.5 759.667Z" stroke="#2F528F" stroke-width="0.333333" stroke-miterlimit="8" fill="#F2F2F2" fill-rule="evenodd"/><text font-family="Calibri,Calibri_MSFontService,sans-serif" font-weight="400" font-size="13" transform="translate(144.011 716)">One Side of <tspan font-size="13" x="0" y="16">Relationship</tspan><tspan font-size="13" x="9.88347" y="41">R_GS_1</tspan><tspan font-family="Yu Gothic,Yu Gothic_MSFontService,sans-serif" font-size="13" x="51.7168" y="41">顧客側</tspan></text><path d="M153.894 757.885 174.394 757.885 194.894 757.885 215.394 757.885 235.894 757.885 235.894 758.885 215.394 758.885 194.894 758.885 174.394 758.885 153.894 758.885Z" fill-rule="evenodd"/><path d="M282.5 708.334C282.5 701.246 288.246 695.5 295.334 695.5L399.667 695.5C406.754 695.5 412.5 701.246 412.5 708.334L412.5 759.667C412.5 766.754 406.754 772.5 399.667 772.5L295.334 772.5C288.246 772.5 282.5 766.754 282.5 759.667Z" stroke="#2F528F" stroke-width="0.333333" stroke-miterlimit="8" fill="#F2F2F2" fill-rule="evenodd"/><text font-family="Calibri,Calibri_MSFontService,sans-serif" font-weight="400" font-size="13" transform="translate(295.158 716)">Other Side of <tspan font-size="13" x="0" y="16">Relationship</tspan><tspan font-size="13" x="9.90298" y="36">R_GS_1</tspan><tspan font-family="Yu Gothic,Yu Gothic_MSFontService,sans-serif" font-size="13" x="51.7363" y="36">商品側</tspan></text><path d="M305.061 753.351 325.561 753.351 346.061 753.351 366.561 753.351 387.061 753.351 387.061 754.351 366.561 754.351 346.061 754.351 325.561 754.351 305.061 754.351Z" fill-rule="evenodd"/><path d="M300.246 596.5 300.246 650.844 106.4 650.844 106.4 832.663 238.5 832.663" stroke="#FF0000" stroke-width="1.33333" stroke-miterlimit="8" fill="none" fill-rule="evenodd"/><path d="M299.935 443.5 299.935 471.663 120.499 471.663 120.499 753.773 144.5 753.773" stroke="#70AD47" stroke-width="1.33333" stroke-miterlimit="8" fill="none" fill-rule="evenodd"/><path d="M299.768 520.5 299.768 541.686 271.5 541.686 271.5 749.41 295.5 749.41" stroke="#70AD47" stroke-width="1.33333" stroke-miterlimit="8" fill="none" fill-rule="evenodd"/><text font-family="Yu Gothic,Yu Gothic_MSFontService,sans-serif" font-weight="400" font-size="16" transform="translate(119.477 353)">“概念情報モデルの概念情報モデル”のインスタンスとリンクによる表現</text><path d="M346.5 315 353.75 315 353.75 299.5 368.25 299.5 368.25 315 375.5 315 361 329.5Z" stroke="#AE5A21" stroke-width="1.33333" stroke-miterlimit="8" stroke-opacity="0.501961" fill="#ED7D31" fill-rule="evenodd" fill-opacity="0.501961"/><path d="M535.5 788.5 566.155 788.5" stroke="#44546A" stroke-width="1.33333" stroke-miterlimit="8" fill="none" fill-rule="evenodd"/><text font-family="Calibri,Calibri_MSFontService,sans-serif" font-weight="400" font-size="13" transform="translate(574.346 792)">R1</text><path d="M535.5 814.5 566.155 814.5" stroke="#4472C4" stroke-width="1.33333" stroke-miterlimit="8" fill="none" fill-rule="evenodd"/><text font-family="Calibri,Calibri_MSFontService,sans-serif" font-weight="400" font-size="13" transform="translate(574.346 818)">R2</text><path d="M535.5 840.5 566.155 840.5" stroke="#ED7D31" stroke-width="1.33333" stroke-miterlimit="8" fill="none" fill-rule="evenodd"/><text font-family="Calibri,Calibri_MSFontService,sans-serif" font-weight="400" font-size="13" transform="translate(574.346 844)">R3</text><path d="M535.5 865.5 566.155 865.5" stroke="#5B9BD5" stroke-width="1.33333" stroke-miterlimit="8" fill="none" fill-rule="evenodd"/><text font-family="Calibri,Calibri_MSFontService,sans-serif" font-weight="400" font-size="13" transform="translate(574.346 869)">R15</text><path d="M534.5 915.5 565.155 915.5" stroke="#70AD47" stroke-width="1.33333" stroke-miterlimit="8" fill="none" fill-rule="evenodd"/><text font-family="Calibri,Calibri_MSFontService,sans-serif" font-weight="400" font-size="13" transform="translate(574.042 919)">R17</text><path d="M535.5 941.5 566.155 941.5" stroke="#FF0000" stroke-width="1.33333" stroke-miterlimit="8" fill="none" fill-rule="evenodd"/><text font-family="Calibri,Calibri_MSFontService,sans-serif" font-weight="400" font-size="13" transform="translate(574.346 945)">R18</text><path d="M0 0 26.8485 0 26.8485 128.309 66.6216 128.309 66.6216 104.308" stroke="#5B9BD5" stroke-width="1.33333" stroke-miterlimit="8" fill="none" fill-rule="evenodd" transform="matrix(1.83697e-16 1 1 -1.83697e-16 195.5 766.5)"/><path d="M0 0-23.9995 0-23.9995 121.006 128.683 121.006 128.683 97.0056" stroke="#A5A5A5" stroke-width="1.33333" stroke-miterlimit="8" fill="none" fill-rule="evenodd" transform="matrix(-1 0 0 1 398.183 748.5)"/><path d="M535.5 889.5 566.155 889.5" stroke="#A5A5A5" stroke-width="1.33333" stroke-miterlimit="8" fill="none" fill-rule="evenodd"/><text font-family="Calibri,Calibri_MSFontService,sans-serif" font-weight="400" font-size="13" transform="translate(574.346 893)">R16</text></g></svg>