<svg width="607" height="312" xmlns="http://www.w3.org/2000/svg" xmlns:xlink="http://www.w3.org/1999/xlink" overflow="hidden"><defs><clipPath id="clip0"><rect x="64" y="67" width="607" height="312"/></clipPath><linearGradient x1="494.5" y1="169.5" x2="494.5" y2="237.5" gradientUnits="userSpaceOnUse" spreadMethod="reflect" id="fill1"><stop offset="0" stop-color="#E2F0D9"/><stop offset="0.5" stop-color="#C5E0B4"/><stop offset="1" stop-color="#A9D18E"/></linearGradient><clipPath id="clip2"><rect x="73" y="118" width="237" height="102"/></clipPath><clipPath id="clip3"><rect x="73" y="118" width="237" height="102"/></clipPath><clipPath id="clip4"><rect x="48" y="101" width="275" height="131"/></clipPath><clipPath id="clip5"><rect x="48" y="101" width="275" height="131"/></clipPath><clipPath id="clip6"><rect x="380" y="271" width="55" height="48"/></clipPath><clipPath id="clip7"><rect x="380" y="271" width="55" height="48"/></clipPath><clipPath id="clip8"><rect x="380" y="271" width="55" height="48"/></clipPath><clipPath id="clip9"><rect x="380" y="271" width="55" height="48"/></clipPath><clipPath id="clip10"><rect x="451" y="270" width="73" height="49"/></clipPath><clipPath id="clip11"><rect x="451" y="270" width="73" height="49"/></clipPath><clipPath id="clip12"><rect x="451" y="270" width="73" height="49"/></clipPath><clipPath id="clip13"><rect x="451" y="270" width="73" height="49"/></clipPath><clipPath id="clip14"><rect x="540" y="270" width="92" height="49"/></clipPath><clipPath id="clip15"><rect x="540" y="270" width="92" height="49"/></clipPath><clipPath id="clip16"><rect x="540" y="270" width="92" height="49"/></clipPath><clipPath id="clip17"><rect x="540" y="270" width="92" height="49"/></clipPath><clipPath id="clip18"><rect x="608" y="215" width="25" height="25"/></clipPath><clipPath id="clip19"><rect x="608" y="215" width="25" height="25"/></clipPath><clipPath id="clip20"><rect x="608" y="215" width="25" height="25"/></clipPath><linearGradient x1="611.597" y1="229.111" x2="629.403" y2="229.111" gradientUnits="userSpaceOnUse" spreadMethod="pad" id="fill21"><stop offset="0" stop-color="#005BA1"/><stop offset="0.07" stop-color="#0060A9"/><stop offset="0.36" stop-color="#0071C8"/><stop offset="0.52" stop-color="#0078D4"/><stop offset="0.64" stop-color="#0074CD"/><stop offset="0.82" stop-color="#006ABB"/><stop offset="1" stop-color="#005BA1"/></linearGradient><radialGradient cx="9.36" cy="10.57" r="7.07" gradientUnits="userSpaceOnUse" spreadMethod="pad" id="fill22" gradientTransform="matrix(1.38889 0 0 1.38889 608 215)"><stop offset="0" stop-color="#F2F2F2"/><stop offset="0.58" stop-color="#EEEEEE"/><stop offset="1" stop-color="#E6E6E6"/></radialGradient></defs><g clip-path="url(#clip0)" transform="translate(-64 -67)"><path d="M424.5 177.079 494.5 169.5 564.5 177.079 533.731 177.079 533.731 229.921 564.5 229.921 494.5 237.5 424.5 229.921 455.269 229.921 455.269 177.079Z" stroke="#70AD47" stroke-width="0.666667" stroke-miterlimit="8" fill="url(#fill1)" fill-rule="evenodd"/><rect x="65.5001" y="68.5001" width="605" height="309" stroke="#D9D9D9" stroke-width="1.33333" stroke-miterlimit="8" fill="none"/><g clip-path="url(#clip2)"><g clip-path="url(#clip3)"><g clip-path="url(#clip4)"><g clip-path="url(#clip5)"><path d="M26.3554 42.5741 298.469 42.5741 298.469 170.522 26.3554 170.522Z" stroke="#D9D9D9" stroke-width="0.600691" stroke-miterlimit="8" fill="none" transform="matrix(1 0 0 1.00324 23.1322 59.8581)"/><path d="M62.3969 73.2094 119.162 73.2094 119.162 112.405 62.3969 112.405Z" stroke="#000000" stroke-width="0.600691" stroke-miterlimit="8" fill="#FFFFFF" transform="matrix(1 0 0 1.00324 23.1322 59.8581)"/><text font-family="Yu Gothic,Yu Gothic_MSFontService,sans-serif" font-weight="400" font-size="13" transform="matrix(0.450519 0 0 0.451979 107.728 140)">顧客<tspan font-family="Consolas,Consolas_MSFontService,sans-serif" font-size="13" x="-40.2467" y="17.6999">*</tspan><tspan font-size="13" x="-32.9133" y="17.6999">顧客</tspan><tspan font-family="Consolas,Consolas_MSFontService,sans-serif" font-size="13" x="-6.24666" y="17.6999">ID</tspan><tspan font-size="13" x="-26.9133" y="33.1874">顧客名</tspan><tspan font-size="13" x="-26.9133" y="48.6748">住所</tspan></text><path d="M203.86 73.2094 261.076 73.2094 261.076 112.405 203.86 112.405Z" stroke="#000000" stroke-width="0.600691" stroke-miterlimit="8" fill="#FFFFFF" transform="matrix(1 0 0 1.00324 23.1322 59.8581)"/><text font-family="Yu Gothic,Yu Gothic_MSFontService,sans-serif" font-weight="400" font-size="13" transform="matrix(0.450519 0 0 0.451979 249.3 140)">商品<tspan font-family="Consolas,Consolas_MSFontService,sans-serif" font-size="13" x="-40.2467" y="17.6999">*</tspan><tspan font-size="13" x="-32.9133" y="17.6999">商品</tspan><tspan font-size="13" x="-6.91331" y="17.6999">コード</tspan><tspan font-size="13" x="-26.9133" y="33.1874">商品名</tspan><tspan font-size="13" x="-26.9133" y="48.6748">在庫</tspan><tspan font-size="13" x="-26.9133" y="64.1622">単価</tspan></text><path d="M119.162 92.5817 203.767 92.5817" stroke="#000000" stroke-width="0.300346" stroke-miterlimit="8" fill="none" fill-rule="evenodd" transform="matrix(1 0 0 1.00324 23.1322 59.8581)"/><path d="M0 0 2.7567 21.634" stroke="#000000" stroke-width="0.901038" stroke-miterlimit="8" stroke-dasharray="0.901038 0.901038" fill="none" fill-rule="evenodd" transform="matrix(1 0 0 -1.00324 181.715 175.122)"/><text font-family="Yu Gothic,Yu Gothic_MSFontService,sans-serif" font-weight="400" font-size="11" transform="matrix(0.450519 0 0 0.451979 147.367 149)">発注者<tspan font-family="Calibri,Calibri_MSFontService,sans-serif" font-size="11" x="-3.70016" y="19.9124">*</tspan><tspan font-family="Calibri,Calibri_MSFontService,sans-serif" font-size="11" x="158.002" y="6.63747">*</tspan><tspan font-size="11" x="125.323" y="19.9124">購入予約</tspan></text><path d="M130.425 115.108 187.191 115.108 187.191 154.303 130.425 154.303Z" stroke="#000000" stroke-width="0.600691" stroke-miterlimit="8" fill="#FFFFFF" transform="matrix(1 0 0 1.00324 23.1322 59.8581)"/><text font-family="Yu Gothic,Yu Gothic_MSFontService,sans-serif" font-weight="400" font-size="13" transform="matrix(0.450519 0 0 0.451979 175.749 183)">注文<tspan font-family="Consolas,Consolas_MSFontService,sans-serif" font-size="13" x="-40.2467" y="15.4874">*</tspan><tspan font-size="13" x="-32.9133" y="15.4874">注文</tspan><tspan font-family="Consolas,Consolas_MSFontService,sans-serif" font-size="13" x="-6.24666" y="15.4874">ID</tspan><tspan font-size="13" x="-26.9133" y="30.9749">個数</tspan><tspan font-size="13" x="-26.9133" y="46.4623">金額</tspan><tspan font-size="16" x="-271.519" y="-159.299">ドメイン</tspan><tspan font-size="16" x="-208.519" y="-159.299">：</tspan><tspan font-size="16" x="-192.519" y="-159.299">商品販売</tspan></text></g></g></g></g><text font-family="Yu Gothic,Yu Gothic_MSFontService,sans-serif" font-weight="400" font-size="16" transform="translate(135.764 109)">概念情報モデル</text><path d="M645.5 227.667C645.5 242.118 579.686 253.833 498.5 253.833 417.314 253.833 351.5 242.118 351.5 227.667" stroke="#2F528F" stroke-width="1.33333" stroke-miterlimit="8" stroke-opacity="0.501961" fill="none" fill-rule="evenodd"/><path d="M351.5 227.667C351.5 213.215 417.314 201.5 498.5 201.5 579.686 201.5 645.5 213.215 645.5 227.667L645.5 332.333C645.5 346.785 579.686 358.5 498.5 358.5 417.314 358.5 351.5 346.785 351.5 332.333Z" stroke="#2F528F" stroke-width="1.33333" stroke-miterlimit="8" stroke-opacity="0.501961" fill="none" fill-rule="evenodd"/><text font-family="Calibri,Calibri_MSFontService,sans-serif" font-weight="400" font-size="16" transform="translate(428.649 350)">Relational Database<tspan font-size="13" x="-46.9734" y="-86">customer</tspan><tspan font-size="13" x="140.372" y="-85">goods</tspan><tspan font-size="13" x="43.0588" y="-85">order</tspan><tspan font-family="Yu Gothic,Yu Gothic_MSFontService,sans-serif" font-size="16" x="-54.9544" y="-155">リレーショナルデータベースの</tspan><tspan font-size="16" x="169.046" y="-155">API</tspan></text><g clip-path="url(#clip6)"><g clip-path="url(#clip7)"><g clip-path="url(#clip8)"><g clip-path="url(#clip9)"><path d="M27.9853 126.338 46.103 126.338 46.103 135.721 27.9853 135.721Z" stroke="#000000" stroke-width="0.215686" stroke-miterlimit="8" fill="#FFFFFF" transform="matrix(1 0 0 1.00928 352.5 143.98)"/><text font-family="Yu Gothic,Yu Gothic_MSFontService,sans-serif" font-weight="400" font-size="12" transform="matrix(0.323529 0 0 0.326531 383.959 277)">顧客<tspan font-family="Calibri,Calibri_MSFontService,sans-serif" font-size="12" x="24" y="0">ID</tspan></text><path d="M46.1029 126.338 64.5441 126.338 64.5441 135.721 46.1029 135.721Z" stroke="#000000" stroke-width="0.215686" stroke-miterlimit="8" fill="#FFFFFF" transform="matrix(1 0 0 1.00928 352.5 143.98)"/><text font-family="Yu Gothic,Yu Gothic_MSFontService,sans-serif" font-weight="400" font-size="12" transform="matrix(0.323529 0 0 0.326531 401.83 277)">顧客名</text><path d="M63.8971 126.338 82.3382 126.338 82.3382 135.721 63.8971 135.721Z" stroke="#000000" stroke-width="0.215686" stroke-miterlimit="8" fill="#FFFFFF" transform="matrix(1 0 0 1.00928 352.5 143.98)"/><text font-family="Yu Gothic,Yu Gothic_MSFontService,sans-serif" font-weight="400" font-size="12" transform="matrix(0.323529 0 0 0.326531 421.574 277)">住所</text><path d="M27.9853 135.721 46.103 135.721 46.103 145.103 27.9853 145.103Z" stroke="#000000" stroke-width="0.215686" stroke-miterlimit="8" fill="#FFFFFF" transform="matrix(1 0 0 1.00928 352.5 143.98)"/><text font-family="Calibri,Calibri_MSFontService,sans-serif" font-weight="400" font-size="11" transform="matrix(0.323529 0 0 0.326531 386.008 287)">C<tspan font-size="11" x="6.00005" y="0">003</tspan></text><path d="M46.1029 135.721 64.5441 135.721 64.5441 145.103 46.1029 145.103Z" stroke="#000000" stroke-width="0.215686" stroke-miterlimit="8" fill="#FFFFFF" transform="matrix(1 0 0 1.00928 352.5 143.98)"/><text font-family="Yu Gothic,Yu Gothic_MSFontService,sans-serif" font-weight="400" font-size="11" transform="matrix(0.323529 0 0 0.326531 403.825 287)">概<tspan font-size="11" x="13" y="0">念</tspan></text><path d="M63.8971 135.721 82.3382 135.721 82.3382 145.103 63.8971 145.103Z" stroke="#000000" stroke-width="0.215686" stroke-miterlimit="8" fill="#FFFFFF" transform="matrix(1 0 0 1.00928 352.5 143.98)"/><text font-family="Calibri,Calibri_MSFontService,sans-serif" font-weight="400" font-size="11" transform="matrix(0.323529 0 0 0.326531 422.787 287)">XXX</text><path d="M27.9853 145.103 46.103 145.103 46.103 154.485 27.9853 154.485Z" stroke="#000000" stroke-width="0.215686" stroke-miterlimit="8" fill="#FFFFFF" transform="matrix(1 0 0 1.00928 352.5 143.98)"/><text font-family="Calibri,Calibri_MSFontService,sans-serif" font-weight="400" font-size="11" transform="matrix(0.323529 0 0 0.326531 386.008 296)">C<tspan font-size="11" x="6.00005" y="0">172</tspan></text><path d="M46.1029 145.103 64.5441 145.103 64.5441 154.485 46.1029 154.485Z" stroke="#000000" stroke-width="0.215686" stroke-miterlimit="8" fill="#FFFFFF" transform="matrix(1 0 0 1.00928 352.5 143.98)"/><text font-family="Yu Gothic,Yu Gothic_MSFontService,sans-serif" font-weight="400" font-size="11" transform="matrix(0.323529 0 0 0.326531 402.1 296)">円<tspan font-size="11" x="13.0001" y="0">帝一</tspan></text><path d="M63.8971 145.103 82.3382 145.103 82.3382 154.485 63.8971 154.485Z" stroke="#000000" stroke-width="0.215686" stroke-miterlimit="8" fill="#FFFFFF" transform="matrix(1 0 0 1.00928 352.5 143.98)"/><text font-family="Calibri,Calibri_MSFontService,sans-serif" font-weight="400" font-size="11" transform="matrix(0.323529 0 0 0.326531 422.949 296)">YYY</text><path d="M27.9853 154.485 46.103 154.485 46.103 163.868 27.9853 163.868Z" stroke="#000000" stroke-width="0.215686" stroke-miterlimit="8" fill="#FFFFFF" transform="matrix(1 0 0 1.00928 352.5 143.98)"/><text font-family="Calibri,Calibri_MSFontService,sans-serif" font-weight="400" font-size="11" transform="matrix(0.323529 0 0 0.326531 386.008 306)">C<tspan font-size="11" x="6.00005" y="0">026</tspan></text><path d="M46.1029 154.485 64.5441 154.485 64.5441 163.868 46.1029 163.868Z" stroke="#000000" stroke-width="0.215686" stroke-miterlimit="8" fill="#FFFFFF" transform="matrix(1 0 0 1.00928 352.5 143.98)"/><text font-family="Yu Gothic,Yu Gothic_MSFontService,sans-serif" font-weight="400" font-size="11" transform="matrix(0.323529 0 0 0.326531 402.1 306)">蔵巣<tspan font-size="11" x="23.6668" y="0">抽</tspan></text><path d="M63.8971 154.485 82.3382 154.485 82.3382 163.868 63.8971 163.868Z" stroke="#000000" stroke-width="0.215686" stroke-miterlimit="8" fill="#FFFFFF" transform="matrix(1 0 0 1.00928 352.5 143.98)"/><text font-family="Calibri,Calibri_MSFontService,sans-serif" font-weight="400" font-size="11" transform="matrix(0.323529 0 0 0.326531 423.03 306)">ZZZ</text><path d="M27.9853 163.868 46.103 163.868 46.103 173.25 27.9853 173.25Z" stroke="#000000" stroke-width="0.215686" stroke-miterlimit="8" fill="#FFFFFF" transform="matrix(1 0 0 1.00928 352.5 143.98)"/><text font-family="Yu Gothic,Yu Gothic_MSFontService,sans-serif" font-weight="400" font-size="11" transform="matrix(0.323529 0 0 0.326531 384.336 315)">・・・</text><path d="M46.1029 163.868 64.5441 163.868 64.5441 173.25 46.1029 173.25Z" stroke="#000000" stroke-width="0.215686" stroke-miterlimit="8" fill="#FFFFFF" transform="matrix(1 0 0 1.00928 352.5 143.98)"/><text font-family="Yu Gothic,Yu Gothic_MSFontService,sans-serif" font-weight="400" font-size="11" transform="matrix(0.323529 0 0 0.326531 402.477 315)">・・・</text><path d="M63.8971 163.868 82.3382 163.868 82.3382 173.25 63.8971 173.25Z" stroke="#000000" stroke-width="0.215686" stroke-miterlimit="8" fill="#FFFFFF" transform="matrix(1 0 0 1.00928 352.5 143.98)"/><text font-family="Yu Gothic,Yu Gothic_MSFontService,sans-serif" font-weight="400" font-size="11" transform="matrix(0.323529 0 0 0.326531 420.28 315)">・・・</text></g></g></g></g><g clip-path="url(#clip10)"><g clip-path="url(#clip11)"><g clip-path="url(#clip12)"><g clip-path="url(#clip13)"><path d="M133.564 129.688 151.653 129.688 151.653 139.055 133.564 139.055Z" stroke="#000000" stroke-width="0.215339" stroke-miterlimit="8" fill="#FFFFFF" transform="matrix(1 0 0 1.02499 317.92 137.899)"/><text font-family="Yu Gothic,Yu Gothic_MSFontService,sans-serif" font-weight="400" font-size="11" transform="matrix(0.323009 0 0 0.331081 457.018 275)">商品<tspan font-size="11" x="-5.33334" y="12.0816">コード</tspan></text><path d="M151.653 129.688 169.741 129.688 169.741 139.055 151.653 139.055Z" stroke="#000000" stroke-width="0.215339" stroke-miterlimit="8" fill="#FFFFFF" transform="matrix(1 0 0 1.02499 317.92 137.899)"/><text font-family="Yu Gothic,Yu Gothic_MSFontService,sans-serif" font-weight="400" font-size="12" transform="matrix(0.323009 0 0 0.331081 472.76 277)">商品名</text><path d="M169.418 129.688 187.507 129.688 187.507 139.055 169.418 139.055Z" stroke="#000000" stroke-width="0.215339" stroke-miterlimit="8" fill="#FFFFFF" transform="matrix(1 0 0 1.02499 317.92 137.899)"/><text font-family="Yu Gothic,Yu Gothic_MSFontService,sans-serif" font-weight="400" font-size="12" transform="matrix(0.323009 0 0 0.331081 492.472 277)">在庫</text><path d="M133.564 139.055 151.653 139.055 151.653 148.423 133.564 148.423Z" stroke="#000000" stroke-width="0.215339" stroke-miterlimit="8" fill="#FFFFFF" transform="matrix(1 0 0 1.02499 317.92 137.899)"/><text font-family="Calibri,Calibri_MSFontService,sans-serif" font-weight="400" font-size="11" transform="matrix(0.323009 0 0 0.331081 456.991 286)">P<tspan font-size="11" x="6.00008" y="0">031</tspan></text><path d="M151.653 139.055 169.741 139.055 169.741 148.423 151.653 148.423Z" stroke="#000000" stroke-width="0.215339" stroke-miterlimit="8" fill="#FFFFFF" transform="matrix(1 0 0 1.02499 317.92 137.899)"/><text font-family="Yu Gothic,Yu Gothic_MSFontService,sans-serif" font-weight="400" font-size="9" transform="matrix(0.323009 0 0 0.331081 472.976 286)">ペンシル</text><path d="M169.418 139.055 187.507 139.055 187.507 148.423 169.418 148.423Z" stroke="#000000" stroke-width="0.215339" stroke-miterlimit="8" fill="#FFFFFF" transform="matrix(1 0 0 1.02499 317.92 137.899)"/><text font-family="Calibri,Calibri_MSFontService,sans-serif" font-weight="400" font-size="11" transform="matrix(0.323009 0 0 0.331081 492.903 286)">1000</text><path d="M133.564 148.423 151.653 148.423 151.653 157.79 133.564 157.79Z" stroke="#000000" stroke-width="0.215339" stroke-miterlimit="8" fill="#FFFFFF" transform="matrix(1 0 0 1.02499 317.92 137.899)"/><text font-family="Calibri,Calibri_MSFontService,sans-serif" font-weight="400" font-size="11" transform="matrix(0.323009 0 0 0.331081 456.775 296)">N<tspan font-size="11" x="7.00005" y="0">008</tspan></text><path d="M151.653 148.423 169.741 148.423 169.741 157.79 151.653 157.79Z" stroke="#000000" stroke-width="0.215339" stroke-miterlimit="8" fill="#FFFFFF" transform="matrix(1 0 0 1.02499 317.92 137.899)"/><text font-family="Yu Gothic,Yu Gothic_MSFontService,sans-serif" font-weight="400" font-size="11" transform="matrix(0.323009 0 0 0.331081 475.129 296)">手帳</text><path d="M169.418 148.423 187.507 148.423 187.507 157.79 169.418 157.79Z" stroke="#000000" stroke-width="0.215339" stroke-miterlimit="8" fill="#FFFFFF" transform="matrix(1 0 0 1.02499 317.92 137.899)"/><text font-family="Calibri,Calibri_MSFontService,sans-serif" font-weight="400" font-size="11" transform="matrix(0.323009 0 0 0.331081 493.764 296)">752</text><path d="M133.564 157.79 151.653 157.79 151.653 167.157 133.564 167.157Z" stroke="#000000" stroke-width="0.215339" stroke-miterlimit="8" fill="#FFFFFF" transform="matrix(1 0 0 1.02499 317.92 137.899)"/><text font-family="Calibri,Calibri_MSFontService,sans-serif" font-weight="400" font-size="11" transform="matrix(0.323009 0 0 0.331081 457.152 305)">L<tspan font-size="11" x="4.99993" y="0">012</tspan></text><path d="M151.653 157.79 169.741 157.79 169.741 167.157 151.653 167.157Z" stroke="#000000" stroke-width="0.215339" stroke-miterlimit="8" fill="#FFFFFF" transform="matrix(1 0 0 1.02499 317.92 137.899)"/><text font-family="Yu Gothic,Yu Gothic_MSFontService,sans-serif" font-weight="400" font-size="11" transform="matrix(0.323009 0 0 0.331081 473.406 303)">ルーズ<tspan font-size="11" x="0" y="15.102">リーフ</tspan></text><path d="M169.418 157.79 187.507 157.79 187.507 167.157 169.418 167.157Z" stroke="#000000" stroke-width="0.215339" stroke-miterlimit="8" fill="#FFFFFF" transform="matrix(1 0 0 1.02499 317.92 137.899)"/><text font-family="Calibri,Calibri_MSFontService,sans-serif" font-weight="400" font-size="11" transform="matrix(0.323009 0 0 0.331081 493.764 305)">108</text><path d="M187.507 129.688 205.918 129.688 205.918 139.055 187.507 139.055Z" stroke="#000000" stroke-width="0.215339" stroke-miterlimit="8" fill="#FFFFFF" transform="matrix(1 0 0 1.02499 317.92 137.899)"/><text font-family="Yu Gothic,Yu Gothic_MSFontService,sans-serif" font-weight="400" font-size="12" transform="matrix(0.323009 0 0 0.331081 510.584 277)">単価</text><path d="M187.507 139.055 205.918 139.055 205.918 148.423 187.507 148.423Z" stroke="#000000" stroke-width="0.215339" stroke-miterlimit="8" fill="#FFFFFF" transform="matrix(1 0 0 1.02499 317.92 137.899)"/><text font-family="Calibri,Calibri_MSFontService,sans-serif" font-weight="400" font-size="11" transform="matrix(0.323009 0 0 0.331081 511.876 286)">700</text><path d="M187.507 148.423 205.918 148.423 205.918 157.79 187.507 157.79Z" stroke="#000000" stroke-width="0.215339" stroke-miterlimit="8" fill="#FFFFFF" transform="matrix(1 0 0 1.02499 317.92 137.899)"/><text font-family="Calibri,Calibri_MSFontService,sans-serif" font-weight="400" font-size="11" transform="matrix(0.323009 0 0 0.331081 511.014 296)">3500</text><path d="M187.507 157.79 205.918 157.79 205.918 167.157 187.507 167.157Z" stroke="#000000" stroke-width="0.215339" stroke-miterlimit="8" fill="#FFFFFF" transform="matrix(1 0 0 1.02499 317.92 137.899)"/><text font-family="Calibri,Calibri_MSFontService,sans-serif" font-weight="400" font-size="11" transform="matrix(0.323009 0 0 0.331081 511.014 305)">1400</text><path d="M133.564 167.157 151.653 167.157 151.653 176.524 133.564 176.524Z" stroke="#000000" stroke-width="0.215339" stroke-miterlimit="8" fill="#FFFFFF" transform="matrix(1 0 0 1.02499 317.92 137.899)"/><text font-family="Yu Gothic,Yu Gothic_MSFontService,sans-serif" font-weight="400" font-size="11" transform="matrix(0.323009 0 0 0.331081 455.295 315)">・・・</text><path d="M151.653 167.157 169.741 167.157 169.741 176.524 151.653 176.524Z" stroke="#000000" stroke-width="0.215339" stroke-miterlimit="8" fill="#FFFFFF" transform="matrix(1 0 0 1.02499 317.92 137.899)"/><text font-family="Yu Gothic,Yu Gothic_MSFontService,sans-serif" font-weight="400" font-size="11" transform="matrix(0.323009 0 0 0.331081 473.406 315)">・・・</text><path d="M169.418 167.157 187.507 167.157 187.507 176.524 169.418 176.524Z" stroke="#000000" stroke-width="0.215339" stroke-miterlimit="8" fill="#FFFFFF" transform="matrix(1 0 0 1.02499 317.92 137.899)"/><text font-family="Yu Gothic,Yu Gothic_MSFontService,sans-serif" font-weight="400" font-size="11" transform="matrix(0.323009 0 0 0.331081 491.18 315)">・・・</text><path d="M187.507 167.157 205.918 167.157 205.918 176.524 187.507 176.524Z" stroke="#000000" stroke-width="0.215339" stroke-miterlimit="8" fill="#FFFFFF" transform="matrix(1 0 0 1.02499 317.92 137.899)"/><text font-family="Yu Gothic,Yu Gothic_MSFontService,sans-serif" font-weight="400" font-size="11" transform="matrix(0.323009 0 0 0.331081 509.292 315)">・・・</text></g></g></g></g><g clip-path="url(#clip14)"><g clip-path="url(#clip15)"><g clip-path="url(#clip16)"><g clip-path="url(#clip17)"><path d="M122.285 191.367 140.619 191.367 140.619 200.861 122.285 200.861Z" stroke="#000000" stroke-width="0.218268" stroke-miterlimit="8" fill="#FFFFFF" transform="matrix(1 0 0 1.00445 472.555 78.604)"/><text font-family="Yu Gothic,Yu Gothic_MSFontService,sans-serif" font-weight="400" font-size="12" transform="matrix(0.327402 0 0 0.328859 598.369 277)">顧客<tspan font-family="Calibri,Calibri_MSFontService,sans-serif" font-size="12" x="24" y="0">ID</tspan></text><path d="M122.285 200.861 140.619 200.861 140.619 210.356 122.285 210.356Z" stroke="#000000" stroke-width="0.218268" stroke-miterlimit="8" fill="#FFFFFF" transform="matrix(1 0 0 1.00445 472.555 78.604)"/><text font-family="Calibri,Calibri_MSFontService,sans-serif" font-weight="400" font-size="11" transform="matrix(0.327402 0 0 0.328859 600.442 286)">C<tspan font-size="11" x="6.00001" y="0">003</tspan></text><path d="M122.285 210.356 140.619 210.356 140.619 219.851 122.285 219.851Z" stroke="#000000" stroke-width="0.218268" stroke-miterlimit="8" fill="#FFFFFF" transform="matrix(1 0 0 1.00445 472.555 78.604)"/><text font-family="Calibri,Calibri_MSFontService,sans-serif" font-weight="400" font-size="11" transform="matrix(0.327402 0 0 0.328859 600.442 296)">C<tspan font-size="11" x="6.00001" y="0">003</tspan></text><path d="M122.285 219.851 140.619 219.851 140.619 229.673 122.285 229.673Z" stroke="#000000" stroke-width="0.218268" stroke-miterlimit="8" fill="#FFFFFF" transform="matrix(1 0 0 1.00445 472.555 78.604)"/><text font-family="Calibri,Calibri_MSFontService,sans-serif" font-weight="400" font-size="11" transform="matrix(0.327402 0 0 0.328859 600.442 306)">C<tspan font-size="11" x="6.00001" y="0">026</tspan></text><path d="M122.285 229.673 140.619 229.673 140.619 239.167 122.285 239.167Z" stroke="#000000" stroke-width="0.218268" stroke-miterlimit="8" fill="#FFFFFF" transform="matrix(1 0 0 1.00445 472.555 78.604)"/><text font-family="Yu Gothic,Yu Gothic_MSFontService,sans-serif" font-weight="400" font-size="11" transform="matrix(0.327402 0 0 0.328859 598.751 315)">・・・</text><path d="M140.619 191.367 159.281 191.367 159.281 200.861 140.619 200.861Z" stroke="#000000" stroke-width="0.218268" stroke-miterlimit="8" fill="#FFFFFF" transform="matrix(1 0 0 1.00445 472.555 78.604)"/><text font-family="Yu Gothic,Yu Gothic_MSFontService,sans-serif" font-weight="400" font-size="11" transform="matrix(0.327402 0 0 0.328859 618.854 275)">商品<tspan font-size="11" x="-5.33336" y="12.1633">コード</tspan></text><path d="M140.619 200.861 159.281 200.861 159.281 210.356 140.619 210.356Z" stroke="#000000" stroke-width="0.218268" stroke-miterlimit="8" fill="#FFFFFF" transform="matrix(1 0 0 1.00445 472.555 78.604)"/><text font-family="Calibri,Calibri_MSFontService,sans-serif" font-weight="400" font-size="11" transform="matrix(0.327402 0 0 0.328859 618.827 286)">P<tspan font-size="11" x="6.00001" y="0">031</tspan></text><path d="M140.619 210.356 159.281 210.356 159.281 219.851 140.619 219.851Z" stroke="#000000" stroke-width="0.218268" stroke-miterlimit="8" fill="#FFFFFF" transform="matrix(1 0 0 1.00445 472.555 78.604)"/><text font-family="Calibri,Calibri_MSFontService,sans-serif" font-weight="400" font-size="11" transform="matrix(0.327402 0 0 0.328859 618.609 296)">N<tspan font-size="11" x="6.99998" y="0">008</tspan></text><path d="M140.619 219.851 159.281 219.851 159.281 229.673 140.619 229.673Z" stroke="#000000" stroke-width="0.218268" stroke-miterlimit="8" fill="#FFFFFF" transform="matrix(1 0 0 1.00445 472.555 78.604)"/><text font-family="Calibri,Calibri_MSFontService,sans-serif" font-weight="400" font-size="11" transform="matrix(0.327402 0 0 0.328859 618.991 306)">L<tspan font-size="11" x="5.00004" y="0">012</tspan></text><path d="M140.619 229.673 159.281 229.673 159.281 239.167 140.619 239.167Z" stroke="#000000" stroke-width="0.218268" stroke-miterlimit="8" fill="#FFFFFF" transform="matrix(1 0 0 1.00445 472.555 78.604)"/><text font-family="Yu Gothic,Yu Gothic_MSFontService,sans-serif" font-weight="400" font-size="11" transform="matrix(0.327402 0 0 0.328859 617.108 315)">・・・</text><path d="M67.9359 191.367 86.2705 191.367 86.2705 200.861 67.9359 200.861Z" stroke="#000000" stroke-width="0.218268" stroke-miterlimit="8" fill="#FFFFFF" transform="matrix(1 0 0 1.00445 472.555 78.604)"/><text font-family="Yu Gothic,Yu Gothic_MSFontService,sans-serif" font-weight="400" font-size="12" transform="matrix(0.327402 0 0 0.328859 543.808 277)">注文<tspan font-family="Calibri,Calibri_MSFontService,sans-serif" font-size="12" x="23.9999" y="0">ID</tspan></text><path d="M86.2705 191.367 104.605 191.367 104.605 200.861 86.2705 200.861Z" stroke="#000000" stroke-width="0.218268" stroke-miterlimit="8" fill="#FFFFFF" transform="matrix(1 0 0 1.00445 472.555 78.604)"/><text font-family="Yu Gothic,Yu Gothic_MSFontService,sans-serif" font-weight="400" font-size="12" transform="matrix(0.327402 0 0 0.328859 563.857 277)">個数</text><path d="M104.278 191.367 122.612 191.367 122.612 200.861 104.278 200.861Z" stroke="#000000" stroke-width="0.218268" stroke-miterlimit="8" fill="#FFFFFF" transform="matrix(1 0 0 1.00445 472.555 78.604)"/><text font-family="Yu Gothic,Yu Gothic_MSFontService,sans-serif" font-weight="400" font-size="12" transform="matrix(0.327402 0 0 0.328859 581.873 277)">金額</text><path d="M67.9359 200.861 86.2705 200.861 86.2705 210.356 67.9359 210.356Z" stroke="#000000" stroke-width="0.218268" stroke-miterlimit="8" fill="#FFFFFF" transform="matrix(1 0 0 1.00445 472.555 78.604)"/><text font-family="Calibri,Calibri_MSFontService,sans-serif" font-weight="400" font-size="11" transform="matrix(0.327402 0 0 0.328859 544.108 284)">C<tspan font-size="11" x="6.00001" y="0">003</tspan><tspan font-size="11" x="24" y="0">P</tspan><tspan font-size="11" x="30.0001" y="0">0</tspan><tspan font-size="11" x="1.24679" y="12.1633">31</tspan><tspan font-size="11" x="11.9133" y="12.1633">-</tspan><tspan font-size="11" x="15.2468" y="12.1633">001</tspan></text><path d="M86.2705 200.861 104.605 200.861 104.605 210.356 86.2705 210.356Z" stroke="#000000" stroke-width="0.218268" stroke-miterlimit="8" fill="#FFFFFF" transform="matrix(1 0 0 1.00445 472.555 78.604)"/><text font-family="Calibri,Calibri_MSFontService,sans-serif" font-weight="400" font-size="11" transform="matrix(0.327402 0 0 0.328859 566.913 286)">2</text><path d="M104.278 200.861 122.612 200.861 122.612 210.356 104.278 210.356Z" stroke="#000000" stroke-width="0.218268" stroke-miterlimit="8" fill="#FFFFFF" transform="matrix(1 0 0 1.00445 472.555 78.604)"/><text font-family="Calibri,Calibri_MSFontService,sans-serif" font-weight="400" font-size="11" transform="matrix(0.327402 0 0 0.328859 582.31 286)">1400</text><path d="M67.9359 210.356 86.2705 210.356 86.2705 219.851 67.9359 219.851Z" stroke="#000000" stroke-width="0.218268" stroke-miterlimit="8" fill="#FFFFFF" transform="matrix(1 0 0 1.00445 472.555 78.604)"/><text font-family="Calibri,Calibri_MSFontService,sans-serif" font-weight="400" font-size="11" transform="matrix(0.327402 0 0 0.328859 543.89 294)">C<tspan font-size="11" x="5.99982" y="0">003</tspan><tspan font-size="11" x="23.9999" y="0">N</tspan><tspan font-size="11" x="30.9998" y="0">0</tspan><tspan font-size="11" x="1.91326" y="12.1633">08</tspan><tspan font-size="11" x="12.58" y="12.1633">-</tspan><tspan font-size="11" x="15.9132" y="12.1633">005</tspan></text><path d="M86.2705 210.356 104.605 210.356 104.605 219.851 86.2705 219.851Z" stroke="#000000" stroke-width="0.218268" stroke-miterlimit="8" fill="#FFFFFF" transform="matrix(1 0 0 1.00445 472.555 78.604)"/><text font-family="Calibri,Calibri_MSFontService,sans-serif" font-weight="400" font-size="11" transform="matrix(0.327402 0 0 0.328859 566.913 296)">1</text><path d="M104.278 210.356 122.612 210.356 122.612 219.851 104.278 219.851Z" stroke="#000000" stroke-width="0.218268" stroke-miterlimit="8" fill="#FFFFFF" transform="matrix(1 0 0 1.00445 472.555 78.604)"/><text font-family="Calibri,Calibri_MSFontService,sans-serif" font-weight="400" font-size="11" transform="matrix(0.327402 0 0 0.328859 582.31 296)">3500</text><path d="M67.9359 219.851 86.2705 219.851 86.2705 229.673 67.9359 229.673Z" stroke="#000000" stroke-width="0.218268" stroke-miterlimit="8" fill="#FFFFFF" transform="matrix(1 0 0 1.00445 472.555 78.604)"/><text font-family="Calibri,Calibri_MSFontService,sans-serif" font-weight="400" font-size="11" transform="matrix(0.327402 0 0 0.328859 543.399 303)">C<tspan font-size="11" x="6.00001" y="0">026</tspan><tspan font-size="11" x="24" y="0">L</tspan><tspan font-size="11" x="29.0001" y="0">01</tspan><tspan font-size="11" x="6.07999" y="12.1633">2</tspan><tspan font-size="11" x="11.4134" y="12.1633">-</tspan><tspan font-size="11" x="14.7468" y="12.1633">052</tspan></text><path d="M86.2705 219.851 104.605 219.851 104.605 229.673 86.2705 229.673Z" stroke="#000000" stroke-width="0.218268" stroke-miterlimit="8" fill="#FFFFFF" transform="matrix(1 0 0 1.00445 472.555 78.604)"/><text font-family="Calibri,Calibri_MSFontService,sans-serif" font-weight="400" font-size="11" transform="matrix(0.327402 0 0 0.328859 566.04 306)">5<tspan font-size="11" x="5.33336" y="0">0</tspan></text><path d="M104.278 219.851 122.612 219.851 122.612 229.673 104.278 229.673Z" stroke="#000000" stroke-width="0.218268" stroke-miterlimit="8" fill="#FFFFFF" transform="matrix(1 0 0 1.00445 472.555 78.604)"/><text font-family="Calibri,Calibri_MSFontService,sans-serif" font-weight="400" font-size="11" transform="matrix(0.327402 0 0 0.328859 581.437 306)">63000</text><path d="M67.9359 229.673 86.2705 229.673 86.2705 239.167 67.9359 239.167Z" stroke="#000000" stroke-width="0.218268" stroke-miterlimit="8" fill="#FFFFFF" transform="matrix(1 0 0 1.00445 472.555 78.604)"/><text font-family="Yu Gothic,Yu Gothic_MSFontService,sans-serif" font-weight="400" font-size="11" transform="matrix(0.327402 0 0 0.328859 544.19 315)">・・・</text><path d="M86.2705 229.673 104.605 229.673 104.605 239.167 86.2705 239.167Z" stroke="#000000" stroke-width="0.218268" stroke-miterlimit="8" fill="#FFFFFF" transform="matrix(1 0 0 1.00445 472.555 78.604)"/><text font-family="Yu Gothic,Yu Gothic_MSFontService,sans-serif" font-weight="400" font-size="11" transform="matrix(0.327402 0 0 0.328859 562.548 315)">・・・</text><path d="M104.278 229.673 122.612 229.673 122.612 239.167 104.278 239.167Z" stroke="#000000" stroke-width="0.218268" stroke-miterlimit="8" fill="#FFFFFF" transform="matrix(1 0 0 1.00445 472.555 78.604)"/><text font-family="Yu Gothic,Yu Gothic_MSFontService,sans-serif" font-weight="400" font-size="11" transform="matrix(0.327402 0 0 0.328859 580.564 315)">・・・</text></g></g></g></g><text font-family="Yu Gothic,Yu Gothic_MSFontService,sans-serif" font-weight="400" font-size="13" transform="translate(347.06 152)">利用ロジック<tspan font-size="13" x="80" y="0">に、状態更新、問合せの</tspan><tspan font-family="Calibri,Calibri_MSFontService,sans-serif" font-size="13" x="229.667" y="0">API</tspan><tspan font-size="13" x="250.5" y="0">を提供</tspan></text><path d="M0 72 0 40.5C0 23.1031 14.103 9.00009 31.4999 9.00009L143 9.00009 143 0 161 18 143 36 143 27.0001 31.4999 27.0001C24.0441 27.0001 18 33.0442 18 40.5L18 72Z" stroke="#BC8C00" stroke-width="1.33333" stroke-miterlimit="8" fill="#FFC000" fill-rule="evenodd" transform="matrix(1 0 0 -1 170.5 299.5)"/><text font-family="Yu Gothic,Yu Gothic_MSFontService,sans-serif" font-weight="400" font-size="13" transform="translate(140.277 319)">制約を元に、テーブル、識別子、<tspan font-size="13" x="0" y="16">外部参照等を定義</tspan></text><g clip-path="url(#clip18)"><g clip-path="url(#clip19)"><g clip-path="url(#clip20)"><path d="M620.5 222.139C615.583 222.139 611.597 220.75 611.597 218.917L611.597 236.083C611.597 237.847 615.514 239.278 620.375 239.306L620.5 239.306C625.417 239.306 629.403 237.917 629.403 236.083L629.403 218.917C629.403 220.708 625.417 222.139 620.5 222.139Z" fill="url(#fill21)"/><path d="M629.403 218.917C629.403 220.708 625.417 222.139 620.5 222.139 615.583 222.139 611.597 220.75 611.597 218.917 611.597 217.083 615.583 215.694 620.5 215.694 625.417 215.694 629.403 217.083 629.403 218.917" fill="#E8E8E8"/><path d="M627.333 218.653C627.333 219.792 624.264 220.708 620.5 220.708 616.736 220.708 613.667 219.792 613.667 218.653 613.667 217.514 616.736 216.611 620.5 216.611 624.264 216.611 627.333 217.528 627.333 218.653" fill="#50E6FF"/><path d="M620.5 219.167C618.667 219.12 616.84 219.388 615.097 219.958 616.841 220.518 618.669 220.772 620.5 220.708 622.334 220.762 624.164 220.489 625.903 219.903 624.155 219.358 622.329 219.11 620.5 219.167Z" fill="#198AB3"/><path d="M625.917 230.833 625.917 226.111 624.667 226.111 624.667 231.847 628.083 231.847 628.083 230.833ZM616 228.514C615.742 228.41 615.503 228.265 615.292 228.083 615.178 227.964 615.118 227.803 615.125 227.639 615.116 227.473 615.195 227.315 615.333 227.222 615.504 227.104 615.709 227.045 615.917 227.056 616.411 227.033 616.9 227.175 617.306 227.458L617.306 226.264C616.862 226.099 616.39 226.023 615.917 226.042 615.372 226.013 614.835 226.18 614.403 226.514 614.021 226.808 613.804 227.268 613.819 227.75 613.819 228.458 614.264 229.014 615.208 229.431 615.515 229.561 615.804 229.729 616.069 229.931 616.201 230.041 616.277 230.203 616.278 230.375 616.278 230.546 616.195 230.707 616.056 230.806 615.867 230.916 615.649 230.969 615.431 230.958 614.872 230.954 614.334 230.746 613.917 230.375L613.917 231.667C614.375 231.903 614.887 232.018 615.403 232 615.985 232.035 616.562 231.873 617.042 231.542 617.385 231.216 617.555 230.748 617.5 230.278 617.507 229.922 617.383 229.576 617.153 229.306 616.828 228.964 616.435 228.694 616 228.514ZM623.278 230.722C623.593 230.194 623.752 229.587 623.736 228.972 623.705 228.452 623.547 227.946 623.278 227.5 623.061 227.066 622.723 226.705 622.306 226.458 621.882 226.218 621.403 226.094 620.917 226.097 620.392 226.086 619.874 226.215 619.417 226.472 618.988 226.712 618.636 227.068 618.403 227.5 618.157 227.991 618.033 228.534 618.042 229.083 618.045 229.566 618.159 230.041 618.375 230.472 618.587 230.901 618.92 231.259 619.333 231.5 619.753 231.756 620.231 231.899 620.722 231.917L621.917 233.306 623.597 233.306 621.889 231.778C622.464 231.605 622.958 231.23 623.278 230.722ZM621.889 230.375C621.633 230.693 621.242 230.873 620.833 230.861 620.421 230.874 620.028 230.688 619.778 230.361 619.484 229.96 619.342 229.468 619.375 228.972 619.343 228.476 619.485 227.985 619.778 227.583 620.043 227.257 620.441 227.068 620.861 227.069 621.273 227.052 621.666 227.245 621.903 227.583 622.176 227.993 622.308 228.481 622.278 228.972 622.326 229.472 622.188 229.972 621.889 230.375Z" fill="url(#fill22)"/></g></g></g></g></svg>