<svg width="608" height="375" xmlns="http://www.w3.org/2000/svg" xmlns:xlink="http://www.w3.org/1999/xlink" overflow="hidden"><defs><clipPath id="clip0"><rect x="56" y="487" width="608" height="375"/></clipPath><linearGradient x1="499.5" y1="559.5" x2="499.5" y2="707.5" gradientUnits="userSpaceOnUse" spreadMethod="reflect" id="fill1"><stop offset="0" stop-color="#FFDD9C"/><stop offset="0.5" stop-color="#FFD78E"/><stop offset="1" stop-color="#FFD479"/></linearGradient><linearGradient x1="194" y1="719.5" x2="194" y2="795.5" gradientUnits="userSpaceOnUse" spreadMethod="reflect" id="fill2"><stop offset="0" stop-color="#B1CBE9"/><stop offset="0.5" stop-color="#B1CBE9"/><stop offset="0.5" stop-color="#A3C1E5"/><stop offset="1" stop-color="#92B9E4" stop-opacity="0.501961"/></linearGradient><clipPath id="clip3"><rect x="78" y="588" width="237" height="102"/></clipPath><clipPath id="clip4"><rect x="78" y="588" width="237" height="102"/></clipPath><clipPath id="clip5"><rect x="53" y="571" width="275" height="131"/></clipPath><clipPath id="clip6"><rect x="53" y="571" width="275" height="131"/></clipPath><linearGradient x1="503.5" y1="583.5" x2="503.5" y2="653.5" gradientUnits="userSpaceOnUse" spreadMethod="reflect" id="fill7"><stop offset="0" stop-color="#FFDD9C" stop-opacity="0.701961"/><stop offset="0.5" stop-color="#FFD78E" stop-opacity="0.701961"/><stop offset="1" stop-color="#FFD479" stop-opacity="0.701961"/></linearGradient><linearGradient x1="503.5" y1="583.5" x2="503.5" y2="653.5" gradientUnits="userSpaceOnUse" spreadMethod="reflect" id="fill8"><stop offset="0" stop-color="#CDB27D" stop-opacity="0.701961"/><stop offset="0.5" stop-color="#CDAD72" stop-opacity="0.701961"/><stop offset="1" stop-color="#CDAA61" stop-opacity="0.701961"/></linearGradient><linearGradient x1="503.5" y1="583.5" x2="503.5" y2="653.5" gradientUnits="userSpaceOnUse" spreadMethod="reflect" id="fill9"><stop offset="0" stop-color="#FFE4AF" stop-opacity="0.701961"/><stop offset="0.5" stop-color="#FFDFA4" stop-opacity="0.701961"/><stop offset="1" stop-color="#FFDC93" stop-opacity="0.701961"/></linearGradient><clipPath id="clip10"><rect x="70" y="732" width="56" height="48"/></clipPath><clipPath id="clip11"><rect x="70" y="732" width="56" height="48"/></clipPath><clipPath id="clip12"><rect x="70" y="732" width="56" height="48"/></clipPath><clipPath id="clip13"><rect x="70" y="732" width="56" height="48"/></clipPath><clipPath id="clip14"><rect x="138" y="732" width="73" height="49"/></clipPath><clipPath id="clip15"><rect x="138" y="732" width="73" height="49"/></clipPath><clipPath id="clip16"><rect x="138" y="732" width="73" height="49"/></clipPath><clipPath id="clip17"><rect x="138" y="732" width="73" height="49"/></clipPath><clipPath id="clip18"><rect x="224" y="733" width="92" height="49"/></clipPath><clipPath id="clip19"><rect x="224" y="733" width="92" height="49"/></clipPath><clipPath id="clip20"><rect x="224" y="733" width="92" height="49"/></clipPath><clipPath id="clip21"><rect x="224" y="733" width="92" height="49"/></clipPath><clipPath id="clip22"><rect x="606" y="689" width="25" height="26"/></clipPath><clipPath id="clip23"><rect x="606" y="689" width="25" height="26"/></clipPath><clipPath id="clip24"><rect x="606" y="689" width="25" height="26"/></clipPath><radialGradient cx="-105.006" cy="-10.409" r="5.954" gradientUnits="userSpaceOnUse" spreadMethod="pad" id="fill25" gradientTransform="matrix(1.43889 0 0 1.42639 163.526 27.2833)"><stop offset="0" stop-color="#5EA0EF"/><stop offset="0.183" stop-color="#5EA0EF"/><stop offset="1" stop-color="#0078D4"/></radialGradient><clipPath id="clip26"><path d="M626.79 699.877C627.884 704.638 625.059 709.421 620.481 710.558 615.902 711.696 611.304 708.758 610.21 703.996 609.116 699.235 611.941 694.452 616.519 693.315 621.098 692.177 625.696 695.115 626.79 699.877Z"/></clipPath></defs><g clip-path="url(#clip0)" transform="translate(-56 -487)"><path d="M429.5 575.104 499.5 559.5 569.5 575.104 538.731 575.104 538.731 691.896 569.5 691.896 499.5 707.5 429.5 691.896 460.269 691.896 460.269 575.104Z" stroke="#FFC000" stroke-width="0.666667" stroke-miterlimit="8" fill="url(#fill1)" fill-rule="evenodd"/><path d="M62.5001 732.167C62.5001 725.171 68.1712 719.5 75.1669 719.5L312.833 719.5C319.829 719.5 325.5 725.171 325.5 732.167L325.5 782.833C325.5 789.829 319.829 795.5 312.833 795.5L75.1669 795.5C68.1712 795.5 62.5001 789.829 62.5001 782.833Z" stroke="#5B9BD5" stroke-width="0.666667" stroke-miterlimit="8" fill="url(#fill2)" fill-rule="evenodd"/><rect x="58.5001" y="488.5" width="604" height="372" stroke="#D9D9D9" stroke-width="1.33333" stroke-miterlimit="8" fill="none"/><g clip-path="url(#clip3)"><g clip-path="url(#clip4)"><g clip-path="url(#clip5)"><g clip-path="url(#clip6)"><path d="M26.3554 42.5741 298.469 42.5741 298.469 170.522 26.3554 170.522Z" stroke="#D9D9D9" stroke-width="0.600691" stroke-miterlimit="8" fill="none" transform="matrix(1 0 0 1.00324 28.1322 529.858)"/><path d="M62.3969 73.2094 119.162 73.2094 119.162 112.405 62.3969 112.405Z" stroke="#000000" stroke-width="0.600691" stroke-miterlimit="8" fill="#FFFFFF" transform="matrix(1 0 0 1.00324 28.1322 529.858)"/><text font-family="Yu Gothic,Yu Gothic_MSFontService,sans-serif" font-weight="400" font-size="13" transform="matrix(0.450519 0 0 0.451979 112.728 610)">顧客<tspan font-family="Consolas,Consolas_MSFontService,sans-serif" font-size="13" x="-40.2467" y="17.6999">*</tspan><tspan font-size="13" x="-32.9133" y="17.6999">顧客</tspan><tspan font-family="Consolas,Consolas_MSFontService,sans-serif" font-size="13" x="-6.24666" y="17.6999">ID</tspan><tspan font-size="13" x="-26.9133" y="33.1874">顧客名</tspan><tspan font-size="13" x="-26.9133" y="48.6748">住所</tspan></text><path d="M203.86 73.2094 261.076 73.2094 261.076 112.405 203.86 112.405Z" stroke="#000000" stroke-width="0.600691" stroke-miterlimit="8" fill="#FFFFFF" transform="matrix(1 0 0 1.00324 28.1322 529.858)"/><text font-family="Yu Gothic,Yu Gothic_MSFontService,sans-serif" font-weight="400" font-size="13" transform="matrix(0.450519 0 0 0.451979 254.3 610)">商品<tspan font-family="Consolas,Consolas_MSFontService,sans-serif" font-size="13" x="-40.2467" y="17.6999">*</tspan><tspan font-size="13" x="-32.9133" y="17.6999">商品</tspan><tspan font-size="13" x="-6.91331" y="17.6999">コード</tspan><tspan font-size="13" x="-26.9133" y="33.1874">商品名</tspan><tspan font-size="13" x="-26.9133" y="48.6748">在庫</tspan><tspan font-size="13" x="-26.9133" y="64.1622">単価</tspan></text><path d="M119.162 92.5817 203.767 92.5817" stroke="#000000" stroke-width="0.300346" stroke-miterlimit="8" fill="none" fill-rule="evenodd" transform="matrix(1 0 0 1.00324 28.1322 529.858)"/><path d="M0 0 2.7567 21.634" stroke="#000000" stroke-width="0.901038" stroke-miterlimit="8" stroke-dasharray="0.901038 0.901038" fill="none" fill-rule="evenodd" transform="matrix(1 0 0 -1.00324 186.715 645.122)"/><text font-family="Yu Gothic,Yu Gothic_MSFontService,sans-serif" font-weight="400" font-size="11" transform="matrix(0.450519 0 0 0.451979 152.367 619)">発注者<tspan font-family="Calibri,Calibri_MSFontService,sans-serif" font-size="11" x="-3.70016" y="19.9124">*</tspan><tspan font-family="Calibri,Calibri_MSFontService,sans-serif" font-size="11" x="158.002" y="6.63747">*</tspan><tspan font-size="11" x="125.323" y="19.9124">購入予約</tspan></text><path d="M130.425 115.108 187.191 115.108 187.191 154.303 130.425 154.303Z" stroke="#000000" stroke-width="0.600691" stroke-miterlimit="8" fill="#FFFFFF" transform="matrix(1 0 0 1.00324 28.1322 529.858)"/><text font-family="Yu Gothic,Yu Gothic_MSFontService,sans-serif" font-weight="400" font-size="13" transform="matrix(0.450519 0 0 0.451979 180.749 653)">注文<tspan font-family="Consolas,Consolas_MSFontService,sans-serif" font-size="13" x="-40.2467" y="15.4874">*</tspan><tspan font-size="13" x="-32.9133" y="15.4874">注文</tspan><tspan font-family="Consolas,Consolas_MSFontService,sans-serif" font-size="13" x="-6.24666" y="15.4874">ID</tspan><tspan font-size="13" x="-26.9133" y="30.9749">個数</tspan><tspan font-size="13" x="-26.9133" y="46.4623">金額</tspan><tspan font-size="16" x="-271.519" y="-159.299">ドメイン</tspan><tspan font-size="16" x="-208.519" y="-159.299">：</tspan><tspan font-size="16" x="-192.519" y="-159.299">商品販売</tspan></text></g></g></g></g><text font-family="Yu Gothic,Yu Gothic_MSFontService,sans-serif" font-weight="400" font-size="16" transform="translate(140.595 579)">概念情報モデル</text><path d="M650.5 698.5C650.5 712.859 584.686 724.5 503.5 724.5 422.314 724.5 356.5 712.859 356.5 698.5" stroke="#2F528F" stroke-width="1.33333" stroke-miterlimit="8" stroke-opacity="0.501961" fill="none" fill-rule="evenodd"/><path d="M356.5 698.5C356.5 684.141 422.314 672.5 503.5 672.5 584.686 672.5 650.5 684.141 650.5 698.5L650.5 802.5C650.5 816.859 584.686 828.5 503.5 828.5 422.314 828.5 356.5 816.859 356.5 802.5Z" stroke="#2F528F" stroke-width="1.33333" stroke-miterlimit="8" stroke-opacity="0.501961" fill="none" fill-rule="evenodd"/><text font-family="Calibri,Calibri_MSFontService,sans-serif" font-weight="400" font-size="16" transform="translate(462.327 817)">No SQL Database</text><path d="M402.5 745.5 597.5 745.5 597.5 781.333 590.333 788.5 402.5 788.5Z" fill="#FFFFFF" fill-rule="evenodd"/><path d="M590.333 788.5 591.767 782.767 597.5 781.333Z" fill="#CDCDCD" fill-rule="evenodd"/><path d="M590.333 788.5 591.767 782.767 597.5 781.333 590.333 788.5 402.5 788.5 402.5 745.5 597.5 745.5 597.5 781.333" stroke="#000000" stroke-width="0.666667" stroke-miterlimit="8" fill="none" fill-rule="evenodd"/><text font-family="Calibri,Calibri_MSFontService,sans-serif" font-weight="400" font-size="5" transform="translate(401.982 750)">Customers:{<tspan font-size="5" x="0" y="6">“</tspan><tspan font-family="Yu Gothic,Yu Gothic_MSFontService,sans-serif" font-size="5" x="2.16669" y="6">顧客</tspan><tspan font-size="5" x="12.8333" y="6">ID”:”</tspan>xxxx<tspan font-size="5" x="32.6667" y="6">”,”</tspan><tspan font-family="Yu Gothic,Yu Gothic_MSFontService,sans-serif" font-size="5" x="38.3333" y="6">顧客名</tspan>”:”<tspan font-size="5" x="60.1667" y="6">yyyy</tspan><tspan font-size="5" x="69.5" y="6">”,”</tspan><tspan font-family="Yu Gothic,Yu Gothic_MSFontService,sans-serif" font-size="5" x="75.1667" y="6">住所</tspan><tspan font-size="5" x="85.8333" y="6">”:”</tspan><tspan font-size="5" x="91.6667" y="6">zzzzzzz</tspan><tspan font-size="5" x="106.833" y="6">”},</tspan><tspan font-family="Yu Gothic,Yu Gothic_MSFontService,sans-serif" font-size="5" x="0" y="13">・・</tspan><tspan font-family="Yu Gothic,Yu Gothic_MSFontService,sans-serif" font-size="5" x="10.6667" y="13">・</tspan><tspan font-family="Yu Gothic,Yu Gothic_MSFontService,sans-serif" font-size="5" x="0" y="19">・・・</tspan><tspan font-size="13" x="-24.288" y="-14">Documents</tspan></text><rect x="356.5" y="601" width="276.5" height="52.4998" fill="url(#fill7)"/><path d="M633 601 650.5 583.5 650.5 636 633 653.5Z" fill="url(#fill8)" fill-rule="evenodd"/><path d="M356.5 601 374 583.5 650.5 583.5 633 601Z" fill="url(#fill9)" fill-rule="evenodd"/><path d="M356.5 601 374 583.5 650.5 583.5 650.5 636 633 653.5 356.5 653.5ZM356.5 601 633 601 650.5 583.5M633 601 633 653.5" stroke="#FFC000" stroke-width="0.666667" stroke-miterlimit="8" fill="none" fill-rule="evenodd"/><text font-family="Yu Gothic,Yu Gothic_MSFontService,sans-serif" font-weight="400" font-size="16" transform="translate(454.249 599)">操作ロジック<tspan font-size="13" x="-79.3528" y="31">概念情報モデルで定義された制約を実装</tspan></text><path d="M305.5 614.25 307.094 614.25 307.094 639.75 305.5 639.75ZM308.688 614.25 311.875 614.25 311.875 639.75 308.688 639.75ZM313.469 614.25 343 614.25 343 601.5 368.5 627 343 652.5 343 639.75 313.469 639.75Z" stroke="#BC8C00" stroke-width="1.33333" stroke-miterlimit="8" fill="#FFC000" fill-rule="evenodd"/><g clip-path="url(#clip10)"><g clip-path="url(#clip11)"><g clip-path="url(#clip12)"><g clip-path="url(#clip13)"><path d="M28.2449 127.51 46.5306 127.51 46.5306 136.98 28.2449 136.98Z" stroke="#000000" stroke-width="0.217687" stroke-miterlimit="8" fill="#FFFFFF" transform="matrix(1.00882 0 0 1 42 604.98)"/><text font-family="Yu Gothic,Yu Gothic_MSFontService,sans-serif" font-weight="400" font-size="12" transform="matrix(0.329412 0 0 0.326531 74.031 738)">顧客<tspan font-family="Calibri,Calibri_MSFontService,sans-serif" font-size="12" x="24" y="0">ID</tspan></text><path d="M46.5306 127.51 65.1429 127.51 65.1429 136.98 46.5306 136.98Z" stroke="#000000" stroke-width="0.217687" stroke-miterlimit="8" fill="#FFFFFF" transform="matrix(1.00882 0 0 1 42 604.98)"/><text font-family="Yu Gothic,Yu Gothic_MSFontService,sans-serif" font-weight="400" font-size="12" transform="matrix(0.329412 0 0 0.326531 92.2267 738)">顧客名</text><path d="M64.4898 127.51 83.102 127.51 83.102 136.98 64.4898 136.98Z" stroke="#000000" stroke-width="0.217687" stroke-miterlimit="8" fill="#FFFFFF" transform="matrix(1.00882 0 0 1 42 604.98)"/><text font-family="Yu Gothic,Yu Gothic_MSFontService,sans-serif" font-weight="400" font-size="12" transform="matrix(0.329412 0 0 0.326531 112.33 738)">住所</text><path d="M28.2449 136.98 46.5306 136.98 46.5306 146.449 28.2449 146.449Z" stroke="#000000" stroke-width="0.217687" stroke-miterlimit="8" fill="#FFFFFF" transform="matrix(1.00882 0 0 1 42 604.98)"/><text font-family="Calibri,Calibri_MSFontService,sans-serif" font-weight="400" font-size="11" transform="matrix(0.329412 0 0 0.326531 76.1172 748)">C003</text><path d="M46.5306 136.98 65.1429 136.98 65.1429 146.449 46.5306 146.449Z" stroke="#000000" stroke-width="0.217687" stroke-miterlimit="8" fill="#FFFFFF" transform="matrix(1.00882 0 0 1 42 604.98)"/><text font-family="Yu Gothic,Yu Gothic_MSFontService,sans-serif" font-weight="400" font-size="11" transform="matrix(0.329412 0 0 0.326531 94.2582 748)">概<tspan font-size="11" x="13" y="0">念</tspan></text><path d="M64.4898 136.98 83.102 136.98 83.102 146.449 64.4898 146.449Z" stroke="#000000" stroke-width="0.217687" stroke-miterlimit="8" fill="#FFFFFF" transform="matrix(1.00882 0 0 1 42 604.98)"/><text font-family="Calibri,Calibri_MSFontService,sans-serif" font-weight="400" font-size="11" transform="matrix(0.329412 0 0 0.326531 113.565 748)">XXX</text><path d="M28.2449 146.449 46.5306 146.449 46.5306 155.918 28.2449 155.918Z" stroke="#000000" stroke-width="0.217687" stroke-miterlimit="8" fill="#FFFFFF" transform="matrix(1.00882 0 0 1 42 604.98)"/><text font-family="Calibri,Calibri_MSFontService,sans-serif" font-weight="400" font-size="11" transform="matrix(0.329412 0 0 0.326531 76.1172 757)">C172</text><path d="M46.5306 146.449 65.1429 146.449 65.1429 155.918 46.5306 155.918Z" stroke="#000000" stroke-width="0.217687" stroke-miterlimit="8" fill="#FFFFFF" transform="matrix(1.00882 0 0 1 42 604.98)"/><text font-family="Yu Gothic,Yu Gothic_MSFontService,sans-serif" font-weight="400" font-size="11" transform="matrix(0.329412 0 0 0.326531 92.5015 757)">円<tspan font-size="11" x="13" y="0">帝一</tspan></text><path d="M64.4898 146.449 83.102 146.449 83.102 155.918 64.4898 155.918Z" stroke="#000000" stroke-width="0.217687" stroke-miterlimit="8" fill="#FFFFFF" transform="matrix(1.00882 0 0 1 42 604.98)"/><text font-family="Calibri,Calibri_MSFontService,sans-serif" font-weight="400" font-size="11" transform="matrix(0.329412 0 0 0.326531 113.73 757)">YYY</text><path d="M28.2449 155.918 46.5306 155.918 46.5306 165.388 28.2449 165.388Z" stroke="#000000" stroke-width="0.217687" stroke-miterlimit="8" fill="#FFFFFF" transform="matrix(1.00882 0 0 1 42 604.98)"/><text font-family="Calibri,Calibri_MSFontService,sans-serif" font-weight="400" font-size="11" transform="matrix(0.329412 0 0 0.326531 76.1172 767)">C026</text><path d="M46.5306 155.918 65.1429 155.918 65.1429 165.388 46.5306 165.388Z" stroke="#000000" stroke-width="0.217687" stroke-miterlimit="8" fill="#FFFFFF" transform="matrix(1.00882 0 0 1 42 604.98)"/><text font-family="Yu Gothic,Yu Gothic_MSFontService,sans-serif" font-weight="400" font-size="11" transform="matrix(0.329412 0 0 0.326531 92.5015 767)">蔵巣<tspan font-size="11" x="23.6667" y="0">抽</tspan></text><path d="M64.4898 155.918 83.102 155.918 83.102 165.388 64.4898 165.388Z" stroke="#000000" stroke-width="0.217687" stroke-miterlimit="8" fill="#FFFFFF" transform="matrix(1.00882 0 0 1 42 604.98)"/><text font-family="Calibri,Calibri_MSFontService,sans-serif" font-weight="400" font-size="11" transform="matrix(0.329412 0 0 0.326531 113.812 767)">ZZZ</text><path d="M28.2449 165.388 46.5306 165.388 46.5306 174.857 28.2449 174.857Z" stroke="#000000" stroke-width="0.217687" stroke-miterlimit="8" fill="#FFFFFF" transform="matrix(1.00882 0 0 1 42 604.98)"/><text font-family="Yu Gothic,Yu Gothic_MSFontService,sans-serif" font-weight="400" font-size="11" transform="matrix(0.329412 0 0 0.326531 74.4153 776)">・・・</text><path d="M46.5306 165.388 65.1429 165.388 65.1429 174.857 46.5306 174.857Z" stroke="#000000" stroke-width="0.217687" stroke-miterlimit="8" fill="#FFFFFF" transform="matrix(1.00882 0 0 1 42 604.98)"/><text font-family="Yu Gothic,Yu Gothic_MSFontService,sans-serif" font-weight="400" font-size="11" transform="matrix(0.329412 0 0 0.326531 92.8856 776)">・・・</text><path d="M64.4898 165.388 83.102 165.388 83.102 174.857 64.4898 174.857Z" stroke="#000000" stroke-width="0.217687" stroke-miterlimit="8" fill="#FFFFFF" transform="matrix(1.00882 0 0 1 42 604.98)"/><text font-family="Yu Gothic,Yu Gothic_MSFontService,sans-serif" font-weight="400" font-size="11" transform="matrix(0.329412 0 0 0.326531 111.012 776)">・・・</text></g></g></g></g><g clip-path="url(#clip14)"><g clip-path="url(#clip15)"><g clip-path="url(#clip16)"><g clip-path="url(#clip17)"><path d="M133.564 129.688 151.653 129.688 151.653 139.055 133.564 139.055Z" stroke="#000000" stroke-width="0.215339" stroke-miterlimit="8" fill="#FFFFFF" transform="matrix(1 0 0 1.02499 4.92035 599.899)"/><text font-family="Yu Gothic,Yu Gothic_MSFontService,sans-serif" font-weight="400" font-size="11" transform="matrix(0.323009 0 0 0.331081 144.018 737)">商品<tspan font-size="11" x="-5.33334" y="12.0816">コード</tspan></text><path d="M151.653 129.688 169.741 129.688 169.741 139.055 151.653 139.055Z" stroke="#000000" stroke-width="0.215339" stroke-miterlimit="8" fill="#FFFFFF" transform="matrix(1 0 0 1.02499 4.92035 599.899)"/><text font-family="Yu Gothic,Yu Gothic_MSFontService,sans-serif" font-weight="400" font-size="12" transform="matrix(0.323009 0 0 0.331081 159.76 739)">商品名</text><path d="M169.418 129.688 187.507 129.688 187.507 139.055 169.418 139.055Z" stroke="#000000" stroke-width="0.215339" stroke-miterlimit="8" fill="#FFFFFF" transform="matrix(1 0 0 1.02499 4.92035 599.899)"/><text font-family="Yu Gothic,Yu Gothic_MSFontService,sans-serif" font-weight="400" font-size="12" transform="matrix(0.323009 0 0 0.331081 179.472 739)">在庫</text><path d="M133.564 139.055 151.653 139.055 151.653 148.423 133.564 148.423Z" stroke="#000000" stroke-width="0.215339" stroke-miterlimit="8" fill="#FFFFFF" transform="matrix(1 0 0 1.02499 4.92035 599.899)"/><text font-family="Calibri,Calibri_MSFontService,sans-serif" font-weight="400" font-size="11" transform="matrix(0.323009 0 0 0.331081 143.991 748)">P<tspan font-size="11" x="5.99999" y="0">031</tspan></text><path d="M151.653 139.055 169.741 139.055 169.741 148.423 151.653 148.423Z" stroke="#000000" stroke-width="0.215339" stroke-miterlimit="8" fill="#FFFFFF" transform="matrix(1 0 0 1.02499 4.92035 599.899)"/><text font-family="Yu Gothic,Yu Gothic_MSFontService,sans-serif" font-weight="400" font-size="9" transform="matrix(0.323009 0 0 0.331081 159.976 748)">ペンシル</text><path d="M169.418 139.055 187.507 139.055 187.507 148.423 169.418 148.423Z" stroke="#000000" stroke-width="0.215339" stroke-miterlimit="8" fill="#FFFFFF" transform="matrix(1 0 0 1.02499 4.92035 599.899)"/><text font-family="Calibri,Calibri_MSFontService,sans-serif" font-weight="400" font-size="11" transform="matrix(0.323009 0 0 0.331081 179.903 748)">1000</text><path d="M133.564 148.423 151.653 148.423 151.653 157.79 133.564 157.79Z" stroke="#000000" stroke-width="0.215339" stroke-miterlimit="8" fill="#FFFFFF" transform="matrix(1 0 0 1.02499 4.92035 599.899)"/><text font-family="Calibri,Calibri_MSFontService,sans-serif" font-weight="400" font-size="11" transform="matrix(0.323009 0 0 0.331081 143.775 758)">N<tspan font-size="11" x="7" y="0">008</tspan></text><path d="M151.653 148.423 169.741 148.423 169.741 157.79 151.653 157.79Z" stroke="#000000" stroke-width="0.215339" stroke-miterlimit="8" fill="#FFFFFF" transform="matrix(1 0 0 1.02499 4.92035 599.899)"/><text font-family="Yu Gothic,Yu Gothic_MSFontService,sans-serif" font-weight="400" font-size="11" transform="matrix(0.323009 0 0 0.331081 162.129 758)">手帳</text><path d="M169.418 148.423 187.507 148.423 187.507 157.79 169.418 157.79Z" stroke="#000000" stroke-width="0.215339" stroke-miterlimit="8" fill="#FFFFFF" transform="matrix(1 0 0 1.02499 4.92035 599.899)"/><text font-family="Calibri,Calibri_MSFontService,sans-serif" font-weight="400" font-size="11" transform="matrix(0.323009 0 0 0.331081 180.764 758)">752</text><path d="M133.564 157.79 151.653 157.79 151.653 167.157 133.564 167.157Z" stroke="#000000" stroke-width="0.215339" stroke-miterlimit="8" fill="#FFFFFF" transform="matrix(1 0 0 1.02499 4.92035 599.899)"/><text font-family="Calibri,Calibri_MSFontService,sans-serif" font-weight="400" font-size="11" transform="matrix(0.323009 0 0 0.331081 144.152 767)">L<tspan font-size="11" x="5.00002" y="0">012</tspan></text><path d="M151.653 157.79 169.741 157.79 169.741 167.157 151.653 167.157Z" stroke="#000000" stroke-width="0.215339" stroke-miterlimit="8" fill="#FFFFFF" transform="matrix(1 0 0 1.02499 4.92035 599.899)"/><text font-family="Yu Gothic,Yu Gothic_MSFontService,sans-serif" font-weight="400" font-size="11" transform="matrix(0.323009 0 0 0.331081 160.406 765)">ルーズ<tspan font-size="11" x="0" y="15.102">リーフ</tspan></text><path d="M169.418 157.79 187.507 157.79 187.507 167.157 169.418 167.157Z" stroke="#000000" stroke-width="0.215339" stroke-miterlimit="8" fill="#FFFFFF" transform="matrix(1 0 0 1.02499 4.92035 599.899)"/><text font-family="Calibri,Calibri_MSFontService,sans-serif" font-weight="400" font-size="11" transform="matrix(0.323009 0 0 0.331081 180.764 767)">108</text><path d="M187.507 129.688 205.918 129.688 205.918 139.055 187.507 139.055Z" stroke="#000000" stroke-width="0.215339" stroke-miterlimit="8" fill="#FFFFFF" transform="matrix(1 0 0 1.02499 4.92035 599.899)"/><text font-family="Yu Gothic,Yu Gothic_MSFontService,sans-serif" font-weight="400" font-size="12" transform="matrix(0.323009 0 0 0.331081 197.584 739)">単価</text><path d="M187.507 139.055 205.918 139.055 205.918 148.423 187.507 148.423Z" stroke="#000000" stroke-width="0.215339" stroke-miterlimit="8" fill="#FFFFFF" transform="matrix(1 0 0 1.02499 4.92035 599.899)"/><text font-family="Calibri,Calibri_MSFontService,sans-serif" font-weight="400" font-size="11" transform="matrix(0.323009 0 0 0.331081 198.876 748)">700</text><path d="M187.507 148.423 205.918 148.423 205.918 157.79 187.507 157.79Z" stroke="#000000" stroke-width="0.215339" stroke-miterlimit="8" fill="#FFFFFF" transform="matrix(1 0 0 1.02499 4.92035 599.899)"/><text font-family="Calibri,Calibri_MSFontService,sans-serif" font-weight="400" font-size="11" transform="matrix(0.323009 0 0 0.331081 198.014 758)">3500</text><path d="M187.507 157.79 205.918 157.79 205.918 167.157 187.507 167.157Z" stroke="#000000" stroke-width="0.215339" stroke-miterlimit="8" fill="#FFFFFF" transform="matrix(1 0 0 1.02499 4.92035 599.899)"/><text font-family="Calibri,Calibri_MSFontService,sans-serif" font-weight="400" font-size="11" transform="matrix(0.323009 0 0 0.331081 198.014 767)">1400</text><path d="M133.564 167.157 151.653 167.157 151.653 176.524 133.564 176.524Z" stroke="#000000" stroke-width="0.215339" stroke-miterlimit="8" fill="#FFFFFF" transform="matrix(1 0 0 1.02499 4.92035 599.899)"/><text font-family="Yu Gothic,Yu Gothic_MSFontService,sans-serif" font-weight="400" font-size="11" transform="matrix(0.323009 0 0 0.331081 142.295 777)">・・・</text><path d="M151.653 167.157 169.741 167.157 169.741 176.524 151.653 176.524Z" stroke="#000000" stroke-width="0.215339" stroke-miterlimit="8" fill="#FFFFFF" transform="matrix(1 0 0 1.02499 4.92035 599.899)"/><text font-family="Yu Gothic,Yu Gothic_MSFontService,sans-serif" font-weight="400" font-size="11" transform="matrix(0.323009 0 0 0.331081 160.406 777)">・・・</text><path d="M169.418 167.157 187.507 167.157 187.507 176.524 169.418 176.524Z" stroke="#000000" stroke-width="0.215339" stroke-miterlimit="8" fill="#FFFFFF" transform="matrix(1 0 0 1.02499 4.92035 599.899)"/><text font-family="Yu Gothic,Yu Gothic_MSFontService,sans-serif" font-weight="400" font-size="11" transform="matrix(0.323009 0 0 0.331081 178.18 777)">・・・</text><path d="M187.507 167.157 205.918 167.157 205.918 176.524 187.507 176.524Z" stroke="#000000" stroke-width="0.215339" stroke-miterlimit="8" fill="#FFFFFF" transform="matrix(1 0 0 1.02499 4.92035 599.899)"/><text font-family="Yu Gothic,Yu Gothic_MSFontService,sans-serif" font-weight="400" font-size="11" transform="matrix(0.323009 0 0 0.331081 196.292 777)">・・・</text></g></g></g></g><g clip-path="url(#clip18)"><g clip-path="url(#clip19)"><g clip-path="url(#clip20)"><g clip-path="url(#clip21)"><path d="M122.285 191.367 140.619 191.367 140.619 200.861 122.285 200.861Z" stroke="#000000" stroke-width="0.218268" stroke-miterlimit="8" fill="#FFFFFF" transform="matrix(1 0 0 1.00445 156.555 541.604)"/><text font-family="Yu Gothic,Yu Gothic_MSFontService,sans-serif" font-weight="400" font-size="12" transform="matrix(0.327402 0 0 0.328859 282.369 740)">顧客<tspan font-family="Calibri,Calibri_MSFontService,sans-serif" font-size="12" x="24" y="0">ID</tspan></text><path d="M122.285 200.861 140.619 200.861 140.619 210.356 122.285 210.356Z" stroke="#000000" stroke-width="0.218268" stroke-miterlimit="8" fill="#FFFFFF" transform="matrix(1 0 0 1.00445 156.555 541.604)"/><text font-family="Calibri,Calibri_MSFontService,sans-serif" font-weight="400" font-size="11" transform="matrix(0.327402 0 0 0.328859 284.442 749)">C<tspan font-size="11" x="6.00001" y="0">003</tspan></text><path d="M122.285 210.356 140.619 210.356 140.619 219.851 122.285 219.851Z" stroke="#000000" stroke-width="0.218268" stroke-miterlimit="8" fill="#FFFFFF" transform="matrix(1 0 0 1.00445 156.555 541.604)"/><text font-family="Calibri,Calibri_MSFontService,sans-serif" font-weight="400" font-size="11" transform="matrix(0.327402 0 0 0.328859 284.442 759)">C<tspan font-size="11" x="6.00001" y="0">003</tspan></text><path d="M122.285 219.851 140.619 219.851 140.619 229.673 122.285 229.673Z" stroke="#000000" stroke-width="0.218268" stroke-miterlimit="8" fill="#FFFFFF" transform="matrix(1 0 0 1.00445 156.555 541.604)"/><text font-family="Calibri,Calibri_MSFontService,sans-serif" font-weight="400" font-size="11" transform="matrix(0.327402 0 0 0.328859 284.442 769)">C<tspan font-size="11" x="6.00001" y="0">026</tspan></text><path d="M122.285 229.673 140.619 229.673 140.619 239.167 122.285 239.167Z" stroke="#000000" stroke-width="0.218268" stroke-miterlimit="8" fill="#FFFFFF" transform="matrix(1 0 0 1.00445 156.555 541.604)"/><text font-family="Yu Gothic,Yu Gothic_MSFontService,sans-serif" font-weight="400" font-size="11" transform="matrix(0.327402 0 0 0.328859 282.751 778)">・・・</text><path d="M140.619 191.367 159.281 191.367 159.281 200.861 140.619 200.861Z" stroke="#000000" stroke-width="0.218268" stroke-miterlimit="8" fill="#FFFFFF" transform="matrix(1 0 0 1.00445 156.555 541.604)"/><text font-family="Yu Gothic,Yu Gothic_MSFontService,sans-serif" font-weight="400" font-size="11" transform="matrix(0.327402 0 0 0.328859 302.854 738)">商品<tspan font-size="11" x="-5.33327" y="12.1633">コード</tspan></text><path d="M140.619 200.861 159.281 200.861 159.281 210.356 140.619 210.356Z" stroke="#000000" stroke-width="0.218268" stroke-miterlimit="8" fill="#FFFFFF" transform="matrix(1 0 0 1.00445 156.555 541.604)"/><text font-family="Calibri,Calibri_MSFontService,sans-serif" font-weight="400" font-size="11" transform="matrix(0.327402 0 0 0.328859 302.827 749)">P<tspan font-size="11" x="6.00001" y="0">031</tspan></text><path d="M140.619 210.356 159.281 210.356 159.281 219.851 140.619 219.851Z" stroke="#000000" stroke-width="0.218268" stroke-miterlimit="8" fill="#FFFFFF" transform="matrix(1 0 0 1.00445 156.555 541.604)"/><text font-family="Calibri,Calibri_MSFontService,sans-serif" font-weight="400" font-size="11" transform="matrix(0.327402 0 0 0.328859 302.609 759)">N<tspan font-size="11" x="6.99998" y="0">008</tspan></text><path d="M140.619 219.851 159.281 219.851 159.281 229.673 140.619 229.673Z" stroke="#000000" stroke-width="0.218268" stroke-miterlimit="8" fill="#FFFFFF" transform="matrix(1 0 0 1.00445 156.555 541.604)"/><text font-family="Calibri,Calibri_MSFontService,sans-serif" font-weight="400" font-size="11" transform="matrix(0.327402 0 0 0.328859 302.991 769)">L<tspan font-size="11" x="5.00004" y="0">012</tspan></text><path d="M140.619 229.673 159.281 229.673 159.281 239.167 140.619 239.167Z" stroke="#000000" stroke-width="0.218268" stroke-miterlimit="8" fill="#FFFFFF" transform="matrix(1 0 0 1.00445 156.555 541.604)"/><text font-family="Yu Gothic,Yu Gothic_MSFontService,sans-serif" font-weight="400" font-size="11" transform="matrix(0.327402 0 0 0.328859 301.108 778)">・・・</text><path d="M67.9359 191.367 86.2705 191.367 86.2705 200.861 67.9359 200.861Z" stroke="#000000" stroke-width="0.218268" stroke-miterlimit="8" fill="#FFFFFF" transform="matrix(1 0 0 1.00445 156.555 541.604)"/><text font-family="Yu Gothic,Yu Gothic_MSFontService,sans-serif" font-weight="400" font-size="12" transform="matrix(0.327402 0 0 0.328859 227.808 740)">注文<tspan font-family="Calibri,Calibri_MSFontService,sans-serif" font-size="12" x="24" y="0">ID</tspan></text><path d="M86.2705 191.367 104.605 191.367 104.605 200.861 86.2705 200.861Z" stroke="#000000" stroke-width="0.218268" stroke-miterlimit="8" fill="#FFFFFF" transform="matrix(1 0 0 1.00445 156.555 541.604)"/><text font-family="Yu Gothic,Yu Gothic_MSFontService,sans-serif" font-weight="400" font-size="12" transform="matrix(0.327402 0 0 0.328859 247.857 740)">個数</text><path d="M104.278 191.367 122.612 191.367 122.612 200.861 104.278 200.861Z" stroke="#000000" stroke-width="0.218268" stroke-miterlimit="8" fill="#FFFFFF" transform="matrix(1 0 0 1.00445 156.555 541.604)"/><text font-family="Yu Gothic,Yu Gothic_MSFontService,sans-serif" font-weight="400" font-size="12" transform="matrix(0.327402 0 0 0.328859 265.873 740)">金額</text><path d="M67.9359 200.861 86.2705 200.861 86.2705 210.356 67.9359 210.356Z" stroke="#000000" stroke-width="0.218268" stroke-miterlimit="8" fill="#FFFFFF" transform="matrix(1 0 0 1.00445 156.555 541.604)"/><text font-family="Calibri,Calibri_MSFontService,sans-serif" font-weight="400" font-size="11" transform="matrix(0.327402 0 0 0.328859 228.108 747)">C<tspan font-size="11" x="6.00001" y="0">003</tspan><tspan font-size="11" x="24" y="0">P</tspan><tspan font-size="11" x="30" y="0">0</tspan><tspan font-size="11" x="1.24665" y="12.1633">31</tspan><tspan font-size="11" x="11.9133" y="12.1633">-</tspan><tspan font-size="11" x="15.2467" y="12.1633">001</tspan></text><path d="M86.2705 200.861 104.605 200.861 104.605 210.356 86.2705 210.356Z" stroke="#000000" stroke-width="0.218268" stroke-miterlimit="8" fill="#FFFFFF" transform="matrix(1 0 0 1.00445 156.555 541.604)"/><text font-family="Calibri,Calibri_MSFontService,sans-serif" font-weight="400" font-size="11" transform="matrix(0.327402 0 0 0.328859 250.913 749)">2</text><path d="M104.278 200.861 122.612 200.861 122.612 210.356 104.278 210.356Z" stroke="#000000" stroke-width="0.218268" stroke-miterlimit="8" fill="#FFFFFF" transform="matrix(1 0 0 1.00445 156.555 541.604)"/><text font-family="Calibri,Calibri_MSFontService,sans-serif" font-weight="400" font-size="11" transform="matrix(0.327402 0 0 0.328859 266.31 749)">1400</text><path d="M67.9359 210.356 86.2705 210.356 86.2705 219.851 67.9359 219.851Z" stroke="#000000" stroke-width="0.218268" stroke-miterlimit="8" fill="#FFFFFF" transform="matrix(1 0 0 1.00445 156.555 541.604)"/><text font-family="Calibri,Calibri_MSFontService,sans-serif" font-weight="400" font-size="11" transform="matrix(0.327402 0 0 0.328859 227.89 757)">C<tspan font-size="11" x="6.00001" y="0">003</tspan><tspan font-size="11" x="24" y="0">N</tspan><tspan font-size="11" x="31" y="0">0</tspan><tspan font-size="11" x="1.91335" y="12.1633">08</tspan><tspan font-size="11" x="12.58" y="12.1633">-</tspan><tspan font-size="11" x="15.9133" y="12.1633">005</tspan></text><path d="M86.2705 210.356 104.605 210.356 104.605 219.851 86.2705 219.851Z" stroke="#000000" stroke-width="0.218268" stroke-miterlimit="8" fill="#FFFFFF" transform="matrix(1 0 0 1.00445 156.555 541.604)"/><text font-family="Calibri,Calibri_MSFontService,sans-serif" font-weight="400" font-size="11" transform="matrix(0.327402 0 0 0.328859 250.913 759)">1</text><path d="M104.278 210.356 122.612 210.356 122.612 219.851 104.278 219.851Z" stroke="#000000" stroke-width="0.218268" stroke-miterlimit="8" fill="#FFFFFF" transform="matrix(1 0 0 1.00445 156.555 541.604)"/><text font-family="Calibri,Calibri_MSFontService,sans-serif" font-weight="400" font-size="11" transform="matrix(0.327402 0 0 0.328859 266.31 759)">3500</text><path d="M67.9359 219.851 86.2705 219.851 86.2705 229.673 67.9359 229.673Z" stroke="#000000" stroke-width="0.218268" stroke-miterlimit="8" fill="#FFFFFF" transform="matrix(1 0 0 1.00445 156.555 541.604)"/><text font-family="Calibri,Calibri_MSFontService,sans-serif" font-weight="400" font-size="11" transform="matrix(0.327402 0 0 0.328859 227.399 766)">C<tspan font-size="11" x="6.00001" y="0">026</tspan><tspan font-size="11" x="24" y="0">L</tspan><tspan font-size="11" x="29" y="0">01</tspan><tspan font-size="11" x="6.08003" y="12.1633">2</tspan><tspan font-size="11" x="11.4133" y="12.1633">-</tspan><tspan font-size="11" x="14.7467" y="12.1633">052</tspan></text><path d="M86.2705 219.851 104.605 219.851 104.605 229.673 86.2705 229.673Z" stroke="#000000" stroke-width="0.218268" stroke-miterlimit="8" fill="#FFFFFF" transform="matrix(1 0 0 1.00445 156.555 541.604)"/><text font-family="Calibri,Calibri_MSFontService,sans-serif" font-weight="400" font-size="11" transform="matrix(0.327402 0 0 0.328859 250.04 769)">5<tspan font-size="11" x="5.33332" y="0">0</tspan></text><path d="M104.278 219.851 122.612 219.851 122.612 229.673 104.278 229.673Z" stroke="#000000" stroke-width="0.218268" stroke-miterlimit="8" fill="#FFFFFF" transform="matrix(1 0 0 1.00445 156.555 541.604)"/><text font-family="Calibri,Calibri_MSFontService,sans-serif" font-weight="400" font-size="11" transform="matrix(0.327402 0 0 0.328859 265.437 769)">63000</text><path d="M67.9359 229.673 86.2705 229.673 86.2705 239.167 67.9359 239.167Z" stroke="#000000" stroke-width="0.218268" stroke-miterlimit="8" fill="#FFFFFF" transform="matrix(1 0 0 1.00445 156.555 541.604)"/><text font-family="Yu Gothic,Yu Gothic_MSFontService,sans-serif" font-weight="400" font-size="11" transform="matrix(0.327402 0 0 0.328859 228.19 778)">・・・</text><path d="M86.2705 229.673 104.605 229.673 104.605 239.167 86.2705 239.167Z" stroke="#000000" stroke-width="0.218268" stroke-miterlimit="8" fill="#FFFFFF" transform="matrix(1 0 0 1.00445 156.555 541.604)"/><text font-family="Yu Gothic,Yu Gothic_MSFontService,sans-serif" font-weight="400" font-size="11" transform="matrix(0.327402 0 0 0.328859 246.548 778)">・・・</text><path d="M104.278 229.673 122.612 229.673 122.612 239.167 104.278 239.167Z" stroke="#000000" stroke-width="0.218268" stroke-miterlimit="8" fill="#FFFFFF" transform="matrix(1 0 0 1.00445 156.555 541.604)"/><text font-family="Yu Gothic,Yu Gothic_MSFontService,sans-serif" font-weight="400" font-size="11" transform="matrix(0.327402 0 0 0.328859 264.564 778)">・・・</text></g></g></g></g><path d="M322.5 758.5 328.5 752.5 328.5 755.5 360.5 755.5 360.5 752.5 366.5 758.5 360.5 764.5 360.5 761.5 328.5 761.5 328.5 764.5Z" stroke="#2F528F" stroke-width="1.33333" stroke-miterlimit="8" fill="#4472C4" fill-rule="evenodd"/><text font-family="Yu Gothic,Yu Gothic_MSFontService,sans-serif" font-weight="400" font-size="13" transform="translate(349.4 542)">利用ロジック<tspan font-size="13" x="80" y="0">に、状態更新、問合せの</tspan><tspan font-family="Calibri,Calibri_MSFontService,sans-serif" font-size="13" x="229.667" y="0">API</tspan><tspan font-size="13" x="250.5" y="0">を提供</tspan></text><path d="M408.5 752.5 604.5 752.5 604.5 787.5 597.5 794.5 408.5 794.5Z" fill="#FFFFFF" fill-rule="evenodd"/><path d="M597.5 794.5 598.9 788.9 604.5 787.5Z" fill="#CDCDCD" fill-rule="evenodd"/><path d="M597.5 794.5 598.9 788.9 604.5 787.5 597.5 794.5 408.5 794.5 408.5 752.5 604.5 752.5 604.5 787.5" stroke="#000000" stroke-width="0.666667" stroke-miterlimit="8" fill="none" fill-rule="evenodd"/><text font-family="Calibri,Calibri_MSFontService,sans-serif" font-weight="400" font-size="5" transform="translate(408.162 757)">Goods:{<tspan font-size="5" x="0" y="6">“</tspan><tspan font-family="Yu Gothic,Yu Gothic_MSFontService,sans-serif" font-size="5" x="2.16666" y="6">商品コード</tspan><tspan font-size="5" x="28.8333" y="6">”:”</tspan><tspan font-size="5" x="34.6667" y="6">abcd</tspan>”,”<tspan font-family="Yu Gothic,Yu Gothic_MSFontService,sans-serif" font-size="5" x="50.8333" y="6">商品名</tspan>”:”<tspan font-size="5" x="72.6667" y="6">xyz</tspan><tspan font-size="5" x="79.5" y="6">”,”</tspan><tspan font-family="Yu Gothic,Yu Gothic_MSFontService,sans-serif" font-size="5" x="85.1667" y="6">在庫</tspan><tspan font-size="5" x="95.8333" y="6">”:1028,”</tspan><tspan font-family="Yu Gothic,Yu Gothic_MSFontService,sans-serif" font-size="5" x="113.667" y="6">単価</tspan><tspan font-size="5" x="124.333" y="6">”:1200},</tspan><tspan font-family="Yu Gothic,Yu Gothic_MSFontService,sans-serif" font-size="5" x="0" y="13">・・</tspan><tspan font-family="Yu Gothic,Yu Gothic_MSFontService,sans-serif" font-size="5" x="10.6667" y="13">・</tspan><tspan font-family="Yu Gothic,Yu Gothic_MSFontService,sans-serif" font-size="5" x="0" y="19">・・・</tspan></text><path d="M414.5 758.5 610.5 758.5 610.5 793.5 603.5 800.5 414.5 800.5Z" fill="#FFFFFF" fill-rule="evenodd"/><path d="M603.5 800.5 604.9 794.9 610.5 793.5Z" fill="#CDCDCD" fill-rule="evenodd"/><path d="M603.5 800.5 604.9 794.9 610.5 793.5 603.5 800.5 414.5 800.5 414.5 758.5 610.5 758.5 610.5 793.5" stroke="#000000" stroke-width="0.666667" stroke-miterlimit="8" fill="none" fill-rule="evenodd"/><text font-family="Calibri,Calibri_MSFontService,sans-serif" font-weight="400" font-size="5" transform="translate(414.24 763)">Orders:{<tspan font-size="5" x="0" y="6">“</tspan><tspan font-family="Yu Gothic,Yu Gothic_MSFontService,sans-serif" font-size="5" x="2.16666" y="6">注文</tspan><tspan font-size="5" x="12.8333" y="6">ID”:”O365“,”</tspan><tspan font-family="Yu Gothic,Yu Gothic_MSFontService,sans-serif" font-size="5" x="40.5" y="6">個数</tspan><tspan font-size="5" x="51.1667" y="6">”:10,”</tspan><tspan font-family="Yu Gothic,Yu Gothic_MSFontService,sans-serif" font-size="5" x="63.6667" y="6">金額</tspan><tspan font-size="5" x="74.3333" y="6">”:12000,</tspan><tspan font-family="Yu Gothic,Yu Gothic_MSFontService,sans-serif" font-size="5" x="92.6667" y="6">顧客</tspan><tspan font-size="5" x="103.333" y="6">ID”:”</tspan>xxxx<tspan font-size="5" x="123.167" y="6">”,”</tspan><tspan font-family="Yu Gothic,Yu Gothic_MSFontService,sans-serif" font-size="5" x="128.833" y="6">商品コード</tspan><tspan font-size="5" x="155.5" y="6">”:”</tspan><tspan font-size="5" x="161.333" y="6">abcd</tspan>”},<tspan font-family="Yu Gothic,Yu Gothic_MSFontService,sans-serif" font-size="5" x="0" y="13">・・</tspan><tspan font-family="Yu Gothic,Yu Gothic_MSFontService,sans-serif" font-size="5" x="10.6667" y="13">・</tspan><tspan font-family="Yu Gothic,Yu Gothic_MSFontService,sans-serif" font-size="5" x="0" y="19">・・・</tspan></text><g clip-path="url(#clip22)"><g clip-path="url(#clip23)"><g clip-path="url(#clip24)"><path d="M4.10278 7.31389C3.96854 7.31466 3.8591 7.20646 3.85833 7.07223 3.85833 7.0713 3.85833 7.07037 3.85833 7.06944L3.85833 7.06944C3.85604 5.52937 2.60813 4.28146 1.06806 4.27917 0.933593 4.27917 0.824375 4.17057 0.823611 4.03611L0.823611 4.03611C0.823611 3.90111 0.933053 3.79167 1.06806 3.79167 2.60867 3.78937 3.8568 2.54062 3.85833 1 3.85756 0.865766 3.96576 0.756324 4.09999 0.755555 4.10092 0.75555 4.10185 0.75555 4.10278 0.755555L4.10278 0.755556C4.23701 0.754786 4.34645 0.862981 4.34722 0.997214 4.34723 0.998143 4.34723 0.999071 4.34722 1L4.34722 1C4.34952 2.54008 5.59742 3.78798 7.1375 3.79028 7.27173 3.78951 7.38117 3.8977 7.38194 4.03194 7.38195 4.03287 7.38195 4.03379 7.38194 4.03472L7.38194 4.03472C7.38271 4.16896 7.27452 4.2784 7.14029 4.27917 7.13936 4.27917 7.13843 4.27917 7.1375 4.27917L7.1375 4.27917C5.59711 4.2807 4.34875 5.52905 4.34722 7.06944 4.34646 7.20413 4.23746 7.31313 4.10278 7.31389Z" fill="#50E6FF" transform="matrix(1 0 0 1.04 606 689)"/><path d="M21.6819 24.2444C21.5738 24.2444 21.4861 24.1568 21.4861 24.0486L21.4861 24.0486C21.4846 22.8166 20.4862 21.8182 19.2542 21.8167 19.1466 21.8167 19.0591 21.7298 19.0583 21.6222L19.0583 21.6222C19.0583 21.5141 19.146 21.4264 19.2542 21.4264L19.2542 21.4264C20.4865 21.4256 21.4853 20.4268 21.4861 19.1944 21.4861 19.0863 21.5738 18.9986 21.6819 18.9986L21.6819 18.9986C21.7901 18.9986 21.8778 19.0863 21.8778 19.1944L21.8778 19.1944C21.8785 20.4268 22.8774 21.4256 24.1097 21.4264 24.2179 21.4264 24.3056 21.5141 24.3056 21.6222 24.3056 21.7304 24.2179 21.8181 24.1097 21.8181L24.1097 21.8181C22.8777 21.8196 21.8793 22.818 21.8778 24.05 21.877 24.1576 21.7896 24.2444 21.6819 24.2444Z" fill="#50E6FF" transform="matrix(1 0 0 1.04 606 689)"/><path d="M20.7903 10.4583C21.8841 15.0369 19.0592 19.6354 14.4806 20.7292 9.90196 21.8231 5.30352 18.9981 4.20967 14.4195 3.11581 9.84092 5.94076 5.24248 10.5194 4.14863 15.098 3.05482 19.6964 5.87977 20.7902 10.4584Z" fill="url(#fill25)" transform="matrix(1 0 0 1.04 606 689)"/><g clip-path="url(#clip26)"><path d="M7.92917 18.2153C9.18518 18.2482 10.2301 17.2566 10.263 16.0006 10.2959 14.7446 9.30433 13.6997 8.04831 13.6668 8.01092 13.6659 7.97351 13.6658 7.93611 13.6667 7.94283 13.6021 7.94607 13.5372 7.94583 13.4722 7.93438 12.2085 6.90263 11.1923 5.63889 11.2L3.93333 11.2C3.59556 13.7512 4.40697 16.3207 6.14861 18.2153Z" fill="#F2F2F2" transform="matrix(1 0 0 1.04 606 689)"/><path d="M20.8958 10.8542C20.8958 10.8333 20.8958 10.8125 20.8861 10.7931 20.6114 9.30684 19.9362 7.9238 18.9333 6.79306 18.8032 6.74035 18.669 6.69854 18.5319 6.66805 17.1998 6.28797 15.8118 7.05978 15.4317 8.39193 15.3772 8.5828 15.3456 8.77946 15.3375 8.97778 15.2453 8.96712 15.1526 8.96109 15.0597 8.95972 13.7273 8.95961 12.6471 10.0396 12.647 11.372 12.6469 12.3935 13.2901 13.3043 14.2528 13.6458 14.4921 13.7396 14.7471 13.7868 15.0042 13.7847L17.8236 13.7847C18.9557 12.9278 19.9864 11.9446 20.8958 10.8542Z" fill="#F2F2F2" transform="matrix(1 0 0 1.04 606 689)"/></g><path d="M23.8764 5.32222C23.0028 3.86806 20.9597 3.30139 18.1056 3.72639 17.1277 3.86498 16.1612 4.07479 15.2139 4.35417 15.9654 4.61361 16.6791 4.97184 17.3361 5.41944 17.6708 5.34583 18.0069 5.25833 18.3292 5.20972 18.8361 5.1308 19.3481 5.08948 19.8611 5.08611 20.8801 4.93922 21.9041 5.3182 22.5819 6.09306L22.5819 6.09306C23.1139 6.97917 22.6653 8.49444 21.3514 10.2597 19.5254 12.5325 17.2878 14.4412 14.7556 15.8861 12.28 17.4311 9.53607 18.4969 6.66667 19.0278 4.49444 19.3528 2.94167 19.0278 2.40972 18.1444 1.87778 17.2611 2.32639 15.7417 3.64028 13.9847 3.80278 13.7667 3.84306 13.6597 4.02778 13.4403 3.94096 12.6873 3.9531 11.9262 4.06389 11.1764 3.4734 11.7683 2.93008 12.4054 2.43889 13.0819 0.718056 15.3833 0.251389 17.4528 1.12361 18.9069 2.0613 20.1614 3.59563 20.8222 5.15139 20.6417 5.7332 20.6386 6.31398 20.5922 6.88889 20.5028 9.95178 19.9437 12.882 18.8129 15.5264 17.1694 18.2271 15.6239 20.6118 13.5826 22.5556 11.1528 24.2819 8.84583 24.7486 6.77778 23.8764 5.32222Z" fill="#50E6FF" transform="matrix(1 0 0 1.04 606 689)"/></g></g></g></g></svg>