<svg width="608" height="374" xmlns="http://www.w3.org/2000/svg" xmlns:xlink="http://www.w3.org/1999/xlink" overflow="hidden"><defs><clipPath id="clip0"><rect x="56" y="93" width="608" height="374"/></clipPath><linearGradient x1="499.5" y1="165.5" x2="499.5" y2="313.5" gradientUnits="userSpaceOnUse" spreadMethod="reflect" id="fill1"><stop offset="0" stop-color="#FFDD9C"/><stop offset="0.5" stop-color="#FFD78E"/><stop offset="1" stop-color="#FFD479"/></linearGradient><linearGradient x1="194" y1="325.5" x2="194" y2="401.5" gradientUnits="userSpaceOnUse" spreadMethod="reflect" id="fill2"><stop offset="0" stop-color="#B1CBE9"/><stop offset="0.5" stop-color="#B1CBE9"/><stop offset="0.5" stop-color="#A3C1E5"/><stop offset="1" stop-color="#92B9E4" stop-opacity="0.501961"/></linearGradient><clipPath id="clip3"><rect x="78" y="194" width="237" height="102"/></clipPath><clipPath id="clip4"><rect x="78" y="194" width="237" height="102"/></clipPath><clipPath id="clip5"><rect x="53" y="177" width="275" height="131"/></clipPath><clipPath id="clip6"><rect x="53" y="177" width="275" height="131"/></clipPath><linearGradient x1="503.5" y1="188.5" x2="503.5" y2="259.5" gradientUnits="userSpaceOnUse" spreadMethod="reflect" id="fill7"><stop offset="0" stop-color="#FFDD9C" stop-opacity="0.701961"/><stop offset="0.5" stop-color="#FFD78E" stop-opacity="0.701961"/><stop offset="1" stop-color="#FFD479" stop-opacity="0.701961"/></linearGradient><linearGradient x1="503.5" y1="188.5" x2="503.5" y2="259.5" gradientUnits="userSpaceOnUse" spreadMethod="reflect" id="fill8"><stop offset="0" stop-color="#CDB27D" stop-opacity="0.701961"/><stop offset="0.5" stop-color="#CDAD72" stop-opacity="0.701961"/><stop offset="1" stop-color="#CDAA61" stop-opacity="0.701961"/></linearGradient><linearGradient x1="503.5" y1="188.5" x2="503.5" y2="259.5" gradientUnits="userSpaceOnUse" spreadMethod="reflect" id="fill9"><stop offset="0" stop-color="#FFE4AF" stop-opacity="0.701961"/><stop offset="0.5" stop-color="#FFDFA4" stop-opacity="0.701961"/><stop offset="1" stop-color="#FFDC93" stop-opacity="0.701961"/></linearGradient><clipPath id="clip10"><rect x="70" y="338" width="56" height="48"/></clipPath><clipPath id="clip11"><rect x="70" y="338" width="56" height="48"/></clipPath><clipPath id="clip12"><rect x="70" y="338" width="56" height="48"/></clipPath><clipPath id="clip13"><rect x="70" y="338" width="56" height="48"/></clipPath><clipPath id="clip14"><rect x="138" y="338" width="73" height="48"/></clipPath><clipPath id="clip15"><rect x="138" y="338" width="73" height="48"/></clipPath><clipPath id="clip16"><rect x="138" y="338" width="73" height="48"/></clipPath><clipPath id="clip17"><rect x="138" y="338" width="73" height="48"/></clipPath><clipPath id="clip18"><rect x="224" y="339" width="92" height="49"/></clipPath><clipPath id="clip19"><rect x="224" y="339" width="92" height="49"/></clipPath><clipPath id="clip20"><rect x="224" y="339" width="92" height="49"/></clipPath><clipPath id="clip21"><rect x="224" y="339" width="92" height="49"/></clipPath><clipPath id="clip22"><rect x="599" y="290" width="25" height="25"/></clipPath><clipPath id="clip23"><rect x="599" y="290" width="25" height="25"/></clipPath><clipPath id="clip24"><rect x="599" y="290" width="25" height="25"/></clipPath><linearGradient x1="611.5" y1="311.986" x2="611.5" y2="298.042" gradientUnits="userSpaceOnUse" spreadMethod="pad" id="fill25"><stop offset="0" stop-color="#B3B3B3"/><stop offset="0.26" stop-color="#C1C1C1"/><stop offset="1" stop-color="#E6E6E6"/></linearGradient></defs><g clip-path="url(#clip0)" transform="translate(-56 -93)"><path d="M429.5 181.104 499.5 165.5 569.5 181.104 538.731 181.104 538.731 297.896 569.5 297.896 499.5 313.5 429.5 297.896 460.269 297.896 460.269 181.104Z" stroke="#FFC000" stroke-width="0.666667" stroke-miterlimit="8" fill="url(#fill1)" fill-rule="evenodd"/><path d="M62.5001 338.167C62.5001 331.171 68.1712 325.5 75.1669 325.5L312.833 325.5C319.829 325.5 325.5 331.171 325.5 338.167L325.5 388.833C325.5 395.829 319.829 401.5 312.833 401.5L75.1669 401.5C68.1712 401.5 62.5001 395.829 62.5001 388.833Z" stroke="#5B9BD5" stroke-width="0.666667" stroke-miterlimit="8" fill="url(#fill2)" fill-rule="evenodd"/><rect x="58.5001" y="94.5001" width="604" height="372" stroke="#D9D9D9" stroke-width="1.33333" stroke-miterlimit="8" fill="none"/><g clip-path="url(#clip3)"><g clip-path="url(#clip4)"><g clip-path="url(#clip5)"><g clip-path="url(#clip6)"><path d="M26.3554 42.5741 298.469 42.5741 298.469 170.522 26.3554 170.522Z" stroke="#D9D9D9" stroke-width="0.600691" stroke-miterlimit="8" fill="none" transform="matrix(1 0 0 1.00324 28.1322 135.858)"/><path d="M62.3969 73.2094 119.162 73.2094 119.162 112.405 62.3969 112.405Z" stroke="#000000" stroke-width="0.600691" stroke-miterlimit="8" fill="#FFFFFF" transform="matrix(1 0 0 1.00324 28.1322 135.858)"/><text font-family="Yu Gothic,Yu Gothic_MSFontService,sans-serif" font-weight="400" font-size="13" transform="matrix(0.450519 0 0 0.451979 112.728 216)">顧客<tspan font-family="Consolas,Consolas_MSFontService,sans-serif" font-size="13" x="-40.2467" y="17.6999">*</tspan><tspan font-size="13" x="-32.9133" y="17.6999">顧客</tspan><tspan font-family="Consolas,Consolas_MSFontService,sans-serif" font-size="13" x="-6.24666" y="17.6999">ID</tspan><tspan font-size="13" x="-26.9133" y="33.1874">顧客名</tspan><tspan font-size="13" x="-26.9133" y="48.6748">住所</tspan></text><path d="M203.86 73.2094 261.076 73.2094 261.076 112.405 203.86 112.405Z" stroke="#000000" stroke-width="0.600691" stroke-miterlimit="8" fill="#FFFFFF" transform="matrix(1 0 0 1.00324 28.1322 135.858)"/><text font-family="Yu Gothic,Yu Gothic_MSFontService,sans-serif" font-weight="400" font-size="13" transform="matrix(0.450519 0 0 0.451979 254.3 216)">商品<tspan font-family="Consolas,Consolas_MSFontService,sans-serif" font-size="13" x="-40.2467" y="17.6999">*</tspan><tspan font-size="13" x="-32.9133" y="17.6999">商品</tspan><tspan font-size="13" x="-6.91331" y="17.6999">コード</tspan><tspan font-size="13" x="-26.9133" y="33.1874">商品名</tspan><tspan font-size="13" x="-26.9133" y="48.6748">在庫</tspan><tspan font-size="13" x="-26.9133" y="64.1622">単価</tspan></text><path d="M119.162 92.5817 203.767 92.5817" stroke="#000000" stroke-width="0.300346" stroke-miterlimit="8" fill="none" fill-rule="evenodd" transform="matrix(1 0 0 1.00324 28.1322 135.858)"/><path d="M0 0 2.7567 21.634" stroke="#000000" stroke-width="0.901038" stroke-miterlimit="8" stroke-dasharray="0.901038 0.901038" fill="none" fill-rule="evenodd" transform="matrix(1 0 0 -1.00324 186.715 251.122)"/><text font-family="Yu Gothic,Yu Gothic_MSFontService,sans-serif" font-weight="400" font-size="11" transform="matrix(0.450519 0 0 0.451979 152.367 225)">発注者<tspan font-family="Calibri,Calibri_MSFontService,sans-serif" font-size="11" x="-3.70016" y="19.9124">*</tspan><tspan font-family="Calibri,Calibri_MSFontService,sans-serif" font-size="11" x="158.002" y="6.63747">*</tspan><tspan font-size="11" x="125.323" y="19.9124">購入予約</tspan></text><path d="M130.425 115.108 187.191 115.108 187.191 154.303 130.425 154.303Z" stroke="#000000" stroke-width="0.600691" stroke-miterlimit="8" fill="#FFFFFF" transform="matrix(1 0 0 1.00324 28.1322 135.858)"/><text font-family="Yu Gothic,Yu Gothic_MSFontService,sans-serif" font-weight="400" font-size="13" transform="matrix(0.450519 0 0 0.451979 180.749 259)">注文<tspan font-family="Consolas,Consolas_MSFontService,sans-serif" font-size="13" x="-40.2467" y="15.4874">*</tspan><tspan font-size="13" x="-32.9133" y="15.4874">注文</tspan><tspan font-family="Consolas,Consolas_MSFontService,sans-serif" font-size="13" x="-6.24666" y="15.4874">ID</tspan><tspan font-size="13" x="-26.9133" y="30.9749">個数</tspan><tspan font-size="13" x="-26.9133" y="46.4623">金額</tspan><tspan font-size="16" x="-271.519" y="-159.299">ドメイン</tspan><tspan font-size="16" x="-208.519" y="-159.299">：</tspan><tspan font-size="16" x="-192.519" y="-159.299">商品販売</tspan></text></g></g></g></g><text font-family="Yu Gothic,Yu Gothic_MSFontService,sans-serif" font-weight="400" font-size="16" transform="translate(140.595 185)">概念情報モデル</text><path d="M650.5 303.667C650.5 318.118 584.686 329.833 503.5 329.833 422.314 329.833 356.5 318.118 356.5 303.667" stroke="#2F528F" stroke-width="1.33333" stroke-miterlimit="8" stroke-opacity="0.501961" fill="none" fill-rule="evenodd"/><path d="M356.5 303.667C356.5 289.215 422.314 277.5 503.5 277.5 584.686 277.5 650.5 289.215 650.5 303.667L650.5 408.333C650.5 422.785 584.686 434.5 503.5 434.5 422.314 434.5 356.5 422.785 356.5 408.333Z" stroke="#2F528F" stroke-width="1.33333" stroke-miterlimit="8" stroke-opacity="0.501961" fill="none" fill-rule="evenodd"/><text font-family="Calibri,Calibri_MSFontService,sans-serif" font-weight="400" font-size="16" transform="translate(473.709 423)">Storage</text><path d="M373.5 350.5 455.5 350.5 455.5 373 451 377.5 373.5 377.5Z" fill="#FFFFFF" fill-rule="evenodd"/><path d="M451 377.5 451.9 373.9 455.5 373Z" fill="#CDCDCD" fill-rule="evenodd"/><path d="M451 377.5 451.9 373.9 455.5 373 451 377.5 373.5 377.5 373.5 350.5 455.5 350.5 455.5 373" stroke="#000000" stroke-width="0.666667" stroke-miterlimit="8" fill="none" fill-rule="evenodd"/><text font-family="Yu Gothic,Yu Gothic_MSFontService,sans-serif" font-weight="400" font-size="5" transform="translate(373.132 355)">顧客<tspan font-family="Calibri,Calibri_MSFontService,sans-serif" font-size="5" x="10.6667" y="0">ID,</tspan>顧客名<tspan font-family="Calibri,Calibri_MSFontService,sans-serif" font-size="5" x="32.6667" y="0">,</tspan><tspan font-size="5" x="34" y="0">住所</tspan><tspan font-size="5" x="0" y="6">・・</tspan><tspan font-size="5" x="10.6667" y="6">・</tspan><tspan font-size="5" x="0" y="13">・・・</tspan><tspan font-family="Calibri,Calibri_MSFontService,sans-serif" font-size="13" x="4.56189" y="-13">customer.csv</tspan></text><path d="M558.5 350.5 640.5 350.5 640.5 373 636 377.5 558.5 377.5Z" fill="#FFFFFF" fill-rule="evenodd"/><path d="M636 377.5 636.9 373.9 640.5 373Z" fill="#CDCDCD" fill-rule="evenodd"/><path d="M636 377.5 636.9 373.9 640.5 373 636 377.5 558.5 377.5 558.5 350.5 640.5 350.5 640.5 373" stroke="#000000" stroke-width="0.666667" stroke-miterlimit="8" fill="none" fill-rule="evenodd"/><text font-family="Yu Gothic,Yu Gothic_MSFontService,sans-serif" font-weight="400" font-size="5" transform="translate(557.887 355)">商品コード<tspan font-family="Calibri,Calibri_MSFontService,sans-serif" font-size="5" x="26.6667" y="0">,</tspan><tspan font-size="5" x="28" y="0">商品名</tspan><tspan font-family="Calibri,Calibri_MSFontService,sans-serif" font-size="5" x="44" y="0">,</tspan><tspan font-size="5" x="45.3333" y="0">在庫</tspan><tspan font-family="Calibri,Calibri_MSFontService,sans-serif" font-size="5" x="56" y="0">,</tspan><tspan font-size="5" x="57.3333" y="0">単価</tspan><tspan font-size="5" x="0" y="6">・・</tspan><tspan font-size="5" x="10.6667" y="6">・</tspan><tspan font-size="5" x="0" y="13">・・・</tspan><tspan font-family="Calibri,Calibri_MSFontService,sans-serif" font-size="13" x="10.4589" y="-13">goods.csv</tspan></text><path d="M462.5 350.5 551.5 350.5 551.5 373 547 377.5 462.5 377.5Z" fill="#FFFFFF" fill-rule="evenodd"/><path d="M547 377.5 547.9 373.9 551.5 373Z" fill="#CDCDCD" fill-rule="evenodd"/><path d="M547 377.5 547.9 373.9 551.5 373 547 377.5 462.5 377.5 462.5 350.5 551.5 350.5 551.5 373" stroke="#000000" stroke-width="0.666667" stroke-miterlimit="8" fill="none" fill-rule="evenodd"/><text font-family="Yu Gothic,Yu Gothic_MSFontService,sans-serif" font-weight="400" font-size="5" transform="translate(462.34 355)">注文<tspan font-family="Calibri,Calibri_MSFontService,sans-serif" font-size="5" x="10.6667" y="0">ID,</tspan>個数<tspan font-family="Calibri,Calibri_MSFontService,sans-serif" font-size="5" x="27.3333" y="0">,</tspan><tspan font-size="5" x="28.6667" y="0">金額</tspan><tspan font-size="5" x="39.3333" y="0">顧客</tspan><tspan font-family="Calibri,Calibri_MSFontService,sans-serif" font-size="5" x="50" y="0">ID,</tspan>商品コード<tspan font-size="5" x="0" y="6">・・</tspan><tspan font-size="5" x="10.6667" y="6">・</tspan><tspan font-size="5" x="0" y="13">・・・</tspan><tspan font-family="Calibri,Calibri_MSFontService,sans-serif" font-size="13" x="18.8044" y="-13">order.csv</tspan></text><rect x="356.5" y="206.25" width="276.25" height="53.25" fill="url(#fill7)"/><path d="M632.75 206.25 650.5 188.5 650.5 241.75 632.75 259.5Z" fill="url(#fill8)" fill-rule="evenodd"/><path d="M356.5 206.25 374.25 188.5 650.5 188.5 632.75 206.25Z" fill="url(#fill9)" fill-rule="evenodd"/><path d="M356.5 206.25 374.25 188.5 650.5 188.5 650.5 241.75 632.75 259.5 356.5 259.5ZM356.5 206.25 632.75 206.25 650.5 188.5M632.75 206.25 632.75 259.5" stroke="#FFC000" stroke-width="0.666667" stroke-miterlimit="8" fill="none" fill-rule="evenodd"/><text font-family="Yu Gothic,Yu Gothic_MSFontService,sans-serif" font-weight="400" font-size="16" transform="translate(454.249 205)">操作ロジック<tspan font-size="13" x="-79.3528" y="31">概念情報モデルで定義された制約を実装</tspan></text><path d="M305.5 220.25 307.094 220.25 307.094 245.75 305.5 245.75ZM308.688 220.25 311.875 220.25 311.875 245.75 308.688 245.75ZM313.469 220.25 343 220.25 343 207.5 368.5 233 343 258.5 343 245.75 313.469 245.75Z" stroke="#BC8C00" stroke-width="1.33333" stroke-miterlimit="8" fill="#FFC000" fill-rule="evenodd"/><g clip-path="url(#clip10)"><g clip-path="url(#clip11)"><g clip-path="url(#clip12)"><g clip-path="url(#clip13)"><path d="M28.2449 127.51 46.5306 127.51 46.5306 136.98 28.2449 136.98Z" stroke="#000000" stroke-width="0.217687" stroke-miterlimit="8" fill="#FFFFFF" transform="matrix(1.00882 0 0 1 42 210.98)"/><text font-family="Yu Gothic,Yu Gothic_MSFontService,sans-serif" font-weight="400" font-size="12" transform="matrix(0.329412 0 0 0.326531 74.031 344)">顧客<tspan font-family="Calibri,Calibri_MSFontService,sans-serif" font-size="12" x="24" y="0">ID</tspan></text><path d="M46.5306 127.51 65.1429 127.51 65.1429 136.98 46.5306 136.98Z" stroke="#000000" stroke-width="0.217687" stroke-miterlimit="8" fill="#FFFFFF" transform="matrix(1.00882 0 0 1 42 210.98)"/><text font-family="Yu Gothic,Yu Gothic_MSFontService,sans-serif" font-weight="400" font-size="12" transform="matrix(0.329412 0 0 0.326531 92.2267 344)">顧客名</text><path d="M64.4898 127.51 83.102 127.51 83.102 136.98 64.4898 136.98Z" stroke="#000000" stroke-width="0.217687" stroke-miterlimit="8" fill="#FFFFFF" transform="matrix(1.00882 0 0 1 42 210.98)"/><text font-family="Yu Gothic,Yu Gothic_MSFontService,sans-serif" font-weight="400" font-size="12" transform="matrix(0.329412 0 0 0.326531 112.33 344)">住所</text><path d="M28.2449 136.98 46.5306 136.98 46.5306 146.449 28.2449 146.449Z" stroke="#000000" stroke-width="0.217687" stroke-miterlimit="8" fill="#FFFFFF" transform="matrix(1.00882 0 0 1 42 210.98)"/><text font-family="Calibri,Calibri_MSFontService,sans-serif" font-weight="400" font-size="11" transform="matrix(0.329412 0 0 0.326531 76.1172 354)">C003</text><path d="M46.5306 136.98 65.1429 136.98 65.1429 146.449 46.5306 146.449Z" stroke="#000000" stroke-width="0.217687" stroke-miterlimit="8" fill="#FFFFFF" transform="matrix(1.00882 0 0 1 42 210.98)"/><text font-family="Yu Gothic,Yu Gothic_MSFontService,sans-serif" font-weight="400" font-size="11" transform="matrix(0.329412 0 0 0.326531 94.2582 354)">概<tspan font-size="11" x="13" y="0">念</tspan></text><path d="M64.4898 136.98 83.102 136.98 83.102 146.449 64.4898 146.449Z" stroke="#000000" stroke-width="0.217687" stroke-miterlimit="8" fill="#FFFFFF" transform="matrix(1.00882 0 0 1 42 210.98)"/><text font-family="Calibri,Calibri_MSFontService,sans-serif" font-weight="400" font-size="11" transform="matrix(0.329412 0 0 0.326531 113.565 354)">XXX</text><path d="M28.2449 146.449 46.5306 146.449 46.5306 155.918 28.2449 155.918Z" stroke="#000000" stroke-width="0.217687" stroke-miterlimit="8" fill="#FFFFFF" transform="matrix(1.00882 0 0 1 42 210.98)"/><text font-family="Calibri,Calibri_MSFontService,sans-serif" font-weight="400" font-size="11" transform="matrix(0.329412 0 0 0.326531 76.1172 363)">C172</text><path d="M46.5306 146.449 65.1429 146.449 65.1429 155.918 46.5306 155.918Z" stroke="#000000" stroke-width="0.217687" stroke-miterlimit="8" fill="#FFFFFF" transform="matrix(1.00882 0 0 1 42 210.98)"/><text font-family="Yu Gothic,Yu Gothic_MSFontService,sans-serif" font-weight="400" font-size="11" transform="matrix(0.329412 0 0 0.326531 92.5015 363)">円<tspan font-size="11" x="13" y="0">帝一</tspan></text><path d="M64.4898 146.449 83.102 146.449 83.102 155.918 64.4898 155.918Z" stroke="#000000" stroke-width="0.217687" stroke-miterlimit="8" fill="#FFFFFF" transform="matrix(1.00882 0 0 1 42 210.98)"/><text font-family="Calibri,Calibri_MSFontService,sans-serif" font-weight="400" font-size="11" transform="matrix(0.329412 0 0 0.326531 113.73 363)">YYY</text><path d="M28.2449 155.918 46.5306 155.918 46.5306 165.388 28.2449 165.388Z" stroke="#000000" stroke-width="0.217687" stroke-miterlimit="8" fill="#FFFFFF" transform="matrix(1.00882 0 0 1 42 210.98)"/><text font-family="Calibri,Calibri_MSFontService,sans-serif" font-weight="400" font-size="11" transform="matrix(0.329412 0 0 0.326531 76.1172 373)">C026</text><path d="M46.5306 155.918 65.1429 155.918 65.1429 165.388 46.5306 165.388Z" stroke="#000000" stroke-width="0.217687" stroke-miterlimit="8" fill="#FFFFFF" transform="matrix(1.00882 0 0 1 42 210.98)"/><text font-family="Yu Gothic,Yu Gothic_MSFontService,sans-serif" font-weight="400" font-size="11" transform="matrix(0.329412 0 0 0.326531 92.5015 373)">蔵巣<tspan font-size="11" x="23.6667" y="0">抽</tspan></text><path d="M64.4898 155.918 83.102 155.918 83.102 165.388 64.4898 165.388Z" stroke="#000000" stroke-width="0.217687" stroke-miterlimit="8" fill="#FFFFFF" transform="matrix(1.00882 0 0 1 42 210.98)"/><text font-family="Calibri,Calibri_MSFontService,sans-serif" font-weight="400" font-size="11" transform="matrix(0.329412 0 0 0.326531 113.812 373)">ZZZ</text><path d="M28.2449 165.388 46.5306 165.388 46.5306 174.857 28.2449 174.857Z" stroke="#000000" stroke-width="0.217687" stroke-miterlimit="8" fill="#FFFFFF" transform="matrix(1.00882 0 0 1 42 210.98)"/><text font-family="Yu Gothic,Yu Gothic_MSFontService,sans-serif" font-weight="400" font-size="11" transform="matrix(0.329412 0 0 0.326531 74.4153 382)">・・・</text><path d="M46.5306 165.388 65.1429 165.388 65.1429 174.857 46.5306 174.857Z" stroke="#000000" stroke-width="0.217687" stroke-miterlimit="8" fill="#FFFFFF" transform="matrix(1.00882 0 0 1 42 210.98)"/><text font-family="Yu Gothic,Yu Gothic_MSFontService,sans-serif" font-weight="400" font-size="11" transform="matrix(0.329412 0 0 0.326531 92.8856 382)">・・・</text><path d="M64.4898 165.388 83.102 165.388 83.102 174.857 64.4898 174.857Z" stroke="#000000" stroke-width="0.217687" stroke-miterlimit="8" fill="#FFFFFF" transform="matrix(1.00882 0 0 1 42 210.98)"/><text font-family="Yu Gothic,Yu Gothic_MSFontService,sans-serif" font-weight="400" font-size="11" transform="matrix(0.329412 0 0 0.326531 111.012 382)">・・・</text></g></g></g></g><g clip-path="url(#clip14)"><g clip-path="url(#clip15)"><g clip-path="url(#clip16)"><g clip-path="url(#clip17)"><path d="M133.564 129.688 151.653 129.688 151.653 139.055 133.564 139.055Z" stroke="#000000" stroke-width="0.215339" stroke-miterlimit="8" fill="#FFFFFF" transform="matrix(1 0 0 1.00407 4.92035 208.595)"/><text font-family="Yu Gothic,Yu Gothic_MSFontService,sans-serif" font-weight="400" font-size="11" transform="matrix(0.323009 0 0 0.324324 144.018 343)">商品<tspan font-size="11" x="-5.33334" y="12.3333">コード</tspan></text><path d="M151.653 129.688 169.741 129.688 169.741 139.055 151.653 139.055Z" stroke="#000000" stroke-width="0.215339" stroke-miterlimit="8" fill="#FFFFFF" transform="matrix(1 0 0 1.00407 4.92035 208.595)"/><text font-family="Yu Gothic,Yu Gothic_MSFontService,sans-serif" font-weight="400" font-size="12" transform="matrix(0.323009 0 0 0.324324 159.76 344)">商品名</text><path d="M169.418 129.688 187.507 129.688 187.507 139.055 169.418 139.055Z" stroke="#000000" stroke-width="0.215339" stroke-miterlimit="8" fill="#FFFFFF" transform="matrix(1 0 0 1.00407 4.92035 208.595)"/><text font-family="Yu Gothic,Yu Gothic_MSFontService,sans-serif" font-weight="400" font-size="12" transform="matrix(0.323009 0 0 0.324324 179.472 344)">在庫</text><path d="M133.564 139.055 151.653 139.055 151.653 148.423 133.564 148.423Z" stroke="#000000" stroke-width="0.215339" stroke-miterlimit="8" fill="#FFFFFF" transform="matrix(1 0 0 1.00407 4.92035 208.595)"/><text font-family="Calibri,Calibri_MSFontService,sans-serif" font-weight="400" font-size="11" transform="matrix(0.323009 0 0 0.324324 143.991 354)">P<tspan font-size="11" x="5.99999" y="0">031</tspan></text><path d="M151.653 139.055 169.741 139.055 169.741 148.423 151.653 148.423Z" stroke="#000000" stroke-width="0.215339" stroke-miterlimit="8" fill="#FFFFFF" transform="matrix(1 0 0 1.00407 4.92035 208.595)"/><text font-family="Yu Gothic,Yu Gothic_MSFontService,sans-serif" font-weight="400" font-size="9" transform="matrix(0.323009 0 0 0.324324 159.976 354)">ペンシル</text><path d="M169.418 139.055 187.507 139.055 187.507 148.423 169.418 148.423Z" stroke="#000000" stroke-width="0.215339" stroke-miterlimit="8" fill="#FFFFFF" transform="matrix(1 0 0 1.00407 4.92035 208.595)"/><text font-family="Calibri,Calibri_MSFontService,sans-serif" font-weight="400" font-size="11" transform="matrix(0.323009 0 0 0.324324 179.903 354)">1000</text><path d="M133.564 148.423 151.653 148.423 151.653 157.79 133.564 157.79Z" stroke="#000000" stroke-width="0.215339" stroke-miterlimit="8" fill="#FFFFFF" transform="matrix(1 0 0 1.00407 4.92035 208.595)"/><text font-family="Calibri,Calibri_MSFontService,sans-serif" font-weight="400" font-size="11" transform="matrix(0.323009 0 0 0.324324 143.775 363)">N<tspan font-size="11" x="7" y="0">008</tspan></text><path d="M151.653 148.423 169.741 148.423 169.741 157.79 151.653 157.79Z" stroke="#000000" stroke-width="0.215339" stroke-miterlimit="8" fill="#FFFFFF" transform="matrix(1 0 0 1.00407 4.92035 208.595)"/><text font-family="Yu Gothic,Yu Gothic_MSFontService,sans-serif" font-weight="400" font-size="11" transform="matrix(0.323009 0 0 0.324324 162.129 363)">手帳</text><path d="M169.418 148.423 187.507 148.423 187.507 157.79 169.418 157.79Z" stroke="#000000" stroke-width="0.215339" stroke-miterlimit="8" fill="#FFFFFF" transform="matrix(1 0 0 1.00407 4.92035 208.595)"/><text font-family="Calibri,Calibri_MSFontService,sans-serif" font-weight="400" font-size="11" transform="matrix(0.323009 0 0 0.324324 180.764 363)">752</text><path d="M133.564 157.79 151.653 157.79 151.653 167.157 133.564 167.157Z" stroke="#000000" stroke-width="0.215339" stroke-miterlimit="8" fill="#FFFFFF" transform="matrix(1 0 0 1.00407 4.92035 208.595)"/><text font-family="Calibri,Calibri_MSFontService,sans-serif" font-weight="400" font-size="11" transform="matrix(0.323009 0 0 0.324324 144.152 373)">L<tspan font-size="11" x="5.00002" y="0">012</tspan></text><path d="M151.653 157.79 169.741 157.79 169.741 167.157 151.653 167.157Z" stroke="#000000" stroke-width="0.215339" stroke-miterlimit="8" fill="#FFFFFF" transform="matrix(1 0 0 1.00407 4.92035 208.595)"/><text font-family="Yu Gothic,Yu Gothic_MSFontService,sans-serif" font-weight="400" font-size="11" transform="matrix(0.323009 0 0 0.324324 160.406 371)">ルーズ<tspan font-size="11" x="0" y="12.3333">リーフ</tspan></text><path d="M169.418 157.79 187.507 157.79 187.507 167.157 169.418 167.157Z" stroke="#000000" stroke-width="0.215339" stroke-miterlimit="8" fill="#FFFFFF" transform="matrix(1 0 0 1.00407 4.92035 208.595)"/><text font-family="Calibri,Calibri_MSFontService,sans-serif" font-weight="400" font-size="11" transform="matrix(0.323009 0 0 0.324324 180.764 373)">108</text><path d="M187.507 129.688 205.918 129.688 205.918 139.055 187.507 139.055Z" stroke="#000000" stroke-width="0.215339" stroke-miterlimit="8" fill="#FFFFFF" transform="matrix(1 0 0 1.00407 4.92035 208.595)"/><text font-family="Yu Gothic,Yu Gothic_MSFontService,sans-serif" font-weight="400" font-size="12" transform="matrix(0.323009 0 0 0.324324 197.584 344)">単価</text><path d="M187.507 139.055 205.918 139.055 205.918 148.423 187.507 148.423Z" stroke="#000000" stroke-width="0.215339" stroke-miterlimit="8" fill="#FFFFFF" transform="matrix(1 0 0 1.00407 4.92035 208.595)"/><text font-family="Calibri,Calibri_MSFontService,sans-serif" font-weight="400" font-size="11" transform="matrix(0.323009 0 0 0.324324 198.876 354)">700</text><path d="M187.507 148.423 205.918 148.423 205.918 157.79 187.507 157.79Z" stroke="#000000" stroke-width="0.215339" stroke-miterlimit="8" fill="#FFFFFF" transform="matrix(1 0 0 1.00407 4.92035 208.595)"/><text font-family="Calibri,Calibri_MSFontService,sans-serif" font-weight="400" font-size="11" transform="matrix(0.323009 0 0 0.324324 198.014 363)">3500</text><path d="M187.507 157.79 205.918 157.79 205.918 167.157 187.507 167.157Z" stroke="#000000" stroke-width="0.215339" stroke-miterlimit="8" fill="#FFFFFF" transform="matrix(1 0 0 1.00407 4.92035 208.595)"/><text font-family="Calibri,Calibri_MSFontService,sans-serif" font-weight="400" font-size="11" transform="matrix(0.323009 0 0 0.324324 198.014 373)">1400</text><path d="M133.564 167.157 151.653 167.157 151.653 176.524 133.564 176.524Z" stroke="#000000" stroke-width="0.215339" stroke-miterlimit="8" fill="#FFFFFF" transform="matrix(1 0 0 1.00407 4.92035 208.595)"/><text font-family="Yu Gothic,Yu Gothic_MSFontService,sans-serif" font-weight="400" font-size="11" transform="matrix(0.323009 0 0 0.324324 142.295 382)">・・・</text><path d="M151.653 167.157 169.741 167.157 169.741 176.524 151.653 176.524Z" stroke="#000000" stroke-width="0.215339" stroke-miterlimit="8" fill="#FFFFFF" transform="matrix(1 0 0 1.00407 4.92035 208.595)"/><text font-family="Yu Gothic,Yu Gothic_MSFontService,sans-serif" font-weight="400" font-size="11" transform="matrix(0.323009 0 0 0.324324 160.406 382)">・・・</text><path d="M169.418 167.157 187.507 167.157 187.507 176.524 169.418 176.524Z" stroke="#000000" stroke-width="0.215339" stroke-miterlimit="8" fill="#FFFFFF" transform="matrix(1 0 0 1.00407 4.92035 208.595)"/><text font-family="Yu Gothic,Yu Gothic_MSFontService,sans-serif" font-weight="400" font-size="11" transform="matrix(0.323009 0 0 0.324324 178.18 382)">・・・</text><path d="M187.507 167.157 205.918 167.157 205.918 176.524 187.507 176.524Z" stroke="#000000" stroke-width="0.215339" stroke-miterlimit="8" fill="#FFFFFF" transform="matrix(1 0 0 1.00407 4.92035 208.595)"/><text font-family="Yu Gothic,Yu Gothic_MSFontService,sans-serif" font-weight="400" font-size="11" transform="matrix(0.323009 0 0 0.324324 196.292 382)">・・・</text></g></g></g></g><g clip-path="url(#clip18)"><g clip-path="url(#clip19)"><g clip-path="url(#clip20)"><g clip-path="url(#clip21)"><path d="M122.285 191.367 140.619 191.367 140.619 200.861 122.285 200.861Z" stroke="#000000" stroke-width="0.218268" stroke-miterlimit="8" fill="#FFFFFF" transform="matrix(1 0 0 1.00445 156.555 147.604)"/><text font-family="Yu Gothic,Yu Gothic_MSFontService,sans-serif" font-weight="400" font-size="12" transform="matrix(0.327402 0 0 0.328859 282.369 346)">顧客<tspan font-family="Calibri,Calibri_MSFontService,sans-serif" font-size="12" x="24" y="0">ID</tspan></text><path d="M122.285 200.861 140.619 200.861 140.619 210.356 122.285 210.356Z" stroke="#000000" stroke-width="0.218268" stroke-miterlimit="8" fill="#FFFFFF" transform="matrix(1 0 0 1.00445 156.555 147.604)"/><text font-family="Calibri,Calibri_MSFontService,sans-serif" font-weight="400" font-size="11" transform="matrix(0.327402 0 0 0.328859 284.442 355)">C<tspan font-size="11" x="6.00001" y="0">003</tspan></text><path d="M122.285 210.356 140.619 210.356 140.619 219.851 122.285 219.851Z" stroke="#000000" stroke-width="0.218268" stroke-miterlimit="8" fill="#FFFFFF" transform="matrix(1 0 0 1.00445 156.555 147.604)"/><text font-family="Calibri,Calibri_MSFontService,sans-serif" font-weight="400" font-size="11" transform="matrix(0.327402 0 0 0.328859 284.442 365)">C<tspan font-size="11" x="6.00001" y="0">003</tspan></text><path d="M122.285 219.851 140.619 219.851 140.619 229.673 122.285 229.673Z" stroke="#000000" stroke-width="0.218268" stroke-miterlimit="8" fill="#FFFFFF" transform="matrix(1 0 0 1.00445 156.555 147.604)"/><text font-family="Calibri,Calibri_MSFontService,sans-serif" font-weight="400" font-size="11" transform="matrix(0.327402 0 0 0.328859 284.442 375)">C<tspan font-size="11" x="6.00001" y="0">026</tspan></text><path d="M122.285 229.673 140.619 229.673 140.619 239.167 122.285 239.167Z" stroke="#000000" stroke-width="0.218268" stroke-miterlimit="8" fill="#FFFFFF" transform="matrix(1 0 0 1.00445 156.555 147.604)"/><text font-family="Yu Gothic,Yu Gothic_MSFontService,sans-serif" font-weight="400" font-size="11" transform="matrix(0.327402 0 0 0.328859 282.751 384)">・・・</text><path d="M140.619 191.367 159.281 191.367 159.281 200.861 140.619 200.861Z" stroke="#000000" stroke-width="0.218268" stroke-miterlimit="8" fill="#FFFFFF" transform="matrix(1 0 0 1.00445 156.555 147.604)"/><text font-family="Yu Gothic,Yu Gothic_MSFontService,sans-serif" font-weight="400" font-size="11" transform="matrix(0.327402 0 0 0.328859 302.854 344)">商品<tspan font-size="11" x="-5.33327" y="12.1633">コード</tspan></text><path d="M140.619 200.861 159.281 200.861 159.281 210.356 140.619 210.356Z" stroke="#000000" stroke-width="0.218268" stroke-miterlimit="8" fill="#FFFFFF" transform="matrix(1 0 0 1.00445 156.555 147.604)"/><text font-family="Calibri,Calibri_MSFontService,sans-serif" font-weight="400" font-size="11" transform="matrix(0.327402 0 0 0.328859 302.827 355)">P<tspan font-size="11" x="6.00001" y="0">031</tspan></text><path d="M140.619 210.356 159.281 210.356 159.281 219.851 140.619 219.851Z" stroke="#000000" stroke-width="0.218268" stroke-miterlimit="8" fill="#FFFFFF" transform="matrix(1 0 0 1.00445 156.555 147.604)"/><text font-family="Calibri,Calibri_MSFontService,sans-serif" font-weight="400" font-size="11" transform="matrix(0.327402 0 0 0.328859 302.609 365)">N<tspan font-size="11" x="6.99998" y="0">008</tspan></text><path d="M140.619 219.851 159.281 219.851 159.281 229.673 140.619 229.673Z" stroke="#000000" stroke-width="0.218268" stroke-miterlimit="8" fill="#FFFFFF" transform="matrix(1 0 0 1.00445 156.555 147.604)"/><text font-family="Calibri,Calibri_MSFontService,sans-serif" font-weight="400" font-size="11" transform="matrix(0.327402 0 0 0.328859 302.991 375)">L<tspan font-size="11" x="5.00004" y="0">012</tspan></text><path d="M140.619 229.673 159.281 229.673 159.281 239.167 140.619 239.167Z" stroke="#000000" stroke-width="0.218268" stroke-miterlimit="8" fill="#FFFFFF" transform="matrix(1 0 0 1.00445 156.555 147.604)"/><text font-family="Yu Gothic,Yu Gothic_MSFontService,sans-serif" font-weight="400" font-size="11" transform="matrix(0.327402 0 0 0.328859 301.108 384)">・・・</text><path d="M67.9359 191.367 86.2705 191.367 86.2705 200.861 67.9359 200.861Z" stroke="#000000" stroke-width="0.218268" stroke-miterlimit="8" fill="#FFFFFF" transform="matrix(1 0 0 1.00445 156.555 147.604)"/><text font-family="Yu Gothic,Yu Gothic_MSFontService,sans-serif" font-weight="400" font-size="12" transform="matrix(0.327402 0 0 0.328859 227.808 346)">注文<tspan font-family="Calibri,Calibri_MSFontService,sans-serif" font-size="12" x="24" y="0">ID</tspan></text><path d="M86.2705 191.367 104.605 191.367 104.605 200.861 86.2705 200.861Z" stroke="#000000" stroke-width="0.218268" stroke-miterlimit="8" fill="#FFFFFF" transform="matrix(1 0 0 1.00445 156.555 147.604)"/><text font-family="Yu Gothic,Yu Gothic_MSFontService,sans-serif" font-weight="400" font-size="12" transform="matrix(0.327402 0 0 0.328859 247.857 346)">個数</text><path d="M104.278 191.367 122.612 191.367 122.612 200.861 104.278 200.861Z" stroke="#000000" stroke-width="0.218268" stroke-miterlimit="8" fill="#FFFFFF" transform="matrix(1 0 0 1.00445 156.555 147.604)"/><text font-family="Yu Gothic,Yu Gothic_MSFontService,sans-serif" font-weight="400" font-size="12" transform="matrix(0.327402 0 0 0.328859 265.873 346)">金額</text><path d="M67.9359 200.861 86.2705 200.861 86.2705 210.356 67.9359 210.356Z" stroke="#000000" stroke-width="0.218268" stroke-miterlimit="8" fill="#FFFFFF" transform="matrix(1 0 0 1.00445 156.555 147.604)"/><text font-family="Calibri,Calibri_MSFontService,sans-serif" font-weight="400" font-size="11" transform="matrix(0.327402 0 0 0.328859 228.108 353)">C<tspan font-size="11" x="6.00001" y="0">003</tspan><tspan font-size="11" x="24" y="0">P</tspan><tspan font-size="11" x="30" y="0">0</tspan><tspan font-size="11" x="1.24665" y="12.1633">31</tspan><tspan font-size="11" x="11.9133" y="12.1633">-</tspan><tspan font-size="11" x="15.2467" y="12.1633">001</tspan></text><path d="M86.2705 200.861 104.605 200.861 104.605 210.356 86.2705 210.356Z" stroke="#000000" stroke-width="0.218268" stroke-miterlimit="8" fill="#FFFFFF" transform="matrix(1 0 0 1.00445 156.555 147.604)"/><text font-family="Calibri,Calibri_MSFontService,sans-serif" font-weight="400" font-size="11" transform="matrix(0.327402 0 0 0.328859 250.913 355)">2</text><path d="M104.278 200.861 122.612 200.861 122.612 210.356 104.278 210.356Z" stroke="#000000" stroke-width="0.218268" stroke-miterlimit="8" fill="#FFFFFF" transform="matrix(1 0 0 1.00445 156.555 147.604)"/><text font-family="Calibri,Calibri_MSFontService,sans-serif" font-weight="400" font-size="11" transform="matrix(0.327402 0 0 0.328859 266.31 355)">1400</text><path d="M67.9359 210.356 86.2705 210.356 86.2705 219.851 67.9359 219.851Z" stroke="#000000" stroke-width="0.218268" stroke-miterlimit="8" fill="#FFFFFF" transform="matrix(1 0 0 1.00445 156.555 147.604)"/><text font-family="Calibri,Calibri_MSFontService,sans-serif" font-weight="400" font-size="11" transform="matrix(0.327402 0 0 0.328859 227.89 363)">C<tspan font-size="11" x="6.00001" y="0">003</tspan><tspan font-size="11" x="24" y="0">N</tspan><tspan font-size="11" x="31" y="0">0</tspan><tspan font-size="11" x="1.91335" y="12.1633">08</tspan><tspan font-size="11" x="12.58" y="12.1633">-</tspan><tspan font-size="11" x="15.9133" y="12.1633">005</tspan></text><path d="M86.2705 210.356 104.605 210.356 104.605 219.851 86.2705 219.851Z" stroke="#000000" stroke-width="0.218268" stroke-miterlimit="8" fill="#FFFFFF" transform="matrix(1 0 0 1.00445 156.555 147.604)"/><text font-family="Calibri,Calibri_MSFontService,sans-serif" font-weight="400" font-size="11" transform="matrix(0.327402 0 0 0.328859 250.913 365)">1</text><path d="M104.278 210.356 122.612 210.356 122.612 219.851 104.278 219.851Z" stroke="#000000" stroke-width="0.218268" stroke-miterlimit="8" fill="#FFFFFF" transform="matrix(1 0 0 1.00445 156.555 147.604)"/><text font-family="Calibri,Calibri_MSFontService,sans-serif" font-weight="400" font-size="11" transform="matrix(0.327402 0 0 0.328859 266.31 365)">3500</text><path d="M67.9359 219.851 86.2705 219.851 86.2705 229.673 67.9359 229.673Z" stroke="#000000" stroke-width="0.218268" stroke-miterlimit="8" fill="#FFFFFF" transform="matrix(1 0 0 1.00445 156.555 147.604)"/><text font-family="Calibri,Calibri_MSFontService,sans-serif" font-weight="400" font-size="11" transform="matrix(0.327402 0 0 0.328859 227.399 372)">C<tspan font-size="11" x="6.00001" y="0">026</tspan><tspan font-size="11" x="24" y="0">L</tspan><tspan font-size="11" x="29" y="0">01</tspan><tspan font-size="11" x="6.08003" y="12.1633">2</tspan><tspan font-size="11" x="11.4133" y="12.1633">-</tspan><tspan font-size="11" x="14.7467" y="12.1633">052</tspan></text><path d="M86.2705 219.851 104.605 219.851 104.605 229.673 86.2705 229.673Z" stroke="#000000" stroke-width="0.218268" stroke-miterlimit="8" fill="#FFFFFF" transform="matrix(1 0 0 1.00445 156.555 147.604)"/><text font-family="Calibri,Calibri_MSFontService,sans-serif" font-weight="400" font-size="11" transform="matrix(0.327402 0 0 0.328859 250.04 375)">5<tspan font-size="11" x="5.33332" y="0">0</tspan></text><path d="M104.278 219.851 122.612 219.851 122.612 229.673 104.278 229.673Z" stroke="#000000" stroke-width="0.218268" stroke-miterlimit="8" fill="#FFFFFF" transform="matrix(1 0 0 1.00445 156.555 147.604)"/><text font-family="Calibri,Calibri_MSFontService,sans-serif" font-weight="400" font-size="11" transform="matrix(0.327402 0 0 0.328859 265.437 375)">63000</text><path d="M67.9359 229.673 86.2705 229.673 86.2705 239.167 67.9359 239.167Z" stroke="#000000" stroke-width="0.218268" stroke-miterlimit="8" fill="#FFFFFF" transform="matrix(1 0 0 1.00445 156.555 147.604)"/><text font-family="Yu Gothic,Yu Gothic_MSFontService,sans-serif" font-weight="400" font-size="11" transform="matrix(0.327402 0 0 0.328859 228.19 384)">・・・</text><path d="M86.2705 229.673 104.605 229.673 104.605 239.167 86.2705 239.167Z" stroke="#000000" stroke-width="0.218268" stroke-miterlimit="8" fill="#FFFFFF" transform="matrix(1 0 0 1.00445 156.555 147.604)"/><text font-family="Yu Gothic,Yu Gothic_MSFontService,sans-serif" font-weight="400" font-size="11" transform="matrix(0.327402 0 0 0.328859 246.548 384)">・・・</text><path d="M104.278 229.673 122.612 229.673 122.612 239.167 104.278 239.167Z" stroke="#000000" stroke-width="0.218268" stroke-miterlimit="8" fill="#FFFFFF" transform="matrix(1 0 0 1.00445 156.555 147.604)"/><text font-family="Yu Gothic,Yu Gothic_MSFontService,sans-serif" font-weight="400" font-size="11" transform="matrix(0.327402 0 0 0.328859 264.564 384)">・・・</text></g></g></g></g><path d="M322.5 364.5 328.5 358.5 328.5 361.5 360.5 361.5 360.5 358.5 366.5 364.5 360.5 370.5 360.5 367.5 328.5 367.5 328.5 370.5Z" stroke="#2F528F" stroke-width="1.33333" stroke-miterlimit="8" fill="#4472C4" fill-rule="evenodd"/><text font-family="Yu Gothic,Yu Gothic_MSFontService,sans-serif" font-weight="400" font-size="13" transform="translate(349.4 148)">利用ロジック<tspan font-size="13" x="80" y="0">に、状態更新、問合せの</tspan><tspan font-family="Calibri,Calibri_MSFontService,sans-serif" font-size="13" x="229.667" y="0">API</tspan><tspan font-size="13" x="250.5" y="0">を提供</tspan></text><g clip-path="url(#clip22)"><g clip-path="url(#clip23)"><g clip-path="url(#clip24)"><path d="M599.694 298.042 623.306 298.042 623.306 298.042 623.306 311.208C623.306 311.646 622.951 312 622.514 312L600.486 312C600.049 312 599.694 311.646 599.694 311.208L599.694 298.042 599.694 298.042Z" fill="url(#fill25)"/><path d="M600.486 293.014 622.514 293.014C622.951 293.014 623.306 293.368 623.306 293.806L623.306 298.042 623.306 298.042 599.694 298.042 599.694 298.042 599.694 293.792C599.702 293.36 600.054 293.014 600.486 293.014Z" fill="#37C2B1"/><path d="M602.903 299.569 620.083 299.569C620.285 299.577 620.445 299.743 620.444 299.944L620.444 301.889C620.445 302.091 620.285 302.256 620.083 302.264L602.903 302.264C602.701 302.256 602.542 302.091 602.542 301.889L602.542 299.944C602.542 299.743 602.701 299.577 602.903 299.569Z" fill="#FFFFFF"/><path d="M602.917 303.444 620.097 303.444C620.299 303.452 620.458 303.618 620.458 303.819L620.458 305.778C620.458 305.98 620.299 306.145 620.097 306.153L602.917 306.153C602.715 306.145 602.555 305.98 602.556 305.778L602.556 303.889C602.517 303.685 602.651 303.489 602.855 303.451 602.875 303.447 602.896 303.445 602.917 303.444Z" fill="#37C2B1"/><path d="M602.917 307.361 620.097 307.361C620.299 307.369 620.458 307.534 620.458 307.736L620.458 309.694C620.458 309.896 620.299 310.062 620.097 310.069L602.917 310.069C602.715 310.062 602.555 309.896 602.556 309.694L602.556 307.736C602.555 307.534 602.715 307.369 602.917 307.361Z" fill="#258277"/></g></g></g></g></svg>