<svg width="608" height="311" xmlns="http://www.w3.org/2000/svg" xmlns:xlink="http://www.w3.org/1999/xlink" overflow="hidden"><defs><clipPath id="clip0"><rect x="63" y="413" width="608" height="311"/></clipPath><linearGradient x1="205.5" y1="627.5" x2="205.5" y2="686.5" gradientUnits="userSpaceOnUse" spreadMethod="reflect" id="fill1"><stop offset="0" stop-color="#B1CBE9"/><stop offset="0.5" stop-color="#B1CBE9"/><stop offset="0.5" stop-color="#A3C1E5" stop-opacity="0.501961"/><stop offset="1" stop-color="#92B9E4" stop-opacity="0.501961"/></linearGradient><linearGradient x1="493.5" y1="515.5" x2="493.5" y2="582.5" gradientUnits="userSpaceOnUse" spreadMethod="reflect" id="fill2"><stop offset="0" stop-color="#E2F0D9"/><stop offset="0.5" stop-color="#C5E0B4"/><stop offset="1" stop-color="#A9D18E"/></linearGradient><clipPath id="clip3"><rect x="73" y="463" width="237" height="102"/></clipPath><clipPath id="clip4"><rect x="73" y="463" width="237" height="102"/></clipPath><clipPath id="clip5"><rect x="48" y="446" width="275" height="131"/></clipPath><clipPath id="clip6"><rect x="48" y="446" width="275" height="131"/></clipPath><clipPath id="clip7"><rect x="314" y="648" width="12" height="13"/></clipPath><clipPath id="clip8"><rect x="314" y="648" width="12" height="13"/></clipPath><clipPath id="clip9"><rect x="314" y="648" width="12" height="13"/></clipPath><clipPath id="clip10"><rect x="136" y="648" width="13" height="13"/></clipPath><clipPath id="clip11"><rect x="136" y="648" width="13" height="13"/></clipPath><clipPath id="clip12"><rect x="136" y="648" width="13" height="13"/></clipPath><clipPath id="clip13"><rect x="226" y="649" width="13" height="12"/></clipPath><clipPath id="clip14"><rect x="226" y="649" width="13" height="12"/></clipPath><clipPath id="clip15"><rect x="226" y="649" width="13" height="12"/></clipPath><clipPath id="clip16"><rect x="607" y="560" width="25" height="25"/></clipPath><clipPath id="clip17"><rect x="607" y="560" width="25" height="25"/></clipPath><clipPath id="clip18"><rect x="607" y="560" width="25" height="25"/></clipPath><linearGradient x1="619.862" y1="559.494" x2="615.636" y2="587.85" gradientUnits="userSpaceOnUse" spreadMethod="pad" id="fill19"><stop offset="0" stop-color="#32BEDD"/><stop offset="1" stop-color="#198AB3"/></linearGradient><linearGradient x1="621.997" y1="570.261" x2="627.057" y2="586.481" gradientUnits="userSpaceOnUse" spreadMethod="pad" id="fill20"><stop offset="0" stop-color="#50E6FF"/><stop offset="0.997" stop-color="#32BEDD"/><stop offset="1" stop-color="#32BEDD"/></linearGradient><linearGradient x1="606.767" y1="565.714" x2="624.461" y2="575.132" gradientUnits="userSpaceOnUse" spreadMethod="pad" id="fill21"><stop offset="0" stop-color="#FFFFFF"/><stop offset="1" stop-color="#9CEBFF"/></linearGradient><clipPath id="clip22"><rect x="439" y="617" width="12" height="13"/></clipPath><clipPath id="clip23"><rect x="439" y="617" width="12" height="13"/></clipPath><clipPath id="clip24"><rect x="439" y="617" width="12" height="13"/></clipPath><clipPath id="clip25"><rect x="439" y="657" width="12" height="12"/></clipPath><clipPath id="clip26"><rect x="439" y="657" width="12" height="12"/></clipPath><clipPath id="clip27"><rect x="439" y="657" width="12" height="12"/></clipPath><clipPath id="clip28"><rect x="551" y="616" width="12" height="13"/></clipPath><clipPath id="clip29"><rect x="551" y="616" width="12" height="13"/></clipPath><clipPath id="clip30"><rect x="551" y="616" width="12" height="13"/></clipPath><clipPath id="clip31"><rect x="551" y="657" width="12" height="12"/></clipPath><clipPath id="clip32"><rect x="551" y="657" width="12" height="12"/></clipPath><clipPath id="clip33"><rect x="551" y="657" width="12" height="12"/></clipPath><clipPath id="clip34"><rect x="492" y="618" width="13" height="13"/></clipPath><clipPath id="clip35"><rect x="492" y="618" width="13" height="13"/></clipPath><clipPath id="clip36"><rect x="492" y="618" width="13" height="13"/></clipPath></defs><g clip-path="url(#clip0)" transform="translate(-63 -413)"><path d="M68.5001 637.334C68.5001 631.903 72.9027 627.5 78.3337 627.5L332.666 627.5C338.097 627.5 342.5 631.903 342.5 637.334L342.5 676.666C342.5 682.097 338.097 686.5 332.666 686.5L78.3337 686.5C72.9027 686.5 68.5001 682.097 68.5001 676.666Z" stroke="#5B9BD5" stroke-width="0.666667" stroke-miterlimit="8" fill="url(#fill1)" fill-rule="evenodd"/><path d="M423.5 522.968 493.5 515.5 563.5 522.968 532.731 522.968 532.731 575.032 563.5 575.032 493.5 582.5 423.5 575.032 454.269 575.032 454.269 522.968Z" stroke="#70AD47" stroke-width="0.666667" stroke-miterlimit="8" fill="url(#fill2)" fill-rule="evenodd"/><rect x="65.5001" y="414.5" width="604" height="309" stroke="#D9D9D9" stroke-width="1.33333" stroke-miterlimit="8" fill="none"/><g clip-path="url(#clip3)"><g clip-path="url(#clip4)"><g clip-path="url(#clip5)"><g clip-path="url(#clip6)"><path d="M26.3554 42.5741 298.469 42.5741 298.469 170.522 26.3554 170.522Z" stroke="#D9D9D9" stroke-width="0.600691" stroke-miterlimit="8" fill="none" transform="matrix(1 0 0 1.00324 23.1322 404.858)"/><path d="M62.3969 73.2094 119.162 73.2094 119.162 112.405 62.3969 112.405Z" stroke="#000000" stroke-width="0.600691" stroke-miterlimit="8" fill="#FFFFFF" transform="matrix(1 0 0 1.00324 23.1322 404.858)"/><text font-family="Yu Gothic,Yu Gothic_MSFontService,sans-serif" font-weight="400" font-size="13" transform="matrix(0.450519 0 0 0.451979 107.728 485)">顧客<tspan font-family="Consolas,Consolas_MSFontService,sans-serif" font-size="13" x="-40.2467" y="17.6999">*</tspan><tspan font-size="13" x="-32.9133" y="17.6999">顧客</tspan><tspan font-family="Consolas,Consolas_MSFontService,sans-serif" font-size="13" x="-6.24666" y="17.6999">ID</tspan><tspan font-size="13" x="-26.9133" y="33.1874">顧客名</tspan><tspan font-size="13" x="-26.9133" y="48.6748">住所</tspan></text><path d="M203.86 73.2094 261.076 73.2094 261.076 112.405 203.86 112.405Z" stroke="#000000" stroke-width="0.600691" stroke-miterlimit="8" fill="#FFFFFF" transform="matrix(1 0 0 1.00324 23.1322 404.858)"/><text font-family="Yu Gothic,Yu Gothic_MSFontService,sans-serif" font-weight="400" font-size="13" transform="matrix(0.450519 0 0 0.451979 249.3 485)">商品<tspan font-family="Consolas,Consolas_MSFontService,sans-serif" font-size="13" x="-40.2467" y="17.6999">*</tspan><tspan font-size="13" x="-32.9133" y="17.6999">商品</tspan><tspan font-size="13" x="-6.91331" y="17.6999">コード</tspan><tspan font-size="13" x="-26.9133" y="33.1874">商品名</tspan><tspan font-size="13" x="-26.9133" y="48.6748">在庫</tspan><tspan font-size="13" x="-26.9133" y="64.1622">単価</tspan></text><path d="M119.162 92.5817 203.767 92.5817" stroke="#000000" stroke-width="0.300346" stroke-miterlimit="8" fill="none" fill-rule="evenodd" transform="matrix(1 0 0 1.00324 23.1322 404.858)"/><path d="M0 0 2.7567 21.634" stroke="#000000" stroke-width="0.901038" stroke-miterlimit="8" stroke-dasharray="0.901038 0.901038" fill="none" fill-rule="evenodd" transform="matrix(1 0 0 -1.00324 181.715 520.122)"/><text font-family="Yu Gothic,Yu Gothic_MSFontService,sans-serif" font-weight="400" font-size="11" transform="matrix(0.450519 0 0 0.451979 147.367 494)">発注者<tspan font-family="Calibri,Calibri_MSFontService,sans-serif" font-size="11" x="-3.70016" y="19.9124">*</tspan><tspan font-family="Calibri,Calibri_MSFontService,sans-serif" font-size="11" x="158.002" y="6.63747">*</tspan><tspan font-size="11" x="125.323" y="19.9124">購入予約</tspan></text><path d="M130.425 115.108 187.191 115.108 187.191 154.303 130.425 154.303Z" stroke="#000000" stroke-width="0.600691" stroke-miterlimit="8" fill="#FFFFFF" transform="matrix(1 0 0 1.00324 23.1322 404.858)"/><text font-family="Yu Gothic,Yu Gothic_MSFontService,sans-serif" font-weight="400" font-size="13" transform="matrix(0.450519 0 0 0.451979 175.749 528)">注文<tspan font-family="Consolas,Consolas_MSFontService,sans-serif" font-size="13" x="-40.2467" y="15.4874">*</tspan><tspan font-size="13" x="-32.9133" y="15.4874">注文</tspan><tspan font-family="Consolas,Consolas_MSFontService,sans-serif" font-size="13" x="-6.24666" y="15.4874">ID</tspan><tspan font-size="13" x="-26.9133" y="30.9749">個数</tspan><tspan font-size="13" x="-26.9133" y="46.4623">金額</tspan><tspan font-size="16" x="-271.519" y="-159.299">ドメイン</tspan><tspan font-size="16" x="-208.519" y="-159.299">：</tspan><tspan font-size="16" x="-192.519" y="-159.299">商品販売</tspan></text></g></g></g></g><text font-family="Yu Gothic,Yu Gothic_MSFontService,sans-serif" font-weight="400" font-size="16" transform="translate(135.191 454)">概念情報モデル</text><path d="M645.5 573.5C645.5 587.859 579.462 599.5 498 599.5 416.538 599.5 350.5 587.859 350.5 573.5" stroke="#2F528F" stroke-width="1.33333" stroke-miterlimit="8" stroke-opacity="0.501961" fill="none" fill-rule="evenodd"/><path d="M350.5 573.5C350.5 559.141 416.538 547.5 498 547.5 579.462 547.5 645.5 559.141 645.5 573.5L645.5 677.5C645.5 691.859 579.462 703.5 498 703.5 416.538 703.5 350.5 691.859 350.5 677.5Z" stroke="#2F528F" stroke-width="1.33333" stroke-miterlimit="8" stroke-opacity="0.501961" fill="none" fill-rule="evenodd"/><text font-family="Calibri,Calibri_MSFontService,sans-serif" font-weight="400" font-size="16" transform="translate(428.076 695)">Azure Digital Twins<tspan font-size="16" x="-12.8264" y="-152">Azure Digital Twins </tspan><tspan font-family="Yu Gothic,Yu Gothic_MSFontService,sans-serif" font-size="16" x="113.514" y="-152">の</tspan>API<tspan font-family="Yu Gothic,Yu Gothic_MSFontService,sans-serif" font-size="13" x="-81.589" y="-198">利用ロジック</tspan><tspan font-family="Yu Gothic,Yu Gothic_MSFontService,sans-serif" font-size="13" x="-1.58899" y="-198">に、状態更新、問合せの</tspan><tspan font-size="13" x="148.078" y="-198">API</tspan><tspan font-family="Yu Gothic,Yu Gothic_MSFontService,sans-serif" font-size="13" x="168.911" y="-198">を提供</tspan></text><path d="M205 570.5 205 571.813 180 571.813 180 570.5ZM205 573.125 205 575.75 180 575.75 180 573.125ZM205 577.063 205 591.5 217.5 591.5 192.5 612.5 167.5 591.5 180 591.5 180 577.063Z" stroke="#41719C" stroke-width="1.33333" stroke-miterlimit="8" fill="#5B9BD5" fill-rule="evenodd"/><path d="M74.5001 637.5 156.5 637.5 156.5 660 152 664.5 74.5001 664.5Z" fill="#FFFFFF" fill-rule="evenodd"/><path d="M152 664.5 152.9 660.9 156.5 660Z" fill="#CDCDCD" fill-rule="evenodd"/><path d="M152 664.5 152.9 660.9 156.5 660 152 664.5 74.5001 664.5 74.5001 637.5 156.5 637.5 156.5 660" stroke="#70AD47" stroke-width="0.666667" stroke-miterlimit="8" fill="none" fill-rule="evenodd"/><text font-family="Calibri,Calibri_MSFontService,sans-serif" font-weight="400" font-size="11" transform="translate(73.5655 647)">Customer.json<tspan font-size="11" x="0" y="13">DTD</tspan><tspan font-size="11" x="18.1667" y="13">L</tspan></text><path d="M163.5 637.5 245.5 637.5 245.5 660 241 664.5 163.5 664.5Z" fill="#FFFFFF" fill-rule="evenodd"/><path d="M241 664.5 241.9 660.9 245.5 660Z" fill="#CDCDCD" fill-rule="evenodd"/><path d="M241 664.5 241.9 660.9 245.5 660 241 664.5 163.5 664.5 163.5 637.5 245.5 637.5 245.5 660" stroke="#FFC000" stroke-width="0.666667" stroke-miterlimit="8" fill="none" fill-rule="evenodd"/><text font-family="Calibri,Calibri_MSFontService,sans-serif" font-weight="400" font-size="11" transform="translate(162.737 647)">Order.json<tspan font-size="11" x="0" y="13">DTD</tspan><tspan font-size="11" x="18.1667" y="13">L</tspan></text><path d="M253.5 637.5 335.5 637.5 335.5 660 331 664.5 253.5 664.5Z" fill="#FFFFFF" fill-rule="evenodd"/><path d="M331 664.5 331.9 660.9 335.5 660Z" fill="#CDCDCD" fill-rule="evenodd"/><path d="M331 664.5 331.9 660.9 335.5 660 331 664.5 253.5 664.5 253.5 637.5 335.5 637.5 335.5 660" stroke="#5B9BD5" stroke-width="0.666667" stroke-miterlimit="8" fill="none" fill-rule="evenodd"/><text font-family="Calibri,Calibri_MSFontService,sans-serif" font-weight="400" font-size="11" transform="translate(252.553 647)">Goods.json<tspan font-size="11" x="0" y="13">DTD</tspan><tspan font-size="11" x="18.1667" y="13">L</tspan></text><g clip-path="url(#clip7)"><g clip-path="url(#clip8)"><g clip-path="url(#clip9)"><path d="M7.9867 0 1.08068 6.906 0 12 5.0929 10.9193 12 4.01222 7.9867 0ZM7.9867 1.22681 9.2179 2.45801 3.38123 8.29395 2.15039 7.0631 7.9867 1.22681ZM2.57923 10.5557 1.44396 9.4204 1.87976 7.44066 4.55859 10.1199 2.57923 10.5557ZM4.93615 9.84888 3.70568 8.61841 9.54162 2.78175 10.7728 4.01222 4.93615 9.84888Z" fill="#4B4B4B" transform="matrix(-1 0 0 1.08333 326 648)"/></g></g></g><g clip-path="url(#clip10)"><g clip-path="url(#clip11)"><g clip-path="url(#clip12)"><path d="M4.12831 3.73732C4.12831 3.73732 5.5656 4.02502 7.43412 2.1562 8.29662 3.30639 8.87199 3.88119 8.87199 3.88119L8.87199 5.60673C9.44905 5.01158 9.80624 4.20111 9.80624 3.30639 9.80624 1.48022 8.32602 0 6.49985 0 4.67426 0 3.19404 1.48022 3.19404 3.30639 3.19404 4.20111 3.55068 5.01155 4.12829 5.60673L4.12829 3.73732Z" fill="#4B4B4B" transform="matrix(-1 0 0 1 149 648)"/><path d="M8.71711 7.55183C8.48512 7.67868 6.49987 12.0372 6.49987 12.0372 6.49987 12.0372 4.51494 7.67871 4.28261 7.55183 2.04786 8.35809 1.94807 10.1641 1.94807 13L11.0519 13C11.0519 10.1641 10.9522 8.35809 8.71711 7.55183Z" fill="#4B4B4B" transform="matrix(-1 0 0 1 149 648)"/><path d="M5.5102 7.35711 5.5102 8.67681 6.49985 8.34026 7.48978 8.67681 7.48978 7.35711 6.49985 7.69369Z" fill="#4B4B4B" transform="matrix(-1 0 0 1 149 648)"/></g></g></g><g clip-path="url(#clip13)"><g clip-path="url(#clip14)"><g clip-path="url(#clip15)"><path d="M4.6752 5.49961 9.84328 5.49961 9.84328 5.93372 4.6752 5.93372Z" fill="#4B4B4B" transform="matrix(-1.08333 0 0 1 239 649)"/><path d="M4.22955 7.21575 9.39762 7.21575 9.39762 7.65007 4.22955 7.65007Z" fill="#4B4B4B" transform="matrix(-1.08333 0 0 1 239 649)"/><path d="M11.9832 0.857859 11.9832 0.578578 3.23712 0.578578 3.23712 0.857859C3.23712 1.43463 3.25315 2.03756 3.25315 2.66358 3.25315 3.57656 3.21952 4.53841 3.05677 5.53976 2.90194 6.49205 2.63079 7.48024 2.16019 8.49902L1.31834 8.49902C1.16958 8.49902 1.01939 8.52295 0.8745 8.57323 0.657445 8.6486 0.451945 8.7862 0.296297 8.98847 0.14025 9.19031 0.0373125 9.45277 0.00670313 9.76223 0.00225 9.807 0 9.85158 0 9.89576-0.000210937 10.1201 0.0575625 10.3317 0.154828 10.5171 0.300938 10.796 0.531773 11.0175 0.799899 11.1721 1.06845 11.3265 1.37646 11.4155 1.69017 11.4177L8.3389 11.4214C8.59202 11.422 8.81152 11.3703 8.99838 11.2854 9.18541 11.2009 9.33804 11.0886 9.4797 10.9758 10.0589 10.5145 10.5064 9.9428 10.8499 9.30827 11.3652 8.35535 11.6498 7.26059 11.8089 6.14735 11.9676 5.03412 11.9998 3.90084 12 2.86929 12 2.13056 11.9832 1.44375 11.9832 0.857859ZM1.69324 10.8594 1.69345 10.8594C1.55482 10.8588 1.41112 10.8315 1.27514 10.7806 1.07088 10.7048 0.885633 10.5763 0.758156 10.4213 0.694125 10.3436 0.644273 10.2597 0.610219 10.1722 0.576398 10.0845 0.558328 9.99307 0.558328 9.89578 0.558328 9.87026 0.559547 9.84431 0.562195 9.81797 0.576984 9.67043 0.612445 9.55228 0.659461 9.45684 0.730383 9.31416 0.826266 9.21931 0.939352 9.15427 1.05223 9.08981 1.18455 9.06063 1.31834 9.06063L7.30172 9.06063C7.23687 9.13502 7.17912 9.22013 7.1329 9.31638 7.06481 9.45743 7.01923 9.62119 7.00076 9.80543 6.9967 9.84736 6.99466 9.88852 6.99466 9.92944 6.99466 10.1244 7.04128 10.309 7.12233 10.473 7.19529 10.6203 7.29562 10.7513 7.41457 10.8627L1.69324 10.8594ZM11.0605 7.12254C10.8994 7.81059 10.673 8.46255 10.3589 9.04256 10.0448 9.62257 9.64448 10.1304 9.13174 10.5392 9.00246 10.6426 8.88874 10.7226 8.76898 10.7763 8.6486 10.83 8.52033 10.8624 8.33913 10.863L8.15269 10.8629C7.98387 10.815 7.82721 10.7305 7.69973 10.6195 7.59677 10.5301 7.51348 10.4243 7.45612 10.308 7.3988 10.1917 7.36695 10.0652 7.36695 9.92941 7.36695 9.90105 7.36816 9.87206 7.37121 9.84267 7.38581 9.69656 7.42066 9.57638 7.46808 9.47789 7.53963 9.33038 7.63814 9.23004 7.75202 9.16256 7.86572 9.09548 7.99643 9.06284 8.12693 9.06305 8.25867 9.06265 8.38917 9.0967 8.4972 9.15729 8.60562 9.2183 8.69055 9.30401 8.74202 9.41084 8.76919 9.46718 8.78599 9.54237 8.78599 9.61816 8.78599 9.68037 8.77486 9.7422 8.75459 9.79387 8.73452 9.84595 8.70593 9.88669 8.6727 9.91507 8.61028 9.96755 8.54665 9.98742 8.48238 9.98782 8.42646 9.98782 8.37054 9.97099 8.32392 9.9408 8.27691 9.9108 8.24041 9.86864 8.21894 9.8186L7.87685 9.96534C7.92912 10.0875 8.01708 10.1862 8.12288 10.2541 8.22846 10.322 8.35289 10.3599 8.48238 10.3599 8.63053 10.3605 8.78597 10.308 8.91405 10.1984 9.0018 10.1234 9.0626 10.0286 9.10151 9.92864 9.14023 9.82873 9.15785 9.72293 9.15785 9.61816 9.15785 9.4909 9.13212 9.36424 9.07739 9.24973 8.98964 9.06713 8.84597 8.92627 8.67937 8.83284 8.51602 8.74144 8.32957 8.69363 8.14008 8.69119L8.14008 8.68833 2.68828 8.68833C3.16941 7.6343 3.44869 6.60923 3.60776 5.62936 3.77759 4.58405 3.81122 3.58999 3.81122 2.66363 3.81122 2.13103 3.80048 1.62195 3.79704 1.13698L11.4262 1.13698C11.4299 1.66448 11.4416 2.25019 11.4416 2.86931 11.4421 4.22852 11.3831 5.74648 11.0605 7.12254Z" fill="#4B4B4B" transform="matrix(-1.08333 0 0 1 239 649)"/><path d="M7.76175 4.41417C7.82721 3.68459 7.83045 2.98622 7.82377 2.32575L4.93237 2.32575C4.93905 2.98622 4.93561 3.68459 4.87017 4.41417L7.76175 4.41417Z" fill="#4B4B4B" transform="matrix(-1.08333 0 0 1 239 649)"/></g></g></g><g clip-path="url(#clip16)"><g clip-path="url(#clip17)"><g clip-path="url(#clip18)"><path d="M627.039 564.653 619.824 560.486C618.697 559.836 617.309 559.836 616.182 560.486L608.967 564.653C607.84 565.304 607.147 566.506 607.146 567.807L607.146 576.14C607.146 577.442 607.84 578.644 608.967 579.296L616.189 583.463C617.316 584.112 618.704 584.112 619.831 583.463L627.053 579.296C628.179 578.644 628.873 577.442 628.874 576.14L628.874 567.807C628.87 566.503 628.17 565.3 627.039 564.653Z" fill="url(#fill19)"/><path d="M630.392 570.754 625.318 567.825C624.412 567.303 623.297 567.303 622.392 567.825L617.319 570.754C616.413 571.275 615.855 572.242 615.857 573.287L615.857 579.146C615.857 580.191 616.414 581.157 617.319 581.679L622.392 584.608C623.297 585.13 624.412 585.13 625.318 584.608L630.392 581.679C631.299 581.158 631.859 580.192 631.861 579.146L631.861 573.287C631.859 572.241 631.299 571.275 630.392 570.754Z" fill="url(#fill20)"/><path d="M617.525 564.115 618.986 563.307 625.25 576.289 624.742 576.844 610.938 576.844 611.093 575.182 622.733 575.182 617.525 564.115Z" fill="url(#fill21)"/><path d="M612.878 576.09C612.878 577.241 611.945 578.174 610.794 578.174 609.644 578.174 608.711 577.241 608.711 576.09 608.711 574.94 609.644 574.007 610.794 574.007 611.945 574.007 612.878 574.94 612.878 576.09Z" fill="#FFFFFF"/><path d="M627.111 576.217C627.111 578.015 625.654 579.472 623.856 579.472 622.058 579.472 620.6 578.015 620.6 576.217 620.6 574.419 622.058 572.961 623.856 572.961 625.654 572.961 627.111 574.419 627.111 576.217Z" fill="#FFFFFF"/><path d="M620.251 563.553C620.251 564.703 619.319 565.636 618.168 565.636 617.017 565.636 616.085 564.703 616.085 563.553 616.085 562.402 617.017 561.469 618.168 561.469 619.319 561.469 620.251 562.402 620.251 563.553Z" fill="#FFFFFF"/></g></g></g><path d="M434.5 623C434.5 616.649 439.425 611.5 445.5 611.5 451.575 611.5 456.5 616.649 456.5 623 456.5 629.351 451.575 634.5 445.5 634.5 439.425 634.5 434.5 629.351 434.5 623Z" stroke="#507E32" stroke-width="1.33333" stroke-miterlimit="8" fill="#70AD47" fill-rule="evenodd"/><path d="M434.5 664C434.5 657.649 439.425 652.5 445.5 652.5 451.575 652.5 456.5 657.649 456.5 664 456.5 670.351 451.575 675.5 445.5 675.5 439.425 675.5 434.5 670.351 434.5 664Z" stroke="#507E32" stroke-width="1.33333" stroke-miterlimit="8" fill="#70AD47" fill-rule="evenodd"/><g clip-path="url(#clip22)"><g clip-path="url(#clip23)"><g clip-path="url(#clip24)"><path d="M3.81075 3.44984C3.81075 3.44984 5.13748 3.71541 6.86227 1.99034 7.65841 3.05205 8.18953 3.58263 8.18953 3.58263L8.18953 5.17545C8.7222 4.62607 9.05191 3.87795 9.05191 3.05205 9.05191 1.36636 7.68555 0 5.99986 0 4.3147 0 2.94834 1.36636 2.94834 3.05205 2.94834 3.87795 3.27755 4.62605 3.81073 5.17545L3.81073 3.44984Z" fill="#4B4B4B" transform="matrix(-1 0 0 1.08333 451 617)"/><path d="M8.04656 6.97092C7.83241 7.08802 5.99988 11.1113 5.99988 11.1113 5.99988 11.1113 4.16763 7.08804 3.95318 6.97092 1.89033 7.71516 1.79822 9.38229 1.79822 12L10.2018 12C10.2018 9.38229 10.1097 7.71516 8.04656 6.97092Z" fill="#4B4B4B" transform="matrix(-1 0 0 1.08333 451 617)"/><path d="M5.08634 6.79118 5.08634 8.00937 5.99986 7.6987 6.91364 8.00937 6.91364 6.79118 5.99986 7.10187Z" fill="#4B4B4B" transform="matrix(-1 0 0 1.08333 451 617)"/></g></g></g><g clip-path="url(#clip25)"><g clip-path="url(#clip26)"><g clip-path="url(#clip27)"><path d="M3.81075 3.44984C3.81075 3.44984 5.13748 3.71541 6.86227 1.99034 7.65841 3.05205 8.18953 3.58263 8.18953 3.58263L8.18953 5.17545C8.7222 4.62607 9.05191 3.87795 9.05191 3.05205 9.05191 1.36636 7.68555 0 5.99986 0 4.3147 0 2.94834 1.36636 2.94834 3.05205 2.94834 3.87795 3.27755 4.62605 3.81073 5.17545L3.81073 3.44984Z" fill="#4B4B4B" transform="matrix(-1 0 0 1 451 657)"/><path d="M8.04656 6.97092C7.83241 7.08802 5.99988 11.1113 5.99988 11.1113 5.99988 11.1113 4.16763 7.08804 3.95318 6.97092 1.89033 7.71516 1.79822 9.38229 1.79822 12L10.2018 12C10.2018 9.38229 10.1097 7.71516 8.04656 6.97092Z" fill="#4B4B4B" transform="matrix(-1 0 0 1 451 657)"/><path d="M5.08634 6.79118 5.08634 8.00937 5.99986 7.6987 6.91364 8.00937 6.91364 6.79118 5.99986 7.10187Z" fill="#4B4B4B" transform="matrix(-1 0 0 1 451 657)"/></g></g></g><path d="M546.5 623C546.5 616.649 551.425 611.5 557.5 611.5 563.575 611.5 568.5 616.649 568.5 623 568.5 629.351 563.575 634.5 557.5 634.5 551.425 634.5 546.5 629.351 546.5 623Z" stroke="#41719C" stroke-width="1.33333" stroke-miterlimit="8" fill="#5B9BD5" fill-rule="evenodd"/><g clip-path="url(#clip28)"><g clip-path="url(#clip29)"><g clip-path="url(#clip30)"><path d="M7.9867 0 1.08068 6.906 0 12 5.0929 10.9193 12 4.01222 7.9867 0ZM7.9867 1.22681 9.2179 2.45801 3.38123 8.29395 2.15039 7.0631 7.9867 1.22681ZM2.57923 10.5557 1.44396 9.4204 1.87976 7.44066 4.55859 10.1199 2.57923 10.5557ZM4.93615 9.84888 3.70568 8.61841 9.54162 2.78175 10.7728 4.01222 4.93615 9.84888Z" fill="#4B4B4B" transform="matrix(-1 0 0 1.08333 563 616)"/></g></g></g><path d="M546.5 663.5C546.5 657.425 551.425 652.5 557.5 652.5 563.575 652.5 568.5 657.425 568.5 663.5 568.5 669.575 563.575 674.5 557.5 674.5 551.425 674.5 546.5 669.575 546.5 663.5Z" stroke="#41719C" stroke-width="1.33333" stroke-miterlimit="8" fill="#5B9BD5" fill-rule="evenodd"/><g clip-path="url(#clip31)"><g clip-path="url(#clip32)"><g clip-path="url(#clip33)"><path d="M7.9867 0 1.08068 6.906 0 12 5.0929 10.9193 12 4.01222 7.9867 0ZM7.9867 1.22681 9.2179 2.45801 3.38123 8.29395 2.15039 7.0631 7.9867 1.22681ZM2.57923 10.5557 1.44396 9.4204 1.87976 7.44066 4.55859 10.1199 2.57923 10.5557ZM4.93615 9.84888 3.70568 8.61841 9.54162 2.78175 10.7728 4.01222 4.93615 9.84888Z" fill="#4B4B4B" transform="matrix(-1 0 0 1 563 657)"/></g></g></g><path d="M487.5 623.5C487.5 617.425 492.425 612.5 498.5 612.5 504.575 612.5 509.5 617.425 509.5 623.5 509.5 629.575 504.575 634.5 498.5 634.5 492.425 634.5 487.5 629.575 487.5 623.5Z" stroke="#BC8C00" stroke-width="1.33333" stroke-miterlimit="8" fill="#FFC000" fill-rule="evenodd"/><g clip-path="url(#clip34)"><g clip-path="url(#clip35)"><g clip-path="url(#clip36)"><path d="M5.0648 5.95791 10.6636 5.95791 10.6636 6.42819 5.0648 6.42819Z" fill="#4B4B4B" transform="matrix(-1 0 0 1 505 618)"/><path d="M4.58202 7.81706 10.1808 7.81706 10.1808 8.28758 4.58202 8.28758Z" fill="#4B4B4B" transform="matrix(-1 0 0 1 505 618)"/><path d="M12.9818 0.929348 12.9818 0.626793 3.50688 0.626793 3.50688 0.929348C3.50688 1.55419 3.52424 2.20736 3.52424 2.88554 3.52424 3.87461 3.48781 4.91662 3.3115 6.0014 3.14377 7.03305 2.85002 8.1036 2.3402 9.20728L1.4282 9.20728C1.26704 9.20728 1.10434 9.2332 0.947375 9.28766 0.712232 9.36932 0.489607 9.51839 0.320988 9.73751 0.151937 9.95617 0.0404219 10.2405 0.00726172 10.5758 0.0024375 10.6243 0 10.6725 0 10.7204-0.000228516 10.9634 0.0623594 11.1927 0.16773 11.3935 0.326016 11.6957 0.576088 11.9356 0.866557 12.1031 1.15748 12.2704 1.49117 12.3668 1.83102 12.3692L9.03381 12.3732C9.30803 12.3738 9.54581 12.3179 9.74825 12.2259 9.95087 12.1343 10.1162 12.0127 10.2697 11.8904 10.8971 11.3907 11.3819 10.7714 11.754 10.084 12.3123 9.05163 12.6206 7.86563 12.7929 6.65963 12.9649 5.45363 12.9998 4.22591 13 3.1084 13 2.30811 12.9818 1.56406 12.9818 0.929348ZM1.83435 11.7644 1.83457 11.7644C1.68439 11.7637 1.52872 11.7341 1.3814 11.679 1.16012 11.5969 0.959436 11.4577 0.821336 11.2897 0.751969 11.2056 0.697963 11.1147 0.66107 11.0199 0.624432 10.9248 0.604855 10.8258 0.604855 10.7204 0.604855 10.6928 0.606176 10.6647 0.609045 10.6361 0.625066 10.4763 0.663482 10.3483 0.714416 10.2449 0.791248 10.0903 0.895121 9.98758 1.01763 9.91712 1.13991 9.8473 1.28327 9.81569 1.4282 9.81569L7.9102 9.81569C7.83994 9.89627 7.77738 9.98847 7.72731 10.0927 7.65355 10.2455 7.60416 10.423 7.58415 10.6225 7.57976 10.668 7.57755 10.7126 7.57755 10.7569 7.57755 10.9681 7.62806 11.1681 7.71586 11.3457 7.7949 11.5054 7.90359 11.6472 8.03245 11.7679L1.83435 11.7644ZM11.9822 7.71608C11.8076 8.46148 11.5624 9.16777 11.2221 9.79611 10.8818 10.4245 10.4482 10.9746 9.89272 11.4175 9.75267 11.5295 9.62947 11.6162 9.49972 11.6744 9.36932 11.7325 9.23036 11.7676 9.03406 11.7683L8.83208 11.7681C8.64919 11.7163 8.47948 11.6247 8.34138 11.5044 8.22984 11.4076 8.1396 11.293 8.07747 11.167 8.01536 11.041 7.98086 10.904 7.98086 10.7569 7.98086 10.7261 7.98218 10.6947 7.98548 10.6629 8.0013 10.5046 8.03905 10.3744 8.09042 10.2677 8.16794 10.1079 8.27465 9.99921 8.39803 9.92611 8.5212 9.85344 8.6628 9.81807 8.80417 9.8183 8.94689 9.81787 9.08827 9.85476 9.20529 9.9204 9.32275 9.98649 9.41477 10.0793 9.47053 10.1951 9.49995 10.2561 9.51816 10.3376 9.51816 10.4197 9.51816 10.4871 9.5061 10.554 9.48413 10.61 9.4624 10.6664 9.43142 10.7106 9.39542 10.7413 9.3278 10.7982 9.25887 10.8197 9.18925 10.8201 9.12867 10.8201 9.06808 10.8019 9.01758 10.7692 8.96665 10.7367 8.92712 10.691 8.90386 10.6368L8.53326 10.7958C8.58988 10.9282 8.68517 11.0351 8.79978 11.1087 8.91417 11.1822 9.04897 11.2232 9.18925 11.2232 9.34974 11.2239 9.51813 11.167 9.65689 11.0482 9.75196 10.967 9.81782 10.8643 9.85997 10.756 9.90191 10.6478 9.92101 10.5332 9.92101 10.4197 9.92101 10.2818 9.89313 10.1446 9.83384 10.0205 9.73878 9.82272 9.58313 9.67012 9.40266 9.56891 9.22568 9.46989 9.0237 9.41809 8.81842 9.41545L8.81842 9.41236 2.9123 9.41236C3.43352 8.27049 3.73608 7.16 3.9084 6.09847 4.09238 4.96605 4.12882 3.88916 4.12882 2.88559 4.12882 2.30862 4.11719 1.75711 4.11346 1.23172L12.3784 1.23172C12.3824 1.80319 12.3951 2.4377 12.3951 3.10842 12.3956 4.5809 12.3317 6.22535 11.9822 7.71608Z" fill="#4B4B4B" transform="matrix(-1 0 0 1 505 618)"/><path d="M8.40856 4.78202C8.47948 3.99163 8.48298 3.23507 8.47575 2.51956L5.34341 2.51956C5.35064 3.23507 5.34691 3.99163 5.27602 4.78202L8.40856 4.78202Z" fill="#4B4B4B" transform="matrix(-1 0 0 1 505 618)"/></g></g></g><path d="M486.839 624.025 457.125 623.837 457.129 623.171 486.843 623.358ZM462.26 627.152 456.498 623.5 462.306 619.921C462.463 619.824 462.668 619.873 462.765 620.029 462.861 620.186 462.813 620.392 462.656 620.488L457.302 623.788 457.305 623.222 462.617 626.589C462.773 626.688 462.819 626.894 462.72 627.049 462.622 627.205 462.416 627.251 462.26 627.152Z" fill="#4472C4"/><path d="M0.00173518-0.333329 36.1616-0.145095 36.1581 0.521563-0.00173518 0.333329ZM31.022-3.45456 36.7887 0.191508 30.9844 3.77734C30.8278 3.8741 30.6224 3.82557 30.5256 3.66895 30.4288 3.51233 30.4774 3.30693 30.634 3.21018L35.9846-0.095348 35.9817 0.469977 30.6658-2.89107C30.5102-2.98946 30.4638-3.19535 30.5621-3.35095 30.6605-3.50656 30.8664-3.55294 31.022-3.45456Z" fill="#4472C4" transform="matrix(1 0 0 -1 509.5 623.692)"/><text font-family="Calibri,Calibri_MSFontService,sans-serif" font-weight="400" font-size="11" transform="translate(173.598 679)">Twin Model<tspan font-size="11" x="298.11" y="-23">Twin Graph</tspan></text></g></svg>