<svg width="607" height="659" xmlns="http://www.w3.org/2000/svg" xmlns:xlink="http://www.w3.org/1999/xlink" overflow="hidden"><defs><filter id="fx0" x="-10%" y="-10%" width="120%" height="120%" filterUnits="userSpaceOnUse" primitiveUnits="userSpaceOnUse"><feComponentTransfer color-interpolation-filters="sRGB"><feFuncR type="discrete" tableValues="0 0"/><feFuncG type="discrete" tableValues="0 0"/><feFuncB type="discrete" tableValues="0 0"/><feFuncA type="linear" slope="0.431373" intercept="0"/></feComponentTransfer><feGaussianBlur stdDeviation="0.463613 0.463613"/></filter><filter id="fx1" x="-10%" y="-10%" width="120%" height="120%" filterUnits="userSpaceOnUse" primitiveUnits="userSpaceOnUse"><feComponentTransfer color-interpolation-filters="sRGB"><feFuncR type="discrete" tableValues="0 0"/><feFuncG type="discrete" tableValues="0 0"/><feFuncB type="discrete" tableValues="0 0"/><feFuncA type="linear" slope="0.431373" intercept="0"/></feComponentTransfer><feGaussianBlur stdDeviation="0.463613 0.463613"/></filter><clipPath id="clip2"><rect x="66" y="87" width="607" height="659"/></clipPath><clipPath id="clip3"><rect x="12" y="12" width="37" height="12"/></clipPath><clipPath id="clip4"><rect x="0" y="0" width="60" height="39"/></clipPath><clipPath id="clip5"><rect x="12" y="9" width="95" height="16"/></clipPath><clipPath id="clip6"><rect x="0" y="0" width="121" height="39"/></clipPath><clipPath id="clip7"><rect x="82" y="432" width="253" height="285"/></clipPath><clipPath id="clip8"><rect x="82" y="432" width="253" height="285"/></clipPath><clipPath id="clip9"><rect x="82" y="432" width="253" height="285"/></clipPath><clipPath id="clip10"><rect x="82" y="432" width="253" height="285"/></clipPath><clipPath id="clip11"><rect x="85" y="130" width="249" height="223"/></clipPath><clipPath id="clip12"><rect x="85" y="130" width="249" height="223"/></clipPath><clipPath id="clip13"><rect x="81" y="127" width="255" height="236"/></clipPath><clipPath id="clip14"><rect x="81" y="127" width="255" height="236"/></clipPath><clipPath id="clip15"><rect x="388" y="321" width="59" height="59"/></clipPath><clipPath id="clip16"><rect x="388" y="321" width="59" height="59"/></clipPath><clipPath id="clip17"><rect x="388" y="321" width="59" height="59"/></clipPath></defs><g clip-path="url(#clip2)" transform="translate(-66 -87)"><rect x="78" y="399" width="262" height="332" fill="#F2F2F2"/><rect x="78" y="99" width="262" height="273" fill="#F2F2F2"/><rect x="376.5" y="200.5" width="286" height="300" stroke="#2F528F" stroke-width="1.33333" stroke-miterlimit="8" fill="#DEEBF7"/><g clip-path="url(#clip3)" filter="url(#fx0)" transform="translate(440 198)"><g clip-path="url(#clip4)"><path d="M9.5-5.20312C9.5-4.27604 9.37891-3.48307 9.13672-2.82422 8.89453-2.16536 8.54688-1.6276 8.09375-1.21094 7.64062-0.794271 7.08984-0.488281 6.44141-0.292969 5.79297-0.0976562 5.02083 0 4.125 0L1.71094 0C1.53906 0 1.39453-0.0507812 1.27734-0.152344 1.16016-0.253906 1.10156-0.419271 1.10156-0.648438L1.10156-9.46094C1.10156-9.6901 1.16016-9.85547 1.27734-9.95703 1.39453-10.0586 1.53906-10.1094 1.71094-10.1094L4.30469-10.1094C5.20573-10.1094 5.97005-10.0039 6.59766-9.79297 7.22526-9.58203 7.75391-9.26953 8.18359-8.85547 8.61328-8.44141 8.9401-7.92969 9.16406-7.32031 9.38802-6.71094 9.5-6.00521 9.5-5.20312ZM7.375-5.13281C7.375-5.61198 7.31901-6.05729 7.20703-6.46875 7.09505-6.88021 6.91536-7.23698 6.66797-7.53906 6.42057-7.84115 6.10286-8.07682 5.71484-8.24609 5.32682-8.41536 4.81771-8.5 4.1875-8.5L3.14844-8.5 3.14844-1.625 4.21875-1.625C4.78125-1.625 5.25521-1.69792 5.64062-1.84375 6.02604-1.98958 6.34766-2.20964 6.60547-2.50391 6.86328-2.79818 7.05599-3.16406 7.18359-3.60156 7.3112-4.03906 7.375-4.54948 7.375-5.13281ZM17.7681-9.26562C17.7681-9.11458 17.7616-8.98568 17.7486-8.87891 17.7356-8.77213 17.716-8.6862 17.69-8.62109 17.664-8.55599 17.6314-8.50781 17.5923-8.47656 17.5533-8.44531 17.5103-8.42969 17.4634-8.42969L14.9322-8.42969 14.9322-0.28125C14.9322-0.229167 14.9153-0.182292 14.8814-0.140625 14.8476-0.0989583 14.7916-0.0651042 14.7134-0.0390625 14.6353-0.0130208 14.5298 0.0078125 14.397 0.0234375 14.2642 0.0390625 14.0989 0.046875 13.9009 0.046875 13.703 0.046875 13.5377 0.0390625 13.4048 0.0234375 13.272 0.0078125 13.1666-0.0130208 13.0884-0.0390625 13.0103-0.0651042 12.9543-0.0989583 12.9205-0.140625 12.8866-0.182292 12.8697-0.229167 12.8697-0.28125L12.8697-8.42969 10.3384-8.42969C10.2864-8.42969 10.2421-8.44531 10.2056-8.47656 10.1692-8.50781 10.1379-8.55599 10.1119-8.62109 10.0858-8.6862 10.0663-8.77213 10.0533-8.87891 10.0403-8.98568 10.0338-9.11458 10.0338-9.26562 10.0338-9.42188 10.0403-9.55469 10.0533-9.66406 10.0663-9.77344 10.0858-9.86068 10.1119-9.92578 10.1379-9.99088 10.1692-10.0378 10.2056-10.0664 10.2421-10.0951 10.2864-10.1094 10.3384-10.1094L17.4634-10.1094C17.5103-10.1094 17.5533-10.0951 17.5923-10.0664 17.6314-10.0378 17.664-9.99088 17.69-9.92578 17.716-9.86068 17.7356-9.77344 17.7486-9.66406 17.7616-9.55469 17.7681-9.42188 17.7681-9.26562ZM27.44-5.20312C27.44-4.27604 27.3189-3.48307 27.0767-2.82422 26.8345-2.16536 26.4869-1.6276 26.0338-1.21094 25.5806-0.794271 25.0298-0.488281 24.3814-0.292969 23.733-0.0976562 22.9608 0 22.065 0L19.6509 0C19.4791 0 19.3345-0.0507812 19.2173-0.152344 19.1002-0.253906 19.0416-0.419271 19.0416-0.648438L19.0416-9.46094C19.0416-9.6901 19.1002-9.85547 19.2173-9.95703 19.3345-10.0586 19.4791-10.1094 19.6509-10.1094L22.2447-10.1094C23.1457-10.1094 23.9101-10.0039 24.5377-9.79297 25.1653-9.58203 25.6939-9.26953 26.1236-8.85547 26.5533-8.44141 26.8801-7.92969 27.1041-7.32031 27.328-6.71094 27.44-6.00521 27.44-5.20312ZM25.315-5.13281C25.315-5.61198 25.259-6.05729 25.147-6.46875 25.0351-6.88021 24.8554-7.23698 24.608-7.53906 24.3606-7.84115 24.0429-8.07682 23.6548-8.24609 23.2668-8.41536 22.7577-8.5 22.1275-8.5L21.0884-8.5 21.0884-1.625 22.1588-1.625C22.7212-1.625 23.1952-1.69792 23.5806-1.84375 23.966-1.98958 24.2877-2.20964 24.5455-2.50391 24.8033-2.79818 24.996-3.16406 25.1236-3.60156 25.2512-4.03906 25.315-4.54948 25.315-5.13281ZM34.7629-0.859375C34.7629-0.703125 34.7564-0.571615 34.7434-0.464844 34.7304-0.358073 34.7108-0.269531 34.6848-0.199219 34.6587-0.128906 34.6262-0.078125 34.5871-0.046875 34.5481-0.015625 34.5025 0 34.4504 0L29.8176 0C29.6457 0 29.5012-0.0507812 29.384-0.152344 29.2668-0.253906 29.2082-0.419271 29.2082-0.648438L29.2082-9.82812C29.2082-9.88021 29.2252-9.92708 29.259-9.96875 29.2929-10.0104 29.3489-10.0443 29.427-10.0703 29.5051-10.0964 29.6106-10.1172 29.7434-10.1328 29.8762-10.1484 30.0416-10.1562 30.2395-10.1562 30.4426-10.1562 30.6093-10.1484 30.7395-10.1328 30.8697-10.1172 30.9739-10.0964 31.052-10.0703 31.1301-10.0443 31.1861-10.0104 31.2199-9.96875 31.2538-9.92708 31.2707-9.88021 31.2707-9.82812L31.2707-1.69531 34.4504-1.69531C34.5025-1.69531 34.5481-1.68099 34.5871-1.65234 34.6262-1.6237 34.6587-1.57682 34.6848-1.51172 34.7108-1.44661 34.7304-1.36068 34.7434-1.25391 34.7564-1.14714 34.7629-1.01562 34.7629-0.859375Z" transform="translate(12.4886 23)"/></g></g><text font-family="Calibri,Calibri_MSFontService,sans-serif" font-weight="700" font-size="16" transform="translate(451.505 220)">DTDL</text><g clip-path="url(#clip5)" filter="url(#fx1)" transform="translate(479 198)"><g clip-path="url(#clip6)"><path d="M1.58594-6.79688C1.6276-6.86458 1.80469-7.15625 2.11719-7.67188 2.25781-7.90104 2.36458-8.0651 2.4375-8.16406 2.51562-8.27344 2.59635-8.32812 2.67969-8.32812 2.70052-8.32812 2.71875-8.32552 2.73438-8.32031 3.84375-7.95052 4.86979-7.42708 5.8125-6.75 5.92708-6.66667 5.98438-6.58854 5.98438-6.51562 5.98438-6.48437 5.96354-6.42448 5.92188-6.33594 5.78646-6.00781 5.55208-5.60156 5.21875-5.11719 5.13021-5.01302 5.0612-4.96094 5.01172-4.96094 4.96224-4.96094 4.89844-4.99219 4.82031-5.05469 3.90885-5.72656 2.83073-6.30729 1.58594-6.79688ZM3.52344-10.5547 4.36719-11.8359C4.4401-11.9557 4.51562-12.0156 4.59375-12.0156 4.64062-12.0156 4.70052-11.9974 4.77344-11.9609 5.98177-11.4714 6.98437-10.8802 7.78125-10.1875 7.86458-10.1302 7.90625-10.0625 7.90625-9.98438 7.90625-9.91667 7.88542-9.84635 7.84375-9.77344 7.53125-9.22135 7.25781-8.82031 7.02344-8.57031 6.98698-8.50781 6.9349-8.47656 6.86719-8.47656 6.79948-8.47656 6.71875-8.51302 6.625-8.58594 5.61979-9.41927 4.58594-10.0755 3.52344-10.5547ZM2.85156-1.4375C3.52865-1.56771 4.2526-1.83073 5.02344-2.22656 6.7526-3.13281 8.21354-4.05469 9.40625-4.99219 11.0573-6.2474 12.5938-7.73438 14.0156-9.45312 14.0885-8.94792 14.2448-8.35156 14.4844-7.66406 14.5365-7.53906 14.5625-7.4375 14.5625-7.35938 14.5625-7.23437 14.5052-7.11198 14.3906-6.99219 13.1771-5.6901 11.8203-4.45833 10.3203-3.29688 9.08073-2.35417 7.48698-1.35156 5.53906-0.289062 4.98177 0.0130208 4.67188 0.195312 4.60938 0.257812 4.52604 0.341146 4.4401 0.382812 4.35156 0.382812 4.23698 0.382812 4.13021 0.317708 4.03125 0.1875 3.72917-0.114583 3.33594-0.65625 2.85156-1.4375ZM10.8516-11.7422 11.6953-12.3359C11.7318-12.362 11.763-12.375 11.7891-12.375 11.8307-12.375 11.8802-12.3516 11.9375-12.3047 12.4844-11.8776 12.9896-11.3073 13.4531-10.5938 13.4844-10.5469 13.5-10.5078 13.5-10.4766 13.5-10.4245 13.4687-10.3776 13.4062-10.3359L12.7344-9.83594C12.6875-9.80469 12.6458-9.78906 12.6094-9.78906 12.5625-9.78906 12.5156-9.82292 12.4688-9.89062 11.9688-10.6458 11.4297-11.263 10.8516-11.7422ZM12.3203-12.7969 13.125-13.375C13.1615-13.401 13.1966-13.4141 13.2305-13.4141 13.2643-13.4141 13.3073-13.3906 13.3594-13.3438 13.974-12.8802 14.4818-12.3307 14.8828-11.6953 14.9141-11.6484 14.9297-11.6042 14.9297-11.5625 14.9297-11.5052 14.8984-11.4531 14.8359-11.4062L14.1953-10.9141C14.1484-10.8776 14.1068-10.8594 14.0703-10.8594 14.013-10.8594 13.9635-10.8932 13.9219-10.9609 13.474-11.6745 12.9401-12.2865 12.3203-12.7969ZM24.7969-6 24.7969-1.95312 26.4922-1.95312C27.4401-1.95312 28.2995-1.97396 29.0703-2.01562 29.2057-2.01562 29.2786-1.91406 29.2891-1.71094 29.2995-1.53385 29.3047-1.36458 29.3047-1.20312 29.3047-1.03646 29.2995-0.864583 29.2891-0.6875 29.2786-0.494792 29.2031-0.398437 29.0625-0.398438 29.0417-0.398437 29.0286-0.398437 29.0234-0.398438L26.5078-0.429688 21.4844-0.429688C20.7969-0.429688 20.013-0.408854 19.1328-0.367188 18.9609-0.367188 18.8594-0.479167 18.8281-0.703125 18.776-0.989583 18.75-1.42188 18.75-2 19.3698-1.95833 20.2812-1.9375 21.4844-1.9375L23.0859-1.9375 23.0859-5.98438 22.2031-5.98438C21.3854-5.98438 20.7292-5.97917 20.2344-5.96875 20.224-5.96875 20.2161-5.96875 20.2109-5.96875 20.0859-5.96875 20.0104-6.07552 19.9844-6.28906 19.9583-6.42969 19.9245-6.85677 19.8828-7.57031 20.3411-7.52865 21.0833-7.50781 22.1094-7.50781L25.6641-7.50781 27.8203-7.53906C27.8359-7.53906 27.849-7.53906 27.8594-7.53906 27.9844-7.53906 28.0547-7.44792 28.0703-7.26562 28.0807-7.09896 28.0859-6.9349 28.0859-6.77344 28.0859-6.60677 28.0807-6.4401 28.0703-6.27344 28.0599-6.07031 27.9766-5.96875 27.8203-5.96875 27.8047-5.96875 27.7839-5.96875 27.7578-5.96875L25.6797-6ZM40.9375-5.52344 40.9375-2.125 40.9844 0.75C40.9844 0.890625 40.8828 0.960937 40.6797 0.960938 40.4609 0.976562 40.2318 0.984375 39.9922 0.984375 39.7526 0.984375 39.5234 0.976562 39.3047 0.960938 39.1016 0.960937 39 0.885417 39 0.734375L39.0781-2.10938 39.0781-4.17969C37.6823-3.15885 36.2161-2.26562 34.6797-1.5 34.5703-1.44792 34.4792-1.42188 34.4062-1.42188 34.2969-1.42188 34.1901-1.48177 34.0859-1.60156 33.6224-2.08594 33.1953-2.41146 32.8047-2.57812 34.8151-3.49479 36.5312-4.45312 37.9531-5.45312 39.1927-6.33333 40.2292-7.19792 41.0625-8.04688L37.3672-7.96875C36.5755-7.9375 35.8698-7.90104 35.25-7.85938 35.1042-7.85938 35.0156-7.96094 34.9844-8.16406 34.9271-8.41406 34.8672-8.9349 34.8047-9.72656 35.5547-9.64323 36.2083-9.60156 36.7656-9.60156 36.8802-9.60156 36.9688-9.60156 37.0312-9.60156L41.6719-9.64844C42.1771-9.64844 42.5573-9.70833 42.8125-9.82812 42.8958-9.86979 42.974-9.89062 43.0469-9.89062 43.1458-9.89062 43.237-9.84896 43.3203-9.76562 43.4974-9.61979 43.763-9.30469 44.1172-8.82031 44.1849-8.72135 44.2188-8.63021 44.2188-8.54688 44.2188-8.41667 44.138-8.32031 43.9766-8.25781 43.7995-8.17448 43.6302-8.05208 43.4688-7.89062 42.6146-7.02083 41.7708-6.23177 40.9375-5.52344ZM37.5703-11.7734C37.6797-11.9453 37.8359-12.2083 38.0391-12.5625 38.1849-12.8125 38.2839-12.9766 38.3359-13.0547 38.4089-13.1641 38.487-13.2187 38.5703-13.2188 38.5964-13.2187 38.6302-13.2135 38.6719-13.2031 39.7656-12.8802 40.8958-12.4141 42.0625-11.8047 42.1823-11.7422 42.2422-11.6849 42.2422-11.6328 42.2422-11.5807 42.2214-11.526 42.1797-11.4688 41.9505-11.0104 41.7318-10.6172 41.5234-10.2891 41.4609-10.1797 41.3906-10.125 41.3125-10.125 41.2552-10.125 41.1979-10.1458 41.1406-10.1875 40.0833-10.8438 38.8932-11.3724 37.5703-11.7734ZM41.75-4.59375C42.1458-5.17188 42.4479-5.58333 42.6562-5.82812 42.7135-5.90104 42.7682-5.9375 42.8203-5.9375 42.8464-5.9375 42.8984-5.92188 42.9766-5.89062 44.1901-5.39583 45.3516-4.74479 46.4609-3.9375 46.5599-3.875 46.6094-3.8125 46.6094-3.75 46.6094-3.69271 46.5885-3.6276 46.5469-3.55469 46.2083-3.00781 45.9453-2.6224 45.7578-2.39844 45.6901-2.3151 45.6276-2.27344 45.5703-2.27344 45.5286-2.27344 45.4531-2.3099 45.3438-2.38281 44.4167-3.13281 43.2188-3.86979 41.75-4.59375ZM53.4219-2.79688C54.7396-3.3125 56.099-3.98438 57.5-4.8125 59.0573-5.73438 60.4714-6.82292 61.7422-8.07812 61.7578-7.35417 61.8438-6.73698 62-6.22656 62.0312-6.1276 62.0469-6.04167 62.0469-5.96875 62.0469-5.82812 61.9766-5.70052 61.8359-5.58594 60.6536-4.58594 59.3203-3.66927 57.8359-2.83594 56.6953-2.15885 55.3906-1.4974 53.9219-0.851562 53.5156-0.674479 53.2161-0.502604 53.0234-0.335938 52.9193-0.252604 52.8229-0.210937 52.7344-0.210938 52.6562-0.210937 52.5651-0.252604 52.4609-0.335938 52.0911-0.643229 51.7656-1.00521 51.4844-1.42188 51.4219-1.50521 51.3906-1.59115 51.3906-1.67969 51.3906-1.75781 51.4167-1.84896 51.4688-1.95312 51.5104-2.05729 51.5312-2.36198 51.5312-2.86719L51.5703-8.88281C51.5703-10.1068 51.5104-11.0339 51.3906-11.6641 52.4375-11.5339 53.1302-11.4167 53.4688-11.3125 53.6406-11.2604 53.7266-11.1589 53.7266-11.0078 53.7266-10.9453 53.7005-10.8333 53.6484-10.6719 53.5286-10.3385 53.4688-9.67708 53.4688-8.6875ZM65.6797-7.02344C66.513-6.89323 67.6641-6.82812 69.1328-6.82812L74.2891-6.82812C74.7943-6.82812 75.4453-6.83594 76.2422-6.85156 77.2578-6.86719 77.8333-6.8776 77.9688-6.88281 77.9948-6.88281 78.0208-6.88281 78.0469-6.88281 78.1875-6.88281 78.2578-6.80729 78.2578-6.65625 78.2734-6.41146 78.2812-6.15885 78.2812-5.89844 78.2812-5.64323 78.2734-5.39323 78.2578-5.14844 78.2578-4.98698 78.1823-4.90625 78.0312-4.90625L77.9688-4.90625C76.3698-4.92708 75.1797-4.9375 74.3984-4.9375L68.6406-4.9375 66.2891-4.74219C66.0859-4.74219 65.9635-4.85417 65.9219-5.07812 65.8281-5.5 65.7474-6.14844 65.6797-7.02344ZM90.6562-4.8125C91.3542-4.25 91.9297-3.71354 92.3828-3.20312 92.4453-3.13542 92.4766-3.0599 92.4766-2.97656 92.4766-2.90365 92.4453-2.83333 92.3828-2.76562 92.0547-2.36979 91.724-2.03385 91.3906-1.75781 91.3177-1.70573 91.2526-1.67969 91.1953-1.67969 91.1432-1.67969 91.0859-1.71094 91.0234-1.77344 90.5859-2.28385 90.0677-2.80208 89.4688-3.32812 87.9427-1.68229 86.2422-0.348958 84.3672 0.671875 84.1953 0.765625 84.0625 0.8125 83.9688 0.8125 83.875 0.8125 83.7734 0.765625 83.6641 0.671875 83.2422 0.328125 82.7344 0.0572917 82.1406-0.140625 83.474-0.822917 84.6016-1.51042 85.5234-2.20312 86.3568-2.83333 87.1927-3.59115 88.0312-4.47656 87.3542-5.02865 86.5859-5.53125 85.7266-5.98438 86.3672-6.68229 86.7188-7.0625 86.7812-7.125 86.8542-7.19792 86.9245-7.23438 86.9922-7.23438 87.013-7.23438 87.0651-7.21354 87.1484-7.17188 87.6068-6.95312 88.2943-6.52604 89.2109-5.89062 89.9193-6.80208 90.5443-7.85677 91.0859-9.05469L87.1172-8.97656C85.8411-7.34635 84.7005-6.14583 83.6953-5.375 83.5599-5.28125 83.4531-5.23438 83.375-5.23438 83.276-5.23438 83.1901-5.27083 83.1172-5.34375 82.7422-5.61458 82.2943-5.85938 81.7734-6.07812 82.9036-6.97396 83.849-7.86719 84.6094-8.75781 85.1979-9.4349 85.763-10.2161 86.3047-11.1016 86.763-11.8828 87.0495-12.5391 87.1641-13.0703 88.1328-12.7318 88.7578-12.4714 89.0391-12.2891 89.1536-12.2318 89.2109-12.1458 89.2109-12.0312 89.2109-11.9115 89.1458-11.8047 89.0156-11.7109 88.8958-11.6328 88.7865-11.5208 88.6875-11.375 88.5625-11.1562 88.3958-10.8906 88.1875-10.5781L91.0078-10.6406C91.3516-10.651 91.6432-10.7318 91.8828-10.8828 91.9922-10.9557 92.0833-10.9922 92.1562-10.9922 92.2292-10.9922 92.3255-10.9505 92.4453-10.8672 92.7839-10.6641 93.1484-10.3385 93.5391-9.89062 93.6224-9.80208 93.6641-9.70573 93.6641-9.60156 93.6641-9.5026 93.6042-9.40104 93.4844-9.29688 93.2812-9.11458 93.1224-8.91146 93.0078-8.6875 92.2214-7.13542 91.4375-5.84375 90.6562-4.8125Z" transform="translate(12.0953 23)"/></g></g><text font-family="Yu Gothic,Yu Gothic_MSFontService,sans-serif" font-weight="700" font-size="16" transform="translate(490.112 220)">ジェネレータ</text><rect x="67.5001" y="88.5001" width="605" height="657" stroke="#D9D9D9" stroke-width="1.33333" stroke-miterlimit="8" fill="none"/><g clip-path="url(#clip7)"><g clip-path="url(#clip8)"><g clip-path="url(#clip9)"><g clip-path="url(#clip10)"><path d="M230.248 340.822 284.853 340.822 284.853 435.014 230.248 435.014Z" fill="#F2F2F2" transform="matrix(1 0 0 1.00052 34.2212 280.85)"/><text font-family="Yu Gothic,Yu Gothic_MSFontService,sans-serif" font-weight="400" font-size="16" transform="matrix(0.455036 0 0 0.455272 268.922 631)">関係<tspan font-size="16" x="32" y="0">の</tspan><tspan font-size="16" x="48" y="0">凡例</tspan></text><path d="M172.686 180.574C172.686 175.715 176.625 171.776 181.484 171.776L216.673 171.776C221.532 171.776 225.47 175.715 225.47 180.574L225.47 302.219C225.47 307.078 221.532 311.017 216.673 311.017L181.484 311.017C176.625 311.017 172.686 307.078 172.686 302.219Z" stroke="#2F528F" stroke-width="0.151679" stroke-miterlimit="8" fill="#F2F2F2" fill-rule="evenodd" transform="matrix(1 0 0 1.00052 34.2212 280.85)"/><text font-family="Calibri,Calibri_MSFontService,sans-serif" font-weight="400" font-size="13" transform="matrix(0.455036 0 0 0.455272 213.454 463)">Property</text><path d="M116.717 178.754C116.717 174.9 119.841 171.776 123.694 171.776L151.603 171.776C155.456 171.776 158.58 174.9 158.58 178.754L158.58 273.097C158.58 276.951 155.456 280.075 151.603 280.075L123.694 280.075C119.841 280.075 116.717 276.951 116.717 273.097Z" stroke="#2F528F" stroke-width="0.151679" stroke-miterlimit="8" fill="#F2F2F2" fill-rule="evenodd" transform="matrix(1 0 0 1.00052 34.2212 280.85)"/><text font-family="Calibri,Calibri_MSFontService,sans-serif" font-weight="400" font-size="13" transform="matrix(0.455036 0 0 0.455272 156.989 462)">Class</text><path d="M60.2923 177.692C60.2923 174.424 62.9406 171.776 66.2077 171.776L96.2401 171.776C99.5073 171.776 102.156 174.424 102.156 177.692L102.156 201.353C102.156 204.621 99.5073 207.269 96.2401 207.269L66.2077 207.269C62.9406 207.269 60.2923 204.621 60.2923 201.353Z" stroke="#2F528F" stroke-width="0.151679" stroke-miterlimit="8" fill="#F2F2F2" fill-rule="evenodd" transform="matrix(1 0 0 1.00052 34.2212 280.85)"/><text font-family="Calibri,Calibri_MSFontService,sans-serif" font-weight="400" font-size="13" transform="matrix(0.455036 0 0 0.455272 100.192 462)">Domain<tspan font-family="Yu Gothic,Yu Gothic_MSFontService,sans-serif" font-size="13" x="9.83138" y="35.1439">商品販売</tspan></text><path d="M70.4441 197.798 76.4733 197.798 82.5026 197.798 88.5318 197.798 94.561 197.798 94.561 198.253 88.5318 198.253 82.5026 198.253 76.4733 198.253 70.4441 198.253Z" fill-rule="evenodd" transform="matrix(1 0 0 1.00052 34.2212 280.85)"/><text font-family="Yu Gothic,Yu Gothic_MSFontService,sans-serif" font-weight="400" font-size="13" transform="matrix(0.455036 0 0 0.455272 164.439 478)">顧客</text><path d="M130.218 197.798 133.29 197.798 136.361 197.798 139.433 197.798 142.504 197.798 142.504 198.253 139.433 198.253 136.361 198.253 133.29 198.253 130.218 198.253Z" fill-rule="evenodd" transform="matrix(1 0 0 1.00052 34.2212 280.85)"/><text font-family="Yu Gothic,Yu Gothic_MSFontService,sans-serif" font-weight="400" font-size="13" transform="matrix(0.455036 0 0 0.455272 164.439 513)">商品</text><path d="M130.218 232.758 133.29 232.758 136.361 232.758 139.433 232.758 142.504 232.758 142.504 233.213 139.433 233.213 136.361 233.213 133.29 233.213 130.218 233.213Z" fill-rule="evenodd" transform="matrix(1 0 0 1.00052 34.2212 280.85)"/><text font-family="Yu Gothic,Yu Gothic_MSFontService,sans-serif" font-weight="400" font-size="13" transform="matrix(0.455036 0 0 0.455272 164.439 548)">注文</text><path d="M130.218 267.718 133.29 267.718 136.361 267.718 139.433 267.718 142.504 267.718 142.504 268.173 139.433 268.173 136.361 268.173 133.29 268.173 130.218 268.173Z" fill-rule="evenodd" transform="matrix(1 0 0 1.00052 34.2212 280.85)"/><text font-family="Yu Gothic,Yu Gothic_MSFontService,sans-serif" font-weight="400" font-size="13" transform="matrix(0.455036 0 0 0.455272 218.808 478)">顧客<tspan font-family="Calibri,Calibri_MSFontService,sans-serif" font-size="13" x="26.6667" y="0">ID</tspan></text><path d="M184.587 197.798 188.91 197.798 193.232 197.798 197.555 197.798 201.878 197.798 201.878 198.253 197.555 198.253 193.232 198.253 188.91 198.253 184.587 198.253Z" fill-rule="evenodd" transform="matrix(1 0 0 1.00052 34.2212 280.85)"/><text font-family="Yu Gothic,Yu Gothic_MSFontService,sans-serif" font-weight="400" font-size="13" transform="matrix(0.455036 0 0 0.455272 218.808 490)">顧客名</text><path d="M184.587 209.561 189.137 209.561 193.687 209.561 198.238 209.561 202.788 209.561 202.788 210.016 198.238 210.016 193.687 210.016 189.137 210.016 184.587 210.016Z" fill-rule="evenodd" transform="matrix(1 0 0 1.00052 34.2212 280.85)"/><text font-family="Yu Gothic,Yu Gothic_MSFontService,sans-serif" font-weight="400" font-size="13" transform="matrix(0.455036 0 0 0.455272 218.808 502)">住所</text><path d="M184.587 221.324 187.658 221.324 190.73 221.324 193.801 221.324 196.873 221.324 196.873 221.779 193.801 221.779 190.73 221.779 187.658 221.779 184.587 221.779Z" fill-rule="evenodd" transform="matrix(1 0 0 1.00052 34.2212 280.85)"/><text font-family="Yu Gothic,Yu Gothic_MSFontService,sans-serif" font-weight="400" font-size="13" transform="matrix(0.455036 0 0 0.455272 218.808 513)">商品<tspan font-size="13" x="26" y="0">コード</tspan></text><path d="M184.587 232.846 192.209 232.846 199.83 232.846 207.452 232.846 215.074 232.846 215.074 233.301 207.452 233.301 199.83 233.301 192.209 233.301 184.587 233.301Z" fill-rule="evenodd" transform="matrix(1 0 0 1.00052 34.2212 280.85)"/><text font-family="Yu Gothic,Yu Gothic_MSFontService,sans-serif" font-weight="400" font-size="13" transform="matrix(0.455036 0 0 0.455272 218.808 525)">商品名</text><path d="M184.587 244.608 189.137 244.608 193.687 244.608 198.238 244.608 202.788 244.608 202.788 245.063 198.238 245.063 193.687 245.063 189.137 245.063 184.587 245.063Z" fill-rule="evenodd" transform="matrix(1 0 0 1.00052 34.2212 280.85)"/><text font-family="Yu Gothic,Yu Gothic_MSFontService,sans-serif" font-weight="400" font-size="13" transform="matrix(0.455036 0 0 0.455272 218.808 537)">在庫</text><path d="M184.587 256.37 187.658 256.37 190.73 256.37 193.801 256.37 196.873 256.37 196.873 256.826 193.801 256.826 190.73 256.826 187.658 256.826 184.587 256.826Z" fill-rule="evenodd" transform="matrix(1 0 0 1.00052 34.2212 280.85)"/><text font-family="Yu Gothic,Yu Gothic_MSFontService,sans-serif" font-weight="400" font-size="13" transform="matrix(0.455036 0 0 0.455272 218.808 549)">単価</text><path d="M184.587 267.892 187.658 267.892 190.73 267.892 193.801 267.892 196.873 267.892 196.873 268.347 193.801 268.347 190.73 268.347 187.658 268.347 184.587 268.347Z" fill-rule="evenodd" transform="matrix(1 0 0 1.00052 34.2212 280.85)"/><text font-family="Yu Gothic,Yu Gothic_MSFontService,sans-serif" font-weight="400" font-size="13" transform="matrix(0.455036 0 0 0.455272 218.808 560)">注文<tspan font-family="Calibri,Calibri_MSFontService,sans-serif" font-size="13" x="26.6667" y="0">ID</tspan></text><path d="M184.587 279.655 188.91 279.655 193.232 279.655 197.555 279.655 201.878 279.655 201.878 280.11 197.555 280.11 193.232 280.11 188.91 280.11 184.587 280.11Z" fill-rule="evenodd" transform="matrix(1 0 0 1.00052 34.2212 280.85)"/><text font-family="Yu Gothic,Yu Gothic_MSFontService,sans-serif" font-weight="400" font-size="13" transform="matrix(0.455036 0 0 0.455272 218.808 572)">個数</text><path d="M184.587 291.418 187.658 291.418 190.73 291.418 193.801 291.418 196.873 291.418 196.873 291.873 193.801 291.873 190.73 291.873 187.658 291.873 184.587 291.873Z" fill-rule="evenodd" transform="matrix(1 0 0 1.00052 34.2212 280.85)"/><text font-family="Yu Gothic,Yu Gothic_MSFontService,sans-serif" font-weight="400" font-size="13" transform="matrix(0.455036 0 0 0.455272 218.808 584)">金額</text><path d="M184.587 303.18 187.658 303.18 190.73 303.18 193.801 303.18 196.873 303.18 196.873 303.635 193.801 303.635 190.73 303.635 187.658 303.635 184.587 303.635Z" fill-rule="evenodd" transform="matrix(1 0 0 1.00052 34.2212 280.85)"/><path d="M0 0 26.4466 4.77729e-05" stroke="#44546A" stroke-width="0.606713" stroke-miterlimit="8" fill="none" fill-rule="evenodd" transform="matrix(1 0 0 -1.00052 133.647 476.844)"/><path d="M99.4254 195.893 125.872 230.852" stroke="#44546A" stroke-width="0.606713" stroke-miterlimit="8" fill="none" fill-rule="evenodd" transform="matrix(1 0 0 1.00052 34.2212 280.85)"/><path d="M99.4254 195.893 125.872 265.812" stroke="#44546A" stroke-width="0.606713" stroke-miterlimit="8" fill="none" fill-rule="evenodd" transform="matrix(1 0 0 1.00052 34.2212 280.85)"/><path d="M147.204 195.893 180.498 195.893" stroke="#4472C4" stroke-width="0.606713" stroke-miterlimit="8" fill="none" fill-rule="evenodd" transform="matrix(1 0 0 1.00052 34.2212 280.85)"/><path d="M147.204 195.893 180.498 207.656" stroke="#4472C4" stroke-width="0.606713" stroke-miterlimit="8" fill="none" fill-rule="evenodd" transform="matrix(1 0 0 1.00052 34.2212 280.85)"/><path d="M147.204 195.893 180.498 219.418" stroke="#4472C4" stroke-width="0.606713" stroke-miterlimit="8" fill="none" fill-rule="evenodd" transform="matrix(1 0 0 1.00052 34.2212 280.85)"/><path d="M147.204 230.931 180.498 231.018" stroke="#4472C4" stroke-width="0.606713" stroke-miterlimit="8" fill="none" fill-rule="evenodd" transform="matrix(1 0 0 1.00052 34.2212 280.85)"/><path d="M147.204 230.931 180.498 242.781" stroke="#4472C4" stroke-width="0.606713" stroke-miterlimit="8" fill="none" fill-rule="evenodd" transform="matrix(1 0 0 1.00052 34.2212 280.85)"/><path d="M147.204 230.931 180.498 254.544" stroke="#4472C4" stroke-width="0.606713" stroke-miterlimit="8" fill="none" fill-rule="evenodd" transform="matrix(1 0 0 1.00052 34.2212 280.85)"/><path d="M147.204 230.931 180.498 266.065" stroke="#4472C4" stroke-width="0.606713" stroke-miterlimit="8" fill="none" fill-rule="evenodd" transform="matrix(1 0 0 1.00052 34.2212 280.85)"/><path d="M147.204 265.513 180.498 277.451" stroke="#4472C4" stroke-width="0.606713" stroke-miterlimit="8" fill="none" fill-rule="evenodd" transform="matrix(1 0 0 1.00052 34.2212 280.85)"/><path d="M147.204 265.513 180.498 289.214" stroke="#4472C4" stroke-width="0.606713" stroke-miterlimit="8" fill="none" fill-rule="evenodd" transform="matrix(1 0 0 1.00052 34.2212 280.85)"/><path d="M147.204 265.513 180.498 300.976" stroke="#4472C4" stroke-width="0.606713" stroke-miterlimit="8" fill="none" fill-rule="evenodd" transform="matrix(1 0 0 1.00052 34.2212 280.85)"/><path d="M239.121 181.18C239.121 175.987 243.332 171.776 248.526 171.776L286.142 171.776C291.335 171.776 295.546 175.987 295.546 181.18L295.546 256.109C295.546 261.303 291.335 265.513 286.142 265.513L248.526 265.513C243.332 265.513 239.121 261.303 239.121 256.109Z" stroke="#2F528F" stroke-width="0.151679" stroke-miterlimit="8" fill="#F2F2F2" fill-rule="evenodd" transform="matrix(1 0 0 1.00052 34.2212 280.85)"/><text font-family="Calibri,Calibri_MSFontService,sans-serif" font-weight="400" font-size="13" transform="matrix(0.455036 0 0 0.455272 280.107 463)">String Data Type<tspan font-family="Yu Gothic,Yu Gothic_MSFontService,sans-serif" font-size="13" x="7.73958" y="32.9474">顧客</tspan><tspan font-size="13" x="34.4063" y="32.9474">ID</tspan></text><path d="M249.407 198.039 253.73 198.039 258.053 198.039 262.376 198.039 266.699 198.039 266.699 198.494 262.376 198.494 258.053 198.494 253.73 198.494 249.407 198.494Z" fill-rule="evenodd" transform="matrix(1 0 0 1.00052 34.2212 280.85)"/><text font-family="Yu Gothic,Yu Gothic_MSFontService,sans-serif" font-weight="400" font-size="13" transform="matrix(0.455036 0 0 0.455272 283.629 490)">顧客名</text><path d="M249.407 209.802 253.958 209.802 258.508 209.802 263.059 209.802 267.609 209.802 267.609 210.257 263.059 210.257 258.508 210.257 253.958 210.257 249.407 210.257Z" fill-rule="evenodd" transform="matrix(1 0 0 1.00052 34.2212 280.85)"/><text font-family="Yu Gothic,Yu Gothic_MSFontService,sans-serif" font-weight="400" font-size="13" transform="matrix(0.455036 0 0 0.455272 283.629 502)">住所</text><path d="M249.407 221.564 252.479 221.564 255.55 221.564 258.622 221.564 261.693 221.564 261.693 222.019 258.622 222.019 255.55 222.019 252.479 222.019 249.407 222.019Z" fill-rule="evenodd" transform="matrix(1 0 0 1.00052 34.2212 280.85)"/><text font-family="Yu Gothic,Yu Gothic_MSFontService,sans-serif" font-weight="400" font-size="13" transform="matrix(0.455036 0 0 0.455272 283.629 513)">商品<tspan font-size="13" x="26" y="0">コード</tspan></text><path d="M249.407 233.086 257.029 233.086 264.651 233.086 272.273 233.086 279.895 233.086 279.895 233.541 272.273 233.541 264.651 233.541 257.029 233.541 249.407 233.541Z" fill-rule="evenodd" transform="matrix(1 0 0 1.00052 34.2212 280.85)"/><text font-family="Yu Gothic,Yu Gothic_MSFontService,sans-serif" font-weight="400" font-size="13" transform="matrix(0.455036 0 0 0.455272 283.718 525)">商品名</text><path d="M249.497 244.849 254.047 244.849 258.597 244.849 263.148 244.849 267.698 244.849 267.698 245.304 263.148 245.304 258.597 245.304 254.047 245.304 249.497 245.304Z" fill-rule="evenodd" transform="matrix(1 0 0 1.00052 34.2212 280.85)"/><path d="M206.814 195.893 245.276 196.134" stroke="#ED7D31" stroke-width="0.606713" stroke-miterlimit="8" fill="none" fill-rule="evenodd" transform="matrix(1 0 0 1.00052 34.2212 280.85)"/><path d="M207.724 207.724 245.344 207.965" stroke="#ED7D31" stroke-width="0.606713" stroke-miterlimit="8" fill="none" fill-rule="evenodd" transform="matrix(1 0 0 1.00052 34.2212 280.85)"/><path d="M201.353 219.555 245.1 219.796" stroke="#ED7D31" stroke-width="0.606713" stroke-miterlimit="8" fill="none" fill-rule="evenodd" transform="matrix(1 0 0 1.00052 34.2212 280.85)"/><path d="M220.01 230.931 245.377 231.172" stroke="#ED7D31" stroke-width="0.606713" stroke-miterlimit="8" fill="none" fill-rule="evenodd" transform="matrix(1 0 0 1.00052 34.2212 280.85)"/><path d="M207.724 242.762 245.433 243.002" stroke="#ED7D31" stroke-width="0.606713" stroke-miterlimit="8" fill="none" fill-rule="evenodd" transform="matrix(1 0 0 1.00052 34.2212 280.85)"/><text font-family="Yu Gothic,Yu Gothic_MSFontService,sans-serif" font-weight="400" font-size="13" transform="matrix(0.455036 0 0 0.455272 283.629 537)">注文<tspan font-family="Calibri,Calibri_MSFontService,sans-serif" font-size="13" x="26.6667" y="0">ID</tspan></text><path d="M249.407 256.612 253.73 256.612 258.053 256.612 262.376 256.612 266.699 256.612 266.699 257.067 262.376 257.067 258.053 257.067 253.73 257.067 249.407 257.067Z" fill-rule="evenodd" transform="matrix(1 0 0 1.00052 34.2212 280.85)"/><path d="M0 0 38.462 23.0436" stroke="#ED7D31" stroke-width="0.606713" stroke-miterlimit="8" fill="none" fill-rule="evenodd" transform="matrix(1 0 0 -1.00052 241.035 558.63)"/><path d="M239.121 281.516C239.121 276.95 242.823 273.249 247.388 273.249L292.285 273.249C296.85 273.249 300.551 276.95 300.551 281.516L300.551 314.581C300.551 319.147 296.85 322.848 292.285 322.848L247.388 322.848C242.823 322.848 239.121 319.147 239.121 314.581Z" stroke="#2F528F" stroke-width="0.151679" stroke-miterlimit="8" fill="#F2F2F2" fill-rule="evenodd" transform="matrix(1 0 0 1.00052 34.2212 280.85)"/><text font-family="Calibri,Calibri_MSFontService,sans-serif" font-weight="400" font-size="13" transform="matrix(0.455036 0 0 0.455272 279.771 564)">Numeric<tspan font-size="13" x="49.3334" y="0">Data</tspan><tspan font-size="13" x="77.6667" y="0">Typ</tspan><tspan font-size="13" x="95.6667" y="0">e</tspan><tspan font-family="Yu Gothic,Yu Gothic_MSFontService,sans-serif" font-size="13" x="8.97213" y="26.3579">個数</tspan></text><path d="M249.632 295.845 252.704 295.845 255.775 295.845 258.847 295.845 261.918 295.845 261.918 296.3 258.847 296.3 255.775 296.3 252.704 296.3 249.632 296.3Z" fill-rule="evenodd" transform="matrix(1 0 0 1.00052 34.2212 280.85)"/><text font-family="Yu Gothic,Yu Gothic_MSFontService,sans-serif" font-weight="400" font-size="13" transform="matrix(0.455036 0 0 0.455272 283.629 588)">金額</text><path d="M249.407 307.567 252.479 307.567 255.55 307.567 258.622 307.567 261.693 307.567 261.693 308.022 258.622 308.022 255.55 308.022 252.479 308.022 249.407 308.022Z" fill-rule="evenodd" transform="matrix(1 0 0 1.00052 34.2212 280.85)"/><path d="M201.353 254.593 245.324 294.067" stroke="#ED7D31" stroke-width="0.606713" stroke-miterlimit="8" fill="none" fill-rule="evenodd" transform="matrix(1 0 0 1.00052 34.2212 280.85)"/><path d="M201.353 289.63 245.324 294.057" stroke="#ED7D31" stroke-width="0.606713" stroke-miterlimit="8" fill="none" fill-rule="evenodd" transform="matrix(1 0 0 1.00052 34.2212 280.85)"/><path d="M201.353 301.006 245.1 305.393" stroke="#ED7D31" stroke-width="0.606713" stroke-miterlimit="8" fill="none" fill-rule="evenodd" transform="matrix(1 0 0 1.00052 34.2212 280.85)"/><path d="M102.156 367.214C102.156 364.575 104.295 362.436 106.933 362.436L159.263 362.436C161.901 362.436 164.04 364.575 164.04 367.214L164.04 386.326C164.04 388.964 161.901 391.103 159.263 391.103L106.933 391.103C104.295 391.103 102.156 388.964 102.156 386.326Z" stroke="#2F528F" stroke-width="0.151679" stroke-miterlimit="8" fill="#F2F2F2" fill-rule="evenodd" transform="matrix(1 0 0 1.00052 34.2212 280.85)"/><text font-family="Calibri,Calibri_MSFontService,sans-serif" font-weight="400" font-size="13" transform="matrix(0.455036 0 0 0.455272 142.079 652)">Binary Relationship<tspan font-size="13" x="10.5527" y="19.7684">R</tspan><tspan font-size="13" x="17.5527" y="19.7684">_</tspan><tspan font-size="13" x="23.5527" y="19.7684">GS</tspan><tspan font-size="13" x="37.5527" y="19.7684">_</tspan><tspan font-size="13" x="43.5527" y="19.7684">1</tspan></text><path d="M112.659 381.061 117.437 381.061 122.215 381.061 126.993 381.061 131.771 381.061 131.771 381.516 126.993 381.516 122.215 381.516 117.437 381.516 112.659 381.516Z" fill-rule="evenodd" transform="matrix(1 0 0 1.00052 34.2212 280.85)"/><path d="M59.8372 322.317C59.8372 319.092 62.4519 316.478 65.6772 316.478L113.152 316.478C116.377 316.478 118.992 319.092 118.992 322.317L118.992 345.676C118.992 348.901 116.377 351.515 113.152 351.515L65.6772 351.515C62.4519 351.515 59.8372 348.901 59.8372 345.676Z" stroke="#2F528F" stroke-width="0.151679" stroke-miterlimit="8" fill="#F2F2F2" fill-rule="evenodd" transform="matrix(1 0 0 1.00052 34.2212 280.85)"/><text font-family="Calibri,Calibri_MSFontService,sans-serif" font-weight="400" font-size="13" transform="matrix(0.455036 0 0 0.455272 99.7514 607)">One Side of <tspan font-size="13" x="0" y="15.3754">Relationship</tspan><tspan font-size="13" x="9.88346" y="39.5368">R</tspan><tspan font-size="13" x="16.8835" y="39.5368">_</tspan><tspan font-size="13" x="22.8835" y="39.5368">GS</tspan><tspan font-size="13" x="36.8835" y="39.5368">_</tspan>1<tspan font-family="Yu Gothic,Yu Gothic_MSFontService,sans-serif" font-size="13" x="51.7168" y="39.5368">顧客側</tspan></text><path d="M70.0273 344.865 79.3555 344.865 88.6838 344.865 98.012 344.865 107.34 344.865 107.34 345.32 98.012 345.32 88.6838 345.32 79.3555 345.32 70.0273 345.32Z" fill-rule="evenodd" transform="matrix(1 0 0 1.00052 34.2212 280.85)"/><path d="M128.548 322.317C128.548 319.092 131.162 316.478 134.388 316.478L181.863 316.478C185.088 316.478 187.702 319.092 187.702 322.317L187.702 345.676C187.702 348.901 185.088 351.515 181.863 351.515L134.388 351.515C131.162 351.515 128.548 348.901 128.548 345.676Z" stroke="#2F528F" stroke-width="0.151679" stroke-miterlimit="8" fill="#F2F2F2" fill-rule="evenodd" transform="matrix(1 0 0 1.00052 34.2212 280.85)"/><text font-family="Calibri,Calibri_MSFontService,sans-serif" font-weight="400" font-size="13" transform="matrix(0.455036 0 0 0.455272 168.529 607)">Other Side of <tspan font-size="13" x="0" y="15.3754">Relationship</tspan><tspan font-size="13" x="9.90298" y="35.1439">R</tspan><tspan font-size="13" x="16.903" y="35.1439">_</tspan><tspan font-size="13" x="22.903" y="35.1439">GS</tspan><tspan font-size="13" x="36.903" y="35.1439">_</tspan><tspan font-size="13" x="42.903" y="35.1439">1</tspan><tspan font-family="Yu Gothic,Yu Gothic_MSFontService,sans-serif" font-size="13" x="51.7363" y="35.1439">商品側</tspan></text><path d="M138.814 342.802 148.142 342.802 157.47 342.802 166.798 342.802 176.127 342.802 176.127 343.257 166.798 343.257 157.47 343.257 148.142 343.257 138.814 343.257Z" fill-rule="evenodd" transform="matrix(1 0 0 1.00052 34.2212 280.85)"/><path d="M136.623 271.429 136.623 296.157 48.4158 296.157 48.4158 378.892 108.526 378.892" stroke="#FF0000" stroke-width="0.606713" stroke-miterlimit="8" fill="none" fill-rule="evenodd" transform="matrix(1 0 0 1.00052 34.2212 280.85)"/><path d="M136.481 201.808 136.481 214.624 54.8314 214.624 54.8314 342.994 65.7527 342.994" stroke="#70AD47" stroke-width="0.606713" stroke-miterlimit="8" fill="none" fill-rule="evenodd" transform="matrix(1 0 0 1.00052 34.2212 280.85)"/><path d="M136.405 236.846 136.405 246.487 123.542 246.487 123.542 341.009 134.463 341.009" stroke="#70AD47" stroke-width="0.606713" stroke-miterlimit="8" fill="none" fill-rule="evenodd" transform="matrix(1 0 0 1.00052 34.2212 280.85)"/><text font-family="Yu Gothic,Yu Gothic_MSFontService,sans-serif" font-weight="400" font-size="16" transform="matrix(0.455036 0 0 0.455272 88.5876 442)">“<tspan font-size="16" x="6.99999" y="0">概念情報</tspan><tspan font-size="16" x="71" y="0">モデルの</tspan><tspan font-size="16" x="134" y="0">概念情報</tspan><tspan font-size="16" x="198" y="0">モデル</tspan>”<tspan font-size="16" x="252" y="0">のインスタンスとリンクによる</tspan><tspan font-size="16" x="476" y="0">表現</tspan></text><path d="M243.672 358.796 257.621 358.796" stroke="#44546A" stroke-width="0.606713" stroke-miterlimit="8" fill="none" fill-rule="evenodd" transform="matrix(1 0 0 1.00052 34.2212 280.85)"/><text font-family="Calibri,Calibri_MSFontService,sans-serif" font-weight="400" font-size="13" transform="matrix(0.455036 0 0 0.455272 295.569 641)">R<tspan font-size="13" x="7.00004" y="0">1</tspan></text><path d="M243.672 370.627 257.621 370.627" stroke="#4472C4" stroke-width="0.606713" stroke-miterlimit="8" fill="none" fill-rule="evenodd" transform="matrix(1 0 0 1.00052 34.2212 280.85)"/><text font-family="Calibri,Calibri_MSFontService,sans-serif" font-weight="400" font-size="13" transform="matrix(0.455036 0 0 0.455272 295.569 653)">R<tspan font-size="13" x="7.00004" y="0">2</tspan></text><path d="M243.672 382.458 257.621 382.458" stroke="#ED7D31" stroke-width="0.606713" stroke-miterlimit="8" fill="none" fill-rule="evenodd" transform="matrix(1 0 0 1.00052 34.2212 280.85)"/><text font-family="Calibri,Calibri_MSFontService,sans-serif" font-weight="400" font-size="13" transform="matrix(0.455036 0 0 0.455272 295.569 665)">R<tspan font-size="13" x="7.00004" y="0">3</tspan></text><path d="M243.672 393.834 257.621 393.834" stroke="#5B9BD5" stroke-width="0.606713" stroke-miterlimit="8" fill="none" fill-rule="evenodd" transform="matrix(1 0 0 1.00052 34.2212 280.85)"/><text font-family="Calibri,Calibri_MSFontService,sans-serif" font-weight="400" font-size="13" transform="matrix(0.455036 0 0 0.455272 295.569 676)">R<tspan font-size="13" x="7.00004" y="0">15</tspan></text><path d="M243.217 416.585 257.166 416.585" stroke="#70AD47" stroke-width="0.606713" stroke-miterlimit="8" fill="none" fill-rule="evenodd" transform="matrix(1 0 0 1.00052 34.2212 280.85)"/><text font-family="Calibri,Calibri_MSFontService,sans-serif" font-weight="400" font-size="13" transform="matrix(0.455036 0 0 0.455272 295.431 699)">R<tspan font-size="13" x="7.00004" y="0">17</tspan></text><path d="M243.672 428.416 257.621 428.416" stroke="#FF0000" stroke-width="0.606713" stroke-miterlimit="8" fill="none" fill-rule="evenodd" transform="matrix(1 0 0 1.00052 34.2212 280.85)"/><text font-family="Calibri,Calibri_MSFontService,sans-serif" font-weight="400" font-size="13" transform="matrix(0.455036 0 0 0.455272 295.569 711)">R<tspan font-size="13" x="7.00004" y="0">18</tspan></text><path d="M0 0 12.217 0 12.217 58.3852 30.3152 58.3852 30.3152 47.4639" stroke="#5B9BD5" stroke-width="0.606713" stroke-miterlimit="8" fill="none" fill-rule="evenodd" transform="matrix(1.83697e-16 1.00052 1 -1.83792e-16 123.181 629.815)"/><path d="M0 0-10.9206 0-10.9206 55.0621 58.5554 55.0621 58.5554 44.141" stroke="#A5A5A5" stroke-width="0.606713" stroke-miterlimit="8" fill="none" fill-rule="evenodd" transform="matrix(-1 0 0 1.00052 215.409 621.621)"/><path d="M243.672 404.755 257.621 404.755" stroke="#A5A5A5" stroke-width="0.606713" stroke-miterlimit="8" fill="none" fill-rule="evenodd" transform="matrix(1 0 0 1.00052 34.2212 280.85)"/><text font-family="Calibri,Calibri_MSFontService,sans-serif" font-weight="400" font-size="13" transform="matrix(0.455036 0 0 0.455272 295.569 687)">R<tspan font-size="13" x="7.00004" y="0">16</tspan></text></g></g></g></g><g clip-path="url(#clip11)"><g clip-path="url(#clip12)"><g clip-path="url(#clip13)"><g clip-path="url(#clip14)"><path d="M28.1621 24.4072 280.578 24.4072 280.578 258.465 28.1621 258.465Z" stroke="#D9D9D9" stroke-width="0.556287" stroke-miterlimit="8" fill="none" transform="matrix(1.00086 0 0 1 54.773 103.797)"/><path d="M45.6852 49.0229 89.91 49.0229 89.91 71.1353 45.6852 71.1353Z" stroke="#000000" stroke-width="0.556287" stroke-miterlimit="8" fill="#FFFFFF" transform="matrix(1.00086 0 0 1 54.773 103.797)"/><text font-family="Consolas,Consolas_MSFontService,sans-serif" font-weight="400" font-size="11" transform="matrix(0.417574 0 0 0.417216 115.185 159)">Domain<tspan font-size="8" x="-26" y="9.58736">*</tspan><tspan font-size="8" x="-22" y="9.58736">Name</tspan><tspan font-size="8" x="-18" y="19.1747">Description</tspan></text><path d="M0 0 4.38023e-05 20.3858" stroke="#000000" stroke-width="0.278144" stroke-miterlimit="8" fill="none" fill-rule="evenodd" transform="matrix(-1.00086 0 0 1 122.629 174.932)"/><text font-family="Calibri,Calibri_MSFontService,sans-serif" font-weight="400" font-size="11" transform="matrix(0.417574 0 0 0.417216 117.908 187)">R<tspan font-size="11" x="6.00001" y="0">1</tspan><tspan font-size="8" x="4.62342" y="-21.5716">1</tspan><tspan font-size="8" x="14.911" y="14.381">1</tspan><tspan font-size="8" x="18.911" y="14.381">..*</tspan></text><path d="M45.6852 91.5789 89.91 91.5789 89.91 113.691 45.6852 113.691Z" stroke="#000000" stroke-width="0.556287" stroke-miterlimit="8" fill="#FFFFFF" transform="matrix(1.00086 0 0 1 54.773 103.797)"/><text font-family="Consolas,Consolas_MSFontService,sans-serif" font-weight="400" font-size="11" transform="matrix(0.417574 0 0 0.417216 116.401 201)">Class<tspan font-size="8" x="-28.9133" y="11.9842">*</tspan><tspan font-size="8" x="-24.9133" y="11.9842">Domain Name</tspan><tspan font-size="8" x="-28.9133" y="21.5716">*</tspan><tspan font-size="8" x="-24.9133" y="21.5716">Name</tspan><tspan font-size="8" x="-24.58" y="31.1589">Description</tspan></text><path d="M144.148 89.91 188.373 89.91 188.373 115.36 144.148 115.36Z" stroke="#000000" stroke-width="0.556287" stroke-miterlimit="8" fill="#FFFFFF" transform="matrix(1.00086 0 0 1 54.773 103.797)"/><text font-family="Consolas,Consolas_MSFontService,sans-serif" font-weight="400" font-size="11" transform="matrix(0.417574 0 0 0.417216 211.296 200)">Property<tspan font-size="8" x="-20.1667" y="9.58736">*</tspan><tspan font-size="8" x="-16.1667" y="9.58736">Domain name</tspan><tspan font-size="8" x="-20.1667" y="19.1747">*</tspan><tspan font-size="8" x="-16.1667" y="19.1747">Class Name</tspan><tspan font-size="8" x="-20.1667" y="28.7621">*</tspan><tspan font-size="8" x="-16.1667" y="28.7621">Name</tspan><tspan font-size="8" x="-15.8333" y="38.3494">Description</tspan><tspan font-family="Calibri,Calibri_MSFontService,sans-serif" font-size="8" x="-246.437" y="-16.7779">concept</tspan></text><path d="M144.042 102.912 89.91 102.844" stroke="#000000" stroke-width="0.278144" stroke-miterlimit="8" fill="none" fill-rule="evenodd" transform="matrix(1.00086 0 0 1 54.773 103.797)"/><text font-family="Calibri,Calibri_MSFontService,sans-serif" font-weight="400" font-size="11" transform="matrix(0.417574 0 0 0.417216 169.41 204)">R<tspan font-size="11" x="6.00001" y="0">2</tspan><tspan font-size="8" x="-56.6949" y="0">1</tspan><tspan font-size="8" x="59.6045" y="16.7779">*</tspan></text><path d="M144.148 49.0229 188.373 49.0229 188.373 71.1353 144.148 71.1353Z" stroke="#000000" stroke-width="0.556287" stroke-miterlimit="8" fill="#FFFFFF" transform="matrix(1.00086 0 0 1 54.773 103.797)"/><text font-family="Consolas,Consolas_MSFontService,sans-serif" font-weight="400" font-size="11" transform="matrix(0.417574 0 0 0.417216 210.077 159)">Data Type<tspan font-size="8" x="-17.2467" y="9.58736">*</tspan><tspan font-size="8" x="-13.2467" y="9.58736">Domain Name</tspan><tspan font-size="8" x="-17.2467" y="19.1747">*</tspan><tspan font-size="8" x="-13.2467" y="19.1747">Name</tspan><tspan font-size="8" x="-12.9133" y="28.7621">Description</tspan></text><path d="M0 0 54.1313 4.38023e-05" stroke="#000000" stroke-width="0.278144" stroke-miterlimit="8" fill="none" fill-rule="evenodd" transform="matrix(-1.00086 0 0 1 198.938 164.085)"/><text font-family="Calibri,Calibri_MSFontService,sans-serif" font-weight="400" font-size="11" transform="matrix(0.417574 0 0 0.417216 216.207 187)">R<tspan font-size="11" x="5.99998" y="0">3</tspan><tspan font-size="8" x="3.89146" y="-21.5716">1</tspan><tspan font-size="8" x="17.0728" y="-19.1747">specify</tspan><tspan font-size="8" x="15.6047" y="16.7779">*</tspan></text><path d="M166.261 71.1353 166.261 89.8028" stroke="#000000" stroke-width="0.278144" stroke-miterlimit="8" fill="none" fill-rule="evenodd" transform="matrix(1.00086 0 0 1 54.773 103.797)"/><text font-family="Calibri,Calibri_MSFontService,sans-serif" font-weight="400" font-size="11" transform="matrix(0.417574 0 0 0.417216 169.41 161)">R<tspan font-size="11" x="6.00001" y="0">20</tspan><tspan font-size="8" x="-55.8067" y="2.39684">1</tspan><tspan font-size="8" x="52.6764" y="0">1</tspan><tspan font-size="8" x="56.6764" y="0">..*</tspan></text><path d="M222.168 71.9698 272.233 71.9698 272.233 86.9895 222.168 86.9895Z" stroke="#000000" stroke-width="0.556287" stroke-miterlimit="8" fill="#FFFFFF" transform="matrix(1.00086 0 0 1 54.773 103.797)"/><text font-family="Consolas,Consolas_MSFontService,sans-serif" font-weight="400" font-size="11" transform="matrix(0.417574 0 0 0.417216 282.364 181)">String Data Type<tspan font-size="8" x="4.25336" y="11.9842">Pattern</tspan></text><path d="M222.168 90.3273 272.233 90.3273 272.233 112.44 222.168 112.44Z" stroke="#000000" stroke-width="0.556287" stroke-miterlimit="8" fill="#FFFFFF" transform="matrix(1.00086 0 0 1 54.773 103.797)"/><text font-family="Consolas,Consolas_MSFontService,sans-serif" font-weight="400" font-size="11" transform="matrix(0.417574 0 0 0.417216 282.364 200)">Number Data Type<tspan font-size="8" x="4.25336" y="9.58736">Unit</tspan><tspan font-size="8" x="4.25336" y="21.5716">Kind</tspan><tspan font-size="8" x="4.25336" y="28.7621">Domain</tspan></text><path d="M222.168 115.777 266.392 115.777 266.392 125.373 222.168 125.373Z" stroke="#000000" stroke-width="0.556287" stroke-miterlimit="8" fill="#FFFFFF" transform="matrix(1.00086 0 0 1 54.773 103.797)"/><text font-family="Consolas,Consolas_MSFontService,sans-serif" font-weight="400" font-size="11" transform="matrix(0.417574 0 0 0.417216 281.925 226)">Enum Data Type<tspan font-family="Calibri,Calibri_MSFontService,sans-serif" font-size="8" x="-89.5237" y="-131.826">{</tspan><tspan font-family="Calibri,Calibri_MSFontService,sans-serif" font-size="8" x="-86.5237" y="-131.826">complete</tspan><tspan font-family="Calibri,Calibri_MSFontService,sans-serif" font-size="8" x="-56.5237" y="-131.826">, </tspan><tspan font-family="Calibri,Calibri_MSFontService,sans-serif" font-size="8" x="-89.5237" y="-122.239">disjoint</tspan><tspan font-family="Calibri,Calibri_MSFontService,sans-serif" font-size="8" x="-65.5237" y="-122.239">}</tspan></text><path d="M193.797 63.6254 188.79 60.7049 193.797 57.7844Z" stroke="#000000" stroke-width="0.556287" stroke-miterlimit="8" fill="none" fill-rule="evenodd" transform="matrix(1.00086 0 0 1 54.773 103.797)"/><path d="M222.071 79.2577 207.934 79.2577 207.934 60.7049 193.797 60.7049" stroke="#000000" stroke-width="0.278144" stroke-miterlimit="8" fill="none" fill-rule="evenodd" transform="matrix(1.00086 0 0 1 54.773 103.797)"/><path d="M222.071 101.375 207.934 101.375 207.934 60.7049 193.797 60.7049" stroke="#000000" stroke-width="0.278144" stroke-miterlimit="8" fill="none" fill-rule="evenodd" transform="matrix(1.00086 0 0 1 54.773 103.797)"/><path d="M222.071 120.545 207.934 120.545 207.934 60.7049 193.797 60.7049" stroke="#000000" stroke-width="0.278144" stroke-miterlimit="8" fill="none" fill-rule="evenodd" transform="matrix(1.00086 0 0 1 54.773 103.797)"/><text font-family="Calibri,Calibri_MSFontService,sans-serif" font-weight="400" font-size="11" transform="matrix(0.417574 0 0 0.417216 248.716 159)">R<tspan font-size="11" x="6.00001" y="0">21</tspan></text><path d="M222.168 130.38 266.392 130.38 266.392 156.247 222.168 156.247Z" stroke="#000000" stroke-width="0.556287" stroke-miterlimit="8" fill="#FFFFFF" transform="matrix(1.00086 0 0 1 54.773 103.797)"/><text font-family="Consolas,Consolas_MSFontService,sans-serif" font-weight="400" font-size="11" transform="matrix(0.417574 0 0 0.417216 286.784 240)">Enum Value<tspan font-size="8" x="-14.3333" y="9.58736">*</tspan><tspan font-size="8" x="-10.3333" y="9.58736">Domain Name</tspan><tspan font-size="8" x="-14.3333" y="21.5716">*</tspan><tspan font-size="8" x="-10.3333" y="21.5716">Data Type Name</tspan><tspan font-size="8" x="-14.3333" y="31.1589">*</tspan><tspan font-size="8" x="-10.3333" y="31.1589">Name</tspan><tspan font-size="8" x="-6.33331" y="38.3494">Description</tspan></text><path d="M0 0 10.0132 0 10.0132 22.8158 4.38023e-05 22.8158" stroke="#000000" stroke-width="0.278144" stroke-miterlimit="8" fill="none" fill-rule="evenodd" transform="matrix(1.00086 0 0 -1 321.394 247.397)"/><text font-family="Calibri,Calibri_MSFontService,sans-serif" font-weight="400" font-size="8" transform="matrix(0.417574 0 0 0.417216 322.444 223)">1<tspan font-size="8" x="-0.598989" y="67.1115">1</tspan><tspan font-size="8" x="3.401" y="67.1115">..*</tspan><tspan font-size="8" x="0.943284" y="52.7305">values</tspan><tspan font-size="11" x="1.28714" y="28.7621">R</tspan><tspan font-size="11" x="7.28712" y="28.7621">22</tspan></text><path d="M130.797 148.738 175.022 148.738 175.022 172.102 130.797 172.102Z" stroke="#000000" stroke-width="0.556287" stroke-miterlimit="8" fill="#FFFFFF" transform="matrix(1.00086 0 0 1 54.773 103.797)"/><text font-family="Consolas,Consolas_MSFontService,sans-serif" font-weight="400" font-size="11" transform="matrix(0.417574 0 0 0.417216 193.03 259)">Relationship<tspan font-size="8" x="-8.5" y="9.58736">*</tspan><tspan font-size="8" x="-4.49998" y="9.58736">Domain Name</tspan><tspan font-family="Yu Gothic,Yu Gothic_MSFontService,sans-serif" font-size="8" x="43.5" y="9.58736">名</tspan><tspan font-size="8" x="-8.5" y="19.1747">*</tspan><tspan font-size="8" x="-4.49998" y="19.1747">Name</tspan><tspan font-size="8" x="-0.499998" y="28.7621">Description</tspan></text><path d="M71.9698 222.585 130.797 222.585 130.797 240.525 71.9698 240.525Z" stroke="#000000" stroke-width="0.556287" stroke-miterlimit="8" fill="#FFFFFF" transform="matrix(1.00086 0 0 1 54.773 103.797)"/><text font-family="Consolas,Consolas_MSFontService,sans-serif" font-weight="400" font-size="11" transform="matrix(0.417574 0 0 0.417216 131.72 332)">Side of Relationship<tspan font-size="8" x="5.58666" y="11.9842">Multiplicity</tspan><tspan font-size="8" x="5.58666" y="21.5716">Mean</tspan></text><path d="M71.9698 166.261 116.195 166.261 116.195 179.194 71.9698 179.194Z" stroke="#000000" stroke-width="0.556287" stroke-miterlimit="8" fill="#FFFFFF" transform="matrix(1.00086 0 0 1 54.773 103.797)"/><text font-family="Consolas,Consolas_MSFontService,sans-serif" font-weight="400" font-size="11" transform="matrix(0.417574 0 0 0.417216 141.275 276)">Binary <tspan font-size="11" x="-17.5" y="14.381">Relationship</tspan></text><path d="M71.9698 146.651 116.195 146.651 116.195 159.585 71.9698 159.585Z" stroke="#000000" stroke-width="0.556287" stroke-miterlimit="8" fill="#FFFFFF" transform="matrix(1.00086 0 0 1 54.773 103.797)"/><text font-family="Consolas,Consolas_MSFontService,sans-serif" font-weight="400" font-size="11" transform="matrix(0.417574 0 0 0.417216 137.688 256)">Super Sub <tspan font-size="11" x="-8.74666" y="14.381">Relationship</tspan></text><path d="M0 4.58938 2.92051 0 5.84102 4.58938Z" stroke="#000000" stroke-width="0.556287" stroke-miterlimit="8" fill="none" fill-rule="evenodd" transform="matrix(-6.12848e-17 -1 -1.00086 6.12323e-17 185.682 267.137)"/><path d="M126.126 160.322 121.16 160.322 121.16 152.91 116.195 152.91" stroke="#000000" stroke-width="0.278144" stroke-miterlimit="8" fill="none" fill-rule="evenodd" transform="matrix(1.00086 0 0 1 54.773 103.797)"/><path d="M0 0 4.99958 0 4.99958 12.4118 9.99917 12.4118" stroke="#000000" stroke-width="0.278144" stroke-miterlimit="8" fill="none" fill-rule="evenodd" transform="matrix(-1.00086 1.22465e-16 1.2257e-16 1 181.075 264.216)"/><text font-family="Calibri,Calibri_MSFontService,sans-serif" font-weight="400" font-size="8" transform="matrix(0.417574 0 0 0.417216 148.236 268)">{<tspan font-size="8" x="2.99999" y="0">complete</tspan><tspan font-size="8" x="33" y="0">, </tspan><tspan font-size="8" x="37" y="0">disjoint</tspan><tspan font-size="8" x="61" y="0">}</tspan><tspan font-size="11" x="67.125" y="-23.9684">R</tspan><tspan font-size="11" x="73.125" y="-23.9684">10</tspan></text><path d="M0 0 37.5014 0 37.5014 20.1164" stroke="#000000" stroke-width="0.278144" stroke-miterlimit="8" fill="none" fill-rule="evenodd" transform="matrix(-1.83854e-16 -1 -1.00086 1.83697e-16 164.894 250.4)"/><path d="M71.6531 172.84 51.5262 172.84 51.5262 113.691" stroke="#000000" stroke-width="0.278144" stroke-miterlimit="8" fill="none" fill-rule="evenodd" transform="matrix(1.00086 0 0 1 54.773 103.797)"/><path d="M72.0474 231.668 35.6721 231.668 35.6721 102.844 45.6852 102.844" stroke="#000000" stroke-width="0.278144" stroke-miterlimit="8" fill="none" fill-rule="evenodd" transform="matrix(1.00086 0 0 1 54.773 103.797)"/><path d="M68.632 198.455 68.632 188.824 81.4744 188.824 81.4744 179.194" stroke="#000000" stroke-width="0.278144" stroke-miterlimit="8" fill="none" fill-rule="evenodd" transform="matrix(1.00086 0 0 1 54.773 103.797)"/><path d="M0 0 9.62997 0 9.62997 12.1118 19.2599 12.1118" stroke="#000000" stroke-width="0.278144" stroke-miterlimit="8" fill="none" fill-rule="evenodd" transform="matrix(-1.83854e-16 -1 -1.00086 1.83697e-16 174.42 302.251)"/><text font-family="Calibri,Calibri_MSFontService,sans-serif" font-weight="400" font-size="11" transform="matrix(0.417574 0 0 0.417216 166.49 230)">R<tspan font-size="11" x="5.99998" y="0">11</tspan><tspan font-size="11" x="-99.4382" y="38.3494">R</tspan>12<tspan font-size="8" x="-48.408" y="-43.1431">1</tspan><tspan font-size="8" x="-48.7901" y="-31.1589">Super class</tspan><tspan font-size="8" x="-70.985" y="33.5558">1</tspan><tspan font-size="8" x="-66.985" y="33.5558">..*</tspan><tspan font-size="8" x="-109.171" y="-21.5716">Sub class</tspan><tspan font-size="8" x="-71.7048" y="0">*</tspan></text><path d="M58.2016 127.877 102.844 127.877 102.844 137.473 58.2016 137.473Z" stroke="#000000" stroke-width="0.556287" stroke-miterlimit="8" fill="#FFFFFF" transform="matrix(1.00086 0 0 1 54.773 103.797)"/><text font-family="Consolas,Consolas_MSFontService,sans-serif" font-weight="400" font-size="11" transform="matrix(0.417574 0 0 0.417216 125.371 237)">Sub Side</text><path d="M77.8108 146.648 77.8108 142.06 80.6266 142.06 80.6266 137.473" stroke="#000000" stroke-width="0.278144" stroke-miterlimit="8" fill="none" fill-rule="evenodd" transform="matrix(1.00086 0 0 1 54.773 103.797)"/><path d="M80.3141 127.706 80.3141 120.699 80.8677 120.699 80.8677 113.691" stroke="#000000" stroke-width="0.278144" stroke-miterlimit="8" fill="none" fill-rule="evenodd" transform="matrix(1.00086 0 0 1 54.773 103.797)"/><text font-family="Calibri,Calibri_MSFontService,sans-serif" font-weight="400" font-size="8" transform="matrix(0.417574 0 0 0.417216 166.186 249)">*<tspan font-size="8" x="-69.888" y="-69.5084">1</tspan><tspan font-size="8" x="-77.9914" y="0">1</tspan><tspan font-size="11" x="-94.2691" y="-55.1273">R</tspan><tspan font-size="11" x="-88.2691" y="-55.1273">13</tspan><tspan font-size="8" x="-16.0182" y="88.6831">1</tspan><tspan font-size="8" x="-68.7666" y="91.0799">1</tspan><tspan font-size="8" x="25.7456" y="122.239">1</tspan><tspan font-size="8" x="-112.789" y="122.239">1</tspan></text><path d="M0 4.58938 2.7119 0 5.42381 4.58938Z" stroke="#000000" stroke-width="0.556287" stroke-miterlimit="8" fill="none" fill-rule="evenodd" transform="matrix(1.00086 -1.22465e-16 -1.2257e-16 -1 146.43 326.382)"/><path d="M46.5196 198.386 90.7445 198.386 90.7445 211.32 46.5196 211.32Z" stroke="#000000" stroke-width="0.556287" stroke-miterlimit="8" fill="#FFFFFF" transform="matrix(1.00086 0 0 1 54.773 103.797)"/><text font-family="Consolas,Consolas_MSFontService,sans-serif" font-weight="400" font-size="11" transform="matrix(0.417574 0 0 0.417216 109.815 308)">One Side of <tspan font-size="11" x="-2.91335" y="14.381">Relationship</tspan></text><path d="M97.4199 198.386 141.645 198.386 141.645 211.32 97.4199 211.32Z" stroke="#000000" stroke-width="0.556287" stroke-miterlimit="8" fill="#FFFFFF" transform="matrix(1.00086 0 0 1 54.773 103.797)"/><text font-family="Consolas,Consolas_MSFontService,sans-serif" font-weight="400" font-size="11" transform="matrix(0.417574 0 0 0.417216 158.232 308)">Other Side of <tspan font-size="11" x="2.92" y="14.381">Relationship</tspan></text><path d="M119.237 211.32 119.237 214.585 94.0822 214.585 94.0822 217.85" stroke="#000000" stroke-width="0.278144" stroke-miterlimit="8" fill="none" fill-rule="evenodd" transform="matrix(1.00086 0 0 1 54.773 103.797)"/><path d="M0 0 3.19294 0 3.19294 25.6534 6.38587 25.6534" stroke="#000000" stroke-width="0.278144" stroke-miterlimit="8" fill="none" fill-rule="evenodd" transform="matrix(1.83854e-16 1 1.00086 -1.83697e-16 123.464 315.117)"/><text font-family="Calibri,Calibri_MSFontService,sans-serif" font-weight="400" font-size="8" transform="matrix(0.417574 0 0 0.417216 155.481 324)">{<tspan font-size="8" x="2.99999" y="0">complete</tspan><tspan font-size="8" x="33" y="0">, </tspan><tspan font-size="8" x="37" y="0">disjoint</tspan><tspan font-size="8" x="61" y="0">}</tspan><tspan font-size="11" x="-44.621" y="0">R</tspan><tspan font-size="11" x="-38.621" y="0">14</tspan><tspan font-size="11" x="-65.476" y="-81.4926">R</tspan><tspan font-size="11" x="-59.476" y="-81.4926">15</tspan><tspan font-size="11" x="24.6356" y="-79.0957">R</tspan><tspan font-size="11" x="30.6356" y="-79.0957">16</tspan><tspan font-size="8" x="-81.5156" y="-105.461">*</tspan><tspan font-size="8" x="-131.323" y="-246.875">0</tspan>..1<tspan font-size="8" x="-77.1893" y="38.3494">*</tspan><tspan font-size="8" x="-145.651" y="-232.493">Relationship class</tspan><tspan font-size="11" x="-131.341" y="23.9684">R</tspan><tspan font-size="11" x="-125.341" y="23.9684">17</tspan><tspan font-size="11" x="-135.453" y="-151.001">R</tspan><tspan font-size="11" x="-129.453" y="-151.001">18</tspan><tspan font-size="8" x="-141.029" y="-287.621">1</tspan><tspan font-size="8" x="-101.375" y="21.5716">linked by</tspan></text><path d="M222.168 52.7778 272.233 52.7778 272.233 63.6254 222.168 63.6254Z" stroke="#000000" stroke-width="0.556287" stroke-miterlimit="8" fill="#FFFFFF" transform="matrix(1.00086 0 0 1 54.773 103.797)"/><text font-family="Consolas,Consolas_MSFontService,sans-serif" font-weight="400" font-size="11" transform="matrix(0.417574 0 0 0.417216 281.172 163)">Complex Data Type</text><path d="M0 0 14.1368 0 14.1368 2.55678 28.2736 2.55678" stroke="#000000" stroke-width="0.278144" stroke-miterlimit="8" fill="none" fill-rule="evenodd" transform="matrix(-1.00086 1.22465e-16 1.2257e-16 1 277.034 161.999)"/><path d="M0 0 13.6445 0 13.6445 80.7559 3.63134 80.7559" stroke="#000000" stroke-width="0.278144" stroke-miterlimit="8" fill="none" fill-rule="evenodd" transform="matrix(-1.83854e-16 -1 -1.00086 1.83697e-16 302.001 156.451)"/><text font-family="Calibri,Calibri_MSFontService,sans-serif" font-weight="400" font-size="8" transform="matrix(0.417574 0 0 0.417216 301.645 156)">*<tspan font-size="8" x="-186.437" y="-11.9842">1</tspan><tspan font-size="8" x="-182.437" y="-11.9842">..*</tspan><tspan font-size="8" x="-33.76" y="-7.19052">parent</tspan><tspan font-size="8" x="-212.233" y="-11.9842">child</tspan><tspan font-size="11" x="-117.626" y="-43.1431">R</tspan><tspan font-size="11" x="-111.626" y="-43.1431">23</tspan><tspan font-family="Yu Gothic,Yu Gothic_MSFontService,sans-serif" font-size="16" x="-516.13" y="-47.9368">概念情報</tspan><tspan font-family="Yu Gothic,Yu Gothic_MSFontService,sans-serif" font-size="16" x="-452.13" y="-47.9368">モデルの</tspan><tspan font-family="Yu Gothic,Yu Gothic_MSFontService,sans-serif" font-size="16" x="-389.13" y="-47.9368">概念情報</tspan><tspan font-family="Yu Gothic,Yu Gothic_MSFontService,sans-serif" font-size="16" x="-325.13" y="-47.9368">モデル</tspan><tspan font-family="Yu Gothic,Yu Gothic_MSFontService,sans-serif" font-size="16" x="-278.13" y="-47.9368">（</tspan><tspan font-family="Yu Gothic,Yu Gothic_MSFontService,sans-serif" font-size="16" x="-262.13" y="-47.9368">抜粋</tspan><tspan font-family="Yu Gothic,Yu Gothic_MSFontService,sans-serif" font-size="16" x="-230.13" y="-47.9368">）</tspan><tspan font-family="MS Gothic,MS Gothic_MSFontService,sans-serif" font-size="13" x="-230.387" y="429.034">※</tspan><tspan font-family="Yu Gothic,Yu Gothic_MSFontService,sans-serif" font-size="13" x="-214.053" y="429.034">概念</tspan><tspan font-family="Yu Gothic,Yu Gothic_MSFontService,sans-serif" font-size="13" x="-188.053" y="429.034">クラス</tspan><tspan font-family="Yu Gothic,Yu Gothic_MSFontService,sans-serif" font-size="13" x="-149.053" y="429.034">名</tspan><tspan font-family="Yu Gothic,Yu Gothic_MSFontService,sans-serif" font-size="13" x="-136.053" y="429.034">は</tspan><tspan font-family="Yu Gothic,Yu Gothic_MSFontService,sans-serif" font-size="13" x="-123.053" y="429.034">全</tspan><tspan font-family="Yu Gothic,Yu Gothic_MSFontService,sans-serif" font-size="13" x="-110.053" y="429.034">て</tspan><tspan font-family="Yu Gothic,Yu Gothic_MSFontService,sans-serif" font-size="13" x="-97.053" y="429.034">英語</tspan><tspan font-family="Yu Gothic,Yu Gothic_MSFontService,sans-serif" font-size="13" x="-71.053" y="429.034">で</tspan><tspan font-family="Yu Gothic,Yu Gothic_MSFontService,sans-serif" font-size="13" x="-58.053" y="429.034">表記</tspan><tspan font-family="MS Gothic,MS Gothic_MSFontService,sans-serif" font-size="13" x="-230.387" y="443.415">※</tspan><tspan font-family="Yu Gothic,Yu Gothic_MSFontService,sans-serif" font-size="13" x="-214.053" y="443.415">一部</tspan><tspan font-family="Yu Gothic,Yu Gothic_MSFontService,sans-serif" font-size="13" x="-188.053" y="443.415">のみを</tspan><tspan font-family="Yu Gothic,Yu Gothic_MSFontService,sans-serif" font-size="13" x="-149.053" y="443.415">図示化</tspan><tspan font-family="Yu Gothic,Yu Gothic_MSFontService,sans-serif" font-size="13" x="-110.053" y="443.415">していることに</tspan><tspan font-family="Yu Gothic,Yu Gothic_MSFontService,sans-serif" font-size="13" x="-21.053" y="443.415">留意</tspan><tspan font-family="MS Gothic,MS Gothic_MSFontService,sans-serif" font-size="13" x="-230.387" y="460.193">※</tspan><tspan font-family="Yu Gothic,Yu Gothic_MSFontService,sans-serif" font-size="13" x="-214.053" y="460.193">関係</tspan><tspan font-family="Yu Gothic,Yu Gothic_MSFontService,sans-serif" font-size="13" x="-188.053" y="460.193">の</tspan><tspan font-family="Yu Gothic,Yu Gothic_MSFontService,sans-serif" font-size="13" x="-175.053" y="460.193">意味</tspan><tspan font-family="Yu Gothic,Yu Gothic_MSFontService,sans-serif" font-size="13" x="-149.053" y="460.193">が</tspan><tspan font-family="Yu Gothic,Yu Gothic_MSFontService,sans-serif" font-size="13" x="-136.053" y="460.193">類推</tspan><tspan font-family="Yu Gothic,Yu Gothic_MSFontService,sans-serif" font-size="13" x="-110.053" y="460.193">できるものは</tspan><tspan font-family="Yu Gothic,Yu Gothic_MSFontService,sans-serif" font-size="13" x="-32.053" y="460.193">省略</tspan></text></g></g></g></g><rect x="471" y="250" width="177" height="74"/><text fill="#D4D4D4" font-family="Consolas,Consolas_MSFontService,sans-serif" font-weight="400" font-size="5" transform="translate(481.007 260)">{<tspan fill="#9CDCFE" font-size="5" x="6" y="6">"@context"</tspan><tspan font-size="5" x="36" y="6">: </tspan><tspan fill="#CE9178" font-size="5" x="42" y="6">"dtmi:dtdl:context;2"</tspan>,<tspan fill="#9CDCFE" font-size="5" x="6" y="13">"@id"</tspan>: <tspan fill="#CE9178" font-size="5" x="27" y="13">"&lt;</tspan><tspan fill="#CE9178" font-size="5" x="33" y="13">-</tspan><tspan fill="#CE9178" font-size="5" x="39" y="13">Model Id </tspan><tspan fill="#CE9178" font-size="5" x="66" y="13">-</tspan><tspan fill="#CE9178" font-size="5" x="69" y="13">&gt;"</tspan>,<tspan fill="#9CDCFE" font-size="5" x="6" y="19">"@type"</tspan>: <tspan fill="#CE9178" font-size="5" x="33" y="19">"Interface"</tspan>,<tspan fill="#9CDCFE" font-size="5" x="6" y="26">"</tspan><tspan fill="#9CDCFE" font-size="5" x="9" y="26">displayName</tspan><tspan fill="#9CDCFE" font-size="5" x="42" y="26">"</tspan>: <tspan fill="#CE9178" font-size="5" x="51" y="26">"&lt;</tspan><tspan fill="#CE9178" font-size="5" x="57" y="26">-</tspan><tspan fill="#CE9178" font-size="5" x="63" y="26">Model Name </tspan><tspan fill="#CE9178" font-size="5" x="96" y="26">-</tspan><tspan fill="#CE9178" font-size="5" x="99" y="26">&gt;"</tspan>,<tspan fill="#9CDCFE" font-size="5" x="6" y="32">"contents"</tspan><tspan font-size="5" x="36" y="32">: [</tspan><tspan fill="#F44747" font-size="5" x="12" y="38">&lt;</tspan><tspan fill="#F44747" font-size="5" x="15" y="38">-</tspan><tspan fill="#F44747" font-size="5" x="21" y="38">properties</tspan><tspan fill="#F44747" font-size="5" x="54" y="38">part</tspan><tspan fill="#F44747" font-size="5" x="69" y="38">-</tspan><tspan fill="#F44747" font-size="5" x="72" y="38">&gt;</tspan><tspan fill="#F44747" font-size="5" x="12" y="45">&lt;</tspan><tspan fill="#F44747" font-size="5" x="15" y="45">-</tspan><tspan fill="#F44747" font-size="5" x="21" y="45">relationship</tspan><tspan fill="#F44747" font-size="5" x="60" y="45">part</tspan><tspan fill="#F44747" font-size="5" x="75" y="45">-</tspan><tspan fill="#F44747" font-size="5" x="78" y="45">&gt;</tspan><tspan font-size="5" x="6" y="51">]</tspan><tspan font-size="5" x="0" y="58">}</tspan></text><rect x="471" y="349" width="177" height="42"/><text fill="#D4D4D4" font-family="Consolas,Consolas_MSFontService,sans-serif" font-weight="400" font-size="5" transform="translate(493.007 359)">{<tspan fill="#9CDCFE" font-size="5" x="6" y="6">"@type"</tspan><tspan font-size="5" x="27" y="6">: </tspan><tspan fill="#CE9178" font-size="5" x="33" y="6">"Property"</tspan>,<tspan fill="#9CDCFE" font-size="5" x="6" y="13">"name"</tspan><tspan font-size="5" x="24" y="13">: </tspan><tspan fill="#CE9178" font-size="5" x="30" y="13">"&lt;</tspan><tspan fill="#CE9178" font-size="5" x="36" y="13">-</tspan><tspan fill="#CE9178" font-size="5" x="42" y="13">Property Name </tspan><tspan fill="#CE9178" font-size="5" x="84" y="13">-</tspan><tspan fill="#CE9178" font-size="5" x="87" y="13">&gt;"</tspan>,<tspan fill="#9CDCFE" font-size="5" x="6" y="19">"schema"</tspan><tspan font-size="5" x="30" y="19">: </tspan><tspan fill="#CE9178" font-size="5" x="36" y="19">"&lt;</tspan><tspan fill="#CE9178" font-size="5" x="42" y="19">-</tspan><tspan fill="#CE9178" font-size="5" x="48" y="19">Data Type Name </tspan><tspan fill="#CE9178" font-size="5" x="93" y="19">-</tspan><tspan fill="#CE9178" font-size="5" x="96" y="19">&gt;"</tspan><tspan font-size="5" x="0" y="26">}</tspan></text><rect x="471" y="417" width="177" height="62"/><text fill="#D4D4D4" font-family="Consolas,Consolas_MSFontService,sans-serif" font-weight="400" font-size="5" transform="translate(493.007 427)">{<tspan fill="#9CDCFE" font-size="5" x="6" y="6">"@type"</tspan>: <tspan fill="#CE9178" font-size="5" x="33" y="6">"Relationship"</tspan>,<tspan fill="#9CDCFE" font-size="5" x="6" y="13">"@id"</tspan>: <tspan fill="#CE9178" font-size="5" x="27" y="13">"&lt;</tspan><tspan fill="#CE9178" font-size="5" x="33" y="13">-</tspan><tspan fill="#CE9178" font-size="5" x="39" y="13">Relationship Id </tspan><tspan fill="#CE9178" font-size="5" x="87" y="13">-</tspan><tspan fill="#CE9178" font-size="5" x="90" y="13">&gt;;1"</tspan>,<tspan fill="#9CDCFE" font-size="5" x="6" y="19">"name"</tspan>: <tspan fill="#CE9178" font-size="5" x="30" y="19">"&lt;</tspan><tspan fill="#CE9178" font-size="5" x="36" y="19">-</tspan><tspan fill="#CE9178" font-size="5" x="42" y="19">Relationship Name </tspan><tspan fill="#CE9178" font-size="5" x="96" y="19">-</tspan><tspan fill="#CE9178" font-size="5" x="99" y="19">&gt;"</tspan>,<tspan fill="#9CDCFE" font-size="5" x="6" y="26">"target"</tspan>: <tspan fill="#CE9178" font-size="5" x="36" y="26">"&lt;</tspan><tspan fill="#CE9178" font-size="5" x="42" y="26">-</tspan><tspan fill="#CE9178" font-size="5" x="48" y="26">Target Class Name"</tspan>,<tspan fill="#9CDCFE" font-size="5" x="6" y="32">"</tspan><tspan fill="#9CDCFE" font-size="5" x="9" y="32">maxMultiplicity</tspan><tspan fill="#9CDCFE" font-size="5" x="54" y="32">"</tspan>: <tspan fill="#F44747" font-size="5" x="63" y="32">&lt;</tspan><tspan fill="#F44747" font-size="5" x="66" y="32">-</tspan><tspan fill="#F44747" font-size="5" x="72" y="32">Max</tspan><tspan fill="#F44747" font-size="5" x="84" y="32">Multiplicity</tspan><tspan fill="#F44747" font-size="5" x="123" y="32">-</tspan><tspan fill="#F44747" font-size="5" x="126" y="32">&gt;</tspan>,<tspan fill="#9CDCFE" font-size="5" x="6" y="38">"</tspan><tspan fill="#9CDCFE" font-size="5" x="9" y="38">minMultiplicity</tspan><tspan fill="#9CDCFE" font-size="5" x="54" y="38">"</tspan>: <tspan fill="#F44747" font-size="5" x="63" y="38">&lt;</tspan><tspan fill="#F44747" font-size="5" x="66" y="38">-</tspan><tspan fill="#F44747" font-size="5" x="72" y="38">Min</tspan><tspan fill="#F44747" font-size="5" x="84" y="38">Multiplicity</tspan><tspan fill="#F44747" font-size="5" x="123" y="38">-</tspan><tspan fill="#F44747" font-size="5" x="126" y="38">&gt;</tspan><tspan font-size="5" x="0" y="45">}</tspan><tspan fill="#000000" font-family="Yu Gothic,Yu Gothic_MSFontService,sans-serif" font-size="16" x="-405.594" y="-308">概念情報モデルの概念情報モデル</tspan><tspan fill="#000000" font-family="Yu Gothic,Yu Gothic_MSFontService,sans-serif" font-size="16" x="-401.407" y="-3">商品半谷の概念情報モデルの状態</tspan></text><g clip-path="url(#clip15)"><g clip-path="url(#clip16)"><g clip-path="url(#clip17)"><path d="M419.923 351.278 416.857 350.946C416.437 350.901 416.082 350.625 415.921 350.235 415.919 350.23 415.917 350.226 415.915 350.221 415.754 349.831 415.809 349.385 416.074 349.056L418.008 346.653C418.372 346.2 418.337 345.545 417.925 345.134L414.306 341.514C413.895 341.103 413.24 341.068 412.786 341.432L410.382 343.367C410.054 343.631 409.61 343.687 409.22 343.526 409.216 343.525 409.212 343.523 409.208 343.521 408.816 343.361 408.539 343.005 408.494 342.585L408.162 339.517C408.099 338.938 407.611 338.5 407.029 338.5L401.91 338.5C401.329 338.5 400.841 338.938 400.778 339.517L400.446 342.585C400.4 343.005 400.123 343.361 399.732 343.521 399.728 343.523 399.723 343.525 399.719 343.526 399.33 343.687 398.885 343.631 398.558 343.367L396.153 341.432C395.7 341.068 395.045 341.103 394.634 341.514L391.014 345.134C390.603 345.545 390.568 346.2 390.932 346.653L392.866 349.056C393.13 349.385 393.186 349.831 393.024 350.221 393.022 350.226 393.021 350.23 393.019 350.235 392.857 350.625 392.503 350.901 392.083 350.946L389.016 351.278C388.438 351.341 388 351.829 388 352.41L388 357.529C388 358.111 388.438 358.599 389.016 358.662L392.083 358.994C392.503 359.039 392.857 359.315 393.018 359.705 393.02 359.71 393.022 359.714 393.024 359.719 393.186 360.109 393.13 360.555 392.866 360.883L390.932 363.287C390.567 363.74 390.603 364.395 391.014 364.806L394.634 368.426C395.045 368.837 395.7 368.872 396.153 368.508L398.557 366.573C398.885 366.309 399.33 366.253 399.719 366.414 399.723 366.415 399.728 366.417 399.732 366.419 400.123 366.579 400.4 366.935 400.446 367.355L400.778 370.423C400.84 371.002 401.329 371.44 401.91 371.44L407.029 371.44C407.611 371.44 408.099 371.002 408.161 370.423L408.494 367.355C408.539 366.935 408.816 366.579 409.207 366.419 409.212 366.417 409.216 366.415 409.22 366.414 409.609 366.253 410.054 366.309 410.382 366.573L412.786 368.508C413.239 368.872 413.894 368.837 414.306 368.426L417.925 364.806C418.336 364.395 418.372 363.74 418.007 363.287L416.074 360.883C415.809 360.555 415.753 360.109 415.915 359.719 415.917 359.714 415.919 359.71 415.921 359.705 416.082 359.315 416.437 359.039 416.856 358.994L419.923 358.662C420.501 358.599 420.939 358.111 420.939 357.529L420.939 352.41C420.94 351.829 420.501 351.341 419.923 351.278ZM404.47 360.105C401.634 360.105 399.335 357.806 399.335 354.97 399.335 352.134 401.634 349.835 404.47 349.835 407.306 349.835 409.604 352.134 409.604 354.97 409.604 357.806 407.306 360.105 404.47 360.105Z" fill="#4B4B4B"/><path d="M446.478 346.146 444.373 344.483C444.037 344.218 443.851 343.812 443.851 343.385 443.851 343.38 443.851 343.376 443.851 343.371 443.85 342.943 444.037 342.536 444.373 342.271L446.478 340.608C446.96 340.227 447.131 339.573 446.895 339.005L445.971 336.772C445.736 336.205 445.152 335.863 444.542 335.934L441.878 336.247C441.452 336.297 441.033 336.141 440.731 335.838 440.727 335.835 440.724 335.831 440.721 335.828 440.419 335.526 440.264 335.107 440.313 334.683L440.626 332.019C440.698 331.409 440.356 330.825 439.788 330.59L437.556 329.665C436.988 329.43 436.333 329.601 435.953 330.083L434.29 332.188C434.025 332.523 433.619 332.709 433.192 332.71 433.187 332.71 433.183 332.71 433.178 332.71 432.75 332.71 432.343 332.524 432.078 332.188L430.415 330.083C430.034 329.601 429.38 329.43 428.812 329.665L426.579 330.59C426.012 330.825 425.67 331.408 425.741 332.019L426.054 334.683C426.104 335.108 425.948 335.528 425.645 335.83 425.642 335.833 425.638 335.837 425.635 335.84 425.333 336.142 424.914 336.297 424.49 336.247L421.825 335.934C421.215 335.863 420.632 336.205 420.397 336.773L419.472 339.005C419.237 339.573 419.407 340.227 419.89 340.608L421.995 342.271C422.33 342.536 422.516 342.941 422.517 343.369 422.517 343.373 422.517 343.378 422.517 343.382 422.517 343.811 422.331 344.218 421.995 344.483L419.889 346.146C419.407 346.526 419.237 347.181 419.472 347.749L420.397 349.981C420.632 350.549 421.215 350.891 421.825 350.819L424.49 350.506C424.915 350.456 425.335 350.612 425.637 350.916 425.64 350.919 425.643 350.922 425.646 350.925 425.949 351.228 426.104 351.646 426.054 352.071L425.741 354.735C425.669 355.345 426.012 355.929 426.579 356.164L428.812 357.089C429.379 357.324 430.034 357.153 430.415 356.671L432.077 354.566C432.342 354.23 432.748 354.044 433.176 354.044 433.18 354.044 433.185 354.044 433.189 354.044 433.617 354.043 434.025 354.23 434.29 354.566L435.952 356.671C436.333 357.153 436.988 357.324 437.556 357.089L439.788 356.164C440.356 355.929 440.698 355.345 440.626 354.735L440.313 352.071C440.263 351.646 440.419 351.226 440.723 350.924 440.726 350.921 440.729 350.917 440.732 350.914 441.035 350.612 441.453 350.457 441.878 350.507L444.542 350.82C445.152 350.891 445.736 350.549 445.971 349.981L446.896 347.749C447.13 347.181 446.96 346.526 446.478 346.146ZM434.549 347.354C432.407 348.241 429.952 347.224 429.065 345.083 428.178 342.941 429.195 340.486 431.336 339.599 433.478 338.712 435.933 339.729 436.82 341.87 437.707 344.012 436.69 346.467 434.549 347.354Z" fill="#4B4B4B"/></g></g></g><text font-family="Calibri,Calibri_MSFontService,sans-serif" font-weight="400" font-size="13" transform="translate(482.234 241)">Class <tspan font-family="Yu Gothic,Yu Gothic_MSFontService,sans-serif" font-size="13" x="29.8333" y="0">向けテンプレート</tspan><tspan font-size="13" x="-1.22729" y="100">Property </tspan><tspan font-family="Yu Gothic,Yu Gothic_MSFontService,sans-serif" font-size="13" x="49.106" y="100">向けテンプレート</tspan><tspan font-size="13" x="0" y="167">Relationship </tspan><tspan font-family="Yu Gothic,Yu Gothic_MSFontService,sans-serif" font-size="13" x="69.8333" y="167">向けテンプレート</tspan><tspan font-family="Yu Gothic,Yu Gothic_MSFontService,sans-serif" font-size="13" x="-98.2387" y="71">変換ルール</tspan></text><path d="M335.5 157.5 517.438 157.5C527.344 157.5 535.375 165.531 535.375 175.438L535.375 188.25 540.5 188.25 530.25 198.5 520 188.25 525.125 188.25 525.125 175.438C525.125 171.192 521.683 167.75 517.438 167.75L335.5 167.75Z" stroke="#2F528F" stroke-width="1.33333" stroke-miterlimit="8" fill="#4472C4" fill-rule="evenodd"/><text font-family="Yu Gothic,Yu Gothic_MSFontService,sans-serif" font-weight="400" font-size="16" transform="translate(369.6 149)">モデルの記述を元に定義・作成<tspan font-size="16" x="11.9944" y="255">状態を</tspan><tspan font-size="16" x="11.9944" y="274">取り出し</tspan><tspan font-size="16" x="11.9944" y="293">変換</tspan></text><path d="M461.5 538.5 557.5 538.5 557.5 618.5 541.5 634.5 461.5 634.5Z" fill="#5B9BD5" fill-rule="evenodd"/><path d="M541.5 634.5 544.7 621.7 557.5 618.5Z" fill="#497DAB" fill-rule="evenodd"/><path d="M541.5 634.5 544.7 621.7 557.5 618.5 541.5 634.5 461.5 634.5 461.5 538.5 557.5 538.5 557.5 618.5" stroke="#41719C" stroke-width="1.33333" stroke-miterlimit="8" fill="none" fill-rule="evenodd"/><text fill="#FFFFFF" font-family="Calibri,Calibri_MSFontService,sans-serif" font-weight="400" font-size="16" transform="translate(492.107 584)">DTDL</text><path d="M441.5 553.5 537.5 553.5 537.5 633.5 521.5 649.5 441.5 649.5Z" fill="#5B9BD5" fill-rule="evenodd"/><path d="M521.5 649.5 524.7 636.7 537.5 633.5Z" fill="#497DAB" fill-rule="evenodd"/><path d="M521.5 649.5 524.7 636.7 537.5 633.5 521.5 649.5 441.5 649.5 441.5 553.5 537.5 553.5 537.5 633.5" stroke="#41719C" stroke-width="1.33333" stroke-miterlimit="8" fill="none" fill-rule="evenodd"/><text fill="#FFFFFF" font-family="Calibri,Calibri_MSFontService,sans-serif" font-weight="400" font-size="16" transform="translate(471.65 598)">DTDL</text><path d="M422.5 569.5 518.5 569.5 518.5 649.5 502.5 665.5 422.5 665.5Z" fill="#5B9BD5" fill-rule="evenodd"/><path d="M502.5 665.5 505.7 652.7 518.5 649.5Z" fill="#497DAB" fill-rule="evenodd"/><path d="M502.5 665.5 505.7 652.7 518.5 649.5 502.5 665.5 422.5 665.5 422.5 569.5 518.5 569.5 518.5 649.5" stroke="#41719C" stroke-width="1.33333" stroke-miterlimit="8" fill="none" fill-rule="evenodd"/><text fill="#FFFFFF" font-family="Calibri,Calibri_MSFontService,sans-serif" font-weight="400" font-size="16" transform="translate(453.23 615)">DTDL</text><path d="M325.5 477.5 488.688 477.5C501.494 477.5 511.875 487.881 511.875 500.688L511.875 517.25 518.5 517.25 505.25 530.5 492 517.25 498.625 517.25 498.625 500.688C498.625 495.199 494.176 490.75 488.688 490.75L325.5 490.75Z" stroke="#2F528F" stroke-width="1.33333" stroke-miterlimit="8" stroke-opacity="0.701961" fill="#4472C4" fill-rule="evenodd" fill-opacity="0.701961"/></g></svg>