<svg width="607" height="259" xmlns="http://www.w3.org/2000/svg" xmlns:xlink="http://www.w3.org/1999/xlink" overflow="hidden"><defs><clipPath id="clip0"><rect x="64" y="67" width="607" height="259"/></clipPath><clipPath id="clip1"><rect x="79" y="139" width="237" height="102"/></clipPath><clipPath id="clip2"><rect x="79" y="139" width="237" height="102"/></clipPath><clipPath id="clip3"><rect x="54" y="122" width="275" height="131"/></clipPath><clipPath id="clip4"><rect x="54" y="122" width="275" height="131"/></clipPath></defs><g clip-path="url(#clip0)" transform="translate(-64 -67)"><rect x="65.5001" y="68.5001" width="605" height="256" stroke="#D9D9D9" stroke-width="1.33333" stroke-miterlimit="8" fill="none"/><g clip-path="url(#clip1)"><g clip-path="url(#clip2)"><g clip-path="url(#clip3)"><g clip-path="url(#clip4)"><path d="M26.3554 42.5741 298.469 42.5741 298.469 170.522 26.3554 170.522Z" stroke="#D9D9D9" stroke-width="0.600691" stroke-miterlimit="8" fill="none" transform="matrix(1 0 0 1.00324 29.1322 80.8581)"/><path d="M62.3969 73.2094 119.162 73.2094 119.162 112.405 62.3969 112.405Z" stroke="#000000" stroke-width="0.600691" stroke-miterlimit="8" fill="#FFFFFF" transform="matrix(1 0 0 1.00324 29.1322 80.8581)"/><text font-family="Yu Gothic,Yu Gothic_MSFontService,sans-serif" font-weight="400" font-size="13" transform="matrix(0.450519 0 0 0.451979 113.728 161)">顧客<tspan font-family="Consolas,Consolas_MSFontService,sans-serif" font-size="13" x="-40.2467" y="17.6999">*</tspan><tspan font-size="13" x="-32.9133" y="17.6999">顧客</tspan><tspan font-family="Consolas,Consolas_MSFontService,sans-serif" font-size="13" x="-6.24666" y="17.6999">ID</tspan><tspan font-size="13" x="-26.9133" y="33.1874">顧客名</tspan><tspan font-size="13" x="-26.9133" y="48.6748">住所</tspan></text><path d="M203.86 73.2094 261.076 73.2094 261.076 112.405 203.86 112.405Z" stroke="#000000" stroke-width="0.600691" stroke-miterlimit="8" fill="#FFFFFF" transform="matrix(1 0 0 1.00324 29.1322 80.8581)"/><text font-family="Yu Gothic,Yu Gothic_MSFontService,sans-serif" font-weight="400" font-size="13" transform="matrix(0.450519 0 0 0.451979 255.3 161)">商品<tspan font-family="Consolas,Consolas_MSFontService,sans-serif" font-size="13" x="-40.2467" y="17.6999">*</tspan><tspan font-size="13" x="-32.9133" y="17.6999">商品</tspan><tspan font-size="13" x="-6.91331" y="17.6999">コード</tspan><tspan font-size="13" x="-26.9133" y="33.1874">商品名</tspan><tspan font-size="13" x="-26.9133" y="48.6748">在庫</tspan><tspan font-size="13" x="-26.9133" y="64.1622">単価</tspan></text><path d="M119.162 92.5817 203.767 92.5817" stroke="#000000" stroke-width="0.300346" stroke-miterlimit="8" fill="none" fill-rule="evenodd" transform="matrix(1 0 0 1.00324 29.1322 80.8581)"/><path d="M0 0 2.7567 21.634" stroke="#000000" stroke-width="0.901038" stroke-miterlimit="8" stroke-dasharray="0.901038 0.901038" fill="none" fill-rule="evenodd" transform="matrix(1 0 0 -1.00324 187.715 196.122)"/><text font-family="Yu Gothic,Yu Gothic_MSFontService,sans-serif" font-weight="400" font-size="11" transform="matrix(0.450519 0 0 0.451979 153.367 170)">発注者<tspan font-family="Calibri,Calibri_MSFontService,sans-serif" font-size="11" x="-3.70016" y="19.9124">*</tspan><tspan font-family="Calibri,Calibri_MSFontService,sans-serif" font-size="11" x="158.002" y="6.63747">*</tspan><tspan font-size="11" x="125.323" y="19.9124">購入予約</tspan></text><path d="M130.425 115.108 187.191 115.108 187.191 154.303 130.425 154.303Z" stroke="#000000" stroke-width="0.600691" stroke-miterlimit="8" fill="#FFFFFF" transform="matrix(1 0 0 1.00324 29.1322 80.8581)"/><text font-family="Yu Gothic,Yu Gothic_MSFontService,sans-serif" font-weight="400" font-size="13" transform="matrix(0.450519 0 0 0.451979 181.749 204)">注文<tspan font-family="Consolas,Consolas_MSFontService,sans-serif" font-size="13" x="-40.2467" y="15.4874">*</tspan><tspan font-size="13" x="-32.9133" y="15.4874">注文</tspan><tspan font-family="Consolas,Consolas_MSFontService,sans-serif" font-size="13" x="-6.24666" y="15.4874">ID</tspan><tspan font-size="13" x="-26.9133" y="30.9749">個数</tspan><tspan font-size="13" x="-26.9133" y="46.4623">金額</tspan><tspan font-size="16" x="-271.519" y="-159.299">ドメイン</tspan><tspan font-size="16" x="-208.519" y="-159.299">：</tspan><tspan font-size="16" x="-192.519" y="-159.299">商品販売</tspan></text></g></g></g></g><path d="M316.5 98.5001 655.5 98.5001 655.5 275.166 620.166 310.5 316.5 310.5Z" fill="#FFFFFF" fill-rule="evenodd"/><path d="M620.166 310.5 627.233 282.233 655.5 275.166Z" fill="#CDCDCD" fill-rule="evenodd"/><path d="M620.166 310.5 627.233 282.233 655.5 275.166 620.166 310.5 316.5 310.5 316.5 98.5001 655.5 98.5001 655.5 275.166" stroke="#000000" stroke-width="0.666667" stroke-miterlimit="8" fill="none" fill-rule="evenodd"/><text font-family="Consolas,Consolas_MSFontService,sans-serif" font-weight="400" font-size="11" transform="translate(325.626 112)">Interface <tspan font-size="11" x="58.3333" y="0">ICustomer</tspan><tspan font-size="11" x="0" y="13">{</tspan><tspan font-size="11" x="23.3333" y="26">string </tspan><tspan font-size="11" x="64.1667" y="26">CustomerId</tspan><tspan font-size="11" x="128.333" y="26">{ get; set; }</tspan><tspan font-size="11" x="23.3333" y="38">string</tspan><tspan font-size="11" x="64.1667" y="38">CustomerName</tspan><tspan font-size="11" x="140" y="38">{ get; set; }</tspan><tspan font-size="11" x="23.3333" y="51">string</tspan><tspan font-size="11" x="64.1667" y="51">Address { get; set; }</tspan><tspan font-size="11" x="0" y="64">}</tspan><tspan font-size="11" x="0" y="77">Class Customer : </tspan><tspan font-size="11" x="99.1667" y="77">ICustomer</tspan><tspan font-size="11" x="0" y="90">{</tspan><tspan font-size="11" x="23.3333" y="102">static public </tspan><tspan font-size="11" x="105" y="102">Icustomer</tspan><tspan font-size="11" x="163.333" y="102">Create(…) {…}</tspan><tspan font-size="11" x="23.3333" y="115">…</tspan><tspan font-size="11" x="23.3333" y="128">static public List&lt;</tspan>ICustomer&gt;<tspan font-size="11" x="198.333" y="128">Select() {…}</tspan><tspan font-size="11" x="23.3333" y="141">static public List&lt;</tspan>IOrder&gt; <tspan font-size="11" x="180.833" y="141">SelectByPreOrder</tspan>() {…}<tspan font-size="11" x="23.3333" y="154">…</tspan><tspan font-size="11" x="23.3333" y="166">public static </tspan><tspan font-size="11" x="105" y="166">CustomerId</tspan><tspan font-size="11" x="169.167" y="166">{…}</tspan><tspan font-size="11" x="23.3333" y="179">…</tspan><tspan font-family="Calibri,Calibri_MSFontService,sans-serif" font-size="16" x="-250.858" y="-24">C# </tspan><tspan font-family="Yu Gothic,Yu Gothic_MSFontService,sans-serif" font-size="16" x="-230.691" y="-24">による概念クラスの実装例</tspan></text><path d="M79.5001 152.334C79.5001 146.35 84.3504 141.5 90.3336 141.5L147.667 141.5C153.65 141.5 158.5 146.35 158.5 152.334L158.5 195.666C158.5 201.65 153.65 206.5 147.667 206.5L90.3336 206.5C84.3504 206.5 79.5001 201.65 79.5001 195.666Z" stroke="#FF0000" stroke-width="1.33333" stroke-miterlimit="8" fill="none" fill-rule="evenodd"/></g></svg>