<svg width="608" height="331" xmlns="http://www.w3.org/2000/svg" xmlns:xlink="http://www.w3.org/1999/xlink" overflow="hidden"><defs><clipPath id="clip0"><rect x="56" y="121" width="608" height="331"/></clipPath></defs><g clip-path="url(#clip0)" transform="translate(-56 -121)"><path d="M562.5 265 567.25 265 567.25 160.5 576.75 160.5 576.75 265 581.5 265 572 274.5Z" stroke="#507E32" stroke-width="1.33333" stroke-miterlimit="8" fill="#70AD47" fill-rule="evenodd"/><path d="M153.5 265 158.25 265 158.25 160.5 167.75 160.5 167.75 265 172.5 265 163 274.5Z" stroke="#2F528F" stroke-width="1.33333" stroke-miterlimit="8" fill="#4472C4" fill-rule="evenodd"/><rect x="58.5001" y="122.5" width="604" height="319" stroke="#D9D9D9" stroke-width="1.33333" stroke-miterlimit="8" fill="none"/><rect x="113.5" y="192.5" width="96" height="64" stroke="#000000" stroke-width="1.33333" stroke-miterlimit="8" fill="#FFFFFF"/><text font-family="Calibri,Calibri_MSFontService,sans-serif" font-weight="400" font-size="13" transform="translate(122.6 208)">if (x==<tspan font-weight="700" font-size="13" x="33.1667" y="0">p</tspan><tspan font-weight="700" font-size="13" x="40.3333" y="0">-</tspan><tspan font-weight="700" font-size="13" x="44.3333" y="0">&gt;y</tspan>) {<tspan font-size="13" x="12" y="16">…</tspan><tspan font-size="13" x="0" y="32">}</tspan></text><rect x="517.5" y="192.5" width="108" height="64" stroke="#000000" stroke-width="1.33333" stroke-miterlimit="8" fill="#FFFFFF"/><text font-family="Calibri,Calibri_MSFontService,sans-serif" font-weight="700" font-size="13" transform="translate(526.6 208)">p<tspan font-size="13" x="7.16669" y="0">-</tspan>&gt;y <tspan font-weight="400" font-size="13" x="27.1667" y="0">= s * s + t</tspan></text><rect x="135.5" y="283.5" width="218" height="121" stroke="#2F528F" stroke-width="1.33333" stroke-miterlimit="8" fill="#F2F2F2"/><path d="M117.334 306.187 99.166 306.187 85.7546 248.745 114.607 204.834" stroke="#2F528F" stroke-width="1.33333" stroke-miterlimit="8" fill="none" fill-rule="evenodd"/><rect x="380.5" y="283.5" width="218" height="121" stroke="#2F528F" stroke-width="1.33333" stroke-miterlimit="8" fill="#F2F2F2"/><path d="M612.125 308.763 640.114 298.464 640.306 230.725 607.418 207.955" stroke="#2F528F" stroke-width="1.33333" stroke-miterlimit="8" fill="none" fill-rule="evenodd"/><rect x="192.5" y="305.5" width="100" height="13" stroke="#000000" stroke-width="1.33333" stroke-miterlimit="8" fill="#FFFFFF"/><rect x="192.5" y="327.5" width="100" height="13" stroke="#000000" stroke-width="1.33333" stroke-miterlimit="8" fill="#FFFFFF"/><rect x="192.5" y="351.5" width="100" height="13" stroke="#000000" stroke-width="1.33333" stroke-miterlimit="8" fill="#FFFFFF"/><path d="M192.5 379.5 242.5 373.5 292.5 379.5 242.5 385.5Z" stroke="#000000" stroke-width="1.33333" stroke-miterlimit="8" fill="#FFFFFF" fill-rule="evenodd"/><rect x="439.5" y="305.5" width="100" height="13" stroke="#000000" stroke-width="1.33333" stroke-miterlimit="8" fill="#FFFFFF"/><rect x="439.5" y="327.5" width="100" height="13" stroke="#000000" stroke-width="1.33333" stroke-miterlimit="8" fill="#FFFFFF"/><rect x="439.5" y="351.5" width="100" height="13" stroke="#000000" stroke-width="1.33333" stroke-miterlimit="8" fill="#FFFFFF"/><rect x="439.5" y="374.5" width="100" height="13" stroke="#000000" stroke-width="1.33333" stroke-miterlimit="8" fill="#FFFFFF"/><path d="M117.5 198.667C117.5 196.366 119.366 194.5 121.667 194.5L200.333 194.5C202.635 194.5 204.5 196.366 204.5 198.667L204.5 215.333C204.5 217.635 202.635 219.5 200.333 219.5L121.667 219.5C119.366 219.5 117.5 217.635 117.5 215.333Z" stroke="#FF0000" stroke-width="1.33333" stroke-miterlimit="8" fill="none" fill-rule="evenodd"/><path d="M522.5 198.667C522.5 196.366 524.366 194.5 526.667 194.5L605.333 194.5C607.635 194.5 609.5 196.366 609.5 198.667L609.5 215.333C609.5 217.635 607.635 219.5 605.333 219.5L526.667 219.5C524.366 219.5 522.5 217.635 522.5 215.333Z" stroke="#FF0000" stroke-width="1.33333" stroke-miterlimit="8" fill="none" fill-rule="evenodd"/><text font-family="Calibri,Calibri_MSFontService,sans-serif" font-weight="400" font-size="13" transform="translate(285.321 247)">CPU<tspan font-family="Yu Gothic,Yu Gothic_MSFontService,sans-serif" font-size="13" x="22.5" y="0">コアの実行スレッド</tspan></text><path d="M359.766 259.525 357.204 260.9 357.571 260.676 355.196 262.301 356.449 260.915 356.074 261.603 356.522 260.253 356.394 261.149 356.147 262.759 354.797 265.008 352.341 266.318 350.668 266.632 348.537 266.955 349.142 266.814 347.902 267.206 346.974 267.471 347.361 267.339 346.423 267.714 347.337 267.2 346.021 268.188 344.625 268.188 345.191 268.147 344.571 268.236 343.137 268.307 343.159 268.306 342.034 268.369 342.33 268.341 340.82 268.538 338.748 268.733 338.783 268.729 336.346 268.979 338.403 268.15 336.723 269.465 334.415 270.757 329.119 272.045 324.054 272.901 314.379 273.976 315.202 273.795 313.89 274.232 314.111 274.151 312.983 274.602 311.334 275.074 309.58 275.439 308.218 275.643 308.353 275.621 306.631 275.94 300.418 276.975 292.767 277.554 285.233 277.993 285.83 277.913 283.768 278.35 284.053 278.279 282.115 278.841 283.256 278.303 280.693 280.053 281.137 279.702 278.949 281.702 279.12 281.536 277.017 283.703 274.732 285.922 272.775 287.684 271.262 289 270.177 289.881 269.356 290.519 250.462 301.316 263.814 284.626 264.064 284.314 269.406 290.141 269.219 290.266 270.01 289.572 269.485 290.172 268.641 291.016 267.453 292.203 265.828 293.828 266.852 292.079 266.36 293.834 265.529 295.958 263.021 299.327 263.077 299.25 262.014 300.75 262.356 300.168 261.606 301.731 261.795 301.265 259.795 307.265 259.699 304.477 260.574 306.602 260.305 306.067 261.43 307.942 260.418 306.813 262.23 308.188 260.911 307.529 263.099 308.154 261.911 308.001 306.849 307.001 306.519 307.022 311.297 306.519 315.464 306.14 322.949 305.511 326.808 305.254 331.14 305.126 336.074 305 341.986 305 357.567 305.377 373.351 306.016 378.659 307.078 378.317 307.024 382.817 307.524 387.505 308.045 395.191 309.647 395.128 309.634 402.628 311.072 402.441 311.04 409.441 312.04 408.624 312.008 416.561 311.508 416.48 311.514 423.23 310.951 423.181 310.956 429.081 310.391 434.483 309.941 444.728 309.747 450.374 310.146 456.594 311.072 461.857 312.388 464.703 315.234 466.582 317.112 468.366 319.253 470.147 321.788 471.218 323.502 471.956 324.896 472.621 326.605 472.877 328.055 472.732 327.485 473.045 328.423 472.988 328.264 473.488 329.576 473.328 329.211 475.586 333.728 476.337 337.935 476.75 341.786 476.75 347.688 476.75 352.475 476.552 356.437 476.195 359.79 475.416 362.735 473.835 365.444 471.263 367.281 468.365 368.109 465.425 368.191 462.285 367.986 458.619 367.6 454.345 367.098 454.424 367.106 449.299 366.606 449.438 366.617 443.438 366.242 443.543 366.247 436.606 365.997 436.75 366 428.798 366 394.339 365.75 377.038 365.562 359.21 364.98 357.137 364.342 355.842 363.283 355.892 363.324 354.392 362.136 355.76 362.841 353.822 362.279 354.083 362.345 351.485 361.777 343.953 357.473 344.282 357.641 342.083 356.642 339.587 355.273 337.544 353.393 335.36 351.019 334.66 348.62 334.755 348.904 334.192 347.404 334.873 348.57 333.248 346.633 333.966 347.302 332.154 345.99 332.797 346.369 330.672 345.369 331.199 345.573 328.761 344.823 328.903 344.864 324.466 343.677 324.799 343.751 320.236 342.938 320.583 342.984 308.645 341.922 308.688 341.925 296.2 340.95 292.735 339.795 293.157 339.91 289.969 339.223 290.233 339.27 287.671 338.895 288.196 338.937 283.571 338.875 283.932 338.863 281.494 339.051 281.611 339.04 278.633 339.357 274.932 339.676 270.27 339.991 271.193 339.818 268.968 340.513 266.45 340.985 261.329 341.188 256.438 341.188 256.543 341.186 251.793 341.311 252.268 341.27 247.58 341.958 249.12 341.392 248.12 342.017 249.2 341.025 248.45 342.025 248.79 341.488 247.54 343.863 247.994 341.782 248.432 349.782 248.428 349.719 248.99 357.719 248.745 356.596 249.36 358.236 250.029 360.527 249.617 368.766 248.986 376.332 248.987 375.681 249.237 378.806 249.196 378.467 249.446 379.967 249.259 379.258 249.759 380.633 248.219 378.672 249.531 379.547 247.608 378.886 249.295 379.011 248.77 379.007 255.27 378.632 255.117 378.643 261.879 377.993 290.203 379.005 299.763 379.634 299.659 379.628 309.096 380.003 308.895 380 344.395 379.625 344.367 379.626 379.804 379.001 379.649 379.006 391.786 378.318 404.257 377.692 416.763 377.189 428.811 377 441.602 377.189 453.74 377.629 465.664 378.256 478.789 379.056 482.51 380.873 485.799 383.273 487.068 385.495 487.385 387.29 487.705 389.401 487.475 388.542 488.037 389.98 487.89 389.649 488.39 390.649 488.324 390.522 489.074 391.897 488.783 391.44 489.658 392.627 489.608 392.561 490.393 393.581 491.273 395.102 493.797 400.151 493.62 403.7 493.623 403.618 493.561 405.743 493.562 405.548 493.613 408.226 485.615 408.379 485.561 405.605 485.628 403.341 485.755 400.8 486.172 402.789 484.172 398.789 484.288 399.004 483.601 397.817 483.892 398.251 483.242 397.406 482.181 395.966 481.267 394.29 480.654 393.064 479.862 391.041 479.483 388.537 479.498 388.633 479.311 387.57 479.777 388.86 479.277 387.985 480.392 389.231 478.08 387.544 478.682 387.907 475.995 386.594 477.507 386.993 465.194 386.243 465.227 386.244 453.352 385.619 453.417 385.622 441.355 385.185 441.441 385.187 428.753 385 428.875 385 416.938 385.187 417.036 385.184 404.598 385.684 404.638 385.682 392.201 386.307 392.226 386.306 380.024 386.998 344.494 387.625 308.879 388.001 299.289 387.62 289.737 386.991 289.857 386.997 261.857 385.997 262.383 385.982 255.807 386.614 248.967 387.009 245.969 386.786 242.689 384.6 241.615 381.646 241.276 379.614 240.987 375.993 241.639 368.168 241.63 368.3 242.005 360.8 242.16 362.12 241.723 360.62 241.817 360.904 241.051 358.86 240.445 350.25 239.946 341.115 241.859 337.48 243.248 335.628 245.591 334.164 251.343 333.32 256.385 333.188 261.25 333.188 261.092 333.191 265.842 333.003 265.263 333.069 267.263 332.694 266.807 332.807 269.258 332.041 274.355 331.697 274.281 331.702 277.906 331.39 277.827 331.397 280.822 331.079 283.498 330.873 288.568 330.941 291.525 331.374 295.057 332.136 298.265 333.205 297.312 333.012 309.333 333.951 321.466 335.031 326.369 335.904 331.043 337.155 333.822 338.01 336.542 339.29 339.059 341.113 341.442 343.954 342.298 346.236 342.777 347.88 341.881 346.292 343.319 347.854 343.083 347.619 344.646 349.056 343.861 348.493 345.798 349.555 345.53 349.421 347.761 350.435 354.922 354.527 353.792 354.092 355.924 354.559 358.743 355.377 360.883 357.071 361.595 357.654 360.239 356.927 361.051 357.177 360.005 357.002 377.255 357.565 377.168 357.563 394.418 357.75 394.404 357.75 428.842 358 428.812 358 436.822 358 443.884 358.254 450.007 358.637 455.24 359.148 459.53 359.652 459.481 359.647 463.044 360.022 462.885 360.008 465.76 360.196 465.389 360.189 467.639 360.127 466.651 360.279 468.401 359.779 467.175 360.37 468.488 359.433 467.357 360.672 468.232 359.172 467.821 360.164 468.383 358.039 468.272 358.639 468.585 355.702 468.567 355.925 468.755 352.175 468.75 352.375 468.75 347.688 468.75 342 468.773 342.426 468.398 338.926 468.437 339.203 467.812 335.703 468.172 336.789 466.083 332.61 465.482 331.033 465.05 329.735 464.811 328.383 465.022 329.137 464.584 328.012 464.777 328.434 464.215 327.372 464.358 327.62 463.421 326.12 463.54 326.3 461.915 323.987 462.115 324.248 460.552 322.373 460.797 322.641 459.047 320.891 456.984 318.828 458.842 319.881 454.842 318.881 455.223 318.956 449.348 318.081 449.656 318.115 444.343 317.74 444.7 317.749 434.763 317.937 435.02 317.924 429.77 318.361 429.819 318.357 423.919 318.922 417.104 319.49 408.716 320.018 401.215 318.946 393.591 317.485 386.059 315.916 386.433 315.976 381.933 315.476 377.261 314.956 372.091 313.922 372.713 313.997 357.276 313.372 357.341 313.374 341.841 312.999 341.938 313 336.125 313 336.228 312.999 331.353 313.124 331.368 313.123 327.118 313.248 327.266 313.241 323.516 313.491 323.585 313.486 316.147 314.111 316.175 314.109 312.05 314.484 312.106 314.478 307.192 314.995 261.483 316.012 257.992 315.015 254.967 312.72 253.291 309.926 251.735 306.147 254.285 298.496 255.29 296.402 256.576 294.587 258.792 291.611 258.275 292.542 258.838 291.105 258.711 291.484 259.431 288.912 261.797 286.547 262.984 285.359 263.734 284.609 263.552 284.803 264.339 283.904 286.406 269.193 270.061 289.624 269.811 289.936 264.703 283.965 265.14 283.715 264.669 284.03 265.232 283.593 265.165 283.646 266.165 282.833 266.063 282.919 267.5 281.669 267.449 281.714 269.324 280.027 269.213 280.131 271.4 278.006 271.317 278.089 273.463 275.878 275.948 273.607 279.271 271.337 281.964 270.555 284.465 270.024 292.267 269.569 292.198 269.574 299.636 269.011 299.28 269.054 305.28 268.054 305.209 268.067 306.964 267.742 308.282 267.544 308.059 267.584 309.559 267.272 309.276 267.341 310.589 266.966 310.202 267.099 311.249 266.68 313.075 266.071 323.058 264.962 322.834 264.993 327.647 264.181 327.367 264.238 331.992 263.113 330.983 263.51 332.546 262.635 332.035 262.975 334.381 261.139 337.984 260.769 340.002 260.58 339.858 260.596 341.442 260.389 342.727 260.318 343.988 260.255 343.622 260.29 344.341 260.188 344.688 260.188 342.288 260.987 342.961 260.483 344.579 259.835 345.651 259.529 345.545 259.561 347.03 259.092 349.401 258.733 349.263 258.756 350.263 258.569 349.118 258.971 350.055 258.471 348.508 259.942 348.883 259.317 348.359 260.767 348.484 259.954 348.478 259.997 348.705 258.406 349.886 256.241 353.231 253.952 355.984 252.475ZM511.753 391.044 487.746 416.018 477.823 382.827C477.191 380.711 478.393 378.482 480.51 377.849 482.627 377.217 484.855 378.419 485.488 380.536L493.446 407.157 486.73 405.53 505.985 385.5C507.516 383.907 510.049 383.857 511.641 385.388 513.234 386.919 513.284 389.451 511.753 391.044Z" fill="#ED7D31" fill-opacity="0.701961"/><text font-family="Yu Gothic,Yu Gothic_MSFontService,sans-serif" font-weight="400" font-size="13" transform="translate(189.088 171)">プログラムの一行はプリミティブではないことに注意<tspan font-size="13" x="-62.4878" y="-22">スレッド</tspan><tspan font-family="Calibri,Calibri_MSFontService,sans-serif" font-size="13" x="-9.15443" y="-22">A</tspan><tspan font-size="13" x="345.689" y="-22">スレッド</tspan><tspan font-family="Calibri,Calibri_MSFontService,sans-serif" font-size="13" x="399.022" y="-22">B</tspan></text></g></svg>