<svg width="608" height="619" xmlns="http://www.w3.org/2000/svg" xmlns:xlink="http://www.w3.org/1999/xlink" overflow="hidden"><defs><clipPath id="clip0"><rect x="53" y="353" width="608" height="619"/></clipPath></defs><g clip-path="url(#clip0)" transform="translate(-53 -353)"><rect x="55.5001" y="354.5" width="604" height="617" stroke="#D9D9D9" stroke-width="1.33333" stroke-miterlimit="8" fill="none"/><rect x="379" y="366" width="240" height="123" fill="#F2F2F2"/><text font-family="Calibri,Calibri_MSFontService,sans-serif" font-weight="400" font-size="16" transform="translate(465.243 386)">Big Endian</text><rect x="379" y="503" width="240" height="123" fill="#F2F2F2"/><text font-family="Calibri,Calibri_MSFontService,sans-serif" font-weight="400" font-size="16" transform="translate(458.94 523)">Little Endian</text><rect x="88.5001" y="443.5" width="59" height="27" stroke="#000000" stroke-width="0.333333" stroke-miterlimit="8" fill="#FFFFFF"/><text font-family="Calibri,Calibri_MSFontService,sans-serif" font-weight="400" font-size="13" transform="translate(110.501 460)">01</text><rect x="147.5" y="443.5" width="58" height="27" stroke="#000000" stroke-width="0.333333" stroke-miterlimit="8" fill="#FFFFFF"/><text font-family="Calibri,Calibri_MSFontService,sans-serif" font-weight="400" font-size="13" transform="translate(169.17 460)">02</text><rect x="205.5" y="443.5" width="59" height="27" stroke="#000000" stroke-width="0.333333" stroke-miterlimit="8" fill="#FFFFFF"/><text font-family="Calibri,Calibri_MSFontService,sans-serif" font-weight="400" font-size="13" transform="translate(227.84 460)">03</text><rect x="264.5" y="443.5" width="59" height="27" stroke="#000000" stroke-width="0.333333" stroke-miterlimit="8" fill="#FFFFFF"/><text font-family="Calibri,Calibri_MSFontService,sans-serif" font-weight="400" font-size="13" transform="translate(286.509 460)">04</text><rect x="88.5001" y="470.5" width="59" height="26" stroke="#000000" stroke-width="0.333333" stroke-miterlimit="8" fill="#FFFFFF"/><text font-family="Calibri,Calibri_MSFontService,sans-serif" font-weight="400" font-size="13" transform="translate(110.501 487)">05</text><rect x="147.5" y="470.5" width="58" height="26" stroke="#000000" stroke-width="0.333333" stroke-miterlimit="8" fill="#FFFFFF"/><text font-family="Calibri,Calibri_MSFontService,sans-serif" font-weight="400" font-size="13" transform="translate(169.17 487)">06</text><rect x="205.5" y="470.5" width="59" height="26" stroke="#000000" stroke-width="0.333333" stroke-miterlimit="8" fill="#FFFFFF"/><text font-family="Calibri,Calibri_MSFontService,sans-serif" font-weight="400" font-size="13" transform="translate(227.84 487)">07</text><rect x="264.5" y="470.5" width="59" height="26" stroke="#000000" stroke-width="0.333333" stroke-miterlimit="8" fill="#FFFFFF"/><text font-family="Calibri,Calibri_MSFontService,sans-serif" font-weight="400" font-size="13" transform="translate(286.509 487)">08</text><rect x="88.5001" y="496.5" width="59" height="27" stroke="#000000" stroke-width="0.333333" stroke-miterlimit="8" fill="#FFFFFF"/><text font-family="Calibri,Calibri_MSFontService,sans-serif" font-weight="400" font-size="13" transform="translate(110.501 514)">09</text><rect x="147.5" y="496.5" width="58" height="27" stroke="#000000" stroke-width="0.333333" stroke-miterlimit="8" fill="#FFFFFF"/><text font-family="Calibri,Calibri_MSFontService,sans-serif" font-weight="400" font-size="13" transform="translate(169.42 514)">0a</text><rect x="205.5" y="496.5" width="59" height="27" stroke="#000000" stroke-width="0.333333" stroke-miterlimit="8" fill="#FFFFFF"/><text font-family="Calibri,Calibri_MSFontService,sans-serif" font-weight="400" font-size="13" transform="translate(227.756 514)">0b</text><rect x="264.5" y="496.5" width="59" height="27" stroke="#000000" stroke-width="0.333333" stroke-miterlimit="8" fill="#FFFFFF"/><text font-family="Calibri,Calibri_MSFontService,sans-serif" font-weight="400" font-size="13" transform="translate(287.092 514)">0c</text><rect x="416.5" y="398.5" width="161" height="27" stroke="#000000" stroke-width="0.333333" stroke-miterlimit="8" fill="#FFFFFF"/><text font-family="Calibri,Calibri_MSFontService,sans-serif" font-weight="400" font-size="13" transform="translate(469.167 415)">01020304</text><rect x="416.5" y="425.5" width="161" height="26" stroke="#000000" stroke-width="0.333333" stroke-miterlimit="8" fill="#FFFFFF"/><text font-family="Calibri,Calibri_MSFontService,sans-serif" font-weight="400" font-size="13" transform="translate(469.167 442)">05060708</text><rect x="416.5" y="448.5" width="161" height="27" stroke="#000000" stroke-width="0.333333" stroke-miterlimit="8" fill="#FFFFFF"/><text font-family="Calibri,Calibri_MSFontService,sans-serif" font-weight="400" font-size="13" transform="translate(469.917 465)">090a0b0c</text><rect x="416.5" y="535.5" width="161" height="27" stroke="#000000" stroke-width="0.333333" stroke-miterlimit="8" fill="#FFFFFF"/><text font-family="Calibri,Calibri_MSFontService,sans-serif" font-weight="400" font-size="13" transform="translate(469.167 552)">04030201</text><rect x="416.5" y="562.5" width="161" height="26" stroke="#000000" stroke-width="0.333333" stroke-miterlimit="8" fill="#FFFFFF"/><text font-family="Calibri,Calibri_MSFontService,sans-serif" font-weight="400" font-size="13" transform="translate(469.167 579)">08070605</text><rect x="416.5" y="585.5" width="161" height="27" stroke="#000000" stroke-width="0.333333" stroke-miterlimit="8" fill="#FFFFFF"/><text font-family="Calibri,Calibri_MSFontService,sans-serif" font-weight="400" font-size="13" transform="translate(469.917 602)">0c0b0a09<tspan font-family="Yu Gothic,Yu Gothic_MSFontService,sans-serif" font-size="13" x="-315.464" y="-174">メモリ上</tspan><tspan font-family="Yu Gothic,Yu Gothic_MSFontService,sans-serif" font-size="13" x="-262.131" y="-174">の並び</tspan></text><path d="M329.548 460.922 377.793 435.081 373.951 427.908 395.981 434.57 389.319 456.599 385.477 449.426 337.232 475.268Z" stroke="#2F528F" stroke-width="1.33333" stroke-miterlimit="8" stroke-opacity="0.701961" fill="#4472C4" fill-rule="evenodd" fill-opacity="0.701961"/><path d="M0 8.13695 54.73 8.13695 54.73 0 71.0038 16.2739 54.73 32.5477 54.73 24.4108 0 24.4108Z" stroke="#2F528F" stroke-width="1.33333" stroke-miterlimit="8" stroke-opacity="0.701961" fill="#4472C4" fill-rule="evenodd" fill-opacity="0.701961" transform="matrix(0.881512 0.472161 0.472161 -0.881512 325.706 511.132)"/><text font-family="Yu Gothic,Yu Gothic_MSFontService,sans-serif" font-weight="400" font-size="13" transform="translate(73.4434 591)">異なる<tspan font-family="Calibri,Calibri_MSFontService,sans-serif" font-size="13" x="40" y="0">Endian</tspan><tspan font-size="13" x="76.8333" y="0">の機器間通信では、</tspan><tspan font-family="Calibri,Calibri_MSFontService,sans-serif" font-size="13" x="196.833" y="0">4</tspan><tspan font-size="13" x="203.667" y="0">バイトづつの</tspan><tspan font-size="13" x="0" y="16">並び順の変換が必要</tspan></text><rect x="131.5" y="873.5" width="59" height="26" stroke="#000000" stroke-width="0.333333" stroke-miterlimit="8" fill="#FFFFFF"/><text font-family="Calibri,Calibri_MSFontService,sans-serif" font-weight="400" font-size="13" transform="translate(153.494 890)">3<tspan font-size="13" x="6.83333" y="0">1</tspan></text><rect x="190.5" y="873.5" width="58" height="26" stroke="#000000" stroke-width="0.333333" stroke-miterlimit="8" fill="#FFFFFF"/><text font-family="Calibri,Calibri_MSFontService,sans-serif" font-weight="400" font-size="13" transform="translate(212.163 890)">02</text><rect x="248.5" y="873.5" width="59" height="26" stroke="#000000" stroke-width="0.333333" stroke-miterlimit="8" fill="#FFFFFF"/><text font-family="Calibri,Calibri_MSFontService,sans-serif" font-weight="400" font-size="13" transform="translate(270.832 890)">03</text><rect x="307.5" y="873.5" width="59" height="26" stroke="#000000" stroke-width="0.333333" stroke-miterlimit="8" fill="#FFFFFF"/><text font-family="Calibri,Calibri_MSFontService,sans-serif" font-weight="400" font-size="13" transform="translate(329.501 890)">04</text><path d="M64.5001 721.5 161.5 721.5 161.5 721.5 307 721.5 646.5 721.5 646.5 804.917 646.5 804.917 646.5 840.667 646.5 864.5 307 864.5 166.321 876.383 161.5 864.5 64.5001 864.5 64.5001 840.667 64.5001 804.917 64.5001 804.917Z" stroke="#000000" stroke-width="0.333333" stroke-miterlimit="8" fill="#F2F2F2" fill-rule="evenodd" fill-opacity="0.701961"/><rect x="379.5" y="782.5" width="31" height="27" stroke="#000000" stroke-width="0.333333" stroke-miterlimit="8" fill="#FFFFFF"/><text font-family="Calibri,Calibri_MSFontService,sans-serif" font-weight="400" font-size="13" transform="translate(390.933 799)">1</text><rect x="410.5" y="782.5" width="31" height="27" stroke="#000000" stroke-width="0.333333" stroke-miterlimit="8" fill="#FFFFFF"/><text font-family="Calibri,Calibri_MSFontService,sans-serif" font-weight="400" font-size="13" transform="translate(421.925 799)">0</text><rect x="441.5" y="782.5" width="31" height="27" stroke="#000000" stroke-width="0.333333" stroke-miterlimit="8" fill="#FFFFFF"/><text font-family="Calibri,Calibri_MSFontService,sans-serif" font-weight="400" font-size="13" transform="translate(452.918 799)">0</text><rect x="472.5" y="782.5" width="31" height="27" stroke="#000000" stroke-width="0.333333" stroke-miterlimit="8" fill="#FFFFFF"/><text font-family="Calibri,Calibri_MSFontService,sans-serif" font-weight="400" font-size="13" transform="translate(483.91 799)">0</text><rect x="503.5" y="782.5" width="31" height="27" stroke="#000000" stroke-width="0.333333" stroke-miterlimit="8" fill="#FFFFFF"/><text font-family="Calibri,Calibri_MSFontService,sans-serif" font-weight="400" font-size="13" transform="translate(514.902 799)">1</text><rect x="534.5" y="782.5" width="31" height="27" stroke="#000000" stroke-width="0.333333" stroke-miterlimit="8" fill="#FFFFFF"/><text font-family="Calibri,Calibri_MSFontService,sans-serif" font-weight="400" font-size="13" transform="translate(545.895 799)">1</text><rect x="565.5" y="782.5" width="31" height="27" stroke="#000000" stroke-width="0.333333" stroke-miterlimit="8" fill="#FFFFFF"/><text font-family="Calibri,Calibri_MSFontService,sans-serif" font-weight="400" font-size="13" transform="translate(576.887 799)">0</text><rect x="596.5" y="782.5" width="31" height="27" stroke="#000000" stroke-width="0.333333" stroke-miterlimit="8" fill="#FFFFFF"/><text font-family="Calibri,Calibri_MSFontService,sans-serif" font-weight="400" font-size="13" transform="translate(607.88 799)">0<tspan font-family="Yu Gothic,Yu Gothic_MSFontService,sans-serif" font-size="13" x="-419.738" y="-93">ビット</tspan><tspan font-family="Yu Gothic,Yu Gothic_MSFontService,sans-serif" font-size="13" x="-379.738" y="-93">の並びにも似たような種類があるので注意</tspan></text><rect x="75.5001" y="783.5" width="31" height="26" stroke="#000000" stroke-width="0.333333" stroke-miterlimit="8" fill="#FFFFFF"/><text font-family="Calibri,Calibri_MSFontService,sans-serif" font-weight="400" font-size="13" transform="translate(87.3524 800)">0</text><rect x="106.5" y="783.5" width="31" height="26" stroke="#000000" stroke-width="0.333333" stroke-miterlimit="8" fill="#FFFFFF"/><text font-family="Calibri,Calibri_MSFontService,sans-serif" font-weight="400" font-size="13" transform="translate(118.345 800)">0</text><rect x="137.5" y="783.5" width="31" height="26" stroke="#000000" stroke-width="0.333333" stroke-miterlimit="8" fill="#FFFFFF"/><text font-family="Calibri,Calibri_MSFontService,sans-serif" font-weight="400" font-size="13" transform="translate(149.337 800)">1</text><rect x="168.5" y="783.5" width="31" height="26" stroke="#000000" stroke-width="0.333333" stroke-miterlimit="8" fill="#FFFFFF"/><text font-family="Calibri,Calibri_MSFontService,sans-serif" font-weight="400" font-size="13" transform="translate(180.33 800)">1</text><rect x="199.5" y="783.5" width="31" height="26" stroke="#000000" stroke-width="0.333333" stroke-miterlimit="8" fill="#FFFFFF"/><text font-family="Calibri,Calibri_MSFontService,sans-serif" font-weight="400" font-size="13" transform="translate(211.322 800)">0</text><rect x="230.5" y="783.5" width="31" height="26" stroke="#000000" stroke-width="0.333333" stroke-miterlimit="8" fill="#FFFFFF"/><text font-family="Calibri,Calibri_MSFontService,sans-serif" font-weight="400" font-size="13" transform="translate(242.315 800)">0</text><rect x="261.5" y="783.5" width="31" height="26" stroke="#000000" stroke-width="0.333333" stroke-miterlimit="8" fill="#FFFFFF"/><text font-family="Calibri,Calibri_MSFontService,sans-serif" font-weight="400" font-size="13" transform="translate(273.307 800)">0</text><rect x="292.5" y="783.5" width="31" height="26" stroke="#000000" stroke-width="0.333333" stroke-miterlimit="8" fill="#FFFFFF"/><text font-family="Calibri,Calibri_MSFontService,sans-serif" font-weight="400" font-size="13" transform="translate(304.299 800)">1<tspan font-size="11" x="-216.275" y="24">7</tspan><tspan font-size="11" x="-185.283" y="24">6</tspan><tspan font-size="11" x="-154.008" y="24">5</tspan><tspan font-size="11" x="-123.663" y="24">4</tspan><tspan font-size="11" x="-92.4881" y="24">3</tspan><tspan font-size="11" x="-61.4835" y="24">2</tspan><tspan font-size="11" x="-29.8406" y="24">1</tspan><tspan font-size="11" x="1.15186" y="24">0</tspan><tspan font-size="11" x="87.434" y="24">0</tspan><tspan font-size="11" x="118.426" y="24">1</tspan><tspan font-size="11" x="149.701" y="24">2</tspan><tspan font-size="11" x="180.046" y="24">3</tspan><tspan font-size="11" x="211.221" y="24">4</tspan><tspan font-size="11" x="242.226" y="24">5</tspan><tspan font-size="11" x="273.868" y="24">6</tspan><tspan font-size="11" x="304.861" y="24">7</tspan><tspan font-size="13" x="-127.051" y="-28">MSB First</tspan><tspan font-size="13" x="175.169" y="-28">LSB First</tspan><tspan font-family="Yu Gothic,Yu Gothic_MSFontService,sans-serif" font-size="13" x="-149.796" y="142">シリアル</tspan><tspan font-family="Yu Gothic,Yu Gothic_MSFontService,sans-serif" font-size="13" x="-96.4631" y="142">通信で</tspan>1<tspan font-family="Yu Gothic,Yu Gothic_MSFontService,sans-serif" font-size="13" x="-49.6298" y="142">ビットづつデータを送受信する場合には注意が必要</tspan></text></g></svg>