<svg width="608" height="500" xmlns="http://www.w3.org/2000/svg" xmlns:xlink="http://www.w3.org/1999/xlink" overflow="hidden"><defs><clipPath id="clip0"><rect x="56" y="46" width="608" height="500"/></clipPath></defs><g clip-path="url(#clip0)" transform="translate(-56 -46)"><rect x="58.5001" y="47.5001" width="604" height="498" stroke="#D9D9D9" stroke-width="1.33333" stroke-miterlimit="8" fill="none"/><rect x="80" y="65" width="214" height="221" fill="#F2F2F2"/><text font-family="Calibri,Calibri_MSFontService,sans-serif" font-weight="400" font-size="16" transform="translate(134.75 84)">C<tspan font-family="Yu Gothic,Yu Gothic_MSFontService,sans-serif" font-size="16" x="8.5" y="0">言語のコード</tspan></text><rect x="320" y="65" width="320" height="221" fill="#F2F2F2"/><text font-family="Calibri,Calibri_MSFontService,sans-serif" font-weight="400" font-size="16" transform="translate(377.518 84)">char<tspan font-family="Yu Gothic,Yu Gothic_MSFontService,sans-serif" font-size="16" x="28.3333" y="0">型ポインタのメモリ参照</tspan></text><rect x="482.5" y="110.5" width="28" height="13" stroke="#000000" stroke-width="0.333333" stroke-miterlimit="8" fill="#FFFFFF"/><rect x="510.5" y="110.5" width="28" height="13" stroke="#000000" stroke-width="0.333333" stroke-miterlimit="8" fill="#FFFFFF"/><rect x="538.5" y="110.5" width="29" height="13" stroke="#000000" stroke-width="0.333333" stroke-miterlimit="8" fill="#FFFFFF"/><rect x="567.5" y="110.5" width="28" height="13" stroke="#000000" stroke-width="0.333333" stroke-miterlimit="8" fill="#FFFFFF"/><rect x="482.5" y="123.5" width="28" height="13" stroke="#000000" stroke-width="0.333333" stroke-miterlimit="8" fill="#FFFFFF"/><rect x="510.5" y="123.5" width="28" height="13" stroke="#000000" stroke-width="0.333333" stroke-miterlimit="8" fill="#FFFFFF"/><rect x="538.5" y="123.5" width="29" height="13" stroke="#000000" stroke-width="0.333333" stroke-miterlimit="8" fill="#FFFFFF"/><rect x="567.5" y="123.5" width="28" height="13" stroke="#000000" stroke-width="0.333333" stroke-miterlimit="8" fill="#FFFFFF"/><rect x="482.5" y="136.5" width="28" height="12" stroke="#000000" stroke-width="0.333333" stroke-miterlimit="8" fill="#FFFFFF"/><rect x="510.5" y="136.5" width="28" height="12" stroke="#000000" stroke-width="0.333333" stroke-miterlimit="8" fill="#FFFFFF"/><rect x="538.5" y="136.5" width="29" height="12" stroke="#000000" stroke-width="0.333333" stroke-miterlimit="8" fill="#FFFFFF"/><rect x="567.5" y="136.5" width="28" height="12" stroke="#000000" stroke-width="0.333333" stroke-miterlimit="8" fill="#FFFFFF"/><rect x="482.5" y="148.5" width="28" height="13" stroke="#000000" stroke-width="0.333333" stroke-miterlimit="8" fill="#FFFFFF"/><rect x="510.5" y="148.5" width="28" height="13" stroke="#000000" stroke-width="0.333333" stroke-miterlimit="8" fill="#FFFFFF"/><rect x="538.5" y="148.5" width="29" height="13" stroke="#000000" stroke-width="0.333333" stroke-miterlimit="8" fill="#FFFFFF"/><rect x="567.5" y="148.5" width="28" height="13" stroke="#000000" stroke-width="0.333333" stroke-miterlimit="8" fill="#FFFFFF"/><path d="M482.5 161.5 482.5 177.645" stroke="#000000" stroke-width="0.333333" stroke-miterlimit="8" stroke-dasharray="0.333333 0.333333" fill="none" fill-rule="evenodd"/><path d="M510.5 161.5 510.506 177.645" stroke="#000000" stroke-width="0.333333" stroke-miterlimit="8" stroke-dasharray="0.333333 0.333333" fill="none" fill-rule="evenodd"/><path d="M538.5 161.5 538.5 177.645" stroke="#000000" stroke-width="0.333333" stroke-miterlimit="8" stroke-dasharray="0.333333 0.333333" fill="none" fill-rule="evenodd"/><path d="M567.5 161.5 567.506 177.645" stroke="#000000" stroke-width="0.333333" stroke-miterlimit="8" stroke-dasharray="0.333333 0.333333" fill="none" fill-rule="evenodd"/><path d="M595.5 161.5 595.5 177.645" stroke="#000000" stroke-width="0.333333" stroke-miterlimit="8" stroke-dasharray="0.333333 0.333333" fill="none" fill-rule="evenodd"/><path d="M371.5 136.5 412.882 136.5 420.5 148.5 412.882 160.5 371.5 160.5Z" stroke="#000000" stroke-width="0.333333" stroke-miterlimit="8" fill="#FFFFFF" fill-rule="evenodd"/><text font-family="Calibri,Calibri_MSFontService,sans-serif" font-weight="400" font-size="11" transform="translate(388.624 151)">pc<tspan font-size="13" x="-48.9677" y="-25">char</tspan><tspan font-family="Yu Gothic,Yu Gothic_MSFontService,sans-serif" font-size="13" x="-25.3011" y="-25">型のポインタ</tspan></text><path d="M0-0.333333 2.66667-0.333333 2.66667 0.333333 0 0.333333ZM4.66667-0.333333 7.33333-0.333333 7.33333 0.333333 4.66667 0.333333ZM9.33333-0.333333 12-0.333333 12 0.333333 9.33333 0.333333ZM14-0.333333 16.6667-0.333333 16.6667 0.333333 14 0.333333ZM18.6667-0.333333 21.3333-0.333333 21.3333 0.333333 18.6667 0.333333ZM23.3333-0.333333 26-0.333333 26 0.333333 23.3333 0.333333ZM28-0.333333 30.6667-0.333333 30.6667 0.333333 28 0.333333ZM32.6667-0.333333 35.3333-0.333333 35.3333 0.333333 32.6667 0.333333ZM37.3333-0.333333 40-0.333333 40 0.333333 37.3333 0.333333ZM42-0.333333 44.6667-0.333333 44.6667 0.333333 42 0.333333ZM45.5126 1.4874 45.5126 4.15407 44.8459 4.15407 44.8459 1.4874ZM45.5126 6.15407 45.5126 8.82073 44.8459 8.82073 44.8459 6.15407ZM45.5126 10.8207 45.5126 13.4874 44.8459 13.4874 44.8459 10.8207ZM45.5126 15.4874 45.5126 18.1541 44.8459 18.1541 44.8459 15.4874ZM46.9333 18.0667 49.6 18.0667 49.6 18.7333 46.9333 18.7333ZM51.6 18.0667 54.2667 18.0667 54.2667 18.7333 51.6 18.7333ZM56.2667 18.0667 58.9333 18.0667 58.9333 18.7333 56.2667 18.7333ZM60.9333 18.0667 63.6 18.0667 63.6 18.7333 60.9333 18.7333ZM65.6 18.0667 68.2667 18.0667 68.2667 18.7333 65.6 18.7333ZM70.2667 18.0667 72.9333 18.0667 72.9333 18.7333 70.2667 18.7333ZM74.9333 18.0667 77.6 18.0667 77.6 18.7333 74.9333 18.7333ZM79.6 18.0667 82.2667 18.0667 82.2667 18.7333 79.6 18.7333ZM0 4C-2.20914 4-4 2.20914-4 0-4-2.20914-2.20914-4 0-4 2.20914-4 4-2.20914 4 0 4 2.20914 2.20914 4 0 4ZM82.3585 14.4 90.3585 18.4 82.3585 22.4Z" fill="#FF0000" transform="matrix(1 0 0 -1 420.5 147.9)"/><path d="M535.5 129.167 538.167 129.167 538.167 129.833 535.5 129.833ZM540.167 129.167 542.833 129.167 542.833 129.833 540.167 129.833ZM544.833 129.167 546.179 129.167 546.179 129.833 544.833 129.833ZM535.5 133.5C533.291 133.5 531.5 131.709 531.5 129.5 531.5 127.291 533.291 125.5 535.5 125.5 537.709 125.5 539.5 127.291 539.5 129.5 539.5 131.709 537.709 133.5 535.5 133.5ZM544.846 125.5 552.846 129.5 544.846 133.5Z" fill="#FF0000"/><path d="M563.5 129.167 566.167 129.167 566.167 129.833 563.5 129.833ZM568.167 129.167 570.833 129.167 570.833 129.833 568.167 129.833ZM572.833 129.167 574.179 129.167 574.179 129.833 572.833 129.833ZM563.5 133.5C561.291 133.5 559.5 131.709 559.5 129.5 559.5 127.291 561.291 125.5 563.5 125.5 565.709 125.5 567.5 127.291 567.5 129.5 567.5 131.709 565.709 133.5 563.5 133.5ZM572.846 125.5 580.846 129.5 572.846 133.5Z" fill="#FF0000"/><path d="M0 0.333333-2.66667 0.333333-2.66667-0.333333 0-0.333333ZM-4.66667 0.333333-7.17123 0.333333-6.8379 0-6.8379 0.1621-7.50457 0.1621-7.50457-0.333333-4.66667-0.333333ZM-6.8379 2.1621-6.8379 4.82877-7.50457 4.82877-7.50457 2.1621ZM-6.8379 6.82877-6.8379 8.80018-7.17123 8.46685-6.47599 8.46685-6.47599 9.13352-7.50457 9.13352-7.50457 6.82877ZM-4.47599 8.46685-1.80932 8.46685-1.80932 9.13352-4.47599 9.13352ZM0.190682 8.46685 2.85735 8.46685 2.85735 9.13352 0.190682 9.13352ZM4.85735 8.46685 7.52401 8.46685 7.52401 9.13352 4.85735 9.13352ZM9.52401 8.46685 12.1907 8.46685 12.1907 9.13352 9.52401 9.13352ZM14.1907 8.46685 16.8573 8.46685 16.8573 9.13352 14.1907 9.13352ZM18.8573 8.46685 21.524 8.46685 21.524 9.13352 18.8573 9.13352ZM23.524 8.46685 26.1907 8.46685 26.1907 9.13352 23.524 9.13352ZM28.1907 8.46685 30.8573 8.46685 30.8573 9.13352 28.1907 9.13352ZM32.8573 8.46685 35.524 8.46685 35.524 9.13352 32.8573 9.13352ZM37.524 8.46685 40.1907 8.46685 40.1907 9.13352 37.524 9.13352ZM42.1907 8.46685 44.8573 8.46685 44.8573 9.13352 42.1907 9.13352ZM46.8573 8.46685 49.524 8.46685 49.524 9.13352 46.8573 9.13352ZM51.524 8.46685 54.1907 8.46685 54.1907 9.13352 51.524 9.13352ZM56.1907 8.46685 58.8573 8.46685 58.8573 9.13352 56.1907 9.13352ZM60.8573 8.46685 63.524 8.46685 63.524 9.13352 60.8573 9.13352ZM65.524 8.46685 68.1907 8.46685 68.1907 9.13352 65.524 9.13352ZM70.1907 8.46685 72.8573 8.46685 72.8573 9.13352 70.1907 9.13352ZM74.8573 8.46685 77.524 8.46685 77.524 9.13352 74.8573 9.13352ZM79.524 8.46685 82.1907 8.46685 82.1907 9.13352 79.524 9.13352ZM84.1907 8.46685 86.8573 8.46685 86.8573 9.13352 84.1907 9.13352ZM88.8573 8.46685 91.524 8.46685 91.524 9.13352 88.8573 9.13352ZM93.524 8.46685 96.1907 8.46685 96.1907 9.13352 93.524 9.13352ZM98.1907 8.46685 100.857 8.46685 100.857 9.13352 98.1907 9.13352ZM102.857 8.46685 105.524 8.46685 105.524 9.13352 102.857 9.13352ZM107.524 8.46685 110.191 8.46685 110.191 9.13352 107.524 9.13352ZM112.191 8.46685 114.857 8.46685 114.857 9.13352 112.191 9.13352ZM116.857 8.46685 119.524 8.46685 119.524 9.13352 116.857 9.13352ZM121.745 8.9123 121.745 11.579 121.079 11.579 121.079 8.9123ZM121.745 13.579 121.745 13.9335 118.766 13.9335 118.766 13.2669 121.412 13.2669 121.079 13.6002 121.079 13.579ZM116.766 13.9335 115.553 13.9335 115.553 13.2669 116.766 13.2669ZM0-4C2.20914-4 4-2.20914 4 0 4 2.20914 2.20914 4 0 4-2.20914 4-4 2.20914-4 0-4-2.20914-2.20914-4 0-4ZM116.887 17.6002 108.887 13.6002 116.887 9.60021Z" fill="#FF0000" transform="matrix(-1 0 0 1 595.387 129.5)"/><path d="M508.5 144.167 511.167 144.167 511.167 144.833 508.5 144.833ZM513.167 144.167 515.833 144.167 515.833 144.833 513.167 144.833ZM517.833 144.167 519.179 144.167 519.179 144.833 517.833 144.833ZM508.5 148.5C506.291 148.5 504.5 146.709 504.5 144.5 504.5 142.291 506.291 140.5 508.5 140.5 510.709 140.5 512.5 142.291 512.5 144.5 512.5 146.709 510.709 148.5 508.5 148.5ZM517.846 140.5 525.846 144.5 517.846 148.5Z" fill="#FF0000"/><path d="M536.5 143.167 539.167 143.167 539.167 143.833 536.5 143.833ZM541.167 143.167 543.833 143.167 543.833 143.833 541.167 143.833ZM545.833 143.167 547.179 143.167 547.179 143.833 545.833 143.833ZM536.5 147.5C534.291 147.5 532.5 145.709 532.5 143.5 532.5 141.291 534.291 139.5 536.5 139.5 538.709 139.5 540.5 141.291 540.5 143.5 540.5 145.709 538.709 147.5 536.5 147.5ZM545.846 139.5 553.846 143.5 545.846 147.5Z" fill="#FF0000"/><rect x="93" y="104" width="188" height="87"/><text fill="#569CD6" font-family="Consolas,Consolas_MSFontService,sans-serif" font-weight="400" font-size="11" transform="translate(102.195 119)">char<tspan fill="#9CDCFE" font-size="11" x="29.1667" y="0">buf</tspan><tspan fill="#D4D4D4" font-size="11" x="46.6667" y="0">[BUF_SIZE];</tspan><tspan font-size="11" x="0" y="13">char</tspan><tspan fill="#D4D4D4" font-size="11" x="23.3333" y="13">* </tspan><tspan fill="#9CDCFE" font-size="11" x="35" y="13">pc</tspan><tspan fill="#D4D4D4" font-size="11" x="52.5" y="13">= &amp;</tspan><tspan fill="#9CDCFE" font-size="11" x="70" y="13">buf</tspan><tspan fill="#D4D4D4" font-size="11" x="87.5" y="13">[BUF_OFFSET];</tspan><tspan font-size="11" x="0" y="26">int</tspan><tspan fill="#9CDCFE" font-size="11" x="23.3333" y="26">i</tspan><tspan fill="#D4D4D4" font-size="11" x="35" y="26">= BUF_OFFSET;</tspan><tspan fill="#C586C0" font-size="11" x="0" y="38">while</tspan><tspan fill="#D4D4D4" font-size="11" x="35" y="38">(</tspan><tspan fill="#D4D4D4" font-size="11" x="40.8333" y="38">i</tspan><tspan fill="#D4D4D4" font-size="11" x="46.6667" y="38">&lt;BUF_SIZE) {</tspan><tspan fill="#D4D4D4" font-size="11" x="23.3333" y="51">*(pc++) = (</tspan>char<tspan fill="#D4D4D4" font-size="11" x="110.833" y="51">)(</tspan><tspan fill="#D4D4D4" font-size="11" x="122.5" y="51">i</tspan><tspan fill="#D4D4D4" font-size="11" x="128.333" y="51">++);</tspan><tspan fill="#D4D4D4" font-size="11" x="0" y="64">}</tspan><tspan fill="#000000" font-family="Yu Gothic,Yu Gothic_MSFontService,sans-serif" font-size="13" x="0" y="111">ポインタ変数は、メモリ上のアドレスを値として持つ</tspan><tspan fill="#000000" font-family="Yu Gothic,Yu Gothic_MSFontService,sans-serif" font-size="13" x="0" y="127">ポイント変数を更新すると、メモリの参照先が更新される</tspan><tspan fill="#000000" font-family="Yu Gothic,Yu Gothic_MSFontService,sans-serif" font-size="13" x="0" y="143">ポインタ変数に</tspan><tspan fill="#000000" font-family="Calibri,Calibri_MSFontService,sans-serif" font-size="13" x="93.3333" y="143">*</tspan><tspan fill="#000000" font-family="Yu Gothic,Yu Gothic_MSFontService,sans-serif" font-size="13" x="100" y="143">をつけることにより、ポインタが参照するメモリの値が更新される</tspan></text><rect x="80" y="304" width="214" height="221" fill="#F2F2F2"/><text font-family="Calibri,Calibri_MSFontService,sans-serif" font-weight="400" font-size="16" transform="translate(134.75 323)">C<tspan font-family="Yu Gothic,Yu Gothic_MSFontService,sans-serif" font-size="16" x="8.5" y="0">言語のコード</tspan></text><rect x="320" y="304" width="320" height="221" fill="#F2F2F2"/><text font-family="Calibri,Calibri_MSFontService,sans-serif" font-weight="400" font-size="16" transform="translate(382.925 323)">Int<tspan font-family="Yu Gothic,Yu Gothic_MSFontService,sans-serif" font-size="16" x="17.52" y="0">型ポインタのメモリ参照</tspan></text><rect x="482.5" y="349.5" width="28" height="13" stroke="#000000" stroke-width="0.333333" stroke-miterlimit="8" fill="#FFFFFF"/><rect x="510.5" y="349.5" width="28" height="13" stroke="#000000" stroke-width="0.333333" stroke-miterlimit="8" fill="#FFFFFF"/><rect x="538.5" y="349.5" width="29" height="13" stroke="#000000" stroke-width="0.333333" stroke-miterlimit="8" fill="#FFFFFF"/><rect x="567.5" y="349.5" width="28" height="13" stroke="#000000" stroke-width="0.333333" stroke-miterlimit="8" fill="#FFFFFF"/><rect x="482.5" y="362.5" width="28" height="13" stroke="#000000" stroke-width="0.333333" stroke-miterlimit="8" fill="#FFFFFF"/><rect x="510.5" y="362.5" width="28" height="13" stroke="#000000" stroke-width="0.333333" stroke-miterlimit="8" fill="#FFFFFF"/><rect x="538.5" y="362.5" width="29" height="13" stroke="#000000" stroke-width="0.333333" stroke-miterlimit="8" fill="#FFFFFF"/><rect x="567.5" y="362.5" width="28" height="13" stroke="#000000" stroke-width="0.333333" stroke-miterlimit="8" fill="#FFFFFF"/><rect x="482.5" y="375.5" width="28" height="12" stroke="#000000" stroke-width="0.333333" stroke-miterlimit="8" fill="#FFFFFF"/><rect x="510.5" y="375.5" width="28" height="12" stroke="#000000" stroke-width="0.333333" stroke-miterlimit="8" fill="#FFFFFF"/><rect x="538.5" y="375.5" width="29" height="12" stroke="#000000" stroke-width="0.333333" stroke-miterlimit="8" fill="#FFFFFF"/><rect x="567.5" y="375.5" width="28" height="12" stroke="#000000" stroke-width="0.333333" stroke-miterlimit="8" fill="#FFFFFF"/><rect x="482.5" y="387.5" width="28" height="13" stroke="#000000" stroke-width="0.333333" stroke-miterlimit="8" fill="#FFFFFF"/><rect x="510.5" y="387.5" width="28" height="13" stroke="#000000" stroke-width="0.333333" stroke-miterlimit="8" fill="#FFFFFF"/><rect x="538.5" y="387.5" width="29" height="13" stroke="#000000" stroke-width="0.333333" stroke-miterlimit="8" fill="#FFFFFF"/><rect x="567.5" y="387.5" width="28" height="13" stroke="#000000" stroke-width="0.333333" stroke-miterlimit="8" fill="#FFFFFF"/><path d="M482.5 400.5 482.5 416.645" stroke="#000000" stroke-width="0.333333" stroke-miterlimit="8" stroke-dasharray="0.333333 0.333333" fill="none" fill-rule="evenodd"/><path d="M510.5 400.5 510.506 416.645" stroke="#000000" stroke-width="0.333333" stroke-miterlimit="8" stroke-dasharray="0.333333 0.333333" fill="none" fill-rule="evenodd"/><path d="M538.5 400.5 538.5 416.645" stroke="#000000" stroke-width="0.333333" stroke-miterlimit="8" stroke-dasharray="0.333333 0.333333" fill="none" fill-rule="evenodd"/><path d="M567.5 400.5 567.506 416.645" stroke="#000000" stroke-width="0.333333" stroke-miterlimit="8" stroke-dasharray="0.333333 0.333333" fill="none" fill-rule="evenodd"/><path d="M595.5 400.5 595.5 416.645" stroke="#000000" stroke-width="0.333333" stroke-miterlimit="8" stroke-dasharray="0.333333 0.333333" fill="none" fill-rule="evenodd"/><path d="M371.5 375.5 412.882 375.5 420.5 387.5 412.882 399.5 371.5 399.5Z" stroke="#000000" stroke-width="0.333333" stroke-miterlimit="8" fill="#FFFFFF" fill-rule="evenodd"/><text font-family="Calibri,Calibri_MSFontService,sans-serif" font-weight="400" font-size="11" transform="translate(388.624 390)">pc<tspan font-size="13" x="-48.9677" y="-25">char</tspan><tspan font-family="Yu Gothic,Yu Gothic_MSFontService,sans-serif" font-size="13" x="-25.3011" y="-25">型のポインタ</tspan></text><path d="M0-0.333333 2.66667-0.333333 2.66667 0.333333 0 0.333333ZM4.66667-0.333333 7.33333-0.333333 7.33333 0.333333 4.66667 0.333333ZM9.33333-0.333333 12-0.333333 12 0.333333 9.33333 0.333333ZM14-0.333333 16.6667-0.333333 16.6667 0.333333 14 0.333333ZM18.6667-0.333333 21.3333-0.333333 21.3333 0.333333 18.6667 0.333333ZM23.3333-0.333333 26-0.333333 26 0.333333 23.3333 0.333333ZM28-0.333333 30.6667-0.333333 30.6667 0.333333 28 0.333333ZM31.4326 1.5674 31.4326 4.23407 30.7659 4.23407 30.7659 1.5674ZM31.4326 6.23407 31.4326 8.90073 30.7659 8.90073 30.7659 6.23407ZM31.4326 10.9007 31.4326 13.5674 30.7659 13.5674 30.7659 10.9007ZM31.4326 15.5674 31.4326 18.2341 30.7659 18.2341 30.7659 15.5674ZM32.9333 18.0667 35.6 18.0667 35.6 18.7333 32.9333 18.7333ZM37.6 18.0667 40.2667 18.0667 40.2667 18.7333 37.6 18.7333ZM42.2667 18.0667 44.9333 18.0667 44.9333 18.7333 42.2667 18.7333ZM46.9333 18.0667 49.6 18.0667 49.6 18.7333 46.9333 18.7333ZM51.6 18.0667 54.2667 18.0667 54.2667 18.7333 51.6 18.7333ZM0 4C-2.20914 4-4 2.20914-4 0-4-2.20914-2.20914-4 0-4 2.20914-4 4-2.20914 4 0 4 2.20914 2.20914 4 0 4ZM54.1985 14.4 62.1985 18.4 54.1985 22.4Z" fill="#FF0000" transform="matrix(1 0 0 -1 420.5 386.9)"/><path d="M0 0.333333-2.66667 0.333333-2.66667-0.333333 0-0.333333ZM-4.66667 0.333333-7.17123 0.333333-6.8379 0-6.8379 0.1621-7.50457 0.1621-7.50457-0.333333-4.66667-0.333333ZM-6.8379 2.1621-6.8379 4.82877-7.50457 4.82877-7.50457 2.1621ZM-6.8379 6.82877-6.8379 8.80018-7.17123 8.46685-6.47599 8.46685-6.47599 9.13352-7.50457 9.13352-7.50457 6.82877ZM-4.47599 8.46685-1.80932 8.46685-1.80932 9.13352-4.47599 9.13352ZM0.190682 8.46685 2.85735 8.46685 2.85735 9.13352 0.190682 9.13352ZM4.85735 8.46685 7.52401 8.46685 7.52401 9.13352 4.85735 9.13352ZM9.52401 8.46685 12.1907 8.46685 12.1907 9.13352 9.52401 9.13352ZM14.1907 8.46685 16.8573 8.46685 16.8573 9.13352 14.1907 9.13352ZM18.8573 8.46685 21.524 8.46685 21.524 9.13352 18.8573 9.13352ZM23.524 8.46685 26.1907 8.46685 26.1907 9.13352 23.524 9.13352ZM28.1907 8.46685 30.8573 8.46685 30.8573 9.13352 28.1907 9.13352ZM32.8573 8.46685 35.524 8.46685 35.524 9.13352 32.8573 9.13352ZM37.524 8.46685 40.1907 8.46685 40.1907 9.13352 37.524 9.13352ZM42.1907 8.46685 44.8573 8.46685 44.8573 9.13352 42.1907 9.13352ZM46.8573 8.46685 49.524 8.46685 49.524 9.13352 46.8573 9.13352ZM51.524 8.46685 54.1907 8.46685 54.1907 9.13352 51.524 9.13352ZM56.1907 8.46685 58.8573 8.46685 58.8573 9.13352 56.1907 9.13352ZM60.8573 8.46685 63.524 8.46685 63.524 9.13352 60.8573 9.13352ZM65.524 8.46685 68.1907 8.46685 68.1907 9.13352 65.524 9.13352ZM70.1907 8.46685 72.8573 8.46685 72.8573 9.13352 70.1907 9.13352ZM74.8573 8.46685 77.524 8.46685 77.524 9.13352 74.8573 9.13352ZM79.524 8.46685 82.1907 8.46685 82.1907 9.13352 79.524 9.13352ZM84.1907 8.46685 86.8573 8.46685 86.8573 9.13352 84.1907 9.13352ZM88.8573 8.46685 91.524 8.46685 91.524 9.13352 88.8573 9.13352ZM93.524 8.46685 96.1907 8.46685 96.1907 9.13352 93.524 9.13352ZM98.1907 8.46685 100.857 8.46685 100.857 9.13352 98.1907 9.13352ZM102.857 8.46685 105.524 8.46685 105.524 9.13352 102.857 9.13352ZM107.524 8.46685 110.191 8.46685 110.191 9.13352 107.524 9.13352ZM112.191 8.46685 114.857 8.46685 114.857 9.13352 112.191 9.13352ZM116.857 8.46685 119.524 8.46685 119.524 9.13352 116.857 9.13352ZM121.745 8.9123 121.745 11.579 121.079 11.579 121.079 8.9123ZM121.745 13.579 121.745 13.9335 118.766 13.9335 118.766 13.2669 121.412 13.2669 121.079 13.6002 121.079 13.579ZM116.766 13.9335 115.553 13.9335 115.553 13.2669 116.766 13.2669ZM0-4C2.20914-4 4-2.20914 4 0 4 2.20914 2.20914 4 0 4-2.20914 4-4 2.20914-4 0-4-2.20914-2.20914-4 0-4ZM116.887 17.6002 108.887 13.6002 116.887 9.60021Z" fill="#FF0000" transform="matrix(-1 0 0 1 595.387 369.5)"/><rect x="93" y="343" width="188" height="87"/><text fill="#569CD6" font-family="Consolas,Consolas_MSFontService,sans-serif" font-weight="400" font-size="11" transform="translate(102.195 358)">int<tspan fill="#9CDCFE" font-size="11" x="23.3333" y="0">buf</tspan><tspan fill="#D4D4D4" font-size="11" x="40.8333" y="0">[BUF_SIZE];</tspan><tspan font-size="11" x="0" y="13">intr</tspan><tspan fill="#D4D4D4" font-size="11" x="23.3333" y="13">* </tspan><tspan fill="#9CDCFE" font-size="11" x="35" y="13">pi</tspan><tspan fill="#D4D4D4" font-size="11" x="52.5" y="13">= &amp;</tspan><tspan fill="#9CDCFE" font-size="11" x="70" y="13">buf</tspan><tspan fill="#D4D4D4" font-size="11" x="87.5" y="13">[BUF_OFFSET];</tspan><tspan font-size="11" x="0" y="26">int</tspan><tspan fill="#9CDCFE" font-size="11" x="23.3333" y="26">i</tspan><tspan fill="#D4D4D4" font-size="11" x="35" y="26">= BUF_OFFSET;</tspan><tspan fill="#C586C0" font-size="11" x="0" y="38">while</tspan><tspan fill="#D4D4D4" font-size="11" x="35" y="38">(</tspan><tspan fill="#D4D4D4" font-size="11" x="40.8333" y="38">i</tspan><tspan fill="#D4D4D4" font-size="11" x="46.6667" y="38">&lt;BUF_SIZE) {</tspan><tspan fill="#D4D4D4" font-size="11" x="23.3333" y="51">*(</tspan><tspan fill="#D4D4D4" font-size="11" x="35" y="51">pi++) </tspan><tspan fill="#D4D4D4" font-size="11" x="70" y="51">= </tspan><tspan fill="#D4D4D4" font-size="11" x="81.6667" y="51">i</tspan><tspan fill="#D4D4D4" font-size="11" x="87.5" y="51">++;</tspan><tspan fill="#D4D4D4" font-size="11" x="0" y="64">}</tspan><tspan fill="#000000" font-family="Yu Gothic,Yu Gothic_MSFontService,sans-serif" font-size="13" x="0" y="111">ポインタ変数はデータ型によって、値更新時のメモリ上の移動量が異なる</tspan><tspan fill="#000000" font-family="Calibri,Calibri_MSFontService,sans-serif" font-size="13" x="0" y="127">char</tspan><tspan fill="#000000" font-family="Yu Gothic,Yu Gothic_MSFontService,sans-serif" font-size="13" x="23.6667" y="127">は</tspan><tspan fill="#000000" font-family="Calibri,Calibri_MSFontService,sans-serif" font-size="13" x="37" y="127">1</tspan><tspan fill="#000000" font-family="Yu Gothic,Yu Gothic_MSFontService,sans-serif" font-size="13" x="43.8333" y="127">バイトなので、</tspan><tspan fill="#000000" font-family="Calibri,Calibri_MSFontService,sans-serif" font-size="13" x="137.167" y="127">1</tspan><tspan fill="#000000" font-family="Yu Gothic,Yu Gothic_MSFontService,sans-serif" font-size="13" x="144" y="127">バイトづつ移動する</tspan><tspan fill="#000000" font-family="Calibri,Calibri_MSFontService,sans-serif" font-size="13" x="0" y="143">int</tspan><tspan fill="#000000" font-family="Yu Gothic,Yu Gothic_MSFontService,sans-serif" font-size="13" x="14.5" y="143">が</tspan><tspan fill="#000000" font-family="Calibri,Calibri_MSFontService,sans-serif" font-size="13" x="27.8333" y="143">4</tspan><tspan fill="#000000" font-family="Yu Gothic,Yu Gothic_MSFontService,sans-serif" font-size="13" x="34.6667" y="143">バイトの場合は（</tspan><tspan fill="#000000" font-family="Calibri,Calibri_MSFontService,sans-serif" font-size="13" x="141.333" y="143">CPU</tspan><tspan fill="#000000" font-family="Yu Gothic,Yu Gothic_MSFontService,sans-serif" font-size="13" x="163.833" y="143">によって異なるので注意）、</tspan><tspan fill="#000000" font-family="Calibri,Calibri_MSFontService,sans-serif" font-size="13" x="337.167" y="143">4</tspan><tspan fill="#000000" font-family="Yu Gothic,Yu Gothic_MSFontService,sans-serif" font-size="13" x="344" y="143">バイト筒移動する</tspan></text><path d="M0 0.333333-2.66667 0.333333-2.66667-0.333333 0-0.333333ZM-4.66667 0.333333-7.17123 0.333333-6.8379 0-6.8379 0.1621-7.50457 0.1621-7.50457-0.333333-4.66667-0.333333ZM-6.8379 2.1621-6.8379 4.82877-7.50457 4.82877-7.50457 2.1621ZM-6.8379 6.82877-6.8379 8.80018-7.17123 8.46685-6.47599 8.46685-6.47599 9.13352-7.50457 9.13352-7.50457 6.82877ZM-4.47599 8.46685-1.80932 8.46685-1.80932 9.13352-4.47599 9.13352ZM0.190682 8.46685 2.85735 8.46685 2.85735 9.13352 0.190682 9.13352ZM4.85735 8.46685 7.52401 8.46685 7.52401 9.13352 4.85735 9.13352ZM9.52401 8.46685 12.1907 8.46685 12.1907 9.13352 9.52401 9.13352ZM14.1907 8.46685 16.8573 8.46685 16.8573 9.13352 14.1907 9.13352ZM18.8573 8.46685 21.524 8.46685 21.524 9.13352 18.8573 9.13352ZM23.524 8.46685 26.1907 8.46685 26.1907 9.13352 23.524 9.13352ZM28.1907 8.46685 30.8573 8.46685 30.8573 9.13352 28.1907 9.13352ZM32.8573 8.46685 35.524 8.46685 35.524 9.13352 32.8573 9.13352ZM37.524 8.46685 40.1907 8.46685 40.1907 9.13352 37.524 9.13352ZM42.1907 8.46685 44.8573 8.46685 44.8573 9.13352 42.1907 9.13352ZM46.8573 8.46685 49.524 8.46685 49.524 9.13352 46.8573 9.13352ZM51.524 8.46685 54.1907 8.46685 54.1907 9.13352 51.524 9.13352ZM56.1907 8.46685 58.8573 8.46685 58.8573 9.13352 56.1907 9.13352ZM60.8573 8.46685 63.524 8.46685 63.524 9.13352 60.8573 9.13352ZM65.524 8.46685 68.1907 8.46685 68.1907 9.13352 65.524 9.13352ZM70.1907 8.46685 72.8573 8.46685 72.8573 9.13352 70.1907 9.13352ZM74.8573 8.46685 77.524 8.46685 77.524 9.13352 74.8573 9.13352ZM79.524 8.46685 82.1907 8.46685 82.1907 9.13352 79.524 9.13352ZM84.1907 8.46685 86.8573 8.46685 86.8573 9.13352 84.1907 9.13352ZM88.8573 8.46685 91.524 8.46685 91.524 9.13352 88.8573 9.13352ZM93.524 8.46685 96.1907 8.46685 96.1907 9.13352 93.524 9.13352ZM98.1907 8.46685 100.857 8.46685 100.857 9.13352 98.1907 9.13352ZM102.857 8.46685 105.524 8.46685 105.524 9.13352 102.857 9.13352ZM107.524 8.46685 110.191 8.46685 110.191 9.13352 107.524 9.13352ZM112.191 8.46685 114.857 8.46685 114.857 9.13352 112.191 9.13352ZM116.857 8.46685 119.524 8.46685 119.524 9.13352 116.857 9.13352ZM121.745 8.9123 121.745 11.579 121.079 11.579 121.079 8.9123ZM121.745 13.579 121.745 13.9335 118.766 13.9335 118.766 13.2669 121.412 13.2669 121.079 13.6002 121.079 13.579ZM116.766 13.9335 115.553 13.9335 115.553 13.2669 116.766 13.2669ZM0-4C2.20914-4 4-2.20914 4 0 4 2.20914 2.20914 4 0 4-2.20914 4-4 2.20914-4 0-4-2.20914-2.20914-4 0-4ZM116.887 17.6002 108.887 13.6002 116.887 9.60021Z" fill="#FF0000" transform="matrix(-1 0 0 1 596.387 382.5)"/></g></svg>