<svg width="608" height="732" xmlns="http://www.w3.org/2000/svg" xmlns:xlink="http://www.w3.org/1999/xlink" overflow="hidden"><defs><clipPath id="clip0"><rect x="56" y="27" width="608" height="732"/></clipPath><clipPath id="clip1"><rect x="514" y="671" width="44" height="44"/></clipPath><clipPath id="clip2"><rect x="514" y="671" width="44" height="44"/></clipPath><clipPath id="clip3"><rect x="514" y="671" width="44" height="44"/></clipPath><clipPath id="clip4"><rect x="563" y="659" width="66" height="66"/></clipPath><clipPath id="clip5"><rect x="563" y="659" width="66" height="66"/></clipPath><clipPath id="clip6"><rect x="563" y="659" width="66" height="66"/></clipPath><clipPath id="clip7"><rect x="417" y="669" width="62" height="62"/></clipPath><clipPath id="clip8"><rect x="417" y="669" width="62" height="62"/></clipPath><clipPath id="clip9"><rect x="417" y="669" width="62" height="62"/></clipPath></defs><g clip-path="url(#clip0)" transform="translate(-56 -27)"><rect x="73.5001" y="212.5" width="182" height="177" stroke="#000000" stroke-width="1.33333" stroke-miterlimit="8" fill="#F2F2F2"/><rect x="58.5001" y="28.5001" width="604" height="730" stroke="#D9D9D9" stroke-width="1.33333" stroke-miterlimit="8" fill="none"/><rect x="217.5" y="59.5001" width="260" height="59" stroke="#000000" stroke-width="1.33333" stroke-miterlimit="8" fill="#FFFFFF"/><text font-family="Yu Gothic,Yu Gothic_MSFontService,sans-serif" font-weight="400" font-size="13" transform="translate(226.909 93)">アプリケーションドメインの概念モデル</text><rect x="100.5" y="222.5" width="142" height="40" stroke="#000000" stroke-width="1.33333" stroke-miterlimit="8" fill="#FFFFFF"/><text font-family="Yu Gothic,Yu Gothic_MSFontService,sans-serif" font-weight="400" font-size="13" transform="translate(117.232 246)">サービスドメイン</text><rect x="100.5" y="269.5" width="142" height="40" stroke="#000000" stroke-width="1.33333" stroke-miterlimit="8" fill="#FFFFFF"/><text font-family="Yu Gothic,Yu Gothic_MSFontService,sans-serif" font-weight="400" font-size="13" transform="translate(110.565 293)">選択された実装技術</text><rect x="100.5" y="316.5" width="142" height="41" stroke="#000000" stroke-width="1.33333" stroke-miterlimit="8" fill="#FFFFFF"/><text font-family="Yu Gothic,Yu Gothic_MSFontService,sans-serif" font-weight="400" font-size="13" transform="translate(117.232 341)">コード変換<tspan font-size="13" x="66.6667" y="0">ルール</tspan></text><path d="M113.5 447.5 136.5 447.5 136.5 473.667 132.667 477.5 113.5 477.5Z" fill="#FFFFFF" fill-rule="evenodd"/><path d="M132.667 477.5 133.433 474.433 136.5 473.667Z" fill="#CDCDCD" fill-rule="evenodd"/><path d="M132.667 477.5 133.433 474.433 136.5 473.667 132.667 477.5 113.5 477.5 113.5 447.5 136.5 447.5 136.5 473.667" stroke="#000000" stroke-width="1.33333" stroke-miterlimit="8" fill="none" fill-rule="evenodd"/><path d="M141.5 447.5 164.5 447.5 164.5 473.667 160.667 477.5 141.5 477.5Z" fill="#FFFFFF" fill-rule="evenodd"/><path d="M160.667 477.5 161.433 474.433 164.5 473.667Z" fill="#CDCDCD" fill-rule="evenodd"/><path d="M160.667 477.5 161.433 474.433 164.5 473.667 160.667 477.5 141.5 477.5 141.5 447.5 164.5 447.5 164.5 473.667" stroke="#000000" stroke-width="1.33333" stroke-miterlimit="8" fill="none" fill-rule="evenodd"/><path d="M102.5 441.834C102.5 436.127 107.127 431.5 112.834 431.5L217.167 431.5C222.874 431.5 227.5 436.127 227.5 441.834L227.5 483.167C227.5 488.874 222.874 493.5 217.167 493.5L112.834 493.5C107.127 493.5 102.5 488.874 102.5 483.167Z" stroke="#4472C4" stroke-width="1.33333" stroke-miterlimit="8" fill="none" fill-rule="evenodd"/><path d="M118 555.5C118 541.417 139.938 530 167 530 194.062 530 216 541.417 216 555.5 216 569.583 194.062 581 167 581 139.938 581 118 569.583 118 555.5Z" stroke="#4472C4" stroke-width="2" stroke-miterlimit="8" fill="#FFFFFF" fill-rule="evenodd"/><text font-family="Calibri,Calibri_MSFontService,sans-serif" font-weight="400" font-size="13" transform="translate(153.239 560)">build</text><rect x="113.5" y="665.5" width="105" height="51" stroke="#2F528F" stroke-width="1.33333" stroke-miterlimit="8" fill="#4472C4"/><text fill="#FFFFFF" font-family="Calibri,Calibri_MSFontService,sans-serif" font-weight="400" font-size="13" transform="translate(143.872 694)">IoT<tspan font-family="Yu Gothic,Yu Gothic_MSFontService,sans-serif" font-size="13" x="16.8333" y="0">機器</tspan></text><path d="M287.167 684.791C286.05 677.69 291.801 671.15 300.014 670.184 303.342 669.792 306.725 670.378 309.623 671.846 312.693 666.841 319.868 664.939 325.648 667.597 326.659 668.062 327.587 668.651 328.402 669.346 330.794 665.198 336.618 663.512 341.412 665.582 342.739 666.154 343.896 666.983 344.795 668.003 348.65 664.08 355.461 663.595 360.008 666.921 361.919 668.318 363.207 670.246 363.651 672.374 369.967 673.864 373.692 679.508 371.973 684.981 371.828 685.441 371.647 685.892 371.43 686.33 376.495 692.032 375.255 700.205 368.66 704.585 366.608 705.948 364.183 706.831 361.621 707.148 361.564 713.283 355.762 718.216 348.663 718.167 346.291 718.15 343.97 717.567 341.958 716.482 339.556 723.36 331.18 727.247 323.249 725.165 319.925 724.292 317.053 722.446 315.123 719.943 307.003 724.178 296.463 721.9 291.581 714.853 291.52 714.764 291.459 714.675 291.4 714.585 286.085 715.123 281.271 711.843 280.648 707.26 280.315 704.817 281.248 702.371 283.197 700.575 278.595 698.232 277.049 693.09 279.744 689.089 281.299 686.781 284.026 685.255 287.086 684.981Z" stroke="#2F528F" stroke-width="1.33333" stroke-miterlimit="8" fill="#9DC3E6" fill-rule="evenodd"/><path d="M288.929 701.463C286.964 701.596 285 701.203 283.3 700.338M293.896 713.779C293.106 714.051 292.278 714.232 291.433 714.317M315.118 719.697C314.524 718.926 314.026 718.102 313.634 717.24M342.56 713.57C342.473 714.484 342.274 715.388 341.967 716.266M354.342 696.912C358.796 698.787 361.607 702.707 361.568 706.988M371.384 686.18C370.663 687.638 369.562 688.931 368.167 689.959M363.664 672.162C363.787 672.75 363.844 673.348 363.834 673.946M343.118 670.08C343.537 669.257 344.092 668.491 344.766 667.805M327.702 671.165C327.873 670.485 328.141 669.825 328.501 669.202M309.611 671.831C310.66 672.363 311.63 673.002 312.5 673.735M287.671 686.795C287.442 686.14 287.274 685.47 287.167 684.792" stroke="#2F528F" stroke-width="1.33333" stroke-miterlimit="8" fill="none" fill-rule="evenodd"/><text fill="#FFFFFF" font-family="Calibri,Calibri_MSFontService,sans-serif" font-weight="400" font-size="13" transform="translate(306.82 697)">Cloud</text><g clip-path="url(#clip1)"><g clip-path="url(#clip2)"><g clip-path="url(#clip3)"><path d="M548.547 671 523.453 671C522.356 671 521.467 671.889 521.467 672.986L521.467 713.014C521.467 714.111 522.356 715 523.453 715L548.547 715C549.644 715 550.533 714.111 550.533 713.014L550.533 672.986C550.533 671.889 549.644 671 548.547 671ZM536 712.26C534.247 712.26 532.826 710.84 532.826 709.087 532.826 707.334 534.247 705.913 536 705.913 537.753 705.913 539.174 707.334 539.174 709.087 539.174 710.84 537.753 712.26 536 712.26ZM547.738 703.825 524.262 703.825 524.262 676.293 547.738 676.293 547.738 703.825Z" fill="#4B4B4B"/></g></g></g><g clip-path="url(#clip4)"><g clip-path="url(#clip5)"><g clip-path="url(#clip6)"><path d="M605.692 669.373 565.514 669.373C564.132 669.373 563 670.505 563 671.889L563 704.842C563 706.224 564.132 707.356 565.514 707.356L577.172 707.356 577.172 712.218 573.895 712.218 573.895 714.627 597.313 714.627 597.313 712.218 594.034 712.218 594.034 707.356 605.692 707.356C607.074 707.356 608.206 706.224 608.206 704.842L608.206 671.889C608.206 670.505 607.074 669.373 605.692 669.373ZM604.935 703.082 566.269 703.082 566.269 672.642 604.935 672.642 604.935 703.082Z" fill="#4B4B4B"/><path d="M626.434 669.373 613.463 669.373C612.047 669.373 610.897 670.521 610.897 671.939L610.897 712.061C610.897 713.479 612.047 714.627 613.463 714.627L626.434 714.627C627.852 714.627 629 713.479 629 712.061L629 671.939C629 670.521 627.852 669.373 626.434 669.373ZM619.948 703.314C618.325 703.314 617.008 701.996 617.008 700.373 617.008 698.747 618.325 697.43 619.948 697.43 621.572 697.43 622.891 698.747 622.891 700.373 622.891 701.996 621.572 703.314 619.948 703.314ZM624.589 684.987 615.537 684.987 615.537 683.176 624.589 683.176 624.589 684.987ZM624.589 679.555 615.537 679.555 615.537 677.746 624.589 677.746 624.589 679.555Z" fill="#4B4B4B"/></g></g></g><text font-family="Yu Gothic,Yu Gothic_MSFontService,sans-serif" font-weight="400" font-size="13" transform="translate(376.419 567)">それぞれのデプロイ毎に<tspan font-size="13" x="0" y="16">コード化され、ビルドさ</tspan><tspan font-size="13" x="0" y="32">れて配置される</tspan></text><path d="M160.5 192 165.75 192 165.75 168.5 176.25 168.5 176.25 192 181.5 192 171 202.5Z" stroke="#2F528F" stroke-width="1.33333" stroke-miterlimit="8" stroke-opacity="0.701961" fill="#4472C4" fill-rule="evenodd" fill-opacity="0.701961"/><path d="M310.5 191.5 316 191.5 316 168.5 327 168.5 327 191.5 332.5 191.5 321.5 202.5Z" stroke="#2F528F" stroke-width="1.33333" stroke-miterlimit="8" stroke-opacity="0.701961" fill="#4472C4" fill-rule="evenodd" fill-opacity="0.701961"/><path d="M549.5 191 554.75 191 554.75 168.5 565.25 168.5 565.25 191 570.5 191 560 201.5Z" stroke="#2F528F" stroke-width="1.33333" stroke-miterlimit="8" stroke-opacity="0.701961" fill="#4472C4" fill-rule="evenodd" fill-opacity="0.701961"/><path d="M342.5 140 347.75 140 347.75 117.5 358.25 117.5 358.25 140 363.5 140 353 150.5Z" stroke="#2F528F" stroke-width="1.33333" stroke-miterlimit="8" fill="#4472C4" fill-rule="evenodd"/><text font-family="Yu Gothic,Yu Gothic_MSFontService,sans-serif" font-weight="400" font-size="13" transform="translate(387.634 139)">モデル要素と配置先のマッピング情報追加</text><rect x="92.5001" y="229.5" width="142" height="40" stroke="#000000" stroke-width="1.33333" stroke-miterlimit="8" fill="#FFFFFF"/><text font-family="Yu Gothic,Yu Gothic_MSFontService,sans-serif" font-weight="400" font-size="13" transform="translate(109.232 253)">サービスドメイン</text><rect x="92.5001" y="276.5" width="142" height="40" stroke="#000000" stroke-width="1.33333" stroke-miterlimit="8" fill="#FFFFFF"/><text font-family="Yu Gothic,Yu Gothic_MSFontService,sans-serif" font-weight="400" font-size="13" transform="translate(102.565 300)">選択された実装技術</text><rect x="92.5001" y="324.5" width="142" height="40" stroke="#000000" stroke-width="1.33333" stroke-miterlimit="8" fill="#FFFFFF"/><text font-family="Yu Gothic,Yu Gothic_MSFontService,sans-serif" font-weight="400" font-size="13" transform="translate(109.232 348)">コード変換ルール</text><rect x="85.5001" y="236.5" width="142" height="40" stroke="#000000" stroke-width="1.33333" stroke-miterlimit="8" fill="#FFFFFF"/><text font-family="Yu Gothic,Yu Gothic_MSFontService,sans-serif" font-weight="400" font-size="13" transform="translate(102.303 260)">サービスドメイン</text><rect x="85.5001" y="284.5" width="142" height="40" stroke="#000000" stroke-width="1.33333" stroke-miterlimit="8" fill="#FFFFFF"/><text font-family="Yu Gothic,Yu Gothic_MSFontService,sans-serif" font-weight="400" font-size="13" transform="translate(95.6363 308)">選択された実装技術</text><rect x="85.5001" y="331.5" width="142" height="41" stroke="#000000" stroke-width="1.33333" stroke-miterlimit="8" fill="#FFFFFF"/><text font-family="Yu Gothic,Yu Gothic_MSFontService,sans-serif" font-weight="400" font-size="13" transform="translate(102.303 355)">コード変換ルール</text><rect x="262.5" y="212.5" width="182" height="177" stroke="#000000" stroke-width="1.33333" stroke-miterlimit="8" fill="#F2F2F2"/><rect x="289.5" y="222.5" width="141" height="40" stroke="#000000" stroke-width="1.33333" stroke-miterlimit="8" fill="#FFFFFF"/><text font-family="Yu Gothic,Yu Gothic_MSFontService,sans-serif" font-weight="400" font-size="13" transform="translate(306.208 246)">サービスドメイン</text><rect x="289.5" y="269.5" width="141" height="40" stroke="#000000" stroke-width="1.33333" stroke-miterlimit="8" fill="#FFFFFF"/><text font-family="Yu Gothic,Yu Gothic_MSFontService,sans-serif" font-weight="400" font-size="13" transform="translate(299.541 293)">選択された実装技術</text><rect x="289.5" y="316.5" width="141" height="41" stroke="#000000" stroke-width="1.33333" stroke-miterlimit="8" fill="#FFFFFF"/><text font-family="Yu Gothic,Yu Gothic_MSFontService,sans-serif" font-weight="400" font-size="13" transform="translate(306.208 341)">コード変換<tspan font-size="13" x="66.6667" y="0">ルール</tspan></text><rect x="281.5" y="229.5" width="141" height="40" stroke="#000000" stroke-width="1.33333" stroke-miterlimit="8" fill="#FFFFFF"/><text font-family="Yu Gothic,Yu Gothic_MSFontService,sans-serif" font-weight="400" font-size="13" transform="translate(298.207 253)">サービスドメイン</text><rect x="281.5" y="276.5" width="141" height="40" stroke="#000000" stroke-width="1.33333" stroke-miterlimit="8" fill="#FFFFFF"/><text font-family="Yu Gothic,Yu Gothic_MSFontService,sans-serif" font-weight="400" font-size="13" transform="translate(291.541 300)">選択された実装技術</text><rect x="281.5" y="324.5" width="141" height="40" stroke="#000000" stroke-width="1.33333" stroke-miterlimit="8" fill="#FFFFFF"/><text font-family="Yu Gothic,Yu Gothic_MSFontService,sans-serif" font-weight="400" font-size="13" transform="translate(298.207 348)">コード変換<tspan font-size="13" x="66.6667" y="0">ルール</tspan></text><rect x="274.5" y="236.5" width="142" height="40" stroke="#000000" stroke-width="1.33333" stroke-miterlimit="8" fill="#FFFFFF"/><text font-family="Yu Gothic,Yu Gothic_MSFontService,sans-serif" font-weight="400" font-size="13" transform="translate(291.279 260)">サービスドメイン</text><rect x="274.5" y="284.5" width="142" height="40" stroke="#000000" stroke-width="1.33333" stroke-miterlimit="8" fill="#FFFFFF"/><text font-family="Yu Gothic,Yu Gothic_MSFontService,sans-serif" font-weight="400" font-size="13" transform="translate(284.612 308)">選択された実装技術</text><rect x="274.5" y="331.5" width="142" height="41" stroke="#000000" stroke-width="1.33333" stroke-miterlimit="8" fill="#FFFFFF"/><text font-family="Yu Gothic,Yu Gothic_MSFontService,sans-serif" font-weight="400" font-size="13" transform="translate(291.279 355)">コード変換<tspan font-size="13" x="66.6667" y="0">ルール</tspan></text><rect x="469.5" y="212.5" width="182" height="177" stroke="#000000" stroke-width="1.33333" stroke-miterlimit="8" fill="#F2F2F2"/><rect x="496.5" y="222.5" width="142" height="40" stroke="#000000" stroke-width="1.33333" stroke-miterlimit="8" fill="#FFFFFF"/><text font-family="Yu Gothic,Yu Gothic_MSFontService,sans-serif" font-weight="400" font-size="13" transform="translate(513.726 246)">サービスドメイン</text><rect x="496.5" y="269.5" width="142" height="40" stroke="#000000" stroke-width="1.33333" stroke-miterlimit="8" fill="#FFFFFF"/><text font-family="Yu Gothic,Yu Gothic_MSFontService,sans-serif" font-weight="400" font-size="13" transform="translate(507.059 293)">選択された実装技術</text><rect x="496.5" y="316.5" width="142" height="41" stroke="#000000" stroke-width="1.33333" stroke-miterlimit="8" fill="#FFFFFF"/><text font-family="Yu Gothic,Yu Gothic_MSFontService,sans-serif" font-weight="400" font-size="13" transform="translate(513.726 341)">コード変換<tspan font-size="13" x="66.6667" y="0">ルール</tspan></text><rect x="488.5" y="229.5" width="142" height="40" stroke="#000000" stroke-width="1.33333" stroke-miterlimit="8" fill="#FFFFFF"/><text font-family="Yu Gothic,Yu Gothic_MSFontService,sans-serif" font-weight="400" font-size="13" transform="translate(505.725 253)">サービスドメイン</text><rect x="488.5" y="276.5" width="142" height="40" stroke="#000000" stroke-width="1.33333" stroke-miterlimit="8" fill="#FFFFFF"/><text font-family="Yu Gothic,Yu Gothic_MSFontService,sans-serif" font-weight="400" font-size="13" transform="translate(499.059 300)">選択された実装技術</text><rect x="488.5" y="324.5" width="142" height="40" stroke="#000000" stroke-width="1.33333" stroke-miterlimit="8" fill="#FFFFFF"/><text font-family="Yu Gothic,Yu Gothic_MSFontService,sans-serif" font-weight="400" font-size="13" transform="translate(505.726 348)">コード変換<tspan font-size="13" x="66.6667" y="0">ルール</tspan></text><rect x="481.5" y="236.5" width="142" height="40" stroke="#000000" stroke-width="1.33333" stroke-miterlimit="8" fill="#FFFFFF"/><text font-family="Yu Gothic,Yu Gothic_MSFontService,sans-serif" font-weight="400" font-size="13" transform="translate(498.797 260)">サービスドメイン</text><rect x="481.5" y="284.5" width="142" height="40" stroke="#000000" stroke-width="1.33333" stroke-miterlimit="8" fill="#FFFFFF"/><text font-family="Yu Gothic,Yu Gothic_MSFontService,sans-serif" font-weight="400" font-size="13" transform="translate(492.13 308)">選択された実装技術</text><rect x="481.5" y="331.5" width="142" height="41" stroke="#000000" stroke-width="1.33333" stroke-miterlimit="8" fill="#FFFFFF"/><text font-family="Yu Gothic,Yu Gothic_MSFontService,sans-serif" font-weight="400" font-size="13" transform="translate(498.797 355)">コード変換<tspan font-size="13" x="66.6667" y="0">ルール</tspan></text><path d="M464.105 298.5 446.5 298.5" stroke="#000000" stroke-width="3" stroke-miterlimit="8" stroke-dasharray="3 3" fill="none" fill-rule="evenodd"/><path d="M168.5 447.5 191.5 447.5 191.5 473.667 187.667 477.5 168.5 477.5Z" fill="#FFFFFF" fill-rule="evenodd"/><path d="M187.667 477.5 188.433 474.433 191.5 473.667Z" fill="#CDCDCD" fill-rule="evenodd"/><path d="M187.667 477.5 188.433 474.433 191.5 473.667 187.667 477.5 168.5 477.5 168.5 447.5 191.5 447.5 191.5 473.667" stroke="#000000" stroke-width="1.33333" stroke-miterlimit="8" fill="none" fill-rule="evenodd"/><path d="M215.105 463.5 197.5 463.5" stroke="#000000" stroke-width="3" stroke-miterlimit="8" stroke-dasharray="3 3" fill="none" fill-rule="evenodd"/><path d="M278.5 445.5 301.5 445.5 301.5 471.667 297.667 475.5 278.5 475.5Z" fill="#FFFFFF" fill-rule="evenodd"/><path d="M297.667 475.5 298.433 472.433 301.5 471.667Z" fill="#CDCDCD" fill-rule="evenodd"/><path d="M297.667 475.5 298.433 472.433 301.5 471.667 297.667 475.5 278.5 475.5 278.5 445.5 301.5 445.5 301.5 471.667" stroke="#000000" stroke-width="1.33333" stroke-miterlimit="8" fill="none" fill-rule="evenodd"/><path d="M306.5 445.5 329.5 445.5 329.5 471.667 325.667 475.5 306.5 475.5Z" fill="#FFFFFF" fill-rule="evenodd"/><path d="M325.667 475.5 326.433 472.433 329.5 471.667Z" fill="#CDCDCD" fill-rule="evenodd"/><path d="M325.667 475.5 326.433 472.433 329.5 471.667 325.667 475.5 306.5 475.5 306.5 445.5 329.5 445.5 329.5 471.667" stroke="#000000" stroke-width="1.33333" stroke-miterlimit="8" fill="none" fill-rule="evenodd"/><path d="M267.5 439.834C267.5 434.127 272.127 429.5 277.834 429.5L382.167 429.5C387.874 429.5 392.5 434.127 392.5 439.834L392.5 481.167C392.5 486.874 387.874 491.5 382.167 491.5L277.834 491.5C272.127 491.5 267.5 486.874 267.5 481.167Z" stroke="#4472C4" stroke-width="1.33333" stroke-miterlimit="8" fill="none" fill-rule="evenodd"/><path d="M333.5 445.5 356.5 445.5 356.5 471.667 352.667 475.5 333.5 475.5Z" fill="#FFFFFF" fill-rule="evenodd"/><path d="M352.667 475.5 353.433 472.433 356.5 471.667Z" fill="#CDCDCD" fill-rule="evenodd"/><path d="M352.667 475.5 353.433 472.433 356.5 471.667 352.667 475.5 333.5 475.5 333.5 445.5 356.5 445.5 356.5 471.667" stroke="#000000" stroke-width="1.33333" stroke-miterlimit="8" fill="none" fill-rule="evenodd"/><path d="M380.105 461.5 362.5 461.5" stroke="#000000" stroke-width="3" stroke-miterlimit="8" stroke-dasharray="3 3" fill="none" fill-rule="evenodd"/><path d="M540.5 445.5 563.5 445.5 563.5 471.667 559.667 475.5 540.5 475.5Z" fill="#FFFFFF" fill-rule="evenodd"/><path d="M559.667 475.5 560.433 472.433 563.5 471.667Z" fill="#CDCDCD" fill-rule="evenodd"/><path d="M559.667 475.5 560.433 472.433 563.5 471.667 559.667 475.5 540.5 475.5 540.5 445.5 563.5 445.5 563.5 471.667" stroke="#000000" stroke-width="1.33333" stroke-miterlimit="8" fill="none" fill-rule="evenodd"/><path d="M567.5 445.5 590.5 445.5 590.5 471.667 586.667 475.5 567.5 475.5Z" fill="#FFFFFF" fill-rule="evenodd"/><path d="M586.667 475.5 587.433 472.433 590.5 471.667Z" fill="#CDCDCD" fill-rule="evenodd"/><path d="M586.667 475.5 587.433 472.433 590.5 471.667 586.667 475.5 567.5 475.5 567.5 445.5 590.5 445.5 590.5 471.667" stroke="#000000" stroke-width="1.33333" stroke-miterlimit="8" fill="none" fill-rule="evenodd"/><path d="M529.5 439.834C529.5 434.127 534.127 429.5 539.834 429.5L643.166 429.5C648.874 429.5 653.5 434.127 653.5 439.834L653.5 481.166C653.5 486.874 648.874 491.5 643.166 491.5L539.834 491.5C534.127 491.5 529.5 486.874 529.5 481.166Z" stroke="#4472C4" stroke-width="1.33333" stroke-miterlimit="8" fill="none" fill-rule="evenodd"/><path d="M594.5 445.5 617.5 445.5 617.5 471.667 613.667 475.5 594.5 475.5Z" fill="#FFFFFF" fill-rule="evenodd"/><path d="M613.667 475.5 614.433 472.433 617.5 471.667Z" fill="#CDCDCD" fill-rule="evenodd"/><path d="M613.667 475.5 614.433 472.433 617.5 471.667 613.667 475.5 594.5 475.5 594.5 445.5 617.5 445.5 617.5 471.667" stroke="#000000" stroke-width="1.33333" stroke-miterlimit="8" fill="none" fill-rule="evenodd"/><path d="M641.105 461.5 623.5 461.5" stroke="#000000" stroke-width="3" stroke-miterlimit="8" stroke-dasharray="3 3" fill="none" fill-rule="evenodd"/><path d="M158.5 419 163.75 419 163.75 395.5 174.25 395.5 174.25 419 179.5 419 169 429.5Z" stroke="#2F528F" stroke-width="1.33333" stroke-miterlimit="8" stroke-opacity="0.701961" fill="#4472C4" fill-rule="evenodd" fill-opacity="0.701961"/><path d="M308.5 418 313.75 418 313.75 394.5 324.25 394.5 324.25 418 329.5 418 319 428.5Z" stroke="#2F528F" stroke-width="1.33333" stroke-miterlimit="8" stroke-opacity="0.701961" fill="#4472C4" fill-rule="evenodd" fill-opacity="0.701961"/><path d="M579.5 417 584.75 417 584.75 393.5 595.25 393.5 595.25 417 600.5 417 590 427.5Z" stroke="#2F528F" stroke-width="1.33333" stroke-miterlimit="8" stroke-opacity="0.701961" fill="#4472C4" fill-rule="evenodd" fill-opacity="0.701961"/><path d="M124 168C124 162.753 124.709 158.5 125.583 158.5L353.917 158.5C354.791 158.5 355.5 154.247 355.5 149 355.5 154.247 356.209 158.5 357.083 158.5L585.417 158.5C586.291 158.5 587 162.754 587 168.001" stroke="#4472C4" stroke-width="2" stroke-miterlimit="8" fill="none" fill-rule="evenodd"/><path d="M7.09079e-06-1 8.13943-0.999942 8.13941 1.00006-7.09079e-06 1ZM6.80612-3.99995 14.8061 0.000104987 6.80606 4.00005Z" fill="#4472C4" transform="matrix(-1 0 0 1 377.806 136)"/><path d="M157.5 522 162.75 522 162.75 498.5 173.25 498.5 173.25 522 178.5 522 168 532.5Z" stroke="#2F528F" stroke-width="1.33333" stroke-miterlimit="8" stroke-opacity="0.701961" fill="#4472C4" fill-rule="evenodd" fill-opacity="0.701961"/><path d="M272 555.5C272 541.417 293.938 530 321 530 348.062 530 370 541.417 370 555.5 370 569.583 348.062 581 321 581 293.938 581 272 569.583 272 555.5Z" stroke="#4472C4" stroke-width="2" stroke-miterlimit="8" fill="#FFFFFF" fill-rule="evenodd"/><text font-family="Calibri,Calibri_MSFontService,sans-serif" font-weight="400" font-size="13" transform="translate(307.777 560)">build</text><path d="M311.5 521.5 317 521.5 317 498.5 328 498.5 328 521.5 333.5 521.5 322.5 532.5Z" stroke="#2F528F" stroke-width="1.33333" stroke-miterlimit="8" stroke-opacity="0.701961" fill="#4472C4" fill-rule="evenodd" fill-opacity="0.701961"/><path d="M157.5 649 162.75 649 162.75 586.5 173.25 586.5 173.25 649 178.5 649 168 659.5Z" stroke="#2F528F" stroke-width="1.33333" stroke-miterlimit="8" stroke-opacity="0.701961" fill="#4472C4" fill-rule="evenodd" fill-opacity="0.701961"/><path d="M118 617.5C118 603.417 140.162 592 167.5 592 194.838 592 217 603.417 217 617.5 217 631.583 194.838 643 167.5 643 140.162 643 118 631.583 118 617.5Z" stroke="#4472C4" stroke-width="2" stroke-miterlimit="8" fill="#FFFFFF" fill-rule="evenodd"/><text font-family="Calibri,Calibri_MSFontService,sans-serif" font-weight="400" font-size="13" transform="translate(148.661 622)">Deploy</text><path d="M311.5 647 316.75 647 316.75 584.5 327.25 584.5 327.25 647 332.5 647 322 657.5Z" stroke="#2F528F" stroke-width="1.33333" stroke-miterlimit="8" stroke-opacity="0.701961" fill="#4472C4" fill-rule="evenodd" fill-opacity="0.701961"/><path d="M272 615.5C272 601.417 293.938 590 321 590 348.062 590 370 601.417 370 615.5 370 629.583 348.062 641 321 641 293.938 641 272 629.583 272 615.5Z" stroke="#4472C4" stroke-width="2" stroke-miterlimit="8" fill="#FFFFFF" fill-rule="evenodd"/><text font-family="Calibri,Calibri_MSFontService,sans-serif" font-weight="400" font-size="13" transform="translate(302.361 620)">Deploy</text><g clip-path="url(#clip7)"><g clip-path="url(#clip8)"><g clip-path="url(#clip9)"><path d="M450.906 718.537 450.906 713.351 445.094 713.351 445.094 718.537C444.767 718.788 444.477 719.079 444.225 719.405L431.107 719.405 431.107 725.218 444.225 725.218C445.1 726.352 446.457 727.095 448 727.095 449.543 727.095 450.9 726.352 451.775 725.218L464.893 725.218 464.893 719.405 451.775 719.405C451.523 719.079 451.233 718.788 450.906 718.537Z" fill="#4B4B4B"/><path d="M417 672.905 417 690.343 479 690.343 479 672.905 417 672.905ZM469.797 681.624C469.797 683.229 468.496 684.53 466.891 684.53 465.286 684.53 463.984 683.229 463.984 681.624 463.984 680.019 465.286 678.718 466.891 678.718 468.496 678.718 469.797 680.019 469.797 681.624ZM422.819 685.486 426.688 677.749 429.369 677.749 430.556 677.762 426.688 685.499 424 685.499 422.819 685.486ZM430.569 685.486 434.438 677.749 437.119 677.749 438.306 677.762 434.438 685.499 431.75 685.499 430.569 685.486ZM438.319 685.486 442.188 677.749 444.869 677.749 446.056 677.762 442.188 685.499 439.5 685.499 438.319 685.486Z" fill="#4B4B4B"/><path d="M450.906 692.038 445.094 692.038 445.094 694.218 417 694.218 417 711.655 479 711.655 479 694.218 450.906 694.218 450.906 692.038ZM422.819 706.799 426.688 699.062 429.369 699.062 430.556 699.074 426.688 706.812 424 706.812 422.819 706.799ZM430.569 706.799 434.438 699.062 437.119 699.062 438.306 699.074 434.438 706.812 431.75 706.812 430.569 706.799ZM438.319 706.799 442.188 699.062 444.869 699.062 446.056 699.074 442.188 706.812 439.5 706.812 438.319 706.799ZM463.984 702.937C463.984 701.331 465.286 700.03 466.891 700.03 468.496 700.03 469.797 701.331 469.797 702.937 469.797 704.542 468.496 705.843 466.891 705.843 465.286 705.843 463.984 704.542 463.984 702.937Z" fill="#4B4B4B"/></g></g></g><path d="M503.105 698.5 485.5 698.5" stroke="#000000" stroke-width="3" stroke-miterlimit="8" stroke-dasharray="3 3" fill="none" fill-rule="evenodd"/><path d="M0 0 97.157 1.05995" stroke="#000000" stroke-width="3" stroke-miterlimit="8" stroke-dasharray="3 3" fill="none" fill-rule="evenodd" transform="matrix(-1 0 0 1 514.657 462.5)"/><path d="M540 553.5C540 539.417 561.938 528 589 528 616.062 528 638 539.417 638 553.5 638 567.583 616.062 579 589 579 561.938 579 540 567.583 540 553.5Z" stroke="#4472C4" stroke-width="2" stroke-miterlimit="8" fill="#FFFFFF" fill-rule="evenodd"/><text font-family="Calibri,Calibri_MSFontService,sans-serif" font-weight="400" font-size="13" transform="translate(575.595 558)">build</text><path d="M579.5 520 584.75 520 584.75 496.5 595.25 496.5 595.25 520 600.5 520 590 530.5Z" stroke="#2F528F" stroke-width="1.33333" stroke-miterlimit="8" stroke-opacity="0.701961" fill="#4472C4" fill-rule="evenodd" fill-opacity="0.701961"/><path d="M578.5 644.5 584 644.5 584 583.5 595 583.5 595 644.5 600.5 644.5 589.5 655.5Z" stroke="#2F528F" stroke-width="1.33333" stroke-miterlimit="8" stroke-opacity="0.701961" fill="#4472C4" fill-rule="evenodd" fill-opacity="0.701961"/><path d="M540 614C540 599.641 561.938 588 589 588 616.062 588 638 599.641 638 614 638 628.359 616.062 640 589 640 561.938 640 540 628.359 540 614Z" stroke="#4472C4" stroke-width="2" stroke-miterlimit="8" fill="#FFFFFF" fill-rule="evenodd"/><text font-family="Calibri,Calibri_MSFontService,sans-serif" font-weight="400" font-size="13" transform="translate(570.179 618)">Deploy</text></g></svg>