<svg width="608" height="372" xmlns="http://www.w3.org/2000/svg" xmlns:xlink="http://www.w3.org/1999/xlink" overflow="hidden"><defs><clipPath id="clip0"><rect x="56" y="70" width="608" height="372"/></clipPath></defs><g clip-path="url(#clip0)" transform="translate(-56 -70)"><rect x="58.5001" y="71.5001" width="604" height="370" stroke="#D9D9D9" stroke-width="1.33333" stroke-miterlimit="8" fill="none"/><rect x="65" y="113" width="162" height="267" fill="#F2F2F2"/><text font-family="Yu Gothic,Yu Gothic_MSFontService,sans-serif" font-weight="400" font-size="16" transform="translate(130.279 133)">順接</text><rect x="484" y="113" width="169" height="267" fill="#F2F2F2"/><text font-family="Yu Gothic,Yu Gothic_MSFontService,sans-serif" font-weight="400" font-size="16" transform="translate(552.902 133)">反復</text><rect x="239" y="113" width="234" height="267" fill="#F2F2F2"/><text font-family="Yu Gothic,Yu Gothic_MSFontService,sans-serif" font-weight="400" font-size="16" transform="translate(339.711 133)">分岐</text><rect x="97.5001" y="173.5" width="96" height="34" stroke="#000000" stroke-width="1.33333" stroke-miterlimit="8" fill="#FFFFFF"/><text font-family="Yu Gothic,Yu Gothic_MSFontService,sans-serif" font-weight="400" font-size="13" transform="translate(127.833 194)">処理<tspan font-family="Calibri,Calibri_MSFontService,sans-serif" font-size="13" x="26.6667" y="0">A</tspan></text><rect x="97.5001" y="236.5" width="96" height="34" stroke="#000000" stroke-width="1.33333" stroke-miterlimit="8" fill="#FFFFFF"/><text font-family="Yu Gothic,Yu Gothic_MSFontService,sans-serif" font-weight="400" font-size="13" transform="translate(128 257)">処理<tspan font-family="Calibri,Calibri_MSFontService,sans-serif" font-size="13" x="26.6667" y="0">B</tspan></text><rect x="97.5001" y="299.5" width="96" height="34" stroke="#000000" stroke-width="1.33333" stroke-miterlimit="8" fill="#FFFFFF"/><text font-family="Yu Gothic,Yu Gothic_MSFontService,sans-serif" font-weight="400" font-size="13" transform="translate(128.083 320)">処理<tspan font-family="Calibri,Calibri_MSFontService,sans-serif" font-size="13" x="26.6667" y="0">C</tspan></text><path d="M145.5 207.5 145.5 236.5" stroke="#000000" stroke-width="0.666667" stroke-miterlimit="8" fill="none" fill-rule="evenodd"/><path d="M145.5 270.5 145.5 299.5" stroke="#000000" stroke-width="0.666667" stroke-miterlimit="8" fill="none" fill-rule="evenodd"/><path d="M510.5 279.5 558.5 247.5 606.5 279.5 558.5 311.5Z" stroke="#000000" stroke-width="1.33333" stroke-miterlimit="8" fill="#FFFFFF" fill-rule="evenodd"/><text font-family="Yu Gothic,Yu Gothic_MSFontService,sans-serif" font-weight="400" font-size="13" transform="translate(544.98 267)">終了<tspan font-size="13" x="0" y="16">条件</tspan><tspan font-size="13" x="0" y="32">判定</tspan></text><rect x="510.5" y="199.5" width="96" height="34" stroke="#000000" stroke-width="1.33333" stroke-miterlimit="8" fill="#FFFFFF"/><text font-family="Yu Gothic,Yu Gothic_MSFontService,sans-serif" font-weight="400" font-size="13" transform="translate(541.146 220)">処理<tspan font-family="Calibri,Calibri_MSFontService,sans-serif" font-size="13" x="26.6667" y="0">A</tspan></text><path d="M145.5 144.5 145.5 173.5" stroke="#000000" stroke-width="0.666667" stroke-miterlimit="8" fill="none" fill-rule="evenodd"/><path d="M145.5 333.5 145.5 362.5" stroke="#000000" stroke-width="0.666667" stroke-miterlimit="8" fill="none" fill-rule="evenodd"/><path d="M558.5 233.5 558.5 247.34" stroke="#000000" stroke-width="0.666667" stroke-miterlimit="8" fill="none" fill-rule="evenodd"/><path d="M558.5 311.5 558.5 325.34" stroke="#000000" stroke-width="0.666667" stroke-miterlimit="8" fill="none" fill-rule="evenodd"/><path d="M558.5 170.5 558.5 199.5" stroke="#000000" stroke-width="0.666667" stroke-miterlimit="8" fill="none" fill-rule="evenodd"/><path d="M565.167 189.167 630.833 189.167 630.833 280.243 606.5 280.243 606.5 279.577 630.5 279.577 630.167 279.91 630.167 189.5 630.5 189.833 565.167 189.833ZM566.5 193.5 558.5 189.5 566.5 185.5Z"/><text font-family="Calibri,Calibri_MSFontService,sans-serif" font-weight="400" font-size="13" transform="translate(567.962 317)">T<tspan font-size="13" x="43.0001" y="-44">F</tspan></text><path d="M307.5 224.5 355.5 192.5 403.5 224.5 355.5 256.5Z" stroke="#000000" stroke-width="1.33333" stroke-miterlimit="8" fill="#FFFFFF" fill-rule="evenodd"/><text font-family="Yu Gothic,Yu Gothic_MSFontService,sans-serif" font-weight="400" font-size="13" transform="translate(341.667 220)">論理<tspan font-size="13" x="6.66669" y="16">式</tspan></text><path d="M355.5 178.5 355.5 192.34" stroke="#000000" stroke-width="0.666667" stroke-miterlimit="8" fill="none" fill-rule="evenodd"/><rect x="246.5" y="288.5" width="63" height="34" stroke="#000000" stroke-width="1.33333" stroke-miterlimit="8" fill="#FFFFFF"/><text font-family="Yu Gothic,Yu Gothic_MSFontService,sans-serif" font-weight="400" font-size="13" transform="translate(260.407 309)">処理<tspan font-family="Calibri,Calibri_MSFontService,sans-serif" font-size="13" x="26.6667" y="0">A</tspan></text><rect x="323.5" y="287.5" width="63" height="34" stroke="#000000" stroke-width="1.33333" stroke-miterlimit="8" fill="#FFFFFF"/><text font-family="Yu Gothic,Yu Gothic_MSFontService,sans-serif" font-weight="400" font-size="13" transform="translate(337.525 308)">処理<tspan font-family="Calibri,Calibri_MSFontService,sans-serif" font-size="13" x="26.6667" y="0">B</tspan></text><rect x="400.5" y="287.5" width="63" height="34" stroke="#000000" stroke-width="1.33333" stroke-miterlimit="8" fill="#FFFFFF"/><text font-family="Yu Gothic,Yu Gothic_MSFontService,sans-serif" font-weight="400" font-size="13" transform="translate(414.559 308)">処理<tspan font-family="Calibri,Calibri_MSFontService,sans-serif" font-size="13" x="26.6667" y="0">C</tspan></text><path d="M0 0 0.000104987 30.505" stroke="#000000" stroke-width="0.666667" stroke-miterlimit="8" fill="none" fill-rule="evenodd" transform="matrix(-1 0 0 1 355.5 256.5)"/><path d="M0 0 29.426 0 29.426 63.915" stroke="#000000" stroke-width="0.666667" stroke-miterlimit="8" fill="none" fill-rule="evenodd" transform="matrix(-1 1.22465e-16 1.22465e-16 1 307.926 224.5)"/><path d="M403.5 224.5 431.976 224.5 431.976 287.165" stroke="#000000" stroke-width="0.666667" stroke-miterlimit="8" fill="none" fill-rule="evenodd"/><text font-family="Calibri,Calibri_MSFontService,sans-serif" font-weight="400" font-size="13" transform="translate(295.149 219)">A<tspan font-size="13" x="46.3389" y="48">B</tspan><tspan font-size="13" x="114.773" y="-3">C</tspan><tspan font-family="Yu Gothic,Yu Gothic_MSFontService,sans-serif" font-size="13" x="-3.8801" y="-126">構造化プログラミング</tspan><tspan font-family="Yu Gothic,Yu Gothic_MSFontService,sans-serif" font-size="13" x="-126.347" y="201">処理</tspan>A<tspan font-family="Yu Gothic,Yu Gothic_MSFontService,sans-serif" font-size="13" x="-92.0134" y="201">などは内部構造として、分岐や反復を持つことができる</tspan></text></g></svg>