<svg width="608" height="722" xmlns="http://www.w3.org/2000/svg" xmlns:xlink="http://www.w3.org/1999/xlink" overflow="hidden"><defs><clipPath id="clip0"><rect x="56" y="46" width="608" height="722"/></clipPath><clipPath id="clip1"><rect x="181" y="148" width="55" height="54"/></clipPath><clipPath id="clip2"><rect x="181" y="148" width="55" height="54"/></clipPath><clipPath id="clip3"><rect x="181" y="148" width="55" height="54"/></clipPath><clipPath id="clip4"><rect x="181" y="315" width="55" height="54"/></clipPath><clipPath id="clip5"><rect x="181" y="315" width="55" height="54"/></clipPath><clipPath id="clip6"><rect x="181" y="315" width="55" height="54"/></clipPath><clipPath id="clip7"><rect x="453" y="156" width="120" height="120"/></clipPath><clipPath id="clip8"><rect x="453" y="156" width="120" height="120"/></clipPath><clipPath id="clip9"><rect x="453" y="156" width="120" height="120"/></clipPath><clipPath id="clip10"><rect x="483" y="181" width="54" height="54"/></clipPath><clipPath id="clip11"><rect x="483" y="181" width="54" height="54"/></clipPath><clipPath id="clip12"><rect x="483" y="181" width="54" height="54"/></clipPath><clipPath id="clip13"><rect x="472" y="316" width="32" height="31"/></clipPath><clipPath id="clip14"><rect x="472" y="316" width="32" height="31"/></clipPath><clipPath id="clip15"><rect x="472" y="316" width="32" height="31"/></clipPath><clipPath id="clip16"><rect x="480" y="322" width="14" height="15"/></clipPath><clipPath id="clip17"><rect x="480" y="322" width="14" height="15"/></clipPath><clipPath id="clip18"><rect x="480" y="322" width="14" height="15"/></clipPath><clipPath id="clip19"><rect x="532" y="315" width="32" height="32"/></clipPath><clipPath id="clip20"><rect x="532" y="315" width="32" height="32"/></clipPath><clipPath id="clip21"><rect x="532" y="315" width="32" height="32"/></clipPath><clipPath id="clip22"><rect x="540" y="322" width="14" height="14"/></clipPath><clipPath id="clip23"><rect x="540" y="322" width="14" height="14"/></clipPath><clipPath id="clip24"><rect x="540" y="322" width="14" height="14"/></clipPath><clipPath id="clip25"><rect x="354" y="188" width="54" height="54"/></clipPath><clipPath id="clip26"><rect x="354" y="188" width="54" height="54"/></clipPath><clipPath id="clip27"><rect x="354" y="188" width="54" height="54"/></clipPath><clipPath id="clip28"><rect x="453" y="431" width="120" height="121"/></clipPath><clipPath id="clip29"><rect x="453" y="431" width="120" height="121"/></clipPath><clipPath id="clip30"><rect x="453" y="431" width="120" height="121"/></clipPath><clipPath id="clip31"><rect x="483" y="457" width="54" height="54"/></clipPath><clipPath id="clip32"><rect x="483" y="457" width="54" height="54"/></clipPath><clipPath id="clip33"><rect x="483" y="457" width="54" height="54"/></clipPath><clipPath id="clip34"><rect x="472" y="591" width="32" height="32"/></clipPath><clipPath id="clip35"><rect x="472" y="591" width="32" height="32"/></clipPath><clipPath id="clip36"><rect x="472" y="591" width="32" height="32"/></clipPath><clipPath id="clip37"><rect x="480" y="598" width="14" height="14"/></clipPath><clipPath id="clip38"><rect x="480" y="598" width="14" height="14"/></clipPath><clipPath id="clip39"><rect x="480" y="598" width="14" height="14"/></clipPath><clipPath id="clip40"><rect x="532" y="590" width="32" height="32"/></clipPath><clipPath id="clip41"><rect x="532" y="590" width="32" height="32"/></clipPath><clipPath id="clip42"><rect x="532" y="590" width="32" height="32"/></clipPath><clipPath id="clip43"><rect x="540" y="597" width="14" height="14"/></clipPath><clipPath id="clip44"><rect x="540" y="597" width="14" height="14"/></clipPath><clipPath id="clip45"><rect x="540" y="597" width="14" height="14"/></clipPath><clipPath id="clip46"><rect x="354" y="463" width="54" height="54"/></clipPath><clipPath id="clip47"><rect x="354" y="463" width="54" height="54"/></clipPath><clipPath id="clip48"><rect x="354" y="463" width="54" height="54"/></clipPath></defs><g clip-path="url(#clip0)" transform="translate(-56 -46)"><rect x="58.5001" y="47.5001" width="604" height="720" stroke="#D9D9D9" stroke-width="1.33333" stroke-miterlimit="8" fill="none"/><rect x="80" y="65" width="214" height="670" fill="#F2F2F2"/><text font-family="Yu Gothic,Yu Gothic_MSFontService,sans-serif" font-weight="400" font-size="16" transform="translate(171 84)">値型</text><rect x="322" y="65" width="318" height="670" fill="#F2F2F2"/><text font-family="Yu Gothic,Yu Gothic_MSFontService,sans-serif" font-weight="400" font-size="16" transform="translate(456.674 84)">参照型</text><g clip-path="url(#clip1)"><g clip-path="url(#clip2)"><g clip-path="url(#clip3)"><path d="M43.4137 0 23.4936 0C22.0643 0 20.6923 0.568477 19.6811 1.57876L7.25562 14.005C6.24375 15.0161 5.67612 16.3882 5.67612 17.8183L5.67612 49.0898C5.67612 51.7972 7.87957 54 10.5872 54L43.4136 54C46.1203 54 48.3238 51.7972 48.3238 49.0898L48.3238 4.90873C48.3239 2.20198 46.1203 0 43.4137 0ZM21.7527 3.41181 21.7527 14.4493C21.7527 15.6425 21.2884 16.1075 20.0953 16.1075L9.05776 16.1075 21.7527 3.41181ZM45.5623 49.0898C45.5623 50.2749 44.5981 51.2384 43.4137 51.2384L10.5872 51.2384C9.40117 51.2384 8.43771 50.2749 8.43771 49.0898L8.43771 18.5623 21.5738 18.5623C23.0261 18.5623 24.2082 17.3803 24.2082 15.9272L24.2082 2.76159 43.4137 2.76159C44.5981 2.76159 45.5623 3.72421 45.5623 4.90873L45.5623 49.0898Z" fill="#4B4B4B" transform="matrix(1.01852 0 0 1 181 148)"/></g></g></g><text font-family="Calibri,Calibri_MSFontService,sans-serif" font-weight="400" font-size="24" transform="translate(196.125 182)">12</text><g clip-path="url(#clip4)"><g clip-path="url(#clip5)"><g clip-path="url(#clip6)"><path d="M43.4137 0 23.4936 0C22.0643 0 20.6923 0.568477 19.6811 1.57876L7.25562 14.005C6.24375 15.0161 5.67612 16.3882 5.67612 17.8183L5.67612 49.0898C5.67612 51.7972 7.87957 54 10.5872 54L43.4136 54C46.1203 54 48.3238 51.7972 48.3238 49.0898L48.3238 4.90873C48.3239 2.20198 46.1203 0 43.4137 0ZM21.7527 3.41181 21.7527 14.4493C21.7527 15.6425 21.2884 16.1075 20.0953 16.1075L9.05776 16.1075 21.7527 3.41181ZM45.5623 49.0898C45.5623 50.2749 44.5981 51.2384 43.4137 51.2384L10.5872 51.2384C9.40117 51.2384 8.43771 50.2749 8.43771 49.0898L8.43771 18.5623 21.5738 18.5623C23.0261 18.5623 24.2082 17.3803 24.2082 15.9272L24.2082 2.76159 43.4137 2.76159C44.5981 2.76159 45.5623 3.72421 45.5623 4.90873L45.5623 49.0898Z" fill="#4B4B4B" transform="matrix(1.01852 0 0 1 181 315)"/></g></g></g><text font-family="Calibri,Calibri_MSFontService,sans-serif" font-weight="400" font-size="24" transform="translate(202.268 350)">5</text><g clip-path="url(#clip7)"><g clip-path="url(#clip8)"><g clip-path="url(#clip9)"><path d="M572.119 233.943 572.117 233.937 557.232 166.763C557.232 166.759 557.23 166.757 557.23 166.755L557.223 166.725 557.221 166.725C555.962 160.833 550.761 156.618 544.73 156.618L481.267 156.618C475.236 156.618 470.035 160.833 468.775 166.727L468.772 166.725 453.883 233.928 453.879 233.943C453.293 236.721 453 239.55 453 242.386L453 261.599C453.002 269.213 459.171 275.38 466.784 275.382L559.216 275.382C566.829 275.381 572.998 269.213 573 261.599L573 242.386C573 239.548 572.705 236.719 572.119 233.943ZM461.14 235.476 476.024 168.31 476.028 168.292C476.547 165.815 478.735 164.041 481.267 164.041L544.73 164.041C547.261 164.041 549.449 165.815 549.969 168.292L549.972 168.307 564.858 235.489C564.901 235.691 564.916 235.902 564.956 236.107L555.07 236.107 542.921 174.39 483.077 174.39 470.93 236.106 461.043 236.106C461.082 235.898 461.099 235.684 461.142 235.476L461.14 235.476ZM551.286 236.106 526.983 236.106 526.419 238.149C524.788 244.035 519.404 248.373 512.998 248.368 506.592 248.373 501.208 244.035 499.577 238.149L499.013 236.106 474.714 236.106 486.129 178.102 539.869 178.102 551.286 236.106ZM565.577 261.599C565.575 263.367 564.87 264.933 563.715 266.096 562.551 267.253 560.984 267.958 559.217 267.959L466.784 267.959C465.017 267.958 463.449 267.253 462.286 266.096 461.13 264.933 460.425 263.367 460.423 261.599L460.423 242.386C460.423 242.146 460.455 241.911 460.459 241.673L494.916 241.673C497.792 248.853 504.787 253.929 512.998 253.935 521.209 253.929 528.204 248.853 531.08 241.673L565.541 241.673C565.545 241.911 565.577 242.146 565.577 242.386L565.577 261.599Z" fill="#4B4B4B"/></g></g></g><g clip-path="url(#clip10)"><g clip-path="url(#clip11)"><g clip-path="url(#clip12)"><path d="M526.414 181 506.494 181C505.064 181 503.692 181.568 502.681 182.579L490.256 195.005C489.244 196.016 488.676 197.388 488.676 198.818L488.676 230.09C488.676 232.797 490.88 235 493.587 235L526.414 235C529.12 235 531.324 232.797 531.324 230.09L531.324 185.909C531.324 183.202 529.12 181 526.414 181ZM504.753 184.412 504.753 195.449C504.753 196.642 504.288 197.107 503.095 197.107L492.058 197.107 504.753 184.412ZM528.562 230.09C528.562 231.275 527.598 232.238 526.414 232.238L493.587 232.238C492.401 232.238 491.438 231.275 491.438 230.09L491.438 199.562 504.574 199.562C506.026 199.562 507.208 198.38 507.208 196.927L507.208 183.762 526.414 183.762C527.598 183.762 528.562 184.724 528.562 185.909L528.562 230.09Z" fill="#4B4B4B"/></g></g></g><text font-family="Calibri,Calibri_MSFontService,sans-serif" font-weight="400" font-size="24" transform="translate(502.648 216)">7</text><g clip-path="url(#clip13)"><g clip-path="url(#clip14)"><g clip-path="url(#clip15)"><path d="M30.7725 20.1352 30.772 20.1338 26.9266 2.78037C26.9266 2.77946 26.9261 2.77898 26.9261 2.7785L26.9242 2.77056 26.9238 2.77056C26.5984 1.2486 25.2548 0.159662 23.6968 0.159662L7.3022 0.159662C5.7442 0.159662 4.40061 1.2486 4.07529 2.77105L4.07432 2.77056 0.22802 20.1314 0.227051 20.1352C0.0758047 20.8529 0 21.5836 0 22.3163L0 27.2796C0.000484375 29.2468 1.59408 30.8399 3.56076 30.8404L27.4392 30.8404C29.4059 30.84 30.9995 29.2468 31 27.2796L31 22.3163C31 21.5832 30.9237 20.8524 30.7725 20.1352ZM2.10291 20.5313 5.94782 3.18016 5.94879 3.1755C6.08308 2.53552 6.64817 2.07718 7.3022 2.07718L23.6968 2.07718C24.3509 2.07718 24.9159 2.53552 25.0503 3.1755L25.0512 3.17926 28.8966 20.5345C28.9078 20.587 28.9116 20.6413 28.9219 20.6942L26.3681 20.6942 23.2297 4.75081 7.76986 4.75081 4.6319 20.6941 2.07767 20.6941C2.08796 20.6403 2.09214 20.585 2.1034 20.5313L2.10291 20.5313ZM25.3906 20.6941 19.1122 20.6941 18.9666 21.2217C18.5453 22.7423 17.1544 23.863 15.4995 23.8616 13.8446 23.8631 12.4538 22.7423 12.0324 21.2217L11.8868 20.6941 5.60943 20.6941 8.55824 5.70957 22.4413 5.70957 25.3906 20.6941ZM29.0825 27.2796C29.082 27.7365 28.8999 28.141 28.6013 28.4416 28.3007 28.7403 27.8958 28.9224 27.4393 28.9228L3.56076 28.9228C3.10436 28.9224 2.69936 28.7403 2.39881 28.4416 2.10013 28.141 1.91806 27.7366 1.91758 27.2796L1.91758 22.3163C1.91758 22.2545 1.926 22.1936 1.9269 22.1323L10.8283 22.1323C11.5712 23.9871 13.3783 25.2984 15.4995 25.2998 17.6207 25.2984 19.4277 23.9871 20.1708 22.1323L29.0731 22.1323C29.074 22.1936 29.0824 22.2545 29.0824 22.3163L29.0824 27.2796Z" fill="#4B4B4B" transform="matrix(1.03226 0 0 1 472 316)"/></g></g></g><g clip-path="url(#clip16)"><g clip-path="url(#clip17)"><g clip-path="url(#clip18)"><path d="M11.2554 0 6.09093 0C5.72037 0 5.36468 0.147383 5.10251 0.409309L1.88109 3.63092C1.61875 3.89307 1.47159 4.24878 1.47159 4.61956L1.47159 12.727C1.47159 13.4289 2.04285 14 2.74482 14L11.2554 14C11.9571 14 12.5284 13.4289 12.5284 12.727L12.5284 1.27263C12.5284 0.570883 11.9571 0 11.2554 0ZM5.63959 0.884543 5.63959 3.74612C5.63959 4.05546 5.51923 4.17602 5.20989 4.17602L2.34831 4.17602 5.63959 0.884543ZM11.8124 12.727C11.8124 13.0342 11.5625 13.284 11.2554 13.284L2.74482 13.284C2.43734 13.284 2.18755 13.0342 2.18755 12.727L2.18755 4.81245 5.59322 4.81245C5.96974 4.81245 6.27621 4.506 6.27621 4.12926L6.27621 0.715969 11.2554 0.715969C11.5625 0.715969 11.8124 0.965535 11.8124 1.27263L11.8124 12.727Z" fill="#4B4B4B" transform="matrix(1 0 0 1.07143 480 322)"/></g></g></g><g clip-path="url(#clip19)"><g clip-path="url(#clip20)"><g clip-path="url(#clip21)"><path d="M563.765 335.785 563.765 335.783 559.795 317.87C559.795 317.869 559.795 317.869 559.795 317.868L559.793 317.86 559.792 317.86C559.456 316.289 558.07 315.165 556.461 315.165L539.538 315.165C537.93 315.165 536.543 316.289 536.207 317.86L536.206 317.86 532.235 335.781 532.234 335.785C532.078 336.526 532 337.28 532 338.036L532 343.16C532 345.19 533.646 346.835 535.676 346.835L560.324 346.835C562.354 346.835 564 345.19 564 343.16L564 338.036C564 337.279 563.921 336.525 563.765 335.785ZM534.171 336.194 538.14 318.283 538.141 318.278C538.279 317.617 538.863 317.144 539.538 317.144L556.461 317.144C557.136 317.144 557.72 317.617 557.858 318.278L557.859 318.282 561.829 336.197C561.84 336.251 561.844 336.307 561.855 336.362L559.219 336.362 555.979 319.904 540.021 319.904 536.781 336.362 534.145 336.362C534.155 336.306 534.16 336.249 534.171 336.194L534.171 336.194ZM558.21 336.362 551.729 336.362 551.578 336.906C551.144 338.476 549.708 339.633 548 339.631 546.291 339.633 544.856 338.476 544.421 336.906L544.27 336.362 537.79 336.362 540.834 320.894 555.165 320.894 558.21 336.362ZM562.021 343.16C562.02 343.631 561.832 344.049 561.524 344.359 561.214 344.667 560.796 344.855 560.324 344.856L535.676 344.856C535.205 344.855 534.786 344.667 534.476 344.359 534.168 344.049 533.98 343.631 533.979 343.16L533.979 338.036C533.979 337.972 533.988 337.91 533.989 337.846L543.178 337.846C543.945 339.761 545.81 341.115 548 341.116 550.189 341.115 552.054 339.761 552.821 337.846L562.011 337.846C562.012 337.909 562.021 337.972 562.021 338.036L562.021 343.16Z" fill="#4B4B4B"/></g></g></g><g clip-path="url(#clip22)"><g clip-path="url(#clip23)"><g clip-path="url(#clip24)"><path d="M551.255 322 546.091 322C545.72 322 545.365 322.147 545.102 322.409L541.881 325.631C541.619 325.893 541.472 326.249 541.472 326.62L541.472 334.727C541.472 335.429 542.043 336 542.745 336L551.255 336C551.957 336 552.528 335.429 552.528 334.727L552.528 323.273C552.528 322.571 551.957 322 551.255 322ZM545.64 322.885 545.64 325.746C545.64 326.055 545.519 326.176 545.21 326.176L542.348 326.176 545.64 322.885ZM551.812 334.727C551.812 335.034 551.562 335.284 551.255 335.284L542.745 335.284C542.437 335.284 542.188 335.034 542.188 334.727L542.188 326.812 545.593 326.812C545.97 326.812 546.276 326.506 546.276 326.129L546.276 322.716 551.255 322.716C551.562 322.716 551.812 322.966 551.812 323.273L551.812 334.727Z" fill="#4B4B4B"/></g></g></g><path d="M217.75 216.5 217.75 217.344 204.25 217.344 204.25 216.5ZM217.75 218.188 217.75 219.875 204.25 219.875 204.25 218.188ZM217.75 220.719 217.75 280 224.5 280 211 293.5 197.5 280 204.25 280 204.25 220.719Z" stroke="#2F528F" stroke-width="1.33333" stroke-miterlimit="8" stroke-opacity="0.301961" fill="#4472C4" fill-rule="evenodd" fill-opacity="0.301961"/><text font-family="Yu Gothic,Yu Gothic_MSFontService,sans-serif" font-weight="400" font-size="16" transform="translate(89.9687 425)">書き換える<tspan font-size="16" x="80" y="0">と中身が変わる</tspan><tspan font-size="16" x="88.0459" y="-164">値</tspan>の更新</text><g clip-path="url(#clip25)"><g clip-path="url(#clip26)"><g clip-path="url(#clip27)"><path d="M374.964 188 359.631 203.333 359.631 242 402.369 242 402.369 188 374.964 188ZM398.824 238.455 363.176 238.455 363.176 205.401 377.033 205.401 377.033 191.544 398.824 191.544 398.824 238.455Z" fill="#4B4B4B"/></g></g></g><path d="M408.03 214 440.55 214.972 440.49 216.971 407.97 216ZM407.801 221.664C404.121 221.554 401.226 218.481 401.336 214.801 401.446 211.121 404.519 208.226 408.199 208.336 411.879 208.446 414.774 211.519 414.664 215.199 414.554 218.879 411.481 221.774 407.801 221.664ZM439.386 209.268 452.514 216.329 438.988 222.595Z" fill="#ED7D31"/><path d="M391.5 256.5 391.5 257.5 375.5 257.5 375.5 256.5ZM391.5 258.5 391.5 260.5 375.5 260.5 375.5 258.5ZM391.5 261.5 391.5 418.5 399.5 418.5 383.5 434.5 367.5 418.5 375.5 418.5 375.5 261.5Z" stroke="#2F528F" stroke-width="1.33333" stroke-miterlimit="8" stroke-opacity="0.301961" fill="#4472C4" fill-rule="evenodd" fill-opacity="0.301961"/><text font-family="Yu Gothic,Yu Gothic_MSFontService,sans-serif" font-weight="400" font-size="16" transform="translate(348.401 346)">値の更新</text><g clip-path="url(#clip28)"><g clip-path="url(#clip29)"><g clip-path="url(#clip30)"><path d="M119.119 77.9426 119.117 77.9372 104.232 10.7627C104.232 10.7592 104.23 10.7573 104.23 10.7555L104.223 10.7248 104.221 10.7248C102.962 4.83328 97.7606 0.618047 91.7297 0.618047L28.2666 0.618047C22.2356 0.618047 17.0346 4.83328 15.7753 10.7266L15.7716 10.7248 0.882656 77.928 0.878906 77.9426C0.293437 80.7209 0 83.5495 0 86.3857L0 105.599C0.001875 113.213 6.17062 119.38 13.7836 119.382L106.216 119.382C113.829 119.381 119.998 113.213 120 105.599L120 86.3857C120 83.5479 119.705 80.719 119.119 77.9426ZM8.14031 79.4759 23.0238 12.3103 23.0276 12.2923C23.5474 9.81492 25.7348 8.0407 28.2666 8.0407L91.7297 8.0407C94.2614 8.0407 96.4486 9.81492 96.9689 12.2923L96.9724 12.3068 111.858 79.4885C111.901 79.6915 111.916 79.9017 111.956 80.1066L102.07 80.1066 89.9212 18.3902 30.0769 18.3902 17.9299 80.1063 8.04258 80.1063C8.08242 79.898 8.09859 79.684 8.14219 79.4759L8.14031 79.4759ZM98.2861 80.1063 73.9828 80.1063 73.4191 82.1487C71.7884 88.0348 66.4043 92.373 59.9981 92.3677 53.592 92.3733 48.2081 88.0348 46.5771 82.1487L46.0134 80.1063 21.7139 80.1063 33.1287 22.1016 86.8695 22.1016 98.2861 80.1063ZM112.577 105.599C112.575 107.367 111.87 108.933 110.715 110.096 109.551 111.253 107.984 111.958 106.217 111.959L13.7836 111.959C12.0169 111.958 10.4491 111.253 9.2857 110.096 8.12953 108.933 7.42477 107.367 7.42289 105.599L7.42289 86.3857C7.42289 86.1464 7.45547 85.9109 7.45898 85.6734L41.9161 85.6734C44.7919 92.8533 51.787 97.9294 59.9981 97.9348 68.2092 97.9294 75.2041 92.8533 78.0804 85.6734L112.541 85.6734C112.545 85.9106 112.577 86.1464 112.577 86.3857L112.577 105.599Z" fill="#4B4B4B" transform="matrix(1 0 0 1.00833 453 431)"/></g></g></g><g clip-path="url(#clip31)"><g clip-path="url(#clip32)"><g clip-path="url(#clip33)"><path d="M526.414 457 506.494 457C505.064 457 503.692 457.568 502.681 458.579L490.256 471.005C489.244 472.016 488.676 473.388 488.676 474.818L488.676 506.09C488.676 508.797 490.88 511 493.587 511L526.414 511C529.12 511 531.324 508.797 531.324 506.09L531.324 461.909C531.324 459.202 529.12 457 526.414 457ZM504.753 460.412 504.753 471.449C504.753 472.642 504.288 473.108 503.095 473.108L492.058 473.108 504.753 460.412ZM528.562 506.09C528.562 507.275 527.598 508.238 526.414 508.238L493.587 508.238C492.401 508.238 491.438 507.275 491.438 506.09L491.438 475.562 504.574 475.562C506.026 475.562 507.208 474.38 507.208 472.927L507.208 459.762 526.414 459.762C527.598 459.762 528.562 460.724 528.562 461.909L528.562 506.09Z" fill="#4B4B4B"/></g></g></g><text font-family="Calibri,Calibri_MSFontService,sans-serif" font-weight="400" font-size="24" transform="translate(502.648 491)">7</text><g clip-path="url(#clip34)"><g clip-path="url(#clip35)"><g clip-path="url(#clip36)"><path d="M503.765 611.785 503.765 611.783 499.795 593.87C499.795 593.869 499.795 593.869 499.795 593.868L499.793 593.86 499.792 593.86C499.456 592.289 498.069 591.165 496.461 591.165L479.538 591.165C477.93 591.165 476.543 592.289 476.207 593.86L476.206 593.86 472.235 611.781 472.234 611.785C472.078 612.526 472 613.28 472 614.036L472 619.16C472 621.19 473.646 622.835 475.676 622.835L500.324 622.835C502.354 622.835 504 621.19 504 619.16L504 614.036C504 613.279 503.921 612.525 503.765 611.785ZM474.171 612.194 478.14 594.283 478.141 594.278C478.279 593.617 478.863 593.144 479.538 593.144L496.461 593.144C497.136 593.144 497.72 593.617 497.858 594.278L497.859 594.282 501.829 612.197C501.84 612.251 501.844 612.307 501.855 612.362L499.219 612.362 495.979 595.904 480.021 595.904 476.781 612.362 474.145 612.362C474.155 612.306 474.16 612.249 474.171 612.194L474.171 612.194ZM498.21 612.362 491.729 612.362 491.578 612.906C491.144 614.476 489.708 615.633 488 615.631 486.291 615.633 484.855 614.476 484.421 612.906L484.27 612.362 477.79 612.362 480.834 596.894 495.165 596.894 498.21 612.362ZM502.021 619.16C502.02 619.631 501.832 620.049 501.524 620.359 501.214 620.667 500.796 620.855 500.324 620.856L475.676 620.856C475.204 620.855 474.786 620.667 474.476 620.359 474.168 620.049 473.98 619.631 473.979 619.16L473.979 614.036C473.979 613.972 473.988 613.91 473.989 613.846L483.178 613.846C483.944 615.761 485.81 617.115 488 617.116 490.189 617.115 492.054 615.761 492.821 613.846L502.011 613.846C502.012 613.909 502.021 613.972 502.021 614.036L502.021 619.16Z" fill="#4B4B4B"/></g></g></g><g clip-path="url(#clip37)"><g clip-path="url(#clip38)"><g clip-path="url(#clip39)"><path d="M491.255 598 486.091 598C485.72 598 485.365 598.147 485.103 598.409L481.881 601.631C481.619 601.893 481.472 602.249 481.472 602.62L481.472 610.727C481.472 611.429 482.043 612 482.745 612L491.255 612C491.957 612 492.528 611.429 492.528 610.727L492.528 599.273C492.528 598.571 491.957 598 491.255 598ZM485.64 598.885 485.64 601.746C485.64 602.055 485.519 602.176 485.21 602.176L482.348 602.176 485.64 598.885ZM491.812 610.727C491.812 611.034 491.562 611.284 491.255 611.284L482.745 611.284C482.437 611.284 482.188 611.034 482.188 610.727L482.188 602.812 485.593 602.812C485.97 602.812 486.276 602.506 486.276 602.129L486.276 598.716 491.255 598.716C491.562 598.716 491.812 598.966 491.812 599.273L491.812 610.727Z" fill="#4B4B4B"/></g></g></g><g clip-path="url(#clip40)"><g clip-path="url(#clip41)"><g clip-path="url(#clip42)"><path d="M563.765 610.785 563.765 610.783 559.795 592.87C559.795 592.869 559.795 592.869 559.795 592.868L559.793 592.86 559.792 592.86C559.456 591.289 558.07 590.165 556.461 590.165L539.538 590.165C537.93 590.165 536.543 591.289 536.207 592.86L536.206 592.86 532.235 610.781 532.234 610.785C532.078 611.526 532 612.28 532 613.036L532 618.16C532 620.19 533.646 621.835 535.676 621.835L560.324 621.835C562.354 621.835 564 620.19 564 618.16L564 613.036C564 612.279 563.921 611.525 563.765 610.785ZM534.171 611.194 538.14 593.283 538.141 593.278C538.279 592.617 538.863 592.144 539.538 592.144L556.461 592.144C557.136 592.144 557.72 592.617 557.858 593.278L557.859 593.282 561.829 611.197C561.84 611.251 561.844 611.307 561.855 611.362L559.219 611.362 555.979 594.904 540.021 594.904 536.781 611.362 534.145 611.362C534.155 611.306 534.16 611.249 534.171 611.194L534.171 611.194ZM558.21 611.362 551.729 611.362 551.578 611.906C551.144 613.476 549.708 614.633 548 614.631 546.291 614.633 544.856 613.476 544.421 611.906L544.27 611.362 537.79 611.362 540.834 595.894 555.165 595.894 558.21 611.362ZM562.021 618.16C562.02 618.631 561.832 619.049 561.524 619.359 561.214 619.667 560.796 619.855 560.324 619.856L535.676 619.856C535.205 619.855 534.786 619.667 534.476 619.359 534.168 619.049 533.98 618.631 533.979 618.16L533.979 613.036C533.979 612.972 533.988 612.91 533.989 612.846L543.178 612.846C543.945 614.761 545.81 616.115 548 616.116 550.189 616.115 552.054 614.761 552.821 612.846L562.011 612.846C562.012 612.909 562.021 612.972 562.021 613.036L562.021 618.16Z" fill="#4B4B4B"/></g></g></g><g clip-path="url(#clip43)"><g clip-path="url(#clip44)"><g clip-path="url(#clip45)"><path d="M551.255 597 546.091 597C545.72 597 545.365 597.147 545.102 597.409L541.881 600.631C541.619 600.893 541.472 601.249 541.472 601.62L541.472 609.727C541.472 610.429 542.043 611 542.745 611L551.255 611C551.957 611 552.528 610.429 552.528 609.727L552.528 598.273C552.528 597.571 551.957 597 551.255 597ZM545.64 597.885 545.64 600.746C545.64 601.055 545.519 601.176 545.21 601.176L542.348 601.176 545.64 597.885ZM551.812 609.727C551.812 610.034 551.562 610.284 551.255 610.284L542.745 610.284C542.437 610.284 542.188 610.034 542.188 609.727L542.188 601.812 545.593 601.812C545.97 601.812 546.276 601.506 546.276 601.129L546.276 597.716 551.255 597.716C551.562 597.716 551.812 597.966 551.812 598.273L551.812 609.727Z" fill="#4B4B4B"/></g></g></g><g clip-path="url(#clip46)"><g clip-path="url(#clip47)"><g clip-path="url(#clip48)"><path d="M374.964 463 359.631 478.333 359.631 517 402.369 517 402.369 463 374.964 463ZM398.824 513.455 363.176 513.455 363.176 480.401 377.033 480.401 377.033 466.544 398.824 466.544 398.824 513.455Z" fill="#4B4B4B"/></g></g></g><path d="M408 489 440.907 489 440.907 606.873 439.907 605.873 459.814 605.873 459.814 607.873 438.907 607.873 438.907 490 439.907 491 408 491ZM408 496.667C404.318 496.667 401.333 493.682 401.333 490 401.333 486.318 404.318 483.333 408 483.333 411.682 483.333 414.667 486.318 414.667 490 414.667 493.682 411.682 496.667 408 496.667ZM458.481 600.206 471.814 606.873 458.481 613.54Z" fill="#ED7D31"/><text font-family="Yu Gothic,Yu Gothic_MSFontService,sans-serif" font-weight="400" font-size="16" transform="translate(360.508 656)">書き換える<tspan font-size="16" x="80" y="0">と参照先が変わる</tspan><tspan font-size="16" x="0" y="19">参照していた場所</tspan><tspan font-size="16" x="128" y="19">の値は変わら</tspan><tspan font-size="16" x="0" y="38">ない</tspan></text></g></svg>