<svg width="1177" height="559" xmlns="http://www.w3.org/2000/svg" xmlns:xlink="http://www.w3.org/1999/xlink" overflow="hidden"><defs><clipPath id="clip0"><rect x="42" y="140" width="1177" height="559"/></clipPath></defs><g clip-path="url(#clip0)" transform="translate(-42 -140)"><rect x="1021.5" y="481.5" width="95.9999" height="58" stroke="#000000" stroke-width="1.33333" stroke-miterlimit="8" fill="#FFFFFF"/><text font-family="Yu Gothic,Yu Gothic_MSFontService,sans-serif" font-weight="400" font-size="11" transform="translate(1050.95 514)">R_RGO</text><rect x="868.5" y="444.5" width="96" height="58" stroke="#000000" stroke-width="1.33333" stroke-miterlimit="8" fill="#FFFFFF"/><text font-family="Yu Gothic,Yu Gothic_MSFontService,sans-serif" font-weight="400" font-size="11" transform="translate(898.539 476)">R_SUB</text><rect x="867.5" y="516.5" width="96" height="58" stroke="#000000" stroke-width="1.33333" stroke-miterlimit="8" fill="#FFFFFF"/><text font-family="Yu Gothic,Yu Gothic_MSFontService,sans-serif" font-weight="400" font-size="11" transform="translate(892.927 549)">R_FORM</text><rect x="868.5" y="605.5" width="96" height="58" stroke="#000000" stroke-width="1.33333" stroke-miterlimit="8" fill="#FFFFFF"/><text font-family="Yu Gothic,Yu Gothic_MSFontService,sans-serif" font-weight="400" font-size="11" transform="translate(895.622 637)">R_ASSR</text><path d="M964.5 473.167 993.291 473.167 993.291 510.808 992.958 510.475 1014.75 510.475 1014.75 511.141 992.624 511.141 992.624 473.5 992.958 473.833 964.5 473.833ZM1013.42 506.808 1021.42 510.808 1013.42 514.808Z"/><text font-family="Yu Gothic,Yu Gothic_MSFontService,sans-serif" font-weight="400" font-size="13" transform="translate(1004.79 556)">R205</text><path d="M0-0.333333 29.1802-0.333333 29.1802 34.7925 28.8469 34.4592 51.0271 34.4592 51.0271 35.1259 28.5135 35.1259 28.5135 0 28.8469 0.333333 0 0.333333ZM49.6938 30.7925 57.6938 34.7925 49.6938 38.7925Z" transform="matrix(1 0 0 -1 963.5 545.293)"/><path d="M0-0.333333 28.7909-0.333333 28.7909 123.487 28.4576 123.153 50.2484 123.153 50.2484 123.82 28.1243 123.82 28.1243 0 28.4576 0.333333 0 0.333333ZM48.9151 119.487 56.9151 123.487 48.9151 127.487Z" transform="matrix(1 0 0 -1 964.5 633.987)"/><rect x="176.5" y="412.5" width="96" height="57" stroke="#000000" stroke-width="1.33333" stroke-miterlimit="8" fill="#FFFFFF"/><text font-family="Yu Gothic,Yu Gothic_MSFontService,sans-serif" font-weight="400" font-size="11" transform="translate(207.22 444)">R_RTO</text><rect x="316.5" y="337.5" width="96" height="58" stroke="#000000" stroke-width="1.33333" stroke-miterlimit="8" fill="#FFFFFF"/><text font-family="Yu Gothic,Yu Gothic_MSFontService,sans-serif" font-weight="400" font-size="11" transform="translate(340.461 370)">R_SUPER</text><rect x="316.5" y="407.5" width="96" height="58" stroke="#000000" stroke-width="1.33333" stroke-miterlimit="8" fill="#FFFFFF"/><text font-family="Yu Gothic,Yu Gothic_MSFontService,sans-serif" font-weight="400" font-size="11" transform="translate(344.211 440)">R_PART</text><rect x="316.5" y="477.5" width="96" height="58" stroke="#000000" stroke-width="1.33333" stroke-miterlimit="8" fill="#FFFFFF"/><text font-family="Yu Gothic,Yu Gothic_MSFontService,sans-serif" font-weight="400" font-size="11" transform="translate(343.378 510)">R_AONE</text><path d="M0-0.333333 22.3706-0.333333 22.3706 74.3316 22.0373 73.9983 37.4079 73.9983 37.4079 74.665 21.7039 74.665 21.7039 0 22.0373 0.333333 0 0.333333ZM36.0745 70.3316 44.0745 74.3316 36.0745 78.3316Z" transform="matrix(-1 1.22465e-16 1.22465e-16 1 316.575 366.5)"/><text font-family="Yu Gothic,Yu Gothic_MSFontService,sans-serif" font-weight="400" font-size="13" transform="translate(253.655 487)">R204</text><path d="M0-0.333333 22.3706-0.333333 22.3706 4.46236 22.0373 4.12903 37.4079 4.12903 37.4079 4.7957 21.7039 4.7957 21.7039 0 22.0373 0.333333 0 0.333333ZM36.0745 0.462362 44.0745 4.46236 36.0745 8.46236Z" transform="matrix(-1 1.22465e-16 1.22465e-16 1 316.575 436.5)"/><path d="M316.575 507.24 294.204 507.24 294.204 441.5 294.537 441.833 279.167 441.833 279.167 441.167 294.871 441.167 294.871 506.907 294.537 506.574 316.575 506.574ZM280.5 445.5 272.5 441.5 280.5 437.5Z"/><rect x="316.5" y="547.5" width="96" height="58" stroke="#000000" stroke-width="1.33333" stroke-miterlimit="8" fill="#FFFFFF"/><text font-family="Yu Gothic,Yu Gothic_MSFontService,sans-serif" font-weight="400" font-size="11" transform="translate(343.378 579)">R_AOTH</text><path d="M316.575 577.11 294.204 577.11 294.204 441.5 294.537 441.833 279.167 441.833 279.167 441.167 294.871 441.167 294.871 576.776 294.537 576.443 316.575 576.443ZM280.5 445.5 272.5 441.5 280.5 437.5Z"/><rect x="576.5" y="142.5" width="96" height="58" stroke="#000000" stroke-width="1.33333" stroke-miterlimit="8" fill="#FFFFFF"/><text font-family="Yu Gothic,Yu Gothic_MSFontService,sans-serif" font-weight="400" font-size="11" transform="translate(607.595 175)">R_REL</text><rect x="414.5" y="238.5" width="96" height="58" stroke="#000000" stroke-width="1.33333" stroke-miterlimit="8" fill="#FFFFFF"/><text font-family="Yu Gothic,Yu Gothic_MSFontService,sans-serif" font-weight="400" font-size="11" transform="translate(434.281 271)">R_SUBSUP</text><rect x="518.5" y="238.5" width="96" height="58" stroke="#000000" stroke-width="1.33333" stroke-miterlimit="8" fill="#FFFFFF"/><text font-family="Yu Gothic,Yu Gothic_MSFontService,sans-serif" font-weight="400" font-size="11" transform="translate(546.682 271)">R_SIMP</text><rect x="622.5" y="238.5" width="96" height="58" stroke="#000000" stroke-width="1.33333" stroke-miterlimit="8" fill="#FFFFFF"/><text font-family="Yu Gothic,Yu Gothic_MSFontService,sans-serif" font-weight="400" font-size="11" transform="translate(648.166 271)">R_COMP</text><path d="M462.167 238.659 462.167 219.246 624.313 219.246 623.98 219.58 623.98 207.167 624.647 207.167 624.647 219.913 462.5 219.913 462.833 219.58 462.833 238.659ZM620.313 208.5 624.313 200.5 628.313 208.5Z"/><text font-family="Yu Gothic,Yu Gothic_MSFontService,sans-serif" font-weight="400" font-size="13" transform="translate(677.326 210)">R206</text><path d="M566.167 238.659 566.167 219.246 624.162 219.246 623.829 219.58 623.829 207.167 624.496 207.167 624.496 219.913 566.5 219.913 566.833 219.58 566.833 238.659ZM620.162 208.5 624.162 200.5 628.162 208.5Z"/><path d="M0-0.333333 19.4129-0.333333 19.4129 46.4885 19.0796 46.1552 31.4925 46.1552 31.4925 46.8218 18.7463 46.8218 18.7463 0 19.0796 0.333333 0 0.333333ZM30.1592 42.4885 38.1592 46.4885 30.1592 50.4885Z" transform="matrix(-1.83697e-16 -1 -1 1.83697e-16 670.989 238.659)"/><rect x="727.5" y="239.5" width="96" height="58" stroke="#000000" stroke-width="1.33333" stroke-miterlimit="8" fill="#FFFFFF"/><text font-family="Yu Gothic,Yu Gothic_MSFontService,sans-serif" font-weight="400" font-size="11" transform="translate(750.567 272)">R_ASSOC</text><path d="M0-0.333333 19.7463-0.333333 19.7463 150.639 19.413 150.306 32.1593 150.306 32.1593 150.973 19.0796 150.973 19.0796 0 19.413 0.333333 0 0.333333ZM30.8259 146.639 38.8259 150.639 30.8259 154.639Z" transform="matrix(-1.83697e-16 -1 -1 1.83697e-16 775.14 239.326)"/><path d="M364.5 337.637 364.5 267.5 414.237 267.5" stroke="#000000" stroke-width="0.666667" stroke-miterlimit="8" fill="none" fill-rule="evenodd"/><text font-family="Yu Gothic,Yu Gothic_MSFontService,sans-serif" font-weight="400" font-size="13" transform="translate(339.529 252)">R212</text><path d="M868.008 473.228 462.5 473.228 462.5 296.5" stroke="#000000" stroke-width="0.666667" stroke-miterlimit="8" fill="none" fill-rule="evenodd"/><text font-family="Yu Gothic,Yu Gothic_MSFontService,sans-serif" font-weight="400" font-size="13" transform="translate(814.007 470)">R213</text><text font-family="Yu Gothic,Yu Gothic_MSFontService,sans-serif" font-weight="400" font-size="13" transform="translate(857.893 472)">*</text><path d="M0 0 125.706 0 125.706 140.673" stroke="#000000" stroke-width="0.666667" stroke-miterlimit="8" fill="none" fill-rule="evenodd" transform="matrix(1 0 0 -1 412.5 436.173)"/><path d="M867.109 545.329 594.5 545.329 594.5 296.5" stroke="#000000" stroke-width="0.666667" stroke-miterlimit="8" fill="none" fill-rule="evenodd"/><text font-family="Yu Gothic,Yu Gothic_MSFontService,sans-serif" font-weight="400" font-size="13" transform="translate(618.951 541)">R208</text><text font-family="Yu Gothic,Yu Gothic_MSFontService,sans-serif" font-weight="400" font-size="13" transform="translate(844.064 543)">0..</text><text font-family="Yu Gothic,Yu Gothic_MSFontService,sans-serif" font-weight="400" font-size="13" transform="translate(858.398 543)">1</text><text font-family="Yu Gothic,Yu Gothic_MSFontService,sans-serif" font-weight="400" font-size="13" transform="translate(422.756 430)">1..</text><text font-family="Yu Gothic,Yu Gothic_MSFontService,sans-serif" font-weight="400" font-size="13" transform="translate(437.09 430)">*</text><text font-family="Yu Gothic,Yu Gothic_MSFontService,sans-serif" font-weight="400" font-size="13" transform="translate(490.121 431)">R207</text><rect x="973.5" y="297.5" width="95.9999" height="58" stroke="#000000" stroke-width="1.33333" stroke-miterlimit="8" fill="#FFFFFF"/><text font-family="Yu Gothic,Yu Gothic_MSFontService,sans-serif" font-weight="400" font-size="11" transform="translate(999.647 329)">R_CONE</text><rect x="974.5" y="367.5" width="95.9999" height="58" stroke="#000000" stroke-width="1.33333" stroke-miterlimit="8" fill="#FFFFFF"/><text font-family="Yu Gothic,Yu Gothic_MSFontService,sans-serif" font-weight="400" font-size="11" transform="translate(1000.41 400)">R_COTH</text><path d="M973.266 326.5 698.5 326.5 698.5 297.5" stroke="#000000" stroke-width="0.666667" stroke-miterlimit="8" fill="none" fill-rule="evenodd"/><path d="M974.181 396.429 642.5 396.429 642.5 296.5" stroke="#000000" stroke-width="0.666667" stroke-miterlimit="8" fill="none" fill-rule="evenodd"/><text font-family="Yu Gothic,Yu Gothic_MSFontService,sans-serif" font-weight="400" font-size="13" transform="translate(928.993 317)">R214</text><text font-family="Yu Gothic,Yu Gothic_MSFontService,sans-serif" font-weight="400" font-size="13" transform="translate(928.993 389)">R215</text><rect x="1117.5" y="236.5" width="96" height="58" stroke="#000000" stroke-width="1.33333" stroke-miterlimit="8" fill="#FFFFFF"/><text font-family="Yu Gothic,Yu Gothic_MSFontService,sans-serif" font-weight="400" font-size="11" transform="translate(1149.2 268)">R_OIR</text><path d="M0-0.333333 96.0572-0.333333 96.0572 25.5538 95.3905 25.5538 95.3905 0 95.7239 0.333333 0 0.333333ZM99.7239 24.2205 95.7239 32.2205 91.7239 24.2205Z" transform="matrix(1 0 0 -1 1069.5 326.721)"/><path d="M0-0.333333 95.293-0.333333 95.293 95.8166 94.6264 95.8166 94.6264 0 94.9597 0.333333 0 0.333333ZM98.9597 94.4833 94.9597 102.483 90.9597 94.4833Z" transform="matrix(1 0 0 -1 1070.5 396.983)"/><path d="M0-0.333333 48.3333-0.333333 48.3333 209.924 47.6667 209.924 47.6667 0 48 0.333333 0 0.333333ZM52 208.59 48 216.59 44 208.59Z" transform="matrix(1 0 0 -1 1117.5 511.09)"/><path d="M224.833 470.412 224.833 699.09 224.5 698.757 1164.73 698.757 1164.4 699.09 1164.4 301.165 1165.07 301.165 1165.07 699.423 224.167 699.423 224.167 470.412ZM1160.73 302.5 1164.73 294.5 1168.73 302.5Z"/><text font-family="Yu Gothic,Yu Gothic_MSFontService,sans-serif" font-weight="400" font-size="13" transform="translate(1176.87 314)">R203</text><path d="M0 0 327.661 0 327.661 208.932" stroke="#000000" stroke-width="0.666667" stroke-miterlimit="8" fill="none" fill-rule="evenodd" transform="matrix(1 0 0 -1 412.5 506.432)"/><path d="M0 0 361.579 0 361.579 280.141" stroke="#000000" stroke-width="0.666667" stroke-miterlimit="8" fill="none" fill-rule="evenodd" transform="matrix(1 0 0 -1 412.5 576.641)"/><path d="M868.046 633.69 810.5 633.69 810.5 297.5" stroke="#000000" stroke-width="0.666667" stroke-miterlimit="8" fill="none" fill-rule="evenodd"/><text font-family="Yu Gothic,Yu Gothic_MSFontService,sans-serif" font-weight="400" font-size="13" transform="translate(452.783 501)">R209</text><text font-family="Yu Gothic,Yu Gothic_MSFontService,sans-serif" font-weight="400" font-size="13" transform="translate(454.34 567)">R210</text><text font-family="Yu Gothic,Yu Gothic_MSFontService,sans-serif" font-weight="400" font-size="13" transform="translate(825.748 650)">R211</text><rect x="135.5" y="254.5" width="96" height="58" stroke="#000000" stroke-width="1.33333" stroke-miterlimit="8" fill="#FFFFFF"/><text font-family="Yu Gothic,Yu Gothic_MSFontService,sans-serif" font-weight="400" font-size="11" transform="translate(170.777 286)">O_ID</text><path d="M0 0 50.0087 0 50.0087 41.3596 100.017 41.3596" stroke="#000000" stroke-width="0.666667" stroke-miterlimit="8" fill="none" fill-rule="evenodd" transform="matrix(-1.83697e-16 -1 -1 1.83697e-16 224.86 412.517)"/><text font-family="Yu Gothic,Yu Gothic_MSFontService,sans-serif" font-weight="400" font-size="13" transform="translate(161.895 327)">0..</text><text font-family="Yu Gothic,Yu Gothic_MSFontService,sans-serif" font-weight="400" font-size="13" transform="translate(176.228 327)">1</text><text font-family="Yu Gothic,Yu Gothic_MSFontService,sans-serif" font-weight="400" font-size="13" transform="translate(213.672 407)">*</text><text font-family="Yu Gothic,Yu Gothic_MSFontService,sans-serif" font-weight="400" font-size="13" transform="translate(204.633 353)">R109</text><rect x="43.5001" y="477.5" width="96" height="57" stroke="#000000" stroke-width="1.33333" stroke-miterlimit="8" fill="#FFFFFF"/><text font-family="Yu Gothic,Yu Gothic_MSFontService,sans-serif" font-weight="400" font-size="11" transform="translate(68.5564 509)">O_RTID</text><text font-family="Yu Gothic,Yu Gothic_MSFontService,sans-serif" font-weight="400" font-size="11" transform="translate(106.723 509)">A</text><rect x="44.5001" y="142.5" width="96" height="58" stroke="#000000" stroke-width="1.33333" stroke-miterlimit="8" fill="#FFFFFF"/><text font-family="Yu Gothic,Yu Gothic_MSFontService,sans-serif" font-weight="400" font-size="11" transform="translate(72.7044 175)">O_OIDA</text><path d="M176.515 440.906 92.5001 440.906 92.5001 200.5" stroke="#000000" stroke-width="0.666667" stroke-miterlimit="8" fill="none" fill-rule="evenodd"/><text font-family="Yu Gothic,Yu Gothic_MSFontService,sans-serif" font-weight="400" font-size="13" transform="translate(164.904 459)">*</text><text font-family="Yu Gothic,Yu Gothic_MSFontService,sans-serif" font-weight="400" font-size="13" transform="translate(76.1052 216)">*</text><text font-family="Yu Gothic,Yu Gothic_MSFontService,sans-serif" font-weight="400" font-size="13" transform="translate(54.83 336)">R110</text><path d="M0 0 24.3227 34.5359" stroke="#000000" stroke-width="0.666667" stroke-miterlimit="8" stroke-dasharray="0.666667 0.666667" fill="none" fill-rule="evenodd" transform="matrix(-1 0 0 1 115.823 442.5)"/><rect x="1109.5" y="142.5" width="96" height="57" stroke="#000000" stroke-width="1.33333" stroke-miterlimit="8" fill="#FFFFFF"/><text font-family="Yu Gothic,Yu Gothic_MSFontService,sans-serif" font-weight="400" font-size="11" transform="translate(1127.61 174)">O_OB</text><text font-family="Yu Gothic,Yu Gothic_MSFontService,sans-serif" font-weight="400" font-size="11" transform="translate(1155.77 174)">J</text><text font-family="Yu Gothic,Yu Gothic_MSFontService,sans-serif" font-weight="400" font-size="11" transform="translate(1160.11 174)">_REL</text><path d="M0 0 436.68 0.766404" stroke="#000000" stroke-width="0.666667" stroke-miterlimit="8" fill="none" fill-rule="evenodd" transform="matrix(-1 0 0 1 1109.18 171.5)"/><text font-family="Yu Gothic,Yu Gothic_MSFontService,sans-serif" font-weight="400" font-size="13" transform="translate(847.208 158)">R201</text><text font-family="Yu Gothic,Yu Gothic_MSFontService,sans-serif" font-weight="400" font-size="13" transform="translate(1081.15 185)">1..*</text><text font-family="Yu Gothic,Yu Gothic_MSFontService,sans-serif" font-weight="400" font-size="13" transform="translate(678.238 187)">*</text><path d="M868.5 171.5 1116.64 265.266" stroke="#000000" stroke-width="0.666667" stroke-miterlimit="8" stroke-dasharray="0.666667 0.666667" fill="none" fill-rule="evenodd"/></g></svg>