<svg width="608" height="807" xmlns="http://www.w3.org/2000/svg" xmlns:xlink="http://www.w3.org/1999/xlink" overflow="hidden"><defs><clipPath id="clip0"><rect x="90" y="18" width="608" height="807"/></clipPath><linearGradient x1="397" y1="545.5" x2="397" y2="581.5" gradientUnits="userSpaceOnUse" spreadMethod="reflect" id="fill1"><stop offset="0" stop-color="#BDD7EE"/><stop offset="0.5" stop-color="#BDD7EE"/><stop offset="1" stop-color="#BDD7EE"/></linearGradient></defs><g clip-path="url(#clip0)" transform="translate(-90 -18)"><rect x="92.5001" y="20.5001" width="604" height="803" stroke="#D9D9D9" stroke-width="1.33333" stroke-miterlimit="8" fill="none"/><rect x="168" y="69" width="457" height="462" fill="#F2F2F2"/><text font-family="Yu Gothic,Yu Gothic_MSFontService,sans-serif" font-weight="400" font-size="19" transform="translate(275.183 90)">概念インスタンスの一シーン</text><rect x="168" y="601" width="457" height="205" fill="#F2F2F2"/><text font-family="Yu Gothic,Yu Gothic_MSFontService,sans-serif" font-weight="400" font-size="19" transform="translate(349.778 622)">概念クラス</text><rect x="196.5" y="107.5" width="92" height="60" stroke="#000000" stroke-width="1.33333" stroke-miterlimit="8" fill="#FFFFFF"/><text font-family="Yu Gothic,Yu Gothic_MSFontService,sans-serif" font-weight="400" font-size="16" transform="translate(221.939 142)">顧客<tspan font-family="Consolas,Consolas_MSFontService,sans-serif" font-size="16" x="32" y="0">A</tspan></text><rect x="493.5" y="107.5" width="93" height="60" stroke="#000000" stroke-width="1.33333" stroke-miterlimit="8" fill="#FFFFFF"/><text font-family="Yu Gothic,Yu Gothic_MSFontService,sans-serif" font-weight="400" font-size="16" transform="translate(510.248 142)">商品<tspan font-family="Consolas,Consolas_MSFontService,sans-serif" font-size="16" x="32" y="0">001</tspan></text><path d="M343.5 137.5C343.5 120.932 364.99 107.5 391.5 107.5 418.01 107.5 439.5 120.932 439.5 137.5 439.5 154.069 418.01 167.5 391.5 167.5 364.99 167.5 343.5 154.069 343.5 137.5Z" stroke="#000000" stroke-width="1.33333" stroke-miterlimit="8" fill="#FFFFFF" fill-rule="evenodd"/><text font-family="Yu Gothic,Yu Gothic_MSFontService,sans-serif" font-weight="400" font-size="16" transform="translate(374.93 132)">注文<tspan font-size="16" x="-2.42001" y="19">A001</tspan></text><rect x="196.5" y="227.5" width="92" height="60" stroke="#000000" stroke-width="1.33333" stroke-miterlimit="8" fill="#FFFFFF"/><text font-family="Yu Gothic,Yu Gothic_MSFontService,sans-serif" font-weight="400" font-size="16" transform="translate(221.939 263)">顧客<tspan font-family="Consolas,Consolas_MSFontService,sans-serif" font-size="16" x="32" y="0">B</tspan></text><rect x="493.5" y="227.5" width="93" height="60" stroke="#000000" stroke-width="1.33333" stroke-miterlimit="8" fill="#FFFFFF"/><text font-family="Yu Gothic,Yu Gothic_MSFontService,sans-serif" font-weight="400" font-size="16" transform="translate(510.248 263)">商品<tspan font-family="Consolas,Consolas_MSFontService,sans-serif" font-size="16" x="32" y="0">002</tspan></text><path d="M289.161 137.167 492.786 137.167 492.786 137.833 289.161 137.833ZM296.992 142.455 288.499 137.5 296.992 132.545C297.151 132.453 297.355 132.506 297.448 132.665 297.541 132.824 297.487 133.029 297.328 133.121L289.328 137.788 289.328 137.212 297.328 141.879C297.487 141.972 297.541 142.176 297.448 142.335 297.355 142.494 297.151 142.547 296.992 142.455ZM484.955 132.546 493.448 137.5 484.955 142.455C484.796 142.548 484.592 142.494 484.499 142.335 484.406 142.176 484.46 141.972 484.619 141.879L492.619 137.212 492.619 137.788 484.619 133.121C484.46 133.029 484.406 132.825 484.499 132.666 484.592 132.507 484.796 132.453 484.955 132.546Z"/><rect x="493.5" y="362.5" width="93" height="60" stroke="#000000" stroke-width="1.33333" stroke-miterlimit="8" fill="#FFFFFF"/><text font-family="Yu Gothic,Yu Gothic_MSFontService,sans-serif" font-weight="400" font-size="16" transform="translate(510.248 397)">商品<tspan font-family="Consolas,Consolas_MSFontService,sans-serif" font-size="16" x="32" y="0">003</tspan></text><rect x="196.5" y="362.5" width="92" height="60" stroke="#000000" stroke-width="1.33333" stroke-miterlimit="8" fill="#FFFFFF"/><text font-family="Yu Gothic,Yu Gothic_MSFontService,sans-serif" font-weight="400" font-size="16" transform="translate(221.939 397)">顧客<tspan font-family="Consolas,Consolas_MSFontService,sans-serif" font-size="16" x="32" y="0">C</tspan></text><path d="M386.547 190.656C395.803 176.915 421.131 177.781 443.117 192.592 465.104 207.403 475.423 230.549 466.167 244.29 456.91 258.032 431.583 257.165 409.596 242.354 387.61 227.544 377.29 204.398 386.547 190.656Z" stroke="#000000" stroke-width="1.33333" stroke-miterlimit="8" fill="#FFFFFF" fill-rule="evenodd"/><text font-family="Yu Gothic,Yu Gothic_MSFontService,sans-serif" font-weight="400" font-size="16" transform="matrix(0.829377 0.55869 -0.55869 0.829377 415.436 205)">注文<tspan font-size="16" x="-2.6469" y="18.6632">A002</tspan></text><path d="M289.237 137.547 493.064 257.459 492.726 258.034 288.898 138.121ZM293.307 146.076 288.499 137.499 298.332 137.536C298.516 137.536 298.664 137.686 298.664 137.87 298.663 138.054 298.513 138.203 298.329 138.202L289.068 138.168 289.36 137.672 293.889 145.75C293.979 145.911 293.921 146.114 293.761 146.204 293.6 146.294 293.397 146.237 293.307 146.076ZM488.64 249.495 493.448 258.072 483.615 258.036C483.431 258.035 483.282 257.886 483.283 257.701 483.284 257.517 483.434 257.369 483.618 257.369L492.879 257.404 492.587 257.9 488.058 249.821C487.968 249.661 488.025 249.457 488.186 249.367 488.347 249.277 488.55 249.335 488.64 249.495Z"/><path d="M334.431 364.973C325.229 351.194 335.64 328.089 357.685 313.366 379.73 298.642 405.061 297.876 414.263 311.654 423.465 325.432 413.054 348.538 391.009 363.261 368.964 377.984 343.633 378.751 334.431 364.973Z" stroke="#000000" stroke-width="1.33333" stroke-miterlimit="8" fill="#FFFFFF" fill-rule="evenodd"/><text font-family="Yu Gothic,Yu Gothic_MSFontService,sans-serif" font-weight="400" font-size="16" transform="matrix(0.831584 -0.555399 0.555399 0.831584 358.709 344)">注文<tspan font-size="16" x="-2.51053" y="18.7662">C002</tspan></text><path d="M0.729643 0.0799001 204.579 133.773 204.214 134.33 0.364032 0.63737ZM4.38394 8.80022-0.00129188-0.000847277 9.81827 0.51409C10.0021 0.523731 10.1433 0.68058 10.1337 0.864422 10.1241 1.04826 9.9672 1.18948 9.78336 1.17984L0.534441 0.694829 0.850246 0.213297 4.98064 8.50291C5.06274 8.66768 4.99572 8.86781 4.83094 8.94991 4.66617 9.03201 4.46604 8.96499 4.38394 8.80022ZM200.563 125.612 204.948 134.413 195.129 133.898C194.945 133.888 194.804 133.732 194.813 133.548 194.823 133.364 194.98 133.223 195.164 133.232L204.412 133.718 204.097 134.199 199.966 125.909C199.884 125.745 199.951 125.544 200.116 125.462 200.281 125.38 200.481 125.447 200.563 125.612Z" transform="matrix(1 0 0 -1 288.5 391.912)"/><text font-family="Yu Gothic,Yu Gothic_MSFontService,sans-serif" font-weight="400" font-size="14" transform="translate(240.51 451)">顧客<tspan font-size="14" x="28" y="0">A</tspan><tspan font-size="14" x="37.1667" y="0">は、商品</tspan>001、商品002を注文している<tspan font-size="14" x="0" y="17">顧客</tspan><tspan font-size="14" x="28" y="17">C</tspan>は、商品002を注文している<tspan font-size="14" x="0" y="33">顧客</tspan><tspan font-size="14" x="28" y="33">B</tspan>は、何も注文していない<tspan font-size="14" x="0" y="50">商品</tspan><tspan font-size="14" x="28" y="50">003</tspan>は、誰からも注文されていない</text><rect x="222.5" y="660.5" width="93" height="60" stroke="#000000" stroke-width="1.33333" stroke-miterlimit="8" fill="#FFFFFF"/><text font-family="Yu Gothic,Yu Gothic_MSFontService,sans-serif" font-weight="400" font-size="16" transform="translate(252.509 696)">顧客</text><rect x="463.5" y="659.5" width="92" height="60" stroke="#000000" stroke-width="1.33333" stroke-miterlimit="8" fill="#FFFFFF"/><text font-family="Yu Gothic,Yu Gothic_MSFontService,sans-serif" font-weight="400" font-size="16" transform="translate(493.276 695)">商品</text><path d="M0 0 148.572 1.30614" stroke="#000000" stroke-width="0.666667" stroke-miterlimit="8" fill="none" fill-rule="evenodd" transform="matrix(1 0 0 -1 315.5 690.806)"/><rect x="344.5" y="732.5" width="92" height="60" stroke="#000000" stroke-width="1.33333" stroke-miterlimit="8" fill="#FFFFFF"/><text font-family="Yu Gothic,Yu Gothic_MSFontService,sans-serif" font-weight="400" font-size="16" transform="translate(374.223 768)">注文</text><path d="M0 0 0.000104987 41.7565" stroke="#000000" stroke-width="2" stroke-miterlimit="8" stroke-dasharray="2 2" fill="none" fill-rule="evenodd" transform="matrix(1 0 0 -1 390 731.757)"/><text font-family="Yu Gothic,Yu Gothic_MSFontService,sans-serif" font-weight="400" font-size="11" transform="translate(322.305 686)">発注者<tspan font-size="11" x="-3.70016" y="21">*</tspan><tspan font-size="11" x="121.999" y="2">*</tspan><tspan font-size="11" x="96.0809" y="17">購入予約</tspan><tspan font-size="19" x="10.9178" y="-636">商品販売</tspan></text><path d="M230.5 581.5 397 545.5 563.5 581.5Z" stroke="#5B9BD5" stroke-width="0.666667" stroke-miterlimit="8" fill="url(#fill1)" fill-rule="evenodd"/><text font-family="Yu Gothic,Yu Gothic_MSFontService,sans-serif" font-weight="400" font-size="16" transform="translate(230.927 561)">概念クラスと関係で定義した制約に従って…</text></g></svg>