<svg width="608" height="370" xmlns="http://www.w3.org/2000/svg" xmlns:xlink="http://www.w3.org/1999/xlink" overflow="hidden"><defs><clipPath id="clip0"><rect x="90" y="41" width="608" height="370"/></clipPath></defs><g clip-path="url(#clip0)" transform="translate(-90 -41)"><rect x="92.5001" y="43.5001" width="604" height="367" stroke="#D9D9D9" stroke-width="1.33333" stroke-miterlimit="8" fill="none"/><rect x="101" y="103" width="289" height="291" fill="#F2F2F2"/><text font-family="Yu Gothic,Yu Gothic_MSFontService,sans-serif" font-weight="400" font-size="19" transform="translate(208.062 124)">商品販売</text><rect x="130.5" y="188.5" width="206" height="180" stroke="#000000" stroke-width="1.33333" stroke-miterlimit="8" fill="#FFFFFF"/><text font-family="Yu Gothic,Yu Gothic_MSFontService,sans-serif" font-weight="400" font-size="19" transform="translate(195.689 210)">オーダー<tspan font-size="16" x="-56.1777" y="31">発注者</tspan><tspan font-family="Consolas,Consolas_MSFontService,sans-serif" font-size="16" x="-8.17773" y="31">:</tspan><tspan font-size="16" x="0.655594" y="31">顧客コード</tspan><tspan font-size="16" x="-56.1777" y="50">商品</tspan><tspan font-size="16" x="-24.1777" y="50">コード</tspan><tspan font-family="Consolas,Consolas_MSFontService,sans-serif" font-size="16" x="23.8223" y="50">:</tspan><tspan font-size="16" x="32.6556" y="50">商品コード</tspan><tspan font-size="16" x="-56.1777" y="69">数量</tspan><tspan font-family="Consolas,Consolas_MSFontService,sans-serif" font-size="16" x="-24.1777" y="69">:</tspan><tspan font-size="16" x="-15.3444" y="69">自然数</tspan><tspan font-size="16" x="-56.1777" y="88">総額</tspan><tspan font-family="Consolas,Consolas_MSFontService,sans-serif" font-size="16" x="-24.1777" y="88">:</tspan><tspan font-size="16" x="-15.3444" y="88">円</tspan><tspan font-size="21" x="183.404" y="-131">例</tspan></text><rect x="399" y="103" width="289" height="291" fill="#F2F2F2"/><text font-family="Yu Gothic,Yu Gothic_MSFontService,sans-serif" font-weight="400" font-size="19" transform="translate(506.464 124)">装置管理</text><rect x="428.5" y="188.5" width="207" height="180" stroke="#000000" stroke-width="1.33333" stroke-miterlimit="8" fill="#FFFFFF"/><text font-family="Yu Gothic,Yu Gothic_MSFontService,sans-serif" font-weight="400" font-size="19" transform="translate(494.091 210)">オーダー<tspan font-size="16" x="-56.1777" y="31">対象装置</tspan><tspan font-family="Consolas,Consolas_MSFontService,sans-serif" font-size="16" x="7.82227" y="31">ID:</tspan><tspan font-size="16" x="34.3222" y="31">装置</tspan><tspan font-family="Consolas,Consolas_MSFontService,sans-serif" font-size="16" x="66.3222" y="31">ID</tspan><tspan font-size="16" x="-56.1777" y="50">発令日</tspan><tspan font-family="Consolas,Consolas_MSFontService,sans-serif" font-size="16" x="-8.17773" y="50">:</tspan><tspan font-size="16" x="0.655579" y="50">日付</tspan><tspan font-size="16" x="-56.1777" y="69">要求コマンド</tspan><tspan font-size="16" x="-56.1777" y="88">責任者</tspan><tspan font-family="Consolas,Consolas_MSFontService,sans-serif" font-size="16" x="-8.17773" y="88">:</tspan><tspan font-size="16" x="0.655579" y="88">担当者</tspan><tspan font-family="Consolas,Consolas_MSFontService,sans-serif" font-size="16" x="48.6556" y="88">ID</tspan></text></g></svg>