<svg width="607" height="290" xmlns="http://www.w3.org/2000/svg" xmlns:xlink="http://www.w3.org/1999/xlink" overflow="hidden"><defs><clipPath id="clip0"><rect x="727" y="401" width="607" height="290"/></clipPath><clipPath id="clip1"><rect x="779" y="475" width="56" height="56"/></clipPath><clipPath id="clip2"><rect x="779" y="475" width="56" height="56"/></clipPath><clipPath id="clip3"><rect x="779" y="475" width="56" height="56"/></clipPath></defs><g clip-path="url(#clip0)" transform="translate(-727 -401)"><rect x="728.5" y="402.5" width="605" height="288" stroke="#D9D9D9" stroke-width="1.33333" stroke-miterlimit="8" fill="none"/><rect x="757" y="419" width="552" height="252" fill="#F2F2F2"/><g clip-path="url(#clip1)"><g clip-path="url(#clip2)"><g clip-path="url(#clip3)"><path d="M801.162 512.712 800.483 514.016 800.454 514.069C798.878 516.749 795.967 518.413 792.855 518.413 791.294 518.413 789.752 517.992 788.4 517.197 786.372 516.004 784.929 514.094 784.34 511.816 784.314 511.719 784.292 511.621 784.271 511.523L783.148 520.143 802.137 520.143 801.162 512.712Z" fill="#4B4B4B"/><path d="M802.284 481.463 786.268 505.728C784.126 509.369 785.342 514.06 788.985 516.201 792.627 518.343 797.316 517.127 799.458 513.484L810.329 492.586 804.337 486.89C802.774 485.278 802.242 483.479 802.284 481.463ZM795.493 511.152C794.639 512.605 792.769 513.09 791.316 512.237 789.863 511.381 789.378 509.512 790.233 508.059 791.087 506.606 792.957 506.121 794.409 506.975 795.862 507.83 796.348 509.7 795.493 511.152Z" fill="#4B4B4B"/><path d="M802.669 521.183 782.749 521.183C781.393 521.183 780.294 522.283 780.294 523.64L780.294 531 805.123 531 805.123 523.64C805.123 522.283 804.024 521.183 802.669 521.183Z" fill="#4B4B4B"/><path d="M828.221 495.315C829.007 495.315 829.762 495.452 830.461 495.704L814.93 477.137C812.453 474.446 808.263 474.273 805.573 476.751 802.881 479.227 802.709 483.417 805.186 486.107L821.587 501.689C821.727 498.151 824.648 495.315 828.221 495.315ZM811.767 483.481C810.742 484.424 809.145 484.357 808.201 483.332 807.256 482.306 807.322 480.71 808.348 479.766 809.374 478.82 810.97 478.887 811.916 479.913 812.86 480.938 812.793 482.535 811.767 483.481Z" fill="#4B4B4B"/><path d="M826.214 514.947 828.355 517.355 830.495 514.947 830.495 510.982 826.214 510.982Z" fill="#4B4B4B"/><path d="M828.221 496.469C825.192 496.469 822.736 498.925 822.736 501.955L822.736 509.849 833.706 509.849 833.706 501.955C833.706 498.925 831.252 496.469 828.221 496.469ZM828.221 503.929C827.038 503.929 826.08 502.97 826.08 501.787 826.08 500.604 827.038 499.645 828.221 499.645 829.404 499.645 830.364 500.604 830.364 501.787 830.364 502.97 829.404 503.929 828.221 503.929Z" fill="#4B4B4B"/></g></g></g><text font-family="Yu Gothic,Yu Gothic_MSFontService,sans-serif" font-weight="400" font-size="16" transform="translate(865.679 487)">装置の状態<tspan font-size="16" x="20.5" y="19">::= </tspan><tspan font-size="16" x="45.6667" y="19">電源</tspan>OFF<tspan font-size="16" x="113.167" y="19">| </tspan><tspan font-size="16" x="123.833" y="19">初期化中</tspan><tspan font-size="16" x="192.333" y="19">| </tspan><tspan font-size="16" x="203" y="19">稼働中</tspan><tspan font-size="16" x="255.5" y="19">| </tspan><tspan font-size="16" x="266.167" y="19">故障中</tspan><tspan font-size="16" x="318.667" y="19">| </tspan><tspan font-size="16" x="329.333" y="19">テスト中</tspan></text><path d="M832.5 576.167C832.5 573.589 834.589 571.5 837.167 571.5L912.833 571.5C915.411 571.5 917.5 573.589 917.5 576.167L917.5 594.833C917.5 597.411 915.411 599.5 912.833 599.5L837.167 599.5C834.589 599.5 832.5 597.411 832.5 594.833Z" stroke="#000000" stroke-width="1.33333" stroke-miterlimit="8" fill="#FFFFFF" fill-rule="evenodd"/><text font-family="Yu Gothic,Yu Gothic_MSFontService,sans-serif" font-weight="400" font-size="11" transform="translate(853.528 589)">電源<tspan font-size="11" x="21.3333" y="0">OFF</tspan></text><path d="M926.5 537C926.5 534.515 928.515 532.5 931 532.5L1007 532.5C1009.49 532.5 1011.5 534.515 1011.5 537L1011.5 555C1011.5 557.485 1009.49 559.5 1007 559.5L931 559.5C928.515 559.5 926.5 557.485 926.5 555Z" stroke="#000000" stroke-width="1.33333" stroke-miterlimit="8" fill="#FFFFFF" fill-rule="evenodd"/><text font-family="Yu Gothic,Yu Gothic_MSFontService,sans-serif" font-weight="400" font-size="11" transform="translate(947.216 549)">初期化中</text><path d="M1066.5 536.167C1066.5 533.589 1068.59 531.5 1071.17 531.5L1147.83 531.5C1150.41 531.5 1152.5 533.589 1152.5 536.167L1152.5 554.833C1152.5 557.411 1150.41 559.5 1147.83 559.5L1071.17 559.5C1068.59 559.5 1066.5 557.411 1066.5 554.833Z" stroke="#000000" stroke-width="1.33333" stroke-miterlimit="8" fill="#FFFFFF" fill-rule="evenodd"/><text font-family="Yu Gothic,Yu Gothic_MSFontService,sans-serif" font-weight="400" font-size="11" transform="translate(1092.82 549)">稼働中</text><path d="M1001.5 584C1001.5 581.515 1003.51 579.5 1006 579.5L1083 579.5C1085.49 579.5 1087.5 581.515 1087.5 584L1087.5 602C1087.5 604.485 1085.49 606.5 1083 606.5L1006 606.5C1003.51 606.5 1001.5 604.485 1001.5 602Z" stroke="#000000" stroke-width="1.33333" stroke-miterlimit="8" fill="#FFFFFF" fill-rule="evenodd"/><text font-family="Yu Gothic,Yu Gothic_MSFontService,sans-serif" font-weight="400" font-size="11" transform="translate(1027.96 596)">故障中</text><path d="M926.5 623C926.5 620.515 928.515 618.5 931 618.5L1007 618.5C1009.49 618.5 1011.5 620.515 1011.5 623L1011.5 641C1011.5 643.485 1009.49 645.5 1007 645.5L931 645.5C928.515 645.5 926.5 643.485 926.5 641Z" stroke="#000000" stroke-width="1.33333" stroke-miterlimit="8" fill="#FFFFFF" fill-rule="evenodd"/><text font-family="Yu Gothic,Yu Gothic_MSFontService,sans-serif" font-weight="400" font-size="11" transform="translate(947.216 635)">テスト中</text><path d="M875.167 571.789 875.167 545.167 926.042 545.167 926.042 545.833 875.5 545.833 875.833 545.5 875.833 571.789ZM918.21 540.545 926.703 545.5 918.21 550.455C918.051 550.547 917.847 550.494 917.754 550.335 917.661 550.176 917.715 549.972 917.874 549.879L925.874 545.212 925.874 545.788 917.874 541.121C917.715 541.029 917.661 540.824 917.754 540.665 917.847 540.506 918.051 540.453 918.21 540.545Z"/><path d="M0-0.333333 27.7308-0.333333 27.7308 0.226142 27.3975-0.107192 54.1349-0.107192 54.1349 0.559475 27.0641 0.559475 27.0641 0 27.3975 0.333333 0 0.333333ZM46.3028-4.72845 54.7964 0.226142 46.3028 5.18073C46.1438 5.27349 45.9397 5.21978 45.8469 5.06077 45.7542 4.90175 45.8079 4.69764 45.9669 4.60488L53.9669-0.0617846 53.9669 0.514068 45.9669-4.1526C45.8079-4.24536 45.7542-4.44946 45.8469-4.60848 45.9397-4.7675 46.1438-4.82121 46.3028-4.72845Z" transform="matrix(1 0 0 -1 1011.5 545.726)"/><path d="M0-0.333333 34.3989-0.333333 34.3989 32.0143 33.7323 32.0143 33.7323 0 34.0656 0.333333 0 0.333333ZM39.0202 24.1823 34.0656 32.6759 29.111 24.1823C29.0183 24.0233 29.072 23.8192 29.231 23.7264 29.39 23.6336 29.5941 23.6874 29.6869 23.8464L34.3535 31.8464 33.7777 31.8464 38.4444 23.8464C38.5371 23.6874 38.7412 23.6336 38.9002 23.7264 39.0593 23.8192 39.113 24.0233 39.0202 24.1823Z" transform="matrix(1.83697e-16 1 1 -1.83697e-16 969.5 559.5)"/><path d="M1109.95 559.5 1109.95 594.125 1088.16 594.125 1088.16 593.458 1109.62 593.458 1109.29 593.792 1109.29 559.5ZM1095.99 598.746 1087.5 593.792 1095.99 588.837C1096.15 588.744 1096.36 588.798 1096.45 588.957 1096.54 589.116 1096.49 589.32 1096.33 589.413L1088.33 594.08 1088.33 593.504 1096.33 598.17C1096.49 598.263 1096.54 598.467 1096.45 598.626 1096.36 598.785 1096.15 598.839 1095.99 598.746Z"/><path d="M1044.51 606.5 1044.51 632.407 1012.16 632.407 1012.16 631.741 1044.17 631.741 1043.84 632.074 1043.84 606.5ZM1019.99 637.029 1011.5 632.074 1019.99 627.119C1020.15 627.027 1020.36 627.08 1020.45 627.239 1020.54 627.398 1020.49 627.603 1020.33 627.695L1012.33 632.362 1012.33 631.786 1020.33 636.453C1020.49 636.546 1020.54 636.75 1020.45 636.909 1020.36 637.068 1020.15 637.121 1019.99 637.029Z"/><path d="M926.702 633.184 875.167 633.184 875.167 600.16 875.833 600.16 875.833 632.851 875.5 632.518 926.702 632.518ZM870.545 607.992 875.5 599.499 880.455 607.992C880.547 608.151 880.494 608.355 880.335 608.448 880.176 608.541 879.972 608.487 879.879 608.328L875.212 600.328 875.788 600.328 871.121 608.328C871.029 608.487 870.824 608.541 870.665 608.448 870.506 608.355 870.453 608.151 870.545 607.992Z"/></g></svg>