<svg width="608" height="211" xmlns="http://www.w3.org/2000/svg" xmlns:xlink="http://www.w3.org/1999/xlink" overflow="hidden"><defs><clipPath id="clip0"><rect x="90" y="646" width="608" height="211"/></clipPath><clipPath id="clip1"><rect x="142" y="720" width="56" height="56"/></clipPath><clipPath id="clip2"><rect x="142" y="720" width="56" height="56"/></clipPath><clipPath id="clip3"><rect x="142" y="720" width="56" height="56"/></clipPath></defs><g clip-path="url(#clip0)" transform="translate(-90 -646)"><rect x="92.5001" y="647.5" width="604" height="209" stroke="#D9D9D9" stroke-width="1.33333" stroke-miterlimit="8" fill="none"/><rect x="121" y="664" width="551" height="172" fill="#F2F2F2"/><g clip-path="url(#clip1)"><g clip-path="url(#clip2)"><g clip-path="url(#clip3)"><path d="M164.162 757.712 163.483 759.016 163.454 759.069C161.878 761.749 158.967 763.413 155.855 763.413 154.294 763.413 152.752 762.992 151.4 762.197 149.372 761.004 147.929 759.094 147.34 756.816 147.314 756.719 147.292 756.621 147.271 756.523L146.148 765.143 165.137 765.143 164.162 757.712Z" fill="#4B4B4B"/><path d="M165.284 726.463 149.268 750.728C147.126 754.369 148.342 759.06 151.985 761.201 155.627 763.343 160.316 762.127 162.458 758.484L173.329 737.586 167.337 731.89C165.774 730.278 165.242 728.479 165.284 726.463ZM158.493 756.152C157.639 757.605 155.769 758.09 154.316 757.237 152.863 756.381 152.378 754.512 153.233 753.059 154.087 751.606 155.957 751.121 157.409 751.975 158.862 752.83 159.348 754.7 158.493 756.152Z" fill="#4B4B4B"/><path d="M165.669 766.183 145.749 766.183C144.393 766.183 143.294 767.283 143.294 768.64L143.294 776 168.123 776 168.123 768.64C168.123 767.283 167.024 766.183 165.669 766.183Z" fill="#4B4B4B"/><path d="M191.221 740.315C192.007 740.315 192.762 740.452 193.461 740.704L177.93 722.137C175.453 719.446 171.263 719.273 168.573 721.751 165.881 724.227 165.709 728.417 168.186 731.107L184.587 746.689C184.727 743.151 187.648 740.315 191.221 740.315ZM174.767 728.481C173.742 729.424 172.145 729.357 171.201 728.332 170.256 727.306 170.322 725.71 171.348 724.766 172.374 723.82 173.97 723.887 174.916 724.913 175.86 725.938 175.793 727.535 174.767 728.481Z" fill="#4B4B4B"/><path d="M189.214 759.947 191.355 762.355 193.495 759.947 193.495 755.982 189.214 755.982Z" fill="#4B4B4B"/><path d="M191.221 741.469C188.192 741.469 185.736 743.925 185.736 746.955L185.736 754.849 196.706 754.849 196.706 746.955C196.706 743.925 194.252 741.469 191.221 741.469ZM191.221 748.929C190.038 748.929 189.08 747.97 189.08 746.787 189.08 745.604 190.038 744.645 191.221 744.645 192.404 744.645 193.364 745.604 193.364 746.787 193.364 747.97 192.404 748.929 191.221 748.929Z" fill="#4B4B4B"/></g></g></g><text font-family="Yu Gothic,Yu Gothic_MSFontService,sans-serif" font-weight="400" font-size="16" transform="translate(228.921 753)">装置の状態：電源<tspan font-size="16" x="128" y="0">OFF</tspan><tspan font-size="16" x="163.5" y="0">| </tspan><tspan font-size="16" x="174.167" y="0">初期化中</tspan><tspan font-size="16" x="242.667" y="0">| </tspan><tspan font-size="16" x="253.333" y="0">稼働中</tspan><tspan font-size="16" x="305.833" y="0">| </tspan><tspan font-size="16" x="316.5" y="0">故障中</tspan></text></g></svg>