<svg width="880" height="868" xmlns="http://www.w3.org/2000/svg" xmlns:xlink="http://www.w3.org/1999/xlink" overflow="hidden"><defs><clipPath id="clip0"><rect x="90" y="-3" width="880" height="868"/></clipPath></defs><g clip-path="url(#clip0)" transform="translate(-90 3)"><rect x="92.5001" y="56.5001" width="604" height="808" stroke="#D9D9D9" stroke-width="1.33333" stroke-miterlimit="8" fill="none"/><text font-family="Yu Gothic,Yu Gothic_MSFontService,sans-serif" font-weight="400" font-size="24" transform="translate(587.062 27)">4<tspan font-size="24" x="13.3333" y="0">×</tspan>4<tspan font-size="24" x="50.6667" y="0">×</tspan>2<tspan font-size="24" x="88" y="0">の</tspan>32<tspan font-size="24" x="138.667" y="0">種類の</tspan>2<tspan font-size="24" x="224" y="0">項関係の一覧</tspan><tspan font-family="Consolas,Consolas_MSFontService,sans-serif" font-size="16" x="148.76" y="67">Yaml</tspan><tspan font-family="Consolas,Consolas_MSFontService,sans-serif" font-size="16" x="184.094" y="67">:</tspan></text><rect x="157.5" y="124.5" width="60" height="54" stroke="#000000" stroke-width="1.33333" stroke-miterlimit="8" fill="#FFFFFF"/><rect x="297.5" y="124.5" width="60" height="54" stroke="#000000" stroke-width="1.33333" stroke-miterlimit="8" fill="#FFFFFF"/><path d="M217.5 151.5 296.72 151.5" stroke="#000000" stroke-width="0.666667" stroke-miterlimit="8" fill="none" fill-rule="evenodd"/><text font-family="Yu Gothic,Yu Gothic_MSFontService,sans-serif" font-weight="400" font-size="11" transform="translate(223.427 165)">0..1<tspan font-size="11" x="49.2777" y="-22">0..1</tspan></text><rect x="425.5" y="123.5" width="61" height="54" stroke="#000000" stroke-width="1.33333" stroke-miterlimit="8" fill="#FFFFFF"/><rect x="565.5" y="123.5" width="61" height="54" stroke="#000000" stroke-width="1.33333" stroke-miterlimit="8" fill="#FFFFFF"/><path d="M486.5 150.5 565.72 150.5" stroke="#000000" stroke-width="0.666667" stroke-miterlimit="8" fill="none" fill-rule="evenodd"/><text font-family="Yu Gothic,Yu Gothic_MSFontService,sans-serif" font-weight="400" font-size="11" transform="translate(492.041 165)">0..1<tspan font-size="11" x="61.2249" y="-23">1</tspan></text><rect x="157.5" y="271.5" width="60" height="54" stroke="#000000" stroke-width="1.33333" stroke-miterlimit="8" fill="#FFFFFF"/><rect x="297.5" y="271.5" width="60" height="54" stroke="#000000" stroke-width="1.33333" stroke-miterlimit="8" fill="#FFFFFF"/><path d="M217.5 298.5 296.72 298.5" stroke="#000000" stroke-width="0.666667" stroke-miterlimit="8" fill="none" fill-rule="evenodd"/><text font-family="Yu Gothic,Yu Gothic_MSFontService,sans-serif" font-weight="400" font-size="11" transform="translate(223.427 313)">0..1<tspan font-size="11" x="62.2346" y="-23">*</tspan></text><rect x="425.5" y="271.5" width="61" height="54" stroke="#000000" stroke-width="1.33333" stroke-miterlimit="8" fill="#FFFFFF"/><rect x="565.5" y="271.5" width="61" height="54" stroke="#000000" stroke-width="1.33333" stroke-miterlimit="8" fill="#FFFFFF"/><path d="M486.5 298.5 565.72 298.5" stroke="#000000" stroke-width="0.666667" stroke-miterlimit="8" fill="none" fill-rule="evenodd"/><text font-family="Yu Gothic,Yu Gothic_MSFontService,sans-serif" font-weight="400" font-size="11" transform="translate(492.041 313)">0..1<tspan font-size="11" x="50.6207" y="-23">1..*</tspan></text><rect x="157.5" y="415.5" width="60" height="54" stroke="#000000" stroke-width="1.33333" stroke-miterlimit="8" fill="#FFFFFF"/><rect x="297.5" y="415.5" width="60" height="54" stroke="#000000" stroke-width="1.33333" stroke-miterlimit="8" fill="#FFFFFF"/><path d="M217.5 442.5 296.72 442.5" stroke="#000000" stroke-width="0.666667" stroke-miterlimit="8" fill="none" fill-rule="evenodd"/><text font-family="Yu Gothic,Yu Gothic_MSFontService,sans-serif" font-weight="400" font-size="11" transform="translate(223.427 457)">1<tspan font-size="11" x="61.2248" y="-23">1</tspan></text><rect x="425.5" y="415.5" width="61" height="54" stroke="#000000" stroke-width="1.33333" stroke-miterlimit="8" fill="#FFFFFF"/><rect x="565.5" y="415.5" width="61" height="54" stroke="#000000" stroke-width="1.33333" stroke-miterlimit="8" fill="#FFFFFF"/><path d="M486.5 442.5 565.72 442.5" stroke="#000000" stroke-width="0.666667" stroke-miterlimit="8" fill="none" fill-rule="evenodd"/><text font-family="Yu Gothic,Yu Gothic_MSFontService,sans-serif" font-weight="400" font-size="11" transform="translate(492.041 457)">1<tspan font-size="11" x="62.2347" y="-23">*</tspan></text><rect x="157.5" y="558.5" width="60" height="54" stroke="#000000" stroke-width="1.33333" stroke-miterlimit="8" fill="#FFFFFF"/><rect x="297.5" y="558.5" width="60" height="54" stroke="#000000" stroke-width="1.33333" stroke-miterlimit="8" fill="#FFFFFF"/><path d="M217.5 585.5 296.72 585.5" stroke="#000000" stroke-width="0.666667" stroke-miterlimit="8" fill="none" fill-rule="evenodd"/><text font-family="Yu Gothic,Yu Gothic_MSFontService,sans-serif" font-weight="400" font-size="11" transform="translate(223.427 600)">1<tspan font-size="11" x="50.6207" y="-23">1..*</tspan></text><rect x="425.5" y="558.5" width="61" height="54" stroke="#000000" stroke-width="1.33333" stroke-miterlimit="8" fill="#FFFFFF"/><rect x="565.5" y="558.5" width="61" height="54" stroke="#000000" stroke-width="1.33333" stroke-miterlimit="8" fill="#FFFFFF"/><path d="M486.5 585.5 565.72 585.5" stroke="#000000" stroke-width="0.666667" stroke-miterlimit="8" fill="none" fill-rule="evenodd"/><text font-family="Yu Gothic,Yu Gothic_MSFontService,sans-serif" font-weight="400" font-size="11" transform="translate(492.041 599)">*<tspan font-size="11" x="62.2347" y="-22">*</tspan></text><rect x="157.5" y="689.5" width="60" height="54" stroke="#000000" stroke-width="1.33333" stroke-miterlimit="8" fill="#FFFFFF"/><rect x="297.5" y="689.5" width="60" height="54" stroke="#000000" stroke-width="1.33333" stroke-miterlimit="8" fill="#FFFFFF"/><path d="M217.5 716.5 296.72 716.5" stroke="#000000" stroke-width="0.666667" stroke-miterlimit="8" fill="none" fill-rule="evenodd"/><text font-family="Yu Gothic,Yu Gothic_MSFontService,sans-serif" font-weight="400" font-size="11" transform="translate(223.427 730)">*<tspan font-size="11" x="50.6208" y="-22">1..*</tspan></text><rect x="425.5" y="688.5" width="61" height="55" stroke="#000000" stroke-width="1.33333" stroke-miterlimit="8" fill="#FFFFFF"/><rect x="565.5" y="688.5" width="61" height="55" stroke="#000000" stroke-width="1.33333" stroke-miterlimit="8" fill="#FFFFFF"/><path d="M486.5 715.5 565.72 715.5" stroke="#000000" stroke-width="0.666667" stroke-miterlimit="8" fill="none" fill-rule="evenodd"/><text font-family="Yu Gothic,Yu Gothic_MSFontService,sans-serif" font-weight="400" font-size="11" transform="translate(492.041 730)">1..*<tspan font-size="11" x="50.6208" y="-22">1..*</tspan></text><rect x="224.5" y="185.5" width="61" height="54" stroke="#000000" stroke-width="1.33333" stroke-miterlimit="8" fill="#FFFFFF"/><path d="M0 0 0.000104987 35.7825" stroke="#000000" stroke-width="0.666667" stroke-miterlimit="8" stroke-dasharray="0.666667 0.666667" fill="none" fill-rule="evenodd" transform="matrix(1 0 0 -1 254.5 185.283)"/><rect x="493.5" y="185.5" width="61" height="54" stroke="#000000" stroke-width="1.33333" stroke-miterlimit="8" fill="#FFFFFF"/><path d="M0 0 0.000104987 35.7825" stroke="#000000" stroke-width="0.666667" stroke-miterlimit="8" stroke-dasharray="0.666667 0.666667" fill="none" fill-rule="evenodd" transform="matrix(1 0 0 -1 524.5 185.283)"/><rect x="224.5" y="335.5" width="61" height="55" stroke="#000000" stroke-width="1.33333" stroke-miterlimit="8" fill="#FFFFFF"/><path d="M0 0 0.000104987 35.7825" stroke="#000000" stroke-width="0.666667" stroke-miterlimit="8" stroke-dasharray="0.666667 0.666667" fill="none" fill-rule="evenodd" transform="matrix(1 0 0 -1 254.5 336.283)"/><rect x="493.5" y="335.5" width="61" height="55" stroke="#000000" stroke-width="1.33333" stroke-miterlimit="8" fill="#FFFFFF"/><path d="M0 0 0.000104987 35.7825" stroke="#000000" stroke-width="0.666667" stroke-miterlimit="8" stroke-dasharray="0.666667 0.666667" fill="none" fill-rule="evenodd" transform="matrix(1 0 0 -1 524.5 336.283)"/><rect x="224.5" y="479.5" width="61" height="54" stroke="#000000" stroke-width="1.33333" stroke-miterlimit="8" fill="#FFFFFF"/><path d="M0 0 0.000104987 35.7825" stroke="#000000" stroke-width="0.666667" stroke-miterlimit="8" stroke-dasharray="0.666667 0.666667" fill="none" fill-rule="evenodd" transform="matrix(1 0 0 -1 254.5 479.283)"/><rect x="493.5" y="479.5" width="61" height="54" stroke="#000000" stroke-width="1.33333" stroke-miterlimit="8" fill="#FFFFFF"/><path d="M0 0 0.000104987 35.7825" stroke="#000000" stroke-width="0.666667" stroke-miterlimit="8" stroke-dasharray="0.666667 0.666667" fill="none" fill-rule="evenodd" transform="matrix(1 0 0 -1 524.5 479.283)"/><rect x="224.5" y="620.5" width="61" height="54" stroke="#000000" stroke-width="1.33333" stroke-miterlimit="8" fill="#FFFFFF"/><path d="M0 0 0.000104987 35.7825" stroke="#000000" stroke-width="0.666667" stroke-miterlimit="8" stroke-dasharray="0.666667 0.666667" fill="none" fill-rule="evenodd" transform="matrix(1 0 0 -1 254.5 620.283)"/><rect x="493.5" y="620.5" width="61" height="54" stroke="#000000" stroke-width="1.33333" stroke-miterlimit="8" fill="#FFFFFF"/><path d="M0 0 0.000104987 35.7825" stroke="#000000" stroke-width="0.666667" stroke-miterlimit="8" stroke-dasharray="0.666667 0.666667" fill="none" fill-rule="evenodd" transform="matrix(1 0 0 -1 524.5 620.283)"/><rect x="224.5" y="750.5" width="61" height="55" stroke="#000000" stroke-width="1.33333" stroke-miterlimit="8" fill="#FFFFFF"/><path d="M0 0 0.000104987 35.7825" stroke="#000000" stroke-width="0.666667" stroke-miterlimit="8" stroke-dasharray="0.666667 0.666667" fill="none" fill-rule="evenodd" transform="matrix(1 0 0 -1 254.5 751.283)"/><rect x="493.5" y="750.5" width="61" height="55" stroke="#000000" stroke-width="1.33333" stroke-miterlimit="8" fill="#FFFFFF"/><path d="M0 0 0.000104987 35.7825" stroke="#000000" stroke-width="0.666667" stroke-miterlimit="8" stroke-dasharray="0.666667 0.666667" fill="none" fill-rule="evenodd" transform="matrix(1 0 0 -1 524.5 751.283)"/><text font-family="Yu Gothic,Yu Gothic_MSFontService,sans-serif" font-weight="400" font-size="16" transform="translate(205.755 842)">※<tspan font-size="16" x="20.5" y="0">左右反転したときに同じ多重度になるものは省略</tspan></text></g></svg>