<svg width="608" height="634" xmlns="http://www.w3.org/2000/svg" xmlns:xlink="http://www.w3.org/1999/xlink" overflow="hidden"><defs><clipPath id="clip0"><rect x="90" y="55" width="608" height="634"/></clipPath></defs><g clip-path="url(#clip0)" transform="translate(-90 -55)"><rect x="92.5001" y="56.5001" width="604" height="631" stroke="#D9D9D9" stroke-width="1.33333" stroke-miterlimit="8" fill="none"/><rect x="236.5" y="113.5" width="113" height="120" stroke="#000000" stroke-width="1.33333" stroke-miterlimit="8" fill="#FFFFFF"/><text font-family="Consolas,Consolas_MSFontService,sans-serif" font-weight="400" font-size="19" transform="translate(287.489 180)">B</text><path d="M130 173 235.964 173" stroke="#000000" stroke-width="2" stroke-miterlimit="8" fill="none" fill-rule="evenodd"/><text font-family="Yu Gothic,Yu Gothic_MSFontService,sans-serif" font-weight="400" font-size="16" transform="translate(202.051 170)">0..1<tspan font-size="16" x="-32.335" y="23">B</tspan><tspan font-size="16" x="-21.5017" y="23">の意味</tspan></text><rect x="236.5" y="256.5" width="113" height="120" stroke="#000000" stroke-width="1.33333" stroke-miterlimit="8" fill="#FFFFFF"/><text font-family="Consolas,Consolas_MSFontService,sans-serif" font-weight="400" font-size="19" transform="translate(287.489 323)">B</text><path d="M130 316 235.964 316" stroke="#000000" stroke-width="2" stroke-miterlimit="8" fill="none" fill-rule="evenodd"/><text font-family="Yu Gothic,Yu Gothic_MSFontService,sans-serif" font-weight="400" font-size="16" transform="translate(219.219 313)">1<tspan font-size="16" x="-49.5026" y="23">B</tspan><tspan font-size="16" x="-38.6693" y="23">の意味</tspan></text><rect x="236.5" y="399.5" width="113" height="120" stroke="#000000" stroke-width="1.33333" stroke-miterlimit="8" fill="#FFFFFF"/><text font-family="Consolas,Consolas_MSFontService,sans-serif" font-weight="400" font-size="19" transform="translate(287.489 466)">B</text><path d="M130 459 235.964 459" stroke="#000000" stroke-width="2" stroke-miterlimit="8" fill="none" fill-rule="evenodd"/><text font-family="Yu Gothic,Yu Gothic_MSFontService,sans-serif" font-weight="400" font-size="16" transform="translate(220.397 456)">*<tspan font-size="16" x="-50.6808" y="23">B</tspan><tspan font-size="16" x="-39.8475" y="23">の意味</tspan></text><rect x="236.5" y="542.5" width="113" height="120" stroke="#000000" stroke-width="1.33333" stroke-miterlimit="8" fill="#FFFFFF"/><text font-family="Consolas,Consolas_MSFontService,sans-serif" font-weight="400" font-size="19" transform="translate(287.489 609)">B</text><path d="M130 602 235.964 602" stroke="#000000" stroke-width="2" stroke-miterlimit="8" fill="none" fill-rule="evenodd"/><text font-family="Yu Gothic,Yu Gothic_MSFontService,sans-serif" font-weight="400" font-size="16" transform="translate(203.218 599)">1..*<tspan font-size="16" x="-33.5017" y="23">B</tspan><tspan font-size="16" x="-22.6684" y="23">の意味</tspan><tspan font-size="16" x="-17.9949" y="-509">多重度は、“</tspan><tspan font-size="16" x="68.6718" y="-509">0..1</tspan>”、“<tspan font-size="16" x="124.005" y="-509">1</tspan><tspan font-size="16" x="132.838" y="-509">”、“</tspan><tspan font-size="16" x="162.172" y="-509">*</tspan><tspan font-size="16" x="169.838" y="-509">”、“</tspan><tspan font-size="16" x="199.172" y="-509">1..*</tspan>”<tspan font-size="16" x="235.172" y="-509">の４種類のみを使用</tspan><tspan font-size="16" x="174.708" y="-449">A</tspan><tspan font-size="16" x="185.042" y="-449">のインスタンスが存在する場合、</tspan><tspan font-size="16" x="425.042" y="-449">A</tspan><tspan font-size="16" x="435.375" y="-449">の</tspan><tspan font-size="16" x="174.708" y="-430">各インスタンスに対して、</tspan>R1で定義さ<tspan font-size="16" x="174.708" y="-411">れた意味で関係する</tspan>B<tspan font-size="16" x="329.542" y="-411">のインスタンスが</tspan><tspan font-size="16" x="174.708" y="-392">存在しないか、存在した場合はただ一</tspan><tspan font-size="16" x="174.708" y="-373">つだけ存在する</tspan><tspan font-size="16" x="-66.6406" y="-433">R1</tspan><tspan font-size="16" x="-65.7769" y="-290">R1</tspan><tspan font-size="16" x="-63.7785" y="-147">R1</tspan><tspan font-size="16" x="-65.6403" y="-4">R1</tspan><tspan font-size="16" x="174.708" y="-315">A</tspan><tspan font-size="16" x="185.042" y="-315">のインスタンスが存在する場合、</tspan><tspan font-size="16" x="425.042" y="-315">A</tspan><tspan font-size="16" x="435.375" y="-315">の</tspan><tspan font-size="16" x="174.708" y="-296">各インスタンスに対して、</tspan>R1で定義さ<tspan font-size="16" x="174.708" y="-277">れた意味で関係する</tspan>B<tspan font-size="16" x="329.542" y="-277">のインスタンスが、</tspan><tspan font-size="16" x="174.708" y="-258">必ず一つだけ存在する</tspan><tspan font-size="16" x="175.935" y="-167">A</tspan><tspan font-size="16" x="186.268" y="-167">のインスタンスが存在する場合、</tspan>A<tspan font-size="16" x="436.601" y="-167">の</tspan><tspan font-size="16" x="175.935" y="-148">各インスタンスに対して、</tspan><tspan font-size="16" x="367.935" y="-148">R1</tspan>で定義さ<tspan font-size="16" x="175.935" y="-129">れた意味で関係する</tspan><tspan font-size="16" x="319.935" y="-129">B</tspan><tspan font-size="16" x="330.768" y="-129">のインスタンスが、</tspan><tspan font-size="16" x="175.935" y="-110">存在しないか、複数存在する</tspan><tspan font-size="16" x="174.708" y="-24">A</tspan><tspan font-size="16" x="185.042" y="-24">のインスタンスが存在する場合、</tspan>A<tspan font-size="16" x="435.375" y="-24">の</tspan><tspan font-size="16" x="174.708" y="-5">各インスタンスに対して、</tspan><tspan font-size="16" x="366.708" y="-5">R1</tspan>で定義さ<tspan font-size="16" x="174.708" y="14">れた意味で関係する</tspan><tspan font-size="16" x="318.708" y="14">B</tspan><tspan font-size="16" x="329.542" y="14">のインスタンスが、</tspan><tspan font-size="16" x="174.708" y="33">必ず一個以上存在する</tspan></text></g></svg>