<svg width="608" height="920" xmlns="http://www.w3.org/2000/svg" xmlns:xlink="http://www.w3.org/1999/xlink" overflow="hidden"><defs><clipPath id="clip0"><rect x="90" y="55" width="608" height="920"/></clipPath></defs><g clip-path="url(#clip0)" transform="translate(-90 -55)"><rect x="92.5001" y="56.5001" width="604" height="918" stroke="#D9D9D9" stroke-width="1.33333" stroke-miterlimit="8" fill="none"/><rect x="159.5" y="123.5" width="60" height="54" stroke="#000000" stroke-width="1.33333" stroke-miterlimit="8" fill="#FFFFFF"/><rect x="299.5" y="123.5" width="60" height="54" stroke="#000000" stroke-width="1.33333" stroke-miterlimit="8" fill="#FFFFFF"/><path d="M219.5 150.5 298.72 150.5" stroke="#000000" stroke-width="0.666667" stroke-miterlimit="8" fill="none" fill-rule="evenodd"/><text font-family="Yu Gothic,Yu Gothic_MSFontService,sans-serif" font-weight="400" font-size="11" transform="translate(225.386 165)">0..1<tspan font-size="11" x="49.2777" y="-22">0..1</tspan></text><rect x="427.5" y="123.5" width="61" height="54" stroke="#000000" stroke-width="1.33333" stroke-miterlimit="8" fill="#FFFFFF"/><rect x="567.5" y="123.5" width="61" height="54" stroke="#000000" stroke-width="1.33333" stroke-miterlimit="8" fill="#FFFFFF"/><path d="M488.5 150.5 567.72 150.5" stroke="#000000" stroke-width="0.666667" stroke-miterlimit="8" fill="none" fill-rule="evenodd"/><text font-family="Yu Gothic,Yu Gothic_MSFontService,sans-serif" font-weight="400" font-size="11" transform="translate(494 165)">0..1<tspan font-size="11" x="61.2249" y="-23">1</tspan></text><rect x="159.5" y="236.5" width="60" height="54" stroke="#000000" stroke-width="1.33333" stroke-miterlimit="8" fill="#FFFFFF"/><rect x="299.5" y="236.5" width="60" height="54" stroke="#000000" stroke-width="1.33333" stroke-miterlimit="8" fill="#FFFFFF"/><path d="M219.5 263.5 298.72 263.5" stroke="#000000" stroke-width="0.666667" stroke-miterlimit="8" fill="none" fill-rule="evenodd"/><text font-family="Yu Gothic,Yu Gothic_MSFontService,sans-serif" font-weight="400" font-size="11" transform="translate(225.386 278)">0..1<tspan font-size="11" x="62.2346" y="-23">*</tspan></text><rect x="427.5" y="236.5" width="61" height="54" stroke="#000000" stroke-width="1.33333" stroke-miterlimit="8" fill="#FFFFFF"/><rect x="567.5" y="236.5" width="61" height="54" stroke="#000000" stroke-width="1.33333" stroke-miterlimit="8" fill="#FFFFFF"/><path d="M488.5 263.5 567.72 263.5" stroke="#000000" stroke-width="0.666667" stroke-miterlimit="8" fill="none" fill-rule="evenodd"/><text font-family="Yu Gothic,Yu Gothic_MSFontService,sans-serif" font-weight="400" font-size="11" transform="translate(494 278)">0..1<tspan font-size="11" x="50.6207" y="-23">1..*</tspan></text><rect x="159.5" y="345.5" width="60" height="54" stroke="#000000" stroke-width="1.33333" stroke-miterlimit="8" fill="#FFFFFF"/><rect x="299.5" y="345.5" width="60" height="54" stroke="#000000" stroke-width="1.33333" stroke-miterlimit="8" fill="#FFFFFF"/><path d="M219.5 372.5 298.72 372.5" stroke="#000000" stroke-width="0.666667" stroke-miterlimit="8" fill="none" fill-rule="evenodd"/><text font-family="Yu Gothic,Yu Gothic_MSFontService,sans-serif" font-weight="400" font-size="11" transform="translate(225.386 386)">1<tspan font-size="11" x="49.611" y="-22">0..1</tspan></text><rect x="427.5" y="345.5" width="61" height="54" stroke="#000000" stroke-width="1.33333" stroke-miterlimit="8" fill="#FFFFFF"/><rect x="567.5" y="345.5" width="61" height="54" stroke="#000000" stroke-width="1.33333" stroke-miterlimit="8" fill="#FFFFFF"/><path d="M488.5 372.5 567.72 372.5" stroke="#000000" stroke-width="0.666667" stroke-miterlimit="8" fill="none" fill-rule="evenodd"/><text font-family="Yu Gothic,Yu Gothic_MSFontService,sans-serif" font-weight="400" font-size="11" transform="translate(494 386)">1<tspan font-size="11" x="61.2248" y="-22">1</tspan></text><rect x="159.5" y="453.5" width="60" height="54" stroke="#000000" stroke-width="1.33333" stroke-miterlimit="8" fill="#FFFFFF"/><rect x="299.5" y="453.5" width="60" height="54" stroke="#000000" stroke-width="1.33333" stroke-miterlimit="8" fill="#FFFFFF"/><path d="M219.5 480.5 298.72 480.5" stroke="#000000" stroke-width="0.666667" stroke-miterlimit="8" fill="none" fill-rule="evenodd"/><text font-family="Yu Gothic,Yu Gothic_MSFontService,sans-serif" font-weight="400" font-size="11" transform="translate(225.386 495)">1<tspan font-size="11" x="62.2347" y="-23">*</tspan></text><rect x="427.5" y="453.5" width="61" height="54" stroke="#000000" stroke-width="1.33333" stroke-miterlimit="8" fill="#FFFFFF"/><rect x="567.5" y="453.5" width="61" height="54" stroke="#000000" stroke-width="1.33333" stroke-miterlimit="8" fill="#FFFFFF"/><path d="M488.5 480.5 567.72 480.5" stroke="#000000" stroke-width="0.666667" stroke-miterlimit="8" fill="none" fill-rule="evenodd"/><text font-family="Yu Gothic,Yu Gothic_MSFontService,sans-serif" font-weight="400" font-size="11" transform="translate(494 495)">1<tspan font-size="11" x="50.6208" y="-23">1..*</tspan></text><rect x="159.5" y="562.5" width="60" height="54" stroke="#000000" stroke-width="1.33333" stroke-miterlimit="8" fill="#FFFFFF"/><rect x="299.5" y="562.5" width="60" height="54" stroke="#000000" stroke-width="1.33333" stroke-miterlimit="8" fill="#FFFFFF"/><path d="M219.5 589.5 298.72 589.5" stroke="#000000" stroke-width="0.666667" stroke-miterlimit="8" fill="none" fill-rule="evenodd"/><text font-family="Yu Gothic,Yu Gothic_MSFontService,sans-serif" font-weight="400" font-size="11" transform="translate(225.386 604)">*<tspan font-size="11" x="49.611" y="-23">0..1</tspan></text><rect x="427.5" y="562.5" width="61" height="54" stroke="#000000" stroke-width="1.33333" stroke-miterlimit="8" fill="#FFFFFF"/><rect x="567.5" y="562.5" width="61" height="54" stroke="#000000" stroke-width="1.33333" stroke-miterlimit="8" fill="#FFFFFF"/><path d="M488.5 589.5 567.72 589.5" stroke="#000000" stroke-width="0.666667" stroke-miterlimit="8" fill="none" fill-rule="evenodd"/><text font-family="Yu Gothic,Yu Gothic_MSFontService,sans-serif" font-weight="400" font-size="11" transform="translate(494 604)">*<tspan font-size="11" x="61.2249" y="-23">1</tspan></text><rect x="159.5" y="675.5" width="60" height="54" stroke="#000000" stroke-width="1.33333" stroke-miterlimit="8" fill="#FFFFFF"/><rect x="299.5" y="675.5" width="60" height="54" stroke="#000000" stroke-width="1.33333" stroke-miterlimit="8" fill="#FFFFFF"/><path d="M219.5 702.5 298.72 702.5" stroke="#000000" stroke-width="0.666667" stroke-miterlimit="8" fill="none" fill-rule="evenodd"/><text font-family="Yu Gothic,Yu Gothic_MSFontService,sans-serif" font-weight="400" font-size="11" transform="translate(225.386 717)">*<tspan font-size="11" x="62.2346" y="-23">*</tspan></text><rect x="427.5" y="675.5" width="61" height="54" stroke="#000000" stroke-width="1.33333" stroke-miterlimit="8" fill="#FFFFFF"/><rect x="567.5" y="675.5" width="61" height="54" stroke="#000000" stroke-width="1.33333" stroke-miterlimit="8" fill="#FFFFFF"/><path d="M488.5 702.5 567.72 702.5" stroke="#000000" stroke-width="0.666667" stroke-miterlimit="8" fill="none" fill-rule="evenodd"/><text font-family="Yu Gothic,Yu Gothic_MSFontService,sans-serif" font-weight="400" font-size="11" transform="translate(494 717)">*<tspan font-size="11" x="50.6208" y="-23">1..*</tspan></text><rect x="159.5" y="784.5" width="60" height="54" stroke="#000000" stroke-width="1.33333" stroke-miterlimit="8" fill="#FFFFFF"/><rect x="299.5" y="784.5" width="60" height="54" stroke="#000000" stroke-width="1.33333" stroke-miterlimit="8" fill="#FFFFFF"/><path d="M219.5 811.5 298.72 811.5" stroke="#000000" stroke-width="0.666667" stroke-miterlimit="8" fill="none" fill-rule="evenodd"/><text font-family="Yu Gothic,Yu Gothic_MSFontService,sans-serif" font-weight="400" font-size="11" transform="translate(225.386 826)">1..*<tspan font-size="11" x="49.6109" y="-23">0..1</tspan></text><rect x="427.5" y="784.5" width="61" height="54" stroke="#000000" stroke-width="1.33333" stroke-miterlimit="8" fill="#FFFFFF"/><rect x="567.5" y="784.5" width="61" height="54" stroke="#000000" stroke-width="1.33333" stroke-miterlimit="8" fill="#FFFFFF"/><path d="M488.5 811.5 567.72 811.5" stroke="#000000" stroke-width="0.666667" stroke-miterlimit="8" fill="none" fill-rule="evenodd"/><text font-family="Yu Gothic,Yu Gothic_MSFontService,sans-serif" font-weight="400" font-size="11" transform="translate(494 826)">1..*<tspan font-size="11" x="61.2248" y="-23">1</tspan></text></g></svg>