<svg width="608" height="417" xmlns="http://www.w3.org/2000/svg" xmlns:xlink="http://www.w3.org/1999/xlink" overflow="hidden"><defs><clipPath id="clip0"><rect x="90" y="55" width="608" height="417"/></clipPath></defs><g clip-path="url(#clip0)" transform="translate(-90 -55)"><rect x="92.5001" y="56.5001" width="604" height="414" stroke="#D9D9D9" stroke-width="1.33333" stroke-miterlimit="8" fill="none"/><rect x="137.5" y="136.5" width="113" height="120" stroke="#000000" stroke-width="1.33333" stroke-miterlimit="8" fill="#FFFFFF"/><text font-family="Consolas,Consolas_MSFontService,sans-serif" font-weight="400" font-size="19" transform="translate(188.262 203)">A</text><rect x="527.5" y="136.5" width="113" height="120" stroke="#000000" stroke-width="1.33333" stroke-miterlimit="8" fill="#FFFFFF"/><text font-family="Consolas,Consolas_MSFontService,sans-serif" font-weight="400" font-size="19" transform="translate(578.427 203)">B</text><path d="M0 0 277.354 0.000104987" stroke="#000000" stroke-width="2" stroke-miterlimit="8" fill="none" fill-rule="evenodd" transform="matrix(1 0 0 -1 250 196)"/><text font-family="Yu Gothic,Yu Gothic_MSFontService,sans-serif" font-weight="400" font-size="16" transform="translate(252.483 193)">A<tspan font-size="16" x="10.3333" y="0">の多重度</tspan><tspan font-size="16" x="191.697" y="0">B</tspan><tspan font-size="16" x="202.531" y="0">の多重度</tspan><tspan font-size="16" x="1.17816" y="23">A</tspan><tspan font-size="16" x="11.5115" y="23">の意味</tspan><tspan font-size="16" x="208.173" y="23">B</tspan><tspan font-size="16" x="219.006" y="23">の意味</tspan><tspan font-size="16" x="-127.763" y="-94">概念クラス</tspan></text><path d="M165.733 108.261 193.956 135.782 193.491 136.259 165.267 108.739ZM198.378 131.247C201.014 133.818 201.067 138.038 198.497 140.675 195.926 143.311 191.706 143.364 189.07 140.794 186.433 138.223 186.38 134.002 188.951 131.366 191.521 128.73 195.742 128.677 198.378 131.247Z" fill="#FF0000"/><text font-family="Yu Gothic,Yu Gothic_MSFontService,sans-serif" font-weight="400" font-size="16" transform="translate(354.049 175)">関係名<tspan font-size="16" x="222.31" y="-76">概念クラス</tspan></text><path d="M0.212541-0.256783 33.4615 27.2635 33.0364 27.7771-0.212541 0.256783ZM37.4997 22.3847C40.3361 24.7323 40.7322 28.9348 38.3846 31.7711 36.0369 34.6075 31.8345 35.0036 28.9981 32.656 26.1618 30.3083 25.7656 26.1058 28.1133 23.2695 30.4609 20.4332 34.6634 20.037 37.4997 22.3847Z" fill="#FF0000" transform="matrix(-1 0 0 1 617.749 108.5)"/><path d="M295.5 171.501C295.5 156.589 307.589 144.5 322.501 144.5L430.499 144.5C445.411 144.5 457.5 156.589 457.5 171.501L457.5 387.499C457.5 402.411 445.411 414.5 430.499 414.5L322.501 414.5C307.589 414.5 295.5 402.411 295.5 387.499Z" stroke="#FF0000" stroke-width="1.33333" stroke-miterlimit="8" fill="none" fill-rule="evenodd"/><path d="M0.144636-0.300319 126.432 60.5205 126.143 61.1211-0.144636 0.300319ZM129.18 54.8144C132.497 56.412 133.891 60.3963 132.294 63.7135 130.696 67.0307 126.712 68.4248 123.395 66.8272 120.077 65.2296 118.683 61.2453 120.281 57.9281 121.878 54.6108 125.863 53.2168 129.18 54.8144Z" fill="#FF0000" transform="matrix(1 0 0 -1 253.5 301.321)"/><text font-family="Yu Gothic,Yu Gothic_MSFontService,sans-serif" font-weight="400" font-size="16" transform="translate(146.356 317)">関係を表す線と<tspan font-size="16" x="0" y="19">関連クラスを、</tspan><tspan font-size="16" x="0" y="38">点線でつなぐ</tspan></text><rect x="323.5" y="272.5" width="113" height="120" stroke="#000000" stroke-width="1.33333" stroke-miterlimit="8" fill="#FFFFFF"/><text font-family="Consolas,Consolas_MSFontService,sans-serif" font-weight="400" font-size="19" transform="translate(373.924 295)">C<tspan font-family="Yu Gothic,Yu Gothic_MSFontService,sans-serif" font-size="19" x="-41.58" y="22">特徴値</tspan><tspan font-family="Yu Gothic,Yu Gothic_MSFontService,sans-serif" font-size="19" x="-41.58" y="44">・・・</tspan></text><path d="M0 0 0.712336 75.7398" stroke="#000000" stroke-width="2" stroke-miterlimit="8" stroke-dasharray="2 2" fill="none" fill-rule="evenodd" transform="matrix(1 0 0 -1 379 271.74)"/><text font-family="Yu Gothic,Yu Gothic_MSFontService,sans-serif" font-weight="400" font-size="16" transform="translate(500.685 345)">関連クラス</text><path d="M8.59922e-07-0.333333 40.6963-0.333228 40.6963 0.333438-8.59922e-07 0.333333ZM40.6963-6.66656C44.3782-6.66655 47.3629-3.68178 47.3629 0.000122185 47.3629 3.68202 44.3782 6.66678 40.6963 6.66677 37.0144 6.66676 34.0296 3.68199 34.0296 8.77884e-05 34.0296-3.68181 37.0144-6.66657 40.6963-6.66656Z" fill="#FF0000" transform="matrix(-1 0 0 1 491.196 340.5)"/><text font-family="Yu Gothic,Yu Gothic_MSFontService,sans-serif" font-weight="400" font-size="16" transform="translate(124.72 452)">※<tspan font-size="16" x="20.5" y="0">関連クラスも概念クラスであり、特徴値がある場合はリスト表記してよい</tspan></text></g></svg>