<svg width="607" height="517" xmlns="http://www.w3.org/2000/svg" xmlns:xlink="http://www.w3.org/1999/xlink" overflow="hidden"><defs><clipPath id="clip0"><rect x="65" y="80" width="607" height="517"/></clipPath></defs><g clip-path="url(#clip0)" transform="translate(-65 -80)"><rect x="129.5" y="122.5" width="126" height="36" stroke="#000000" stroke-width="1.33333" stroke-miterlimit="8" fill="#FFFFFF"/><text font-family="Consolas,Consolas_MSFontService,sans-serif" font-weight="400" font-size="13" transform="translate(162.429 145)">Resource</text><rect x="129.5" y="235.5" width="126" height="44" stroke="#000000" stroke-width="1.33333" stroke-miterlimit="8" fill="#FFFFFF"/><text font-family="Consolas,Consolas_MSFontService,sans-serif" font-weight="400" font-size="13" transform="translate(158.762 262)">Requester</text><path d="M0 0 0.000104987 76.4818" stroke="#000000" stroke-width="1.33333" stroke-miterlimit="8" fill="none" fill-rule="evenodd" transform="matrix(1 0 0 -1 192.5 234.982)"/><text font-family="Calibri,Calibri_MSFontService,sans-serif" font-weight="400" font-size="11" transform="translate(184.791 172)">1<tspan font-size="11" x="14.7274" y="1">targe</tspan><tspan font-size="11" x="37.394" y="1">t</tspan><tspan font-size="13" x="-38.1578" y="39">R_A_1</tspan></text><rect x="284.5" y="186.5" width="126" height="36" stroke="#000000" stroke-width="1.33333" stroke-miterlimit="8" fill="#FFFFFF"/><text font-family="Consolas,Consolas_MSFontService,sans-serif" font-weight="400" font-size="13" transform="translate(317.784 209)">Assigner<tspan font-family="Calibri,Calibri_MSFontService,sans-serif" font-size="11" x="-55.5394" y="-69">*</tspan><tspan font-family="Calibri,Calibri_MSFontService,sans-serif" font-size="11" x="16.5015" y="-29">1</tspan><tspan font-family="Calibri,Calibri_MSFontService,sans-serif" font-size="11" x="36.4413" y="-33">Assigner</tspan><tspan font-family="Calibri,Calibri_MSFontService,sans-serif" font-size="13" x="16.5015" y="-81">R_A_2</tspan></text><rect x="66.5001" y="81.5001" width="605" height="515" stroke="#D9D9D9" stroke-width="1.33333" stroke-miterlimit="8" fill="none"/><path d="M0 0 45.8872 0 45.8872 92.1319" stroke="#000000" stroke-width="1.33333" stroke-miterlimit="8" fill="none" fill-rule="evenodd" transform="matrix(-1.83697e-16 -1 -1 1.83697e-16 347.632 186.387)"/><text font-family="Calibri,Calibri_MSFontService,sans-serif" font-weight="400" font-size="11" transform="translate(200.345 237)">*<tspan font-family="Yu Gothic,Yu Gothic_MSFontService,sans-serif" font-size="16" x="-123.253" y="-137">ドメイン</tspan><tspan font-family="Yu Gothic,Yu Gothic_MSFontService,sans-serif" font-size="16" x="-59.2526" y="-137">：</tspan><tspan font-size="16" x="-43.2526" y="-137">Assigner</tspan></text><path d="M117 326 400.5 326 360.442 208.495 522 326 603 326 603 357.167 603 357.167 603 403.917 603 513 522 513 400.5 513 400.5 513 117 513 117 403.917 117 357.167 117 357.167Z" fill="#F2F2F2" fill-rule="evenodd"/><text font-family="Yu Gothic,Yu Gothic_MSFontService,sans-serif" font-weight="400" font-size="13" transform="translate(291.5 343)">“<tspan font-family="Calibri,Calibri_MSFontService,sans-serif" font-size="13" x="5.66669" y="0">Assigner</tspan><tspan font-size="13" x="51.3333" y="0">”の状態モデル</tspan></text><path d="M240.5 374C240.5 370.41 243.41 367.5 247 367.5L363 367.5C366.59 367.5 369.5 370.41 369.5 374L369.5 400C369.5 403.59 366.59 406.5 363 406.5L247 406.5C243.41 406.5 240.5 403.59 240.5 400Z" stroke="#000000" stroke-width="1.33333" stroke-miterlimit="8" fill="#FFFFFF" fill-rule="evenodd"/><text font-family="Calibri,Calibri_MSFontService,sans-serif" font-weight="400" font-size="13" transform="translate(274.468 382)">Waiting for <tspan font-size="13" x="8.24664" y="16">Request</tspan></text><path d="M240.5 459C240.5 455.41 243.41 452.5 247 452.5L363 452.5C366.59 452.5 369.5 455.41 369.5 459L369.5 485C369.5 488.59 366.59 491.5 363 491.5L247 491.5C243.41 491.5 240.5 488.59 240.5 485Z" stroke="#000000" stroke-width="1.33333" stroke-miterlimit="8" fill="#FFFFFF" fill-rule="evenodd"/><text font-family="Calibri,Calibri_MSFontService,sans-serif" font-weight="400" font-size="13" transform="translate(254.301 475)">Assigned Resource</text><path d="M384.5 417C384.5 413.41 387.41 410.5 391 410.5L507 410.5C510.59 410.5 513.5 413.41 513.5 417L513.5 443C513.5 446.59 510.59 449.5 507 449.5L391 449.5C387.41 449.5 384.5 446.59 384.5 443Z" stroke="#000000" stroke-width="1.33333" stroke-miterlimit="8" fill="#FFFFFF" fill-rule="evenodd"/><text font-family="Calibri,Calibri_MSFontService,sans-serif" font-weight="400" font-size="13" transform="translate(419.898 425)">Confirmed <tspan font-size="13" x="2.25333" y="16">Condition</tspan></text><path d="M306.167 406.5 306.167 451.301 304.833 451.301 304.833 406.5ZM310.743 443.636 305.5 452.624 300.258 443.637C300.072 443.318 300.18 442.91 300.498 442.725 300.816 442.539 301.224 442.647 301.409 442.965L306.076 450.965 304.924 450.965 309.591 442.965C309.776 442.647 310.185 442.539 310.503 442.725 310.821 442.91 310.928 443.318 310.743 443.636Z"/><path d="M369.523 385.834 384.296 386.335 398.654 387.839 412.132 390.159 418.35 391.603 424.129 393.174 429.472 394.934 434.319 396.759 438.619 398.719 442.237 400.814 445.179 402.925 447.464 405.145 448.881 407.506 449.082 408.512 447.775 408.774 447.596 407.881 447.678 408.093 446.366 405.906 446.473 406.041 444.286 403.916 444.361 403.979 441.486 401.917 441.541 401.952 437.979 399.89 438.036 399.919 433.786 397.982 433.828 397.999 429.015 396.186 429.041 396.196 423.729 394.446 423.763 394.456 418.013 392.893 418.037 392.899 411.849 391.462 411.887 391.47 398.449 389.157 398.493 389.163 384.181 387.663 384.227 387.666 369.477 387.166ZM452.066 400.1 448.688 409.941 441.785 402.156C441.541 401.881 441.566 401.459 441.841 401.215 442.117 400.971 442.538 400.996 442.783 401.271L448.927 408.201 447.798 408.427 450.805 399.667C450.925 399.319 451.304 399.133 451.652 399.253 452.001 399.372 452.186 399.752 452.066 400.1Z"/><text font-family="Calibri,Calibri_MSFontService,sans-serif" font-weight="400" font-size="13" transform="translate(257.999 431)">Request<tspan font-size="13" x="142.545" y="-50">Condition Changed</tspan></text><path d="M241.76 472.312 239.448 472.056 237.074 471.33 234.788 470.089 232.581 468.467 228.437 464.195 224.752 458.667 221.651 452.148 219.249 444.818 217.734 437.05 217.165 429.027 217.671 421.005 219.123 413.238 221.396 405.976 224.307 399.459 227.801 393.932 231.691 389.659 233.773 388.033 235.936 386.787 238.19 386.058 239.07 385.954 239.225 387.279 238.411 387.374 238.539 387.347 236.414 388.034 236.541 387.978 234.479 389.165 234.556 389.113 232.556 390.675 232.639 390.599 228.826 394.786 228.897 394.694 225.459 400.131 225.505 400.047 222.63 406.484 222.657 406.412 220.407 413.599 220.426 413.522 218.989 421.21 218.999 421.129 218.499 429.067 218.498 428.978 219.061 436.915 219.05 436.835 220.55 444.522 220.529 444.442 222.904 451.692 222.873 451.613 225.935 458.051 225.888 457.968 229.513 463.405 229.437 463.311 233.499 467.498 233.416 467.425 235.541 468.988 235.464 468.939 237.651 470.126 237.528 470.075 239.778 470.762 239.657 470.737 241.907 470.987ZM230.923 382.305 240.461 386.462 232.148 392.719C231.854 392.94 231.436 392.881 231.215 392.587 230.993 392.293 231.052 391.875 231.347 391.653L238.747 386.084 238.881 387.228 230.391 383.528C230.053 383.381 229.899 382.988 230.046 382.65 230.193 382.313 230.586 382.158 230.923 382.305Z"/><path d="M449.306 449.634 448.845 451.875 447.425 454.175 445.141 456.328 442.196 458.441 438.573 460.411 434.277 462.306 429.431 464.069 424.088 465.766 418.247 467.273 412.031 468.655 398.617 470.911 384.261 472.353 370.808 472.809 370.763 471.477 384.193 471.021 384.149 471.024 398.462 469.587 398.418 469.593 411.793 467.343 411.759 467.349 417.946 465.974 417.924 465.98 423.737 464.48 423.702 464.49 429.014 462.802 428.988 462.811 433.801 461.061 433.759 461.078 438.009 459.203 437.96 459.227 441.522 457.289 441.452 457.333 444.327 455.271 444.259 455.328 446.446 453.265 446.336 453.4 447.649 451.275 447.563 451.491 448 449.366ZM378.622 477.123 369.463 472.188 378.267 466.644C378.579 466.447 378.99 466.541 379.187 466.853 379.383 467.164 379.289 467.576 378.978 467.772L371.14 472.707 371.101 471.556 379.255 475.949C379.579 476.124 379.7 476.528 379.526 476.852 379.351 477.176 378.947 477.297 378.622 477.123Z"/><text font-family="Calibri,Calibri_MSFontService,sans-serif" font-weight="400" font-size="13" transform="translate(403.992 484)">Request<tspan font-size="13" x="-252.978" y="-50">Completed</tspan><tspan font-family="MS Gothic,MS Gothic_MSFontService,sans-serif" font-size="13" x="-308.353" y="66">※</tspan><tspan font-family="Yu Gothic,Yu Gothic_MSFontService,sans-serif" font-size="13" x="-292.02" y="66">サービスドメインとして定義する場合は、アプリケーションドメイン要件を一切排除</tspan><tspan font-family="MS Gothic,MS Gothic_MSFontService,sans-serif" font-size="13" x="-308.353" y="82">※</tspan><tspan font-family="Yu Gothic,Yu Gothic_MSFontService,sans-serif" font-size="13" x="-292.02" y="82">アプリケーションドメインの文脈の選択要件は、ドメイン統合時に織り込む</tspan></text></g></svg>