<svg width="607" height="807" xmlns="http://www.w3.org/2000/svg" xmlns:xlink="http://www.w3.org/1999/xlink" overflow="hidden"><defs><clipPath id="clip0"><rect x="65" y="58" width="607" height="807"/></clipPath></defs><g clip-path="url(#clip0)" transform="translate(-65 -58)"><rect x="66.5001" y="60.5001" width="605" height="804" stroke="#D9D9D9" stroke-width="1.33333" stroke-miterlimit="8" fill="none"/><rect x="85.5001" y="79.5001" width="106" height="53" stroke="#000000" stroke-width="1.33333" stroke-miterlimit="8" fill="#FFFFFF"/><text font-family="Consolas,Consolas_MSFontService,sans-serif" font-weight="400" font-size="11" transform="translate(120.114 94)">Domain<tspan font-size="8" x="-26" y="10">*Name</tspan><tspan font-size="8" x="-18" y="20">Description</tspan></text><path d="M0 0 0.000104987 48.8615" stroke="#000000" stroke-width="0.666667" stroke-miterlimit="8" fill="none" fill-rule="evenodd" transform="matrix(-1 0 0 1 138.5 132.5)"/><text font-family="Calibri,Calibri_MSFontService,sans-serif" font-weight="400" font-size="11" transform="translate(126.637 161)">R1<tspan font-size="8" x="4.62341" y="-21">1</tspan><tspan font-size="8" x="14.911" y="16">1..*</tspan></text><rect x="85.5001" y="181.5" width="106" height="53" stroke="#000000" stroke-width="1.33333" stroke-miterlimit="8" fill="#FFFFFF"/><text font-family="Consolas,Consolas_MSFontService,sans-serif" font-weight="400" font-size="11" transform="translate(123.028 196)">Class<tspan font-size="8" x="-28.9133" y="10">*Domain Name</tspan><tspan font-size="8" x="-28.9133" y="20">*Name</tspan><tspan font-size="8" x="-24.58" y="30">Description</tspan><tspan font-family="Calibri,Calibri_MSFontService,sans-serif" font-size="8" x="-19.1837" y="-21">concept</tspan></text><rect x="250.5" y="188.5" width="106" height="39" stroke="#000000" stroke-width="1.33333" stroke-miterlimit="8" fill="#FFFFFF"/><text font-family="Consolas,Consolas_MSFontService,sans-serif" font-weight="400" font-size="11" transform="translate(280.014 211)">Instance</text><path d="M191.5 208.5 250.949 208.5" stroke="#000000" stroke-width="0.666667" stroke-miterlimit="8" fill="none" fill-rule="evenodd"/><text font-family="Calibri,Calibri_MSFontService,sans-serif" font-weight="400" font-size="11" transform="translate(221.803 203)">R30<tspan font-size="8" x="-24.844" y="-1">1</tspan><tspan font-size="8" x="18.6783" y="16">*</tspan><tspan font-size="8" x="-48.7513" y="128">specification</tspan></text><rect x="86.5001" y="280.5" width="106" height="39" stroke="#000000" stroke-width="1.33333" stroke-miterlimit="8" fill="#FFFFFF"/><text font-family="Consolas,Consolas_MSFontService,sans-serif" font-weight="400" font-size="11" transform="translate(106.594 303)">State Model</text><rect x="250.5" y="280.5" width="106" height="39" stroke="#000000" stroke-width="1.33333" stroke-miterlimit="8" fill="#FFFFFF"/><text font-family="Consolas,Consolas_MSFontService,sans-serif" font-weight="400" font-size="11" transform="translate(265.199 303)">State Machine</text><path d="M192.5 300.5 250.682 300.5" stroke="#000000" stroke-width="0.666667" stroke-miterlimit="8" fill="none" fill-rule="evenodd"/><text font-family="Calibri,Calibri_MSFontService,sans-serif" font-weight="400" font-size="8" transform="translate(197.744 295)">1<tspan font-size="8" x="43.5223" y="17">*</tspan></text><path d="M138.5 234.5 139.536 280.385" stroke="#000000" stroke-width="0.666667" stroke-miterlimit="8" fill="none" fill-rule="evenodd"/><path d="M0 0 0.231601 52.6237" stroke="#000000" stroke-width="0.666667" stroke-miterlimit="8" fill="none" fill-rule="evenodd" transform="matrix(-1 0 0 1 303.732 227.5)"/><text font-family="Calibri,Calibri_MSFontService,sans-serif" font-weight="400" font-size="8" transform="translate(144.722 247)">1<tspan font-size="8" x="-23.2179" y="28">0..</tspan><tspan font-size="8" x="-15.218" y="28">1</tspan><tspan font-size="8" x="162.58" y="-6">1</tspan><tspan font-size="8" x="141.449" y="24">0..</tspan>1</text><rect x="250.5" y="375.5" width="106" height="62" stroke="#000000" stroke-width="1.33333" stroke-miterlimit="8" fill="#FFFFFF"/><text font-family="Consolas,Consolas_MSFontService,sans-serif" font-weight="400" font-size="11" transform="translate(288.396 390)">State<tspan font-size="11" x="-28.9133" y="13">*Domain Name</tspan><tspan font-size="11" x="-28.9133" y="26">*Class</tspan><tspan font-size="11" x="11.92" y="26">Nam</tspan>e<tspan font-size="11" x="-28.9133" y="38">*Nam</tspan><tspan font-size="11" x="-5.57999" y="38">e</tspan></text><path d="M0 0 24.3363 0 24.3363 198.52 0.336273 198.52" stroke="#000000" stroke-width="0.666667" stroke-miterlimit="8" fill="none" fill-rule="evenodd" transform="matrix(1 0 0 -1 356.5 407.02)"/><text font-family="Calibri,Calibri_MSFontService,sans-serif" font-weight="400" font-size="8" transform="translate(363.165 415)">0..1<tspan font-size="8" x="2.2868" y="-211">*</tspan><tspan font-size="8" x="-0.372711" y="-33">Current </tspan><tspan font-size="8" x="-0.372711" y="-23">state</tspan></text><path d="M0 0 27.9717 0 27.9717 164.333 55.9433 164.333" stroke="#000000" stroke-width="0.666667" stroke-miterlimit="8" fill="none" fill-rule="evenodd" transform="matrix(-1.83697e-16 -1 -1 1.83697e-16 303.833 375.443)"/><text font-family="Calibri,Calibri_MSFontService,sans-serif" font-weight="400" font-size="8" transform="translate(311.425 370)">1..*<tspan font-size="8" x="-181.425" y="-40">1</tspan></text><rect x="438.5" y="264.5" width="106" height="51" stroke="#000000" stroke-width="1.33333" stroke-miterlimit="8" fill="#FFFFFF"/><text font-family="Consolas,Consolas_MSFontService,sans-serif" font-weight="400" font-size="11" transform="translate(453.24 279)">Domain Action<tspan font-size="11" x="-5.58002" y="13">*Domain Name</tspan><tspan font-size="11" x="-5.58002" y="26">*Name</tspan></text><rect x="518.5" y="329.5" width="106" height="39" stroke="#000000" stroke-width="1.33333" stroke-miterlimit="8" fill="#FFFFFF"/><text font-family="Consolas,Consolas_MSFontService,sans-serif" font-weight="400" font-size="11" transform="translate(553.856 352)">Action</text><rect x="443.5" y="383.5" width="106" height="39" stroke="#000000" stroke-width="1.33333" stroke-miterlimit="8" fill="#FFFFFF"/><text font-family="Consolas,Consolas_MSFontService,sans-serif" font-weight="400" font-size="11" transform="translate(461.304 406)">State Action</text><path d="M505.5 341.5 518.5 349 505.5 356.5Z" stroke="#000000" stroke-width="1.33333" stroke-miterlimit="8" fill="none" fill-rule="evenodd"/><path d="M505.188 349.25 491.5 349.25 491.5 315.5" stroke="#000000" stroke-width="0.666667" stroke-miterlimit="8" fill="none" fill-rule="evenodd"/><path d="M0 0 8.57102 0 8.57102 34.1706" stroke="#000000" stroke-width="0.666667" stroke-miterlimit="8" fill="none" fill-rule="evenodd" transform="matrix(-1 1.22465e-16 1.22465e-16 1 505.071 349.5)"/><path d="M0 0 43.4345 0 43.4345 27.2501 86.8691 27.2501" stroke="#000000" stroke-width="0.666667" stroke-miterlimit="8" fill="none" fill-rule="evenodd" transform="matrix(-1 1.22465e-16 1.22465e-16 1 443.369 403.5)"/><text font-family="Calibri,Calibri_MSFontService,sans-serif" font-weight="400" font-size="8" transform="translate(364.834 439)">1<tspan font-size="8" x="62.3744" y="-23">1..*</tspan></text><rect x="525.5" y="91.5001" width="106" height="30" stroke="#000000" stroke-width="1.33333" stroke-miterlimit="8" fill="#FFFFFF"/><text font-family="Consolas,Consolas_MSFontService,sans-serif" font-weight="400" font-size="11" transform="translate(551.753 110)">Data Type</text><path d="M0 0 334.105 0.000104987" stroke="#000000" stroke-width="0.666667" stroke-miterlimit="8" fill="none" fill-rule="evenodd" transform="matrix(-1 0 0 1 525.605 106.5)"/><text font-family="Calibri,Calibri_MSFontService,sans-serif" font-weight="400" font-size="11" transform="translate(353.303 97)">R20<tspan font-size="8" x="-153.342" y="1">1</tspan><tspan font-size="8" x="146.758" y="5">1..*</tspan></text><path d="M0 0 143.616 0 143.616 300.551" stroke="#000000" stroke-width="0.666667" stroke-miterlimit="8" fill="none" fill-rule="evenodd" transform="matrix(-1.83697e-16 -1 -1 1.83697e-16 492.051 265.116)"/><text font-family="Calibri,Calibri_MSFontService,sans-serif" font-weight="400" font-size="8" transform="translate(498.723 258)">1..*<tspan font-size="8" x="-301.763" y="-122">1</tspan></text><rect x="502.5" y="160.5" width="145" height="79" stroke="#000000" stroke-width="1.33333" stroke-miterlimit="8" fill="#FFFFFF"/><text font-family="Consolas,Consolas_MSFontService,sans-serif" font-weight="400" font-size="11" transform="translate(513.469 175)">Domain Action Trigger <tspan font-size="11" x="11.6667" y="13">Supplemental Data</tspan><tspan font-size="11" x="-1.58002" y="26">*Domain Name</tspan><tspan font-size="11" x="-1.58002" y="38">*Action Name</tspan><tspan font-size="11" x="-1.58002" y="51">*Name</tspan></text><path d="M0 0 30.4148 0 30.4148 50.3317" stroke="#000000" stroke-width="0.666667" stroke-miterlimit="8" fill="none" fill-rule="evenodd" transform="matrix(1 0 0 -1 544.5 289.832)"/><path d="M575.5 160.922 575.5 141.211 578.773 141.211 578.773 121.5" stroke="#000000" stroke-width="0.666667" stroke-miterlimit="8" fill="none" fill-rule="evenodd"/><text font-family="Calibri,Calibri_MSFontService,sans-serif" font-weight="400" font-size="8" transform="translate(584.735 250)">*<tspan font-size="8" x="-3.21198" y="-118">1</tspan><tspan font-size="8" x="-31.7006" y="52">1</tspan><tspan font-size="8" x="-21.5023" y="-90">*</tspan></text><rect x="87.5001" y="738.5" width="106" height="39" stroke="#000000" stroke-width="1.33333" stroke-miterlimit="8" fill="#FFFFFF"/><text font-family="Consolas,Consolas_MSFontService,sans-serif" font-weight="400" font-size="11" transform="translate(99.2065 761)">Creation State</text><rect x="235.5" y="737.5" width="106" height="40" stroke="#000000" stroke-width="1.33333" stroke-miterlimit="8" fill="#FFFFFF"/><text font-family="Consolas,Consolas_MSFontService,sans-serif" font-weight="400" font-size="11" transform="translate(250.147 761)">Destroy State</text><path d="M214.143 721.5 214.143 729.56 140.5 729.56 140.5 737.62" stroke="#000000" stroke-width="0.666667" stroke-miterlimit="8" fill="none" fill-rule="evenodd"/><path d="M0 0 8.05359 0 8.05359 74.3812 16.1072 74.3812" stroke="#000000" stroke-width="0.666667" stroke-miterlimit="8" fill="none" fill-rule="evenodd" transform="matrix(-1.83697e-16 -1 -1 1.83697e-16 288.881 737.607)"/><rect x="512.5" y="694.5" width="106" height="39" stroke="#000000" stroke-width="1.33333" stroke-miterlimit="8" fill="#FFFFFF"/><text font-family="Consolas,Consolas_MSFontService,sans-serif" font-weight="400" font-size="11" transform="translate(535.605 717)">Transition</text><rect x="535.5" y="549.5" width="106" height="59" stroke="#000000" stroke-width="1.33333" stroke-miterlimit="8" fill="#FFFFFF"/><text font-family="Consolas,Consolas_MSFontService,sans-serif" font-weight="400" font-size="11" transform="translate(573.662 564)">Event<tspan font-size="11" x="-28.9133" y="13">+Domain Name</tspan><tspan font-size="11" x="-28.9133" y="26">*Class Name</tspan><tspan font-size="11" x="-28.9133" y="38">Nam</tspan>e</text><path d="M618.687 714.147 642.686 714.147 642.686 623.411 461.5 623.411 461.5 579.5" stroke="#000000" stroke-width="0.666667" stroke-miterlimit="8" stroke-dasharray="0.666667 0.666667" fill="none" fill-rule="evenodd"/><rect x="370.5" y="644.5" width="106" height="39" stroke="#000000" stroke-width="1.33333" stroke-miterlimit="8" fill="#FFFFFF"/><text font-family="Consolas,Consolas_MSFontService,sans-serif" font-weight="400" font-size="11" transform="translate(408.474 661)">State <tspan font-size="11" x="-14.58" y="13">Transition</tspan></text><rect x="370.5" y="703.5" width="106" height="39" stroke="#000000" stroke-width="1.33333" stroke-miterlimit="8" fill="#FFFFFF"/><text font-family="Consolas,Consolas_MSFontService,sans-serif" font-weight="400" font-size="11" transform="translate(405.151 726)">Ignore</text><rect x="369.5" y="766.5" width="106" height="39" stroke="#000000" stroke-width="1.33333" stroke-miterlimit="8" fill="#FFFFFF"/><text font-family="Consolas,Consolas_MSFontService,sans-serif" font-weight="400" font-size="11" transform="translate(384.006 789)">Cannot Happen</text><path d="M496.5 706.5 510.5 714 496.5 721.5Z" stroke="#000000" stroke-width="1.33333" stroke-miterlimit="8" fill="none" fill-rule="evenodd"/><path d="M496.616 714.24 486.558 714.24 486.558 664.5 476.5 664.5" stroke="#000000" stroke-width="0.666667" stroke-miterlimit="8" fill="none" fill-rule="evenodd"/><path d="M0 0 10.2625 0 10.2625 9.15444 20.5249 9.15444" stroke="#000000" stroke-width="0.666667" stroke-miterlimit="8" fill="none" fill-rule="evenodd" transform="matrix(-1 1.22465e-16 1.22465e-16 1 497.025 713.5)"/><path d="M0 0 10.6267 0 10.6267 72.3323 21.2533 72.3323" stroke="#000000" stroke-width="0.666667" stroke-miterlimit="8" fill="none" fill-rule="evenodd" transform="matrix(-1 1.22465e-16 1.22465e-16 1 496.753 713.5)"/><rect x="158.5" y="669.5" width="106" height="39" stroke="#000000" stroke-width="1.33333" stroke-miterlimit="8" fill="#FFFFFF"/><text font-family="Consolas,Consolas_MSFontService,sans-serif" font-weight="400" font-size="11" transform="translate(175.682 692)">Pseudo State</text><path d="M206.5 721.5 214 708.5 221.5 721.5Z" stroke="#000000" stroke-width="1.33333" stroke-miterlimit="8" fill="none" fill-rule="evenodd"/><path d="M0 0-24 0-24 282.164 92.3292 282.164" stroke="#000000" stroke-width="0.666667" stroke-miterlimit="8" fill="none" fill-rule="evenodd" transform="matrix(1 -1.22465e-16 -1.22465e-16 -1 158.5 688.664)"/><text font-family="Calibri,Calibri_MSFontService,sans-serif" font-weight="400" font-size="8" transform="translate(138.152 698)">0..1<tspan font-size="8" x="98.0846" y="-297">1</tspan><tspan font-size="8" x="4.58194" y="-37">marker</tspan></text><path d="M535.519 578.915 343.5 578.915 343.5 437.5" stroke="#000000" stroke-width="0.666667" stroke-miterlimit="8" fill="none" fill-rule="evenodd"/><path d="M370.773 664.494 275.5 664.494 275.5 438.5" stroke="#000000" stroke-width="0.666667" stroke-miterlimit="8" fill="none" fill-rule="evenodd"/><text font-family="Calibri,Calibri_MSFontService,sans-serif" font-weight="400" font-size="8" transform="translate(571.286 688)">1..*<tspan font-size="8" x="-246.4" y="-234">1..*</tspan><tspan font-size="8" x="-63.2699" y="-97">1..*</tspan><tspan font-size="8" x="-69.4213" y="-118">trigger</tspan><tspan font-size="8" x="-216.731" y="-229">Pre Condition</tspan><tspan font-size="8" x="-355.102" y="-233">Post Condition</tspan><tspan font-size="8" x="-289.134" y="-235">1</tspan><tspan font-size="8" x="-225.163" y="-29">1..*</tspan></text><rect x="458.5" y="448.5" width="166" height="79" stroke="#000000" stroke-width="1.33333" stroke-miterlimit="8" fill="#FFFFFF"/><text font-family="Consolas,Consolas_MSFontService,sans-serif" font-weight="400" font-size="11" transform="translate(473.897 463)">Event Supplemental Data<tspan font-size="11" x="-6.74667" y="13">+Domain Name</tspan><tspan font-size="11" x="-6.74667" y="26">*Class Name</tspan><tspan font-size="11" x="-6.74667" y="38">*Event</tspan><tspan font-size="11" x="34.0867" y="38">Nam</tspan><tspan font-size="11" x="51.5866" y="38">e</tspan><tspan font-size="11" x="-6.74667" y="51">Nam</tspan>e</text><path d="M0 0 11.1627 0 11.1627 47.2599 22.3254 47.2599" stroke="#000000" stroke-width="0.666667" stroke-miterlimit="8" fill="none" fill-rule="evenodd" transform="matrix(1.83697e-16 1 1 -1.83697e-16 541.5 527.5)"/><text font-family="Calibri,Calibri_MSFontService,sans-serif" font-weight="400" font-size="8" transform="translate(522.595 541)">*<tspan font-size="8" x="74.9914" y="2">1</tspan></text><path d="M0 0 34.8212 0 34.8212 381.528 6.64714 381.528" stroke="#000000" stroke-width="0.666667" stroke-miterlimit="8" fill="none" fill-rule="evenodd" transform="matrix(1 0 0 -1 624.5 488.028)"/><text font-family="Calibri,Calibri_MSFontService,sans-serif" font-weight="400" font-size="8" transform="translate(637.038 103)">1<tspan font-size="8" x="-4.67151" y="377">*</tspan></text><path d="M642.355 578.847 666.357 578.847 666.357 831.075 79.1962 831.075 79.1962 218.5 86.5001 218.5" stroke="#000000" stroke-width="0.666667" stroke-miterlimit="8" fill="none" fill-rule="evenodd"/><text font-family="Calibri,Calibri_MSFontService,sans-serif" font-weight="400" font-size="8" transform="translate(646.211 575)">*<tspan font-size="8" x="-570.029" y="-363">1</tspan><tspan font-size="11" x="-239.298" y="-437">R40</tspan><tspan font-size="11" x="-143.709" y="-207">R41</tspan><tspan font-size="11" x="-61.4706" y="-291">R42</tspan><tspan font-size="11" x="-49.8925" y="-429">R43</tspan><tspan font-size="11" x="-497.089" y="-313">R50</tspan><tspan font-size="11" x="-333.952" y="-313">R52</tspan><tspan font-size="11" x="-430.603" y="-285">R51</tspan><tspan font-size="11" x="-267.816" y="274">R53</tspan><tspan font-size="11" x="-92.1885" y="-39">R54</tspan><tspan font-size="11" x="-9.36261" y="-185">R55</tspan><tspan font-size="11" x="-448.466" y="-212">R56</tspan><tspan font-size="11" x="-258.47" y="-244">R57</tspan><tspan font-size="11" x="-244.573" y="-135">R58</tspan><tspan font-size="11" x="-273.4" y="-3">R59</tspan><tspan font-size="11" x="-138.573" y="178">R60</tspan><tspan font-size="11" x="-354.42" y="79">R61</tspan><tspan font-size="11" x="-442.913" y="173">R62</tspan><tspan font-size="11" x="-504.451" y="-6">R63</tspan><tspan font-size="8" x="-200.755" y="-242">{complete, disjoint}</tspan><tspan font-size="8" x="-154.708" y="100">{complete, </tspan><tspan font-size="8" x="-154.708" y="110">disjoint}</tspan><tspan font-size="8" x="-418.653" y="150">{complete, disjoint}</tspan></text></g></svg>