<svg width="614" height="687" xmlns="http://www.w3.org/2000/svg" xmlns:xlink="http://www.w3.org/1999/xlink" overflow="hidden"><defs><clipPath id="clip0"><rect x="60" y="401" width="614" height="687"/></clipPath><clipPath id="clip1"><rect x="210" y="449" width="308" height="150"/></clipPath><clipPath id="clip2"><rect x="210" y="449" width="308" height="150"/></clipPath><clipPath id="clip3"><rect x="210" y="449" width="308" height="150"/></clipPath><clipPath id="clip4"><rect x="210" y="449" width="308" height="150"/></clipPath></defs><g clip-path="url(#clip0)" transform="translate(-60 -401)"><path d="M0 24 93 0 186 24Z" fill="#FF0000" fill-rule="evenodd" fill-opacity="0.501961" transform="matrix(1 0 0 -1 282 640)"/><rect x="179" y="418" width="392" height="185" fill="#F2F2F2"/><text font-family="Yu Gothic,Yu Gothic_MSFontService,sans-serif" font-weight="400" font-size="13" transform="translate(341.557 435)">状態遷移図</text><rect x="61.5001" y="402.5" width="605" height="684" stroke="#D9D9D9" stroke-width="1.33333" stroke-miterlimit="8" fill="none"/><g clip-path="url(#clip1)"><g clip-path="url(#clip2)"><g clip-path="url(#clip3)"><g clip-path="url(#clip4)"><path d="M89.6053 394.737C89.6053 391.903 91.9026 389.605 94.7368 389.605L187.105 389.605C189.939 389.605 192.237 391.903 192.237 394.737L192.237 415.263C192.237 418.097 189.939 420.395 187.105 420.395L94.7368 420.395C91.9026 420.395 89.6053 418.097 89.6053 415.263Z" stroke="#000000" stroke-width="1.05263" stroke-miterlimit="8" fill="#FFFFFF" fill-rule="evenodd" transform="matrix(1.00034 0 0 1 150.769 70.8421)"/><text font-family="Yu Gothic,Yu Gothic_MSFontService,sans-serif" font-weight="400" font-size="13" transform="matrix(0.789744 0 0 0.789474 265.019 479)">スタンバイ</text><path d="M89.6053 461.974C89.6053 459.067 91.9618 456.711 94.8687 456.711L186.973 456.711C189.88 456.711 192.237 459.067 192.237 461.974L192.237 483.026C192.237 485.933 189.88 488.289 186.973 488.289L94.8687 488.289C91.9618 488.289 89.6053 485.933 89.6053 483.026Z" stroke="#000000" stroke-width="1.05263" stroke-miterlimit="8" fill="#FFFFFF" fill-rule="evenodd" transform="matrix(1.00034 0 0 1 150.769 70.8421)"/><text font-family="Yu Gothic,Yu Gothic_MSFontService,sans-serif" font-weight="400" font-size="13" transform="matrix(0.789744 0 0 0.789474 270.284 546)">製造準備</text><path d="M236.447 461.974C236.447 459.067 238.804 456.711 241.711 456.711L333.026 456.711C335.933 456.711 338.289 459.067 338.289 461.974L338.289 483.026C338.289 485.933 335.933 488.289 333.026 488.289L241.711 488.289C238.804 488.289 236.447 485.933 236.447 483.026Z" stroke="#000000" stroke-width="1.05263" stroke-miterlimit="8" fill="#FFFFFF" fill-rule="evenodd" transform="matrix(1.00034 0 0 1 150.769 70.8421)"/><text font-family="Yu Gothic,Yu Gothic_MSFontService,sans-serif" font-weight="400" font-size="13" transform="matrix(0.789744 0 0 0.789474 421.871 546)">加工中</text><path d="M236.447 394.737C236.447 391.903 238.745 389.605 241.579 389.605L333.158 389.605C335.992 389.605 338.289 391.903 338.289 394.737L338.289 415.263C338.289 418.097 335.992 420.395 333.158 420.395L241.579 420.395C238.745 420.395 236.447 418.097 236.447 415.263Z" stroke="#000000" stroke-width="1.05263" stroke-miterlimit="8" fill="#FFFFFF" fill-rule="evenodd" transform="matrix(1.00034 0 0 1 150.769 70.8421)"/><text font-family="Yu Gothic,Yu Gothic_MSFontService,sans-serif" font-weight="400" font-size="13" transform="matrix(0.789744 0 0 0.789474 416.606 479)">後処理中</text><path d="M141.448 420.395 141.448 455.764 140.394 455.764 140.394 420.395ZM145.06 449.713 140.921 456.808 136.783 449.713C136.636 449.462 136.721 449.139 136.972 448.993 137.223 448.847 137.545 448.932 137.691 449.183L141.376 455.499 140.466 455.499 144.151 449.183C144.297 448.932 144.62 448.847 144.871 448.993 145.122 449.139 145.206 449.462 145.06 449.713Z" transform="matrix(1.00034 0 0 1 150.769 70.8421)"/><path d="M192.237 471.973 235.582 471.973 235.582 473.027 192.237 473.027ZM229.532 468.362 236.627 472.5 229.532 476.639C229.281 476.785 228.958 476.701 228.812 476.45 228.666 476.199 228.75 475.876 229.001 475.73L235.317 472.045 235.317 472.955 229.001 469.27C228.75 469.124 228.666 468.802 228.812 468.551 228.958 468.3 229.281 468.215 229.532 468.362Z" transform="matrix(1.00034 0 0 1 150.769 70.8421)"/><path d="M287.497 487.848 287.694 489.624 287.671 489.516 288.263 491.293 288.226 491.208 289.163 492.935 289.119 492.866 290.402 494.544 290.361 494.497 291.94 496.126 291.902 496.09 293.777 497.668 293.721 497.627 298.21 500.489 298.147 500.454 303.426 502.872 303.366 502.849 309.287 504.724 309.225 504.708 315.541 505.892 315.48 505.884 321.993 506.329 321.925 506.328 328.438 505.933 328.382 505.941 334.697 504.855 334.639 504.868 340.56 503.141 340.507 503.16 345.787 500.989 345.72 501.022 350.161 498.407 350.109 498.442 351.984 497.011 351.943 497.046 353.522 495.565 353.478 495.611 354.761 494.081 354.712 494.151 355.649 492.572 355.609 492.656 356.201 491.077 356.172 491.199 356.369 489.57 356.37 489.706 355.926 486.498 355.956 486.613 354.771 483.505 354.821 483.602 352.946 480.692 353.005 480.767 350.587 478.202 350.648 478.256 347.786 476.036 347.865 476.087 344.657 474.409 344.742 474.444 341.337 473.358 341.439 473.38 338.922 473.101 339.038 472.054 341.607 472.34 345.105 473.455 348.394 475.176 351.325 477.45 353.804 480.081 355.735 483.079 356.961 486.294 357.422 489.629 357.209 491.387 356.578 493.069 355.596 494.725 354.264 496.311 352.643 497.832 350.722 499.298 346.221 501.948 340.881 504.144 334.905 505.887 328.531 506.983 321.955 507.381 315.377 506.933 309 505.737 303.017 503.842 297.676 501.396 293.125 498.496 291.203 496.877 289.585 495.208 288.257 493.473 287.278 491.669 286.654 489.797 286.45 487.964ZM344.537 477.359 337.941 472.462 345.451 469.132C345.716 469.014 346.027 469.134 346.145 469.4 346.263 469.666 346.143 469.976 345.877 470.094L339.193 473.058 339.294 472.155 345.164 476.514C345.397 476.687 345.446 477.017 345.272 477.25 345.099 477.484 344.77 477.532 344.537 477.359Z" transform="matrix(1.00034 0 0 1 150.769 70.8421)"/><path d="M0.526316-1.19808e-06 0.526397 35.3689-0.526236 35.3689-0.526316 1.19808e-06ZM4.1389 29.3182 8.28908e-05 36.4134-4.13876 29.3182C-4.28523 29.0672-4.20042 28.7449-3.94934 28.5984-3.69826 28.452-3.37599 28.5368-3.22952 28.7878L0.454701 35.1036-0.45454 35.1036 3.22966 28.7878C3.37612 28.5368 3.69839 28.4519 3.94947 28.5984 4.20055 28.7449 4.28536 29.0672 4.1389 29.3182Z" transform="matrix(1.00034 0 0 -1 437.841 527.648)"/><path d="M9.82784e-07-0.526316 43.3456-0.526235 43.3456 0.526397-9.82784e-07 0.526316ZM37.2948-4.13876 44.3899 8.29563e-05 37.2947 4.1389C37.0437 4.28537 36.7214 4.20055 36.575 3.94948 36.4285 3.69839 36.5133 3.37612 36.7644 3.22966L43.0802-0.45454 43.0802 0.454701 36.7644-3.22952C36.5133-3.37599 36.4285-3.69826 36.575-3.94933 36.7214-4.20042 37.0437-4.28522 37.2948-4.13876Z" transform="matrix(-1.00034 0 0 1 387.474 476.237)"/><text font-family="Yu Gothic,Yu Gothic_MSFontService,sans-serif" font-weight="400" font-size="13" transform="matrix(0.789744 0 0 0.789474 217.819 512)">仕掛<tspan font-size="13" x="26" y="0">り</tspan><tspan font-size="13" x="39" y="0">品割当</tspan><tspan font-size="13" x="78" y="0">て</tspan><tspan font-size="13" x="160.763" y="60.8">加工実施</tspan><tspan font-size="13" x="315.882" y="97.5333">加工実施</tspan><tspan font-size="13" x="287.976" y="2.53333">加工完了</tspan><tspan font-size="13" x="159.403" y="-63.3333">後処理完了</tspan></text></g></g></g></g><path d="M98.5283 666.951 207.49 666.951 207.49 693.786 98.5283 693.786Z" fill="#4472C4" fill-rule="evenodd"/><path d="M207.49 666.951 316.452 666.951 316.452 693.786 207.49 693.786Z" fill="#4472C4" fill-rule="evenodd"/><path d="M316.452 666.951 425.415 666.951 425.415 693.786 316.452 693.786Z" fill="#4472C4" fill-rule="evenodd"/><path d="M425.415 666.951 534.377 666.951 534.377 693.786 425.415 693.786Z" fill="#4472C4" fill-rule="evenodd"/><path d="M534.377 666.951 643.339 666.951 643.339 693.786 534.377 693.786Z" fill="#4472C4" fill-rule="evenodd"/><path d="M98.5283 693.786 207.49 693.786 207.49 720.621 98.5283 720.621Z" fill="#CFD5EA" fill-rule="evenodd"/><path d="M207.49 693.786 316.452 693.786 316.452 720.621 207.49 720.621Z" fill="#CFD5EA" fill-rule="evenodd"/><path d="M316.452 693.786 425.415 693.786 425.415 720.621 316.452 720.621Z" fill="#CFD5EA" fill-rule="evenodd"/><path d="M425.415 693.786 534.377 693.786 534.377 720.621 425.415 720.621Z" fill="#CFD5EA" fill-rule="evenodd"/><path d="M534.377 693.786 643.339 693.786 643.339 720.621 534.377 720.621Z" fill="#CFD5EA" fill-rule="evenodd"/><path d="M98.5283 720.621 207.49 720.621 207.49 747.456 98.5283 747.456Z" fill="#E9EBF5" fill-rule="evenodd"/><path d="M207.49 720.621 316.452 720.621 316.452 747.456 207.49 747.456Z" fill="#E9EBF5" fill-rule="evenodd"/><path d="M316.452 720.621 425.415 720.621 425.415 747.456 316.452 747.456Z" fill="#E9EBF5" fill-rule="evenodd"/><path d="M425.415 720.621 534.377 720.621 534.377 747.456 425.415 747.456Z" fill="#E9EBF5" fill-rule="evenodd"/><path d="M534.377 720.621 643.339 720.621 643.339 747.456 534.377 747.456Z" fill="#E9EBF5" fill-rule="evenodd"/><path d="M98.5283 747.456 207.49 747.456 207.49 774.291 98.5283 774.291Z" fill="#CFD5EA" fill-rule="evenodd"/><path d="M207.49 747.456 316.452 747.456 316.452 774.291 207.49 774.291Z" fill="#CFD5EA" fill-rule="evenodd"/><path d="M316.452 747.456 425.415 747.456 425.415 774.291 316.452 774.291Z" fill="#CFD5EA" fill-rule="evenodd"/><path d="M425.415 747.456 534.377 747.456 534.377 774.291 425.415 774.291Z" fill="#CFD5EA" fill-rule="evenodd"/><path d="M534.377 747.456 643.339 747.456 643.339 774.291 534.377 774.291Z" fill="#CFD5EA" fill-rule="evenodd"/><path d="M98.5283 774.291 207.49 774.291 207.49 801.126 98.5283 801.126Z" fill="#E9EBF5" fill-rule="evenodd"/><path d="M207.49 774.291 316.452 774.291 316.452 801.126 207.49 801.126Z" fill="#E9EBF5" fill-rule="evenodd"/><path d="M316.452 774.291 425.415 774.291 425.415 801.126 316.452 801.126Z" fill="#E9EBF5" fill-rule="evenodd"/><path d="M425.415 774.291 534.377 774.291 534.377 801.126 425.415 801.126Z" fill="#E9EBF5" fill-rule="evenodd"/><path d="M534.377 774.291 643.339 774.291 643.339 801.126 534.377 801.126Z" fill="#E9EBF5" fill-rule="evenodd"/><path d="M207.49 666.285 207.49 801.793" stroke="#FFFFFF" stroke-width="1.33333" stroke-linejoin="round" stroke-miterlimit="10" fill="none" fill-rule="evenodd"/><path d="M316.452 666.285 316.452 801.793" stroke="#FFFFFF" stroke-width="1.33333" stroke-linejoin="round" stroke-miterlimit="10" fill="none" fill-rule="evenodd"/><path d="M425.415 666.285 425.415 801.793" stroke="#FFFFFF" stroke-width="1.33333" stroke-linejoin="round" stroke-miterlimit="10" fill="none" fill-rule="evenodd"/><path d="M534.377 666.285 534.377 801.793" stroke="#FFFFFF" stroke-width="1.33333" stroke-linejoin="round" stroke-miterlimit="10" fill="none" fill-rule="evenodd"/><path d="M97.8616 693.786 644.005 693.786" stroke="#FFFFFF" stroke-width="4" stroke-linejoin="round" stroke-miterlimit="10" fill="none" fill-rule="evenodd"/><path d="M97.8616 720.621 644.005 720.621" stroke="#FFFFFF" stroke-width="1.33333" stroke-linejoin="round" stroke-miterlimit="10" fill="none" fill-rule="evenodd"/><path d="M97.8616 747.456 644.005 747.456" stroke="#FFFFFF" stroke-width="1.33333" stroke-linejoin="round" stroke-miterlimit="10" fill="none" fill-rule="evenodd"/><path d="M97.8616 774.291 644.005 774.291" stroke="#FFFFFF" stroke-width="1.33333" stroke-linejoin="round" stroke-miterlimit="10" fill="none" fill-rule="evenodd"/><path d="M98.5283 666.285 98.5283 801.793" stroke="#FFFFFF" stroke-width="1.33333" stroke-linejoin="round" stroke-miterlimit="10" fill="none" fill-rule="evenodd"/><path d="M643.339 666.285 643.339 801.793" stroke="#FFFFFF" stroke-width="1.33333" stroke-linejoin="round" stroke-miterlimit="10" fill="none" fill-rule="evenodd"/><path d="M97.8616 666.951 644.005 666.951" stroke="#FFFFFF" stroke-width="1.33333" stroke-linejoin="round" stroke-miterlimit="10" fill="none" fill-rule="evenodd"/><path d="M97.8616 801.126 644.005 801.126" stroke="#FFFFFF" stroke-width="1.33333" stroke-linejoin="round" stroke-miterlimit="10" fill="none" fill-rule="evenodd"/><text fill="#FFFFFF" font-family="Yu Gothic,Yu Gothic_MSFontService,sans-serif" font-weight="700" font-size="12" transform="translate(217.09 683)">仕掛り品割当て<tspan font-size="12" x="108.962" y="0">加工実施</tspan><tspan font-size="12" x="217.924" y="0">加工完了</tspan><tspan font-size="12" x="326.886" y="0">後処理完了</tspan><tspan fill="#000000" font-weight="400" font-size="12" x="-108.962" y="27">スタンバイ</tspan><tspan fill="#000000" font-weight="400" font-size="12" x="0" y="27">製造準備</tspan><tspan fill="#000000" font-weight="400" font-size="12" x="-108.962" y="53">製造準備</tspan><tspan fill="#000000" font-weight="400" font-size="12" x="108.962" y="53">加工中</tspan><tspan fill="#000000" font-weight="400" font-size="12" x="-108.962" y="80">加工中</tspan><tspan fill="#000000" font-weight="400" font-size="12" x="108.962" y="80">加工中</tspan><tspan fill="#000000" font-weight="400" font-size="12" x="217.924" y="80">後処理中</tspan><tspan fill="#000000" font-weight="400" font-size="12" x="-108.962" y="107">後処理中</tspan><tspan fill="#000000" font-weight="400" font-size="12" x="326.886" y="107">スタンバイ</tspan></text><path d="M210.5 663.5C210.5 657.149 211.358 652 212.416 652L425.084 652C426.142 652 427 646.851 427 640.5 427 646.851 427.858 652 428.916 652L641.584 652C642.642 652 643.5 657.149 643.5 663.5" stroke="#FF0000" stroke-width="0.666667" stroke-miterlimit="8" fill="none" fill-rule="evenodd"/><text font-family="Yu Gothic,Yu Gothic_MSFontService,sans-serif" font-weight="400" font-size="13" transform="translate(435.998 634)">事象を列方向に並べる</text><path d="M98.5001 801.5C92.1488 801.5 87.0001 800.642 87.0001 799.583L87.0001 748.417C87.0001 747.358 81.8513 746.5 75.5001 746.5 81.8513 746.5 87.0001 745.642 87.0001 744.583L87.0001 693.417C87.0001 692.358 92.1488 691.5 98.5001 691.5" stroke="#FF0000" stroke-width="0.666667" stroke-miterlimit="8" fill="none" fill-rule="evenodd"/><text font-family="Yu Gothic,Yu Gothic_MSFontService,sans-serif" font-weight="400" font-size="13" transform="translate(97.2665 832)">状態を行方向に並べる</text><path d="M0 0 80.5163 0 80.5163 9.89354" stroke="#FF0000" stroke-width="0.666667" stroke-miterlimit="8" fill="none" fill-rule="evenodd" transform="matrix(1.83697e-16 1 1 -1.83697e-16 78.5001 747.5)"/><path d="M310.5 752.5C310.5 749.186 313.186 746.5 316.5 746.5L426.5 746.5C429.814 746.5 432.5 749.186 432.5 752.5L432.5 776.5C432.5 779.814 429.814 782.5 426.5 782.5L316.5 782.5C313.186 782.5 310.5 779.814 310.5 776.5Z" stroke="#FF0000" stroke-width="1.33333" stroke-miterlimit="8" fill="none" fill-rule="evenodd"/><text font-family="Yu Gothic,Yu Gothic_MSFontService,sans-serif" font-weight="400" font-size="13" transform="translate(261.183 836)">行に記載の状態にある時に、列に記載の事象が<tspan font-size="13" x="0" y="16">発生した時の遷移先の状態を記入する</tspan><tspan font-family="MS Gothic,MS Gothic_MSFontService,sans-serif" font-size="13" x="0" y="33">※</tspan><tspan font-size="13" x="16.3333" y="33">空欄は未定義を意味する</tspan></text><path d="M371.5 782.5 406.529 819.593" stroke="#FF0000" stroke-width="0.666667" stroke-miterlimit="8" fill="none" fill-rule="evenodd"/><path d="M98.5283 931.617 207.49 931.617 207.49 958.452 98.5283 958.452Z" fill="#4472C4" fill-rule="evenodd"/><path d="M207.49 931.617 316.452 931.617 316.452 958.452 207.49 958.452Z" fill="#4472C4" fill-rule="evenodd"/><path d="M316.452 931.617 425.415 931.617 425.415 958.452 316.452 958.452Z" fill="#4472C4" fill-rule="evenodd"/><path d="M425.415 931.617 534.377 931.617 534.377 958.452 425.415 958.452Z" fill="#4472C4" fill-rule="evenodd"/><path d="M534.377 931.617 643.339 931.617 643.339 958.452 534.377 958.452Z" fill="#4472C4" fill-rule="evenodd"/><path d="M98.5283 958.452 207.49 958.452 207.49 985.287 98.5283 985.287Z" fill="#CFD5EA" fill-rule="evenodd"/><path d="M207.49 958.452 316.452 958.452 316.452 985.287 207.49 985.287Z" fill="#CFD5EA" fill-rule="evenodd"/><path d="M316.452 958.452 425.415 958.452 425.415 985.287 316.452 985.287Z" fill="#CFD5EA" fill-rule="evenodd"/><path d="M425.415 958.452 534.377 958.452 534.377 985.287 425.415 985.287Z" fill="#CFD5EA" fill-rule="evenodd"/><path d="M534.377 958.452 643.339 958.452 643.339 985.287 534.377 985.287Z" fill="#CFD5EA" fill-rule="evenodd"/><path d="M98.5283 985.287 207.49 985.287 207.49 1012.12 98.5283 1012.12Z" fill="#E9EBF5" fill-rule="evenodd"/><path d="M207.49 985.287 316.452 985.287 316.452 1012.12 207.49 1012.12Z" fill="#E9EBF5" fill-rule="evenodd"/><path d="M316.452 985.287 425.415 985.287 425.415 1012.12 316.452 1012.12Z" fill="#E9EBF5" fill-rule="evenodd"/><path d="M425.415 985.287 534.377 985.287 534.377 1012.12 425.415 1012.12Z" fill="#E9EBF5" fill-rule="evenodd"/><path d="M534.377 985.287 643.339 985.287 643.339 1012.12 534.377 1012.12Z" fill="#E9EBF5" fill-rule="evenodd"/><path d="M98.5283 1012.12 207.49 1012.12 207.49 1038.96 98.5283 1038.96Z" fill="#CFD5EA" fill-rule="evenodd"/><path d="M207.49 1012.12 316.452 1012.12 316.452 1038.96 207.49 1038.96Z" fill="#CFD5EA" fill-rule="evenodd"/><path d="M316.452 1012.12 425.415 1012.12 425.415 1038.96 316.452 1038.96Z" fill="#CFD5EA" fill-rule="evenodd"/><path d="M425.415 1012.12 534.377 1012.12 534.377 1038.96 425.415 1038.96Z" fill="#CFD5EA" fill-rule="evenodd"/><path d="M534.377 1012.12 643.339 1012.12 643.339 1038.96 534.377 1038.96Z" fill="#CFD5EA" fill-rule="evenodd"/><path d="M98.5283 1038.96 207.49 1038.96 207.49 1065.79 98.5283 1065.79Z" fill="#E9EBF5" fill-rule="evenodd"/><path d="M207.49 1038.96 316.452 1038.96 316.452 1065.79 207.49 1065.79Z" fill="#E9EBF5" fill-rule="evenodd"/><path d="M316.452 1038.96 425.415 1038.96 425.415 1065.79 316.452 1065.79Z" fill="#E9EBF5" fill-rule="evenodd"/><path d="M425.415 1038.96 534.377 1038.96 534.377 1065.79 425.415 1065.79Z" fill="#E9EBF5" fill-rule="evenodd"/><path d="M534.377 1038.96 643.339 1038.96 643.339 1065.79 534.377 1065.79Z" fill="#E9EBF5" fill-rule="evenodd"/><path d="M207.49 930.95 207.49 1066.46" stroke="#FFFFFF" stroke-width="1.33333" stroke-linejoin="round" stroke-miterlimit="10" fill="none" fill-rule="evenodd"/><path d="M316.452 930.95 316.452 1066.46" stroke="#FFFFFF" stroke-width="1.33333" stroke-linejoin="round" stroke-miterlimit="10" fill="none" fill-rule="evenodd"/><path d="M425.415 930.95 425.415 1066.46" stroke="#FFFFFF" stroke-width="1.33333" stroke-linejoin="round" stroke-miterlimit="10" fill="none" fill-rule="evenodd"/><path d="M534.377 930.95 534.377 1066.46" stroke="#FFFFFF" stroke-width="1.33333" stroke-linejoin="round" stroke-miterlimit="10" fill="none" fill-rule="evenodd"/><path d="M97.8616 958.452 644.005 958.452" stroke="#FFFFFF" stroke-width="4" stroke-linejoin="round" stroke-miterlimit="10" fill="none" fill-rule="evenodd"/><path d="M97.8616 985.287 644.005 985.287" stroke="#FFFFFF" stroke-width="1.33333" stroke-linejoin="round" stroke-miterlimit="10" fill="none" fill-rule="evenodd"/><path d="M97.8616 1012.12 644.005 1012.12" stroke="#FFFFFF" stroke-width="1.33333" stroke-linejoin="round" stroke-miterlimit="10" fill="none" fill-rule="evenodd"/><path d="M97.8616 1038.96 644.005 1038.96" stroke="#FFFFFF" stroke-width="1.33333" stroke-linejoin="round" stroke-miterlimit="10" fill="none" fill-rule="evenodd"/><path d="M98.5283 930.95 98.5283 1066.46" stroke="#FFFFFF" stroke-width="1.33333" stroke-linejoin="round" stroke-miterlimit="10" fill="none" fill-rule="evenodd"/><path d="M643.339 930.95 643.339 1066.46" stroke="#FFFFFF" stroke-width="1.33333" stroke-linejoin="round" stroke-miterlimit="10" fill="none" fill-rule="evenodd"/><path d="M97.8616 931.617 644.005 931.617" stroke="#FFFFFF" stroke-width="1.33333" stroke-linejoin="round" stroke-miterlimit="10" fill="none" fill-rule="evenodd"/><path d="M97.8616 1065.79 644.005 1065.79" stroke="#FFFFFF" stroke-width="1.33333" stroke-linejoin="round" stroke-miterlimit="10" fill="none" fill-rule="evenodd"/><text fill="#FFFFFF" font-family="Yu Gothic,Yu Gothic_MSFontService,sans-serif" font-weight="700" font-size="12" transform="translate(217.09 947)">仕掛り品割当て<tspan font-size="12" x="108.962" y="0">加工実施</tspan><tspan font-size="12" x="217.924" y="0">加工完了</tspan><tspan font-size="12" x="326.886" y="0">後処理完了</tspan><tspan fill="#000000" font-weight="400" font-size="12" x="-108.962" y="27">スタンバイ</tspan><tspan fill="#000000" font-weight="400" font-size="12" x="0" y="27">製造準備</tspan><tspan fill="#000000" font-family="Calibri,Calibri_MSFontService,sans-serif" font-weight="400" font-size="12" x="108.962" y="27">Can’t Happen</tspan><tspan fill="#000000" font-family="Calibri,Calibri_MSFontService,sans-serif" font-weight="400" font-size="12" x="217.924" y="27">Can’t Happen</tspan><tspan fill="#000000" font-family="Calibri,Calibri_MSFontService,sans-serif" font-weight="400" font-size="12" x="326.886" y="27">Can’t Happen</tspan><tspan fill="#000000" font-weight="400" font-size="12" x="-108.962" y="54">製造準備</tspan><tspan fill="#000000" font-family="Calibri,Calibri_MSFontService,sans-serif" font-weight="400" font-size="12" x="0" y="54">Ignore</tspan><tspan fill="#000000" font-weight="400" font-size="12" x="108.962" y="54">加工中</tspan><tspan fill="#000000" font-family="Calibri,Calibri_MSFontService,sans-serif" font-weight="400" font-size="12" x="217.924" y="54">Can’t Happen</tspan><tspan fill="#000000" font-family="Calibri,Calibri_MSFontService,sans-serif" font-weight="400" font-size="12" x="326.886" y="54">Can’t Happen</tspan><tspan fill="#000000" font-weight="400" font-size="12" x="-108.962" y="81">加工中</tspan><tspan fill="#000000" font-family="Calibri,Calibri_MSFontService,sans-serif" font-weight="400" font-size="12" x="0" y="81">Can’t Happen</tspan><tspan fill="#000000" font-weight="400" font-size="12" x="108.962" y="81">加工中</tspan><tspan fill="#000000" font-weight="400" font-size="12" x="217.924" y="81">後処理中</tspan><tspan fill="#000000" font-family="Calibri,Calibri_MSFontService,sans-serif" font-weight="400" font-size="12" x="326.886" y="81">Can’t Happen</tspan><tspan fill="#000000" font-weight="400" font-size="12" x="-108.962" y="108">後処理中</tspan><tspan fill="#000000" font-family="Calibri,Calibri_MSFontService,sans-serif" font-weight="400" font-size="12" x="0" y="108">Ignore</tspan><tspan fill="#000000" font-family="Calibri,Calibri_MSFontService,sans-serif" font-weight="400" font-size="12" x="108.962" y="108">Can’t Happen</tspan><tspan fill="#000000" font-family="Calibri,Calibri_MSFontService,sans-serif" font-weight="400" font-size="12" x="217.924" y="108">Ignore</tspan><tspan fill="#000000" font-weight="400" font-size="12" x="326.886" y="108">スタンバイ</tspan></text><path d="M0 24 93 0 186 24Z" fill="#FF0000" fill-rule="evenodd" fill-opacity="0.501961" transform="matrix(1 0 0 -1 282 910)"/><text font-family="Yu Gothic,Yu Gothic_MSFontService,sans-serif" font-weight="400" font-size="13" transform="translate(477.177 885)">未定義<tspan font-size="13" x="40" y="0">の空欄を、“</tspan><tspan font-family="Calibri,Calibri_MSFontService,sans-serif" font-size="13" x="112.333" y="0">Ignore</tspan>”<tspan font-size="13" x="156" y="0">か</tspan><tspan font-size="13" x="0" y="16">“</tspan><tspan font-family="Calibri,Calibri_MSFontService,sans-serif" font-size="13" x="5.66666" y="16">Can’t Happen</tspan><tspan font-size="13" x="79.3333" y="16">”で埋める</tspan><tspan font-size="13" x="-375.985" y="34">完成した状態遷移表</tspan><tspan font-size="13" x="-369.906" y="-241">状態遷移表の作成</tspan></text></g></svg>