<svg width="607" height="492" xmlns="http://www.w3.org/2000/svg" xmlns:xlink="http://www.w3.org/1999/xlink" overflow="hidden"><defs><clipPath id="clip0"><rect x="60" y="14" width="607" height="492"/></clipPath></defs><g clip-path="url(#clip0)" transform="translate(-60 -14)"><rect x="61.5001" y="15.5001" width="605" height="490" stroke="#D9D9D9" stroke-width="1.33333" stroke-miterlimit="8" fill="none"/><path d="M209.5 185.5C209.5 158.99 230.99 137.5 257.5 137.5 284.01 137.5 305.5 158.99 305.5 185.5 305.5 212.01 284.01 233.5 257.5 233.5 230.99 233.5 209.5 212.01 209.5 185.5Z" stroke="#000000" stroke-width="1.33333" stroke-miterlimit="8" fill="#FFFFFF" fill-rule="evenodd"/><text font-family="Calibri,Calibri_MSFontService,sans-serif" font-weight="400" font-size="16" transform="translate(251.973 190)">A</text><path d="M209.5 308.5C209.5 281.99 230.99 260.5 257.5 260.5 284.01 260.5 305.5 281.99 305.5 308.5 305.5 335.01 284.01 356.5 257.5 356.5 230.99 356.5 209.5 335.01 209.5 308.5Z" stroke="#000000" stroke-width="1.33333" stroke-miterlimit="8" fill="#FFFFFF" fill-rule="evenodd"/><text font-family="Calibri,Calibri_MSFontService,sans-serif" font-weight="400" font-size="16" transform="translate(252.307 314)">B</text><path d="M386.5 185.5C386.5 158.99 407.99 137.5 434.5 137.5 461.01 137.5 482.5 158.99 482.5 185.5 482.5 212.01 461.01 233.5 434.5 233.5 407.99 233.5 386.5 212.01 386.5 185.5Z" stroke="#000000" stroke-width="1.33333" stroke-miterlimit="8" fill="#FFFFFF" fill-rule="evenodd"/><text font-family="Calibri,Calibri_MSFontService,sans-serif" font-weight="400" font-size="16" transform="translate(429.67 190)">C</text><path d="M386.5 308.5C386.5 281.99 407.99 260.5 434.5 260.5 461.01 260.5 482.5 281.99 482.5 308.5 482.5 335.01 461.01 356.5 434.5 356.5 407.99 356.5 386.5 335.01 386.5 308.5Z" stroke="#000000" stroke-width="1.33333" stroke-miterlimit="8" fill="#FFFFFF" fill-rule="evenodd"/><text font-family="Calibri,Calibri_MSFontService,sans-serif" font-weight="400" font-size="16" transform="translate(429.003 314)">D</text><path d="M115.5 184.833 207.62 184.833 207.62 186.167 115.5 186.167ZM199.956 180.258 208.943 185.5 199.956 190.743C199.638 190.928 199.23 190.821 199.044 190.503 198.859 190.185 198.966 189.776 199.284 189.591L207.284 184.924 207.284 186.076 199.284 181.409C198.966 181.224 198.859 180.816 199.044 180.498 199.23 180.18 199.638 180.072 199.956 180.258Z"/><path d="M7.4905e-07-0.666667 92.12-0.666563 92.12 0.66677-7.4905e-07 0.666667ZM84.4559-5.24242 93.4431 0.000105056 84.4559 5.24261C84.1379 5.42813 83.7297 5.32071 83.5441 5.00267 83.3586 4.68464 83.466 4.27643 83.7841 4.09091L91.7841-0.575749 91.7841 0.575956 83.7841-4.09072C83.4661-4.27624 83.3586-4.68445 83.5442-5.00249 83.7297-5.32052 84.1379-5.42794 84.4559-5.24242Z" transform="matrix(1 0 0 -1 115.5 308.5)"/><path d="M305.5 184.833 385.46 184.833 385.46 186.167 305.5 186.167ZM377.796 180.258 386.783 185.5 377.796 190.743C377.478 190.928 377.07 190.821 376.884 190.503 376.699 190.185 376.806 189.776 377.124 189.591L385.124 184.924 385.124 186.076 377.124 181.409C376.806 181.224 376.699 180.816 376.884 180.498 377.07 180.18 377.478 180.072 377.796 180.258Z"/><path d="M0.302215-0.594231 108.523 54.4452 107.919 55.6337-0.302215 0.594231ZM103.766 46.8922 109.401 55.6392 99.0133 56.238C98.6457 56.2592 98.3306 55.9784 98.3094 55.6108 98.2882 55.2432 98.569 54.9281 98.9366 54.9069L108.183 54.3738 107.661 55.4004 102.645 47.6142C102.446 47.3047 102.535 46.8921 102.845 46.6928 103.154 46.4934 103.567 46.5827 103.766 46.8922Z" transform="matrix(1 0 0 -1 291.5 275.138)"/><path d="M305.5 307.833 385.46 307.833 385.46 309.167 305.5 309.167ZM377.796 303.258 386.783 308.5 377.796 313.743C377.478 313.928 377.07 313.821 376.884 313.503 376.699 313.185 376.806 312.776 377.124 312.591L385.124 307.924 385.124 309.076 377.124 304.409C376.806 304.224 376.699 303.816 376.884 303.498 377.07 303.18 377.478 303.072 377.796 303.258Z"/><path d="M482.5 307.833 562.46 307.833 562.46 309.167 482.5 309.167ZM554.796 303.258 563.783 308.5 554.796 313.743C554.478 313.928 554.07 313.821 553.884 313.503 553.699 313.185 553.806 312.776 554.124 312.591L562.124 307.924 562.124 309.076 554.124 304.409C553.806 304.224 553.699 303.816 553.884 303.498 554.07 303.18 554.478 303.072 554.796 303.258Z"/><path d="M482.5 184.833 562.46 184.833 562.46 186.167 482.5 186.167ZM554.796 180.258 563.783 185.5 554.796 190.743C554.478 190.928 554.07 190.821 553.884 190.503 553.699 190.185 553.806 189.776 554.124 189.591L562.124 184.924 562.124 186.076 554.124 181.409C553.806 181.224 553.699 180.816 553.884 180.498 554.07 180.18 554.478 180.072 554.796 180.258Z"/><text font-family="Calibri,Calibri_MSFontService,sans-serif" font-style="italic" font-weight="400" font-size="16" transform="translate(166.4 176)">a<tspan font-size="16" x="0" y="124">b</tspan><tspan font-size="16" x="333.12" y="-1">c</tspan><tspan font-size="16" x="333.12" y="124">d</tspan><tspan font-size="16" x="179.064" y="0">s</tspan><tspan font-size="16" x="166.173" y="66">t</tspan><tspan font-size="16" x="178.427" y="124">u</tspan><tspan font-style="normal" font-size="12" x="-6.24681" y="-81">A</tspan><tspan font-family="Yu Gothic,Yu Gothic_MSFontService,sans-serif" font-style="normal" font-size="12" x="0.753189" y="-81">は、</tspan><tspan font-size="12" x="24.7532" y="-81">a</tspan><tspan font-family="Yu Gothic,Yu Gothic_MSFontService,sans-serif" font-style="normal" font-size="12" x="30.9198" y="-81">が出現したら実行され</tspan><tspan font-family="Yu Gothic,Yu Gothic_MSFontService,sans-serif" font-style="normal" font-size="12" x="-6.24681" y="-67">実行完了時点</tspan><tspan font-family="Yu Gothic,Yu Gothic_MSFontService,sans-serif" font-style="normal" font-size="12" x="65.7532" y="-67">で</tspan><tspan font-size="12" x="77.7532" y="-67">s</tspan><tspan font-family="Yu Gothic,Yu Gothic_MSFontService,sans-serif" font-style="normal" font-size="12" x="82.4198" y="-67">が生成される</tspan></text><path d="M0 0C4.81168 0 9.62336 3.8188 9.62336 7.63758 9.62336 11.4564 14.435 15.2752 19.2467 15.2752" stroke="#ED7D31" stroke-width="0.666667" stroke-miterlimit="8" fill="none" fill-rule="evenodd" transform="matrix(1.83697e-16 1 1 -1.83697e-16 241.5 118.5)"/><text font-family="Calibri,Calibri_MSFontService,sans-serif" font-weight="400" font-size="12" transform="translate(382.665 74)">B<tspan font-family="Yu Gothic,Yu Gothic_MSFontService,sans-serif" font-size="12" x="6.5" y="0">は、</tspan><tspan font-style="italic" font-size="12" x="30.5" y="0">s</tspan><tspan font-family="Yu Gothic,Yu Gothic_MSFontService,sans-serif" font-size="12" x="35.1667" y="0">と</tspan><tspan font-style="italic" font-size="12" x="47.1667" y="0">t</tspan><tspan font-family="Yu Gothic,Yu Gothic_MSFontService,sans-serif" font-size="12" x="51.1667" y="0">が出現したら実行され</tspan><tspan font-family="Yu Gothic,Yu Gothic_MSFontService,sans-serif" font-size="12" x="0" y="14">実行完了時点</tspan><tspan font-family="Yu Gothic,Yu Gothic_MSFontService,sans-serif" font-size="12" x="72" y="14">で</tspan><tspan font-style="italic" font-size="12" x="84" y="14">c</tspan><tspan font-family="Yu Gothic,Yu Gothic_MSFontService,sans-serif" font-size="12" x="89" y="14">が生成される</tspan><tspan font-family="Yu Gothic,Yu Gothic_MSFontService,sans-serif" font-size="12" x="0" y="29">＝</tspan>C<tspan font-family="Yu Gothic,Yu Gothic_MSFontService,sans-serif" font-size="12" x="18.3333" y="29">が実行されるのは、</tspan>A<tspan font-family="Yu Gothic,Yu Gothic_MSFontService,sans-serif" font-size="12" x="133.333" y="29">と</tspan>B<tspan font-family="Yu Gothic,Yu Gothic_MSFontService,sans-serif" font-size="12" x="151.833" y="29">の実行完了後</tspan><tspan font-size="12" x="-237.1" y="323">B</tspan><tspan font-family="Yu Gothic,Yu Gothic_MSFontService,sans-serif" font-size="12" x="-230.6" y="323">は、</tspan><tspan font-style="italic" font-size="12" x="-206.6" y="323">b</tspan><tspan font-family="Yu Gothic,Yu Gothic_MSFontService,sans-serif" font-size="12" x="-200.433" y="323">が出現したら実行され</tspan><tspan font-family="Yu Gothic,Yu Gothic_MSFontService,sans-serif" font-size="12" x="-237.1" y="337">実行完了時点</tspan><tspan font-family="Yu Gothic,Yu Gothic_MSFontService,sans-serif" font-size="12" x="-165.1" y="337">で</tspan><tspan font-style="italic" font-size="12" x="-153.1" y="337">t</tspan><tspan font-family="Yu Gothic,Yu Gothic_MSFontService,sans-serif" font-size="12" x="-149.1" y="337">と</tspan><tspan font-style="italic" font-size="12" x="-137.1" y="337">u</tspan><tspan font-family="Yu Gothic,Yu Gothic_MSFontService,sans-serif" font-size="12" x="-130.933" y="337">が生成される</tspan></text><path d="M496.349 112.5C496.349 118.786 480.886 125.072 465.424 125.072 449.962 125.072 434.5 131.358 434.5 137.644" stroke="#ED7D31" stroke-width="0.666667" stroke-miterlimit="8" fill="none" fill-rule="evenodd"/><text font-family="Calibri,Calibri_MSFontService,sans-serif" font-weight="400" font-size="12" transform="translate(409.579 397)">D<tspan font-family="Yu Gothic,Yu Gothic_MSFontService,sans-serif" font-size="12" x="7.33334" y="0">は、</tspan>u<tspan font-family="Yu Gothic,Yu Gothic_MSFontService,sans-serif" font-size="12" x="37.6667" y="0">が出現したら実行され</tspan><tspan font-family="Yu Gothic,Yu Gothic_MSFontService,sans-serif" font-size="12" x="0" y="14">実行完了時点</tspan><tspan font-family="Yu Gothic,Yu Gothic_MSFontService,sans-serif" font-size="12" x="72" y="14">で</tspan><tspan font-style="italic" font-size="12" x="84" y="14">d</tspan><tspan font-family="Yu Gothic,Yu Gothic_MSFontService,sans-serif" font-size="12" x="90.1667" y="14">が生成される</tspan><tspan font-family="Yu Gothic,Yu Gothic_MSFontService,sans-serif" font-size="12" x="0" y="29">＝</tspan>D<tspan font-family="Yu Gothic,Yu Gothic_MSFontService,sans-serif" font-size="12" x="19.3333" y="29">が実行されるのは、</tspan>B<tspan font-family="Yu Gothic,Yu Gothic_MSFontService,sans-serif" font-size="12" x="133.833" y="29">の実行完了後</tspan></text><path d="M257.528 356.5C257.528 362.775 252.271 369.05 247.014 369.05 241.757 369.05 236.5 375.325 236.5 381.6" stroke="#ED7D31" stroke-width="0.666667" stroke-miterlimit="8" fill="none" fill-rule="evenodd"/><path d="M0 0C6.27498 0 12.5499 19.9186 12.5499 39.8372 12.5499 59.7558 18.8248 79.6744 25.0997 79.6744" stroke="#ED7D31" stroke-width="0.666667" stroke-miterlimit="8" fill="none" fill-rule="evenodd" transform="matrix(1.83697e-16 1 1 -1.83697e-16 434.5 356.5)"/><text font-family="Calibri,Calibri_MSFontService,sans-serif" font-weight="400" font-size="12" transform="translate(84.0518 232)">A<tspan font-family="Yu Gothic,Yu Gothic_MSFontService,sans-serif" font-size="12" x="7" y="0">と</tspan>B<tspan font-family="Yu Gothic,Yu Gothic_MSFontService,sans-serif" font-size="12" x="25.5" y="0">のどちらが先に実行</tspan><tspan font-family="Yu Gothic,Yu Gothic_MSFontService,sans-serif" font-size="12" x="0" y="14">されるか、また、実行完</tspan><tspan font-family="Yu Gothic,Yu Gothic_MSFontService,sans-serif" font-size="12" x="0" y="29">了するかは決定できない</tspan><tspan font-size="12" x="390.476" y="0">C</tspan><tspan font-family="Yu Gothic,Yu Gothic_MSFontService,sans-serif" font-size="12" x="396.809" y="0">と</tspan>D<tspan font-family="Yu Gothic,Yu Gothic_MSFontService,sans-serif" font-size="12" x="416.142" y="0">のどちらが先に実行</tspan><tspan font-family="Yu Gothic,Yu Gothic_MSFontService,sans-serif" font-size="12" x="390.476" y="14">されるか、また、実行完</tspan><tspan font-family="Yu Gothic,Yu Gothic_MSFontService,sans-serif" font-size="12" x="390.476" y="29">了するかは決定できない</tspan><tspan font-family="MS Gothic,MS Gothic_MSFontService,sans-serif" font-size="12" x="13.4501" y="229">※</tspan><tspan font-family="Yu Gothic,Yu Gothic_MSFontService,sans-serif" font-size="12" x="28.1167" y="229">実行には時間がかかるものとする。</tspan><tspan font-family="MS Gothic,MS Gothic_MSFontService,sans-serif" font-size="12" x="13.4501" y="244">※</tspan><tspan font-family="Yu Gothic,Yu Gothic_MSFontService,sans-serif" font-size="12" x="28.1167" y="244">具体的な実行時間は選択した実装方法によるが、システムに要求される非機能要件で規定される</tspan></text></g></svg>