<svg width="607" height="310" xmlns="http://www.w3.org/2000/svg" xmlns:xlink="http://www.w3.org/1999/xlink" overflow="hidden"><defs><clipPath id="clip0"><rect x="60" y="75" width="607" height="310"/></clipPath><clipPath id="clip1"><rect x="307" y="195" width="221" height="100"/></clipPath><clipPath id="clip2"><rect x="307" y="195" width="221" height="100"/></clipPath><clipPath id="clip3"><rect x="307" y="195" width="221" height="100"/></clipPath><clipPath id="clip4"><rect x="307" y="195" width="221" height="100"/></clipPath><clipPath id="clip5"><rect x="220" y="228" width="44" height="45"/></clipPath><clipPath id="clip6"><rect x="220" y="228" width="44" height="45"/></clipPath><clipPath id="clip7"><rect x="220" y="228" width="44" height="45"/></clipPath></defs><g clip-path="url(#clip0)" transform="translate(-60 -75)"><rect x="121" y="221" width="87" height="61" fill="#F2F2F2"/><rect x="278" y="160" width="350" height="151" fill="#F2F2F2"/><rect x="61.5001" y="76.5001" width="605" height="308" stroke="#D9D9D9" stroke-width="1.33333" stroke-miterlimit="8" fill="none"/><g clip-path="url(#clip1)"><g clip-path="url(#clip2)"><g clip-path="url(#clip3)"><g clip-path="url(#clip4)"><path d="M563.306 501.344C563.306 499.043 565.172 497.177 567.473 497.177L634.946 497.177C637.248 497.177 639.113 499.043 639.113 501.344L639.113 518.01C639.113 520.312 637.248 522.177 634.946 522.177L567.473 522.177C565.172 522.177 563.306 520.312 563.306 518.01Z" stroke="#000000" stroke-width="1.07527" stroke-miterlimit="8" fill="#FFFFFF" fill-rule="evenodd" transform="matrix(1.00381 0 0 1 -257.238 -296.129)"/><text font-family="Calibri,Calibri_MSFontService,sans-serif" font-weight="400" font-size="13" transform="matrix(0.809524 0 0 0.806452 340.588 217)">S<tspan font-size="13" x="6.00001" y="0">1</tspan></text><path d="M563.306 550.538C563.306 548.236 565.172 546.371 567.473 546.371L634.946 546.371C637.248 546.371 639.113 548.236 639.113 550.538L639.113 567.204C639.113 569.506 637.248 571.371 634.946 571.371L567.473 571.371C565.172 571.371 563.306 569.506 563.306 567.204Z" stroke="#000000" stroke-width="1.07527" stroke-miterlimit="8" fill="#FFFFFF" fill-rule="evenodd" transform="matrix(1.00381 0 0 1 -257.238 -296.129)"/><text font-family="Calibri,Calibri_MSFontService,sans-serif" font-weight="400" font-size="13" transform="matrix(0.809524 0 0 0.806452 340.588 266)">S<tspan font-size="13" x="6.00001" y="0">2</tspan></text><path d="M686.694 550.538C686.694 548.236 688.559 546.371 690.86 546.371L757.527 546.371C759.828 546.371 761.694 548.236 761.694 550.538L761.694 567.204C761.694 569.506 759.828 571.371 757.527 571.371L690.86 571.371C688.559 571.371 686.694 569.506 686.694 567.204Z" stroke="#000000" stroke-width="1.07527" stroke-miterlimit="8" fill="#FFFFFF" fill-rule="evenodd" transform="matrix(1.00381 0 0 1 -257.238 -296.129)"/><text font-family="Calibri,Calibri_MSFontService,sans-serif" font-weight="400" font-size="13" transform="matrix(0.809524 0 0 0.806452 464.175 266)">S<tspan font-size="13" x="6.00001" y="0">3</tspan></text><path d="M686.694 502.151C686.694 499.849 688.559 497.984 690.86 497.984L757.527 497.984C759.828 497.984 761.694 499.849 761.694 502.151L761.694 518.817C761.694 521.119 759.828 522.984 757.527 522.984L690.86 522.984C688.559 522.984 686.694 521.119 686.694 518.817Z" stroke="#000000" stroke-width="1.07527" stroke-miterlimit="8" fill="#FFFFFF" fill-rule="evenodd" transform="matrix(1.00381 0 0 1 -257.238 -296.129)"/><text font-family="Calibri,Calibri_MSFontService,sans-serif" font-weight="400" font-size="13" transform="matrix(0.809524 0 0 0.806452 464.175 217)">S<tspan font-size="13" x="6.00001" y="0">4</tspan></text><path d="M601.748 522.177 601.748 545.306 600.672 545.306 600.672 522.177ZM605.438 539.126 601.21 546.373 596.982 539.126C596.832 538.869 596.919 538.54 597.176 538.39 597.432 538.241 597.761 538.327 597.91 538.584L601.674 545.035 600.745 545.035 604.509 538.584C604.658 538.327 604.988 538.241 605.244 538.39 605.501 538.54 605.587 538.869 605.438 539.126Z" transform="matrix(1.00381 0 0 1 -257.238 -296.129)"/><path d="M639.113 558.736 685.99 558.736 685.99 559.812 639.113 559.812ZM679.81 555.047 687.057 559.274 679.81 563.502C679.553 563.652 679.223 563.565 679.074 563.309 678.924 563.052 679.011 562.723 679.268 562.573L685.719 558.81 685.719 559.739 679.268 555.975C679.011 555.826 678.924 555.497 679.074 555.24 679.223 554.984 679.553 554.897 679.81 555.047Z" transform="matrix(1.00381 0 0 1 -257.238 -296.129)"/><path d="M724.059 546.706 724.059 524.048 725.135 524.048 725.135 546.706ZM720.369 530.229 724.597 522.981 728.825 530.229C728.974 530.485 728.888 530.815 728.631 530.965 728.375 531.114 728.045 531.027 727.896 530.771L724.132 524.319 725.061 524.319 721.298 530.771C721.148 531.027 720.819 531.114 720.563 530.965 720.306 530.815 720.219 530.485 720.369 530.229Z" transform="matrix(1.00381 0 0 1 -257.238 -296.129)"/><path d="M687.049 511.089 640.173 510.629 640.183 509.553 687.06 510.014ZM646.316 514.38 639.11 510.081 646.399 505.924C646.657 505.777 646.986 505.867 647.133 506.125 647.28 506.383 647.19 506.711 646.932 506.858L640.444 510.558 640.453 509.629 646.867 513.456C647.123 513.608 647.206 513.938 647.053 514.194 646.902 514.448 646.571 514.531 646.316 514.38Z" transform="matrix(1.00381 0 0 1 -257.238 -296.129)"/><path d="M725.132 571.73 725.284 573.544 725.266 573.445 725.77 575.26 725.729 575.155 727.544 578.632 727.477 578.534 730.249 581.81 730.173 581.736 733.852 584.66 733.787 584.615 738.071 587.085 738 587.051 742.839 588.966 742.765 588.943 747.906 590.152 747.828 590.14 753.121 590.594 753.039 590.593 758.382 590.24 758.314 590.248 763.455 589.24 763.392 589.257 768.18 587.694 768.115 587.72 772.45 585.654 772.383 585.692 776.012 583.273 775.941 583.329 778.764 580.658 778.675 580.767 780.439 577.894 780.389 578 780.893 576.539 780.866 576.661 781.018 575.148 781.021 575.283 780.568 572.309 780.603 572.436 779.394 569.564 779.452 569.668 777.537 566.997 777.598 567.068 775.128 564.648 775.194 564.703 772.27 562.636 772.349 562.683 769.073 561.12 769.155 561.152 765.677 560.144 765.775 560.162 763.205 559.912 763.309 558.842 765.928 559.097 769.496 560.131 772.853 561.732 775.849 563.85 778.384 566.332 780.361 569.09 781.62 572.081 782.094 575.188 781.93 576.83 781.386 578.406 779.554 581.39 776.647 584.142 772.948 586.608 768.547 588.706 763.694 590.289 758.487 591.31 753.069 591.669 747.698 591.208 742.48 589.98 737.568 588.035 733.215 585.527 729.463 582.545 726.618 579.183 724.749 575.602 724.216 573.684 724.061 571.819ZM769 564.183 762.195 559.274 769.818 555.767C770.088 555.644 770.407 555.761 770.531 556.031 770.655 556.301 770.537 556.62 770.268 556.744L763.481 559.865 763.572 558.941 769.629 563.311C769.869 563.485 769.924 563.821 769.75 564.062 769.577 564.302 769.24 564.357 769 564.183Z" transform="matrix(1.00381 0 0 1 -257.238 -296.129)"/><text font-family="Calibri,Calibri_MSFontService,sans-serif" font-weight="400" font-size="13" transform="matrix(0.809524 0 0 0.806452 331.24 239)">E<tspan font-size="13" x="6.00001" y="0">1</tspan><tspan font-size="13" x="84.5067" y="17.36">E</tspan><tspan font-size="13" x="90.5067" y="17.36">2</tspan><tspan font-size="13" x="218.094" y="55.8">E</tspan><tspan font-size="13" x="224.094" y="55.8">2</tspan><tspan font-size="13" x="178.239" y="4.96">E</tspan>3<tspan font-size="13" x="86.0872" y="-37.2">E</tspan><tspan font-size="13" x="92.0872" y="-37.2">4</tspan></text></g></g></g></g><rect x="569.5" y="226.5" width="28" height="28" stroke="#2F528F" stroke-width="3" stroke-miterlimit="8" fill="#FFFFFF"/><path d="M574.5 241C574.5 236.306 578.306 232.5 583 232.5 587.694 232.5 591.5 236.306 591.5 241 591.5 245.694 587.694 249.5 583 249.5 578.306 249.5 574.5 245.694 574.5 241Z" stroke="#AE5A21" stroke-width="1.33333" stroke-miterlimit="8" fill="#FFFFFF" fill-rule="evenodd"/><path d="M568.5 223.5 569.75 218.5 595.25 218.5 596.5 223.5Z" stroke="#2F528F" stroke-width="3" stroke-miterlimit="8" fill="#FFFFFF" fill-rule="evenodd"/><path d="M0 5 1.24999 0 26.75 0 28 5Z" stroke="#2F528F" stroke-width="3" stroke-miterlimit="8" fill="#FFFFFF" fill-rule="evenodd" transform="matrix(1 0 0 -1 568.5 263.5)"/><rect x="571.5" y="209.5" width="23" height="5" stroke="#2F528F" stroke-width="3" stroke-miterlimit="8" fill="#FFFFFF"/><path d="M577.55 244.487 583.928 236.414 582.986 235.671 586.357 235.275 586.752 238.646 585.811 237.902 579.433 245.975Z" stroke="#AE5A21" stroke-width="1.33333" stroke-miterlimit="8" fill="#ED7D31" fill-rule="evenodd"/><path d="M488.5 257.466 493.466 257.466 495 252.5 496.534 257.466 501.5 257.466 497.483 260.534 499.017 265.5 495 262.431 490.983 265.5 492.517 260.534Z" stroke="#BC8C00" stroke-width="1.33333" stroke-miterlimit="8" fill="#FFC000" fill-rule="evenodd"/><path d="M150.404 231.5 158.124 242.478 154.94 243.772 164.663 253.179 161.479 254.75 173.5 270.5 153.114 258.43 157.002 256.754 144.335 249.023 148.874 246.634 135.5 238.524Z" stroke="#BC8C00" stroke-width="1.33333" stroke-miterlimit="8" fill="#FFC000" fill-rule="evenodd"/><text font-family="Calibri,Calibri_MSFontService,sans-serif" font-weight="400" font-size="13" transform="translate(180.673 249)">E3</text><path d="M279.5 266.5 279.5 259.5 204.5 259.5 204.5 245.5 279.5 245.5 279.5 238.5 293.5 252.5Z" stroke="#5B9BD5" stroke-width="1.33333" stroke-miterlimit="8" stroke-opacity="0.501961" fill="#5B9BD5" fill-rule="evenodd" fill-opacity="0.501961"/><path d="M92.5001 150C92.5001 128.737 120.258 111.5 154.5 111.5 188.742 111.5 216.5 128.737 216.5 150 216.5 171.263 188.742 188.5 154.5 188.5 120.258 188.5 92.5001 171.263 92.5001 150Z" stroke="#000000" stroke-width="1.33333" stroke-miterlimit="8" fill="#FFFFFF" fill-rule="evenodd"/><text font-family="Calibri,Calibri_MSFontService,sans-serif" font-weight="400" font-size="13" transform="translate(127.246 145)">20<tspan font-family="Yu Gothic,Yu Gothic_MSFontService,sans-serif" font-size="13" x="13.6667" y="0">秒後に</tspan><tspan font-size="13" x="6.83333" y="16">E3</tspan><tspan font-family="Yu Gothic,Yu Gothic_MSFontService,sans-serif" font-size="13" x="20.1667" y="16">発生</tspan></text><path d="M0 25 7 25 7 0 21 0 21 25 28 25 14 39Z" stroke="#5B9BD5" stroke-width="1.33333" stroke-miterlimit="8" stroke-opacity="0.501961" fill="#5B9BD5" fill-rule="evenodd" fill-opacity="0.501961" transform="matrix(-1 1.22465e-16 1.22465e-16 1 173.5 179.5)"/><text font-family="Yu Gothic,Yu Gothic_MSFontService,sans-serif" font-weight="400" font-size="16" transform="translate(116.85 348)">指定時間後に、送付先に状態機械が受信</text><path d="M0 0C13.9666 0 27.9332 5.06164 27.9332 10.1233 27.9332 15.1849 41.8998 20.2465 55.8664 20.2465" stroke="#ED7D31" stroke-width="0.666667" stroke-miterlimit="8" fill="none" fill-rule="evenodd" transform="matrix(1.83697e-16 1 1 -1.83697e-16 242.5 273.5)"/><g clip-path="url(#clip5)"><g clip-path="url(#clip6)"><g clip-path="url(#clip7)"><path d="M15.8544 18.9574 20.2386 22.339C20.4076 23.7021 21.5566 24.7617 22.9654 24.7617 24.4912 24.7617 25.7275 23.5247 25.7275 21.9997 25.7275 21.9412 25.714 21.8856 25.7098 21.8279L32.1344 14.2276C32.5821 13.7248 32.5906 13.0004 32.1527 12.6118 31.7154 12.2224 30.998 12.3153 30.5502 12.8187L24.2383 19.5622C23.8553 19.3615 23.4272 19.2376 22.9653 19.2376 22.4719 19.2376 22.0149 19.3777 21.6135 19.6052L17.4863 16.7312C16.954 16.339 16.1556 16.5206 15.7043 17.1361 15.2546 17.7499 15.3208 18.5659 15.8544 18.9574Z" fill="#4B4B4B" transform="matrix(1 0 0 1.02273 220 228)"/><path d="M37.8395 7.12637C34.041 3.32303 28.7662 0.964391 22.9654 0.965852L22.9654 6.06461C27.3743 6.06607 31.3417 7.84455 34.2339 10.7319 37.1205 13.6234 38.899 17.5915 38.9005 21.9997 38.899 26.4077 37.1205 30.3758 34.2339 33.2674 31.3417 36.1555 27.3743 37.9339 22.9654 37.9346 18.5573 37.9339 14.5893 36.1555 11.6976 33.2674 8.81031 30.3758 7.03184 26.4077 7.03046 21.9997 7.03115 20.5542 7.22829 19.1623 7.58596 17.8365L9.65241 19.1236C9.9263 19.2933 10.2593 19.3292 10.5325 19.2173 10.8078 19.1039 10.988 18.8596 11.0091 18.5667L11.8991 6.91238C11.923 6.5786 11.7399 6.24207 11.4288 6.04639 11.1148 5.85355 10.7311 5.83584 10.4431 6.00695L0.375719 11.9428C0.121602 12.0914-0.017875 12.3603 0.00189062 12.656 0.0215703 12.9532 0.199719 13.2355 0.474289 13.4058L3.1124 15.0491C2.34996 17.2282 1.93102 19.5686 1.93102 21.9997 1.92964 27.7997 4.28966 33.0745 8.09162 36.8736 11.8907 40.6756 17.1648 43.0356 22.9655 43.0341 28.7656 43.0356 34.0411 40.6756 37.8396 36.8736 41.6414 33.0745 44.0015 27.7997 44.0001 21.9997 44.0015 16.199 41.6414 10.9241 37.8395 7.12637Z" fill="#4B4B4B" transform="matrix(1 0 0 1.02273 220 228)"/></g></g></g></g></svg>