<svg width="607" height="389" xmlns="http://www.w3.org/2000/svg" xmlns:xlink="http://www.w3.org/1999/xlink" overflow="hidden"><defs><clipPath id="clip0"><rect x="60" y="75" width="607" height="389"/></clipPath><clipPath id="clip1"><rect x="308" y="131" width="221" height="101"/></clipPath><clipPath id="clip2"><rect x="308" y="131" width="221" height="101"/></clipPath><clipPath id="clip3"><rect x="308" y="131" width="221" height="101"/></clipPath><clipPath id="clip4"><rect x="308" y="131" width="221" height="101"/></clipPath><clipPath id="clip5"><rect x="308" y="331" width="221" height="101"/></clipPath><clipPath id="clip6"><rect x="308" y="331" width="221" height="101"/></clipPath><clipPath id="clip7"><rect x="308" y="331" width="221" height="101"/></clipPath><clipPath id="clip8"><rect x="308" y="331" width="221" height="101"/></clipPath></defs><g clip-path="url(#clip0)" transform="translate(-60 -75)"><rect x="122" y="157" width="87" height="61" fill="#F2F2F2"/><rect x="279" y="296" width="350" height="151" fill="#F2F2F2"/><rect x="279" y="96" width="350" height="151" fill="#F2F2F2"/><rect x="61.5001" y="76.5001" width="605" height="386" stroke="#D9D9D9" stroke-width="1.33333" stroke-miterlimit="8" fill="none"/><g clip-path="url(#clip1)"><g clip-path="url(#clip2)"><g clip-path="url(#clip3)"><g clip-path="url(#clip4)"><path d="M565.452 503.254C565.452 500.944 567.325 499.071 569.635 499.071L637.365 499.071C639.675 499.071 641.548 500.944 641.548 503.254L641.548 519.984C641.548 522.294 639.675 524.167 637.365 524.167L569.635 524.167C567.325 524.167 565.452 522.294 565.452 519.984Z" stroke="#000000" stroke-width="1.07936" stroke-miterlimit="8" fill="#FFFFFF" fill-rule="evenodd" transform="matrix(1 0 0 1.00617 -256.238 -365.04)"/><text font-family="Calibri,Calibri_MSFontService,sans-serif" font-weight="400" font-size="13" transform="matrix(0.809524 0 0 0.814516 341.588 153)">S<tspan font-size="13" x="6.00001" y="0">1</tspan></text><path d="M565.452 552.635C565.452 550.325 567.325 548.452 569.635 548.452L637.365 548.452C639.675 548.452 641.548 550.325 641.548 552.635L641.548 569.365C641.548 571.675 639.675 573.548 637.365 573.548L569.635 573.548C567.325 573.548 565.452 571.675 565.452 569.365Z" stroke="#000000" stroke-width="1.07936" stroke-miterlimit="8" fill="#FFFFFF" fill-rule="evenodd" transform="matrix(1 0 0 1.00617 -256.238 -365.04)"/><text font-family="Calibri,Calibri_MSFontService,sans-serif" font-weight="400" font-size="13" transform="matrix(0.809524 0 0 0.814516 341.588 203)">S<tspan font-size="13" x="6.00001" y="0">2</tspan></text><path d="M689.31 552.635C689.31 550.325 691.182 548.452 693.492 548.452L760.412 548.452C762.723 548.452 764.595 550.325 764.595 552.635L764.595 569.365C764.595 571.675 762.723 573.548 760.412 573.548L693.492 573.548C691.182 573.548 689.31 571.675 689.31 569.365Z" stroke="#000000" stroke-width="1.07936" stroke-miterlimit="8" fill="#FFFFFF" fill-rule="evenodd" transform="matrix(1 0 0 1.00617 -256.238 -365.04)"/><text font-family="Calibri,Calibri_MSFontService,sans-serif" font-weight="400" font-size="13" transform="matrix(0.809524 0 0 0.814516 465.175 203)">S<tspan font-size="13" x="6.00001" y="0">3</tspan></text><path d="M689.31 504.064C689.31 501.753 691.182 499.881 693.492 499.881L760.412 499.881C762.723 499.881 764.595 501.753 764.595 504.064L764.595 520.793C764.595 523.104 762.723 524.976 760.412 524.976L693.492 524.976C691.182 524.976 689.31 523.104 689.31 520.793Z" stroke="#000000" stroke-width="1.07936" stroke-miterlimit="8" fill="#FFFFFF" fill-rule="evenodd" transform="matrix(1 0 0 1.00617 -256.238 -365.04)"/><text font-family="Calibri,Calibri_MSFontService,sans-serif" font-weight="400" font-size="13" transform="matrix(0.809524 0 0 0.814516 465.175 153)">S<tspan font-size="13" x="6.00001" y="0">4</tspan></text><path d="M604.04 524.167 604.04 547.384 602.96 547.384 602.96 524.167ZM607.744 541.18 603.5 548.455 599.256 541.18C599.106 540.922 599.193 540.592 599.451 540.441 599.708 540.292 600.039 540.378 600.188 540.636L603.966 547.112 603.034 547.112 606.812 540.636C606.962 540.378 607.293 540.292 607.55 540.441 607.807 540.592 607.894 540.922 607.744 541.18Z" transform="matrix(1 0 0 1.00617 -256.238 -365.04)"/><path d="M641.548 560.865 688.604 560.865 688.604 561.945 641.548 561.945ZM682.399 557.161 689.675 561.405 682.399 565.649C682.142 565.799 681.811 565.712 681.661 565.455 681.511 565.197 681.598 564.866 681.855 564.717L688.332 560.938 688.332 561.871 681.855 558.093C681.598 557.943 681.511 557.613 681.661 557.356 681.811 557.098 682.142 557.011 682.399 557.161Z" transform="matrix(1 0 0 1.00617 -256.238 -365.04)"/><path d="M726.817 548.789 726.817 526.045 727.897 526.045 727.897 548.789ZM723.114 532.249 727.357 524.974 731.602 532.249C731.751 532.506 731.665 532.837 731.407 532.987 731.15 533.137 730.819 533.05 730.669 532.793L726.891 526.317 727.823 526.317 724.045 532.793C723.896 533.05 723.565 533.137 723.308 532.987 723.05 532.837 722.963 532.506 723.114 532.249Z" transform="matrix(1 0 0 1.00617 -256.238 -365.04)"/><path d="M689.667 513.036 642.611 512.574 642.622 511.494 689.677 511.957ZM648.778 516.339 641.545 512.024 648.862 507.852C649.121 507.704 649.45 507.794 649.598 508.053 649.746 508.312 649.656 508.642 649.397 508.789L642.883 512.503 642.893 511.57 649.331 515.412C649.588 515.565 649.671 515.896 649.518 516.152 649.366 516.408 649.034 516.492 648.778 516.339Z" transform="matrix(1 0 0 1.00617 -256.238 -365.04)"/><path d="M727.895 573.908 728.047 575.729 728.029 575.63 728.535 577.451 728.494 577.346 730.315 580.837 730.248 580.738 733.031 584.026 732.955 583.952 736.648 586.887 736.582 586.842 740.883 589.321 740.811 589.287 745.669 591.21 745.594 591.186 750.755 592.401 750.677 592.388 755.99 592.843 755.908 592.843 761.271 592.488 761.203 592.497 766.363 591.485 766.3 591.502 771.106 589.933 771.042 589.959 775.393 587.885 775.326 587.923 778.968 585.495 778.897 585.551 781.73 582.87 781.641 582.979 783.412 580.096 783.362 580.202 783.868 578.735 783.841 578.857 783.993 577.339 783.996 577.475 783.541 574.489 783.577 574.617 782.363 571.733 782.422 571.838 780.499 569.157 780.56 569.228 778.081 566.799 778.147 566.854 775.212 564.78 775.292 564.827 772.003 563.258 772.085 563.289 768.594 562.277 768.692 562.296 766.112 562.045 766.217 560.971 768.846 561.227 772.427 562.264 775.797 563.872 778.805 565.998 781.349 568.49 783.334 571.258 784.598 574.26 785.074 577.379 784.909 579.027 784.363 580.61 782.524 583.605 779.605 586.367 775.892 588.843 771.475 590.948 766.604 592.538 761.377 593.563 755.938 593.923 750.546 593.46 745.308 592.227 740.378 590.276 736.009 587.757 732.242 584.764 729.386 581.389 727.51 577.794 726.975 575.869 726.82 573.997ZM771.93 566.332 765.099 561.405 772.75 557.884C773.022 557.76 773.342 557.878 773.467 558.149 773.591 558.42 773.472 558.741 773.202 558.865L766.39 561.998 766.481 561.07 772.561 565.457C772.802 565.631 772.857 565.969 772.682 566.211 772.508 566.452 772.171 566.507 771.93 566.332Z" transform="matrix(1 0 0 1.00617 -256.238 -365.04)"/><text font-family="Calibri,Calibri_MSFontService,sans-serif" font-weight="400" font-size="13" transform="matrix(0.809524 0 0 0.814516 332.24 176)">E<tspan font-size="13" x="6.00001" y="0">1</tspan><tspan font-size="13" x="84.5067" y="17.1881">E</tspan><tspan font-size="13" x="90.5067" y="17.1881">2</tspan><tspan font-size="13" x="218.094" y="55.2475">E</tspan><tspan font-size="13" x="224.094" y="55.2475">2</tspan><tspan font-size="13" x="178.239" y="3.68317">E</tspan>3<tspan font-size="13" x="86.0872" y="-38.0594">E</tspan><tspan font-size="13" x="92.0872" y="-38.0594">4</tspan></text></g></g></g></g><rect x="570.5" y="163.5" width="28" height="28" stroke="#2F528F" stroke-width="3" stroke-miterlimit="8" fill="#FFFFFF"/><path d="M575.5 177C575.5 172.306 579.306 168.5 584 168.5 588.694 168.5 592.5 172.306 592.5 177 592.5 181.694 588.694 185.5 584 185.5 579.306 185.5 575.5 181.694 575.5 177Z" stroke="#AE5A21" stroke-width="1.33333" stroke-miterlimit="8" fill="#FFFFFF" fill-rule="evenodd"/><path d="M569.5 159.5 570.75 154.5 596.25 154.5 597.5 159.5Z" stroke="#2F528F" stroke-width="3" stroke-miterlimit="8" fill="#FFFFFF" fill-rule="evenodd"/><path d="M0 4 0.999996 0 27 0 28 4Z" stroke="#2F528F" stroke-width="3" stroke-miterlimit="8" fill="#FFFFFF" fill-rule="evenodd" transform="matrix(1 0 0 -1 569.5 199.5)"/><rect x="572.5" y="146.5" width="23" height="5" stroke="#2F528F" stroke-width="3" stroke-miterlimit="8" fill="#FFFFFF"/><path d="M578.593 180.835 584.971 172.762 584.029 172.018 587.4 171.623 587.796 174.994 586.854 174.25 580.476 182.323Z" stroke="#AE5A21" stroke-width="1.33333" stroke-miterlimit="8" fill="#ED7D31" fill-rule="evenodd"/><rect x="569.5" y="361.5" width="28" height="28" stroke="#2F528F" stroke-width="3" stroke-miterlimit="8" fill="#FFFFFF"/><path d="M575.5 376C575.5 371.306 579.306 367.5 584 367.5 588.694 367.5 592.5 371.306 592.5 376 592.5 380.694 588.694 384.5 584 384.5 579.306 384.5 575.5 380.694 575.5 376Z" stroke="#AE5A21" stroke-width="1.33333" stroke-miterlimit="8" fill="#FFFFFF" fill-rule="evenodd"/><path d="M569.5 358.5 570.75 353.5 596.25 353.5 597.5 358.5Z" stroke="#2F528F" stroke-width="3" stroke-miterlimit="8" fill="#FFFFFF" fill-rule="evenodd"/><path d="M0 5 1.24999 0 26.75 0 28 5Z" stroke="#2F528F" stroke-width="3" stroke-miterlimit="8" fill="#FFFFFF" fill-rule="evenodd" transform="matrix(1 0 0 -1 569.5 398.5)"/><rect x="572.5" y="345.5" width="22" height="4" stroke="#2F528F" stroke-width="3" stroke-miterlimit="8" fill="#FFFFFF"/><path d="M587.472 380.419 579.523 373.888 578.761 374.815 578.43 371.437 581.808 371.106 581.046 372.034 588.996 378.564Z" stroke="#AE5A21" stroke-width="1.33333" stroke-miterlimit="8" fill="#ED7D31" fill-rule="evenodd"/><path d="M489.5 193.466 494.466 193.466 496 188.5 497.534 193.466 502.5 193.466 498.483 196.534 500.017 201.5 496 198.431 491.983 201.5 493.517 196.534Z" stroke="#BC8C00" stroke-width="1.33333" stroke-miterlimit="8" fill="#FFC000" fill-rule="evenodd"/><g clip-path="url(#clip5)"><g clip-path="url(#clip6)"><g clip-path="url(#clip7)"><g clip-path="url(#clip8)"><path d="M565.452 503.254C565.452 500.944 567.325 499.071 569.635 499.071L637.365 499.071C639.675 499.071 641.548 500.944 641.548 503.254L641.548 519.984C641.548 522.294 639.675 524.167 637.365 524.167L569.635 524.167C567.325 524.167 565.452 522.294 565.452 519.984Z" stroke="#000000" stroke-width="1.07936" stroke-miterlimit="8" fill="#FFFFFF" fill-rule="evenodd" transform="matrix(1 0 0 1.00617 -256.238 -165.04)"/><text font-family="Calibri,Calibri_MSFontService,sans-serif" font-weight="400" font-size="13" transform="matrix(0.809524 0 0 0.814516 341.588 353)">S<tspan font-size="13" x="6.00001" y="0">1</tspan></text><path d="M565.452 552.635C565.452 550.325 567.325 548.452 569.635 548.452L637.365 548.452C639.675 548.452 641.548 550.325 641.548 552.635L641.548 569.365C641.548 571.675 639.675 573.548 637.365 573.548L569.635 573.548C567.325 573.548 565.452 571.675 565.452 569.365Z" stroke="#000000" stroke-width="1.07936" stroke-miterlimit="8" fill="#FFFFFF" fill-rule="evenodd" transform="matrix(1 0 0 1.00617 -256.238 -165.04)"/><text font-family="Calibri,Calibri_MSFontService,sans-serif" font-weight="400" font-size="13" transform="matrix(0.809524 0 0 0.814516 341.588 403)">S<tspan font-size="13" x="6.00001" y="0">2</tspan></text><path d="M689.31 552.635C689.31 550.325 691.182 548.452 693.492 548.452L760.412 548.452C762.723 548.452 764.595 550.325 764.595 552.635L764.595 569.365C764.595 571.675 762.723 573.548 760.412 573.548L693.492 573.548C691.182 573.548 689.31 571.675 689.31 569.365Z" stroke="#000000" stroke-width="1.07936" stroke-miterlimit="8" fill="#FFFFFF" fill-rule="evenodd" transform="matrix(1 0 0 1.00617 -256.238 -165.04)"/><text font-family="Calibri,Calibri_MSFontService,sans-serif" font-weight="400" font-size="13" transform="matrix(0.809524 0 0 0.814516 465.175 403)">S<tspan font-size="13" x="6.00001" y="0">3</tspan></text><path d="M689.31 504.064C689.31 501.753 691.182 499.881 693.492 499.881L760.412 499.881C762.723 499.881 764.595 501.753 764.595 504.064L764.595 520.793C764.595 523.104 762.723 524.976 760.412 524.976L693.492 524.976C691.182 524.976 689.31 523.104 689.31 520.793Z" stroke="#000000" stroke-width="1.07936" stroke-miterlimit="8" fill="#FFFFFF" fill-rule="evenodd" transform="matrix(1 0 0 1.00617 -256.238 -165.04)"/><text font-family="Calibri,Calibri_MSFontService,sans-serif" font-weight="400" font-size="13" transform="matrix(0.809524 0 0 0.814516 465.175 353)">S<tspan font-size="13" x="6.00001" y="0">4</tspan></text><path d="M604.04 524.167 604.04 547.384 602.96 547.384 602.96 524.167ZM607.744 541.18 603.5 548.455 599.256 541.18C599.106 540.922 599.193 540.592 599.451 540.441 599.708 540.292 600.039 540.378 600.188 540.636L603.966 547.112 603.034 547.112 606.812 540.636C606.962 540.378 607.293 540.292 607.55 540.441 607.807 540.592 607.894 540.922 607.744 541.18Z" transform="matrix(1 0 0 1.00617 -256.238 -165.04)"/><path d="M641.548 560.865 688.604 560.865 688.604 561.945 641.548 561.945ZM682.399 557.161 689.675 561.405 682.399 565.649C682.142 565.799 681.811 565.712 681.661 565.455 681.511 565.197 681.598 564.866 681.855 564.717L688.332 560.938 688.332 561.871 681.855 558.093C681.598 557.943 681.511 557.613 681.661 557.356 681.811 557.098 682.142 557.011 682.399 557.161Z" transform="matrix(1 0 0 1.00617 -256.238 -165.04)"/><path d="M726.817 548.789 726.817 526.045 727.897 526.045 727.897 548.789ZM723.114 532.249 727.357 524.974 731.602 532.249C731.751 532.506 731.665 532.837 731.407 532.987 731.15 533.137 730.819 533.05 730.669 532.793L726.891 526.317 727.823 526.317 724.045 532.793C723.896 533.05 723.565 533.137 723.308 532.987 723.05 532.837 722.963 532.506 723.114 532.249Z" transform="matrix(1 0 0 1.00617 -256.238 -165.04)"/><path d="M689.667 513.036 642.611 512.574 642.622 511.494 689.677 511.957ZM648.778 516.339 641.545 512.024 648.862 507.852C649.121 507.704 649.45 507.794 649.598 508.053 649.746 508.312 649.656 508.642 649.397 508.789L642.883 512.503 642.893 511.57 649.331 515.412C649.588 515.565 649.671 515.896 649.518 516.152 649.366 516.408 649.034 516.492 648.778 516.339Z" transform="matrix(1 0 0 1.00617 -256.238 -165.04)"/><path d="M727.895 573.908 728.047 575.729 728.029 575.63 728.535 577.451 728.494 577.346 730.315 580.837 730.248 580.738 733.031 584.026 732.955 583.952 736.648 586.887 736.582 586.842 740.883 589.321 740.811 589.287 745.669 591.21 745.594 591.186 750.755 592.401 750.677 592.388 755.99 592.843 755.908 592.843 761.271 592.488 761.203 592.497 766.363 591.485 766.3 591.502 771.106 589.933 771.042 589.959 775.393 587.885 775.326 587.923 778.968 585.495 778.897 585.551 781.73 582.87 781.641 582.979 783.412 580.096 783.362 580.202 783.868 578.735 783.841 578.857 783.993 577.339 783.996 577.475 783.541 574.489 783.577 574.617 782.363 571.733 782.422 571.838 780.499 569.157 780.56 569.228 778.081 566.799 778.147 566.854 775.212 564.78 775.292 564.827 772.003 563.258 772.085 563.289 768.594 562.277 768.692 562.296 766.112 562.045 766.217 560.971 768.846 561.227 772.427 562.264 775.797 563.872 778.805 565.998 781.349 568.49 783.334 571.258 784.598 574.26 785.074 577.379 784.909 579.027 784.363 580.61 782.524 583.605 779.605 586.367 775.892 588.843 771.475 590.948 766.604 592.538 761.377 593.563 755.938 593.923 750.546 593.46 745.308 592.227 740.378 590.276 736.009 587.757 732.242 584.764 729.386 581.389 727.51 577.794 726.975 575.869 726.82 573.997ZM771.93 566.332 765.099 561.405 772.75 557.884C773.022 557.76 773.342 557.878 773.467 558.149 773.591 558.42 773.472 558.741 773.202 558.865L766.39 561.998 766.481 561.07 772.561 565.457C772.802 565.631 772.857 565.969 772.682 566.211 772.508 566.452 772.171 566.507 771.93 566.332Z" transform="matrix(1 0 0 1.00617 -256.238 -165.04)"/><text font-family="Calibri,Calibri_MSFontService,sans-serif" font-weight="400" font-size="13" transform="matrix(0.809524 0 0 0.814516 332.24 376)">E<tspan font-size="13" x="6.00001" y="0">1</tspan><tspan font-size="13" x="84.5067" y="17.1881">E</tspan><tspan font-size="13" x="90.5067" y="17.1881">2</tspan><tspan font-size="13" x="218.094" y="55.2475">E</tspan><tspan font-size="13" x="224.094" y="55.2475">2</tspan><tspan font-size="13" x="178.239" y="3.68317">E</tspan>3<tspan font-size="13" x="86.0872" y="-38.0594">E</tspan><tspan font-size="13" x="92.0872" y="-38.0594">4</tspan></text></g></g></g></g><path d="M364.5 396.466 369.466 396.466 371 391.5 372.534 396.466 377.5 396.466 373.483 399.534 375.017 404.5 371 401.431 366.983 404.5 368.517 399.534Z" stroke="#BC8C00" stroke-width="1.33333" stroke-miterlimit="8" fill="#FFC000" fill-rule="evenodd"/><path d="M151.404 167.5 159.124 178.478 155.94 179.772 165.663 189.179 162.479 190.75 174.5 206.5 154.114 194.43 158.002 192.754 145.335 185.023 149.874 182.634 136.5 174.524Z" stroke="#BC8C00" stroke-width="1.33333" stroke-miterlimit="8" fill="#FFC000" fill-rule="evenodd"/><text font-family="Calibri,Calibri_MSFontService,sans-serif" font-weight="400" font-size="13" transform="translate(181.716 185)">E3</text><path d="M251.5 202.5 251.5 195.5 226.5 195.5 226.5 181.5 251.5 181.5 251.5 174.5 265.5 188.5Z" stroke="#5B9BD5" stroke-width="1.33333" stroke-miterlimit="8" stroke-opacity="0.501961" fill="#5B9BD5" fill-rule="evenodd" fill-opacity="0.501961"/><rect x="104" y="345" width="87" height="61" fill="#F2F2F2"/><path d="M132.797 355.5 140.719 366.196 137.451 367.458 147.431 376.623 144.163 378.154 156.5 393.5 135.577 381.739 139.568 380.107 126.568 372.574 131.226 370.246 117.5 362.344Z" stroke="#BC8C00" stroke-width="1.33333" stroke-miterlimit="8" fill="#FFC000" fill-rule="evenodd"/><text font-family="Calibri,Calibri_MSFontService,sans-serif" font-weight="400" font-size="13" transform="translate(163.32 372)">E2</text><path d="M233.5 389.5 233.5 382.5 208.5 382.5 208.5 368.5 233.5 368.5 233.5 361.5 247.5 375.5Z" stroke="#5B9BD5" stroke-width="1.33333" stroke-miterlimit="8" stroke-opacity="0.501961" fill="#5B9BD5" fill-rule="evenodd" fill-opacity="0.501961"/><text font-family="Yu Gothic,Yu Gothic_MSFontService,sans-serif" font-weight="400" font-size="13" transform="translate(85.5891 264)">異なる状態機械に対する事象は、<tspan font-size="13" x="0" y="16">どちらが先に受け取ってもよいし、</tspan><tspan font-size="13" x="0" y="32">同時でもよい</tspan></text><path d="M0 0C7.11601 0 14.232 6.26327 14.232 12.5266 14.232 18.7898 21.348 25.0531 28.464 25.0531" stroke="#ED7D31" stroke-width="0.666667" stroke-miterlimit="8" fill="none" fill-rule="evenodd" transform="matrix(1.83697e-16 1 1 -1.83697e-16 166.5 218.5)"/><path d="M190.949 305.5C190.949 315.385 180.087 325.27 169.225 325.27 158.362 325.27 147.5 335.155 147.5 345.039" stroke="#ED7D31" stroke-width="0.666667" stroke-miterlimit="8" fill="none" fill-rule="evenodd"/></g></svg>