<svg width="607" height="779" xmlns="http://www.w3.org/2000/svg" xmlns:xlink="http://www.w3.org/1999/xlink" overflow="hidden"><defs><clipPath id="clip0"><rect x="64" y="67" width="607" height="779"/></clipPath></defs><g clip-path="url(#clip0)" transform="translate(-64 -67)"><rect x="65.5001" y="68.5001" width="605" height="777" stroke="#D9D9D9" stroke-width="1.33333" stroke-miterlimit="8" fill="none"/><rect x="87.5001" y="152.5" width="224" height="176" stroke="#000000" stroke-width="1.33333" stroke-miterlimit="8" fill="#FFFFFF"/><text font-family="Calibri,Calibri_MSFontService,sans-serif" font-weight="400" font-size="16" transform="translate(135.727 172)">&lt;&lt;external entity&gt;&gt;</text><text font-family="Yu Gothic,Yu Gothic_MSFontService,sans-serif" font-weight="400" font-size="16" transform="translate(182.973 191)">時間</text><text font-family="Yu Gothic,Yu Gothic_MSFontService,sans-serif" font-weight="400" font-size="16" transform="translate(96.64 210)">現在</text><text font-family="Yu Gothic,Yu Gothic_MSFontService,sans-serif" font-weight="400" font-size="16" transform="translate(128.64 210)">時刻</text><text font-family="Calibri,Calibri_MSFontService,sans-serif" font-weight="400" font-size="16" transform="translate(160.64 210)">():</text><text font-family="Yu Gothic,Yu Gothic_MSFontService,sans-serif" font-weight="400" font-size="16" transform="translate(174.64 210)">時刻</text><text font-family="Yu Gothic,Yu Gothic_MSFontService,sans-serif" font-weight="400" font-size="16" transform="translate(96.64 229)">遅延</text><text font-family="Yu Gothic,Yu Gothic_MSFontService,sans-serif" font-weight="400" font-size="16" transform="translate(128.64 229)">時間</text><text font-family="Calibri,Calibri_MSFontService,sans-serif" font-weight="400" font-size="16" transform="translate(160.64 229)">(</text><text font-family="Yu Gothic,Yu Gothic_MSFontService,sans-serif" font-weight="400" font-size="16" transform="translate(165.473 229)">時間間隔</text><text font-family="Calibri,Calibri_MSFontService,sans-serif" font-weight="400" font-size="16" transform="translate(229.473 229)">):</text><text font-family="Yu Gothic,Yu Gothic_MSFontService,sans-serif" font-weight="400" font-size="16" transform="translate(238.64 229)">時刻</text><text font-family="Calibri,Calibri_MSFontService,sans-serif" font-weight="400" font-size="16" transform="translate(96.64 249)">…</text><path d="M421.5 551.5C421.5 528.304 460.227 509.5 508 509.5 555.773 509.5 594.5 528.304 594.5 551.5 594.5 574.696 555.773 593.5 508 593.5 460.227 593.5 421.5 574.696 421.5 551.5Z" stroke="#000000" stroke-width="1.33333" stroke-miterlimit="8" fill="#FFFFFF" fill-rule="evenodd"/><text font-family="Yu Gothic,Yu Gothic_MSFontService,sans-serif" font-weight="400" font-size="13" transform="translate(466.135 555)">時間</text><text font-family="Calibri,Calibri_MSFontService,sans-serif" font-weight="400" font-size="13" transform="translate(492.802 555)">:</text><text font-family="Yu Gothic,Yu Gothic_MSFontService,sans-serif" font-weight="400" font-size="13" transform="translate(496.302 555)">遅延時間</text><text font-family="Calibri,Calibri_MSFontService,sans-serif" font-weight="400" font-size="19" transform="translate(96.64 116)">External Entity</text><text font-family="Yu Gothic,Yu Gothic_MSFontService,sans-serif" font-weight="400" font-size="19" transform="translate(211.82 116)">の定義例</text><text font-family="Calibri,Calibri_MSFontService,sans-serif" font-weight="400" font-size="19" transform="translate(431.04 177)">External Entity</text><text font-family="Yu Gothic,Yu Gothic_MSFontService,sans-serif" font-weight="400" font-size="19" transform="translate(546.22 177)">の名前</text><text font-family="Calibri,Calibri_MSFontService,sans-serif" font-weight="400" font-size="19" transform="translate(431.04 229)">Bridge</text><text font-family="Yu Gothic,Yu Gothic_MSFontService,sans-serif" font-weight="400" font-size="19" transform="translate(484.053 229)">のリスト</text><text font-family="Yu Gothic,Yu Gothic_MSFontService,sans-serif" font-weight="400" font-size="19" transform="translate(431.04 252)">シグネチャを明示</text><path d="M0.0268396-0.332251 200.027 15.824 199.973 16.4885-0.0268396 0.332251ZM200.322 12.1692C202.524 12.3471 204.165 14.2763 203.987 16.4783 203.809 18.6803 201.88 20.3211 199.678 20.1432 197.476 19.9654 195.835 18.0361 196.013 15.8341 196.191 13.6322 198.12 11.9913 200.322 12.1692Z" fill="#4472C4" transform="matrix(-1 0 0 1 421.5 172.5)"/><path d="M0.0217972-0.33262 126.18 7.93478 126.137 8.60002-0.0217972 0.33262ZM126.42 4.27596C128.625 4.42042 130.295 6.32456 130.15 8.52897 130.006 10.7334 128.101 12.4033 125.897 12.2588 123.693 12.1144 122.023 10.2102 122.167 8.00584 122.312 5.80142 124.216 4.1315 126.42 4.27596Z" fill="#4472C4" transform="matrix(-1 0 0 1 421.659 235.5)"/><path d="M287.5 195.5C291.918 195.5 295.5 196.097 295.5 196.833L295.5 242.167C295.5 242.903 299.082 243.5 303.5 243.5 299.082 243.5 295.5 244.097 295.5 244.833L295.5 290.167C295.5 290.903 291.918 291.5 287.5 291.5" stroke="#4472C4" stroke-width="0.666667" stroke-miterlimit="8" fill="none" fill-rule="evenodd"/><path d="M118.5 611.5C118.5 588.304 157.004 569.5 204.5 569.5 251.997 569.5 290.5 588.304 290.5 611.5 290.5 634.696 251.997 653.5 204.5 653.5 157.004 653.5 118.5 634.696 118.5 611.5Z" stroke="#000000" stroke-width="1.33333" stroke-miterlimit="8" fill="#FFFFFF" fill-rule="evenodd"/><text font-family="Yu Gothic,Yu Gothic_MSFontService,sans-serif" font-weight="400" font-size="13" transform="translate(177.27 615)">遅延時間</text><rect x="113.5" y="471.5" width="172" height="53" stroke="#000000" stroke-width="1.33333" stroke-miterlimit="8" fill="#FFFFFF"/><text font-family="Calibri,Calibri_MSFontService,sans-serif" font-weight="400" font-size="13" transform="translate(146.04 494)">&lt;&lt;external entity&gt;&gt;</text><text font-family="Yu Gothic,Yu Gothic_MSFontService,sans-serif" font-weight="400" font-size="13" transform="translate(185.707 510)">時間</text><path d="M131.5 742.5C131.5 719.304 170.004 700.5 217.5 700.5 264.997 700.5 303.5 719.304 303.5 742.5 303.5 765.696 264.997 784.5 217.5 784.5 170.004 784.5 131.5 765.696 131.5 742.5Z" stroke="#000000" stroke-width="1.33333" stroke-miterlimit="8" fill="#FFFFFF" fill-rule="evenodd"/><text font-family="Calibri,Calibri_MSFontService,sans-serif" font-weight="400" font-size="13" transform="translate(213.208 746)">A</text><path d="M199.831 524.464 204.656 568.568 203.994 568.641 199.169 524.536ZM208.398 560.28 204.397 569.262 198.548 561.358C198.439 561.21 198.47 561.001 198.618 560.891 198.766 560.782 198.974 560.813 199.084 560.961L204.593 568.406 204.02 568.469 207.789 560.009C207.864 559.841 208.061 559.765 208.23 559.84 208.398 559.915 208.473 560.112 208.398 560.28Z"/><path d="M0.14304-0.301083 55.3495 25.9267 55.0635 26.5288-0.14304 0.301083ZM50.2583 18.3916 55.804 26.5116 46.0061 27.3421C45.8227 27.3576 45.6613 27.2215 45.6458 27.0381 45.6303 26.8547 45.7664 26.6934 45.9498 26.6778L55.1783 25.8956 54.9312 26.4157 49.7078 18.7676C49.604 18.6156 49.643 18.4082 49.7951 18.3044 49.9471 18.2006 50.1545 18.2396 50.2583 18.3916Z" transform="matrix(1 0 0 -1 87.5001 668.011)"/><path d="M204.821 653.41 217.747 699.302 217.105 699.483 204.179 653.59ZM220.071 690.511 217.605 700.03 210.533 693.197C210.401 693.069 210.397 692.858 210.525 692.726 210.653 692.594 210.864 692.59 210.997 692.718L217.657 699.153 217.103 699.309 219.426 690.344C219.472 690.165 219.654 690.058 219.832 690.105 220.011 690.151 220.118 690.333 220.071 690.511Z"/><text font-family="Yu Gothic,Yu Gothic_MSFontService,sans-serif" font-weight="400" font-size="13" transform="translate(220.089 680)">時刻</text><text font-family="Yu Gothic,Yu Gothic_MSFontService,sans-serif" font-weight="400" font-size="13" transform="translate(100.398 681)">時間間隔</text><path d="M437.5 684C437.5 660.528 476.227 641.5 524 641.5 571.773 641.5 610.5 660.528 610.5 684 610.5 707.472 571.773 726.5 524 726.5 476.227 726.5 437.5 707.472 437.5 684Z" stroke="#000000" stroke-width="1.33333" stroke-miterlimit="8" fill="#FFFFFF" fill-rule="evenodd"/><text font-family="Calibri,Calibri_MSFontService,sans-serif" font-weight="400" font-size="13" transform="translate(519.879 687)">A</text><path d="M0.14304-0.301083 55.3495 25.9267 55.0635 26.5288-0.14304 0.301083ZM50.2583 18.3916 55.804 26.5116 46.0061 27.3421C45.8227 27.3576 45.6613 27.2215 45.6458 27.0381 45.6303 26.8547 45.7664 26.6934 45.9498 26.6778L55.1783 25.8956 54.9312 26.4157 49.7078 18.7676C49.604 18.6156 49.643 18.4082 49.7951 18.3044 49.9471 18.2006 50.1545 18.2396 50.2583 18.3916Z" transform="matrix(1 0 0 -1 394.5 609.011)"/><path d="M511.821 595.41 524.747 641.302 524.105 641.483 511.179 595.59ZM527.071 632.511 524.605 642.03 517.533 635.197C517.401 635.069 517.397 634.858 517.525 634.726 517.653 634.594 517.864 634.59 517.997 634.718L524.657 641.153 524.103 641.309 526.426 632.344C526.472 632.165 526.654 632.058 526.832 632.105 527.011 632.151 527.118 632.333 527.071 632.511Z"/><text font-family="Yu Gothic,Yu Gothic_MSFontService,sans-serif" font-weight="400" font-size="13" transform="translate(526.76 621)">時刻</text><text font-family="Yu Gothic,Yu Gothic_MSFontService,sans-serif" font-weight="400" font-size="13" transform="translate(407.07 622)">時間間隔</text><text font-family="Yu Gothic,Yu Gothic_MSFontService,sans-serif" font-weight="400" font-size="19" transform="translate(85.8525 431)">詳細</text><text font-family="Yu Gothic,Yu Gothic_MSFontService,sans-serif" font-weight="400" font-size="19" transform="translate(123.186 431)">なデータフローモデル</text><text font-family="Yu Gothic,Yu Gothic_MSFontService,sans-serif" font-weight="400" font-size="19" transform="translate(85.8525 454)">の記述例</text><text font-family="Yu Gothic,Yu Gothic_MSFontService,sans-serif" font-weight="400" font-size="19" transform="translate(383.017 438)">簡略版のデータフローモデル</text><text font-family="Yu Gothic,Yu Gothic_MSFontService,sans-serif" font-weight="400" font-size="19" transform="translate(383.017 461)">の記述例</text><path d="M87.5001 365.5 627.66 365.5" stroke="#D9D9D9" stroke-width="0.666667" stroke-miterlimit="8" fill="none" fill-rule="evenodd"/><path d="M345.5 387.5 345.5 807.98" stroke="#D9D9D9" stroke-width="0.666667" stroke-miterlimit="8" fill="none" fill-rule="evenodd"/></g></svg>