<svg width="607" height="462" xmlns="http://www.w3.org/2000/svg" xmlns:xlink="http://www.w3.org/1999/xlink" overflow="hidden"><defs><clipPath id="clip0"><rect x="60" y="75" width="607" height="462"/></clipPath><clipPath id="clip1"><rect x="103" y="152" width="120" height="84"/></clipPath><clipPath id="clip2"><rect x="103" y="152" width="120" height="84"/></clipPath><clipPath id="clip3"><rect x="103" y="152" width="120" height="84"/></clipPath><clipPath id="clip4"><rect x="103" y="152" width="120" height="84"/></clipPath><clipPath id="clip5"><rect x="487" y="356" width="107" height="52"/></clipPath><clipPath id="clip6"><rect x="487" y="356" width="107" height="52"/></clipPath><clipPath id="clip7"><rect x="487" y="356" width="107" height="52"/></clipPath><clipPath id="clip8"><rect x="487" y="356" width="107" height="52"/></clipPath></defs><g clip-path="url(#clip0)" transform="translate(-60 -75)"><rect x="79" y="100" width="166" height="165" fill="#F2F2F2"/><text font-family="Yu Gothic,Yu Gothic_MSFontService,sans-serif" font-weight="400" font-size="13" transform="translate(94.8741 117)">ドメインに対する振舞</text><rect x="269" y="99" width="381" height="165" fill="#F2F2F2"/><text font-family="Yu Gothic,Yu Gothic_MSFontService,sans-serif" font-weight="400" font-size="13" transform="translate(412.833 116)">概念情報モデル</text><rect x="61.5001" y="76.5001" width="605" height="460" stroke="#D9D9D9" stroke-width="1.33333" stroke-miterlimit="8" fill="none"/><rect x="442.5" y="137.5" width="75" height="39" stroke="#000000" stroke-width="1.33333" stroke-miterlimit="8" fill="none"/><rect x="549.5" y="137.5" width="74" height="39" stroke="#000000" stroke-width="1.33333" stroke-miterlimit="8" fill="none"/><rect x="397.5" y="205.5" width="75" height="39" stroke="#000000" stroke-width="1.33333" stroke-miterlimit="8" fill="none"/><path d="M472.5 189.5 480 176.5 487.5 189.5Z" stroke="#000000" stroke-width="1.33333" stroke-miterlimit="8" fill="none" fill-rule="evenodd"/><path d="M479.469 189.5 479.469 197.576 434.5 197.576 434.5 205.651" stroke="#000000" stroke-width="0.666667" stroke-miterlimit="8" fill="none" fill-rule="evenodd"/><rect x="487.5" y="205.5" width="74" height="39" stroke="#000000" stroke-width="1.33333" stroke-miterlimit="8" fill="none"/><path d="M0 0 8.07564 0 8.07564 44.9692 16.1512 44.9692" stroke="#000000" stroke-width="0.666667" stroke-miterlimit="8" fill="none" fill-rule="evenodd" transform="matrix(1.83697e-16 1 1 -1.83697e-16 479.5 189.5)"/><path d="M585.755 176.5 585.755 225.031 561.5 225.031" stroke="#000000" stroke-width="0.666667" stroke-miterlimit="8" fill="none" fill-rule="evenodd"/><rect x="298.5" y="137.5" width="75" height="39" stroke="#000000" stroke-width="1.33333" stroke-miterlimit="8" fill="none"/><path d="M373.5 156.5 442.888 156.5" stroke="#000000" stroke-width="0.666667" stroke-miterlimit="8" fill="none" fill-rule="evenodd"/><rect x="298.5" y="205.5" width="75" height="39" stroke="#000000" stroke-width="1.33333" stroke-miterlimit="8" fill="none"/><path d="M335.5 205.626 335.5 188.4 407.418 188.4 407.418 155.5" stroke="#000000" stroke-width="0.666667" stroke-miterlimit="8" stroke-dasharray="0.666667 0.666667" fill="none" fill-rule="evenodd"/><text font-family="Calibri,Calibri_MSFontService,sans-serif" font-weight="400" font-size="11" transform="translate(376.186 155)">0..1<tspan font-family="Yu Gothic,Yu Gothic_MSFontService,sans-serif" font-size="11" x="56.1066" y="0">＊</tspan><tspan font-size="11" x="188.661" y="82">1..</tspan><tspan font-family="Yu Gothic,Yu Gothic_MSFontService,sans-serif" font-size="11" x="199.328" y="82">＊</tspan><tspan font-size="11" x="214.429" y="36">1</tspan></text><g clip-path="url(#clip1)"><g clip-path="url(#clip2)"><g clip-path="url(#clip3)"><g clip-path="url(#clip4)"><path d="M27.8223 34.6447C27.8223 28.9928 34.5995 24.4112 42.9594 24.4112 51.3193 24.4112 58.0964 28.9928 58.0964 34.6447 58.0964 40.2965 51.3193 44.8782 42.9594 44.8782 34.5995 44.8782 27.8223 40.2965 27.8223 34.6447Z" stroke="#000000" stroke-width="0.284263" stroke-miterlimit="8" fill="#FFFFFF" fill-rule="evenodd" transform="matrix(1.0087 0 0 1 87.086 133.025)"/><text font-family="Yu Gothic,Yu Gothic_MSFontService,sans-serif" font-weight="400" font-size="13" transform="matrix(0.215054 0 0 0.213198 127.389 165)">顧客<tspan font-size="13" x="-26.6667" y="14.0714">インスタンス</tspan><tspan font-size="13" x="-6.66667" y="32.8333">を</tspan><tspan font-size="13" x="6.3333" y="32.8333">検索</tspan></text><path d="M55.1117 85.1726C55.1117 79.5207 61.8888 74.9391 70.2487 74.9391 78.6087 74.9391 85.3858 79.5207 85.3858 85.1726 85.3858 90.8245 78.6087 95.4061 70.2487 95.4061 61.8888 95.4061 55.1117 90.8245 55.1117 85.1726Z" stroke="#000000" stroke-width="0.284263" stroke-miterlimit="8" fill="#FFFFFF" fill-rule="evenodd" transform="matrix(1.0087 0 0 1 87.086 133.025)"/><text font-family="Yu Gothic,Yu Gothic_MSFontService,sans-serif" font-weight="400" font-size="13" transform="matrix(0.215054 0 0 0.213198 155.041 216)">商品<tspan font-size="13" x="-26.6667" y="14.0714">インスタンス</tspan><tspan font-size="13" x="-6.66671" y="28.1429">を</tspan><tspan font-size="13" x="6.3333" y="28.1429">検索</tspan></text><path d="M69.8223 44.8782C69.8223 39.2263 76.5995 34.6447 84.9594 34.6447 93.3193 34.6447 100.096 39.2263 100.096 44.8782 100.096 50.5301 93.3193 55.1117 84.9594 55.1117 76.5995 55.1117 69.8223 50.5301 69.8223 44.8782Z" stroke="#000000" stroke-width="0.284263" stroke-miterlimit="8" fill="#FFFFFF" fill-rule="evenodd" transform="matrix(1.0087 0 0 1 87.086 133.025)"/><text font-family="Yu Gothic,Yu Gothic_MSFontService,sans-serif" font-weight="400" font-size="13" transform="matrix(0.215054 0 0 0.213198 164.039 175)">注文<tspan font-size="13" x="26" y="0">インスタ</tspan><tspan font-size="13" x="0" y="18.7619">ンス</tspan><tspan font-size="13" x="26" y="18.7619">作成</tspan><tspan font-size="13" x="52" y="18.7619">と</tspan><tspan font-size="13" x="65" y="18.7619">個</tspan><tspan font-size="13" x="0" y="32.8333">数</tspan><tspan font-size="13" x="13" y="32.8333">、</tspan><tspan font-size="13" x="26" y="32.8333">金額設定</tspan></text><path d="M35.2843 59.1624C35.2843 53.5106 42.0614 48.9289 50.4213 48.9289 58.7812 48.9289 65.5584 53.5106 65.5584 59.1624 65.5584 64.8143 58.7812 69.3959 50.4213 69.3959 42.0614 69.3959 35.2843 64.8143 35.2843 59.1624Z" stroke="#000000" stroke-width="0.284263" stroke-miterlimit="8" fill="#FFFFFF" fill-rule="evenodd" transform="matrix(1.0087 0 0 1 87.086 133.025)"/><text font-family="Yu Gothic,Yu Gothic_MSFontService,sans-serif" font-weight="400" font-size="13" transform="matrix(0.215054 0 0 0.213198 130.377 190)">商品<tspan font-family="Calibri,Calibri_MSFontService,sans-serif" font-size="13" x="26.6667" y="0">.</tspan><tspan font-size="13" x="30" y="0">単価</tspan><tspan font-size="13" x="56" y="0">と</tspan><tspan font-size="13" x="8.33333" y="14.0714">個数</tspan><tspan font-size="13" x="34.3333" y="14.0714">から</tspan><tspan font-size="13" x="8.33333" y="28.1429">金額計算</tspan></text><path d="M104.147 65.5584C104.147 59.9065 110.924 55.3249 119.284 55.3249 127.644 55.3249 134.421 59.9065 134.421 65.5584 134.421 71.2103 127.644 75.7919 119.284 75.7919 110.924 75.7919 104.147 71.2103 104.147 65.5584Z" stroke="#000000" stroke-width="0.284263" stroke-miterlimit="8" fill="#FFFFFF" fill-rule="evenodd" transform="matrix(1.0087 0 0 1 87.086 133.025)"/><text font-family="Calibri,Calibri_MSFontService,sans-serif" font-weight="400" font-size="13" transform="matrix(0.215054 0 0 0.213198 198.704 198)">R<tspan font-size="13" x="6.99998" y="0">1</tspan><tspan font-family="Yu Gothic,Yu Gothic_MSFontService,sans-serif" font-size="13" x="14" y="0">でリンク</tspan><tspan font-family="Yu Gothic,Yu Gothic_MSFontService,sans-serif" font-size="13" x="66" y="0">作</tspan><tspan font-family="Yu Gothic,Yu Gothic_MSFontService,sans-serif" font-size="13" x="33.6667" y="14.0714">成</tspan></text><path d="M20.6472 20.2388 32.017 27.1139 31.8699 27.3571 20.5001 20.482ZM31.1237 25.4337 32.1848 27.3814 29.9669 27.3465C29.8884 27.3452 29.8258 27.2806 29.827 27.2021 29.8283 27.1237 29.8929 27.061 29.9714 27.0623L31.9458 27.0934 31.8187 27.3034 30.8741 25.5697C30.8365 25.5006 30.8619 25.4143 30.9308 25.3767 30.9998 25.3392 31.086 25.3646 31.1237 25.4337Z" transform="matrix(1.0087 0 0 1 87.086 133.025)"/><path d="M0.0725378-0.122228 11.7156 6.78748 11.5705 7.03193-0.0725378 0.122228ZM10.8083 5.1146 11.8856 7.05363 9.66744 7.03696C9.58894 7.03636 9.52579 6.97226 9.52639 6.89376 9.52699 6.81526 9.59109 6.75211 9.66957 6.75271L11.6441 6.76754 11.5188 6.97872 10.5598 5.25267C10.5217 5.18404 10.5464 5.0975 10.615 5.05938 10.6836 5.02126 10.7702 5.04599 10.8083 5.1146Z" transform="matrix(1.0087 0 0 -1 135.151 232.287)"/><path d="M20.3604 59.0202 35.0762 59.0202 35.0762 59.3046 20.3604 59.3046ZM33.4422 58.0449 35.3585 59.1624 33.4422 60.2802C33.3744 60.3197 33.2875 60.2969 33.248 60.2291 33.2084 60.1613 33.2312 60.0741 33.299 60.0346L35.0048 59.0396 35.0048 59.2852 33.2992 58.2902C33.2312 58.2508 33.2084 58.1638 33.248 58.096 33.2875 58.0282 33.3744 58.0052 33.4422 58.0449Z" transform="matrix(1.0087 0 0 1 87.086 133.025)"/><path d="M0.0190974-0.140843 0.821106-0.0320963 1.5964 0.258639 2.32625 0.726841 2.97044 1.32992 3.51734 2.04089 3.94212 2.82191 4.21712 3.67447 4.31197 4.54165 4.40525 5.39444 4.39923 5.36626 4.66573 6.1924 4.65533 6.16814 5.0684 6.92765 5.05618 6.90889 5.58918 7.60179 5.57366 7.58469 6.19993 8.17098 6.17954 8.15512 6.88576 8.60817 6.85815 8.59442 7.61767 8.87424 7.58795 8.86682 8.08202 8.93496 8.04317 9.21657 7.53384 9.1463 6.74533 8.8558 6.01513 8.38738 5.37093 7.78428 4.82403 7.07333 4.39925 6.2923 4.12425 5.43975 4.0294 4.57256 3.93612 3.71977 3.94214 3.74796 3.67564 2.92181 3.68604 2.94608 3.27297 2.18656 3.28519 2.20532 2.75219 1.51242 2.76771 1.52952 2.14145 0.943226 2.16183 0.959099 1.45562 0.506053 1.48246 0.519504 0.736262 0.239681 0.767069 0.247442-0.0190974 0.140843ZM6.59666 7.74529 8.34203 9.1143 6.29124 9.95971C6.21867 9.98962 6.13556 9.95504 6.10565 9.88247 6.07574 9.8099 6.11032 9.72682 6.18289 9.69691L8.00842 8.94436 7.97486 9.1876 6.42122 7.96896C6.35946 7.92052 6.34867 7.83117 6.39711 7.7694 6.44555 7.70764 6.5349 7.69685 6.59666 7.74529Z" transform="matrix(-1.85296e-16 -1 -1.0087 1.83697e-16 147.137 210.761)"/><path d="M58.1225 34.505 73.982 37.4508 73.93 37.7303 58.0704 34.7845ZM72.5536 36.1933 74.2332 37.6422 72.1453 38.3912C72.0714 38.4176 71.9901 38.3793 71.9635 38.3053 71.937 38.2315 71.9754 38.1501 72.0494 38.1236L73.9079 37.4568 73.8631 37.6983 72.3679 36.4085C72.3084 36.3573 72.3018 36.2675 72.3532 36.208 72.4044 36.1486 72.4941 36.142 72.5536 36.1933Z" transform="matrix(1.0087 0 0 1 87.086 133.025)"/><path d="M0.0911168-0.109084 8.4307 6.85692 8.24846 7.07508-0.0911168 0.109084ZM7.80209 5.0607 8.55608 7.14684 6.36903 6.77633C6.29164 6.76322 6.23954 6.68985 6.25265 6.61244 6.26576 6.53505 6.33912 6.48295 6.41651 6.49606L8.36333 6.82587 8.20593 7.01432 7.53474 5.15732C7.50807 5.08351 7.54627 5.00203 7.6201 4.97536 7.69393 4.94867 7.77539 4.98689 7.80209 5.0607Z" transform="matrix(1.0087 0 0 -1 153.215 192.299)"/><path d="M0.0201005 0.140703-0.352996 0.194003-0.326762 0.187667-0.713183 0.320916-0.682658 0.306108-1.05575 0.545955-1.0424 0.536225-1.41549 0.842697-1.40023 0.828138-1.77333 1.24121-1.76662 1.2332-2.13972 1.71289-2.13003 1.69876-2.84956 2.898-2.84297 2.88568-3.54919 4.37806-3.54489 4.36794-4.21113 6.11349-4.20853 6.10614-4.84812 8.10487-4.84612 8.09796-5.43241 10.3099-5.43122 10.3051-5.97754 12.7035-5.97654 12.6987-6.46956 15.2704-6.46873 15.2657-6.89512 17.984-6.89461 17.9805-7.26771 20.8187-7.26719 20.8143-7.56034 23.7458-7.56 23.7417-7.7732 26.7531-7.77301 26.7497-7.91958 29.8012-7.91943 29.7963-7.95941 32.8743-7.95947 32.8677-7.90617 34.4133-7.90685 34.4033-7.74695 35.9358-7.74811 35.9273-7.49493 37.4597-7.49657 37.4512-7.15013 38.9702-7.15228 38.9621-6.71256 40.4677-6.71499 40.4603-6.18199 41.9659-6.18485 41.9584-5.57191 43.4242-5.57455 43.4184-4.88166 44.8841-4.88707 44.8737-3.24811 47.712-3.25526 47.7007-1.33648 50.4058-1.3441 50.396 0.841177 52.9675 0.833092 52.9588 3.25822 55.3707 3.24931 55.3626 5.88763 57.5745 5.87832 57.5673 8.68986 59.5526 8.68004 59.5464 11.6648 61.3053 11.6542 61.2995 14.7589 62.7919 14.7471 62.7868 17.9583 63.986 17.9486 63.9828 19.5875 64.4625 19.5808 64.4608 21.2464 64.8606 21.24 64.8591 22.9056 65.1789 22.899 65.1778 24.5779 65.4177 24.5689 65.4166 26.2479 65.5499 26.241 65.5496 27.6522 65.594 27.6432 65.8782 26.2289 65.8336 24.5421 65.6997 22.8552 65.4588 21.1832 65.1377 19.511 64.7363 17.8638 64.2542 14.6416 63.051 11.5257 61.5532 8.53067 59.7882 5.70953 57.7961 3.06206 55.5764 0.628418 53.1562-1.56474 50.5752-3.49097 47.8597-5.13615 45.0108-5.83293 43.5369-6.44864 42.0646-6.9843 40.5513-7.42633 39.0376-7.77469 37.5103-8.02925 35.9695-8.19011 34.4281-8.24368 32.8741-8.20364 29.7902-8.05686 26.7346-7.8434 23.7196-7.54983 20.7838-7.17622 17.9417-6.74919 15.2193-6.25525 12.6428-5.70782 10.2395-5.11997 8.02166-4.4781 6.01579-3.80848 4.26144-3.09694 2.75776-2.36935 1.54515-1.98779 1.05455-1.6041 0.629751-1.21644 0.311314-0.822004 0.0577504-0.406615-0.0854871-0.0201005-0.140703ZM26.0496 64.5674 27.9296 65.7449 25.9792 66.8018C25.9104 66.8393 25.824 66.8135 25.7867 66.7446 25.7492 66.6755 25.7748 66.5892 25.8439 66.5519L27.5799 65.611 27.5723 65.8564 25.8989 64.8083C25.8323 64.7668 25.8121 64.6789 25.8539 64.6124 25.8955 64.5459 25.9831 64.5259 26.0496 64.5674Z" transform="matrix(1.85296e-16 1 1.0087 -1.83697e-16 141.172 160.421)"/><path d="M0.00238844-0.142112 3.17612-0.0887718 6.32537 0.0713597 9.43425 0.324873 12.4635 0.65849 15.3861 1.08554 18.2021 1.57933 20.859 2.14008 23.3296 2.76776 25.6279 3.44922 27.6874 4.18476 29.4951 4.94798 31.051 5.75285 31.7128 6.17153 32.2937 6.59025 32.8097 7.02472 33.2329 7.46174 33.5789 7.90463 33.8164 8.36538 33.9712 8.81571 33.9923 8.99096 33.7102 9.02516 33.6908 8.86481 33.6974 8.89392 33.551 8.46752 33.5589 8.48641 33.3324 8.04669 33.3467 8.0691 33.0137 7.6427 33.0235 7.65411 32.6105 7.22771 32.621 7.23752 32.1147 6.81112 32.1232 6.81771 31.5501 6.40464 31.5574 6.40946 30.9043 5.99639 30.915 6.0025 29.3693 5.20301 29.3793 5.20772 27.5806 4.44821 27.588 4.4511 25.536 3.71824 25.5432 3.72067 23.2514 3.0411 23.2569 3.04257 20.7918 2.4163 20.7974 2.41762 18.1458 1.85798 18.1506 1.85891 15.339 1.36588 15.343 1.36653 12.4249 0.940131 12.4299 0.94077 9.40512 0.607648 9.40913 0.608032 6.30443 0.35486 6.30876 0.355147 3.16409 0.195248 3.16893 0.195412-0.00238844 0.142112ZM34.7643 7.25148 33.8853 9.2881 32.5451 7.52045C32.4978 7.4579 32.5099 7.36874 32.5726 7.32133 32.6351 7.27391 32.7242 7.28617 32.7717 7.34872L33.9646 8.92219 33.7209 8.95174 34.5033 7.13883C34.5344 7.06677 34.618 7.03355 34.6901 7.06466 34.7621 7.09576 34.7954 7.1794 34.7643 7.25148Z" transform="matrix(1.0087 0 0 -1 173.215 218.095)"/><path d="M95.6805 51.9986 108.423 58.0851 108.3 58.3416 95.5581 52.2553ZM107.369 56.5007 108.616 58.335 106.405 58.5177C106.327 58.5241 106.259 58.4659 106.252 58.3877 106.246 58.3094 106.304 58.2408 106.382 58.2344L108.35 58.0717 108.244 58.2932 107.134 56.6603C107.09 56.5955 107.107 56.5071 107.171 56.4629 107.236 56.4188 107.325 56.4356 107.369 56.5007Z" transform="matrix(1.0087 0 0 1 87.086 133.025)"/><text font-family="Yu Gothic,Yu Gothic_MSFontService,sans-serif" font-weight="400" font-size="13" transform="matrix(0.215054 0 0 0.213198 105.231 160)">顧客<tspan font-family="Calibri,Calibri_MSFontService,sans-serif" font-size="13" x="26.6667" y="0">ID</tspan><tspan font-size="13" x="153.932" y="342.405">商品</tspan><tspan font-size="13" x="179.932" y="342.405">コード</tspan><tspan font-size="13" x="1.68326" y="140.714">個数</tspan><tspan font-size="13" x="200.533" y="28.1429">顧客</tspan>インスタンス<tspan font-size="13" x="403.315" y="42.2143">顧客</tspan>インスタンス<tspan font-size="13" x="370.752" y="286.119">商品</tspan>インスタンス<tspan font-size="13" x="302.529" y="154.786">注文</tspan>インスタンス<tspan font-size="13" x="233.938" y="154.786">金額</tspan><tspan font-size="13" x="67.9927" y="234.524">商品</tspan><tspan font-size="13" x="93.9927" y="234.524">インスタンス</tspan></text></g></g></g></g><path d="M270.5 191.5 270.5 184.5 224.5 184.5 224.5 170.5 270.5 170.5 270.5 163.5 284.5 177.5Z" stroke="#ED7D31" stroke-width="1.33333" stroke-miterlimit="8" stroke-opacity="0.501961" fill="#FFC000" fill-rule="evenodd" fill-opacity="0.501961"/><path d="M88.5001 298.5 182.167 298.5 337.421 235.875 322.667 298.5 650.5 298.5 650.5 333.667 650.5 333.667 650.5 386.417 650.5 509.5 322.667 509.5 182.167 509.5 182.167 509.5 88.5001 509.5 88.5001 386.417 88.5001 333.667 88.5001 333.667Z" stroke="#2F528F" stroke-width="1.33333" stroke-miterlimit="8" fill="#F2F2F2" fill-rule="evenodd"/><text font-family="Yu Gothic,Yu Gothic_MSFontService,sans-serif" font-weight="400" font-size="13" transform="translate(182.333 500)">クラスのインスタンスのライフサイクルを規定する振舞モデル</text><path d="M176.5 359.667C176.5 356.813 178.813 354.5 181.667 354.5L264.333 354.5C267.187 354.5 269.5 356.813 269.5 359.667L269.5 380.333C269.5 383.187 267.187 385.5 264.333 385.5L181.667 385.5C178.813 385.5 176.5 383.187 176.5 380.333Z" stroke="#000000" stroke-width="1.33333" stroke-miterlimit="8" fill="#FFFFFF" fill-rule="evenodd"/><text font-family="Calibri,Calibri_MSFontService,sans-serif" font-weight="400" font-size="13" transform="translate(215.79 373)">S1</text><path d="M176.5 420.667C176.5 417.813 178.813 415.5 181.667 415.5L264.333 415.5C267.187 415.5 269.5 417.813 269.5 420.667L269.5 441.333C269.5 444.187 267.187 446.5 264.333 446.5L181.667 446.5C178.813 446.5 176.5 444.187 176.5 441.333Z" stroke="#000000" stroke-width="1.33333" stroke-miterlimit="8" fill="#FFFFFF" fill-rule="evenodd"/><text font-family="Calibri,Calibri_MSFontService,sans-serif" font-weight="400" font-size="13" transform="translate(215.79 434)">S2</text><path d="M328.5 420.667C328.5 417.813 330.813 415.5 333.667 415.5L417.333 415.5C420.187 415.5 422.5 417.813 422.5 420.667L422.5 441.333C422.5 444.187 420.187 446.5 417.333 446.5L333.667 446.5C330.813 446.5 328.5 444.187 328.5 441.333Z" stroke="#000000" stroke-width="1.33333" stroke-miterlimit="8" fill="#FFFFFF" fill-rule="evenodd"/><text font-family="Calibri,Calibri_MSFontService,sans-serif" font-weight="400" font-size="13" transform="translate(368.456 434)">S3</text><path d="M328.5 360.667C328.5 357.813 330.813 355.5 333.667 355.5L417.333 355.5C420.187 355.5 422.5 357.813 422.5 360.667L422.5 381.333C422.5 384.187 420.187 386.5 417.333 386.5L333.667 386.5C330.813 386.5 328.5 384.187 328.5 381.333Z" stroke="#000000" stroke-width="1.33333" stroke-miterlimit="8" fill="#FFFFFF" fill-rule="evenodd"/><text font-family="Calibri,Calibri_MSFontService,sans-serif" font-weight="400" font-size="13" transform="translate(368.456 374)">S4</text><path d="M223.167 385.5 223.167 414.18 221.833 414.18 221.833 385.5ZM227.743 406.516 222.5 415.503 217.258 406.516C217.072 406.198 217.18 405.79 217.498 405.604 217.816 405.419 218.224 405.526 218.409 405.844L223.076 413.844 221.924 413.844 226.591 405.844C226.776 405.526 227.185 405.419 227.503 405.604 227.821 405.79 227.928 406.198 227.743 406.516Z"/><path d="M269.5 429.833 327.628 429.833 327.628 431.167 269.5 431.167ZM319.964 425.258 328.951 430.5 319.964 435.743C319.645 435.928 319.237 435.821 319.052 435.503 318.866 435.185 318.974 434.776 319.292 434.591L327.292 429.924 327.292 431.076 319.292 426.409C318.974 426.224 318.866 425.816 319.052 425.498 319.237 425.18 319.646 425.072 319.964 425.258Z"/><path d="M374.833 415.916 374.833 387.82 376.167 387.82 376.167 415.916ZM370.258 395.484 375.5 386.497 380.743 395.484C380.928 395.802 380.821 396.21 380.503 396.396 380.185 396.581 379.776 396.474 379.591 396.156L374.924 388.156 376.076 388.156 371.409 396.156C371.224 396.474 370.816 396.581 370.497 396.396 370.179 396.21 370.072 395.802 370.258 395.484Z"/><path d="M328.941 370.75 270.814 370.18 270.827 368.846 328.954 369.417ZM278.432 374.831 269.497 369.5 278.535 364.346C278.855 364.164 279.262 364.275 279.445 364.595 279.627 364.915 279.516 365.322 279.196 365.504L271.15 370.092 271.162 368.94 279.115 373.685C279.432 373.874 279.535 374.283 279.346 374.6 279.158 374.916 278.748 375.019 278.432 374.831Z"/><path d="M376.164 445.945 376.352 448.195 376.33 448.072 376.955 450.322 376.904 450.192 379.154 454.504 379.071 454.382 382.509 458.444 382.415 458.353 386.977 461.978 386.896 461.922 392.208 464.985 392.12 464.943 398.12 467.318 398.028 467.289 404.403 468.789 404.307 468.773 410.87 469.336 410.769 469.335 417.394 468.897 417.309 468.908 423.684 467.658 423.606 467.679 429.543 465.741 429.463 465.773 434.838 463.211 434.755 463.258 439.255 460.258 439.167 460.328 442.667 457.016 442.557 457.151 444.744 453.589 444.682 453.72 445.307 451.908 445.274 452.059 445.462 450.184 445.466 450.351 444.904 446.663 444.948 446.821 443.448 443.259 443.521 443.388 441.146 440.076 441.221 440.164 438.159 437.164 438.24 437.232 434.615 434.669 434.713 434.727 430.651 432.789 430.752 432.828 426.439 431.578 426.561 431.601 423.374 431.291 423.503 429.964 426.751 430.28 431.175 431.562 435.338 433.548 439.053 436.174 442.196 439.252 444.648 442.672 446.209 446.38 446.797 450.233 446.593 452.269 445.919 454.224 443.647 457.924 440.042 461.336 435.455 464.394 429.998 466.995 423.981 468.959 417.524 470.225 410.806 470.669 404.145 470.098 397.675 468.575 391.584 466.164 386.187 463.053 381.534 459.356 378.006 455.187 375.689 450.746 375.028 448.368 374.836 446.055ZM430.56 436.587 422.122 430.5 431.574 426.151C431.909 425.998 432.305 426.144 432.459 426.478 432.612 426.813 432.466 427.209 432.132 427.363L423.717 431.233 423.829 430.087 431.34 435.506C431.638 435.721 431.706 436.138 431.49 436.437 431.275 436.735 430.858 436.803 430.56 436.587Z"/><text font-family="Calibri,Calibri_MSFontService,sans-serif" font-weight="400" font-size="13" transform="translate(204.242 402)">E1<tspan font-size="13" x="84.5067" y="17">E2</tspan><tspan font-size="13" x="218.094" y="55">E2</tspan><tspan font-size="13" x="178.239" y="4">E3</tspan><tspan font-size="13" x="86.0872" y="-38">E4</tspan><tspan font-family="Yu Gothic,Yu Gothic_MSFontService,sans-serif" font-size="12" x="-91.6447" y="-68">状態</tspan></text><path d="M0 0C13.3425 0 26.6849 25.4362 26.6849 50.8724" stroke="#ED7D31" stroke-width="0.666667" stroke-miterlimit="8" fill="none" fill-rule="evenodd" transform="matrix(1.83697e-16 1 1 -1.83697e-16 125.5 343.5)"/><path d="M145.5 396.5C157.995 396.5 170.491 397.042 170.491 397.584 170.491 398.126 182.986 398.668 195.482 398.668" stroke="#ED7D31" stroke-width="0.666667" stroke-miterlimit="8" fill="none" fill-rule="evenodd"/><text font-family="Yu Gothic,Yu Gothic_MSFontService,sans-serif" font-weight="400" font-size="12" transform="translate(110.638 399)">事象<tspan font-size="12" x="121.14" y="75">遷移</tspan></text><path d="M0 0C13.348 0 26.696 19.5939 26.696 39.1878" stroke="#ED7D31" stroke-width="0.666667" stroke-miterlimit="8" fill="none" fill-rule="evenodd" transform="matrix(1 0 0 -1 266.5 470.688)"/><path d="M453.5 344.5 483.5 344.5 483.5 344.5 528.5 344.5 633.5 344.5 633.5 360.5 633.5 360.5 633.5 384.5 633.5 440.5 528.5 440.5 483.5 440.5 483.5 440.5 453.5 440.5 453.5 384.5 415.056 372.26 453.5 360.5Z" stroke="#2F528F" stroke-width="1.33333" stroke-miterlimit="8" fill="none" fill-rule="evenodd"/><text font-family="Yu Gothic,Yu Gothic_MSFontService,sans-serif" font-weight="400" font-size="13" transform="translate(462.749 431)">状態に紐づいたアクション</text><g clip-path="url(#clip5)"><g clip-path="url(#clip6)"><g clip-path="url(#clip7)"><g clip-path="url(#clip8)"><path d="M47.2197 143.991C47.2197 137.809 52.2309 132.798 58.4126 132.798 64.5943 132.798 69.6054 137.809 69.6054 143.991 69.6054 150.173 64.5943 155.184 58.4126 155.184 52.2309 155.184 47.2197 150.173 47.2197 143.991Z" stroke="#000000" stroke-width="0.310911" stroke-miterlimit="8" fill="#FFFFFF" fill-rule="evenodd" transform="matrix(1.00408 0 0 1 461.713 223.785)"/><text font-family="Calibri,Calibri_MSFontService,sans-serif" font-weight="400" font-size="16" transform="matrix(0.234136 0 0 0.233184 519.062 369)">A</text><path d="M47.2197 172.673C47.2197 166.491 52.2309 161.48 58.4126 161.48 64.5943 161.48 69.6054 166.491 69.6054 172.673 69.6054 178.854 64.5943 183.865 58.4126 183.865 52.2309 183.865 47.2197 178.854 47.2197 172.673Z" stroke="#000000" stroke-width="0.310911" stroke-miterlimit="8" fill="#FFFFFF" fill-rule="evenodd" transform="matrix(1.00408 0 0 1 461.713 223.785)"/><text font-family="Calibri,Calibri_MSFontService,sans-serif" font-weight="400" font-size="16" transform="matrix(0.234136 0 0 0.233184 519.14 398)">B</text><path d="M88.4933 143.991C88.4933 137.809 93.5044 132.798 99.6861 132.798 105.868 132.798 110.879 137.809 110.879 143.991 110.879 150.173 105.868 155.184 99.6861 155.184 93.5044 155.184 88.4933 150.173 88.4933 143.991Z" stroke="#000000" stroke-width="0.310911" stroke-miterlimit="8" fill="#FFFFFF" fill-rule="evenodd" transform="matrix(1.00408 0 0 1 461.713 223.785)"/><text font-family="Calibri,Calibri_MSFontService,sans-serif" font-weight="400" font-size="16" transform="matrix(0.234136 0 0 0.233184 560.667 369)">C</text><path d="M88.4933 172.673C88.4933 166.491 93.5044 161.48 99.6861 161.48 105.868 161.48 110.879 166.491 110.879 172.673 110.879 178.854 105.868 183.865 99.6861 183.865 93.5044 183.865 88.4933 178.854 88.4933 172.673Z" stroke="#000000" stroke-width="0.310911" stroke-miterlimit="8" fill="#FFFFFF" fill-rule="evenodd" transform="matrix(1.00408 0 0 1 461.713 223.785)"/><text font-family="Calibri,Calibri_MSFontService,sans-serif" font-weight="400" font-size="16" transform="matrix(0.234136 0 0 0.233184 560.511 398)">D</text><path d="M25.3004 143.835 46.7813 143.835 46.7813 144.147 25.3004 144.147ZM44.9942 142.769 47.0898 143.991 44.9942 145.214C44.9201 145.257 44.8249 145.232 44.7816 145.158 44.7384 145.083 44.7634 144.988 44.8375 144.945L46.703 143.857 46.703 144.125 44.8375 143.037C44.7634 142.994 44.7384 142.899 44.7816 142.825 44.8249 142.75 44.9201 142.725 44.9942 142.769Z" transform="matrix(1.00408 0 0 1 461.713 223.785)"/><path d="M1.74666e-07-0.155456 21.4809-0.155432 21.4809 0.15548-1.74666e-07 0.155456ZM19.6938-1.22245 21.7894 2.44974e-05 19.6938 1.22249C19.6196 1.26575 19.5244 1.2407 19.4811 1.16654 19.4379 1.09238 19.4629 0.997194 19.5371 0.953934L21.4026-0.134255 21.4026 0.134304 19.5371-0.95389C19.4629-0.99715 19.4379-1.09234 19.4812-1.1665 19.5244-1.24066 19.6196-1.26571 19.6938-1.22245Z" transform="matrix(1.00408 0 0 -1 487.117 396.457)"/><path d="M69.6054 143.835 88.2508 143.835 88.2508 144.147 69.6054 144.147ZM86.4636 142.769 88.5593 143.991 86.4636 145.214C86.3895 145.257 86.2943 145.232 86.251 145.158 86.2078 145.083 86.2328 144.988 86.3069 144.945L88.1724 143.857 88.1724 144.125 86.3069 143.037C86.2328 142.994 86.2078 142.899 86.251 142.825 86.2943 142.75 86.3895 142.725 86.4636 142.769Z" transform="matrix(1.00408 0 0 1 461.713 223.785)"/><path d="M0.0704717-0.138565 25.3058 12.6957 25.165 12.9729-0.0704717 0.138565ZM24.1966 10.9345 25.5105 12.9742 23.0883 13.1138C23.0026 13.1187 22.9291 13.0533 22.9242 12.9675 22.9192 12.8818 22.9847 12.8083 23.0704 12.8034L25.2265 12.6791 25.1048 12.9185 23.9352 11.1029C23.8888 11.0307 23.9095 10.9345 23.9818 10.888 24.0538 10.8415 24.1502 10.8623 24.1966 10.9345Z" transform="matrix(1.00408 0 0 -1 528.325 388.678)"/><path d="M69.6054 172.517 88.2508 172.517 88.2508 172.828 69.6054 172.828ZM86.4636 171.45 88.5593 172.673 86.4636 173.895C86.3895 173.938 86.2943 173.913 86.251 173.839 86.2078 173.765 86.2328 173.67 86.3069 173.627L88.1724 172.538 88.1724 172.807 86.3069 171.719C86.2328 171.676 86.2078 171.58 86.251 171.506 86.2943 171.432 86.3895 171.407 86.4636 171.45Z" transform="matrix(1.00408 0 0 1 461.713 223.785)"/><path d="M110.879 172.517 129.524 172.517 129.524 172.828 110.879 172.828ZM127.737 171.45 129.833 172.673 127.737 173.895C127.663 173.938 127.568 173.913 127.525 173.839 127.481 173.765 127.506 173.67 127.58 173.627L129.446 172.538 129.446 172.807 127.58 171.719C127.506 171.676 127.481 171.58 127.525 171.506 127.568 171.432 127.663 171.407 127.737 171.45Z" transform="matrix(1.00408 0 0 1 461.713 223.785)"/><path d="M110.879 143.835 129.524 143.835 129.524 144.147 110.879 144.147ZM127.737 142.769 129.833 143.991 127.737 145.214C127.663 145.257 127.568 145.232 127.525 145.158 127.481 145.083 127.506 144.988 127.58 144.945L129.446 143.857 129.446 144.125 127.58 143.037C127.506 142.994 127.481 142.899 127.525 142.825 127.568 142.75 127.663 142.725 127.737 142.769Z" transform="matrix(1.00408 0 0 1 461.713 223.785)"/><text font-family="Calibri,Calibri_MSFontService,sans-serif" font-style="italic" font-weight="400" font-size="16" transform="matrix(0.234136 0 0 0.233184 499.026 365)">a<tspan font-size="16" x="0" y="124.365">b</tspan><tspan font-size="16" x="333.12" y="0">c</tspan><tspan font-size="16" x="333.12" y="124.365">d</tspan><tspan font-size="16" x="179.064" y="4.28846">s</tspan><tspan font-size="16" x="166.173" y="68.6154">t</tspan><tspan font-size="16" x="178.427" y="124.365">u</tspan></text></g></g></g></g></g></svg>