<svg width="607" height="431" xmlns="http://www.w3.org/2000/svg" xmlns:xlink="http://www.w3.org/1999/xlink" overflow="hidden"><defs><clipPath id="clip0"><rect x="60" y="75" width="607" height="431"/></clipPath><clipPath id="clip1"><rect x="111" y="146" width="232" height="164"/></clipPath><clipPath id="clip2"><rect x="111" y="146" width="232" height="164"/></clipPath><clipPath id="clip3"><rect x="111" y="146" width="232" height="164"/></clipPath><clipPath id="clip4"><rect x="111" y="146" width="232" height="164"/></clipPath><clipPath id="clip5"><rect x="103" y="349" width="248" height="106"/></clipPath><clipPath id="clip6"><rect x="103" y="349" width="248" height="107"/></clipPath><clipPath id="clip7"><rect x="77" y="332" width="287" height="135"/></clipPath><clipPath id="clip8"><rect x="77" y="332" width="287" height="135"/></clipPath><linearGradient x1="503" y1="370.5" x2="503" y2="434.5" gradientUnits="userSpaceOnUse" spreadMethod="reflect" id="fill9"><stop offset="0" stop-color="#B1CBE9"/><stop offset="0.5" stop-color="#A3C1E5"/><stop offset="1" stop-color="#92B9E4"/></linearGradient><linearGradient x1="503" y1="220.5" x2="503" y2="359.5" gradientUnits="userSpaceOnUse" spreadMethod="reflect" id="fill10"><stop offset="0" stop-color="#B5D5A7"/><stop offset="0.5" stop-color="#AACE99"/><stop offset="1" stop-color="#9CCA86"/></linearGradient><clipPath id="clip11"><rect x="540" y="319" width="43" height="43"/></clipPath><clipPath id="clip12"><rect x="540" y="319" width="43" height="43"/></clipPath><clipPath id="clip13"><rect x="540" y="319" width="43" height="43"/></clipPath><linearGradient x1="503" y1="145.5" x2="503" y2="209.5" gradientUnits="userSpaceOnUse" spreadMethod="reflect" id="fill14"><stop offset="0" stop-color="#FFDD9C"/><stop offset="0.5" stop-color="#FFD78E"/><stop offset="1" stop-color="#FFD479"/></linearGradient></defs><g clip-path="url(#clip0)" transform="translate(-60 -75)"><rect x="82" y="332" width="278" height="139" fill="#F2F2F2"/><text font-family="Yu Gothic,Yu Gothic_MSFontService,sans-serif" font-weight="400" font-size="13" transform="translate(187.719 349)">情報モデル</text><rect x="82" y="102" width="278" height="218" fill="#F2F2F2"/><text font-family="Yu Gothic,Yu Gothic_MSFontService,sans-serif" font-weight="400" font-size="13" transform="translate(187.719 119)">振舞モデル</text><rect x="61.5001" y="76.5001" width="605" height="429" stroke="#D9D9D9" stroke-width="1.33333" stroke-miterlimit="8" fill="none"/><g clip-path="url(#clip1)"><g clip-path="url(#clip2)"><g clip-path="url(#clip3)"><g clip-path="url(#clip4)"><path d="M54.2581 67.5627C54.2581 56.5406 67.4746 47.6057 83.7778 47.6057 100.081 47.6057 113.297 56.5406 113.297 67.5627 113.297 78.5848 100.081 87.5197 83.7778 87.5197 67.4746 87.5197 54.2581 78.5848 54.2581 67.5627Z" stroke="#000000" stroke-width="0.554359" stroke-miterlimit="8" fill="#FFFFFF" fill-rule="evenodd" transform="matrix(1 0 0 1.00114 80.233 108.954)"/><text font-family="Yu Gothic,Yu Gothic_MSFontService,sans-serif" font-weight="400" font-size="13" transform="matrix(0.415771 0 0 0.416244 158.153 171)">顧客<tspan font-size="13" x="-26.6667" y="16.8171">インスタンス</tspan><tspan font-size="13" x="-6.66667" y="33.6341">を</tspan><tspan font-size="13" x="6.33336" y="33.6341">検索</tspan></text><path d="M107.477 166.1C107.477 155.078 120.693 146.143 136.996 146.143 153.3 146.143 166.516 155.078 166.516 166.1 166.516 177.122 153.3 186.057 136.996 186.057 120.693 186.057 107.477 177.122 107.477 166.1Z" stroke="#000000" stroke-width="0.554359" stroke-miterlimit="8" fill="#FFFFFF" fill-rule="evenodd" transform="matrix(1 0 0 1.00114 80.233 108.954)"/><text font-family="Yu Gothic,Yu Gothic_MSFontService,sans-serif" font-weight="400" font-size="13" transform="matrix(0.415771 0 0 0.416244 211.612 270)">商品<tspan font-size="13" x="-26.6667" y="16.8171">インスタンス</tspan><tspan font-size="13" x="-6.66667" y="31.2317">を</tspan><tspan font-size="13" x="6.33332" y="31.2317">検索</tspan></text><path d="M136.165 87.5197C136.165 76.4976 149.381 67.5627 165.685 67.5627 181.988 67.5627 195.204 76.4976 195.204 87.5197 195.204 98.5418 181.988 107.477 165.685 107.477 149.381 107.477 136.165 98.5418 136.165 87.5197Z" stroke="#000000" stroke-width="0.554359" stroke-miterlimit="8" fill="#FFFFFF" fill-rule="evenodd" transform="matrix(1 0 0 1.00114 80.233 108.954)"/><text font-family="Yu Gothic,Yu Gothic_MSFontService,sans-serif" font-weight="400" font-size="13" transform="matrix(0.415771 0 0 0.416244 229.008 191)">注文<tspan font-size="13" x="26" y="0">インスタ</tspan><tspan font-size="13" x="0" y="16.8171">ンス</tspan><tspan font-size="13" x="26" y="16.8171">作成</tspan><tspan font-size="13" x="52" y="16.8171">と</tspan><tspan font-size="13" x="65" y="16.8171">個</tspan><tspan font-size="13" x="0" y="33.6341">数</tspan><tspan font-size="13" x="13" y="33.6341">、</tspan><tspan font-size="13" x="26" y="33.6341">金額設定</tspan></text><path d="M68.81 115.376C68.81 104.354 82.0266 95.4194 98.3298 95.4194 114.633 95.4194 127.849 104.354 127.849 115.376 127.849 126.398 114.633 135.333 98.3298 135.333 82.0266 135.333 68.81 126.398 68.81 115.376Z" stroke="#000000" stroke-width="0.554359" stroke-miterlimit="8" fill="#FFFFFF" fill-rule="evenodd" transform="matrix(1 0 0 1.00114 80.233 108.954)"/><text font-family="Yu Gothic,Yu Gothic_MSFontService,sans-serif" font-weight="400" font-size="13" transform="matrix(0.415771 0 0 0.416244 163.928 219)">商品<tspan font-family="Calibri,Calibri_MSFontService,sans-serif" font-size="13" x="26.6667" y="0">.</tspan><tspan font-size="13" x="30" y="0">単価</tspan><tspan font-size="13" x="56" y="0">と</tspan><tspan font-size="13" x="8.33336" y="16.8171">個数</tspan><tspan font-size="13" x="34.3333" y="16.8171">から</tspan><tspan font-size="13" x="8.33336" y="33.6341">金額計算</tspan></text><path d="M203.104 127.849C203.104 116.827 216.32 107.892 232.624 107.892 248.927 107.892 262.143 116.827 262.143 127.849 262.143 138.872 248.927 147.806 232.624 147.806 216.32 147.806 203.104 138.872 203.104 127.849Z" stroke="#000000" stroke-width="0.554359" stroke-miterlimit="8" fill="#FFFFFF" fill-rule="evenodd" transform="matrix(1 0 0 1.00114 80.233 108.954)"/><text font-family="Calibri,Calibri_MSFontService,sans-serif" font-weight="400" font-size="13" transform="matrix(0.415771 0 0 0.416244 296.028 235)">R<tspan font-size="13" x="7.00001" y="0">1</tspan><tspan font-family="Yu Gothic,Yu Gothic_MSFontService,sans-serif" font-size="13" x="14" y="0">でリンク</tspan><tspan font-family="Yu Gothic,Yu Gothic_MSFontService,sans-serif" font-size="13" x="66" y="0">作</tspan><tspan font-family="Yu Gothic,Yu Gothic_MSFontService,sans-serif" font-size="13" x="33.6667" y="16.8171">成</tspan></text><path d="M40.2653 39.4689 62.4384 52.8765 62.1515 53.3509 39.9785 39.9433ZM60.6963 49.5998 62.7656 53.3983 58.4403 53.3301C58.2873 53.3276 58.1651 53.2016 58.1676 53.0486 58.1701 52.8956 58.296 52.7733 58.449 52.7758L62.2995 52.8365 62.0517 53.2461 60.2094 49.865C60.1362 49.7303 60.1857 49.5619 60.32 49.4888 60.4547 49.4156 60.6227 49.4651 60.6963 49.5998Z" transform="matrix(1 0 0 1.00114 80.233 108.954)"/><path d="M0.141461-0.238365 22.8473 13.2367 22.5644 13.7134-0.141461 0.238365ZM21.0779 9.9743 23.1788 13.7557 18.8531 13.7232C18.7 13.7221 18.5768 13.597 18.578 13.4439 18.5792 13.2909 18.7042 13.1677 18.8572 13.1689L22.7079 13.1978 22.4635 13.6096 20.5933 10.2435C20.519 10.1097 20.5672 9.94095 20.701 9.86661 20.8348 9.79227 21.0036 9.8405 21.0779 9.9743Z" transform="matrix(1 0 0 -1.00114 173.158 302.75)"/><path d="M39.7061 115.099 68.4042 115.099 68.4042 115.654 39.7061 115.654ZM65.2178 113.197 68.9547 115.376 65.2178 117.556C65.0856 117.633 64.9159 117.589 64.839 117.456 64.7617 117.324 64.8062 117.154 64.9384 117.077L68.265 115.137 68.265 115.616 64.9388 113.675C64.8062 113.599 64.7617 113.429 64.839 113.297 64.9159 113.164 65.0856 113.12 65.2178 113.197Z" transform="matrix(1 0 0 1.00114 80.233 108.954)"/><path d="M0.037243-0.274667 1.60129-0.062593 3.11324 0.504388 4.53656 1.41746 5.79285 2.59356 6.85938 3.98007 7.68777 5.50318 8.22407 7.16581 8.40904 8.85695 8.59094 10.52 8.57922 10.4651 9.09893 12.0762 9.07864 12.0289 9.8842 13.5101 9.86037 13.4735 10.8998 14.8247 10.8695 14.7914 12.0909 15.9347 12.0511 15.9038 13.4284 16.7873 13.3745 16.7605 14.8557 17.3062 14.7977 17.2917 15.7612 17.4246 15.6855 17.9738 14.6922 17.8368 13.1545 17.2702 11.7305 16.3567 10.4742 15.1806 9.40764 13.7941 8.57926 12.271 8.04296 10.6084 7.85798 8.91724 7.67608 7.25416 7.68781 7.30912 7.16809 5.69801 7.18838 5.74533 6.38283 4.26414 6.40665 4.30073 5.36722 2.94946 5.39749 2.98281 4.17617 1.83944 4.21591 1.8704 2.83869 0.986886 2.89103 1.01312 1.43583 0.467418 1.49591 0.482552-0.037243 0.274667ZM12.8646 15.1046 16.2683 17.7744 12.2689 19.4231C12.1274 19.4814 11.9653 19.414 11.907 19.2724 11.8487 19.1309 11.9161 18.9689 12.0576 18.9105L15.6177 17.4429 15.5523 17.9173 12.5224 15.5408C12.402 15.4463 12.3809 15.272 12.4754 15.1516 12.5699 15.0311 12.7441 15.0101 12.8646 15.1046Z" transform="matrix(-1.83697e-16 -1.00114 -1 1.83906e-16 196.331 260.723)"/><path d="M113.348 67.2904 144.277 73.0351 144.176 73.5802 113.247 67.8355ZM141.491 70.5829 144.767 73.4085 140.695 74.8691C140.551 74.9206 140.392 74.8458 140.34 74.7015 140.289 74.5577 140.364 74.3988 140.508 74.3473L144.132 73.0467 144.045 73.5178 141.129 71.0024C141.013 70.9026 141 70.7276 141.1 70.6116 141.2 70.4956 141.375 70.4827 141.491 70.5829Z" transform="matrix(1 0 0 1.00114 80.233 108.954)"/><path d="M0.177692-0.212731 16.4412 13.3721 16.0858 13.7976-0.177692 0.212731ZM15.2153 9.86919 16.6857 13.9375 12.4206 13.2149C12.2697 13.1894 12.1681 13.0463 12.1937 12.8953 12.2192 12.7444 12.3623 12.6428 12.5132 12.6684L16.3099 13.3116 16.0029 13.6791 14.694 10.0576C14.6419 9.91368 14.7165 9.75477 14.8604 9.70276 15.0044 9.6507 15.1633 9.72525 15.2153 9.86919Z" transform="matrix(1 0 0 -1.00114 208.082 224.678)"/><path d="M0.0391992 0.274394-0.6884 0.378337-0.637239 0.365982-1.39082 0.625839-1.33129 0.596959-2.05889 1.0647-2.03284 1.04573-2.76044 1.6434-2.73068 1.615-3.45828 2.42056-3.44519 2.40494-4.1728 3.34042-4.1539 3.31286-5.55711 5.65157-5.54426 5.62754-6.9215 8.53793-6.9131 8.51818-8.21238 11.9223-8.20731 11.908-9.45462 15.8058-9.45072 15.7923-10.5941 20.106-10.5918 20.0965-11.6572 24.7739-11.6552 24.7645-12.6167 29.7798-12.6151 29.7705-13.4466 35.0716-13.4456 35.0648-14.1732 40.5998-14.1722 40.5912-14.7439 46.3081-14.7432 46.3002-15.159 52.173-15.1586 52.1663-15.4445 58.1172-15.4442 58.1077-15.5221 64.1102-15.5223 64.0973-15.4183 67.1116-15.4196 67.0921-15.1078 70.0806-15.1101 70.064-14.6163 73.0526-14.6195 73.0359-13.9439 75.9983-13.9481 75.9825-13.0906 78.9187-13.0953 78.9041-12.0559 81.8403-12.0615 81.8257-10.8661 84.6842-10.8713 84.6729-9.52003 87.5314-9.53059 87.511-6.33435 93.0461-6.34828 93.0241-2.60636 98.2994-2.62122 98.2803 1.64043 103.295 1.62467 103.278 6.35406 107.982 6.33668 107.966 11.4818 112.28 11.4637 112.266 16.9466 116.137 16.9275 116.125 22.7483 119.555 22.7276 119.544 28.7823 122.454 28.7591 122.444 35.0217 124.783 35.0026 124.777 38.1988 125.712 38.1857 125.709 41.4339 126.489 41.4214 126.486 44.6696 127.109 44.6567 127.107 47.9309 127.575 47.9134 127.573 51.1876 127.833 51.1743 127.832 53.9263 127.919 53.9088 128.473 51.1506 128.386 47.861 128.125 44.5714 127.655 41.3107 127.029 38.0497 126.246 34.8372 125.306 28.5534 122.96 22.4769 120.039 16.6362 116.597 11.1345 112.712 5.97151 108.383 1.22552 103.663-3.0515 98.6299-6.80795 93.3343-10.0163 87.7783-11.3752 84.9041-12.5759 82.0328-13.6205 79.0816-14.4825 76.1297-15.1619 73.1511-15.6583 70.1463-15.972 67.1403-16.0765 64.1098-15.9984 58.0956-15.7122 52.1368-15.2959 46.257-14.7234 40.5318-13.9948 34.9891-13.162 29.68-12.1988 24.6555-11.1312 19.9686-9.98477 15.6435-8.73301 11.7318-7.42716 8.31051-6.03953 5.37808-4.62063 3.01329-3.87651 2.05654-3.12825 1.22812-2.37225 0.607112-1.60304 0.112623-0.792966-0.166714-0.0391992-0.274394ZM50.8009 125.917 54.4672 128.213 50.6637 130.274C50.5294 130.347 50.361 130.297 50.2883 130.163 50.2151 130.028 50.265 129.86 50.3997 129.787L53.7853 127.952 53.7704 128.431 50.507 126.387C50.3773 126.306 50.3378 126.134 50.4193 126.005 50.5003 125.875 50.6712 125.836 50.8009 125.917Z" transform="matrix(1.83697e-16 1.00114 1 -1.83906e-16 184.799 162.442)"/><path d="M0.00465784-0.277141 6.19394-0.173119 12.3355 0.139163 18.3983 0.633555 24.3058 1.28416 30.0055 2.11698 35.497 3.07996 40.6784 4.17351 45.4965 5.39758 49.9785 6.72654 53.9949 8.16095 57.5202 9.64937 60.5545 11.219 61.845 12.0355 62.978 12.8521 63.9842 13.6994 64.8095 14.5516 65.4843 15.4153 65.9475 16.3138 66.2493 17.1921 66.2905 17.5338 65.7404 17.6005 65.7026 17.2878 65.7155 17.3446 65.4298 16.513 65.4452 16.5499 65.0037 15.6923 65.0315 15.736 64.3821 14.9045 64.4012 14.9267 63.5959 14.0952 63.6162 14.1143 62.6288 13.2828 62.6454 13.2956 61.5278 12.4901 61.542 12.4995 60.2684 11.6939 60.2892 11.7059 57.2749 10.1467 57.2944 10.1559 53.7866 8.67472 53.8011 8.68038 49.7993 7.25116 49.8135 7.2559 45.3439 5.93064 45.3548 5.9335 40.5473 4.71218 40.5583 4.71476 35.3872 3.62336 35.3965 3.62517 29.9136 2.6637 29.9214 2.66495 24.2305 1.83341 24.2403 1.83465 18.3415 1.18501 18.3493 1.18576 12.2947 0.692034 12.3031 0.692595 6.17049 0.380765 6.17993 0.381084-0.00465784 0.277141ZM67.796 14.1416 66.0817 18.1133 63.4682 14.6661C63.3759 14.5441 63.3996 14.3702 63.5219 14.2778 63.6437 14.1853 63.8175 14.2092 63.9102 14.3312L66.2364 17.3997 65.7612 17.4573 67.2871 13.9219C67.3478 13.7813 67.5108 13.7166 67.6513 13.7772 67.7918 13.8379 67.8567 14.001 67.796 14.1416Z" transform="matrix(1 0 0 -1.00114 246.749 275.043)"/><path d="M186.592 101.406 211.442 113.275 211.203 113.776 186.354 101.906ZM209.387 110.185 211.819 113.763 207.508 114.119C207.355 114.132 207.221 114.018 207.209 113.865 207.196 113.713 207.309 113.579 207.462 113.566L211.3 113.249 211.093 113.681 208.928 110.497C208.842 110.37 208.875 110.198 209.002 110.112 209.128 110.026 209.301 110.059 209.387 110.185Z" transform="matrix(1 0 0 1.00114 80.233 108.954)"/><text font-family="Yu Gothic,Yu Gothic_MSFontService,sans-serif" font-weight="400" font-size="13" transform="matrix(0.415771 0 0 0.416244 115.313 162)">顧客<tspan font-family="Calibri,Calibri_MSFontService,sans-serif" font-size="13" x="26.6667" y="0">ID</tspan><tspan font-size="13" x="153.932" y="343.549">商品</tspan><tspan font-size="13" x="179.932" y="343.549">コード</tspan><tspan font-size="13" x="1.68325" y="141.744">個数</tspan><tspan font-size="13" x="200.533" y="26.4268">顧客</tspan><tspan font-size="13" x="226.533" y="26.4268">インスタンス</tspan><tspan font-size="13" x="403.315" y="43.2439">顧客</tspan><tspan font-size="13" x="429.315" y="43.2439">インスタンス</tspan><tspan font-size="13" x="370.752" y="285.89">商品</tspan><tspan font-size="13" x="396.752" y="285.89">インスタンス</tspan><tspan font-size="13" x="302.529" y="153.756">注文</tspan>インスタンス<tspan font-size="13" x="233.938" y="151.354">金額</tspan><tspan font-size="13" x="67.9927" y="230.634">商品</tspan><tspan font-size="13" x="93.9927" y="230.634">インスタンス</tspan></text></g></g></g></g><g clip-path="url(#clip5)"><g clip-path="url(#clip6)"><g clip-path="url(#clip7)"><g clip-path="url(#clip8)"><path d="M27.4777 44.3871 311.179 44.3871 311.179 177.783 27.4777 177.783Z" stroke="#D9D9D9" stroke-width="0.62627" stroke-miterlimit="8" fill="none" transform="matrix(1.00367 0 0 1 50.8177 288.578)"/><path d="M65.054 76.3269 124.237 76.3269 124.237 117.191 65.054 117.191Z" stroke="#000000" stroke-width="0.62627" stroke-miterlimit="8" fill="#FFFFFF" transform="matrix(1.00367 0 0 1 50.8177 288.578)"/><text font-family="Yu Gothic,Yu Gothic_MSFontService,sans-serif" font-weight="400" font-size="13" transform="matrix(0.471429 0 0 0.469704 139.34 372)">顧客<tspan font-family="Consolas,Consolas_MSFontService,sans-serif" font-size="13" x="-40.2467" y="17.032">*</tspan><tspan font-size="13" x="-32.9133" y="17.032">顧客</tspan><tspan font-family="Consolas,Consolas_MSFontService,sans-serif" font-size="13" x="-6.24665" y="17.032">ID</tspan><tspan font-size="13" x="-26.9133" y="31.935">顧客名</tspan><tspan font-size="13" x="-26.9133" y="48.967">住所</tspan></text><path d="M212.541 76.3269 272.193 76.3269 272.193 117.191 212.541 117.191Z" stroke="#000000" stroke-width="0.62627" stroke-miterlimit="8" fill="#FFFFFF" transform="matrix(1.00367 0 0 1 50.8177 288.578)"/><text font-family="Yu Gothic,Yu Gothic_MSFontService,sans-serif" font-weight="400" font-size="13" transform="matrix(0.471429 0 0 0.469704 287.482 372)">商品<tspan font-family="Consolas,Consolas_MSFontService,sans-serif" font-size="13" x="-40.2467" y="17.032">*</tspan><tspan font-size="13" x="-32.9133" y="17.032">商品</tspan><tspan font-size="13" x="-6.91329" y="17.032">コード</tspan><tspan font-size="13" x="-26.9133" y="31.935">商品名</tspan><tspan font-size="13" x="-26.9133" y="48.967">在庫</tspan><tspan font-size="13" x="-26.9133" y="63.87">単価</tspan></text><path d="M124.237 96.5242 212.444 96.5242" stroke="#000000" stroke-width="0.313136" stroke-miterlimit="8" fill="none" fill-rule="evenodd" transform="matrix(1.00367 0 0 1 50.8177 288.578)"/><path d="M0 0 2.8741 22.5553" stroke="#000000" stroke-width="0.939408" stroke-miterlimit="8" stroke-dasharray="0.939408 0.939408" fill="none" fill-rule="evenodd" transform="matrix(1.00367 0 0 -1 216.761 408.362)"/><text font-family="Yu Gothic,Yu Gothic_MSFontService,sans-serif" font-weight="400" font-size="11" transform="matrix(0.471429 0 0 0.469704 180.819 381)">発注者<tspan font-family="Calibri,Calibri_MSFontService,sans-serif" font-size="11" x="-3.70017" y="21.29">*</tspan><tspan font-family="Calibri,Calibri_MSFontService,sans-serif" font-size="11" x="158.002" y="6.387">*</tspan><tspan font-size="11" x="125.323" y="21.29">購入予約</tspan></text><path d="M135.979 120.009 195.162 120.009 195.162 160.874 135.979 160.874Z" stroke="#000000" stroke-width="0.62627" stroke-miterlimit="8" fill="#FFFFFF" transform="matrix(1.00367 0 0 1 50.8177 288.578)"/><text font-family="Yu Gothic,Yu Gothic_MSFontService,sans-serif" font-weight="400" font-size="13" transform="matrix(0.471429 0 0 0.469704 210.518 416)">注文<tspan font-family="Consolas,Consolas_MSFontService,sans-serif" font-size="13" x="-40.2467" y="17.032">*</tspan><tspan font-size="13" x="-32.9133" y="17.032">注文</tspan><tspan font-family="Consolas,Consolas_MSFontService,sans-serif" font-size="13" x="-6.24665" y="17.032">ID</tspan><tspan font-size="13" x="-26.9133" y="31.935">個数</tspan><tspan font-size="13" x="-26.9133" y="48.967">金額</tspan><tspan font-size="16" x="-271.519" y="-157.546">ドメイン</tspan><tspan font-size="16" x="-208.519" y="-157.546">：</tspan><tspan font-size="16" x="-192.519" y="-157.546">商品販売</tspan></text></g></g></g></g><path d="M412.5 381.167C412.5 375.276 453.018 370.5 503 370.5 552.982 370.5 593.5 375.276 593.5 381.167L593.5 423.833C593.5 429.724 552.982 434.5 503 434.5 453.018 434.5 412.5 429.724 412.5 423.833Z" fill="url(#fill9)" fill-rule="evenodd"/><path d="M593.5 381.167C593.5 387.058 552.982 391.833 503 391.833 453.018 391.833 412.5 387.058 412.5 381.167" stroke="#5B9BD5" stroke-width="0.666667" stroke-miterlimit="8" fill="none" fill-rule="evenodd"/><path d="M412.5 381.167C412.5 375.276 453.018 370.5 503 370.5 552.982 370.5 593.5 375.276 593.5 381.167L593.5 423.833C593.5 429.724 552.982 434.5 503 434.5 453.018 434.5 412.5 429.724 412.5 423.833Z" stroke="#5B9BD5" stroke-width="0.666667" stroke-miterlimit="8" fill="none" fill-rule="evenodd"/><text font-family="Yu Gothic,Yu Gothic_MSFontService,sans-serif" font-weight="400" font-size="13" transform="translate(456.153 404)">概念情報モデル<tspan font-size="13" x="13.3333" y="16">リポジトリ</tspan></text><path d="M412.5 230.044C412.5 224.773 416.773 220.5 422.044 220.5L583.956 220.5C589.227 220.5 593.5 224.773 593.5 230.044L593.5 349.956C593.5 355.227 589.227 359.5 583.956 359.5L422.044 359.5C416.773 359.5 412.5 355.227 412.5 349.956Z" stroke="#70AD47" stroke-width="0.666667" stroke-miterlimit="8" fill="url(#fill10)" fill-rule="evenodd"/><text font-family="Yu Gothic,Yu Gothic_MSFontService,sans-serif" font-weight="400" font-size="13" transform="translate(476.153 347)">実行環境</text><g clip-path="url(#clip11)"><g clip-path="url(#clip12)"><g clip-path="url(#clip13)"><path d="M563.266 341.067 561.031 340.825C560.725 340.792 560.467 340.591 560.349 340.307 560.348 340.303 560.346 340.3 560.345 340.297 560.227 340.012 560.268 339.688 560.461 339.448L561.87 337.696C562.136 337.366 562.11 336.889 561.81 336.589L559.172 333.951C558.872 333.651 558.395 333.626 558.065 333.891L556.312 335.301C556.073 335.493 555.749 335.534 555.466 335.418 555.463 335.416 555.46 335.415 555.456 335.414 555.171 335.297 554.969 335.038 554.936 334.731L554.694 332.495C554.648 332.074 554.293 331.754 553.869 331.754L550.138 331.754C549.714 331.754 549.358 332.074 549.313 332.495L549.071 334.731C549.038 335.038 548.836 335.297 548.55 335.414 548.547 335.415 548.544 335.416 548.541 335.418 548.258 335.534 547.933 335.493 547.694 335.301L545.942 333.891C545.612 333.626 545.134 333.651 544.835 333.951L542.197 336.589C541.897 336.889 541.871 337.366 542.137 337.696L543.546 339.448C543.739 339.688 543.78 340.012 543.662 340.297 543.66 340.3 543.659 340.303 543.658 340.307 543.54 340.591 543.282 340.792 542.976 340.825L540.741 341.067C540.319 341.113 540 341.469 540 341.892L540 345.623C540 346.047 540.319 346.403 540.741 346.448L542.976 346.69C543.281 346.723 543.54 346.924 543.658 347.209 543.659 347.212 543.66 347.215 543.662 347.219 543.78 347.503 543.739 347.828 543.546 348.068L542.137 349.819C541.871 350.149 541.897 350.627 542.197 350.926L544.835 353.564C545.134 353.864 545.612 353.89 545.942 353.624L547.694 352.214C547.933 352.022 548.257 351.981 548.541 352.098 548.544 352.099 548.547 352.101 548.55 352.102 548.836 352.219 549.037 352.478 549.071 352.784L549.313 355.02C549.358 355.442 549.714 355.761 550.138 355.761L553.869 355.761C554.293 355.761 554.648 355.442 554.694 355.02L554.936 352.784C554.969 352.478 555.171 352.219 555.456 352.102 555.459 352.101 555.462 352.099 555.465 352.098 555.749 351.981 556.073 352.022 556.312 352.214L558.065 353.624C558.395 353.89 558.872 353.864 559.172 353.564L561.81 350.926C562.11 350.627 562.135 350.149 561.87 349.819L560.46 348.068C560.268 347.828 560.227 347.503 560.345 347.219 560.346 347.215 560.348 347.212 560.349 347.209 560.467 346.924 560.725 346.723 561.031 346.69L563.266 346.448C563.687 346.403 564.007 346.047 564.007 345.623L564.007 341.892C564.007 341.469 563.687 341.113 563.266 341.067ZM552.003 347.5C549.937 347.5 548.261 345.825 548.261 343.758 548.261 341.691 549.937 340.016 552.003 340.016 554.07 340.016 555.746 341.691 555.746 343.758 555.746 345.825 554.07 347.5 552.003 347.5Z" fill="#4B4B4B"/><path d="M582.619 337.326 581.085 336.115C580.841 335.922 580.705 335.626 580.705 335.314 580.705 335.311 580.705 335.308 580.705 335.304 580.704 334.992 580.84 334.696 581.085 334.502L582.619 333.291C582.971 333.013 583.095 332.536 582.924 332.122L582.25 330.495C582.079 330.081 581.653 329.832 581.209 329.884L579.267 330.112C578.957 330.149 578.651 330.035 578.431 329.814 578.428 329.812 578.426 329.809 578.424 329.807 578.204 329.587 578.09 329.281 578.127 328.972L578.355 327.031C578.407 326.586 578.158 326.161 577.744 325.989L576.117 325.315C575.703 325.144 575.226 325.268 574.949 325.62L573.737 327.154C573.544 327.398 573.248 327.534 572.936 327.534 572.933 327.534 572.93 327.534 572.927 327.534 572.615 327.535 572.318 327.399 572.124 327.154L570.913 325.62C570.635 325.268 570.158 325.144 569.744 325.315L568.117 325.989C567.704 326.161 567.454 326.586 567.506 327.031L567.734 328.972C567.771 329.282 567.657 329.588 567.436 329.808 567.434 329.811 567.431 329.813 567.429 329.815 567.209 330.036 566.903 330.149 566.594 330.112L564.652 329.884C564.208 329.832 563.783 330.082 563.611 330.495L562.937 332.122C562.766 332.536 562.89 333.013 563.242 333.291L564.776 334.502C565.02 334.695 565.156 334.991 565.156 335.303 565.156 335.306 565.156 335.309 565.156 335.313 565.157 335.625 565.021 335.921 564.776 336.115L563.242 337.327C562.89 337.604 562.766 338.081 562.937 338.495L563.611 340.122C563.782 340.536 564.208 340.785 564.652 340.733L566.594 340.505C566.904 340.468 567.21 340.582 567.43 340.803 567.433 340.805 567.435 340.808 567.437 340.81 567.657 341.03 567.771 341.336 567.734 341.645L567.506 343.587C567.454 344.031 567.703 344.457 568.117 344.628L569.744 345.302C570.158 345.473 570.635 345.349 570.913 344.998L572.124 343.463C572.317 343.219 572.613 343.083 572.925 343.083 572.928 343.083 572.931 343.083 572.934 343.083 573.247 343.082 573.543 343.218 573.737 343.463L574.948 344.998C575.226 345.349 575.703 345.473 576.117 345.302L577.744 344.628C578.157 344.457 578.407 344.031 578.355 343.587L578.127 341.645C578.09 341.335 578.204 341.029 578.425 340.809 578.427 340.807 578.43 340.804 578.432 340.802 578.652 340.582 578.958 340.469 579.267 340.505L581.209 340.733C581.653 340.785 582.079 340.536 582.25 340.122L582.924 338.495C583.095 338.081 582.971 337.604 582.619 337.326ZM573.925 338.207C572.365 338.854 570.575 338.113 569.929 336.552 569.282 334.991 570.023 333.202 571.584 332.555 573.145 331.909 574.934 332.65 575.581 334.211 576.227 335.771 575.486 337.561 573.925 338.207Z" fill="#4B4B4B"/></g></g></g><path d="M412.5 156.167C412.5 150.276 417.276 145.5 423.167 145.5L582.833 145.5C588.724 145.5 593.5 150.276 593.5 156.167L593.5 198.833C593.5 204.724 588.724 209.5 582.833 209.5L423.167 209.5C417.276 209.5 412.5 204.724 412.5 198.833Z" stroke="#FFC000" stroke-width="0.666667" stroke-miterlimit="8" fill="url(#fill14)" fill-rule="evenodd"/><text font-family="Yu Gothic,Yu Gothic_MSFontService,sans-serif" font-weight="400" font-size="13" transform="translate(476.153 181)">事象伝達</text><path d="M10.1978 0 15.4796 7.31852 13.3009 8.18157 19.9538 14.4529 17.7751 15.5001 26 26 12.0515 17.9532 14.7117 16.8362 6.045 11.6819 9.15056 10.0894 0 4.68241Z" stroke="#2F528F" stroke-width="1.33333" stroke-miterlimit="8" stroke-opacity="0.701961" fill="#4472C4" fill-rule="evenodd" fill-opacity="0.701961" transform="matrix(-1 0 0 1 583.5 172.5)"/><path d="M430.5 237.5 575.5 237.5 575.5 303.333 562.333 316.5 430.5 316.5Z" fill="#D9D9D9" fill-rule="evenodd"/><path d="M562.333 316.5 564.966 305.966 575.5 303.333Z" fill="#AEAEAE" fill-rule="evenodd"/><path d="M562.333 316.5 564.966 305.966 575.5 303.333 562.333 316.5 430.5 316.5 430.5 237.5 575.5 237.5 575.5 303.333" stroke="#2F528F" stroke-width="1.33333" stroke-miterlimit="8" fill="none" fill-rule="evenodd"/><text font-family="Yu Gothic,Yu Gothic_MSFontService,sans-serif" font-weight="400" font-size="13" transform="translate(442.819 258)">プログラミング言語<tspan font-size="13" x="20" y="16">に変換された</tspan><tspan font-size="13" x="13.3333" y="32">コードロジック</tspan></text><path d="M425.5 290.5 425.5 283.5 346.5 283.5 346.5 269.5 425.5 269.5 425.5 262.5 439.5 276.5Z" stroke="#ED7D31" stroke-width="1.33333" stroke-miterlimit="8" stroke-opacity="0.501961" fill="#FFC000" fill-rule="evenodd" fill-opacity="0.501961"/><path d="M422.5 416.5 422.5 409.5 343.5 409.5 343.5 395.5 422.5 395.5 422.5 388.5 436.5 402.5Z" stroke="#ED7D31" stroke-width="1.33333" stroke-miterlimit="8" stroke-opacity="0.501961" fill="#FFC000" fill-rule="evenodd" fill-opacity="0.501961"/><path d="M557.5 150.5 550.5 150.5 550.5 229.5 536.5 229.5 536.5 150.5 529.5 150.5 543.5 136.5Z" stroke="#ED7D31" stroke-width="1.33333" stroke-miterlimit="8" stroke-opacity="0.501961" fill="#70AD47" fill-rule="evenodd" fill-opacity="0.501961"/><path d="M0 79.0001 7.00003 79.0001 7.00003 0 21 0 21 79.0001 28 79.0001 14.0001 93Z" stroke="#ED7D31" stroke-width="1.33333" stroke-miterlimit="8" stroke-opacity="0.501961" fill="#70AD47" fill-rule="evenodd" fill-opacity="0.501961" transform="matrix(-1 1.22465e-16 1.22465e-16 1 474.5 136.5)"/><path d="M425.5 183.5 425.5 176.5 346.5 176.5 346.5 162.5 425.5 162.5 425.5 155.5 439.5 169.5Z" stroke="#ED7D31" stroke-width="1.33333" stroke-miterlimit="8" stroke-opacity="0.501961" fill="#FFC000" fill-rule="evenodd" fill-opacity="0.501961"/><text font-family="Yu Gothic,Yu Gothic_MSFontService,sans-serif" font-weight="400" font-size="13" transform="translate(366.183 174)">事象<tspan font-size="13" x="-16.8725" y="107">アクション</tspan></text></g></svg>