<svg width="607" height="462" xmlns="http://www.w3.org/2000/svg" xmlns:xlink="http://www.w3.org/1999/xlink" overflow="hidden"><defs><clipPath id="clip0"><rect x="60" y="75" width="607" height="462"/></clipPath><linearGradient x1="210" y1="420.5" x2="210" y2="484.5" gradientUnits="userSpaceOnUse" spreadMethod="reflect" id="fill1"><stop offset="0" stop-color="#B1CBE9"/><stop offset="0.5" stop-color="#A3C1E5"/><stop offset="1" stop-color="#92B9E4"/></linearGradient><linearGradient x1="210" y1="270.5" x2="210" y2="409.5" gradientUnits="userSpaceOnUse" spreadMethod="reflect" id="fill2"><stop offset="0" stop-color="#B5D5A7"/><stop offset="0.5" stop-color="#AACE99"/><stop offset="1" stop-color="#9CCA86"/></linearGradient><clipPath id="clip3"><rect x="247" y="369" width="43" height="44"/></clipPath><clipPath id="clip4"><rect x="247" y="369" width="43" height="44"/></clipPath><clipPath id="clip5"><rect x="247" y="369" width="43" height="44"/></clipPath><linearGradient x1="210" y1="195.5" x2="210" y2="259.5" gradientUnits="userSpaceOnUse" spreadMethod="reflect" id="fill6"><stop offset="0" stop-color="#FFDD9C"/><stop offset="0.5" stop-color="#FFD78E"/><stop offset="1" stop-color="#FFD479"/></linearGradient><linearGradient x1="521" y1="420.5" x2="521" y2="484.5" gradientUnits="userSpaceOnUse" spreadMethod="reflect" id="fill7"><stop offset="0" stop-color="#B1CBE9"/><stop offset="0.5" stop-color="#A3C1E5"/><stop offset="1" stop-color="#92B9E4"/></linearGradient><linearGradient x1="521" y1="270.5" x2="521" y2="409.5" gradientUnits="userSpaceOnUse" spreadMethod="reflect" id="fill8"><stop offset="0" stop-color="#B5D5A7"/><stop offset="0.5" stop-color="#AACE99"/><stop offset="1" stop-color="#9CCA86"/></linearGradient><clipPath id="clip9"><rect x="576" y="376" width="30" height="30"/></clipPath><clipPath id="clip10"><rect x="576" y="376" width="30" height="30"/></clipPath><clipPath id="clip11"><rect x="576" y="376" width="30" height="30"/></clipPath><linearGradient x1="591.208" y1="404.095" x2="591.208" y2="377.497" gradientUnits="userSpaceOnUse" spreadMethod="pad" id="fill12"><stop offset="0" stop-color="#FEA11B"/><stop offset="0.284" stop-color="#FEA51A"/><stop offset="0.547" stop-color="#FEB018"/><stop offset="0.8" stop-color="#FFC314"/><stop offset="1" stop-color="#FFD70F"/></linearGradient><clipPath id="clip13"><rect x="576" y="452" width="30" height="31"/></clipPath><clipPath id="clip14"><rect x="576" y="452" width="30" height="31"/></clipPath><clipPath id="clip15"><rect x="576" y="452" width="30" height="31"/></clipPath><linearGradient x1="15.435" y1="-0.606667" x2="10.3633" y2="33.42" gradientUnits="userSpaceOnUse" spreadMethod="pad" id="fill16"><stop offset="0" stop-color="#32BEDD"/><stop offset="1" stop-color="#198AB3"/></linearGradient><linearGradient x1="17.9967" y1="12.3133" x2="24.0683" y2="31.7767" gradientUnits="userSpaceOnUse" spreadMethod="pad" id="fill17"><stop offset="0" stop-color="#50E6FF"/><stop offset="0.997" stop-color="#32BEDD"/><stop offset="1" stop-color="#32BEDD"/></linearGradient><linearGradient x1="-0.28" y1="6.85667" x2="20.9533" y2="18.1583" gradientUnits="userSpaceOnUse" spreadMethod="pad" id="fill18"><stop offset="0" stop-color="#FFFFFF"/><stop offset="1" stop-color="#9CEBFF"/></linearGradient><linearGradient x1="521" y1="195.5" x2="521" y2="259.5" gradientUnits="userSpaceOnUse" spreadMethod="reflect" id="fill19"><stop offset="0" stop-color="#FFDD9C"/><stop offset="0.5" stop-color="#FFD78E"/><stop offset="1" stop-color="#FFD479"/></linearGradient><clipPath id="clip20"><rect x="545" y="158" width="31" height="30"/></clipPath><clipPath id="clip21"><rect x="545" y="158" width="31" height="30"/></clipPath><clipPath id="clip22"><rect x="545" y="158" width="31" height="30"/></clipPath></defs><g clip-path="url(#clip0)" transform="translate(-60 -75)"><rect x="386" y="110" width="246" height="395" fill="#F2F2F2"/><text font-family="Yu Gothic,Yu Gothic_MSFontService,sans-serif" font-weight="400" font-size="13" transform="translate(429.069 127)">具体的な実装技術の割付け</text><rect x="87" y="110" width="247" height="395" fill="#F2F2F2"/><text font-family="Yu Gothic,Yu Gothic_MSFontService,sans-serif" font-weight="400" font-size="13" transform="translate(197.154 127)">雛形</text><rect x="61.5001" y="76.5001" width="605" height="460" stroke="#D9D9D9" stroke-width="1.33333" stroke-miterlimit="8" fill="none"/><path d="M119.5 431.167C119.5 425.276 160.018 420.5 210 420.5 259.982 420.5 300.5 425.276 300.5 431.167L300.5 473.833C300.5 479.724 259.982 484.5 210 484.5 160.018 484.5 119.5 479.724 119.5 473.833Z" fill="url(#fill1)" fill-rule="evenodd"/><path d="M300.5 431.167C300.5 437.058 259.982 441.833 210 441.833 160.018 441.833 119.5 437.058 119.5 431.167" stroke="#5B9BD5" stroke-width="0.666667" stroke-miterlimit="8" fill="none" fill-rule="evenodd"/><path d="M119.5 431.167C119.5 425.276 160.018 420.5 210 420.5 259.982 420.5 300.5 425.276 300.5 431.167L300.5 473.833C300.5 479.724 259.982 484.5 210 484.5 160.018 484.5 119.5 479.724 119.5 473.833Z" stroke="#5B9BD5" stroke-width="0.666667" stroke-miterlimit="8" fill="none" fill-rule="evenodd"/><text font-family="Yu Gothic,Yu Gothic_MSFontService,sans-serif" font-weight="400" font-size="13" transform="translate(163.055 454)">概念情報モデル<tspan font-size="13" x="13.3333" y="16">リポジトリ</tspan></text><path d="M119.5 280.044C119.5 274.773 123.773 270.5 129.044 270.5L290.956 270.5C296.227 270.5 300.5 274.773 300.5 280.044L300.5 399.956C300.5 405.227 296.227 409.5 290.956 409.5L129.044 409.5C123.773 409.5 119.5 405.227 119.5 399.956Z" stroke="#70AD47" stroke-width="0.666667" stroke-miterlimit="8" fill="url(#fill2)" fill-rule="evenodd"/><text font-family="Yu Gothic,Yu Gothic_MSFontService,sans-serif" font-weight="400" font-size="13" transform="translate(183.055 398)">実行環境</text><g clip-path="url(#clip3)"><g clip-path="url(#clip4)"><g clip-path="url(#clip5)"><path d="M23.266 22.0671 21.031 21.8251C20.7252 21.792 20.4667 21.591 20.3492 21.3068 20.3478 21.3034 20.3464 21.2999 20.345 21.2966 20.2272 21.0125 20.2678 20.6875 20.4606 20.4479L21.8699 18.6964C22.1356 18.3662 22.1098 17.8888 21.8101 17.5891L19.172 14.9511C18.8723 14.6513 18.395 14.6255 18.0647 14.8913L16.3125 16.3011C16.0734 16.4934 15.7494 16.5343 15.4657 16.4175 15.4626 16.4163 15.4595 16.415 15.4564 16.4137 15.1712 16.2967 14.9694 16.0377 14.9362 15.7311L14.6941 13.4951C14.6485 13.0737 14.2927 12.7544 13.8688 12.7544L10.1381 12.7544C9.71422 12.7544 9.35846 13.0737 9.31286 13.4951L9.07073 15.7311C9.03756 16.0376 8.83566 16.2967 8.55045 16.4137 8.54734 16.415 8.54423 16.4163 8.54121 16.4175 8.25751 16.5343 7.9335 16.4934 7.69448 16.3011L5.94206 14.8913C5.61184 14.6255 5.13447 14.6513 4.83481 14.9511L2.19678 17.5891C1.89704 17.8888 1.87126 18.3662 2.13698 18.6964L3.54624 20.4479C3.73907 20.6876 3.77963 21.0125 3.6618 21.2966 3.66037 21.2999 3.65903 21.3034 3.6576 21.3068 3.54011 21.591 3.28161 21.792 2.97582 21.8251L0.740742 22.0671C0.319309 22.1127 0 22.4685 0 22.8924L0 26.6231C0 27.047 0.319309 27.4028 0.740742 27.4484L2.97573 27.6903C3.28152 27.7234 3.54011 27.9245 3.65752 28.2087 3.65895 28.212 3.66029 28.2155 3.66172 28.2188 3.77955 28.503 3.73898 28.8279 3.54616 29.0676L2.1369 30.8191C1.87117 31.1493 1.89696 31.6267 2.1967 31.9264L4.83473 34.5644C5.13447 34.8642 5.61184 34.89 5.94206 34.6242L7.69431 33.2144C7.93333 33.022 8.25734 32.9812 8.54104 33.098 8.54415 33.0993 8.54726 33.1005 8.55037 33.1018 8.83558 33.2188 9.03739 33.4779 9.07056 33.7844L9.31269 36.0204C9.3583 36.4418 9.71405 36.7611 10.1379 36.7611L13.8687 36.7611C14.2925 36.7611 14.6483 36.4418 14.6939 36.0204L14.936 33.7844C14.9692 33.4779 15.171 33.2188 15.4562 33.1018 15.4593 33.1005 15.4624 33.0993 15.4655 33.098 15.7492 32.9812 16.0732 33.022 16.3123 33.2144L18.0645 34.6242C18.3948 34.89 18.8721 34.8642 19.1719 34.5644L21.8099 31.9264C22.1096 31.6267 22.1353 31.1493 21.8697 30.8191L20.4604 29.0676C20.2676 28.828 20.227 28.503 20.3449 28.2188 20.3462 28.2155 20.3477 28.2121 20.3491 28.2087 20.4666 27.9245 20.7251 27.7234 21.0309 27.6903L23.2659 27.4484C23.6872 27.4027 24.0066 27.0469 24.0066 26.6231L24.0066 22.8924C24.0068 22.4685 23.6875 22.1127 23.266 22.0671ZM12.0034 28.5C9.93661 28.5 8.26112 26.8245 8.26112 24.7578 8.26112 22.691 9.93661 21.0155 12.0034 21.0155 14.0702 21.0155 15.7456 22.691 15.7456 24.7578 15.7456 26.8245 14.0702 28.5 12.0034 28.5Z" fill="#4B4B4B" transform="matrix(1 0 0 1.02326 247 369)"/><path d="M42.6195 18.3264 41.0852 17.1148C40.8408 16.9218 40.705 16.6259 40.7049 16.3144 40.7049 16.3111 40.7049 16.3078 40.7049 16.3045 40.7044 15.9923 40.8402 15.6957 41.0852 15.5023L42.6195 14.2905C42.9709 14.013 43.0952 13.5359 42.9238 13.1223L42.2499 11.4952C42.0785 11.0815 41.6532 10.8321 41.2086 10.8843L39.2669 11.1124C38.9568 11.1488 38.651 11.0351 38.4307 10.814 38.4285 10.8116 38.4261 10.8093 38.4238 10.807 38.2036 10.5867 38.0904 10.2815 38.1267 9.97214L38.3548 8.0305C38.4071 7.58589 38.1575 7.16059 37.7439 6.98926L36.1168 6.31537C35.7032 6.14404 35.2261 6.26834 34.9486 6.61965L33.7369 8.15387C33.5438 8.39835 33.2479 8.53399 32.9365 8.53416 32.9331 8.53416 32.9299 8.53416 32.9266 8.53416 32.6145 8.53466 32.3179 8.39886 32.1244 8.15387L30.9126 6.61956C30.6351 6.26817 30.1579 6.14388 29.7443 6.31521L28.1172 6.98918C27.7036 7.16051 27.4541 7.5858 27.5063 8.0305L27.7344 9.97222C27.7709 10.2822 27.6571 10.588 27.436 10.8084 27.4337 10.8107 27.4313 10.8131 27.429 10.8154 27.2086 11.0356 26.9035 11.1488 26.5941 11.1125L24.6524 10.8844C24.2077 10.8321 23.7825 11.0817 23.6112 11.4953L22.9372 13.1224C22.7659 13.536 22.8902 14.0132 23.2416 14.2907L24.7758 15.5023C25.0203 15.6954 25.1559 15.9912 25.1561 16.3027 25.1561 16.3061 25.1561 16.3093 25.1561 16.3126 25.1567 16.6248 25.0208 16.9214 24.7758 17.1148L23.2415 18.3266C22.8901 18.6041 22.7658 19.0812 22.9372 19.4948L23.6111 21.1219C23.7824 21.5355 24.2077 21.785 24.6524 21.7328L26.5942 21.5047C26.9041 21.4683 27.2099 21.582 27.4303 21.8031 27.4327 21.8055 27.4349 21.8078 27.4373 21.8101 27.6575 22.0304 27.7707 22.3356 27.7343 22.645L27.5062 24.5867C27.454 25.0314 27.7035 25.4566 28.1171 25.6279L29.7442 26.3019C30.1579 26.4732 30.635 26.3489 30.9125 25.9975L32.1242 24.4633C32.3173 24.2188 32.6131 24.0832 32.9246 24.083 32.9278 24.083 32.9311 24.083 32.9345 24.083 33.2466 24.0824 33.5433 24.2183 33.7367 24.4633L34.9484 25.9976C35.2259 26.349 35.703 26.4733 36.1167 26.302L37.7438 25.628C38.1575 25.4567 38.407 25.0314 38.3547 24.5868L38.1266 22.645C38.0902 22.3351 38.2039 22.0292 38.425 21.8089 38.4274 21.8065 38.4297 21.8042 38.4321 21.8019 38.6525 21.5818 38.9576 21.4685 39.267 21.5049L41.2087 21.733C41.6534 21.7852 42.0786 21.5357 42.2499 21.1221L42.9239 19.495C43.0951 19.0811 42.9709 18.6039 42.6195 18.3264ZM33.9253 19.2073C32.3646 19.8538 30.5752 19.1127 29.9287 17.5518 29.2822 15.991 30.0234 14.2017 31.5842 13.5552 33.1449 12.9087 34.9343 13.6498 35.5808 15.2107 36.2272 16.7714 35.4861 18.5609 33.9253 19.2073Z" fill="#4B4B4B" transform="matrix(1 0 0 1.02326 247 369)"/></g></g></g><path d="M119.5 206.167C119.5 200.276 124.276 195.5 130.167 195.5L289.833 195.5C295.724 195.5 300.5 200.276 300.5 206.167L300.5 248.833C300.5 254.724 295.724 259.5 289.833 259.5L130.167 259.5C124.276 259.5 119.5 254.724 119.5 248.833Z" stroke="#FFC000" stroke-width="0.666667" stroke-miterlimit="8" fill="url(#fill6)" fill-rule="evenodd"/><text font-family="Yu Gothic,Yu Gothic_MSFontService,sans-serif" font-weight="400" font-size="13" transform="translate(183.055 231)">事象伝達</text><path d="M10.1978 0 15.4796 7.31852 13.3009 8.18157 19.9538 14.4529 17.7751 15.5001 26 26 12.0515 17.9532 14.7117 16.8362 6.045 11.6819 9.15056 10.0894 0 4.68241Z" stroke="#2F528F" stroke-width="1.33333" stroke-miterlimit="8" stroke-opacity="0.701961" fill="#4472C4" fill-rule="evenodd" fill-opacity="0.701961" transform="matrix(-1 0 0 1 290.5 222.5)"/><path d="M137.5 287.5 282.5 287.5 282.5 353.333 269.333 366.5 137.5 366.5Z" fill="#D9D9D9" fill-rule="evenodd"/><path d="M269.333 366.5 271.966 355.966 282.5 353.333Z" fill="#AEAEAE" fill-rule="evenodd"/><path d="M269.333 366.5 271.966 355.966 282.5 353.333 269.333 366.5 137.5 366.5 137.5 287.5 282.5 287.5 282.5 353.333" stroke="#2F528F" stroke-width="1.33333" stroke-miterlimit="8" fill="none" fill-rule="evenodd"/><text font-family="Yu Gothic,Yu Gothic_MSFontService,sans-serif" font-weight="400" font-size="13" transform="translate(149.722 308)">プログラミング言語<tspan font-size="13" x="20" y="16">に変換された</tspan><tspan font-size="13" x="13.3333" y="32">コードロジック</tspan></text><path d="M264.5 200.5 257.5 200.5 257.5 279.5 243.5 279.5 243.5 200.5 236.5 200.5 250.5 186.5Z" stroke="#ED7D31" stroke-width="1.33333" stroke-miterlimit="8" stroke-opacity="0.501961" fill="#70AD47" fill-rule="evenodd" fill-opacity="0.501961"/><path d="M0 79.0001 7.00003 79.0001 7.00003 0 21 0 21 79.0001 28 79.0001 14.0001 93Z" stroke="#ED7D31" stroke-width="1.33333" stroke-miterlimit="8" stroke-opacity="0.501961" fill="#70AD47" fill-rule="evenodd" fill-opacity="0.501961" transform="matrix(-1 1.22465e-16 1.22465e-16 1 181.5 186.5)"/><path d="M430.5 431.167C430.5 425.276 471.018 420.5 521 420.5 570.982 420.5 611.5 425.276 611.5 431.167L611.5 473.833C611.5 479.724 570.982 484.5 521 484.5 471.018 484.5 430.5 479.724 430.5 473.833Z" fill="url(#fill7)" fill-rule="evenodd"/><path d="M611.5 431.167C611.5 437.058 570.982 441.833 521 441.833 471.018 441.833 430.5 437.058 430.5 431.167" stroke="#5B9BD5" stroke-width="3" stroke-miterlimit="8" fill="none" fill-rule="evenodd"/><path d="M430.5 431.167C430.5 425.276 471.018 420.5 521 420.5 570.982 420.5 611.5 425.276 611.5 431.167L611.5 473.833C611.5 479.724 570.982 484.5 521 484.5 471.018 484.5 430.5 479.724 430.5 473.833Z" stroke="#5B9BD5" stroke-width="3" stroke-miterlimit="8" fill="none" fill-rule="evenodd"/><text font-family="Calibri,Calibri_MSFontService,sans-serif" font-weight="400" font-size="13" transform="translate(469.056 462)">Azure Digital Twins</text><path d="M430.5 280.044C430.5 274.773 434.773 270.5 440.044 270.5L601.956 270.5C607.227 270.5 611.5 274.773 611.5 280.044L611.5 399.956C611.5 405.227 607.227 409.5 601.956 409.5L440.044 409.5C434.773 409.5 430.5 405.227 430.5 399.956Z" stroke="#70AD47" stroke-width="3" stroke-miterlimit="8" fill="url(#fill8)" fill-rule="evenodd"/><text font-family="Calibri,Calibri_MSFontService,sans-serif" font-weight="400" font-size="13" transform="translate(477.056 398)">Azure Functions</text><g clip-path="url(#clip9)"><g clip-path="url(#clip10)"><g clip-path="url(#clip11)"><path d="M585.234 397.842 584.257 398.821C584.084 398.995 583.802 398.996 583.628 398.822L576.372 391.587C576.025 391.241 576.024 390.678 576.37 390.331L577.352 389.346 577.352 389.346 585.238 397.21C585.412 397.384 585.412 397.665 585.239 397.839Z" fill="#50E6FF"/><path d="M584.106 383.175 585.089 384.155C585.263 384.329 585.263 384.61 585.09 384.784L577.342 392.554 577.342 392.554 576.358 391.572C576.011 391.226 576.01 390.663 576.356 390.316L583.479 383.173C583.653 383.002 583.932 383.002 584.106 383.175Z" fill="#1490DF"/><path d="M604.649 389.353 605.63 390.336C605.976 390.684 605.975 391.246 605.628 391.593L598.372 398.828C598.198 399.001 597.916 399.001 597.743 398.827L596.767 397.849C596.594 397.675 596.594 397.393 596.768 397.219L604.653 389.357 604.653 389.357Z" fill="#50E6FF"/><path d="M605.637 391.568 604.654 392.548 604.654 392.548 596.906 384.779C596.733 384.605 596.733 384.323 596.907 384.15L597.89 383.169C598.064 382.996 598.346 382.996 598.52 383.17L605.642 390.313C605.988 390.66 605.987 391.223 605.64 391.569Z" fill="#1490DF"/><path d="M590.098 392.5 584.117 392.5C583.942 392.507 583.794 392.373 583.783 392.198 583.783 392.155 583.794 392.112 583.813 392.073L590.985 377.883C591.047 377.771 591.167 377.703 591.295 377.707L598.37 377.707C598.545 377.7 598.693 377.834 598.703 378.008 598.703 378.069 598.682 378.127 598.645 378.175L590.223 389.277 598.437 389.277C598.611 389.27 598.759 389.404 598.77 389.578 598.769 389.655 598.738 389.728 598.683 389.782L585.035 403.98C584.907 404.057 583.995 404.813 584.442 403.665L584.442 403.665Z" fill="url(#fill12)"/></g></g></g><g clip-path="url(#clip13)"><g clip-path="url(#clip14)"><g clip-path="url(#clip15)"><path d="M24.0467 5.58333 15.3883 0.583333C14.0361-0.196605 12.3706-0.196605 11.0183 0.583333L2.36 5.58333C1.00853 6.3648 0.175862 7.80719 0.175 9.36833L0.175 19.3683C0.175268 20.9301 1.00801 22.3732 2.36 23.155L11.0267 28.155C12.3789 28.9349 14.0444 28.9349 15.3967 28.155L24.0633 23.155C25.4153 22.3732 26.2481 20.9301 26.2483 19.3683L26.2483 9.36833C26.244 7.80375 25.4046 6.36056 24.0467 5.58333Z" fill="url(#fill16)" transform="matrix(1 0 0 1.03333 576 452)"/><path d="M28.07 12.905 21.9817 9.39C20.895 8.76339 19.5567 8.76339 18.47 9.39L12.3833 12.905C11.2957 13.5305 10.6262 14.6904 10.6283 15.945L10.6283 22.975C10.6282 24.2291 11.2973 25.388 12.3833 26.015L18.47 29.53C19.5567 30.1566 20.895 30.1566 21.9817 29.53L28.07 26.015C29.1588 25.3896 29.831 24.2306 29.8333 22.975L29.8333 15.945C29.8314 14.6893 29.159 13.5302 28.07 12.905Z" fill="url(#fill17)" transform="matrix(1 0 0 1.03333 576 452)"/><path d="M12.63 4.93833 14.3833 3.96833 21.9 19.5467 21.29 20.2133 4.725 20.2133 4.91167 18.2183 18.88 18.2183 12.63 4.93833Z" fill="url(#fill18)" transform="matrix(1 0 0 1.03333 576 452)"/><path d="M7.05333 19.3083C7.05333 20.689 5.93404 21.8083 4.55333 21.8083 3.17262 21.8083 2.05333 20.689 2.05333 19.3083 2.05333 17.9276 3.17262 16.8083 4.55333 16.8083 5.93404 16.8083 7.05333 17.9276 7.05333 19.3083Z" fill="#FFFFFF" transform="matrix(1 0 0 1.03333 576 452)"/><path d="M24.1333 19.46C24.1333 21.6176 22.3843 23.3667 20.2267 23.3667 18.0691 23.3667 16.32 21.6176 16.32 19.46 16.32 17.3024 18.0691 15.5533 20.2267 15.5533 22.3843 15.5533 24.1333 17.3024 24.1333 19.46Z" fill="#FFFFFF" transform="matrix(1 0 0 1.03333 576 452)"/><path d="M15.9017 4.26333C15.9017 5.64405 14.7824 6.76333 13.4017 6.76333 12.021 6.76333 10.9017 5.64405 10.9017 4.26333 10.9017 2.88262 12.021 1.76333 13.4017 1.76333 14.7824 1.76333 15.9017 2.88262 15.9017 4.26333Z" fill="#FFFFFF" transform="matrix(1 0 0 1.03333 576 452)"/></g></g></g><path d="M430.5 206.167C430.5 200.276 435.276 195.5 441.167 195.5L600.833 195.5C606.724 195.5 611.5 200.276 611.5 206.167L611.5 248.833C611.5 254.724 606.724 259.5 600.833 259.5L441.167 259.5C435.276 259.5 430.5 254.724 430.5 248.833Z" stroke="#FFC000" stroke-width="3" stroke-miterlimit="8" fill="url(#fill19)" fill-rule="evenodd"/><text font-family="Yu Gothic,Yu Gothic_MSFontService,sans-serif" font-weight="400" font-size="13" transform="translate(493.806 231)">事象伝達</text><path d="M575.5 200.5 568.5 200.5 568.5 279.5 554.5 279.5 554.5 200.5 547.5 200.5 561.5 186.5Z" stroke="#ED7D31" stroke-width="1.33333" stroke-miterlimit="8" stroke-opacity="0.501961" fill="#70AD47" fill-rule="evenodd" fill-opacity="0.501961"/><path d="M0 79.0001 7.00003 79.0001 7.00003 0 21 0 21 79.0001 28 79.0001 14.0001 93Z" stroke="#ED7D31" stroke-width="1.33333" stroke-miterlimit="8" stroke-opacity="0.501961" fill="#70AD47" fill-rule="evenodd" fill-opacity="0.501961" transform="matrix(-1 1.22465e-16 1.22465e-16 1 491.5 186.5)"/><text font-family="Calibri,Calibri_MSFontService,sans-serif" font-weight="400" font-size="13" transform="translate(441.105 175)">HTTP Binding</text><g clip-path="url(#clip20)"><g clip-path="url(#clip21)"><g clip-path="url(#clip22)"><path d="M18.05 14.0333C18.0597 14.2666 17.8828 14.4656 17.65 14.4833L14.1667 14.4833C13.9334 14.493 13.7344 14.3161 13.7167 14.0833L13.7167 11.4833C13.707 11.2501 13.8839 11.0511 14.1167 11.0333L17.6 11.0333C17.8333 11.0237 18.0322 11.2005 18.05 11.4333L18.05 14.0333Z" fill="#76BC2D" transform="matrix(1.03333 0 0 1 545 158)"/><path d="M24.2333 16.6667C24.243 16.8999 24.0661 17.0989 23.8333 17.1167L20.35 17.1167C20.1167 17.1263 19.9178 16.9495 19.9 16.7167L19.9 14.1333C19.8903 13.9001 20.0672 13.7011 20.3 13.6833L23.7833 13.6833C24.0166 13.6737 24.2156 13.8505 24.2333 14.0833L24.2333 16.6667Z" fill="#76BC2D" transform="matrix(1.03333 0 0 1 545 158)"/><path d="M18.05 19.3333C18.0597 19.5666 17.8828 19.7656 17.65 19.7833L14.1667 19.7833C13.9334 19.793 13.7344 19.6161 13.7167 19.3833L13.7167 16.7833C13.707 16.5501 13.8839 16.3511 14.1167 16.3333L17.6 16.3333C17.8333 16.3237 18.0322 16.5005 18.05 16.7333L18.05 19.3333Z" fill="#76BC2D" transform="matrix(1.03333 0 0 1 545 158)"/><path d="M11.8667 11.4C11.8763 11.6241 11.7069 11.8156 11.4833 11.8333L7.9 11.8333C7.6726 11.8436 7.47603 11.6761 7.45 11.45L7.45 8.75C7.45784 8.52954 7.63005 8.35016 7.85 8.33333L11.3333 8.33333C11.7 8.33333 11.8667 8.51667 11.8667 8.78333Z" fill="#86D633" transform="matrix(1.03333 0 0 1 545 158)"/><path d="M11.8667 16.6667C11.8858 16.896 11.7153 17.0974 11.486 17.1165 11.4851 17.1165 11.4842 17.1166 11.4833 17.1167L7.9 17.1167C7.66086 17.1261 7.45939 16.9398 7.45 16.7007 7.44955 16.6893 7.44955 16.678 7.45 16.6667L7.45 14.0333C7.44933 13.8064 7.62378 13.6175 7.85 13.6L11.3333 13.6C11.7 13.6 11.8667 13.7833 11.8667 14.0333Z" fill="#76BC2D" transform="matrix(1.03333 0 0 1 545 158)"/><path d="M11.8667 21.9833C11.8858 22.2127 11.7153 22.414 11.486 22.4331 11.4851 22.4332 11.4842 22.4333 11.4833 22.4333L7.9 22.4333C7.66674 22.443 7.46776 22.2661 7.45 22.0333L7.45 19.3333C7.44062 19.1034 7.61941 18.9094 7.84933 18.9 7.84956 18.9 7.84978 18.9 7.85 18.9L11.3333 18.9C11.7 18.9 11.8667 19.0667 11.8667 19.3333Z" fill="#76BC2D" transform="matrix(1.03333 0 0 1 545 158)"/><path d="M1.78333 2.51667 3.93333 2.51667 3.93333 2.51667 3.93333 8.51667C3.93333 8.7836 3.71694 9 3.45 9L1.31667 9C1.04973 9 0.833333 8.7836 0.833333 8.51667L0.833333 3.51667C0.805719 2.99272 1.20807 2.5456 1.73202 2.51798 1.74911 2.51708 1.76622 2.51664 1.78333 2.51667Z" fill="#999999" transform="matrix(1.03333 0 0 1 545 158)"/><path d="M1.78333 2.51667 3.93333 2.51667 3.93333 2.51667 3.93333 8.51667C3.93333 8.7836 3.71694 9 3.45 9L1.31667 9C1.04973 9 0.833333 8.7836 0.833333 8.51667L0.833333 3.51667C0.805719 2.99272 1.20807 2.5456 1.73202 2.51798 1.74911 2.51708 1.76622 2.51664 1.78333 2.51667Z" fill="#999999" fill-opacity="0.5" transform="matrix(1.03333 0 0 1 545 158)"/><path d="M26.0667 2.51667 28.2167 2.51667C28.7413 2.51667 29.1667 2.942 29.1667 3.46667L29.1667 8.46667C29.1667 8.7336 28.9503 8.95 28.6833 8.95L26.5333 8.95C26.2664 8.95 26.05 8.7336 26.05 8.46667L26.05 2.51667 26.0667 2.51667Z" fill="#999999" transform="matrix(1.03333 0 0 1 545 158)"/><path d="M26.0667 2.51667 28.2167 2.51667C28.7413 2.51667 29.1667 2.942 29.1667 3.46667L29.1667 8.46667C29.1667 8.7336 28.9503 8.95 28.6833 8.95L26.5333 8.95C26.2664 8.95 26.05 8.7336 26.05 8.46667L26.05 2.51667 26.0667 2.51667Z" fill="#999999" fill-opacity="0.5" transform="matrix(1.03333 0 0 1 545 158)"/><path d="M14.4333-10.1333 16.5167-10.1333 16.5167-10.1333 16.5167 18.2 16.5167 18.2 14.4333 18.2C13.9087 18.2 13.4833 17.7747 13.4833 17.25L13.4833-9.2C13.4924-9.71815 13.9151-10.1334 14.4333-10.1333Z" fill="#949494" transform="matrix(6.32734e-17 1 -1.03333 6.12323e-17 564.668 147.033)"/><path d="M1.31667 21.2667 3.46667 21.2667C3.7336 21.2667 3.95 21.4831 3.95 21.75L3.95 27.75 3.95 27.75 1.78333 27.75C1.25866 27.75 0.833333 27.3247 0.833333 26.8L0.833333 21.6667C0.874262 21.4327 1.07915 21.2631 1.31667 21.2667Z" fill="#999999" transform="matrix(1.03333 0 0 1 545 158)"/><path d="M1.31667 21.2667 3.46667 21.2667C3.7336 21.2667 3.95 21.4831 3.95 21.75L3.95 27.75 3.95 27.75 1.78333 27.75C1.25866 27.75 0.833333 27.3247 0.833333 26.8L0.833333 21.6667C0.874262 21.4327 1.07915 21.2631 1.31667 21.2667Z" fill="#999999" fill-opacity="0.5" transform="matrix(1.03333 0 0 1 545 158)"/><path d="M26.5333 21.2667 28.6833 21.2667C28.9503 21.2667 29.1667 21.4831 29.1667 21.75L29.1667 26.75C29.1667 27.2747 28.7413 27.7 28.2167 27.7L26.0667 27.7 26.0667 27.7 26.0667 21.6667C26.1065 21.4389 26.3021 21.2712 26.5333 21.2667Z" fill="#999999" transform="matrix(1.03333 0 0 1 545 158)"/><path d="M26.5333 21.2667 28.6833 21.2667C28.9503 21.2667 29.1667 21.4831 29.1667 21.75L29.1667 26.75C29.1667 27.2747 28.7413 27.7 28.2167 27.7L26.0667 27.7 26.0667 27.7 26.0667 21.6667C26.1065 21.4389 26.3021 21.2712 26.5333 21.2667Z" fill="#999999" fill-opacity="0.5" transform="matrix(1.03333 0 0 1 545 158)"/><path d="M14.4333 12.0667 16.5167 12.0667 16.5167 12.0667 16.5167 40.4 16.5167 40.4 14.4333 40.4C13.9087 40.4 13.4833 39.9747 13.4833 39.45L13.4833 13.0167C13.4833 12.492 13.9087 12.0667 14.4333 12.0667Z" fill="#949494" transform="matrix(6.32734e-17 -1 1.03333 6.12323e-17 533.392 199.233)"/></g></g></g><text font-family="Calibri,Calibri_MSFontService,sans-serif" font-weight="400" font-size="13" transform="translate(512.402 154)">Azure Event Hubs</text><path d="M448.5 287.5 593.5 287.5 593.5 353.333 580.333 366.5 448.5 366.5Z" fill="#D9D9D9" fill-rule="evenodd"/><path d="M580.333 366.5 582.966 355.966 593.5 353.333Z" fill="#AEAEAE" fill-rule="evenodd"/><path d="M580.333 366.5 582.966 355.966 593.5 353.333 580.333 366.5 448.5 366.5 448.5 287.5 593.5 287.5 593.5 353.333" stroke="#2F528F" stroke-width="1.33333" stroke-miterlimit="8" fill="none" fill-rule="evenodd"/><text font-family="Calibri,Calibri_MSFontService,sans-serif" font-weight="400" font-size="13" transform="translate(473.556 316)">C#<tspan font-family="Yu Gothic,Yu Gothic_MSFontService,sans-serif" font-size="13" x="13.8333" y="0">に変換された</tspan><tspan font-family="Yu Gothic,Yu Gothic_MSFontService,sans-serif" font-size="13" x="0.253357" y="16">コードロジック</tspan></text><path d="M0 24 92.5 0 185 24Z" fill="#FF0000" fill-rule="evenodd" fill-opacity="0.501961" transform="matrix(-1.83697e-16 -1 -1 1.83697e-16 372 400)"/></g></svg>