<svg width="607" height="802" xmlns="http://www.w3.org/2000/svg" xmlns:xlink="http://www.w3.org/1999/xlink" overflow="hidden"><defs><clipPath id="clip0"><rect x="65" y="58" width="607" height="802"/></clipPath><clipPath id="clip1"><rect x="368" y="272" width="222" height="101"/></clipPath><clipPath id="clip2"><rect x="368" y="272" width="222" height="101"/></clipPath><clipPath id="clip3"><rect x="368" y="272" width="222" height="101"/></clipPath><clipPath id="clip4"><rect x="368" y="272" width="222" height="101"/></clipPath><clipPath id="clip5"><rect x="136" y="108" width="125" height="61"/></clipPath><clipPath id="clip6"><rect x="136" y="108" width="125" height="61"/></clipPath><clipPath id="clip7"><rect x="136" y="108" width="125" height="61"/></clipPath><clipPath id="clip8"><rect x="136" y="108" width="125" height="61"/></clipPath><clipPath id="clip9"><rect x="104" y="397" width="125" height="61"/></clipPath><clipPath id="clip10"><rect x="104" y="397" width="125" height="61"/></clipPath><clipPath id="clip11"><rect x="104" y="397" width="125" height="61"/></clipPath><clipPath id="clip12"><rect x="104" y="397" width="125" height="61"/></clipPath><clipPath id="clip13"><rect x="116" y="586" width="125" height="61"/></clipPath><clipPath id="clip14"><rect x="116" y="586" width="125" height="61"/></clipPath><clipPath id="clip15"><rect x="116" y="586" width="125" height="61"/></clipPath><clipPath id="clip16"><rect x="116" y="586" width="125" height="61"/></clipPath><clipPath id="clip17"><rect x="343" y="614" width="222" height="101"/></clipPath><clipPath id="clip18"><rect x="343" y="614" width="222" height="101"/></clipPath><clipPath id="clip19"><rect x="343" y="614" width="222" height="101"/></clipPath><clipPath id="clip20"><rect x="343" y="614" width="222" height="101"/></clipPath></defs><g clip-path="url(#clip0)" transform="translate(-65 -58)"><rect x="122" y="74" width="148" height="102" fill="#F2F2F2"/><rect x="180" y="201" width="87" height="61" fill="#F2F2F2"/><rect x="357" y="237" width="295" height="151" fill="#F2F2F2"/><rect x="66.5001" y="60.5001" width="605" height="799" stroke="#D9D9D9" stroke-width="1.33333" stroke-miterlimit="8" fill="none"/><rect x="600.5" y="301.5" width="28" height="28" stroke="#2F528F" stroke-width="3" stroke-miterlimit="8" fill="#FFFFFF"/><path d="M606.5 316C606.5 311.306 610.306 307.5 615 307.5 619.694 307.5 623.5 311.306 623.5 316 623.5 320.694 619.694 324.5 615 324.5 610.306 324.5 606.5 320.694 606.5 316Z" stroke="#AE5A21" stroke-width="1.33333" stroke-miterlimit="8" fill="#FFFFFF" fill-rule="evenodd"/><path d="M600.5 298.5 601.75 293.5 627.25 293.5 628.5 298.5Z" stroke="#2F528F" stroke-width="3" stroke-miterlimit="8" fill="#FFFFFF" fill-rule="evenodd"/><path d="M0 5 1.24999 0 26.75 0 28 5Z" stroke="#2F528F" stroke-width="3" stroke-miterlimit="8" fill="#FFFFFF" fill-rule="evenodd" transform="matrix(1 0 0 -1 600.5 338.5)"/><rect x="603.5" y="285.5" width="22" height="4" stroke="#2F528F" stroke-width="3" stroke-miterlimit="8" fill="#FFFFFF"/><path d="M618.475 320.337 610.525 313.806 609.764 314.733 609.433 311.355 612.81 311.024 612.049 311.951 619.998 318.482Z" stroke="#AE5A21" stroke-width="1.33333" stroke-miterlimit="8" fill="#ED7D31" fill-rule="evenodd"/><g clip-path="url(#clip1)"><g clip-path="url(#clip2)"><g clip-path="url(#clip3)"><g clip-path="url(#clip4)"><path d="M568.011 505.531C568.011 503.211 569.892 501.33 572.213 501.33L640.249 501.33C642.57 501.33 644.451 503.211 644.451 505.531L644.451 522.337C644.451 524.658 642.57 526.538 640.249 526.538L572.213 526.538C569.892 526.538 568.011 524.658 568.011 522.337Z" stroke="#000000" stroke-width="1.08425" stroke-miterlimit="8" fill="#FFFFFF" fill-rule="evenodd" transform="matrix(1 0 0 1.00163 -198.791 -224.04)"/><text font-family="Calibri,Calibri_MSFontService,sans-serif" font-weight="400" font-size="13" transform="matrix(0.813187 0 0 0.814516 401.74 294)">S1</text><path d="M568.011 555.136C568.011 552.815 569.892 550.934 572.213 550.934L640.249 550.934C642.57 550.934 644.451 552.815 644.451 555.136L644.451 571.941C644.451 574.262 642.57 576.143 640.249 576.143L572.213 576.143C569.892 576.143 568.011 574.262 568.011 571.941Z" stroke="#000000" stroke-width="1.08425" stroke-miterlimit="8" fill="#FFFFFF" fill-rule="evenodd" transform="matrix(1 0 0 1.00163 -198.791 -224.04)"/><text font-family="Calibri,Calibri_MSFontService,sans-serif" font-weight="400" font-size="13" transform="matrix(0.813187 0 0 0.814516 401.74 344)">S2</text><path d="M692.429 555.136C692.429 552.815 694.309 550.934 696.63 550.934L763.853 550.934C766.174 550.934 768.055 552.815 768.055 555.136L768.055 571.941C768.055 574.262 766.174 576.143 763.853 576.143L696.63 576.143C694.309 576.143 692.429 574.262 692.429 571.941Z" stroke="#000000" stroke-width="1.08425" stroke-miterlimit="8" fill="#FFFFFF" fill-rule="evenodd" transform="matrix(1 0 0 1.00163 -198.791 -224.04)"/><text font-family="Calibri,Calibri_MSFontService,sans-serif" font-weight="400" font-size="13" transform="matrix(0.813187 0 0 0.814516 525.886 344)">S<tspan font-size="13" x="5.99996" y="0">3</tspan></text><path d="M692.429 506.345C692.429 504.024 694.309 502.143 696.63 502.143L763.853 502.143C766.174 502.143 768.055 504.024 768.055 506.345L768.055 523.15C768.055 525.471 766.174 527.352 763.853 527.352L696.63 527.352C694.309 527.352 692.429 525.471 692.429 523.15Z" stroke="#000000" stroke-width="1.08425" stroke-miterlimit="8" fill="#FFFFFF" fill-rule="evenodd" transform="matrix(1 0 0 1.00163 -198.791 -224.04)"/><text font-family="Calibri,Calibri_MSFontService,sans-serif" font-weight="400" font-size="13" transform="matrix(0.813187 0 0 0.814516 525.886 294)">S<tspan font-size="13" x="5.99996" y="0">4</tspan></text><path d="M606.773 526.538 606.773 549.861 605.688 549.861 605.688 526.538ZM610.494 543.628 606.231 550.937 601.968 543.628C601.817 543.37 601.905 543.038 602.163 542.887 602.422 542.736 602.754 542.823 602.904 543.082L606.699 549.587 605.762 549.587 609.558 543.082C609.708 542.823 610.041 542.736 610.299 542.887 610.558 543.038 610.645 543.37 610.494 543.628Z" transform="matrix(1 0 0 1.00163 -198.791 -224.04)"/><path d="M644.451 563.403 691.719 563.403 691.719 564.487 644.451 564.487ZM685.487 559.682 692.795 563.945 685.487 568.209C685.229 568.359 684.896 568.272 684.746 568.013 684.594 567.755 684.682 567.422 684.941 567.272L691.446 563.477 691.446 564.413 684.941 560.618C684.682 560.468 684.594 560.136 684.746 559.878 684.896 559.619 685.229 559.531 685.487 559.682Z" transform="matrix(1 0 0 1.00163 -198.791 -224.04)"/><path d="M730.106 551.272 730.106 528.425 731.191 528.425 731.191 551.272ZM726.386 534.657 730.648 527.349 734.912 534.657C735.062 534.916 734.975 535.248 734.717 535.399 734.458 535.549 734.126 535.462 733.975 535.204L730.18 528.698 731.117 528.698 727.322 535.204C727.171 535.462 726.839 535.549 726.581 535.399 726.322 535.248 726.234 534.916 726.386 534.657Z" transform="matrix(1 0 0 1.00163 -198.791 -224.04)"/><path d="M692.787 515.357 645.519 514.894 645.53 513.809 692.798 514.273ZM651.714 518.676 644.448 514.341 651.798 510.15C652.058 510.001 652.389 510.092 652.538 510.352 652.686 510.612 652.595 510.943 652.335 511.091L645.792 514.822 645.802 513.885 652.269 517.744C652.527 517.898 652.611 518.23 652.457 518.488 652.304 518.745 651.971 518.829 651.714 518.676Z" transform="matrix(1 0 0 1.00163 -198.791 -224.04)"/><path d="M731.188 576.505 731.341 578.334 731.323 578.234 731.832 580.064 731.79 579.958 733.62 583.465 733.552 583.366 736.348 586.669 736.272 586.595 739.981 589.543 739.915 589.497 744.235 591.988 744.164 591.954 749.043 593.885 748.968 593.861 754.152 595.081 754.074 595.068 759.411 595.526 759.329 595.525 764.716 595.169 764.647 595.178 769.831 594.161 769.768 594.179 774.595 592.603 774.53 592.629 778.901 590.545 778.834 590.583 782.493 588.144 782.422 588.201 785.268 585.508 785.178 585.617 786.957 582.721 786.906 582.827 787.414 581.354 787.388 581.477 787.541 579.952 787.544 580.088 787.087 577.089 787.123 577.217 785.903 574.32 785.962 574.425 784.031 571.732 784.092 571.804 781.602 569.364 781.668 569.419 778.72 567.335 778.8 567.382 775.496 565.806 775.579 565.838 772.071 564.822 772.17 564.84 769.579 564.588 769.684 563.509 772.325 563.766 775.923 564.809 779.308 566.424 782.329 568.559 784.885 571.062 786.879 573.843 788.148 576.858 788.626 579.992 788.46 581.647 787.912 583.237 786.065 586.246 783.133 589.021 779.403 591.507 774.965 593.622 770.073 595.219 764.822 596.249 759.359 596.61 753.942 596.146 748.681 594.907 743.728 592.947 739.339 590.417 735.555 587.41 732.686 584.02 730.802 580.409 730.265 578.475 730.108 576.594ZM775.422 568.895 768.561 563.945 776.247 560.409C776.519 560.284 776.841 560.403 776.967 560.674 777.091 560.947 776.972 561.269 776.701 561.394L769.858 564.541 769.949 563.609 776.057 568.016C776.299 568.191 776.354 568.53 776.179 568.773 776.004 569.015 775.665 569.071 775.422 568.895Z" transform="matrix(1 0 0 1.00163 -198.791 -224.04)"/><text font-family="Calibri,Calibri_MSFontService,sans-serif" font-weight="400" font-size="13" transform="matrix(0.813187 0 0 0.814516 392.349 317)">E1<tspan font-size="13" x="84.5067" y="17.1881">E</tspan>2<tspan font-size="13" x="218.094" y="55.2475">E</tspan><tspan font-size="13" x="224.094" y="55.2475">2</tspan><tspan font-size="13" x="178.239" y="3.68317">E</tspan><tspan font-size="13" x="184.239" y="3.68317">3</tspan><tspan font-size="13" x="86.0872" y="-38.0594">E</tspan><tspan font-size="13" x="92.0872" y="-38.0594">4</tspan></text></g></g></g></g><path d="M426.5 287.848 431.466 287.848 433 282.5 434.534 287.848 439.5 287.848 435.483 291.152 437.017 296.5 433 293.195 428.983 296.5 430.517 291.152Z" stroke="#BC8C00" stroke-width="1.33333" stroke-miterlimit="8" fill="#FFC000" fill-rule="evenodd"/><path d="M208.797 211.5 216.719 222.478 213.451 223.772 223.431 233.179 220.163 234.75 232.5 250.5 211.577 238.43 215.568 236.754 202.568 229.023 207.226 226.634 193.5 218.524Z" stroke="#BC8C00" stroke-width="1.33333" stroke-miterlimit="8" fill="#FFC000" fill-rule="evenodd"/><text font-family="Calibri,Calibri_MSFontService,sans-serif" font-weight="400" font-size="13" transform="translate(239.193 228)">E1</text><path d="M304.603 246.33 306.442 239.566 282.748 233.125 286.426 219.598 310.119 226.039 311.958 219.276 321.807 236.48Z" stroke="#5B9BD5" stroke-width="1.33333" stroke-miterlimit="8" stroke-opacity="0.501961" fill="#5B9BD5" fill-rule="evenodd" fill-opacity="0.501961"/><path d="M375.991 415.208 370.806 410.492 354.285 428.656 343.915 419.224 360.436 401.06 355.251 396.344 375.053 395.406Z" stroke="#5B9BD5" stroke-width="1.33333" stroke-miterlimit="8" stroke-opacity="0.501961" fill="#5B9BD5" fill-rule="evenodd" fill-opacity="0.501961"/><text font-family="Yu Gothic,Yu Gothic_MSFontService,sans-serif" font-weight="400" font-size="13" transform="translate(143.066 307)">異なる状態機械からの<tspan font-size="13" x="133.333" y="0">事象は、</tspan><tspan font-size="13" x="0" y="16">どちらが先に受け取ってもよい。</tspan></text><path d="M0 0C7.11601 0 14.232 4.71787 14.232 9.43576 14.232 14.1536 21.348 18.8715 28.464 18.8715" stroke="#ED7D31" stroke-width="0.666667" stroke-miterlimit="8" fill="none" fill-rule="evenodd" transform="matrix(1.83697e-16 1 1 -1.83697e-16 223.5 262.5)"/><g clip-path="url(#clip5)"><g clip-path="url(#clip6)"><g clip-path="url(#clip7)"><g clip-path="url(#clip8)"><path d="M55.3884 168.9C55.3884 161.649 61.2664 155.771 68.5175 155.771 75.7686 155.771 81.6466 161.649 81.6466 168.9 81.6466 176.152 75.7686 182.03 68.5175 182.03 61.2664 182.03 55.3884 176.152 55.3884 168.9Z" stroke="#000000" stroke-width="0.364696" stroke-miterlimit="8" fill="#FFFFFF" fill-rule="evenodd" transform="matrix(1 0 0 1.00007 106.46 -47.0987)"/><text font-family="Calibri,Calibri_MSFontService,sans-serif" font-weight="400" font-size="16" transform="matrix(0.273523 0 0 0.273543 173.456 123)">A</text><path d="M55.3884 202.544C55.3884 195.293 61.2664 189.415 68.5175 189.415 75.7686 189.415 81.6466 195.293 81.6466 202.544 81.6466 209.795 75.7686 215.673 68.5175 215.673 61.2664 215.673 55.3884 209.795 55.3884 202.544Z" stroke="#000000" stroke-width="0.364696" stroke-miterlimit="8" fill="#FFFFFF" fill-rule="evenodd" transform="matrix(1 0 0 1.00007 106.46 -47.0987)"/><text font-family="Calibri,Calibri_MSFontService,sans-serif" font-weight="400" font-size="16" transform="matrix(0.273523 0 0 0.273543 173.547 157)">B</text><path d="M103.802 168.9C103.802 161.649 109.68 155.771 116.931 155.771 124.182 155.771 130.06 161.649 130.06 168.9 130.06 176.152 124.182 182.03 116.931 182.03 109.68 182.03 103.802 176.152 103.802 168.9Z" stroke="#000000" stroke-width="0.364696" stroke-miterlimit="8" fill="#FFFFFF" fill-rule="evenodd" transform="matrix(1 0 0 1.00007 106.46 -47.0987)"/><text font-family="Calibri,Calibri_MSFontService,sans-serif" font-weight="400" font-size="16" transform="matrix(0.273523 0 0 0.273543 222.06 123)">C</text><path d="M103.802 202.544C103.802 195.293 109.68 189.415 116.931 189.415 124.182 189.415 130.06 195.293 130.06 202.544 130.06 209.795 124.182 215.673 116.931 215.673 109.68 215.673 103.802 209.795 103.802 202.544Z" stroke="#000000" stroke-width="0.364696" stroke-miterlimit="8" fill="#FFFFFF" fill-rule="evenodd" transform="matrix(1 0 0 1.00007 106.46 -47.0987)"/><text font-family="Calibri,Calibri_MSFontService,sans-serif" font-weight="400" font-size="16" transform="matrix(0.273523 0 0 0.273543 221.877 157)">D</text><path d="M29.6772 168.718 54.8742 168.718 54.8742 169.083 29.6772 169.083ZM52.7779 167.467 55.236 168.9 52.7779 170.335C52.6909 170.385 52.5793 170.356 52.5284 170.269 52.4778 170.182 52.5071 170.07 52.5941 170.019L54.7823 168.743 54.7823 169.058 52.5941 167.781C52.5071 167.731 52.4778 167.619 52.5284 167.532 52.5793 167.445 52.6909 167.416 52.7779 167.467Z" transform="matrix(1 0 0 1.00007 106.46 -47.0987)"/><path d="M2.04882e-07-0.182349 25.1969-0.18232 25.1969 0.182377-2.04882e-07 0.182349ZM23.1006-1.43392 25.5588 2.87352e-05 23.1006 1.43397C23.0136 1.48472 22.902 1.45534 22.8512 1.36835 22.8005 1.28136 22.8299 1.1697 22.9169 1.11896L25.1051-0.157481 25.1051 0.157537 22.9169-1.11891C22.8299-1.16965 22.8005-1.2813 22.8513-1.3683 22.902-1.45528 23.0136-1.48467 23.1006-1.43392Z" transform="matrix(1 0 0 -1.00007 136.137 155.46)"/><path d="M81.6466 168.718 103.518 168.718 103.518 169.083 81.6466 169.083ZM101.421 167.467 103.879 168.9 101.421 170.335C101.334 170.385 101.223 170.356 101.172 170.269 101.121 170.182 101.15 170.07 101.237 170.019L103.426 168.743 103.426 169.058 101.237 167.781C101.15 167.731 101.121 167.619 101.172 167.532 101.223 167.445 101.334 167.416 101.421 167.467Z" transform="matrix(1 0 0 1.00007 106.46 -47.0987)"/><path d="M0.0826627-0.162536 29.6835 14.892 29.5183 15.2171-0.0826627 0.162536ZM28.3824 12.8261 29.9237 15.2186 27.0824 15.3824C26.9819 15.3882 26.8957 15.3114 26.8899 15.2108 26.8841 15.1103 26.9609 15.0241 27.0614 15.0183L29.5905 14.8725 29.4478 15.1533 28.0758 13.0236C28.0213 12.9389 28.0457 12.8261 28.1305 12.7716 28.215 12.717 28.328 12.7414 28.3824 12.8261Z" transform="matrix(1 0 0 -1.00007 184.277 146.334)"/><path d="M81.6466 202.361 103.518 202.361 103.518 202.726 81.6466 202.726ZM101.421 201.11 103.879 202.544 101.421 203.978C101.334 204.028 101.223 203.999 101.172 203.912 101.121 203.825 101.15 203.713 101.237 203.663L103.426 202.386 103.426 202.701 101.237 201.425C101.15 201.374 101.121 201.263 101.172 201.176 101.223 201.089 101.334 201.059 101.421 201.11Z" transform="matrix(1 0 0 1.00007 106.46 -47.0987)"/><path d="M130.06 202.361 151.931 202.361 151.931 202.726 130.06 202.726ZM149.835 201.11 152.293 202.544 149.835 203.978C149.748 204.028 149.636 203.999 149.585 203.912 149.535 203.825 149.564 203.713 149.651 203.663L151.839 202.386 151.839 202.701 149.651 201.425C149.564 201.374 149.535 201.263 149.585 201.176 149.636 201.089 149.748 201.059 149.835 201.11Z" transform="matrix(1 0 0 1.00007 106.46 -47.0987)"/><path d="M130.06 168.718 151.931 168.718 151.931 169.083 130.06 169.083ZM149.835 167.467 152.293 168.9 149.835 170.335C149.748 170.385 149.636 170.356 149.585 170.269 149.535 170.182 149.564 170.07 149.651 170.019L151.839 168.743 151.839 169.058 149.651 167.781C149.564 167.731 149.535 167.619 149.585 167.532 149.636 167.445 149.748 167.416 149.835 167.467Z" transform="matrix(1 0 0 1.00007 106.46 -47.0987)"/><text font-family="Calibri,Calibri_MSFontService,sans-serif" font-style="italic" font-weight="400" font-size="16" transform="matrix(0.273523 0 0 0.273543 150.05 119)">a<tspan font-size="16" x="0" y="124.295">b</tspan><tspan font-size="16" x="333.12" y="0">c</tspan><tspan font-size="16" x="333.12" y="124.295">d</tspan><tspan font-size="16" x="179.064" y="0">s</tspan><tspan font-size="16" x="166.173" y="65.8033">t</tspan><tspan font-size="16" x="178.427" y="124.295">u</tspan></text></g></g></g></g><rect x="90" y="362" width="147" height="103" fill="#F2F2F2"/><g clip-path="url(#clip9)"><g clip-path="url(#clip10)"><g clip-path="url(#clip11)"><g clip-path="url(#clip12)"><path d="M55.3884 168.9C55.3884 161.649 61.2664 155.771 68.5175 155.771 75.7686 155.771 81.6466 161.649 81.6466 168.9 81.6466 176.152 75.7686 182.03 68.5175 182.03 61.2664 182.03 55.3884 176.152 55.3884 168.9Z" stroke="#000000" stroke-width="0.364696" stroke-miterlimit="8" fill="#FFFFFF" fill-rule="evenodd" transform="matrix(1 0 0 1.00007 74.4595 241.901)"/><text font-family="Calibri,Calibri_MSFontService,sans-serif" font-weight="400" font-size="16" transform="matrix(0.273523 0 0 0.273543 141.456 412)">A</text><path d="M55.3884 202.544C55.3884 195.293 61.2664 189.415 68.5175 189.415 75.7686 189.415 81.6466 195.293 81.6466 202.544 81.6466 209.795 75.7686 215.673 68.5175 215.673 61.2664 215.673 55.3884 209.795 55.3884 202.544Z" stroke="#000000" stroke-width="0.364696" stroke-miterlimit="8" fill="#FFFFFF" fill-rule="evenodd" transform="matrix(1 0 0 1.00007 74.4595 241.901)"/><text font-family="Calibri,Calibri_MSFontService,sans-serif" font-weight="400" font-size="16" transform="matrix(0.273523 0 0 0.273543 141.547 446)">B</text><path d="M103.802 168.9C103.802 161.649 109.68 155.771 116.931 155.771 124.182 155.771 130.06 161.649 130.06 168.9 130.06 176.152 124.182 182.03 116.931 182.03 109.68 182.03 103.802 176.152 103.802 168.9Z" stroke="#000000" stroke-width="0.364696" stroke-miterlimit="8" fill="#FFFFFF" fill-rule="evenodd" transform="matrix(1 0 0 1.00007 74.4595 241.901)"/><text font-family="Calibri,Calibri_MSFontService,sans-serif" font-weight="400" font-size="16" transform="matrix(0.273523 0 0 0.273543 190.06 412)">C</text><path d="M103.802 202.544C103.802 195.293 109.68 189.415 116.931 189.415 124.182 189.415 130.06 195.293 130.06 202.544 130.06 209.795 124.182 215.673 116.931 215.673 109.68 215.673 103.802 209.795 103.802 202.544Z" stroke="#000000" stroke-width="0.364696" stroke-miterlimit="8" fill="#FFFFFF" fill-rule="evenodd" transform="matrix(1 0 0 1.00007 74.4595 241.901)"/><text font-family="Calibri,Calibri_MSFontService,sans-serif" font-weight="400" font-size="16" transform="matrix(0.273523 0 0 0.273543 189.877 446)">D</text><path d="M29.6772 168.718 54.8742 168.718 54.8742 169.083 29.6772 169.083ZM52.7779 167.467 55.236 168.9 52.7779 170.335C52.6909 170.385 52.5793 170.356 52.5284 170.269 52.4778 170.182 52.5071 170.07 52.5941 170.019L54.7823 168.743 54.7823 169.058 52.5941 167.781C52.5071 167.731 52.4778 167.619 52.5284 167.532 52.5793 167.445 52.6909 167.416 52.7779 167.467Z" transform="matrix(1 0 0 1.00007 74.4595 241.901)"/><path d="M2.04882e-07-0.182349 25.1969-0.18232 25.1969 0.182377-2.04882e-07 0.182349ZM23.1006-1.43392 25.5588 2.87352e-05 23.1006 1.43397C23.0136 1.48472 22.902 1.45534 22.8512 1.36835 22.8005 1.28136 22.8299 1.1697 22.9169 1.11896L25.1051-0.157481 25.1051 0.157537 22.9169-1.11891C22.8299-1.16965 22.8005-1.2813 22.8513-1.3683 22.902-1.45528 23.0136-1.48467 23.1006-1.43392Z" transform="matrix(1 0 0 -1.00007 104.137 444.46)"/><path d="M81.6466 168.718 103.518 168.718 103.518 169.083 81.6466 169.083ZM101.421 167.467 103.879 168.9 101.421 170.335C101.334 170.385 101.223 170.356 101.172 170.269 101.121 170.182 101.15 170.07 101.237 170.019L103.426 168.743 103.426 169.058 101.237 167.781C101.15 167.731 101.121 167.619 101.172 167.532 101.223 167.445 101.334 167.416 101.421 167.467Z" transform="matrix(1 0 0 1.00007 74.4595 241.901)"/><path d="M0.0826627-0.162536 29.6835 14.892 29.5183 15.2171-0.0826627 0.162536ZM28.3824 12.8261 29.9237 15.2186 27.0824 15.3824C26.9819 15.3882 26.8957 15.3114 26.8899 15.2108 26.8841 15.1103 26.9609 15.0241 27.0614 15.0183L29.5905 14.8725 29.4478 15.1533 28.0758 13.0236C28.0213 12.9389 28.0457 12.8261 28.1305 12.7716 28.215 12.717 28.328 12.7414 28.3824 12.8261Z" transform="matrix(1 0 0 -1.00007 152.277 435.334)"/><path d="M81.6466 202.361 103.518 202.361 103.518 202.726 81.6466 202.726ZM101.421 201.11 103.879 202.544 101.421 203.978C101.334 204.028 101.223 203.999 101.172 203.912 101.121 203.825 101.15 203.713 101.237 203.663L103.426 202.386 103.426 202.701 101.237 201.425C101.15 201.374 101.121 201.263 101.172 201.176 101.223 201.089 101.334 201.059 101.421 201.11Z" transform="matrix(1 0 0 1.00007 74.4595 241.901)"/><path d="M130.06 202.361 151.931 202.361 151.931 202.726 130.06 202.726ZM149.835 201.11 152.293 202.544 149.835 203.978C149.748 204.028 149.636 203.999 149.585 203.912 149.535 203.825 149.564 203.713 149.651 203.663L151.839 202.386 151.839 202.701 149.651 201.425C149.564 201.374 149.535 201.263 149.585 201.176 149.636 201.089 149.748 201.059 149.835 201.11Z" transform="matrix(1 0 0 1.00007 74.4595 241.901)"/><path d="M130.06 168.718 151.931 168.718 151.931 169.083 130.06 169.083ZM149.835 167.467 152.293 168.9 149.835 170.335C149.748 170.385 149.636 170.356 149.585 170.269 149.535 170.182 149.564 170.07 149.651 170.019L151.839 168.743 151.839 169.058 149.651 167.781C149.564 167.731 149.535 167.619 149.585 167.532 149.636 167.445 149.748 167.416 149.835 167.467Z" transform="matrix(1 0 0 1.00007 74.4595 241.901)"/><text font-family="Calibri,Calibri_MSFontService,sans-serif" font-style="italic" font-weight="400" font-size="16" transform="matrix(0.273523 0 0 0.273543 118.05 408)">a<tspan font-size="16" x="0" y="124.295">b</tspan><tspan font-size="16" x="333.12" y="0">c</tspan><tspan font-size="16" x="333.12" y="124.295">d</tspan><tspan font-size="16" x="179.064" y="0">s</tspan><tspan font-size="16" x="166.173" y="65.8033">t</tspan><tspan font-size="16" x="178.427" y="124.295">u</tspan></text></g></g></g></g><path d="M0 25 7 25 7 0 21 0 21 25 28 25 14 39Z" stroke="#5B9BD5" stroke-width="1.33333" stroke-miterlimit="8" stroke-opacity="0.501961" fill="#5B9BD5" fill-rule="evenodd" fill-opacity="0.501961" transform="matrix(-1 1.22465e-16 1.22465e-16 1 239.5 170.5)"/><text font-family="Yu Gothic,Yu Gothic_MSFontService,sans-serif" font-weight="400" font-size="16" transform="translate(305.765 157)">無関係なアクションが生成した“事象”の場合</text><rect x="102" y="552" width="148" height="103" fill="#F2F2F2"/><g clip-path="url(#clip13)"><g clip-path="url(#clip14)"><g clip-path="url(#clip15)"><g clip-path="url(#clip16)"><path d="M55.3884 168.9C55.3884 161.649 61.2664 155.771 68.5175 155.771 75.7686 155.771 81.6466 161.649 81.6466 168.9 81.6466 176.152 75.7686 182.03 68.5175 182.03 61.2664 182.03 55.3884 176.152 55.3884 168.9Z" stroke="#000000" stroke-width="0.364696" stroke-miterlimit="8" fill="#FFFFFF" fill-rule="evenodd" transform="matrix(1 0 0 1.00007 86.4595 430.901)"/><text font-family="Calibri,Calibri_MSFontService,sans-serif" font-weight="400" font-size="16" transform="matrix(0.273523 0 0 0.273543 153.456 601)">A</text><path d="M55.3884 202.544C55.3884 195.293 61.2664 189.415 68.5175 189.415 75.7686 189.415 81.6466 195.293 81.6466 202.544 81.6466 209.795 75.7686 215.673 68.5175 215.673 61.2664 215.673 55.3884 209.795 55.3884 202.544Z" stroke="#000000" stroke-width="0.364696" stroke-miterlimit="8" fill="#FFFFFF" fill-rule="evenodd" transform="matrix(1 0 0 1.00007 86.4595 430.901)"/><text font-family="Calibri,Calibri_MSFontService,sans-serif" font-weight="400" font-size="16" transform="matrix(0.273523 0 0 0.273543 153.547 635)">B</text><path d="M103.802 168.9C103.802 161.649 109.68 155.771 116.931 155.771 124.182 155.771 130.06 161.649 130.06 168.9 130.06 176.152 124.182 182.03 116.931 182.03 109.68 182.03 103.802 176.152 103.802 168.9Z" stroke="#000000" stroke-width="0.364696" stroke-miterlimit="8" fill="#FFFFFF" fill-rule="evenodd" transform="matrix(1 0 0 1.00007 86.4595 430.901)"/><text font-family="Calibri,Calibri_MSFontService,sans-serif" font-weight="400" font-size="16" transform="matrix(0.273523 0 0 0.273543 202.06 601)">C</text><path d="M103.802 202.544C103.802 195.293 109.68 189.415 116.931 189.415 124.182 189.415 130.06 195.293 130.06 202.544 130.06 209.795 124.182 215.673 116.931 215.673 109.68 215.673 103.802 209.795 103.802 202.544Z" stroke="#000000" stroke-width="0.364696" stroke-miterlimit="8" fill="#FFFFFF" fill-rule="evenodd" transform="matrix(1 0 0 1.00007 86.4595 430.901)"/><text font-family="Calibri,Calibri_MSFontService,sans-serif" font-weight="400" font-size="16" transform="matrix(0.273523 0 0 0.273543 201.877 635)">D</text><path d="M29.6772 168.718 54.8742 168.718 54.8742 169.083 29.6772 169.083ZM52.7779 167.467 55.236 168.9 52.7779 170.335C52.6909 170.385 52.5793 170.356 52.5284 170.269 52.4778 170.182 52.5071 170.07 52.5941 170.019L54.7823 168.743 54.7823 169.058 52.5941 167.781C52.5071 167.731 52.4778 167.619 52.5284 167.532 52.5793 167.445 52.6909 167.416 52.7779 167.467Z" transform="matrix(1 0 0 1.00007 86.4595 430.901)"/><path d="M2.04882e-07-0.182349 25.1969-0.18232 25.1969 0.182377-2.04882e-07 0.182349ZM23.1006-1.43392 25.5588 2.87352e-05 23.1006 1.43397C23.0136 1.48472 22.902 1.45534 22.8512 1.36835 22.8005 1.28136 22.8299 1.1697 22.9169 1.11896L25.1051-0.157481 25.1051 0.157537 22.9169-1.11891C22.8299-1.16965 22.8005-1.2813 22.8513-1.3683 22.902-1.45528 23.0136-1.48467 23.1006-1.43392Z" transform="matrix(1 0 0 -1.00007 116.137 633.46)"/><path d="M81.6466 168.718 103.518 168.718 103.518 169.083 81.6466 169.083ZM101.421 167.467 103.879 168.9 101.421 170.335C101.334 170.385 101.223 170.356 101.172 170.269 101.121 170.182 101.15 170.07 101.237 170.019L103.426 168.743 103.426 169.058 101.237 167.781C101.15 167.731 101.121 167.619 101.172 167.532 101.223 167.445 101.334 167.416 101.421 167.467Z" transform="matrix(1 0 0 1.00007 86.4595 430.901)"/><path d="M0.0826627-0.162536 29.6835 14.892 29.5183 15.2171-0.0826627 0.162536ZM28.3824 12.8261 29.9237 15.2186 27.0824 15.3824C26.9819 15.3882 26.8957 15.3114 26.8899 15.2108 26.8841 15.1103 26.9609 15.0241 27.0614 15.0183L29.5905 14.8725 29.4478 15.1533 28.0758 13.0236C28.0213 12.9389 28.0457 12.8261 28.1305 12.7716 28.215 12.717 28.328 12.7414 28.3824 12.8261Z" transform="matrix(1 0 0 -1.00007 164.277 624.334)"/><path d="M81.6466 202.361 103.518 202.361 103.518 202.726 81.6466 202.726ZM101.421 201.11 103.879 202.544 101.421 203.978C101.334 204.028 101.223 203.999 101.172 203.912 101.121 203.825 101.15 203.713 101.237 203.663L103.426 202.386 103.426 202.701 101.237 201.425C101.15 201.374 101.121 201.263 101.172 201.176 101.223 201.089 101.334 201.059 101.421 201.11Z" transform="matrix(1 0 0 1.00007 86.4595 430.901)"/><path d="M130.06 202.361 151.931 202.361 151.931 202.726 130.06 202.726ZM149.835 201.11 152.293 202.544 149.835 203.978C149.748 204.028 149.636 203.999 149.585 203.912 149.535 203.825 149.564 203.713 149.651 203.663L151.839 202.386 151.839 202.701 149.651 201.425C149.564 201.374 149.535 201.263 149.585 201.176 149.636 201.089 149.748 201.059 149.835 201.11Z" transform="matrix(1 0 0 1.00007 86.4595 430.901)"/><path d="M130.06 168.718 151.931 168.718 151.931 169.083 130.06 169.083ZM149.835 167.467 152.293 168.9 149.835 170.335C149.748 170.385 149.636 170.356 149.585 170.269 149.535 170.182 149.564 170.07 149.651 170.019L151.839 168.743 151.839 169.058 149.651 167.781C149.564 167.731 149.535 167.619 149.585 167.532 149.636 167.445 149.748 167.416 149.835 167.467Z" transform="matrix(1 0 0 1.00007 86.4595 430.901)"/><text font-family="Calibri,Calibri_MSFontService,sans-serif" font-style="italic" font-weight="400" font-size="16" transform="matrix(0.273523 0 0 0.273543 130.05 597)">a<tspan font-size="16" x="0" y="124.295">b</tspan><tspan font-size="16" x="333.12" y="0">c</tspan><tspan font-size="16" x="333.12" y="124.295">d</tspan><tspan font-size="16" x="179.064" y="0">s</tspan><tspan font-size="16" x="166.173" y="65.8033">t</tspan><tspan font-size="16" x="178.427" y="124.295">u</tspan></text></g></g></g></g><rect x="214" y="681" width="87" height="61" fill="#F2F2F2"/><path d="M243.404 691.5 251.124 702.196 247.94 703.458 257.663 712.623 254.479 714.154 266.5 729.5 246.114 717.739 250.002 716.107 237.335 708.574 241.874 706.246 228.5 698.344Z" stroke="#BC8C00" stroke-width="1.33333" stroke-miterlimit="8" fill="#FFC000" fill-rule="evenodd"/><text font-family="Calibri,Calibri_MSFontService,sans-serif" font-weight="400" font-size="13" transform="translate(273.513 708)">E2</text><rect x="116" y="680" width="87" height="61" fill="#F2F2F2"/><path d="M144.797 690.5 152.719 701.478 149.451 702.772 159.431 712.179 156.163 713.75 168.5 729.5 147.577 717.43 151.568 715.754 138.568 708.023 143.226 705.634 129.5 697.524Z" stroke="#BC8C00" stroke-width="1.33333" stroke-miterlimit="8" fill="#FFC000" fill-rule="evenodd"/><text font-family="Calibri,Calibri_MSFontService,sans-serif" font-weight="400" font-size="13" transform="translate(175.324 708)">E1</text><rect x="331" y="579" width="296" height="151" fill="#F2F2F2"/><rect x="575.5" y="643.5" width="28" height="28" stroke="#2F528F" stroke-width="3" stroke-miterlimit="8" fill="#FFFFFF"/><path d="M581.5 658C581.5 653.306 585.306 649.5 590 649.5 594.694 649.5 598.5 653.306 598.5 658 598.5 662.694 594.694 666.5 590 666.5 585.306 666.5 581.5 662.694 581.5 658Z" stroke="#AE5A21" stroke-width="1.33333" stroke-miterlimit="8" fill="#FFFFFF" fill-rule="evenodd"/><path d="M575.5 640.5 576.75 635.5 602.25 635.5 603.5 640.5Z" stroke="#2F528F" stroke-width="3" stroke-miterlimit="8" fill="#FFFFFF" fill-rule="evenodd"/><path d="M0 5 1.24999 0 26.75 0 28 5Z" stroke="#2F528F" stroke-width="3" stroke-miterlimit="8" fill="#FFFFFF" fill-rule="evenodd" transform="matrix(1 0 0 -1 575.5 680.5)"/><rect x="578.5" y="627.5" width="22" height="4" stroke="#2F528F" stroke-width="3" stroke-miterlimit="8" fill="#FFFFFF"/><path d="M593.283 662.355 585.333 655.824 584.571 656.751 584.24 653.374 587.618 653.043 586.856 653.97 594.806 660.501Z" stroke="#AE5A21" stroke-width="1.33333" stroke-miterlimit="8" fill="#ED7D31" fill-rule="evenodd"/><g clip-path="url(#clip17)"><g clip-path="url(#clip18)"><g clip-path="url(#clip19)"><g clip-path="url(#clip20)"><path d="M568.011 505.531C568.011 503.211 569.892 501.33 572.213 501.33L640.249 501.33C642.57 501.33 644.451 503.211 644.451 505.531L644.451 522.337C644.451 524.658 642.57 526.538 640.249 526.538L572.213 526.538C569.892 526.538 568.011 524.658 568.011 522.337Z" stroke="#000000" stroke-width="1.08425" stroke-miterlimit="8" fill="#FFFFFF" fill-rule="evenodd" transform="matrix(1 0 0 1.00163 -223.791 117.96)"/><text font-family="Calibri,Calibri_MSFontService,sans-serif" font-weight="400" font-size="13" transform="matrix(0.813187 0 0 0.814516 376.74 636)">S1</text><path d="M568.011 555.136C568.011 552.815 569.892 550.934 572.213 550.934L640.249 550.934C642.57 550.934 644.451 552.815 644.451 555.136L644.451 571.941C644.451 574.262 642.57 576.143 640.249 576.143L572.213 576.143C569.892 576.143 568.011 574.262 568.011 571.941Z" stroke="#000000" stroke-width="1.08425" stroke-miterlimit="8" fill="#FFFFFF" fill-rule="evenodd" transform="matrix(1 0 0 1.00163 -223.791 117.96)"/><text font-family="Calibri,Calibri_MSFontService,sans-serif" font-weight="400" font-size="13" transform="matrix(0.813187 0 0 0.814516 376.74 686)">S2</text><path d="M692.429 555.136C692.429 552.815 694.309 550.934 696.63 550.934L763.853 550.934C766.174 550.934 768.055 552.815 768.055 555.136L768.055 571.941C768.055 574.262 766.174 576.143 763.853 576.143L696.63 576.143C694.309 576.143 692.429 574.262 692.429 571.941Z" stroke="#000000" stroke-width="1.08425" stroke-miterlimit="8" fill="#FFFFFF" fill-rule="evenodd" transform="matrix(1 0 0 1.00163 -223.791 117.96)"/><text font-family="Calibri,Calibri_MSFontService,sans-serif" font-weight="400" font-size="13" transform="matrix(0.813187 0 0 0.814516 500.886 686)">S3</text><path d="M692.429 506.345C692.429 504.024 694.309 502.143 696.63 502.143L763.853 502.143C766.174 502.143 768.055 504.024 768.055 506.345L768.055 523.15C768.055 525.471 766.174 527.352 763.853 527.352L696.63 527.352C694.309 527.352 692.429 525.471 692.429 523.15Z" stroke="#000000" stroke-width="1.08425" stroke-miterlimit="8" fill="#FFFFFF" fill-rule="evenodd" transform="matrix(1 0 0 1.00163 -223.791 117.96)"/><text font-family="Calibri,Calibri_MSFontService,sans-serif" font-weight="400" font-size="13" transform="matrix(0.813187 0 0 0.814516 500.886 636)">S4</text><path d="M606.773 526.538 606.773 549.861 605.688 549.861 605.688 526.538ZM610.494 543.628 606.231 550.937 601.968 543.628C601.817 543.37 601.905 543.038 602.163 542.887 602.422 542.736 602.754 542.823 602.904 543.082L606.699 549.587 605.762 549.587 609.558 543.082C609.708 542.823 610.041 542.736 610.299 542.887 610.558 543.038 610.645 543.37 610.494 543.628Z" transform="matrix(1 0 0 1.00163 -223.791 117.96)"/><path d="M644.451 563.403 691.719 563.403 691.719 564.487 644.451 564.487ZM685.487 559.682 692.795 563.945 685.487 568.209C685.229 568.359 684.896 568.272 684.746 568.013 684.594 567.755 684.682 567.422 684.941 567.272L691.446 563.477 691.446 564.413 684.941 560.618C684.682 560.468 684.594 560.136 684.746 559.878 684.896 559.619 685.229 559.531 685.487 559.682Z" transform="matrix(1 0 0 1.00163 -223.791 117.96)"/><path d="M730.106 551.272 730.106 528.425 731.191 528.425 731.191 551.272ZM726.386 534.657 730.648 527.349 734.912 534.657C735.062 534.916 734.975 535.248 734.717 535.399 734.458 535.549 734.126 535.462 733.975 535.204L730.18 528.698 731.117 528.698 727.322 535.204C727.171 535.462 726.839 535.549 726.581 535.399 726.322 535.248 726.234 534.916 726.386 534.657Z" transform="matrix(1 0 0 1.00163 -223.791 117.96)"/><path d="M692.787 515.357 645.519 514.894 645.53 513.809 692.798 514.273ZM651.714 518.676 644.448 514.341 651.798 510.15C652.058 510.001 652.389 510.092 652.538 510.352 652.686 510.612 652.595 510.943 652.335 511.091L645.792 514.822 645.802 513.885 652.269 517.744C652.527 517.898 652.611 518.23 652.457 518.488 652.304 518.745 651.971 518.829 651.714 518.676Z" transform="matrix(1 0 0 1.00163 -223.791 117.96)"/><path d="M731.188 576.505 731.341 578.334 731.323 578.234 731.832 580.064 731.79 579.958 733.62 583.465 733.552 583.366 736.348 586.669 736.272 586.595 739.981 589.543 739.915 589.497 744.235 591.988 744.164 591.954 749.043 593.885 748.968 593.861 754.152 595.081 754.074 595.068 759.411 595.526 759.329 595.525 764.716 595.169 764.647 595.178 769.831 594.161 769.768 594.179 774.595 592.603 774.53 592.629 778.901 590.545 778.834 590.583 782.493 588.144 782.422 588.201 785.268 585.508 785.178 585.617 786.957 582.721 786.906 582.827 787.414 581.354 787.388 581.477 787.541 579.952 787.544 580.088 787.087 577.089 787.123 577.217 785.903 574.32 785.962 574.425 784.031 571.732 784.092 571.804 781.602 569.364 781.668 569.419 778.72 567.335 778.8 567.382 775.496 565.806 775.579 565.838 772.071 564.822 772.17 564.84 769.579 564.588 769.684 563.509 772.325 563.766 775.923 564.809 779.308 566.424 782.329 568.559 784.885 571.062 786.879 573.843 788.148 576.858 788.626 579.992 788.46 581.647 787.912 583.237 786.065 586.246 783.133 589.021 779.403 591.507 774.965 593.622 770.073 595.219 764.822 596.249 759.359 596.61 753.942 596.146 748.681 594.907 743.728 592.947 739.339 590.417 735.555 587.41 732.686 584.02 730.802 580.409 730.265 578.475 730.108 576.594ZM775.422 568.895 768.561 563.945 776.247 560.409C776.519 560.284 776.841 560.403 776.967 560.674 777.091 560.947 776.972 561.269 776.701 561.394L769.858 564.541 769.949 563.609 776.057 568.016C776.299 568.191 776.354 568.53 776.179 568.773 776.004 569.015 775.665 569.071 775.422 568.895Z" transform="matrix(1 0 0 1.00163 -223.791 117.96)"/><text font-family="Calibri,Calibri_MSFontService,sans-serif" font-weight="400" font-size="13" transform="matrix(0.813187 0 0 0.814516 367.349 659)">E1<tspan font-size="13" x="84.5067" y="17.1881">E</tspan>2<tspan font-size="13" x="218.094" y="55.2475">E</tspan><tspan font-size="13" x="224.094" y="55.2475">2</tspan><tspan font-size="13" x="178.239" y="3.68317">E</tspan><tspan font-size="13" x="184.239" y="3.68317">3</tspan><tspan font-size="13" x="86.0872" y="-38.0594">E</tspan><tspan font-size="13" x="92.0872" y="-38.0594">4</tspan></text></g></g></g></g><path d="M400.5 629.848 405.848 629.848 407.5 624.5 409.152 629.848 414.5 629.848 410.174 633.153 411.826 638.5 407.5 635.195 403.174 638.5 404.826 633.153Z" stroke="#BC8C00" stroke-width="1.33333" stroke-miterlimit="8" fill="#FFC000" fill-rule="evenodd"/><path d="M0 25 7 25 7 0 21 0 21 25 28 25 14 39Z" stroke="#5B9BD5" stroke-width="1.33333" stroke-miterlimit="8" stroke-opacity="0.501961" fill="#5B9BD5" fill-rule="evenodd" fill-opacity="0.501961" transform="matrix(-1 1.22465e-16 1.22465e-16 1 190.5 649.5)"/><path d="M0 24 7 24 7 0 21 0 21 24 28 24 14 38Z" stroke="#5B9BD5" stroke-width="1.33333" stroke-miterlimit="8" stroke-opacity="0.501961" fill="#5B9BD5" fill-rule="evenodd" fill-opacity="0.501961" transform="matrix(-1 1.22465e-16 1.22465e-16 1 253.5 650.5)"/><text font-family="Yu Gothic,Yu Gothic_MSFontService,sans-serif" font-weight="400" font-size="16" transform="translate(298.505 537)">同じアクションが生成した“事象”の場合</text><path d="M102 707 110 707 110 715 102 715ZM118 707 126 707 126 715 118 715ZM134 707 142 707 142 715 134 715ZM150 707 158 707 158 715 150 715ZM166 707 174 707 174 715 166 715ZM182 707 190 707 190 715 182 715ZM198 707 206 707 206 715 198 715ZM214 707 222 707 222 715 214 715ZM230 707 238 707 238 715 230 715ZM246 707 254 707 254 715 246 715ZM262 707 270 707 270 715 262 715ZM278 707 286 707 286 715 278 715ZM294 707 302 707 302 715 294 715ZM310 707 318 707 318 715 310 715ZM320.61 699 344.61 711 320.61 723Z" fill="#4472C4" fill-opacity="0.501961"/><text font-family="Yu Gothic,Yu Gothic_MSFontService,sans-serif" font-weight="400" font-size="16" transform="translate(238.879 775)">先に生成された“事象”から受信<tspan font-family="MS Gothic,MS Gothic_MSFontService,sans-serif" font-size="16" x="0" y="19">※</tspan>、<tspan font-family="Calibri,Calibri_MSFontService,sans-serif" font-size="16" x="32" y="19">E1</tspan>、<tspan font-family="Calibri,Calibri_MSFontService,sans-serif" font-size="16" x="64" y="19">E2</tspan>で生成された場合、<tspan font-family="Calibri,Calibri_MSFontService,sans-serif" font-size="16" x="224" y="19">E1</tspan>、<tspan font-family="Calibri,Calibri_MSFontService,sans-serif" font-size="16" x="256" y="19">E2</tspan>の順で受け取る</text><path d="M100.5 496.5 617.66 496.5" stroke="#D9D9D9" stroke-width="0.666667" stroke-miterlimit="8" fill="none" fill-rule="evenodd"/><rect x="256" y="391" width="87" height="61" fill="#F2F2F2"/><path d="M285.405 401.5 293.124 412.196 289.94 413.458 299.663 422.623 296.479 424.154 308.5 439.5 288.114 427.739 292.002 426.107 279.335 418.574 283.874 416.246 270.5 408.344Z" stroke="#BC8C00" stroke-width="1.33333" stroke-miterlimit="8" fill="#FFC000" fill-rule="evenodd"/><text font-family="Calibri,Calibri_MSFontService,sans-serif" font-weight="400" font-size="13" transform="translate(315.707 418)">E2</text><path d="M0 0C14.5992 0 29.1984 14.4107 29.1984 28.8214 29.1984 43.2321 43.7976 57.6428 58.3968 57.6428" stroke="#ED7D31" stroke-width="0.666667" stroke-miterlimit="8" fill="none" fill-rule="evenodd" transform="matrix(1.83697e-16 1 1 -1.83697e-16 242.5 332.5)"/><path d="M251.5 436.5 251.5 429.5 226.5 429.5 226.5 415.5 251.5 415.5 251.5 408.5 265.5 422.5Z" stroke="#5B9BD5" stroke-width="1.33333" stroke-miterlimit="8" stroke-opacity="0.501961" fill="#5B9BD5" fill-rule="evenodd" fill-opacity="0.501961"/><path d="M0 0C18.8079 0 37.6157 34.9083 37.6157 69.8167" stroke="#ED7D31" stroke-width="0.666667" stroke-miterlimit="8" fill="none" fill-rule="evenodd" transform="matrix(1.83697e-16 1 1 -1.83697e-16 159.5 741.5)"/><path d="M257.872 742.5C257.872 745.789 244.779 749.077 231.686 749.077 218.593 749.077 205.5 756.78 205.5 764.483 205.5 772.186 217.5 779.889 229.5 779.889" stroke="#ED7D31" stroke-width="0.666667" stroke-miterlimit="8" fill="none" fill-rule="evenodd"/></g></svg>