<svg width="558" height="394" xmlns="http://www.w3.org/2000/svg" xmlns:xlink="http://www.w3.org/1999/xlink" overflow="hidden"><defs><clipPath id="clip0"><rect x="74" y="89" width="558" height="394"/></clipPath></defs><g clip-path="url(#clip0)" transform="translate(-74 -89)"><path d="M130.5 162.5C130.5 135.99 162.288 114.5 201.5 114.5 240.712 114.5 272.5 135.99 272.5 162.5 272.5 189.01 240.712 210.5 201.5 210.5 162.288 210.5 130.5 189.01 130.5 162.5Z" stroke="#000000" stroke-width="1.33333" stroke-miterlimit="8" fill="#FFFFFF" fill-rule="evenodd"/><text font-family="Yu Gothic,Yu Gothic_MSFontService,sans-serif" font-weight="400" font-size="13" transform="translate(187.411 150)">顧客<tspan font-size="13" x="-26.6667" y="16">インスタンス</tspan><tspan font-size="13" x="-6.66667" y="32">を検索</tspan></text><path d="M258.5 399.5C258.5 372.99 290.288 351.5 329.5 351.5 368.712 351.5 400.5 372.99 400.5 399.5 400.5 426.01 368.712 447.5 329.5 447.5 290.288 447.5 258.5 426.01 258.5 399.5Z" stroke="#000000" stroke-width="1.33333" stroke-miterlimit="8" fill="#FFFFFF" fill-rule="evenodd"/><text font-family="Yu Gothic,Yu Gothic_MSFontService,sans-serif" font-weight="400" font-size="13" transform="translate(315.989 387)">商品<tspan font-size="13" x="-26.6667" y="16">インスタンス</tspan><tspan font-size="13" x="-6.66669" y="32">を検索</tspan></text><path d="M327.5 210.5C327.5 183.99 359.288 162.5 398.5 162.5 437.712 162.5 469.5 183.99 469.5 210.5 469.5 237.01 437.712 258.5 398.5 258.5 359.288 258.5 327.5 237.01 327.5 210.5Z" stroke="#000000" stroke-width="1.33333" stroke-miterlimit="8" fill="#FFFFFF" fill-rule="evenodd"/><text font-family="Yu Gothic,Yu Gothic_MSFontService,sans-serif" font-weight="400" font-size="13" transform="translate(357.83 198)">注文インスタ<tspan font-size="13" x="0" y="16">ンス作成と個</tspan><tspan font-size="13" x="0" y="32">数、金額設定</tspan></text><path d="M165.5 277.5C165.5 250.99 197.288 229.5 236.5 229.5 275.712 229.5 307.5 250.99 307.5 277.5 307.5 304.01 275.712 325.5 236.5 325.5 197.288 325.5 165.5 304.01 165.5 277.5Z" stroke="#000000" stroke-width="1.33333" stroke-miterlimit="8" fill="#FFFFFF" fill-rule="evenodd"/><text font-family="Yu Gothic,Yu Gothic_MSFontService,sans-serif" font-weight="400" font-size="13" transform="translate(201.301 265)">商品<tspan font-family="Calibri,Calibri_MSFontService,sans-serif" font-size="13" x="26.6667" y="0">.</tspan><tspan font-size="13" x="30" y="0">単価と</tspan><tspan font-size="13" x="8.33334" y="16">個数から</tspan><tspan font-size="13" x="8.33334" y="32">金額計算</tspan></text><path d="M488.5 307.5C488.5 280.99 520.288 259.5 559.5 259.5 598.712 259.5 630.5 280.99 630.5 307.5 630.5 334.01 598.712 355.5 559.5 355.5 520.288 355.5 488.5 334.01 488.5 307.5Z" stroke="#000000" stroke-width="1.33333" stroke-miterlimit="8" fill="#FFFFFF" fill-rule="evenodd"/><text font-family="Calibri,Calibri_MSFontService,sans-serif" font-weight="400" font-size="13" transform="translate(519.025 303)">R1<tspan font-family="Yu Gothic,Yu Gothic_MSFontService,sans-serif" font-size="13" x="14" y="0">でリンク作</tspan><tspan font-family="Yu Gothic,Yu Gothic_MSFontService,sans-serif" font-size="13" x="33.6667" y="16">成</tspan></text><path d="M96.845 94.9296 150.175 127.177 149.485 128.318 96.1551 96.0705ZM145.985 119.296 150.962 128.432 140.559 128.268C140.191 128.262 139.897 127.959 139.903 127.591 139.909 127.223 140.212 126.929 140.58 126.935L149.841 127.081 149.245 128.066 144.814 119.934C144.638 119.61 144.757 119.205 145.08 119.029 145.404 118.853 145.808 118.972 145.985 119.296Z"/><path d="M0.340237-0.573309 54.9517 31.8365 54.2712 32.9831-0.340237 0.573309ZM50.696 23.9899 55.7491 33.0849 45.3449 33.0067C44.9767 33.0039 44.6805 32.7032 44.6833 32.335 44.6861 31.9668 44.9868 31.6706 45.3549 31.6734L54.6163 31.743 54.0285 32.7335 49.5305 24.6375C49.3517 24.3156 49.4676 23.9097 49.7895 23.7309 50.1113 23.5521 50.5172 23.6681 50.696 23.9899Z" transform="matrix(1 0 0 -1 223.5 465.583)"/><path d="M95.5001 276.833 164.524 276.833 164.524 278.167 95.5001 278.167ZM156.86 272.258 165.848 277.5 156.86 282.743C156.542 282.928 156.134 282.821 155.949 282.503 155.763 282.185 155.87 281.776 156.188 281.591L164.189 276.924 164.189 278.076 156.189 273.409C155.87 273.224 155.763 272.816 155.949 272.498 156.134 272.18 156.542 272.072 156.86 272.258Z"/><path d="M0.0895758-0.660621 3.85138-0.150547 7.48788 1.21314 10.9112 3.40923 13.9328 6.23796 16.498 9.57275 18.4904 13.2361 19.7803 17.235 20.2252 21.3025 20.6627 25.3025 20.6345 25.1703 21.8845 29.0453 21.8357 28.9315 23.7732 32.494 23.7159 32.406 26.2159 35.656 26.1431 35.5758 29.0806 38.3258 28.985 38.2514 32.2975 40.3764 32.168 40.3119 35.7305 41.6244 35.5911 41.5896 37.9085 41.9092 37.7263 43.2301 35.3373 42.9005 31.6388 41.5379 28.2138 39.3408 25.1922 36.512 22.627 33.1773 20.6346 29.5139 19.3447 25.515 18.8998 21.4475 18.4623 17.4475 18.4905 17.5797 17.2405 13.7047 17.2893 13.8185 15.3518 10.256 15.4091 10.344 12.9091 7.09397 12.9819 7.17418 10.0444 4.42418 10.14 4.49863 6.82753 2.37363 6.95342 2.43672 3.45342 1.12422 3.59792 1.16062-0.0895758 0.660621ZM30.9415 36.3291 39.1281 42.7504 29.5089 46.7158C29.1685 46.8561 28.7787 46.6939 28.6384 46.3535 28.4981 46.0131 28.6603 45.6234 29.0007 45.4831L37.5633 41.9533 37.4059 43.0942 30.1186 37.3782C29.8289 37.151 29.7783 36.7319 30.0055 36.4422 30.2327 36.1525 30.6518 36.1019 30.9415 36.3291Z" transform="matrix(-1.83697e-16 -1 -1 1.83697e-16 279.236 364.616)"/><path d="M272.622 161.845 347.011 175.662 346.767 176.973 272.378 163.156ZM340.311 169.764 348.189 176.56 338.396 180.073C338.049 180.197 337.668 180.017 337.543 179.67 337.419 179.324 337.599 178.942 337.946 178.818L346.663 175.69 346.453 176.823 339.44 170.773C339.161 170.533 339.13 170.112 339.371 169.833 339.611 169.554 340.032 169.523 340.311 169.764Z"/><path d="M0.427381-0.511654 39.544 32.1622 38.6892 33.1855-0.427381 0.511654ZM36.5955 23.7371 40.1321 33.5221 29.8738 31.7842C29.5108 31.7227 29.2664 31.3786 29.3279 31.0155 29.3894 30.6525 29.7335 30.4081 30.0965 30.4696L39.228 32.0166 38.4897 32.9005 35.3415 24.1903C35.2164 23.8441 35.3956 23.4619 35.7419 23.3368 36.0882 23.2116 36.4703 23.3909 36.5955 23.7371Z" transform="matrix(1 0 0 -1 307.5 278.02)"/><path d="M0.0942809 0.659966-1.65572 0.909966-1.53267 0.880249-3.34517 1.50525-3.20199 1.43579-4.95199 2.56079-4.88934 2.51515-6.63934 3.95265-6.56776 3.88436-8.31776 5.82186-8.28627 5.78429-10.0363 8.03429-9.99084 7.968-13.3658 13.593-13.3349 13.5352-16.6474 20.5352-16.6272 20.4877-19.7522 28.6752-19.74 28.6407-22.74 38.0157-22.7306 37.9833-25.4806 48.3583-25.475 48.3356-28.0375 59.5856-28.0328 59.563-30.3453 71.6255-30.3414 71.6033-32.3414 84.3533-32.339 84.3369-34.089 97.6494-34.0866 97.6288-35.4616 111.379-35.46 111.36-36.46 125.485-36.4591 125.469-37.1466 139.782-37.1459 139.759-37.3334 154.196-37.3337 154.165-37.0837 161.415-37.0869 161.368-36.3369 168.556-36.3423 168.516-35.1548 175.704-35.1625 175.664-33.5375 182.789-33.5476 182.751-31.4851 189.813-31.4965 189.778-28.9965 196.84-29.0099 196.805-26.1349 203.68-26.1473 203.653-22.8973 210.528-22.9227 210.479-15.2352 223.792-15.2687 223.739-6.26875 236.427-6.30448 236.381 3.94552 248.443 3.9076 248.402 15.2826 259.715 15.2408 259.677 27.6158 270.052 27.5721 270.018 40.7596 279.33 40.7135 279.301 54.7135 287.551 54.6638 287.524 69.2263 294.524 69.1707 294.5 84.2332 300.125 84.1873 300.11 91.8748 302.36 91.8431 302.352 99.6556 304.227 99.6257 304.22 107.438 305.72 107.407 305.715 115.282 306.84 115.24 306.835 123.115 307.46 123.083 307.459 129.702 307.667 129.66 309 123.026 308.791 115.114 308.163 107.202 307.033 99.3593 305.527 91.516 303.644 83.7895 301.383 68.6759 295.739 54.0608 288.714 40.0129 280.435 26.7804 271.091 14.3625 260.68 2.94758 249.328-7.33939 237.222-16.3743 224.485-24.091 211.122-27.3592 204.209-30.2472 197.303-32.7597 190.205-34.833 183.105-36.467 175.941-37.661 168.714-38.4155 161.484-38.6668 154.195-38.479 139.73-37.7905 125.398-36.7893 111.256-35.4123 97.4859-33.6599 84.1549-31.6569 71.3856-29.3401 59.3007-26.7724 48.028-24.0151 37.6254-21.0044 28.2169-17.8636 19.9882-14.5261 12.9352-11.1134 7.24748-9.32368 4.94634-7.52399 2.95383-5.70566 1.46021-3.85559 0.270877-1.90722-0.400975-0.0942809-0.659966ZM122.185 302.852 131.003 308.375 121.855 313.332C121.532 313.508 121.127 313.387 120.952 313.064 120.776 312.74 120.896 312.335 121.22 312.16L129.363 307.747 129.327 308.898 121.478 303.982C121.166 303.787 121.071 303.375 121.267 303.063 121.462 302.751 121.873 302.657 122.185 302.852Z" transform="matrix(1.83697e-16 1 1 -1.83697e-16 251.5 128.5)"/><path d="M0.0112029-0.666573 14.8975-0.416382 29.669 0.334711 44.2511 1.52381 58.4597 3.08863 72.1683 5.09171 85.3764 7.40783 97.8385 10.038 109.427 12.9821 120.207 16.1785 129.867 19.6285 138.346 23.2084 145.644 26.9836 148.748 28.9474 151.473 30.9114 153.893 32.9493 155.878 34.9991 157.501 37.0765 158.615 39.2376 159.341 41.3499 159.44 42.1719 158.117 42.3323 158.026 41.5802 158.057 41.7167 157.37 39.7167 157.407 39.8053 156.345 37.7428 156.412 37.8479 154.85 35.8479 154.896 35.9014 152.959 33.9014 153.008 33.9474 150.633 31.9474 150.673 31.9783 147.985 30.0408 148.019 30.0634 144.956 28.1259 145.006 28.1546 137.756 24.4046 137.803 24.4267 129.366 20.8642 129.401 20.8778 119.776 17.4403 119.81 17.4517 109.06 14.2642 109.086 14.2711 97.5233 11.3336 97.5498 11.3398 85.1123 8.7148 85.1348 8.71915 71.9474 6.40665 71.9661 6.40966 58.2786 4.40966 58.302 4.41266 44.1145 2.85016 44.1333 2.85196 29.5708 1.66446 29.5911 1.66581 14.8411 0.915806 14.8638 0.916573-0.0112029 0.666573ZM163.061 34.0129 158.938 43.5656 152.652 35.2745C152.43 34.9811 152.487 34.5629 152.781 34.3405 153.074 34.1181 153.492 34.1756 153.715 34.469L159.31 41.8493 158.167 41.9879 161.837 33.4845C161.983 33.1465 162.375 32.9907 162.713 33.1366 163.051 33.2825 163.207 33.6748 163.061 34.0129Z" transform="matrix(1 0 0 -1 400.5 399.019)"/><path d="M448.787 243.898 508.555 272.447 507.98 273.65 448.213 245.102ZM503.611 265.015 509.461 273.619 499.092 274.476C498.725 274.506 498.403 274.233 498.373 273.866 498.342 273.499 498.615 273.177 498.982 273.147L508.212 272.384 507.716 273.423 502.509 265.764C502.302 265.46 502.381 265.045 502.685 264.838 502.99 264.631 503.404 264.71 503.611 265.015Z"/><text font-family="Yu Gothic,Yu Gothic_MSFontService,sans-serif" font-weight="400" font-size="13" transform="translate(84.3734 128)">顧客<tspan font-family="Calibri,Calibri_MSFontService,sans-serif" font-size="13" x="26.6667" y="0">ID</tspan><tspan font-size="13" x="153.932" y="342">商品コード</tspan><tspan font-size="13" x="1.68326" y="140">個数</tspan><tspan font-size="13" x="200.533" y="27">顧客インスタンス</tspan><tspan font-size="13" x="403.315" y="42">顧客インスタンス</tspan><tspan font-size="13" x="370.752" y="286">商品インスタンス</tspan><tspan font-size="13" x="302.529" y="152">注文インスタンス</tspan><tspan font-size="13" x="233.938" y="151">金額</tspan><tspan font-size="13" x="67.9927" y="231">商品インスタンス</tspan></text></g></svg>