<svg width="390" height="190" xmlns="http://www.w3.org/2000/svg" xmlns:xlink="http://www.w3.org/1999/xlink" overflow="hidden"><defs><clipPath id="clip0"><rect x="75" y="479" width="390" height="190"/></clipPath></defs><g clip-path="url(#clip0)" transform="translate(-75 -479)"><path d="M113.5 500C113.5 496.41 116.41 493.5 120 493.5L237 493.5C240.59 493.5 243.5 496.41 243.5 500L243.5 526C243.5 529.59 240.59 532.5 237 532.5L120 532.5C116.41 532.5 113.5 529.59 113.5 526Z" stroke="#000000" stroke-width="1.33333" stroke-miterlimit="8" fill="#FFFFFF" fill-rule="evenodd"/><text font-family="Yu Gothic,Yu Gothic_MSFontService,sans-serif" font-weight="400" font-size="13" transform="translate(144.667 517)">スタンバイ</text><path d="M113.5 585.167C113.5 581.485 116.485 578.5 120.167 578.5L236.833 578.5C240.515 578.5 243.5 581.485 243.5 585.167L243.5 611.833C243.5 615.515 240.515 618.5 236.833 618.5L120.167 618.5C116.485 618.5 113.5 615.515 113.5 611.833Z" stroke="#000000" stroke-width="1.33333" stroke-miterlimit="8" fill="#FFFFFF" fill-rule="evenodd"/><text font-family="Yu Gothic,Yu Gothic_MSFontService,sans-serif" font-weight="400" font-size="13" transform="translate(151.333 602)">製造準備</text><path d="M299.5 585.167C299.5 581.485 302.485 578.5 306.167 578.5L421.833 578.5C425.515 578.5 428.5 581.485 428.5 585.167L428.5 611.833C428.5 615.515 425.515 618.5 421.833 618.5L306.167 618.5C302.485 618.5 299.5 615.515 299.5 611.833Z" stroke="#000000" stroke-width="1.33333" stroke-miterlimit="8" fill="#FFFFFF" fill-rule="evenodd"/><text font-family="Yu Gothic,Yu Gothic_MSFontService,sans-serif" font-weight="400" font-size="13" transform="translate(343.278 602)">加工中</text><path d="M299.5 500C299.5 496.41 302.41 493.5 306 493.5L422 493.5C425.59 493.5 428.5 496.41 428.5 500L428.5 526C428.5 529.59 425.59 532.5 422 532.5L306 532.5C302.41 532.5 299.5 529.59 299.5 526Z" stroke="#000000" stroke-width="1.33333" stroke-miterlimit="8" fill="#FFFFFF" fill-rule="evenodd"/><text font-family="Yu Gothic,Yu Gothic_MSFontService,sans-serif" font-weight="400" font-size="13" transform="translate(336.611 517)">後処理中</text><path d="M179.167 532.5 179.167 577.301 177.833 577.301 177.833 532.5ZM183.743 569.636 178.5 578.624 173.258 569.637C173.072 569.318 173.18 568.91 173.498 568.725 173.816 568.539 174.224 568.647 174.409 568.965L179.076 576.965 177.924 576.965 182.591 568.965C182.776 568.647 183.185 568.539 183.503 568.725 183.821 568.91 183.928 569.318 183.743 569.636Z"/><path d="M243.5 597.833 298.404 597.833 298.404 599.167 243.5 599.167ZM290.74 593.258 299.727 598.5 290.74 603.743C290.422 603.928 290.014 603.821 289.828 603.503 289.643 603.185 289.75 602.776 290.068 602.591L298.068 597.924 298.068 599.076 290.068 594.409C289.75 594.224 289.643 593.816 289.828 593.498 290.014 593.18 290.422 593.072 290.74 593.258Z"/><path d="M364.163 617.941 364.413 620.191 364.383 620.054 365.133 622.304 365.086 622.197 366.273 624.384 366.217 624.297 367.842 626.422 367.791 626.363 369.791 628.426 369.742 628.38 372.117 630.38 372.046 630.328 377.733 633.953 377.653 633.909 384.34 636.971 384.264 636.942 391.764 639.317 391.685 639.297 399.685 640.797 399.608 640.787 407.858 641.35 407.772 641.349 416.022 640.849 415.95 640.858 423.95 639.483 423.876 639.5 431.376 637.312 431.309 637.336 437.997 634.586 437.912 634.628 443.537 631.315 443.471 631.36 445.846 629.547 445.794 629.591 447.794 627.716 447.739 627.774 449.364 625.836 449.302 625.924 450.489 623.924 450.438 624.031 451.188 622.031 451.151 622.185 451.401 620.122 451.402 620.294 450.84 616.231 450.877 616.377 449.377 612.44 449.44 612.563 447.065 608.876 447.14 608.972 444.077 605.722 444.154 605.791 440.529 602.979 440.629 603.043 436.566 600.918 436.673 600.962 432.36 599.587 432.489 599.615 429.301 599.261 429.448 597.935 432.702 598.297 437.133 599.71 441.299 601.889 445.012 604.77 448.152 608.102 450.598 611.9 452.15 615.973 452.735 620.197 452.465 622.424 451.666 624.554 450.421 626.652 448.735 628.661 446.681 630.587 444.248 632.444 438.547 635.801 431.783 638.582 424.213 640.79 416.139 642.178 407.81 642.683 399.478 642.115 391.4 640.6 383.822 638.2 377.056 635.102 371.292 631.428 368.857 629.378 366.807 627.263 365.126 625.066 363.886 622.781 363.095 620.409 362.837 618.088ZM436.413 604.655 428.059 598.452 437.571 594.234C437.907 594.085 438.301 594.236 438.45 594.573 438.6 594.91 438.448 595.303 438.111 595.453L429.645 599.207 429.772 598.063 437.208 603.584C437.503 603.804 437.565 604.221 437.345 604.517 437.126 604.813 436.708 604.874 436.413 604.655Z"/><path d="M0.666667-1.51757e-06 0.666769 44.8006-0.666565 44.8006-0.666667 1.51757e-06ZM5.2426 37.1364 0.000104995 46.1236-5.24243 37.1364C-5.42796 36.8184-5.32053 36.4102-5.0025 36.2247-4.68446 36.0392-4.27625 36.1466-4.09073 36.4646L0.575954 44.4646-0.575751 44.4646 4.0909 36.4646C4.27642 36.1466 4.68463 36.0391 5.00266 36.2247 5.3207 36.4102 5.42812 36.8184 5.2426 37.1364Z" transform="matrix(1 0 0 -1 363.5 578.621)"/><path d="M1.24486e-06-0.666667 54.9044-0.666564 54.9044 0.666769-1.24486e-06 0.666667ZM47.2401-5.24243 56.2272 0.000105078 47.24 5.24261C46.922 5.42813 46.5138 5.3207 46.3283 5.00267 46.1428 4.68463 46.2502 4.27642 46.5682 4.0909L54.5682-0.575751 54.5682 0.575954 46.5682-4.09073C46.2502-4.27625 46.1428-4.68446 46.3283-5.00249 46.5138-5.32053 46.922-5.42795 47.2401-5.24243Z" transform="matrix(-1 0 0 1 299.724 513.5)"/><text font-family="Yu Gothic,Yu Gothic_MSFontService,sans-serif" font-weight="400" font-size="13" transform="translate(84.9012 559)">仕掛り品割当て<tspan font-size="13" x="160.763" y="61">加工実施</tspan><tspan font-size="13" x="315.882" y="97">加工実施</tspan><tspan font-size="13" x="287.976" y="2">加工完了</tspan><tspan font-size="13" x="159.403" y="-63">後処理完了</tspan></text></g></svg>