<svg width="607" height="528" xmlns="http://www.w3.org/2000/svg" xmlns:xlink="http://www.w3.org/1999/xlink" overflow="hidden"><defs><clipPath id="clip0"><rect x="61" y="64" width="607" height="528"/></clipPath></defs><g clip-path="url(#clip0)" transform="translate(-61 -64)"><path d="M102 306 207 306 207 306 252 306 282 306 282 344 318.232 282.655 282 401 282 534 252 534 207 534 207 534 102 534 102 401 102 344 102 344Z" fill="#F2F2F2" fill-rule="evenodd"/><text font-family="Yu Gothic,Yu Gothic_MSFontService,sans-serif" font-weight="400" font-size="13" transform="translate(118.434 323)">サブクラスの状態モデル</text><path d="M446 306 476 306 476 306 521 306 626 306 626 344 626 344 626 401 626 534 521 534 476 534 476 534 446 534 446 401 407.921 280.567 446 344Z" fill="#F2F2F2" fill-rule="evenodd"/><text font-family="Yu Gothic,Yu Gothic_MSFontService,sans-serif" font-weight="400" font-size="13" transform="translate(462.428 323)">サブクラスの状態モデル</text><path d="M411 106 452.5 106 452.5 106 514.75 106 660 106 660 205.162 660 205.162 660 247.66 660 275.992 514.75 275.992 452.5 275.992 452.5 275.992 411 275.992 411 247.66 373.792 207.723 411 205.162Z" fill="#F2F2F2" fill-rule="evenodd"/><text font-family="Yu Gothic,Yu Gothic_MSFontService,sans-serif" font-weight="400" font-size="13" transform="translate(448.763 123)">スーパークラスの状態モデル</text><rect x="62.5001" y="66.5001" width="605" height="525" stroke="#D9D9D9" stroke-width="1.33333" stroke-miterlimit="8" fill="none"/><rect x="313.5" y="188.5" width="75" height="39" stroke="#000000" stroke-width="1.33333" stroke-miterlimit="8" fill="none"/><text font-family="Calibri,Calibri_MSFontService,sans-serif" font-weight="400" font-size="13" transform="translate(346.593 212)">A</text><rect x="268.5" y="257.5" width="75" height="39" stroke="#000000" stroke-width="1.33333" stroke-miterlimit="8" fill="none"/><text font-family="Calibri,Calibri_MSFontService,sans-serif" font-weight="400" font-size="13" transform="translate(301.79 280)">B</text><path d="M343.5 241.5 351 228.5 358.5 241.5Z" stroke="#000000" stroke-width="1.33333" stroke-miterlimit="8" fill="none" fill-rule="evenodd"/><path d="M350.469 241.5 350.469 249.576 305.5 249.576 305.5 257.651" stroke="#000000" stroke-width="0.666667" stroke-miterlimit="8" fill="none" fill-rule="evenodd"/><rect x="358.5" y="257.5" width="75" height="39" stroke="#000000" stroke-width="1.33333" stroke-miterlimit="8" fill="none"/><text font-family="Calibri,Calibri_MSFontService,sans-serif" font-weight="400" font-size="13" transform="translate(391.812 280)">C</text><path d="M0 0 8.07564 0 8.07564 44.9692 16.1512 44.9692" stroke="#000000" stroke-width="0.666667" stroke-miterlimit="8" fill="none" fill-rule="evenodd" transform="matrix(1.83697e-16 1 1 -1.83697e-16 350.5 241.5)"/><path d="M470.5 144C470.5 140.41 473.41 137.5 477 137.5L593 137.5C596.59 137.5 599.5 140.41 599.5 144L599.5 170C599.5 173.59 596.59 176.5 593 176.5L477 176.5C473.41 176.5 470.5 173.59 470.5 170Z" stroke="#000000" stroke-width="1.33333" stroke-miterlimit="8" fill="#FFFFFF" fill-rule="evenodd"/><text font-family="Calibri,Calibri_MSFontService,sans-serif" font-weight="400" font-size="13" transform="translate(527.772 161)">S1</text><path d="M0.073621-0.662589 2.38538-0.405727 4.74452 0.31512 7.0276 1.42405 9.23928 2.98523 13.3849 7.00326 17.0737 12.282 20.1775 18.4263 22.5816 25.3225 24.0991 32.7202 24.6683 40.3097 24.1624 47.8993 22.7086 55.2945 20.433 62.1846 17.5194 68.3917 14.0219 73.6062 10.1271 77.6925 8.04302 79.1905 5.88158 80.3694 3.63154 81.0312 2.71834 81.1317 2.57248 79.8064 3.42707 79.7123 3.31189 79.7354 5.43689 79.1104 5.30577 79.1647 7.36827 78.0397 7.29841 78.0836 9.29841 76.6461 9.20492 76.7275 13.0174 72.7275 12.9463 72.8161 16.3838 67.6911 16.334 67.7792 19.209 61.6542 19.1795 61.7284 21.4295 54.9159 21.4084 54.9964 22.8459 47.6839 22.8348 47.7682 23.3348 40.2682 23.3352 40.3624 22.7727 32.8624 22.7844 32.9465 21.2844 25.634 21.308 25.7195 18.933 18.907 18.9674 18.9881 15.9049 12.9256 15.9535 13.0069 12.3285 7.81937 12.411 7.91621 8.34852 3.97871 8.42804 4.04465 6.30304 2.54465 6.39623 2.59967 4.20873 1.53717 4.30519 1.57507 2.05519 0.887568 2.17638 0.912589-0.073621 0.662589ZM10.837 84.8418 1.33026 80.6138 9.69005 74.4196C9.98588 74.2004 10.4034 74.2626 10.6226 74.5584 10.8418 74.8542 10.7797 75.2718 10.4838 75.4909L3.0423 81.0047 2.91632 79.8599 11.3788 83.6235C11.7152 83.7731 11.8666 84.1671 11.717 84.5035 11.5674 84.84 11.1734 84.9914 10.837 84.8418Z" transform="matrix(-1 1.22465e-16 1.22465e-16 1 471.833 157.5)"/><text font-family="Calibri,Calibri_MSFontService,sans-serif" font-weight="400" font-size="13" transform="translate(636.358 200)">E2</text><path d="M470.5 225C470.5 221.41 473.41 218.5 477 218.5L593 218.5C596.59 218.5 599.5 221.41 599.5 225L599.5 251C599.5 254.59 596.59 257.5 593 257.5L477 257.5C473.41 257.5 470.5 254.59 470.5 251Z" stroke="#000000" stroke-width="1.33333" stroke-miterlimit="8" fill="#FFFFFF" fill-rule="evenodd"/><text font-family="Calibri,Calibri_MSFontService,sans-serif" font-weight="400" font-size="13" transform="translate(527.772 241)">S3</text><text font-family="Calibri,Calibri_MSFontService,sans-serif" font-weight="400" font-size="13" transform="translate(424.368 201)">E1</text><text font-family="Calibri,Calibri_MSFontService,sans-serif" font-weight="400" font-size="13" transform="translate(76.6581 93)">A</text><text font-family="Yu Gothic,Yu Gothic_MSFontService,sans-serif" font-weight="400" font-size="13" transform="translate(87.3247 93)">の概念インスタンスに事象‘</text><text font-family="Calibri,Calibri_MSFontService,sans-serif" font-weight="400" font-size="13" transform="translate(250.825 93)">E3</text><text font-family="Yu Gothic,Yu Gothic_MSFontService,sans-serif" font-weight="400" font-size="13" transform="translate(264.158 93)">’を送信すると、</text><text font-family="Yu Gothic,Yu Gothic_MSFontService,sans-serif" font-weight="400" font-size="13" transform="translate(76.6581 109)">その</text><text font-family="Yu Gothic,Yu Gothic_MSFontService,sans-serif" font-weight="400" font-size="13" transform="translate(103.325 109)">時</text><text font-family="Calibri,Calibri_MSFontService,sans-serif" font-weight="400" font-size="13" transform="translate(119.658 109)">Super</text><text font-family="Calibri,Calibri_MSFontService,sans-serif" font-weight="400" font-size="13" transform="translate(151.158 109)">-</text><text font-family="Calibri,Calibri_MSFontService,sans-serif" font-weight="400" font-size="13" transform="translate(155.158 109)">Sub</text><text font-family="Calibri,Calibri_MSFontService,sans-serif" font-weight="400" font-size="13" transform="translate(178.325 109)">Relationship</text><text font-family="Yu Gothic,Yu Gothic_MSFontService,sans-serif" font-weight="400" font-size="13" transform="translate(248.158 109)">でリンクされた</text><text font-family="Calibri,Calibri_MSFontService,sans-serif" font-weight="400" font-size="13" transform="translate(344.491 109)">B</text><text font-family="Yu Gothic,Yu Gothic_MSFontService,sans-serif" font-weight="400" font-size="13" transform="translate(351.825 109)">、ま</text><text font-family="Yu Gothic,Yu Gothic_MSFontService,sans-serif" font-weight="400" font-size="13" transform="translate(76.6581 125)">たは、</text><text font-family="Calibri,Calibri_MSFontService,sans-serif" font-weight="400" font-size="13" transform="translate(116.658 125)">C</text><text font-family="Yu Gothic,Yu Gothic_MSFontService,sans-serif" font-weight="400" font-size="13" transform="translate(126.825 125)">どちらかの概念インスタンスの状態マシン</text><text font-family="Yu Gothic,Yu Gothic_MSFontService,sans-serif" font-weight="400" font-size="13" transform="translate(76.6581 141)">に事象が送付される</text><text font-family="Calibri,Calibri_MSFontService,sans-serif" font-weight="400" font-size="8" transform="translate(276.063 239)">{complete, disjoint}</text><text font-family="Calibri,Calibri_MSFontService,sans-serif" font-weight="400" font-size="13" transform="translate(420.532 94)">E1</text><text font-family="Yu Gothic,Yu Gothic_MSFontService,sans-serif" font-weight="400" font-size="13" transform="translate(433.866 94)">、</text><text font-family="Calibri,Calibri_MSFontService,sans-serif" font-weight="400" font-size="13" transform="translate(447.199 94)">E2</text><text font-family="Yu Gothic,Yu Gothic_MSFontService,sans-serif" font-weight="400" font-size="13" transform="translate(460.532 94)">に加えて、未利用の</text><text font-family="Calibri,Calibri_MSFontService,sans-serif" font-weight="400" font-size="13" transform="translate(583.532 94)">E3</text><text font-family="Yu Gothic,Yu Gothic_MSFontService,sans-serif" font-weight="400" font-size="13" transform="translate(599.866 94)">を定義</text><path d="M0.073621-0.662589 2.38538-0.405727 4.74452 0.31512 7.0276 1.42405 9.23928 2.98523 13.3849 7.00326 17.0737 12.282 20.1775 18.4263 22.5816 25.3225 24.0991 32.7202 24.6683 40.3097 24.1624 47.8993 22.7086 55.2945 20.433 62.1846 17.5194 68.3917 14.0219 73.6062 10.1271 77.6925 8.04302 79.1905 5.88158 80.3694 3.63154 81.0312 2.71834 81.1317 2.57248 79.8064 3.42707 79.7123 3.31189 79.7354 5.43689 79.1104 5.30577 79.1647 7.36827 78.0397 7.29841 78.0836 9.29841 76.6461 9.20492 76.7275 13.0174 72.7275 12.9463 72.8161 16.3838 67.6911 16.334 67.7792 19.209 61.6542 19.1795 61.7284 21.4295 54.9159 21.4084 54.9964 22.8459 47.6839 22.8348 47.7682 23.3348 40.2682 23.3352 40.3624 22.7727 32.8624 22.7844 32.9465 21.2844 25.634 21.308 25.7195 18.933 18.907 18.9674 18.9881 15.9049 12.9256 15.9535 13.0069 12.3285 7.81937 12.411 7.91621 8.34852 3.97871 8.42804 4.04465 6.30304 2.54465 6.39623 2.59967 4.20873 1.53717 4.30519 1.57507 2.05519 0.887568 2.17638 0.912589-0.073621 0.662589ZM10.837 84.8418 1.33026 80.6138 9.69005 74.4196C9.98588 74.2004 10.4034 74.2626 10.6226 74.5584 10.8418 74.8542 10.7797 75.2718 10.4838 75.4909L3.0423 81.0047 2.91632 79.8599 11.3788 83.6235C11.7152 83.7731 11.8666 84.1671 11.717 84.5035 11.5674 84.84 11.1734 84.9914 10.837 84.8418Z" transform="matrix(1 0 0 -1 599.5 238.113)"/><path d="M125.5 373C125.5 369.41 128.41 366.5 132 366.5L248 366.5C251.59 366.5 254.5 369.41 254.5 373L254.5 399C254.5 402.59 251.59 405.5 248 405.5L132 405.5C128.41 405.5 125.5 402.59 125.5 399Z" stroke="#000000" stroke-width="1.33333" stroke-miterlimit="8" fill="#FFFFFF" fill-rule="evenodd"/><text font-family="Calibri,Calibri_MSFontService,sans-serif" font-weight="400" font-size="13" transform="translate(182.689 390)">S1</text><path d="M190.167 405.5 190.167 445.764 188.833 445.764 188.833 405.5ZM194.743 438.1 189.5 447.087 184.258 438.1C184.072 437.782 184.18 437.374 184.498 437.188 184.816 437.003 185.224 437.11 185.409 437.428L190.076 445.428 188.924 445.428 193.591 437.428C193.776 437.11 194.185 437.003 194.503 437.188 194.821 437.374 194.928 437.782 194.743 438.1Z"/><text font-family="Calibri,Calibri_MSFontService,sans-serif" font-weight="400" font-size="13" transform="translate(161.242 430)">E3</text><path d="M125.5 454C125.5 450.41 128.41 447.5 132 447.5L248 447.5C251.59 447.5 254.5 450.41 254.5 454L254.5 480C254.5 483.59 251.59 486.5 248 486.5L132 486.5C128.41 486.5 125.5 483.59 125.5 480Z" stroke="#000000" stroke-width="1.33333" stroke-miterlimit="8" fill="#FFFFFF" fill-rule="evenodd"/><text font-family="Calibri,Calibri_MSFontService,sans-serif" font-weight="400" font-size="13" transform="translate(182.689 470)">S3</text><path d="M482.5 373C482.5 369.41 485.41 366.5 489 366.5L605 366.5C608.59 366.5 611.5 369.41 611.5 373L611.5 399C611.5 402.59 608.59 405.5 605 405.5L489 405.5C485.41 405.5 482.5 402.59 482.5 399Z" stroke="#000000" stroke-width="1.33333" stroke-miterlimit="8" fill="#FFFFFF" fill-rule="evenodd"/><text font-family="Calibri,Calibri_MSFontService,sans-serif" font-weight="400" font-size="13" transform="translate(540.336 390)">S1</text><path d="M548.167 405.5 548.167 445.764 546.833 445.764 546.833 405.5ZM552.743 438.1 547.5 447.087 542.258 438.1C542.072 437.782 542.18 437.374 542.498 437.188 542.816 437.003 543.224 437.11 543.409 437.428L548.076 445.428 546.924 445.428 551.591 437.428C551.776 437.11 552.185 437.003 552.503 437.188 552.821 437.374 552.928 437.782 552.743 438.1Z"/><text font-family="Calibri,Calibri_MSFontService,sans-serif" font-weight="400" font-size="13" transform="translate(518.889 430)">E3</text><path d="M482.5 454C482.5 450.41 485.41 447.5 489 447.5L605 447.5C608.59 447.5 611.5 450.41 611.5 454L611.5 480C611.5 483.59 608.59 486.5 605 486.5L489 486.5C485.41 486.5 482.5 483.59 482.5 480Z" stroke="#000000" stroke-width="1.33333" stroke-miterlimit="8" fill="#FFFFFF" fill-rule="evenodd"/><text font-family="Calibri,Calibri_MSFontService,sans-serif" font-weight="400" font-size="13" transform="translate(540.336 470)">S3</text></g></svg>