<svg width="607" height="462" xmlns="http://www.w3.org/2000/svg" xmlns:xlink="http://www.w3.org/1999/xlink" overflow="hidden"><defs><clipPath id="clip0"><rect x="60" y="75" width="607" height="462"/></clipPath></defs><g clip-path="url(#clip0)" transform="translate(-60 -75)"><rect x="61.5001" y="76.5001" width="605" height="460" stroke="#D9D9D9" stroke-width="1.33333" stroke-miterlimit="8" fill="none"/><path d="M110.5 119.667C110.5 114.604 114.604 110.5 119.667 110.5L288.333 110.5C293.396 110.5 297.5 114.604 297.5 119.667L297.5 156.333C297.5 161.396 293.396 165.5 288.333 165.5L119.667 165.5C114.604 165.5 110.5 161.396 110.5 156.333Z" stroke="#000000" stroke-width="1.33333" stroke-miterlimit="8" fill="#FFFFFF" fill-rule="evenodd"/><text font-family="Yu Gothic,Yu Gothic_MSFontService,sans-serif" font-weight="400" font-size="13" transform="translate(122.738 125)">顧客インスタンス存在<tspan font-family="Calibri,Calibri_MSFontService,sans-serif" font-size="13" x="136.333" y="0">AND </tspan><tspan font-size="13" x="0" y="16">商品インスタンス存在</tspan><tspan font-family="Calibri,Calibri_MSFontService,sans-serif" font-size="13" x="136.333" y="16">AND </tspan><tspan font-size="13" x="0" y="32">商品</tspan><tspan font-family="Calibri,Calibri_MSFontService,sans-serif" font-size="13" x="26.6667" y="32">.</tspan><tspan font-size="13" x="30" y="32">在庫</tspan><tspan font-size="13" x="59.6667" y="32">＞</tspan><tspan font-family="Calibri,Calibri_MSFontService,sans-serif" font-size="13" x="73" y="32">= </tspan><tspan font-size="13" x="82.6667" y="32">個数</tspan></text><path d="M110.5 225.667C110.5 220.604 114.604 216.5 119.667 216.5L288.333 216.5C293.396 216.5 297.5 220.604 297.5 225.667L297.5 262.333C297.5 267.396 293.396 271.5 288.333 271.5L119.667 271.5C114.604 271.5 110.5 267.396 110.5 262.333Z" stroke="#000000" stroke-width="1.33333" stroke-miterlimit="8" fill="#FFFFFF" fill-rule="evenodd"/><text font-family="Yu Gothic,Yu Gothic_MSFontService,sans-serif" font-weight="400" font-size="13" transform="translate(122.738 240)">注文<tspan font-size="13" x="26.6667" y="0">インスタンス生成済み</tspan><tspan font-family="Calibri,Calibri_MSFontService,sans-serif" font-size="13" x="0" y="16">R1</tspan><tspan font-size="13" x="14" y="16">リンク済み</tspan></text><path d="M400.5 356.667C400.5 351.604 404.604 347.5 409.667 347.5L578.333 347.5C583.396 347.5 587.5 351.604 587.5 356.667L587.5 393.333C587.5 398.396 583.396 402.5 578.333 402.5L409.667 402.5C404.604 402.5 400.5 398.396 400.5 393.333Z" stroke="#000000" stroke-width="1.33333" stroke-miterlimit="8" fill="#FFFFFF" fill-rule="evenodd"/><text font-family="Yu Gothic,Yu Gothic_MSFontService,sans-serif" font-weight="400" font-size="13" transform="translate(412.425 362)">顧客インスタンス存在<tspan font-family="Calibri,Calibri_MSFontService,sans-serif" font-size="13" x="136.333" y="0">AND </tspan><tspan font-size="13" x="0" y="16">商品インスタンス存在</tspan><tspan font-family="Calibri,Calibri_MSFontService,sans-serif" font-size="13" x="136.333" y="16">AND </tspan><tspan font-size="13" x="0" y="32">商品</tspan><tspan font-family="Calibri,Calibri_MSFontService,sans-serif" font-size="13" x="26.6667" y="32">.</tspan><tspan font-size="13" x="30" y="32">在庫</tspan><tspan font-family="Calibri,Calibri_MSFontService,sans-serif" font-size="13" x="59.6667" y="32">&lt; </tspan><tspan font-size="13" x="69.3333" y="32">個数</tspan></text><path d="M400.5 462.667C400.5 457.604 404.604 453.5 409.667 453.5L578.333 453.5C583.396 453.5 587.5 457.604 587.5 462.667L587.5 499.333C587.5 504.396 583.396 508.5 578.333 508.5L409.667 508.5C404.604 508.5 400.5 504.396 400.5 499.333Z" stroke="#000000" stroke-width="1.33333" stroke-miterlimit="8" fill="#FFFFFF" fill-rule="evenodd"/><text font-family="Yu Gothic,Yu Gothic_MSFontService,sans-serif" font-weight="400" font-size="13" transform="translate(412.425 485)">“在庫なし”事象生成済み</text><path d="M205.167 165.5 205.167 215.578 203.833 215.578 203.833 165.5ZM209.743 207.914 204.5 216.901 199.258 207.914C199.072 207.596 199.18 207.188 199.498 207.002 199.816 206.817 200.224 206.924 200.409 207.242L205.076 215.242 203.924 215.242 208.591 207.242C208.776 206.924 209.185 206.817 209.503 207.002 209.821 207.188 209.928 207.596 209.743 207.914Z"/><path d="M495.167 402.5 495.167 452.578 493.833 452.578 493.833 402.5ZM499.743 444.914 494.5 453.901 489.258 444.914C489.072 444.596 489.18 444.188 489.498 444.002 489.816 443.817 490.224 443.924 490.409 444.242L495.076 452.242 493.924 452.242 498.591 444.242C498.776 443.924 499.185 443.817 499.503 444.002 499.821 444.188 499.928 444.596 499.743 444.914Z"/><text font-family="Yu Gothic,Yu Gothic_MSFontService,sans-serif" font-weight="400" font-size="13" transform="translate(96.2548 194)">“商品を注文する”<tspan font-size="13" x="289.687" y="237">“商品を注文する”</tspan></text><path d="M400.5 119.667C400.5 114.604 404.604 110.5 409.667 110.5L578.333 110.5C583.396 110.5 587.5 114.604 587.5 119.667L587.5 156.333C587.5 161.396 583.396 165.5 578.333 165.5L409.667 165.5C404.604 165.5 400.5 161.396 400.5 156.333Z" stroke="#000000" stroke-width="1.33333" stroke-miterlimit="8" fill="#FFFFFF" fill-rule="evenodd"/><text font-family="Yu Gothic,Yu Gothic_MSFontService,sans-serif" font-weight="400" font-size="13" transform="translate(412.425 141)">顧客インスタンス無し</text><path d="M400.5 225.667C400.5 220.604 404.604 216.5 409.667 216.5L578.333 216.5C583.396 216.5 587.5 220.604 587.5 225.667L587.5 262.333C587.5 267.396 583.396 271.5 578.333 271.5L409.667 271.5C404.604 271.5 400.5 267.396 400.5 262.333Z" stroke="#000000" stroke-width="1.33333" stroke-miterlimit="8" fill="#FFFFFF" fill-rule="evenodd"/><text font-family="Yu Gothic,Yu Gothic_MSFontService,sans-serif" font-weight="400" font-size="13" transform="translate(412.425 240)">“顧客<tspan font-family="Calibri,Calibri_MSFontService,sans-serif" font-size="13" x="32.3333" y="0">ID</tspan>に該当するインス<tspan font-size="13" x="0" y="16">タンス無し”事象を生成</tspan></text><path d="M495.167 165.5 495.167 215.578 493.833 215.578 493.833 165.5ZM499.743 207.914 494.5 216.901 489.258 207.914C489.072 207.596 489.18 207.188 489.498 207.002 489.816 206.817 490.224 206.924 490.409 207.242L495.076 215.242 493.924 215.242 498.591 207.242C498.776 206.924 499.185 206.817 499.503 207.002 499.821 207.188 499.928 207.596 499.743 207.914Z"/><text font-family="Yu Gothic,Yu Gothic_MSFontService,sans-serif" font-weight="400" font-size="13" transform="translate(385.942 194)">“商品を注文する”</text><path d="M110.5 356.667C110.5 351.604 114.604 347.5 119.667 347.5L288.333 347.5C293.396 347.5 297.5 351.604 297.5 356.667L297.5 393.333C297.5 398.396 293.396 402.5 288.333 402.5L119.667 402.5C114.604 402.5 110.5 398.396 110.5 393.333Z" stroke="#000000" stroke-width="1.33333" stroke-miterlimit="8" fill="#FFFFFF" fill-rule="evenodd"/><text font-family="Yu Gothic,Yu Gothic_MSFontService,sans-serif" font-weight="400" font-size="13" transform="translate(122.738 378)">商品インスタンス無し</text><path d="M110.5 462.667C110.5 457.604 114.604 453.5 119.667 453.5L288.333 453.5C293.396 453.5 297.5 457.604 297.5 462.667L297.5 499.333C297.5 504.396 293.396 508.5 288.333 508.5L119.667 508.5C114.604 508.5 110.5 504.396 110.5 499.333Z" stroke="#000000" stroke-width="1.33333" stroke-miterlimit="8" fill="#FFFFFF" fill-rule="evenodd"/><text font-family="Yu Gothic,Yu Gothic_MSFontService,sans-serif" font-weight="400" font-size="13" transform="translate(122.738 469)">“商品コードに該当する<tspan font-size="13" x="0" y="16">インスタンス無し”事象を</tspan><tspan font-size="13" x="0" y="32">生成</tspan></text><path d="M205.167 402.5 205.167 452.578 203.833 452.578 203.833 402.5ZM209.743 444.914 204.5 453.901 199.258 444.914C199.072 444.596 199.18 444.188 199.498 444.002 199.816 443.817 200.224 443.924 200.409 444.242L205.076 452.242 203.924 452.242 208.591 444.242C208.776 443.924 209.185 443.817 209.503 444.002 209.821 444.188 209.928 444.596 209.743 444.914Z"/><text font-family="Yu Gothic,Yu Gothic_MSFontService,sans-serif" font-weight="400" font-size="13" transform="translate(96.2548 431)">“商品を注文する”</text></g></svg>