<svg width="607" height="436" xmlns="http://www.w3.org/2000/svg" xmlns:xlink="http://www.w3.org/1999/xlink" overflow="hidden"><defs><clipPath id="clip0"><rect x="65" y="58" width="607" height="436"/></clipPath></defs><g clip-path="url(#clip0)" transform="translate(-65 -58)"><rect x="66.5001" y="60.5001" width="605" height="432" stroke="#D9D9D9" stroke-width="1.33333" stroke-miterlimit="8" fill="none"/><rect x="111.5" y="115.5" width="127" height="87" stroke="#000000" stroke-width="1.33333" stroke-miterlimit="8" fill="#FFFFFF"/><text font-family="Yu Gothic,Yu Gothic_MSFontService,sans-serif" font-weight="400" font-size="13" transform="translate(160.954 132)">顧客<tspan font-family="Consolas,Consolas_MSFontService,sans-serif" font-size="13" x="-40.2467" y="16">*</tspan><tspan font-size="13" x="-32.9133" y="16">顧客</tspan><tspan font-family="Consolas,Consolas_MSFontService,sans-serif" font-size="13" x="-6.24667" y="16">ID</tspan><tspan font-size="13" x="-26.9133" y="32">顧客名</tspan><tspan font-size="13" x="-26.9133" y="48">住所</tspan></text><rect x="425.5" y="115.5" width="127" height="87" stroke="#000000" stroke-width="1.33333" stroke-miterlimit="8" fill="#FFFFFF"/><text font-family="Yu Gothic,Yu Gothic_MSFontService,sans-serif" font-weight="400" font-size="13" transform="translate(461.861 132)">商品仕様<tspan font-family="Consolas,Consolas_MSFontService,sans-serif" font-size="13" x="-26.9134" y="16">*</tspan><tspan font-size="13" x="-19.58" y="16">商品コード</tspan><tspan font-size="13" x="-13.58" y="32">商品名</tspan><tspan font-size="13" x="-13.58" y="48">在庫</tspan><tspan font-size="13" x="-13.58" y="64">単価</tspan></text><path d="M238.5 158.5 426.294 158.5" stroke="#000000" stroke-width="0.666667" stroke-miterlimit="8" fill="none" fill-rule="evenodd"/><path d="M0 0 6.11895 48.0202" stroke="#000000" stroke-width="2" stroke-miterlimit="8" stroke-dasharray="2 2" fill="none" fill-rule="evenodd" transform="matrix(1 0 0 -1 325 208.02)"/><text font-family="Yu Gothic,Yu Gothic_MSFontService,sans-serif" font-weight="400" font-size="11" transform="translate(248.94 151)">発注者<tspan font-family="Calibri,Calibri_MSFontService,sans-serif" font-size="11" x="-3.70016" y="21">*</tspan><tspan font-family="Calibri,Calibri_MSFontService,sans-serif" font-size="11" x="158.002" y="6">*</tspan><tspan font-size="11" x="125.323" y="21">購入予約</tspan></text><rect x="262.5" y="208.5" width="127" height="87" stroke="#000000" stroke-width="1.33333" stroke-miterlimit="8" fill="#FFFFFF"/><text font-family="Yu Gothic,Yu Gothic_MSFontService,sans-serif" font-weight="400" font-size="13" transform="translate(311.936 225)">注文<tspan font-family="Consolas,Consolas_MSFontService,sans-serif" font-size="13" x="-40.2467" y="16">*</tspan><tspan font-size="13" x="-32.9133" y="16">注文</tspan><tspan font-family="Consolas,Consolas_MSFontService,sans-serif" font-size="13" x="-6.24667" y="16">ID</tspan><tspan font-size="13" x="-26.9133" y="32">個数</tspan><tspan font-size="13" x="-26.9133" y="48">金額</tspan><tspan font-size="16" x="-236.351" y="-146">ドメイン：商品販売</tspan></text><rect x="425" y="299" width="127" height="87" stroke="#000000" stroke-width="2" stroke-miterlimit="8" fill="#FFFFFF"/><text font-family="Yu Gothic,Yu Gothic_MSFontService,sans-serif" font-weight="400" font-size="13" transform="translate(461.861 316)">在庫待ち<tspan font-size="13" x="-13.58" y="16">開始日時</tspan><tspan font-family="Calibri,Calibri_MSFontService,sans-serif" font-size="13" x="-141.172" y="-168">R1</tspan></text><path d="M0 0 47.283 0 47.283 100.035" stroke="#000000" stroke-width="2" stroke-miterlimit="8" fill="none" fill-rule="evenodd" transform="matrix(1.83697e-16 1 1 -1.83697e-16 325 295)"/><path d="M0 0 0.000104987 97.0439" stroke="#000000" stroke-width="2" stroke-miterlimit="8" fill="none" fill-rule="evenodd" transform="matrix(1 0 0 -1 489 299.044)"/><text font-family="Calibri,Calibri_MSFontService,sans-serif" font-weight="400" font-size="11" transform="translate(405.498 337)">0..1<tspan font-size="11" x="-70.5853" y="-26">1</tspan><tspan font-size="11" x="72.928" y="-120">1</tspan><tspan font-size="11" x="70.2333" y="-39">*</tspan><tspan font-family="Yu Gothic,Yu Gothic_MSFontService,sans-serif" font-size="11" x="-29.5765" y="20">在庫待ち</tspan><tspan font-size="13" x="-75.8514" y="21">R2</tspan><tspan font-size="13" x="63.6296" y="-83">R3</tspan><tspan font-family="Yu Gothic,Yu Gothic_MSFontService,sans-serif" font-size="11" x="90.8282" y="-119">対象商品</tspan><tspan font-family="MS Gothic,MS Gothic_MSFontService,sans-serif" font-size="13" x="-306.988" y="105">※</tspan><tspan font-family="Yu Gothic,Yu Gothic_MSFontService,sans-serif" font-size="13" x="-290.655" y="105">“商品”クラスの名前が“商品仕様”に変わっていることに注意</tspan><tspan font-family="MS Gothic,MS Gothic_MSFontService,sans-serif" font-size="13" x="-306.988" y="121">※</tspan><tspan font-family="Yu Gothic,Yu Gothic_MSFontService,sans-serif" font-size="13" x="-290.655" y="121">“在庫”という特徴値を持つということは、商品そのものではないとの判断で名前を変更</tspan></text></g></svg>