<svg width="607" height="473" xmlns="http://www.w3.org/2000/svg" xmlns:xlink="http://www.w3.org/1999/xlink" overflow="hidden"><defs><clipPath id="clip0"><rect x="60" y="14" width="607" height="473"/></clipPath><clipPath id="clip1"><rect x="61" y="52" width="248" height="106"/></clipPath><clipPath id="clip2"><rect x="60" y="52" width="249" height="106"/></clipPath><clipPath id="clip3"><rect x="35" y="35" width="287" height="135"/></clipPath><clipPath id="clip4"><rect x="35" y="35" width="287" height="135"/></clipPath><clipPath id="clip5"><rect x="534" y="76" width="38" height="38"/></clipPath><clipPath id="clip6"><rect x="534" y="76" width="38" height="38"/></clipPath><clipPath id="clip7"><rect x="534" y="76" width="38" height="38"/></clipPath><clipPath id="clip8"><rect x="346" y="158" width="38" height="38"/></clipPath><clipPath id="clip9"><rect x="346" y="158" width="38" height="38"/></clipPath><clipPath id="clip10"><rect x="346" y="158" width="38" height="38"/></clipPath><clipPath id="clip11"><rect x="346" y="76" width="38" height="38"/></clipPath><clipPath id="clip12"><rect x="346" y="76" width="38" height="38"/></clipPath><clipPath id="clip13"><rect x="346" y="76" width="38" height="38"/></clipPath><clipPath id="clip14"><rect x="534" y="158" width="38" height="38"/></clipPath><clipPath id="clip15"><rect x="534" y="158" width="38" height="38"/></clipPath><clipPath id="clip16"><rect x="534" y="158" width="38" height="38"/></clipPath><clipPath id="clip17"><rect x="433" y="76" width="38" height="38"/></clipPath><clipPath id="clip18"><rect x="433" y="76" width="38" height="38"/></clipPath><clipPath id="clip19"><rect x="433" y="76" width="38" height="38"/></clipPath><clipPath id="clip20"><rect x="543" y="293" width="38" height="38"/></clipPath><clipPath id="clip21"><rect x="543" y="293" width="38" height="38"/></clipPath><clipPath id="clip22"><rect x="543" y="293" width="38" height="38"/></clipPath><clipPath id="clip23"><rect x="355" y="375" width="38" height="38"/></clipPath><clipPath id="clip24"><rect x="355" y="375" width="38" height="38"/></clipPath><clipPath id="clip25"><rect x="355" y="375" width="38" height="38"/></clipPath><clipPath id="clip26"><rect x="355" y="293" width="38" height="38"/></clipPath><clipPath id="clip27"><rect x="355" y="293" width="38" height="38"/></clipPath><clipPath id="clip28"><rect x="355" y="293" width="38" height="38"/></clipPath><clipPath id="clip29"><rect x="543" y="375" width="38" height="38"/></clipPath><clipPath id="clip30"><rect x="543" y="375" width="38" height="38"/></clipPath><clipPath id="clip31"><rect x="543" y="375" width="38" height="38"/></clipPath><clipPath id="clip32"><rect x="442" y="293" width="38" height="38"/></clipPath><clipPath id="clip33"><rect x="442" y="293" width="38" height="38"/></clipPath><clipPath id="clip34"><rect x="442" y="293" width="38" height="38"/></clipPath><clipPath id="clip35"><rect x="445" y="375" width="38" height="38"/></clipPath><clipPath id="clip36"><rect x="445" y="375" width="38" height="38"/></clipPath><clipPath id="clip37"><rect x="445" y="375" width="38" height="38"/></clipPath></defs><g clip-path="url(#clip0)" transform="translate(-60 -14)"><rect x="312" y="275" width="308" height="186" fill="#F2F2F2"/><text font-family="Yu Gothic,Yu Gothic_MSFontService,sans-serif" font-weight="400" font-size="13" transform="translate(425.914 452)">変化後の状態</text><rect x="312" y="44" width="308" height="186" fill="#F2F2F2"/><text font-family="Yu Gothic,Yu Gothic_MSFontService,sans-serif" font-weight="400" font-size="13" transform="translate(425.914 61)">変化前の状態</text><rect x="61.5001" y="15.5001" width="605" height="470" stroke="#D9D9D9" stroke-width="1.33333" stroke-miterlimit="8" fill="none"/><g clip-path="url(#clip1)"><g clip-path="url(#clip2)"><g clip-path="url(#clip3)"><g clip-path="url(#clip4)"><path d="M27.4777 44.3871 311.179 44.3871 311.179 177.783 27.4777 177.783Z" stroke="#D9D9D9" stroke-width="0.62627" stroke-miterlimit="8" fill="none" transform="matrix(1.00367 0 0 1 8.81768 -8.422)"/><path d="M65.054 76.3269 124.237 76.3269 124.237 117.191 65.054 117.191Z" stroke="#000000" stroke-width="0.62627" stroke-miterlimit="8" fill="#FFFFFF" transform="matrix(1.00367 0 0 1 8.81768 -8.422)"/><text font-family="Yu Gothic,Yu Gothic_MSFontService,sans-serif" font-weight="400" font-size="13" transform="matrix(0.471429 0 0 0.469704 97.3403 75)">顧客<tspan font-family="Consolas,Consolas_MSFontService,sans-serif" font-size="13" x="-40.2467" y="17.032">*</tspan><tspan font-size="13" x="-32.9133" y="17.032">顧客</tspan><tspan font-family="Consolas,Consolas_MSFontService,sans-serif" font-size="13" x="-6.24665" y="17.032">ID</tspan><tspan font-size="13" x="-26.9133" y="31.935">顧客名</tspan><tspan font-size="13" x="-26.9133" y="48.967">住所</tspan></text><path d="M212.541 76.3269 272.193 76.3269 272.193 117.191 212.541 117.191Z" stroke="#000000" stroke-width="0.62627" stroke-miterlimit="8" fill="#FFFFFF" transform="matrix(1.00367 0 0 1 8.81768 -8.422)"/><text font-family="Yu Gothic,Yu Gothic_MSFontService,sans-serif" font-weight="400" font-size="13" transform="matrix(0.471429 0 0 0.469704 245.482 75)">商品<tspan font-family="Consolas,Consolas_MSFontService,sans-serif" font-size="13" x="-40.2467" y="17.032">*</tspan><tspan font-size="13" x="-32.9133" y="17.032">商品</tspan><tspan font-size="13" x="-6.91329" y="17.032">コード</tspan><tspan font-size="13" x="-26.9133" y="31.935">商品名</tspan><tspan font-size="13" x="-26.9133" y="48.967">在庫</tspan><tspan font-size="13" x="-26.9133" y="63.87">単価</tspan></text><path d="M124.237 96.5242 212.444 96.5242" stroke="#000000" stroke-width="0.313136" stroke-miterlimit="8" fill="none" fill-rule="evenodd" transform="matrix(1.00367 0 0 1 8.81768 -8.422)"/><path d="M0 0 2.8741 22.5553" stroke="#000000" stroke-width="0.939408" stroke-miterlimit="8" stroke-dasharray="0.939408 0.939408" fill="none" fill-rule="evenodd" transform="matrix(1.00367 0 0 -1 174.761 111.362)"/><text font-family="Yu Gothic,Yu Gothic_MSFontService,sans-serif" font-weight="400" font-size="11" transform="matrix(0.471429 0 0 0.469704 138.819 84)">発注者<tspan font-family="Calibri,Calibri_MSFontService,sans-serif" font-size="11" x="-3.70017" y="21.29">*</tspan><tspan font-family="Calibri,Calibri_MSFontService,sans-serif" font-size="11" x="158.002" y="6.387">*</tspan><tspan font-size="11" x="125.323" y="21.29">購入予約</tspan></text><path d="M135.979 120.009 195.162 120.009 195.162 160.874 135.979 160.874Z" stroke="#000000" stroke-width="0.62627" stroke-miterlimit="8" fill="#FFFFFF" transform="matrix(1.00367 0 0 1 8.81768 -8.422)"/><text font-family="Yu Gothic,Yu Gothic_MSFontService,sans-serif" font-weight="400" font-size="13" transform="matrix(0.471429 0 0 0.469704 168.518 119)">注文<tspan font-family="Consolas,Consolas_MSFontService,sans-serif" font-size="13" x="-40.2467" y="17.032">*</tspan><tspan font-size="13" x="-32.9133" y="17.032">注文</tspan><tspan font-family="Consolas,Consolas_MSFontService,sans-serif" font-size="13" x="-6.24665" y="17.032">ID</tspan><tspan font-size="13" x="-26.9133" y="31.935">個数</tspan><tspan font-size="13" x="-26.9133" y="48.967">金額</tspan><tspan font-size="16" x="-271.519" y="-157.546">ドメイン</tspan><tspan font-size="16" x="-208.519" y="-157.546">：</tspan><tspan font-size="16" x="-192.519" y="-157.546">商品販売</tspan></text></g></g></g></g><g clip-path="url(#clip5)"><g clip-path="url(#clip6)"><g clip-path="url(#clip7)"><path d="M559.291 76 537.422 97.869 534 114 550.128 110.578 572 88.7054 559.291 76ZM559.291 79.8849 563.19 83.7837 544.707 102.264 540.81 98.3665 559.291 79.8849ZM542.168 109.426 538.573 105.831 539.953 99.5621 548.436 108.046 542.168 109.426ZM549.631 107.188 545.735 103.292 564.215 84.8089 568.114 88.7054 549.631 107.188Z" fill="#4B4B4B"/></g></g></g><g clip-path="url(#clip8)"><g clip-path="url(#clip9)"><g clip-path="url(#clip10)"><path d="M378.388 188.122C377.487 186.773 376.116 186.025 374.826 185.538 374.179 185.295 373.546 185.116 372.988 184.963 372.431 184.812 371.946 184.683 371.619 184.56 371.155 184.388 370.676 184.174 370.284 183.94L370.284 181.491 369.426 181.634C369.426 181.401 369.426 181.157 369.426 180.887 370.156 180.076 371.207 178.819 371.635 176.82 371.788 176.752 371.938 176.675 372.084 176.574 372.436 176.33 372.736 175.976 372.991 175.493 373.248 175.008 373.476 174.386 373.72 173.534 373.842 173.103 373.899 172.729 373.899 172.397 373.9 172.015 373.821 171.684 373.678 171.417 373.519 171.119 373.289 170.92 373.066 170.793L373.066 169.874C373.095 169.848 373.131 169.824 373.157 169.797 373.887 169.037 373.597 168.158 373.089 167.504 373.726 166.608 375.002 164.54 374.642 162.742 373.875 158.908 368.478 158 365 158 361.522 158 356.125 158.908 355.358 162.742 354.999 164.54 356.273 166.608 356.912 167.504 356.419 168.138 356.138 168.986 356.79 169.729L356.79 170.896C356.616 171.02 356.445 171.186 356.323 171.417 356.179 171.685 356.1 172.015 356.101 172.397 356.101 172.73 356.158 173.103 356.281 173.534 356.606 174.669 356.9 175.4 357.279 175.934 357.468 176.2 357.683 176.412 357.917 176.574 358.062 176.675 358.213 176.752 358.365 176.82 358.794 178.819 359.844 180.076 360.574 180.888 360.574 181.157 360.574 181.401 360.574 181.634L359.716 181.491 359.716 183.941C359.672 183.968 359.63 183.996 359.583 184.023 359.205 184.238 358.771 184.424 358.391 184.557 357.945 184.716 357.229 184.88 356.427 185.109 355.222 185.457 353.8 185.959 352.644 186.949 352.068 187.445 351.562 188.067 351.206 188.84 350.85 189.612 350.645 190.53 350.645 191.606 350.645 191.856 350.656 192.114 350.679 192.381 350.695 192.563 350.764 192.711 350.847 192.835 351.003 193.065 351.213 193.238 351.477 193.416 351.938 193.722 352.58 194.021 353.402 194.316 355.865 195.194 359.945 195.998 365 196 369.107 195.999 372.575 195.467 375.048 194.798 376.285 194.462 377.273 194.094 377.985 193.728 378.342 193.545 378.631 193.362 378.858 193.164 378.971 193.064 379.07 192.959 379.154 192.835 379.235 192.712 379.306 192.563 379.321 192.381 379.344 192.114 379.354 191.857 379.354 191.607 379.356 190.174 378.988 189.02 378.388 188.122ZM364.247 162.357 365.001 160.675 365.754 162.357 367.586 162.554 366.22 163.79 366.598 165.593 365.001 164.676 363.402 165.593 363.78 163.79 362.414 162.554 364.247 162.357ZM365 194.464C364.463 194.464 364.029 194.029 364.029 193.492 364.029 192.956 364.463 192.521 365 192.521 365.537 192.521 365.972 192.956 365.972 193.492 365.972 194.029 365.537 194.464 365 194.464ZM365 189.703C364.463 189.703 364.029 189.267 364.029 188.731 364.029 188.194 364.463 187.759 365 187.759 365.537 187.759 365.972 188.194 365.972 188.731 365.972 189.267 365.537 189.703 365 189.703ZM365 185.816 360.04 184.989C360.215 184.892 360.387 184.79 360.549 184.677 360.643 184.613 360.728 184.539 360.815 184.468L364.818 185.135 364.818 182.341 361.643 181.812C361.643 181.475 361.643 181.108 361.643 180.684L361.643 180.479 361.505 180.326C360.745 179.477 359.709 178.347 359.35 176.34L359.296 176.034 359.004 175.929C358.809 175.859 358.658 175.788 358.527 175.697 358.332 175.559 358.156 175.371 357.953 174.992 357.752 174.615 357.54 174.054 357.309 173.241 357.207 172.884 357.17 172.605 357.17 172.397 357.17 172.156 357.216 172.013 357.265 171.921 357.339 171.787 357.43 171.729 357.544 171.684 357.561 171.677 357.578 171.673 357.595 171.668L359.462 173.11 359.462 170.9C361.475 171.327 363.958 171.409 365 171.409 366.017 171.409 368.408 171.333 370.393 170.932L370.393 173.11 372.29 171.644C372.365 171.655 372.477 171.679 372.563 171.736 372.63 171.779 372.685 171.829 372.735 171.921 372.784 172.013 372.83 172.156 372.83 172.397 372.83 172.605 372.794 172.883 372.692 173.241 372.383 174.326 372.107 174.959 371.851 175.313 371.723 175.492 371.605 175.604 371.474 175.697 371.342 175.788 371.191 175.859 370.996 175.929L370.704 176.034 370.65 176.34C370.292 178.347 369.256 179.477 368.495 180.326L368.357 180.479 368.357 180.684C368.357 181.108 368.357 181.475 368.357 181.812L365.183 182.341 365.183 185.135 369.172 184.47C369.377 184.638 369.604 184.787 369.842 184.924 369.883 184.947 369.927 184.965 369.969 184.988L365 185.816Z" fill="#4B4B4B"/></g></g></g><g clip-path="url(#clip11)"><g clip-path="url(#clip12)"><g clip-path="url(#clip13)"><path d="M358.067 86.9245C358.067 86.9245 362.269 87.7655 367.73 82.3027 370.252 85.6648 371.934 87.345 371.934 87.345L371.934 92.3889C373.62 90.6492 374.664 88.2802 374.664 85.6648 374.664 80.3268 370.338 76 365 76 359.663 76 355.336 80.3268 355.336 85.6648 355.336 88.2802 356.379 90.6491 358.067 92.3889L358.067 86.9245Z" fill="#4B4B4B"/><path d="M371.481 98.0746C370.803 98.4454 365 111.186 365 111.186 365 111.186 359.198 98.4455 358.518 98.0746 351.986 100.431 351.694 105.711 351.694 114L378.306 114C378.306 105.711 378.014 100.431 371.481 98.0746Z" fill="#4B4B4B"/><path d="M362.107 97.5054 362.107 101.363 365 100.379 367.893 101.363 367.893 97.5054 365 98.4892Z" fill="#4B4B4B"/></g></g></g><g clip-path="url(#clip14)"><g clip-path="url(#clip15)"><g clip-path="url(#clip16)"><path d="M541.594 163.38C541.182 163.379 540.819 163.216 540.547 162.946 540.277 162.674 540.114 162.311 540.113 161.898 540.114 161.485 540.277 161.122 540.547 160.85 540.819 160.58 541.182 160.417 541.594 160.416L567.095 160.417 567.095 158.001 541.594 158C539.441 158.001 537.698 159.745 537.697 161.898L537.697 192.102C537.698 194.255 539.441 195.999 541.594 196L568.303 196 568.303 163.38 541.594 163.38ZM565.887 193.583 542.489 193.584 542.489 165.796 565.887 165.796 565.887 193.583Z" fill="#4B4B4B"/><path d="M562.413 189.355 562.413 169.119 546.103 169.119 546.103 190.261 562.413 190.261 562.413 189.355ZM560.601 188.449 547.915 188.449 547.915 170.931 560.601 170.931 560.601 188.449Z" fill="#4B4B4B"/><path d="M550.634 183.465 557.883 183.465 557.883 184.825 550.634 184.825Z" fill="#4B4B4B"/></g></g></g><path d="M384.5 95.5001 534.585 95.5002" stroke="#000000" stroke-width="0.666667" stroke-miterlimit="8" fill="none" fill-rule="evenodd"/><g clip-path="url(#clip17)"><g clip-path="url(#clip18)"><g clip-path="url(#clip19)"><path d="M447.805 93.4154 464.17 93.4154 464.17 94.7901 447.805 94.7901Z" fill="#4B4B4B"/><path d="M446.394 98.8499 462.759 98.8499 462.759 100.225 446.394 100.225Z" fill="#4B4B4B"/><path d="M470.947 78.7166 470.947 77.8322 443.251 77.8322 443.251 78.7166C443.251 80.543 443.302 82.4523 443.302 84.4347 443.302 87.3258 443.195 90.3716 442.68 93.5426 442.189 96.5582 441.331 99.6874 439.841 102.914L437.175 102.914C436.704 102.914 436.228 102.989 435.769 103.149 435.082 103.387 434.431 103.823 433.938 104.463 433.444 105.103 433.118 105.934 433.021 106.914 433.007 107.055 433 107.197 433 107.337 432.999 108.047 433.182 108.717 433.49 109.304 433.953 110.187 434.684 110.889 435.533 111.378 436.383 111.867 437.359 112.149 438.352 112.156L459.407 112.168C460.208 112.17 460.903 112.006 461.495 111.737 462.087 111.47 462.57 111.114 463.019 110.757 464.853 109.296 466.27 107.486 467.358 105.476 468.99 102.459 469.891 98.9919 470.395 95.4666 470.897 91.9414 470.999 88.3527 471 85.0861 471 82.7468 470.947 80.5719 470.947 78.7166ZM438.362 110.388 438.363 110.388C437.924 110.386 437.469 110.3 437.038 110.139 436.391 109.899 435.805 109.492 435.401 109.001 435.198 108.755 435.04 108.489 434.932 108.212 434.825 107.934 434.768 107.645 434.768 107.337 434.768 107.256 434.772 107.174 434.78 107.09 434.827 106.623 434.939 106.249 435.088 105.947 435.313 105.495 435.617 105.194 435.975 104.989 436.332 104.784 436.751 104.692 437.175 104.692L456.122 104.692C455.917 104.928 455.734 105.197 455.588 105.502 455.372 105.949 455.228 106.467 455.169 107.051 455.156 107.183 455.15 107.314 455.15 107.443 455.15 108.061 455.297 108.645 455.554 109.165 455.785 109.631 456.103 110.046 456.479 110.399L438.362 110.388ZM468.025 98.5547C467.515 100.734 466.798 102.798 465.803 104.635 464.808 106.471 463.541 108.08 461.917 109.374 461.508 109.701 461.148 109.955 460.768 110.125 460.387 110.295 459.981 110.398 459.407 110.4L458.817 110.399C458.282 110.248 457.786 109.98 457.383 109.628 457.056 109.345 456.793 109.01 456.611 108.642 456.43 108.274 456.329 107.873 456.329 107.443 456.329 107.353 456.333 107.262 456.342 107.168 456.388 106.706 456.499 106.325 456.649 106.013 456.876 105.546 457.187 105.228 457.548 105.015 457.908 104.802 458.322 104.699 458.735 104.7 459.152 104.698 459.566 104.806 459.908 104.998 460.251 105.191 460.52 105.463 460.683 105.801 460.769 105.979 460.822 106.217 460.822 106.458 460.822 106.654 460.787 106.85 460.723 107.014 460.659 107.179 460.569 107.308 460.464 107.398 460.266 107.564 460.064 107.627 459.861 107.628 459.684 107.628 459.507 107.575 459.359 107.479 459.21 107.384 459.095 107.251 459.027 107.092L457.943 107.557C458.109 107.944 458.387 108.256 458.722 108.471 459.057 108.686 459.451 108.806 459.861 108.806 460.33 108.808 460.822 108.642 461.228 108.295 461.506 108.057 461.698 107.757 461.821 107.441 461.944 107.124 462 106.789 462 106.458 462 106.055 461.918 105.653 461.745 105.291 461.467 104.713 461.012 104.267 460.485 103.971 459.967 103.681 459.377 103.53 458.777 103.522L458.777 103.513 441.513 103.513C443.036 100.175 443.921 96.9292 444.425 93.8263 444.962 90.5162 445.069 87.3683 445.069 84.4348 445.069 82.7483 445.035 81.1362 445.024 79.6004L469.183 79.6004C469.195 81.2709 469.232 83.1256 469.232 85.0862 469.233 89.3903 469.046 94.1972 468.025 98.5547Z" fill="#4B4B4B"/><path d="M457.579 89.9782C457.786 87.6679 457.796 85.4564 457.775 83.3649L448.619 83.3649C448.64 85.4564 448.629 87.6679 448.422 89.9782L457.579 89.9782Z" fill="#4B4B4B"/></g></g></g><text font-family="Calibri,Calibri_MSFontService,sans-serif" font-weight="400" font-size="11" transform="translate(341.581 125)">C003:<tspan font-family="Yu Gothic,Yu Gothic_MSFontService,sans-serif" font-size="11" x="24.5" y="0">顧客</tspan></text><path d="M341.581 125.869 353.081 125.869 364.581 125.869 376.081 125.869 387.581 125.869 387.581 126.869 376.081 126.869 364.581 126.869 353.081 126.869 341.581 126.869Z" fill-rule="evenodd"/><text font-family="Calibri,Calibri_MSFontService,sans-serif" font-weight="400" font-size="11" transform="translate(341.817 208)">C172:<tspan font-family="Yu Gothic,Yu Gothic_MSFontService,sans-serif" font-size="11" x="24.5" y="0">顧客</tspan></text><path d="M341.817 209.458 353.317 209.458 364.817 209.458 376.317 209.458 387.817 209.458 387.817 210.458 376.317 210.458 364.817 210.458 353.317 210.458 341.817 210.458Z" fill-rule="evenodd"/><text font-family="Calibri,Calibri_MSFontService,sans-serif" font-weight="400" font-size="11" transform="translate(529.638 130)">P031:<tspan font-family="Yu Gothic,Yu Gothic_MSFontService,sans-serif" font-size="11" x="24.3333" y="0">商品</tspan></text><path d="M529.638 130.609 541.138 130.609 552.638 130.609 564.138 130.609 575.638 130.609 575.638 131.609 564.138 131.609 552.638 131.609 541.138 131.609 529.638 131.609Z" fill-rule="evenodd"/><text font-family="Calibri,Calibri_MSFontService,sans-serif" font-weight="400" font-size="11" transform="translate(529.638 209)">N008:<tspan font-family="Yu Gothic,Yu Gothic_MSFontService,sans-serif" font-size="11" x="25.6667" y="0">商品</tspan></text><path d="M529.638 209.504 541.388 209.504 553.138 209.504 564.888 209.504 576.638 209.504 576.638 210.504 564.888 210.504 553.138 210.504 541.388 210.504 529.638 210.504Z" fill-rule="evenodd"/><text font-family="Calibri,Calibri_MSFontService,sans-serif" font-weight="400" font-size="11" transform="translate(407.25 122)">C003P031<tspan font-size="11" x="43.1667" y="0">-</tspan><tspan font-size="11" x="46.5" y="0">001:</tspan><tspan font-family="Yu Gothic,Yu Gothic_MSFontService,sans-serif" font-size="11" x="65.3333" y="0">注文</tspan></text><path d="M407.25 122.931 429 122.931 450.75 122.931 472.5 122.931 494.25 122.931 494.25 123.931 472.5 123.931 450.75 123.931 429 123.931 407.25 123.931Z" fill-rule="evenodd"/><text font-family="Calibri,Calibri_MSFontService,sans-serif" font-weight="400" font-size="11" transform="translate(457.601 87)">12</text><g clip-path="url(#clip20)"><g clip-path="url(#clip21)"><g clip-path="url(#clip22)"><path d="M568.291 293 546.422 314.869 543 331 559.128 327.578 581 305.705 568.291 293ZM568.291 296.885 572.19 300.784 553.707 319.264 549.81 315.366 568.291 296.885ZM551.168 326.426 547.573 322.831 548.953 316.562 557.436 325.046 551.168 326.426ZM558.631 324.188 554.735 320.292 573.215 301.809 577.114 305.705 558.631 324.188Z" fill="#4B4B4B"/></g></g></g><g clip-path="url(#clip23)"><g clip-path="url(#clip24)"><g clip-path="url(#clip25)"><path d="M387.388 405.122C386.487 403.773 385.116 403.025 383.826 402.538 383.179 402.295 382.546 402.116 381.988 401.963 381.431 401.812 380.946 401.683 380.619 401.56 380.155 401.388 379.676 401.174 379.284 400.94L379.284 398.491 378.426 398.634C378.426 398.401 378.426 398.157 378.426 397.887 379.156 397.076 380.207 395.819 380.635 393.82 380.788 393.752 380.938 393.675 381.084 393.574 381.436 393.33 381.736 392.976 381.991 392.493 382.248 392.008 382.476 391.386 382.72 390.534 382.842 390.103 382.899 389.729 382.899 389.397 382.9 389.015 382.821 388.684 382.678 388.417 382.519 388.119 382.289 387.92 382.066 387.793L382.066 386.874C382.095 386.848 382.131 386.824 382.157 386.797 382.887 386.037 382.597 385.158 382.089 384.504 382.726 383.608 384.002 381.54 383.642 379.742 382.875 375.908 377.478 375 374 375 370.522 375 365.125 375.908 364.358 379.742 363.999 381.54 365.273 383.608 365.912 384.504 365.419 385.138 365.138 385.986 365.79 386.729L365.79 387.896C365.616 388.02 365.445 388.186 365.323 388.417 365.179 388.685 365.1 389.015 365.101 389.397 365.101 389.73 365.158 390.103 365.281 390.534 365.606 391.669 365.9 392.4 366.279 392.934 366.468 393.2 366.683 393.412 366.917 393.574 367.062 393.675 367.213 393.752 367.365 393.82 367.794 395.819 368.844 397.076 369.574 397.888 369.574 398.157 369.574 398.401 369.574 398.634L368.716 398.491 368.716 400.941C368.672 400.968 368.63 400.996 368.583 401.022 368.205 401.238 367.771 401.424 367.391 401.557 366.945 401.716 366.229 401.88 365.427 402.109 364.222 402.457 362.8 402.959 361.644 403.949 361.068 404.445 360.562 405.067 360.206 405.84 359.85 406.612 359.645 407.53 359.645 408.606 359.645 408.856 359.656 409.114 359.679 409.381 359.695 409.563 359.764 409.711 359.847 409.835 360.003 410.065 360.213 410.238 360.477 410.416 360.938 410.722 361.58 411.021 362.402 411.316 364.865 412.194 368.945 412.998 374 413 378.107 412.999 381.575 412.467 384.048 411.798 385.285 411.462 386.273 411.094 386.985 410.728 387.342 410.545 387.631 410.362 387.858 410.164 387.971 410.064 388.07 409.959 388.154 409.835 388.235 409.712 388.306 409.563 388.321 409.381 388.344 409.114 388.354 408.857 388.354 408.607 388.356 407.174 387.988 406.02 387.388 405.122ZM373.247 379.357 374.001 377.675 374.754 379.357 376.586 379.554 375.22 380.79 375.598 382.593 374.001 381.676 372.402 382.593 372.78 380.79 371.414 379.554 373.247 379.357ZM374 411.464C373.463 411.464 373.029 411.029 373.029 410.492 373.029 409.956 373.463 409.521 374 409.521 374.537 409.521 374.972 409.956 374.972 410.492 374.972 411.029 374.537 411.464 374 411.464ZM374 406.703C373.463 406.703 373.029 406.267 373.029 405.731 373.029 405.194 373.463 404.759 374 404.759 374.537 404.759 374.972 405.194 374.972 405.731 374.972 406.267 374.537 406.703 374 406.703ZM374 402.816 369.04 401.989C369.215 401.892 369.387 401.79 369.549 401.677 369.643 401.613 369.728 401.539 369.815 401.468L373.818 402.135 373.818 399.341 370.643 398.812C370.643 398.475 370.643 398.108 370.643 397.684L370.643 397.479 370.505 397.326C369.745 396.478 368.709 395.347 368.35 393.34L368.296 393.034 368.004 392.929C367.809 392.859 367.658 392.788 367.527 392.697 367.332 392.559 367.156 392.371 366.953 391.992 366.752 391.615 366.54 391.054 366.309 390.241 366.207 389.884 366.17 389.605 366.17 389.397 366.17 389.156 366.216 389.013 366.265 388.921 366.339 388.787 366.43 388.729 366.544 388.684 366.561 388.677 366.578 388.673 366.595 388.668L368.462 390.11 368.462 387.9C370.475 388.327 372.958 388.409 374 388.409 375.017 388.409 377.408 388.333 379.393 387.932L379.393 390.11 381.29 388.644C381.365 388.655 381.477 388.679 381.563 388.736 381.63 388.779 381.685 388.829 381.735 388.921 381.784 389.013 381.83 389.156 381.83 389.397 381.83 389.605 381.794 389.883 381.692 390.241 381.383 391.326 381.107 391.959 380.851 392.313 380.723 392.492 380.605 392.604 380.474 392.697 380.342 392.788 380.191 392.859 379.996 392.929L379.704 393.034 379.65 393.34C379.292 395.347 378.256 396.478 377.495 397.326L377.357 397.479 377.357 397.684C377.357 398.108 377.357 398.475 377.357 398.812L374.183 399.341 374.183 402.135 378.172 401.47C378.377 401.638 378.604 401.787 378.842 401.924 378.883 401.947 378.927 401.965 378.969 401.988L374 402.816Z" fill="#4B4B4B"/></g></g></g><g clip-path="url(#clip26)"><g clip-path="url(#clip27)"><g clip-path="url(#clip28)"><path d="M367.067 303.924C367.067 303.924 371.269 304.765 376.73 299.303 379.252 302.665 380.934 304.345 380.934 304.345L380.934 309.389C382.62 307.649 383.664 305.28 383.664 302.665 383.664 297.327 379.338 293 374 293 368.663 293 364.336 297.327 364.336 302.665 364.336 305.28 365.379 307.649 367.067 309.389L367.067 303.924Z" fill="#4B4B4B"/><path d="M380.481 315.075C379.803 315.445 374 328.186 374 328.186 374 328.186 368.198 315.445 367.518 315.075 360.986 317.431 360.694 322.711 360.694 331L387.306 331C387.306 322.711 387.014 317.431 380.481 315.075Z" fill="#4B4B4B"/><path d="M371.107 314.505 371.107 318.363 374 317.379 376.893 318.363 376.893 314.505 374 315.489Z" fill="#4B4B4B"/></g></g></g><g clip-path="url(#clip29)"><g clip-path="url(#clip30)"><g clip-path="url(#clip31)"><path d="M550.594 380.38C550.182 380.379 549.819 380.216 549.547 379.946 549.277 379.674 549.114 379.311 549.113 378.898 549.114 378.485 549.277 378.122 549.547 377.85 549.819 377.58 550.182 377.417 550.594 377.416L576.095 377.417 576.095 375.001 550.594 375C548.441 375.001 546.698 376.745 546.697 378.898L546.697 409.102C546.698 411.255 548.441 412.999 550.594 413L577.303 413 577.303 380.38 550.594 380.38ZM574.887 410.583 551.489 410.584 551.489 382.796 574.887 382.796 574.887 410.583Z" fill="#4B4B4B"/><path d="M571.413 406.355 571.413 386.119 555.103 386.119 555.103 407.261 571.413 407.261 571.413 406.355ZM569.601 405.449 556.915 405.449 556.915 387.931 569.601 387.931 569.601 405.449Z" fill="#4B4B4B"/><path d="M559.634 400.465 566.883 400.465 566.883 401.825 559.634 401.825Z" fill="#4B4B4B"/></g></g></g><path d="M393.5 312.5 543.585 312.5" stroke="#000000" stroke-width="0.666667" stroke-miterlimit="8" fill="none" fill-rule="evenodd"/><g clip-path="url(#clip32)"><g clip-path="url(#clip33)"><g clip-path="url(#clip34)"><path d="M456.805 310.415 473.17 310.415 473.17 311.79 456.805 311.79Z" fill="#4B4B4B"/><path d="M455.394 315.85 471.759 315.85 471.759 317.225 455.394 317.225Z" fill="#4B4B4B"/><path d="M479.947 295.717 479.947 294.832 452.251 294.832 452.251 295.717C452.251 297.543 452.302 299.452 452.302 301.435 452.302 304.326 452.195 307.372 451.68 310.543 451.189 313.558 450.331 316.687 448.841 319.914L446.175 319.914C445.704 319.914 445.228 319.989 444.769 320.149 444.082 320.387 443.431 320.823 442.938 321.463 442.444 322.103 442.118 322.934 442.021 323.914 442.007 324.056 442 324.197 442 324.337 441.999 325.047 442.182 325.717 442.49 326.304 442.953 327.187 443.684 327.889 444.533 328.378 445.383 328.867 446.359 329.149 447.352 329.156L468.407 329.168C469.208 329.17 469.903 329.006 470.495 328.737 471.087 328.47 471.57 328.114 472.019 327.757 473.853 326.296 475.27 324.486 476.358 322.476 477.99 319.459 478.891 315.992 479.395 312.467 479.897 308.941 479.999 305.353 480 302.086 480 299.747 479.947 297.572 479.947 295.717ZM447.362 327.388 447.363 327.388C446.924 327.386 446.469 327.3 446.038 327.139 445.391 326.899 444.805 326.492 444.401 326.001 444.198 325.755 444.04 325.489 443.932 325.212 443.825 324.934 443.768 324.645 443.768 324.337 443.768 324.256 443.772 324.174 443.78 324.09 443.827 323.623 443.939 323.249 444.088 322.947 444.313 322.495 444.617 322.194 444.975 321.988 445.332 321.784 445.751 321.692 446.175 321.692L465.122 321.692C464.917 321.928 464.734 322.197 464.588 322.502 464.372 322.949 464.228 323.467 464.169 324.051 464.156 324.183 464.15 324.314 464.15 324.443 464.15 325.061 464.297 325.645 464.554 326.164 464.785 326.631 465.103 327.046 465.479 327.399L447.362 327.388ZM477.025 315.555C476.515 317.734 475.798 319.798 474.803 321.635 473.808 323.471 472.541 325.08 470.917 326.374 470.508 326.701 470.148 326.955 469.768 327.125 469.387 327.295 468.981 327.398 468.407 327.4L467.817 327.399C467.282 327.248 466.786 326.98 466.383 326.628 466.056 326.345 465.793 326.01 465.611 325.642 465.43 325.274 465.329 324.873 465.329 324.443 465.329 324.353 465.333 324.262 465.342 324.168 465.388 323.706 465.499 323.325 465.649 323.013 465.876 322.546 466.187 322.228 466.548 322.015 466.908 321.802 467.322 321.699 467.735 321.7 468.152 321.698 468.566 321.806 468.908 321.998 469.251 322.191 469.52 322.463 469.683 322.801 469.769 322.979 469.822 323.217 469.822 323.458 469.822 323.654 469.787 323.85 469.723 324.014 469.659 324.179 469.569 324.308 469.464 324.398 469.266 324.564 469.064 324.627 468.861 324.628 468.684 324.628 468.507 324.575 468.359 324.479 468.21 324.384 468.095 324.251 468.027 324.092L466.943 324.557C467.109 324.944 467.387 325.256 467.722 325.471 468.057 325.686 468.451 325.806 468.861 325.806 469.33 325.808 469.822 325.642 470.228 325.295 470.506 325.057 470.698 324.757 470.821 324.441 470.944 324.124 471 323.789 471 323.458 471 323.055 470.918 322.653 470.745 322.291 470.467 321.713 470.012 321.267 469.485 320.971 468.967 320.681 468.377 320.53 467.777 320.522L467.777 320.513 450.513 320.513C452.036 317.175 452.921 313.929 453.425 310.826 453.962 307.516 454.069 304.368 454.069 301.435 454.069 299.748 454.035 298.136 454.024 296.6L478.183 296.6C478.195 298.271 478.232 300.126 478.232 302.086 478.233 306.39 478.046 311.197 477.025 315.555Z" fill="#4B4B4B"/><path d="M466.579 306.978C466.786 304.668 466.796 302.456 466.775 300.365L457.619 300.365C457.64 302.456 457.629 304.668 457.422 306.978L466.579 306.978Z" fill="#4B4B4B"/></g></g></g><path d="M393.5 394.5 543.585 394.5" stroke="#FF0000" stroke-width="0.666667" stroke-miterlimit="8" fill="none" fill-rule="evenodd"/><g clip-path="url(#clip35)"><g clip-path="url(#clip36)"><g clip-path="url(#clip37)"><path d="M459.805 392.415 476.17 392.415 476.17 393.79 459.805 393.79Z" stroke="#FF0000" stroke-width="0.0741832" fill="#FF0000"/><path d="M458.394 397.85 474.759 397.85 474.759 399.225 458.394 399.225Z" stroke="#FF0000" stroke-width="0.0741832" fill="#FF0000"/><path d="M482.947 377.717 482.947 376.832 455.251 376.832 455.251 377.717C455.251 379.543 455.302 381.452 455.302 383.435 455.302 386.326 455.195 389.372 454.68 392.543 454.189 395.558 453.331 398.687 451.841 401.914L449.175 401.914C448.704 401.914 448.228 401.989 447.769 402.149 447.082 402.387 446.431 402.823 445.938 403.463 445.444 404.103 445.118 404.934 445.021 405.914 445.007 406.056 445 406.197 445 406.337 444.999 407.047 445.182 407.717 445.49 408.304 445.953 409.187 446.684 409.889 447.533 410.378 448.383 410.867 449.359 411.149 450.352 411.156L471.407 411.168C472.208 411.17 472.903 411.006 473.495 410.737 474.087 410.47 474.57 410.114 475.019 409.757 476.853 408.296 478.27 406.486 479.358 404.476 480.99 401.459 481.891 397.992 482.395 394.467 482.897 390.941 482.999 387.353 483 384.086 483 381.747 482.947 379.572 482.947 377.717ZM450.362 409.388 450.363 409.388C449.924 409.386 449.469 409.3 449.038 409.139 448.391 408.899 447.805 408.492 447.401 408.001 447.198 407.755 447.04 407.489 446.932 407.212 446.825 406.934 446.768 406.645 446.768 406.337 446.768 406.256 446.772 406.174 446.78 406.09 446.827 405.623 446.939 405.249 447.088 404.947 447.313 404.495 447.617 404.194 447.975 403.988 448.332 403.784 448.751 403.692 449.175 403.692L468.122 403.692C467.917 403.928 467.734 404.197 467.588 404.502 467.372 404.949 467.228 405.467 467.169 406.051 467.156 406.183 467.15 406.314 467.15 406.443 467.15 407.061 467.297 407.645 467.554 408.164 467.785 408.631 468.103 409.046 468.479 409.399L450.362 409.388ZM480.025 397.555C479.515 399.734 478.798 401.798 477.803 403.635 476.808 405.471 475.541 407.08 473.917 408.374 473.508 408.701 473.148 408.955 472.768 409.125 472.387 409.295 471.981 409.398 471.407 409.4L470.817 409.399C470.282 409.248 469.786 408.98 469.383 408.628 469.056 408.345 468.793 408.01 468.611 407.642 468.43 407.274 468.329 406.873 468.329 406.443 468.329 406.353 468.333 406.262 468.342 406.168 468.388 405.706 468.499 405.325 468.649 405.013 468.876 404.546 469.187 404.228 469.548 404.015 469.908 403.802 470.322 403.699 470.735 403.7 471.152 403.698 471.566 403.806 471.908 403.998 472.251 404.191 472.52 404.463 472.683 404.801 472.769 404.979 472.822 405.217 472.822 405.458 472.822 405.654 472.787 405.85 472.723 406.014 472.659 406.179 472.569 406.308 472.464 406.398 472.266 406.564 472.064 406.627 471.861 406.628 471.684 406.628 471.507 406.575 471.359 406.479 471.21 406.384 471.095 406.251 471.027 406.092L469.943 406.557C470.109 406.944 470.387 407.256 470.722 407.471 471.057 407.686 471.451 407.806 471.861 407.806 472.33 407.808 472.822 407.642 473.228 407.295 473.506 407.057 473.698 406.757 473.821 406.441 473.944 406.124 474 405.789 474 405.458 474 405.055 473.918 404.653 473.745 404.291 473.467 403.713 473.012 403.267 472.485 402.971 471.967 402.681 471.377 402.53 470.777 402.522L470.777 402.513 453.513 402.513C455.036 399.175 455.921 395.929 456.425 392.826 456.962 389.516 457.069 386.368 457.069 383.435 457.069 381.748 457.035 380.136 457.024 378.6L481.183 378.6C481.195 380.271 481.232 382.126 481.232 384.086 481.233 388.39 481.046 393.197 480.025 397.555Z" stroke="#FF0000" stroke-width="0.0741832" fill="#FF0000"/><path d="M469.579 388.978C469.786 386.668 469.796 384.456 469.775 382.365L460.619 382.365C460.64 384.456 460.629 386.668 460.422 388.978L469.579 388.978Z" stroke="#FF0000" stroke-width="0.0741832" fill="#FF0000"/></g></g></g><text font-family="Calibri,Calibri_MSFontService,sans-serif" font-weight="400" font-size="11" transform="translate(350.411 342)">C003:<tspan font-family="Yu Gothic,Yu Gothic_MSFontService,sans-serif" font-size="11" x="24.5" y="0">顧客</tspan></text><path d="M350.411 342.755 361.911 342.755 373.411 342.755 384.911 342.755 396.411 342.755 396.411 343.755 384.911 343.755 373.411 343.755 361.911 343.755 350.411 343.755Z" fill-rule="evenodd"/><text font-family="Calibri,Calibri_MSFontService,sans-serif" font-weight="400" font-size="11" transform="translate(350.647 425)">C172:<tspan font-family="Yu Gothic,Yu Gothic_MSFontService,sans-serif" font-size="11" x="24.5" y="0">顧客</tspan></text><path d="M350.647 426.345 362.147 426.345 373.647 426.345 385.147 426.345 396.647 426.345 396.647 427.345 385.147 427.345 373.647 427.345 362.147 427.345 350.647 427.345Z" fill-rule="evenodd"/><text font-family="Calibri,Calibri_MSFontService,sans-serif" font-weight="400" font-size="11" transform="translate(538.467 346)">P031:<tspan font-family="Yu Gothic,Yu Gothic_MSFontService,sans-serif" font-size="11" x="24.3333" y="0">商品</tspan></text><path d="M538.467 347.495 549.967 347.495 561.467 347.495 572.967 347.495 584.467 347.495 584.467 348.495 572.967 348.495 561.467 348.495 549.967 348.495 538.467 348.495Z" fill-rule="evenodd"/><text font-family="Calibri,Calibri_MSFontService,sans-serif" font-weight="400" font-size="11" transform="translate(538.467 425)">N008:<tspan font-family="Yu Gothic,Yu Gothic_MSFontService,sans-serif" font-size="11" x="25.6666" y="0">商品</tspan></text><path d="M538.467 426.39 550.217 426.39 561.967 426.39 573.717 426.39 585.467 426.39 585.467 427.39 573.717 427.39 561.967 427.39 550.217 427.39 538.467 427.39Z" fill-rule="evenodd"/><text font-family="Calibri,Calibri_MSFontService,sans-serif" font-weight="400" font-size="11" transform="translate(416.079 339)">C003P031<tspan font-size="11" x="43.1667" y="0">-</tspan><tspan font-size="11" x="46.5" y="0">001:</tspan><tspan font-family="Yu Gothic,Yu Gothic_MSFontService,sans-serif" font-size="11" x="65.3333" y="0">注文</tspan></text><path d="M416.079 339.817 437.829 339.817 459.579 339.817 481.329 339.817 503.079 339.817 503.079 340.817 481.329 340.817 459.579 340.817 437.829 340.817 416.079 340.817Z" fill-rule="evenodd"/><text font-family="Calibri,Calibri_MSFontService,sans-serif" font-weight="400" font-size="11" transform="translate(421.391 421)">C172N008-<tspan font-size="11" x="47.8333" y="0">005</tspan>:<tspan font-family="Yu Gothic,Yu Gothic_MSFontService,sans-serif" font-size="11" x="66.6667" y="0">注文</tspan></text><path d="M421.391 422.085 443.391 422.085 465.391 422.085 487.391 422.085 509.391 422.085 509.391 423.085 487.391 423.085 465.391 423.085 443.391 423.085 421.391 423.085Z" fill-rule="evenodd"/><text font-family="Calibri,Calibri_MSFontService,sans-serif" font-weight="400" font-size="11" transform="translate(466.43 304)">12<tspan font-size="11" x="5.08484" y="85">2</tspan></text><path d="M457.5 256.5 464.5 256.5 464.5 212.5 478.5 212.5 478.5 256.5 485.5 256.5 471.5 270.5Z" stroke="#ED7D31" stroke-width="1.33333" stroke-miterlimit="8" fill="#FFC000" fill-rule="evenodd"/><path d="M84.5001 199.5 321.195 199.5 321.195 239.48 447 239.48 447 231.108 470.5 246.5 447 261.892 447 253.52 321.195 253.52 321.195 293.5 84.5001 293.5Z" stroke="#ED7D31" stroke-width="1.33333" stroke-miterlimit="8" stroke-opacity="0.701961" fill="#FFC000" fill-rule="evenodd" fill-opacity="0.701961"/><text font-family="Yu Gothic,Yu Gothic_MSFontService,sans-serif" font-weight="400" font-size="13" transform="translate(187.141 234)">事象<tspan font-family="Calibri,Calibri_MSFontService,sans-serif" font-size="13" x="26.6667" y="0">:</tspan><tspan font-size="13" x="-37.2533" y="16">“商品を注文する”</tspan><tspan font-family="Calibri,Calibri_MSFontService,sans-serif" font-size="13" x="-90.8333" y="32">(C172:</tspan><tspan font-size="13" x="-55.6667" y="32">顧客</tspan><tspan font-family="Calibri,Calibri_MSFontService,sans-serif" font-size="13" x="-29" y="32">, N008:</tspan>商品コード<tspan font-family="Calibri,Calibri_MSFontService,sans-serif" font-size="13" x="76.6667" y="32">,2:</tspan><tspan font-size="13" x="90.3333" y="32">個数</tspan><tspan font-family="Calibri,Calibri_MSFontService,sans-serif" font-size="13" x="117" y="32">)</tspan><tspan font-family="Calibri,Calibri_MSFontService,sans-serif" font-size="8" x="-10.364" y="-149">R1</tspan></text></g></svg>