<svg width="273" height="124" xmlns="http://www.w3.org/2000/svg" xmlns:xlink="http://www.w3.org/1999/xlink" overflow="hidden"><defs><clipPath id="clip0"><rect x="697" y="609" width="273" height="124"/></clipPath></defs><g clip-path="url(#clip0)" transform="translate(-697 -609)"><path d="M698.5 621.667C698.5 618.813 700.813 616.5 703.667 616.5L787.333 616.5C790.187 616.5 792.5 618.813 792.5 621.667L792.5 642.333C792.5 645.187 790.187 647.5 787.333 647.5L703.667 647.5C700.813 647.5 698.5 645.187 698.5 642.333Z" stroke="#000000" stroke-width="1.33333" stroke-miterlimit="8" fill="#FFFFFF" fill-rule="evenodd"/><text font-family="Calibri,Calibri_MSFontService,sans-serif" font-weight="400" font-size="13" transform="translate(738.491 636)">S1</text><path d="M698.5 682.667C698.5 679.813 700.813 677.5 703.667 677.5L787.333 677.5C790.187 677.5 792.5 679.813 792.5 682.667L792.5 703.333C792.5 706.187 790.187 708.5 787.333 708.5L703.667 708.5C700.813 708.5 698.5 706.187 698.5 703.333Z" stroke="#000000" stroke-width="1.33333" stroke-miterlimit="8" fill="#FFFFFF" fill-rule="evenodd"/><text font-family="Calibri,Calibri_MSFontService,sans-serif" font-weight="400" font-size="13" transform="translate(738.491 697)">S2</text><path d="M851.5 682.667C851.5 679.813 853.813 677.5 856.667 677.5L939.333 677.5C942.187 677.5 944.5 679.813 944.5 682.667L944.5 703.333C944.5 706.187 942.187 708.5 939.333 708.5L856.667 708.5C853.813 708.5 851.5 706.187 851.5 703.333Z" stroke="#000000" stroke-width="1.33333" stroke-miterlimit="8" fill="#FFFFFF" fill-rule="evenodd"/><text font-family="Calibri,Calibri_MSFontService,sans-serif" font-weight="400" font-size="13" transform="translate(891.157 697)">S3</text><path d="M851.5 622.667C851.5 619.813 853.813 617.5 856.667 617.5L939.333 617.5C942.187 617.5 944.5 619.813 944.5 622.667L944.5 643.333C944.5 646.187 942.187 648.5 939.333 648.5L856.667 648.5C853.813 648.5 851.5 646.187 851.5 643.333Z" stroke="#000000" stroke-width="1.33333" stroke-miterlimit="8" fill="#FFFFFF" fill-rule="evenodd"/><text font-family="Calibri,Calibri_MSFontService,sans-serif" font-weight="400" font-size="13" transform="translate(891.157 636)">S4</text><path d="M746.167 647.5 746.167 676.18 744.833 676.18 744.833 647.5ZM750.743 668.516 745.5 677.503 740.258 668.516C740.072 668.198 740.18 667.79 740.498 667.604 740.816 667.419 741.224 667.526 741.409 667.844L746.076 675.844 744.924 675.844 749.591 667.844C749.776 667.526 750.185 667.419 750.503 667.604 750.821 667.79 750.928 668.198 750.743 668.516Z"/><path d="M792.5 692.833 850.628 692.833 850.628 694.167 792.5 694.167ZM842.964 688.258 851.951 693.5 842.964 698.743C842.646 698.928 842.237 698.821 842.052 698.503 841.866 698.185 841.974 697.776 842.292 697.591L850.292 692.924 850.292 694.076 842.292 689.409C841.974 689.224 841.866 688.816 842.052 688.498 842.237 688.18 842.646 688.072 842.964 688.258Z"/><path d="M897.833 677.916 897.833 649.82 899.167 649.82 899.167 677.916ZM893.258 657.484 898.5 648.497 903.743 657.484C903.928 657.802 903.821 658.21 903.503 658.396 903.185 658.581 902.776 658.474 902.591 658.156L897.924 650.156 899.076 650.156 894.409 658.156C894.224 658.474 893.816 658.581 893.498 658.396 893.18 658.21 893.072 657.802 893.258 657.484Z"/><path d="M851.941 633.75 793.814 633.18 793.827 631.846 851.954 632.417ZM801.432 637.831 792.497 632.5 801.535 627.346C801.855 627.164 802.262 627.275 802.445 627.595 802.627 627.915 802.516 628.322 802.196 628.504L794.15 633.092 794.162 631.94 802.115 636.685C802.432 636.874 802.535 637.283 802.346 637.6 802.158 637.916 801.748 638.019 801.432 637.831Z"/><path d="M899.164 708.945 899.352 711.195 899.33 711.072 899.955 713.322 899.904 713.192 902.154 717.504 902.071 717.382 905.509 721.444 905.415 721.353 909.977 724.978 909.896 724.922 915.208 727.985 915.12 727.943 921.12 730.318 921.028 730.289 927.403 731.789 927.307 731.773 933.87 732.336 933.769 732.335 940.394 731.897 940.309 731.908 946.684 730.658 946.606 730.679 952.543 728.741 952.463 728.773 957.838 726.211 957.755 726.258 962.255 723.258 962.167 723.328 965.667 720.016 965.557 720.151 967.744 716.589 967.682 716.72 968.307 714.908 968.274 715.059 968.462 713.184 968.466 713.351 967.904 709.663 967.948 709.821 966.448 706.259 966.521 706.388 964.146 703.076 964.221 703.164 961.159 700.164 961.24 700.232 957.615 697.669 957.713 697.727 953.651 695.789 953.752 695.828 949.439 694.578 949.561 694.601 946.374 694.291 946.503 692.964 949.751 693.28 954.175 694.562 958.338 696.548 962.053 699.174 965.196 702.252 967.648 705.672 969.209 709.38 969.797 713.233 969.593 715.269 968.919 717.224 966.647 720.924 963.042 724.336 958.455 727.394 952.998 729.995 946.981 731.959 940.524 733.225 933.806 733.669 927.145 733.098 920.675 731.575 914.584 729.164 909.187 726.053 904.534 722.356 901.006 718.187 898.689 713.746 898.028 711.368 897.836 709.055ZM953.56 699.587 945.122 693.5 954.574 689.151C954.909 688.998 955.305 689.144 955.459 689.478 955.612 689.813 955.466 690.209 955.132 690.363L946.717 694.233 946.829 693.087 954.34 698.506C954.638 698.721 954.706 699.138 954.49 699.437 954.275 699.735 953.858 699.803 953.56 699.587Z"/><text font-family="Calibri,Calibri_MSFontService,sans-serif" font-weight="400" font-size="13" transform="translate(726.943 664)">E1<tspan font-size="13" x="84.5067" y="17">E2</tspan><tspan font-size="13" x="218.094" y="55">E2</tspan><tspan font-size="13" x="178.239" y="4">E3</tspan><tspan font-size="13" x="86.0872" y="-38">E4</tspan></text></g></svg>