<svg width="272" height="124" xmlns="http://www.w3.org/2000/svg" xmlns:xlink="http://www.w3.org/1999/xlink" overflow="hidden"><defs><clipPath id="clip0"><rect x="135" y="161" width="272" height="124"/></clipPath></defs><g clip-path="url(#clip0)" transform="translate(-135 -161)"><path d="M136.5 173.667C136.5 170.813 138.813 168.5 141.667 168.5L224.333 168.5C227.187 168.5 229.5 170.813 229.5 173.667L229.5 194.333C229.5 197.187 227.187 199.5 224.333 199.5L141.667 199.5C138.813 199.5 136.5 197.187 136.5 194.333Z" stroke="#000000" stroke-width="1.33333" stroke-miterlimit="8" fill="#FFFFFF" fill-rule="evenodd"/><text font-family="Calibri,Calibri_MSFontService,sans-serif" font-weight="400" font-size="13" transform="translate(176.056 187)">S1</text><path d="M136.5 234.667C136.5 231.813 138.813 229.5 141.667 229.5L224.333 229.5C227.187 229.5 229.5 231.813 229.5 234.667L229.5 255.333C229.5 258.187 227.187 260.5 224.333 260.5L141.667 260.5C138.813 260.5 136.5 258.187 136.5 255.333Z" stroke="#000000" stroke-width="1.33333" stroke-miterlimit="8" fill="#FFFFFF" fill-rule="evenodd"/><text font-family="Calibri,Calibri_MSFontService,sans-serif" font-weight="400" font-size="13" transform="translate(176.056 248)">S2</text><path d="M289.5 234.667C289.5 231.813 291.813 229.5 294.667 229.5L377.333 229.5C380.187 229.5 382.5 231.813 382.5 234.667L382.5 255.333C382.5 258.187 380.187 260.5 377.333 260.5L294.667 260.5C291.813 260.5 289.5 258.187 289.5 255.333Z" stroke="#000000" stroke-width="1.33333" stroke-miterlimit="8" fill="#FFFFFF" fill-rule="evenodd"/><text font-family="Calibri,Calibri_MSFontService,sans-serif" font-weight="400" font-size="13" transform="translate(328.723 248)">S3</text><path d="M289.5 174.667C289.5 171.813 291.813 169.5 294.667 169.5L377.333 169.5C380.187 169.5 382.5 171.813 382.5 174.667L382.5 195.333C382.5 198.187 380.187 200.5 377.333 200.5L294.667 200.5C291.813 200.5 289.5 198.187 289.5 195.333Z" stroke="#000000" stroke-width="1.33333" stroke-miterlimit="8" fill="#FFFFFF" fill-rule="evenodd"/><text font-family="Calibri,Calibri_MSFontService,sans-serif" font-weight="400" font-size="13" transform="translate(328.722 188)">S4</text><path d="M184.167 199.5 184.167 228.18 182.833 228.18 182.833 199.5ZM188.743 220.516 183.5 229.503 178.258 220.516C178.072 220.198 178.18 219.79 178.498 219.604 178.816 219.419 179.224 219.526 179.409 219.844L184.076 227.844 182.924 227.844 187.591 219.844C187.776 219.526 188.185 219.419 188.503 219.604 188.821 219.79 188.928 220.198 188.743 220.516Z"/><path d="M229.5 243.833 287.628 243.833 287.628 245.167 229.5 245.167ZM279.964 239.258 288.951 244.5 279.964 249.743C279.645 249.928 279.237 249.821 279.052 249.503 278.866 249.185 278.974 248.776 279.292 248.591L287.292 243.924 287.292 245.076 279.292 240.409C278.974 240.224 278.866 239.816 279.052 239.498 279.237 239.18 279.645 239.072 279.964 239.258Z"/><path d="M334.833 229.916 334.833 201.82 336.167 201.82 336.167 229.916ZM330.258 209.484 335.5 200.497 340.743 209.484C340.928 209.802 340.821 210.21 340.503 210.396 340.185 210.581 339.776 210.474 339.591 210.156L334.924 202.156 336.076 202.156 331.409 210.156C331.224 210.474 330.816 210.581 330.497 210.396 330.179 210.21 330.072 209.802 330.258 209.484Z"/><path d="M288.941 184.75 230.814 184.18 230.827 182.846 288.954 183.417ZM238.432 188.831 229.497 183.5 238.535 178.346C238.855 178.164 239.262 178.275 239.445 178.595 239.627 178.915 239.516 179.322 239.196 179.504L231.15 184.092 231.162 182.94 239.115 187.685C239.432 187.874 239.535 188.283 239.346 188.6 239.158 188.916 238.748 189.019 238.432 188.831Z"/><path d="M336.164 259.945 336.352 262.195 336.33 262.072 336.955 264.322 336.904 264.192 339.154 268.504 339.071 268.382 342.509 272.444 342.415 272.353 346.977 275.978 346.896 275.922 352.208 278.985 352.12 278.943 358.12 281.318 358.028 281.289 364.403 282.789 364.307 282.773 370.87 283.336 370.769 283.335 377.394 282.897 377.309 282.908 383.684 281.658 383.606 281.679 389.543 279.741 389.463 279.773 394.838 277.211 394.755 277.258 399.255 274.258 399.167 274.328 402.667 271.016 402.557 271.151 404.744 267.589 404.682 267.72 405.307 265.908 405.274 266.059 405.462 264.184 405.466 264.351 404.904 260.663 404.948 260.821 403.448 257.259 403.521 257.388 401.146 254.076 401.221 254.164 398.159 251.164 398.24 251.232 394.615 248.669 394.713 248.727 390.651 246.789 390.752 246.828 386.439 245.578 386.561 245.601 383.374 245.291 383.503 243.964 386.751 244.28 391.175 245.562 395.338 247.548 399.053 250.174 402.196 253.252 404.648 256.672 406.209 260.38 406.797 264.233 406.593 266.269 405.919 268.224 403.647 271.924 400.042 275.336 395.455 278.394 389.998 280.995 383.981 282.959 377.524 284.225 370.806 284.669 364.145 284.098 357.675 282.575 351.584 280.164 346.187 277.053 341.534 273.356 338.006 269.187 335.689 264.746 335.028 262.368 334.836 260.055ZM390.56 250.587 382.122 244.5 391.574 240.151C391.909 239.998 392.305 240.144 392.459 240.478 392.612 240.813 392.466 241.209 392.132 241.363L383.717 245.233 383.829 244.087 391.34 249.506C391.638 249.721 391.706 250.138 391.49 250.437 391.275 250.735 390.858 250.803 390.56 250.587Z"/><text font-family="Calibri,Calibri_MSFontService,sans-serif" font-weight="400" font-size="13" transform="translate(164.508 216)">E1<tspan font-size="13" x="84.5067" y="17">E2</tspan><tspan font-size="13" x="218.094" y="55">E2</tspan><tspan font-size="13" x="178.239" y="4">E3</tspan><tspan font-size="13" x="86.0872" y="-38">E4</tspan></text></g></svg>