<svg width="457" height="223" xmlns="http://www.w3.org/2000/svg" xmlns:xlink="http://www.w3.org/1999/xlink" overflow="hidden"><defs><clipPath id="clip0"><rect x="108" y="567" width="457" height="223"/></clipPath></defs><g clip-path="url(#clip0)" transform="translate(-108 -567)"><path d="M202.5 617.5C202.5 590.99 223.99 569.5 250.5 569.5 277.01 569.5 298.5 590.99 298.5 617.5 298.5 644.01 277.01 665.5 250.5 665.5 223.99 665.5 202.5 644.01 202.5 617.5Z" stroke="#000000" stroke-width="1.33333" stroke-miterlimit="8" fill="#FFFFFF" fill-rule="evenodd"/><text font-family="Calibri,Calibri_MSFontService,sans-serif" font-weight="400" font-size="16" transform="translate(244.938 622)">A</text><path d="M202.5 740.5C202.5 713.99 223.99 692.5 250.5 692.5 277.01 692.5 298.5 713.99 298.5 740.5 298.5 767.01 277.01 788.5 250.5 788.5 223.99 788.5 202.5 767.01 202.5 740.5Z" stroke="#000000" stroke-width="1.33333" stroke-miterlimit="8" fill="#FFFFFF" fill-rule="evenodd"/><text font-family="Calibri,Calibri_MSFontService,sans-serif" font-weight="400" font-size="16" transform="translate(245.271 746)">B</text><path d="M379.5 617.5C379.5 590.99 400.99 569.5 427.5 569.5 454.01 569.5 475.5 590.99 475.5 617.5 475.5 644.01 454.01 665.5 427.5 665.5 400.99 665.5 379.5 644.01 379.5 617.5Z" stroke="#000000" stroke-width="1.33333" stroke-miterlimit="8" fill="#FFFFFF" fill-rule="evenodd"/><text font-family="Calibri,Calibri_MSFontService,sans-serif" font-weight="400" font-size="16" transform="translate(422.635 622)">C</text><path d="M379.5 740.5C379.5 713.99 400.99 692.5 427.5 692.5 454.01 692.5 475.5 713.99 475.5 740.5 475.5 767.01 454.01 788.5 427.5 788.5 400.99 788.5 379.5 767.01 379.5 740.5Z" stroke="#000000" stroke-width="1.33333" stroke-miterlimit="8" fill="#FFFFFF" fill-rule="evenodd"/><text font-family="Calibri,Calibri_MSFontService,sans-serif" font-weight="400" font-size="16" transform="translate(421.968 746)">D</text><path d="M108.5 616.833 200.62 616.833 200.62 618.167 108.5 618.167ZM192.956 612.258 201.943 617.5 192.956 622.743C192.638 622.928 192.23 622.821 192.044 622.503 191.859 622.185 191.966 621.776 192.284 621.591L200.284 616.924 200.284 618.076 192.284 613.409C191.966 613.224 191.859 612.816 192.044 612.498 192.23 612.18 192.638 612.072 192.956 612.258Z"/><path d="M7.4905e-07-0.666667 92.12-0.666563 92.12 0.66677-7.4905e-07 0.666667ZM84.4559-5.24242 93.4431 0.000105056 84.4559 5.24261C84.1379 5.42813 83.7297 5.32071 83.5441 5.00267 83.3586 4.68464 83.466 4.27643 83.7841 4.09091L91.7841-0.575749 91.7841 0.575956 83.7841-4.09072C83.4661-4.27624 83.3586-4.68445 83.5442-5.00249 83.7297-5.32052 84.1379-5.42794 84.4559-5.24242Z" transform="matrix(1 0 0 -1 108.5 740.5)"/><path d="M298.5 616.833 378.46 616.833 378.46 618.167 298.5 618.167ZM370.796 612.258 379.783 617.5 370.796 622.743C370.478 622.928 370.07 622.821 369.884 622.503 369.699 622.185 369.806 621.776 370.124 621.591L378.124 616.924 378.124 618.076 370.124 613.409C369.806 613.224 369.699 612.816 369.884 612.498 370.07 612.18 370.478 612.072 370.796 612.258Z"/><path d="M0.302215-0.594231 108.523 54.4452 107.919 55.6337-0.302215 0.594231ZM103.766 46.8922 109.401 55.6392 99.0133 56.238C98.6457 56.2592 98.3306 55.9784 98.3094 55.6108 98.2882 55.2432 98.569 54.9281 98.9366 54.9069L108.183 54.3738 107.661 55.4004 102.645 47.6142C102.446 47.3047 102.535 46.8921 102.845 46.6928 103.154 46.4934 103.567 46.5827 103.766 46.8922Z" transform="matrix(1 0 0 -1 284.5 707.138)"/><path d="M298.5 739.833 378.46 739.833 378.46 741.167 298.5 741.167ZM370.796 735.258 379.783 740.5 370.796 745.743C370.478 745.928 370.07 745.821 369.884 745.503 369.699 745.185 369.806 744.776 370.124 744.591L378.124 739.924 378.124 741.076 370.124 736.409C369.806 736.224 369.699 735.816 369.884 735.498 370.07 735.18 370.478 735.072 370.796 735.258Z"/><path d="M475.5 739.833 555.46 739.833 555.46 741.167 475.5 741.167ZM547.796 735.258 556.783 740.5 547.796 745.743C547.478 745.928 547.07 745.821 546.884 745.503 546.699 745.185 546.806 744.776 547.124 744.591L555.124 739.924 555.124 741.076 547.124 736.409C546.806 736.224 546.699 735.816 546.884 735.498 547.07 735.18 547.478 735.072 547.796 735.258Z"/><path d="M475.5 616.833 555.46 616.833 555.46 618.167 475.5 618.167ZM547.796 612.258 556.783 617.5 547.796 622.743C547.478 622.928 547.07 622.821 546.884 622.503 546.699 622.185 546.806 621.776 547.124 621.591L555.124 616.924 555.124 618.076 547.124 613.409C546.806 613.224 546.699 612.816 546.884 612.498 547.07 612.18 547.478 612.072 547.796 612.258Z"/><text font-family="Calibri,Calibri_MSFontService,sans-serif" font-style="italic" font-weight="400" font-size="16" transform="translate(159.365 607)">a<tspan font-size="16" x="0" y="125">b</tspan><tspan font-size="16" x="333.12" y="0">c</tspan><tspan font-size="16" x="333.12" y="125">d</tspan><tspan font-size="16" x="179.064" y="1">s</tspan><tspan font-size="16" x="166.173" y="66">t</tspan><tspan font-size="16" x="178.427" y="125">u</tspan></text></g></svg>