<svg width="132" height="295" xmlns="http://www.w3.org/2000/svg" xmlns:xlink="http://www.w3.org/1999/xlink" overflow="hidden"><defs><clipPath id="clip0"><rect x="743" y="226" width="132" height="295"/></clipPath></defs><g clip-path="url(#clip0)" transform="translate(-743 -226)"><path d="M744.5 282C744.5 278.41 747.41 275.5 751 275.5L867 275.5C870.59 275.5 873.5 278.41 873.5 282L873.5 308C873.5 311.59 870.59 314.5 867 314.5L751 314.5C747.41 314.5 744.5 311.59 744.5 308Z" stroke="#000000" stroke-width="1.33333" stroke-miterlimit="8" fill="#FFFFFF" fill-rule="evenodd"/><text font-family="Calibri,Calibri_MSFontService,sans-serif" font-weight="400" font-size="13" transform="translate(802.257 298)">S1</text><path d="M810.167 314.5 810.167 354.764 808.833 354.764 808.833 314.5ZM814.743 347.1 809.5 356.087 804.258 347.1C804.072 346.782 804.18 346.374 804.498 346.188 804.816 346.003 805.224 346.11 805.409 346.428L810.076 354.428 808.924 354.428 813.591 346.428C813.776 346.11 814.185 346.003 814.503 346.188 814.821 346.374 814.928 346.782 814.743 347.1Z"/><text font-family="Calibri,Calibri_MSFontService,sans-serif" font-weight="400" font-size="13" transform="translate(780.809 338)">E2</text><path d="M744.5 362C744.5 358.41 747.41 355.5 751 355.5L867 355.5C870.59 355.5 873.5 358.41 873.5 362L873.5 388C873.5 391.59 870.59 394.5 867 394.5L751 394.5C747.41 394.5 744.5 391.59 744.5 388Z" stroke="#000000" stroke-width="1.33333" stroke-miterlimit="8" fill="#FFFFFF" fill-rule="evenodd"/><text font-family="Calibri,Calibri_MSFontService,sans-serif" font-weight="400" font-size="13" transform="translate(802.257 379)">S3</text><path d="M744.5 443C744.5 439.41 747.41 436.5 751 436.5L867 436.5C870.59 436.5 873.5 439.41 873.5 443L873.5 469C873.5 472.59 870.59 475.5 867 475.5L751 475.5C747.41 475.5 744.5 472.59 744.5 469Z" stroke="#000000" stroke-width="1.33333" stroke-miterlimit="8" fill="#FFFFFF" fill-rule="evenodd"/><text font-family="Calibri,Calibri_MSFontService,sans-serif" font-weight="400" font-size="13" transform="translate(802.257 459)">S3</text><path d="M810.167 394.5 810.167 434.764 808.833 434.764 808.833 394.5ZM814.743 427.1 809.5 436.087 804.258 427.1C804.072 426.782 804.18 426.374 804.498 426.188 804.816 426.003 805.224 426.11 805.409 426.428L810.076 434.428 808.924 434.428 813.591 426.428C813.776 426.11 814.185 426.003 814.503 426.188 814.821 426.374 814.928 426.782 814.743 427.1Z"/><text font-family="Calibri,Calibri_MSFontService,sans-serif" font-weight="400" font-size="13" transform="translate(781.747 418)">E3</text><path d="M810.167 233.5 810.167 273.764 808.833 273.764 808.833 233.5ZM802.833 233.5C802.833 229.818 805.818 226.833 809.5 226.833 813.182 226.833 816.167 229.818 816.167 233.5 816.167 237.182 813.182 240.167 809.5 240.167 805.818 240.167 802.833 237.182 802.833 233.5ZM814.743 266.1 809.5 275.087 804.258 266.1C804.072 265.782 804.18 265.374 804.498 265.188 804.816 265.003 805.224 265.11 805.409 265.428L810.076 273.428 808.924 273.428 813.591 265.428C813.776 265.11 814.185 265.003 814.503 265.188 814.821 265.374 814.928 265.782 814.743 266.1Z"/><text font-family="Calibri,Calibri_MSFontService,sans-serif" font-weight="400" font-size="13" transform="translate(780.809 256)">E1</text><path d="M810.167 475.5 810.167 497.958 808.833 497.958 808.833 475.5ZM814.743 490.293 809.5 499.281 804.258 490.293C804.072 489.975 804.18 489.567 804.498 489.382 804.816 489.196 805.224 489.304 805.409 489.622L810.076 497.622 808.924 497.622 813.591 489.622C813.776 489.304 814.185 489.196 814.503 489.382 814.821 489.567 814.928 489.975 814.743 490.293Z"/><path d="M798.5 510C798.5 504.201 803.201 499.5 809 499.5 814.799 499.5 819.5 504.201 819.5 510 819.5 515.799 814.799 520.5 809 520.5 803.201 520.5 798.5 515.799 798.5 510Z" stroke="#000000" stroke-width="1.33333" stroke-miterlimit="8" fill="none" fill-rule="evenodd"/><path d="M802.5 510C802.5 505.858 805.634 502.5 809.5 502.5 813.366 502.5 816.5 505.858 816.5 510 816.5 514.142 813.366 517.5 809.5 517.5 805.634 517.5 802.5 514.142 802.5 510Z" stroke="#000000" stroke-width="1.33333" stroke-miterlimit="8" fill-rule="evenodd"/></g></svg>