<svg width="607" height="301" xmlns="http://www.w3.org/2000/svg" xmlns:xlink="http://www.w3.org/1999/xlink" overflow="hidden"><defs><clipPath id="clip0"><rect x="60" y="75" width="607" height="301"/></clipPath></defs><g clip-path="url(#clip0)" transform="translate(-60 -75)"><rect x="61.5001" y="76.5001" width="605" height="299" stroke="#D9D9D9" stroke-width="1.33333" stroke-miterlimit="8" fill="none"/><rect x="90.5001" y="134.5" width="152" height="131" stroke="#000000" stroke-width="1.33333" stroke-miterlimit="8" fill="#FFFFFF"/><text font-family="Yu Gothic,Yu Gothic_MSFontService,sans-serif" font-weight="400" font-size="13" transform="translate(152.933 151)">装置<tspan font-family="Consolas,Consolas_MSFontService,sans-serif" font-size="12" x="-53" y="15">*</tspan><tspan font-size="12" x="-46.3333" y="15">装置</tspan><tspan font-family="Consolas,Consolas_MSFontService,sans-serif" font-size="12" x="-22.3333" y="15">ID</tspan><tspan font-size="12" x="-41" y="29">消費電力</tspan><tspan font-family="Consolas,Consolas_MSFontService,sans-serif" font-size="12" x="7" y="29">(M)</tspan><tspan font-size="12" x="-41" y="44">稼働状態</tspan><tspan font-size="12" x="-41" y="58">温度</tspan><tspan font-size="12" x="-41" y="73">危険上限温度</tspan><tspan font-weight="700" font-size="12" x="-41" y="87">後工程装置</tspan><tspan font-family="Consolas,Consolas_MSFontService,sans-serif" font-weight="700" font-size="12" x="19" y="87">ID(R_EO1)</tspan></text><path d="M185.12 265.5 185.12 301.669 124.5 301.669 124.5 266.833" stroke="#000000" stroke-width="0.666667" stroke-miterlimit="8" fill="none" fill-rule="evenodd"/><text font-family="Calibri,Calibri_MSFontService,sans-serif" font-weight="400" font-size="11" transform="translate(129.35 278)">0..1<tspan font-size="11" x="36.0763" y="-2">0..1</tspan><tspan font-family="Yu Gothic,Yu Gothic_MSFontService,sans-serif" font-size="11" x="-53.0805" y="4">前の工程</tspan><tspan font-family="Yu Gothic,Yu Gothic_MSFontService,sans-serif" font-size="11" x="59.468" y="4">後の工程</tspan><tspan font-size="11" x="11.6927" y="34">R_EO1</tspan></text><rect x="191" y="154" width="17" height="17" stroke="#2F528F" stroke-width="2" stroke-miterlimit="8" fill="#FFFFFF"/><path d="M194 162C194 159.239 196.462 157 199.5 157 202.538 157 205 159.239 205 162 205 164.761 202.538 167 199.5 167 196.462 167 194 164.761 194 162Z" stroke="#AE5A21" stroke-width="2" stroke-miterlimit="8" fill="#FFFFFF" fill-rule="evenodd"/><path d="M191 152 191.75 149 207.25 149 208 152Z" stroke="#2F528F" stroke-width="2" stroke-miterlimit="8" fill="#FFFFFF" fill-rule="evenodd"/><path d="M0 3 0.749997 0 16.25 0 17 3Z" stroke="#2F528F" stroke-width="2" stroke-miterlimit="8" fill="#FFFFFF" fill-rule="evenodd" transform="matrix(1 0 0 -1 191 176)"/><rect x="193" y="144" width="13" height="3" stroke="#2F528F" stroke-width="2" stroke-miterlimit="8" fill="#FFFFFF"/><path d="M196.123 164.418 200.664 160.149 200.166 159.62 202.222 159.683 202.158 161.739 201.66 161.209 197.118 165.478Z" stroke="#AE5A21" stroke-width="2" stroke-miterlimit="8" fill="#ED7D31" fill-rule="evenodd"/><rect x="262" y="105" width="391" height="242" fill="#F2F2F2"/><text font-family="Yu Gothic,Yu Gothic_MSFontService,sans-serif" font-weight="400" font-size="13" transform="translate(409.491 122)">巡回型<tspan font-size="13" x="43" y="0">パターン</tspan></text><path d="M295.5 161C295.5 157.41 298.41 154.5 302 154.5L419 154.5C422.59 154.5 425.5 157.41 425.5 161L425.5 187C425.5 190.59 422.59 193.5 419 193.5L302 193.5C298.41 193.5 295.5 190.59 295.5 187Z" stroke="#000000" stroke-width="1.33333" stroke-miterlimit="8" fill="#FFFFFF" fill-rule="evenodd"/><text font-family="Yu Gothic,Yu Gothic_MSFontService,sans-serif" font-weight="400" font-size="13" transform="translate(326.667 177)">スタンバイ</text><path d="M295.5 246C295.5 242.41 298.41 239.5 302 239.5L419 239.5C422.59 239.5 425.5 242.41 425.5 246L425.5 272C425.5 275.59 422.59 278.5 419 278.5L302 278.5C298.41 278.5 295.5 275.59 295.5 272Z" stroke="#000000" stroke-width="1.33333" stroke-miterlimit="8" fill="#FFFFFF" fill-rule="evenodd"/><text font-family="Yu Gothic,Yu Gothic_MSFontService,sans-serif" font-weight="400" font-size="13" transform="translate(333.333 262)">製造準備</text><path d="M481.5 246C481.5 242.41 484.41 239.5 488 239.5L604 239.5C607.59 239.5 610.5 242.41 610.5 246L610.5 272C610.5 275.59 607.59 278.5 604 278.5L488 278.5C484.41 278.5 481.5 275.59 481.5 272Z" stroke="#000000" stroke-width="1.33333" stroke-miterlimit="8" fill="#FFFFFF" fill-rule="evenodd"/><text font-family="Yu Gothic,Yu Gothic_MSFontService,sans-serif" font-weight="400" font-size="13" transform="translate(525.278 262)">加工中</text><path d="M481.5 161C481.5 157.41 484.41 154.5 488 154.5L604 154.5C607.59 154.5 610.5 157.41 610.5 161L610.5 187C610.5 190.59 607.59 193.5 604 193.5L488 193.5C484.41 193.5 481.5 190.59 481.5 187Z" stroke="#000000" stroke-width="1.33333" stroke-miterlimit="8" fill="#FFFFFF" fill-rule="evenodd"/><text font-family="Yu Gothic,Yu Gothic_MSFontService,sans-serif" font-weight="400" font-size="13" transform="translate(518.611 177)">後処理中</text><path d="M361.167 193.5 361.167 238.301 359.833 238.301 359.833 193.5ZM365.743 230.636 360.5 239.624 355.258 230.636C355.072 230.318 355.18 229.91 355.498 229.725 355.816 229.539 356.224 229.647 356.409 229.965L361.076 237.965 359.924 237.965 364.591 229.965C364.776 229.647 365.185 229.539 365.503 229.725 365.821 229.91 365.928 230.318 365.743 230.636Z"/><path d="M425.5 257.833 480.405 257.833 480.405 259.167 425.5 259.167ZM472.74 253.258 481.727 258.5 472.74 263.743C472.422 263.928 472.014 263.821 471.828 263.503 471.643 263.185 471.75 262.776 472.068 262.591L480.068 257.924 480.068 259.076 472.068 254.409C471.75 254.224 471.643 253.816 471.828 253.498 472.014 253.18 472.422 253.072 472.74 253.258Z"/><path d="M546.163 277.941 546.413 280.191 546.383 280.054 547.133 282.304 547.086 282.197 548.273 284.384 548.217 284.297 549.842 286.422 549.791 286.363 551.791 288.426 551.742 288.38 554.117 290.38 554.046 290.328 559.733 293.953 559.653 293.909 566.34 296.971 566.264 296.942 573.764 299.317 573.685 299.297 581.685 300.797 581.608 300.787 589.858 301.35 589.772 301.349 598.022 300.849 597.95 300.858 605.95 299.483 605.876 299.5 613.376 297.312 613.309 297.336 619.997 294.586 619.912 294.628 625.537 291.315 625.471 291.36 627.846 289.547 627.794 289.591 629.794 287.716 629.739 287.774 631.364 285.836 631.302 285.924 632.489 283.924 632.438 284.031 633.188 282.031 633.151 282.184 633.401 280.122 633.402 280.294 632.84 276.231 632.877 276.377 631.377 272.44 631.44 272.563 629.065 268.876 629.14 268.972 626.077 265.722 626.154 265.791 622.529 262.979 622.629 263.043 618.566 260.918 618.673 260.962 614.36 259.587 614.489 259.615 611.301 259.261 611.448 257.935 614.702 258.297 619.133 259.71 623.299 261.889 627.012 264.77 630.152 268.102 632.598 271.9 634.15 275.973 634.735 280.197 634.465 282.424 633.666 284.554 632.421 286.652 630.735 288.661 628.681 290.587 626.248 292.444 620.547 295.801 613.783 298.582 606.213 300.79 598.139 302.178 589.81 302.683 581.478 302.115 573.4 300.6 565.822 298.2 559.056 295.102 553.292 291.428 550.857 289.378 548.807 287.263 547.126 285.066 545.886 282.781 545.095 280.409 544.837 278.088ZM618.413 264.655 610.06 258.452 619.571 254.234C619.907 254.085 620.301 254.236 620.45 254.573 620.6 254.91 620.448 255.303 620.111 255.453L611.645 259.207 611.772 258.063 619.208 263.584C619.503 263.804 619.565 264.221 619.345 264.517 619.126 264.813 618.708 264.874 618.413 264.655Z"/><path d="M0.666667-1.51757e-06 0.666769 44.8006-0.666565 44.8006-0.666667 1.51757e-06ZM5.2426 37.1364 0.000104995 46.1236-5.24243 37.1364C-5.42796 36.8184-5.32053 36.4102-5.0025 36.2247-4.68446 36.0392-4.27625 36.1466-4.09073 36.4646L0.575954 44.4646-0.575751 44.4646 4.0909 36.4646C4.27642 36.1466 4.68463 36.0391 5.00266 36.2247 5.3207 36.4102 5.42812 36.8184 5.2426 37.1364Z" transform="matrix(1 0 0 -1 545.5 239.621)"/><path d="M1.24486e-06-0.666667 54.9044-0.666564 54.9044 0.666769-1.24486e-06 0.666667ZM47.2401-5.24243 56.2272 0.000105078 47.24 5.24261C46.922 5.42813 46.5138 5.3207 46.3283 5.00267 46.1428 4.68463 46.2502 4.27642 46.5682 4.0909L54.5682-0.575751 54.5682 0.575954 46.5682-4.09073C46.2502-4.27625 46.1428-4.68446 46.3283-5.00249 46.5138-5.32053 46.922-5.42795 47.2401-5.24243Z" transform="matrix(-1 0 0 1 481.724 173.5)"/><text font-family="Yu Gothic,Yu Gothic_MSFontService,sans-serif" font-weight="400" font-size="13" transform="translate(266.901 220)">仕掛り品割当て<tspan font-size="13" x="160.763" y="60">加工実施</tspan><tspan font-size="13" x="315.882" y="96">加工実施</tspan><tspan font-size="13" x="287.976" y="1">加工完了</tspan><tspan font-size="13" x="159.403" y="-64">後処理完了</tspan></text></g></svg>