<svg width="607" height="429" xmlns="http://www.w3.org/2000/svg" xmlns:xlink="http://www.w3.org/1999/xlink" overflow="hidden"><defs><clipPath id="clip0"><rect x="60" y="75" width="607" height="429"/></clipPath><clipPath id="clip1"><rect x="293" y="97" width="366" height="173"/></clipPath><clipPath id="clip2"><rect x="293" y="97" width="366" height="173"/></clipPath><clipPath id="clip3"><rect x="251" y="69" width="467" height="220"/></clipPath><clipPath id="clip4"><rect x="251" y="69" width="467" height="220"/></clipPath></defs><g clip-path="url(#clip0)" transform="translate(-60 -75)"><rect x="94" y="97" width="199" height="346" fill="#F2F2F2"/><text font-family="Yu Gothic,Yu Gothic_MSFontService,sans-serif" font-weight="400" font-size="13" transform="translate(133.82 114)">生成・消滅パターン</text><rect x="61.5001" y="76.5001" width="605" height="427" stroke="#D9D9D9" stroke-width="1.33333" stroke-miterlimit="8" fill="none"/><g clip-path="url(#clip1)"><g clip-path="url(#clip2)"><g clip-path="url(#clip3)"><g clip-path="url(#clip4)"><path d="M44.8457 72.4431 507.868 72.4431 507.868 290.155 44.8458 290.155Z" stroke="#D9D9D9" stroke-width="1.02212" stroke-miterlimit="8" fill="none" transform="matrix(1.00073 0 0 1 208.085 -1.61327)"/><path d="M106.173 124.571 202.764 124.571 202.764 191.265 106.173 191.265Z" stroke="#000000" stroke-width="1.02212" stroke-miterlimit="8" fill="#FFFFFF" transform="matrix(1.00073 0 0 1 208.085 -1.61327)"/><text font-family="Yu Gothic,Yu Gothic_MSFontService,sans-serif" font-weight="400" font-size="13" transform="matrix(0.767148 0 0 0.766592 352.136 135)">顧客<tspan font-family="Consolas,Consolas_MSFontService,sans-serif" font-size="13" x="-40.2467" y="15.6537">*</tspan><tspan font-size="13" x="-32.9133" y="15.6537">顧客</tspan><tspan font-family="Consolas,Consolas_MSFontService,sans-serif" font-size="13" x="-6.24666" y="15.6537">ID</tspan><tspan font-size="13" x="-26.9133" y="31.3074">顧客名</tspan><tspan font-size="13" x="-26.9133" y="48.2655">住所</tspan></text><path d="M346.883 124.571 444.24 124.571 444.24 191.265 346.883 191.265Z" stroke="#000000" stroke-width="1.02212" stroke-miterlimit="8" fill="#FFFFFF" transform="matrix(1.00073 0 0 1 208.085 -1.61327)"/><text font-family="Yu Gothic,Yu Gothic_MSFontService,sans-serif" font-weight="400" font-size="13" transform="matrix(0.767148 0 0 0.766592 593.205 135)">商品<tspan font-family="Consolas,Consolas_MSFontService,sans-serif" font-size="13" x="-40.2467" y="15.6537">*</tspan><tspan font-size="13" x="-32.9133" y="15.6537">商品</tspan><tspan font-size="13" x="-6.9133" y="15.6537">コード</tspan><tspan font-size="13" x="-26.9133" y="31.3074">商品名</tspan><tspan font-size="13" x="-26.9133" y="48.2655">在庫</tspan><tspan font-size="13" x="-26.9133" y="63.9192">単価</tspan></text><path d="M202.764 157.535 346.725 157.535" stroke="#000000" stroke-width="0.511062" stroke-miterlimit="8" fill="none" fill-rule="evenodd" transform="matrix(1.00073 0 0 1 208.085 -1.61327)"/><path d="M0 0 4.69074 36.8119" stroke="#000000" stroke-width="1.53318" stroke-miterlimit="8" stroke-dasharray="1.53318 1.53318" fill="none" fill-rule="evenodd" transform="matrix(1.00073 0 0 -1 478.121 193.883)"/><text font-family="Yu Gothic,Yu Gothic_MSFontService,sans-serif" font-weight="400" font-size="11" transform="matrix(0.767148 0 0 0.766592 419.633 149)">発注者<tspan font-family="Calibri,Calibri_MSFontService,sans-serif" font-size="11" x="-3.70015" y="22.1761">*</tspan><tspan font-family="Calibri,Calibri_MSFontService,sans-serif" font-size="11" x="158.002" y="6.52237">*</tspan><tspan font-size="11" x="125.323" y="22.1761">購入予約</tspan></text><path d="M221.929 195.864 318.519 195.864 318.519 262.558 221.929 262.558Z" stroke="#000000" stroke-width="1.02212" stroke-miterlimit="8" fill="#FFFFFF" transform="matrix(1.00073 0 0 1 208.085 -1.61327)"/><text font-family="Yu Gothic,Yu Gothic_MSFontService,sans-serif" font-weight="400" font-size="13" transform="matrix(0.767148 0 0 0.766592 467.962 207)">注文<tspan font-family="Consolas,Consolas_MSFontService,sans-serif" font-size="13" x="-40.2467" y="15.6537">*</tspan><tspan font-size="13" x="-32.9133" y="15.6537">注文</tspan><tspan font-family="Consolas,Consolas_MSFontService,sans-serif" font-size="13" x="-6.24666" y="15.6537">ID</tspan><tspan font-size="13" x="-26.9133" y="31.3074">個数</tspan><tspan font-size="13" x="-26.9133" y="48.2655">金額</tspan><tspan font-size="16" x="-271.519" y="-157.841">ドメイン</tspan><tspan font-size="16" x="-208.519" y="-157.841">：</tspan><tspan font-size="16" x="-192.519" y="-157.841">商品販売</tspan></text></g></g></g></g><text font-family="Calibri,Calibri_MSFontService,sans-serif" font-weight="400" font-size="13" transform="translate(475.346 148)">R1</text><path d="M130.5 187C130.5 183.41 133.41 180.5 137 180.5L253 180.5C256.59 180.5 259.5 183.41 259.5 187L259.5 213C259.5 216.59 256.59 219.5 253 219.5L137 219.5C133.41 219.5 130.5 216.59 130.5 213Z" stroke="#000000" stroke-width="1.33333" stroke-miterlimit="8" fill="#FFFFFF" fill-rule="evenodd"/><text font-family="Yu Gothic,Yu Gothic_MSFontService,sans-serif" font-weight="400" font-size="13" transform="translate(160.815 203)">商品引当て</text><path d="M195.167 219.5 195.167 259.764 193.833 259.764 193.833 219.5ZM199.743 252.1 194.5 261.087 189.258 252.1C189.072 251.782 189.18 251.374 189.498 251.188 189.816 251.003 190.224 251.11 190.409 251.428L195.076 259.428 193.924 259.428 198.591 251.428C198.776 251.11 199.185 251.003 199.503 251.188 199.821 251.374 199.928 251.782 199.743 252.1Z"/><text font-family="Yu Gothic,Yu Gothic_MSFontService,sans-serif" font-weight="400" font-size="13" transform="translate(134.24 243)">課金確認</text><path d="M130.5 267C130.5 263.41 133.41 260.5 137 260.5L253 260.5C256.59 260.5 259.5 263.41 259.5 267L259.5 293C259.5 296.59 256.59 299.5 253 299.5L137 299.5C133.41 299.5 130.5 296.59 130.5 293Z" stroke="#000000" stroke-width="1.33333" stroke-miterlimit="8" fill="#FFFFFF" fill-rule="evenodd"/><text font-family="Yu Gothic,Yu Gothic_MSFontService,sans-serif" font-weight="400" font-size="13" transform="translate(167.481 284)">課金済み</text><path d="M130.5 348C130.5 344.41 133.41 341.5 137 341.5L253 341.5C256.59 341.5 259.5 344.41 259.5 348L259.5 374C259.5 377.59 256.59 380.5 253 380.5L137 380.5C133.41 380.5 130.5 377.59 130.5 374Z" stroke="#000000" stroke-width="1.33333" stroke-miterlimit="8" fill="#FFFFFF" fill-rule="evenodd"/><text font-family="Yu Gothic,Yu Gothic_MSFontService,sans-serif" font-weight="400" font-size="13" transform="translate(167.481 365)">配送完了</text><path d="M195.167 299.5 195.167 339.764 193.833 339.764 193.833 299.5ZM199.743 332.1 194.5 341.087 189.258 332.1C189.072 331.782 189.18 331.374 189.498 331.188 189.816 331.003 190.224 331.11 190.409 331.428L195.076 339.428 193.924 339.428 198.591 331.428C198.776 331.11 199.185 331.003 199.503 331.188 199.821 331.374 199.928 331.782 199.743 332.1Z"/><text font-family="Yu Gothic,Yu Gothic_MSFontService,sans-serif" font-weight="400" font-size="13" transform="translate(135.699 324)">配送確認</text><path d="M195.167 138.5 195.167 178.764 193.833 178.764 193.833 138.5ZM187.833 138.5C187.833 134.818 190.818 131.833 194.5 131.833 198.182 131.833 201.167 134.818 201.167 138.5 201.167 142.182 198.182 145.167 194.5 145.167 190.818 145.167 187.833 142.182 187.833 138.5ZM199.743 171.1 194.5 180.087 189.258 171.1C189.072 170.782 189.18 170.374 189.498 170.188 189.816 170.003 190.224 170.11 190.409 170.428L195.076 178.428 193.924 178.428 198.591 170.428C198.776 170.11 199.185 170.003 199.503 170.188 199.821 170.374 199.928 170.782 199.743 171.1Z"/><text font-family="Yu Gothic,Yu Gothic_MSFontService,sans-serif" font-weight="400" font-size="13" transform="translate(139.221 163)">商品発注</text><path d="M195.167 380.5 195.167 402.958 193.833 402.958 193.833 380.5ZM199.743 395.293 194.5 404.281 189.258 395.293C189.072 394.975 189.179 394.567 189.498 394.382 189.816 394.196 190.224 394.304 190.409 394.622L195.076 402.622 193.924 402.622 198.591 394.622C198.776 394.304 199.185 394.196 199.503 394.382 199.821 394.567 199.928 394.975 199.743 395.293Z"/><path d="M184.5 415C184.5 409.201 189.201 404.5 195 404.5 200.799 404.5 205.5 409.201 205.5 415 205.5 420.799 200.799 425.5 195 425.5 189.201 425.5 184.5 420.799 184.5 415Z" stroke="#000000" stroke-width="1.33333" stroke-miterlimit="8" fill="none" fill-rule="evenodd"/><path d="M187.5 415C187.5 410.858 190.634 407.5 194.5 407.5 198.366 407.5 201.5 410.858 201.5 415 201.5 419.142 198.366 422.5 194.5 422.5 190.634 422.5 187.5 419.142 187.5 415Z" stroke="#000000" stroke-width="1.33333" stroke-miterlimit="8" fill-rule="evenodd"/><path d="M0.0880611-0.321491 149.768 40.6781 149.592 41.3211-0.0880611 0.321491ZM151.441 34.5698C154.992 35.5425 157.083 39.2097 156.11 42.7608 155.137 46.3119 151.47 48.4021 147.919 47.4294 144.368 46.4567 142.277 42.7894 143.25 39.2384 144.223 35.6873 147.89 33.5971 151.441 34.5698Z" fill="#4472C4" transform="matrix(1 0 0 -1 293.5 270.5)"/><text font-family="Yu Gothic,Yu Gothic_MSFontService,sans-serif" font-weight="400" font-size="12" transform="translate(320.882 345)">インスタンスが生成される<tspan font-size="12" x="0" y="14">ことを意味する</tspan></text><path d="M0 0C4.09892 0 8.19785 2.04672 8.19785 4.09344 8.19785 6.14016 12.2968 8.18688 16.3957 8.18688" stroke="#ED7D31" stroke-width="0.666667" stroke-miterlimit="8" fill="none" fill-rule="evenodd" transform="matrix(1.83697e-16 1 1 -1.83697e-16 393.5 368.5)"/><path d="M337.5 440C337.5 436.41 340.41 433.5 344 433.5L460 433.5C463.59 433.5 466.5 436.41 466.5 440L466.5 466C466.5 469.59 463.59 472.5 460 472.5L344 472.5C340.41 472.5 337.5 469.59 337.5 466Z" stroke="#000000" stroke-width="1.33333" stroke-miterlimit="8" fill="#FFFFFF" fill-rule="evenodd"/><text font-family="Yu Gothic,Yu Gothic_MSFontService,sans-serif" font-weight="400" font-size="13" transform="translate(368.001 457)">商品引当て</text><path d="M402.167 391.5 402.167 431.764 400.833 431.764 400.833 391.5ZM394.833 391.5C394.833 387.818 397.818 384.833 401.5 384.833 405.182 384.833 408.167 387.818 408.167 391.5 408.167 395.182 405.182 398.167 401.5 398.167 397.818 398.167 394.833 395.182 394.833 391.5ZM406.743 424.1 401.5 433.087 396.258 424.1C396.072 423.782 396.18 423.374 396.498 423.188 396.816 423.003 397.224 423.11 397.409 423.428L402.076 431.428 400.924 431.428 405.591 423.428C405.776 423.11 406.185 423.003 406.503 423.188 406.821 423.374 406.928 423.782 406.743 424.1Z"/><text font-family="Yu Gothic,Yu Gothic_MSFontService,sans-serif" font-weight="400" font-size="13" transform="translate(346.408 416)">商品発注</text><path d="M501.5 342C501.5 338.41 504.41 335.5 508 335.5L624 335.5C627.59 335.5 630.5 338.41 630.5 342L630.5 368C630.5 371.59 627.59 374.5 624 374.5L508 374.5C504.41 374.5 501.5 371.59 501.5 368Z" stroke="#000000" stroke-width="1.33333" stroke-miterlimit="8" fill="#FFFFFF" fill-rule="evenodd"/><text font-family="Yu Gothic,Yu Gothic_MSFontService,sans-serif" font-weight="400" font-size="13" transform="translate(538.37 358)">配送完了</text><path d="M566.167 374.5 566.167 396.958 564.833 396.958 564.833 374.5ZM570.743 389.293 565.5 398.281 560.258 389.293C560.072 388.975 560.18 388.567 560.498 388.382 560.816 388.196 561.224 388.304 561.409 388.622L566.076 396.622 564.924 396.622 569.591 388.622C569.776 388.304 570.185 388.196 570.503 388.382 570.821 388.567 570.928 388.975 570.743 389.293Z"/><path d="M554.5 408.5C554.5 402.425 559.425 397.5 565.5 397.5 571.575 397.5 576.5 402.425 576.5 408.5 576.5 414.575 571.575 419.5 565.5 419.5 559.425 419.5 554.5 414.575 554.5 408.5Z" stroke="#000000" stroke-width="1.33333" stroke-miterlimit="8" fill="none" fill-rule="evenodd"/><path d="M558.5 408.5C558.5 404.634 561.634 401.5 565.5 401.5 569.366 401.5 572.5 404.634 572.5 408.5 572.5 412.366 569.366 415.5 565.5 415.5 561.634 415.5 558.5 412.366 558.5 408.5Z" stroke="#000000" stroke-width="1.33333" stroke-miterlimit="8" fill-rule="evenodd"/><text font-family="Yu Gothic,Yu Gothic_MSFontService,sans-serif" font-weight="400" font-size="12" transform="translate(510.11 452)">インスタンスが削除される<tspan font-size="12" x="0" y="14">ことを意味する</tspan></text><path d="M0 0C4.43874 0 8.87748 4.3348 8.87748 8.66961 8.87748 13.0044 13.3162 17.3392 17.755 17.3392" stroke="#ED7D31" stroke-width="0.666667" stroke-miterlimit="8" fill="none" fill-rule="evenodd" transform="matrix(-1.83697e-16 -1 -1 1.83697e-16 582.839 437.255)"/></g></svg>