<svg width="607" height="634" xmlns="http://www.w3.org/2000/svg" xmlns:xlink="http://www.w3.org/1999/xlink" overflow="hidden"><defs><clipPath id="clip0"><rect x="60" y="75" width="607" height="634"/></clipPath><linearGradient x1="418" y1="462.5" x2="418" y2="490.5" gradientUnits="userSpaceOnUse" spreadMethod="reflect" id="fill1"><stop offset="0" stop-color="#FFDD9C"/><stop offset="0.5" stop-color="#FFD78E"/><stop offset="1" stop-color="#FFD479"/></linearGradient><clipPath id="clip2"><rect x="298" y="371" width="31" height="31"/></clipPath><clipPath id="clip3"><rect x="298" y="371" width="31" height="31"/></clipPath><clipPath id="clip4"><rect x="298" y="371" width="31" height="31"/></clipPath><clipPath id="clip5"><rect x="370" y="371" width="31" height="32"/></clipPath><clipPath id="clip6"><rect x="370" y="371" width="31" height="32"/></clipPath><clipPath id="clip7"><rect x="370" y="371" width="31" height="32"/></clipPath><clipPath id="clip8"><rect x="442" y="373" width="31" height="31"/></clipPath><clipPath id="clip9"><rect x="442" y="373" width="31" height="31"/></clipPath><clipPath id="clip10"><rect x="442" y="373" width="31" height="31"/></clipPath><clipPath id="clip11"><rect x="93" y="397" width="63" height="63"/></clipPath><clipPath id="clip12"><rect x="93" y="397" width="63" height="63"/></clipPath><clipPath id="clip13"><rect x="93" y="397" width="63" height="63"/></clipPath><clipPath id="clip14"><rect x="398" y="403" width="23" height="23"/></clipPath><clipPath id="clip15"><rect x="398" y="403" width="23" height="23"/></clipPath><clipPath id="clip16"><rect x="398" y="403" width="23" height="23"/></clipPath><clipPath id="clip17"><rect x="185" y="562" width="122" height="55"/></clipPath><clipPath id="clip18"><rect x="185" y="562" width="122" height="55"/></clipPath><clipPath id="clip19"><rect x="185" y="562" width="122" height="55"/></clipPath><clipPath id="clip20"><rect x="185" y="562" width="122" height="55"/></clipPath><clipPath id="clip21"><rect x="346" y="562" width="122" height="55"/></clipPath><clipPath id="clip22"><rect x="346" y="562" width="122" height="55"/></clipPath><clipPath id="clip23"><rect x="346" y="562" width="122" height="55"/></clipPath><clipPath id="clip24"><rect x="346" y="562" width="122" height="55"/></clipPath><clipPath id="clip25"><rect x="503" y="562" width="122" height="55"/></clipPath><clipPath id="clip26"><rect x="503" y="562" width="122" height="55"/></clipPath><clipPath id="clip27"><rect x="503" y="562" width="122" height="55"/></clipPath><clipPath id="clip28"><rect x="503" y="562" width="122" height="55"/></clipPath></defs><g clip-path="url(#clip0)" transform="translate(-60 -75)"><rect x="488" y="551" width="153" height="94" fill="#F2F2F2"/><text font-family="Calibri,Calibri_MSFontService,sans-serif" font-weight="400" font-size="13" transform="translate(498.325 636)">PB052:<tspan font-family="Yu Gothic,Yu Gothic_MSFontService,sans-serif" font-size="13" x="38.1667" y="0">装置</tspan><tspan font-family="Yu Gothic,Yu Gothic_MSFontService,sans-serif" font-size="13" x="64.8333" y="0">の状態機械</tspan></text><path d="M498.245 637.239 530.745 637.239 563.245 637.239 563.245 638.239 530.745 638.239 498.245 638.239Z" fill-rule="evenodd"/><rect x="326" y="551" width="153" height="94" fill="#F2F2F2"/><text font-family="Calibri,Calibri_MSFontService,sans-serif" font-weight="400" font-size="13" transform="translate(336.785 636)">PB037:<tspan font-family="Yu Gothic,Yu Gothic_MSFontService,sans-serif" font-size="13" x="38.1667" y="0">装置</tspan><tspan font-family="Yu Gothic,Yu Gothic_MSFontService,sans-serif" font-size="13" x="64.8333" y="0">の状態機械</tspan></text><path d="M336.705 637.239 369.205 637.239 401.705 637.239 401.705 638.239 369.205 638.239 336.705 638.239Z" fill-rule="evenodd"/><rect x="165" y="551" width="152" height="94" fill="#F2F2F2"/><text font-family="Calibri,Calibri_MSFontService,sans-serif" font-weight="400" font-size="13" transform="translate(175.245 636)">PB021:<tspan font-family="Yu Gothic,Yu Gothic_MSFontService,sans-serif" font-size="13" x="38.1667" y="0">装置</tspan><tspan font-family="Yu Gothic,Yu Gothic_MSFontService,sans-serif" font-size="13" x="64.8333" y="0">の状態機械</tspan></text><path d="M175.165 637.239 207.665 637.239 240.165 637.239 240.165 638.239 207.665 638.239 175.165 638.239Z" fill-rule="evenodd"/><rect x="82" y="117" width="354" height="186" fill="#F2F2F2"/><text font-family="Yu Gothic,Yu Gothic_MSFontService,sans-serif" font-weight="400" font-size="13" transform="translate(225.417 134)">状態遷移図</text><rect x="61.5001" y="76.5001" width="605" height="632" stroke="#D9D9D9" stroke-width="1.33333" stroke-miterlimit="8" fill="none"/><path d="M136.5 173.667C136.5 170.813 138.813 168.5 141.667 168.5L224.333 168.5C227.187 168.5 229.5 170.813 229.5 173.667L229.5 194.333C229.5 197.187 227.187 199.5 224.333 199.5L141.667 199.5C138.813 199.5 136.5 197.187 136.5 194.333Z" stroke="#000000" stroke-width="1.33333" stroke-miterlimit="8" fill="#FFFFFF" fill-rule="evenodd"/><text font-family="Calibri,Calibri_MSFontService,sans-serif" font-weight="400" font-size="13" transform="translate(176.056 187)">S1</text><path d="M136.5 234.667C136.5 231.813 138.813 229.5 141.667 229.5L224.333 229.5C227.187 229.5 229.5 231.813 229.5 234.667L229.5 255.333C229.5 258.187 227.187 260.5 224.333 260.5L141.667 260.5C138.813 260.5 136.5 258.187 136.5 255.333Z" stroke="#000000" stroke-width="1.33333" stroke-miterlimit="8" fill="#FFFFFF" fill-rule="evenodd"/><text font-family="Calibri,Calibri_MSFontService,sans-serif" font-weight="400" font-size="13" transform="translate(176.056 248)">S2</text><path d="M289.5 234.667C289.5 231.813 291.813 229.5 294.667 229.5L377.333 229.5C380.187 229.5 382.5 231.813 382.5 234.667L382.5 255.333C382.5 258.187 380.187 260.5 377.333 260.5L294.667 260.5C291.813 260.5 289.5 258.187 289.5 255.333Z" stroke="#000000" stroke-width="1.33333" stroke-miterlimit="8" fill="#FFFFFF" fill-rule="evenodd"/><text font-family="Calibri,Calibri_MSFontService,sans-serif" font-weight="400" font-size="13" transform="translate(328.723 248)">S3</text><path d="M289.5 174.667C289.5 171.813 291.813 169.5 294.667 169.5L377.333 169.5C380.187 169.5 382.5 171.813 382.5 174.667L382.5 195.333C382.5 198.187 380.187 200.5 377.333 200.5L294.667 200.5C291.813 200.5 289.5 198.187 289.5 195.333Z" stroke="#000000" stroke-width="1.33333" stroke-miterlimit="8" fill="#FFFFFF" fill-rule="evenodd"/><text font-family="Calibri,Calibri_MSFontService,sans-serif" font-weight="400" font-size="13" transform="translate(328.722 188)">S4</text><path d="M184.167 199.5 184.167 228.18 182.833 228.18 182.833 199.5ZM188.743 220.516 183.5 229.503 178.258 220.516C178.072 220.198 178.18 219.79 178.498 219.604 178.816 219.419 179.224 219.526 179.409 219.844L184.076 227.844 182.924 227.844 187.591 219.844C187.776 219.526 188.185 219.419 188.503 219.604 188.821 219.79 188.928 220.198 188.743 220.516Z"/><path d="M229.5 243.833 287.628 243.833 287.628 245.167 229.5 245.167ZM279.964 239.258 288.951 244.5 279.964 249.743C279.645 249.928 279.237 249.821 279.052 249.503 278.866 249.185 278.974 248.776 279.292 248.591L287.292 243.924 287.292 245.076 279.292 240.409C278.974 240.224 278.866 239.816 279.052 239.498 279.237 239.18 279.645 239.072 279.964 239.258Z"/><path d="M334.833 229.916 334.833 201.82 336.167 201.82 336.167 229.916ZM330.258 209.484 335.5 200.497 340.743 209.484C340.928 209.802 340.821 210.21 340.503 210.396 340.185 210.581 339.776 210.474 339.591 210.156L334.924 202.156 336.076 202.156 331.409 210.156C331.224 210.474 330.816 210.581 330.497 210.396 330.179 210.21 330.072 209.802 330.258 209.484Z"/><path d="M288.941 184.75 230.814 184.18 230.827 182.846 288.954 183.417ZM238.432 188.831 229.497 183.5 238.535 178.346C238.855 178.164 239.262 178.275 239.445 178.595 239.627 178.915 239.516 179.322 239.196 179.504L231.15 184.092 231.162 182.94 239.115 187.685C239.432 187.874 239.535 188.283 239.346 188.6 239.158 188.916 238.748 189.019 238.432 188.831Z"/><path d="M336.164 259.945 336.352 262.195 336.33 262.072 336.955 264.322 336.904 264.192 339.154 268.504 339.071 268.382 342.509 272.444 342.415 272.353 346.977 275.978 346.896 275.922 352.208 278.985 352.12 278.943 358.12 281.318 358.028 281.289 364.403 282.789 364.307 282.773 370.87 283.336 370.769 283.335 377.394 282.897 377.309 282.908 383.684 281.658 383.606 281.679 389.543 279.741 389.463 279.773 394.838 277.211 394.755 277.258 399.255 274.258 399.167 274.328 402.667 271.016 402.557 271.151 404.744 267.589 404.682 267.72 405.307 265.908 405.274 266.059 405.462 264.184 405.466 264.351 404.904 260.663 404.948 260.821 403.448 257.259 403.521 257.388 401.146 254.076 401.221 254.164 398.159 251.164 398.24 251.232 394.615 248.669 394.713 248.727 390.651 246.789 390.752 246.828 386.439 245.578 386.561 245.601 383.374 245.291 383.503 243.964 386.751 244.28 391.175 245.562 395.338 247.548 399.053 250.174 402.196 253.252 404.648 256.672 406.209 260.38 406.797 264.233 406.593 266.269 405.919 268.224 403.647 271.924 400.042 275.336 395.455 278.394 389.998 280.995 383.981 282.959 377.524 284.225 370.806 284.669 364.145 284.098 357.675 282.575 351.584 280.164 346.187 277.053 341.534 273.356 338.006 269.187 335.689 264.746 335.028 262.368 334.836 260.055ZM390.56 250.587 382.122 244.5 391.574 240.151C391.909 239.998 392.305 240.144 392.459 240.478 392.612 240.813 392.466 241.209 392.132 241.363L383.717 245.233 383.829 244.087 391.34 249.506C391.638 249.721 391.706 250.138 391.49 250.437 391.275 250.735 390.858 250.803 390.56 250.587Z"/><text font-family="Calibri,Calibri_MSFontService,sans-serif" font-weight="400" font-size="13" transform="translate(164.508 216)">E1<tspan font-size="13" x="84.5067" y="17">E2</tspan><tspan font-size="13" x="218.094" y="55">E2</tspan><tspan font-size="13" x="178.239" y="4">E3</tspan><tspan font-size="13" x="86.0872" y="-38">E4</tspan></text><path d="M398.5 125.5 442 125.5 442 125.5 507.25 125.5 659.5 125.5 659.5 145.333 659.5 145.333 659.5 175.084 659.5 244.5 507.25 244.5 442 244.5 442 244.5 398.5 244.5 398.5 175.084 366.637 172.518 398.5 145.333Z" stroke="#2F528F" stroke-width="1.33333" stroke-miterlimit="8" stroke-opacity="0.701961" fill="#F2F2F2" fill-rule="evenodd" fill-opacity="0.701961"/><text font-family="Yu Gothic,Yu Gothic_MSFontService,sans-serif" font-weight="400" font-size="13" transform="translate(407.78 142)">インスタンス<tspan font-size="13" x="80" y="0">が“</tspan><tspan font-family="Calibri,Calibri_MSFontService,sans-serif" font-size="13" x="99" y="0">S4</tspan>”の状態にある時に、<tspan font-size="13" x="0" y="16">“</tspan><tspan font-family="Calibri,Calibri_MSFontService,sans-serif" font-size="13" x="5.66666" y="16">E4</tspan><tspan font-size="13" x="19" y="16">”事象が発生した場合、状態“</tspan><tspan font-family="Calibri,Calibri_MSFontService,sans-serif" font-size="13" x="190.333" y="16">S4</tspan>”から<tspan font-size="13" x="0" y="32">状態“</tspan><tspan font-family="Calibri,Calibri_MSFontService,sans-serif" font-size="13" x="32.3333" y="32">S1”</tspan>への状態遷移を引き起こす。<tspan font-size="13" x="0" y="48">“</tspan><tspan font-family="Calibri,Calibri_MSFontService,sans-serif" font-size="13" x="5.66666" y="48">S1</tspan>”に紐づいたアクションがまず実行さ<tspan font-size="13" x="0" y="64">れ、アクション完了時点で“</tspan><tspan font-family="Calibri,Calibri_MSFontService,sans-serif" font-size="13" x="165.667" y="64">S1”</tspan>への遷移<tspan font-size="13" x="0" y="80">が確定する。</tspan></text><path d="M355.5 180.521 363.903 180.521 366.5 172.5 369.097 180.521 377.5 180.521 370.702 185.479 373.298 193.5 366.5 188.543 359.702 193.5 362.298 185.479Z" stroke="#BC8C00" stroke-width="1.33333" stroke-miterlimit="8" fill="#FFC000" fill-rule="evenodd"/><text font-family="Yu Gothic,Yu Gothic_MSFontService,sans-serif" font-weight="400" font-size="16" transform="translate(204.072 97)">状態遷移、アクション実行、遷移の確定</text><path d="M239 361 298 361 298 361 386.5 361 593 361 593 449.667 593 449.667 593 487.667 593 513 386.5 513 298 513 298 513 239 513 239 487.667 148.086 437.468 239 449.667Z" fill="#F2F2F2" fill-rule="evenodd"/><path d="M267.5 490.5 274.5 462.5 568.5 462.5 561.5 490.5Z" stroke="#FFC000" stroke-width="0.666667" stroke-miterlimit="8" fill="url(#fill1)" fill-rule="evenodd"/><g clip-path="url(#clip2)"><g clip-path="url(#clip3)"><g clip-path="url(#clip4)"><path d="M310.078 385.207 323.428 385.207 323.428 386.329 310.078 386.329Z" fill="#4B4B4B"/><path d="M308.926 389.641 322.277 389.641 322.277 390.763 308.926 390.763Z" fill="#4B4B4B"/><path d="M328.957 373.216 328.957 372.495 306.363 372.495 306.363 373.216C306.363 374.706 306.404 376.264 306.404 377.881 306.404 380.239 306.317 382.724 305.897 385.311 305.497 387.771 304.796 390.324 303.58 392.956L301.406 392.956C301.021 392.956 300.633 393.018 300.259 393.147 299.698 393.342 299.168 393.698 298.765 394.22 298.362 394.742 298.096 395.42 298.017 396.219 298.006 396.335 298 396.45 298 396.564 297.999 397.144 298.149 397.69 298.4 398.169 298.777 398.89 299.374 399.462 300.066 399.861 300.76 400.26 301.556 400.49 302.366 400.496L319.542 400.505C320.196 400.507 320.763 400.373 321.246 400.154 321.729 399.936 322.123 399.646 322.489 399.354 323.986 398.162 325.141 396.686 326.029 395.046 327.36 392.585 328.095 389.757 328.506 386.881 328.916 384.005 328.999 381.077 329 378.412 329 376.504 328.957 374.73 328.957 373.216ZM302.374 399.054 302.375 399.054C302.017 399.052 301.645 398.981 301.294 398.85 300.766 398.654 300.288 398.322 299.959 397.922 299.793 397.721 299.664 397.504 299.576 397.278 299.489 397.052 299.442 396.815 299.442 396.564 299.442 396.498 299.445 396.431 299.452 396.363 299.491 395.982 299.582 395.677 299.704 395.43 299.887 395.062 300.135 394.817 300.427 394.649 300.718 394.482 301.06 394.407 301.406 394.407L316.863 394.407C316.695 394.599 316.546 394.819 316.427 395.067 316.251 395.432 316.133 395.855 316.085 396.331 316.075 396.439 316.07 396.545 316.07 396.651 316.07 397.155 316.19 397.632 316.399 398.055 316.588 398.436 316.847 398.774 317.154 399.062L302.374 399.054ZM326.573 389.4C326.157 391.177 325.572 392.862 324.76 394.36 323.949 395.858 322.915 397.17 321.59 398.226 321.256 398.493 320.963 398.7 320.653 398.839 320.342 398.978 320.011 399.061 319.543 399.063L319.061 399.062C318.625 398.939 318.22 398.721 317.891 398.434 317.625 398.203 317.41 397.929 317.262 397.629 317.114 397.328 317.031 397.002 317.031 396.651 317.031 396.578 317.034 396.503 317.042 396.427 317.08 396.049 317.17 395.739 317.293 395.485 317.477 395.103 317.732 394.844 318.026 394.67 318.32 394.497 318.657 394.412 318.995 394.413 319.335 394.412 319.672 394.5 319.951 394.656 320.231 394.814 320.451 395.035 320.584 395.311 320.654 395.457 320.697 395.651 320.697 395.847 320.697 396.008 320.668 396.167 320.616 396.301 320.564 396.435 320.49 396.541 320.404 396.614 320.243 396.75 320.079 396.801 319.913 396.802 319.768 396.802 319.624 396.758 319.503 396.68 319.382 396.603 319.288 396.494 319.232 396.365L318.349 396.744C318.484 397.06 318.711 397.314 318.984 397.49 319.257 397.665 319.578 397.763 319.913 397.763 320.296 397.765 320.697 397.629 321.028 397.346 321.255 397.152 321.412 396.907 321.512 396.649 321.612 396.391 321.658 396.118 321.658 395.847 321.658 395.518 321.591 395.191 321.45 394.895 321.223 394.423 320.852 394.06 320.422 393.818 320 393.582 319.518 393.459 319.029 393.452L319.029 393.445 304.945 393.445C306.188 390.722 306.909 388.074 307.32 385.543 307.759 382.842 307.846 380.274 307.846 377.881 307.846 376.505 307.818 375.19 307.809 373.937L327.518 373.937C327.527 375.3 327.558 376.813 327.558 378.412 327.559 381.924 327.406 385.845 326.573 389.4Z" fill="#4B4B4B"/><path d="M318.051 382.403C318.22 380.519 318.229 378.714 318.211 377.008L310.742 377.008C310.759 378.714 310.75 380.519 310.581 382.403L318.051 382.403Z" fill="#4B4B4B"/></g></g></g><g clip-path="url(#clip5)"><g clip-path="url(#clip6)"><g clip-path="url(#clip7)"><path d="M12.0776 14.2073 25.4285 14.2073 25.4285 15.3288 12.0776 15.3288Z" fill="#4B4B4B" transform="matrix(1 0 0 1.03226 370 371)"/><path d="M10.9263 18.6407 24.2772 18.6407 24.2772 19.7627 10.9263 19.7627Z" fill="#4B4B4B" transform="matrix(1 0 0 1.03226 370 371)"/><path d="M30.9566 2.21614 30.9566 1.49466 8.36255 1.49466 8.36255 2.21614C8.36255 3.70613 8.40397 5.2637 8.40397 6.88091 8.40397 9.23945 8.31708 11.7242 7.89664 14.311 7.49667 16.7711 6.79621 19.324 5.58048 21.9558L3.4057 21.9558C3.02141 21.9558 2.63343 22.0176 2.25912 22.1475 1.6984 22.3422 1.16753 22.6977 0.765434 23.2202 0.362313 23.7416 0.0963906 24.4196 0.0173164 25.2191 0.0058125 25.3348 0 25.4499 0 25.564-0.000544922 26.1436 0.148703 26.6902 0.399973 27.1692 0.777422 27.8896 1.37375 28.4619 2.0664 28.8613 2.76015 29.2602 3.55586 29.4901 4.36628 29.4958L21.5422 29.5053C22.1961 29.5069 22.7631 29.3733 23.2458 29.154 23.729 28.9357 24.1233 28.6456 24.4892 28.354 25.9855 27.1625 27.1415 25.6856 28.0288 24.0464 29.3602 21.5847 30.0953 18.7565 30.5062 15.8807 30.9162 13.0048 30.9995 10.0772 30.9999 7.41233 31 5.50395 30.9566 3.72969 30.9566 2.21614ZM4.37421 28.0535 4.37475 28.0535C4.01662 28.0519 3.64541 27.9813 3.29411 27.8499 2.76645 27.6541 2.28788 27.3221 1.95857 26.9216 1.79316 26.7211 1.66437 26.5043 1.5764 26.2782 1.48903 26.0515 1.44235 25.8154 1.44235 25.5641 1.44235 25.4982 1.4455 25.4311 1.45234 25.3631 1.49054 24.9819 1.58215 24.6767 1.70361 24.4302 1.88682 24.0616 2.13452 23.8165 2.42666 23.6485 2.71825 23.482 3.0601 23.4066 3.4057 23.4066L18.8628 23.4066C18.6952 23.5988 18.5461 23.8187 18.4267 24.0673 18.2508 24.4317 18.133 24.8547 18.0853 25.3307 18.0748 25.439 18.0695 25.5453 18.0695 25.651 18.0695 26.1547 18.19 26.6317 18.3993 27.0553 18.5878 27.4358 18.847 27.7741 19.1543 28.062L4.37421 28.0535ZM28.5729 18.3999C28.1567 20.1774 27.5719 21.8616 26.7604 23.36 25.9489 24.8583 24.9149 26.1703 23.5903 27.2263 23.2564 27.4933 22.9626 27.7001 22.6532 27.8388 22.3422 27.9776 22.0108 28.0613 21.5428 28.0629L21.0611 28.0624C20.625 27.9388 20.2203 27.7205 19.891 27.4336 19.625 27.2027 19.4098 26.9294 19.2617 26.6289 19.1136 26.3284 19.0313 26.0017 19.0313 25.651 19.0313 25.5777 19.0344 25.5028 19.0423 25.4269 19.08 25.0495 19.17 24.739 19.2925 24.4846 19.4774 24.1035 19.7319 23.8443 20.0261 23.67 20.3198 23.4967 20.6574 23.4123 20.9946 23.4129 21.3349 23.4118 21.672 23.4998 21.9511 23.6563 22.2312 23.8139 22.4506 24.0354 22.5836 24.3113 22.6537 24.4569 22.6971 24.6511 22.6971 24.8469 22.6971 25.0076 22.6684 25.1673 22.616 25.3008 22.5642 25.4354 22.4903 25.5406 22.4045 25.6139 22.2432 25.7495 22.0788 25.8008 21.9128 25.8019 21.7684 25.8019 21.6239 25.7584 21.5035 25.6804 21.382 25.6029 21.2877 25.494 21.2323 25.3647L20.3485 25.7438C20.4836 26.0595 20.7108 26.3145 20.9841 26.4899 21.2569 26.6652 21.5783 26.7631 21.9128 26.7631 22.2955 26.7647 22.6971 26.6291 23.028 26.3458 23.2547 26.1521 23.4117 25.9071 23.5122 25.649 23.6123 25.3909 23.6578 25.1176 23.6578 24.8469 23.6578 24.5182 23.5913 24.191 23.4499 23.8951 23.2232 23.4234 22.8521 23.0595 22.4217 22.8182 21.9997 22.582 21.5181 22.4585 21.0285 22.4522L21.0285 22.4448 6.94473 22.4448C8.18763 19.7219 8.90911 17.0739 9.32004 14.5425 9.75876 11.8421 9.84565 9.27415 9.84565 6.88103 9.84565 5.50516 9.81792 4.19003 9.80902 2.93719L29.5178 2.93719C29.5273 4.29992 29.5576 5.81298 29.5576 7.41239 29.5587 10.9237 29.4063 14.8451 28.5729 18.3999Z" fill="#4B4B4B" transform="matrix(1 0 0 1.03226 370 371)"/><path d="M20.0512 11.4033C20.2203 9.51851 20.2287 7.7144 20.2114 6.00819L12.742 6.00819C12.7592 7.7144 12.7503 9.51851 12.5813 11.4033L20.0512 11.4033Z" fill="#4B4B4B" transform="matrix(1 0 0 1.03226 370 371)"/></g></g></g><g clip-path="url(#clip8)"><g clip-path="url(#clip9)"><g clip-path="url(#clip10)"><path d="M454.078 387.207 467.428 387.207 467.428 388.329 454.078 388.329Z" fill="#4B4B4B"/><path d="M452.926 391.641 466.277 391.641 466.277 392.763 452.926 392.763Z" fill="#4B4B4B"/><path d="M472.957 375.216 472.957 374.495 450.363 374.495 450.363 375.216C450.363 376.706 450.404 378.264 450.404 379.881 450.404 382.239 450.317 384.724 449.897 387.311 449.497 389.771 448.796 392.324 447.58 394.956L445.406 394.956C445.021 394.956 444.633 395.018 444.259 395.147 443.698 395.342 443.168 395.698 442.765 396.22 442.362 396.742 442.096 397.42 442.017 398.219 442.006 398.335 442 398.45 442 398.564 441.999 399.144 442.149 399.69 442.4 400.169 442.777 400.89 443.374 401.462 444.066 401.861 444.76 402.26 445.556 402.49 446.366 402.496L463.542 402.505C464.196 402.507 464.763 402.373 465.246 402.154 465.729 401.936 466.123 401.646 466.489 401.354 467.986 400.162 469.141 398.686 470.029 397.046 471.36 394.585 472.095 391.757 472.506 388.881 472.916 386.005 472.999 383.077 473 380.412 473 378.504 472.957 376.73 472.957 375.216ZM446.374 401.054 446.375 401.054C446.017 401.052 445.645 400.981 445.294 400.85 444.766 400.654 444.288 400.322 443.959 399.922 443.793 399.721 443.664 399.504 443.576 399.278 443.489 399.052 443.442 398.815 443.442 398.564 443.442 398.498 443.445 398.431 443.452 398.363 443.491 397.982 443.582 397.677 443.704 397.43 443.887 397.062 444.135 396.817 444.427 396.649 444.718 396.482 445.06 396.407 445.406 396.407L460.863 396.407C460.695 396.599 460.546 396.819 460.427 397.067 460.251 397.432 460.133 397.855 460.085 398.331 460.075 398.439 460.07 398.545 460.07 398.651 460.07 399.155 460.19 399.632 460.399 400.055 460.588 400.436 460.847 400.774 461.154 401.062L446.374 401.054ZM470.573 391.4C470.157 393.177 469.572 394.862 468.76 396.36 467.949 397.858 466.915 399.17 465.59 400.226 465.256 400.493 464.963 400.7 464.653 400.839 464.342 400.978 464.011 401.061 463.543 401.063L463.061 401.062C462.625 400.939 462.22 400.721 461.891 400.434 461.625 400.203 461.41 399.929 461.262 399.629 461.114 399.328 461.031 399.002 461.031 398.651 461.031 398.578 461.034 398.503 461.042 398.427 461.08 398.049 461.17 397.739 461.293 397.485 461.477 397.103 461.732 396.844 462.026 396.67 462.32 396.497 462.657 396.412 462.995 396.413 463.335 396.412 463.672 396.5 463.951 396.656 464.231 396.814 464.451 397.035 464.584 397.311 464.654 397.457 464.697 397.651 464.697 397.847 464.697 398.008 464.668 398.167 464.616 398.301 464.564 398.435 464.49 398.541 464.404 398.614 464.243 398.75 464.079 398.801 463.913 398.802 463.768 398.802 463.624 398.758 463.503 398.68 463.382 398.603 463.288 398.494 463.232 398.365L462.349 398.744C462.484 399.06 462.711 399.314 462.984 399.49 463.257 399.665 463.578 399.763 463.913 399.763 464.296 399.765 464.697 399.629 465.028 399.346 465.255 399.152 465.412 398.907 465.512 398.649 465.612 398.391 465.658 398.118 465.658 397.847 465.658 397.518 465.591 397.191 465.45 396.895 465.223 396.423 464.852 396.06 464.422 395.818 464 395.582 463.518 395.459 463.029 395.452L463.029 395.445 448.945 395.445C450.188 392.722 450.909 390.074 451.32 387.543 451.759 384.842 451.846 382.274 451.846 379.881 451.846 378.505 451.818 377.19 451.809 375.937L471.518 375.937C471.527 377.3 471.558 378.813 471.558 380.412 471.559 383.924 471.406 387.845 470.573 391.4Z" fill="#4B4B4B"/><path d="M462.051 384.403C462.22 382.519 462.229 380.714 462.211 379.008L454.742 379.008C454.759 380.714 454.75 382.519 454.581 384.403L462.051 384.403Z" fill="#4B4B4B"/></g></g></g><g clip-path="url(#clip11)"><g clip-path="url(#clip12)"><g clip-path="url(#clip13)"><path d="M151.735 411.604 133.23 424.711 133.23 411.604 113.919 425.282 112.31 400.339 96.2173 400.339 93 456.661 156 456.661 151.735 411.604ZM116.951 442.471 109.35 442.471 109.35 434.869 116.951 434.869 116.951 442.471ZM138.541 442.471 130.938 442.471 130.938 434.869 138.541 434.869 138.541 442.471Z" fill="#4B4B4B"/></g></g></g><text font-family="Calibri,Calibri_MSFontService,sans-serif" font-weight="400" font-size="11" transform="translate(103.585 470)">F002:<tspan font-family="Yu Gothic,Yu Gothic_MSFontService,sans-serif" font-size="11" x="23.6667" y="0">工場</tspan></text><path d="M103.585 470.637 114.835 470.637 126.085 470.637 137.335 470.637 148.585 470.637 148.585 471.637 137.335 471.637 126.085 471.637 114.835 471.637 103.585 471.637Z" fill-rule="evenodd"/><rect x="300.5" y="433.5" width="28" height="28" stroke="#2F528F" stroke-width="3" stroke-miterlimit="8" fill="#FFFFFF"/><path d="M305.5 447C305.5 442.306 309.306 438.5 314 438.5 318.694 438.5 322.5 442.306 322.5 447 322.5 451.694 318.694 455.5 314 455.5 309.306 455.5 305.5 451.694 305.5 447Z" stroke="#AE5A21" stroke-width="1.33333" stroke-miterlimit="8" fill="#FFFFFF" fill-rule="evenodd"/><path d="M300.5 429.5 301.75 424.5 327.25 424.5 328.5 429.5Z" stroke="#2F528F" stroke-width="3" stroke-miterlimit="8" fill="#FFFFFF" fill-rule="evenodd"/><path d="M0 5 1.24999 0 26.75 0 28 5Z" stroke="#2F528F" stroke-width="3" stroke-miterlimit="8" fill="#FFFFFF" fill-rule="evenodd" transform="matrix(1 0 0 -1 300.5 470.5)"/><rect x="302.5" y="416.5" width="23" height="5" stroke="#2F528F" stroke-width="3" stroke-miterlimit="8" fill="#FFFFFF"/><path d="M308.703 451.096 315.081 443.023 314.139 442.279 317.51 441.884 317.906 445.255 316.964 444.511 310.586 452.584Z" stroke="#AE5A21" stroke-width="1.33333" stroke-miterlimit="8" fill="#ED7D31" fill-rule="evenodd"/><rect x="371.5" y="433.5" width="28" height="28" stroke="#2F528F" stroke-width="3" stroke-miterlimit="8" fill="#FFFFFF"/><path d="M377.5 447C377.5 442.306 381.306 438.5 386 438.5 390.694 438.5 394.5 442.306 394.5 447 394.5 451.694 390.694 455.5 386 455.5 381.306 455.5 377.5 451.694 377.5 447Z" stroke="#AE5A21" stroke-width="1.33333" stroke-miterlimit="8" fill="#FFFFFF" fill-rule="evenodd"/><path d="M371.5 429.5 372.75 424.5 398.25 424.5 399.5 429.5Z" stroke="#2F528F" stroke-width="3" stroke-miterlimit="8" fill="#FFFFFF" fill-rule="evenodd"/><path d="M0 5 1.24999 0 26.75 0 28 5Z" stroke="#2F528F" stroke-width="3" stroke-miterlimit="8" fill="#FFFFFF" fill-rule="evenodd" transform="matrix(1 0 0 -1 371.5 470.5)"/><rect x="374.5" y="416.5" width="23" height="5" stroke="#2F528F" stroke-width="3" stroke-miterlimit="8" fill="#FFFFFF"/><path d="M389.488 451.816 381.538 445.285 380.777 446.213 380.446 442.835 383.824 442.504 383.062 443.431 391.011 449.962Z" stroke="#AE5A21" stroke-width="1.33333" stroke-miterlimit="8" fill="#ED7D31" fill-rule="evenodd"/><rect x="443.5" y="432.5" width="28" height="28" stroke="#2F528F" stroke-width="3" stroke-miterlimit="8" fill="#FFFFFF"/><path d="M449.5 447C449.5 442.306 453.306 438.5 458 438.5 462.694 438.5 466.5 442.306 466.5 447 466.5 451.694 462.694 455.5 458 455.5 453.306 455.5 449.5 451.694 449.5 447Z" stroke="#AE5A21" stroke-width="1.33333" stroke-miterlimit="8" fill="#FFFFFF" fill-rule="evenodd"/><path d="M443.5 429.5 444.75 424.5 470.25 424.5 471.5 429.5Z" stroke="#2F528F" stroke-width="3" stroke-miterlimit="8" fill="#FFFFFF" fill-rule="evenodd"/><path d="M0 5 1.24999 0 26.75 0 28 5Z" stroke="#2F528F" stroke-width="3" stroke-miterlimit="8" fill="#FFFFFF" fill-rule="evenodd" transform="matrix(1 0 0 -1 443.5 469.5)"/><rect x="446.5" y="415.5" width="22" height="5" stroke="#2F528F" stroke-width="3" stroke-miterlimit="8" fill="#FFFFFF"/><path d="M453.52 451.567 457.565 442.108 456.462 441.636 459.612 440.373 460.875 443.523 459.772 443.051 455.727 452.511Z" stroke="#AE5A21" stroke-width="1.33333" stroke-miterlimit="8" fill="#ED7D31" fill-rule="evenodd"/><g clip-path="url(#clip14)"><g clip-path="url(#clip15)"><g clip-path="url(#clip16)"><path d="M403.608 403 415.392 403 415.392 404.135 403.608 404.135Z" fill="#70AD47"/><path d="M416.525 406.597C416.336 406.266 415.105 404.656 415.105 404.656L413.706 404.656C413.074 405.43 411.467 408.353 413.155 416.914 413.486 418.591 413.652 422.522 412.585 424.438L408.376 424.438C409.819 422.664 411.736 419.185 411.168 415.068 410.443 409.816 410.325 406.601 411.071 404.656L403.895 404.656C403.895 404.656 402.664 406.266 402.475 406.597 402.285 406.928 402.333 407.07 402.333 407.543 402.333 408.016 402.333 422.64 402.333 423.255 402.333 423.87 402.508 424.654 402.948 424.865 403.842 425.29 403.511 426 404.462 426L414.538 426C415.489 426 415.158 425.29 416.052 424.865 416.492 424.654 416.667 423.87 416.667 423.255 416.667 422.64 416.667 408.016 416.667 407.543 416.667 407.07 416.715 406.928 416.525 406.597Z" fill="#70AD47"/></g></g></g><path d="M328 444 334 444 334 450 328 450ZM340 444 346 444 346 450 340 450ZM352 444 356.787 444 356.787 450 352 450ZM353.787 438 371.787 447 353.787 456Z" fill="#4472C4"/><path d="M0.0449225-2.99966 6.04425-2.90982 5.9544 3.08951-0.0449225 2.99966ZM12.0436-2.81997 18.0429-2.73013 17.9531 3.2692 11.9537 3.17935ZM24.0422-2.64028 28.8337-2.56853 28.7438 3.4308 23.9524 3.35904ZM25.9239-8.61278 43.7871 0.655748 25.6543 9.3852Z" fill="#4472C4" transform="matrix(1 0 0 -1 399 446.656)"/><path d="M0 0 17.9418 14.9882" stroke="#44546A" stroke-width="0.666667" stroke-miterlimit="8" stroke-dasharray="0.666667 0.666667" fill="none" fill-rule="evenodd" transform="matrix(1 0 0 -1 391.5 441.488)"/><path d="M314.543 416.363 314.5 402.5" stroke="#262626" stroke-width="0.666667" stroke-miterlimit="8" stroke-dasharray="0.666667 0.666667" fill="none" fill-rule="evenodd"/><path d="M0 0 0.15874 13.3398" stroke="#262626" stroke-width="0.666667" stroke-miterlimit="8" stroke-dasharray="0.666667 0.666667" fill="none" fill-rule="evenodd" transform="matrix(1 0 0 -1 385.5 416.84)"/><path d="M0 0 0.15874 11.0613" stroke="#262626" stroke-width="0.666667" stroke-miterlimit="8" stroke-dasharray="0.666667 0.666667" fill="none" fill-rule="evenodd" transform="matrix(1 0 0 -1 457.5 415.561)"/><text font-family="Yu Gothic,Yu Gothic_MSFontService,sans-serif" font-weight="400" font-size="16" transform="translate(204.072 343)">インスタンス<tspan font-size="16" x="96" y="0">は、それぞれの“状態機械”を持つ</tspan></text><g clip-path="url(#clip17)"><g clip-path="url(#clip18)"><g clip-path="url(#clip19)"><g clip-path="url(#clip20)"><path d="M60.5444 77.0297C60.5444 75.7638 61.5703 74.7379 62.8362 74.7379L99.5025 74.7379C100.768 74.7379 101.794 75.7638 101.794 77.0297L101.794 86.1961C101.794 87.462 100.768 88.4879 99.5025 88.4879L62.8362 88.4879C61.5703 88.4879 60.5444 87.462 60.5444 86.1961Z" stroke="#000000" stroke-width="0.591396" stroke-miterlimit="8" fill="#FFFFFF" fill-rule="evenodd" transform="matrix(1.01123 0 0 1 124.449 490.589)"/><text font-family="Calibri,Calibri_MSFontService,sans-serif" font-weight="400" font-size="13" transform="matrix(0.448529 0 0 0.443548 203.415 574)">S<tspan font-size="13" x="6" y="0">1</tspan></text><path d="M60.5444 104.086C60.5444 102.82 61.5703 101.794 62.8362 101.794L99.5025 101.794C100.768 101.794 101.794 102.82 101.794 104.086L101.794 113.253C101.794 114.518 100.768 115.544 99.5025 115.544L62.8362 115.544C61.5703 115.544 60.5444 114.518 60.5444 113.253Z" stroke="#000000" stroke-width="0.591396" stroke-miterlimit="8" fill="#FFFFFF" fill-rule="evenodd" transform="matrix(1.01123 0 0 1 124.449 490.589)"/><text font-family="Calibri,Calibri_MSFontService,sans-serif" font-weight="400" font-size="13" transform="matrix(0.448529 0 0 0.443548 203.415 601)">S<tspan font-size="13" x="6" y="0">2</tspan></text><path d="M128.407 104.086C128.407 102.82 129.433 101.794 130.699 101.794L167.365 101.794C168.631 101.794 169.657 102.82 169.657 104.086L169.657 113.253C169.657 114.518 168.631 115.544 167.365 115.544L130.699 115.544C129.433 115.544 128.407 114.518 128.407 113.253Z" stroke="#000000" stroke-width="0.591396" stroke-miterlimit="8" fill="#FFFFFF" fill-rule="evenodd" transform="matrix(1.01123 0 0 1 124.449 490.589)"/><text font-family="Calibri,Calibri_MSFontService,sans-serif" font-weight="400" font-size="13" transform="matrix(0.448529 0 0 0.443548 271.89 601)">S<tspan font-size="13" x="5.99997" y="0">3</tspan></text><path d="M128.407 77.4733C128.407 76.2074 129.433 75.1814 130.699 75.1814L167.365 75.1814C168.631 75.1814 169.657 76.2074 169.657 77.4733L169.657 86.6396C169.657 87.9055 168.631 88.9314 167.365 88.9314L130.699 88.9314C129.433 88.9314 128.407 87.9055 128.407 86.6396Z" stroke="#000000" stroke-width="0.591396" stroke-miterlimit="8" fill="#FFFFFF" fill-rule="evenodd" transform="matrix(1.01123 0 0 1 124.449 490.589)"/><text font-family="Calibri,Calibri_MSFontService,sans-serif" font-weight="400" font-size="13" transform="matrix(0.448529 0 0 0.443548 271.89 574)">S<tspan font-size="13" x="5.99997" y="0">4</tspan></text><path d="M81.687 88.4879 81.687 101.209 81.0953 101.209 81.0953 88.4879ZM83.7167 97.8095 81.3911 101.796 79.066 97.8095C78.9836 97.6685 79.0314 97.4875 79.1725 97.405 79.3135 97.3229 79.4945 97.3704 79.5766 97.5114L81.6466 101.06 81.1356 101.06 83.2057 97.5114C83.2877 97.3704 83.4692 97.3229 83.6102 97.405 83.7513 97.4875 83.7987 97.6685 83.7167 97.8095Z" transform="matrix(1.01123 0 0 1 124.449 490.589)"/><path d="M101.794 108.152 127.577 108.152 127.577 108.743 101.794 108.743ZM124.178 106.122 128.164 108.448 124.178 110.773C124.036 110.855 123.855 110.808 123.773 110.667 123.691 110.526 123.738 110.344 123.88 110.262L127.428 108.192 127.428 108.703 123.88 106.633C123.738 106.551 123.691 106.37 123.773 106.229 123.855 106.088 124.036 106.04 124.178 106.122Z" transform="matrix(1.01123 0 0 1 124.449 490.589)"/><path d="M148.515 101.979 148.515 89.5169 149.106 89.5169 149.106 101.979ZM146.485 92.9163 148.81 88.9301 151.136 92.9163C151.218 93.0573 151.171 93.2383 151.03 93.3208 150.889 93.4029 150.707 93.3554 150.625 93.2144L148.555 89.666 149.066 89.666 146.996 93.2144C146.914 93.3554 146.733 93.4029 146.591 93.3208 146.45 93.2383 146.403 93.0573 146.485 92.9163Z" transform="matrix(1.01123 0 0 1 124.449 490.589)"/><path d="M128.159 81.9456 102.377 81.6927 102.383 81.101 128.165 81.3543ZM105.756 83.7557 101.793 81.3911 105.802 79.1051C105.944 79.0244 106.124 79.0736 106.205 79.2155 106.286 79.3575 106.237 79.538 106.095 79.6187L102.526 81.6537 102.532 81.1427 106.059 83.2474C106.2 83.3312 106.245 83.5126 106.162 83.6532 106.078 83.7934 105.896 83.8391 105.756 83.7557Z" transform="matrix(1.01123 0 0 1 124.449 490.589)"/><path d="M149.105 115.298 149.188 116.296 149.179 116.242 149.456 117.24 149.433 117.182 150.431 119.095 150.394 119.04 151.919 120.842 151.878 120.802 153.901 122.41 153.865 122.385 156.221 123.743 156.182 123.725 158.844 124.778 158.803 124.765 161.63 125.431 161.588 125.424 164.499 125.673 164.454 125.673 167.393 125.479 167.355 125.483 170.182 124.929 170.148 124.938 172.781 124.079 172.746 124.093 175.13 122.956 175.093 122.977 177.089 121.647 177.05 121.678 178.602 120.209 178.554 120.269 179.524 118.689 179.496 118.747 179.773 117.943 179.759 118.01 179.842 117.178 179.844 117.252 179.595 115.617 179.614 115.687 178.949 114.107 178.981 114.164 177.928 112.695 177.961 112.734 176.603 111.403 176.639 111.434 175.031 110.297 175.074 110.322 173.273 109.463 173.317 109.48 171.404 108.926 171.459 108.936 170.045 108.798 170.102 108.21 171.543 108.35 173.505 108.919 175.352 109.8 176.999 110.964 178.393 112.33 179.481 113.846 180.173 115.491 180.434 117.2 180.344 118.103 180.045 118.97 179.037 120.611 177.438 122.125 175.403 123.481 172.983 124.635 170.314 125.506 167.45 126.068 164.47 126.264 161.516 126.011 158.646 125.336 155.945 124.266 153.551 122.886 151.487 121.247 149.922 119.397 148.894 117.428 148.601 116.373 148.516 115.347ZM173.232 111.147 169.49 108.448 173.682 106.519C173.831 106.451 174.006 106.515 174.075 106.664 174.142 106.812 174.078 106.988 173.93 107.056L170.197 108.773 170.247 108.264 173.578 110.668C173.71 110.763 173.741 110.948 173.645 111.081 173.549 111.213 173.364 111.243 173.232 111.147Z" transform="matrix(1.01123 0 0 1 124.449 490.589)"/><text font-family="Calibri,Calibri_MSFontService,sans-serif" font-weight="400" font-size="13" transform="matrix(0.448529 0 0 0.443548 198.235 586)">E<tspan font-size="13" x="6" y="0">1</tspan><tspan font-size="13" x="84.5067" y="18.0364">E</tspan>2<tspan font-size="13" x="218.094" y="56.3636">E</tspan><tspan font-size="13" x="224.094" y="56.3636">2</tspan><tspan font-size="13" x="178.239" y="4.50909">E</tspan><tspan font-size="13" x="184.239" y="4.50909">3</tspan><tspan font-size="13" x="86.0872" y="-36.0727">E</tspan><tspan font-size="13" x="92.0872" y="-36.0727">4</tspan></text></g></g></g></g><g clip-path="url(#clip21)"><g clip-path="url(#clip22)"><g clip-path="url(#clip23)"><g clip-path="url(#clip24)"><path d="M60.5444 77.0297C60.5444 75.7638 61.5703 74.7379 62.8362 74.7379L99.5025 74.7379C100.768 74.7379 101.794 75.7638 101.794 77.0297L101.794 86.1961C101.794 87.462 100.768 88.4879 99.5025 88.4879L62.8362 88.4879C61.5703 88.4879 60.5444 87.462 60.5444 86.1961Z" stroke="#000000" stroke-width="0.591396" stroke-miterlimit="8" fill="#FFFFFF" fill-rule="evenodd" transform="matrix(1.01123 0 0 1 285.449 490.589)"/><text font-family="Calibri,Calibri_MSFontService,sans-serif" font-weight="400" font-size="13" transform="matrix(0.448529 0 0 0.443548 364.415 574)">S<tspan font-size="13" x="5.99997" y="0">1</tspan></text><path d="M60.5444 104.086C60.5444 102.82 61.5703 101.794 62.8362 101.794L99.5025 101.794C100.768 101.794 101.794 102.82 101.794 104.086L101.794 113.253C101.794 114.518 100.768 115.544 99.5025 115.544L62.8362 115.544C61.5703 115.544 60.5444 114.518 60.5444 113.253Z" stroke="#000000" stroke-width="0.591396" stroke-miterlimit="8" fill="#FFFFFF" fill-rule="evenodd" transform="matrix(1.01123 0 0 1 285.449 490.589)"/><text font-family="Calibri,Calibri_MSFontService,sans-serif" font-weight="400" font-size="13" transform="matrix(0.448529 0 0 0.443548 364.415 601)">S<tspan font-size="13" x="5.99997" y="0">2</tspan></text><path d="M128.407 104.086C128.407 102.82 129.433 101.794 130.699 101.794L167.365 101.794C168.631 101.794 169.657 102.82 169.657 104.086L169.657 113.253C169.657 114.518 168.631 115.544 167.365 115.544L130.699 115.544C129.433 115.544 128.407 114.518 128.407 113.253Z" stroke="#000000" stroke-width="0.591396" stroke-miterlimit="8" fill="#FFFFFF" fill-rule="evenodd" transform="matrix(1.01123 0 0 1 285.449 490.589)"/><text font-family="Calibri,Calibri_MSFontService,sans-serif" font-weight="400" font-size="13" transform="matrix(0.448529 0 0 0.443548 432.89 601)">S<tspan font-size="13" x="5.99997" y="0">3</tspan></text><path d="M128.407 77.4733C128.407 76.2074 129.433 75.1814 130.699 75.1814L167.365 75.1814C168.631 75.1814 169.657 76.2074 169.657 77.4733L169.657 86.6396C169.657 87.9055 168.631 88.9314 167.365 88.9314L130.699 88.9314C129.433 88.9314 128.407 87.9055 128.407 86.6396Z" stroke="#000000" stroke-width="0.591396" stroke-miterlimit="8" fill="#FFFFFF" fill-rule="evenodd" transform="matrix(1.01123 0 0 1 285.449 490.589)"/><text font-family="Calibri,Calibri_MSFontService,sans-serif" font-weight="400" font-size="13" transform="matrix(0.448529 0 0 0.443548 432.89 574)">S<tspan font-size="13" x="5.99997" y="0">4</tspan></text><path d="M81.687 88.4879 81.687 101.209 81.0953 101.209 81.0953 88.4879ZM83.7167 97.8095 81.3911 101.796 79.066 97.8095C78.9836 97.6685 79.0314 97.4875 79.1725 97.405 79.3135 97.3229 79.4945 97.3704 79.5766 97.5114L81.6466 101.06 81.1356 101.06 83.2057 97.5114C83.2877 97.3704 83.4692 97.3229 83.6102 97.405 83.7513 97.4875 83.7987 97.6685 83.7167 97.8095Z" transform="matrix(1.01123 0 0 1 285.449 490.589)"/><path d="M101.794 108.152 127.577 108.152 127.577 108.743 101.794 108.743ZM124.178 106.122 128.164 108.448 124.178 110.773C124.036 110.855 123.855 110.808 123.773 110.667 123.691 110.526 123.738 110.344 123.88 110.262L127.428 108.192 127.428 108.703 123.88 106.633C123.738 106.551 123.691 106.37 123.773 106.229 123.855 106.088 124.036 106.04 124.178 106.122Z" transform="matrix(1.01123 0 0 1 285.449 490.589)"/><path d="M148.515 101.979 148.515 89.5169 149.106 89.5169 149.106 101.979ZM146.485 92.9163 148.81 88.9301 151.136 92.9163C151.218 93.0573 151.171 93.2383 151.03 93.3208 150.889 93.4029 150.707 93.3554 150.625 93.2144L148.555 89.666 149.066 89.666 146.996 93.2144C146.914 93.3554 146.733 93.4029 146.591 93.3208 146.45 93.2383 146.403 93.0573 146.485 92.9163Z" transform="matrix(1.01123 0 0 1 285.449 490.589)"/><path d="M128.159 81.9456 102.377 81.6927 102.383 81.101 128.165 81.3543ZM105.756 83.7557 101.793 81.3911 105.802 79.1051C105.944 79.0244 106.124 79.0736 106.205 79.2155 106.286 79.3575 106.237 79.538 106.095 79.6187L102.526 81.6537 102.532 81.1427 106.059 83.2474C106.2 83.3312 106.245 83.5126 106.162 83.6532 106.078 83.7934 105.896 83.8391 105.756 83.7557Z" transform="matrix(1.01123 0 0 1 285.449 490.589)"/><path d="M149.105 115.298 149.188 116.296 149.179 116.242 149.456 117.24 149.433 117.182 150.431 119.095 150.394 119.04 151.919 120.842 151.878 120.802 153.901 122.41 153.865 122.385 156.221 123.743 156.182 123.725 158.844 124.778 158.803 124.765 161.63 125.431 161.588 125.424 164.499 125.673 164.454 125.673 167.393 125.479 167.355 125.483 170.182 124.929 170.148 124.938 172.781 124.079 172.746 124.093 175.13 122.956 175.093 122.977 177.089 121.647 177.05 121.678 178.602 120.209 178.554 120.269 179.524 118.689 179.496 118.747 179.773 117.943 179.759 118.01 179.842 117.178 179.844 117.252 179.595 115.617 179.614 115.687 178.949 114.107 178.981 114.164 177.928 112.695 177.961 112.734 176.603 111.403 176.639 111.434 175.031 110.297 175.074 110.322 173.273 109.463 173.317 109.48 171.404 108.926 171.459 108.936 170.045 108.798 170.102 108.21 171.543 108.35 173.505 108.919 175.352 109.8 176.999 110.964 178.393 112.33 179.481 113.846 180.173 115.491 180.434 117.2 180.344 118.103 180.045 118.97 179.037 120.611 177.438 122.125 175.403 123.481 172.983 124.635 170.314 125.506 167.45 126.068 164.47 126.264 161.516 126.011 158.646 125.336 155.945 124.266 153.551 122.886 151.487 121.247 149.922 119.397 148.894 117.428 148.601 116.373 148.516 115.347ZM173.232 111.147 169.49 108.448 173.682 106.519C173.831 106.451 174.006 106.515 174.075 106.664 174.142 106.812 174.078 106.988 173.93 107.056L170.197 108.773 170.247 108.264 173.578 110.668C173.71 110.763 173.741 110.948 173.645 111.081 173.549 111.213 173.364 111.243 173.232 111.147Z" transform="matrix(1.01123 0 0 1 285.449 490.589)"/><text font-family="Calibri,Calibri_MSFontService,sans-serif" font-weight="400" font-size="13" transform="matrix(0.448529 0 0 0.443548 359.235 586)">E<tspan font-size="13" x="6.00004" y="0">1</tspan><tspan font-size="13" x="84.5067" y="18.0364">E</tspan><tspan font-size="13" x="90.5067" y="18.0364">2</tspan><tspan font-size="13" x="218.094" y="56.3636">E</tspan><tspan font-size="13" x="224.094" y="56.3636">2</tspan><tspan font-size="13" x="178.239" y="4.50909">E</tspan><tspan font-size="13" x="184.239" y="4.50909">3</tspan><tspan font-size="13" x="86.0872" y="-36.0727">E</tspan><tspan font-size="13" x="92.0872" y="-36.0727">4</tspan></text></g></g></g></g><g clip-path="url(#clip25)"><g clip-path="url(#clip26)"><g clip-path="url(#clip27)"><g clip-path="url(#clip28)"><path d="M60.5444 77.0297C60.5444 75.7638 61.5703 74.7379 62.8362 74.7379L99.5025 74.7379C100.768 74.7379 101.794 75.7638 101.794 77.0297L101.794 86.1961C101.794 87.462 100.768 88.4879 99.5025 88.4879L62.8362 88.4879C61.5703 88.4879 60.5444 87.462 60.5444 86.1961Z" stroke="#000000" stroke-width="0.591396" stroke-miterlimit="8" fill="#FFFFFF" fill-rule="evenodd" transform="matrix(1.01123 0 0 1 442.449 490.589)"/><text font-family="Calibri,Calibri_MSFontService,sans-serif" font-weight="400" font-size="13" transform="matrix(0.448529 0 0 0.443548 521.415 574)">S<tspan font-size="13" x="6.0001" y="0">1</tspan></text><path d="M60.5444 104.086C60.5444 102.82 61.5703 101.794 62.8362 101.794L99.5025 101.794C100.768 101.794 101.794 102.82 101.794 104.086L101.794 113.253C101.794 114.518 100.768 115.544 99.5025 115.544L62.8362 115.544C61.5703 115.544 60.5444 114.518 60.5444 113.253Z" stroke="#000000" stroke-width="0.591396" stroke-miterlimit="8" fill="#FFFFFF" fill-rule="evenodd" transform="matrix(1.01123 0 0 1 442.449 490.589)"/><text font-family="Calibri,Calibri_MSFontService,sans-serif" font-weight="400" font-size="13" transform="matrix(0.448529 0 0 0.443548 521.415 601)">S<tspan font-size="13" x="6.0001" y="0">2</tspan></text><path d="M128.407 104.086C128.407 102.82 129.433 101.794 130.699 101.794L167.365 101.794C168.631 101.794 169.657 102.82 169.657 104.086L169.657 113.253C169.657 114.518 168.631 115.544 167.365 115.544L130.699 115.544C129.433 115.544 128.407 114.518 128.407 113.253Z" stroke="#000000" stroke-width="0.591396" stroke-miterlimit="8" fill="#FFFFFF" fill-rule="evenodd" transform="matrix(1.01123 0 0 1 442.449 490.589)"/><text font-family="Calibri,Calibri_MSFontService,sans-serif" font-weight="400" font-size="13" transform="matrix(0.448529 0 0 0.443548 589.89 601)">S<tspan font-size="13" x="6.0001" y="0">3</tspan></text><path d="M128.407 77.4733C128.407 76.2074 129.433 75.1814 130.699 75.1814L167.365 75.1814C168.631 75.1814 169.657 76.2074 169.657 77.4733L169.657 86.6396C169.657 87.9055 168.631 88.9314 167.365 88.9314L130.699 88.9314C129.433 88.9314 128.407 87.9055 128.407 86.6396Z" stroke="#000000" stroke-width="0.591396" stroke-miterlimit="8" fill="#FFFFFF" fill-rule="evenodd" transform="matrix(1.01123 0 0 1 442.449 490.589)"/><text font-family="Calibri,Calibri_MSFontService,sans-serif" font-weight="400" font-size="13" transform="matrix(0.448529 0 0 0.443548 589.89 574)">S<tspan font-size="13" x="5.99997" y="0">4</tspan></text><path d="M81.687 88.4879 81.687 101.209 81.0953 101.209 81.0953 88.4879ZM83.7167 97.8095 81.3911 101.796 79.066 97.8095C78.9836 97.6685 79.0314 97.4875 79.1725 97.405 79.3135 97.3229 79.4945 97.3704 79.5766 97.5114L81.6466 101.06 81.1356 101.06 83.2057 97.5114C83.2877 97.3704 83.4692 97.3229 83.6102 97.405 83.7513 97.4875 83.7987 97.6685 83.7167 97.8095Z" transform="matrix(1.01123 0 0 1 442.449 490.589)"/><path d="M101.794 108.152 127.577 108.152 127.577 108.743 101.794 108.743ZM124.178 106.122 128.164 108.448 124.178 110.773C124.036 110.855 123.855 110.808 123.773 110.667 123.691 110.526 123.738 110.344 123.88 110.262L127.428 108.192 127.428 108.703 123.88 106.633C123.738 106.551 123.691 106.37 123.773 106.229 123.855 106.088 124.036 106.04 124.178 106.122Z" transform="matrix(1.01123 0 0 1 442.449 490.589)"/><path d="M148.515 101.979 148.515 89.5169 149.106 89.5169 149.106 101.979ZM146.485 92.9163 148.81 88.9301 151.136 92.9163C151.218 93.0573 151.171 93.2383 151.03 93.3208 150.889 93.4029 150.707 93.3554 150.625 93.2144L148.555 89.666 149.066 89.666 146.996 93.2144C146.914 93.3554 146.733 93.4029 146.591 93.3208 146.45 93.2383 146.403 93.0573 146.485 92.9163Z" transform="matrix(1.01123 0 0 1 442.449 490.589)"/><path d="M128.159 81.9456 102.377 81.6927 102.383 81.101 128.165 81.3543ZM105.756 83.7557 101.793 81.3911 105.802 79.1051C105.944 79.0244 106.124 79.0736 106.205 79.2155 106.286 79.3575 106.237 79.538 106.095 79.6187L102.526 81.6537 102.532 81.1427 106.059 83.2474C106.2 83.3312 106.245 83.5126 106.162 83.6532 106.078 83.7934 105.896 83.8391 105.756 83.7557Z" transform="matrix(1.01123 0 0 1 442.449 490.589)"/><path d="M149.105 115.298 149.188 116.296 149.179 116.242 149.456 117.24 149.433 117.182 150.431 119.095 150.394 119.04 151.919 120.842 151.878 120.802 153.901 122.41 153.865 122.385 156.221 123.743 156.182 123.725 158.844 124.778 158.803 124.765 161.63 125.431 161.588 125.424 164.499 125.673 164.454 125.673 167.393 125.479 167.355 125.483 170.182 124.929 170.148 124.938 172.781 124.079 172.746 124.093 175.13 122.956 175.093 122.977 177.089 121.647 177.05 121.678 178.602 120.209 178.554 120.269 179.524 118.689 179.496 118.747 179.773 117.943 179.759 118.01 179.842 117.178 179.844 117.252 179.595 115.617 179.614 115.687 178.949 114.107 178.981 114.164 177.928 112.695 177.961 112.734 176.603 111.403 176.639 111.434 175.031 110.297 175.074 110.322 173.273 109.463 173.317 109.48 171.404 108.926 171.459 108.936 170.045 108.798 170.102 108.21 171.543 108.35 173.505 108.919 175.352 109.8 176.999 110.964 178.393 112.33 179.481 113.846 180.173 115.491 180.434 117.2 180.344 118.103 180.045 118.97 179.037 120.611 177.438 122.125 175.403 123.481 172.983 124.635 170.314 125.506 167.45 126.068 164.47 126.264 161.516 126.011 158.646 125.336 155.945 124.266 153.551 122.886 151.487 121.247 149.922 119.397 148.894 117.428 148.601 116.373 148.516 115.347ZM173.232 111.147 169.49 108.448 173.682 106.519C173.831 106.451 174.006 106.515 174.075 106.664 174.142 106.812 174.078 106.988 173.93 107.056L170.197 108.773 170.247 108.264 173.578 110.668C173.71 110.763 173.741 110.948 173.645 111.081 173.549 111.213 173.364 111.243 173.232 111.147Z" transform="matrix(1.01123 0 0 1 442.449 490.589)"/><text font-family="Calibri,Calibri_MSFontService,sans-serif" font-weight="400" font-size="13" transform="matrix(0.448529 0 0 0.443548 516.235 586)">E<tspan font-size="13" x="5.99997" y="0">1</tspan><tspan font-size="13" x="84.5066" y="18.0364">E</tspan><tspan font-size="13" x="90.5067" y="18.0364">2</tspan><tspan font-size="13" x="218.094" y="56.3636">E</tspan><tspan font-size="13" x="224.094" y="56.3636">2</tspan><tspan font-size="13" x="178.239" y="4.50909">E</tspan><tspan font-size="13" x="184.239" y="4.50909">3</tspan><tspan font-size="13" x="86.0871" y="-36.0727">E</tspan><tspan font-size="13" x="92.0871" y="-36.0727">4</tspan></text></g></g></g></g><text font-family="Calibri,Calibri_MSFontService,sans-serif" font-weight="400" font-size="13" transform="translate(283.273 485)">PB021:<tspan font-family="Yu Gothic,Yu Gothic_MSFontService,sans-serif" font-size="13" x="38.1667" y="0">装置</tspan></text><path d="M283.273 485.947 299.523 485.947 315.773 485.947 332.023 485.947 348.273 485.947 348.273 486.947 332.023 486.947 315.773 486.947 299.523 486.947 283.273 486.947Z" fill-rule="evenodd"/><text font-family="Calibri,Calibri_MSFontService,sans-serif" font-weight="400" font-size="13" transform="translate(358.244 485)">PB037:<tspan font-family="Yu Gothic,Yu Gothic_MSFontService,sans-serif" font-size="13" x="38.1667" y="0">装置</tspan></text><path d="M358.244 485.592 374.494 485.592 390.744 485.592 406.994 485.592 423.244 485.592 423.244 486.592 406.994 486.592 390.744 486.592 374.494 486.592 358.244 486.592Z" fill-rule="evenodd"/><text font-family="Calibri,Calibri_MSFontService,sans-serif" font-weight="400" font-size="13" transform="translate(440.174 485)">PB052:<tspan font-family="Yu Gothic,Yu Gothic_MSFontService,sans-serif" font-size="13" x="38.1667" y="0">装置</tspan></text><path d="M440.174 485.947 456.424 485.947 472.674 485.947 488.924 485.947 505.174 485.947 505.174 486.947 488.924 486.947 472.674 486.947 456.424 486.947 440.174 486.947Z" fill-rule="evenodd"/><path d="M0.200478-0.266307 75.3056 56.2734 74.9046 56.806-0.200478 0.266307ZM79.1147 51.2136C82.0562 53.428 82.6457 57.6078 80.4312 60.5493 78.2168 63.4909 74.0371 64.0803 71.0955 61.8659 68.154 59.6515 67.5645 55.4717 69.7789 52.5302 71.9934 49.5886 76.1731 48.9992 79.1147 51.2136Z" fill="#4472C4" transform="matrix(-1 0 0 1 316.605 494.5)"/><path d="M391.827 494.434 403.291 551.33 402.638 551.461 391.173 494.566ZM409.5 550.079C410.227 553.688 407.891 557.203 404.281 557.931 400.672 558.658 397.156 556.322 396.429 552.712 395.702 549.103 398.038 545.587 401.647 544.86 405.257 544.133 408.772 546.469 409.5 550.079Z" fill="#4472C4"/><path d="M473.676 494.217 564.75 550.757 564.399 551.323 473.324 494.783ZM568.091 545.376C571.219 547.318 572.18 551.428 570.238 554.556 568.297 557.684 564.186 558.646 561.058 556.704 557.93 554.762 556.969 550.652 558.911 547.524 560.852 544.395 564.963 543.434 568.091 545.376Z" fill="#4472C4"/><path d="M442.5 599.848 447.466 599.848 449 594.5 450.534 599.848 455.5 599.848 451.483 603.153 453.017 608.5 449 605.195 444.983 608.5 446.517 603.153Z" stroke="#BC8C00" stroke-width="1.33333" stroke-miterlimit="8" fill="#FFC000" fill-rule="evenodd"/><path d="M528.5 599.848 533.848 599.848 535.5 594.5 537.153 599.848 542.5 599.848 538.174 603.153 539.826 608.5 535.5 605.195 531.174 608.5 532.826 603.153Z" stroke="#BC8C00" stroke-width="1.33333" stroke-miterlimit="8" fill="#FFC000" fill-rule="evenodd"/><path d="M279.5 571.848 284.466 571.848 286 566.5 287.534 571.848 292.5 571.848 288.483 575.153 290.017 580.5 286 577.195 281.983 580.5 283.517 575.153Z" stroke="#BC8C00" stroke-width="1.33333" stroke-miterlimit="8" fill="#FFC000" fill-rule="evenodd"/><path d="M443.5 684.848 448.466 684.848 450 679.5 451.534 684.848 456.5 684.848 452.483 688.153 454.017 693.5 450 690.195 445.983 693.5 447.517 688.153Z" stroke="#BC8C00" stroke-width="1.33333" stroke-miterlimit="8" fill="#FFC000" fill-rule="evenodd"/><text font-family="Yu Gothic,Yu Gothic_MSFontService,sans-serif" font-weight="400" font-size="13" transform="translate(462.017 693)">状態機械<tspan font-size="13" x="53.3333" y="0">の現在の状態を示す</tspan></text></g></svg>