<svg width="607" height="528" xmlns="http://www.w3.org/2000/svg" xmlns:xlink="http://www.w3.org/1999/xlink" overflow="hidden"><defs><clipPath id="clip0"><rect x="61" y="64" width="607" height="528"/></clipPath><clipPath id="clip1"><rect x="447" y="159" width="164" height="74"/></clipPath><clipPath id="clip2"><rect x="447" y="159" width="164" height="74"/></clipPath><clipPath id="clip3"><rect x="447" y="159" width="164" height="74"/></clipPath><clipPath id="clip4"><rect x="447" y="159" width="164" height="74"/></clipPath><clipPath id="clip5"><rect x="152" y="337" width="80" height="177"/></clipPath><clipPath id="clip6"><rect x="152" y="337" width="80" height="177"/></clipPath><clipPath id="clip7"><rect x="152" y="337" width="80" height="177"/></clipPath><clipPath id="clip8"><rect x="152" y="337" width="81" height="177"/></clipPath><clipPath id="clip9"><rect x="498" y="339" width="79" height="178"/></clipPath><clipPath id="clip10"><rect x="498" y="339" width="79" height="178"/></clipPath><clipPath id="clip11"><rect x="498" y="339" width="79" height="178"/></clipPath><clipPath id="clip12"><rect x="498" y="339" width="79" height="178"/></clipPath></defs><g clip-path="url(#clip0)" transform="translate(-61 -64)"><path d="M102 306 207 306 207 306 252 306 282 306 282 344 318.232 282.655 282 401 282 534 252 534 207 534 207 534 102 534 102 401 102 344 102 344Z" fill="#F2F2F2" fill-rule="evenodd"/><text font-family="Yu Gothic,Yu Gothic_MSFontService,sans-serif" font-weight="400" font-size="13" transform="translate(118.434 323)">サブクラスの状態モデル</text><path d="M446 306 476 306 476 306 521 306 626 306 626 344 626 344 626 401 626 534 521 534 476 534 476 534 446 534 446 401 407.921 280.567 446 344Z" fill="#F2F2F2" fill-rule="evenodd"/><text font-family="Yu Gothic,Yu Gothic_MSFontService,sans-serif" font-weight="400" font-size="13" transform="translate(462.428 323)">サブクラスの状態モデル</text><path d="M417 124 453.667 124 453.667 124 508.667 124 637 124 637 192.25 637 192.25 637 221.5 637 241 508.667 241 453.667 241 453.667 241 417 241 417 221.5 361.542 203.69 417 192.25Z" fill="#F2F2F2" fill-rule="evenodd"/><text font-family="Yu Gothic,Yu Gothic_MSFontService,sans-serif" font-weight="400" font-size="13" transform="translate(440.584 140)">スーパークラス<tspan font-size="13" x="93.3333" y="0">の状態モデル</tspan></text><rect x="62.5001" y="66.5001" width="605" height="525" stroke="#D9D9D9" stroke-width="1.33333" stroke-miterlimit="8" fill="none"/><rect x="313.5" y="188.5" width="75" height="39" stroke="#000000" stroke-width="1.33333" stroke-miterlimit="8" fill="none"/><text font-family="Calibri,Calibri_MSFontService,sans-serif" font-weight="400" font-size="13" transform="translate(346.593 212)">A</text><rect x="268.5" y="257.5" width="75" height="39" stroke="#000000" stroke-width="1.33333" stroke-miterlimit="8" fill="none"/><text font-family="Calibri,Calibri_MSFontService,sans-serif" font-weight="400" font-size="13" transform="translate(301.79 280)">B</text><path d="M343.5 241.5 351 228.5 358.5 241.5Z" stroke="#000000" stroke-width="1.33333" stroke-miterlimit="8" fill="none" fill-rule="evenodd"/><path d="M350.469 241.5 350.469 249.576 305.5 249.576 305.5 257.651" stroke="#000000" stroke-width="0.666667" stroke-miterlimit="8" fill="none" fill-rule="evenodd"/><rect x="358.5" y="257.5" width="75" height="39" stroke="#000000" stroke-width="1.33333" stroke-miterlimit="8" fill="none"/><text font-family="Calibri,Calibri_MSFontService,sans-serif" font-weight="400" font-size="13" transform="translate(391.812 280)">C</text><path d="M0 0 8.07564 0 8.07564 44.9692 16.1512 44.9692" stroke="#000000" stroke-width="0.666667" stroke-miterlimit="8" fill="none" fill-rule="evenodd" transform="matrix(1.83697e-16 1 1 -1.83697e-16 350.5 241.5)"/><g clip-path="url(#clip1)"><g clip-path="url(#clip2)"><g clip-path="url(#clip3)"><g clip-path="url(#clip4)"><path d="M416.847 370.995C416.847 369.292 418.227 367.911 419.93 367.911L469.86 367.911C471.563 367.911 472.944 369.292 472.944 370.995L472.944 383.328C472.944 385.031 471.563 386.411 469.86 386.411L419.93 386.411C418.227 386.411 416.847 385.031 416.847 383.328Z" stroke="#000000" stroke-width="0.795697" stroke-miterlimit="8" fill="#FFFFFF" fill-rule="evenodd" transform="matrix(1.00663 0 0 1 28.2894 -204.435)"/><text font-family="Calibri,Calibri_MSFontService,sans-serif" font-weight="400" font-size="13" transform="matrix(0.600733 0 0 0.596774 471.925 175)">S<tspan font-size="13" x="6.00001" y="0">1</tspan></text><path d="M416.847 407.398C416.847 405.695 418.227 404.315 419.93 404.315L469.86 404.315C471.563 404.315 472.944 405.695 472.944 407.398L472.944 419.731C472.944 421.434 471.563 422.815 469.86 422.815L419.93 422.815C418.227 422.815 416.847 421.434 416.847 419.731Z" stroke="#000000" stroke-width="0.795697" stroke-miterlimit="8" fill="#FFFFFF" fill-rule="evenodd" transform="matrix(1.00663 0 0 1 28.2894 -204.435)"/><text font-family="Calibri,Calibri_MSFontService,sans-serif" font-weight="400" font-size="13" transform="matrix(0.600733 0 0 0.596774 471.925 212)">S<tspan font-size="13" x="6.00001" y="0">2</tspan></text><path d="M508.153 407.398C508.153 405.695 509.534 404.315 511.237 404.315L560.57 404.315C562.273 404.315 563.653 405.695 563.653 407.398L563.653 419.731C563.653 421.434 562.273 422.815 560.57 422.815L511.237 422.815C509.534 422.815 508.153 421.434 508.153 419.731Z" stroke="#000000" stroke-width="0.795697" stroke-miterlimit="8" fill="#FFFFFF" fill-rule="evenodd" transform="matrix(1.00663 0 0 1 28.2894 -204.435)"/><text font-family="Calibri,Calibri_MSFontService,sans-serif" font-weight="400" font-size="13" transform="matrix(0.600733 0 0 0.596774 563.636 212)">S<tspan font-size="13" x="6.00006" y="0">3</tspan></text><path d="M508.153 371.592C508.153 369.888 509.534 368.508 511.237 368.508L560.57 368.508C562.273 368.508 563.653 369.888 563.653 371.592L563.653 383.925C563.653 385.628 562.273 387.008 560.57 387.008L511.237 387.008C509.534 387.008 508.153 385.628 508.153 383.925Z" stroke="#000000" stroke-width="0.795697" stroke-miterlimit="8" fill="#FFFFFF" fill-rule="evenodd" transform="matrix(1.00663 0 0 1 28.2894 -204.435)"/><text font-family="Calibri,Calibri_MSFontService,sans-serif" font-weight="400" font-size="13" transform="matrix(0.600733 0 0 0.596774 563.636 175)">S<tspan font-size="13" x="6.00006" y="0">4</tspan></text><path d="M445.293 386.411 445.293 403.527 444.497 403.527 444.497 386.411ZM448.024 398.953 444.895 404.316 441.767 398.953C441.656 398.763 441.72 398.52 441.91 398.409 442.1 398.298 442.343 398.362 442.454 398.552L445.239 403.326 444.551 403.326 447.337 398.552C447.447 398.362 447.691 398.298 447.881 398.409 448.071 398.52 448.134 398.763 448.024 398.953Z" transform="matrix(1.00663 0 0 1 28.2894 -204.435)"/><path d="M472.944 413.465 507.633 413.465 507.633 414.261 472.944 414.261ZM503.059 410.735 508.422 413.863 503.059 416.992C502.869 417.102 502.625 417.038 502.515 416.849 502.404 416.659 502.468 416.415 502.658 416.304L507.432 413.519 507.432 414.207 502.658 411.422C502.468 411.311 502.404 411.068 502.515 410.878 502.625 410.688 502.869 410.624 503.059 410.735Z" transform="matrix(1.00663 0 0 1 28.2894 -204.435)"/><path d="M535.804 404.563 535.804 387.796 536.6 387.796 536.6 404.563ZM533.073 392.37 536.202 387.006 539.331 392.37C539.441 392.559 539.377 392.803 539.187 392.914 538.997 393.024 538.753 392.96 538.643 392.771L535.858 387.996 536.545 387.996 533.76 392.771C533.65 392.96 533.406 393.024 533.217 392.914 533.027 392.803 532.962 392.559 533.073 392.37Z" transform="matrix(1.00663 0 0 1 28.2894 -204.435)"/><path d="M508.416 378.206 473.728 377.866 473.736 377.069 508.424 377.41ZM478.274 380.641 472.942 377.46 478.335 374.384C478.526 374.275 478.769 374.342 478.878 374.533 478.987 374.723 478.921 374.966 478.73 375.075L473.928 377.813 473.935 377.125 478.682 379.957C478.871 380.07 478.932 380.314 478.819 380.503 478.707 380.692 478.463 380.753 478.274 380.641Z" transform="matrix(1.00663 0 0 1 28.2894 -204.435)"/><path d="M536.598 423.08 536.71 424.423 536.697 424.349 537.07 425.692 537.039 425.615 538.382 428.188 538.333 428.115 540.384 430.539 540.328 430.485 543.051 432.648 543.003 432.615 546.173 434.443 546.12 434.418 549.701 435.835 549.646 435.818 553.45 436.713 553.393 436.703 557.31 437.039 557.249 437.039 561.203 436.777 561.152 436.784 564.957 436.038 564.91 436.05 568.453 434.894 568.405 434.913 571.613 433.384 571.563 433.412 574.249 431.622 574.196 431.664 576.285 429.687 576.22 429.768 577.525 427.642 577.488 427.72 577.861 426.639 577.841 426.729 577.953 425.61 577.956 425.71 577.62 423.509 577.646 423.603 576.751 421.477 576.795 421.554 575.378 419.578 575.422 419.63 573.595 417.84 573.643 417.88 571.48 416.351 571.538 416.385 569.114 415.229 569.175 415.252 566.601 414.506 566.674 414.52 564.772 414.335 564.849 413.543 566.787 413.732 569.427 414.497 571.911 415.682 574.128 417.249 576.004 419.086 577.467 421.127 578.399 423.34 578.75 425.639 578.628 426.854 578.226 428.021 576.87 430.229 574.719 432.265 571.981 434.09 568.725 435.642 565.134 436.814 561.28 437.57 557.271 437.835 553.296 437.494 549.435 436.585 545.8 435.146 542.579 433.29 539.803 431.083 537.697 428.595 536.314 425.945 535.92 424.526 535.805 423.146ZM569.06 417.495 564.024 413.863 569.665 411.268C569.865 411.176 570.101 411.263 570.193 411.463 570.285 411.663 570.198 411.899 569.998 411.991L564.976 414.3 565.043 413.616 569.526 416.85C569.703 416.979 569.744 417.228 569.615 417.406 569.487 417.584 569.238 417.624 569.06 417.495Z" transform="matrix(1.00663 0 0 1 28.2894 -204.435)"/><text font-family="Calibri,Calibri_MSFontService,sans-serif" font-weight="400" font-size="13" transform="matrix(0.600733 0 0 0.596774 464.988 192)">E<tspan font-size="13" x="6.00001" y="0">1</tspan><tspan font-size="13" x="84.5067" y="16.7568">E</tspan><tspan font-size="13" x="90.5067" y="16.7568">2</tspan><tspan font-size="13" x="218.094" y="55.2973">E</tspan><tspan font-size="13" x="224.094" y="55.2973">2</tspan><tspan font-size="13" x="178.239" y="3.35135">E</tspan><tspan font-size="13" x="184.239" y="3.35135">3</tspan><tspan font-size="13" x="86.0872" y="-38.5405">E</tspan><tspan font-size="13" x="92.0872" y="-38.5405">4</tspan></text></g></g></g></g><g clip-path="url(#clip5)"><g clip-path="url(#clip6)"><g clip-path="url(#clip7)"><g clip-path="url(#clip8)"><path d="M446.7 169.2C446.7 167.046 448.446 165.3 450.6 165.3L520.2 165.3C522.354 165.3 524.1 167.046 524.1 169.2L524.1 184.8C524.1 186.954 522.354 188.7 520.2 188.7L450.6 188.7C448.446 188.7 446.7 186.954 446.7 184.8Z" stroke="#000000" stroke-width="0.799998" stroke-miterlimit="8" fill="#FFFFFF" fill-rule="evenodd" transform="matrix(1.0101 0 0 1 -298.303 201.4)"/><text font-family="Calibri,Calibri_MSFontService,sans-serif" font-weight="400" font-size="13" transform="matrix(0.606061 0 0 0.6 187.913 380)">S<tspan font-size="13" x="6.00001" y="0">1</tspan></text><path d="M486.1 188.7 486.1 212.858 485.3 212.858 485.3 188.7ZM488.846 208.26 485.7 213.652 482.555 208.26C482.443 208.069 482.508 207.824 482.699 207.713 482.89 207.602 483.134 207.666 483.245 207.857L486.046 212.657 485.354 212.657 488.155 207.857C488.266 207.666 488.511 207.602 488.702 207.713 488.893 207.824 488.957 208.069 488.846 208.26Z" transform="matrix(1.0101 0 0 1 -298.303 201.4)"/><text font-family="Calibri,Calibri_MSFontService,sans-serif" font-weight="400" font-size="13" transform="matrix(0.606061 0 0 0.6 174.915 404)">E<tspan font-size="13" x="5.99998" y="0">2</tspan></text><path d="M446.7 217.2C446.7 215.046 448.446 213.3 450.6 213.3L520.2 213.3C522.354 213.3 524.1 215.046 524.1 217.2L524.1 232.8C524.1 234.954 522.354 236.7 520.2 236.7L450.6 236.7C448.446 236.7 446.7 234.954 446.7 232.8Z" stroke="#000000" stroke-width="0.799998" stroke-miterlimit="8" fill="#FFFFFF" fill-rule="evenodd" transform="matrix(1.0101 0 0 1 -298.303 201.4)"/><text font-family="Calibri,Calibri_MSFontService,sans-serif" font-weight="400" font-size="13" transform="matrix(0.606061 0 0 0.6 187.913 429)">S<tspan font-size="13" x="6.00001" y="0">3</tspan></text><path d="M446.7 265.8C446.7 263.646 448.446 261.9 450.6 261.9L520.2 261.9C522.354 261.9 524.1 263.646 524.1 265.8L524.1 281.4C524.1 283.554 522.354 285.3 520.2 285.3L450.6 285.3C448.446 285.3 446.7 283.554 446.7 281.4Z" stroke="#000000" stroke-width="0.799998" stroke-miterlimit="8" fill="#FFFFFF" fill-rule="evenodd" transform="matrix(1.0101 0 0 1 -298.303 201.4)"/><text font-family="Calibri,Calibri_MSFontService,sans-serif" font-weight="400" font-size="13" transform="matrix(0.606061 0 0 0.6 187.913 477)">S<tspan font-size="13" x="6.00001" y="0">3</tspan></text><path d="M486.1 236.7 486.1 260.858 485.3 260.858 485.3 236.7ZM488.846 256.26 485.7 261.652 482.555 256.26C482.443 256.069 482.508 255.824 482.699 255.713 482.89 255.602 483.134 255.666 483.245 255.857L486.046 260.657 485.354 260.657 488.155 255.857C488.266 255.666 488.511 255.602 488.702 255.713 488.893 255.824 488.957 256.069 488.846 256.26Z" transform="matrix(1.0101 0 0 1 -298.303 201.4)"/><text font-family="Calibri,Calibri_MSFontService,sans-serif" font-weight="400" font-size="13" transform="matrix(0.606061 0 0 0.6 175.483 452)">E<tspan font-size="13" x="6.00001" y="0">3</tspan></text><path d="M486.1 140.1 486.1 164.258 485.3 164.258 485.3 140.1ZM481.7 140.1C481.7 137.891 483.491 136.1 485.7 136.1 487.909 136.1 489.7 137.891 489.7 140.1 489.7 142.309 487.909 144.1 485.7 144.1 483.491 144.1 481.7 142.309 481.7 140.1ZM488.846 159.66 485.7 165.052 482.555 159.66C482.443 159.469 482.508 159.224 482.699 159.113 482.89 159.002 483.134 159.066 483.245 159.257L486.046 164.057 485.354 164.057 488.155 159.257C488.266 159.066 488.511 159.002 488.702 159.113 488.893 159.224 488.957 159.469 488.846 159.66Z" transform="matrix(1.0101 0 0 1 -298.303 201.4)"/><text font-family="Calibri,Calibri_MSFontService,sans-serif" font-weight="400" font-size="13" transform="matrix(0.606061 0 0 0.6 174.915 355)">E<tspan font-size="13" x="5.99998" y="0">1</tspan></text><path d="M486.1 285.3 486.1 298.775 485.3 298.775 485.3 285.3ZM488.846 294.176 485.7 299.569 482.555 294.176C482.443 293.985 482.508 293.74 482.699 293.629 482.89 293.518 483.134 293.582 483.245 293.773L486.046 298.573 485.354 298.573 488.155 293.773C488.266 293.582 488.511 293.518 488.702 293.629 488.893 293.74 488.957 293.985 488.846 294.176Z" transform="matrix(1.0101 0 0 1 -298.303 201.4)"/><path d="M479.1 306C479.1 302.521 481.921 299.7 485.4 299.7 488.879 299.7 491.7 302.521 491.7 306 491.7 309.479 488.879 312.3 485.4 312.3 481.921 312.3 479.1 309.479 479.1 306Z" stroke="#000000" stroke-width="0.799998" stroke-miterlimit="8" fill="none" fill-rule="evenodd" transform="matrix(1.0101 0 0 1 -298.303 201.4)"/><path d="M481.5 306C481.5 303.515 483.38 301.5 485.7 301.5 488.02 301.5 489.9 303.515 489.9 306 489.9 308.485 488.02 310.5 485.7 310.5 483.38 310.5 481.5 308.485 481.5 306Z" stroke="#000000" stroke-width="0.799998" stroke-miterlimit="8" fill-rule="evenodd" transform="matrix(1.0101 0 0 1 -298.303 201.4)"/></g></g></g></g><g clip-path="url(#clip9)"><g clip-path="url(#clip10)"><g clip-path="url(#clip11)"><g clip-path="url(#clip12)"><path d="M445.572 168.773C445.572 166.624 447.314 164.883 449.462 164.883L518.886 164.883C521.035 164.883 522.777 166.624 522.777 168.773L522.777 184.333C522.777 186.482 521.035 188.223 518.886 188.223L449.462 188.223C447.314 188.223 445.572 186.482 445.572 184.333Z" stroke="#000000" stroke-width="0.797978" stroke-miterlimit="8" fill="#FFFFFF" fill-rule="evenodd" transform="matrix(1 0 0 1.0082 53.3258 202.634)"/><text font-family="Calibri,Calibri_MSFontService,sans-serif" font-weight="400" font-size="13" transform="matrix(0.598485 0 0 0.60339 533.464 382)">S<tspan font-size="13" x="5.99995" y="0">1</tspan></text><path d="M484.873 188.223 484.873 212.321 484.074 212.321 484.074 188.223ZM487.611 207.734 484.474 213.113 481.336 207.734C481.225 207.544 481.29 207.3 481.48 207.188 481.67 207.078 481.914 207.142 482.025 207.332L484.818 212.12 484.129 212.12 486.922 207.332C487.033 207.142 487.277 207.078 487.468 207.188 487.658 207.3 487.722 207.544 487.611 207.734Z" transform="matrix(1 0 0 1.0082 53.3258 202.634)"/><text font-family="Calibri,Calibri_MSFontService,sans-serif" font-weight="400" font-size="13" transform="matrix(0.598485 0 0 0.60339 520.628 407)">E<tspan font-size="13" x="5.99995" y="0">2</tspan></text><path d="M445.572 216.652C445.572 214.503 447.314 212.761 449.462 212.761L518.886 212.761C521.035 212.761 522.777 214.503 522.777 216.652L522.777 232.212C522.777 234.361 521.035 236.102 518.886 236.102L449.462 236.102C447.314 236.102 445.572 234.361 445.572 232.212Z" stroke="#000000" stroke-width="0.797978" stroke-miterlimit="8" fill="#FFFFFF" fill-rule="evenodd" transform="matrix(1 0 0 1.0082 53.3258 202.634)"/><text font-family="Calibri,Calibri_MSFontService,sans-serif" font-weight="400" font-size="13" transform="matrix(0.598485 0 0 0.60339 533.464 431)">S<tspan font-size="13" x="5.99995" y="0">3</tspan></text><path d="M445.572 265.129C445.572 262.98 447.314 261.239 449.462 261.239L518.886 261.239C521.035 261.239 522.777 262.98 522.777 265.129L522.777 280.689C522.777 282.838 521.035 284.58 518.886 284.58L449.462 284.58C447.314 284.58 445.572 282.838 445.572 280.689Z" stroke="#000000" stroke-width="0.797978" stroke-miterlimit="8" fill="#FFFFFF" fill-rule="evenodd" transform="matrix(1 0 0 1.0082 53.3258 202.634)"/><text font-family="Calibri,Calibri_MSFontService,sans-serif" font-weight="400" font-size="13" transform="matrix(0.598485 0 0 0.60339 533.464 480)">S<tspan font-size="13" x="5.99995" y="0">3</tspan></text><path d="M484.873 236.102 484.873 260.2 484.074 260.2 484.074 236.102ZM487.611 255.613 484.474 260.991 481.336 255.613C481.225 255.423 481.29 255.178 481.48 255.067 481.67 254.956 481.914 255.02 482.025 255.211L484.818 259.999 484.129 259.999 486.922 255.211C487.033 255.02 487.277 254.956 487.468 255.067 487.658 255.178 487.722 255.423 487.611 255.613Z" transform="matrix(1 0 0 1.0082 53.3258 202.634)"/><text font-family="Calibri,Calibri_MSFontService,sans-serif" font-weight="400" font-size="13" transform="matrix(0.598485 0 0 0.60339 521.19 455)">E<tspan font-size="13" x="5.99995" y="0">3</tspan></text><path d="M484.873 139.746 484.873 163.844 484.074 163.844 484.074 139.746ZM480.483 139.746C480.483 137.543 482.27 135.756 484.474 135.756 486.677 135.756 488.464 137.543 488.464 139.746 488.464 141.95 486.677 143.736 484.474 143.736 482.27 143.736 480.483 141.95 480.483 139.746ZM487.611 159.257 484.474 164.635 481.336 159.257C481.225 159.067 481.29 158.822 481.48 158.711 481.67 158.6 481.914 158.664 482.025 158.855L484.818 163.643 484.129 163.643 486.922 158.855C487.033 158.664 487.277 158.6 487.468 158.711 487.658 158.822 487.722 159.067 487.611 159.257Z" transform="matrix(1 0 0 1.0082 53.3258 202.634)"/><text font-family="Calibri,Calibri_MSFontService,sans-serif" font-weight="400" font-size="13" transform="matrix(0.598485 0 0 0.60339 520.628 357)">E<tspan font-size="13" x="5.99995" y="0">1</tspan></text><path d="M484.873 284.58 484.873 298.02 484.074 298.02 484.074 284.58ZM487.611 293.433 484.474 298.812 481.336 293.433C481.225 293.243 481.29 292.998 481.48 292.888 481.67 292.776 481.914 292.841 482.025 293.031L484.818 297.819 484.129 297.819 486.922 293.031C487.033 292.841 487.277 292.776 487.468 292.888 487.658 292.998 487.722 293.243 487.611 293.433Z" transform="matrix(1 0 0 1.0082 53.3258 202.634)"/><path d="M477.89 305.227C477.89 301.757 480.704 298.943 484.174 298.943 487.645 298.943 490.458 301.757 490.458 305.227 490.458 308.698 487.645 311.511 484.174 311.511 480.704 311.511 477.89 308.698 477.89 305.227Z" stroke="#000000" stroke-width="0.797978" stroke-miterlimit="8" fill="none" fill-rule="evenodd" transform="matrix(1 0 0 1.0082 53.3258 202.634)"/><path d="M480.284 305.227C480.284 302.748 482.16 300.739 484.474 300.739 486.787 300.739 488.663 302.748 488.663 305.227 488.663 307.706 486.787 309.716 484.474 309.716 482.16 309.716 480.284 307.706 480.284 305.227Z" stroke="#000000" stroke-width="0.797978" stroke-miterlimit="8" fill-rule="evenodd" transform="matrix(1 0 0 1.0082 53.3258 202.634)"/></g></g></g></g><text font-family="Yu Gothic,Yu Gothic_MSFontService,sans-serif" font-weight="400" font-size="13" transform="translate(76.6581 93)">どの<tspan font-size="13" x="26.6667" y="0">クラスもそれぞれの状態モデルを定義できる</tspan><tspan font-family="Calibri,Calibri_MSFontService,sans-serif" font-size="13" x="0" y="32">A,B</tspan><tspan font-size="13" x="18.3333" y="32">共に状態モデルが定義されていて、</tspan><tspan font-family="Calibri,Calibri_MSFontService,sans-serif" font-size="13" x="0" y="48">B</tspan><tspan font-size="13" x="7.33334" y="48">のインスタンスが存在する場合</tspan><tspan font-family="MS Gothic,MS Gothic_MSFontService,sans-serif" font-size="13" x="0" y="65">⇒</tspan><tspan font-size="13" x="13.3333" y="65">リンクされた</tspan><tspan font-family="Calibri,Calibri_MSFontService,sans-serif" font-size="13" x="93.3333" y="65">A</tspan><tspan font-size="13" x="101" y="65">のインスタンスも存在</tspan><tspan font-family="MS Gothic,MS Gothic_MSFontService,sans-serif" font-size="13" x="0" y="81">⇒</tspan><tspan font-family="Calibri,Calibri_MSFontService,sans-serif" font-size="13" x="13.3333" y="81">A</tspan><tspan font-size="13" x="21" y="81">、</tspan><tspan font-family="Calibri,Calibri_MSFontService,sans-serif" font-size="13" x="34.3333" y="81">B</tspan><tspan font-size="13" x="41.6667" y="81">のインスタンス共に状態機械を持つ</tspan><tspan font-family="Calibri,Calibri_MSFontService,sans-serif" font-size="8" x="199.405" y="146">{complete, disjoint}</tspan></text></g></svg>