<svg width="607" height="528" xmlns="http://www.w3.org/2000/svg" xmlns:xlink="http://www.w3.org/1999/xlink" overflow="hidden"><defs><clipPath id="clip0"><rect x="61" y="64" width="607" height="528"/></clipPath><clipPath id="clip1"><rect x="206" y="359" width="80" height="177"/></clipPath><clipPath id="clip2"><rect x="206" y="359" width="80" height="177"/></clipPath><clipPath id="clip3"><rect x="206" y="359" width="80" height="177"/></clipPath><clipPath id="clip4"><rect x="206" y="359" width="81" height="177"/></clipPath></defs><g clip-path="url(#clip0)" transform="translate(-61 -64)"><rect x="62.5001" y="66.5001" width="605" height="525" stroke="#D9D9D9" stroke-width="1.33333" stroke-miterlimit="8" fill="none"/><rect x="307.5" y="167.5" width="74" height="39" stroke="#000000" stroke-width="1.33333" stroke-miterlimit="8" fill="none"/><text font-family="Yu Gothic,Yu Gothic_MSFontService,sans-serif" font-weight="400" font-size="13" transform="translate(330.764 190)">装置</text><rect x="131.5" y="240.5" width="107" height="39" stroke="#000000" stroke-width="1.33333" stroke-miterlimit="8" fill="none"/><text font-family="Yu Gothic,Yu Gothic_MSFontService,sans-serif" font-weight="400" font-size="13" transform="translate(144.022 256)">スタンバイ中<tspan font-size="13" x="20" y="16">の装置</tspan></text><path d="M336.5 219.5 344.5 206.5 352.5 219.5Z" stroke="#000000" stroke-width="1.33333" stroke-miterlimit="8" fill="none" fill-rule="evenodd"/><path d="M344.576 219.5 344.576 230.049 184.5 230.049 184.5 240.599" stroke="#000000" stroke-width="0.666667" stroke-miterlimit="8" fill="none" fill-rule="evenodd"/><path d="M0 0 10.2271 0 10.2271 82.6311 20.4543 82.6311" stroke="#000000" stroke-width="0.666667" stroke-miterlimit="8" fill="none" fill-rule="evenodd" transform="matrix(1.83697e-16 1 1 -1.83697e-16 344.5 219.5)"/><text font-family="Calibri,Calibri_MSFontService,sans-serif" font-weight="400" font-size="8" transform="translate(269.735 217)">{complete, disjoint}</text><rect x="252.5" y="240.5" width="107" height="39" stroke="#000000" stroke-width="1.33333" stroke-miterlimit="8" fill="none"/><text font-family="Yu Gothic,Yu Gothic_MSFontService,sans-serif" font-weight="400" font-size="13" transform="translate(265.375 256)">稼働準備中の<tspan font-size="13" x="26.6667" y="16">装置</tspan></text><rect x="373.5" y="240.5" width="107" height="38" stroke="#000000" stroke-width="1.33333" stroke-miterlimit="8" fill="none"/><text font-family="Yu Gothic,Yu Gothic_MSFontService,sans-serif" font-weight="400" font-size="13" transform="translate(386.729 263)">加工<tspan font-size="13" x="26.6667" y="0">中の装置</tspan></text><rect x="495.5" y="240.5" width="107" height="38" stroke="#000000" stroke-width="1.33333" stroke-miterlimit="8" fill="none"/><text font-family="Yu Gothic,Yu Gothic_MSFontService,sans-serif" font-weight="400" font-size="13" transform="translate(514.749 255)">後処理中の<tspan font-size="13" x="20" y="16">装置</tspan></text><path d="M0 0 10.2271 0 10.2271 203.984 20.4543 203.984" stroke="#000000" stroke-width="0.666667" stroke-miterlimit="8" fill="none" fill-rule="evenodd" transform="matrix(1.83697e-16 1 1 -1.83697e-16 344.5 219.5)"/><path d="M410 93 446.667 93 446.667 93 501.667 93 630 93 630 161.25 630 161.25 630 190.5 630 210 501.667 210 446.667 210 446.667 210 410 210 410 190.5 369.733 191.664 410 161.25Z" fill="#F2F2F2" fill-rule="evenodd"/><text font-family="Yu Gothic,Yu Gothic_MSFontService,sans-serif" font-weight="400" font-size="13" transform="translate(466.518 110)">全体の状態モデル</text><path d="M440.426 136.439C440.426 134.781 441.829 133.438 443.56 133.438L494.293 133.438C496.024 133.438 497.427 134.781 497.427 136.439L497.427 148.438C497.427 150.095 496.024 151.439 494.293 151.439L443.56 151.439C441.829 151.439 440.426 150.095 440.426 148.438Z" stroke="#000000" stroke-width="0.800945" stroke-miterlimit="8" fill="#FFFFFF" fill-rule="evenodd"/><text font-family="Calibri,Calibri_MSFontService,sans-serif" font-weight="400" font-size="8" transform="translate(464.236 144)">S1</text><path d="M440.426 172.602C440.426 170.853 441.829 169.435 443.56 169.435L494.293 169.435C496.024 169.435 497.427 170.853 497.427 172.602L497.427 185.268C497.427 187.017 496.024 188.435 494.293 188.435L443.56 188.435C441.829 188.435 440.426 187.017 440.426 185.268Z" stroke="#4472C4" stroke-width="1.33333" stroke-miterlimit="8" fill="#FFFFFF" fill-rule="evenodd"/><text font-family="Calibri,Calibri_MSFontService,sans-serif" font-weight="400" font-size="8" transform="translate(464.236 181)">S2</text><path d="M532.427 172.602C532.427 170.853 533.82 169.435 535.538 169.435L585.316 169.435C587.034 169.435 588.427 170.853 588.427 172.602L588.427 185.268C588.427 187.017 587.034 188.435 585.316 188.435L535.538 188.435C533.82 188.435 532.427 187.017 532.427 185.268Z" stroke="#70AD47" stroke-width="1.33333" stroke-miterlimit="8" fill="#FFFFFF" fill-rule="evenodd"/><text font-family="Calibri,Calibri_MSFontService,sans-serif" font-weight="400" font-size="8" transform="translate(556.198 181)">S3</text><path d="M532.427 136.602C532.427 134.853 533.82 133.435 535.538 133.435L585.316 133.435C587.034 133.435 588.427 134.853 588.427 136.602L588.427 149.268C588.427 151.017 587.034 152.435 585.316 152.435L535.538 152.435C533.82 152.435 532.427 151.017 532.427 149.268Z" stroke="#000000" stroke-width="0.800945" stroke-miterlimit="8" fill="#FFFFFF" fill-rule="evenodd"/><text font-family="Calibri,Calibri_MSFontService,sans-serif" font-weight="400" font-size="8" transform="translate(556.198 144)">S4</text><path d="M468.858 150.936 468.858 168.143 467.982 168.143 467.982 150.936ZM471.861 163.545 468.42 168.936 464.98 163.545C464.858 163.354 464.929 163.109 465.138 162.998 465.346 162.887 465.614 162.951 465.735 163.142L468.798 167.941 468.042 167.941 471.105 163.142C471.226 162.951 471.495 162.887 471.703 162.998 471.912 163.109 471.982 163.354 471.861 163.545Z" fill-rule="evenodd"/><path d="M496.926 178.565 532.125 178.565 532.125 179.315 496.926 179.315ZM527.484 175.992 532.926 178.94 527.484 181.889C527.292 181.993 527.044 181.933 526.932 181.754 526.82 181.576 526.885 181.345 527.078 181.241L531.922 178.616 531.922 179.264 527.078 176.639C526.885 176.535 526.82 176.305 526.932 176.127 527.044 175.948 527.292 175.887 527.484 175.992Z" fill-rule="evenodd"/><path d="M559.982 169.935 559.982 152.745 560.858 152.745 560.858 169.935ZM556.98 157.434 560.42 151.935 563.861 157.434C563.982 157.628 563.912 157.878 563.703 157.992 563.495 158.105 563.226 158.04 563.105 157.845L560.042 152.95 560.798 152.95 557.735 157.845C557.614 158.04 557.346 158.105 557.138 157.992 556.929 157.878 556.858 157.628 556.98 157.434Z" fill-rule="evenodd"/><path d="M532.919 143.19 497.724 142.816 497.732 141.941 532.927 142.316ZM502.336 145.869 496.926 142.37 502.399 138.988C502.593 138.868 502.839 138.941 502.95 139.151 503.06 139.361 502.993 139.628 502.799 139.748L497.927 142.759 497.935 142.003 502.75 145.117C502.942 145.241 503.004 145.509 502.89 145.717 502.776 145.925 502.528 145.992 502.336 145.869Z" fill-rule="evenodd"/><text font-family="Calibri,Calibri_MSFontService,sans-serif" font-weight="400" font-size="8" transform="translate(457.28 161)">E1<tspan font-size="8" x="50.9043" y="10">E2</tspan><tspan font-size="8" x="107.366" y="2">E3</tspan><tspan font-size="8" x="51.8563" y="-23">E4</tspan></text><path d="M156.5 328.5 261.5 328.5 294.882 272.802 306.5 328.5 336.5 328.5 336.5 366.5 336.5 366.5 336.5 423.5 336.5 556.5 306.5 556.5 261.5 556.5 261.5 556.5 156.5 556.5 156.5 423.5 156.5 366.5 156.5 366.5Z" stroke="#4472C4" stroke-width="1.33333" stroke-miterlimit="8" fill="#F2F2F2" fill-rule="evenodd"/><text font-family="Yu Gothic,Yu Gothic_MSFontService,sans-serif" font-weight="400" font-size="13" transform="translate(192.914 345)">稼働準備中の詳細</text><g clip-path="url(#clip1)"><g clip-path="url(#clip2)"><g clip-path="url(#clip3)"><g clip-path="url(#clip4)"><path d="M446.7 169.2C446.7 167.046 448.446 165.3 450.6 165.3L520.2 165.3C522.354 165.3 524.1 167.046 524.1 169.2L524.1 184.8C524.1 186.954 522.354 188.7 520.2 188.7L450.6 188.7C448.446 188.7 446.7 186.954 446.7 184.8Z" stroke="#000000" stroke-width="0.799998" stroke-miterlimit="8" fill="#FFFFFF" fill-rule="evenodd" transform="matrix(1.0101 0 0 1 -244.303 223.4)"/><text font-family="Calibri,Calibri_MSFontService,sans-serif" font-weight="400" font-size="13" transform="matrix(0.606061 0 0 0.6 241.913 402)">S<tspan font-size="13" x="6.00001" y="0">1</tspan></text><path d="M486.1 188.7 486.1 212.858 485.3 212.858 485.3 188.7ZM488.846 208.26 485.7 213.652 482.555 208.26C482.443 208.069 482.508 207.824 482.699 207.713 482.89 207.602 483.134 207.666 483.245 207.857L486.046 212.657 485.354 212.657 488.155 207.857C488.266 207.666 488.511 207.602 488.702 207.713 488.893 207.824 488.957 208.069 488.846 208.26Z" transform="matrix(1.0101 0 0 1 -244.303 223.4)"/><text font-family="Calibri,Calibri_MSFontService,sans-serif" font-weight="400" font-size="13" transform="matrix(0.606061 0 0 0.6 228.915 426)">E<tspan font-size="13" x="5.99998" y="0">2</tspan></text><path d="M446.7 217.2C446.7 215.046 448.446 213.3 450.6 213.3L520.2 213.3C522.354 213.3 524.1 215.046 524.1 217.2L524.1 232.8C524.1 234.954 522.354 236.7 520.2 236.7L450.6 236.7C448.446 236.7 446.7 234.954 446.7 232.8Z" stroke="#000000" stroke-width="0.799998" stroke-miterlimit="8" fill="#FFFFFF" fill-rule="evenodd" transform="matrix(1.0101 0 0 1 -244.303 223.4)"/><text font-family="Calibri,Calibri_MSFontService,sans-serif" font-weight="400" font-size="13" transform="matrix(0.606061 0 0 0.6 241.913 451)">S<tspan font-size="13" x="6.00001" y="0">3</tspan></text><path d="M446.7 265.8C446.7 263.646 448.446 261.9 450.6 261.9L520.2 261.9C522.354 261.9 524.1 263.646 524.1 265.8L524.1 281.4C524.1 283.554 522.354 285.3 520.2 285.3L450.6 285.3C448.446 285.3 446.7 283.554 446.7 281.4Z" stroke="#000000" stroke-width="0.799998" stroke-miterlimit="8" fill="#FFFFFF" fill-rule="evenodd" transform="matrix(1.0101 0 0 1 -244.303 223.4)"/><text font-family="Calibri,Calibri_MSFontService,sans-serif" font-weight="400" font-size="13" transform="matrix(0.606061 0 0 0.6 241.913 499)">S<tspan font-size="13" x="6.00001" y="0">3</tspan></text><path d="M486.1 236.7 486.1 260.858 485.3 260.858 485.3 236.7ZM488.846 256.26 485.7 261.652 482.555 256.26C482.443 256.069 482.508 255.824 482.699 255.713 482.89 255.602 483.134 255.666 483.245 255.857L486.046 260.657 485.354 260.657 488.155 255.857C488.266 255.666 488.511 255.602 488.702 255.713 488.893 255.824 488.957 256.069 488.846 256.26Z" transform="matrix(1.0101 0 0 1 -244.303 223.4)"/><text font-family="Calibri,Calibri_MSFontService,sans-serif" font-weight="400" font-size="13" transform="matrix(0.606061 0 0 0.6 229.483 474)">E<tspan font-size="13" x="6.00001" y="0">3</tspan></text><path d="M486.1 140.1 486.1 164.258 485.3 164.258 485.3 140.1ZM481.7 140.1C481.7 137.891 483.491 136.1 485.7 136.1 487.909 136.1 489.7 137.891 489.7 140.1 489.7 142.309 487.909 144.1 485.7 144.1 483.491 144.1 481.7 142.309 481.7 140.1ZM488.846 159.66 485.7 165.052 482.555 159.66C482.443 159.469 482.508 159.224 482.699 159.113 482.89 159.002 483.134 159.066 483.245 159.257L486.046 164.057 485.354 164.057 488.155 159.257C488.266 159.066 488.511 159.002 488.702 159.113 488.893 159.224 488.957 159.469 488.846 159.66Z" transform="matrix(1.0101 0 0 1 -244.303 223.4)"/><text font-family="Calibri,Calibri_MSFontService,sans-serif" font-weight="400" font-size="13" transform="matrix(0.606061 0 0 0.6 228.915 377)">E<tspan font-size="13" x="5.99998" y="0">1</tspan></text><path d="M486.1 285.3 486.1 298.775 485.3 298.775 485.3 285.3ZM488.846 294.176 485.7 299.569 482.555 294.176C482.443 293.985 482.508 293.74 482.699 293.629 482.89 293.518 483.134 293.582 483.245 293.773L486.046 298.573 485.354 298.573 488.155 293.773C488.266 293.582 488.511 293.518 488.702 293.629 488.893 293.74 488.957 293.985 488.846 294.176Z" transform="matrix(1.0101 0 0 1 -244.303 223.4)"/><path d="M479.1 306C479.1 302.521 481.921 299.7 485.4 299.7 488.879 299.7 491.7 302.521 491.7 306 491.7 309.479 488.879 312.3 485.4 312.3 481.921 312.3 479.1 309.479 479.1 306Z" stroke="#000000" stroke-width="0.799998" stroke-miterlimit="8" fill="none" fill-rule="evenodd" transform="matrix(1.0101 0 0 1 -244.303 223.4)"/><path d="M481.5 306C481.5 303.515 483.38 301.5 485.7 301.5 488.02 301.5 489.9 303.515 489.9 306 489.9 308.485 488.02 310.5 485.7 310.5 483.38 310.5 481.5 308.485 481.5 306Z" stroke="#000000" stroke-width="0.799998" stroke-miterlimit="8" fill-rule="evenodd" transform="matrix(1.0101 0 0 1 -244.303 223.4)"/></g></g></g></g><path d="M359.5 328.5 464.5 328.5 451.363 269.947 509.5 328.5 539.5 328.5 539.5 366.5 539.5 366.5 539.5 423.5 539.5 556.5 509.5 556.5 464.5 556.5 464.5 556.5 359.5 556.5 359.5 423.5 359.5 366.5 359.5 366.5Z" stroke="#70AD47" stroke-width="1.33333" stroke-miterlimit="8" fill="#F2F2F2" fill-rule="evenodd"/><text font-family="Yu Gothic,Yu Gothic_MSFontService,sans-serif" font-weight="400" font-size="13" transform="translate(388.96 345)">加工中の状態の詳細</text><path d="M410.422 392.476C410.422 390.267 412.181 388.476 414.352 388.476L484.492 388.476C486.662 388.476 488.422 390.267 488.422 392.476L488.422 408.476C488.422 410.685 486.662 412.476 484.492 412.476L414.352 412.476C412.181 412.476 410.422 410.685 410.422 408.476Z" stroke="#000000" stroke-width="0.798005" stroke-miterlimit="8" fill="#FFFFFF" fill-rule="evenodd"/><text font-family="Calibri,Calibri_MSFontService,sans-serif" font-weight="400" font-size="8" transform="translate(444.898 402)">S1</text><path d="M449.302 411.976 449.302 436.181 448.552 436.181 448.552 411.976ZM451.876 431.574 448.927 436.976 445.978 431.574C445.874 431.383 445.935 431.137 446.113 431.026 446.292 430.914 446.522 430.979 446.626 431.17L449.251 435.979 448.603 435.979 451.228 431.17C451.332 430.979 451.562 430.914 451.741 431.026 451.92 431.137 451.98 431.383 451.876 431.574Z" fill-rule="evenodd"/><text font-family="Calibri,Calibri_MSFontService,sans-serif" font-weight="400" font-size="8" transform="translate(431.979 426)">E2</text><path d="M410.422 441.31C410.422 439.193 412.181 437.477 414.352 437.477L484.492 437.477C486.662 437.477 488.422 439.193 488.422 441.31L488.422 456.644C488.422 458.761 486.662 460.477 484.492 460.477L414.352 460.477C412.181 460.477 410.422 458.761 410.422 456.644Z" stroke="#000000" stroke-width="0.798005" stroke-miterlimit="8" fill="#FFFFFF" fill-rule="evenodd"/><text font-family="Calibri,Calibri_MSFontService,sans-serif" font-weight="400" font-size="8" transform="translate(444.898 450)">S3</text><path d="M410.422 489.476C410.422 487.267 412.181 485.476 414.352 485.476L484.492 485.476C486.662 485.476 488.422 487.267 488.422 489.476L488.422 505.476C488.422 507.685 486.662 509.476 484.492 509.476L414.352 509.476C412.181 509.476 410.422 507.685 410.422 505.476Z" stroke="#000000" stroke-width="0.798005" stroke-miterlimit="8" fill="#FFFFFF" fill-rule="evenodd"/><text font-family="Calibri,Calibri_MSFontService,sans-serif" font-weight="400" font-size="8" transform="translate(444.898 499)">S3</text><path d="M449.302 459.976 449.302 484.181 448.552 484.181 448.552 459.976ZM451.876 479.574 448.927 484.976 445.978 479.574C445.874 479.383 445.935 479.137 446.113 479.026 446.292 478.914 446.522 478.979 446.626 479.17L449.251 483.979 448.603 483.979 451.228 479.17C451.332 478.979 451.562 478.914 451.741 479.026 451.92 479.137 451.98 479.383 451.876 479.574Z" fill-rule="evenodd"/><text font-family="Calibri,Calibri_MSFontService,sans-serif" font-weight="400" font-size="8" transform="translate(432.544 474)">E3</text><path d="M449.322 362.983 449.322 387.181 448.522 387.181 448.522 362.983ZM444.922 362.983C444.922 360.77 446.713 358.976 448.922 358.976 451.131 358.976 452.922 360.77 452.922 362.983 452.922 365.196 451.131 366.99 448.922 366.99 446.713 366.99 444.922 365.196 444.922 362.983ZM452.068 382.575 448.922 387.976 445.777 382.575C445.666 382.384 445.73 382.139 445.921 382.027 446.112 381.916 446.357 381.98 446.468 382.171L449.268 386.979 448.577 386.979 451.377 382.171C451.488 381.98 451.733 381.916 451.924 382.027 452.115 382.139 452.179 382.384 452.068 382.575Z" fill-rule="evenodd"/><text font-family="Calibri,Calibri_MSFontService,sans-serif" font-weight="400" font-size="8" transform="translate(431.979 376)">E1</text><path d="M449.302 508.977 449.302 522.198 448.552 522.198 448.552 508.977ZM451.876 517.686 448.927 522.977 445.978 517.686C445.874 517.498 445.935 517.258 446.113 517.149 446.292 517.04 446.522 517.103 446.626 517.291L449.251 522 448.603 522 451.228 517.291C451.332 517.103 451.562 517.04 451.741 517.149 451.92 517.258 451.98 517.498 451.876 517.686Z" fill-rule="evenodd"/><path d="M443.426 529.976C443.426 526.386 446.112 523.476 449.426 523.476 452.74 523.476 455.426 526.386 455.426 529.976 455.426 533.566 452.74 536.476 449.426 536.476 446.112 536.476 443.426 533.566 443.426 529.976Z" stroke="#000000" stroke-width="0.798005" stroke-miterlimit="8" fill="none" fill-rule="evenodd"/><path d="M445.426 529.977C445.426 527.491 447.217 525.476 449.426 525.476 451.635 525.476 453.426 527.491 453.426 529.977 453.426 532.462 451.635 534.477 449.426 534.477 447.217 534.477 445.426 532.462 445.426 529.977Z" stroke="#000000" stroke-width="0.798005" stroke-miterlimit="8" fill-rule="evenodd"/><path d="M0-0.333333 24.4113-0.333333 24.4113 15.995 1.99332 15.995 1.99332 15.3283 24.078 15.3283 23.7447 15.6616 23.7447 0 24.078 0.333333 0 0.333333ZM9.82538 20.6162 1.33179 15.6616 9.82538 10.707C9.98439 10.6143 10.1885 10.668 10.2813 10.827 10.374 10.986 10.3203 11.1901 10.1613 11.2829L2.16129 15.9496 2.16129 15.3737 10.1613 20.0404C10.3203 20.1331 10.374 20.3372 10.2813 20.4963 10.1885 20.6553 9.98439 20.709 9.82538 20.6162Z" transform="matrix(1 0 0 -1 488.5 456.162)"/><text font-family="Calibri,Calibri_MSFontService,sans-serif" font-weight="400" font-size="8" transform="translate(498.668 451)">E2<tspan font-size="11" x="-133.769" y="-228">R_E10</tspan></text></g></svg>