<svg width="608" height="256" xmlns="http://www.w3.org/2000/svg" xmlns:xlink="http://www.w3.org/1999/xlink" overflow="hidden"><defs><clipPath id="clip0"><rect x="652" y="90" width="608" height="256"/></clipPath></defs><g clip-path="url(#clip0)" transform="translate(-652 -90)"><rect x="654.5" y="91.5001" width="604" height="254" stroke="#D9D9D9" stroke-width="1.33333" stroke-miterlimit="8" fill="none"/><rect x="711.5" y="132.5" width="190" height="59" stroke="#000000" stroke-width="1.33333" stroke-miterlimit="8" fill="#FFFFFF"/><text font-family="Yu Gothic,Yu Gothic_MSFontService,sans-serif" font-weight="400" font-size="11" transform="translate(720.927 146)">Occurrence<tspan font-size="11" x="6" y="13">timestamp </tspan><tspan font-size="11" x="61.5" y="13">: </tspan>datetime</text><rect x="1083.5" y="132.5" width="102" height="59" stroke="#000000" stroke-width="1.33333" stroke-miterlimit="8" fill="#FFFFFF"/><text font-family="Yu Gothic,Yu Gothic_MSFontService,sans-serif" font-weight="400" font-size="11" transform="translate(1106.71 158)">Instance of <tspan font-size="11" x="-6.66675" y="13">Domain Class</tspan></text><path d="M901.5 161.5 1083.63 161.615" stroke="#000000" stroke-width="0.666667" stroke-miterlimit="8" fill="none" fill-rule="evenodd"/><text font-family="Yu Gothic,Yu Gothic_MSFontService,sans-serif" font-weight="400" font-size="11" transform="translate(909.029 175)">*<tspan font-size="11" x="131.319" y="1">subject</tspan></text><rect x="711.5" y="253.5" width="190" height="45" stroke="#000000" stroke-width="1.33333" stroke-miterlimit="8" fill="#FFFFFF"/><text font-family="Yu Gothic,Yu Gothic_MSFontService,sans-serif" font-weight="400" font-size="11" transform="translate(720.927 268)">Verb Object<tspan font-size="11" x="6" y="13">verb :</tspan><tspan font-size="11" x="36.1667" y="13">strin</tspan><tspan font-size="11" x="58.3334" y="13">g</tspan></text><path d="M0 0 0.000104987 62.1436" stroke="#000000" stroke-width="0.666667" stroke-miterlimit="8" fill="none" fill-rule="evenodd" transform="matrix(1 0 0 -1 806.5 253.644)"/><text font-family="Yu Gothic,Yu Gothic_MSFontService,sans-serif" font-weight="400" font-size="11" transform="translate(791.34 250)">*<tspan font-size="11" x="36.8742" y="-6">subject</tspan></text><rect x="1017.5" y="253.5" width="168" height="44" stroke="#000000" stroke-width="1.33333" stroke-miterlimit="8" fill="#FFFFFF"/><text font-family="Yu Gothic,Yu Gothic_MSFontService,sans-serif" font-weight="400" font-size="11" transform="translate(1026.42 272)">Verb Supplemental Data<tspan font-size="11" x="6" y="13">object</tspan></text><path d="M0 0 115.711 0.230551" stroke="#000000" stroke-width="0.666667" stroke-miterlimit="8" fill="none" fill-rule="evenodd" transform="matrix(1 0 0 -1 901.5 275.731)"/><text font-family="Yu Gothic,Yu Gothic_MSFontService,sans-serif" font-weight="400" font-size="11" transform="translate(1001.77 291)">*<tspan font-size="11" x="-31.2219" y="-20">object</tspan></text></g></svg>