<svg width="336" height="335" xmlns="http://www.w3.org/2000/svg" xmlns:xlink="http://www.w3.org/1999/xlink" overflow="hidden"><defs><clipPath id="clip0"><rect x="353" y="255" width="336" height="335"/></clipPath></defs><g clip-path="url(#clip0)" transform="translate(-353 -255)"><rect x="355.5" y="380.5" width="96" height="58" stroke="#000000" stroke-width="1.33333" stroke-miterlimit="8" fill="#FFFFFF"/><text font-family="Yu Gothic,Yu Gothic_MSFontService,sans-serif" font-weight="400" font-size="11" transform="translate(371.442 406)">Action While<tspan font-size="11" x="1.58667" y="13">(ACT_WHL)</tspan></text><path d="M0 0 141.475 0.000104987" stroke="#000000" stroke-width="0.666667" stroke-miterlimit="8" fill="none" fill-rule="evenodd" transform="matrix(-1 0 0 1 592.975 409.5)"/><text font-family="Yu Gothic,Yu Gothic_MSFontService,sans-serif" font-weight="400" font-size="11" transform="translate(415.325 488)">R608</text><rect x="355.5" y="530.5" width="96" height="58" stroke="#000000" stroke-width="1.33333" stroke-miterlimit="8" fill="#FFFFFF"/><text font-family="Yu Gothic,Yu Gothic_MSFontService,sans-serif" font-weight="400" font-size="11" transform="translate(371.775 557)">Action Block<tspan font-size="11" x="3" y="13">(ACT_BLK)</tspan></text><path d="M0 0 0.000104987 92.8697" stroke="#000000" stroke-width="0.666667" stroke-miterlimit="8" fill="none" fill-rule="evenodd" transform="matrix(1 0 0 -1 403.5 531.37)"/><text font-family="Yu Gothic,Yu Gothic_MSFontService,sans-serif" font-weight="400" font-size="11" transform="translate(415.325 459)">0..1</text><rect x="592.5" y="380.5" width="96" height="58" stroke="#000000" stroke-width="1.33333" stroke-miterlimit="8" fill="#FFFFFF"/><text font-family="Yu Gothic,Yu Gothic_MSFontService,sans-serif" font-weight="400" font-size="11" transform="translate(621 406)">V Value<tspan font-size="11" x="-1.5" y="13">(V_</tspan>VAL)<tspan font-size="11" x="-112.537" y="-5">R626</tspan><tspan font-size="11" x="-157.246" y="21">0..1</tspan></text><rect x="355.5" y="256.5" width="96" height="58" stroke="#000000" stroke-width="1.33333" stroke-miterlimit="8" fill="#FFFFFF"/><text font-family="Yu Gothic,Yu Gothic_MSFontService,sans-serif" font-weight="400" font-size="11" transform="translate(386.862 275)">Action <tspan font-size="11" x="-10.0867" y="13">Statement</tspan><tspan font-size="11" x="-13.2533" y="25">(ACT_SMT)</tspan><tspan font-size="11" x="28.4633" y="75">R603</tspan></text><path d="M0.333333-5.27944e-07 0.333419 54.2866-0.333247 54.2866-0.333333 5.27944e-07ZM6.66675 52.9533 0.000104987 66.2866-6.66658 52.9533Z" transform="matrix(1 0 0 -1 403.5 380.787)"/></g></svg>