<svg width="1255" height="491" xmlns="http://www.w3.org/2000/svg" xmlns:xlink="http://www.w3.org/1999/xlink" overflow="hidden"><defs><clipPath id="clip0"><rect x="-5" y="57" width="1255" height="491"/></clipPath></defs><g clip-path="url(#clip0)" transform="translate(5 -57)"><rect x="1018.5" y="378.5" width="95.9999" height="58" stroke="#000000" stroke-width="1.33333" stroke-miterlimit="8" fill="#FFFFFF"/><text font-family="Yu Gothic,Yu Gothic_MSFontService,sans-serif" font-weight="400" font-size="11" transform="translate(1033.37 404)">Action Bridge<tspan font-size="11" x="4.7533" y="13">(ACT_BRG)</tspan></text><rect x="890.5" y="458.5" width="96" height="58" stroke="#000000" stroke-width="1.33333" stroke-miterlimit="8" fill="#FFFFFF"/><text font-family="Yu Gothic,Yu Gothic_MSFontService,sans-serif" font-weight="400" font-size="11" transform="translate(909.194 484)">Action CNV<tspan font-size="11" x="-0.166626" y="13">(ACT_CNV)</tspan></text><rect x="141.5" y="378.5" width="96" height="58" stroke="#000000" stroke-width="1.33333" stroke-miterlimit="8" fill="#FFFFFF"/><text font-family="Yu Gothic,Yu Gothic_MSFontService,sans-serif" font-weight="400" font-size="11" transform="translate(172.949 398)">Action <tspan font-size="11" x="-6.58667" y="13">Continue</tspan><tspan font-size="11" x="-13.2533" y="25">(ACT_CON)</tspan></text><rect x="362.5" y="299.5" width="96" height="58" stroke="#000000" stroke-width="1.33333" stroke-miterlimit="8" fill="#FFFFFF"/><text font-family="Yu Gothic,Yu Gothic_MSFontService,sans-serif" font-weight="400" font-size="11" transform="translate(376.035 325)">Action Create<tspan font-size="11" x="9.07999" y="13">(ACT_CR)</tspan></text><rect x="781.5" y="457.5" width="96" height="58" stroke="#000000" stroke-width="1.33333" stroke-miterlimit="8" fill="#FFFFFF"/><text font-family="Yu Gothic,Yu Gothic_MSFontService,sans-serif" font-weight="400" font-size="11" transform="translate(801.575 484)">Action CTL<tspan font-size="11" x="-0.166687" y="13">(ACT_CTL)</tspan></text><rect x="470.5" y="299.5" width="96" height="58" stroke="#000000" stroke-width="1.33333" stroke-miterlimit="8" fill="#FFFFFF"/><text font-family="Yu Gothic,Yu Gothic_MSFontService,sans-serif" font-weight="400" font-size="11" transform="translate(484.828 325)">Action Delete<tspan font-size="11" x="5.66669" y="13">(ACT_DEL)</tspan></text><rect x="473.5" y="377.5" width="96" height="58" stroke="#000000" stroke-width="1.33333" stroke-miterlimit="8" fill="#FFFFFF"/><text font-family="Yu Gothic,Yu Gothic_MSFontService,sans-serif" font-weight="400" font-size="11" transform="translate(493.487 403)">Action <tspan font-size="11" x="34.3333" y="0">Else</tspan><tspan font-size="11" x="7" y="13">(ACT_E)</tspan></text><rect x="364.5" y="378.5" width="96" height="58" stroke="#000000" stroke-width="1.33333" stroke-miterlimit="8" fill="#FFFFFF"/><text font-family="Yu Gothic,Yu Gothic_MSFontService,sans-serif" font-weight="400" font-size="11" transform="translate(379.32 404)">Action <tspan font-size="11" x="34.3333" y="0">Else If</tspan><tspan font-size="11" x="8.75336" y="13">(ACT_EL)</tspan></text><rect x="1008.5" y="299.5" width="95.9999" height="57" stroke="#000000" stroke-width="1.33333" stroke-miterlimit="8" fill="#FFFFFF"/><text font-family="Yu Gothic,Yu Gothic_MSFontService,sans-serif" font-weight="400" font-size="11" transform="translate(1023.51 318)">Action Select <tspan font-size="11" x="19.8333" y="13">From</tspan><tspan font-size="11" x="6.50006" y="25">(ACT_FIO)</tspan></text><rect x="1116.5" y="299.5" width="96" height="57" stroke="#000000" stroke-width="1.33333" stroke-miterlimit="8" fill="#FFFFFF"/><text font-family="Yu Gothic,Yu Gothic_MSFontService,sans-serif" font-weight="400" font-size="11" transform="translate(1131.02 318)">Action <tspan font-size="11" x="34.3333" y="0">Select </tspan><tspan font-size="11" x="2.33325" y="13">From Where</tspan><tspan font-size="11" x="5.41992" y="25">(ACT_FIW)</tspan></text><rect x="801.5" y="377.5" width="96" height="58" stroke="#000000" stroke-width="1.33333" stroke-miterlimit="8" fill="#FFFFFF"/><text font-family="Yu Gothic,Yu Gothic_MSFontService,sans-serif" font-weight="400" font-size="11" transform="translate(812.378 397)">Action <tspan font-size="11" x="34.3334" y="0">Domain </tspan><tspan font-size="11" x="11.92" y="13">Operation</tspan><tspan font-size="11" x="8" y="25">(ACT_FNC)</tspan></text><rect x="29.5001" y="299.5" width="96" height="58" stroke="#000000" stroke-width="1.33333" stroke-miterlimit="8" fill="#FFFFFF"/><text font-family="Yu Gothic,Yu Gothic_MSFontService,sans-serif" font-weight="400" font-size="11" transform="translate(52.0937 326)">Action For<tspan font-size="11" x="-2.75333" y="13">(ACT_FOR)</tspan></text><rect x="253.5" y="378.5" width="96" height="58" stroke="#000000" stroke-width="1.33333" stroke-miterlimit="8" fill="#FFFFFF"/><text font-family="Yu Gothic,Yu Gothic_MSFontService,sans-serif" font-weight="400" font-size="11" transform="translate(278.715 404)">Action IF<tspan font-size="11" x="-0.166687" y="13">(ACT_IF)</tspan></text><rect x="998.5" y="457.5" width="95.9999" height="58" stroke="#000000" stroke-width="1.33333" stroke-miterlimit="8" fill="#FFFFFF"/><text font-family="Yu Gothic,Yu Gothic_MSFontService,sans-serif" font-weight="400" font-size="11" transform="translate(1019.98 484)">Action IOP<tspan font-size="11" x="-0.166687" y="13">(ACT_IOP)</tspan></text><rect x="578.5" y="299.5" width="96" height="58" stroke="#000000" stroke-width="1.33333" stroke-miterlimit="8" fill="#FFFFFF"/><text font-family="Yu Gothic,Yu Gothic_MSFontService,sans-serif" font-weight="400" font-size="11" transform="translate(592.965 325)">Action <tspan font-size="11" x="34.3333" y="0">Relate</tspan><tspan font-size="11" x="5.66663" y="13">(ACT_REL)</tspan></text><rect x="694.5" y="377.5" width="96" height="58" stroke="#000000" stroke-width="1.33333" stroke-miterlimit="8" fill="#FFFFFF"/><text font-family="Yu Gothic,Yu Gothic_MSFontService,sans-serif" font-weight="400" font-size="11" transform="translate(707.841 403)">Action Return<tspan font-size="11" x="6.16669" y="13">(ACT_RET)</tspan></text><rect x="686.5" y="299.5" width="96" height="57" stroke="#000000" stroke-width="1.33333" stroke-miterlimit="8" fill="#FFFFFF"/><text font-family="Yu Gothic,Yu Gothic_MSFontService,sans-serif" font-weight="400" font-size="11" transform="translate(700.475 318)">Action Relate <tspan font-size="11" x="19.8334" y="13">using</tspan><tspan font-size="11" x="8.25336" y="25">(ACT_RU)</tspan></text><rect x="585.5" y="377.5" width="96" height="58" stroke="#000000" stroke-width="1.33333" stroke-miterlimit="8" fill="#FFFFFF"/><text font-family="Yu Gothic,Yu Gothic_MSFontService,sans-serif" font-weight="400" font-size="11" transform="translate(600.673 397)">Action Select<tspan font-size="11" x="15.0867" y="13">Related </tspan><tspan font-size="11" x="5.42004" y="25">(</tspan><tspan font-size="11" x="9.58667" y="25">ACT_SEL)</tspan></text><rect x="1107.5" y="458.5" width="96" height="58" stroke="#000000" stroke-width="1.33333" stroke-miterlimit="8" fill="#FFFFFF"/><text font-family="Yu Gothic,Yu Gothic_MSFontService,sans-serif" font-weight="400" font-size="11" transform="translate(1126.44 484)">Action SGN<tspan font-size="11" x="-0.166748" y="13">(ACT_SGN)</tspan></text><rect x="908.5" y="377.5" width="96" height="58" stroke="#000000" stroke-width="1.33333" stroke-miterlimit="8" fill="#FFFFFF"/><text font-family="Yu Gothic,Yu Gothic_MSFontService,sans-serif" font-weight="400" font-size="11" transform="translate(925.062 397)">Action <tspan font-size="11" x="34.3333" y="0">Class </tspan><tspan font-size="11" x="6.41998" y="13">Operation</tspan><tspan font-size="11" x="1.91998" y="25">(ACT_TFM)</tspan></text><rect x="793.5" y="300.5" width="96" height="58" stroke="#000000" stroke-width="1.33333" stroke-miterlimit="8" fill="#FFFFFF"/><text font-family="Yu Gothic,Yu Gothic_MSFontService,sans-serif" font-weight="400" font-size="11" transform="translate(825.402 320)">Action <tspan font-size="11" x="-5.58667" y="13">Unrelate</tspan><tspan font-size="11" x="-13.1666" y="25">(ACT_UNR)</tspan></text><rect x="901.5" y="299.5" width="96" height="57" stroke="#000000" stroke-width="1.33333" stroke-miterlimit="8" fill="#FFFFFF"/><text font-family="Yu Gothic,Yu Gothic_MSFontService,sans-serif" font-weight="400" font-size="11" transform="translate(932.912 318)">Action <tspan font-size="11" x="-20.3334" y="13">Unrelate using</tspan><tspan font-size="11" x="-13.0867" y="25">(ACT_URU)</tspan></text><rect x="141.5" y="299.5" width="96" height="58" stroke="#000000" stroke-width="1.33333" stroke-miterlimit="8" fill="#FFFFFF"/><text font-family="Yu Gothic,Yu Gothic_MSFontService,sans-serif" font-weight="400" font-size="11" transform="translate(157.95 325)">Action While<tspan font-size="11" x="1.58665" y="13">(ACT_WHL)</tspan></text><rect x="575.5" y="174.5" width="96" height="58" stroke="#000000" stroke-width="1.33333" stroke-miterlimit="8" fill="#FFFFFF"/><text font-family="Yu Gothic,Yu Gothic_MSFontService,sans-serif" font-weight="400" font-size="11" transform="translate(607.519 194)">Action <tspan font-size="11" x="-10.0867" y="13">Statement</tspan><tspan font-size="11" x="-13.2534" y="25">(ACT_SMT)</tspan></text><rect x="253.5" y="300.5" width="96" height="58" stroke="#000000" stroke-width="1.33333" stroke-miterlimit="8" fill="#FFFFFF"/><text font-family="Yu Gothic,Yu Gothic_MSFontService,sans-serif" font-weight="400" font-size="11" transform="translate(267.132 326)">Action <tspan font-size="11" x="34.3333" y="0">Assign</tspan><tspan font-size="11" x="11.1667" y="13">(ACT_AI)</tspan></text><rect x="29.5001" y="378.5" width="96" height="58" stroke="#000000" stroke-width="1.33333" stroke-miterlimit="8" fill="#FFFFFF"/><text font-family="Yu Gothic,Yu Gothic_MSFontService,sans-serif" font-weight="400" font-size="11" transform="translate(45.9237 404)">Action Break<tspan font-size="11" x="3.33333" y="13">(ACT_BRK)</tspan></text><rect x="29.5001" y="457.5" width="96" height="58" stroke="#000000" stroke-width="1.33333" stroke-miterlimit="8" fill="#FFFFFF"/><text font-family="Yu Gothic,Yu Gothic_MSFontService,sans-serif" font-weight="400" font-size="11" transform="translate(52.007 483)">Event ESS<tspan font-size="11" x="5.25333" y="13">(E_ESS)</tspan></text><rect x="142.5" y="457.5" width="96" height="58" stroke="#000000" stroke-width="1.33333" stroke-miterlimit="8" fill="#FFFFFF"/><text font-family="Yu Gothic,Yu Gothic_MSFontService,sans-serif" font-weight="400" font-size="11" transform="translate(163.234 484)">Event GPR<tspan font-size="11" x="5.24667" y="13">(E_GPR)</tspan></text><path d="M-2.50005 324.168C-2.50005 299.498 17.4983 279.5 42.1675 279.5L1204.83 279.5C1229.5 279.5 1249.5 299.498 1249.5 324.168L1249.5 502.832C1249.5 527.502 1229.5 547.5 1204.83 547.5L42.1675 547.5C17.4983 547.5-2.50005 527.502-2.50005 502.832Z" stroke="#000000" stroke-width="1.33333" stroke-miterlimit="8" stroke-dasharray="1.33333 1.33333" fill="none" fill-rule="evenodd"/><path d="M0.333323-0.00264453 0.614603 35.4505-0.052043 35.4558-0.333323 0.00264453ZM6.93716 34.067 0.376483 47.4528-6.39576 34.1728Z" transform="matrix(1 0 0 -1 623.5 279.953)"/><text font-family="Yu Gothic,Yu Gothic_MSFontService,sans-serif" font-weight="400" font-size="11" transform="translate(632.406 267)">R603</text><path d="M0 0-24.0001 0-24.0001 72 28.8889 72 28.8889 48" stroke="#000000" stroke-width="0.666667" stroke-miterlimit="8" fill="none" fill-rule="evenodd" transform="matrix(1.83697e-16 1 1 -1.83697e-16 623.5 174.5)"/><text font-family="Yu Gothic,Yu Gothic_MSFontService,sans-serif" font-weight="400" font-size="11" transform="translate(699.004 168)">R661<tspan font-size="11" x="-16.5112" y="51">0..1 succeeds</tspan><tspan font-size="11" x="-97.6655" y="-1">0..1</tspan></text><rect x="326.5" y="174.5" width="96" height="57" stroke="#000000" stroke-width="1.33333" stroke-miterlimit="8" fill="#FFFFFF"/><text font-family="Yu Gothic,Yu Gothic_MSFontService,sans-serif" font-weight="400" font-size="11" transform="translate(343.716 200)">Action Block<tspan font-size="11" x="3" y="13">(ACT_BLK)</tspan></text><path d="M422.5 203.5 575.216 203.754" stroke="#000000" stroke-width="0.666667" stroke-miterlimit="8" fill="none" fill-rule="evenodd"/><text font-family="Yu Gothic,Yu Gothic_MSFontService,sans-serif" font-weight="400" font-size="11" transform="translate(480.416 198)">R602<tspan font-size="11" x="-49.0346" y="23">1</tspan><tspan font-size="11" x="82.7522" y="22">*</tspan></text><rect x="326.5" y="59.5001" width="96" height="58" stroke="#000000" stroke-width="1.33333" stroke-miterlimit="8" fill="#FFFFFF"/><text font-family="Yu Gothic,Yu Gothic_MSFontService,sans-serif" font-weight="400" font-size="11" transform="translate(354.136 85)">Variable<tspan font-size="11" x="-0.58667" y="13">(V_VAR)</tspan></text><path d="M0 0 0.000104987 57.1299" stroke="#000000" stroke-width="0.666667" stroke-miterlimit="8" fill="none" fill-rule="evenodd" transform="matrix(1 0 0 -1 374.5 174.63)"/><text font-family="Yu Gothic,Yu Gothic_MSFontService,sans-serif" font-weight="400" font-size="11" transform="translate(357.003 134)">*<tspan font-size="11" x="27.6525" y="15">R623</tspan></text><rect x="137.5" y="58.5001" width="96" height="58" stroke="#000000" stroke-width="1.33333" stroke-miterlimit="8" fill="#FFFFFF"/><text font-family="Yu Gothic,Yu Gothic_MSFontService,sans-serif" font-weight="400" font-size="11" transform="translate(159.789 85)">Data Type<tspan font-size="11" x="8" y="13">(S_DT)</tspan></text><path d="M326.677 87.8785 233.5 87.5001" stroke="#000000" stroke-width="0.666667" stroke-miterlimit="8" fill="none" fill-rule="evenodd"/><text font-family="Yu Gothic,Yu Gothic_MSFontService,sans-serif" font-weight="400" font-size="11" transform="translate(270.771 81)">R848<tspan font-size="11" x="40.6414" y="22">*</tspan></text><rect x="137.5" y="175.5" width="96" height="58" stroke="#000000" stroke-width="1.33333" stroke-miterlimit="8" fill="#FFFFFF"/><text font-family="Yu Gothic,Yu Gothic_MSFontService,sans-serif" font-weight="400" font-size="11" transform="translate(171.289 201)">Value<tspan font-size="11" x="-6.5" y="13">(V_VAL)</tspan></text><path d="M0 0 93.1774 1.32462" stroke="#000000" stroke-width="0.666667" stroke-miterlimit="8" fill="none" fill-rule="evenodd" transform="matrix(-1 0 0 1 326.677 203.5)"/><text font-family="Yu Gothic,Yu Gothic_MSFontService,sans-serif" font-weight="400" font-size="11" transform="translate(263.64 196)">R626<tspan font-size="11" x="-21.1875" y="21">*</tspan></text><path d="M0 0 0.000104987 58.833" stroke="#000000" stroke-width="0.666667" stroke-miterlimit="8" fill="none" fill-rule="evenodd" transform="matrix(1 0 0 -1 185.5 175.333)"/><text font-family="Yu Gothic,Yu Gothic_MSFontService,sans-serif" font-weight="400" font-size="11" transform="translate(189.783 149)">R620<tspan font-size="11" x="-17.2416" y="20">*</tspan><tspan font-size="11" x="252.804" y="-13">R666</tspan><tspan font-size="11" x="241.226" y="35">0..</tspan><tspan font-size="11" x="252.893" y="35">1</tspan><tspan font-size="11" x="330.965" y="-18">0..1</tspan></text><rect x="473.5" y="60.5001" width="96" height="57" stroke="#000000" stroke-width="1.33333" stroke-miterlimit="8" fill="#FFFFFF"/><text font-family="Yu Gothic,Yu Gothic_MSFontService,sans-serif" font-weight="400" font-size="11" transform="translate(505.486 86)">Action<tspan font-size="11" x="-12.1667" y="13">(ACT_ACT)</tspan></text><path d="M0 0 103.394 59.6103" stroke="#000000" stroke-width="0.666667" stroke-miterlimit="8" fill="none" fill-rule="evenodd" transform="matrix(1 0 0 -1 418.5 177.11)"/></g></svg>