<svg width="1107" height="397" xmlns="http://www.w3.org/2000/svg" xmlns:xlink="http://www.w3.org/1999/xlink" overflow="hidden"><defs><clipPath id="clip0"><rect x="92" y="149" width="1107" height="397"/></clipPath></defs><g clip-path="url(#clip0)" transform="translate(-92 -149)"><rect x="157.5" y="304.5" width="96" height="58" stroke="#000000" stroke-width="1.33333" stroke-miterlimit="8" fill="#FFFFFF"/><text font-family="Yu Gothic,Yu Gothic_MSFontService,sans-serif" font-weight="400" font-size="11" transform="translate(176.33 330)">Action URU<tspan font-size="11" x="-0.166656" y="13">(ACT_URU)</tspan></text><rect x="157.5" y="151.5" width="96" height="57" stroke="#000000" stroke-width="1.33333" stroke-miterlimit="8" fill="#FFFFFF"/><text font-family="Yu Gothic,Yu Gothic_MSFontService,sans-serif" font-weight="400" font-size="11" transform="translate(169.08 177)">R Relationship<tspan font-size="11" x="15.3333" y="13">(R_REL)</tspan></text><rect x="157.5" y="487.5" width="96" height="57" stroke="#000000" stroke-width="1.33333" stroke-miterlimit="8" fill="#FFFFFF"/><text font-family="Yu Gothic,Yu Gothic_MSFontService,sans-serif" font-weight="400" font-size="11" transform="translate(179.58 513)">V Variable<tspan font-size="11" x="4.41333" y="13">(V_VAR)</tspan></text><path d="M205.5 208.5 205.5 304.518" stroke="#000000" stroke-width="0.666667" stroke-miterlimit="8" fill="none" fill-rule="evenodd"/><text font-family="Yu Gothic,Yu Gothic_MSFontService,sans-serif" font-weight="400" font-size="11" transform="translate(212.092 301)">*<tspan font-size="11" x="-42.3782" y="-41">R656</tspan></text><path d="M205.5 362.5 205.5 486.926" stroke="#000000" stroke-width="0.666667" stroke-miterlimit="8" fill="none" fill-rule="evenodd"/><path d="M253.5 333.5 277.5 333.5 277.5 515.704 254.833 515.704" stroke="#000000" stroke-width="0.666667" stroke-miterlimit="8" fill="none" fill-rule="evenodd"/><path d="M0 0 24 0 24 182.204 1.33333 182.204" stroke="#000000" stroke-width="0.666667" stroke-miterlimit="8" fill="none" fill-rule="evenodd" transform="matrix(-1 1.22465e-16 1.22465e-16 1 158.833 333.5)"/><text font-family="Yu Gothic,Yu Gothic_MSFontService,sans-serif" font-weight="400" font-size="11" transform="translate(102.654 418)">R622<tspan font-size="11" x="0" y="13">One</tspan><tspan font-size="11" x="184.126" y="0">R623</tspan><tspan font-size="11" x="184.126" y="13">Other</tspan><tspan font-size="11" x="70.1635" y="3">R624</tspan><tspan font-size="11" x="70.1635" y="16">associative</tspan><tspan font-size="11" x="160.526" y="-91">*</tspan><tspan font-size="11" x="111.423" y="-38">*</tspan><tspan font-size="11" x="39.4229" y="-91">*</tspan></text><rect x="452.5" y="304.5" width="96" height="58" stroke="#000000" stroke-width="1.33333" stroke-miterlimit="8" fill="#FFFFFF"/><text font-family="Yu Gothic,Yu Gothic_MSFontService,sans-serif" font-weight="400" font-size="11" transform="translate(475.784 330)">Action RU<tspan font-size="11" x="-0.166687" y="13">(ACT_RU)</tspan></text><rect x="452.5" y="151.5" width="96" height="57" stroke="#000000" stroke-width="1.33333" stroke-miterlimit="8" fill="#FFFFFF"/><text font-family="Yu Gothic,Yu Gothic_MSFontService,sans-serif" font-weight="400" font-size="11" transform="translate(464.618 177)">R Relationship<tspan font-size="11" x="15.3333" y="13">(R_REL)</tspan></text><rect x="452.5" y="487.5" width="96" height="57" stroke="#000000" stroke-width="1.33333" stroke-miterlimit="8" fill="#FFFFFF"/><text font-family="Yu Gothic,Yu Gothic_MSFontService,sans-serif" font-weight="400" font-size="11" transform="translate(475.118 513)">V Variable<tspan font-size="11" x="4.41333" y="13">(V_VAR)</tspan></text><path d="M500.5 208.5 500.5 304.518" stroke="#000000" stroke-width="0.666667" stroke-miterlimit="8" fill="none" fill-rule="evenodd"/><text font-family="Yu Gothic,Yu Gothic_MSFontService,sans-serif" font-weight="400" font-size="11" transform="translate(507.629 301)">*<tspan font-size="11" x="-42.3782" y="-41">R654</tspan></text><path d="M500.5 362.5 500.5 486.926" stroke="#000000" stroke-width="0.666667" stroke-miterlimit="8" fill="none" fill-rule="evenodd"/><path d="M548.5 333.5 572.5 333.5 572.5 515.704 549.833 515.704" stroke="#000000" stroke-width="0.666667" stroke-miterlimit="8" fill="none" fill-rule="evenodd"/><path d="M0 0 24 0 24 182.204 1.33333 182.204" stroke="#000000" stroke-width="0.666667" stroke-miterlimit="8" fill="none" fill-rule="evenodd" transform="matrix(-1 1.22465e-16 1.22465e-16 1 453.833 333.5)"/><text font-family="Yu Gothic,Yu Gothic_MSFontService,sans-serif" font-weight="400" font-size="11" transform="translate(398.192 418)">R617<tspan font-size="11" x="0" y="13">One</tspan><tspan font-size="11" x="184.126" y="0">R618</tspan><tspan font-size="11" x="184.126" y="13">Other</tspan><tspan font-size="11" x="70.1635" y="3">R619</tspan><tspan font-size="11" x="70.1635" y="16">associative</tspan><tspan font-size="11" x="160.526" y="-91">*</tspan><tspan font-size="11" x="111.423" y="-38">*</tspan><tspan font-size="11" x="39.4229" y="-91">*</tspan></text><rect x="743.5" y="304.5" width="96" height="58" stroke="#000000" stroke-width="1.33333" stroke-miterlimit="8" fill="#FFFFFF"/><text font-family="Yu Gothic,Yu Gothic_MSFontService,sans-serif" font-weight="400" font-size="11" transform="translate(775.351 324)">Action <tspan font-size="11" x="-5.58667" y="13">Unrelate</tspan><tspan font-size="11" x="-9.16663" y="25">(ACT_</tspan><tspan font-size="11" x="21.3334" y="25">UR)</tspan></text><rect x="743.5" y="151.5" width="96" height="57" stroke="#000000" stroke-width="1.33333" stroke-miterlimit="8" fill="#FFFFFF"/><text font-family="Yu Gothic,Yu Gothic_MSFontService,sans-serif" font-weight="400" font-size="11" transform="translate(755.184 177)">R Relationship<tspan font-size="11" x="15.3333" y="13">(R_REL)</tspan></text><rect x="743.5" y="487.5" width="96" height="57" stroke="#000000" stroke-width="1.33333" stroke-miterlimit="8" fill="#FFFFFF"/><text font-family="Yu Gothic,Yu Gothic_MSFontService,sans-serif" font-weight="400" font-size="11" transform="translate(765.684 513)">V Variable<tspan font-size="11" x="4.41333" y="13">(V_VAR)</tspan></text><path d="M791.5 208.5 791.5 304.518" stroke="#000000" stroke-width="0.666667" stroke-miterlimit="8" fill="none" fill-rule="evenodd"/><text font-family="Yu Gothic,Yu Gothic_MSFontService,sans-serif" font-weight="400" font-size="11" transform="translate(798.196 301)">*<tspan font-size="11" x="-42.3782" y="-41">R655</tspan></text><path d="M839.5 333.5 863.5 333.5 863.5 515.704 840.833 515.704" stroke="#000000" stroke-width="0.666667" stroke-miterlimit="8" fill="none" fill-rule="evenodd"/><path d="M0 0 24 0 24 182.204 1.33333 182.204" stroke="#000000" stroke-width="0.666667" stroke-miterlimit="8" fill="none" fill-rule="evenodd" transform="matrix(-1 1.22465e-16 1.22465e-16 1 744.833 333.5)"/><text font-family="Yu Gothic,Yu Gothic_MSFontService,sans-serif" font-weight="400" font-size="11" transform="translate(688.758 418)">R620<tspan font-size="11" x="0" y="13">One</tspan><tspan font-size="11" x="184.126" y="0">R621</tspan><tspan font-size="11" x="184.126" y="13">Other</tspan><tspan font-size="11" x="160.526" y="-91">*</tspan><tspan font-size="11" x="39.4229" y="-91">*</tspan></text><rect x="1013.5" y="304.5" width="95.9999" height="58" stroke="#000000" stroke-width="1.33333" stroke-miterlimit="8" fill="#FFFFFF"/><text font-family="Yu Gothic,Yu Gothic_MSFontService,sans-serif" font-weight="400" font-size="11" transform="translate(1027.82 330)">Action Relate<tspan font-size="11" x="5.66663" y="13">(ACT_REL)</tspan></text><rect x="1013.5" y="151.5" width="95.9999" height="57" stroke="#000000" stroke-width="1.33333" stroke-miterlimit="8" fill="#FFFFFF"/><text font-family="Yu Gothic,Yu Gothic_MSFontService,sans-serif" font-weight="400" font-size="11" transform="translate(1025.07 177)">R Relationship<tspan font-size="11" x="15.3334" y="13">(R_REL)</tspan></text><rect x="1013.5" y="487.5" width="95.9999" height="57" stroke="#000000" stroke-width="1.33333" stroke-miterlimit="8" fill="#FFFFFF"/><text font-family="Yu Gothic,Yu Gothic_MSFontService,sans-serif" font-weight="400" font-size="11" transform="translate(1035.57 513)">V Variable<tspan font-size="11" x="4.41333" y="13">(V_VAR)</tspan></text><path d="M1061.5 208.5 1061.5 304.518" stroke="#000000" stroke-width="0.666667" stroke-miterlimit="8" fill="none" fill-rule="evenodd"/><text font-family="Yu Gothic,Yu Gothic_MSFontService,sans-serif" font-weight="400" font-size="11" transform="translate(1068.08 301)">*<tspan font-size="11" x="-42.3782" y="-41">R653</tspan></text><path d="M1109.5 333.5 1133.5 333.5 1133.5 515.704 1110.83 515.704" stroke="#000000" stroke-width="0.666667" stroke-miterlimit="8" fill="none" fill-rule="evenodd"/><path d="M0 0 24 0 24 182.204 1.33333 182.204" stroke="#000000" stroke-width="0.666667" stroke-miterlimit="8" fill="none" fill-rule="evenodd" transform="matrix(-1 1.22465e-16 1.22465e-16 1 1014.83 333.5)"/><text font-family="Yu Gothic,Yu Gothic_MSFontService,sans-serif" font-weight="400" font-size="11" transform="translate(958.644 418)">R615<tspan font-size="11" x="0" y="13">One</tspan><tspan font-size="11" x="184.126" y="0">R616</tspan><tspan font-size="11" x="184.126" y="13">Other</tspan><tspan font-size="11" x="160.526" y="-91">*</tspan><tspan font-size="11" x="39.4229" y="-91">*</tspan></text></g></svg>