<svg width="761" height="357" xmlns="http://www.w3.org/2000/svg" xmlns:xlink="http://www.w3.org/1999/xlink" overflow="hidden"><defs><clipPath id="clip0"><rect x="146" y="170" width="761" height="357"/></clipPath></defs><g clip-path="url(#clip0)" transform="translate(-146 -170)"><rect x="465.5" y="340.5" width="96" height="58" stroke="#000000" stroke-width="1.33333" stroke-miterlimit="8" fill="#FFFFFF"/><text font-family="Yu Gothic,Yu Gothic_MSFontService,sans-serif" font-weight="400" font-size="11" transform="translate(480.013 366)">Action Select<tspan font-size="11" x="5.41998" y="13">(ACT_SEL)</tspan></text><rect x="406.5" y="468.5" width="96" height="58" stroke="#000000" stroke-width="1.33333" stroke-miterlimit="8" fill="#FFFFFF"/><text font-family="Yu Gothic,Yu Gothic_MSFontService,sans-serif" font-weight="400" font-size="11" transform="translate(429.576 494)">Action SR<tspan font-size="11" x="-0.166656" y="13">(ACT_SR)</tspan></text><rect x="540.5" y="468.5" width="96" height="58" stroke="#000000" stroke-width="1.33333" stroke-miterlimit="8" fill="#FFFFFF"/><text font-family="Yu Gothic,Yu Gothic_MSFontService,sans-serif" font-weight="400" font-size="11" transform="translate(564.107 488)">Action <tspan font-size="11" x="34.3333" y="0">SR </tspan><tspan font-size="11" x="8.08667" y="13">Where</tspan><tspan font-size="11" x="-5.16669" y="25">(ACT_SRW)</tspan></text><rect x="694.5" y="340.5" width="96" height="58" stroke="#000000" stroke-width="1.33333" stroke-miterlimit="8" fill="#FFFFFF"/><text font-family="Yu Gothic,Yu Gothic_MSFontService,sans-serif" font-weight="400" font-size="11" transform="translate(716.966 366)">V Variable<tspan font-size="11" x="4.41333" y="13">(V_VAR)</tspan></text><rect x="235.5" y="340.5" width="96" height="58" stroke="#000000" stroke-width="1.33333" stroke-miterlimit="8" fill="#FFFFFF"/><text font-family="Yu Gothic,Yu Gothic_MSFontService,sans-serif" font-weight="400" font-size="11" transform="translate(260.393 366)">ACT Link<tspan font-size="11" x="-5.66667" y="13">(ACT_LNK)</tspan></text><rect x="465.5" y="171.5" width="96" height="58" stroke="#000000" stroke-width="1.33333" stroke-miterlimit="8" fill="#FFFFFF"/><text font-family="Yu Gothic,Yu Gothic_MSFontService,sans-serif" font-weight="400" font-size="11" transform="translate(493.596 197)">V Value<tspan font-size="11" x="-1.5" y="13">(V_VAL)</tspan></text><path d="M513.5 229.5 513.5 340.272" stroke="#000000" stroke-width="0.666667" stroke-miterlimit="8" fill="none" fill-rule="evenodd"/><text font-family="Yu Gothic,Yu Gothic_MSFontService,sans-serif" font-weight="400" font-size="11" transform="translate(520.371 333)">0..1<tspan font-size="11" x="-47.5817" y="-46">R613</tspan></text><path d="M331.5 369.5 465.203 369.5" stroke="#000000" stroke-width="0.666667" stroke-miterlimit="8" fill="none" fill-rule="evenodd"/><text font-family="Yu Gothic,Yu Gothic_MSFontService,sans-serif" font-weight="400" font-size="11" transform="translate(383.909 355)">R637<tspan font-size="11" x="-45.5964" y="32">0..1</tspan></text><path d="M0 0 133.703 0.000104987" stroke="#000000" stroke-width="0.666667" stroke-miterlimit="8" fill="none" fill-rule="evenodd" transform="matrix(1 0 0 -1 561.5 369.5)"/><text font-family="Yu Gothic,Yu Gothic_MSFontService,sans-serif" font-weight="400" font-size="11" transform="translate(618.95 355)">R638<tspan font-size="11" x="-45.5964" y="32">*</tspan></text><path d="M513.77 410.5 513.77 434.087 454.5 434.087 454.833 433.753 454.833 469.007 454.167 469.007 454.167 433.42 513.437 433.42 513.103 433.753 513.103 410.5ZM506.77 411.833 513.437 398.5 520.103 411.833Z"/><path d="M12-0.333333 35.5869-0.333333 35.5869 75.5939 35.2535 75.2606 70.507 75.2606 70.507 75.9272 34.9202 75.9272 34.9202 0 35.2535 0.333333 12 0.333333ZM13.3333 6.66667 0 0 13.3333-6.66667Z" transform="matrix(1.83697e-16 1 1 -1.83697e-16 513.5 398.5)"/><text font-family="Yu Gothic,Yu Gothic_MSFontService,sans-serif" font-weight="400" font-size="11" transform="translate(476.538 425)">R664</text><path d="M637.094 497.335 861.911 497.335 861.911 200.5 561.5 200.5" stroke="#000000" stroke-width="0.666667" stroke-miterlimit="8" fill="none" fill-rule="evenodd"/><text font-family="Yu Gothic,Yu Gothic_MSFontService,sans-serif" font-weight="400" font-size="11" transform="translate(871.032 367)">R611<tspan font-size="11" x="-223.938" y="146">0..1</tspan></text><path d="M0 0-24 0-24 52.889 48 52.889 48 28.8889" stroke="#000000" stroke-width="0.666667" stroke-miterlimit="8" fill="none" fill-rule="evenodd" transform="matrix(1 -1.22465e-16 -1.22465e-16 -1 235.5 369.389)"/><text font-family="Yu Gothic,Yu Gothic_MSFontService,sans-serif" font-weight="400" font-size="11" transform="translate(183.909 309)">R604<tspan font-size="11" x="-26.7756" y="81">Succeeds 0</tspan><tspan font-size="11" x="29.7244" y="81">..1</tspan><tspan font-size="11" x="106.924" y="24">0..</tspan><tspan font-size="11" x="118.59" y="24">1 Precedes</tspan></text></g></svg>