<svg width="354" height="304" xmlns="http://www.w3.org/2000/svg" xmlns:xlink="http://www.w3.org/1999/xlink" overflow="hidden"><defs><clipPath id="clip0"><rect x="687" y="359" width="354" height="304"/></clipPath></defs><g clip-path="url(#clip0)" transform="translate(-687 -359)"><rect x="688.5" y="603.5" width="96" height="58" stroke="#000000" stroke-width="1.33333" stroke-miterlimit="8" fill="#FFFFFF"/><text font-family="Yu Gothic,Yu Gothic_MSFontService,sans-serif" font-weight="400" font-size="11" transform="translate(708.698 630)">Action Else<tspan font-size="11" x="7" y="13">(ACT_E)</tspan></text><rect x="688.5" y="472.5" width="96" height="58" stroke="#000000" stroke-width="1.33333" stroke-miterlimit="8" fill="#FFFFFF"/><text font-family="Yu Gothic,Yu Gothic_MSFontService,sans-serif" font-weight="400" font-size="11" transform="translate(714.365 498)">Action IF<tspan font-size="11" x="-0.166687" y="13">(ACT_IF)</tspan></text><path d="M736.5 530.5 736.5 604.283" stroke="#000000" stroke-width="0.666667" stroke-miterlimit="8" fill="none" fill-rule="evenodd"/><text font-family="Yu Gothic,Yu Gothic_MSFontService,sans-serif" font-weight="400" font-size="11" transform="translate(717.771 599)">0..1<tspan font-size="11" x="31.2938" y="-27">R683</tspan></text><rect x="942.5" y="471.5" width="95.9999" height="58" stroke="#000000" stroke-width="1.33333" stroke-miterlimit="8" fill="#FFFFFF"/><text font-family="Yu Gothic,Yu Gothic_MSFontService,sans-serif" font-weight="400" font-size="11" transform="translate(957.835 497)">Action Else If<tspan font-size="11" x="8.75336" y="13">(ACT_EL)</tspan><tspan font-size="11" x="47.5701" y="-37">0..1</tspan></text><path d="M0 0 158.054 1.09879" stroke="#000000" stroke-width="0.666667" stroke-miterlimit="8" fill="none" fill-rule="evenodd" transform="matrix(1 0 0 -1 784.5 501.599)"/><text font-family="Yu Gothic,Yu Gothic_MSFontService,sans-serif" font-weight="400" font-size="11" transform="translate(860.955 494)">R682<tspan font-size="11" x="64.0342" y="26">*</tspan></text><rect x="688.5" y="360.5" width="96" height="58" stroke="#000000" stroke-width="1.33333" stroke-miterlimit="8" fill="#FFFFFF"/><text font-family="Yu Gothic,Yu Gothic_MSFontService,sans-serif" font-weight="400" font-size="11" transform="translate(717.365 386)">V Value<tspan font-size="11" x="-1.5" y="13">(V_VAL)</tspan></text><path d="M736.5 418.5 736.5 472.603" stroke="#000000" stroke-width="0.666667" stroke-miterlimit="8" fill="none" fill-rule="evenodd"/><text font-family="Yu Gothic,Yu Gothic_MSFontService,sans-serif" font-weight="400" font-size="11" transform="translate(742.44 467)">0..1<tspan font-size="11" x="-38.0806" y="-15">R625</tspan></text><path d="M784.5 389.5 990.554 389.5 990.554 471.393" stroke="#000000" stroke-width="0.666667" stroke-miterlimit="8" fill="none" fill-rule="evenodd"/><text font-family="Yu Gothic,Yu Gothic_MSFontService,sans-serif" font-weight="400" font-size="11" transform="translate(912.576 383)">R659</text><rect x="943.5" y="603.5" width="95.9999" height="58" stroke="#000000" stroke-width="1.33333" stroke-miterlimit="8" fill="#FFFFFF"/><text font-family="Yu Gothic,Yu Gothic_MSFontService,sans-serif" font-weight="400" font-size="11" transform="translate(960.552 630)">Action Block<tspan font-size="11" x="3" y="13">(ACT_BLK)</tspan></text><path d="M770.5 530.5 948.208 604.283" stroke="#000000" stroke-width="0.666667" stroke-miterlimit="8" fill="none" fill-rule="evenodd"/><text font-family="Yu Gothic,Yu Gothic_MSFontService,sans-serif" font-weight="400" font-size="11" transform="translate(868.521 565)">R607<tspan font-size="11" x="-66.6723" y="-15">0..1</tspan></text><path d="M990.5 529.5 991.383 604.382" stroke="#000000" stroke-width="0.666667" stroke-miterlimit="8" fill="none" fill-rule="evenodd"/><path d="M0 0 158.937 0.000104987" stroke="#000000" stroke-width="0.666667" stroke-miterlimit="8" fill="none" fill-rule="evenodd" transform="matrix(1 0 0 -1 784.5 632.5)"/><text font-family="Yu Gothic,Yu Gothic_MSFontService,sans-serif" font-weight="400" font-size="11" transform="translate(855.194 647)">R606<tspan font-size="11" x="-56.4838" y="5">0..1</tspan><tspan font-size="11" x="142.637" y="-74">R658</tspan><tspan font-size="11" x="145.928" y="-96">0..1</tspan></text></g></svg>