<svg width="779" height="560" xmlns="http://www.w3.org/2000/svg" xmlns:xlink="http://www.w3.org/1999/xlink" overflow="hidden"><defs><clipPath id="clip0"><rect x="274" y="108" width="779" height="560"/></clipPath></defs><g clip-path="url(#clip0)" transform="translate(-274 -108)"><rect x="617.5" y="110.5" width="96" height="57" stroke="#000000" stroke-width="1.33333" stroke-miterlimit="8" fill="#FFFFFF"/><text font-family="Yu Gothic,Yu Gothic_MSFontService,sans-serif" font-weight="400" font-size="11" transform="translate(649.075 136)">Action<tspan font-size="11" x="-12.1666" y="13">(ACT_ACT)</tspan></text><rect x="457.5" y="364.5" width="96" height="58" stroke="#000000" stroke-width="1.33333" stroke-miterlimit="8" fill="#FFFFFF"/><text font-family="Yu Gothic,Yu Gothic_MSFontService,sans-serif" font-weight="400" font-size="11" transform="translate(491.407 384)">Class <tspan font-size="11" x="-10.7467" y="13">Operation</tspan><tspan font-size="11" x="-7.33334" y="25">(O_TF</tspan>R<tspan font-size="11" x="30.3333" y="25">)</tspan></text><rect x="457.5" y="254.5" width="96" height="58" stroke="#000000" stroke-width="1.33333" stroke-miterlimit="8" fill="#FFFFFF"/><text font-family="Yu Gothic,Yu Gothic_MSFontService,sans-serif" font-weight="400" font-size="11" transform="translate(480.827 286)">ACT_OPB<tspan font-size="11" x="32.0349" y="58">R696</tspan></text><path d="M0 0 0.000104987 52.2223" stroke="#000000" stroke-width="0.666667" stroke-miterlimit="8" fill="none" fill-rule="evenodd" transform="matrix(1 0 0 -1 505.5 364.722)"/><text font-family="Yu Gothic,Yu Gothic_MSFontService,sans-serif" font-weight="400" font-size="11" transform="translate(478.375 326)">0..1</text><path d="M665.581 179.5 665.581 211.056 505.5 211.056 505.833 210.722 505.833 253.945 505.167 253.945 505.167 210.389 665.248 210.389 664.915 210.722 664.915 179.5ZM658.581 180.833 665.248 167.5 671.915 180.833Z"/><text font-family="Yu Gothic,Yu Gothic_MSFontService,sans-serif" font-weight="400" font-size="11" transform="translate(624.542 192)">R698</text><rect x="627.5" y="364.5" width="96" height="58" stroke="#000000" stroke-width="1.33333" stroke-miterlimit="8" fill="#FFFFFF"/><text font-family="Yu Gothic,Yu Gothic_MSFontService,sans-serif" font-weight="400" font-size="11" transform="translate(639.325 384)">State Machine <tspan font-size="11" x="20.2533" y="13">Action</tspan><tspan font-size="11" x="10.3333" y="25">(SM_ACT)</tspan></text><rect x="627.5" y="254.5" width="96" height="58" stroke="#000000" stroke-width="1.33333" stroke-miterlimit="8" fill="#FFFFFF"/><text font-family="Yu Gothic,Yu Gothic_MSFontService,sans-serif" font-weight="400" font-size="11" transform="translate(651.659 286)">ACT_SAB<tspan font-size="11" x="31.4515" y="58">R691</tspan></text><path d="M0 0 0.000104987 52.2223" stroke="#000000" stroke-width="0.666667" stroke-miterlimit="8" fill="none" fill-rule="evenodd" transform="matrix(1 0 0 -1 675.5 364.722)"/><text font-family="Yu Gothic,Yu Gothic_MSFontService,sans-serif" font-weight="400" font-size="11" transform="translate(648.624 326)">0..1</text><path d="M12-0.333333 43.5556-0.333333 43.5556 10.5004 43.2223 10.167 86.4445 10.167 86.4445 10.8337 42.8889 10.8337 42.8889 0 43.2223 0.333333 12 0.333333ZM13.3333 6.66667 0 0 13.3333-6.66667Z" transform="matrix(1.83697e-16 1 1 -1.83697e-16 665.5 167.5)"/><rect x="807.5" y="364.5" width="96" height="58" stroke="#000000" stroke-width="1.33333" stroke-miterlimit="8" fill="#FFFFFF"/><text font-family="Yu Gothic,Yu Gothic_MSFontService,sans-serif" font-weight="400" font-size="11" transform="translate(835.839 384)">Domain <tspan font-size="11" x="-5.24664" y="13">Operation</tspan><tspan font-size="11" x="-5.58002" y="25">(S_SYNC)</tspan></text><rect x="807.5" y="254.5" width="96" height="58" stroke="#000000" stroke-width="1.33333" stroke-miterlimit="8" fill="#FFFFFF"/><text font-family="Yu Gothic,Yu Gothic_MSFontService,sans-serif" font-weight="400" font-size="11" transform="translate(830.925 286)">ACT_FNB<tspan font-size="11" x="31.8682" y="58">R695</tspan></text><path d="M0 0 0.000104987 52.2223" stroke="#000000" stroke-width="0.666667" stroke-miterlimit="8" fill="none" fill-rule="evenodd" transform="matrix(1 0 0 -1 855.5 364.722)"/><text font-family="Yu Gothic,Yu Gothic_MSFontService,sans-serif" font-weight="400" font-size="11" transform="translate(828.307 326)">0..1</text><path d="M12-0.333333 43.5557-0.333333 43.5557 190.184 43.2224 189.85 86.4445 189.85 86.4445 190.517 42.889 190.517 42.889 0 43.2224 0.333333 12 0.333333ZM13.3333 6.66667 0 0 13.3333-6.66667Z" transform="matrix(1.83697e-16 1 1 -1.83697e-16 665.5 167.5)"/><rect x="276.5" y="364.5" width="96" height="58" stroke="#000000" stroke-width="1.33333" stroke-miterlimit="8" fill="#FFFFFF"/><text font-family="Yu Gothic,Yu Gothic_MSFontService,sans-serif" font-weight="400" font-size="11" transform="translate(290.745 384)">Derived<tspan font-size="11" x="41" y="0">Base</tspan><tspan font-size="11" x="11.8333" y="13">Propert</tspan><tspan font-size="11" x="48.5" y="13">y</tspan><tspan font-size="11" x="0.746674" y="25">(O_DBATTR)</tspan></text><rect x="276.5" y="254.5" width="96" height="58" stroke="#000000" stroke-width="1.33333" stroke-miterlimit="8" fill="#FFFFFF"/><text font-family="Yu Gothic,Yu Gothic_MSFontService,sans-serif" font-weight="400" font-size="11" transform="translate(299.328 286)">ACT_DAB<tspan font-size="11" x="32.1182" y="58">R693</tspan></text><path d="M0 0 0.000104987 52.2223" stroke="#000000" stroke-width="0.666667" stroke-miterlimit="8" fill="none" fill-rule="evenodd" transform="matrix(1 0 0 -1 324.5 364.722)"/><text font-family="Yu Gothic,Yu Gothic_MSFontService,sans-serif" font-weight="400" font-size="11" transform="translate(296.96 326)">0..1</text><path d="M665.997 179.5 665.997 211.056 324.5 211.056 324.833 210.722 324.833 253.945 324.167 253.945 324.167 210.389 665.663 210.389 665.33 210.722 665.33 179.5ZM658.997 180.833 665.663 167.5 672.33 180.833Z"/><rect x="276.5" y="474.5" width="96" height="58" stroke="#000000" stroke-width="1.33333" stroke-miterlimit="8" fill="#FFFFFF"/><text font-family="Yu Gothic,Yu Gothic_MSFontService,sans-serif" font-weight="400" font-size="11" transform="translate(288.745 500)">Base Propert<tspan font-size="11" x="64.3333" y="0">y</tspan><tspan font-size="11" x="6.74667" y="13">(O_BATTR)</tspan></text><path d="M0.333357 12 0.333438 52.2223-0.333228 52.2223-0.333309 12ZM-6.66664 13.3333 0 0 6.66669 13.3333Z" transform="matrix(1 0 0 -1 324.5 474.722)"/><text font-family="Yu Gothic,Yu Gothic_MSFontService,sans-serif" font-weight="400" font-size="11" transform="translate(331.446 455)">R107</text><rect x="276.5" y="584.5" width="96" height="58" stroke="#000000" stroke-width="1.33333" stroke-miterlimit="8" fill="#FFFFFF"/><text font-family="Yu Gothic,Yu Gothic_MSFontService,sans-serif" font-weight="400" font-size="11" transform="translate(287.495 610)">Class Propert<tspan font-size="11" x="66.8333" y="0">y</tspan><tspan font-size="11" x="11.5867" y="13">(O_ATTR)</tspan></text><path d="M0.333357 12 0.333438 52.2223-0.333228 52.2223-0.333309 12ZM-6.66664 13.3333 0 0 6.66669 13.3333Z" transform="matrix(1 0 0 -1 324.5 584.722)"/><text font-family="Yu Gothic,Yu Gothic_MSFontService,sans-serif" font-weight="400" font-size="11" transform="translate(331.446 565)">R106</text><rect x="627.5" y="474.5" width="96" height="58" stroke="#000000" stroke-width="1.33333" stroke-miterlimit="8" fill="#FFFFFF"/><text font-family="Yu Gothic,Yu Gothic_MSFontService,sans-serif" font-weight="400" font-size="11" transform="translate(657.992 500)">SM AH<tspan font-size="11" x="-5.33331" y="13">(SM_AH)</tspan><tspan font-size="11" x="25.1182" y="-45">R514</tspan></text><path d="M0 0 0.000104987 52.2223" stroke="#000000" stroke-width="0.666667" stroke-miterlimit="8" fill="none" fill-rule="evenodd" transform="matrix(1 0 0 -1 675.5 474.722)"/><text font-family="Yu Gothic,Yu Gothic_MSFontService,sans-serif" font-weight="400" font-size="11" transform="translate(648.624 437)">0..1</text><rect x="627.5" y="584.5" width="96" height="58" stroke="#000000" stroke-width="1.33333" stroke-miterlimit="8" fill="#FFFFFF"/><text font-family="Yu Gothic,Yu Gothic_MSFontService,sans-serif" font-weight="400" font-size="11" transform="translate(649.159 610)">SM MOAH<tspan font-size="11" x="-5.33331" y="13">(SM_MOAH)</tspan></text><path d="M675.833 532.5 675.833 572.722 675.167 572.722 675.167 532.5ZM682.167 571.389 675.5 584.722 668.833 571.389Z"/><text font-family="Yu Gothic,Yu Gothic_MSFontService,sans-serif" font-weight="400" font-size="11" transform="translate(629.202 556)">R513</text><rect x="956.5" y="609.5" width="95.9999" height="58" stroke="#000000" stroke-width="1.33333" stroke-miterlimit="8" fill="#FFFFFF"/><text font-family="Yu Gothic,Yu Gothic_MSFontService,sans-serif" font-weight="400" font-size="11" transform="translate(981.018 635)">SM State<tspan font-size="11" x="-9" y="13">(SM_STATE)</tspan></text><rect x="956.5" y="470.5" width="95.9999" height="58" stroke="#000000" stroke-width="1.33333" stroke-miterlimit="8" fill="#FFFFFF"/><text font-family="Yu Gothic,Yu Gothic_MSFontService,sans-serif" font-weight="400" font-size="11" transform="translate(985.935 496)">SM SM<tspan font-size="11" x="-5.33331" y="13">(SM_SM)</tspan></text><path d="M1004.5 528.5 1004.5 609.979" stroke="#000000" stroke-width="0.666667" stroke-miterlimit="8" fill="none" fill-rule="evenodd"/><rect x="766.5" y="515.5" width="96" height="58" stroke="#000000" stroke-width="1.33333" stroke-miterlimit="8" fill="#FFFFFF"/><text font-family="Yu Gothic,Yu Gothic_MSFontService,sans-serif" font-weight="400" font-size="11" transform="translate(784.412 541)">SM MOORE<tspan font-size="11" x="-5.33337" y="13">(SM_MOORE)</tspan></text><path d="M0 0 65.9687 0 65.9687 104.619" stroke="#000000" stroke-width="0.666667" stroke-miterlimit="8" fill="none" fill-rule="evenodd" transform="matrix(-1.83697e-16 -1 -1 1.83697e-16 967.119 610.469)"/><text font-family="Yu Gothic,Yu Gothic_MSFontService,sans-serif" font-weight="400" font-size="11" transform="translate(872.169 562)">0..1<tspan font-size="11" x="78.4318" y="43">*</tspan><tspan font-size="11" x="34.0742" y="-26">R511</tspan><tspan font-size="11" x="144.565" y="6">R501</tspan><tspan font-size="11" x="141.519" y="37">*</tspan></text><path d="M0 0 242.196 48.8251" stroke="#000000" stroke-width="0.666667" stroke-miterlimit="8" stroke-dasharray="2.66667 2" fill="none" fill-rule="evenodd" transform="matrix(1 0 0 -1 723.5 613.325)"/></g></svg>