<svg width="586" height="454" xmlns="http://www.w3.org/2000/svg" xmlns:xlink="http://www.w3.org/1999/xlink" overflow="hidden"><defs><clipPath id="clip0"><rect x="573" y="157" width="586" height="454"/></clipPath></defs><g clip-path="url(#clip0)" transform="translate(-573 -157)"><rect x="574.5" y="250.5" width="96" height="57" stroke="#000000" stroke-width="1.33333" stroke-miterlimit="8" fill="#FFFFFF"/><text font-family="Yu Gothic,Yu Gothic_MSFontService,sans-serif" font-weight="400" font-size="11" transform="translate(596.955 276)">V Variable<tspan font-size="11" x="4.41333" y="13">(V_VAR)</tspan></text><rect x="1061.5" y="552.5" width="96" height="58" stroke="#000000" stroke-width="1.33333" stroke-miterlimit="8" fill="#FFFFFF"/><text font-family="Yu Gothic,Yu Gothic_MSFontService,sans-serif" font-weight="400" font-size="11" transform="translate(1090.45 578)">V Value<tspan font-size="11" x="-1.5" y="13">(V_VAL)</tspan></text><rect x="746.5" y="399.5" width="96" height="58" stroke="#000000" stroke-width="1.33333" stroke-miterlimit="8" fill="#FFFFFF"/><text font-family="Yu Gothic,Yu Gothic_MSFontService,sans-serif" font-weight="400" font-size="11" transform="translate(760.236 426)">Action Create<tspan font-size="11" x="9.08002" y="13">(ACT_CR)</tspan></text><rect x="746.5" y="549.5" width="96" height="57" stroke="#000000" stroke-width="1.33333" stroke-miterlimit="8" fill="#FFFFFF"/><text font-family="Yu Gothic,Yu Gothic_MSFontService,sans-serif" font-weight="400" font-size="11" transform="translate(778.82 575)">O OBJ<tspan font-size="11" x="-5.33331" y="13">(O_OBJ)</tspan></text><path d="M794.5 457.5 794.5 548.864" stroke="#000000" stroke-width="0.666667" stroke-miterlimit="8" fill="none" fill-rule="evenodd"/><text font-family="Yu Gothic,Yu Gothic_MSFontService,sans-serif" font-weight="400" font-size="11" transform="translate(758.801 517)">R671<tspan font-size="11" x="40.4816" y="-41">*</tspan></text><path d="M670.5 279.5 708.307 279.5 708.307 429.214 746.115 429.214" stroke="#000000" stroke-width="0.666667" stroke-miterlimit="8" fill="none" fill-rule="evenodd"/><text font-family="Yu Gothic,Yu Gothic_MSFontService,sans-serif" font-weight="400" font-size="11" transform="translate(714.001 359)">R633<tspan font-size="11" x="18.6123" y="85">*</tspan></text><rect x="870.5" y="399.5" width="96" height="58" stroke="#000000" stroke-width="1.33333" stroke-miterlimit="8" fill="#FFFFFF"/><text font-family="Yu Gothic,Yu Gothic_MSFontService,sans-serif" font-weight="400" font-size="11" transform="translate(891.601 426)">Action FIO<tspan font-size="11" x="-0.166626" y="13">(ACT_FIO)</tspan></text><path d="M918.115 457.5 918.115 577.753 842.5 577.753" stroke="#000000" stroke-width="0.666667" stroke-miterlimit="8" fill="none" fill-rule="evenodd"/><text font-family="Yu Gothic,Yu Gothic_MSFontService,sans-serif" font-weight="400" font-size="11" transform="translate(927.117 516)">R677<tspan font-size="11" x="-72.669" y="77">0..1</tspan><tspan font-size="11" x="-31.2568" y="-39">*</tspan></text><path d="M0 0 172.234 0 172.234 257.022 148.233 257.022" stroke="#000000" stroke-width="0.666667" stroke-miterlimit="8" fill="none" fill-rule="evenodd" transform="matrix(-1.83697e-16 -1 -1 1.83697e-16 917.522 399.734)"/><text font-family="Yu Gothic,Yu Gothic_MSFontService,sans-serif" font-weight="400" font-size="11" transform="translate(848.643 217)">R639<tspan font-size="11" x="75.5317" y="178">*</tspan></text><rect x="998.5" y="399.5" width="95.9999" height="58" stroke="#000000" stroke-width="1.33333" stroke-miterlimit="8" fill="#FFFFFF"/><text font-family="Yu Gothic,Yu Gothic_MSFontService,sans-serif" font-weight="400" font-size="11" transform="translate(1019.08 426)">Action FIW<tspan font-size="11" x="-0.166687" y="13">(ACT_FIW)</tspan></text><path d="M0 0 215.837 0 215.837 423.79 149.714 423.79" stroke="#000000" stroke-width="0.666667" stroke-miterlimit="8" fill="none" fill-rule="evenodd" transform="matrix(-1.83697e-16 -1 -1 1.83697e-16 1046.29 400.214)"/><text font-family="Yu Gothic,Yu Gothic_MSFontService,sans-serif" font-weight="400" font-size="11" transform="translate(854.448 173)">R665<tspan font-size="11" x="196.318" y="224">*</tspan></text><path d="M0 0 123.477 0 123.477 15.3702" stroke="#000000" stroke-width="0.666667" stroke-miterlimit="8" fill="none" fill-rule="evenodd" transform="matrix(-1.83697e-16 -1 -1 1.83697e-16 1109.87 551.977)"/><text font-family="Yu Gothic,Yu Gothic_MSFontService,sans-serif" font-weight="400" font-size="11" transform="translate(1120.65 504)">R610<tspan font-size="11" x="-11.7201" y="-88">0..1</tspan></text></g></svg>