<svg width="607" height="541" xmlns="http://www.w3.org/2000/svg" xmlns:xlink="http://www.w3.org/1999/xlink" overflow="hidden"><defs><clipPath id="clip0"><rect x="141" y="72" width="607" height="541"/></clipPath></defs><g clip-path="url(#clip0)" transform="translate(-141 -72)"><rect x="142.5" y="74.5001" width="605" height="537" stroke="#D9D9D9" stroke-width="1.33333" stroke-miterlimit="8" fill="none"/><path d="M167.5 267.5 286.5 267.5 286.5 329.166 274.166 341.5 167.5 341.5Z" fill="#FFFFFF" fill-rule="evenodd"/><path d="M274.166 341.5 276.633 331.633 286.5 329.166Z" fill="#CDCDCD" fill-rule="evenodd"/><path d="M274.166 341.5 276.633 331.633 286.5 329.166 274.166 341.5 167.5 341.5 167.5 267.5 286.5 267.5 286.5 329.166" stroke="#000000" stroke-width="1.33333" stroke-miterlimit="8" fill="none" fill-rule="evenodd"/><text font-family="Yu Gothic,Yu Gothic_MSFontService,sans-serif" font-weight="400" font-size="11" transform="translate(178.202 301)">DomainMode.xtuml</text><path d="M373.5 279.834C373.5 273.022 379.022 267.5 385.834 267.5L504.166 267.5C510.978 267.5 516.5 273.022 516.5 279.834L516.5 329.166C516.5 335.978 510.978 341.5 504.166 341.5L385.834 341.5C379.022 341.5 373.5 335.978 373.5 329.166Z" stroke="#000000" stroke-width="1.33333" stroke-miterlimit="8" fill="#FFFFFF" fill-rule="evenodd"/><text font-family="Yu Gothic,Yu Gothic_MSFontService,sans-serif" font-weight="400" font-size="11" transform="translate(391.979 308)">MetaModelGenerator</text><path d="M373.5 134.5 516.5 134.5 516.5 196.166 504.166 208.5 373.5 208.5Z" fill="#FFFFFF" fill-rule="evenodd"/><path d="M504.166 208.5 506.633 198.633 516.5 196.166Z" fill="#CDCDCD" fill-rule="evenodd"/><path d="M504.166 208.5 506.633 198.633 516.5 196.166 504.166 208.5 373.5 208.5 373.5 134.5 516.5 134.5 516.5 196.166" stroke="#000000" stroke-width="1.33333" stroke-miterlimit="8" fill="none" fill-rule="evenodd"/><text font-family="Yu Gothic,Yu Gothic_MSFontService,sans-serif" font-weight="400" font-size="11" transform="translate(393.479 169)">xtuml<tspan font-size="11" x="27.1667" y="0">mc_schema.sql</tspan></text><path d="M445.833 208.5 445.833 266.54 445.167 266.54 445.167 208.5ZM450.455 258.708 445.5 267.202 440.546 258.708C440.453 258.549 440.507 258.345 440.666 258.252 440.825 258.159 441.029 258.213 441.121 258.372L445.788 266.372 445.212 266.372 449.879 258.372C449.972 258.213 450.176 258.159 450.335 258.252 450.494 258.345 450.548 258.549 450.455 258.708Z"/><path d="M286.5 304.167 373.184 304.167 373.184 304.833 286.5 304.833ZM365.352 299.546 373.846 304.5 365.352 309.455C365.193 309.548 364.989 309.494 364.896 309.335 364.804 309.176 364.857 308.972 365.016 308.879L373.016 304.212 373.016 304.788 365.016 300.121C364.857 300.029 364.804 299.825 364.896 299.666 364.989 299.507 365.193 299.453 365.352 299.546Z"/><path d="M373.5 440C373.5 426.469 405.512 415.5 445 415.5 484.488 415.5 516.5 426.469 516.5 440L516.5 538C516.5 551.531 484.488 562.5 445 562.5 405.512 562.5 373.5 551.531 373.5 538Z" fill="#FFFFFF" fill-rule="evenodd"/><path d="M516.5 440C516.5 453.531 484.488 464.5 445 464.5 405.512 464.5 373.5 453.531 373.5 440" stroke="#000000" stroke-width="1.33333" stroke-miterlimit="8" fill="none" fill-rule="evenodd"/><path d="M373.5 440C373.5 426.469 405.512 415.5 445 415.5 484.488 415.5 516.5 426.469 516.5 440L516.5 538C516.5 551.531 484.488 562.5 445 562.5 405.512 562.5 373.5 551.531 373.5 538Z" stroke="#000000" stroke-width="1.33333" stroke-miterlimit="8" fill="none" fill-rule="evenodd"/><text font-family="Yu Gothic,Yu Gothic_MSFontService,sans-serif" font-weight="400" font-size="11" transform="translate(401.645 530)">Model Repository</text><path d="M445.833 341.5 445.833 450.555 445.167 450.555 445.167 341.5ZM450.455 442.722 445.5 451.216 440.546 442.722C440.453 442.563 440.507 442.359 440.666 442.266 440.825 442.174 441.029 442.227 441.121 442.386L445.788 450.386 445.212 450.386 449.879 442.386C449.972 442.227 450.176 442.174 450.335 442.266 450.494 442.359 450.548 442.563 450.455 442.722Z"/><rect x="396.5" y="471.5" width="96" height="43" stroke="#000000" stroke-width="1.33333" stroke-miterlimit="8" fill="#FFFFFF"/><text font-family="Yu Gothic,Yu Gothic_MSFontService,sans-serif" font-weight="400" font-size="11" transform="translate(408.408 496)">Domain Model</text><path d="M461.5 457.5 468.5 457.5 468.5 213.5 482.5 213.5 482.5 457.5 489.5 457.5 475.5 471.5Z" stroke="#2F528F" stroke-width="1.33333" stroke-miterlimit="8" stroke-opacity="0.501961" fill="#4472C4" fill-rule="evenodd" fill-opacity="0.501961"/><path d="M300.5 316.5 386.915 316.5C409.168 316.5 427.207 334.539 427.207 356.792L427.207 467.161 443.5 467.161 421.158 486.5 398.815 467.161 415.109 467.161 415.109 356.792C415.109 341.221 402.486 328.598 386.915 328.598L300.5 328.598Z" stroke="#BC8C00" stroke-width="1.33333" stroke-miterlimit="8" stroke-opacity="0.501961" fill="#FFC000" fill-rule="evenodd" fill-opacity="0.501961"/><text font-family="Yu Gothic,Yu Gothic_MSFontService,sans-serif" font-weight="400" font-size="13" transform="translate(485.586 382)">入れ物を作る<tspan font-size="13" x="-173.272" y="-31">中身を作る</tspan><tspan font-size="13" x="118.023" y="106">CIMofCIM</tspan></text><path d="M0.0266097-0.33227 101.628 7.80442 101.575 8.46896-0.0266097 0.33227ZM101.92 4.14946C104.123 4.32581 105.765 6.25392 105.588 8.45601 105.412 10.6581 103.484 12.3003 101.282 12.1239 99.0798 11.9476 97.4376 10.0195 97.6139 7.81738 97.7903 5.61529 99.7184 3.97311 101.92 4.14946Z" transform="matrix(-1 0 0 1 594.101 484.5)"/><text font-family="Yu Gothic,Yu Gothic_MSFontService,sans-serif" font-weight="400" font-size="13" transform="translate(600.452 418)">変換に<tspan font-size="13" x="40.0001" y="0">よる</tspan><tspan font-size="13" x="0" y="16">自動生成</tspan></text><path d="M564.5 259.167C564.5 245.544 596.512 234.5 636 234.5 675.488 234.5 707.5 245.544 707.5 259.167L707.5 357.833C707.5 371.456 675.488 382.5 636 382.5 596.512 382.5 564.5 371.456 564.5 357.833Z" fill="#FFFFFF" fill-rule="evenodd"/><path d="M707.5 259.167C707.5 272.79 675.488 283.833 636 283.833 596.512 283.833 564.5 272.79 564.5 259.167" stroke="#000000" stroke-width="1.33333" stroke-miterlimit="8" fill="none" fill-rule="evenodd"/><path d="M564.5 259.167C564.5 245.544 596.512 234.5 636 234.5 675.488 234.5 707.5 245.544 707.5 259.167L707.5 357.833C707.5 371.456 675.488 382.5 636 382.5 596.512 382.5 564.5 371.456 564.5 357.833Z" stroke="#000000" stroke-width="1.33333" stroke-miterlimit="8" fill="none" fill-rule="evenodd"/><text font-family="Yu Gothic,Yu Gothic_MSFontService,sans-serif" font-weight="400" font-size="11" transform="translate(577.843 349)">Meta Model Repository</text><rect x="587.5" y="293.5" width="96" height="42" stroke="#000000" stroke-width="1.33333" stroke-miterlimit="8" fill="#FFFFFF"/><text font-family="Yu Gothic,Yu Gothic_MSFontService,sans-serif" font-weight="400" font-size="11" transform="translate(605.677 317)">Meta Model</text><path d="M516.5 171.167 519.167 171.167 519.167 171.833 516.5 171.833ZM521.167 171.167 523.833 171.167 523.833 171.833 521.167 171.833ZM525.833 171.167 528.5 171.167 528.5 171.833 525.833 171.833ZM530.5 171.167 533.167 171.167 533.167 171.833 530.5 171.833ZM535.167 171.167 537.833 171.167 537.833 171.833 535.167 171.833ZM539.833 171.167 542.5 171.167 542.5 171.833 539.833 171.833ZM544.5 171.167 547.167 171.167 547.167 171.833 544.5 171.833ZM549.167 171.167 551.833 171.167 551.833 171.833 549.167 171.833ZM553.833 171.167 556.5 171.167 556.5 171.833 553.833 171.833ZM558.5 171.167 561.167 171.167 561.167 171.833 558.5 171.833ZM563.167 171.167 565.833 171.167 565.833 171.833 563.167 171.833ZM567.833 171.167 570.5 171.167 570.5 171.833 567.833 171.833ZM572.5 171.167 575.167 171.167 575.167 171.833 572.5 171.833ZM577.167 171.167 579.833 171.167 579.833 171.833 577.167 171.833ZM581.833 171.167 584.5 171.167 584.5 171.833 581.833 171.833ZM586.5 171.167 589.167 171.167 589.167 171.833 586.5 171.833ZM591.167 171.167 593.833 171.167 593.833 171.833 591.167 171.833ZM595.833 171.167 598.5 171.167 598.5 171.833 595.833 171.833ZM600.5 171.167 603.167 171.167 603.167 171.833 600.5 171.833ZM605.167 171.167 607.833 171.167 607.833 171.833 605.167 171.833ZM609.833 171.167 612.5 171.167 612.5 171.833 609.833 171.833ZM614.5 171.167 617.167 171.167 617.167 171.833 614.5 171.833ZM619.167 171.167 621.833 171.167 621.833 171.833 619.167 171.833ZM623.833 171.167 626.5 171.167 626.5 171.833 623.833 171.833ZM628.5 171.167 631.167 171.167 631.167 171.833 628.5 171.833ZM633.167 171.167 635.854 171.167 635.854 171.812 635.188 171.812 635.188 171.5 635.521 171.833 633.167 171.833ZM635.854 173.812 635.854 176.479 635.188 176.479 635.188 173.812ZM635.854 178.479 635.854 181.146 635.188 181.146 635.188 178.479ZM635.854 183.146 635.854 185.812 635.188 185.812 635.188 183.146ZM635.854 187.812 635.854 190.479 635.188 190.479 635.188 187.812ZM635.854 192.479 635.854 195.146 635.188 195.146 635.188 192.479ZM635.854 197.146 635.854 199.812 635.188 199.812 635.188 197.146ZM635.854 201.812 635.854 204.479 635.188 204.479 635.188 201.812ZM635.854 206.479 635.854 209.146 635.188 209.146 635.188 206.479ZM635.854 211.146 635.854 213.812 635.188 213.812 635.188 211.146ZM635.854 215.812 635.854 218.479 635.188 218.479 635.188 215.812ZM635.854 220.479 635.854 223.146 635.188 223.146 635.188 220.479ZM635.854 225.146 635.854 227.812 635.188 227.812 635.188 225.146ZM635.854 229.812 635.854 232.479 635.188 232.479 635.188 229.812ZM635.854 234.479 635.854 237.146 635.188 237.146 635.188 234.479ZM635.854 239.146 635.854 241.812 635.188 241.812 635.188 239.146ZM635.854 243.812 635.854 246.479 635.188 246.479 635.188 243.812ZM635.854 248.479 635.854 251.146 635.188 251.146 635.188 248.479ZM635.854 253.146 635.854 255.812 635.188 255.812 635.188 253.146ZM635.854 257.812 635.854 260.479 635.188 260.479 635.188 257.812ZM635.854 262.479 635.854 265.146 635.188 265.146 635.188 262.479ZM635.854 267.146 635.854 269.812 635.188 269.812 635.188 267.146ZM635.854 271.812 635.854 274.479 635.188 274.479 635.188 271.812ZM635.854 276.479 635.854 279.146 635.188 279.146 635.188 276.479ZM635.854 281.146 635.854 283.812 635.188 283.812 635.188 281.146ZM635.854 285.812 635.854 286.303 635.188 286.303 635.188 285.812ZM639.521 284.97 635.521 292.97 631.521 284.97Z"/><path d="M0.333333-3.89226e-07 0.333336 2.66667-0.33333 2.66667-0.333333 3.89226e-07ZM0.333339 4.66667 0.333342 7.33333-0.333325 7.33333-0.333328 4.66667ZM0.333344 9.33333 0.333347 12-0.333319 12-0.333322 9.33333ZM0.33335 14 0.333353 16.6667-0.333314 16.6667-0.333317 14ZM0.333355 18.6667 0.333358 21.3333-0.333308 21.3333-0.333312 18.6667ZM0.333361 23.3333 0.333364 26-0.333303 26-0.333306 23.3333ZM0.333366 28 0.333369 30.6667-0.333298 30.6667-0.333301 28ZM0.333371 32.6667 0.333375 35.3333-0.333292 35.3333-0.333295 32.6667ZM0.333377 37.3333 0.33338 40-0.333287 40-0.33329 37.3333ZM0.333382 42 0.333385 44.6667-0.333281 44.6667-0.333284 42ZM0.333388 46.6667 0.333391 49.3333-0.333276 49.3333-0.333279 46.6667ZM0.333393 51.3333 0.333396 54-0.33327 54-0.333273 51.3333ZM0.333399 56 0.333402 58.6667-0.333265 58.6667-0.333268 56ZM0.333404 60.6667 0.333407 63.3333-0.333259 63.3333-0.333262 60.6667ZM0.33341 65.3333 0.333413 68-0.333254 68-0.333257 65.3333ZM0.333415 70 0.333418 72.6667-0.333248 72.6667-0.333252 70ZM0.333421 74.6667 0.333424 77.3333-0.333243 77.3333-0.333246 74.6667ZM0.333426 79.3333 0.333429 82-0.333238 82-0.333241 79.3333ZM4.0001 81.9108 0.000104987 89.9108-3.9999 81.9108Z" transform="matrix(-1 0 0 1 635.5 382.5)"/></g></svg>