<svg width="995" height="727" xmlns="http://www.w3.org/2000/svg" xmlns:xlink="http://www.w3.org/1999/xlink" overflow="hidden"><defs><clipPath id="clip0"><rect x="114" y="88" width="995" height="727"/></clipPath></defs><g clip-path="url(#clip0)" transform="translate(-114 -88)"><rect x="562.5" y="220.5" width="96" height="58" stroke="#000000" stroke-width="1.33333" stroke-miterlimit="8" fill="#FFFFFF"/><text font-family="Yu Gothic,Yu Gothic_MSFontService,sans-serif" font-weight="400" font-size="11" transform="translate(596.331 240)">Event <tspan font-size="11" x="-11.8333" y="13">Statement</tspan><tspan font-size="11" x="-6.24664" y="25">(E_ESS)</tspan></text><rect x="562.5" y="89.5001" width="96" height="58" stroke="#000000" stroke-width="1.33333" stroke-miterlimit="8" fill="#FFFFFF"/><text font-family="Yu Gothic,Yu Gothic_MSFontService,sans-serif" font-weight="400" font-size="11" transform="translate(593.498 122)">V_PAR<tspan font-size="11" x="25.7581" y="69">R700</tspan></text><path d="M0 0 0.000104987 73.2223" stroke="#000000" stroke-width="0.666667" stroke-miterlimit="8" fill="none" fill-rule="evenodd" transform="matrix(1 0 0 -1 610.5 220.722)"/><text font-family="Yu Gothic,Yu Gothic_MSFontService,sans-serif" font-weight="400" font-size="11" transform="translate(582.622 212)">0..1<tspan font-size="11" x="36.6348" y="-50">* Event parameters</tspan></text><rect x="345.5" y="364.5" width="96" height="58" stroke="#000000" stroke-width="1.33333" stroke-miterlimit="8" fill="#FFFFFF"/><text font-family="Yu Gothic,Yu Gothic_MSFontService,sans-serif" font-weight="400" font-size="11" transform="translate(360.583 390)">Create Event<tspan font-size="11" x="11.42" y="13">(E_CES)</tspan></text><path d="M611.581 290.5 611.581 322.056 393.5 322.056 393.833 321.722 393.833 364.945 393.167 364.945 393.167 321.389 611.248 321.389 610.915 321.722 610.915 290.5ZM604.581 291.833 611.248 278.5 617.915 291.833Z"/><text font-family="Yu Gothic,Yu Gothic_MSFontService,sans-serif" font-weight="400" font-size="11" transform="translate(578.835 310)">R701</text><rect x="831.5" y="365.5" width="96" height="58" stroke="#000000" stroke-width="1.33333" stroke-miterlimit="8" fill="#FFFFFF"/><text font-family="Yu Gothic,Yu Gothic_MSFontService,sans-serif" font-weight="400" font-size="11" transform="translate(862.218 397)">E_GES</text><rect x="678.5" y="631.5" width="96" height="58" stroke="#000000" stroke-width="1.33333" stroke-miterlimit="8" fill="#FFFFFF"/><text font-family="Yu Gothic,Yu Gothic_MSFontService,sans-serif" font-weight="400" font-size="11" transform="translate(709.303 663)">E_GEN</text><rect x="845.5" y="631.5" width="96" height="58" stroke="#000000" stroke-width="1.33333" stroke-miterlimit="8" fill="#FFFFFF"/><text font-family="Yu Gothic,Yu Gothic_MSFontService,sans-serif" font-weight="400" font-size="11" transform="translate(875.873 663)">E_GAR</text><rect x="1011.5" y="631.5" width="95.9999" height="58" stroke="#000000" stroke-width="1.33333" stroke-miterlimit="8" fill="#FFFFFF"/><text font-family="Yu Gothic,Yu Gothic_MSFontService,sans-serif" font-weight="400" font-size="11" transform="translate(1042.28 663)">E_GEC</text><path d="M879.265 559.5 879.265 589.681 726.5 589.681 726.833 589.348 726.833 631.195 726.167 631.195 726.167 589.014 878.932 589.014 878.598 589.348 878.598 559.5ZM872.265 560.833 878.932 547.5 885.598 560.833Z"/><path d="M12-0.333333 42.1809-0.333333 42.1809 13.8881 41.8476 13.5548 83.6951 13.5548 83.6951 14.2214 41.5142 14.2214 41.5142 0 41.8476 0.333333 12 0.333333ZM13.3333 6.66667 0 0 13.3333-6.66667Z" transform="matrix(1.83697e-16 1 1 -1.83697e-16 879.5 547.5)"/><path d="M12-0.333333 42.1809-0.333333 42.1809 180.208 41.8476 179.875 83.6951 179.875 83.6951 180.541 41.5142 180.541 41.5142 0 41.8476 0.333333 12 0.333333ZM13.3333 6.66667 0 0 13.3333-6.66667Z" transform="matrix(1.83697e-16 1 1 -1.83697e-16 879.5 547.5)"/><text font-family="Yu Gothic,Yu Gothic_MSFontService,sans-serif" font-weight="400" font-size="11" transform="translate(898.85 568)">R705</text><path d="M12-0.333333 43.8123-0.333333 43.8123 268.47 43.479 268.137 86.958 268.137 86.958 268.803 43.1457 268.803 43.1457 0 43.479 0.333333 12 0.333333ZM13.3333 6.66667 0 0 13.3333-6.66667Z" transform="matrix(1.83697e-16 1 1 -1.83697e-16 610.5 278.5)"/><rect x="134.5" y="631.5" width="96" height="58" stroke="#000000" stroke-width="1.33333" stroke-miterlimit="8" fill="#FFFFFF"/><text font-family="Yu Gothic,Yu Gothic_MSFontService,sans-serif" font-weight="400" font-size="11" transform="translate(167.025 663)">E_CEI</text><rect x="300.5" y="631.5" width="96" height="58" stroke="#000000" stroke-width="1.33333" stroke-miterlimit="8" fill="#FFFFFF"/><text font-family="Yu Gothic,Yu Gothic_MSFontService,sans-serif" font-weight="400" font-size="11" transform="translate(331.428 663)">E_CEA</text><rect x="466.5" y="631.5" width="96" height="58" stroke="#000000" stroke-width="1.33333" stroke-miterlimit="8" fill="#FFFFFF"/><text font-family="Yu Gothic,Yu Gothic_MSFontService,sans-serif" font-weight="400" font-size="11" transform="translate(497.582 663)">E_CEC</text><path d="M393.613 560.5 393.613 590.482 182.5 590.482 182.833 590.148 182.833 631.797 182.167 631.797 182.167 589.815 393.28 589.815 392.947 590.148 392.947 560.5ZM386.613 561.833 393.28 548.5 399.947 561.833Z"/><path d="M393.293 560.5 393.293 590.482 348.5 590.482 348.833 590.148 348.833 631.796 348.167 631.796 348.167 589.815 392.96 589.815 392.627 590.148 392.627 560.5ZM386.293 561.833 392.96 548.5 399.627 561.833Z"/><path d="M12-0.333333 41.9816-0.333333 41.9816 121.86 41.6483 121.526 83.2964 121.526 83.2964 122.193 41.3149 122.193 41.3149 0 41.6483 0.333333 12 0.333333ZM13.3333 6.66667 0 0 13.3333-6.66667Z" transform="matrix(1.83697e-16 1 1 -1.83697e-16 392.5 548.5)"/><text font-family="Yu Gothic,Yu Gothic_MSFontService,sans-serif" font-weight="400" font-size="11" transform="translate(353.988 568)">R704</text><rect x="164.5" y="220.5" width="96" height="58" stroke="#000000" stroke-width="1.33333" stroke-miterlimit="8" fill="#FFFFFF"/><text font-family="Yu Gothic,Yu Gothic_MSFontService,sans-serif" font-weight="400" font-size="11" transform="translate(194.876 252)">V_VAR</text><path d="M0 0 115.593 0 115.593 132.874" stroke="#000000" stroke-width="0.666667" stroke-miterlimit="8" fill="none" fill-rule="evenodd" transform="matrix(1.83697e-16 1 1 -1.83697e-16 212.5 278.5)"/><rect x="582.5" y="490.5" width="96" height="57" stroke="#000000" stroke-width="1.33333" stroke-miterlimit="8" fill="#FFFFFF"/><text font-family="Yu Gothic,Yu Gothic_MSFontService,sans-serif" font-weight="400" font-size="11" transform="translate(616.553 516)">Event<tspan font-size="11" x="-11.3334" y="13">(SM_EVT</tspan><tspan font-size="11" x="35" y="13">)</tspan></text><rect x="134.5" y="756.5" width="96" height="57" stroke="#000000" stroke-width="1.33333" stroke-miterlimit="8" fill="#FFFFFF"/><text font-family="Yu Gothic,Yu Gothic_MSFontService,sans-serif" font-weight="400" font-size="11" transform="translate(164.859 788)">V_VAR</text><path d="M0 0 142.082 0.398845" stroke="#000000" stroke-width="0.666667" stroke-miterlimit="8" fill="none" fill-rule="evenodd" transform="matrix(1 0 0 -1 440.5 518.899)"/><path d="M182.5 689.5 182.5 756.267" stroke="#000000" stroke-width="0.666667" stroke-miterlimit="8" fill="none" fill-rule="evenodd"/><text font-family="Yu Gothic,Yu Gothic_MSFontService,sans-serif" font-weight="400" font-size="11" transform="translate(192.548 730)">R711<tspan font-size="11" x="-25.2262" y="-25">*</tspan><tspan font-size="11" x="37.594" y="-364">R710</tspan><tspan font-size="11" x="140.71" y="-345">*</tspan></text><rect x="344.5" y="490.5" width="96" height="58" stroke="#000000" stroke-width="1.33333" stroke-miterlimit="8" fill="#FFFFFF"/><text font-family="Yu Gothic,Yu Gothic_MSFontService,sans-serif" font-weight="400" font-size="11" transform="translate(371.138 522)">E_CSME</text><path d="M0 0 0.111601 67.8893" stroke="#000000" stroke-width="0.666667" stroke-miterlimit="8" fill="none" fill-rule="evenodd" transform="matrix(-1 0 0 1 392.612 422.5)"/><text font-family="Yu Gothic,Yu Gothic_MSFontService,sans-serif" font-weight="400" font-size="11" transform="translate(362.29 460)">R702<tspan font-size="11" x="42.2821" y="19">0..1</tspan></text><rect x="831.5" y="490.5" width="96" height="58" stroke="#000000" stroke-width="1.33333" stroke-miterlimit="8" fill="#FFFFFF"/><text font-family="Yu Gothic,Yu Gothic_MSFontService,sans-serif" font-weight="400" font-size="11" transform="translate(857.302 522)">E_GSME</text><path d="M678.5 518.5 830.748 518.899" stroke="#000000" stroke-width="0.666667" stroke-miterlimit="8" fill="none" fill-rule="evenodd"/><text font-family="Yu Gothic,Yu Gothic_MSFontService,sans-serif" font-weight="400" font-size="11" transform="translate(738.344 509)">R707<tspan font-size="11" x="-234.631" y="5">R706</tspan><tspan font-size="11" x="-291.013" y="5">*</tspan><tspan font-size="11" x="69.9781" y="5">*</tspan></text><path d="M879.5 423.5 879.5 490.876" stroke="#000000" stroke-width="0.666667" stroke-miterlimit="8" fill="none" fill-rule="evenodd"/><text font-family="Yu Gothic,Yu Gothic_MSFontService,sans-serif" font-weight="400" font-size="11" transform="translate(849.53 462)">R703<tspan font-size="11" x="42.2821" y="19">0..1</tspan></text><rect x="677.5" y="756.5" width="96" height="57" stroke="#000000" stroke-width="1.33333" stroke-miterlimit="8" fill="#FFFFFF"/><text font-family="Yu Gothic,Yu Gothic_MSFontService,sans-serif" font-weight="400" font-size="11" transform="translate(708.39 788)">V_VAR</text><path d="M0 0 1.33018 66.7672" stroke="#000000" stroke-width="0.666667" stroke-miterlimit="8" fill="none" fill-rule="evenodd" transform="matrix(-1 0 0 1 726.83 689.5)"/><text font-family="Yu Gothic,Yu Gothic_MSFontService,sans-serif" font-weight="400" font-size="11" transform="translate(736.079 730)">R711<tspan font-size="11" x="-25.2263" y="-25">*</tspan><tspan font-size="11" x="-71.5483" y="11">destinatio</tspan><tspan font-size="11" x="-22.3816" y="11">n</tspan><tspan font-size="11" x="-611.875" y="13">destinatio</tspan><tspan font-size="11" x="-562.708" y="13">n</tspan><tspan font-size="11" x="-513.308" y="-438">Event instance</tspan></text><rect x="831.5" y="220.5" width="96" height="58" stroke="#000000" stroke-width="1.33333" stroke-miterlimit="8" fill="#FFFFFF"/><text font-family="Yu Gothic,Yu Gothic_MSFontService,sans-serif" font-weight="400" font-size="11" transform="translate(861.968 253)">V_PAR</text><path d="M0 0 172.47 0.000314961" stroke="#000000" stroke-width="0.666667" stroke-miterlimit="8" fill="none" fill-rule="evenodd" transform="matrix(1 0 0 -1 658.5 249.5)"/><text font-family="Yu Gothic,Yu Gothic_MSFontService,sans-serif" font-weight="400" font-size="11" transform="translate(725.118 244)">R700<tspan font-size="11" x="100.845" y="-3">*</tspan><tspan font-size="11" x="-57.27" y="-1">0..1</tspan></text></g></svg>