<svg width="608" height="520" xmlns="http://www.w3.org/2000/svg" xmlns:xlink="http://www.w3.org/1999/xlink" overflow="hidden"><defs><clipPath id="clip0"><rect x="28" y="90" width="608" height="520"/></clipPath></defs><g clip-path="url(#clip0)" transform="translate(-28 -90)"><rect x="30.5001" y="91.5001" width="604" height="517" stroke="#D9D9D9" stroke-width="1.33333" stroke-miterlimit="8" fill="none"/><rect x="112.5" y="125.5" width="189" height="45" stroke="#000000" stroke-width="1.33333" stroke-miterlimit="8" fill="#FFFFFF"/><text font-family="Yu Gothic,Yu Gothic_MSFontService,sans-serif" font-weight="400" font-size="11" transform="translate(121.21 140)">Occurrence<tspan font-size="11" x="6" y="13">timestamp </tspan><tspan font-size="11" x="61.5" y="13">: </tspan>datetime</text><rect x="138.5" y="231.5" width="151" height="45" stroke="#000000" stroke-width="1.33333" stroke-miterlimit="8" fill="#FFFFFF"/><text font-family="Yu Gothic,Yu Gothic_MSFontService,sans-serif" font-weight="400" font-size="11" transform="translate(148.001 246)">Occurrence for Class<tspan font-size="11" x="0" y="13">Kind:</tspan><tspan font-size="11" x="28.5" y="13">ClassActionKind</tspan><tspan font-size="11" x="0" y="25">Identity Properties: string</tspan></text><rect x="138.5" y="331.5" width="190" height="45" stroke="#000000" stroke-width="1.33333" stroke-miterlimit="8" fill="#FFFFFF"/><text font-family="Yu Gothic,Yu Gothic_MSFontService,sans-serif" font-weight="400" font-size="11" transform="translate(148.001 346)">Occurrence for Relationship<tspan font-size="11" x="0" y="13">Kind:</tspan><tspan font-size="11" x="28.5" y="13">Relationshi</tspan><tspan font-size="11" x="83.8333" y="13">p</tspan><tspan font-size="11" x="90" y="13">ActionKind</tspan></text><rect x="138.5" y="413.5" width="190" height="62" stroke="#000000" stroke-width="1.33333" stroke-miterlimit="8" fill="#FFFFFF"/><text font-family="Yu Gothic,Yu Gothic_MSFontService,sans-serif" font-weight="400" font-size="11" transform="translate(148.001 428)">Occurrence for State Machine<tspan font-size="11" x="0" y="13">PrevState</tspan><tspan font-size="11" x="48.3333" y="13">: State</tspan><tspan font-size="11" x="0" y="25">NextState</tspan><tspan font-size="11" x="49.3333" y="25">:</tspan><tspan font-size="11" x="55.3333" y="25">State</tspan></text><path d="M201.5 184.5 210 170.5 218.5 184.5Z" stroke="#000000" stroke-width="1.33333" stroke-miterlimit="8" fill="#FFFFFF" fill-rule="evenodd"/><path d="M209.629 184.5 209.629 207.915 114.5 207.915 114.5 253.872 138.5 253.872" stroke="#000000" stroke-width="0.666667" stroke-miterlimit="8" fill="none" fill-rule="evenodd"/><path d="M209.629 184.5 209.629 206.94 114.5 206.94 114.5 353.803 138.5 353.803" stroke="#000000" stroke-width="0.666667" stroke-miterlimit="8" fill="none" fill-rule="evenodd"/><path d="M209.629 184.5 209.629 206.934 114.5 206.934 114.5 444.396 138.5 444.396" stroke="#000000" stroke-width="0.666667" stroke-miterlimit="8" fill="none" fill-rule="evenodd"/><rect x="453.5" y="231.5" width="102" height="45" stroke="#000000" stroke-width="1.33333" stroke-miterlimit="8" fill="#FFFFFF"/><text font-family="Yu Gothic,Yu Gothic_MSFontService,sans-serif" font-weight="400" font-size="11" transform="translate(476.049 251)">Instance of <tspan font-size="11" x="-6.66669" y="13">Domain Class</tspan></text><rect x="457.5" y="331.5" width="102" height="45" stroke="#000000" stroke-width="1.33333" stroke-miterlimit="8" fill="#FFFFFF"/><text font-family="Yu Gothic,Yu Gothic_MSFontService,sans-serif" font-weight="400" font-size="11" transform="translate(491.239 351)">Link of <tspan font-size="11" x="-13.92" y="13">Relationship</tspan></text><rect x="457.5" y="421.5" width="102" height="45" stroke="#000000" stroke-width="1.33333" stroke-miterlimit="8" fill="#FFFFFF"/><text font-family="Yu Gothic,Yu Gothic_MSFontService,sans-serif" font-weight="400" font-size="11" transform="translate(472.148 441)">State Machine <tspan font-size="11" x="-4.57999" y="13">of Domain Class</tspan></text><path d="M289.5 254.5 453.092 254.5" stroke="#000000" stroke-width="0.666667" stroke-miterlimit="8" fill="none" fill-rule="evenodd"/><text font-family="Yu Gothic,Yu Gothic_MSFontService,sans-serif" font-weight="400" font-size="11" transform="translate(298.58 274)">*</text><path d="M328.5 354.5 457.412 354.5" stroke="#000000" stroke-width="0.666667" stroke-miterlimit="8" fill="none" fill-rule="evenodd"/><text font-family="Yu Gothic,Yu Gothic_MSFontService,sans-serif" font-weight="400" font-size="11" transform="translate(335.824 372)">*</text><path d="M0 0 128.912 0.483255" stroke="#000000" stroke-width="0.666667" stroke-miterlimit="8" fill="none" fill-rule="evenodd" transform="matrix(1 0 0 -1 328.5 444.983)"/><text font-family="Yu Gothic,Yu Gothic_MSFontService,sans-serif" font-weight="400" font-size="11" transform="translate(337.749 463)">*</text><rect x="457.5" y="489.5" width="102" height="45" stroke="#000000" stroke-width="1.33333" stroke-miterlimit="8" fill="#FFFFFF"/><text font-family="Yu Gothic,Yu Gothic_MSFontService,sans-serif" font-weight="400" font-size="11" transform="translate(467.235 515)">Event of Domain</text><path d="M0 0 36.284 0 36.284 223.801" stroke="#000000" stroke-width="0.666667" stroke-miterlimit="8" fill="none" fill-rule="evenodd" transform="matrix(1.83697e-16 1 1 -1.83697e-16 233.5 475.5)"/><text font-family="Yu Gothic,Yu Gothic_MSFontService,sans-serif" font-weight="400" font-size="11" transform="translate(219.13 491)">*</text><path d="M196.5 331.243 196.5 292.117 467.37 292.117 467.37 276.5" stroke="#000000" stroke-width="0.666667" stroke-miterlimit="8" fill="none" fill-rule="evenodd"/><path d="M233.5 331.344 233.5 303.922 503.759 303.922 503.759 276.5" stroke="#000000" stroke-width="0.666667" stroke-miterlimit="8" fill="none" fill-rule="evenodd"/><path d="M269.5 331.243 269.5 312.688 540.37 312.688 540.37 276.5" stroke="#000000" stroke-width="0.666667" stroke-miterlimit="8" fill="none" fill-rule="evenodd"/><text font-family="Yu Gothic,Yu Gothic_MSFontService,sans-serif" font-weight="400" font-size="11" transform="translate(183.317 327)">*<tspan font-size="11" x="38.4895" y="3">*</tspan><tspan font-size="11" x="78.8745" y="0">*</tspan><tspan font-size="11" x="220.664" y="-44">From|One</tspan><tspan font-size="11" x="360.255" y="-35">To|Other</tspan><tspan font-size="11" x="302.359" y="-36">assoc</tspan><tspan font-size="11" x="229.332" y="199">trigger</tspan></text></g></svg>