<svg width="608" height="520" xmlns="http://www.w3.org/2000/svg" xmlns:xlink="http://www.w3.org/1999/xlink" overflow="hidden"><defs><clipPath id="clip0"><rect x="28" y="90" width="608" height="520"/></clipPath></defs><g clip-path="url(#clip0)" transform="translate(-28 -90)"><rect x="30.5001" y="91.5001" width="604" height="517" stroke="#D9D9D9" stroke-width="1.33333" stroke-miterlimit="8" fill="none"/><rect x="480.5" y="456.5" width="118" height="96" stroke="#000000" stroke-width="1.33333" stroke-miterlimit="8" fill="#FFFFFF"/><text font-family="Yu Gothic,Yu Gothic_MSFontService,sans-serif" font-weight="400" font-size="13" transform="translate(517.458 508)">R_RTO</text><rect x="273.5" y="118.5" width="118" height="96" stroke="#000000" stroke-width="1.33333" stroke-miterlimit="8" fill="#FFFFFF"/><text font-family="Yu Gothic,Yu Gothic_MSFontService,sans-serif" font-weight="400" font-size="13" transform="translate(311.712 170)">O_OBJ</text><rect x="480.5" y="264.5" width="118" height="96" stroke="#000000" stroke-width="1.33333" stroke-miterlimit="8" fill="#FFFFFF"/><text font-family="Yu Gothic,Yu Gothic_MSFontService,sans-serif" font-weight="400" font-size="13" transform="translate(523.708 316)">O_ID</text><path d="M539.5 360.5 539.5 456.5" stroke="#000000" stroke-width="0.666667" stroke-miterlimit="8" fill="none" fill-rule="evenodd"/><text font-family="Yu Gothic,Yu Gothic_MSFontService,sans-serif" font-weight="400" font-size="13" transform="translate(556.456 407)">R109<tspan font-size="13" x="-9.75439" y="-28">0..1</tspan><tspan font-size="13" x="-31.991" y="45">*</tspan></text><rect x="249.5" y="456.5" width="118" height="96" stroke="#000000" stroke-width="1.33333" stroke-miterlimit="8" fill="#FFFFFF"/><text font-family="Yu Gothic,Yu Gothic_MSFontService,sans-serif" font-weight="400" font-size="13" transform="translate(283.472 508)">O_OIDA</text><path d="M0 0 112.664 0.0569029" stroke="#000000" stroke-width="0.666667" stroke-miterlimit="8" fill="none" fill-rule="evenodd" transform="matrix(1 0 0 -1 367.5 504.557)"/><text font-family="Yu Gothic,Yu Gothic_MSFontService,sans-serif" font-weight="400" font-size="13" transform="translate(413.231 496)">R110<tspan font-size="13" x="-40.603" y="26">*</tspan><tspan font-size="13" x="40.7629" y="28">*</tspan></text><path d="M190.5 312.5 480.647 312.5" stroke="#000000" stroke-width="0.666667" stroke-miterlimit="8" fill="none" fill-rule="evenodd"/><text font-family="Yu Gothic,Yu Gothic_MSFontService,sans-serif" font-weight="400" font-size="13" transform="translate(311.405 294)">R105</text><rect x="71.5001" y="264.5" width="119" height="96" stroke="#000000" stroke-width="1.33333" stroke-miterlimit="8" fill="#FFFFFF"/><text font-family="Yu Gothic,Yu Gothic_MSFontService,sans-serif" font-weight="400" font-size="13" transform="translate(104.989 316)">O_ATTR</text><path d="M0 0 19.2607 144.057" stroke="#000000" stroke-width="0.666667" stroke-miterlimit="8" stroke-dasharray="0.666667 0.666667" fill="none" fill-rule="evenodd" transform="matrix(1 0 0 -1 308.5 456.557)"/><text font-family="Yu Gothic,Yu Gothic_MSFontService,sans-serif" font-weight="400" font-size="13" transform="translate(466.885 337)">*<tspan font-size="13" x="-271.072" y="-7">*</tspan></text><path d="M0 0 97.9732 0 97.9732 147.668" stroke="#000000" stroke-width="0.666667" stroke-miterlimit="8" fill="none" fill-rule="evenodd" transform="matrix(-1.83697e-16 -1 -1 1.83697e-16 539.168 264.473)"/><text font-family="Yu Gothic,Yu Gothic_MSFontService,sans-serif" font-weight="400" font-size="13" transform="translate(496.905 159)">R104<tspan font-size="13" x="55.3057" y="98">*</tspan><tspan font-size="13" x="-97.071" y="25">1</tspan></text><path d="M130.5 264.473 130.5 166.5 272.978 166.5" stroke="#000000" stroke-width="0.666667" stroke-miterlimit="8" fill="none" fill-rule="evenodd"/><text font-family="Yu Gothic,Yu Gothic_MSFontService,sans-serif" font-weight="400" font-size="13" transform="translate(148.477 159)">R102<tspan font-size="13" x="112.352" y="22">1</tspan><tspan font-size="13" x="-30.8993" y="98">*</tspan></text><path d="M431.911 181 432.759 181 434.58 181.065 434.53 181.064 437.243 181.127 440.768 181.253 440.746 181.252 444.892 181.377 449.556 181.567 454.575 181.817 459.836 182.068 470.659 182.697 475.907 183.14 480.897 183.582 485.504 184.094 489.591 184.678 493.166 185.352 496.138 186.19 498.23 187.237 500.027 188.674 502.466 191.249 502.429 191.211 504.679 193.523 504.212 193.113 505.462 194.05 504.52 193.525 505.958 194.088 505.456 193.928 514.283 196.1 517.854 199.246 520.668 202.528 521.625 204.683 521.901 206.518 522.219 209.066 522.594 212.066 522.537 211.73 523.162 214.668 522.909 213.883 525.284 219.258 525.252 219.188 527.866 224.809 529.029 228.57 530.054 232.329 530.652 236.78 530.647 236.747 531.151 240.271 531.529 243.17 531.526 243.152 531.839 245.464 532.09 247.346 532.066 247.19 532.337 248.748 532.601 251.121 532.587 251.016 532.844 252.875 533.104 255.154 533.234 256.575 533.227 256.511 533.415 258.261 533.412 258.233 533.662 260.421 534.008 263.47 533.809 269.054 533.539 274.051 532.368 279.244 531.061 282.022 529.142 284.943 526.647 287.022 523.339 289.227 491.48 288.181 486.467 287.667 486.522 287.672 481.584 287.234 482.043 287.249 467.856 287.624 467.908 287.622 453.658 288.184 454.304 288.106 449.178 289.157 443.047 289.614 443.131 289.607 437.256 290.169 437.995 290.027 436.495 290.465 436.833 290.35 435.395 290.912 435.476 290.88 433.625 291.651 431.483 292.097 406.172 293.806 381.137 295.057 381.792 294.97 379.792 295.408 380.053 295.341 378.115 295.904 379.12 295.454 377.62 296.392 377.878 296.217 376.242 297.426 369.152 301.422 370.709 299.834 368.084 304.709 368.21 304.454 365.96 309.454 366.099 309.102 364.099 314.977 364.172 314.74 363.225 318.21 362.129 321.979 361.027 324.329 359.992 326.335 360.116 326.072 357.178 332.947 357.3 332.625 354.237 341.937 354.259 341.867 351.384 351.18 351.394 351.149 350.814 353.082 350.508 354.001 350.339 354.423 350.601 353.374 349.348 364.774 348.645 370.531 347.56 376.634 346.757 378.742 345.656 380.35 343.948 382.754 344.577 381.371 344.131 383.231 343.182 385.551 341.979 386.863 340.383 388.522 340.404 388.501 338.117 390.915 335.376 393.656 332.39 396.578 329.436 399.34 326.667 401.771 324.064 403.608 320.596 405.191 316.65 406.368 313.03 407.209 313.075 407.198 309.17 408.153 299.618 405.11 295.245 403.609 290.72 401.66 287.556 399.578 285.889 397.578 284.916 395.416 284.156 391.613 283.878 388.07 283.742 381.044 284.309 378.451 285.039 375.937 286.143 373.984 287.15 372.44 287.018 372.657 287.83 371.219 287.423 372.254 287.798 370.691 287.688 371.625 287.688 365.875 287.757 366.619 286.882 361.994 287.148 362.853 286.273 360.853 286.609 361.469 285.359 359.594 285.808 360.152 284.121 358.402 284.557 358.792 282.369 357.105 282.933 357.468 279.058 355.406 279.24 355.497 275.115 353.563 272.161 351.922 270.246 350.828 269.109 350.046 269.317 350.18 268.692 349.805 268.961 349.953 268.461 349.703 269.198 349.984 268.51 349.797 268.592 349.818 267.342 349.506 267.396 349.519 264.833 348.916 261.463 347.266 257.998 345.502 258.103 345.554 254.665 343.929 254.944 344.048 252.007 342.923 252.506 343.078 248.069 342.015 248.226 342.049 243.694 341.156 235.787 339.195 235.865 339.213 228.906 337.634 230.676 329.832 237.674 331.421 245.525 333.368 245.336 333.326 249.853 334.216 254.624 335.358 257.947 336.631 261.575 338.346 265.065 340.123 265.008 340.095 267.946 341.532 267.104 341.231 269.256 341.738 270.574 342.067 271.685 342.37 272.676 342.866 273.539 343.384 274.641 344.141 274.36 343.965 276.11 344.965 276.068 344.941 278.88 346.503 278.635 346.378 282.727 348.296 286.989 350.565 289.676 352.637 291.816 354.857 293.461 357.324 294.659 360.062 295.688 365.5 295.688 372.098 295.071 374.667 293.92 376.704 292.913 378.248 293.045 378.031 292.232 379.468 292.591 378.615 292.029 380.553 292.095 380.292 291.658 382.292 291.749 381.36 291.874 387.797 291.863 387.562 292.113 390.75 292.047 390.278 292.672 393.403 292.398 392.546 292.96 393.796 292.385 392.877 293.323 394.002 292.448 393.221 294.823 394.783 294.207 394.451 298.27 396.201 297.986 396.092 302.174 397.529 302.089 397.501 310.526 400.189 308.363 400.114 311.198 399.421 314.72 398.604 314.482 398.667 318.044 397.604 317.526 397.799 320.401 396.486 319.756 396.857 321.881 395.357 321.548 395.619 324.111 393.369 324.018 393.453 326.893 390.765 326.827 390.829 329.765 387.954 329.734 387.984 332.422 385.297 332.346 385.374 334.606 382.988 336.179 381.353 336.114 381.422 336.801 380.672 336.048 381.86 336.61 380.485 336.423 381.066 336.979 378.752 339.114 375.746 339.074 375.804 339.886 374.616 339.45 375.451 339.95 374.138 339.749 374.862 340.749 369.237 340.717 369.452 341.405 363.827 341.399 363.876 342.708 351.958 343.036 351.139 342.955 351.36 343.205 350.61 343.169 350.726 343.736 348.835 346.626 339.473 349.754 329.962 352.816 322.795 353.883 320.728 353.816 320.865 354.753 318.865 354.534 319.445 355.534 316.008 355.516 316.073 356.486 312.516 358.587 306.344 360.973 301.041 364.215 295.021 372.098 290.578 371.685 290.846 373.248 289.691 375.351 288.376 377.951 287.621 380.407 287.084 405.738 285.818 405.668 285.822 430.668 284.134 430.122 284.209 431.622 283.897 430.899 284.12 432.439 283.478 434.084 282.835 436.118 282.242 442.411 281.639 448.328 281.199 447.821 281.269 453.016 280.203 467.618 279.627 482.062 279.245 487.256 279.706 492.158 280.208 491.881 280.19 522.319 281.19 519.969 281.859 522.031 280.484 521.689 280.74 523.564 279.177 522.782 280.053 524.22 277.866 523.943 278.359 524.943 276.234 524.66 277.058 525.66 272.621 525.568 273.284 525.818 268.659 525.815 268.732 526.003 263.482 526.026 264.077 525.713 261.329 525.462 259.128 525.269 257.332 525.141 255.925 525.151 256.017 524.901 253.829 524.912 253.922 524.655 252.057 524.399 249.754 524.434 249.998 524.171 248.482 523.911 246.536 523.597 244.214 523.221 241.33 523.228 241.378 522.725 237.862 522.161 233.658 522.266 234.177 521.328 230.74 521.366 230.869 520.303 227.431 520.498 227.937 517.982 222.527 515.424 216.738 514.677 213.228 514.281 210.059 513.968 207.559 513.982 207.656 513.794 206.406 514.095 207.437 513.595 206.312 514.213 207.291 511.963 204.666 512.356 205.064 509.731 202.751 511.419 203.634 503.288 201.634 501.098 200.777 499.163 199.325 496.677 196.77 494.409 194.376 494.814 194.748 493.564 193.748 494.274 194.203 492.899 193.515 493.602 193.787 491.164 193.1 491.508 193.181 488.196 192.556 488.372 192.585 484.434 192.022 484.558 192.038 480.058 191.538 480.147 191.547 475.209 191.109 475.226 191.111 470.039 190.673 470.143 190.681 459.393 190.056 459.435 190.058 454.175 189.808 449.175 189.558 449.213 189.559 444.588 189.372 444.629 189.373 440.493 189.248 436.982 189.122 437.032 189.124 434.32 189.061 432.545 188.997 432.688 189 431.911 189ZM248.28 354.856 221.982 332.306 254.555 320.514C256.632 319.762 258.926 320.837 259.678 322.914 260.43 324.991 259.355 327.285 257.278 328.036L231.153 337.494 232.395 330.697 253.487 348.783C255.164 350.221 255.358 352.746 253.92 354.423 252.482 356.1 249.957 356.294 248.28 354.856Z" fill="#2F528F" fill-opacity="0.501961"/></g></svg>