<svg width="607" height="497" xmlns="http://www.w3.org/2000/svg" xmlns:xlink="http://www.w3.org/1999/xlink" overflow="hidden"><defs><clipPath id="clip0"><rect x="60" y="69" width="607" height="497"/></clipPath></defs><g clip-path="url(#clip0)" transform="translate(-60 -69)"><rect x="119.5" y="209.5" width="274" height="185" stroke="#000000" stroke-width="1.33333" stroke-miterlimit="8" fill="#FFFFFF"/><text font-family="Yu Gothic,Yu Gothic_MSFontService,sans-serif" font-weight="400" font-size="11" transform="translate(217.125 224)">&lt;&lt; interface&gt;&gt;<tspan font-size="11" x="-88.4133" y="13">DomainClass</tspan><tspan font-style="oblique" font-weight="700" font-size="11" x="-23.08" y="13">ClassName</tspan><tspan font-style="oblique" font-weight="700" font-size="11" x="-85.4133" y="25">AttrName</tspan><tspan font-size="11" x="-32.4133" y="25">: </tspan><tspan font-style="oblique" font-weight="700" font-size="11" x="-26.4133" y="25">AttrDataType</tspan><tspan font-style="oblique" font-weight="700" font-size="11" x="-85.4133" y="38">…</tspan><tspan font-size="11" x="-88.4133" y="51">refR</tspan><tspan font-style="oblique" font-weight="700" font-size="11" x="-67.7467" y="51">IndexPhrase</tspan><tspan font-size="11" x="0.253342" y="51">: </tspan><tspan font-style="oblique" font-weight="700" font-size="11" x="6.25334" y="51">RelatedClassName</tspan><tspan font-size="11" x="-88.4133" y="64">…</tspan><tspan font-size="11" x="-85.4133" y="77">LinkedTo</tspan><tspan font-style="oblique" font-weight="700" font-size="11" x="-39.58" y="77">RIndexPhrase</tspan><tspan font-style="oblique" font-weight="700" font-size="11" x="35.92" y="77">: </tspan><tspan font-style="oblique" font-weight="700" font-size="11" x="42.2533" y="77">RelToType</tspan><tspan font-size="11" x="-85.4133" y="89">LinkedFrom</tspan><tspan font-style="oblique" font-weight="700" font-size="11" x="-26.7467" y="89">RIndexPhrase</tspan><tspan font-style="oblique" font-weight="700" font-size="11" x="48.7533" y="89">: </tspan><tspan font-style="oblique" font-weight="700" font-size="11" x="55.0867" y="89">RelFromType</tspan><tspan font-style="oblique" font-weight="700" font-size="11" x="-85.4133" y="102">…</tspan><tspan font-size="11" x="-88.4133" y="115">LinkTo</tspan><tspan font-style="oblique" font-weight="700" font-size="11" x="-54.7467" y="115">RIndexPhrase</tspan><tspan font-size="11" x="17.7533" y="115">(</tspan><tspan font-size="11" x="21.92" y="115">instance:</tspan><tspan font-style="oblique" font-weight="700" font-size="11" x="66.92" y="115">RelToType</tspan><tspan font-size="11" x="122.587" y="115">)</tspan><tspan font-size="11" x="-88.4133" y="128">LinkFrom</tspan><tspan font-style="oblique" font-weight="700" font-size="11" x="-41.9133" y="128">RIndexPhrase</tspan><tspan font-size="11" x="30.5867" y="128">(</tspan><tspan font-size="11" x="34.7533" y="128">instance:</tspan><tspan font-style="oblique" font-weight="700" font-size="11" x="79.7533" y="128">RelFromType</tspan>)<tspan font-size="11" x="-88.4133" y="141">UnlinkTo</tspan><tspan font-style="oblique" font-weight="700" font-size="11" x="-44.2467" y="141">RIndexPhrase</tspan><tspan font-size="11" x="28.2533" y="141">(</tspan><tspan font-size="11" x="32.42" y="141">instance:</tspan><tspan font-style="oblique" font-weight="700" font-size="11" x="77.42" y="141">RelToType</tspan><tspan font-size="11" x="133.087" y="141">)</tspan><tspan font-size="11" x="-88.4133" y="153">UnlinkFrom</tspan><tspan font-style="oblique" font-weight="700" font-size="11" x="-31.4133" y="153">RIndexPhrase</tspan><tspan font-size="11" x="41.0867" y="153">(</tspan><tspan font-size="11" x="45.2533" y="153">instance:</tspan><tspan font-style="oblique" font-weight="700" font-size="11" x="90.2533" y="153">RelFromType</tspan>)</text><path d="M248.5 408.5 256.5 394.5 264.5 408.5Z" stroke="#000000" stroke-width="1.33333" stroke-miterlimit="8" fill="#FFFFFF" fill-rule="evenodd"/><path d="M0 0 0.000209974 41.3058" stroke="#000000" stroke-width="0.666667" stroke-miterlimit="8" stroke-dasharray="0.666667 0.666667" fill="none" fill-rule="evenodd" transform="matrix(-1 0 0 1 256.5 408.5)"/><rect x="130.5" y="109.5" width="252" height="62" stroke="#000000" stroke-width="1.33333" stroke-miterlimit="8" fill="#FFFFFF"/><text font-family="Yu Gothic,Yu Gothic_MSFontService,sans-serif" font-weight="400" font-size="11" transform="translate(217.155 124)">&lt;&lt; interface&gt;&gt;<tspan font-size="11" x="-77.3333" y="13">DomainClassDef</tspan><tspan font-size="11" x="8.66667" y="13">: </tspan>IDisposable<tspan font-size="11" x="-74.3333" y="25">ClassName</tspan><tspan font-size="11" x="-15" y="25">: string</tspan><tspan font-size="11" x="-74.3333" y="38">validate() : bool</tspan></text><path d="M248.5 184.5 256.5 171.5 264.5 184.5Z" stroke="#000000" stroke-width="1.33333" stroke-miterlimit="8" fill="#FFFFFF" fill-rule="evenodd"/><path d="M256.5 184.5 256.5 209.225" stroke="#000000" stroke-width="0.666667" stroke-miterlimit="8" fill="none" fill-rule="evenodd"/><rect x="153.5" y="449.5" width="206" height="46" stroke="#000000" stroke-width="1.33333" stroke-miterlimit="8" fill="#FFFFFF"/><text font-family="Yu Gothic,Yu Gothic_MSFontService,sans-serif" font-weight="400" font-size="11" transform="translate(181.604 476)">DomainClass<tspan font-style="oblique" font-weight="700" font-size="11" x="65.3333" y="0">ClassName</tspan>Base<tspan font-size="11" x="-4.90331" y="43">In</tspan><tspan font-size="11" x="7.43002" y="43">Memory</tspan><tspan font-size="11" x="50.5967" y="43">のデフォルト実装</tspan></text><rect x="61.5001" y="70.5001" width="605" height="494" stroke="#D9D9D9" stroke-width="1.33333" stroke-miterlimit="8" fill="none"/><rect x="435.5" y="449.5" width="205" height="46" stroke="#000000" stroke-width="1.33333" stroke-miterlimit="8" fill="#FFFFFF"/><text font-family="Yu Gothic,Yu Gothic_MSFontService,sans-serif" font-weight="400" font-size="11" transform="translate(489.833 476)">InstanceRepository</text><path d="M359.5 472.167 434.904 472.167 434.904 472.833 359.5 472.833ZM427.071 467.546 435.564 472.5 427.071 477.455C426.912 477.548 426.708 477.494 426.615 477.335 426.522 477.176 426.576 476.972 426.735 476.879L434.735 472.212 434.735 472.788 426.735 468.121C426.576 468.029 426.522 467.825 426.615 467.666 426.708 467.507 426.912 467.453 427.071 467.546Z"/><path d="M0-0.333333 280.314-0.333333 280.314 155.024 279.647 155.024 279.647 0 279.98 0.333333 0 0.333333ZM284.935 147.189 279.98 155.682 275.026 147.189C274.933 147.03 274.987 146.826 275.146 146.733 275.305 146.64 275.509 146.694 275.602 146.853L280.268 154.853 279.693 154.853 284.359 146.853C284.452 146.694 284.656 146.64 284.815 146.733 284.974 146.826 285.028 147.03 284.935 147.189Z" transform="matrix(-1.83697e-16 -1 -1 1.83697e-16 538.181 420.481)"/><path d="M0 14.5 8 0 16 14.5 8 29Z" stroke="#000000" stroke-width="1.33333" stroke-miterlimit="8" fill="#FFFFFF" fill-rule="evenodd" transform="matrix(-1 0 0 1 545.5 420.5)"/><text font-family="Yu Gothic,Yu Gothic_MSFontService,sans-serif" font-weight="400" font-size="11" transform="translate(402.364 132)">*<tspan font-size="11" x="41.7298" y="385">全インスタンスを保持するリポジトリ</tspan></text></g></svg>