<svg width="608" height="1092" xmlns="http://www.w3.org/2000/svg" xmlns:xlink="http://www.w3.org/1999/xlink" overflow="hidden"><defs><clipPath id="clip0"><rect x="149" y="27" width="608" height="1092"/></clipPath><clipPath id="clip1"><rect x="417" y="227" width="85" height="85"/></clipPath><clipPath id="clip2"><rect x="417" y="227" width="85" height="85"/></clipPath><clipPath id="clip3"><rect x="417" y="227" width="85" height="85"/></clipPath><clipPath id="clip4"><rect x="457" y="843" width="78" height="78"/></clipPath><clipPath id="clip5"><rect x="457" y="843" width="78" height="78"/></clipPath><clipPath id="clip6"><rect x="457" y="843" width="78" height="78"/></clipPath></defs><g clip-path="url(#clip0)" transform="translate(-149 -27)"><rect x="150.5" y="29.5001" width="605" height="1088" stroke="#D9D9D9" stroke-width="1.33333" stroke-miterlimit="8" fill="none"/><path d="M263.208 542.433C261.184 531.257 271.609 520.965 286.494 519.445 292.525 518.829 298.658 519.75 303.91 522.06 309.475 514.184 322.479 511.19 332.956 515.374 334.788 516.106 336.469 517.033 337.948 518.127 342.282 511.598 352.839 508.945 361.528 512.202 363.933 513.104 366.031 514.407 367.66 516.013 374.646 509.839 386.991 509.076 395.233 514.31 398.697 516.509 401.032 519.543 401.837 522.891 413.283 525.236 420.036 534.119 416.919 542.732 416.657 543.456 416.328 544.165 415.935 544.855 425.115 553.829 422.868 566.692 410.916 573.585 407.195 575.73 402.801 577.119 398.156 577.618 398.053 587.273 387.538 595.037 374.67 594.959 370.37 594.933 366.164 594.016 362.517 592.307 358.165 603.132 342.983 609.25 328.608 605.972 322.583 604.599 317.378 601.694 313.88 597.754 299.161 604.42 280.057 600.834 271.21 589.744 271.098 589.604 270.989 589.464 270.881 589.322 261.248 590.169 252.523 585.008 251.393 577.794 250.79 573.949 252.48 570.1 256.013 567.274 247.673 563.587 244.871 555.494 249.755 549.198 252.573 545.565 257.515 543.164 263.062 542.732Z" stroke="#000000" stroke-width="1.33333" stroke-miterlimit="8" fill="#FFFFFF" fill-rule="evenodd"/><path d="M266.402 568.671C262.842 568.88 259.281 568.263 256.2 566.9M275.404 588.053C273.973 588.481 272.472 588.766 270.941 588.901M313.87 597.367C312.793 596.154 311.891 594.857 311.18 593.5M363.609 587.724C363.45 589.163 363.09 590.586 362.535 591.967M384.964 561.509C393.037 564.46 398.132 570.628 398.06 577.366M415.853 544.62C414.546 546.914 412.55 548.949 410.022 550.566M401.861 522.558C402.083 523.484 402.186 524.425 402.168 525.366M364.62 519.282C365.38 517.987 366.386 516.781 367.607 515.701M336.679 520.989C336.989 519.918 337.475 518.881 338.126 517.9M303.889 522.038C305.789 522.874 307.547 523.88 309.125 525.034M264.123 545.587C263.708 544.556 263.402 543.501 263.209 542.434" stroke="#000000" stroke-width="1.33333" stroke-miterlimit="8" fill="none" fill-rule="evenodd"/><text font-family="Yu Gothic,Yu Gothic_MSFontService,sans-serif" font-weight="400" font-size="13" transform="translate(294.451 543)">ビジネスで<tspan font-size="13" x="-6.66666" y="16">やりたいこと</tspan><tspan font-size="13" x="4.5" y="32">規模</tspan><tspan font-size="13" x="35" y="32">～</tspan><tspan font-size="13" x="52.1667" y="32">N</tspan></text><path d="M495.208 542.433C493.184 531.257 503.609 520.965 518.494 519.445 524.525 518.829 530.658 519.75 535.91 522.06 541.475 514.184 554.479 511.19 564.956 515.374 566.788 516.106 568.469 517.033 569.948 518.127 574.282 511.598 584.839 508.945 593.528 512.202 595.933 513.104 598.031 514.407 599.661 516.013 606.646 509.839 618.991 509.076 627.233 514.31 630.697 516.509 633.032 519.543 633.837 522.891 645.283 525.236 652.036 534.119 648.919 542.732 648.657 543.456 648.328 544.165 647.935 544.855 657.115 553.829 654.868 566.692 642.916 573.585 639.195 575.73 634.801 577.119 630.156 577.618 630.053 587.273 619.538 595.037 606.67 594.959 602.37 594.933 598.164 594.016 594.517 592.307 590.165 603.132 574.983 609.25 560.608 605.972 554.583 604.599 549.378 601.694 545.88 597.754 531.161 604.42 512.057 600.834 503.21 589.744 503.098 589.604 502.989 589.464 502.881 589.322 493.248 590.169 484.523 585.008 483.393 577.794 482.79 573.949 484.48 570.1 488.013 567.274 479.673 563.587 476.871 555.494 481.755 549.198 484.573 545.565 489.515 543.164 495.062 542.732Z" stroke="#000000" stroke-width="1.33333" stroke-miterlimit="8" fill="#FFFFFF" fill-rule="evenodd"/><path d="M498.402 568.671C494.842 568.88 491.281 568.263 488.2 566.9M507.405 588.053C505.973 588.481 504.472 588.766 502.941 588.901M545.87 597.367C544.793 596.154 543.891 594.857 543.18 593.5M595.609 587.724C595.45 589.163 595.09 590.586 594.535 591.967M616.964 561.509C625.037 564.46 630.132 570.628 630.06 577.366M647.853 544.62C646.546 546.914 644.55 548.949 642.022 550.566M633.861 522.558C634.083 523.484 634.186 524.425 634.168 525.366M596.62 519.282C597.38 517.987 598.386 516.781 599.607 515.701M568.679 520.989C568.989 519.918 569.475 518.881 570.126 517.9M535.889 522.038C537.789 522.874 539.547 523.88 541.125 525.034M496.123 545.587C495.708 544.556 495.402 543.501 495.209 542.434" stroke="#000000" stroke-width="1.33333" stroke-miterlimit="8" fill="none" fill-rule="evenodd"/><text font-family="Yu Gothic,Yu Gothic_MSFontService,sans-serif" font-weight="400" font-size="13" transform="translate(513.245 543)">ソフトウェアの<tspan font-size="13" x="20" y="16">設計方針</tspan><tspan font-size="13" x="16.6666" y="32">規模</tspan><tspan font-size="13" x="47.1666" y="32">～</tspan><tspan font-size="13" x="64.3333" y="32">M</tspan></text><rect x="247.5" y="679.5" width="174" height="61" stroke="#000000" stroke-width="1.33333" stroke-miterlimit="8" fill="#FFFFFF"/><text font-family="Yu Gothic,Yu Gothic_MSFontService,sans-serif" font-weight="400" font-size="13" transform="translate(300.624 714)">概念モデル</text><rect x="479.5" y="678.5" width="174" height="61" stroke="#000000" stroke-width="1.33333" stroke-miterlimit="8" fill="#FFFFFF"/><text font-family="Yu Gothic,Yu Gothic_MSFontService,sans-serif" font-weight="400" font-size="13" transform="translate(532.751 712)">変換ルール</text><path d="M347 617.5 347 619.062 322 619.062 322 617.5ZM347 620.625 347 623.75 322 623.75 322 620.625ZM347 625.312 347 643.5 359.5 643.5 334.5 668.5 309.5 643.5 322 643.5 322 625.312Z" stroke="#000000" stroke-width="1.33333" stroke-miterlimit="8" fill="#FFFFFF" fill-rule="evenodd"/><path d="M579.75 616.5 579.75 618.094 554.25 618.094 554.25 616.5ZM579.75 619.688 579.75 622.875 554.25 622.875 554.25 619.688ZM579.75 624.469 579.75 642 592.5 642 567 667.5 541.5 642 554.25 642 554.25 624.469Z" stroke="#000000" stroke-width="1.33333" stroke-miterlimit="8" fill="#FFFFFF" fill-rule="evenodd"/><path d="M418.574 815.54 434.54 799.574 451.5 816.534 468.46 799.574 484.426 815.54 467.466 832.5 484.426 849.46 468.46 865.426 451.5 848.466 434.54 865.426 418.574 849.46 435.534 832.5Z" stroke="#2F528F" stroke-width="1.33333" stroke-miterlimit="8" fill="#4472C4" fill-rule="evenodd"/><path d="M0 92 0 47.8125C-5.85641e-15 27.2745 16.6494 10.6251 37.1875 10.6251L63.75 10.625 63.75 0 85 21.25 63.75 42.5 63.75 31.875 37.1875 31.875C28.3854 31.875 21.2499 39.0105 21.2499 47.8125L21.25 92Z" stroke="#2F528F" stroke-width="1.33333" stroke-miterlimit="8" stroke-opacity="0.501961" fill="#4472C4" fill-rule="evenodd" fill-opacity="0.501961" transform="matrix(1 0 0 -1 318.5 860.5)"/><path d="M579.5 768.5 579.5 812.688C579.5 833.226 562.851 849.875 542.313 849.875L515.75 849.875 515.75 860.5 494.5 839.25 515.75 818 515.75 828.625 542.313 828.625C551.115 828.625 558.25 821.49 558.25 812.688L558.25 768.5Z" stroke="#2F528F" stroke-width="1.33333" stroke-miterlimit="8" stroke-opacity="0.501961" fill="#4472C4" fill-rule="evenodd" fill-opacity="0.501961"/><path d="M400.5 905.5 426.75 905.5 426.75 873.5 479.25 873.5 479.25 905.5 505.5 905.5 453 937.5Z" stroke="#000000" stroke-width="1.33333" stroke-miterlimit="8" fill="#FFFFFF" fill-rule="evenodd"/><path d="M407.5 949.5 526.5 949.5 526.5 1029.5 510.5 1045.5 407.5 1045.5Z" fill="#FFFFFF" fill-rule="evenodd"/><path d="M510.5 1045.5 513.7 1032.7 526.5 1029.5Z" fill="#CDCDCD" fill-rule="evenodd"/><path d="M510.5 1045.5 513.7 1032.7 526.5 1029.5 510.5 1045.5 407.5 1045.5 407.5 949.5 526.5 949.5 526.5 1029.5" stroke="#000000" stroke-width="1.33333" stroke-miterlimit="8" fill="none" fill-rule="evenodd"/><text font-family="Yu Gothic,Yu Gothic_MSFontService,sans-serif" font-weight="400" font-size="13" transform="translate(426.531 993)">ソースコード</text><path d="M392.5 960.5 510.5 960.5 510.5 1040.5 494.5 1056.5 392.5 1056.5Z" fill="#FFFFFF" fill-rule="evenodd"/><path d="M494.5 1056.5 497.7 1043.7 510.5 1040.5Z" fill="#CDCDCD" fill-rule="evenodd"/><path d="M494.5 1056.5 497.7 1043.7 510.5 1040.5 494.5 1056.5 392.5 1056.5 392.5 960.5 510.5 960.5 510.5 1040.5" stroke="#000000" stroke-width="1.33333" stroke-miterlimit="8" fill="none" fill-rule="evenodd"/><text font-family="Yu Gothic,Yu Gothic_MSFontService,sans-serif" font-weight="400" font-size="13" transform="translate(411.023 1004)">ソースコード</text><path d="M382.5 969.5 501.5 969.5 501.5 1049.5 485.5 1065.5 382.5 1065.5Z" fill="#FFFFFF" fill-rule="evenodd"/><path d="M485.5 1065.5 488.7 1052.7 501.5 1049.5Z" fill="#CDCDCD" fill-rule="evenodd"/><path d="M485.5 1065.5 488.7 1052.7 501.5 1049.5 485.5 1065.5 382.5 1065.5 382.5 969.5 501.5 969.5 501.5 1049.5" stroke="#000000" stroke-width="1.33333" stroke-miterlimit="8" fill="none" fill-rule="evenodd"/><text font-family="Yu Gothic,Yu Gothic_MSFontService,sans-serif" font-weight="400" font-size="13" transform="translate(401.644 1013)">ソースコード</text><path d="M375.5 977.5 494.5 977.5 494.5 1057.5 478.5 1073.5 375.5 1073.5Z" fill="#FFFFFF" fill-rule="evenodd"/><path d="M478.5 1073.5 481.7 1060.7 494.5 1057.5Z" fill="#CDCDCD" fill-rule="evenodd"/><path d="M478.5 1073.5 481.7 1060.7 494.5 1057.5 478.5 1073.5 375.5 1073.5 375.5 977.5 494.5 977.5 494.5 1057.5" stroke="#000000" stroke-width="1.33333" stroke-miterlimit="8" fill="none" fill-rule="evenodd"/><text font-family="Yu Gothic,Yu Gothic_MSFontService,sans-serif" font-weight="400" font-size="13" transform="translate(394.436 1021)">ソースコード</text><path d="M366.5 985.5 484.5 985.5 484.5 1065.5 468.5 1081.5 366.5 1081.5Z" fill="#FFFFFF" fill-rule="evenodd"/><path d="M468.5 1081.5 471.7 1068.7 484.5 1065.5Z" fill="#CDCDCD" fill-rule="evenodd"/><path d="M468.5 1081.5 471.7 1068.7 484.5 1065.5 468.5 1081.5 366.5 1081.5 366.5 985.5 484.5 985.5 484.5 1065.5" stroke="#000000" stroke-width="1.33333" stroke-miterlimit="8" fill="none" fill-rule="evenodd"/><text font-family="Yu Gothic,Yu Gothic_MSFontService,sans-serif" font-weight="400" font-size="13" transform="translate(385.056 1029)">ソースコード</text><path d="M0 0 12.1554 11.2598" stroke="#000000" stroke-width="0.666667" stroke-miterlimit="8" stroke-dasharray="0.666667 0.666667" fill="none" fill-rule="evenodd" transform="matrix(-1 0 0 1 407.655 949.5)"/><path d="M0 0 12.1554 11.2598" stroke="#000000" stroke-width="0.666667" stroke-miterlimit="8" stroke-dasharray="0.666667 0.666667" fill="none" fill-rule="evenodd" transform="matrix(-1 0 0 1 523.655 950.5)"/><path d="M0 0 12.1554 11.2598" stroke="#000000" stroke-width="0.666667" stroke-miterlimit="8" stroke-dasharray="0.666667 0.666667" fill="none" fill-rule="evenodd" transform="matrix(-1 0 0 1 527.655 1029.5)"/><path d="M164.5 660.5 226.878 660.5 226.878 696.5 236.5 696.5 236.5 684.5 260.5 708.5 236.5 732.5 236.5 720.5 226.878 720.5 226.878 756.5 164.5 756.5Z" stroke="#4472C4" stroke-width="1.33333" stroke-miterlimit="8" fill="#FFFFFF" fill-rule="evenodd"/><text font-family="Yu Gothic,Yu Gothic_MSFontService,sans-serif" font-weight="400" font-size="13" transform="translate(175.312 704)">テスト<tspan font-size="13" x="15" y="16">N</tspan></text><path d="M641.5 710.5 665.5 686.5 665.5 698.5 675.122 698.5 675.122 662.5 737.5 662.5 737.5 758.5 675.122 758.5 675.122 722.5 665.5 722.5 665.5 734.5Z" stroke="#4472C4" stroke-width="1.33333" stroke-miterlimit="8" fill="#FFFFFF" fill-rule="evenodd"/><text font-family="Yu Gothic,Yu Gothic_MSFontService,sans-serif" font-weight="400" font-size="13" transform="translate(685.535 706)">テスト<tspan font-size="13" x="13.8333" y="16">M</tspan></text><path d="M208.208 246.433C206.184 235.257 216.609 224.965 231.494 223.445 237.525 222.829 243.658 223.75 248.91 226.06 254.475 218.184 267.479 215.19 277.956 219.374 279.788 220.106 281.469 221.033 282.948 222.127 287.282 215.598 297.839 212.945 306.528 216.202 308.933 217.104 311.031 218.407 312.66 220.013 319.646 213.839 331.991 213.076 340.233 218.31 343.697 220.509 346.032 223.543 346.837 226.891 358.283 229.236 365.036 238.119 361.919 246.732 361.657 247.456 361.328 248.165 360.935 248.855 370.115 257.829 367.868 270.692 355.916 277.585 352.195 279.73 347.801 281.119 343.156 281.618 343.053 291.273 332.538 299.037 319.67 298.959 315.37 298.933 311.164 298.016 307.517 296.307 303.165 307.132 287.983 313.25 273.608 309.972 267.583 308.599 262.378 305.694 258.88 301.754 244.161 308.42 225.057 304.834 216.21 293.744 216.098 293.604 215.989 293.464 215.881 293.322 206.248 294.169 197.523 289.008 196.393 281.794 195.79 277.949 197.48 274.1 201.013 271.274 192.673 267.587 189.871 259.494 194.755 253.198 197.573 249.565 202.515 247.164 208.062 246.732Z" stroke="#000000" stroke-width="1.33333" stroke-miterlimit="8" fill="#FFFFFF" fill-rule="evenodd"/><path d="M211.402 272.671C207.842 272.88 204.281 272.262 201.2 270.9M220.404 292.053C218.973 292.481 217.472 292.766 215.941 292.901M258.87 301.367C257.793 300.154 256.891 298.857 256.18 297.5M308.609 291.724C308.45 293.163 308.09 294.586 307.535 295.967M329.964 265.509C338.037 268.46 343.132 274.628 343.06 281.366M360.853 248.62C359.546 250.914 357.55 252.949 355.022 254.566M346.861 226.558C347.083 227.484 347.186 228.425 347.168 229.366M309.62 223.282C310.38 221.987 311.386 220.78 312.607 219.701M281.679 224.989C281.989 223.918 282.475 222.881 283.126 221.9M248.889 226.038C250.789 226.874 252.547 227.88 254.125 229.034M209.123 249.587C208.708 248.556 208.402 247.501 208.209 246.434" stroke="#000000" stroke-width="1.33333" stroke-miterlimit="8" fill="none" fill-rule="evenodd"/><text font-family="Yu Gothic,Yu Gothic_MSFontService,sans-serif" font-weight="400" font-size="13" transform="translate(239.352 248)">ビジネスで<tspan font-size="13" x="-6.66667" y="16">やりたいこと</tspan><tspan font-size="13" x="4.5" y="32">規模</tspan><tspan font-size="13" x="35" y="32">～</tspan><tspan font-size="13" x="52.1667" y="32">N</tspan></text><path d="M386.208 141.433C384.184 130.257 394.609 119.965 409.494 118.445 415.525 117.829 421.658 118.75 426.91 121.06 432.475 113.184 445.479 110.19 455.956 114.374 457.788 115.106 459.469 116.033 460.948 117.127 465.282 110.598 475.839 107.945 484.528 111.202 486.933 112.104 489.031 113.407 490.66 115.013 497.647 108.839 509.991 108.076 518.233 113.31 521.697 115.509 524.032 118.543 524.837 121.891 536.283 124.236 543.036 133.119 539.919 141.732 539.657 142.456 539.328 143.165 538.935 143.855 548.115 152.829 545.868 165.692 533.916 172.585 530.195 174.73 525.801 176.119 521.156 176.618 521.053 186.273 510.538 194.037 497.67 193.959 493.37 193.933 489.164 193.016 485.517 191.307 481.165 202.132 465.983 208.25 451.608 204.972 445.583 203.599 440.378 200.694 436.88 196.754 422.161 203.42 403.057 199.834 394.21 188.744 394.098 188.604 393.989 188.464 393.881 188.322 384.248 189.169 375.523 184.008 374.393 176.794 373.79 172.949 375.48 169.1 379.013 166.274 370.673 162.587 367.871 154.494 372.755 148.198 375.573 144.565 380.515 142.164 386.062 141.732Z" stroke="#000000" stroke-width="1.33333" stroke-miterlimit="8" fill="#FFFFFF" fill-rule="evenodd"/><path d="M389.402 167.671C385.842 167.881 382.281 167.262 379.2 165.9M398.405 187.053C396.973 187.481 395.472 187.766 393.941 187.901M436.87 196.367C435.793 195.154 434.891 193.857 434.18 192.5M486.609 186.724C486.45 188.163 486.09 189.586 485.535 190.967M507.964 160.509C516.037 163.46 521.132 169.628 521.06 176.366M538.853 143.62C537.546 145.914 535.55 147.949 533.022 149.566M524.861 121.558C525.083 122.484 525.186 123.425 525.168 124.366M487.62 118.282C488.38 116.987 489.386 115.78 490.607 114.701M459.679 119.989C459.989 118.918 460.475 117.881 461.126 116.9M426.889 121.038C428.789 121.874 430.547 122.88 432.125 124.034M387.123 144.587C386.708 143.556 386.402 142.501 386.209 141.434" stroke="#000000" stroke-width="1.33333" stroke-miterlimit="8" fill="none" fill-rule="evenodd"/><text font-family="Yu Gothic,Yu Gothic_MSFontService,sans-serif" font-weight="400" font-size="13" transform="translate(404.156 142)">ソフトウェアの<tspan font-size="13" x="20" y="16">設計方針</tspan><tspan font-size="13" x="16.6667" y="32">規模</tspan><tspan font-size="13" x="47.1667" y="32">～</tspan><tspan font-size="13" x="64.3333" y="32">M</tspan></text><path d="M562.5 313.5 332.5 258 562.5 202.5Z" stroke="#2F528F" stroke-width="1.33333" stroke-miterlimit="8" stroke-opacity="0.501961" fill="#4472C4" fill-rule="evenodd" fill-opacity="0.501961"/><path d="M576.5 201.5 694.5 201.5 694.5 281.5 678.5 297.5 576.5 297.5Z" fill="#FFFFFF" fill-rule="evenodd"/><path d="M678.5 297.5 681.7 284.7 694.5 281.5Z" fill="#CDCDCD" fill-rule="evenodd"/><path d="M678.5 297.5 681.7 284.7 694.5 281.5 678.5 297.5 576.5 297.5 576.5 201.5 694.5 201.5 694.5 281.5" stroke="#000000" stroke-width="1.33333" stroke-miterlimit="8" fill="none" fill-rule="evenodd"/><text font-family="Yu Gothic,Yu Gothic_MSFontService,sans-serif" font-weight="400" font-size="13" transform="translate(595.133 245)">ソースコード</text><path d="M560.5 212.5 679.5 212.5 679.5 292.5 663.5 308.5 560.5 308.5Z" fill="#FFFFFF" fill-rule="evenodd"/><path d="M663.5 308.5 666.7 295.7 679.5 292.5Z" fill="#CDCDCD" fill-rule="evenodd"/><path d="M663.5 308.5 666.7 295.7 679.5 292.5 663.5 308.5 560.5 308.5 560.5 212.5 679.5 212.5 679.5 292.5" stroke="#000000" stroke-width="1.33333" stroke-miterlimit="8" fill="none" fill-rule="evenodd"/><text font-family="Yu Gothic,Yu Gothic_MSFontService,sans-serif" font-weight="400" font-size="13" transform="translate(579.626 256)">ソースコード</text><path d="M551.5 221.5 669.5 221.5 669.5 301.5 653.5 317.5 551.5 317.5Z" fill="#FFFFFF" fill-rule="evenodd"/><path d="M653.5 317.5 656.7 304.7 669.5 301.5Z" fill="#CDCDCD" fill-rule="evenodd"/><path d="M653.5 317.5 656.7 304.7 669.5 301.5 653.5 317.5 551.5 317.5 551.5 221.5 669.5 221.5 669.5 301.5" stroke="#000000" stroke-width="1.33333" stroke-miterlimit="8" fill="none" fill-rule="evenodd"/><text font-family="Yu Gothic,Yu Gothic_MSFontService,sans-serif" font-weight="400" font-size="13" transform="translate(570.247 265)">ソースコード</text><path d="M544.5 229.5 662.5 229.5 662.5 309.5 646.5 325.5 544.5 325.5Z" fill="#FFFFFF" fill-rule="evenodd"/><path d="M646.5 325.5 649.7 312.7 662.5 309.5Z" fill="#CDCDCD" fill-rule="evenodd"/><path d="M646.5 325.5 649.7 312.7 662.5 309.5 646.5 325.5 544.5 325.5 544.5 229.5 662.5 229.5 662.5 309.5" stroke="#000000" stroke-width="1.33333" stroke-miterlimit="8" fill="none" fill-rule="evenodd"/><text font-family="Yu Gothic,Yu Gothic_MSFontService,sans-serif" font-weight="400" font-size="13" transform="translate(563.038 272)">ソースコード</text><path d="M534.5 237.5 653.5 237.5 653.5 317.5 637.5 333.5 534.5 333.5Z" fill="#FFFFFF" fill-rule="evenodd"/><path d="M637.5 333.5 640.7 320.7 653.5 317.5Z" fill="#CDCDCD" fill-rule="evenodd"/><path d="M637.5 333.5 640.7 320.7 653.5 317.5 637.5 333.5 534.5 333.5 534.5 237.5 653.5 237.5 653.5 317.5" stroke="#000000" stroke-width="1.33333" stroke-miterlimit="8" fill="none" fill-rule="evenodd"/><text font-family="Yu Gothic,Yu Gothic_MSFontService,sans-serif" font-weight="400" font-size="13" transform="translate(553.659 281)">ソースコード</text><path d="M0 0 12.1554 11.2598" stroke="#000000" stroke-width="0.666667" stroke-miterlimit="8" stroke-dasharray="0.666667 0.666667" fill="none" fill-rule="evenodd" transform="matrix(-1 0 0 1 576.655 201.5)"/><path d="M0 0 12.1554 11.2598" stroke="#000000" stroke-width="0.666667" stroke-miterlimit="8" stroke-dasharray="0.666667 0.666667" fill="none" fill-rule="evenodd" transform="matrix(-1 0 0 1 692.655 202.5)"/><path d="M0 0 12.1554 11.2598" stroke="#000000" stroke-width="0.666667" stroke-miterlimit="8" stroke-dasharray="0.666667 0.666667" fill="none" fill-rule="evenodd" transform="matrix(-1 0 0 1 696.655 281.5)"/><path d="M467.75 195.5 467.75 197.094 442.25 197.094 442.25 195.5ZM467.75 198.688 467.75 201.875 442.25 201.875 442.25 198.688ZM467.75 203.469 467.75 221 480.5 221 455 246.5 429.5 221 442.25 221 442.25 203.469Z" stroke="#000000" stroke-width="1.33333" stroke-miterlimit="8" fill="#FFFFFF" fill-rule="evenodd"/><path d="M553.5 352.122 589.5 352.122 589.5 342.5 577.5 342.5 601.5 318.5 625.5 342.5 613.5 342.5 613.5 352.122 649.5 352.122 649.5 414.5 553.5 414.5Z" stroke="#ED7D31" stroke-width="1.33333" stroke-miterlimit="8" fill="#FFFFFF" fill-rule="evenodd"/><text font-family="Yu Gothic,Yu Gothic_MSFontService,sans-serif" font-weight="400" font-size="13" transform="translate(580.986 378)">テスト<tspan font-size="13" x="-1.66669" y="16">N</tspan><tspan font-size="13" x="12.1666" y="16">×</tspan><tspan font-size="13" x="29.3333" y="16">M</tspan><tspan font-size="19" x="-184.904" y="-294">従来型の開発</tspan><tspan font-size="19" x="-212.86" y="104">変換による自動生成</tspan></text><path d="M192.5 442.5 715.344 442.5" stroke="#BFBFBF" stroke-width="0.666667" stroke-miterlimit="8" fill="none" fill-rule="evenodd"/><g clip-path="url(#clip1)"><g clip-path="url(#clip2)"><g clip-path="url(#clip3)"><path d="M441.499 280.156C441.486 280.024 441.444 279.902 441.444 279.77L441.444 278.636C441.444 278.097 441.533 277.565 441.709 277.059 441.709 277.059 444.534 273.277 445.87 268.833 444.407 265.747 443.079 261.905 443.079 258.097 443.079 257.212 443.144 256.356 443.234 255.513 441.328 253.516 438.752 252.385 435.906 252.385 430.031 252.385 425.263 257.178 425.263 264.628 425.263 270.589 430.114 277.059 430.114 277.059 430.285 277.565 430.374 278.096 430.374 278.636L430.374 279.77C430.374 281.183 429.549 282.47 428.262 283.059L420.56 286.205C418.77 287.03 417.497 288.675 417.141 290.61L417.009 292.304C416.942 293.186 417.243 294.055 417.844 294.701 418.444 295.352 419.287 295.718 420.171 295.718L432.76 295.718 433.276 289.085 433.31 288.906C433.94 285.427 436.238 282.47 439.45 280.991L441.499 280.156Z" fill="#4B4B4B" fill-opacity="0.43"/><path d="M501.859 290.61C501.506 288.675 500.232 287.03 498.442 286.205L490.736 283.059C489.449 282.47 488.629 281.183 488.629 279.77L488.629 278.636C488.629 278.096 488.715 277.565 488.891 277.059 488.891 277.059 493.739 270.589 493.739 264.628 493.739 257.178 488.974 252.385 483.088 252.385 480.248 252.385 477.672 253.516 475.76 255.518 475.854 256.359 475.918 257.212 475.918 258.097 475.918 261.902 474.593 265.744 473.133 268.831 474.466 273.274 477.296 277.059 477.296 277.059 477.467 277.565 477.558 278.096 477.558 278.636L477.558 279.77C477.558 279.902 477.514 280.024 477.501 280.156L479.41 280.934C482.756 282.465 485.054 285.422 485.693 288.9L485.724 289.082 486.237 295.718 498.831 295.718C499.716 295.718 500.559 295.352 501.155 294.701 501.757 294.055 502.058 293.186 501.991 292.304L501.859 290.61Z" fill="#4B4B4B" fill-opacity="0.43"/><path d="M478.072 284.21 468.749 280.4C467.193 279.684 466.199 278.128 466.199 276.421L466.199 275.046C466.199 274.397 466.303 273.751 466.518 273.137 466.518 273.137 472.381 265.313 472.381 258.097 472.381 249.08 466.614 243.282 459.499 243.282 452.386 243.282 446.617 249.08 446.617 258.097 446.617 265.313 452.485 273.137 452.485 273.137 452.695 273.751 452.804 274.397 452.804 275.046L452.804 276.421C452.804 278.128 451.803 279.684 450.249 280.4L440.926 284.21C438.76 285.204 437.216 287.196 436.791 289.541L436.311 295.717 459.499 295.717 482.687 295.717 482.212 289.541C481.781 287.196 480.238 285.204 478.072 284.21Z" fill="#4B4B4B" fill-opacity="0.43"/></g></g></g><g clip-path="url(#clip4)"><g clip-path="url(#clip5)"><g clip-path="url(#clip6)"><path d="M499.656 905.32 499.656 898.796 492.344 898.796 492.344 905.32C491.933 905.637 491.568 906.002 491.251 906.413L474.748 906.413 474.748 913.726 491.251 913.726C492.352 915.152 494.059 916.087 496 916.087 497.941 916.087 499.648 915.152 500.749 913.726L517.252 913.726 517.252 906.413 500.749 906.413C500.432 906.002 500.067 905.637 499.656 905.32Z" fill="#4B4B4B" fill-opacity="0.5"/><path d="M457 847.913 457 869.851 535 869.851 535 847.913 457 847.913ZM523.422 858.882C523.422 860.901 521.785 862.538 519.766 862.538 517.746 862.538 516.109 860.901 516.109 858.882 516.109 856.862 517.746 855.226 519.766 855.226 521.785 855.226 523.422 856.862 523.422 858.882ZM464.321 863.741 469.188 854.007 472.561 854.007 474.054 854.023 469.188 863.757 465.807 863.757 464.321 863.741ZM474.071 863.741 478.938 854.007 482.311 854.007 483.804 854.023 478.938 863.757 475.557 863.757 474.071 863.741ZM483.821 863.741 488.688 854.007 492.061 854.007 493.554 854.023 488.688 863.757 485.307 863.757 483.821 863.741Z" fill="#4B4B4B" fill-opacity="0.5"/><path d="M499.656 871.983 492.344 871.983 492.344 874.726 457 874.726 457 896.663 535 896.663 535 874.726 499.656 874.726 499.656 871.983ZM464.321 890.553 469.188 880.819 472.561 880.819 474.054 880.836 469.188 890.569 465.807 890.569 464.321 890.553ZM474.071 890.553 478.938 880.819 482.311 880.819 483.804 880.836 478.938 890.569 475.557 890.569 474.071 890.553ZM483.821 890.553 488.688 880.819 492.061 880.819 493.554 880.836 488.688 890.569 485.307 890.569 483.821 890.553ZM516.109 885.694C516.109 883.675 517.746 882.038 519.766 882.038 521.785 882.038 523.422 883.675 523.422 885.694 523.422 887.714 521.785 889.351 519.766 889.351 517.746 889.351 516.109 887.714 516.109 885.694Z" fill="#4B4B4B" fill-opacity="0.5"/></g></g></g></g></svg>