<svg width="607" height="862" xmlns="http://www.w3.org/2000/svg" xmlns:xlink="http://www.w3.org/1999/xlink" overflow="hidden"><defs><clipPath id="clip0"><rect x="177" y="-15" width="607" height="862"/></clipPath></defs><g clip-path="url(#clip0)" transform="translate(-177 15)"><rect x="178.5" y="-12.5001" width="605" height="859" stroke="#D9D9D9" stroke-width="1.33333" stroke-miterlimit="8" fill="none"/><rect x="252.5" y="179.5" width="155" height="58" stroke="#507E32" stroke-width="1.33333" stroke-miterlimit="8" fill="#70AD47"/><text fill="#FFFFFF" font-family="Yu Gothic,Yu Gothic_MSFontService,sans-serif" font-weight="400" font-size="13" transform="translate(283.206 204)">&lt;&lt;interface&gt;&gt;<tspan font-size="13" x="-5.16666" y="16">DomainClassDe</tspan><tspan font-size="13" x="93.8333" y="16">f</tspan></text><rect x="252.5" y="283.5" width="155" height="59" stroke="#000000" stroke-width="1.33333" stroke-miterlimit="8" fill="#FFFFFF"/><text font-family="Yu Gothic,Yu Gothic_MSFontService,sans-serif" font-weight="400" font-size="13" transform="translate(294.786 309)">&lt;&lt;class&gt;&gt;<tspan font-size="13" x="-30.58" y="16">DomainClass</tspan><tspan font-weight="700" font-size="13" x="50.92" y="16">CK</tspan>Base</text><path d="M320.5 253.5 330 237.5 339.5 253.5Z" stroke="#000000" stroke-width="1.33333" stroke-miterlimit="8" fill="#FFFFFF" fill-rule="evenodd"/><path d="M330.5 253.5 330.5 283.798" stroke="#000000" stroke-width="1.33333" stroke-miterlimit="8" stroke-dasharray="5.33333 4" fill="none" fill-rule="evenodd"/><rect x="562.5" y="179.5" width="156" height="58" stroke="#507E32" stroke-width="1.33333" stroke-miterlimit="8" fill="#70AD47"/><text fill="#FFFFFF" font-family="Yu Gothic,Yu Gothic_MSFontService,sans-serif" font-weight="400" font-size="13" transform="translate(604.913 204)">&lt;&lt;class&gt;&gt;<tspan font-style="oblique" font-size="13" x="-23.9133" y="16">InstanceRepository</tspan></text><rect x="562.5" y="283.5" width="156" height="59" stroke="#000000" stroke-width="1.33333" stroke-miterlimit="8" fill="#FFFFFF"/><text font-family="Yu Gothic,Yu Gothic_MSFontService,sans-serif" font-weight="400" font-size="13" transform="translate(604.917 301)">&lt;&lt;class&gt;&gt;<tspan font-size="13" x="-29.6666" y="16">InstanceRepositoryIn</tspan><tspan font-size="13" x="10" y="32">Memory</tspan></text><path d="M631.5 253.5 640.5 237.5 649.5 253.5Z" stroke="#000000" stroke-width="1.33333" stroke-miterlimit="8" fill="#FFFFFF" fill-rule="evenodd"/><path d="M640.5 253.5 640.5 283.798" stroke="#000000" stroke-width="1.33333" stroke-miterlimit="8" fill="none" fill-rule="evenodd"/><path d="M1.31997-0.666667 78.1135-0.666667 78.1135 84.9361 77.4469 84.2694 154.894 84.2694 154.894 85.6027 76.7802 85.6027 76.7802 0 77.4469 0.666667 1.31997 0.666667ZM8.98409 5.24252-0.00308994 0 8.98409-5.24252C9.30212-5.42804 9.71033-5.32061 9.89585-5.00258 10.0814-4.68455 9.97395-4.27633 9.65591-4.09081L1.65591 0.575853 1.65591-0.575853 9.65591 4.09081C9.97395 4.27633 10.0814 4.68455 9.89585 5.00258 9.71033 5.32061 9.30212 5.42804 8.98409 5.24252Z" transform="matrix(-1 1.22465e-16 1.22465e-16 1 562.394 208.5)"/><text font-family="Yu Gothic,Yu Gothic_MSFontService,sans-serif" font-weight="400" font-size="11" transform="translate(457.997 203)">instanceRepository<tspan font-size="11" x="88.6667" y="13">1</tspan></text><path d="M590 150.5 597.5 165.5 590 180.5 582.5 165.5Z" stroke="#000000" stroke-width="1.33333" stroke-miterlimit="8" fill="#FFFFFF" fill-rule="evenodd"/><path d="M329.833 178.286 329.833 133.414 590.719 133.414 590.719 150.5 589.386 150.5 589.386 134.081 590.053 134.748 330.5 134.748 331.167 134.081 331.167 178.286ZM335.743 170.622 330.5 179.609 325.258 170.622C325.072 170.304 325.179 169.896 325.497 169.711 325.816 169.525 326.224 169.632 326.409 169.95L331.076 177.95 329.924 177.95 334.591 169.95C334.776 169.632 335.185 169.525 335.503 169.711 335.821 169.896 335.928 170.304 335.743 170.622Z"/><text font-family="Yu Gothic,Yu Gothic_MSFontService,sans-serif" font-weight="400" font-size="11" transform="translate(238.179 158)">domainInstances<tspan font-size="11" x="79.1667" y="13">*</tspan></text><rect x="252.5" y="426.5" width="155" height="58" stroke="#000000" stroke-width="1.33333" stroke-miterlimit="8" fill="#FFFFFF"/><text font-family="Yu Gothic,Yu Gothic_MSFontService,sans-serif" font-weight="400" font-size="13" transform="translate(294.785 443)">&lt;&lt;class&gt;&gt;<tspan font-size="13" x="-30.58" y="16">DomainClass</tspan><tspan font-weight="700" font-size="13" x="50.92" y="16">CK</tspan>Base<tspan font-size="13" x="-7.74667" y="32">StateMachine</tspan></text><path d="M330.5 342.5 338.5 357.5 330.5 372.5 322.5 357.5Z" stroke="#000000" stroke-width="1.33333" stroke-miterlimit="8" fill="#FFFFFF" fill-rule="evenodd"/><path d="M0.666669 1.31997 0.666772 53.5755-0.666562 53.5755-0.666664 1.31997ZM-5.2425 8.9841-6.10017e-08-0.00308994 5.24254 8.98408C5.42806 9.30211 5.32063 9.71032 5.0026 9.89584 4.68457 10.0814 4.27635 9.97394 4.09083 9.65591L-0.575849 1.65592 0.575856 1.65591-4.09079 9.65592C-4.27631 9.97396-4.68453 10.0814-5.00256 9.89586-5.3206 9.71034-5.42802 9.30213-5.2425 8.9841Z" transform="matrix(1 0 0 -1 330.5 426.076)"/><path d="M251.18 229.167 228.5 229.167 229.167 228.5 229.167 455.451 228.5 454.785 252.807 454.785 252.807 456.118 227.833 456.118 227.833 227.833 251.18 227.833ZM243.516 223.258 252.503 228.5 243.516 233.743C243.198 233.928 242.79 233.821 242.604 233.503 242.419 233.185 242.526 232.776 242.844 232.591L250.844 227.924 250.844 229.076 242.844 224.409C242.526 224.224 242.419 223.816 242.604 223.497 242.79 223.179 243.198 223.072 243.516 223.258Z"/><text font-family="Yu Gothic,Yu Gothic_MSFontService,sans-serif" font-weight="400" font-size="11" transform="translate(219.12 225)">target<tspan font-size="11" x="23.3333" y="13">1</tspan><tspan font-size="11" x="82.1897" y="193">0..1</tspan><tspan font-size="11" x="126.821" y="193">stateMachine</tspan></text><rect x="251.5" y="576.5" width="155" height="58" stroke="#41719C" stroke-width="1.33333" stroke-miterlimit="8" fill="#5B9BD5"/><text fill="#FFFFFF" font-family="Yu Gothic,Yu Gothic_MSFontService,sans-serif" font-weight="400" font-size="13" transform="translate(293.52 601)">&lt;&lt;class&gt;&gt;<tspan font-style="oblique" font-size="13" x="2.92001" y="16">EventData</tspan></text><rect x="251.5" y="683.5" width="155" height="58" stroke="#000000" stroke-width="1.33333" stroke-miterlimit="8" fill="#FFFFFF"/><text font-family="Yu Gothic,Yu Gothic_MSFontService,sans-serif" font-weight="400" font-size="13" transform="translate(293.517 708)">&lt;&lt;class&gt;&gt;<tspan font-weight="700" font-size="13" x="-2.41333" y="16">EventName</tspan></text><path d="M319.5 652.5 329 635.5 338.5 652.5Z" stroke="#000000" stroke-width="1.33333" stroke-miterlimit="8" fill="#FFFFFF" fill-rule="evenodd"/><path d="M329.5 652.5 329.5 683.62" stroke="#000000" stroke-width="1.33333" stroke-miterlimit="8" fill="none" fill-rule="evenodd"/><path d="M1.31997-0.666667 50.1392-0.666667 50.1392 523.641 0.96189 523.641 0.96189 522.307 49.4725 522.307 48.8059 522.974 48.8059 0 49.4725 0.666667 1.31997 0.666667ZM8.98409 5.24252-0.00308994 0 8.98409-5.24252C9.30212-5.42804 9.71033-5.32061 9.89585-5.00258 10.0814-4.68455 9.97395-4.27633 9.65591-4.09081L1.65591 0.575853 1.65591-0.575853 9.65591 4.09081C9.97395 4.27633 10.0814 4.68455 9.89585 5.00258 9.71033 5.32061 9.30212 5.42804 8.98409 5.24252Z" transform="matrix(-1 1.22465e-16 1.22465e-16 1 252.462 189.5)"/><text font-family="Yu Gothic,Yu Gothic_MSFontService,sans-serif" font-weight="400" font-size="11" transform="translate(202.958 187)">receiver<tspan font-size="11" x="21.5" y="13">0..1</tspan></text><path d="M516.5 534 501 541.5 485.5 534 501 526.5Z" stroke="#000000" stroke-width="1.33333" stroke-miterlimit="8" fill="#FFFFFF" fill-rule="evenodd"/><path d="M1.31984-0.666667 40.0619-0.666667 40.0619 70.9886 39.3952 70.3219 78.7904 70.3219 78.7904 71.6552 38.7286 71.6552 38.7286 0 39.3952 0.666667 1.31984 0.666667ZM8.98409 5.24252-0.00308994 0 8.98409-5.24252C9.30212-5.42804 9.71033-5.32061 9.89585-5.00258 10.0814-4.68455 9.97395-4.27633 9.65591-4.09081L1.65591 0.575853 1.65591-0.575853 9.65591 4.09081C9.97395 4.27633 10.0814 4.68455 9.89585 5.00258 9.71033 5.32061 9.30212 5.42804 8.98409 5.24252Z" transform="matrix(1 0 0 -1 406.5 605.489)"/><text font-family="Yu Gothic,Yu Gothic_MSFontService,sans-serif" font-weight="400" font-size="11" transform="translate(650.25 169)">1</text><rect x="517.5" y="501.5" width="155" height="58" stroke="#41719C" stroke-width="1.33333" stroke-miterlimit="8" fill="#5B9BD5"/><text fill="#FFFFFF" font-family="Yu Gothic,Yu Gothic_MSFontService,sans-serif" font-weight="400" font-size="13" transform="translate(559.357 526)">&lt;&lt;class&gt;&gt;<tspan font-style="oblique" font-size="13" x="-23.1666" y="16">StateMachineBase</tspan></text><rect x="517.5" y="592.5" width="155" height="59" stroke="#41719C" stroke-width="1.33333" stroke-miterlimit="8" fill="#5B9BD5"/><text fill="#FFFFFF" font-family="Yu Gothic,Yu Gothic_MSFontService,sans-serif" font-weight="400" font-size="13" transform="translate(547.773 618)">&lt;&lt;interface&gt;&gt;<tspan font-size="13" x="3.83331" y="16">StateMachine</tspan></text><path d="M0 16 9.5 0 19 16Z" stroke="#000000" stroke-width="1.33333" stroke-miterlimit="8" fill="#FFFFFF" fill-rule="evenodd" transform="matrix(1 0 0 -1 585.5 593.5)"/><path d="M0 0 0.000104987 17.4923" stroke="#000000" stroke-width="1.33333" stroke-miterlimit="8" stroke-dasharray="5.33333 4" fill="none" fill-rule="evenodd" transform="matrix(-1 0 0 1 594.5 559.5)"/><text font-family="Yu Gothic,Yu Gothic_MSFontService,sans-serif" font-weight="400" font-size="11" transform="translate(418.32 603)">0<tspan font-size="11" x="0" y="13">receivedEvents</tspan></text><path d="M0 16 9.5 0 19 16Z" stroke="#000000" stroke-width="1.33333" stroke-miterlimit="8" fill="#FFFFFF" fill-rule="evenodd" transform="matrix(1 0 0 -1 585.5 501.5)"/><path d="M407.5 455.5 594.451 455.5 594.451 485.249" stroke="#000000" stroke-width="1.33333" stroke-miterlimit="8" fill="none" fill-rule="evenodd"/><rect x="442.5" y="20.5001" width="155" height="58" stroke="#000000" stroke-width="1.33333" stroke-miterlimit="8" fill="#FFFFFF"/><text font-family="Yu Gothic,Yu Gothic_MSFontService,sans-serif" font-weight="400" font-size="13" transform="translate(484.46 45)">&lt;&lt;class&gt;&gt;<tspan font-size="13" x="-19.4133" y="16">CIM</tspan><tspan font-weight="700" font-size="13" x="5.91998" y="16">ProjName</tspan><tspan font-size="13" x="70.42" y="16">Lib</tspan></text><path d="M628.5 49.0001 613 56.5001 597.5 49.0001 613 41.5001Z" stroke="#000000" stroke-width="1.33333" stroke-miterlimit="8" fill="#FFFFFF" fill-rule="evenodd"/><path d="M1.31997-0.666667 131.687-0.666667 131.687 40.6532 130.353 40.6532 130.353 0 131.02 0.666667 1.31997 0.666667ZM8.98409 5.24252-0.00308994 0 8.98409-5.24252C9.30212-5.42804 9.71033-5.32061 9.89585-5.00258 10.0814-4.68455 9.97395-4.27633 9.65591-4.09081L1.65591 0.575853 1.65591-0.575853 9.65591 4.09081C9.97395 4.27633 10.0814 4.68455 9.89585 5.00258 9.71033 5.32061 9.30212 5.42804 8.98409 5.24252Z" transform="matrix(-1.83697e-16 -1 -1 1.83697e-16 669.153 180.52)"/><text font-family="Yu Gothic,Yu Gothic_MSFontService,sans-serif" font-weight="400" font-size="11" transform="translate(672.622 167)">InstanceRepository<tspan font-family="HGPSoeiKakupoptai,HGPSoeiKakupoptai_MSFontService,sans-serif" font-size="13" x="-268.423" y="208">概念</tspan><tspan font-family="HGPSoeiKakupoptai,HGPSoeiKakupoptai_MSFontService,sans-serif" font-size="13" x="-241.756" y="208">情報クラス毎に生成</tspan><tspan font-family="HGPSoeiKakupoptai,HGPSoeiKakupoptai_MSFontService,sans-serif" font-size="13" x="-268.423" y="224">クラスオペレーションの生成場所</tspan></text><path d="M0 0C-12 0-24 4.15876-24 8.31756-24 12.4763-9.09457 16.6351 5.81092 16.6351 20.7164 16.6351 35.6219 23.7467 35.6219 30.8583 35.6219 37.9699 23.6219 45.0816 11.6218 45.0816" stroke="#4472C4" stroke-width="0.666667" stroke-miterlimit="8" stroke-dasharray="2.66667 2" fill="none" fill-rule="evenodd" transform="matrix(-1 0 0 1 407.122 332.5)"/><text font-family="HGPSoeiKakupoptai,HGPSoeiKakupoptai_MSFontService,sans-serif" font-weight="400" font-size="13" transform="translate(267.794 528)">状態モデルがある場合に生成<tspan font-size="13" x="0" y="16">状態アクション</tspan>の生成場所</text><path d="M0 0C6.22599 0 12.452 6.25601 12.452 12.512 12.452 18.768 18.6779 25.024 24.9039 25.024" stroke="#4472C4" stroke-width="0.666667" stroke-miterlimit="8" stroke-dasharray="2.66667 2" fill="none" fill-rule="evenodd" transform="matrix(1.83697e-16 1 1 -1.83697e-16 330.5 484.5)"/><text font-family="HGPSoeiKakupoptai,HGPSoeiKakupoptai_MSFontService,sans-serif" font-weight="400" font-size="13" transform="translate(230.509 86)">ドメイン（プロジェクト）毎に生成<tspan font-size="13" x="0" y="16">ドメインオペレーションの生成場所</tspan></text><path d="M0 0C2.52842 0 5.0568 9.84444 5.0568 19.6889 5.0568 29.5333 7.58522 39.3777 10.1136 39.3777" stroke="#4472C4" stroke-width="0.666667" stroke-miterlimit="8" stroke-dasharray="2.66667 2" fill="none" fill-rule="evenodd" transform="matrix(-1 1.22465e-16 1.22465e-16 1 442.614 49.5001)"/><text font-family="HGPSoeiKakupoptai,HGPSoeiKakupoptai_MSFontService,sans-serif" font-weight="400" font-size="13" transform="translate(583.44 416)">ドメイン（プロジェクト）毎に生成</text><path d="M0 0C13.9602 0 27.9204 8.01423 27.9204 16.0285 27.9204 24.0427 41.8806 32.0569 55.8407 32.0569" stroke="#4472C4" stroke-width="0.666667" stroke-miterlimit="8" stroke-dasharray="2.66667 2" fill="none" fill-rule="evenodd" transform="matrix(1.83697e-16 1 1 -1.83697e-16 640.5 342.5)"/><path d="M0 0C11.5785 0 23.157 6.55791 23.157 13.1159 23.157 19.6738 34.7355 26.2317 46.314 26.2317" stroke="#4472C4" stroke-width="0.666667" stroke-miterlimit="8" stroke-dasharray="2.66667 2" fill="none" fill-rule="evenodd" transform="matrix(1 0 0 -1 406.5 712.732)"/><text font-family="HGPSoeiKakupoptai,HGPSoeiKakupoptai_MSFontService,sans-serif" font-weight="400" font-size="13" transform="translate(462.134 691)">状態モデルのイベントごとに生成</text><rect x="494.5" y="775.5" width="44" height="17" stroke="#507E32" stroke-width="1.33333" stroke-miterlimit="8" fill="#70AD47"/><text font-family="Yu Gothic,Yu Gothic_MSFontService,sans-serif" font-weight="400" font-size="11" transform="translate(547.387 784)">Kae.DomainModel.Csharp.Framework</text><rect x="495.5" y="803.5" width="44" height="17" stroke="#41719C" stroke-width="1.33333" stroke-miterlimit="8" fill="#5B9BD5"/><text font-family="Yu Gothic,Yu Gothic_MSFontService,sans-serif" font-weight="400" font-size="11" transform="translate(547.387 813)">Kae.StateMachine</text><path d="M473.5 761.334C473.5 753.694 479.694 747.5 487.334 747.5L753.667 747.5C761.307 747.5 767.5 753.694 767.5 761.334L767.5 816.667C767.5 824.307 761.307 830.5 753.667 830.5L487.334 830.5C479.694 830.5 473.5 824.307 473.5 816.667Z" stroke="#000000" stroke-width="0.333333" stroke-miterlimit="8" fill="none" fill-rule="evenodd"/><text font-family="Yu Gothic,Yu Gothic_MSFontService,sans-serif" font-weight="400" font-size="13" transform="translate(573.094 768)">パッケージ分類</text></g></svg>