<svg width="607" height="393" xmlns="http://www.w3.org/2000/svg" xmlns:xlink="http://www.w3.org/1999/xlink" overflow="hidden"><defs><clipPath id="clip0"><rect x="145" y="159" width="607" height="393"/></clipPath></defs><g clip-path="url(#clip0)" transform="translate(-145 -159)"><rect x="146.5" y="160.5" width="605" height="390" stroke="#D9D9D9" stroke-width="1.33333" stroke-miterlimit="8" fill="none"/><rect x="220.5" y="303.5" width="156" height="59" stroke="#000000" stroke-width="1.33333" stroke-miterlimit="8" fill="#FFFFFF"/><text font-family="Yu Gothic,Yu Gothic_MSFontService,sans-serif" font-weight="400" font-size="13" transform="translate(262.843 329)">&lt;&lt;class&gt;&gt;<tspan font-size="13" x="-30.58" y="16">DomainClass</tspan><tspan font-weight="700" font-size="13" x="50.92" y="16">CK</tspan>Base</text><rect x="220.5" y="395.5" width="156" height="58" stroke="#000000" stroke-width="1.33333" stroke-miterlimit="8" fill="#FFFFFF"/><text font-family="Yu Gothic,Yu Gothic_MSFontService,sans-serif" font-weight="400" font-size="13" transform="translate(262.843 412)">&lt;&lt;class&gt;&gt;<tspan font-size="13" x="-30.58" y="16">DomainClass</tspan><tspan font-weight="700" font-size="13" x="50.92" y="16">CK</tspan>Base<tspan font-size="13" x="-7.74666" y="32">StateMachine</tspan></text><rect x="220.5" y="212.5" width="156" height="58" stroke="#000000" stroke-width="1.33333" stroke-miterlimit="8" fill="#FFFFFF"/><text font-family="Yu Gothic,Yu Gothic_MSFontService,sans-serif" font-weight="400" font-size="13" transform="translate(262.843 237)">&lt;&lt;class&gt;&gt;<tspan font-size="13" x="-19.4133" y="16">CIM</tspan><tspan font-weight="700" font-size="13" x="5.91998" y="16">ProjName</tspan><tspan font-size="13" x="70.42" y="16">Lib</tspan></text><rect x="503.5" y="303.5" width="155" height="59" stroke="#AE5A21" stroke-width="1.33333" stroke-miterlimit="8" fill="#ED7D31"/><text fill="#FFFFFF" font-family="Yu Gothic,Yu Gothic_MSFontService,sans-serif" font-weight="400" font-size="13" transform="translate(545.082 329)">&lt;&lt;class&gt;&gt;<tspan font-style="oblique" font-size="13" x="13.8333" y="16">Logger</tspan></text><path d="M502.182 313.38 439.335 313.38 439.335 241.5 440.001 242.167 376.5 242.167 376.5 240.833 440.668 240.833 440.668 312.713 440.001 312.047 502.182 312.047ZM494.518 307.471 503.505 312.713 494.518 317.956C494.2 318.141 493.792 318.034 493.607 317.716 493.421 317.398 493.528 316.99 493.846 316.804L501.846 312.137 501.846 313.289 493.846 308.622C493.528 308.437 493.421 308.029 493.607 307.711 493.792 307.393 494.2 307.285 494.518 307.471Z"/><path d="M1.31997-0.666666 127.002-0.666562 127.002 0.666772 1.31997 0.666668ZM8.98408 5.24253-0.00308994-4.40611e-09 8.98409-5.24251C9.30212-5.42803 9.71034-5.32061 9.89586-5.00257 10.0814-4.68454 9.97395-4.27633 9.65592-4.09081L1.65591 0.575854 1.65591-0.575851 9.65591 4.09082C9.97394 4.27634 10.0814 4.68455 9.89585 5.00259 9.71033 5.32062 9.30212 5.42805 8.98408 5.24253Z" transform="matrix(-1 0 0 1 503.502 333.5)"/><path d="M1.31997-0.666667 64.1678-0.666667 64.1678 72.9393 63.5012 72.2727 127.002 72.2727 127.002 73.606 62.8345 73.606 62.8345 0 63.5012 0.666667 1.31997 0.666667ZM8.98409 5.24252-0.00308994 0 8.98409-5.24252C9.30212-5.42804 9.71033-5.32061 9.89585-5.00258 10.0814-4.68455 9.97395-4.27633 9.65591-4.09081L1.65591 0.575853 1.65591-0.575853 9.65591 4.09081C9.97395 4.27633 10.0814 4.68455 9.89585 5.00258 9.71033 5.32061 9.30212 5.42804 8.98409 5.24252Z" transform="matrix(-1 1.22465e-16 1.22465e-16 1 503.502 351.5)"/><text font-family="Yu Gothic,Yu Gothic_MSFontService,sans-serif" font-weight="400" font-size="11" transform="translate(462.465 308)">logger<tspan font-size="11" x="24.3333" y="13">1</tspan><tspan font-size="11" x="0.680939" y="21">logger</tspan><tspan font-size="11" x="25.0143" y="34">1</tspan><tspan font-size="11" x="1.36127" y="40">logger</tspan><tspan font-size="11" x="25.6946" y="53">1</tspan></text><rect x="497.5" y="484.5" width="43" height="17" stroke="#AE5A21" stroke-width="1.33333" stroke-miterlimit="8" fill="#ED7D31"/><text font-family="Yu Gothic,Yu Gothic_MSFontService,sans-serif" font-weight="400" font-size="11" transform="translate(549.973 493)">Kae.Utility.Logging</text><path d="M475.5 467C475.5 461.201 480.201 456.5 486 456.5L684 456.5C689.799 456.5 694.5 461.201 694.5 467L694.5 509C694.5 514.799 689.799 519.5 684 519.5L486 519.5C480.201 519.5 475.5 514.799 475.5 509Z" stroke="#000000" stroke-width="0.333333" stroke-miterlimit="8" fill="none" fill-rule="evenodd"/><text font-family="Yu Gothic,Yu Gothic_MSFontService,sans-serif" font-weight="400" font-size="13" transform="translate(538.047 476)">パッケージ分類</text></g></svg>