<svg width="608" height="1560" xmlns="http://www.w3.org/2000/svg" xmlns:xlink="http://www.w3.org/1999/xlink" overflow="hidden"><defs><clipPath id="clip0"><rect x="112" y="73" width="608" height="1560"/></clipPath></defs><g clip-path="url(#clip0)" transform="translate(-112 -73)"><text fill="#0000FF" font-family="MS Gothic,MS Gothic_MSFontService,sans-serif" font-weight="400" font-size="11" transform="translate(140.267 105)">public<tspan font-size="11" x="37.3333" y="0">class</tspan><tspan fill="#2B91AF" font-size="11" x="69.3333" y="0">DTDLGenerator</tspan><tspan fill="#000000" font-size="11" x="144" y="0">: </tspan><tspan fill="#000000" font-size="11" x="154.667" y="0">Kae.Tools.Generator.IGenerator</tspan><tspan fill="#000000" font-size="11" x="0" y="13">{</tspan><tspan font-size="11" x="21.3333" y="26">private</tspan><tspan fill="#000000" font-size="11" x="64" y="26">Logger </tspan><tspan fill="#000000" font-size="11" x="101.333" y="26">logger</tspan><tspan fill="#000000" font-size="11" x="133.333" y="26">;</tspan><tspan font-size="11" x="21.3333" y="38">private</tspan><tspan font-size="11" x="64" y="38">static</tspan><tspan font-size="11" x="101.333" y="38">string</tspan><tspan fill="#000000" font-size="11" x="138.667" y="38">version = </tspan><tspan fill="#A31515" font-size="11" x="192" y="38">"0.0.1"</tspan><tspan fill="#000000" font-size="11" x="229.333" y="38">;</tspan><tspan font-size="11" x="21.3333" y="51">private</tspan><tspan font-size="11" x="64" y="51">static</tspan><tspan font-size="11" x="101.333" y="51">readonly</tspan><tspan font-size="11" x="149.333" y="51">string</tspan><tspan fill="#000000" font-size="11" x="186.667" y="51">CIMOOAofOOADomainName</tspan><tspan fill="#000000" font-size="11" x="304" y="51">= </tspan><tspan fill="#A31515" font-size="11" x="314.667" y="51">"</tspan><tspan fill="#A31515" font-size="11" x="320" y="51">OOAofOOA</tspan><tspan fill="#A31515" font-size="11" x="362.667" y="51">"</tspan><tspan fill="#000000" font-size="11" x="368" y="51">;</tspan><tspan font-size="11" x="21.3333" y="64">public</tspan><tspan font-size="11" x="58.6667" y="64">string</tspan><tspan fill="#000000" font-size="11" x="96" y="64">Version { </tspan><tspan font-size="11" x="149.333" y="64">get</tspan><tspan fill="#000000" font-size="11" x="170.667" y="64">{ </tspan><tspan font-size="11" x="181.333" y="64">return</tspan><tspan fill="#000000" font-size="11" x="218.667" y="64">version; } </tspan>set<tspan fill="#000000" font-size="11" x="298.667" y="64">{ version = value; } }</tspan><tspan font-size="11" x="21.3333" y="90">private</tspan><tspan fill="#000000" font-size="11" x="64" y="90">List&lt;</tspan><tspan fill="#000000" font-size="11" x="90.6667" y="90">Kae.Tools.Generator.Context.ContextParam</tspan><tspan fill="#000000" font-size="11" x="304" y="90">&gt; </tspan><tspan fill="#000000" font-size="11" x="314.667" y="90">contextParams</tspan><tspan fill="#000000" font-size="11" x="53.3333" y="102">= </tspan><tspan font-size="11" x="64" y="102">new</tspan><tspan fill="#000000" font-size="11" x="85.3333" y="102">List&lt;</tspan><tspan fill="#000000" font-size="11" x="112" y="102">ContextParam</tspan><tspan fill="#000000" font-size="11" x="176" y="102">&gt;();</tspan><tspan font-size="11" x="21.3333" y="115">public</tspan><tspan fill="#000000" font-size="11" x="58.6667" y="115">IList</tspan><tspan fill="#000000" font-size="11" x="85.3333" y="115">&lt;</tspan><tspan fill="#000000" font-size="11" x="90.6667" y="115">ContextParam</tspan><tspan fill="#000000" font-size="11" x="154.667" y="115">&gt; </tspan><tspan fill="#000000" font-size="11" x="165.333" y="115">ContextParams</tspan><tspan fill="#000000" font-size="11" x="240" y="115">{ </tspan><tspan font-size="11" x="250.667" y="115">get</tspan><tspan fill="#000000" font-size="11" x="272" y="115">{ </tspan><tspan font-size="11" x="282.667" y="115">return</tspan><tspan fill="#000000" font-size="11" x="320" y="115">contextParams</tspan><tspan fill="#000000" font-size="11" x="389.333" y="115">; } }</tspan><tspan font-size="11" x="21.3333" y="141">public</tspan><tspan fill="#000000" font-size="11" x="58.6667" y="141">IList</tspan><tspan fill="#000000" font-size="11" x="85.3333" y="141">&lt;</tspan><tspan font-size="11" x="90.6667" y="141">string</tspan><tspan fill="#000000" font-size="11" x="122.667" y="141">&gt; </tspan><tspan fill="#000000" font-size="11" x="133.333" y="141">DomainModels</tspan><tspan fill="#000000" font-size="11" x="202.667" y="141">{ </tspan><tspan font-size="11" x="213.333" y="141">get</tspan><tspan fill="#000000" font-size="11" x="229.333" y="141">; </tspan><tspan font-size="11" x="240" y="141">set</tspan><tspan fill="#000000" font-size="11" x="256" y="141">; }</tspan><tspan font-size="11" x="21.3333" y="166">public</tspan><tspan fill="#000000" font-size="11" x="58.6667" y="166">ColoringRepository</tspan><tspan fill="#000000" font-size="11" x="160" y="166">Coloring { </tspan><tspan font-size="11" x="218.667" y="166">get</tspan><tspan fill="#000000" font-size="11" x="234.667" y="166">; </tspan><tspan font-size="11" x="245.333" y="166">set</tspan><tspan fill="#000000" font-size="11" x="261.333" y="166">; }</tspan><tspan font-size="11" x="21.3333" y="192">private</tspan><tspan fill="#000000" font-size="11" x="64" y="192">GenFolder</tspan><tspan fill="#000000" font-size="11" x="117.333" y="192">genFolder</tspan><tspan fill="#000000" font-size="11" x="165.333" y="192">;</tspan><tspan font-size="11" x="21.3333" y="218">public</tspan><tspan fill="#000000" font-size="11" x="58.6667" y="218">GenFolder</tspan><tspan fill="#000000" font-size="11" x="112" y="218">GenFolder</tspan><tspan fill="#000000" font-size="11" x="21.3333" y="230">{</tspan><tspan font-size="11" x="42.6667" y="243">get</tspan><tspan fill="#000000" font-size="11" x="64" y="243">{ </tspan><tspan font-size="11" x="74.6667" y="243">return</tspan><tspan fill="#000000" font-size="11" x="112" y="243">genFolder</tspan><tspan fill="#000000" font-size="11" x="160" y="243">; }</tspan><tspan fill="#000000" font-size="11" x="21.3333" y="256">}</tspan><tspan font-size="11" x="21.3333" y="282">public</tspan><tspan fill="#2B91AF" font-size="11" x="58.6667" y="282">DTDLGenerator</tspan><tspan fill="#000000" font-size="11" x="128" y="282">(Logger </tspan><tspan fill="#000000" font-size="11" x="170.667" y="282">logger</tspan><tspan fill="#000000" font-size="11" x="202.667" y="282">, </tspan><tspan font-size="11" x="213.333" y="282">string</tspan><tspan fill="#000000" font-size="11" x="250.667" y="282">version=</tspan>null<tspan fill="#000000" font-size="11" x="314.667" y="282">)</tspan><tspan fill="#000000" font-size="11" x="21.3333" y="294">{</tspan><tspan font-size="11" x="42.6667" y="307">if</tspan><tspan fill="#000000" font-size="11" x="58.6667" y="307">(!</tspan><tspan font-size="11" x="69.3333" y="307">string</tspan><tspan fill="#000000" font-size="11" x="101.333" y="307">.IsNullOrEmpty</tspan><tspan fill="#000000" font-size="11" x="176" y="307">(version))</tspan><tspan fill="#000000" font-size="11" x="42.6667" y="320">{</tspan><tspan fill="#000000" font-size="11" x="64" y="333">Version = version;</tspan><tspan fill="#000000" font-size="11" x="42.6667" y="346">}</tspan><tspan font-size="11" x="42.6667" y="358">this</tspan><tspan fill="#000000" font-size="11" x="64" y="358">.logger</tspan><tspan fill="#000000" font-size="11" x="106.667" y="358">= logger;</tspan><tspan fill="#000000" font-size="11" x="42.6667" y="384">CreateContext</tspan><tspan fill="#000000" font-size="11" x="112" y="384">();</tspan><tspan fill="#000000" font-size="11" x="21.3333" y="397">}</tspan><tspan font-size="11" x="21.3333" y="422">private</tspan><tspan font-size="11" x="64" y="422">string</tspan><tspan fill="#000000" font-size="11" x="101.333" y="422">OOAofOOAModelFilePath</tspan><tspan fill="#000000" font-size="11" x="213.333" y="422">;</tspan><tspan font-size="11" x="21.3333" y="435">private</tspan><tspan font-size="11" x="64" y="435">string</tspan><tspan fill="#000000" font-size="11" x="101.333" y="435">MetaDataTypeDefFilePath</tspan><tspan fill="#000000" font-size="11" x="224" y="435">;</tspan><tspan font-size="11" x="21.3333" y="448">private</tspan><tspan font-size="11" x="64" y="448">string</tspan><tspan fill="#000000" font-size="11" x="101.333" y="448">BaseDataTypeDefFilePath</tspan><tspan fill="#000000" font-size="11" x="224" y="448">;</tspan><tspan font-size="11" x="21.3333" y="461">private</tspan><tspan font-size="11" x="64" y="461">string</tspan><tspan fill="#000000" font-size="11" x="101.333" y="461">DomainModelFilePath</tspan><tspan fill="#000000" font-size="11" x="202.667" y="461">;</tspan><tspan font-size="11" x="21.3333" y="474">private</tspan><tspan font-size="11" x="64" y="474">string</tspan><tspan fill="#000000" font-size="11" x="101.333" y="474">GenFolderPath</tspan><tspan fill="#000000" font-size="11" x="170.667" y="474">;</tspan><tspan font-size="11" x="21.3333" y="486">private</tspan><tspan font-size="11" x="64" y="486">string</tspan><tspan fill="#000000" font-size="11" x="101.333" y="486">DTDLNameSpace</tspan><tspan fill="#000000" font-size="11" x="170.667" y="486">;</tspan><tspan font-size="11" x="21.3333" y="499">private</tspan><tspan font-size="11" x="64" y="499">string</tspan><tspan fill="#000000" font-size="11" x="101.333" y="499">DTDLModelVersion</tspan><tspan fill="#000000" font-size="11" x="186.667" y="499">;</tspan><tspan font-size="11" x="21.3333" y="525">private</tspan><tspan font-size="11" x="64" y="525">bool</tspan><tspan fill="#000000" font-size="11" x="90.6667" y="525">resolvedContext</tspan><tspan fill="#000000" font-size="11" x="176" y="525">= </tspan><tspan font-size="11" x="186.667" y="525">false</tspan><tspan fill="#000000" font-size="11" x="213.333" y="525">;</tspan><tspan font-size="11" x="21.3333" y="538">private</tspan><tspan font-size="11" x="64" y="538">bool</tspan><tspan fill="#000000" font-size="11" x="90.6667" y="538">loadedMetaModel</tspan><tspan fill="#000000" font-size="11" x="176" y="538">= </tspan><tspan font-size="11" x="186.667" y="538">false</tspan><tspan fill="#000000" font-size="11" x="213.333" y="538">;</tspan><tspan font-size="11" x="21.3333" y="550">private</tspan><tspan font-size="11" x="64" y="550">bool</tspan><tspan fill="#000000" font-size="11" x="90.6667" y="550">loadedDomainModels</tspan><tspan fill="#000000" font-size="11" x="192" y="550">= </tspan><tspan font-size="11" x="202.667" y="550">false</tspan><tspan fill="#000000" font-size="11" x="229.333" y="550">;</tspan><tspan font-size="11" x="21.3333" y="576">private</tspan><tspan fill="#000000" font-size="11" x="64" y="576">CIModelResolver.ConceptualInformationModelResolver</tspan><tspan fill="#000000" font-size="11" x="336" y="576">modelResolver</tspan><tspan fill="#000000" font-size="11" x="405.333" y="576">;</tspan><tspan font-size="11" x="21.3333" y="602">public</tspan><tspan font-size="11" x="58.6667" y="602">void</tspan><tspan fill="#000000" font-size="11" x="85.3333" y="602">LoadMetaModel</tspan><tspan fill="#000000" font-size="11" x="154.667" y="602">()</tspan><tspan fill="#000000" font-size="11" x="21.3333" y="614">{</tspan><tspan font-size="11" x="42.6667" y="627">if</tspan><tspan fill="#000000" font-size="11" x="58.6667" y="627">(</tspan><tspan fill="#000000" font-size="11" x="64" y="627">resolvedContext</tspan><tspan fill="#000000" font-size="11" x="144" y="627">)</tspan><tspan fill="#000000" font-size="11" x="42.6667" y="640">{</tspan><tspan fill="#000000" font-size="11" x="64" y="653">modelResolver</tspan><tspan fill="#000000" font-size="11" x="138.667" y="653">= </tspan><tspan font-size="11" x="149.333" y="653">new</tspan><tspan fill="#000000" font-size="11" x="170.667" y="653">CIModelResolver.ConceptualInformationModelResolver</tspan><tspan fill="#000000" font-size="11" x="437.333" y="653">();</tspan><tspan fill="#000000" font-size="11" x="64" y="666">modelResolver.LoadOOAofOOA</tspan><tspan fill="#000000" font-size="11" x="202.667" y="666">(</tspan><tspan fill="#000000" font-size="11" x="208" y="666">MetaDataTypeDefFilePath</tspan><tspan fill="#000000" font-size="11" x="330.667" y="666">, </tspan><tspan fill="#000000" font-size="11" x="341.333" y="666">OOAofOOAModelFilePath</tspan><tspan fill="#000000" font-size="11" x="453.333" y="666">);</tspan><tspan fill="#000000" font-size="11" x="64" y="678">logger.LogInfo</tspan><tspan fill="#000000" font-size="11" x="138.667" y="678">(</tspan><tspan fill="#A31515" font-size="11" x="144" y="678">$"Loaded $</tspan><tspan fill="#000000" font-size="11" x="197.333" y="678">{</tspan><tspan fill="#000000" font-size="11" x="202.667" y="678">OOAofOOAModelFilePath</tspan><tspan fill="#000000" font-size="11" x="314.667" y="678">}</tspan><tspan fill="#A31515" font-size="11" x="325.333" y="678">as OOA of OOA model </tspan><tspan fill="#A31515" font-size="11" x="432" y="678">schmea</tspan><tspan fill="#A31515" font-size="11" x="464" y="678">"</tspan><tspan fill="#000000" font-size="11" x="469.333" y="678">);</tspan><tspan fill="#000000" font-size="11" x="64" y="691">loadedMetaModel</tspan><tspan fill="#000000" font-size="11" x="149.333" y="691">= </tspan><tspan font-size="11" x="160" y="691">true</tspan><tspan fill="#000000" font-size="11" x="181.333" y="691">;</tspan><tspan fill="#000000" font-size="11" x="42.6667" y="704">}</tspan><tspan font-size="11" x="42.6667" y="717">else</tspan><tspan fill="#000000" font-size="11" x="42.6667" y="730">{</tspan><tspan font-size="11" x="64" y="742">throw</tspan><tspan font-size="11" x="96" y="742">new</tspan><tspan fill="#000000" font-size="11" x="117.333" y="742">ApplicationException</tspan><tspan fill="#000000" font-size="11" x="224" y="742">(</tspan><tspan fill="#A31515" font-size="11" x="229.333" y="742">"This method </tspan><tspan fill="#A31515" font-size="11" x="298.667" y="742">…"</tspan><tspan fill="#000000" font-size="11" x="314.667" y="742">);</tspan><tspan fill="#000000" font-size="11" x="42.6667" y="755">}</tspan><tspan fill="#000000" font-size="11" x="21.3333" y="768">}</tspan><tspan font-size="11" x="21.3333" y="794">public</tspan><tspan font-size="11" x="58.6667" y="794">void</tspan><tspan fill="#000000" font-size="11" x="85.3333" y="794">LoadDomainModels</tspan><tspan fill="#000000" font-size="11" x="170.667" y="794">()</tspan><tspan fill="#000000" font-size="11" x="21.3333" y="806">{</tspan><tspan font-size="11" x="42.6667" y="819">if</tspan><tspan fill="#000000" font-size="11" x="58.6667" y="819">(</tspan><tspan fill="#000000" font-size="11" x="64" y="819">loadedMetaModel</tspan><tspan fill="#000000" font-size="11" x="144" y="819">)</tspan><tspan fill="#000000" font-size="11" x="42.6667" y="832">{</tspan><tspan font-size="11" x="64" y="845">string</tspan><tspan fill="#000000" font-size="11" x="96" y="845">[] </tspan><tspan fill="#000000" font-size="11" x="112" y="845">domainModels</tspan><tspan fill="#000000" font-size="11" x="181.333" y="845">= { </tspan><tspan fill="#000000" font-size="11" x="202.667" y="845">BaseDataTypeDefFilePath</tspan><tspan fill="#000000" font-size="11" x="325.333" y="845">, </tspan><tspan fill="#000000" font-size="11" x="336" y="845">DomainModelFilePath</tspan><tspan fill="#000000" font-size="11" x="442.667" y="845">};</tspan><tspan fill="#000000" font-size="11" x="64" y="858">modelResolver.LoadCIInstances</tspan><tspan fill="#000000" font-size="11" x="218.667" y="858">(</tspan><tspan fill="#000000" font-size="11" x="224" y="858">domainModels</tspan><tspan fill="#000000" font-size="11" x="288" y="858">);</tspan><tspan fill="#000000" font-size="11" x="64" y="870">logger.LogInfo</tspan><tspan fill="#000000" font-size="11" x="138.667" y="870">(</tspan><tspan fill="#A31515" font-size="11" x="144" y="870">$"Loaded Domain Models."</tspan><tspan fill="#000000" font-size="11" x="272" y="870">);</tspan><tspan fill="#000000" font-size="11" x="64" y="883">loadedDomainModels</tspan><tspan fill="#000000" font-size="11" x="165.333" y="883">= </tspan><tspan font-size="11" x="176" y="883">true</tspan><tspan fill="#000000" font-size="11" x="197.333" y="883">;</tspan><tspan fill="#000000" font-size="11" x="42.6667" y="896">}</tspan><tspan font-size="11" x="42.6667" y="909">else</tspan><tspan fill="#000000" font-size="11" x="42.6667" y="922">{</tspan><tspan font-size="11" x="64" y="934">throw</tspan><tspan font-size="11" x="96" y="934">new</tspan><tspan fill="#000000" font-size="11" x="117.333" y="934">ApplicationException</tspan><tspan fill="#000000" font-size="11" x="224" y="934">(</tspan><tspan fill="#A31515" font-size="11" x="229.333" y="934">"This method should be called after </tspan><tspan fill="#A31515" font-size="11" x="421.333" y="934">c…"</tspan><tspan fill="#000000" font-size="11" x="442.667" y="934">);</tspan><tspan fill="#000000" font-size="11" x="42.6667" y="947">}</tspan><tspan fill="#000000" font-size="11" x="21.3333" y="960">}</tspan><tspan font-size="11" x="21.3333" y="973">public</tspan><tspan font-size="11" x="58.6667" y="973">void</tspan><tspan fill="#000000" font-size="11" x="85.3333" y="973">Generate()</tspan><tspan fill="#000000" font-size="11" x="21.3333" y="986">{</tspan><tspan font-size="11" x="42.6667" y="998">if</tspan><tspan fill="#000000" font-size="11" x="58.6667" y="998">(!</tspan><tspan fill="#000000" font-size="11" x="69.3333" y="998">loadedDomainModels</tspan><tspan fill="#000000" font-size="11" x="165.333" y="998">)</tspan><tspan fill="#000000" font-size="11" x="42.6667" y="1011">{</tspan><tspan font-size="11" x="64" y="1024">throw</tspan><tspan font-size="11" x="96" y="1024">new</tspan><tspan fill="#000000" font-size="11" x="117.333" y="1024">ApplicationException</tspan><tspan fill="#000000" font-size="11" x="224" y="1024">(</tspan><tspan fill="#A31515" font-size="11" x="229.333" y="1024">"This method should be </tspan><tspan fill="#A31515" font-size="11" x="352" y="1024">…"</tspan><tspan fill="#000000" font-size="11" x="368" y="1024">);</tspan><tspan fill="#000000" font-size="11" x="42.6667" y="1037">}</tspan><tspan font-size="11" x="42.6667" y="1050">var</tspan><tspan fill="#000000" font-size="11" x="64" y="1050">modelRepository</tspan><tspan fill="#000000" font-size="11" x="149.333" y="1050">= </tspan><tspan fill="#000000" font-size="11" x="160" y="1050">modelResolver.ModelRepository</tspan><tspan fill="#000000" font-size="11" x="314.667" y="1050">;</tspan><tspan font-size="11" x="42.6667" y="1062">var</tspan><tspan fill="#000000" font-size="11" x="64" y="1062">attrDefs</tspan><tspan fill="#000000" font-size="11" x="112" y="1062">= </tspan><tspan fill="#000000" font-size="11" x="122.667" y="1062">modelRepository.GetCIInstances</tspan><tspan fill="#000000" font-size="11" x="282.667" y="1062">(</tspan><tspan fill="#000000" font-size="11" x="288" y="1062">CIMOOAofOOADomainName</tspan><tspan fill="#000000" font-size="11" x="400" y="1062">, </tspan><tspan fill="#A31515" font-size="11" x="410.667" y="1062">"O_ATTR"</tspan><tspan fill="#000000" font-size="11" x="453.333" y="1062">);</tspan><tspan font-size="11" x="42.6667" y="1075">var</tspan><tspan fill="#000000" font-size="11" x="64" y="1075">objAttrNum</tspan><tspan fill="#000000" font-size="11" x="122.667" y="1075">= </tspan><tspan font-size="11" x="133.333" y="1075">new</tspan><tspan fill="#000000" font-size="11" x="154.667" y="1075">Dictionary&lt;</tspan>string<tspan fill="#000000" font-size="11" x="245.333" y="1075">,</tspan><tspan font-size="11" x="250.667" y="1075">int</tspan><tspan fill="#000000" font-size="11" x="266.667" y="1075">&gt;();</tspan><tspan font-size="11" x="42.6667" y="1088">foreach</tspan><tspan fill="#000000" font-size="11" x="85.3333" y="1088">(var attrDef </tspan><tspan font-size="11" x="154.667" y="1088">in</tspan><tspan fill="#000000" font-size="11" x="170.667" y="1088">attrDefs)</tspan><tspan fill="#000000" font-size="11" x="42.6667" y="1101">{</tspan><tspan font-size="11" x="64" y="1114">var</tspan><tspan fill="#000000" font-size="11" x="85.3333" y="1114">oattrDef</tspan><tspan fill="#000000" font-size="11" x="133.333" y="1114">= (</tspan><tspan fill="#000000" font-size="11" x="149.333" y="1114">CIMClassO_ATTR</tspan><tspan fill="#000000" font-size="11" x="224" y="1114">)</tspan><tspan fill="#000000" font-size="11" x="229.333" y="1114">attrDef</tspan><tspan fill="#000000" font-size="11" x="266.667" y="1114">;</tspan><tspan font-size="11" x="64" y="1126">var</tspan><tspan fill="#000000" font-size="11" x="85.3333" y="1126">attrName</tspan><tspan fill="#000000" font-size="11" x="133.333" y="1126">= </tspan><tspan fill="#000000" font-size="11" x="144" y="1126">oattrDef.Attr_Name</tspan><tspan fill="#000000" font-size="11" x="240" y="1126">;</tspan><tspan font-size="11" x="64" y="1139">var</tspan><tspan fill="#000000" font-size="11" x="85.3333" y="1139">objDef</tspan><tspan fill="#000000" font-size="11" x="122.667" y="1139">= oattrDef.LinkedToR102();</tspan><tspan font-size="11" x="64" y="1152">var</tspan><tspan fill="#000000" font-size="11" x="85.3333" y="1152">objName</tspan><tspan fill="#000000" font-size="11" x="128" y="1152">= </tspan><tspan fill="#000000" font-size="11" x="138.667" y="1152">objDef.Attr_Name</tspan><tspan fill="#000000" font-size="11" x="224" y="1152">;</tspan><tspan font-size="11" x="64" y="1165">if</tspan><tspan fill="#000000" font-size="11" x="80" y="1165">(</tspan><tspan fill="#000000" font-size="11" x="85.3333" y="1165">objAttrNum.ContainsKey</tspan><tspan fill="#000000" font-size="11" x="202.667" y="1165">(</tspan><tspan fill="#000000" font-size="11" x="208" y="1165">objName</tspan><tspan fill="#000000" font-size="11" x="245.333" y="1165">))</tspan><tspan fill="#000000" font-size="11" x="64" y="1178">{</tspan><tspan fill="#000000" font-size="11" x="85.3333" y="1190">objAttrNum</tspan><tspan fill="#000000" font-size="11" x="138.667" y="1190">[</tspan><tspan fill="#000000" font-size="11" x="144" y="1190">objName</tspan><tspan fill="#000000" font-size="11" x="181.333" y="1190">]++;</tspan><tspan fill="#000000" font-size="11" x="64" y="1203">}</tspan><tspan font-size="11" x="64" y="1216">else</tspan><tspan fill="#000000" font-size="11" x="64" y="1229">{</tspan><tspan fill="#000000" font-size="11" x="85.3333" y="1242">objAttrNum.Add</tspan><tspan fill="#000000" font-size="11" x="160" y="1242">(</tspan><tspan fill="#000000" font-size="11" x="165.333" y="1242">objName</tspan><tspan fill="#000000" font-size="11" x="202.667" y="1242">, 1);</tspan><tspan fill="#000000" font-size="11" x="64" y="1254">}</tspan><tspan fill="#000000" font-size="11" x="42.6667" y="1267">}</tspan><tspan font-size="11" x="42.6667" y="1293">var</tspan><tspan fill="#000000" font-size="11" x="64" y="1293">sysDef</tspan><tspan fill="#000000" font-size="11" x="101.333" y="1293">= </tspan><tspan fill="#000000" font-size="11" x="112" y="1293">modelRepository.GetCIInstances</tspan><tspan fill="#000000" font-size="11" x="272" y="1293">(</tspan><tspan fill="#000000" font-size="11" x="277.333" y="1293">CIMOOAofOOADomainName</tspan><tspan fill="#000000" font-size="11" x="389.333" y="1293">, </tspan><tspan fill="#A31515" font-size="11" x="400" y="1293">"S_SYS"</tspan><tspan fill="#000000" font-size="11" x="437.333" y="1293">).First();</tspan><tspan fill="#000000" font-size="11" x="42.6667" y="1306">DTDLNameSpace</tspan><tspan fill="#000000" font-size="11" x="117.333" y="1306">+= </tspan><tspan fill="#A31515" font-size="11" x="133.333" y="1306">$":</tspan><tspan fill="#000000" font-size="11" x="149.333" y="1306">{((</tspan><tspan fill="#000000" font-size="11" x="165.333" y="1306">CIMClassS_SYS</tspan><tspan fill="#000000" font-size="11" x="234.667" y="1306">)</tspan><tspan fill="#000000" font-size="11" x="240" y="1306">sysDef</tspan><tspan fill="#000000" font-size="11" x="272" y="1306">).</tspan><tspan fill="#000000" font-size="11" x="282.667" y="1306">Attr_Name</tspan><tspan fill="#000000" font-size="11" x="330.667" y="1306">}</tspan><tspan fill="#A31515" font-size="11" x="336" y="1306">"</tspan><tspan fill="#000000" font-size="11" x="341.333" y="1306">;</tspan><tspan font-size="11" x="42.6667" y="1331">var</tspan><tspan fill="#000000" font-size="11" x="64" y="1331">classDefs</tspan><tspan fill="#000000" font-size="11" x="117.333" y="1331">= </tspan><tspan fill="#000000" font-size="11" x="128" y="1331">modelRepository.GetCIInstances</tspan><tspan fill="#000000" font-size="11" x="288" y="1331">(</tspan><tspan fill="#000000" font-size="11" x="293.333" y="1331">CIMOOAofOOADomainName</tspan><tspan fill="#000000" font-size="11" x="405.333" y="1331">,</tspan><tspan fill="#A31515" font-size="11" x="410.667" y="1331">"O_OBJ"</tspan><tspan fill="#000000" font-size="11" x="448" y="1331">);</tspan><tspan font-size="11" x="42.6667" y="1344">foreach</tspan><tspan fill="#000000" font-size="11" x="80" y="1344">(var </tspan><tspan fill="#000000" font-size="11" x="106.667" y="1344">classDef</tspan><tspan font-size="11" x="154.667" y="1344">in</tspan><tspan fill="#000000" font-size="11" x="170.667" y="1344">classDefs</tspan><tspan fill="#000000" font-size="11" x="218.667" y="1344">)</tspan><tspan fill="#000000" font-size="11" x="42.6667" y="1357">{</tspan><tspan font-size="11" x="64" y="1370">var</tspan><tspan fill="#000000" font-size="11" x="85.3333" y="1370">objDef = (CIMClassO_OBJ)classDef;</tspan><tspan fill="#008000" font-size="11" x="64" y="1382">// prototype(</tspan><tspan fill="#008000" font-size="11" x="133.333" y="1382">objDef</tspan><tspan fill="#008000" font-size="11" x="165.333" y="1382">);</tspan><tspan font-size="11" x="64" y="1395">var</tspan><tspan fill="#000000" font-size="11" x="85.3333" y="1395">dtdlGen</tspan><tspan fill="#000000" font-size="11" x="128" y="1395">= </tspan><tspan font-size="11" x="138.667" y="1395">new</tspan><tspan fill="#000000" font-size="11" x="160" y="1395">template.DTDLjson</tspan><tspan fill="#000000" font-size="11" x="250.667" y="1395">(</tspan><tspan fill="#000000" font-size="11" x="256" y="1395">DTDLNameSpace</tspan><tspan fill="#000000" font-size="11" x="325.333" y="1395">, </tspan><tspan fill="#000000" font-size="11" x="336" y="1395">…);</tspan><tspan font-size="11" x="64" y="1408">var</tspan><tspan fill="#000000" font-size="11" x="85.3333" y="1408">dtdlJson</tspan><tspan fill="#000000" font-size="11" x="133.333" y="1408">= </tspan><tspan fill="#000000" font-size="11" x="144" y="1408">dtdlGen.TransformText</tspan><tspan fill="#000000" font-size="11" x="256" y="1408">();</tspan><tspan font-size="11" x="69.3333" y="1421">string</tspan><tspan fill="#000000" font-size="11" x="106.667" y="1421">dtdlFileName</tspan><tspan fill="#000000" font-size="11" x="176" y="1421">= </tspan><tspan fill="#A31515" font-size="11" x="186.667" y="1421">$"</tspan><tspan fill="#000000" font-size="11" x="197.333" y="1421">{</tspan><tspan fill="#000000" font-size="11" x="202.667" y="1421">objDef.Attr_Key_Lett</tspan><tspan fill="#000000" font-size="11" x="309.333" y="1421">}</tspan><tspan fill="#A31515" font-size="11" x="314.667" y="1421">.</tspan><tspan fill="#A31515" font-size="11" x="320" y="1421">json</tspan><tspan fill="#A31515" font-size="11" x="341.333" y="1421">"</tspan><tspan fill="#000000" font-size="11" x="346.667" y="1421">;</tspan><tspan fill="#000000" font-size="11" x="64" y="1434">genFolder.WriteContentAsync</tspan><tspan fill="#000000" font-size="11" x="208" y="1434">(</tspan><tspan fill="#A31515" font-size="11" x="213.333" y="1434">"."</tspan><tspan fill="#000000" font-size="11" x="229.333" y="1434">, </tspan><tspan fill="#000000" font-size="11" x="240" y="1434">dtdlFileName</tspan><tspan fill="#000000" font-size="11" x="304" y="1434">, </tspan><tspan fill="#000000" font-size="11" x="314.667" y="1434">dtdlJson</tspan><tspan fill="#000000" font-size="11" x="357.333" y="1434">).Wait();</tspan><tspan fill="#000000" font-size="11" x="64" y="1446">Console.WriteLine</tspan><tspan fill="#000000" font-size="11" x="154.667" y="1446">(</tspan><tspan fill="#A31515" font-size="11" x="160" y="1446">$"Generated : </tspan><tspan fill="#000000" font-size="11" x="234.667" y="1446">{</tspan><tspan fill="#000000" font-size="11" x="240" y="1446">dtdlFileName</tspan><tspan fill="#000000" font-size="11" x="304" y="1446">}</tspan><tspan fill="#A31515" font-size="11" x="309.333" y="1446">"</tspan><tspan fill="#000000" font-size="11" x="314.667" y="1446">);</tspan><tspan fill="#000000" font-size="11" x="42.6667" y="1459">}</tspan><tspan fill="#000000" font-size="11" x="21.3333" y="1472">}</tspan><tspan fill="#000000" font-size="11" x="21.3333" y="1484">…</tspan></text><rect x="114.5" y="75.5001" width="604" height="1556" stroke="#D9D9D9" stroke-width="1.33333" stroke-miterlimit="8" fill="none"/><rect x="146.5" y="116.5" width="500" height="465" stroke="#2F528F" stroke-width="3" stroke-miterlimit="8" fill="none"/><rect x="146.5" y="613.5" width="500" height="550" stroke="#2F528F" stroke-width="3" stroke-miterlimit="8" fill="none"/></g></svg>