<svg width="607" height="407" xmlns="http://www.w3.org/2000/svg" xmlns:xlink="http://www.w3.org/1999/xlink" overflow="hidden"><defs><clipPath id="clip0"><rect x="60" y="31" width="607" height="407"/></clipPath></defs><g clip-path="url(#clip0)" transform="translate(-60 -31)"><rect x="221.5" y="204.5" width="273" height="78" stroke="#000000" stroke-width="1.33333" stroke-miterlimit="8" fill="#FFFFFF"/><text font-family="Yu Gothic,Yu Gothic_MSFontService,sans-serif" font-weight="400" font-size="11" transform="translate(318.666 219)">&lt;&lt; interface&gt;&gt;<tspan font-size="11" x="-88.4133" y="13">DomainClass</tspan><tspan font-style="oblique" font-weight="700" font-size="11" x="-23.08" y="13">ClassName</tspan><tspan font-style="oblique" font-weight="700" font-size="11" x="-85.4133" y="25">…</tspan></text><path d="M349.5 296.5 358 282.5 366.5 296.5Z" stroke="#000000" stroke-width="1.33333" stroke-miterlimit="8" fill="#FFFFFF" fill-rule="evenodd"/><path d="M357.5 296.5 357.5 321.108" stroke="#000000" stroke-width="0.666667" stroke-miterlimit="8" stroke-dasharray="0.666667 0.666667" fill="none" fill-rule="evenodd"/><rect x="221.5" y="63.5001" width="273" height="103" stroke="#000000" stroke-width="1.33333" stroke-miterlimit="8" fill="#FFFFFF"/><text font-family="Yu Gothic,Yu Gothic_MSFontService,sans-serif" font-weight="400" font-size="11" transform="translate(318.666 77)">&lt;&lt; interface&gt;&gt;<tspan font-size="11" x="-88.4133" y="13">DomainClassDef</tspan><tspan font-size="11" x="-2.41336" y="13">: </tspan>IDisposable<tspan font-size="11" x="-85.4133" y="25">ClassName</tspan><tspan font-size="11" x="-26.08" y="25">: string</tspan><tspan font-size="11" x="-85.4133" y="38">validate() : </tspan><tspan font-size="11" x="-29.2467" y="38">bool</tspan><tspan font-weight="700" font-size="11" x="-85.4133" y="51">restore(</tspan><tspan font-weight="700" font-size="11" x="-44.08" y="51">props:Dictionary</tspan><tspan font-weight="700" font-size="11" x="41.42" y="51">&lt;</tspan><tspan font-weight="700" font-size="11" x="49.42" y="51">string,object</tspan><tspan font-weight="700" font-size="11" x="114.42" y="51">&gt;)</tspan><tspan font-weight="700" font-size="11" x="-85.4133" y="64">changedProperties</tspan><tspan font-weight="700" font-size="11" x="12.7533" y="64">():Dictionary&lt;</tspan><tspan font-weight="700" font-size="11" x="85.7533" y="64">string,object</tspan><tspan font-weight="700" font-size="11" x="150.753" y="64">&gt;</tspan><tspan font-weight="700" font-size="11" x="-85.4133" y="77">getProperties</tspan><tspan font-weight="700" font-size="11" x="-15.08" y="77">():Dictionary&lt;</tspan><tspan font-weight="700" font-size="11" x="57.92" y="77">string,object</tspan><tspan font-weight="700" font-size="11" x="122.92" y="77">&gt;</tspan></text><path d="M349.5 179.5 358 166.5 366.5 179.5Z" stroke="#000000" stroke-width="1.33333" stroke-miterlimit="8" fill="#FFFFFF" fill-rule="evenodd"/><path d="M357.5 179.5 357.5 204.225" stroke="#000000" stroke-width="0.666667" stroke-miterlimit="8" fill="none" fill-rule="evenodd"/><rect x="221.5" y="321.5" width="273" height="78" stroke="#000000" stroke-width="1.33333" stroke-miterlimit="8" fill="#FFFFFF"/><text font-family="Yu Gothic,Yu Gothic_MSFontService,sans-serif" font-weight="400" font-size="11" transform="translate(230.253 336)">DomainClass<tspan font-style="oblique" font-weight="700" font-size="11" x="65.3333" y="0">ClassName</tspan><tspan font-size="11" x="124" y="0">Base</tspan><tspan font-size="11" x="3" y="13">…</tspan><tspan font-weight="700" font-size="11" x="3" y="25">restore(</tspan><tspan font-weight="700" font-size="11" x="44.3333" y="25">props:Dictionary</tspan><tspan font-weight="700" font-size="11" x="129.833" y="25">&lt;</tspan><tspan font-weight="700" font-size="11" x="137.833" y="25">string,object</tspan><tspan font-weight="700" font-size="11" x="202.833" y="25">&gt;)</tspan><tspan font-weight="700" font-size="11" x="3" y="38">changedProperties</tspan><tspan font-weight="700" font-size="11" x="101.167" y="38">():Dictionary&lt;</tspan><tspan font-weight="700" font-size="11" x="174.167" y="38">string,object</tspan><tspan font-weight="700" font-size="11" x="239.167" y="38">&gt;</tspan><tspan font-weight="700" font-size="11" x="3" y="51">getProperties</tspan><tspan font-weight="700" font-size="11" x="73.3333" y="51">():Dictionary&lt;</tspan><tspan font-weight="700" font-size="11" x="146.333" y="51">string,object</tspan><tspan font-weight="700" font-size="11" x="211.333" y="51">&gt;</tspan></text><rect x="61.5001" y="32.5001" width="605" height="405" stroke="#D9D9D9" stroke-width="1.33333" stroke-miterlimit="8" fill="none"/></g></svg>