<svg width="607" height="374" xmlns="http://www.w3.org/2000/svg" xmlns:xlink="http://www.w3.org/1999/xlink" overflow="hidden"><defs><clipPath id="clip0"><rect x="60" y="31" width="607" height="374"/></clipPath></defs><g clip-path="url(#clip0)" transform="translate(-60 -31)"><rect x="61.5001" y="32.5001" width="605" height="372" stroke="#D9D9D9" stroke-width="1.33333" stroke-miterlimit="8" fill="none"/><path d="M360.5 206.5 368.5 192.5 376.5 206.5Z" stroke="#000000" stroke-width="1.33333" stroke-miterlimit="8" fill="#FFFFFF" fill-rule="evenodd"/><path d="M0 0 0.000209974 41.3058" stroke="#000000" stroke-width="0.666667" stroke-miterlimit="8" stroke-dasharray="0.666667 0.666667" fill="none" fill-rule="evenodd" transform="matrix(-1 0 0 1 368.5 206.5)"/><rect x="148.5" y="99.5001" width="431" height="93" stroke="#000000" stroke-width="1.33333" stroke-miterlimit="8" fill="#FFFFFF"/><text font-family="Yu Gothic,Yu Gothic_MSFontService,sans-serif" font-weight="400" font-size="11" transform="translate(324.953 114)">&lt;&lt; abstract &gt;&gt;<tspan font-size="11" x="-167.333" y="13">InstanceRepository</tspan><tspan font-size="11" x="-161.333" y="25">…</tspan><tspan font-style="oblique" font-weight="700" font-size="11" x="-161.333" y="38">UpdateState</tspan>(<tspan font-size="11" x="-92" y="38">DomainClassDef</tspan><tspan font-size="11" x="-6" y="38">instance, </tspan><tspan font-size="11" x="41.8333" y="38">IDictionary</tspan>&lt;string, object&gt; changed)<tspan font-style="oblique" font-weight="700" font-size="11" x="-161.333" y="51">LoadState</tspan>(<tspan font-size="11" x="-104" y="51">IDictionary</tspan><tspan font-size="11" x="-50.5" y="51">&lt;string, </tspan>IList<tspan font-size="11" x="12.6667" y="51">&lt;</tspan><tspan font-size="11" x="20.3333" y="51">IDictionary</tspan>&lt;string, object&gt;&gt; states)</text><rect x="148.5" y="253.5" width="431" height="93" stroke="#000000" stroke-width="1.33333" stroke-miterlimit="8" fill="#FFFFFF"/><text font-family="Yu Gothic,Yu Gothic_MSFontService,sans-serif" font-weight="400" font-size="11" transform="translate(157.62 267)">InstanceRepositoryInMemory<tspan font-size="11" x="6" y="13">…</tspan><tspan font-weight="700" font-size="11" x="6" y="25">UpdateState</tspan>(<tspan font-size="11" x="75.3333" y="25">DomainClassDef</tspan><tspan font-size="11" x="161.333" y="25">instance, </tspan><tspan font-size="11" x="209.167" y="25">IDictionary</tspan>&lt;string, object&gt; changed)<tspan font-weight="700" font-size="11" x="6" y="38">LoadState</tspan><tspan font-size="11" x="59.1667" y="38">(</tspan><tspan font-size="11" x="63.3333" y="38">IDictionary</tspan><tspan font-size="11" x="116.833" y="38">&lt;string, </tspan>IList<tspan font-size="11" x="180" y="38">&lt;</tspan><tspan font-size="11" x="187.667" y="38">IDictionary</tspan>&lt;string, object&gt;&gt; states)</text></g></svg>