<svg width="607" height="621" xmlns="http://www.w3.org/2000/svg" xmlns:xlink="http://www.w3.org/1999/xlink" overflow="hidden"><defs><clipPath id="clip0"><rect x="107" y="92" width="607" height="621"/></clipPath></defs><g clip-path="url(#clip0)" transform="translate(-107 -92)"><rect x="108.5" y="93.5001" width="605" height="619" stroke="#D9D9D9" stroke-width="1.33333" stroke-miterlimit="8" fill="none"/><rect x="299.5" y="139.5" width="377" height="461" stroke="#2F528F" stroke-width="1.33333" stroke-miterlimit="8" stroke-dasharray="5.33333 4" fill="none"/><text font-family="Yu Gothic,Yu Gothic_MSFontService,sans-serif" font-weight="400" font-size="13" transform="translate(441.306 155)">GeneratorBase</text><path d="M342.5 196.667C342.5 192.709 345.709 189.5 349.667 189.5L500.333 189.5C504.291 189.5 507.5 192.709 507.5 196.667L507.5 225.333C507.5 229.291 504.291 232.5 500.333 232.5L349.667 232.5C345.709 232.5 342.5 229.291 342.5 225.333Z" stroke="#000000" stroke-width="1.33333" stroke-miterlimit="8" fill="#FFFFFF" fill-rule="evenodd"/><text font-family="Yu Gothic,Yu Gothic_MSFontService,sans-serif" font-weight="400" font-size="11" transform="translate(385.944 214)">ResolveContext</text><path d="M342.5 292.667C342.5 288.709 345.709 285.5 349.667 285.5L500.333 285.5C504.291 285.5 507.5 288.709 507.5 292.667L507.5 321.333C507.5 325.291 504.291 328.5 500.333 328.5L349.667 328.5C345.709 328.5 342.5 325.291 342.5 321.333Z" stroke="#000000" stroke-width="1.33333" stroke-miterlimit="8" fill="#FFFFFF" fill-rule="evenodd"/><text font-family="Yu Gothic,Yu Gothic_MSFontService,sans-serif" font-weight="400" font-size="11" transform="translate(383.944 310)">LoadMetaModel</text><path d="M342.5 388.667C342.5 384.709 345.709 381.5 349.667 381.5L500.333 381.5C504.291 381.5 507.5 384.709 507.5 388.667L507.5 417.333C507.5 421.291 504.291 424.5 500.333 424.5L349.667 424.5C345.709 424.5 342.5 421.291 342.5 417.333Z" stroke="#000000" stroke-width="1.33333" stroke-miterlimit="8" fill="#FFFFFF" fill-rule="evenodd"/><text font-family="Yu Gothic,Yu Gothic_MSFontService,sans-serif" font-weight="400" font-size="11" transform="translate(374.944 406)">LoadDomainModels</text><path d="M342.5 484.667C342.5 480.709 345.709 477.5 349.667 477.5L500.333 477.5C504.291 477.5 507.5 480.709 507.5 484.667L507.5 513.333C507.5 517.291 504.291 520.5 500.333 520.5L349.667 520.5C345.709 520.5 342.5 517.291 342.5 513.333Z" stroke="#000000" stroke-width="1.33333" stroke-miterlimit="8" fill="#FFFFFF" fill-rule="evenodd"/><text font-family="Yu Gothic,Yu Gothic_MSFontService,sans-serif" font-weight="400" font-size="11" transform="translate(401.694 502)">Generate</text><path d="M425.167 232.5 425.167 284.513 423.833 284.513 423.833 232.5ZM429.743 276.849 424.5 285.836 419.258 276.849C419.072 276.531 419.18 276.123 419.498 275.938 419.816 275.752 420.224 275.859 420.409 276.177L425.076 284.177 423.924 284.177 428.591 276.177C428.776 275.859 429.185 275.752 429.503 275.938 429.821 276.123 429.928 276.531 429.743 276.849Z"/><path d="M425.167 328.5 425.167 380.513 423.833 380.513 423.833 328.5ZM429.743 372.849 424.5 381.836 419.258 372.849C419.072 372.531 419.18 372.123 419.498 371.938 419.816 371.752 420.224 371.859 420.409 372.177L425.076 380.177 423.924 380.177 428.591 372.177C428.776 371.859 429.185 371.752 429.503 371.938 429.821 372.123 429.928 372.531 429.743 372.849Z"/><path d="M425.167 424.5 425.167 476.513 423.833 476.513 423.833 424.5ZM429.743 468.849 424.5 477.836 419.258 468.849C419.072 468.531 419.18 468.123 419.498 467.938 419.816 467.752 420.224 467.859 420.409 468.177L425.076 476.177 423.924 476.177 428.591 468.177C428.776 467.859 429.185 467.752 429.503 467.938 429.821 468.123 429.928 468.531 429.743 468.849Z"/><path d="M556.5 332.25C556.5 335.978 577.99 339 604.5 339 631.01 339 652.5 335.978 652.5 332.25L652.5 372.75C652.5 376.478 631.01 379.5 604.5 379.5 577.99 379.5 556.5 376.478 556.5 372.75Z" fill="#FFFFFF" fill-rule="evenodd"/><path d="M556.5 332.25C556.5 328.522 577.99 325.5 604.5 325.5 631.01 325.5 652.5 328.522 652.5 332.25 652.5 335.978 631.01 339 604.5 339 577.99 339 556.5 335.978 556.5 332.25Z" fill="#FFFFFF" fill-rule="evenodd"/><path d="M652.5 332.25C652.5 335.978 631.01 339 604.5 339 577.99 339 556.5 335.978 556.5 332.25 556.5 328.522 577.99 325.5 604.5 325.5 631.01 325.5 652.5 328.522 652.5 332.25L652.5 372.75C652.5 376.478 631.01 379.5 604.5 379.5 577.99 379.5 556.5 376.478 556.5 372.75L556.5 332.25" stroke="#000000" stroke-width="1.33333" stroke-miterlimit="8" fill="none" fill-rule="evenodd"/><text font-family="Yu Gothic,Yu Gothic_MSFontService,sans-serif" font-weight="400" font-size="11" transform="translate(574.25 353)">Meta Model <tspan font-size="11" x="3.41998" y="13">Repository</tspan></text><path d="M556.5 431.125C556.5 434.784 577.99 437.75 604.5 437.75 631.01 437.75 652.5 434.784 652.5 431.125L652.5 470.875C652.5 474.534 631.01 477.5 604.5 477.5 577.99 477.5 556.5 474.534 556.5 470.875Z" fill="#FFFFFF" fill-rule="evenodd"/><path d="M556.5 431.125C556.5 427.466 577.99 424.5 604.5 424.5 631.01 424.5 652.5 427.466 652.5 431.125 652.5 434.784 631.01 437.75 604.5 437.75 577.99 437.75 556.5 434.784 556.5 431.125Z" fill="#FFFFFF" fill-rule="evenodd"/><path d="M652.5 431.125C652.5 434.784 631.01 437.75 604.5 437.75 577.99 437.75 556.5 434.784 556.5 431.125 556.5 427.466 577.99 424.5 604.5 424.5 631.01 424.5 652.5 427.466 652.5 431.125L652.5 470.875C652.5 474.534 631.01 477.5 604.5 477.5 577.99 477.5 556.5 474.534 556.5 470.875L556.5 431.125" stroke="#000000" stroke-width="1.33333" stroke-miterlimit="8" fill="none" fill-rule="evenodd"/><text font-family="Yu Gothic,Yu Gothic_MSFontService,sans-serif" font-weight="400" font-size="11" transform="translate(588.58 451)">Model <tspan font-size="11" x="-10.9133" y="13">Repository</tspan></text><path d="M507.5 307.167 604.722 307.167 604.722 319.5 604.056 319.5 604.056 307.5 604.389 307.833 507.5 307.833ZM608.389 318.166 604.389 326.166 600.389 318.166Z" fill="#4472C4"/><path d="M507.5 403.167 604.722 403.167 604.722 418.167 604.056 418.167 604.056 403.5 604.389 403.833 507.5 403.833ZM608.389 416.833 604.389 424.833 600.389 416.833Z" fill="#4472C4"/><path d="M483.167 381.834 483.167 379.167 483.833 379.167 483.833 381.834ZM483.167 377.167 483.167 374.5 483.833 374.5 483.833 377.167ZM483.167 372.5 483.167 369.834 483.833 369.834 483.833 372.5ZM483.167 367.834 483.167 365.167 483.833 365.167 483.833 367.834ZM483.167 363.167 483.167 360.5 483.833 360.5 483.833 363.167ZM483.167 358.5 483.167 355.834 483.833 355.834 483.833 358.5ZM483.167 353.834 483.167 352.167 484.833 352.167 484.833 352.833 483.5 352.833 483.833 352.5 483.833 353.834ZM486.833 352.167 489.5 352.167 489.5 352.833 486.833 352.833ZM491.5 352.167 494.166 352.167 494.166 352.833 491.5 352.833ZM496.166 352.167 498.833 352.167 498.833 352.833 496.166 352.833ZM500.833 352.167 503.5 352.167 503.5 352.833 500.833 352.833ZM505.5 352.167 508.166 352.167 508.166 352.833 505.5 352.833ZM510.166 352.167 512.833 352.167 512.833 352.833 510.166 352.833ZM514.833 352.167 517.5 352.167 517.5 352.833 514.833 352.833ZM519.5 352.167 522.166 352.167 522.166 352.833 519.5 352.833ZM524.166 352.167 526.833 352.167 526.833 352.833 524.166 352.833ZM528.833 352.167 531.5 352.167 531.5 352.833 528.833 352.833ZM533.5 352.167 536.166 352.167 536.166 352.833 533.5 352.833ZM538.166 352.167 540.833 352.167 540.833 352.833 538.166 352.833ZM542.833 352.167 545.5 352.167 545.5 352.833 542.833 352.833ZM547.5 352.167 549.5 352.167 549.5 352.833 547.5 352.833ZM548.167 348.5 556.167 352.5 548.167 356.5Z" fill="#4472C4"/><path d="M136.5 179.5 276.5 179.5 276.5 230.824C206.5 230.824 206.5 250.38 136.5 239.269Z" stroke="#000000" stroke-width="1.33333" stroke-miterlimit="8" fill="#FFFFFF" fill-rule="evenodd"/><text font-family="Yu Gothic,Yu Gothic_MSFontService,sans-serif" font-weight="400" font-size="11" transform="translate(145.6 201)">アプリから<tspan font-size="11" x="53.3333" y="0">の設定情報</tspan><tspan font-size="11" x="0" y="13">モデルファイルの場所等</tspan></text><path d="M276.5 211.167 335.833 211.167 335.833 211.833 276.5 211.833ZM334.5 207.5 342.5 211.5 334.5 215.5Z" fill="#4472C4"/><path d="M136.5 281.5 276.5 281.5 276.5 324 268 332.5 136.5 332.5Z" fill="#FFFFFF" fill-rule="evenodd"/><path d="M268 332.5 269.7 325.7 276.5 324Z" fill="#CDCDCD" fill-rule="evenodd"/><path d="M268 332.5 269.7 325.7 276.5 324 268 332.5 136.5 332.5 136.5 281.5 276.5 281.5 276.5 324" stroke="#000000" stroke-width="1.33333" stroke-miterlimit="8" fill="none" fill-rule="evenodd"/><text font-family="Yu Gothic,Yu Gothic_MSFontService,sans-serif" font-weight="400" font-size="11" transform="translate(154.472 306)">x<tspan font-size="11" x="5.16667" y="0">tumlmc_schema.sql</tspan></text><path d="M141.5 370.5 280.5 370.5 280.5 413 272 421.5 141.5 421.5Z" fill="#FFFFFF" fill-rule="evenodd"/><path d="M272 421.5 273.7 414.7 280.5 413Z" fill="#CDCDCD" fill-rule="evenodd"/><path d="M272 421.5 273.7 414.7 280.5 413 272 421.5 141.5 421.5 141.5 370.5 280.5 370.5 280.5 413" stroke="#000000" stroke-width="1.33333" stroke-miterlimit="8" fill="none" fill-rule="evenodd"/><text font-family="Yu Gothic,Yu Gothic_MSFontService,sans-serif" font-weight="400" font-size="11" transform="translate(177.304 395)">d<tspan font-size="11" x="6.16666" y="0">omain.xtuml</tspan></text><path d="M276.5 307.167 335.833 307.167 335.833 307.833 276.5 307.833ZM334.5 303.5 342.5 307.5 334.5 311.5Z" fill="#4472C4"/><path d="M136.5 376.5 276.5 376.5 276.5 419 268 427.5 136.5 427.5Z" fill="#FFFFFF" fill-rule="evenodd"/><path d="M268 427.5 269.7 420.7 276.5 419Z" fill="#CDCDCD" fill-rule="evenodd"/><path d="M268 427.5 269.7 420.7 276.5 419 268 427.5 136.5 427.5 136.5 376.5 276.5 376.5 276.5 419" stroke="#000000" stroke-width="1.33333" stroke-miterlimit="8" fill="none" fill-rule="evenodd"/><text font-family="Yu Gothic,Yu Gothic_MSFontService,sans-serif" font-weight="400" font-size="11" transform="translate(172.526 401)">d<tspan font-size="11" x="6.16666" y="0">omain.xtuml</tspan></text><path d="M129.5 383.5 269.5 383.5 269.5 425.167 261.167 433.5 129.5 433.5Z" fill="#FFFFFF" fill-rule="evenodd"/><path d="M261.167 433.5 262.833 426.833 269.5 425.167Z" fill="#CDCDCD" fill-rule="evenodd"/><path d="M261.167 433.5 262.833 426.833 269.5 425.167 261.167 433.5 129.5 433.5 129.5 383.5 269.5 383.5 269.5 425.167" stroke="#000000" stroke-width="1.33333" stroke-miterlimit="8" fill="none" fill-rule="evenodd"/><text font-family="Yu Gothic,Yu Gothic_MSFontService,sans-serif" font-weight="400" font-size="11" transform="translate(166.055 407)">d<tspan font-size="11" x="6.16667" y="0">omain.xtuml</tspan></text><path d="M276.5 403.167 335.833 403.167 335.833 403.833 276.5 403.833ZM334.5 399.5 342.5 403.5 334.5 407.5Z" fill="#4472C4"/><path d="M0-0.333333 2.66667-0.333333 2.66667 0.333333 0 0.333333ZM4.66667-0.333333 7.33333-0.333333 7.33333 0.333333 4.66667 0.333333ZM9.33333-0.333333 12-0.333333 12 0.333333 9.33333 0.333333ZM14-0.333333 16.6667-0.333333 16.6667 0.333333 14 0.333333ZM18.6667-0.333333 21.3333-0.333333 21.3333 0.333333 18.6667 0.333333ZM23.3333-0.333333 26-0.333333 26 0.333333 23.3333 0.333333ZM28-0.333333 30.6667-0.333333 30.6667 0.333333 28 0.333333ZM32.6667-0.333333 35.3333-0.333333 35.3333 0.333333 32.6667 0.333333ZM37.3333-0.333333 40-0.333333 40 0.333333 37.3333 0.333333ZM42-0.333333 44.6667-0.333333 44.6667 0.333333 42 0.333333ZM46.6667-0.333333 49.3333-0.333333 49.3333 0.333333 46.6667 0.333333ZM51.3333-0.333333 54-0.333333 54 0.333333 51.3333 0.333333ZM56-0.333333 58.6667-0.333333 58.6667 0.333333 56 0.333333ZM60.6667-0.333333 63.3333-0.333333 63.3333 0.333333 60.6667 0.333333ZM64.2814 1.3853 64.2814 4.05197 63.6147 4.05197 63.6147 1.3853ZM64.2814 6.05197 64.2814 8.71863 63.6147 8.71863 63.6147 6.05197ZM64.2814 10.7186 64.2814 13.3853 63.6147 13.3853 63.6147 10.7186ZM64.2814 15.3853 64.2814 18.052 63.6147 18.052 63.6147 15.3853ZM67.948 18.6666 63.948 26.6666 59.948 18.6666Z" fill="#4472C4" transform="matrix(-1 1.22465e-16 1.22465e-16 1 556.448 451.5)"/><path d="M529.5 523.5 669.5 523.5 669.5 565.167 661.167 573.5 529.5 573.5Z" fill="#FFFFFF" fill-rule="evenodd"/><path d="M661.167 573.5 662.833 566.833 669.5 565.167Z" fill="#CDCDCD" fill-rule="evenodd"/><path d="M661.167 573.5 662.833 566.833 669.5 565.167 661.167 573.5 529.5 573.5 529.5 523.5 669.5 523.5 669.5 565.167" stroke="#000000" stroke-width="1.33333" stroke-miterlimit="8" fill="none" fill-rule="evenodd"/><text font-family="Yu Gothic,Yu Gothic_MSFontService,sans-serif" font-weight="400" font-size="11" transform="translate(585.777 547)">xxx.tt</text><path d="M525.5 531.5 664.5 531.5 664.5 574 656 582.5 525.5 582.5Z" fill="#FFFFFF" fill-rule="evenodd"/><path d="M656 582.5 657.7 575.7 664.5 574Z" fill="#CDCDCD" fill-rule="evenodd"/><path d="M656 582.5 657.7 575.7 664.5 574 656 582.5 525.5 582.5 525.5 531.5 664.5 531.5 664.5 574" stroke="#000000" stroke-width="1.33333" stroke-miterlimit="8" fill="none" fill-rule="evenodd"/><text font-family="Yu Gothic,Yu Gothic_MSFontService,sans-serif" font-weight="400" font-size="11" transform="translate(581.444 556)">xxx.tt</text><path d="M521.5 538.5 661.5 538.5 661.5 580.167 653.167 588.5 521.5 588.5Z" fill="#FFFFFF" fill-rule="evenodd"/><path d="M653.167 588.5 654.833 581.833 661.5 580.167Z" fill="#CDCDCD" fill-rule="evenodd"/><path d="M653.167 588.5 654.833 581.833 661.5 580.167 653.167 588.5 521.5 588.5 521.5 538.5 661.5 538.5 661.5 580.167" stroke="#000000" stroke-width="1.33333" stroke-miterlimit="8" fill="none" fill-rule="evenodd"/><text font-family="Yu Gothic,Yu Gothic_MSFontService,sans-serif" font-weight="400" font-size="11" transform="translate(577.766 562)">xxx.tt</text><path d="M0-0.333333 2.66667-0.333333 2.66667 0.333333 0 0.333333ZM4.66667-0.333333 7.33333-0.333333 7.33333 0.333333 4.66667 0.333333ZM9.33333-0.333333 12-0.333333 12 0.333333 9.33333 0.333333ZM14-0.333333 16.6667-0.333333 16.6667 0.333333 14 0.333333ZM18.6667-0.333333 21.3333-0.333333 21.3333 0.333333 18.6667 0.333333ZM23.3333-0.333333 26-0.333333 26 0.333333 23.3333 0.333333ZM28-0.333333 30.6667-0.333333 30.6667 0.333333 28 0.333333ZM32.6667-0.333333 35.3333-0.333333 35.3333 0.333333 32.6667 0.333333ZM37.3333-0.333333 40-0.333333 40 0.333333 37.3333 0.333333ZM40.7774 1.55591 40.7774 4.22257 40.1108 4.22257 40.1108 1.55591ZM40.7774 6.22257 40.7774 8.88924 40.1108 8.88924 40.1108 6.22257ZM40.7774 10.8892 40.7774 13.5559 40.1108 13.5559 40.1108 10.8892ZM40.7774 15.5559 40.7774 18.2226 40.1108 18.2226 40.1108 15.5559ZM40.7774 20.2226 40.7774 22.8892 40.1108 22.8892 40.1108 20.2226ZM40.7774 24.8892 40.7774 27.5559 40.1108 27.5559 40.1108 24.8892ZM40.7774 29.5559 40.7774 32.2226 40.1108 32.2226 40.1108 29.5559ZM40.7774 34.2226 40.7774 36.8892 40.1108 36.8892 40.1108 34.2226ZM40.7774 38.8892 40.7774 41.5559 40.1108 41.5559 40.1108 38.8892ZM40.7774 43.5559 40.7774 46.2226 40.1108 46.2226 40.1108 43.5559ZM40.7774 48.2226 40.7774 50.8892 40.1108 50.8892 40.1108 48.2226ZM40.7774 52.8892 40.7774 55.5559 40.1108 55.5559 40.1108 52.8892ZM40.7774 57.5559 40.7774 60.2226 40.1108 60.2226 40.1108 57.5559ZM40.7774 62.2226 40.7774 64.8892 40.1108 64.8892 40.1108 62.2226ZM40.7774 66.8892 40.7774 69.5559 40.1108 69.5559 40.1108 66.8892ZM40.7774 71.5559 40.7774 74.2226 40.1108 74.2226 40.1108 71.5559ZM40.7774 76.2226 40.7774 78.8892 40.1108 78.8892 40.1108 76.2226ZM44.4441 79.3333 40.4441 87.3333 36.4441 79.3333Z" fill="#4472C4" transform="matrix(-1.83697e-16 -1 -1 1.83697e-16 594.833 531.944)"/><path d="M360.5 613.5 500.5 613.5 500.5 656 492 664.5 360.5 664.5Z" fill="#FFFFFF" fill-rule="evenodd"/><path d="M492 664.5 493.7 657.7 500.5 656Z" fill="#CDCDCD" fill-rule="evenodd"/><path d="M492 664.5 493.7 657.7 500.5 656 492 664.5 360.5 664.5 360.5 613.5 500.5 613.5 500.5 656" stroke="#000000" stroke-width="1.33333" stroke-miterlimit="8" fill="none" fill-rule="evenodd"/><text font-family="Yu Gothic,Yu Gothic_MSFontService,sans-serif" font-weight="400" font-size="11" transform="translate(416.729 638)">xxx.tt</text><path d="M356.5 622.5 495.5 622.5 495.5 664.167 487.167 672.5 356.5 672.5Z" fill="#FFFFFF" fill-rule="evenodd"/><path d="M487.167 672.5 488.833 665.833 495.5 664.167Z" fill="#CDCDCD" fill-rule="evenodd"/><path d="M487.167 672.5 488.833 665.833 495.5 664.167 487.167 672.5 356.5 672.5 356.5 622.5 495.5 622.5 495.5 664.167" stroke="#000000" stroke-width="1.33333" stroke-miterlimit="8" fill="none" fill-rule="evenodd"/><text font-family="Yu Gothic,Yu Gothic_MSFontService,sans-serif" font-weight="400" font-size="11" transform="translate(412.396 646)">xxx.tt</text><path d="M352.5 628.5 492.5 628.5 492.5 671 484 679.5 352.5 679.5Z" fill="#FFFFFF" fill-rule="evenodd"/><path d="M484 679.5 485.7 672.7 492.5 671Z" fill="#CDCDCD" fill-rule="evenodd"/><path d="M484 679.5 485.7 672.7 492.5 671 484 679.5 352.5 679.5 352.5 628.5 492.5 628.5 492.5 671" stroke="#000000" stroke-width="1.33333" stroke-miterlimit="8" fill="none" fill-rule="evenodd"/><text font-family="Yu Gothic,Yu Gothic_MSFontService,sans-serif" font-weight="400" font-size="11" transform="translate(386.468 653)">sourcecode.cs</text><path d="M424.833 520.497 425.723 615.487 425.056 615.493 424.167 520.503ZM429.377 614.119 425.452 622.156 421.377 614.194Z" fill="#4472C4"/></g></svg>