<svg width="608" height="677" xmlns="http://www.w3.org/2000/svg" xmlns:xlink="http://www.w3.org/1999/xlink" overflow="hidden"><defs><clipPath id="clip0"><rect x="112" y="28" width="608" height="677"/></clipPath></defs><g clip-path="url(#clip0)" transform="translate(-112 -28)"><rect x="114.5" y="29.5001" width="604" height="675" stroke="#D9D9D9" stroke-width="1.33333" stroke-miterlimit="8" fill="none"/><rect x="299.5" y="139.5" width="229" height="461" stroke="#2F528F" stroke-width="1.33333" stroke-miterlimit="8" stroke-dasharray="5.33333 4" fill="none"/><text font-family="Yu Gothic,Yu Gothic_MSFontService,sans-serif" font-weight="400" font-size="13" transform="translate(367.083 155)">GeneratorBase</text><path d="M342.5 196.667C342.5 192.709 345.709 189.5 349.667 189.5L500.333 189.5C504.291 189.5 507.5 192.709 507.5 196.667L507.5 225.333C507.5 229.291 504.291 232.5 500.333 232.5L349.667 232.5C345.709 232.5 342.5 229.291 342.5 225.333Z" stroke="#000000" stroke-width="1.33333" stroke-miterlimit="8" fill="#FFFFFF" fill-rule="evenodd"/><text font-family="Yu Gothic,Yu Gothic_MSFontService,sans-serif" font-weight="400" font-size="11" transform="translate(385.944 214)">ResolveContext</text><path d="M342.5 292.667C342.5 288.709 345.709 285.5 349.667 285.5L500.333 285.5C504.291 285.5 507.5 288.709 507.5 292.667L507.5 321.333C507.5 325.291 504.291 328.5 500.333 328.5L349.667 328.5C345.709 328.5 342.5 325.291 342.5 321.333Z" stroke="#000000" stroke-width="1.33333" stroke-miterlimit="8" fill="#FFFFFF" fill-rule="evenodd"/><text font-family="Yu Gothic,Yu Gothic_MSFontService,sans-serif" font-weight="400" font-size="11" transform="translate(383.944 310)">LoadMetaModel</text><path d="M342.5 388.667C342.5 384.709 345.709 381.5 349.667 381.5L500.333 381.5C504.291 381.5 507.5 384.709 507.5 388.667L507.5 417.333C507.5 421.291 504.291 424.5 500.333 424.5L349.667 424.5C345.709 424.5 342.5 421.291 342.5 417.333Z" stroke="#000000" stroke-width="1.33333" stroke-miterlimit="8" fill="#FFFFFF" fill-rule="evenodd"/><text font-family="Yu Gothic,Yu Gothic_MSFontService,sans-serif" font-weight="400" font-size="11" transform="translate(374.944 406)">LoadDomainModels</text><path d="M342.5 484.667C342.5 480.709 345.709 477.5 349.667 477.5L500.333 477.5C504.291 477.5 507.5 480.709 507.5 484.667L507.5 513.333C507.5 517.291 504.291 520.5 500.333 520.5L349.667 520.5C345.709 520.5 342.5 517.291 342.5 513.333Z" stroke="#000000" stroke-width="1.33333" stroke-miterlimit="8" fill="#FFFFFF" fill-rule="evenodd"/><text font-family="Yu Gothic,Yu Gothic_MSFontService,sans-serif" font-weight="400" font-size="11" transform="translate(401.694 502)">Generate</text><path d="M425.167 232.5 425.167 284.513 423.833 284.513 423.833 232.5ZM429.743 276.849 424.5 285.836 419.258 276.849C419.072 276.531 419.18 276.123 419.498 275.938 419.816 275.752 420.224 275.859 420.409 276.177L425.076 284.177 423.924 284.177 428.591 276.177C428.776 275.859 429.185 275.752 429.503 275.938 429.821 276.123 429.928 276.531 429.743 276.849Z"/><path d="M425.167 328.5 425.167 380.513 423.833 380.513 423.833 328.5ZM429.743 372.849 424.5 381.836 419.258 372.849C419.072 372.531 419.18 372.123 419.498 371.938 419.816 371.752 420.224 371.859 420.409 372.177L425.076 380.177 423.924 380.177 428.591 372.177C428.776 371.859 429.185 371.752 429.503 371.938 429.821 372.123 429.928 372.531 429.743 372.849Z"/><path d="M425.167 424.5 425.167 476.513 423.833 476.513 423.833 424.5ZM429.743 468.849 424.5 477.836 419.258 468.849C419.072 468.531 419.18 468.123 419.498 467.938 419.816 467.752 420.224 467.859 420.409 468.177L425.076 476.177 423.924 476.177 428.591 468.177C428.776 467.859 429.185 467.752 429.503 467.938 429.821 468.123 429.928 468.531 429.743 468.849Z"/><path d="M136.5 179.5 276.5 179.5 276.5 230.824C206.5 230.824 206.5 250.38 136.5 239.269Z" stroke="#000000" stroke-width="1.33333" stroke-miterlimit="8" fill="#FFFFFF" fill-rule="evenodd"/><text font-family="Yu Gothic,Yu Gothic_MSFontService,sans-serif" font-weight="400" font-size="11" transform="translate(145.6 201)">アプリから<tspan font-size="11" x="53.3333" y="0">の設定情報</tspan><tspan font-size="11" x="0" y="13">モデルファイルの場所等</tspan></text><path d="M276.5 211.167 335.833 211.167 335.833 211.833 276.5 211.833ZM334.5 207.5 342.5 211.5 334.5 215.5Z" fill="#4472C4"/><path d="M136.5 281.5 276.5 281.5 276.5 324 268 332.5 136.5 332.5Z" fill="#FFFFFF" fill-rule="evenodd"/><path d="M268 332.5 269.7 325.7 276.5 324Z" fill="#CDCDCD" fill-rule="evenodd"/><path d="M268 332.5 269.7 325.7 276.5 324 268 332.5 136.5 332.5 136.5 281.5 276.5 281.5 276.5 324" stroke="#000000" stroke-width="1.33333" stroke-miterlimit="8" fill="none" fill-rule="evenodd"/><text font-family="Yu Gothic,Yu Gothic_MSFontService,sans-serif" font-weight="400" font-size="11" transform="translate(154.472 306)">x<tspan font-size="11" x="5.16667" y="0">tumlmc_schema.sql</tspan></text><path d="M141.5 370.5 280.5 370.5 280.5 413 272 421.5 141.5 421.5Z" fill="#FFFFFF" fill-rule="evenodd"/><path d="M272 421.5 273.7 414.7 280.5 413Z" fill="#CDCDCD" fill-rule="evenodd"/><path d="M272 421.5 273.7 414.7 280.5 413 272 421.5 141.5 421.5 141.5 370.5 280.5 370.5 280.5 413" stroke="#000000" stroke-width="1.33333" stroke-miterlimit="8" fill="none" fill-rule="evenodd"/><text font-family="Yu Gothic,Yu Gothic_MSFontService,sans-serif" font-weight="400" font-size="11" transform="translate(177.304 395)">d<tspan font-size="11" x="6.16666" y="0">omain.xtuml</tspan></text><path d="M276.5 307.167 335.833 307.167 335.833 307.833 276.5 307.833ZM334.5 303.5 342.5 307.5 334.5 311.5Z" fill="#4472C4"/><path d="M136.5 376.5 276.5 376.5 276.5 419 268 427.5 136.5 427.5Z" fill="#FFFFFF" fill-rule="evenodd"/><path d="M268 427.5 269.7 420.7 276.5 419Z" fill="#CDCDCD" fill-rule="evenodd"/><path d="M268 427.5 269.7 420.7 276.5 419 268 427.5 136.5 427.5 136.5 376.5 276.5 376.5 276.5 419" stroke="#000000" stroke-width="1.33333" stroke-miterlimit="8" fill="none" fill-rule="evenodd"/><text font-family="Yu Gothic,Yu Gothic_MSFontService,sans-serif" font-weight="400" font-size="11" transform="translate(172.526 401)">d<tspan font-size="11" x="6.16666" y="0">omain.xtuml</tspan></text><path d="M129.5 383.5 269.5 383.5 269.5 425.167 261.167 433.5 129.5 433.5Z" fill="#FFFFFF" fill-rule="evenodd"/><path d="M261.167 433.5 262.833 426.833 269.5 425.167Z" fill="#CDCDCD" fill-rule="evenodd"/><path d="M261.167 433.5 262.833 426.833 269.5 425.167 261.167 433.5 129.5 433.5 129.5 383.5 269.5 383.5 269.5 425.167" stroke="#000000" stroke-width="1.33333" stroke-miterlimit="8" fill="none" fill-rule="evenodd"/><text font-family="Yu Gothic,Yu Gothic_MSFontService,sans-serif" font-weight="400" font-size="11" transform="translate(166.055 407)">d<tspan font-size="11" x="6.16667" y="0">omain.xtuml</tspan></text><path d="M276.5 403.167 335.833 403.167 335.833 403.833 276.5 403.833ZM334.5 399.5 342.5 403.5 334.5 407.5Z" fill="#4472C4"/><path d="M360.5 613.5 500.5 613.5 500.5 656 492 664.5 360.5 664.5Z" fill="#FFFFFF" fill-rule="evenodd"/><path d="M492 664.5 493.7 657.7 500.5 656Z" fill="#CDCDCD" fill-rule="evenodd"/><path d="M492 664.5 493.7 657.7 500.5 656 492 664.5 360.5 664.5 360.5 613.5 500.5 613.5 500.5 656" stroke="#000000" stroke-width="1.33333" stroke-miterlimit="8" fill="none" fill-rule="evenodd"/><text font-family="Yu Gothic,Yu Gothic_MSFontService,sans-serif" font-weight="400" font-size="11" transform="translate(416.729 638)">xxx.tt</text><path d="M356.5 622.5 495.5 622.5 495.5 664.167 487.167 672.5 356.5 672.5Z" fill="#FFFFFF" fill-rule="evenodd"/><path d="M487.167 672.5 488.833 665.833 495.5 664.167Z" fill="#CDCDCD" fill-rule="evenodd"/><path d="M487.167 672.5 488.833 665.833 495.5 664.167 487.167 672.5 356.5 672.5 356.5 622.5 495.5 622.5 495.5 664.167" stroke="#000000" stroke-width="1.33333" stroke-miterlimit="8" fill="none" fill-rule="evenodd"/><text font-family="Yu Gothic,Yu Gothic_MSFontService,sans-serif" font-weight="400" font-size="11" transform="translate(412.396 646)">xxx.tt</text><path d="M352.5 628.5 492.5 628.5 492.5 671 484 679.5 352.5 679.5Z" fill="#FFFFFF" fill-rule="evenodd"/><path d="M484 679.5 485.7 672.7 492.5 671Z" fill="#CDCDCD" fill-rule="evenodd"/><path d="M484 679.5 485.7 672.7 492.5 671 484 679.5 352.5 679.5 352.5 628.5 492.5 628.5 492.5 671" stroke="#000000" stroke-width="1.33333" stroke-miterlimit="8" fill="none" fill-rule="evenodd"/><text font-family="Yu Gothic,Yu Gothic_MSFontService,sans-serif" font-weight="400" font-size="11" transform="translate(386.468 653)">sourcecode.cs</text><path d="M424.833 520.497 425.723 615.487 425.056 615.493 424.167 520.503ZM429.377 614.119 425.452 622.156 421.377 614.194Z" fill="#4472C4"/><rect x="535.5" y="139.5" width="165" height="461" stroke="#2F528F" stroke-width="1.33333" stroke-miterlimit="8" stroke-dasharray="5.33333 4" fill="none"/><text font-family="Yu Gothic,Yu Gothic_MSFontService,sans-serif" font-weight="400" font-size="13" transform="translate(570.592 155)">各ジェネレータ</text><path d="M0 14 8 0 16 14Z" stroke="#000000" stroke-width="1.33333" stroke-miterlimit="8" fill="#FFFFFF" fill-rule="evenodd" transform="matrix(1 0 0 -1 490.5 137.5)"/><path d="M0 0-23.9999 0-23.9999 118.866 15.3734 118.866" stroke="#000000" stroke-width="0.666667" stroke-miterlimit="8" fill="none" fill-rule="evenodd" transform="matrix(1.83697e-16 1 1 -1.83697e-16 498.5 123.5)"/><path d="M559.5 228.667C559.5 224.709 562.709 221.5 566.667 221.5L674.333 221.5C678.291 221.5 681.5 224.709 681.5 228.667L681.5 257.333C681.5 261.291 678.291 264.5 674.333 264.5L566.667 264.5C562.709 264.5 559.5 261.291 559.5 257.333Z" stroke="#000000" stroke-width="1.33333" stroke-miterlimit="8" fill="#FFFFFF" fill-rule="evenodd"/><text font-family="Yu Gothic,Yu Gothic_MSFontService,sans-serif" font-weight="400" font-size="11" transform="translate(573.905 240)">AdditionalWorkFor<tspan font-size="11" x="7.33331" y="13">ResolveContext</tspan></text><path d="M557.5 319.667C557.5 315.709 560.709 312.5 564.667 312.5L672.333 312.5C676.291 312.5 679.5 315.709 679.5 319.667L679.5 348.333C679.5 352.291 676.291 355.5 672.333 355.5L564.667 355.5C560.709 355.5 557.5 352.291 557.5 348.333Z" stroke="#000000" stroke-width="1.33333" stroke-miterlimit="8" fill="#FFFFFF" fill-rule="evenodd"/><text font-family="Yu Gothic,Yu Gothic_MSFontService,sans-serif" font-weight="400" font-size="11" transform="translate(571.873 331)">AdditionalWorkFor<tspan font-size="11" x="17.58" y="13">MetaModel</tspan></text><path d="M556.5 412.667C556.5 408.709 559.709 405.5 563.667 405.5L671.333 405.5C675.291 405.5 678.5 408.709 678.5 412.667L678.5 441.333C678.5 445.291 675.291 448.5 671.333 448.5L563.667 448.5C559.709 448.5 556.5 445.291 556.5 441.333Z" stroke="#000000" stroke-width="1.33333" stroke-miterlimit="8" fill="#FFFFFF" fill-rule="evenodd"/><text font-family="Yu Gothic,Yu Gothic_MSFontService,sans-serif" font-weight="400" font-size="11" transform="translate(571.425 424)">AdditionalWorkFor<tspan font-size="11" x="8.58002" y="13">DomainModels</tspan></text><path d="M556.5 506.5C556.5 502.634 559.634 499.5 563.5 499.5L671.5 499.5C675.366 499.5 678.5 502.634 678.5 506.5L678.5 534.5C678.5 538.366 675.366 541.5 671.5 541.5L563.5 541.5C559.634 541.5 556.5 538.366 556.5 534.5Z" stroke="#000000" stroke-width="1.33333" stroke-miterlimit="8" fill="#FFFFFF" fill-rule="evenodd"/><text font-family="Yu Gothic,Yu Gothic_MSFontService,sans-serif" font-weight="400" font-size="11" transform="translate(575.342 524)">GenerateContext</text><path d="M507.852 210.934 511.25 213.044 510.546 214.177 507.148 212.066ZM512.382 213.748 515.78 215.858 515.077 216.991 511.679 214.88ZM516.913 216.562 520.311 218.672 519.607 219.805 516.209 217.694ZM521.443 219.376 524.841 221.486 524.138 222.619 520.74 220.508ZM525.974 222.19 529.372 224.3 528.668 225.433 525.271 223.322ZM530.505 225.004 533.903 227.114 533.199 228.247 529.801 226.136ZM535.035 227.818 538.433 229.928 537.73 231.061 534.332 228.95ZM539.566 230.632 542.964 232.742 542.26 233.875 538.862 231.764ZM544.096 233.446 547.494 235.556 546.791 236.689 543.393 234.578ZM548.627 236.26 552.025 238.37 551.321 239.503 547.923 237.392ZM553.157 239.074 556.555 241.184 555.852 242.317 552.454 240.206ZM557.688 241.888 558.509 242.397 557.805 243.53 556.984 243.02ZM554.412 234.466 559.281 243.662 548.88 243.373C548.512 243.363 548.222 243.056 548.232 242.688 548.243 242.32 548.549 242.03 548.917 242.04L558.175 242.297 557.568 243.276 553.234 235.09C553.062 234.765 553.186 234.361 553.511 234.189 553.837 234.017 554.24 234.141 554.412 234.466Z"/><path d="M507.815 306.913 511.34 308.802 510.71 309.977 507.185 308.088ZM512.516 309.432 516.041 311.322 515.411 312.497 511.886 310.607ZM517.216 311.952 520.742 313.842 520.112 315.017 516.586 313.127ZM521.917 314.472 525.442 316.362 524.812 317.537 521.287 315.647ZM526.617 316.992 530.143 318.882 529.513 320.057 525.987 318.167ZM531.318 319.511 534.843 321.401 534.213 322.576 530.688 320.687ZM536.018 322.031 539.544 323.921 538.914 325.096 535.388 323.206ZM540.719 324.551 544.244 326.441 543.614 327.616 540.089 325.726ZM545.419 327.071 548.945 328.961 548.315 330.136 544.789 328.246ZM550.12 329.591 553.645 331.48 553.015 332.656 549.49 330.766ZM554.82 332.11 556.397 332.956 555.767 334.131 554.19 333.286ZM551.804 325.302 557.248 334.168 546.85 334.543C546.482 334.556 546.173 334.268 546.16 333.9 546.147 333.532 546.434 333.223 546.802 333.21L556.058 332.877 555.514 333.892 550.668 325.999C550.475 325.685 550.573 325.275 550.887 325.082 551.201 324.89 551.611 324.988 551.804 325.302Z"/><path d="M507.793 402.901 511.386 404.659 510.8 405.857 507.207 404.099ZM512.584 405.245 516.177 407.003 515.591 408.201 511.998 406.443ZM517.374 407.589 520.967 409.348 520.381 410.545 516.788 408.787ZM522.165 409.934 525.758 411.692 525.172 412.889 521.579 411.131ZM526.955 412.278 530.548 414.036 529.962 415.233 526.369 413.475ZM531.746 414.622 535.339 416.38 534.753 417.577 531.16 415.819ZM536.537 416.966 540.129 418.724 539.543 419.922 535.951 418.163ZM541.327 419.31 544.92 421.068 544.334 422.266 540.741 420.508ZM546.118 421.654 549.711 423.412 549.125 424.61 545.532 422.852ZM550.908 423.998 554.501 425.756 553.915 426.954 550.322 425.196ZM555.699 426.342 555.905 426.443 555.319 427.641 555.113 427.54ZM551.032 418.964 556.8 427.623 546.424 428.382C546.056 428.409 545.737 428.133 545.71 427.766 545.683 427.399 545.959 427.079 546.326 427.053L555.563 426.377 555.057 427.411 549.922 419.704C549.718 419.397 549.801 418.983 550.108 418.779 550.414 418.575 550.828 418.658 551.032 418.964Z"/><path d="M507.765 498.888 511.436 500.477 510.906 501.701 507.235 500.112ZM512.659 501.006 516.331 502.595 515.801 503.819 512.13 502.23ZM517.554 503.125 521.225 504.713 520.696 505.937 517.025 504.348ZM522.449 505.243 526.12 506.831 525.59 508.055 521.919 506.466ZM527.344 507.361 531.015 508.949 530.485 510.173 526.814 508.585ZM532.238 509.479 535.909 511.068 535.38 512.291 531.709 510.703ZM537.133 511.597 540.804 513.186 540.274 514.409 536.603 512.821ZM542.028 513.715 545.699 515.304 545.169 516.528 541.498 514.939ZM546.922 515.833 550.593 517.422 550.064 518.646 546.393 517.057ZM551.817 517.952 555.488 519.54 554.958 520.764 551.287 519.175ZM550.635 512.454 556.8 520.835 546.47 522.077C546.105 522.121 545.773 521.86 545.729 521.494 545.685 521.129 545.946 520.797 546.311 520.753L555.507 519.647 555.049 520.704 549.561 513.244C549.342 512.948 549.406 512.53 549.702 512.312 549.999 512.094 550.416 512.157 550.635 512.454Z"/><path d="M582.5 551.5 694.5 551.5 694.5 580.667 688.667 586.5 582.5 586.5Z" fill="#FFFFFF" fill-rule="evenodd"/><path d="M688.667 586.5 689.833 581.833 694.5 580.667Z" fill="#CDCDCD" fill-rule="evenodd"/><path d="M688.667 586.5 689.833 581.833 694.5 580.667 688.667 586.5 582.5 586.5 582.5 551.5 694.5 551.5 694.5 580.667" stroke="#000000" stroke-width="1.33333" stroke-miterlimit="8" fill="none" fill-rule="evenodd"/><text font-family="Yu Gothic,Yu Gothic_MSFontService,sans-serif" font-weight="400" font-size="11" transform="translate(604.724 569)">d<tspan font-size="11" x="6.16669" y="0">omain.xtuml</tspan></text><path d="M577.5 557.5 689.5 557.5 689.5 586.667 683.667 592.5 577.5 592.5Z" fill="#FFFFFF" fill-rule="evenodd"/><path d="M683.667 592.5 684.833 587.833 689.5 586.667Z" fill="#CDCDCD" fill-rule="evenodd"/><path d="M683.667 592.5 684.833 587.833 689.5 586.667 683.667 592.5 577.5 592.5 577.5 557.5 689.5 557.5 689.5 586.667" stroke="#000000" stroke-width="1.33333" stroke-miterlimit="8" fill="none" fill-rule="evenodd"/><text font-family="Yu Gothic,Yu Gothic_MSFontService,sans-serif" font-weight="400" font-size="11" transform="translate(599.946 575)">d<tspan font-size="11" x="6.16669" y="0">omain.xtuml</tspan></text><path d="M571.5 563.5 682.5 563.5 682.5 592.667 676.667 598.5 571.5 598.5Z" fill="#FFFFFF" fill-rule="evenodd"/><path d="M676.667 598.5 677.833 593.833 682.5 592.667Z" fill="#CDCDCD" fill-rule="evenodd"/><path d="M676.667 598.5 677.833 593.833 682.5 592.667 676.667 598.5 571.5 598.5 571.5 563.5 682.5 563.5 682.5 592.667" stroke="#000000" stroke-width="1.33333" stroke-miterlimit="8" fill="none" fill-rule="evenodd"/><text font-family="Yu Gothic,Yu Gothic_MSFontService,sans-serif" font-weight="400" font-size="11" transform="translate(597.392 582)">transform.tt</text><path d="M633.119 557.541 621.986 546.443 622.457 545.971 633.589 557.069ZM620.342 549.981 617.5 541.5 625.99 544.315Z" fill="#4472C4"/><rect x="250.5" y="41.5001" width="139" height="79" stroke="#2F528F" stroke-width="1.33333" stroke-miterlimit="8" fill="none"/><text font-family="Yu Gothic,Yu Gothic_MSFontService,sans-serif" font-weight="400" font-size="13" transform="translate(287.04 58)">IGenerator<tspan font-size="11" x="-27.1667" y="14">ResolveContext</tspan><tspan font-size="11" x="49.8333" y="14">()</tspan><tspan font-size="11" x="-27.1667" y="27">LoadMetaModel</tspan><tspan font-size="11" x="53.8333" y="27">()</tspan><tspan font-size="11" x="-27.1667" y="39">LoadDomainModels</tspan><tspan font-size="11" x="71.8333" y="39">()</tspan><tspan font-size="11" x="-27.1667" y="52">Generate(</tspan><tspan font-size="11" x="22.5" y="52">)</tspan></text><path d="M0 14 8 0 16 14Z" stroke="#000000" stroke-width="1.33333" stroke-miterlimit="8" fill="#FFFFFF" fill-rule="evenodd" transform="matrix(6.12323e-17 1 1 -6.12323e-17 389.5 75.5001)"/><path d="M403.5 83.5001 413.664 83.5001 413.664 138.875" stroke="#000000" stroke-width="0.666667" stroke-miterlimit="8" fill="none" fill-rule="evenodd"/><text font-family="Yu Gothic,Yu Gothic_MSFontService,sans-serif" font-weight="400" font-size="11" transform="translate(125.601 78)">アプリケーション<tspan font-size="11" x="21.3333" y="13">プロセス</tspan></text><path d="M223.5 81.1667 244.172 81.1668 244.172 81.8335 223.5 81.8334ZM242.839 77.5001 250.839 81.5002 242.839 85.5001Z"/></g></svg>