<svg width="608" height="622" xmlns="http://www.w3.org/2000/svg" xmlns:xlink="http://www.w3.org/1999/xlink" overflow="hidden"><defs><clipPath id="clip0"><rect x="112" y="73" width="608" height="622"/></clipPath></defs><g clip-path="url(#clip0)" transform="translate(-112 -73)"><rect x="114.5" y="75.5001" width="604" height="618" stroke="#D9D9D9" stroke-width="1.33333" stroke-miterlimit="8" fill="none"/><rect x="130.5" y="109.5" width="215" height="105" stroke="#000000" stroke-width="1.33333" stroke-miterlimit="8" fill="#FFFFFF"/><text font-family="Yu Gothic,Yu Gothic_MSFontService,sans-serif" font-weight="400" font-size="11" transform="translate(198.735 124)">&lt;&lt; interface&gt;&gt;<tspan font-size="11" x="-58.9133" y="13">IGenerator</tspan><tspan font-style="oblique" font-size="11" x="-52.9133" y="25">Version</tspan><tspan font-size="11" x="-12.58" y="25">: string</tspan><tspan font-style="oblique" font-size="11" x="-52.9133" y="38">ResolveContext</tspan>()<tspan font-style="oblique" font-size="11" x="-52.9133" y="51">LoadMetaModel</tspan>()<tspan font-style="oblique" font-size="11" x="-52.9133" y="64">LoadDomainModels</tspan>()<tspan font-style="oblique" font-size="11" x="-52.9133" y="77">Generator</tspan><tspan font-size="11" x="-3.58" y="77">(</tspan><tspan font-size="11" x="0.58667" y="77">)</tspan></text><rect x="475.5" y="161.5" width="152" height="68" stroke="#000000" stroke-width="1.33333" stroke-miterlimit="8" fill="#FFFFFF"/><text font-family="Yu Gothic,Yu Gothic_MSFontService,sans-serif" font-weight="400" font-size="11" transform="translate(513.211 176)">&lt;&lt; <tspan font-size="11" x="18.3334" y="0">Abstract&gt;&gt;</tspan><tspan font-size="11" x="-28.5" y="13">ContextPara</tspan><tspan font-size="11" x="32.6667" y="13">m</tspan><tspan font-size="11" x="-22.5" y="25">ParamName</tspan><tspan font-size="11" x="41.6667" y="25">: string</tspan><tspan font-size="11" x="-22.5" y="38">Tips:string</tspan></text><path d="M376.5 137.167 551.323 137.167 551.323 161.588 550.656 161.588 550.656 137.5 550.989 137.833 376.5 137.833ZM555.944 153.756 550.989 162.25 546.035 153.756C545.942 153.597 545.996 153.393 546.155 153.3 546.314 153.207 546.518 153.261 546.611 153.42L551.277 161.42 550.701 161.42 555.368 153.42C555.461 153.261 555.665 153.207 555.824 153.3 555.983 153.393 556.037 153.597 555.944 153.756Z"/><path d="M0 14.5 8 0 16 14.5 8 29Z" stroke="#000000" stroke-width="1.33333" stroke-miterlimit="8" fill="#FFFFFF" fill-rule="evenodd" transform="matrix(-6.12323e-17 -1 -1 6.12323e-17 376.5 145.5)"/><path d="M0 14.5 8 0 16 14.5 8 29Z" stroke="#000000" stroke-width="1.33333" stroke-miterlimit="8" fill="#FFFFFF" fill-rule="evenodd" transform="matrix(-6.12323e-17 -1 -1 6.12323e-17 656.5 204.5)"/><path d="M0 0.333333-17.1478 0.333333-16.8145 0-16.8145 56.748-17.1478 56.4146 105.558 56.4146 105.225 56.748 105.225 33.4079 105.891 33.4079 105.891 57.0813-17.4812 57.0813-17.4812-0.333333 0-0.333333ZM100.603 41.24 105.558 32.7464 110.512 41.24C110.605 41.399 110.552 41.6031 110.393 41.6959 110.233 41.7886 110.029 41.7349 109.937 41.5759L105.27 33.5759 105.846 33.5759 101.179 41.5759C101.086 41.7349 100.882 41.7886 100.723 41.6959 100.564 41.6031 100.511 41.399 100.603 41.24Z" transform="matrix(-1 0 0 1 657.058 196.5)"/><text font-family="Yu Gothic,Yu Gothic_MSFontService,sans-serif" font-weight="400" font-size="11" transform="translate(570.085 150)">ContextParam<tspan font-size="11" x="70.3334" y="0">s</tspan><tspan font-size="11" x="-70.721" y="94">Children</tspan></text><rect x="475.5" y="284.5" width="198" height="68" stroke="#000000" stroke-width="1.33333" stroke-miterlimit="8" fill="#FFFFFF"/><text font-family="Yu Gothic,Yu Gothic_MSFontService,sans-serif" font-weight="400" font-size="11" transform="translate(484.711 299)">utility.GenFolder<tspan font-size="11" x="6" y="13">BaseFolder</tspan><tspan font-size="11" x="65" y="13">: string</tspan><tspan font-size="11" x="6" y="25">CreateFolder</tspan><tspan font-size="11" x="70.3333" y="25">(</tspan><tspan font-size="11" x="74.5" y="25">forderName:string</tspan>)<tspan font-size="11" x="6" y="38">WriteContentAsync</tspan><tspan font-size="11" x="101.333" y="38">(…</tspan><tspan font-size="11" x="116.167" y="38">)</tspan></text><path d="M376.5 186.167 426.41 186.167 426.41 319.123 426.077 318.79 474.993 318.79 474.993 319.456 425.743 319.456 425.743 186.5 426.077 186.833 376.5 186.833ZM467.161 314.169 475.655 319.123 467.161 324.078C467.002 324.17 466.798 324.117 466.706 323.958 466.613 323.799 466.666 323.595 466.826 323.502L474.826 318.835 474.826 319.411 466.826 314.744C466.666 314.652 466.613 314.448 466.706 314.289 466.798 314.13 467.002 314.076 467.161 314.169Z"/><path d="M0 15 8 0 16 15 8 30Z" stroke="#000000" stroke-width="1.33333" stroke-miterlimit="8" fill="#FFFFFF" fill-rule="evenodd" transform="matrix(-6.12323e-17 -1 -1 6.12323e-17 376.5 194.5)"/><text font-family="Yu Gothic,Yu Gothic_MSFontService,sans-serif" font-weight="400" font-size="11" transform="translate(536.052 155)">*<tspan font-size="11" x="20.1589" y="94">*</tspan><tspan font-size="11" x="-120.84" y="181">GenFolder</tspan></text><rect x="130.5" y="277.5" width="215" height="184" stroke="#000000" stroke-width="1.33333" stroke-miterlimit="8" fill="#FFFFFF"/><text font-family="Yu Gothic,Yu Gothic_MSFontService,sans-serif" font-weight="400" font-size="11" transform="translate(199.822 292)">&lt;&lt; <tspan font-size="11" x="18.3333" y="0">Abstract&gt;&gt;</tspan><tspan font-size="11" x="-60" y="13">GeneratorBase</tspan><tspan font-size="11" x="-54" y="25">CommonParams</tspan><tspan font-size="11" x="30.3333" y="25">: string</tspan><tspan font-size="11" x="-54" y="38">CreateRequiredContext</tspan>()<tspan font-style="oblique" font-size="11" x="-54" y="51">CreateAdditionalContext</tspan><tspan font-size="11" x="67.1667" y="51">()</tspan><tspan font-size="11" x="-54" y="64">ResloveContext</tspan>()<tspan font-style="oblique" font-size="11" x="-54" y="77">AdditionalWorkForResolveContext</tspan>()<tspan font-size="11" x="-54" y="89">LoadMetaModel</tspan>()<tspan font-style="oblique" font-size="11" x="-54" y="102">AdditionalWorkForMetaModel</tspan><tspan font-size="11" x="94.1667" y="102">(</tspan><tspan font-size="11" x="98.3333" y="102">)</tspan><tspan font-size="11" x="-54" y="115">LoadDomainModels</tspan>()<tspan font-style="oblique" font-size="11" x="-54" y="128">AdditionalWorkForDomainModels</tspan>(<tspan font-size="11" x="116.333" y="128">)</tspan><tspan font-size="11" x="-54" y="141">Generate()</tspan><tspan font-style="oblique" font-size="11" x="-54" y="153">GenerateContents</tspan><tspan font-size="11" x="36.3333" y="153">(</tspan><tspan font-size="11" x="40.5" y="153">)</tspan></text><path d="M229.5 229.5 237.5 215.5 245.5 229.5Z" stroke="#000000" stroke-width="1.33333" stroke-miterlimit="8" fill="#FFFFFF" fill-rule="evenodd"/><path d="M237.5 229.5 238.338 277.813" stroke="#000000" stroke-width="0.666667" stroke-miterlimit="8" fill="none" fill-rule="evenodd"/><rect x="129.5" y="535.5" width="215" height="126" stroke="#000000" stroke-width="1.33333" stroke-miterlimit="8" fill="#FFFFFF"/><text font-family="Yu Gothic,Yu Gothic_MSFontService,sans-serif" font-weight="400" font-size="11" transform="translate(185.318 550)">それぞれの<tspan font-size="11" x="53.3333" y="0">Generator</tspan><tspan font-size="11" x="-40.3333" y="25">SpecificParams</tspan><tspan font-size="11" x="39.3333" y="25">: string</tspan><tspan font-size="11" x="-40.3333" y="38">CreateAdditionalContext</tspan><tspan font-size="11" x="80.8333" y="38">()</tspan><tspan font-size="11" x="-40.3333" y="51">AdditionalWorkForResolveContext</tspan>()<tspan font-size="11" x="-40.3333" y="64">AdditionalWorkForMetaModel</tspan><tspan font-size="11" x="107.833" y="64">(</tspan><tspan font-size="11" x="112" y="64">)</tspan><tspan font-size="11" x="-40.3333" y="77">AdditionalWorkForDomainModels</tspan>(<tspan font-size="11" x="130" y="77">)</tspan><tspan font-size="11" x="-40.3333" y="89">GenerateContents</tspan><tspan font-size="11" x="50" y="89">(</tspan><tspan font-size="11" x="54.1667" y="89">)</tspan></text><path d="M229.5 474.5 237.5 460.5 245.5 474.5Z" stroke="#000000" stroke-width="1.33333" stroke-miterlimit="8" fill="#FFFFFF" fill-rule="evenodd"/><path d="M0 0 0.000104987 61.3999" stroke="#000000" stroke-width="0.666667" stroke-miterlimit="8" fill="none" fill-rule="evenodd" transform="matrix(-1 0 0 1 237.5 474.5)"/><rect x="475.5" y="392.5" width="198" height="53" stroke="#000000" stroke-width="1.33333" stroke-miterlimit="8" fill="#FFFFFF"/><text font-family="Yu Gothic,Yu Gothic_MSFontService,sans-serif" font-weight="400" font-size="11" transform="translate(484.711 407)">CIMModelResolver<tspan font-size="11" x="6" y="13">metaModelRepository</tspan><tspan font-size="11" x="6" y="25">modelRepositor</tspan><tspan font-size="11" x="83.5" y="25">y</tspan></text><path d="M375.5 382.167 425.876 382.167 425.876 419.292 425.542 418.959 474.925 418.959 474.925 419.625 425.209 419.625 425.209 382.5 425.542 382.833 375.5 382.833ZM467.093 414.337 475.586 419.292 467.093 424.247C466.934 424.339 466.73 424.286 466.637 424.127 466.544 423.968 466.598 423.764 466.757 423.671L474.757 419.004 474.757 419.58 466.757 414.913C466.598 414.821 466.544 414.616 466.637 414.457 466.73 414.298 466.934 414.245 467.093 414.337Z"/><path d="M0 15 8 0 16 15 8 30Z" stroke="#000000" stroke-width="1.33333" stroke-miterlimit="8" fill="#FFFFFF" fill-rule="evenodd" transform="matrix(-6.12323e-17 -1 -1 6.12323e-17 375.5 390.5)"/><text font-family="Yu Gothic,Yu Gothic_MSFontService,sans-serif" font-weight="400" font-size="11" transform="translate(394.732 436)">modelResolver</text></g></svg>