<svg width="607" height="504" xmlns="http://www.w3.org/2000/svg" xmlns:xlink="http://www.w3.org/1999/xlink" overflow="hidden"><defs><clipPath id="clip0"><rect x="93" y="72" width="607" height="504"/></clipPath></defs><g clip-path="url(#clip0)" transform="translate(-93 -72)"><rect x="405.5" y="134.5" width="111" height="57" stroke="#000000" stroke-width="1.33333" stroke-miterlimit="8" fill="#FFFFFF"/><text font-family="Yu Gothic,Yu Gothic_MSFontService,sans-serif" font-weight="400" font-size="11" transform="translate(432.524 153)">Conceptual <tspan font-size="11" x="-15.5" y="13">Information Class</tspan><tspan font-size="11" x="7.58667" y="25">(O_OB</tspan><tspan font-size="11" x="39.92" y="25">J</tspan><tspan font-size="11" x="44.2533" y="25">)</tspan></text><rect x="196.5" y="275.5" width="96" height="58" stroke="#000000" stroke-width="1.33333" stroke-miterlimit="8" fill="#FFFFFF"/><text font-family="Yu Gothic,Yu Gothic_MSFontService,sans-serif" font-weight="400" font-size="11" transform="translate(223.201 301)">Property<tspan font-size="11" x="-3.5" y="13">(O_ATTR)</tspan></text><path d="M244.5 275.986 244.5 110.5 460.823 110.5 460.823 134.5" stroke="#000000" stroke-width="0.666667" stroke-miterlimit="8" fill="none" fill-rule="evenodd"/><text font-family="Yu Gothic,Yu Gothic_MSFontService,sans-serif" font-weight="400" font-size="11" transform="translate(217.583 178)">R102<tspan font-size="11" x="10.568" y="90">*</tspan></text><rect x="413.5" y="275.5" width="96" height="58" stroke="#000000" stroke-width="1.33333" stroke-miterlimit="8" fill="#FFFFFF"/><text font-family="Yu Gothic,Yu Gothic_MSFontService,sans-serif" font-weight="400" font-size="11" transform="translate(436.19 301)">Operation<tspan font-size="11" x="3.41333" y="13">(O_TFR)</tspan></text><rect x="405.5" y="498.5" width="96" height="58" stroke="#000000" stroke-width="1.33333" stroke-miterlimit="8" fill="#FFFFFF"/><text font-family="Yu Gothic,Yu Gothic_MSFontService,sans-serif" font-weight="400" font-size="11" transform="translate(434.802 524)">SM<tspan font-size="11" x="19.5" y="0">SM</tspan><tspan font-size="11" x="-5.33334" y="13">(</tspan><tspan font-size="11" x="-1.16669" y="13">SM_SM)</tspan></text><rect x="497.5" y="401.5" width="96" height="58" stroke="#000000" stroke-width="1.33333" stroke-miterlimit="8" fill="#FFFFFF"/><text font-family="Yu Gothic,Yu Gothic_MSFontService,sans-serif" font-weight="400" font-size="11" transform="translate(523.706 427)">SM<tspan font-size="11" x="19.5" y="0">ASM</tspan><tspan font-size="11" x="-5.33331" y="13">(</tspan><tspan font-size="11" x="-1.16663" y="13">SM_ASM)</tspan></text><rect x="337.5" y="401.5" width="96" height="58" stroke="#000000" stroke-width="1.33333" stroke-miterlimit="8" fill="#FFFFFF"/><text font-family="Yu Gothic,Yu Gothic_MSFontService,sans-serif" font-weight="400" font-size="11" transform="translate(365.021 427)">SM<tspan font-size="11" x="19.5" y="0">ISM</tspan><tspan font-size="11" x="-5.33334" y="13">(</tspan><tspan font-size="11" x="-1.16666" y="13">SM_ISM)</tspan></text><path d="M546.237 459.5 546.237 479.426 453.5 479.426 453.833 479.092 453.833 486.685 453.167 486.685 453.167 478.759 545.904 478.759 545.57 479.092 545.57 459.5ZM460.167 485.352 453.5 498.685 446.833 485.352Z"/><path d="M0-0.333333 19.9257-0.333333 19.9257 68.1982 19.5924 67.8649 27.1848 67.8649 27.1848 68.5315 19.2591 68.5315 19.2591 0 19.5924 0.333333 0 0.333333ZM25.8514 61.5315 39.1848 68.1982 25.8514 74.8649Z" transform="matrix(1.83697e-16 1 1 -1.83697e-16 385.5 459.5)"/><text font-family="Yu Gothic,Yu Gothic_MSFontService,sans-serif" font-weight="400" font-size="11" transform="translate(530.163 501)">R517</text><path d="M0 0 238.732 0 238.732 28.9609" stroke="#000000" stroke-width="0.666667" stroke-miterlimit="8" fill="none" fill-rule="evenodd" transform="matrix(-1.83697e-16 -1 -1 1.83697e-16 545.461 402.233)"/><path d="M385.5 402.232 385.5 163.5 405.698 163.5" stroke="#000000" stroke-width="0.666667" stroke-miterlimit="8" fill="none" fill-rule="evenodd"/><text font-family="Yu Gothic,Yu Gothic_MSFontService,sans-serif" font-weight="400" font-size="11" transform="translate(352.616 369)">R518<tspan font-size="11" x="201.917" y="1">R519</tspan><tspan font-size="11" x="203.734" y="24">0..1</tspan><tspan font-size="11" x="0.946259" y="23">0..1</tspan></text><path d="M0 0 0.000104987 83.7452" stroke="#000000" stroke-width="0.666667" stroke-miterlimit="8" fill="none" fill-rule="evenodd" transform="matrix(1 0 0 -1 461.5 275.245)"/><text font-family="Yu Gothic,Yu Gothic_MSFontService,sans-serif" font-weight="400" font-size="11" transform="translate(425.597 239)">R115<tspan font-size="11" x="45.1589" y="32">*</tspan></text><rect x="196.5" y="400.5" width="96" height="58" stroke="#000000" stroke-width="1.33333" stroke-miterlimit="8" fill="#FFFFFF"/><text font-family="Yu Gothic,Yu Gothic_MSFontService,sans-serif" font-weight="400" font-size="11" transform="translate(218.701 426)">Data<tspan font-size="11" x="26.8333" y="0">Typ</tspan><tspan font-size="11" x="45" y="0">e</tspan><tspan font-size="11" x="8" y="13">(</tspan><tspan font-size="11" x="12.1667" y="13">S_DT)</tspan></text><path d="M0 0 0.000104987 67.1374" stroke="#000000" stroke-width="0.666667" stroke-miterlimit="8" fill="none" fill-rule="evenodd" transform="matrix(1 0 0 -1 244.5 400.637)"/><text font-family="Yu Gothic,Yu Gothic_MSFontService,sans-serif" font-weight="400" font-size="11" transform="translate(213.329 365)">R114<tspan font-size="11" x="12.1745" y="28">*</tspan></text><rect x="94.5001" y="74.5001" width="605" height="501" stroke="#D9D9D9" stroke-width="1.33333" stroke-miterlimit="8" fill="none"/></g></svg>