<svg width="868" height="579" xmlns="http://www.w3.org/2000/svg" xmlns:xlink="http://www.w3.org/1999/xlink" overflow="hidden"><defs><filter id="fx0" x="-10%" y="-10%" width="120%" height="120%" filterUnits="userSpaceOnUse" primitiveUnits="userSpaceOnUse"><feComponentTransfer color-interpolation-filters="sRGB"><feFuncR type="discrete" tableValues="0 0"/><feFuncG type="discrete" tableValues="0 0"/><feFuncB type="discrete" tableValues="0 0"/><feFuncA type="linear" slope="0.431373" intercept="0"/></feComponentTransfer><feGaussianBlur stdDeviation="0.558453 0.558453"/></filter><filter id="fx1" x="-10%" y="-10%" width="120%" height="120%" filterUnits="userSpaceOnUse" primitiveUnits="userSpaceOnUse"><feComponentTransfer color-interpolation-filters="sRGB"><feFuncR type="discrete" tableValues="0 0"/><feFuncG type="discrete" tableValues="0 0"/><feFuncB type="discrete" tableValues="0 0"/><feFuncA type="linear" slope="0.431373" intercept="0"/></feComponentTransfer><feGaussianBlur stdDeviation="0.558453 0.558453"/></filter><clipPath id="clip2"><rect x="251" y="143" width="868" height="579"/></clipPath><clipPath id="clip3"><rect x="252" y="144" width="866" height="552"/></clipPath><clipPath id="clip4"><rect x="252" y="144" width="866" height="552"/></clipPath><clipPath id="clip5"><rect x="161" y="0" width="957" height="720"/></clipPath><clipPath id="clip6"><rect x="161" y="0" width="957" height="720"/></clipPath><clipPath id="clip7"><rect x="17" y="13" width="17" height="20"/></clipPath><clipPath id="clip8"><rect x="0" y="0" width="51" height="57"/></clipPath><clipPath id="clip9"><rect x="17" y="13" width="18" height="20"/></clipPath><clipPath id="clip10"><rect x="0" y="0" width="52" height="57"/></clipPath></defs><g clip-path="url(#clip2)" transform="translate(-251 -143)"><g clip-path="url(#clip3)"><g clip-path="url(#clip4)"><g clip-path="url(#clip5)"><g clip-path="url(#clip6)"><path d="M76.5535 317.15 154.322 317.15 154.322 363.325 76.5535 363.325Z" stroke="#000000" stroke-width="1.08012" stroke-miterlimit="8" fill="#FFFFFF" transform="matrix(1.00017 0 0 1 93.0589 111.92)"/><text font-family="Yu Gothic,Yu Gothic_MSFontService,sans-serif" font-weight="400" font-size="11" transform="matrix(0.81023 0 0 0.810089 187.217 450)">SM<tspan font-size="11" x="19.5" y="0">Actio</tspan><tspan font-size="11" x="44.6667" y="0">n</tspan><tspan font-size="11" x="-0.166669" y="12.3443">(</tspan><tspan font-size="11" x="4" y="12.3443">SM</tspan>_<tspan font-size="11" x="27" y="12.3443">ACT</tspan><tspan font-size="11" x="49" y="12.3443">)</tspan></text><path d="M471.067 159.993 548.835 159.993 548.835 206.978 471.067 206.978Z" stroke="#000000" stroke-width="1.08012" stroke-miterlimit="8" fill="#FFFFFF" transform="matrix(1.00017 0 0 1 93.0589 111.92)"/><text font-family="Yu Gothic,Yu Gothic_MSFontService,sans-serif" font-weight="400" font-size="11" transform="matrix(0.81023 0 0 0.810089 584.125 293)">SM<tspan font-size="11" x="19.5" y="0">State</tspan><tspan font-size="11" x="-8.99998" y="12.3443">(</tspan><tspan font-size="11" x="-4.83329" y="12.3443">SM</tspan><tspan font-size="11" x="12.1667" y="12.3443">_</tspan><tspan font-size="11" x="18.1667" y="12.3443">STATE</tspan><tspan font-size="11" x="53.1667" y="12.3443">)</tspan></text><path d="M471.067 47.3903 548.835 47.3903 548.835 94.3754 471.067 94.3754Z" stroke="#000000" stroke-width="1.08012" stroke-miterlimit="8" fill="#FFFFFF" transform="matrix(1.00017 0 0 1 93.0589 111.92)"/><text font-family="Yu Gothic,Yu Gothic_MSFontService,sans-serif" font-weight="400" font-size="11" transform="matrix(0.81023 0 0 0.810089 588.108 180)">SM<tspan font-size="11" x="19.5" y="0">SM</tspan><tspan font-size="11" x="-5.33333" y="12.3443">(</tspan><tspan font-size="11" x="-1.16665" y="12.3443">SM</tspan><tspan font-size="11" x="15.8334" y="12.3443">_</tspan><tspan font-size="11" x="21.8334" y="12.3443">SM</tspan><tspan font-size="11" x="38.8334" y="12.3443">)</tspan></text><path d="M509.951 94.3753 509.951 160.38" stroke="#000000" stroke-width="0.540059" stroke-miterlimit="8" fill="none" fill-rule="evenodd" transform="matrix(1.00017 0 0 1 93.0589 111.92)"/><text font-family="Yu Gothic,Yu Gothic_MSFontService,sans-serif" font-weight="400" font-size="11" transform="matrix(0.81023 0 0 0.810089 610.149 245)">R<tspan font-size="11" x="7.00002" y="0">501</tspan><tspan font-size="11" x="-3.04607" y="29.6264">*</tspan></text><path d="M787.811 47.3903 865.58 47.3903 865.58 93.5653 787.811 93.5653Z" stroke="#000000" stroke-width="1.08012" stroke-miterlimit="8" fill="#FFFFFF" transform="matrix(1.00017 0 0 1 93.0589 111.92)"/><text font-family="Yu Gothic,Yu Gothic_MSFontService,sans-serif" font-weight="400" font-size="11" transform="matrix(0.81023 0 0 0.810089 900.469 180)">SM<tspan font-size="11" x="19.5" y="0">Event</tspan><tspan font-size="11" x="-1.58669" y="12.3443">(</tspan><tspan font-size="11" x="2.58" y="12.3443">SM</tspan><tspan font-size="11" x="19.58" y="12.3443">_</tspan><tspan font-size="11" x="25.58" y="12.3443">EVT</tspan>)</text><path d="M0 0 239.125 0.149175" stroke="#000000" stroke-width="0.540059" stroke-miterlimit="8" fill="none" fill-rule="evenodd" transform="matrix(1.00017 0 0 -1 641.99 182.142)"/><text font-family="Yu Gothic,Yu Gothic_MSFontService,sans-serif" font-weight="400" font-size="11" transform="matrix(0.81023 0 0 0.810089 816.504 171)">R<tspan font-size="11" x="7.00002" y="0">502</tspan><tspan font-size="11" x="-1.64688" y="116.037">*</tspan></text><path d="M548.835 183.485 704.473 184.162" stroke="#000000" stroke-width="0.540059" stroke-miterlimit="8" fill="none" fill-rule="evenodd" transform="matrix(1.00017 0 0 1 93.0589 111.92)"/><text font-family="Yu Gothic,Yu Gothic_MSFontService,sans-serif" font-weight="400" font-size="11" transform="matrix(0.81023 0 0 0.810089 690.845 292)">R<tspan font-size="11" x="6.99995" y="0">503</tspan></text><path d="M569.897 258.823 647.666 258.823 647.666 305.809 569.897 305.809Z" stroke="#000000" stroke-width="1.08012" stroke-miterlimit="8" fill="#FFFFFF" transform="matrix(1.00017 0 0 1 93.0589 111.92)"/><text font-family="Yu Gothic,Yu Gothic_MSFontService,sans-serif" font-weight="400" font-size="11" transform="matrix(0.81023 0 0 0.810089 681.231 391)">SM<tspan font-size="11" x="19.5" y="0">SEME</tspan><tspan font-size="11" x="-5.33333" y="13.5788">(</tspan><tspan font-size="11" x="-1.16665" y="13.5788">SM</tspan><tspan font-size="11" x="15.8334" y="13.5788">_</tspan><tspan font-size="11" x="21.8334" y="13.5788">SEME</tspan><tspan font-size="11" x="52.8334" y="13.5788">)</tspan></text><path d="M0 0 8.50488e-05 72.2339" stroke="#000000" stroke-width="0.540059" stroke-miterlimit="8" stroke-dasharray="1.62018 0.540059" fill="none" fill-rule="evenodd" transform="matrix(1.00017 0 0 -1 701.947 370.88)"/><path d="M656.577 377.096 734.345 377.096 734.345 424.081 656.577 424.081Z" stroke="#000000" stroke-width="1.08012" stroke-miterlimit="8" fill="#FFFFFF" transform="matrix(1.00017 0 0 1 93.0589 111.92)"/><text font-family="Yu Gothic,Yu Gothic_MSFontService,sans-serif" font-weight="400" font-size="11" transform="matrix(0.81023 0 0 0.810089 767.524 510)">SM<tspan font-size="11" x="19.5" y="0">Ignore</tspan><tspan font-size="11" x="-2.58" y="12.3443">(</tspan><tspan font-size="11" x="1.58669" y="12.3443">SM</tspan><tspan font-size="11" x="18.5867" y="12.3443">_</tspan><tspan font-size="11" x="24.5867" y="12.3443">EIGN</tspan><tspan font-size="11" x="50.5867" y="12.3443">)</tspan></text><path d="M765.129 377.096 842.897 377.096 842.897 424.081 765.129 424.081Z" stroke="#000000" stroke-width="1.08012" stroke-miterlimit="8" fill="#FFFFFF" transform="matrix(1.00017 0 0 1 93.0589 111.92)"/><text font-family="Yu Gothic,Yu Gothic_MSFontService,sans-serif" font-weight="400" font-size="11" transform="matrix(0.81023 0 0 0.810089 878.485 505)">SM<tspan font-size="11" x="19.5" y="0">Can</tspan><tspan font-size="11" x="39.5" y="0">’</tspan><tspan font-size="11" x="42.5" y="0">t </tspan><tspan font-size="11" x="3.58009" y="12.3443">Happen</tspan><tspan font-size="11" x="0.0800765" y="24.6887">(</tspan><tspan font-size="11" x="4.24677" y="24.6887">SM</tspan><tspan font-size="11" x="21.2467" y="24.6887">_</tspan><tspan font-size="11" x="27.2467" y="24.6887">CH</tspan>)</text><path d="M478.357 377.096 556.126 377.096 556.126 424.081 478.357 424.081Z" stroke="#000000" stroke-width="1.08012" stroke-miterlimit="8" fill="#FFFFFF" transform="matrix(1.00017 0 0 1 93.0589 111.92)"/><text font-family="Yu Gothic,Yu Gothic_MSFontService,sans-serif" font-weight="400" font-size="11" transform="matrix(0.81023 0 0 0.810089 587.251 510)">SM<tspan font-size="11" x="19.5" y="0">NSTXN</tspan><tspan font-size="11" x="-5.33333" y="12.3443">(</tspan><tspan font-size="11" x="-1.16665" y="12.3443">SM</tspan><tspan font-size="11" x="15.8333" y="12.3443">_</tspan><tspan font-size="11" x="21.8333" y="12.3443">NSTXN</tspan><tspan font-size="11" x="58.8333" y="12.3443">)</tspan></text><path d="M516.972 377.617 516.972 341.443 608.64 341.443 608.369 341.713 608.369 315.53 608.91 315.53 608.91 341.983 517.242 341.983 517.511 341.713 517.511 377.617ZM603.239 316.609 608.64 305.809 614.04 316.609Z" transform="matrix(1.00017 0 0 1 93.0589 111.92)"/><path d="M0-0.270029 36.1746-0.270029 36.1746 86.7532 35.9046 86.4827 62.088 86.4827 62.088 87.023 35.6346 87.023 35.6346 0 35.9046 0.270029 0 0.270029ZM61.0079 81.3524 71.8091 86.7532 61.0079 92.1533Z" transform="matrix(-1.83729e-16 -1 -1.00017 1.83697e-16 788.715 489.539)"/><path d="M0-0.270029 36.1746-0.270029 36.1746 195.734 35.9046 195.465 62.088 195.465 62.088 196.005 35.6346 196.005 35.6346 0 35.9046 0.270029 0 0.270029ZM61.0078 190.334 71.809 195.734 61.0078 201.135Z" transform="matrix(-1.83729e-16 -1 -1.00017 1.83697e-16 897.715 489.538)"/><text font-family="Yu Gothic,Yu Gothic_MSFontService,sans-serif" font-weight="400" font-size="11" transform="matrix(0.81023 0 0 0.810089 710.291 438)">R<tspan font-size="11" x="7.00002" y="0">504</tspan></text><path d="M273.405 359.274 351.173 359.274 351.173 405.449 273.405 405.449Z" stroke="#000000" stroke-width="1.08012" stroke-miterlimit="8" fill="#FFFFFF" transform="matrix(1.00017 0 0 1 93.0589 111.92)"/><text font-family="Yu Gothic,Yu Gothic_MSFontService,sans-serif" font-weight="400" font-size="11" transform="matrix(0.81023 0 0 0.810089 388.376 492)">SM<tspan font-size="11" x="19.5" y="0">TXN</tspan><tspan font-size="11" x="-5.33333" y="12.3443">(</tspan><tspan font-size="11" x="-1.16665" y="12.3443">SM</tspan><tspan font-size="11" x="15.8333" y="12.3443">_</tspan><tspan font-size="11" x="21.8333" y="12.3443">TXN</tspan><tspan font-size="11" x="43.8334" y="12.3443">)</tspan></text><path d="M207.788 458.105 285.556 458.105 285.556 505.09 207.788 505.09Z" stroke="#000000" stroke-width="1.08012" stroke-miterlimit="8" fill="#FFFFFF" transform="matrix(1.00017 0 0 1 93.0589 111.92)"/><text font-family="Yu Gothic,Yu Gothic_MSFontService,sans-serif" font-weight="400" font-size="11" transform="matrix(0.81023 0 0 0.810089 317.169 591)">SM<tspan font-size="11" x="19.5" y="0">NETXN</tspan><tspan font-size="11" x="-5.33333" y="12.3443">(</tspan><tspan font-size="11" x="-1.16668" y="12.3443">SM</tspan><tspan font-size="11" x="15.8333" y="12.3443">_</tspan><tspan font-size="11" x="21.8333" y="12.3443">NETXN</tspan><tspan font-size="11" x="58.8333" y="12.3443">)</tspan></text><path d="M303.378 458.105 381.147 458.105 381.147 505.09 303.378 505.09Z" stroke="#000000" stroke-width="1.08012" stroke-miterlimit="8" fill="#FFFFFF" transform="matrix(1.00017 0 0 1 93.0589 111.92)"/><text font-family="Yu Gothic,Yu Gothic_MSFontService,sans-serif" font-weight="400" font-size="11" transform="matrix(0.81023 0 0 0.810089 412.744 591)">SM<tspan font-size="11" x="19.5" y="0">CRTXN</tspan><tspan font-size="11" x="-5.3333" y="12.3443">(</tspan><tspan font-size="11" x="-1.16665" y="12.3443">SM</tspan><tspan font-size="11" x="15.8333" y="12.3443">_</tspan><tspan font-size="11" x="21.8333" y="12.3443">CRTXN</tspan><tspan font-size="11" x="58.8333" y="12.3443">)</tspan></text><path d="M246.402 457.854 246.402 431.382 311.927 431.382 311.657 431.652 311.657 415.17 312.197 415.17 312.197 431.921 246.672 431.921 246.942 431.652 246.942 457.854ZM306.526 416.25 311.927 405.449 317.327 416.25Z" transform="matrix(1.00017 0 0 1 93.0589 111.92)"/><path d="M0-0.270029 26.4724-0.270029 26.4724 30.2363 26.2023 29.9663 42.6837 29.9663 42.6837 30.5064 25.9323 30.5064 25.9323 0 26.2023 0.270029 0 0.270029ZM41.6035 24.8358 52.4047 30.2363 41.6035 35.6369Z" transform="matrix(-1.83729e-16 -1 -1.00017 1.83697e-16 435.644 569.775)"/><path d="M0-0.270029 63.7766-0.270029 63.7766 32.5283 63.5066 32.2583 165.896 32.2583 165.626 32.5283 165.626 14.8717 166.166 14.8717 166.166 32.7984 63.2366 32.7984 63.2366 0 63.5066 0.270029 0 0.270029ZM160.496 15.9518 165.896 5.15063 171.297 15.9518Z" transform="matrix(-1.00017 1.22465e-16 1.22486e-16 1 571.328 512.509)"/><text font-family="Yu Gothic,Yu Gothic_MSFontService,sans-serif" font-weight="400" font-size="11" transform="matrix(0.81023 0 0 0.810089 413.884 535)">R<tspan font-size="11" x="7.00002" y="0">507</tspan></text><path d="M312.289 359.11 312.289 183.485 471.076 183.485" stroke="#000000" stroke-width="0.540059" stroke-miterlimit="8" fill="none" fill-rule="evenodd" transform="matrix(1.00017 0 0 1 93.0589 111.92)"/><text font-family="Yu Gothic,Yu Gothic_MSFontService,sans-serif" font-weight="400" font-size="11" transform="matrix(0.81023 0 0 0.810089 406.708 337)">R<tspan font-size="11" x="7.00002" y="0">506</tspan><tspan font-size="11" x="3.09157" y="160.476">*</tspan></text><path d="M0 0-40.0757 0-40.0757 311.837 197.671 311.837" stroke="#000000" stroke-width="0.540059" stroke-miterlimit="8" fill="none" fill-rule="evenodd" transform="matrix(1.00017 -1.22465e-16 -1.22486e-16 -1 366.512 494.64)"/><text font-family="Yu Gothic,Yu Gothic_MSFontService,sans-serif" font-weight="400" font-size="11" transform="matrix(0.81023 0 0 0.810089 451.655 171)">R<tspan font-size="11" x="7.00002" y="0">505</tspan><tspan font-size="11" x="-130.085" y="396.253">*</tspan></text><path d="M0 0-19.4428 0-19.4428 188.798 301.811 188.798 301.811 274.835" stroke="#000000" stroke-width="0.540059" stroke-miterlimit="8" fill="none" fill-rule="evenodd" transform="matrix(1.00017 -1.22465e-16 -1.22486e-16 -1 300.883 593.733)"/><text font-family="Yu Gothic,Yu Gothic_MSFontService,sans-serif" font-weight="400" font-size="11" transform="matrix(0.81023 0 0 0.810089 474.023 400)">R<tspan font-size="11" x="7.00002" y="0">508</tspan><tspan font-size="11" x="-230.301" y="257.996">*</tspan></text><path d="M548.835 524.532 626.604 524.532 626.604 571.518 548.835 571.518Z" stroke="#000000" stroke-width="1.08012" stroke-miterlimit="8" fill="#FFFFFF" transform="matrix(1.00017 0 0 1 93.0589 111.92)"/><text font-family="Yu Gothic,Yu Gothic_MSFontService,sans-serif" font-weight="400" font-size="11" transform="matrix(0.81023 0 0 0.810089 661.858 657)">SM<tspan font-size="11" x="19.5" y="0">LEVT</tspan><tspan font-size="11" x="-5.33333" y="13.5788">(</tspan><tspan font-size="11" x="-1.16665" y="13.5788">SM</tspan><tspan font-size="11" x="15.8333" y="13.5788">_</tspan><tspan font-size="11" x="21.8333" y="13.5788">LEVT</tspan><tspan font-size="11" x="49.8333" y="13.5788">)</tspan></text><path d="M0 0 42.7114 0 42.7114 206.406" stroke="#000000" stroke-width="0.540059" stroke-miterlimit="8" fill="none" fill-rule="evenodd" transform="matrix(1.83729e-16 1 1.00017 -1.83697e-16 435.381 617.011)"/><text font-family="Yu Gothic,Yu Gothic_MSFontService,sans-serif" font-weight="400" font-size="11" transform="matrix(0.81023 0 0 0.810089 509.376 655)">R<tspan font-size="11" x="7.00002" y="0">509</tspan><tspan font-size="11" x="-82.4602" y="-29.6264">0</tspan><tspan font-size="11" x="-76.4602" y="-29.6264">..</tspan><tspan font-size="11" x="-70.4602" y="-29.6264">1</tspan><tspan font-size="11" x="135.774" y="20.9854">0</tspan>..<tspan font-size="11" x="147.774" y="20.9854">1</tspan></text><path d="M704.372 160.803 782.141 160.803 782.141 207.788 704.372 207.788Z" stroke="#000000" stroke-width="1.08012" stroke-miterlimit="8" fill="#FFFFFF" transform="matrix(1.00017 0 0 1 93.0589 111.92)"/><text font-family="Yu Gothic,Yu Gothic_MSFontService,sans-serif" font-weight="400" font-size="11" transform="matrix(0.81023 0 0 0.810089 817.302 293)">SM<tspan font-size="11" x="19.5" y="0">S</tspan><tspan font-size="11" x="26.1666" y="0">EVT</tspan><tspan font-size="11" x="-5.33341" y="13.5788">(</tspan><tspan font-size="11" x="-1.16672" y="13.5788">SM</tspan><tspan font-size="11" x="15.8333" y="13.5788">_</tspan><tspan font-size="11" x="21.8333" y="13.5788">SEVT</tspan><tspan font-size="11" x="49.8333" y="13.5788">)</tspan></text><path d="M0-0.270029 247.314-0.270029 247.314 363.945 165.273 363.945 165.273 363.405 247.044 363.405 246.773 363.675 246.773 0 247.044 0.270029 0 0.270029ZM166.353 369.076 155.552 363.675 166.353 358.275Z" transform="matrix(1.00017 0 0 -1 719.772 659.89)"/><text font-family="Yu Gothic,Yu Gothic_MSFontService,sans-serif" font-weight="400" font-size="11" transform="matrix(0.81023 0 0 0.810089 979.289 375)">R<tspan font-size="11" x="6.99995" y="0">526</tspan></text><path d="M742.987 160.396 742.987 126.71 826.744 126.71 826.477 126.981 826.477 103.286 827.012 103.286 827.012 127.25 743.256 127.25 743.526 126.981 743.526 160.396ZM821.341 104.366 826.744 93.5653 832.147 104.366Z" transform="matrix(1.00017 0 0 1 93.0589 111.92)"/><text font-family="Yu Gothic,Yu Gothic_MSFontService,sans-serif" font-weight="400" font-size="11" transform="matrix(0.81023 0 0 0.810089 924.169 237)">R<tspan font-size="11" x="7.00002" y="0">525</tspan></text><path d="M883.402 136.5 961.17 136.5 961.17 183.485 883.402 183.485Z" stroke="#000000" stroke-width="1.08012" stroke-miterlimit="8" fill="#FFFFFF" transform="matrix(1.00017 0 0 1 93.0589 111.92)"/><text font-family="Yu Gothic,Yu Gothic_MSFontService,sans-serif" font-weight="400" font-size="11" transform="matrix(0.81023 0 0 0.810089 995.906 269)">SM<tspan font-size="11" x="19.5" y="0">PEVT</tspan><tspan font-size="11" x="-5.33326" y="13.5788">(</tspan><tspan font-size="11" x="-1.16665" y="13.5788">SM</tspan><tspan font-size="11" x="15.8334" y="13.5788">_</tspan><tspan font-size="11" x="21.8334" y="13.5788">PEVT</tspan><tspan font-size="11" x="49.8334" y="13.5788">)</tspan></text><path d="M883.037 159.989 826.428 159.989 826.428 103.286 826.963 103.286 826.963 159.72 826.696 159.449 883.037 159.449ZM821.292 104.366 826.696 93.5653 832.099 104.366Z" transform="matrix(1.00017 0 0 1 93.0589 111.92)"/><path d="M946.589 252.343 1024.36 252.343 1024.36 299.328 946.589 299.328Z" stroke="#000000" stroke-width="1.08012" stroke-miterlimit="8" fill="#FFFFFF" transform="matrix(1.00017 0 0 1 93.0589 111.92)"/><text font-family="Yu Gothic,Yu Gothic_MSFontService,sans-serif" font-weight="400" font-size="11" transform="matrix(0.81023 0 0 0.810089 1056.22 385)">SM<tspan font-size="11" x="19.4999" y="0">NLEVT</tspan><tspan font-size="11" x="-5.33341" y="12.3443">(</tspan><tspan font-size="11" x="-1.16672" y="12.3443">SM</tspan><tspan font-size="11" x="15.8333" y="12.3443">_</tspan><tspan font-size="11" x="21.8332" y="12.3443">NLEVT</tspan><tspan font-size="11" x="57.8333" y="12.3443">)</tspan></text><path d="M0 0 92.5526 0 92.5526 24.3885" stroke="#000000" stroke-width="0.540059" stroke-miterlimit="8" fill="none" fill-rule="evenodd" transform="matrix(-1.83729e-16 -1 -1.00017 1.83697e-16 1078.79 364.466)"/><text font-family="Yu Gothic,Yu Gothic_MSFontService,sans-serif" font-weight="400" font-size="11" transform="matrix(0.81023 0 0 0.810089 1085.94 312)">R<tspan font-size="11" x="7.00002" y="0">527</tspan><tspan font-size="11" x="0" y="58.0183">*</tspan></text><path d="M946.354 276.441 875.414 276.441 875.414 184.295 875.682 184.565 791.862 184.565 791.862 184.025 875.957 184.025 875.957 276.171 875.682 275.902 946.354 275.902ZM792.942 189.696 782.141 184.295 792.942 178.894Z" transform="matrix(1.00017 0 0 1 93.0589 111.92)"/><path d="M545.595-31.1885 623.363-31.1885 623.363 15.7967 545.595 15.7967Z" stroke="#000000" stroke-width="1.08012" stroke-miterlimit="8" fill="#FFFFFF" transform="matrix(1.00017 0 0 1 93.0589 111.92)"/><text font-family="Yu Gothic,Yu Gothic_MSFontService,sans-serif" font-weight="400" font-size="11" transform="matrix(0.81023 0 0 0.810089 660.141 101)">SM<tspan font-size="11" x="19.4999" y="0">ASM</tspan><tspan font-size="11" x="-5.33333" y="13.5788">(</tspan><tspan font-size="11" x="-1.16672" y="13.5788">SM</tspan><tspan font-size="11" x="15.8333" y="13.5788">_</tspan><tspan font-size="11" x="21.8333" y="13.5788">ASM</tspan><tspan font-size="11" x="45.8333" y="13.5788">)</tspan></text><path d="M415.981-31.1885 493.749-31.1885 493.749 15.7967 415.981 15.7967Z" stroke="#000000" stroke-width="1.08012" stroke-miterlimit="8" fill="#FFFFFF" transform="matrix(1.00017 0 0 1 93.0589 111.92)"/><text font-family="Yu Gothic,Yu Gothic_MSFontService,sans-serif" font-weight="400" font-size="11" transform="matrix(0.81023 0 0 0.810089 531.569 101)">SM<tspan font-size="11" x="19.5" y="0">ISM</tspan><tspan font-size="11" x="-5.33326" y="13.5788">(</tspan><tspan font-size="11" x="-1.16665" y="13.5788">SM</tspan><tspan font-size="11" x="15.8334" y="13.5788">_</tspan><tspan font-size="11" x="21.8333" y="13.5788">ISM</tspan><tspan font-size="11" x="41.8334" y="13.5788">)</tspan></text><path d="M585.076 15.7968 585.076 31.9384 509.951 31.9384 510.221 31.6683 510.221 37.8188 509.681 37.8188 509.681 31.3983 584.806 31.3983 584.536 31.6683 584.536 15.7968ZM515.352 36.7387 509.951 47.5399 504.55 36.7387Z" transform="matrix(1.00017 0 0 1 93.0589 111.92)"/><path d="M0-0.270029 16.1416-0.270029 16.1416 55.2466 15.8716 54.9766 22.0221 54.9766 22.0221 55.5166 15.6016 55.5166 15.6016 0 15.8716 0.270029 0 0.270029ZM20.9419 49.846 31.7432 55.2466 20.9419 60.6472Z" transform="matrix(1.83729e-16 1 1.00017 -1.83697e-16 548.003 127.717)"/><text font-family="Yu Gothic,Yu Gothic_MSFontService,sans-serif" font-weight="400" font-size="11" transform="matrix(0.81023 0 0 0.810089 665.372 161)">R<tspan font-size="11" x="7.00002" y="0">517</tspan></text><path d="M480.788-109.767 558.556-109.767 558.556-63.592 480.788-63.592Z" stroke="#000000" stroke-width="1.08012" stroke-miterlimit="8" fill="#FFFFFF" transform="matrix(1.00017 0 0 1 93.0589 111.92)"/><text font-family="Yu Gothic,Yu Gothic_MSFontService,sans-serif" font-weight="400" font-size="11" transform="matrix(0.81023 0 0 0.810089 599.332 23)">Objec<tspan font-size="11" x="28.6667" y="0">t</tspan><tspan font-size="11" x="-4.16661" y="12.3443">(</tspan><tspan font-size="11" x="0" y="12.3443">O</tspan><tspan font-size="11" x="7.99996" y="12.3443">_</tspan><tspan font-size="11" x="14" y="12.3443">OBJ</tspan><tspan font-size="11" x="33" y="12.3443">)</tspan></text><path d="M0 0 55.3458 0 55.3458 26.1665" stroke="#000000" stroke-width="0.540059" stroke-miterlimit="8" fill="none" fill-rule="evenodd" transform="matrix(-1.83729e-16 -1 -1.00017 1.83697e-16 677.884 80.1818)"/><path d="M454.865-31.7388 454.865-87.0845 481.032-87.0845" stroke="#000000" stroke-width="0.540059" stroke-miterlimit="8" fill="none" fill-rule="evenodd" transform="matrix(1.00017 0 0 1 93.0589 111.92)"/><text font-family="Yu Gothic,Yu Gothic_MSFontService,sans-serif" font-weight="400" font-size="11" transform="matrix(0.81023 0 0 0.810089 521.518 54)">R<tspan font-size="11" x="7.00002" y="0">518</tspan><tspan font-size="11" x="201.917" y="1.23443">R</tspan><tspan font-size="11" x="208.917" y="1.23443">519</tspan><tspan font-size="11" x="203.734" y="24.6887">0</tspan>..<tspan font-size="11" x="215.734" y="24.6887">1</tspan><tspan font-size="11" x="0.946228" y="23.4542">0</tspan><tspan font-size="11" x="6.94624" y="23.4542">..</tspan><tspan font-size="11" x="12.9462" y="23.4542">1</tspan></text><path d="M99.2359 138.93 177.004 138.93 177.004 185.915 99.2359 185.915Z" stroke="#000000" stroke-width="1.08012" stroke-miterlimit="8" fill="#FFFFFF" transform="matrix(1.00017 0 0 1 93.0589 111.92)"/><text font-family="Yu Gothic,Yu Gothic_MSFontService,sans-serif" font-weight="400" font-size="11" transform="matrix(0.81023 0 0 0.810089 210.023 272)">SM<tspan font-size="11" x="19.5" y="0">MOAH</tspan><tspan font-size="11" x="-5.33333" y="12.3443">(</tspan><tspan font-size="11" x="-1.16666" y="12.3443">SM</tspan><tspan font-size="11" x="15.8333" y="12.3443">_</tspan><tspan font-size="11" x="21.8333" y="12.3443">MOAH</tspan>)</text><path d="M317.15 83.8442 394.918 83.8442 394.918 130.829 317.15 130.829Z" stroke="#000000" stroke-width="1.08012" stroke-miterlimit="8" fill="#FFFFFF" transform="matrix(1.00017 0 0 1 93.0589 111.92)"/><text font-family="Yu Gothic,Yu Gothic_MSFontService,sans-serif" font-weight="400" font-size="11" transform="matrix(0.81023 0 0 0.810089 424.829 216)">SM<tspan font-size="11" x="19.5" y="0">MOORE</tspan><tspan font-size="11" x="-5.33337" y="13.5788">(</tspan><tspan font-size="11" x="-1.16672" y="13.5788">SM</tspan><tspan font-size="11" x="15.8333" y="13.5788">_</tspan><tspan font-size="11" x="21.8333" y="13.5788">MOORE</tspan><tspan font-size="11" x="61.8333" y="13.5788">)</tspan></text><path d="M0 0 53.4405 0 53.4405 84.7507" stroke="#000000" stroke-width="0.540059" stroke-miterlimit="8" fill="none" fill-rule="evenodd" transform="matrix(-1.83729e-16 -1 -1.00017 1.83697e-16 572.812 272.698)"/><text font-family="Yu Gothic,Yu Gothic_MSFontService,sans-serif" font-weight="400" font-size="11" transform="matrix(0.81023 0 0 0.810089 495.932 233)">0<tspan font-size="11" x="6.00001" y="0">..</tspan><tspan font-size="11" x="12" y="0">1</tspan><tspan font-size="11" x="78.4318" y="41.9707">*</tspan><tspan font-size="11" x="25.5999" y="-25.9231">R</tspan><tspan font-size="11" x="32.5999" y="-25.9231">511</tspan></text><path d="M0 0 300.812 31.283" stroke="#000000" stroke-width="0.540059" stroke-miterlimit="8" stroke-dasharray="1.62018 0.540059" fill="none" fill-rule="evenodd" transform="matrix(1.00017 0 0 -1 270.094 274.843)"/><path d="M76.5535 214.268 154.322 214.268 154.322 261.254 76.5535 261.254Z" stroke="#000000" stroke-width="1.08012" stroke-miterlimit="8" fill="#FFFFFF" transform="matrix(1.00017 0 0 1 93.0589 111.92)"/><text font-family="Yu Gothic,Yu Gothic_MSFontService,sans-serif" font-weight="400" font-size="11" transform="matrix(0.81023 0 0 0.810089 193.833 347)">SM<tspan font-size="11" x="19.5" y="0">AH</tspan><tspan font-size="11" x="-5.33333" y="12.3443">(</tspan><tspan font-size="11" x="-1.16666" y="12.3443">SM</tspan><tspan font-size="11" x="15.8333" y="12.3443">_</tspan><tspan font-size="11" x="21.8333" y="12.3443">AH</tspan><tspan font-size="11" x="36.8333" y="12.3443">)</tspan></text><path d="M115.168 214.386 115.168 199.88 138.78 199.88 138.511 200.151 138.511 195.636 139.05 195.636 139.05 200.421 115.438 200.421 115.707 200.151 115.707 214.386ZM133.379 196.716 138.78 185.915 144.181 196.716Z" transform="matrix(1.00017 0 0 1 93.0589 111.92)"/><text font-family="Yu Gothic,Yu Gothic_MSFontService,sans-serif" font-weight="400" font-size="11" transform="matrix(0.81023 0 0 0.810089 170.228 314)">R<tspan font-size="11" x="6.99999" y="0">513</tspan></text><path d="M115.438 261.254 115.438 316.808" stroke="#000000" stroke-width="0.540059" stroke-miterlimit="8" fill="none" fill-rule="evenodd" transform="matrix(1.00017 0 0 1 93.0589 111.92)"/><text font-family="Yu Gothic,Yu Gothic_MSFontService,sans-serif" font-weight="400" font-size="11" transform="matrix(0.81023 0 0 0.810089 782.061 310)">*<tspan font-size="11" x="-160.453" y="0">*</tspan><tspan font-size="13" x="12.2181" y="492.539">※</tspan><tspan font-size="13" x="29.3848" y="492.539">多重度</tspan><tspan font-size="13" x="73.2181" y="492.539">1</tspan><tspan font-size="13" x="84.3848" y="492.539">は</tspan><tspan font-size="13" x="97.3848" y="492.539">省略</tspan></text></g></g></g></g><path d="M560.139 307.998 502.451 309.998 502.816 309.968 498.848 310.472 494.747 310.928 481.907 311.497 469.137 311.935 470.186 311.758 457.154 315.802 454.234 316.158 454.343 316.143 453.093 316.331 453.95 316.103 452.825 316.541 454.353 315.483 452.728 317.295 453.153 316.727 451.78 318.95 450.839 320.294 450.927 320.163 450.365 321.038 450.413 320.961 449.635 322.233 448.648 323.574 447.837 324.655 446.658 326.095 444.72 328.471 443.257 330.252 442.173 331.528 442.27 331.409 441.494 332.397 438.734 335.433 435.676 333.904 435.281 333.641 439.596 333.719 438.784 334.219 439.159 333.958 438.284 334.645 438.563 334.404 437.376 335.529 437.397 335.508 435.772 337.071 435.787 337.057 433.6 339.182 433.978 338.758 432.915 340.133 433.24 339.642 432.352 341.228 428.401 348.064 428.831 346.979 428.081 350.166 428.092 350.118 427.467 352.93 427.521 352.64 427.083 355.64 427.123 355.196 426.998 358.946 427 358.812 427 362.725 426.937 366.083 426.874 368.849 426.811 371.181 426.748 373.129 426.75 373 426.75 374.614 426.686 377.103 426.679 376.734 426.804 378.609 426.73 378.065 427.105 379.877 427.013 379.519 427.7 381.769 427.677 381.695 428.97 385.649 427.989 405.078 427.474 409.579 426.975 414.01 426.997 413.721 426.434 427.908 426.436 427.874 425.998 441.999 425.997 441.732 426.435 453.982 426.433 453.941 426.996 466.128 426.943 465.641 427.443 468.579 427.981 471.74 428.431 479.841 428.429 479.807 428.738 484.623 420.754 485.134 420.445 480.301 420.006 472.409 420.057 472.859 419.557 469.921 419.016 466.742 418.441 454.289 417.998 441.884 418.44 427.609 419.009 413.259 419.526 408.671 420.026 404.296 420.005 404.548 420.943 385.986 421.136 387.43 420.061 384.144 419.308 381.679 418.84 379.416 418.684 377.082 418.751 374.46 418.75 374.562 418.75 372.935 418.815 370.934 418.814 370.954 418.876 368.642 418.876 368.659 418.939 365.909 418.938 365.925 419.001 362.612 419 362.688 419 358.746 419.135 354.706 419.626 351.339 420.288 348.358 421.179 344.572 425.412 337.248 425.385 337.296 426.404 335.475 427.821 333.642 430.22 331.311 431.863 329.731 433.196 328.469 434.396 327.526 437.586 325.563 439.906 327.109 439.476 326.86 439.601 326.922 434.853 327.809 435.478 327.122 435.292 327.341 436.027 326.406 437.14 325.097 437.097 325.149 438.534 323.399 438.526 323.409 440.467 321.03 441.592 319.655 441.487 319.788 442.237 318.788 442.217 318.815 443.092 317.627 442.899 317.914 443.611 316.75 444.24 315.771 445.161 314.456 445.034 314.648 446.534 312.22 449.035 309.431 451.466 308.485 453.211 308.224 455.828 307.904 455.127 308.055 468.327 303.958 481.613 303.502 481.573 303.504 494.26 302.941 493.996 302.962 497.933 302.524 497.871 302.532 501.991 302.009 559.861 300.002ZM559.584 292.007C566.208 291.778 571.763 296.961 571.993 303.584 572.222 310.208 567.039 315.763 560.416 315.993 553.792 316.222 548.237 311.039 548.007 304.416 547.778 297.792 552.961 292.237 559.584 292.007ZM438.764 460.558 425.918 492.73 404.237 465.711C402.854 463.988 403.13 461.471 404.853 460.088 406.576 458.706 409.093 458.982 410.476 460.705L427.865 482.375 421.031 483.395 431.335 457.591C432.154 455.54 434.481 454.541 436.533 455.36 438.585 456.179 439.584 458.506 438.764 460.558Z" fill="#FF0000" fill-opacity="0.501961"/><path d="M430.902 532.824 432.902 541.681 432.881 541.592 434.006 546.092 433.897 545.731 434.647 547.856 434.473 547.44 435.536 549.627 435.484 549.525 436.984 552.4 436.91 552.265 438.172 554.474 439.122 556.182 439.087 556.121 439.774 557.308 439.601 557.036 440.217 557.925 440.579 558.505 440.016 557.797 440.391 558.172 439.351 557.422 440.669 558.081 441.642 560.028 441.92 560.86 441.802 560.549 442.209 561.5 442.738 562.889 442.696 562.783 443.777 565.395 443.433 575.652 442.716 585.353 441.792 589.337 440.607 592.89 440.63 592.818 439.693 595.818 439.734 595.677 439.15 597.821 438.687 599.275 438.693 599.256 438.284 600.563 437.252 602.628 436.416 603.996 435.226 605.714 435.829 604.364 434.876 608.367 433.705 612.638 432.589 615.017 431.554 617.022 431.929 615.94 431.366 618.877 431.396 618.702 430.958 621.702 430.99 620.848 431.304 625.36 431.558 629.363 431.685 632.855 431.68 632.76 431.868 635.885 431.853 635.706 432.478 641.644 432.437 641.354 432.999 644.479 432.934 644.184 433.809 647.559 433.724 647.273 434.724 650.211 434.344 649.404 435.344 651.029 435.15 650.742 436.587 652.679 436.422 652.471 439.984 656.658 439.862 656.521 441.648 658.435 443.121 660.1 442.953 659.922 444.016 660.984 444.516 661.484 444.469 661.438 448.344 665.188 448.292 665.138 451.104 667.763 451.066 667.728 453.128 669.603 452.837 669.362 454.587 670.675 454.186 670.41 455.811 671.348 455.318 671.107 457.318 671.919 457.207 671.876 459.895 672.876 459.877 672.87 463.627 674.245 461.943 674.012 483.068 672.387 482.996 672.393 493.496 671.393 493.402 671.403 503.902 670.153 502.951 670.387 504.264 669.887 503.127 670.552 504.344 669.538 505.904 668.388 507.928 667.376 512.233 666.486 516.108 666.026 523.499 665.212 523.266 665.244 529.141 664.244 527.198 665.16 528.761 663.81 530.204 662.848 532.126 662.257 538.145 662.187 544.103 662.315 556.482 663.073 568.865 664.142 574.698 664.706 574.679 664.704 580.293 665.221 602.261 669.232 606.359 670.488 606.187 670.439 608.125 670.939 607.621 670.843 609.621 671.093 609.058 671.063 664.87 670.126 664.486 670.151 682.111 668.151 681.663 668.227 684.245 667.632 687.166 667.182 709.087 667.563 730.765 668.129 747.487 669.386 747.458 669.384 755.77 669.947 755.59 669.938 763.903 670.126 763.812 670.125 770.812 670.125 777.438 670.125 783.625 670.125 783.581 670.125 789.353 670.062 794.688 670.062 799.688 670.062 799.631 670.063 808.517 669.938 815.966 669.875 822.21 669.813 822.15 669.814 827.15 669.689 827.123 669.69 831.061 669.565 831.017 669.566 833.955 669.441 833.883 669.445 835.945 669.32 835.789 669.332 837.039 669.207 836.653 669.265 837.278 669.14 834.062 673.062 834.062 672.938 836.964 676.784 836.526 676.659 837.017 676.766 836.204 676.641 836.371 676.663 835.246 676.538 835.402 676.552 832.77 676.364 830.263 676.176 830.313 676.18 829.239 676.113 828.539 676.043 828.938 676.062 828.688 676.062 828.688 668.062 829 668.062 830.014 668.062 831.716 668.128 831.662 668.126 834.185 668.189 837.645 668.315 837.611 668.314 842.111 668.439 842.09 668.438 847.681 668.564 854.522 668.815 854.467 668.814 862.934 669.007 871.21 670.365 871.074 670.345 874.949 670.845 874.691 670.821 878.628 671.071 878.319 671.063 882.756 671 882.527 671.01 886.902 670.698 886.851 670.702 891.371 670.32 896.005 670.121 904.538 670.506 913.554 671.116 915.663 671.995 915.135 671.817 916.572 672.192 915.562 672.062 920.375 672.062 920.305 672.063 923.902 672 926.5 672 926.352 672.003 928.039 671.94 927.938 671.945 928.938 671.883 927.702 672.161 928.015 672.036 927.711 679.328 927.586 679.265 928.11 679.482 927.735 679.357 928.176 679.477 926.601 679.145 924.706 678.333 921.823 674.008 925.777 671.043 927.622 670.617 929.427 670.4 931.92 670.138 941.347 669.568 950.623 669.129 949.461 669.36 956.85 666.708 964.458 664.322 970.678 662.912 970.297 663.018 973.297 662.018 972.613 662.32 975.301 660.82 974.503 661.404 976.754 659.279 976.37 659.697 978.557 656.947 978.393 657.168 980.331 654.356 980.312 654.384 981.749 652.259 981.101 653.945 981.54 650.808 981.919 648.223 982.233 646.151 982.231 646.164 982.482 644.465 982.859 642.017 982.848 642.096 983.098 640.221 983.072 640.475 983.198 638.646 983.387 636.193 983.511 634.517 983.507 634.578 983.634 632.424 983.823 629.833 983.82 629.885 984.007 626.76 984 627.046 983.688 600.046 983.688 600.093 983.063 573.093 983.079 573.362 982.641 568.55 982.67 568.785 981.857 563.41 981.903 563.657 980.715 558.157 980.798 558.475 979.298 553.538 979.524 554.117 978.587 552.18 978.61 552.226 977.468 549.942 976.284 546.181 975.324 542.597 975.377 542.779 974.209 539.12 974.448 535.462 974.637 533.06 974.633 533.117 974.76 531.149 974.888 529.549 975.076 527.293 975.066 527.458 975.129 525.942 975.14 525.721 983.13 526.119 983.12 526.324 983.122 526.292 983.056 527.875 982.861 530.207 982.862 530.194 982.737 531.756 982.742 531.695 982.615 533.661 982.425 536.065 982.429 536.01 982.241 538.885 982.061 537.409 983.027 540.436 983.989 544.028 983.94 543.861 985.003 547.236 984.765 546.649 985.777 548.672 986.862 550.914 988.5 556.307 989.749 562.091 990.598 567.707 991.058 572.772 991.687 599.931 992.001 627.097 991.804 630.391 991.614 632.979 991.618 632.922 991.491 635.078 991.363 636.807 991.176 639.244 991.178 639.213 991.044 641.152 990.772 643.193 990.391 645.671 990.394 645.649 990.143 647.343 989.83 649.412 989.833 649.392 989.458 651.954 989.461 651.93 988.895 655.973 986.929 658.88 984.903 661.82 982.453 664.9 979.634 667.563 976.184 669.488 972.64 670.67 966.385 672.088 966.697 672.004 959.322 674.317 959.476 674.265 951.6 677.092 941.751 677.558 941.804 677.555 932.491 678.118 932.669 678.103 930.294 678.353 930.352 678.346 928.789 678.534 929.212 678.46 928.399 678.648 929.9 677.95 929.65 678.138 930.578 672.719 930.703 672.906 928.95 671.448 929.388 671.636 928.636 671.398 930.048 671.695 930.909 671.983 939.257 676.156 930.077 679.827 928.386 679.933 926.574 680 923.938 680 924.008 679.999 920.41 680.062 915.049 680.062 912.845 679.487 911.086 678.755 912.355 679.053 904.042 678.491 904.132 678.496 895.82 678.121 896.171 678.121 891.796 678.309 891.962 678.298 887.498 678.675 882.983 678.998 878.276 679.064 874.054 678.796 869.983 678.271 861.915 676.947 862.471 676.999 854.256 676.811 847.416 676.56 847.473 676.561 841.9 676.436 837.372 676.31 833.917 676.185 833.963 676.186 831.436 676.123 829.784 676.06 829.938 676.062 829 676.062 828.688 676.062 828.688 668.062 829.137 668.062 829.961 668.145 829.812 668.133 830.837 668.197 833.362 668.386 833.347 668.385 836.051 668.578 837.338 668.721 838.482 668.897 842.062 669.92 842.062 676.342 838.03 677.148 836.508 677.3 834.331 677.432 831.336 677.56 827.363 677.686 822.32 677.812 816.034 677.875 808.596 677.937 808.619 677.937 799.716 678.062 794.688 678.062 789.375 678.062 789.418 678.062 783.647 678.125 777.438 678.125 770.812 678.125 763.767 678.125 755.32 677.934 746.902 677.365 730.263 676.114 730.458 676.124 708.896 675.561 708.93 675.562 687.368 675.187 688.046 675.141 685.608 675.516 685.899 675.46 683.24 676.074 665.197 678.121 608.909 679.067 606.374 678.75 604.101 678.163 600.141 676.949 600.594 677.06 579.031 673.122 579.384 673.171 573.937 672.67 568.115 672.106 568.156 672.11 555.844 671.048 555.943 671.055 543.693 670.305 543.852 670.312 538.039 670.187 538.172 670.187 532.797 670.25 533.926 670.073 533.114 670.323 534.156 669.828 533.406 670.328 533.802 670.027 531.583 671.944 524.493 673.151 517.001 673.976 517.034 673.972 513.346 674.41 513.685 674.355 510.06 675.105 511.039 674.765 509.789 675.39 510.373 675.033 509.185 675.908 509.373 675.76 507.735 677.125 505.338 678.039 494.301 679.353 483.718 680.36 461.69 682.055 457.114 680.377 454.362 679.353 452.052 678.415 449.98 677.219 447.886 675.649 445.665 673.63 442.807 670.962 438.882 667.164 438.359 666.641 437.21 665.492 435.692 663.775 435.763 663.854 433.951 661.912 430.242 657.553 428.622 655.369 427.296 653.214 426.103 649.711 425.153 646.045 424.537 642.627 423.888 636.454 423.692 633.193 423.565 629.708 423.571 629.816 423.321 625.878 423.322 625.902 422.98 620.973 423.492 617.46 424.18 613.867 425.446 611.415 425.378 611.552 426.316 609.552 426.08 610.192 427.142 606.317 427.109 606.448 428.221 601.779 429.774 599.536 429.649 599.727 430.337 598.602 430.172 598.899 430.985 597.274 430.745 597.869 431.06 596.859 431.501 595.475 431.453 595.635 432.035 593.502 433.006 590.396 434.143 586.985 434.041 587.345 434.854 583.845 434.761 584.456 435.448 575.143 435.44 575.303 435.752 565.991 436.054 567.654 435.282 565.789 434.762 564.424 434.823 564.576 434.383 563.548 434.143 562.827 434.36 563.351 434.11 562.851 435.899 564.64 435.193 564.287 434.037 563.131 433.483 562.245 433.586 562.402 432.932 561.456 432.146 560.099 431.191 558.38 431.215 558.422 429.927 556.168 428.365 553.174 427.178 550.732 426.29 548.216 425.108 543.488 423.098 534.587ZM961.533 547.786 979.189 517.981 996.442 548.021C997.542 549.937 996.881 552.382 994.966 553.482 993.05 554.582 990.605 553.921 989.505 552.006L975.667 527.912 982.577 527.958 968.416 551.864C967.29 553.765 964.836 554.393 962.936 553.267 961.035 552.141 960.407 549.687 961.533 547.786Z" fill="#FF0000" fill-opacity="0.501961"/><path d="M441.957 501.26 442.707 506.355 442.694 506.272 443.507 511.084 443.418 510.685 444.731 515.435 444.566 514.958 446.628 519.896 446.41 519.453 447.41 521.203 447.15 520.804 448.587 522.742 448.44 522.555 452.003 526.805 451.744 526.524 455.744 530.462 455.449 530.199 457.386 531.761 457.2 531.62 458.95 532.87 458.213 532.454 460.525 533.454 460.058 533.285 463.058 534.16 462.641 534.062 466.141 534.687 465.975 534.661 469.662 535.161 469.559 535.149 472.996 535.524 472.969 535.521 476.031 535.833 475.841 535.818 478.255 535.949 479.854 536.117 482.031 536.698 481.85 536.654 483.32 536.974 484.416 537.231 484.216 537.19 484.903 537.315 484.454 537.259 485.391 537.321 484.341 537.39 485.293 537.2 487.027 536.866 488.511 536.654 490.501 536.448 492.999 536.317 496.038 536.19 499.871 536.062 504.604 536.062 522.791 536.439 541.067 537.008 546.632 537.72 546.357 537.694 551.732 538.007 550.948 538.038 555.886 537.351 555.444 537.438 560.319 536.188 559.994 536.286 567.869 533.536 567.692 533.603 575.442 530.478 575.1 530.635 576.912 529.697 576.63 529.858 578.63 528.608 578.395 528.767 582.77 525.58 582.584 525.723 586.48 522.519 588.064 521.252 587.916 521.376 588.979 520.438 588.909 520.501 591.409 518.189 591.297 518.297 593.984 515.609 593.794 515.813 596.294 512.938 596.072 513.218 598.197 510.281 597.86 510.836 599.797 506.961 599.412 508.21 600.403 500.943 601.719 497.131 601.705 497.173 602.268 495.485 602.103 496.184 602.353 494.434 602.323 495.293 602.011 491.043 602.119 491.72 601.244 488.22 601.406 488.723 600.094 485.411 598.606 481.659 597.397 477.872 597.766 472.117 598.487 466.495 599.723 463.858 600.758 461.853 600.425 462.743 601.488 458.368 601.461 458.486 602.449 453.809 604.029 449.203 604.007 449.267 605.445 444.83 605.318 445.325 605.733 443.117 606.596 440.24 608.729 437.719 610.552 436.187 610.495 436.236 617.053 430.514 620.985 427.846 625.494 425.629 629.079 424.866 632.57 424.42 639.375 424.887 645.924 425.465 649.258 425.988 653.114 426.62 657.37 427.382 661.784 428.265 661.768 428.262 670.393 429.949 674.23 430.704 677.563 431.396 676.131 431.361 684.506 430.048 684.352 430.075 692.602 428.45 692.02 428.611 695.145 427.486 694.299 427.91 697.049 426.098 696.12 426.947 698.307 424.197 697.918 424.787 699.605 421.662 699.493 421.886 700.618 419.449 700.485 419.774 701.36 417.336 701.275 417.602 703.241 410.625 704.276 407.586 704.073 408.582 705.017 395.753 706.026 386.862 706.006 387.093 706.385 380.209 707.03 373.114 707.573 369.857 708.182 367.147 709.424 362.704 710.768 358.673 710.708 358.867 711.333 356.617 711.318 356.674 712.005 354.049 711.97 354.195 712.72 350.82 712.706 350.886 713.269 348.136 713.254 348.213 713.691 345.838 713.686 345.867 714.061 343.742 714.454 341.515 715.053 338.92 715.837 335.914 716.954 332.235 717.889 329.663 719.816 326.621 722.788 324.837 725.159 323.903 725.082 323.935 728.519 322.497 728.463 322.521 731.9 321.021 731.216 321.404 732.734 320.348 734.761 319.081 740.159 317.42 745.056 315.976 744.641 316.124 748.516 314.499 748.32 314.587 752.317 312.653 756.662 310.901 761.367 309.96 779.409 308.933 784.027 309.131 787.945 309.383 787.905 309.381 791.343 309.568 791.285 309.566 794.421 309.691 799.932 309.942 799.799 309.938 804.862 310 804.717 310.001 809.967 309.876 809.816 309.883 815.878 309.508 815.845 309.51 819.407 309.26 819.314 309.267 823.314 308.892 823.3 308.894 827.8 308.456 832.857 307.957 832.184 308.082 835.121 307.27 834.757 307.39 834.922 307.326 837.784 314.797 837.439 314.929 833.985 315.884 828.575 316.419 824.068 316.857 820.014 317.237 816.388 317.491 810.234 317.872 804.835 318.001 799.634 317.936 794.068 317.683 794.09 317.684 790.936 317.558 787.45 317.368 783.555 317.117 783.641 317.121 779.266 316.934 779.665 316.931 762.102 317.931 762.659 317.86 758.597 318.672 759.308 318.46 755.433 320.022 755.68 319.913 751.708 321.835 747.531 323.587 742.444 325.087 742.489 325.073 737.614 326.573 738.557 326.142 737.057 327.079 737.222 326.971 735.461 328.196 731.634 329.866 728.13 331.331 726.029 332.159 726.62 331.867 724.745 332.992 726.067 331.703 724.879 333.578 725.259 332.804 724.509 334.867 724.578 334.662 723.515 338.162 723.558 338.01 722.808 340.885 722.835 340.774 722.273 343.212 722.314 343.008 721.939 345.133 721.562 347.272 721.114 349.701 720.537 352.522 719.763 356.003 719.049 358.73 718.389 361.106 717.045 365.14 717.102 364.951 715.915 369.201 715.965 369.003 715.402 371.503 715.446 371.283 714.946 374.283 714.984 373.987 714.359 380.862 714.369 380.72 713.988 387.648 712.974 396.576 712.989 396.418 712.014 409.679 710.849 413.102 710.912 412.898 708.937 419.907 707.955 422.642 706.704 425.353 704.789 428.9 701.984 432.426 698.303 434.852 694.445 436.241 685.821 437.94 676.65 439.377 672.625 438.542 672.665 438.55 668.857 437.801 660.224 436.111 655.841 435.235 655.92 435.25 651.732 434.5 651.79 434.51 647.978 433.885 648.005 433.889 644.818 433.389 645.086 433.422 638.711 432.859 638.789 432.866 632.414 432.428 633.194 432.405 630.257 432.78 630.582 432.725 627.645 433.35 628.578 433.027 624.765 434.902 625.246 434.622 621.746 436.997 622.13 436.701 615.727 442.289 614.135 443.625 614.616 443.146 613.241 444.771 614.019 443.337 613.456 445.212 613.556 444.8 613.134 447.051 611.607 451.765 610.096 456.172 610.226 455.702 609.276 460.198 608.087 465.097 606.867 467.46 606.934 467.323 605.997 469.323 606.343 468.134 605.718 473.009 605.742 472.756 605.429 477.631 605.248 476.159 606.186 479.096 606.093 478.838 607.531 482.464 608.941 486.023 609.964 490.114 610.333 495.138 609.971 497.673 609.288 499.723 608.093 503.181 608.276 502.415 607.249 509.947 604.869 514.705 602.448 518.052 599.74 521.167 596.898 524.008 594.307 526.406 593.137 527.438 591.499 528.748 591.541 528.714 587.575 531.976 582.991 535.317 580.732 536.728 578.608 537.827 570.596 541.058 562.471 543.895 557.213 545.243 551.661 546.016 545.755 545.673 540.242 544.968 540.625 544.998 522.563 544.436 522.605 544.437 504.48 544.062 504.562 544.062 499.938 544.062 500.071 544.06 496.321 544.185 496.354 544.184 493.354 544.309 493.398 544.307 491.023 544.432 491.224 544.416 489.412 544.604 489.566 544.585 488.253 544.772 488.443 544.741 486.818 545.053 486.847 545.047 485.389 545.339 483.695 545.226 482.684 545.042 481.521 544.769 481.588 544.784 480.059 544.451 478.094 543.927 478.706 544.041 477.519 543.915 477.722 543.932 475.314 543.802 472.143 543.478 468.639 543.096 464.817 542.577 461.023 541.9 457.578 540.895 454.647 539.627 452.455 538.062 450.272 536.302 445.995 532.091 442.233 527.604 440.583 525.379 439.342 523.207 437.087 517.809 435.652 512.618 434.799 507.562 434.043 502.425ZM810.583 299.931 844.018 308.995 819.67 333.638C818.117 335.209 815.585 335.224 814.013 333.672 812.442 332.119 812.427 329.586 813.979 328.015L833.508 308.25 835.306 314.922 808.49 307.652C806.357 307.074 805.097 304.877 805.675 302.745 806.254 300.613 808.451 299.353 810.583 299.931Z" fill="#5B9BD5" fill-opacity="0.501961"/><g clip-path="url(#clip7)" filter="url(#fx0)" transform="translate(740 317)"><g clip-path="url(#clip8)"><path d="M15.0469-18.5742 15.0469-15.9609 9.50391-15.9609 9.50391 0.046875 6.23438 0.046875 6.23438-15.9609 0.738281-15.9609 0.738281-18.5742Z" fill="#00B0F0" transform="translate(17.2338 32)"/></g></g><text fill="#00B0F0" font-family="Yu Gothic,Yu Gothic_MSFontService,sans-serif" font-weight="700" font-size="24" transform="translate(756.049 348)">T</text><g clip-path="url(#clip9)" filter="url(#fx1)" transform="translate(536 666)"><g clip-path="url(#clip10)"><path d="M16.3594-13.2422 13.2188-12.4805C12.7578-15.1055 11.4531-16.418 9.30469-16.418 7.78125-16.418 6.60547-15.7383 5.77734-14.3789 5.01172-13.1289 4.62891-11.4258 4.62891-9.26953 4.62891-6.81641 5.125-4.95312 6.11719-3.67969 6.9375-2.63281 8-2.10938 9.30469-2.10938 11.5234-2.10938 12.8906-3.4375 13.4062-6.09375L16.4648-5.15625C15.5117-1.46094 13.1172 0.386719 9.28125 0.386719 6.65625 0.386719 4.61328-0.5625 3.15234-2.46094 1.84766-4.15625 1.19531-6.41406 1.19531-9.23438 1.19531-12.4766 2.03906-14.9687 3.72656-16.7109 5.15625-18.1797 7.00781-18.9141 9.28125-18.9141 11.2969-18.9141 12.9375-18.3438 14.2031-17.2031 15.2812-16.2266 16-14.9062 16.3594-13.2422Z" fill="#FF0000" transform="translate(17.4234 32)"/></g></g><text fill="#FF0000" font-family="Yu Gothic,Yu Gothic_MSFontService,sans-serif" font-weight="700" font-size="24" transform="translate(552.239 697)">C</text></g></svg>