<svg width="607" height="504" xmlns="http://www.w3.org/2000/svg" xmlns:xlink="http://www.w3.org/1999/xlink" overflow="hidden"><defs><clipPath id="clip0"><rect x="93" y="72" width="607" height="504"/></clipPath></defs><g clip-path="url(#clip0)" transform="translate(-93 -72)"><rect x="267.5" y="214.5" width="96" height="58" stroke="#000000" stroke-width="1.33333" stroke-miterlimit="8" fill="#FFFFFF"/><text font-family="Yu Gothic,Yu Gothic_MSFontService,sans-serif" font-weight="400" font-size="11" transform="translate(293.731 240)">Property<tspan font-size="11" x="-3.5" y="13">(O_ATTR)</tspan></text><rect x="335.5" y="320.5" width="96" height="58" stroke="#000000" stroke-width="1.33333" stroke-miterlimit="8" fill="#FFFFFF"/><text font-family="Yu Gothic,Yu Gothic_MSFontService,sans-serif" font-weight="400" font-size="11" transform="translate(359.986 340)">Referring <tspan font-size="11" x="1.66666" y="13">Property </tspan><tspan font-size="11" x="-5.41998" y="25">(O_RATTR)</tspan></text><rect x="186.5" y="320.5" width="96" height="58" stroke="#000000" stroke-width="1.33333" stroke-miterlimit="8" fill="#FFFFFF"/><text font-family="Yu Gothic,Yu Gothic_MSFontService,sans-serif" font-weight="400" font-size="11" transform="translate(199.012 347)">Base Property <tspan font-size="11" x="6.74666" y="13">(O_BATTR)</tspan></text><path d="M234.167 321.271 234.167 296.552 315.385 296.552 315.052 296.885 315.052 284.5 315.719 284.5 315.719 297.219 234.5 297.219 234.833 296.885 234.833 321.271ZM308.719 285.833 315.385 272.5 322.052 285.833Z"/><path d="M0-0.333333 24.7187-0.333333 24.7187 67.9183 24.3853 67.585 36.7706 67.585 36.7706 68.2516 24.052 68.2516 24.052 0 24.3853 0.333333 0 0.333333ZM35.4373 61.2517 48.7706 67.9183 35.4373 74.585Z" transform="matrix(-1.83697e-16 -1 -1 1.83697e-16 383.418 321.271)"/><rect x="507.5" y="214.5" width="96" height="58" stroke="#000000" stroke-width="1.33333" stroke-miterlimit="8" fill="#FFFFFF"/><text font-family="Yu Gothic,Yu Gothic_MSFontService,sans-serif" font-weight="400" font-size="11" transform="translate(521.666 240)">Class Identity <tspan font-size="11" x="17.42" y="13">(O_ID)</tspan></text><path d="M363.5 243.5 508.184 243.5" stroke="#000000" stroke-width="0.666667" stroke-miterlimit="8" fill="none" fill-rule="evenodd"/><text font-family="Yu Gothic,Yu Gothic_MSFontService,sans-serif" font-weight="400" font-size="11" transform="translate(420.331 265)">R105<tspan font-size="11" x="70.9177" y="-24">*</tspan><tspan font-size="11" x="-46.4802" y="-25">*</tspan></text><rect x="389.5" y="132.5" width="96" height="58" stroke="#000000" stroke-width="1.33333" stroke-miterlimit="8" fill="#FFFFFF"/><text font-family="Yu Gothic,Yu Gothic_MSFontService,sans-serif" font-weight="400" font-size="11" transform="translate(417.104 164)">O_OIDA</text><path d="M0 0 0.000104987 53.2741" stroke="#000000" stroke-width="0.666667" stroke-miterlimit="8" stroke-dasharray="2 0.666667" fill="none" fill-rule="evenodd" transform="matrix(1 0 0 -1 437.5 243.774)"/><rect x="335.5" y="471.5" width="96" height="58" stroke="#000000" stroke-width="1.33333" stroke-miterlimit="8" fill="#FFFFFF"/><text font-family="Yu Gothic,Yu Gothic_MSFontService,sans-serif" font-weight="400" font-size="11" transform="translate(365.9 504)">O_REF</text><path d="M0 0 0.000104987 93.0205" stroke="#000000" stroke-width="0.666667" stroke-miterlimit="8" fill="none" fill-rule="evenodd" transform="matrix(1 0 0 -1 383.5 471.521)"/><text font-family="Yu Gothic,Yu Gothic_MSFontService,sans-serif" font-weight="400" font-size="11" transform="translate(387.237 431)">R108<tspan font-size="11" x="7.12463" y="33">1..*</tspan></text><rect x="94.5001" y="74.5001" width="605" height="501" stroke="#D9D9D9" stroke-width="1.33333" stroke-miterlimit="8" fill="none"/><text font-family="Yu Gothic,Yu Gothic_MSFontService,sans-serif" font-weight="400" font-size="11" transform="translate(276.331 288)">R106</text></g></svg>