<svg width="1180" height="888" xmlns="http://www.w3.org/2000/svg" xmlns:xlink="http://www.w3.org/1999/xlink" overflow="hidden"><defs><clipPath id="clip0"><rect x="85" y="-138" width="1180" height="888"/></clipPath></defs><g clip-path="url(#clip0)" transform="translate(-85 138)"><rect x="94.5001" y="391.5" width="96" height="57" stroke="#000000" stroke-width="1.33333" stroke-miterlimit="8" fill="#FFFFFF"/><text font-family="Yu Gothic,Yu Gothic_MSFontService,sans-serif" font-weight="400" font-size="11" transform="translate(116.211 417)">SM<tspan font-size="11" x="19.5" y="0">Actio</tspan><tspan font-size="11" x="44.6667" y="0">n</tspan><tspan font-size="11" x="-0.166672" y="13">(</tspan><tspan font-size="11" x="4" y="13">SM_ACT)</tspan></text><rect x="581.5" y="197.5" width="96" height="58" stroke="#000000" stroke-width="1.33333" stroke-miterlimit="8" fill="#FFFFFF"/><text font-family="Yu Gothic,Yu Gothic_MSFontService,sans-serif" font-weight="400" font-size="11" transform="translate(606.082 223)">SM<tspan font-size="11" x="19.5" y="0">State</tspan><tspan font-size="11" x="-9" y="13">(</tspan><tspan font-size="11" x="-4.83331" y="13">SM_STATE)</tspan></text><rect x="581.5" y="58.5001" width="96" height="58" stroke="#000000" stroke-width="1.33333" stroke-miterlimit="8" fill="#FFFFFF"/><text font-family="Yu Gothic,Yu Gothic_MSFontService,sans-serif" font-weight="400" font-size="11" transform="translate(610.998 84)">SM<tspan font-size="11" x="19.5" y="0">SM</tspan><tspan font-size="11" x="-5.33331" y="13">(</tspan><tspan font-size="11" x="-1.16663" y="13">SM_SM)</tspan></text><path d="M629.5 116.5 629.5 197.978" stroke="#000000" stroke-width="0.666667" stroke-miterlimit="8" fill="none" fill-rule="evenodd"/><text font-family="Yu Gothic,Yu Gothic_MSFontService,sans-serif" font-weight="400" font-size="11" transform="translate(638.202 164)">R501<tspan font-size="11" x="-3.04608" y="30">*</tspan></text><rect x="972.5" y="58.5001" width="95.9999" height="57" stroke="#000000" stroke-width="1.33333" stroke-miterlimit="8" fill="#FFFFFF"/><text font-family="Yu Gothic,Yu Gothic_MSFontService,sans-serif" font-weight="400" font-size="11" transform="translate(996.519 84)">SM<tspan font-size="11" x="19.5" y="0">Event</tspan><tspan font-size="11" x="-1.58667" y="13">(</tspan><tspan font-size="11" x="2.58002" y="13">SM_EVT)</tspan></text><path d="M0 0 295.184 0.184147" stroke="#000000" stroke-width="0.666667" stroke-miterlimit="8" fill="none" fill-rule="evenodd" transform="matrix(1 0 0 -1 677.5 86.6842)"/><text font-family="Yu Gothic,Yu Gothic_MSFontService,sans-serif" font-weight="400" font-size="11" transform="translate(892.889 73)">R502<tspan font-size="11" x="-1.64691" y="116">*</tspan></text><path d="M677.5 226.5 869.625 227.335" stroke="#000000" stroke-width="0.666667" stroke-miterlimit="8" fill="none" fill-rule="evenodd"/><text font-family="Yu Gothic,Yu Gothic_MSFontService,sans-serif" font-weight="400" font-size="11" transform="translate(737.798 222)">R503</text><rect x="703.5" y="319.5" width="96" height="58" stroke="#000000" stroke-width="1.33333" stroke-miterlimit="8" fill="#FFFFFF"/><text font-family="Yu Gothic,Yu Gothic_MSFontService,sans-serif" font-weight="400" font-size="11" transform="translate(725.932 345)">SM<tspan font-size="11" x="19.5" y="0">SEME</tspan><tspan font-size="11" x="-5.33331" y="13">(</tspan><tspan font-size="11" x="-1.16663" y="13">SM_SEME)</tspan></text><path d="M0 0 0.000104987 89.1679" stroke="#000000" stroke-width="0.666667" stroke-miterlimit="8" stroke-dasharray="2 0.666667" fill="none" fill-rule="evenodd" transform="matrix(1 0 0 -1 751.5 319.668)"/><rect x="810.5" y="465.5" width="96" height="58" stroke="#000000" stroke-width="1.33333" stroke-miterlimit="8" fill="#FFFFFF"/><text font-family="Yu Gothic,Yu Gothic_MSFontService,sans-serif" font-weight="400" font-size="11" transform="translate(832.436 491)">SM<tspan font-size="11" x="19.5" y="0">Ignore</tspan><tspan font-size="11" x="-2.58002" y="13">(</tspan><tspan font-size="11" x="1.58667" y="13">SM_EIGN)</tspan></text><rect x="944.5" y="465.5" width="95.9999" height="58" stroke="#000000" stroke-width="1.33333" stroke-miterlimit="8" fill="#FFFFFF"/><text font-family="Yu Gothic,Yu Gothic_MSFontService,sans-serif" font-weight="400" font-size="11" transform="translate(969.386 485)">SM<tspan font-size="11" x="19.5" y="0">Can’t </tspan><tspan font-size="11" x="3.58002" y="13">Happen</tspan><tspan font-size="11" x="0.0800171" y="25">(</tspan><tspan font-size="11" x="4.2467" y="25">SM_CH)</tspan></text><rect x="590.5" y="465.5" width="96" height="58" stroke="#000000" stroke-width="1.33333" stroke-miterlimit="8" fill="#FFFFFF"/><text font-family="Yu Gothic,Yu Gothic_MSFontService,sans-serif" font-weight="400" font-size="11" transform="translate(609.94 491)">SM<tspan font-size="11" x="19.5" y="0">NSTXN</tspan><tspan font-size="11" x="-5.33337" y="13">(</tspan><tspan font-size="11" x="-1.16669" y="13">SM_NSTXN)</tspan></text><path d="M638.167 466.143 638.167 421.488 751.325 421.488 750.991 421.822 750.991 389.5 751.658 389.5 751.658 422.155 638.5 422.155 638.833 421.822 638.833 466.143ZM744.658 390.833 751.325 377.5 757.991 390.833Z"/><path d="M0-0.333333 44.6551-0.333333 44.6551 107.091 44.3218 106.757 76.6435 106.757 76.6435 107.424 43.9885 107.424 43.9885 0 44.3218 0.333333 0 0.333333ZM75.3101 100.424 88.6435 107.091 75.3101 113.757Z" transform="matrix(-1.83697e-16 -1 -1 1.83697e-16 858.591 466.144)"/><path d="M0-0.333333 44.6551-0.333333 44.6551 241.621 44.3218 241.288 76.6434 241.288 76.6434 241.955 43.9885 241.955 43.9885 0 44.3218 0.333333 0 0.333333ZM75.31 234.955 88.6434 241.621 75.31 248.288Z" transform="matrix(-1.83697e-16 -1 -1 1.83697e-16 993.121 466.143)"/><text font-family="Yu Gothic,Yu Gothic_MSFontService,sans-serif" font-weight="400" font-size="11" transform="translate(761.798 403)">R504</text><rect x="337.5" y="443.5" width="96" height="57" stroke="#000000" stroke-width="1.33333" stroke-miterlimit="8" fill="#FFFFFF"/><text font-family="Yu Gothic,Yu Gothic_MSFontService,sans-serif" font-weight="400" font-size="11" transform="translate(364.486 469)">SM<tspan font-size="11" x="19.5" y="0">TXN</tspan><tspan font-size="11" x="-5.33334" y="13">(</tspan><tspan font-size="11" x="-1.16666" y="13">SM_TXN)</tspan></text><rect x="256.5" y="565.5" width="96" height="58" stroke="#000000" stroke-width="1.33333" stroke-miterlimit="8" fill="#FFFFFF"/><text font-family="Yu Gothic,Yu Gothic_MSFontService,sans-serif" font-weight="400" font-size="11" transform="translate(276.6 591)">SM<tspan font-size="11" x="19.5" y="0">NETXN</tspan><tspan font-size="11" x="-5.33334" y="13">(</tspan><tspan font-size="11" x="-1.16669" y="13">SM_NETXN)</tspan></text><rect x="374.5" y="565.5" width="96" height="58" stroke="#000000" stroke-width="1.33333" stroke-miterlimit="8" fill="#FFFFFF"/><text font-family="Yu Gothic,Yu Gothic_MSFontService,sans-serif" font-weight="400" font-size="11" transform="translate(394.561 591)">SM<tspan font-size="11" x="19.5" y="0">CRTXN</tspan><tspan font-size="11" x="-5.33331" y="13">(</tspan><tspan font-size="11" x="-1.16666" y="13">SM_CRTXN)</tspan></text><path d="M304.167 565.19 304.167 532.512 385.053 532.512 384.719 532.845 384.719 512.5 385.386 512.5 385.386 533.178 304.5 533.178 304.833 532.845 304.833 565.19ZM378.386 513.833 385.053 500.5 391.719 513.833Z"/><path d="M0-0.333333 32.6784-0.333333 32.6784 37.3247 32.345 36.9914 52.6901 36.9914 52.6901 37.6581 32.0117 37.6581 32.0117 0 32.345 0.333333 0 0.333333ZM51.3567 30.6581 64.6901 37.3247 51.3567 43.9914Z" transform="matrix(-1.83697e-16 -1 -1 1.83697e-16 422.825 565.19)"/><path d="M0-0.333333 78.7279-0.333333 78.7279 40.154 78.3946 39.8207 204.788 39.8207 204.454 40.154 204.454 18.3581 205.121 18.3581 205.121 40.4874 78.0613 40.4874 78.0613 0 78.3946 0.333333 0 0.333333ZM198.121 19.6914 204.788 6.35811 211.454 19.6914Z" transform="matrix(-1 1.22465e-16 1.22465e-16 1 590.288 494.5)"/><text font-family="Yu Gothic,Yu Gothic_MSFontService,sans-serif" font-weight="400" font-size="11" transform="translate(395.968 522)">R507</text><path d="M385.5 443.297 385.5 226.5 581.512 226.5" stroke="#000000" stroke-width="0.666667" stroke-miterlimit="8" fill="none" fill-rule="evenodd"/><text font-family="Yu Gothic,Yu Gothic_MSFontService,sans-serif" font-weight="400" font-size="11" transform="translate(387.111 278)">R506<tspan font-size="11" x="3.09155" y="160">*</tspan></text><path d="M0 0-49.4708 0-49.4708 384.942 244.012 384.942" stroke="#000000" stroke-width="0.666667" stroke-miterlimit="8" fill="none" fill-rule="evenodd" transform="matrix(1 -1.22465e-16 -1.22465e-16 -1 337.5 472.442)"/><text font-family="Yu Gothic,Yu Gothic_MSFontService,sans-serif" font-weight="400" font-size="11" transform="translate(442.586 73)">R505<tspan font-size="11" x="-130.085" y="396">*</tspan></text><path d="M0 0-24.0008 0-24.0008 233.058 372.565 233.058 372.565 339.265" stroke="#000000" stroke-width="0.666667" stroke-miterlimit="8" fill="none" fill-rule="evenodd" transform="matrix(1 -1.22465e-16 -1.22465e-16 -1 256.5 594.765)"/><text font-family="Yu Gothic,Yu Gothic_MSFontService,sans-serif" font-weight="400" font-size="11" transform="translate(470.192 355)">R508<tspan font-size="11" x="-230.301" y="258">*</tspan></text><rect x="677.5" y="647.5" width="96" height="58" stroke="#000000" stroke-width="1.33333" stroke-miterlimit="8" fill="#FFFFFF"/><text font-family="Yu Gothic,Yu Gothic_MSFontService,sans-serif" font-weight="400" font-size="11" transform="translate(702.022 673)">SM<tspan font-size="11" x="19.5" y="0">LEVT</tspan><tspan font-size="11" x="-5.33337" y="13">(</tspan><tspan font-size="11" x="-1.16669" y="13">SM_LEVT)</tspan></text><path d="M0 0 52.7243 0 52.7243 254.794" stroke="#000000" stroke-width="0.666667" stroke-miterlimit="8" fill="none" fill-rule="evenodd" transform="matrix(1.83697e-16 1 1 -1.83697e-16 422.5 623.5)"/><text font-family="Yu Gothic,Yu Gothic_MSFontService,sans-serif" font-weight="400" font-size="11" transform="translate(513.826 671)">R509<tspan font-size="11" x="-82.4602" y="-30">0..1</tspan><tspan font-size="11" x="135.774" y="20">0..1</tspan></text><rect x="869.5" y="198.5" width="96" height="58" stroke="#000000" stroke-width="1.33333" stroke-miterlimit="8" fill="#FFFFFF"/><text font-family="Yu Gothic,Yu Gothic_MSFontService,sans-serif" font-weight="400" font-size="11" transform="translate(893.873 224)">SM<tspan font-size="11" x="19.5" y="0">S</tspan><tspan font-size="11" x="26.1666" y="0">EVT</tspan><tspan font-size="11" x="-5.33337" y="13">(</tspan><tspan font-size="11" x="-1.16669" y="13">SM_SEVT)</tspan></text><path d="M0-0.333333 305.292-0.333333 305.292 449.266 204.018 449.266 204.018 448.599 304.959 448.599 304.625 448.932 304.625 0 304.959 0.333333 0 0.333333ZM205.351 455.599 192.018 448.932 205.351 442.266Z" transform="matrix(1 0 0 -1 773.5 676.432)"/><text font-family="Yu Gothic,Yu Gothic_MSFontService,sans-serif" font-weight="400" font-size="11" transform="translate(1093.8 325)">R526</text><path d="M917.167 197.998 917.167 156.415 1020.56 156.415 1020.23 156.749 1020.23 127.5 1020.89 127.5 1020.89 157.082 917.5 157.082 917.833 156.749 917.833 197.998ZM1013.89 128.833 1020.56 115.5 1027.23 128.833Z"/><text font-family="Yu Gothic,Yu Gothic_MSFontService,sans-serif" font-weight="400" font-size="11" transform="translate(1025.77 154)">R525</text><rect x="1090.5" y="168.5" width="96" height="58" stroke="#000000" stroke-width="1.33333" stroke-miterlimit="8" fill="#FFFFFF"/><text font-family="Yu Gothic,Yu Gothic_MSFontService,sans-serif" font-weight="400" font-size="11" transform="translate(1114.31 194)">SM<tspan font-size="11" x="19.5" y="0">PEVT</tspan><tspan font-size="11" x="-5.33325" y="13">(</tspan><tspan font-size="11" x="-1.16663" y="13">SM_PEVT)</tspan></text><path d="M1090.05 197.496 1020.17 197.496 1020.17 127.5 1020.83 127.5 1020.83 197.163 1020.5 196.829 1090.05 196.829ZM1013.83 128.833 1020.5 115.5 1027.17 128.833Z"/><rect x="1168.5" y="311.5" width="96" height="58" stroke="#000000" stroke-width="1.33333" stroke-miterlimit="8" fill="#FFFFFF"/><text font-family="Yu Gothic,Yu Gothic_MSFontService,sans-serif" font-weight="400" font-size="11" transform="translate(1188.75 337)">SM<tspan font-size="11" x="19.5" y="0">NLEVT</tspan><tspan font-size="11" x="-5.33337" y="13">(</tspan><tspan font-size="11" x="-1.16675" y="13">SM_NLEVT)</tspan></text><path d="M0 0 114.25 0 114.25 30.106" stroke="#000000" stroke-width="0.666667" stroke-miterlimit="8" fill="none" fill-rule="evenodd" transform="matrix(-1.83697e-16 -1 -1 1.83697e-16 1216.61 311.75)"/><text font-family="Yu Gothic,Yu Gothic_MSFontService,sans-serif" font-weight="400" font-size="11" transform="translate(1225.43 247)">R527<tspan font-size="11" x="0" y="58">*</tspan></text><path d="M1168.21 341.248 1080.64 341.248 1080.64 227.5 1080.97 227.833 977.5 227.833 977.5 227.167 1081.31 227.167 1081.31 340.915 1080.97 340.582 1168.21 340.582ZM978.833 234.167 965.5 227.5 978.833 220.833Z"/><rect x="673.5" y="-38.5001" width="96" height="58.0001" stroke="#000000" stroke-width="1.33333" stroke-miterlimit="8" fill="#FFFFFF"/><text font-family="Yu Gothic,Yu Gothic_MSFontService,sans-serif" font-weight="400" font-size="11" transform="translate(699.902 -13)">SM<tspan font-size="11" x="19.5" y="0">ASM</tspan><tspan font-size="11" x="-5.33331" y="13">(</tspan><tspan font-size="11" x="-1.16669" y="13">SM_ASM)</tspan></text><rect x="513.5" y="-38.5001" width="96" height="58.0001" stroke="#000000" stroke-width="1.33333" stroke-miterlimit="8" fill="#FFFFFF"/><text font-family="Yu Gothic,Yu Gothic_MSFontService,sans-serif" font-weight="400" font-size="11" transform="translate(541.217 -13)">SM<tspan font-size="11" x="19.5" y="0">ISM</tspan><tspan font-size="11" x="-5.33331" y="13">(</tspan><tspan font-size="11" x="-1.16669" y="13">SM_ISM)</tspan></text><path d="M722.237 19.5001 722.237 39.4258 629.5 39.4258 629.833 39.0924 629.833 46.6848 629.167 46.6848 629.167 38.7591 721.904 38.7591 721.57 39.0924 721.57 19.5001ZM636.167 45.3515 629.5 58.6848 622.833 45.3515Z"/><path d="M0-0.333333 19.9257-0.333333 19.9257 68.1982 19.5924 67.8649 27.1848 67.8649 27.1848 68.5315 19.2591 68.5315 19.2591 0 19.5924 0.333333 0 0.333333ZM25.8514 61.5315 39.1848 68.1982 25.8514 74.8649Z" transform="matrix(1.83697e-16 1 1 -1.83697e-16 561.5 19.5001)"/><text font-family="Yu Gothic,Yu Gothic_MSFontService,sans-serif" font-weight="400" font-size="11" transform="translate(706.359 61)">R517</text><rect x="593.5" y="-135.5" width="96" height="57" stroke="#000000" stroke-width="1.33333" stroke-miterlimit="8" fill="#FFFFFF"/><text font-family="Yu Gothic,Yu Gothic_MSFontService,sans-serif" font-weight="400" font-size="11" transform="translate(624.851 -110)">Objec<tspan font-size="11" x="28.6667" y="0">t</tspan><tspan font-size="11" x="-4.16663" y="13">(</tspan><tspan font-size="11" x="0" y="13">O_OBJ)</tspan></text><path d="M0 0 68.3207 0 68.3207 32.3008" stroke="#000000" stroke-width="0.666667" stroke-miterlimit="8" fill="none" fill-rule="evenodd" transform="matrix(-1.83697e-16 -1 -1 1.83697e-16 721.801 -39.1793)"/><path d="M561.5-39.1794 561.5-107.5 593.801-107.5" stroke="#000000" stroke-width="0.666667" stroke-miterlimit="8" fill="none" fill-rule="evenodd"/><text font-family="Yu Gothic,Yu Gothic_MSFontService,sans-serif" font-weight="400" font-size="11" transform="translate(528.811 -72)">R518<tspan font-size="11" x="201.917" y="2">R519</tspan><tspan font-size="11" x="203.734" y="25">0..1</tspan><tspan font-size="11" x="0.946228" y="24">0..1</tspan></text><rect x="122.5" y="171.5" width="96" height="58" stroke="#000000" stroke-width="1.33333" stroke-miterlimit="8" fill="#FFFFFF"/><text font-family="Yu Gothic,Yu Gothic_MSFontService,sans-serif" font-weight="400" font-size="11" transform="translate(144.359 197)">SM<tspan font-size="11" x="19.5" y="0">MOAH</tspan><tspan font-size="11" x="-5.33334" y="13">(</tspan><tspan font-size="11" x="-1.16667" y="13">SM_MOAH)</tspan></text><rect x="391.5" y="103.5" width="96" height="58" stroke="#000000" stroke-width="1.33333" stroke-miterlimit="8" fill="#FFFFFF"/><text font-family="Yu Gothic,Yu Gothic_MSFontService,sans-serif" font-weight="400" font-size="11" transform="translate(409.476 129)">SM<tspan font-size="11" x="19.5" y="0">MOORE</tspan><tspan font-size="11" x="-5.33334" y="13">(</tspan><tspan font-size="11" x="-1.16669" y="13">SM_MOORE)</tspan></text><path d="M0 0 65.9687 0 65.9687 104.619" stroke="#000000" stroke-width="0.666667" stroke-miterlimit="8" fill="none" fill-rule="evenodd" transform="matrix(-1.83697e-16 -1 -1 1.83697e-16 592.119 198.469)"/><text font-family="Yu Gothic,Yu Gothic_MSFontService,sans-serif" font-weight="400" font-size="11" transform="translate(497.233 149)">0..1<tspan font-size="11" x="78.4318" y="43">*</tspan><tspan font-size="11" x="25.5999" y="-25">R511</tspan></text><path d="M0 0 371.332 38.6168" stroke="#000000" stroke-width="0.666667" stroke-miterlimit="8" stroke-dasharray="2 0.666667" fill="none" fill-rule="evenodd" transform="matrix(1 0 0 -1 218.5 201.117)"/><rect x="94.5001" y="264.5" width="96" height="58" stroke="#000000" stroke-width="1.33333" stroke-miterlimit="8" fill="#FFFFFF"/><text font-family="Yu Gothic,Yu Gothic_MSFontService,sans-serif" font-weight="400" font-size="11" transform="translate(124.377 290)">SM<tspan font-size="11" x="19.5" y="0">AH</tspan><tspan font-size="11" x="-5.33334" y="13">(</tspan><tspan font-size="11" x="-1.16666" y="13">SM_AH)</tspan></text><path d="M142.167 264.645 142.167 246.739 171.315 246.739 170.982 247.073 170.982 241.5 171.648 241.5 171.648 247.406 142.5 247.406 142.833 247.073 142.833 264.645ZM164.648 242.833 171.315 229.5 177.982 242.833Z"/><text font-family="Yu Gothic,Yu Gothic_MSFontService,sans-serif" font-weight="400" font-size="11" transform="translate(95.2436 250)">R513</text><path d="M142.5 322.5 142.5 391.078" stroke="#000000" stroke-width="0.666667" stroke-miterlimit="8" fill="none" fill-rule="evenodd"/><text font-family="Yu Gothic,Yu Gothic_MSFontService,sans-serif" font-weight="400" font-size="11" transform="translate(850.378 245)">*<tspan font-size="11" x="-160.453" y="-1">*</tspan><tspan font-size="13" x="12.2181" y="492">※</tspan><tspan font-size="13" x="29.3848" y="492">多重度</tspan><tspan font-size="13" x="73.2181" y="492">1</tspan><tspan font-size="13" x="84.3848" y="492">は省略</tspan></text></g></svg>