<svg width="607" height="504" xmlns="http://www.w3.org/2000/svg" xmlns:xlink="http://www.w3.org/1999/xlink" overflow="hidden"><defs><clipPath id="clip0"><rect x="93" y="72" width="607" height="504"/></clipPath></defs><g clip-path="url(#clip0)" transform="translate(-93 -72)"><rect x="373.5" y="125.5" width="96" height="58" stroke="#000000" stroke-width="1.33333" stroke-miterlimit="8" fill="#FFFFFF"/><text font-family="Yu Gothic,Yu Gothic_MSFontService,sans-serif" font-weight="400" font-size="11" transform="translate(395.955 151)">Data<tspan font-size="11" x="26.8333" y="0">Typ</tspan><tspan font-size="11" x="45" y="0">e</tspan><tspan font-size="11" x="8" y="13">(</tspan><tspan font-size="11" x="12.1667" y="13">S_DT)</tspan></text><rect x="194.5" y="266.5" width="96" height="58" stroke="#000000" stroke-width="1.33333" stroke-miterlimit="8" fill="#FFFFFF"/><text font-family="Yu Gothic,Yu Gothic_MSFontService,sans-serif" font-weight="400" font-size="11" transform="translate(217.019 286)">Core Data <tspan font-size="11" x="12.9133" y="13">Type</tspan><tspan font-size="11" x="3.83333" y="25">(</tspan><tspan font-size="11" x="8" y="25">S_CDT)</tspan></text><path d="M242.167 267.245 242.167 225.039 421.937 225.039 421.603 225.373 421.603 195.5 422.27 195.5 422.27 225.706 242.5 225.706 242.833 225.373 242.833 267.245ZM415.27 196.833 421.937 183.5 428.603 196.833Z"/><text font-family="Yu Gothic,Yu Gothic_MSFontService,sans-serif" font-weight="400" font-size="11" transform="translate(432.655 209)">R17</text><rect x="313.5" y="266.5" width="96" height="58" stroke="#000000" stroke-width="1.33333" stroke-miterlimit="8" fill="#FFFFFF"/><text font-family="Yu Gothic,Yu Gothic_MSFontService,sans-serif" font-weight="400" font-size="11" transform="translate(335.694 286)">User Data <tspan font-size="11" x="12.9133" y="13">Type</tspan><tspan font-size="11" x="3.57999" y="25">(</tspan><tspan font-size="11" x="7.74667" y="25">S_UDT)</tspan></text><rect x="426.5" y="266.5" width="96" height="58" stroke="#000000" stroke-width="1.33333" stroke-miterlimit="8" fill="#FFFFFF"/><text font-family="Yu Gothic,Yu Gothic_MSFontService,sans-serif" font-weight="400" font-size="11" transform="translate(446.078 286)">Enum Data <tspan font-size="11" x="15.4133" y="13">Type</tspan><tspan font-size="11" x="6.66666" y="25">(</tspan><tspan font-size="11" x="10.8333" y="25">S_EDT)</tspan></text><rect x="538.5" y="266.5" width="96" height="58" stroke="#000000" stroke-width="1.33333" stroke-miterlimit="8" fill="#FFFFFF"/><text font-family="Yu Gothic,Yu Gothic_MSFontService,sans-serif" font-weight="400" font-size="11" transform="translate(550.129 286)">Structure Data <tspan font-size="11" x="24.2466" y="13">Type</tspan><tspan font-size="11" x="15.5" y="25">(</tspan><tspan font-size="11" x="19.6666" y="25">S_SDT)</tspan></text><path d="M361.167 267.245 361.167 225.039 422.261 225.039 421.928 225.373 421.928 195.5 422.594 195.5 422.594 225.706 361.5 225.706 361.833 225.373 361.833 267.245ZM415.594 196.833 422.261 183.5 428.928 196.833Z"/><path d="M0-0.333333 42.2059-0.333333 42.2059 52.123 41.8726 51.7897 71.7452 51.7897 71.7452 52.4564 41.5393 52.4564 41.5393 0 41.8726 0.333333 0 0.333333ZM70.4119 45.4564 83.7452 52.123 70.4119 58.7897Z" transform="matrix(-1.83697e-16 -1 -1 1.83697e-16 473.623 267.245)"/><path d="M0-0.333333 42.2059-0.333333 42.2059 165.007 41.8725 164.674 71.7451 164.674 71.7451 165.34 41.5392 165.34 41.5392 0 41.8725 0.333333 0 0.333333ZM70.4118 158.34 83.7451 165.007 70.4118 171.674Z" transform="matrix(-1.83697e-16 -1 -1 1.83697e-16 586.507 267.245)"/><path d="M361.5 324.912 361.5 363.607 157.255 363.607 157.255 154.5 374.261 154.5" stroke="#000000" stroke-width="0.666667" stroke-miterlimit="8" fill="none" fill-rule="evenodd"/><text font-family="Yu Gothic,Yu Gothic_MSFontService,sans-serif" font-weight="400" font-size="11" transform="translate(174.178 144)">R18<tspan font-size="11" x="176.822" y="195">*</tspan></text><rect x="426.5" y="422.5" width="96" height="58" stroke="#000000" stroke-width="1.33333" stroke-miterlimit="8" fill="#FFFFFF"/><text font-family="Yu Gothic,Yu Gothic_MSFontService,sans-serif" font-weight="400" font-size="11" transform="translate(444.745 448)">Enumerator<tspan font-size="11" x="2.5" y="13">(</tspan><tspan font-size="11" x="6.66669" y="13">S_ENUM)</tspan></text><path d="M474.5 324.5 474.5 422.188" stroke="#000000" stroke-width="0.666667" stroke-miterlimit="8" fill="none" fill-rule="evenodd"/><text font-family="Yu Gothic,Yu Gothic_MSFontService,sans-serif" font-weight="400" font-size="11" transform="translate(483.648 416)">*<tspan font-size="11" x="-36.0258" y="-41">R27</tspan></text><path d="M0 0-23.9999 0-23.9999 72 28.8888 72 28.8888 48" stroke="#000000" stroke-width="0.666667" stroke-miterlimit="8" fill="none" fill-rule="evenodd" transform="matrix(-6.12323e-17 -1 -1 6.12323e-17 474.5 480.389)"/><text font-family="Yu Gothic,Yu Gothic_MSFontService,sans-serif" font-weight="400" font-size="11" transform="translate(375.437 483)">R56<tspan font-size="11" x="75.9097" y="11">0..1</tspan><tspan font-size="11" x="113.078" y="13">succeeds</tspan><tspan font-size="11" x="29.7884" y="-22">0..1</tspan><tspan font-size="11" x="-2.70929" y="-43">precedes</tspan></text><rect x="539.5" y="423.5" width="96" height="58" stroke="#000000" stroke-width="1.33333" stroke-miterlimit="8" fill="#FFFFFF"/><text font-family="Yu Gothic,Yu Gothic_MSFontService,sans-serif" font-weight="400" font-size="11" transform="translate(563.968 443)">Structure <tspan font-size="11" x="2.41998" y="13">Member</tspan><tspan font-size="11" x="0.666626" y="25">(</tspan><tspan font-size="11" x="4.83331" y="25">S_MBR)</tspan></text><path d="M586.5 324.5 586.922 423.858" stroke="#000000" stroke-width="0.666667" stroke-miterlimit="8" fill="none" fill-rule="evenodd"/><text font-family="Yu Gothic,Yu Gothic_MSFontService,sans-serif" font-weight="400" font-size="11" transform="translate(563.931 373)">R44<tspan font-size="11" x="32.1315" y="41">*</tspan></text><path d="M634.929 453.159 658.93 453.159 658.93 154.5 469.5 154.5" stroke="#000000" stroke-width="0.666667" stroke-miterlimit="8" fill="none" fill-rule="evenodd"/><text font-family="Yu Gothic,Yu Gothic_MSFontService,sans-serif" font-weight="400" font-size="11" transform="translate(596.062 145)">R45<tspan font-size="11" x="48" y="330">*</tspan></text><rect x="94.5001" y="74.5001" width="605" height="501" stroke="#D9D9D9" stroke-width="1.33333" stroke-miterlimit="8" fill="none"/><text font-family="Yu Gothic,Yu Gothic_MSFontService,sans-serif" font-weight="400" font-size="13" transform="translate(130.29 495)">※<tspan font-size="13" x="17.1667" y="0">Super</tspan><tspan font-size="13" x="96.1114" y="0">Sub</tspan></text><path d="M1.51904e-06-0.333333 11.038-0.333283 11.038 0.333384-1.51904e-06 0.333333ZM9.7047-6.66662 23.038 0.000104987 9.70464 6.66671Z" transform="matrix(-1 0 0 1 217.538 491.5)"/><text font-family="Yu Gothic,Yu Gothic_MSFontService,sans-serif" font-weight="400" font-size="13" transform="translate(130.29 525)">※<tspan font-size="13" x="17.1667" y="0">多重度が</tspan><tspan font-size="13" x="74.3333" y="0">‘1’ </tspan><tspan font-size="13" x="92.5" y="0">の場合は省略</tspan></text></g></svg>