<svg width="786" height="460" xmlns="http://www.w3.org/2000/svg" xmlns:xlink="http://www.w3.org/1999/xlink" overflow="hidden"><defs><filter id="fx0" x="-10%" y="-10%" width="120%" height="120%" filterUnits="userSpaceOnUse" primitiveUnits="userSpaceOnUse"><feComponentTransfer color-interpolation-filters="sRGB"><feFuncR type="discrete" tableValues="0 0"/><feFuncG type="discrete" tableValues="0 0"/><feFuncB type="discrete" tableValues="0 0"/><feFuncA type="linear" slope="0.431373" intercept="0"/></feComponentTransfer><feGaussianBlur stdDeviation="0.558453 0.558453"/></filter><filter id="fx1" x="-10%" y="-10%" width="120%" height="120%" filterUnits="userSpaceOnUse" primitiveUnits="userSpaceOnUse"><feComponentTransfer color-interpolation-filters="sRGB"><feFuncR type="discrete" tableValues="0 0"/><feFuncG type="discrete" tableValues="0 0"/><feFuncB type="discrete" tableValues="0 0"/><feFuncA type="linear" slope="0.431373" intercept="0"/></feComponentTransfer><feGaussianBlur stdDeviation="0.558453 0.558453"/></filter><filter id="fx2" x="-10%" y="-10%" width="120%" height="120%" filterUnits="userSpaceOnUse" primitiveUnits="userSpaceOnUse"><feComponentTransfer color-interpolation-filters="sRGB"><feFuncR type="discrete" tableValues="0 0"/><feFuncG type="discrete" tableValues="0 0"/><feFuncB type="discrete" tableValues="0 0"/><feFuncA type="linear" slope="0.431373" intercept="0"/></feComponentTransfer><feGaussianBlur stdDeviation="0.558453 0.558453"/></filter><filter id="fx3" x="-10%" y="-10%" width="120%" height="120%" filterUnits="userSpaceOnUse" primitiveUnits="userSpaceOnUse"><feComponentTransfer color-interpolation-filters="sRGB"><feFuncR type="discrete" tableValues="0 0"/><feFuncG type="discrete" tableValues="0 0"/><feFuncB type="discrete" tableValues="0 0"/><feFuncA type="linear" slope="0.431373" intercept="0"/></feComponentTransfer><feGaussianBlur stdDeviation="0.558453 0.558453"/></filter><clipPath id="clip4"><rect x="96" y="138" width="786" height="460"/></clipPath><clipPath id="clip5"><rect x="97" y="139" width="784" height="459"/></clipPath><clipPath id="clip6"><rect x="97" y="139" width="784" height="459"/></clipPath><clipPath id="clip7"><rect x="-76" y="11" width="957" height="721"/></clipPath><clipPath id="clip8"><rect x="-76" y="11" width="957" height="721"/></clipPath><clipPath id="clip9"><rect x="17" y="14" width="119" height="20"/></clipPath><clipPath id="clip10"><rect x="0" y="0" width="154" height="57"/></clipPath><clipPath id="clip11"><rect x="17" y="13" width="156" height="25"/></clipPath><clipPath id="clip12"><rect x="0" y="0" width="190" height="57"/></clipPath><clipPath id="clip13"><rect x="18" y="13" width="74" height="24"/></clipPath><clipPath id="clip14"><rect x="0" y="0" width="109" height="57"/></clipPath><clipPath id="clip15"><rect x="18" y="14" width="67" height="20"/></clipPath><clipPath id="clip16"><rect x="0" y="0" width="101" height="57"/></clipPath></defs><g clip-path="url(#clip4)" transform="translate(-96 -138)"><g clip-path="url(#clip5)"><g clip-path="url(#clip6)"><g clip-path="url(#clip7)"><g clip-path="url(#clip8)"><path d="M76.5929 317.313 154.401 317.313 154.401 363.512 76.5929 363.512Z" stroke="#000000" stroke-width="1.08067" stroke-miterlimit="8" fill="#FFFFFF" transform="matrix(1.00014 0 0 1 -144.432 123.199)"/><text font-family="Yu Gothic,Yu Gothic_MSFontService,sans-serif" font-weight="400" font-size="11" transform="matrix(0.810618 0 0 0.810506 -50.229 461)">SM<tspan font-size="11" x="19.5" y="0">Actio</tspan><tspan font-size="11" x="44.6667" y="0">n</tspan><tspan font-size="11" x="-0.166669" y="13.5718">(</tspan><tspan font-size="11" x="4" y="13.5718">SM</tspan><tspan font-size="11" x="21" y="13.5718">_</tspan><tspan font-size="11" x="27" y="13.5718">ACT</tspan><tspan font-size="11" x="49" y="13.5718">)</tspan></text><path d="M471.309 160.075 549.118 160.075 549.118 207.084 471.309 207.084Z" stroke="#000000" stroke-width="1.08067" stroke-miterlimit="8" fill="#FFFFFF" transform="matrix(1.00014 0 0 1 -144.432 123.199)"/><text font-family="Yu Gothic,Yu Gothic_MSFontService,sans-serif" font-weight="400" font-size="11" transform="matrix(0.810618 0 0 0.810506 346.869 304)">SM<tspan font-size="11" x="19.5" y="0">State</tspan><tspan font-size="11" x="-9" y="12.338">(</tspan><tspan font-size="11" x="-4.83331" y="12.338">SM</tspan><tspan font-size="11" x="12.1667" y="12.338">_</tspan>STATE<tspan font-size="11" x="53.1667" y="12.338">)</tspan></text><path d="M471.309 47.4147 549.118 47.4147 549.118 94.424 471.309 94.424Z" stroke="#000000" stroke-width="1.08067" stroke-miterlimit="8" fill="#FFFFFF" transform="matrix(1.00014 0 0 1 -144.432 123.199)"/><text font-family="Yu Gothic,Yu Gothic_MSFontService,sans-serif" font-weight="400" font-size="11" transform="matrix(0.810618 0 0 0.810506 350.854 191)">SM<tspan font-size="11" x="19.5" y="0">SM</tspan><tspan font-size="11" x="-5.33331" y="13.5718">(</tspan><tspan font-size="11" x="-1.16661" y="13.5718">SM</tspan><tspan font-size="11" x="15.8334" y="13.5718">_</tspan><tspan font-size="11" x="21.8334" y="13.5718">SM</tspan><tspan font-size="11" x="38.8334" y="13.5718">)</tspan></text><path d="M510.213 94.4239 510.213 160.462" stroke="#000000" stroke-width="0.540337" stroke-miterlimit="8" fill="none" fill-rule="evenodd" transform="matrix(1.00014 0 0 1 -144.432 123.199)"/><text font-family="Yu Gothic,Yu Gothic_MSFontService,sans-serif" font-weight="400" font-size="11" transform="matrix(0.810618 0 0 0.810506 372.906 256)">R<tspan font-size="11" x="6.99999" y="0">501</tspan><tspan font-size="11" x="-3.04608" y="29.6111">*</tspan></text><path d="M788.217 47.4147 866.025 47.4147 866.025 93.6135 788.217 93.6135Z" stroke="#000000" stroke-width="1.08067" stroke-miterlimit="8" fill="#FFFFFF" transform="matrix(1.00014 0 0 1 -144.432 123.199)"/><text font-family="Yu Gothic,Yu Gothic_MSFontService,sans-serif" font-weight="400" font-size="11" transform="matrix(0.810618 0 0 0.810506 663.365 191)">SM<tspan font-size="11" x="19.4999" y="0">Event</tspan><tspan font-size="11" x="-1.58668" y="13.5718">(</tspan><tspan font-size="11" x="2.57997" y="13.5718">SM</tspan><tspan font-size="11" x="19.58" y="13.5718">_</tspan>EVT<tspan font-size="11" x="46.58" y="13.5718">)</tspan></text><path d="M0 0 239.248 0.149252" stroke="#000000" stroke-width="0.540337" stroke-miterlimit="8" fill="none" fill-rule="evenodd" transform="matrix(1.00014 0 0 -1 404.762 193.457)"/><text font-family="Yu Gothic,Yu Gothic_MSFontService,sans-serif" font-weight="400" font-size="11" transform="matrix(0.810618 0 0 0.810506 579.36 182)">R<tspan font-size="11" x="6.99999" y="0">502</tspan><tspan font-size="11" x="-1.64692" y="115.977">*</tspan></text><path d="M549.118 183.58 704.836 184.256" stroke="#000000" stroke-width="0.540337" stroke-miterlimit="8" fill="none" fill-rule="evenodd" transform="matrix(1.00014 0 0 1 -144.432 123.199)"/><text font-family="Yu Gothic,Yu Gothic_MSFontService,sans-serif" font-weight="400" font-size="11" transform="matrix(0.810618 0 0 0.810506 453.641 303)">R<tspan font-size="11" x="7.00003" y="0">503</tspan></text><path d="M570.191 258.957 647.999 258.957 647.999 305.966 570.191 305.966Z" stroke="#000000" stroke-width="1.08067" stroke-miterlimit="8" fill="#FFFFFF" transform="matrix(1.00014 0 0 1 -144.432 123.199)"/><text font-family="Yu Gothic,Yu Gothic_MSFontService,sans-serif" font-weight="400" font-size="11" transform="matrix(0.810618 0 0 0.810506 444.022 403)">SM<tspan font-size="11" x="19.5" y="0">SEME</tspan><tspan font-size="11" x="-5.33331" y="12.338">(</tspan><tspan font-size="11" x="-1.16665" y="12.338">SM</tspan><tspan font-size="11" x="15.8334" y="12.338">_</tspan><tspan font-size="11" x="21.8334" y="12.338">SEME</tspan><tspan font-size="11" x="52.8334" y="12.338">)</tspan></text><path d="M0 0 8.50926e-05 72.2711" stroke="#000000" stroke-width="0.540337" stroke-miterlimit="8" stroke-dasharray="1.62101 0.540337" fill="none" fill-rule="evenodd" transform="matrix(1.00014 0 0 -1 464.748 382.291)"/><path d="M656.915 377.29 734.723 377.29 734.723 424.3 656.915 424.3Z" stroke="#000000" stroke-width="1.08067" stroke-miterlimit="8" fill="#FFFFFF" transform="matrix(1.00014 0 0 1 -144.432 123.199)"/><text font-family="Yu Gothic,Yu Gothic_MSFontService,sans-serif" font-weight="400" font-size="11" transform="matrix(0.810618 0 0 0.810506 530.356 521)">SM<tspan font-size="11" x="19.5" y="0">Ignore</tspan><tspan font-size="11" x="-2.57997" y="13.5718">(</tspan><tspan font-size="11" x="1.58668" y="13.5718">SM</tspan><tspan font-size="11" x="18.5867" y="13.5718">_</tspan>EIGN<tspan font-size="11" x="50.5867" y="13.5718">)</tspan></text><path d="M765.523 377.29 843.331 377.29 843.331 424.3 765.523 424.3Z" stroke="#000000" stroke-width="1.08067" stroke-miterlimit="8" fill="#FFFFFF" transform="matrix(1.00014 0 0 1 -144.432 123.199)"/><text font-family="Yu Gothic,Yu Gothic_MSFontService,sans-serif" font-weight="400" font-size="11" transform="matrix(0.810618 0 0 0.810506 641.37 516)">SM<tspan font-size="11" x="19.5" y="0">Can</tspan><tspan font-size="11" x="39.5" y="0">’</tspan><tspan font-size="11" x="42.5" y="0">t </tspan><tspan font-size="11" x="3.58003" y="13.5718">Happen</tspan><tspan font-size="11" x="0.0800382" y="25.9098">(</tspan><tspan font-size="11" x="4.24669" y="25.9098">SM</tspan><tspan font-size="11" x="21.2467" y="25.9098">_</tspan><tspan font-size="11" x="27.2467" y="25.9098">CH</tspan><tspan font-size="11" x="43.2467" y="25.9098">)</tspan></text><path d="M478.604 377.29 556.412 377.29 556.412 424.3 478.604 424.3Z" stroke="#000000" stroke-width="1.08067" stroke-miterlimit="8" fill="#FFFFFF" transform="matrix(1.00014 0 0 1 -144.432 123.199)"/><text font-family="Yu Gothic,Yu Gothic_MSFontService,sans-serif" font-weight="400" font-size="11" transform="matrix(0.810618 0 0 0.810506 349.997 521)">SM<tspan font-size="11" x="19.5" y="0">NSTXN</tspan><tspan font-size="11" x="-5.33338" y="13.5718">(</tspan><tspan font-size="11" x="-1.16669" y="13.5718">SM</tspan><tspan font-size="11" x="15.8333" y="13.5718">_</tspan><tspan font-size="11" x="21.8333" y="13.5718">NSTXN</tspan><tspan font-size="11" x="58.8333" y="13.5718">)</tspan></text><path d="M517.238 377.812 517.238 341.618 608.953 341.618 608.682 341.889 608.682 315.692 609.223 315.692 609.223 342.159 517.508 342.159 517.778 341.889 517.778 377.812ZM603.55 316.772 608.953 305.966 614.356 316.772Z" transform="matrix(1.00014 0 0 1 -144.432 123.199)"/><path d="M0-0.270168 36.1932-0.270168 36.1932 86.7979 35.9231 86.5272 62.12 86.5272 62.12 87.0678 35.6529 87.0678 35.6529 0 35.9231 0.270168 0 0.270168ZM61.0393 81.3942 71.8461 86.7979 61.0393 92.2007Z" transform="matrix(-1.83722e-16 -1 -1.00014 1.83697e-16 551.558 501.011)"/><path d="M0-0.270168 36.1932-0.270168 36.1932 195.835 35.9231 195.565 62.1199 195.565 62.1199 196.106 35.6529 196.106 35.6529 0 35.9231 0.270168 0 0.270168ZM61.0392 190.432 71.846 195.835 61.0392 201.239Z" transform="matrix(-1.83722e-16 -1 -1.00014 1.83697e-16 660.61 501.01)"/><text font-family="Yu Gothic,Yu Gothic_MSFontService,sans-serif" font-weight="400" font-size="11" transform="matrix(0.810618 0 0 0.810506 473.095 450)">R<tspan font-size="11" x="6.99999" y="0">504</tspan></text><path d="M273.546 359.459 351.354 359.459 351.354 405.658 273.546 405.658Z" stroke="#000000" stroke-width="1.08067" stroke-miterlimit="8" fill="#FFFFFF" transform="matrix(1.00014 0 0 1 -144.432 123.199)"/><text font-family="Yu Gothic,Yu Gothic_MSFontService,sans-serif" font-weight="400" font-size="11" transform="matrix(0.810618 0 0 0.810506 151.027 503)">SM<tspan font-size="11" x="19.5" y="0">TXN</tspan><tspan font-size="11" x="-5.33334" y="13.5718">(</tspan><tspan font-size="11" x="-1.16667" y="13.5718">SM</tspan><tspan font-size="11" x="15.8333" y="13.5718">_</tspan><tspan font-size="11" x="21.8333" y="13.5718">TXN</tspan><tspan font-size="11" x="43.8333" y="13.5718">)</tspan></text><path d="M207.895 458.341 285.703 458.341 285.703 505.35 207.895 505.35Z" stroke="#000000" stroke-width="1.08067" stroke-miterlimit="8" fill="#FFFFFF" transform="matrix(1.00014 0 0 1 -144.432 123.199)"/><text font-family="Yu Gothic,Yu Gothic_MSFontService,sans-serif" font-weight="400" font-size="11" transform="matrix(0.810618 0 0 0.810506 79.7852 602)">SM<tspan font-size="11" x="19.5" y="0">NETXN</tspan><tspan font-size="11" x="-5.33334" y="13.5718">(</tspan><tspan font-size="11" x="-1.16669" y="13.5718">SM</tspan><tspan font-size="11" x="15.8333" y="13.5718">_</tspan><tspan font-size="11" x="21.8333" y="13.5718">NETXN</tspan><tspan font-size="11" x="58.8333" y="13.5718">)</tspan></text><path d="M303.534 458.341 381.343 458.341 381.343 505.35 303.534 505.35Z" stroke="#000000" stroke-width="1.08067" stroke-miterlimit="8" fill="#FFFFFF" transform="matrix(1.00014 0 0 1 -144.432 123.199)"/><text font-family="Yu Gothic,Yu Gothic_MSFontService,sans-serif" font-weight="400" font-size="11" transform="matrix(0.810618 0 0 0.810506 175.407 602)">SM<tspan font-size="11" x="19.5" y="0">CRTXN</tspan><tspan font-size="11" x="-5.33332" y="13.5718">(</tspan><tspan font-size="11" x="-1.16667" y="13.5718">SM</tspan><tspan font-size="11" x="15.8333" y="13.5718">_</tspan><tspan font-size="11" x="21.8333" y="13.5718">CRTXN</tspan><tspan font-size="11" x="58.8333" y="13.5718">)</tspan></text><path d="M246.529 458.09 246.529 431.604 312.088 431.604 311.817 431.874 311.817 415.384 312.358 415.384 312.358 432.144 246.799 432.144 247.069 431.874 247.069 458.09ZM306.684 416.465 312.088 405.658 317.49 416.465Z" transform="matrix(1.00014 0 0 1 -144.432 123.199)"/><path d="M0-0.270168 26.486-0.270168 26.486 30.2519 26.2158 29.9817 42.7056 29.9817 42.7056 30.5221 25.9457 30.5221 25.9457 0 26.2158 0.270168 0 0.270168ZM41.6249 24.8486 52.4317 30.2519 41.6249 35.6553Z" transform="matrix(-1.83722e-16 -1 -1.00014 1.83697e-16 198.318 581.288)"/><path d="M0-0.270168 63.8094-0.270168 63.8094 32.545 63.5393 32.2749 165.982 32.2749 165.711 32.545 165.711 14.8793 166.252 14.8793 166.252 32.8153 63.2691 32.8153 63.2691 0 63.5393 0.270168 0 0.270168ZM160.578 15.96 165.982 5.15328 171.385 15.96Z" transform="matrix(-1.00014 1.22465e-16 1.22482e-16 1 334.066 523.994)"/><text font-family="Yu Gothic,Yu Gothic_MSFontService,sans-serif" font-weight="400" font-size="11" transform="matrix(0.810618 0 0 0.810506 176.547 546)">R<tspan font-size="11" x="7.00001" y="0">507</tspan></text><path d="M312.45 359.295 312.45 183.58 471.319 183.58" stroke="#000000" stroke-width="0.540337" stroke-miterlimit="8" fill="none" fill-rule="evenodd" transform="matrix(1.00014 0 0 1 -144.432 123.199)"/><text font-family="Yu Gothic,Yu Gothic_MSFontService,sans-serif" font-weight="400" font-size="11" transform="matrix(0.810618 0 0 0.810506 169.367 349)">R<tspan font-size="11" x="6.99999" y="0">506</tspan><tspan font-size="11" x="3.09154" y="159.16">*</tspan></text><path d="M0 0-40.0964 0-40.0964 311.998 197.773 311.998" stroke="#000000" stroke-width="0.540337" stroke-miterlimit="8" fill="none" fill-rule="evenodd" transform="matrix(1.00014 -1.22465e-16 -1.22482e-16 -1 129.152 506.116)"/><text font-family="Yu Gothic,Yu Gothic_MSFontService,sans-serif" font-weight="400" font-size="11" transform="matrix(0.810618 0 0 0.810506 214.336 182)">R<tspan font-size="11" x="7.00001" y="0">505</tspan><tspan font-size="11" x="-130.085" y="396.049">*</tspan></text><path d="M0 0-19.4528 0-19.4528 188.895 301.966 188.895 301.966 274.976" stroke="#000000" stroke-width="0.540337" stroke-miterlimit="8" fill="none" fill-rule="evenodd" transform="matrix(1.00014 -1.22465e-16 -1.22482e-16 -1 63.4918 605.259)"/><text font-family="Yu Gothic,Yu Gothic_MSFontService,sans-serif" font-weight="400" font-size="11" transform="matrix(0.810618 0 0 0.810506 236.714 411)">R<tspan font-size="11" x="6.99999" y="0">508</tspan><tspan font-size="11" x="-230.301" y="257.864">*</tspan></text><path d="M549.118 524.802 626.926 524.802 626.926 571.812 549.118 571.812Z" stroke="#000000" stroke-width="1.08067" stroke-miterlimit="8" fill="#FFFFFF" transform="matrix(1.00014 0 0 1 -144.432 123.199)"/><text font-family="Yu Gothic,Yu Gothic_MSFontService,sans-serif" font-weight="400" font-size="11" transform="matrix(0.810618 0 0 0.810506 424.64 669)">SM<tspan font-size="11" x="19.5" y="0">LEVT</tspan><tspan font-size="11" x="-5.33334" y="12.338">(</tspan><tspan font-size="11" x="-1.16669" y="12.338">SM</tspan><tspan font-size="11" x="15.8333" y="12.338">_</tspan><tspan font-size="11" x="21.8333" y="12.338">LEVT</tspan><tspan font-size="11" x="49.8333" y="12.338">)</tspan></text><path d="M0 0 42.7333 0 42.7333 206.512" stroke="#000000" stroke-width="0.540337" stroke-miterlimit="8" fill="none" fill-rule="evenodd" transform="matrix(1.83722e-16 1 1.00014 -1.83697e-16 198.054 628.549)"/><text font-family="Yu Gothic,Yu Gothic_MSFontService,sans-serif" font-weight="400" font-size="11" transform="matrix(0.810618 0 0 0.810506 272.085 667)">R<tspan font-size="11" x="7.00003" y="0">509</tspan><tspan font-size="11" x="-82.4602" y="-29.6111">0</tspan>..<tspan font-size="11" x="-70.4602" y="-29.6111">1</tspan><tspan font-size="11" x="135.774" y="19.7408">0</tspan>..1</text><path d="M704.735 160.885 782.543 160.885 782.543 207.895 704.735 207.895Z" stroke="#000000" stroke-width="1.08067" stroke-miterlimit="8" fill="#FFFFFF" transform="matrix(1.00014 0 0 1 -144.432 123.199)"/><text font-family="Yu Gothic,Yu Gothic_MSFontService,sans-serif" font-weight="400" font-size="11" transform="matrix(0.810618 0 0 0.810506 580.158 305)">SM<tspan font-size="11" x="19.5" y="0">S</tspan><tspan font-size="11" x="26.1666" y="0">EVT</tspan><tspan font-size="11" x="-5.33334" y="12.338">(</tspan><tspan font-size="11" x="-1.16669" y="12.338">SM</tspan><tspan font-size="11" x="15.8333" y="12.338">_</tspan><tspan font-size="11" x="21.8333" y="12.338">SEVT</tspan><tspan font-size="11" x="49.8334" y="12.338">)</tspan></text><path d="M0-0.270168 247.441-0.270168 247.441 364.133 165.358 364.133 165.358 363.592 247.171 363.592 246.9 363.862 246.9 0 247.171 0.270168 0 0.270168ZM166.438 369.266 155.632 363.862 166.438 358.459Z" transform="matrix(1.00014 0 0 -1 482.581 671.451)"/><text font-family="Yu Gothic,Yu Gothic_MSFontService,sans-serif" font-weight="400" font-size="11" transform="matrix(0.810618 0 0 0.810506 742.222 387)">R<tspan font-size="11" x="6.99999" y="0">526</tspan></text><path d="M743.369 160.479 743.369 126.775 827.17 126.775 826.902 127.046 826.902 103.339 827.437 103.339 827.437 127.316 743.639 127.316 743.909 127.046 743.909 160.479ZM821.764 104.42 827.17 93.6134 832.576 104.42Z" transform="matrix(1.00014 0 0 1 -144.432 123.199)"/><text font-family="Yu Gothic,Yu Gothic_MSFontService,sans-serif" font-weight="400" font-size="11" transform="matrix(0.810618 0 0 0.810506 687.076 248)">R<tspan font-size="11" x="6.99999" y="0">525</tspan></text><path d="M883.856 136.57 961.665 136.57 961.665 183.58 883.856 183.58Z" stroke="#000000" stroke-width="1.08067" stroke-miterlimit="8" fill="#FFFFFF" transform="matrix(1.00014 0 0 1 -144.432 123.199)"/><text font-family="Yu Gothic,Yu Gothic_MSFontService,sans-serif" font-weight="400" font-size="11" transform="matrix(0.810618 0 0 0.810506 758.848 280)">SM<tspan font-size="11" x="19.5" y="0">PEVT</tspan><tspan font-size="11" x="-5.33319" y="13.5718">(</tspan><tspan font-size="11" x="-1.16661" y="13.5718">SM</tspan><tspan font-size="11" x="15.8334" y="13.5718">_</tspan><tspan font-size="11" x="21.8334" y="13.5718">PEVT</tspan><tspan font-size="11" x="49.8334" y="13.5718">)</tspan></text><path d="M883.492 160.072 826.854 160.072 826.854 103.339 827.389 103.339 827.389 159.802 827.121 159.531 883.492 159.531ZM821.715 104.42 827.121 93.6134 832.527 104.42Z" transform="matrix(1.00014 0 0 1 -144.432 123.199)"/><path d="M947.076 252.473 1024.88 252.473 1024.88 299.482 947.076 299.482Z" stroke="#000000" stroke-width="1.08067" stroke-miterlimit="8" fill="#FFFFFF" transform="matrix(1.00014 0 0 1 -144.432 123.199)"/><text font-family="Yu Gothic,Yu Gothic_MSFontService,sans-serif" font-weight="400" font-size="11" transform="matrix(0.810618 0 0 0.810506 819.19 396)">SM<tspan font-size="11" x="19.5" y="0">NLEVT</tspan><tspan font-size="11" x="-5.33334" y="13.5718">(</tspan><tspan font-size="11" x="-1.16677" y="13.5718">SM</tspan><tspan font-size="11" x="15.8333" y="13.5718">_</tspan>NLEVT<tspan font-size="11" x="57.8333" y="13.5718">)</tspan></text><path d="M0 0 92.6003 0 92.6003 24.4011" stroke="#000000" stroke-width="0.540337" stroke-miterlimit="8" fill="none" fill-rule="evenodd" transform="matrix(-1.83722e-16 -1 -1.00014 1.83697e-16 841.774 375.874)"/><text font-family="Yu Gothic,Yu Gothic_MSFontService,sans-serif" font-weight="400" font-size="11" transform="matrix(0.810618 0 0 0.810506 848.924 323)">R<tspan font-size="11" x="6.99999" y="0">527</tspan><tspan font-size="11" x="0" y="57.9885">*</tspan></text><path d="M946.841 276.583 875.865 276.583 875.865 184.39 876.132 184.66 792.269 184.66 792.269 184.12 876.408 184.12 876.408 276.314 876.132 276.044 946.841 276.044ZM793.35 189.794 782.543 184.39 793.35 178.986Z" transform="matrix(1.00014 0 0 1 -144.432 123.199)"/><path d="M545.876-31.2045 623.684-31.2045 623.684 15.8049 545.876 15.8049Z" stroke="#000000" stroke-width="1.08067" stroke-miterlimit="8" fill="#FFFFFF" transform="matrix(1.00014 0 0 1 -144.432 123.199)"/><text font-family="Yu Gothic,Yu Gothic_MSFontService,sans-serif" font-weight="400" font-size="11" transform="matrix(0.810618 0 0 0.810506 422.921 113)">SM<tspan font-size="11" x="19.5" y="0">ASM</tspan><tspan font-size="11" x="-5.33331" y="12.338">(</tspan><tspan font-size="11" x="-1.16669" y="12.338">SM</tspan><tspan font-size="11" x="15.8333" y="12.338">_</tspan><tspan font-size="11" x="21.8333" y="12.338">ASM</tspan><tspan font-size="11" x="45.8333" y="12.338">)</tspan></text><path d="M416.195-31.2045 494.003-31.2045 494.003 15.8049 416.195 15.8049Z" stroke="#000000" stroke-width="1.08067" stroke-miterlimit="8" fill="#FFFFFF" transform="matrix(1.00014 0 0 1 -144.432 123.199)"/><text font-family="Yu Gothic,Yu Gothic_MSFontService,sans-serif" font-weight="400" font-size="11" transform="matrix(0.810618 0 0 0.810506 294.289 113)">SM<tspan font-size="11" x="19.5" y="0">ISM</tspan><tspan font-size="11" x="-5.33331" y="12.338">(</tspan><tspan font-size="11" x="-1.16669" y="12.338">SM</tspan><tspan font-size="11" x="15.8333" y="12.338">_</tspan><tspan font-size="11" x="21.8333" y="12.338">ISM</tspan><tspan font-size="11" x="41.8333" y="12.338">)</tspan></text><path d="M585.377 15.8049 585.377 31.9548 510.213 31.9548 510.483 31.6846 510.483 37.8383 509.943 37.8383 509.943 31.4145 585.107 31.4145 584.837 31.6846 584.837 15.8049ZM515.617 36.7576 510.213 47.5644 504.81 36.7576Z" transform="matrix(1.00014 0 0 1 -144.432 123.199)"/><path d="M0-0.270168 16.1499-0.270168 16.1499 55.275 15.8798 55.0049 22.0334 55.0049 22.0334 55.5452 15.6096 55.5452 15.6096 0 15.8798 0.270168 0 0.270168ZM20.9527 49.8716 31.7595 55.275 20.9527 60.6784Z" transform="matrix(1.83722e-16 1 1.00014 -1.83697e-16 310.73 139.004)"/><text font-family="Yu Gothic,Yu Gothic_MSFontService,sans-serif" font-weight="400" font-size="11" transform="matrix(0.810618 0 0 0.810506 428.156 173)">R<tspan font-size="11" x="7.00003" y="0">517</tspan></text><path d="M481.035-109.824 558.844-109.824 558.844-63.6247 481.035-63.6247Z" stroke="#000000" stroke-width="1.08067" stroke-miterlimit="8" fill="#FFFFFF" transform="matrix(1.00014 0 0 1 -144.432 123.199)"/><text font-family="Yu Gothic,Yu Gothic_MSFontService,sans-serif" font-weight="400" font-size="11" transform="matrix(0.810618 0 0 0.810506 362.084 34)">Objec<tspan font-size="11" x="28.6667" y="0">t</tspan><tspan font-size="11" x="-4.16662" y="13.5718">(</tspan><tspan font-size="11" x="0" y="13.5718">O</tspan><tspan font-size="11" x="8.00001" y="13.5718">_</tspan>OBJ<tspan font-size="11" x="33" y="13.5718">)</tspan></text><path d="M0 0 55.3743 0 55.3743 26.18" stroke="#000000" stroke-width="0.540337" stroke-miterlimit="8" fill="none" fill-rule="evenodd" transform="matrix(-1.83722e-16 -1 -1.00014 1.83697e-16 440.673 91.4436)"/><path d="M455.099-31.7551 455.099-87.1294 481.279-87.1294" stroke="#000000" stroke-width="0.540337" stroke-miterlimit="8" fill="none" fill-rule="evenodd" transform="matrix(1.00014 0 0 1 -144.432 123.199)"/><text font-family="Yu Gothic,Yu Gothic_MSFontService,sans-serif" font-weight="400" font-size="11" transform="matrix(0.810618 0 0 0.810506 284.232 65)">R<tspan font-size="11" x="6.99999" y="0">518</tspan><tspan font-size="11" x="201.917" y="1.2338">R</tspan><tspan font-size="11" x="208.917" y="1.2338">519</tspan><tspan font-size="11" x="203.734" y="24.676">0</tspan>..1<tspan font-size="11" x="0.946227" y="23.4422">0</tspan><tspan font-size="11" x="6.94623" y="23.4422">..</tspan><tspan font-size="11" x="12.9462" y="23.4422">1</tspan></text><path d="M99.2869 139.002 177.095 139.002 177.095 186.011 99.2869 186.011Z" stroke="#000000" stroke-width="1.08067" stroke-miterlimit="8" fill="#FFFFFF" transform="matrix(1.00014 0 0 1 -144.432 123.199)"/><text font-family="Yu Gothic,Yu Gothic_MSFontService,sans-serif" font-weight="400" font-size="11" transform="matrix(0.810618 0 0 0.810506 -27.4117 283)">SM<tspan font-size="11" x="19.5" y="0">MOAH</tspan><tspan font-size="11" x="-5.33334" y="12.338">(</tspan><tspan font-size="11" x="-1.16667" y="12.338">SM</tspan><tspan font-size="11" x="15.8333" y="12.338">_</tspan>MOAH<tspan font-size="11" x="54.8333" y="12.338">)</tspan></text><path d="M317.313 83.8873 395.122 83.8873 395.122 130.897 317.313 130.897Z" stroke="#000000" stroke-width="1.08067" stroke-miterlimit="8" fill="#FFFFFF" transform="matrix(1.00014 0 0 1 -144.432 123.199)"/><text font-family="Yu Gothic,Yu Gothic_MSFontService,sans-serif" font-weight="400" font-size="11" transform="matrix(0.810618 0 0 0.810506 187.497 228)">SM<tspan font-size="11" x="19.5" y="0">MOORE</tspan><tspan font-size="11" x="-5.33334" y="12.338">(</tspan><tspan font-size="11" x="-1.16669" y="12.338">SM</tspan><tspan font-size="11" x="15.8333" y="12.338">_</tspan><tspan font-size="11" x="21.8333" y="12.338">MOORE</tspan><tspan font-size="11" x="61.8333" y="12.338">)</tspan></text><path d="M0 0 53.468 0 53.468 84.7943" stroke="#000000" stroke-width="0.540337" stroke-miterlimit="8" fill="none" fill-rule="evenodd" transform="matrix(-1.83722e-16 -1 -1.00014 1.83697e-16 335.551 284.059)"/><text font-family="Yu Gothic,Yu Gothic_MSFontService,sans-serif" font-weight="400" font-size="11" transform="matrix(0.810618 0 0 0.810506 258.634 244)">0<tspan font-size="11" x="6" y="0">..</tspan>1<tspan font-size="11" x="78.4318" y="43.1829">*</tspan><tspan font-size="11" x="25.5999" y="-24.676">R</tspan><tspan font-size="11" x="32.5999" y="-24.676">511</tspan></text><path d="M0 0 300.967 31.2991" stroke="#000000" stroke-width="0.540337" stroke-miterlimit="8" stroke-dasharray="1.62101 0.540337" fill="none" fill-rule="evenodd" transform="matrix(1.00014 0 0 -1 32.6883 286.205)"/><path d="M76.5929 214.379 154.401 214.379 154.401 261.388 76.5929 261.388Z" stroke="#000000" stroke-width="1.08067" stroke-miterlimit="8" fill="#FFFFFF" transform="matrix(1.00014 0 0 1 -144.432 123.199)"/><text font-family="Yu Gothic,Yu Gothic_MSFontService,sans-serif" font-weight="400" font-size="11" transform="matrix(0.810618 0 0 0.810506 -43.6095 358)">SM<tspan font-size="11" x="19.5" y="0">AH</tspan><tspan font-size="11" x="-5.33334" y="13.5718">(</tspan><tspan font-size="11" x="-1.16666" y="13.5718">SM</tspan><tspan font-size="11" x="15.8333" y="13.5718">_</tspan>AH<tspan font-size="11" x="36.8333" y="13.5718">)</tspan></text><path d="M115.227 214.496 115.227 199.983 138.852 199.983 138.582 200.254 138.582 195.737 139.122 195.737 139.122 200.524 115.497 200.524 115.767 200.254 115.767 214.496ZM133.448 196.818 138.852 186.011 144.255 196.818Z" transform="matrix(1.00014 0 0 1 -144.432 123.199)"/><text font-family="Yu Gothic,Yu Gothic_MSFontService,sans-serif" font-weight="400" font-size="11" transform="matrix(0.810618 0 0 0.810506 -67.2255 326)">R<tspan font-size="11" x="7" y="0">513</tspan></text><path d="M115.497 261.388 115.497 316.971" stroke="#000000" stroke-width="0.540337" stroke-miterlimit="8" fill="none" fill-rule="evenodd" transform="matrix(1.00014 0 0 1 -144.432 123.199)"/><text font-family="Yu Gothic,Yu Gothic_MSFontService,sans-serif" font-weight="400" font-size="11" transform="matrix(0.810618 0 0 0.810506 544.9 322)">*<tspan font-size="11" x="-160.453" y="-1.2338">*</tspan><tspan font-size="13" x="12.2181" y="492.285">※</tspan><tspan font-size="13" x="29.3848" y="492.285">多重度</tspan><tspan font-size="13" x="73.2181" y="492.285">1</tspan><tspan font-size="13" x="84.3848" y="492.285">は</tspan><tspan font-size="13" x="97.3848" y="492.285">省略</tspan></text></g></g></g></g><path d="M422.495 318.622 434.746 317.062 438.091 317.062 441.601 317.333 445.606 317.858 450.945 318.796 453.333 320.069 454.616 321.995 456.14 324.802 457.138 328.936 456.905 328.25 457.951 330.604 458.996 333.366 459.653 337.012 460.009 340.649 459.807 344.9 459.616 348.138 459.427 350.729 459.431 350.672 459.306 352.797 459.31 352.711 459.247 354.415 459.183 355.807 459.186 355.73 459.124 358.105 459.061 360.54 459.062 360.438 459.062 362 459.062 363.875 459.061 363.767 459.125 366.133 459.125 369.08 451.125 369.08 451.125 366.188 451.126 366.296 451.062 363.929 451.062 362 451.062 360.386 451.126 357.895 451.19 355.482 451.254 354.068 451.253 354.102 451.317 352.371 451.446 350.174 451.636 347.583 451.632 347.64 451.819 344.453 451.817 344.497 452.005 340.56 452.019 341.14 451.707 337.953 451.751 338.271 451.188 335.146 451.384 335.853 450.509 333.541 450.595 333.75 449.447 331.167 448.487 327.189 448.86 328.158 447.672 325.971 447.859 326.281 447.234 325.344 448.68 326.654 447.743 326.154 448.933 326.565 444.308 325.752 444.48 325.779 440.667 325.279 440.881 325.301 437.631 325.051 437.938 325.062 435 325.062 435.505 325.03 423.505 326.558ZM424.519 334.494C417.945 335.333 411.935 330.683 411.097 324.109 410.258 317.535 414.907 311.526 421.481 310.687 428.055 309.848 434.065 314.497 434.903 321.071 435.742 327.645 431.093 333.655 424.519 334.494ZM472.696 347.188 455.083 377.019 437.786 347.004C436.683 345.09 437.34 342.644 439.254 341.541 441.168 340.438 443.614 341.095 444.717 343.009L458.591 367.083 451.681 367.046 465.807 343.121C466.93 341.218 469.383 340.587 471.285 341.71 473.187 342.833 473.819 345.286 472.696 347.188Z" fill="#ED7D31" fill-opacity="0.501961"/><path d="M455.202 443.682 455.187 447.453 455.185 447.289 455.31 450.664 455.297 450.466 455.797 456.216 455.769 455.974 456.465 460.654 456.937 464.572 456.937 468.462 455.634 472.373 452.969 475.725 450.991 477.291 448.848 478.742 446.73 480.028 444.095 481.083 439.428 481.729 434.923 482.075 429.414 481.611 424.918 481.236 424.943 481.238 420.881 480.926 420.938 480.93 416.938 480.68 417.006 480.683 412.881 480.496 412.954 480.499 408.329 480.374 408.343 480.374 403.031 480.249 403.125 480.25 396.812 480.25 397.224 480.229 393.599 480.604 393.801 480.578 390.176 481.14 390.794 480.993 388.539 481.723 386.158 482.318 386.734 482.126 384.797 482.939 386.21 481.941 385.585 482.628 386.392 481.283 386.079 482.158 386.311 480.927 386.248 483.114 386.207 482.418 386.52 484.543 386.373 483.91 387.748 488.222 387.655 487.961 389.413 492.39 390.892 497.491 390.792 500.788 389.768 503.777 388.639 506.104 387.678 507.963 388.099 506.577 387.787 509.327 387.809 509.049 387.675 512.114 387.209 515.455 385.806 519.049 384.293 520.887 382.512 522.387 378.71 524.44 374.669 525.763 371.019 526.42 350.806 527.433 330.787 528.247 331.015 528.231 327.828 528.543 328.146 528.499 325.021 529.062 325.968 528.766 323.218 530.016 323.449 529.902 320.474 531.493 317.314 532.571 314.773 533.287 314.952 533.232 313.143 533.836 311.807 534.187 310.564 534.498 309.404 534.652 309.468 534.643 308.204 534.833 306.412 535.089 303.946 535.405 304.94 535.144 302.628 536.082 301.265 536.64 301.288 536.63 300.261 537.058 299.378 537.279 298.659 537.422 298.743 537.405 297.618 537.655 297.75 537.623 295.737 538.142 294.225 538.471 294.474 538.409 292.724 538.909 292.966 538.831 289.279 540.143 289.423 540.089 287.548 540.839 287.572 540.829 285.884 541.517 287.448 540.373 285.96 542.159 283.646 544.071 280.63 545.046 277.865 545.684 272.011 546.539 266.326 546.992 263.898 547.119 263.945 547.117 261.992 547.243 256.477 547.556 252.169 547.806 248.857 547.997 246.483 548.061 246.535 548.059 244.972 548.122 245.079 548.116 244.008 548.188 242.82 548.188 242.092 548.006 243.062 548.125 242.75 548.125 242.312 548.125 242.675 548.109 241.987 548.171 242.004 548.169 240.631 548.3 238.633 548.429 238.737 548.421 235.969 548.673 231.87 549.009 225.643 548.677 219.168 548.064 217.423 547.482 217.475 547.499 216.1 547.062 216.901 547.229 211.463 546.666 211.6 546.678 205.37 546.248 195.596 541.395 196.162 541.624 194.71 541.162 192.881 540.497 190.289 538.913 190.401 538.979 188.088 537.666 188.9 538.015 183.962 536.515 184.155 536.568 178.189 535.077 175.42 532.585 173.22 530.148 171.986 527.905 171.562 525.47 171.562 517.5 171.563 517.539 171.5 511.101 171.501 511.155 171.376 505.762 171.313 501.306 171.315 501.388 171.189 497.736 171.126 494.708 171.126 494.728 171.064 492.29 171.064 492.312 170.998 490.176 171.132 486.543 171.47 483.1 171.815 481.029 172.265 478.778 172.255 478.831 172.763 476.103 173.458 472.75 173.482 474.482 172.413 469.956 171.86 467.463 171.562 464.716 171.562 463.875 171.562 462.625 171.562 460.812 171.562 458.562 171.562 455.875 171.562 452.818 171.753 446.105 172.069 438.951 172.58 432.06 173.295 425.877 173.858 423.065 174.48 420.852 175.376 418.037 175.27 418.44 175.658 416.569 175.984 415.199 175.906 415.629 176.049 414.484 176.203 413.716 176.149 414.058 176.212 413.496 178.399 417.515 176.062 416.347 176.062 413.042 176.599 411.702 176.481 412.038 176.72 411.242 177.161 410.139 177.063 410.412 177.515 408.991 178.156 407.134 177.965 407.97 178.349 404.706 178.935 400.968 180.058 398.274 180.022 398.363 180.897 396.113 180.643 397.181 181.081 392.618 181.069 392.778 181.206 390.309 181.686 387.429 183.131 383.745 184.616 380.516 184.512 380.764 189.02 368.93 193.677 357.098 196.604 350.333 200.29 343.883 201.688 341.819 203.73 338.821 206.501 335.018 209.682 330.993 213.333 326.877 217.372 323.181 221.607 320.238 224.104 319.156 226.472 318.503 234.093 317.575 241.579 317.191 248.862 316.94 248.829 316.941 256.142 316.629 255.725 316.668 262.059 315.728 268.543 314.838 272.006 314.517 274.76 314.261 276.993 314.13 278.659 314.065 278.613 314.068 279.963 314 281.062 314 282.311 314.078 282.934 314.156 281.722 314.19 282.409 314.065 282.199 314.109 283.511 313.796 283.367 313.833 284.56 313.502 286.748 312.977 295.056 313.382 302.89 313.955 306.625 314.414 307.106 314.492 305.832 322.39 305.426 322.324 305.575 322.345 302.012 321.908 302.208 321.927 294.521 321.364 294.618 321.37 286.93 320.995 288.058 320.89 286.496 321.265 286.633 321.229 285.436 321.561 283.947 321.916 282.55 322.17 281.441 322.032 281.688 322.055 280.688 321.992 280.938 322 280.062 322 280.262 321.995 278.989 322.059 277.341 322.122 277.422 322.118 275.297 322.243 275.433 322.233 272.744 322.483 269.369 322.795 269.544 322.775 263.169 323.65 263.213 323.644 256.693 324.612 249.154 324.935 241.888 325.185 241.955 325.182 234.642 325.557 234.921 325.533 227.733 326.408 228.314 326.293 226.501 326.793 227.028 326.608 225.153 327.42 225.845 327.035 222.158 329.597 222.576 329.263 218.888 332.638 219.18 332.342 215.742 336.217 215.888 336.043 212.826 339.918 212.92 339.793 210.233 343.481 210.306 343.376 208.312 346.306 206.999 348.243 207.16 347.985 203.66 354.11 203.859 353.713 201.046 360.213 201.097 360.09 196.472 371.84 196.488 371.799 191.94 383.737 190.446 386.984 190.536 386.773 189.286 389.96 189.508 389.158 189.133 391.408 189.181 390.972 189.052 393.302 188.554 398.496 187.461 401.307 186.505 403.601 186.764 402.682 186.264 405.87 186.285 405.717 185.86 409.333 185.094 411.554 185.124 411.463 184.643 412.976 184.214 414.048 184.331 413.712 184.093 414.508 183.776 415.298 184.062 413.812 184.062 413.875 181.851 410.297 184.471 411.607 184.081 415.114 183.922 415.909 183.969 415.621 183.817 416.838 183.454 418.364 183.48 418.248 183.062 420.264 182.124 423.213 182.163 423.083 181.601 425.083 181.672 424.784 181.172 427.284 181.223 426.96 180.536 432.898 180.552 432.733 180.052 439.483 180.059 439.364 179.746 446.427 179.748 446.363 179.561 452.988 179.562 452.875 179.562 455.875 179.562 458.562 179.562 460.812 179.562 462.625 179.562 463.875 179.562 464.5 179.539 464.07 179.789 466.383 179.717 465.945 180.217 468.195 180.205 468.143 181.472 473.507 180.604 477.688 180.62 477.607 180.115 480.321 179.672 482.534 179.696 482.408 179.383 484.283 179.418 484.015 179.106 487.203 179.122 486.961 178.997 490.336 178.998 490.063 179.061 492.074 179.124 494.532 179.187 497.542 179.185 497.487 179.312 501.153 179.375 505.631 179.374 505.594 179.5 510.997 179.562 517.481 179.562 525.125 179.503 524.44 179.753 525.877 179.317 524.635 180.005 525.885 179.468 525.131 181.218 527.069 180.926 526.777 182.801 528.464 181.095 527.557 186.192 528.831 191.65 530.489 194.406 532.053 196.711 533.462 195.992 533.116 197.367 533.616 197.213 533.563 198.88 534.094 208.216 538.73 206.713 538.322 212.219 538.702 218.133 539.314 219.926 539.884 221.265 540.33 220.377 540.143 226.315 540.705 226.15 540.693 232.025 541.006 231.486 541.013 235.298 540.701 235.263 540.704 238.065 540.449 240.055 540.321 239.933 540.331 241.254 540.205 242.131 540.125 242.75 540.125 243.555 540.125 244.283 540.307 243.312 540.188 243.875 540.188 243.609 540.196 244.6 540.13 246.241 540.065 248.579 540.001 248.457 540.007 251.706 539.819 256.023 539.569 261.523 539.256 261.492 539.258 263.454 539.132 265.852 539.005 265.745 539.013 271.245 538.575 270.984 538.604 276.547 537.792 276.226 537.852 278.663 537.29 278.331 537.382 280.456 536.694 279.14 537.416 280.577 536.229 280.052 536.752 281.941 534.485 284.565 533.416 286.524 532.632 290.404 531.251 292.4 530.681 293.963 530.341 293.813 530.377 295.816 529.86 297.049 529.586 297.716 529.453 297.53 529.494 298.03 529.369 297.461 529.558 298.223 529.24 299.622 528.668 302.415 527.536 305.366 527.157 305.309 527.165 307.059 526.915 307.032 526.919 308.314 526.727 309.284 526.598 308.842 526.682 309.842 526.432 309.795 526.444 310.982 526.132 310.735 526.205 312.511 525.613 315.039 524.9 314.834 524.964 317.584 524.026 316.988 524.285 319.79 522.787 323.112 521.277 326.887 520.597 330.348 520.258 350.463 519.441 350.425 519.443 370.362 518.443 369.854 518.501 372.979 517.938 372.443 518.073 375.881 516.948 375.224 517.23 378.349 515.543 377.673 516.003 378.861 515.003 378.35 515.52 379.225 514.457 378.586 515.546 379.586 512.983 379.351 513.885 379.726 511.197 379.691 511.576 379.822 508.562 380.234 504.942 381.51 502.475 381.463 502.567 382.463 500.505 382.279 500.953 383.029 498.765 382.814 499.941 382.877 497.879 383.033 499.114 381.783 494.801 381.907 495.164 380.169 490.785 378.652 486.029 378.242 483.236 378.332 480.064 379.127 477.839 380.886 475.904 383.922 474.631 386.467 473.994 386.206 474.069 388.634 473.284 392.675 472.657 396.606 472.25 403.172 472.25 408.539 472.376 413.207 472.502 417.403 472.693 421.466 472.947 425.569 473.263 430.086 473.639 435.274 474.077 434.631 474.074 438.693 473.762 438.451 473.788 442.514 473.225 441.577 473.474 443.452 472.724 442.862 473.018 444.612 471.956 444.444 472.063 446.382 470.751 446.142 470.926 447.642 469.739 446.994 470.386 448.931 467.949 448.268 469.173 449.143 466.548 448.937 467.812 448.937 464.812 448.966 465.292 448.529 461.667 448.543 461.776 447.838 457.03 447.319 451.06 447.187 447.504 447.202 443.651ZM287.578 297.677 314.304 319.717 281.963 332.133C279.901 332.924 277.587 331.894 276.796 329.832 276.004 327.769 277.034 325.456 279.096 324.664L305.035 314.706 303.924 321.527 282.488 303.849C280.784 302.443 280.542 299.922 281.947 298.218 283.353 296.514 285.874 296.271 287.578 297.677Z" fill="#4472C4" fill-opacity="0.501961"/><path d="M488.994 438.775 489.246 443.262 489.373 447.313 489.371 447.262 489.684 454.387 489.641 453.954 490.141 457.204 489.982 456.548 491.045 459.735 490.77 459.099 492.457 462.224 492.085 461.656 494.585 464.844 493.899 464.159 496.461 466.159 495.936 465.812 498.874 467.437 498.629 467.313 502.379 469.063 502.092 468.942 505.092 470.067 504.896 470 507.459 470.812 507.149 470.727 509.587 471.29 509.361 471.245 511.955 471.688 515.049 472.268 518.884 473.113 523.787 474.42 526.757 475.433 529.929 476.688 532.383 477.786 532.288 477.745 533.166 478.111 533.889 478.472 538.13 481.756 540.284 483.551 542.518 486.042 543.536 488.304 543.93 490.47 544.003 493.759 543.616 500.398 543.38 503.399 535.405 502.774 535.637 499.812 535.632 499.892 536.007 493.455 536.001 493.776 535.938 490.964 536.002 491.591 535.752 490.216 536.04 491.141 535.477 489.891 536.147 490.92 534.522 489.108 534.939 489.51 533.064 487.948 533.176 488.038 529.301 485.038 529.961 485.453 529.711 485.328 529.962 485.442 529.164 485.11 526.742 484.026 526.903 484.094 523.903 482.907 524.084 482.974 521.334 482.036 521.594 482.115 516.907 480.865 517.077 480.906 513.389 480.094 513.513 480.119 510.513 479.556 510.577 479.568 507.901 479.111 505.194 478.486 502.38 477.594 499.137 476.378 495.121 474.504 491.788 472.66 488.591 470.165 485.58 466.325 483.565 462.595 482.286 458.756 481.701 454.955 481.378 447.588 481.252 443.562 481.256 443.663 481.006 439.225ZM557.71 481.815 539.076 511.019 522.827 480.424C521.791 478.473 522.533 476.051 524.484 475.015 526.435 473.979 528.856 474.72 529.893 476.671L542.925 501.21 536.021 500.935 550.966 477.512C552.154 475.649 554.627 475.103 556.489 476.291 558.352 477.479 558.898 479.952 557.71 481.815Z" fill="#70AD47" fill-opacity="0.501961"/><path d="M502.708 436.056 505.833 438.931 505.638 438.763 508.888 441.388 508.507 441.116 513.07 443.991 513.043 443.974 518.293 447.224 518.28 447.216 523.78 450.591 523.71 450.549 529.159 453.743 534.108 456.687 538.105 459.061 538.017 459.01 539.646 459.922 540.836 460.649 540.766 460.607 541.516 461.045 541.289 460.922 541.539 461.047 539.327 460.647 551.077 459.397 550.993 459.407 562.743 457.907 561.985 458.08 563.11 457.705 562.432 458.003 563.593 457.359 565.188 456.514 567.352 456.059 587.445 456.25 607.171 456.751 647.53 457.908 651.3 460.308 654.58 462.65 657.027 466.185 658.156 469.978 658.698 473.293 658.657 473.08 659.219 475.642 658.954 474.845 660.204 477.595 660.09 477.363 662.097 481.117 661.654 485.727 660.996 489.458 659.968 492.101 659.019 494.44 659.267 493.538 658.517 498.476 658.558 498.068 658.308 503.255 658.312 503.014 658.337 505.031 650.337 505.129 650.311 502.991 650.577 497.477 651.429 491.871 652.543 489.122 652.522 489.175 653.397 486.925 653.186 487.68 653.748 484.492 653.706 484.805 654.018 481.555 654.473 483.824 652.974 481.023 651.496 477.77 650.82 474.689 650.302 471.52 650.416 472.017 649.541 469.079 650.086 470.214 648.399 467.777 649.363 468.755 646.738 466.88 646.915 467 644.165 465.25 646.198 465.873 606.948 464.748 606.961 464.749 587.273 464.249 587.337 464.25 567.712 464.062 568.574 463.977 567.387 464.227 568.434 463.848 567.372 464.41 567.443 464.372 565.993 465.177 564.144 465.793 551.965 467.348 539.009 468.726 537.596 468.02 536.699 467.497 535.539 466.788 535.671 466.865 534.064 465.965 530.017 463.563 525.08 460.625 525.102 460.638 519.63 457.43 514.089 454.03 508.819 450.768 504.044 447.759 500.512 444.906 497.292 441.944ZM671.649 482.983 654.389 513.019 636.74 483.209C635.614 481.309 636.243 478.855 638.144 477.73 640.045 476.604 642.498 477.233 643.624 479.134L657.779 503.042 650.869 503.087 664.713 478.997C665.814 477.081 668.259 476.421 670.174 477.522 672.089 478.622 672.75 481.067 671.649 482.983Z" fill="#FF0000" fill-opacity="0.501961"/><path d="M478.915 374.294 478.383 367.063 477.998 359.628 478.19 349.437 478.988 338.862 480.339 335.005 483.099 332.244 486.093 330.664 489.079 329.516 494.215 328.517 507.227 327.94 519.881 327.564 519.451 327.6 525.878 326.709 560.369 323.95 560.03 323.992 560.826 323.859 562.184 323.665 562.07 323.683 563.883 323.371 563.867 323.373 565.992 322.998 565.947 323.007 570.259 322.194 570.061 322.237 571.874 321.799 571.648 321.861 573.085 321.423 572.712 321.558 578.712 319.058 578.43 319.188 584.18 316.25 583.172 316.984 585.484 314.672 585.425 314.732 586.862 313.232 586.449 313.741 587.261 312.554 586.825 313.389 587.325 312.076 587.189 312.5 587.689 310.563 587.671 310.636 587.993 309.285 588.457 307.496 589.103 305.298 589.881 302.707 590.971 299.564 592.219 295.946 592.205 295.985 592.785 294.246 593.053 293.508 592.89 294.09 592.953 293.778 592.898 294.991 592.023 286.866 592.089 287.276 591.901 286.401 591.912 286.449 591.599 285.074 591.657 285.296 590.719 282.046 590.727 282.074 590.215 280.345 589.828 278.927 589.87 279.068 589.557 278.068 589.58 278.14 589.386 277.558 588.826 274.968 588.308 272.117 587.864 269.393 587.87 269.426 587.32 266.22 589.973 258.619 589.959 258.662 592.229 251.916 594.743 245.145 598.12 237.89 600.375 235.981 602.958 235.438 605.938 235.438 605.55 235.456 614.678 234.569 632.016 234.001 649.225 233.626 649.006 233.637 653.068 233.324 652.818 233.351 656.818 232.789 656.203 232.926 660.078 231.738 659.174 232.143 660.924 231.081 660.473 231.399 662.161 230.024 661.546 230.65 663.171 228.587 662.899 228.977 664.274 226.727 664.139 226.967 666.576 222.28 666.197 223.372 667.114 218.59 667.742 216.564 667.645 216.94 668.02 215.127 667.938 215.887 667.963 213.869 675.963 213.97 675.932 216.372 675.44 218.75 674.82 220.748 674.928 220.316 673.943 225.452 671.173 230.78 669.602 233.351 667.556 235.947 665.312 237.776 662.899 239.241 658.245 240.667 653.807 241.291 649.51 241.622 632.212 241.999 632.256 241.998 615.068 242.56 615.325 242.544 606.131 243.438 603.375 243.438 604.199 243.352 603.012 243.602 604.771 242.741 603.959 243.429 605.002 242.063 602.064 248.375 602.187 248.08 599.75 254.643 599.791 254.526 597.534 261.234 595.214 267.881 595.38 265.887 595.758 268.091 596.198 270.795 596.185 270.722 596.685 273.472 596.66 273.342 597.16 275.655 597.045 275.235 597.182 275.646 597.527 276.752 597.922 278.198 597.898 278.114 598.402 279.815 599.375 283.189 599.719 284.7 599.955 285.803 600.918 294.745 600.675 295.957 600.322 296.929 600.357 296.827 599.788 298.534 598.529 302.186 597.467 305.249 597.519 305.087 596.769 307.587 596.775 307.566 596.15 309.691 596.185 309.566 595.747 311.254 595.766 311.176 595.445 312.526 594.88 314.716 594.132 316.68 592.865 318.53 591.171 320.298 588.382 323.087 581.932 326.383 575.605 329.019 573.865 329.548 571.84 330.037 567.405 330.873 565.25 331.253 563.373 331.577 562.003 331.772 562.095 331.758 561.177 331.911 526.631 334.675 526.862 334.65 520.335 335.554 507.494 335.936 507.552 335.934 494.865 336.496 495.451 336.426 490.951 337.301 491.623 337.108 489.186 338.046 489.617 337.85 487.367 339.038 488.328 338.328 486.641 340.016 487.588 338.509 486.713 341.009 486.926 339.989 486.176 349.926 486.187 349.7 485.999 359.638 485.995 359.356 486.37 366.606 486.364 366.519 486.893 373.706ZM654.678 236.038 671.902 205.981 689.587 235.769C690.715 237.669 690.089 240.123 688.19 241.251 686.29 242.378 683.836 241.753 682.708 239.853L668.524 215.962 675.434 215.909 661.619 240.016C660.521 241.932 658.076 242.596 656.16 241.498 654.243 240.399 653.58 237.955 654.678 236.038Z" fill="#ED7D31" fill-opacity="0.501961"/><g clip-path="url(#clip9)" filter="url(#fx0)" transform="translate(186 407)"><g clip-path="url(#clip10)"><path d="M15.0469-18.5742 15.0469-15.9609 9.50391-15.9609 9.50391 0.046875 6.23438 0.046875 6.23438-15.9609 0.738281-15.9609 0.738281-18.5742ZM24.6927-13.418 24.4935-10.582C22.8138-10.582 21.5677-9.46875 20.7552-7.24219L20.7552 0.046875 17.7786 0.046875 17.7786-13.125 20.6146-13.125 20.6146-9.89062C21.4661-12.2422 22.8255-13.418 24.6927-13.418ZM26.7253-9.80859C27.4049-12.2305 29.2214-13.4414 32.1745-13.4414 35.5807-13.4414 37.2839-11.9844 37.2839-9.07031L37.2839-3.84375C37.2839-2.57031 37.3542-1.27344 37.4948 0.046875L34.7174 0.046875C34.6315-0.445312 34.5573-1.01953 34.4948-1.67578 33.5495-0.316406 32.1667 0.363281 30.3464 0.363281 29.0417 0.363281 28.0182-0.0351563 27.276-0.832031 26.6198-1.53516 26.2917-2.44141 26.2917-3.55078 26.2917-5.89453 27.7253-7.34375 30.5924-7.89844 31.6549-8.10156 32.9089-8.22656 34.3542-8.27344L34.3542-9.02344C34.3542-9.89844 34.1471-10.5195 33.7331-10.8867 33.3737-11.1992 32.819-11.3555 32.069-11.3555 31.3815-11.3555 30.8112-11.1328 30.3581-10.6875 29.944-10.2812 29.6745-9.73438 29.5495-9.04688ZM34.3542-6.41016C33.3464-6.38672 32.3385-6.25781 31.3307-6.02344 29.8932-5.67969 29.1745-4.93359 29.1745-3.78516 29.1745-2.45703 29.8776-1.79297 31.2839-1.79297 32.5651-1.79297 33.5885-2.51562 34.3542-3.96094ZM44.0417-13.125 44.0417-10.8164C44.6198-11.6758 45.3073-12.3359 46.1042-12.7969 46.8307-13.2109 47.5846-13.418 48.3659-13.418 49.5612-13.418 50.5026-13.0273 51.1901-12.2461 51.8151-11.543 52.1276-10.6133 52.1276-9.45703L52.1276 0.046875 49.0339 0.046875 49.0339-8.61328C49.0339-10.0898 48.4245-10.8281 47.2057-10.8281 46.6432-10.8281 46.0651-10.6016 45.4714-10.1484 44.9635-9.75 44.5182-9.23047 44.1354-8.58984L44.1354 0.046875 41.112 0.046875 41.112-13.125ZM65.4492-10.0547 62.5898-9.23438C62.2617-10.6484 61.4805-11.3555 60.2461-11.3555 59.5742-11.3555 59.0469-11.1992 58.6641-10.8867 58.3437-10.6367 58.1836-10.3203 58.1836-9.9375 58.1836-9.38281 58.3594-8.96875 58.7109-8.69531 59.0391-8.44531 59.6445-8.20312 60.5273-7.96875L61.6289-7.67578C63.2227-7.25391 64.3203-6.71094 64.9219-6.04688 65.4531-5.46094 65.7188-4.66797 65.7188-3.66797 65.7188-2.35547 65.2148-1.33984 64.207-0.621094 63.2773 0.0507812 62.0039 0.386719 60.3867 0.386719 57.5195 0.386719 55.6875-0.710938 54.8906-2.90625L57.7031-3.89062C58.125-2.41406 59.043-1.67578 60.457-1.67578 62.0586-1.67578 62.8594-2.24219 62.8594-3.375 62.8594-3.9375 62.6719-4.34766 62.2969-4.60547 61.9766-4.81641 61.3164-5.06641 60.3164-5.35547L59.2148-5.66016C57.6914-6.06641 56.6484-6.59766 56.0859-7.25391 55.5937-7.83203 55.3477-8.63672 55.3477-9.66797 55.3477-10.8477 55.8281-11.7812 56.7891-12.4688 57.6719-13.1016 58.8398-13.418 60.293-13.418 62.9727-13.418 64.6914-12.2969 65.4492-10.0547ZM71.7786-13.125 71.7786 0.046875 68.7552 0.046875 68.7552-13.125ZM71.9076-18.5742 71.9076-15.4805 68.638-15.4805 68.638-18.5742ZM79.2096-17.4258 79.2096-13.125 82.1628-13.125 82.1628-10.9219 79.2096-10.9219 79.2096-3.69141C79.2096-2.42578 79.7526-1.79297 80.8385-1.79297 81.4245-1.79297 81.9362-1.84375 82.3737-1.94531L82.2565 0.210938C81.5925 0.3125 80.8073 0.363281 79.901 0.363281 78.5651 0.363281 77.6042 0.0429687 77.0182-0.597656 76.4948-1.16797 76.2331-2.01562 76.2331-3.14062L76.2331-10.9219 74.2643-10.9219 74.2643-13.125 76.2331-13.125 76.2331-16.7461ZM87.7786-13.125 87.7786 0.046875 84.7552 0.046875 84.7552-13.125ZM87.9076-18.5742 87.9076-15.4805 84.638-15.4805 84.638-18.5742ZM96.7917-13.418C98.7135-13.418 100.217-12.7266 101.303-11.3438 102.264-10.1172 102.745-8.51953 102.745-6.55078 102.745-4.27734 102.128-2.50781 100.893-1.24219 99.8307-0.15625 98.4557 0.386719 96.7682 0.386719 94.8307 0.386719 93.3229-0.304688 92.2448-1.6875 91.2917-2.90625 90.8151-4.50391 90.8151-6.48047 90.8151-8.74609 91.4362-10.5156 92.6784-11.7891 93.7487-12.875 95.1198-13.418 96.7917-13.418ZM96.7917-11.2383C94.8698-11.2383 93.9089-9.66797 93.9089-6.52734 93.9089-3.37109 94.862-1.79297 96.7682-1.79297 98.6901-1.79297 99.651-3.37109 99.651-6.52734 99.651-9.66797 98.6979-11.2383 96.7917-11.2383ZM108.708-13.125 108.708-10.8164C109.286-11.6758 109.974-12.3359 110.771-12.7969 111.497-13.2109 112.251-13.418 113.033-13.418 114.228-13.418 115.169-13.0273 115.857-12.2461 116.482-11.543 116.794-10.6133 116.794-9.45703L116.794 0.046875 113.701 0.046875 113.701-8.61328C113.701-10.0898 113.091-10.8281 111.872-10.8281 111.31-10.8281 110.732-10.6016 110.138-10.1484 109.63-9.75 109.185-9.23047 108.802-8.58984L108.802 0.046875 105.779 0.046875 105.779-13.125Z" fill="#4472C4" transform="translate(17.9319 33)"/></g></g><text fill="#4472C4" font-family="Yu Gothic,Yu Gothic_MSFontService,sans-serif" font-weight="700" font-size="24" transform="translate(202.747 439)">Transition</text><g clip-path="url(#clip11)" filter="url(#fx1)" transform="translate(611 505)"><g clip-path="url(#clip12)"><path d="M16.3594-13.2422 13.2188-12.4805C12.7578-15.1055 11.4531-16.418 9.30469-16.418 7.78125-16.418 6.60547-15.7383 5.77734-14.3789 5.01172-13.1289 4.62891-11.4258 4.62891-9.26953 4.62891-6.81641 5.125-4.95312 6.11719-3.67969 6.9375-2.63281 8-2.10938 9.30469-2.10938 11.5234-2.10938 12.8906-3.4375 13.4062-6.09375L16.4648-5.15625C15.5117-1.46094 13.1172 0.386719 9.28125 0.386719 6.65625 0.386719 4.61328-0.5625 3.15234-2.46094 1.84766-4.15625 1.19531-6.41406 1.19531-9.23438 1.19531-12.4766 2.03906-14.9687 3.72656-16.7109 5.15625-18.1797 7.00781-18.9141 9.28125-18.9141 11.2969-18.9141 12.9375-18.3438 14.2031-17.2031 15.2812-16.2266 16-14.9062 16.3594-13.2422ZM18.7253-9.80859C19.4049-12.2305 21.2214-13.4414 24.1745-13.4414 27.5807-13.4414 29.2839-11.9844 29.2839-9.07031L29.2839-3.84375C29.2839-2.57031 29.3542-1.27344 29.4948 0.046875L26.7174 0.046875C26.6315-0.445312 26.5573-1.01953 26.4948-1.67578 25.5495-0.316406 24.1667 0.363281 22.3464 0.363281 21.0417 0.363281 20.0182-0.0351563 19.276-0.832031 18.6198-1.53516 18.2917-2.44141 18.2917-3.55078 18.2917-5.89453 19.7253-7.34375 22.5924-7.89844 23.6549-8.10156 24.9089-8.22656 26.3542-8.27344L26.3542-9.02344C26.3542-9.89844 26.1471-10.5195 25.7331-10.8867 25.3737-11.1992 24.819-11.3555 24.069-11.3555 23.3815-11.3555 22.8112-11.1328 22.3581-10.6875 21.944-10.2812 21.6745-9.73438 21.5495-9.04688ZM26.3542-6.41016C25.3464-6.38672 24.3385-6.25781 23.3307-6.02344 21.8932-5.67969 21.1745-4.93359 21.1745-3.78516 21.1745-2.45703 21.8776-1.79297 23.2839-1.79297 24.5651-1.79297 25.5885-2.51562 26.3542-3.96094ZM36.0417-13.125 36.0417-10.8164C36.6198-11.6758 37.3073-12.3359 38.1042-12.7969 38.8307-13.2109 39.5846-13.418 40.3659-13.418 41.5612-13.418 42.5026-13.0273 43.1901-12.2461 43.8151-11.543 44.1276-10.6133 44.1276-9.45703L44.1276 0.046875 41.0339 0.046875 41.0339-8.61328C41.0339-10.0898 40.4245-10.8281 39.2057-10.8281 38.6432-10.8281 38.0651-10.6016 37.4714-10.1484 36.9635-9.75 36.5182-9.23047 36.1354-8.58984L36.1354 0.046875 33.112 0.046875 33.112-13.125ZM51.0625-18.5742 51.0625-15.3398 49.3281-11.6016 47.793-11.6016 49.3281-15.3398 47.6289-15.3398 47.6289-18.5742ZM58.2096-17.4258 58.2096-13.125 61.1628-13.125 61.1628-10.9219 58.2096-10.9219 58.2096-3.69141C58.2096-2.42578 58.7526-1.79297 59.8385-1.79297 60.4245-1.79297 60.9362-1.84375 61.3737-1.94531L61.2565 0.210938C60.5924 0.3125 59.8073 0.363281 58.901 0.363281 57.5651 0.363281 56.6042 0.0429687 56.0182-0.597656 55.4948-1.16797 55.2331-2.01562 55.2331-3.14062L55.2331-10.9219 53.2643-10.9219 53.2643-13.125 55.2331-13.125 55.2331-16.7461ZM73.6354-18.9141 73.6354-10.8984C74.8151-12.5625 76.2253-13.3945 77.8659-13.3945 79.0612-13.3945 80.0026-13.0078 80.6901-12.2344 81.3151-11.5312 81.6276-10.6055 81.6276-9.45703L81.6276 0.046875 78.5339 0.046875 78.5339-8.58984C78.5339-10.0664 77.9245-10.8047 76.7057-10.8047 76.1432-10.8047 75.5651-10.5703 74.9714-10.1016 74.4635-9.70312 74.0182-9.18359 73.6354-8.54297L73.6354 0.046875 70.612 0.046875 70.612-18.9141ZM85.0586-9.80859C85.7383-12.2305 87.5547-13.4414 90.5078-13.4414 93.9141-13.4414 95.6172-11.9844 95.6172-9.07031L95.6172-3.84375C95.6172-2.57031 95.6875-1.27344 95.8281 0.046875L93.0508 0.046875C92.9648-0.445312 92.8906-1.01953 92.8281-1.67578 91.8828-0.316406 90.5 0.363281 88.6797 0.363281 87.375 0.363281 86.3516-0.0351563 85.6094-0.832031 84.9531-1.53516 84.625-2.44141 84.625-3.55078 84.625-5.89453 86.0586-7.34375 88.9258-7.89844 89.9883-8.10156 91.2422-8.22656 92.6875-8.27344L92.6875-9.02344C92.6875-9.89844 92.4805-10.5195 92.0664-10.8867 91.707-11.1992 91.1523-11.3555 90.4024-11.3555 89.7148-11.3555 89.1445-11.1328 88.6914-10.6875 88.2773-10.2812 88.0078-9.73438 87.8828-9.04688ZM92.6875-6.41016C91.6797-6.38672 90.6719-6.25781 89.6641-6.02344 88.2266-5.67969 87.5078-4.93359 87.5078-3.78516 87.5078-2.45703 88.2109-1.79297 89.6172-1.79297 90.8984-1.79297 91.9219-2.51562 92.6875-3.96094ZM102.352-13.125 102.352-11.1797C103.266-12.6719 104.496-13.418 106.043-13.418 107.645-13.418 108.898-12.7734 109.805-11.4844 110.641-10.2812 111.059-8.66016 111.059-6.62109 111.059-4.29297 110.488-2.48828 109.348-1.20703 108.418-0.160156 107.27 0.363281 105.902 0.363281 104.395 0.363281 103.242-0.359375 102.445-1.80469L102.445 4.67578 99.4453 4.67578 99.4453-13.125ZM102.445-8.83594 102.445-4.17188C103.078-2.70312 103.965-1.96875 105.105-1.96875 106.012-1.96875 106.719-2.38672 107.227-3.22266 107.719-4.01953 107.965-5.12891 107.965-6.55078 107.965-8.16016 107.672-9.35547 107.086-10.1367 106.625-10.7539 106.023-11.0625 105.281-11.0625 104.039-11.0625 103.094-10.3203 102.445-8.83594ZM117.018-13.125 117.018-11.1797C117.932-12.6719 119.163-13.418 120.71-13.418 122.311-13.418 123.565-12.7734 124.471-11.4844 125.307-10.2812 125.725-8.66016 125.725-6.62109 125.725-4.29297 125.155-2.48828 124.014-1.20703 123.085-0.160156 121.936 0.363281 120.569 0.363281 119.061 0.363281 117.909-0.359375 117.112-1.80469L117.112 4.67578 114.112 4.67578 114.112-13.125ZM117.112-8.83594 117.112-4.17188C117.745-2.70312 118.632-1.96875 119.772-1.96875 120.678-1.96875 121.385-2.38672 121.893-3.22266 122.385-4.01953 122.632-5.12891 122.632-6.55078 122.632-8.16016 122.339-9.35547 121.753-10.1367 121.292-10.7539 120.69-11.0625 119.948-11.0625 118.706-11.0625 117.76-10.3203 117.112-8.83594ZM139.841-5.88281 130.935-5.88281C130.951-4.50781 131.271-3.45312 131.896-2.71875 132.466-2.05469 133.251-1.72266 134.251-1.72266 135.665-1.72266 136.591-2.55859 137.029-4.23047L139.771-3.43359C138.943-0.886719 137.091 0.386719 134.216 0.386719 132.115 0.386719 130.517-0.292969 129.423-1.65234 128.462-2.83984 127.982-4.44141 127.982-6.45703 127.982-8.73828 128.607-10.5117 129.857-11.7773 130.927-12.8711 132.294-13.418 133.958-13.418 135.818-13.418 137.286-12.7422 138.365-11.3906 139.349-10.1641 139.841-8.53516 139.841-6.50391ZM136.888-7.875C136.74-10.1797 135.779-11.332 134.005-11.332 133.044-11.332 132.298-10.9805 131.767-10.2773 131.314-9.67578 131.052-8.875 130.982-7.875ZM145.875-13.125 145.875-10.8164C146.453-11.6758 147.141-12.3359 147.938-12.7969 148.664-13.2109 149.418-13.418 150.199-13.418 151.395-13.418 152.336-13.0273 153.023-12.2461 153.648-11.543 153.961-10.6133 153.961-9.45703L153.961 0.046875 150.867 0.046875 150.867-8.61328C150.867-10.0898 150.258-10.8281 149.039-10.8281 148.477-10.8281 147.898-10.6016 147.305-10.1484 146.797-9.75 146.352-9.23047 145.969-8.58984L145.969 0.046875 142.945 0.046875 142.945-13.125Z" fill="#FF0000" transform="translate(17.1321 33)"/></g></g><text fill="#FF0000" font-family="Yu Gothic,Yu Gothic_MSFontService,sans-serif" font-weight="700" font-size="24" transform="translate(626.947 536)">Can’t happen</text><g clip-path="url(#clip13)" filter="url(#fx2)" transform="translate(479 502)"><g clip-path="url(#clip14)"><path d="M5.49609-18.5742 5.49609 0.046875 2.22656 0.046875 2.22656-18.5742ZM20.9674-14.9531 20.7799-12.5273C20.1081-12.5273 19.5964-12.4687 19.2448-12.3516 18.9714-12.2578 18.6979-12.0898 18.4245-11.8477 19.1432-11.1055 19.5026-10.2266 19.5026-9.21094 19.5026-7.77344 18.9557-6.66016 17.862-5.87109 16.9401-5.19922 15.7604-4.86328 14.3229-4.86328 13.7135-4.86328 13.1432-4.9375 12.612-5.08594 11.9714-4.76562 11.651-4.38281 11.651-3.9375 11.651-3.625 11.7839-3.40234 12.0495-3.26953 12.3151-3.13672 12.7917-3.03906 13.4792-2.97656L16.4557-2.73047C18.2214-2.55859 19.4596-2.15234 20.1706-1.51172 20.7331-0.988281 21.0143-0.257812 21.0143 0.679688 21.0143 1.95312 20.3698 2.95703 19.0807 3.69141 17.901 4.35547 16.3385 4.6875 14.3932 4.6875 12.3932 4.6875 10.862 4.35547 9.79948 3.69141 8.90885 3.12891 8.46354 2.39453 8.46354 1.48828 8.46354 0.363281 9.27214-0.492188 10.8893-1.07812 9.65495-1.35156 9.03776-1.98438 9.03776-2.97656 9.03776-3.95312 9.70964-4.86328 11.0534-5.70703 9.80339-6.50391 9.17839-7.66406 9.17839-9.1875 9.17839-10.5469 9.72526-11.6172 10.819-12.3984 11.7487-13.0781 12.9245-13.418 14.3464-13.418 15.4323-13.418 16.3659-13.207 17.1471-12.7852 17.6081-13.6211 18.1549-14.1992 18.7878-14.5195 19.3424-14.8086 20.069-14.9531 20.9674-14.9531ZM14.3346-11.6367C13.5924-11.6367 12.9948-11.3945 12.5417-10.9102 12.1432-10.4727 11.944-9.91406 11.944-9.23438 11.944-8.35156 12.1979-7.67969 12.7057-7.21875 13.1276-6.83594 13.6706-6.64453 14.3346-6.64453 15.1003-6.64453 15.7018-6.89062 16.1393-7.38281 16.5378-7.84375 16.737-8.45312 16.737-9.21094 16.737-10.0078 16.4753-10.6328 15.9518-11.0859 15.5221-11.4531 14.9831-11.6367 14.3346-11.6367ZM12.7057-0.714844C11.526-0.339844 10.9362 0.257812 10.9362 1.07812 10.9362 1.6875 11.3112 2.15625 12.0612 2.48438 12.7018 2.76562 13.5339 2.90625 14.5573 2.90625 15.8698 2.90625 16.8737 2.71094 17.569 2.32031 18.1237 2.00781 18.401 1.62109 18.401 1.16016 18.401 0.660156 18.2214 0.300781 17.862 0.0820312 17.5026-0.128906 16.8737-0.28125 15.9753-0.375ZM26.5417-13.125 26.5417-10.8164C27.1198-11.6758 27.8073-12.3359 28.6042-12.7969 29.3307-13.2109 30.0846-13.418 30.8659-13.418 32.0612-13.418 33.0026-13.0273 33.6901-12.2461 34.3151-11.543 34.6276-10.6133 34.6276-9.45703L34.6276 0.046875 31.5339 0.046875 31.5339-8.61328C31.5339-10.0898 30.9245-10.8281 29.7057-10.8281 29.1432-10.8281 28.5651-10.6016 27.9714-10.1484 27.4635-9.75 27.0182-9.23047 26.6354-8.58984L26.6354 0.046875 23.612 0.046875 23.612-13.125ZM43.625-13.418C45.5469-13.418 47.0508-12.7266 48.1367-11.3438 49.0977-10.1172 49.5781-8.51953 49.5781-6.55078 49.5781-4.27734 48.9609-2.50781 47.7266-1.24219 46.6641-0.15625 45.2891 0.386719 43.6016 0.386719 41.6641 0.386719 40.1562-0.304688 39.0781-1.6875 38.125-2.90625 37.6484-4.50391 37.6484-6.48047 37.6484-8.74609 38.2695-10.5156 39.5117-11.7891 40.582-12.875 41.9531-13.418 43.625-13.418ZM43.625-11.2383C41.7031-11.2383 40.7422-9.66797 40.7422-6.52734 40.7422-3.37109 41.6953-1.79297 43.6016-1.79297 45.5234-1.79297 46.4844-3.37109 46.4844-6.52734 46.4844-9.66797 45.5312-11.2383 43.625-11.2383ZM59.526-13.418 59.3268-10.582C57.6471-10.582 56.401-9.46875 55.5885-7.24219L55.5885 0.046875 52.612 0.046875 52.612-13.125 55.4479-13.125 55.4479-9.89062C56.2995-12.2422 57.6589-13.418 59.526-13.418ZM73.0078-5.88281 64.1016-5.88281C64.1172-4.50781 64.4375-3.45312 65.0625-2.71875 65.6328-2.05469 66.418-1.72266 67.418-1.72266 68.832-1.72266 69.7578-2.55859 70.1953-4.23047L72.9375-3.43359C72.1094-0.886719 70.2578 0.386719 67.3828 0.386719 65.2812 0.386719 63.6836-0.292969 62.5898-1.65234 61.6289-2.83984 61.1484-4.44141 61.1484-6.45703 61.1484-8.73828 61.7734-10.5117 63.0234-11.7773 64.0938-12.8711 65.4609-13.418 67.125-13.418 68.9844-13.418 70.4531-12.7422 71.5312-11.3906 72.5156-10.1641 73.0078-8.53516 73.0078-6.50391ZM70.0547-7.875C69.9062-10.1797 68.9453-11.332 67.1719-11.332 66.2109-11.332 65.4648-10.9805 64.9336-10.2773 64.4805-9.67578 64.2188-8.875 64.1484-7.875Z" fill="#70AD47" transform="translate(17.2186 32)"/></g></g><text fill="#70AD47" font-family="Yu Gothic,Yu Gothic_MSFontService,sans-serif" font-weight="700" font-size="24" transform="translate(495.034 533)">Ignore</text><g clip-path="url(#clip15)" filter="url(#fx3)" transform="translate(506 233)"><g clip-path="url(#clip16)"><path d="M14.5195-18.5742 14.5195-16.0078 5.46094-16.0078 5.46094-11.0859 12.3047-11.0859 12.3047-8.51953 5.46094-8.51953 5.46094-2.51953 14.707-2.51953 14.707 0.046875 2.22656 0.046875 2.22656-18.5742ZM27.793-13.125 23.6562 0.046875 20.082 0.046875 16.0039-13.125 19.2383-13.125 20.6094-7.62891C20.7891-6.91797 21.0039-6.01172 21.2539-4.91016 21.5273-3.72266 21.7148-2.91797 21.8164-2.49609L22.0977-2.49609C22.2383-3.02734 22.4688-3.94531 22.7891-5.25 23.0391-6.25 23.25-7.06641 23.4219-7.69922L24.8398-13.125ZM41.3411-5.88281 32.4349-5.88281C32.4505-4.50781 32.7708-3.45312 33.3958-2.71875 33.9661-2.05469 34.7513-1.72266 35.7513-1.72266 37.1654-1.72266 38.0911-2.55859 38.5286-4.23047L41.2708-3.43359C40.4427-0.886719 38.5911 0.386719 35.7161 0.386719 33.6146 0.386719 32.0169-0.292969 30.9232-1.65234 29.9622-2.83984 29.4818-4.44141 29.4818-6.45703 29.4818-8.73828 30.1068-10.5117 31.3568-11.7773 32.4271-12.8711 33.7943-13.418 35.4583-13.418 37.3177-13.418 38.7865-12.7422 39.8646-11.3906 40.849-10.1641 41.3411-8.53516 41.3411-6.50391ZM38.388-7.875C38.2396-10.1797 37.2786-11.332 35.5052-11.332 34.5443-11.332 33.7982-10.9805 33.2669-10.2773 32.8138-9.67578 32.5521-8.875 32.4818-7.875ZM47.375-13.125 47.375-10.8164C47.9531-11.6758 48.6406-12.3359 49.4375-12.7969 50.1641-13.2109 50.918-13.418 51.6992-13.418 52.8945-13.418 53.8359-13.0273 54.5234-12.2461 55.1484-11.543 55.4609-10.6133 55.4609-9.45703L55.4609 0.046875 52.3672 0.046875 52.3672-8.61328C52.3672-10.0898 51.7578-10.8281 50.5391-10.8281 49.9766-10.8281 49.3984-10.6016 48.8047-10.1484 48.2969-9.75 47.8516-9.23047 47.4688-8.58984L47.4688 0.046875 44.4453 0.046875 44.4453-13.125ZM62.8763-17.4258 62.8763-13.125 65.8294-13.125 65.8294-10.9219 62.8763-10.9219 62.8763-3.69141C62.8763-2.42578 63.4193-1.79297 64.5052-1.79297 65.0911-1.79297 65.6029-1.84375 66.0404-1.94531L65.9232 0.210938C65.2591 0.3125 64.474 0.363281 63.5677 0.363281 62.2318 0.363281 61.2708 0.0429687 60.6849-0.597656 60.1615-1.16797 59.8997-2.01562 59.8997-3.14062L59.8997-10.9219 57.931-10.9219 57.931-13.125 59.8997-13.125 59.8997-16.7461Z" fill="#ED7D31" transform="translate(17.3915 33)"/></g></g><text fill="#ED7D31" font-family="Yu Gothic,Yu Gothic_MSFontService,sans-serif" font-weight="700" font-size="24" transform="translate(522.207 264)">Event</text></g></svg>