<svg width="608" height="671" xmlns="http://www.w3.org/2000/svg" xmlns:xlink="http://www.w3.org/1999/xlink" overflow="hidden"><defs><clipPath id="clip0"><rect x="161" y="72" width="608" height="671"/></clipPath></defs><g clip-path="url(#clip0)" transform="translate(-161 -72)"><rect x="162.5" y="73.5001" width="605" height="668" stroke="#D9D9D9" stroke-width="1.33333" stroke-miterlimit="8" fill="none"/><rect x="229.5" y="209.5" width="159" height="58" stroke="#000000" stroke-width="1.33333" stroke-miterlimit="8" fill="#FFFFFF"/><text font-family="Yu Gothic,Yu Gothic_MSFontService,sans-serif" font-weight="400" font-size="11" transform="translate(294.569 236)">Class<tspan font-size="11" x="-56.1667" y="13">Name:strin</tspan><tspan font-size="11" x="-1.83334" y="13">g</tspan></text><rect x="545.5" y="328.5" width="119" height="78" stroke="#000000" stroke-width="1.33333" stroke-miterlimit="8" fill="#FFFFFF"/><text font-family="Yu Gothic,Yu Gothic_MSFontService,sans-serif" font-weight="400" font-size="11" transform="translate(573.656 358)">Relationship<tspan font-size="11" x="-19.1667" y="13">Ref_Id:string</tspan></text><rect x="279.5" y="331.5" width="159" height="57" stroke="#000000" stroke-width="1.33333" stroke-miterlimit="8" fill="#FFFFFF"/><text font-family="Yu Gothic,Yu Gothic_MSFontService,sans-serif" font-weight="400" font-size="11" transform="translate(312.323 357)">Relationship Class<tspan font-size="11" x="-23.9134" y="13">Ref_Id:string</tspan></text><rect x="184.5" y="330.5" width="78" height="58" stroke="#000000" stroke-width="1.33333" stroke-miterlimit="8" fill="#FFFFFF"/><text font-family="Yu Gothic,Yu Gothic_MSFontService,sans-serif" font-weight="400" font-size="11" transform="translate(205.078 356)">Normal <tspan font-size="11" x="4.33333" y="13">Class</tspan></text><path d="M297.5 281.5 305.5 267.5 313.5 281.5Z" stroke="#000000" stroke-width="1.33333" stroke-miterlimit="8" fill="#FFFFFF" fill-rule="evenodd"/><path d="M305.668 281.5 305.668 305.894 223.5 305.894 223.5 330.288" stroke="#000000" stroke-width="0.666667" stroke-miterlimit="8" fill="none" fill-rule="evenodd"/><path d="M0 0 24.7672 0 24.7672 53.0233 49.5344 53.0233" stroke="#000000" stroke-width="0.666667" stroke-miterlimit="8" fill="none" fill-rule="evenodd" transform="matrix(1.83697e-16 1 1 -1.83697e-16 305.5 281.5)"/><rect x="279.5" y="458.5" width="159" height="58" stroke="#000000" stroke-width="1.33333" stroke-miterlimit="8" fill="#FFFFFF"/><text font-family="Yu Gothic,Yu Gothic_MSFontService,sans-serif" font-weight="400" font-size="11" transform="translate(313.576 478)">Relationship Edge<tspan font-size="11" x="-25.1667" y="13">Mult:Multiplicity</tspan><tspan font-size="11" x="-25.1667" y="25">Phrase:strin</tspan><tspan font-size="11" x="34.5" y="25">g</tspan></text><rect x="203.5" y="559.5" width="105" height="58" stroke="#000000" stroke-width="1.33333" stroke-miterlimit="8" fill="#FFFFFF"/><text font-family="Yu Gothic,Yu Gothic_MSFontService,sans-serif" font-weight="400" font-size="11" transform="translate(223.839 585)">Ref Attribute<tspan font-size="11" x="-11.3333" y="13">Nam</tspan><tspan font-size="11" x="11.8333" y="13">e</tspan>:string</text><path d="M307.029 516.5 307.029 538.006 256.5 538.006 256.5 559.511" stroke="#000000" stroke-width="0.666667" stroke-miterlimit="8" fill="none" fill-rule="evenodd"/><rect x="475.5" y="209.5" width="158" height="58" stroke="#000000" stroke-width="1.33333" stroke-miterlimit="8" fill="#FFFFFF"/><text font-family="Yu Gothic,Yu Gothic_MSFontService,sans-serif" font-weight="400" font-size="11" transform="translate(532.296 236)">Attribute<tspan font-size="11" x="-48" y="13">Nam</tspan><tspan font-size="11" x="-24.8333" y="13">e</tspan>:string</text><path d="M388.5 238.5 475.641 238.5" stroke="#000000" stroke-width="0.666667" stroke-miterlimit="8" fill="none" fill-rule="evenodd"/><rect x="475.5" y="98.5001" width="158" height="58" stroke="#000000" stroke-width="1.33333" stroke-miterlimit="8" fill="#FFFFFF"/><text font-family="Yu Gothic,Yu Gothic_MSFontService,sans-serif" font-weight="400" font-size="11" transform="translate(528.543 118)">Data<tspan font-size="11" x="26.8333" y="0">Typ</tspan><tspan font-size="11" x="45" y="0">e</tspan><tspan font-size="11" x="-44.2467" y="13">Nam</tspan><tspan font-size="11" x="-21.08" y="13">e</tspan>:string<tspan font-size="11" x="-44.2467" y="25">CodeTypeName:strin</tspan><tspan font-size="11" x="59.7533" y="25">g</tspan></text><path d="M554.5 210.045 554.5 156.5" stroke="#000000" stroke-width="0.666667" stroke-miterlimit="8" fill="none" fill-rule="evenodd"/><rect x="545.5" y="447.5" width="119" height="39" stroke="#000000" stroke-width="1.33333" stroke-miterlimit="8" fill="#FFFFFF"/><text font-family="Yu Gothic,Yu Gothic_MSFontService,sans-serif" font-weight="400" font-size="11" transform="translate(556.539 470)">Binary Relationship</text><rect x="545.5" y="526.5" width="119" height="39" stroke="#000000" stroke-width="1.33333" stroke-miterlimit="8" fill="#FFFFFF"/><text font-family="Yu Gothic,Yu Gothic_MSFontService,sans-serif" font-weight="400" font-size="11" transform="translate(579.039 543)">Super Sub <tspan font-size="11" x="-5.33331" y="13">Relationship</tspan></text><path d="M0 0 0.000104987 69.6768" stroke="#000000" stroke-width="0.666667" stroke-miterlimit="8" fill="none" fill-rule="evenodd" transform="matrix(1 0 0 -1 306.5 458.177)"/><path d="M0 0 0.000104987 69.6768" stroke="#000000" stroke-width="0.666667" stroke-miterlimit="8" fill="none" fill-rule="evenodd" transform="matrix(1 0 0 -1 410.5 458.177)"/><path d="M229.5 238.5 170.833 238.5 170.833 487.126 279.507 487.126" stroke="#000000" stroke-width="0.666667" stroke-miterlimit="8" fill="none" fill-rule="evenodd"/><rect x="545.5" y="594.5" width="119" height="39" stroke="#000000" stroke-width="1.33333" stroke-miterlimit="8" fill="#FFFFFF"/><text font-family="Yu Gothic,Yu Gothic_MSFontService,sans-serif" font-weight="400" font-size="11" transform="translate(558.622 610)">Relationship Class <tspan font-size="11" x="15.0867" y="13">Relationship</tspan></text><path d="M678.5 375.5 664.5 367.5 678.5 359.5Z" stroke="#000000" stroke-width="1.33333" stroke-miterlimit="8" fill="#FFFFFF" fill-rule="evenodd"/><path d="M0 0-25.1088 0-25.1088 99.9412 13.8593 99.9412" stroke="#000000" stroke-width="0.666667" stroke-miterlimit="8" fill="none" fill-rule="evenodd" transform="matrix(-1 0 0 1 678.359 367.5)"/><path d="M0 0-25.1086 0-25.1086 178.931 13.8594 178.931" stroke="#000000" stroke-width="0.666667" stroke-miterlimit="8" fill="none" fill-rule="evenodd" transform="matrix(-1 0 0 1 678.359 367.5)"/><path d="M0 0-25.1087 0-25.1087 246.203 13.8594 246.203" stroke="#000000" stroke-width="0.666667" stroke-miterlimit="8" fill="none" fill-rule="evenodd" transform="matrix(-1 0 0 1 678.359 367.5)"/><path d="M0 0 82.5621 0 82.5621 118.828 108.236 118.828" stroke="#000000" stroke-width="0.666667" stroke-miterlimit="8" fill="none" fill-rule="evenodd" transform="matrix(-1 1.22465e-16 1.22465e-16 1 546.736 350.5)"/><path d="M0 0 48.785 0 48.785 100.434 108.235 100.434" stroke="#000000" stroke-width="0.666667" stroke-miterlimit="8" fill="none" fill-rule="evenodd" transform="matrix(-1 1.22465e-16 1.22465e-16 1 546.736 387.5)"/><path d="M545.827 545.975 492.163 545.975 492.163 505.5 438.5 505.5" stroke="#000000" stroke-width="0.666667" stroke-miterlimit="8" fill="none" fill-rule="evenodd"/><path d="M0 0-24.0006 0-24.0006-133.654 324.95-133.654 324.95 194.609 300.949 194.609" stroke="#000000" stroke-width="0.666667" stroke-miterlimit="8" fill="none" fill-rule="evenodd" transform="matrix(-6.12323e-17 -1 -1 6.12323e-17 605.11 633.45)"/><path d="M545.089 602.87 410.5 602.87 410.5 516.5" stroke="#000000" stroke-width="0.666667" stroke-miterlimit="8" fill="none" fill-rule="evenodd"/><path d="M545.203 623.75 358.5 623.75 358.5 516.5" stroke="#000000" stroke-width="0.666667" stroke-miterlimit="8" fill="none" fill-rule="evenodd"/><path d="M0 0-127.113 0-127.113 432.526 377.907 432.526 377.907 378.304" stroke="#000000" stroke-width="0.666667" stroke-miterlimit="8" fill="none" fill-rule="evenodd" transform="matrix(-1 0 0 1 634.407 238.5)"/><text font-family="Yu Gothic,Yu Gothic_MSFontService,sans-serif" font-weight="400" font-size="11" transform="translate(542.675 204)">*<tspan font-size="11" x="-83.3715" y="50">*</tspan><tspan font-size="11" x="-117.3" y="26">attribute</tspan>s<tspan font-size="11" x="-281.214" y="431">*</tspan></text><path d="M0 0-24 0-24 51.262 8.01512 51.262 8.01512 27.2619" stroke="#000000" stroke-width="0.666667" stroke-miterlimit="8" fill="none" fill-rule="evenodd" transform="matrix(1.83697e-16 1 1 -1.83697e-16 606.5 210.5)"/><text font-family="Yu Gothic,Yu Gothic_MSFontService,sans-serif" font-weight="400" font-size="11" transform="translate(643.049 234)">0..1<tspan font-size="11" x="-54.4031" y="-31">0..1</tspan><tspan font-size="11" x="27.1412" y="-13">predecessor</tspan><tspan font-size="11" x="-58.1758" y="-50">successor</tspan><tspan font-size="11" x="-121.903" y="111">0..</tspan><tspan font-size="11" x="-110.236" y="111">1</tspan><tspan font-size="11" x="-197.954" y="245">From</tspan><tspan font-size="11" x="-196.69" y="267">To</tspan><tspan font-size="11" x="-185.056" y="285">Sub</tspan><tspan font-size="11" x="-200.869" y="226">0..1</tspan><tspan font-size="11" x="-201.623" y="287">*</tspan><tspan font-size="11" x="-383.944" y="326">*</tspan><tspan font-size="11" x="-463.18" y="318">Ref attributes</tspan><tspan font-size="11" x="-377.079" y="253">*</tspan><tspan font-size="11" x="-309.535" y="297">One </tspan><tspan font-size="11" x="-309.535" y="310">Side</tspan><tspan font-size="11" x="-248.057" y="297">Other </tspan><tspan font-size="11" x="-248.057" y="310">Side</tspan><tspan font-size="11" x="-121.903" y="147">0..</tspan><tspan font-size="11" x="-110.236" y="147">1</tspan><tspan font-size="11" x="-127.48" y="306">0..</tspan><tspan font-size="11" x="-115.813" y="306">1</tspan><tspan font-size="11" x="-129.235" y="361">0..</tspan><tspan font-size="11" x="-117.568" y="361">1</tspan><tspan font-size="11" x="-127.48" y="405">0..</tspan><tspan font-size="11" x="-115.813" y="405">1</tspan><tspan font-size="11" x="-327.629" y="63">R1</tspan><tspan font-size="11" x="37.2881" y="121">R2</tspan><tspan font-size="11" x="-227.039" y="20">R3</tspan><tspan font-size="11" x="21.9948" y="-35">R4</tspan><tspan font-size="11" x="-105.314" y="-51">R5</tspan><tspan font-size="11" x="-155.88" y="109">R6</tspan><tspan font-size="11" x="-138.368" y="212">R7</tspan><tspan font-size="11" x="-332.502" y="194">R8</tspan><tspan font-size="11" x="-363.704" y="199">One </tspan><tspan font-size="11" x="-363.704" y="212">Side</tspan><tspan font-size="11" x="-264.868" y="204">Other </tspan><tspan font-size="11" x="-264.868" y="217">Side</tspan><tspan font-size="11" x="-331.331" y="170">0..1</tspan><tspan font-size="11" x="-224.648" y="168">0..1</tspan><tspan font-size="11" x="-251.912" y="192">R9</tspan><tspan font-size="11" x="-172.701" y="305">R10</tspan><tspan font-size="11" x="-199.773" y="360">R11</tspan><tspan font-size="11" x="-275.749" y="381">R12</tspan><tspan font-size="11" x="-452.948" y="245">R13</tspan><tspan font-size="11" x="-371.739" y="302">R14</tspan><tspan font-size="11" x="-410.527" y="419">R15</tspan><tspan font-size="13" x="-280.336" y="488">※</tspan><tspan font-size="13" x="-263.17" y="488">多重度が</tspan><tspan font-size="13" x="-209.836" y="488">’1’</tspan><tspan font-size="13" x="-195.503" y="488">の場合は省略</tspan></text></g></svg>