<svg width="607" height="294" xmlns="http://www.w3.org/2000/svg" xmlns:xlink="http://www.w3.org/1999/xlink" overflow="hidden"><defs><clipPath id="clip0"><rect x="82" y="87" width="607" height="294"/></clipPath><clipPath id="clip1"><rect x="131" y="147" width="123" height="185"/></clipPath><clipPath id="clip2"><rect x="131" y="147" width="123" height="185"/></clipPath><clipPath id="clip3"><rect x="131" y="147" width="246" height="219"/></clipPath><clipPath id="clip4"><rect x="131" y="147" width="246" height="219"/></clipPath></defs><g clip-path="url(#clip0)" transform="translate(-82 -87)"><path d="M272.5 237 273.313 237 273.313 250 272.5 250ZM274.125 237 275.75 237 275.75 250 274.125 250ZM276.562 237 627.5 237 627.5 230.5 640.5 243.5 627.5 256.5 627.5 250 276.562 250Z" stroke="#2F528F" stroke-width="1.33333" stroke-miterlimit="8" stroke-opacity="0.501961" fill="#4472C4" fill-rule="evenodd" fill-opacity="0.501961"/><rect x="83.5001" y="88.5001" width="605" height="292" stroke="#D9D9D9" stroke-width="1.33333" stroke-miterlimit="8" fill="none"/><path d="M131.5 134.5 269.5 134.5 269.5 320.5 246.5 343.5 131.5 343.5Z" fill="#FFFFFF" fill-rule="evenodd"/><path d="M246.5 343.5 251.1 325.1 269.5 320.5Z" fill="#CDCDCD" fill-rule="evenodd"/><path d="M246.5 343.5 251.1 325.1 269.5 320.5 246.5 343.5 131.5 343.5 131.5 134.5 269.5 134.5 269.5 320.5" stroke="#000000" stroke-width="1.33333" stroke-miterlimit="8" fill="none" fill-rule="evenodd"/><g clip-path="url(#clip1)"><g clip-path="url(#clip2)"><g clip-path="url(#clip3)"><g clip-path="url(#clip4)"><text font-family="Yu Gothic,Yu Gothic_MSFontService,sans-serif" font-weight="400" font-size="11" transform="matrix(0.588517 0 0 0.587506 137.217 156)">CREATE TABLE O<tspan font-size="11" x="92" y="0">_</tspan><tspan font-size="11" x="98" y="0">ATTR </tspan>(<tspan font-size="11" x="12" y="11.9148">Attr</tspan><tspan font-size="11" x="31" y="11.9148">_</tspan><tspan font-size="11" x="37" y="11.9148">ID</tspan><tspan font-size="11" x="50" y="11.9148">UNIQUE</tspan><tspan font-size="11" x="92" y="11.9148">_</tspan><tspan font-size="11" x="98" y="11.9148">ID</tspan><tspan font-size="11" x="109" y="11.9148">,</tspan><tspan font-size="11" x="12" y="25.5317">Obj</tspan><tspan font-size="11" x="29" y="25.5317">_</tspan><tspan font-size="11" x="35" y="25.5317">ID</tspan><tspan font-size="11" x="48.6667" y="25.5317">UNIQUE</tspan><tspan font-size="11" x="90.6667" y="25.5317">_</tspan>ID<tspan font-size="11" x="107.667" y="25.5317">,</tspan><tspan font-size="11" x="12" y="37.4464">PAttr</tspan><tspan font-size="11" x="38" y="37.4464">_</tspan><tspan font-size="11" x="44" y="37.4464">ID</tspan><tspan font-size="11" x="57" y="37.4464">UNIQUE</tspan><tspan font-size="11" x="99" y="37.4464">_</tspan><tspan font-size="11" x="105" y="37.4464">ID</tspan><tspan font-size="11" x="116" y="37.4464">,</tspan><tspan font-size="11" x="12" y="51.0633">Name STRING</tspan><tspan font-size="11" x="84" y="51.0633">,</tspan><tspan font-size="11" x="12" y="62.9781">Descrip</tspan><tspan font-size="11" x="52.8333" y="62.9781">STRING</tspan><tspan font-size="11" x="92.8333" y="62.9781">,</tspan><tspan font-size="11" x="12" y="76.595">Prefix STRING</tspan><tspan font-size="11" x="84" y="76.595">,</tspan><tspan font-size="11" x="12" y="88.5098">Root</tspan><tspan font-size="11" x="35" y="88.5098">_</tspan><tspan font-size="11" x="41" y="88.5098">Nam</tspan><tspan font-size="11" x="66.5" y="88.5098">STRING</tspan><tspan font-size="11" x="106.5" y="88.5098">,</tspan><tspan font-size="11" x="12" y="102.127">Pfx</tspan><tspan font-size="11" x="28" y="102.127">_</tspan><tspan font-size="11" x="34" y="102.127">Mode</tspan><tspan font-size="11" x="64.1667" y="102.127">INTEGER</tspan><tspan font-size="11" x="111.167" y="102.127">,</tspan><tspan font-size="11" x="12" y="114.041">DT</tspan><tspan font-size="11" x="27" y="114.041">_</tspan><tspan font-size="11" x="33" y="114.041">ID UNIQUE</tspan>_<tspan font-size="11" x="95" y="114.041">ID</tspan><tspan font-size="11" x="106" y="114.041">,</tspan><tspan font-size="11" x="12" y="127.658">Dimensions STRING</tspan><tspan font-size="11" x="114" y="127.658">,</tspan><tspan font-size="11" x="12" y="141.275">DefaultValue</tspan><tspan font-size="11" x="79.5" y="141.275">STRING</tspan><tspan font-size="11" x="119.5" y="141.275">)</tspan>;<tspan font-size="11" x="0" y="165.105">CREATE ROP REF</tspan><tspan font-size="11" x="92" y="165.105">_</tspan><tspan font-size="11" x="98" y="165.105">ID R</tspan><tspan font-size="11" x="119" y="165.105">102 </tspan>FROM MC O_<tspan font-size="11" x="210" y="165.105">ATTR </tspan>(Obj_ID) <tspan font-size="11" x="286" y="165.105">TO </tspan><tspan font-size="11" x="304" y="165.105">1 </tspan><tspan font-size="11" x="313" y="165.105">O</tspan><tspan font-size="11" x="321" y="165.105">_</tspan><tspan font-size="11" x="327" y="165.105">OBJ </tspan>(<tspan font-size="11" x="346.833" y="165.105">Obj</tspan>_ID<tspan font-size="11" x="380.5" y="165.105">)</tspan>;<tspan font-size="11" x="0" y="192.339">INSERT </tspan><tspan font-size="11" x="41.3333" y="192.339">INTO </tspan><tspan font-size="11" x="70" y="192.339">O</tspan><tspan font-size="11" x="78" y="192.339">_</tspan><tspan font-size="11" x="84" y="192.339">ATTR</tspan><tspan font-size="11" x="96" y="204.253">VALUES </tspan>("828816<tspan font-size="11" x="186" y="204.253">aa</tspan><tspan font-size="11" x="198" y="204.253">-</tspan><tspan font-size="11" x="201.667" y="204.253">04</tspan><tspan font-size="11" x="213.667" y="204.253">de</tspan><tspan font-size="11" x="225.833" y="204.253">-</tspan><tspan font-size="11" x="230.5" y="204.253">4</tspan><tspan font-size="11" x="236.5" y="204.253">ee</tspan>4<tspan font-size="11" x="254.5" y="204.253">-</tspan>94b1<tspan font-size="11" x="283.333" y="204.253">-</tspan><tspan font-size="11" x="288" y="204.253">38</tspan><tspan font-size="11" x="300" y="204.253">b</tspan>6c0d917<tspan font-size="11" x="348" y="204.253">c</tspan><tspan font-size="11" x="354" y="204.253">9</tspan>",<tspan font-size="11" x="96" y="216.168">"</tspan><tspan font-size="11" x="100" y="216.168">86</tspan><tspan font-size="11" x="112" y="216.168">c</tspan>75786<tspan font-size="11" x="147.833" y="216.168">-</tspan><tspan font-size="11" x="152.5" y="216.168">6</tspan>b44<tspan font-size="11" x="176.667" y="216.168">-</tspan><tspan font-size="11" x="181.333" y="216.168">4</tspan><tspan font-size="11" x="187.333" y="216.168">c</tspan>43<tspan font-size="11" x="205.333" y="216.168">-</tspan><tspan font-size="11" x="209.5" y="216.168">ac</tspan>9<tspan font-size="11" x="227.5" y="216.168">b</tspan><tspan font-size="11" x="233.167" y="216.168">-</tspan><tspan font-size="11" x="237.833" y="216.168">420</tspan><tspan font-size="11" x="255.833" y="216.168">c</tspan><tspan font-size="11" x="261.833" y="216.168">0704</tspan>c176<tspan font-size="11" x="309.833" y="216.168">"</tspan><tspan font-size="11" x="313.167" y="216.168">,</tspan><tspan font-size="11" x="96" y="229.785">"</tspan><tspan font-size="11" x="100" y="229.785">00000000</tspan><tspan font-size="11" x="148.333" y="229.785">-</tspan><tspan font-size="11" x="153" y="229.785">0000</tspan><tspan font-size="11" x="177" y="229.785">-</tspan><tspan font-size="11" x="181.667" y="229.785">0000</tspan><tspan font-size="11" x="205.667" y="229.785">-</tspan><tspan font-size="11" x="210.333" y="229.785">0000</tspan><tspan font-size="11" x="234.333" y="229.785">-</tspan><tspan font-size="11" x="239" y="229.785">000000000000</tspan><tspan font-size="11" x="311" y="229.785">"</tspan><tspan font-size="11" x="315.333" y="229.785">,</tspan><tspan font-size="11" x="96" y="243.402">'</tspan><tspan font-size="11" x="98" y="243.402">DoorID</tspan><tspan font-size="11" x="133.333" y="243.402">’</tspan><tspan font-size="11" x="136.167" y="243.402">,</tspan><tspan font-size="11" x="96" y="255.317">‘’</tspan><tspan font-size="11" x="101.667" y="255.317">,</tspan><tspan font-size="11" x="96" y="268.934">‘’</tspan><tspan font-size="11" x="101.667" y="268.934">,</tspan><tspan font-size="11" x="96" y="280.848">'</tspan><tspan font-size="11" x="98" y="280.848">DoorID</tspan><tspan font-size="11" x="133.333" y="280.848">’</tspan><tspan font-size="11" x="136.167" y="280.848">,</tspan><tspan font-size="11" x="96" y="294.465">0</tspan><tspan font-size="11" x="102" y="294.465">,</tspan><tspan font-size="11" x="96" y="306.38">"</tspan><tspan font-size="11" x="100" y="306.38">ba</tspan><tspan font-size="11" x="112" y="306.38">5</tspan>eda7a<tspan font-size="11" x="148.667" y="306.38">-</tspan><tspan font-size="11" x="153.333" y="306.38">def</tspan><tspan font-size="11" x="169.333" y="306.38">5</tspan><tspan font-size="11" x="175.167" y="306.38">-</tspan><tspan font-size="11" x="179.833" y="306.38">0000</tspan><tspan font-size="11" x="203.833" y="306.38">-</tspan><tspan font-size="11" x="208.5" y="306.38">0000</tspan><tspan font-size="11" x="232.5" y="306.38">-</tspan><tspan font-size="11" x="237.167" y="306.38">000000000005</tspan><tspan font-size="11" x="309.167" y="306.38">"</tspan>,<tspan font-size="11" x="96" y="319.997">‘’</tspan><tspan font-size="11" x="101.667" y="319.997">,</tspan><tspan font-size="11" x="96" y="331.912">‘’</tspan><tspan font-size="11" x="0" y="345.529">)</tspan><tspan font-size="11" x="4.16668" y="345.529">;</tspan></text></g></g></g></g><path d="M311.5 225C311.5 220.306 315.306 216.5 320 216.5L403 216.5C407.694 216.5 411.5 220.306 411.5 225L411.5 259C411.5 263.694 407.694 267.5 403 267.5L320 267.5C315.306 267.5 311.5 263.694 311.5 259Z" stroke="#000000" stroke-width="1.33333" stroke-miterlimit="8" fill="#FFFFFF" fill-rule="evenodd"/><text font-family="Yu Gothic,Yu Gothic_MSFontService,sans-serif" font-weight="400" font-size="11" transform="translate(339.41 239)">字句<tspan font-size="11" x="21.3333" y="0">解析</tspan><tspan font-size="11" x="0.746674" y="13">（</tspan><tspan font-size="11" x="11.4133" y="13">LEX</tspan><tspan font-size="11" x="31.2467" y="13">）</tspan></text><path d="M454.5 225C454.5 220.306 458.306 216.5 463 216.5L546 216.5C550.694 216.5 554.5 220.306 554.5 225L554.5 259C554.5 263.694 550.694 267.5 546 267.5L463 267.5C458.306 267.5 454.5 263.694 454.5 259Z" stroke="#000000" stroke-width="1.33333" stroke-miterlimit="8" fill="#FFFFFF" fill-rule="evenodd"/><text font-family="Yu Gothic,Yu Gothic_MSFontService,sans-serif" font-weight="400" font-size="11" transform="translate(482.503 239)">構文<tspan font-size="11" x="21.3333" y="0">解析</tspan><tspan font-size="11" x="-3.66666" y="13">（</tspan><tspan font-size="11" x="7" y="13">YACC</tspan><tspan font-size="11" x="35.6667" y="13">）</tspan></text><text font-family="Yu Gothic,Yu Gothic_MSFontService,sans-serif" font-weight="400" font-size="11" transform="matrix(0.97967 -0.200617 0.200617 0.97967 340.826 170)">CREATE</text><text font-family="Yu Gothic,Yu Gothic_MSFontService,sans-serif" font-weight="400" font-size="11" transform="translate(338.052 203)">TABLE</text><text font-family="Yu Gothic,Yu Gothic_MSFontService,sans-serif" font-weight="400" font-size="11" transform="matrix(0.974115 0.226053 -0.226053 0.974115 385.348 183)">ROP</text><text font-family="Yu Gothic,Yu Gothic_MSFontService,sans-serif" font-weight="400" font-size="11" transform="translate(513.437 188)">CREATE<tspan font-size="11" x="44.5" y="0">TABLE O_ATTR …</tspan><tspan font-size="11" x="0" y="22">CREATE</tspan><tspan font-size="11" x="44.5" y="22">ROP REF_ID R …</tspan></text></g></svg>