<svg width="607" height="360" xmlns="http://www.w3.org/2000/svg" xmlns:xlink="http://www.w3.org/1999/xlink" overflow="hidden"><defs><clipPath id="clip0"><rect x="22" y="24" width="607" height="360"/></clipPath></defs><g clip-path="url(#clip0)" transform="translate(-22 -24)"><rect x="23.5001" y="25.5001" width="605" height="358" stroke="#D9D9D9" stroke-width="1.33333" stroke-miterlimit="8" fill="none"/><path d="M57.5001 75.5001 294.5 75.5001 294.5 155.5 278.5 171.5 57.5001 171.5Z" fill="#FFFFFF" fill-rule="evenodd"/><path d="M278.5 171.5 281.7 158.7 294.5 155.5Z" fill="#CDCDCD" fill-rule="evenodd"/><path d="M278.5 171.5 281.7 158.7 294.5 155.5 278.5 171.5 57.5001 171.5 57.5001 75.5001 294.5 75.5001 294.5 155.5" stroke="#000000" stroke-width="1.33333" stroke-miterlimit="8" fill="none" fill-rule="evenodd"/><text font-family="Yu Gothic,Yu Gothic_MSFontService,sans-serif" font-weight="400" font-size="13" transform="translate(112.764 92)">DomainClassBase.tt</text><path d="M57.5001 191.5 294.5 191.5 294.5 271.5 278.5 287.5 57.5001 287.5Z" fill="#FFFFFF" fill-rule="evenodd"/><path d="M278.5 287.5 281.7 274.7 294.5 271.5Z" fill="#CDCDCD" fill-rule="evenodd"/><path d="M278.5 287.5 281.7 274.7 294.5 271.5 278.5 287.5 57.5001 287.5 57.5001 191.5 294.5 191.5 294.5 271.5" stroke="#000000" stroke-width="1.33333" stroke-miterlimit="8" fill="none" fill-rule="evenodd"/><text font-family="Yu Gothic,Yu Gothic_MSFontService,sans-serif" font-weight="400" font-size="13" transform="translate(85.3468 208)">DomainClassStateMachine.tt<tspan font-size="13" x="-18.9306" y="-69">インスタンス生成削除のログ記録</tspan><tspan font-size="13" x="-18.9306" y="-53">リンク・アンリンクのログ記録</tspan><tspan font-size="13" x="-18.9306" y="47">遷移開始のログ記録</tspan><tspan font-size="13" x="-18.9306" y="63">線移管料</tspan>のログ記録</text><path d="M344.5 145.5 581.5 145.5 581.5 225.5 565.5 241.5 344.5 241.5Z" fill="#FFFFFF" fill-rule="evenodd"/><path d="M565.5 241.5 568.7 228.7 581.5 225.5Z" fill="#CDCDCD" fill-rule="evenodd"/><path d="M565.5 241.5 568.7 228.7 581.5 225.5 565.5 241.5 344.5 241.5 344.5 145.5 581.5 145.5 581.5 225.5" stroke="#000000" stroke-width="1.33333" stroke-miterlimit="8" fill="none" fill-rule="evenodd"/><text font-family="Yu Gothic,Yu Gothic_MSFontService,sans-serif" font-weight="400" font-size="13" transform="translate(431.375 161)">Logging.t<tspan font-size="13" x="56.8333" y="0">t</tspan><tspan font-size="13" x="-78.1807" y="25">インスタンス生成削除のログ記録</tspan><tspan font-size="13" x="-78.1807" y="41">リンク・アンリンクのログ記録</tspan><tspan font-size="13" x="-78.1807" y="57">遷移開始のログ記録</tspan><tspan font-size="13" x="-78.1807" y="73">線移管料のログ記録</tspan></text><path d="M41.5001 129.5C41.5001 125.634 44.6341 122.5 48.5002 122.5L271.5 122.5C275.366 122.5 278.5 125.634 278.5 129.5L278.5 157.5C278.5 161.366 275.366 164.5 271.5 164.5L48.5002 164.5C44.6341 164.5 41.5001 161.366 41.5001 157.5Z" stroke="#FF0000" stroke-width="1.33333" stroke-miterlimit="8" stroke-dasharray="5.33333 4" fill="none" fill-rule="evenodd"/><path d="M41.5001 247.5C41.5001 243.634 44.6341 240.5 48.5002 240.5L271.5 240.5C275.366 240.5 278.5 243.634 278.5 247.5L278.5 275.5C278.5 279.366 275.366 282.5 271.5 282.5L48.5002 282.5C44.6341 282.5 41.5001 279.366 41.5001 275.5Z" stroke="#FF0000" stroke-width="1.33333" stroke-miterlimit="8" stroke-dasharray="5.33333 4" fill="none" fill-rule="evenodd"/><path d="M271.141 143.474 271.972 143.647 269.203 156.936 268.373 156.763ZM272.802 143.82 274.464 144.166 271.695 157.455 270.034 157.109ZM275.294 144.339 344.162 158.685 345.547 152.041 356.068 168.098 340.01 178.619 341.394 171.975 272.526 157.628Z" stroke="#FF0000" stroke-width="1.33333" stroke-miterlimit="8" stroke-opacity="0.501961" fill="#FF0000" fill-rule="evenodd" fill-opacity="0.501961"/><path d="M0 6.78734 0.84837 6.78734 0.84837 20.3619 0 20.3619ZM1.69684 6.78734 3.39367 6.78734 3.39367 20.3619 1.69684 20.3619ZM4.24204 6.78734 74.5888 6.78734 74.5888 0 88.1634 13.5746 74.5888 27.1492 74.5888 20.3619 4.24204 20.3619Z" stroke="#FF0000" stroke-width="1.33333" stroke-miterlimit="8" stroke-opacity="0.501961" fill="#FF0000" fill-rule="evenodd" fill-opacity="0.501961" transform="matrix(0.978983 -0.20394 -0.20394 -0.978983 272.526 263.002)"/><text font-family="Yu Gothic,Yu Gothic_MSFontService,sans-serif" font-weight="400" font-size="13" transform="translate(308.467 114)">コード生成ルールを抽出し、<tspan font-size="13" x="0" y="16">まとめる</tspan><tspan font-size="13" x="-217.529" y="229">ログ生成用情報を供給し、</tspan><tspan font-size="13" x="-197.529" y="245">変換起動の身に変更</tspan></text><path d="M158.25 326.5 158.25 325.281 183.75 325.281 183.75 326.5ZM158.25 324.063 158.25 321.625 183.75 321.625 183.75 324.063ZM158.25 320.406 158.25 307 145.5 307 171 287.5 196.5 307 183.75 307 183.75 320.406Z" stroke="#FF0000" stroke-width="1.33333" stroke-miterlimit="8" stroke-opacity="0.501961" fill="#FF0000" fill-rule="evenodd" fill-opacity="0.501961"/></g></svg>