<svg width="607" height="634" xmlns="http://www.w3.org/2000/svg" xmlns:xlink="http://www.w3.org/1999/xlink" overflow="hidden"><defs><clipPath id="clip0"><rect x="93" y="72" width="607" height="634"/></clipPath></defs><g clip-path="url(#clip0)" transform="translate(-93 -72)"><rect x="207.5" y="91.5001" width="189" height="73" stroke="#000000" stroke-width="1.33333" stroke-miterlimit="8" fill="#FFFFFF"/><text font-family="Yu Gothic,Yu Gothic_MSFontService,sans-serif" font-weight="400" font-size="11" transform="translate(264.31 106)">&lt;&lt; <tspan font-size="11" x="18.3333" y="0">abstract&gt;&gt;</tspan><tspan font-size="11" x="-48.08" y="13">StateMachine</tspan><tspan font-size="11" x="-45.08" y="25">CurrentState</tspan><tspan font-size="11" x="21.42" y="25">: int</tspan><tspan font-style="oblique" font-size="11" x="-45.08" y="38">Receive</tspan><tspan font-style="oblique" font-size="11" x="-6.41333" y="38">d</tspan><tspan font-style="oblique" font-size="11" x="-0.246643" y="38">Event</tspan><tspan font-size="11" x="27.5867" y="38">(</tspan><tspan font-size="11" x="31.7534" y="38">event:EventData</tspan><tspan font-size="11" x="113.587" y="38">) </tspan><tspan font-style="oblique" font-size="11" x="-42.08" y="51">Delete</tspan><tspan font-size="11" x="-9.41333" y="51">(</tspan><tspan font-size="11" x="-5.24664" y="51">)</tspan></text><rect x="378.5" y="191.5" width="285" height="65" stroke="#000000" stroke-width="1.33333" stroke-miterlimit="8" fill="#FFFFFF"/><text font-family="Yu Gothic,Yu Gothic_MSFontService,sans-serif" font-weight="400" font-size="11" transform="translate(481.539 206)">&lt;&lt; <tspan font-size="11" x="18.3333" y="0">interface&gt;&gt;</tspan><tspan font-size="11" x="-94.08" y="13">ITransition</tspan><tspan font-size="11" x="-91.08" y="25">GetNextState</tspan><tspan font-size="11" x="-24.2466" y="25">(</tspan><tspan font-size="11" x="-20.08" y="25">currentState:int</tspan><tspan font-size="11" x="57.42" y="25">, </tspan><tspan font-size="11" x="63.2534" y="25">eventNumber:int</tspan><tspan font-size="11" x="145.587" y="25">) : int</tspan></text><rect x="208.5" y="261.5" width="190" height="73" stroke="#000000" stroke-width="1.33333" stroke-miterlimit="8" fill="#FFFFFF"/><text font-family="Yu Gothic,Yu Gothic_MSFontService,sans-serif" font-weight="400" font-size="11" transform="translate(265.617 276)">&lt;&lt; <tspan font-size="11" x="18.3333" y="0">abstract&gt;&gt;</tspan><tspan font-size="11" x="-48.08" y="13">StateMachineBase</tspan><tspan font-size="11" x="-42.08" y="25">ReceivedEvent</tspan><tspan font-size="11" x="30.5867" y="25">(</tspan><tspan font-size="11" x="34.7534" y="25">event:EventData</tspan><tspan font-size="11" x="116.587" y="25">)</tspan><tspan font-style="oblique" font-size="11" x="-42.08" y="38">RunEntryAction</tspan><tspan font-size="11" x="34.5867" y="38">()</tspan></text><path d="M295.5 179.5 303.5 165.5 311.5 179.5Z" stroke="#000000" stroke-width="1.33333" stroke-miterlimit="8" fill="#FFFFFF" fill-rule="evenodd"/><path d="M0 0 0.186667 82.4026" stroke="#000000" stroke-width="0.666667" stroke-miterlimit="8" fill="none" fill-rule="evenodd" transform="matrix(-1 0 0 1 303.687 179.5)"/><rect x="194" y="399" width="217" height="91" stroke="#000000" stroke-width="2" stroke-miterlimit="8" fill="#FFFFFF"/><text font-family="Yu Gothic,Yu Gothic_MSFontService,sans-serif" font-weight="400" font-size="11" transform="translate(204.061 414)">DomainClass<tspan font-style="oblique" font-weight="700" font-size="11" x="65.3333" y="0">ClassName</tspan><tspan font-size="11" x="124" y="0">StateMachine</tspan><tspan font-size="11" x="6" y="13">enum</tspan><tspan font-size="11" x="36.5" y="13">States</tspan><tspan font-size="11" x="6" y="25">enum</tspan><tspan font-size="11" x="36.5" y="25">Events</tspan><tspan font-size="11" x="6" y="38">GetNextState</tspan><tspan font-size="11" x="72.8333" y="38">()</tspan><tspan font-size="11" x="6" y="51">RunEntryAction</tspan><tspan font-size="11" x="82.6667" y="51">()</tspan><tspan font-size="11" x="6" y="64">Action</tspan><tspan font-style="oblique" font-weight="700" font-size="11" x="37.3333" y="64">StateName</tspan><tspan font-size="11" x="95.3333" y="64">()</tspan><tspan font-size="11" x="6" y="77">…</tspan></text><path d="M295.5 348.5 303.5 334.5 311.5 348.5Z" stroke="#000000" stroke-width="1.33333" stroke-miterlimit="8" fill="#FFFFFF" fill-rule="evenodd"/><path d="M0 0 0.000104987 51.1256" stroke="#000000" stroke-width="0.666667" stroke-miterlimit="8" fill="none" fill-rule="evenodd" transform="matrix(-1 0 0 1 303.5 348.5)"/><path d="M0 15 8 0 16 15 8 30Z" stroke="#000000" stroke-width="1.33333" stroke-miterlimit="8" fill="#FFFFFF" fill-rule="evenodd" transform="matrix(-6.12323e-17 -1 -1 6.12323e-17 426.5 135.5)"/><path d="M426.5 127.167 520.949 127.167 520.949 190.935 520.282 190.935 520.282 127.5 520.616 127.833 426.5 127.833ZM525.57 183.103 520.616 191.596 515.661 183.103C515.568 182.944 515.622 182.74 515.781 182.647 515.94 182.554 516.144 182.608 516.237 182.767L520.904 190.767 520.328 190.767 524.994 182.767C525.087 182.608 525.291 182.554 525.45 182.647 525.609 182.74 525.663 182.944 525.57 183.103Z"/><path d="M512.5 270.5 520.5 256.5 528.5 270.5Z" stroke="#000000" stroke-width="1.33333" stroke-miterlimit="8" fill="#FFFFFF" fill-rule="evenodd"/><path d="M0 0 217.478 128.758" stroke="#000000" stroke-width="0.666667" stroke-miterlimit="8" fill="none" fill-rule="evenodd" transform="matrix(-1 0 0 1 520.978 270.5)"/><rect x="236.5" y="524.5" width="190" height="60" stroke="#000000" stroke-width="1.33333" stroke-miterlimit="8" fill="#FFFFFF"/><text font-family="Yu Gothic,Yu Gothic_MSFontService,sans-serif" font-weight="400" font-size="11" transform="translate(294.09 539)">&lt;&lt; <tspan font-size="11" x="18.3333" y="0">abstract&gt;&gt;</tspan><tspan font-size="11" x="-48.08" y="13">EventData</tspan><tspan font-style="oblique" font-weight="700" font-size="11" x="-45.08" y="25">E</tspan><tspan font-size="11" x="-38.2467" y="25">ventNumber</tspan><tspan font-size="11" x="25.2533" y="25">: int</tspan></text><rect x="236" y="632" width="190" height="59" stroke="#000000" stroke-width="2" stroke-miterlimit="8" fill="#FFFFFF"/><text font-family="Yu Gothic,Yu Gothic_MSFontService,sans-serif" font-style="oblique" font-weight="700" font-size="11" transform="translate(246.01 647)">EventName<tspan font-style="normal" font-weight="400" font-size="11" x="3" y="13">Create()</tspan><tspan font-style="normal" font-weight="400" font-size="11" x="47.3333" y="13">: </tspan>EventName</text><path d="M323.5 597.5 331.5 584.5 339.5 597.5Z" stroke="#000000" stroke-width="1.33333" stroke-miterlimit="8" fill="#FFFFFF" fill-rule="evenodd"/><path d="M0 0 0.000104987 34.4931" stroke="#000000" stroke-width="0.666667" stroke-miterlimit="8" fill="none" fill-rule="evenodd" transform="matrix(-1 0 0 1 331.5 597.5)"/><path d="M0 15 8.5 0 17 15 8.5 30Z" stroke="#000000" stroke-width="1.33333" stroke-miterlimit="8" fill="#FFFFFF" fill-rule="evenodd" transform="matrix(-6.12323e-17 -1 -1 6.12323e-17 208.5 304.5)"/><path d="M178.5 295.833 161.352 295.833 161.685 295.5 161.685 554.021 161.352 553.687 236.095 553.687 236.095 554.354 161.019 554.354 161.019 295.167 178.5 295.167ZM228.262 549.066 236.756 554.021 228.262 558.975C228.103 559.068 227.899 559.014 227.806 558.855 227.713 558.696 227.767 558.492 227.926 558.399L235.926 553.733 235.926 554.308 227.926 549.642C227.767 549.549 227.713 549.345 227.806 549.186 227.899 549.027 228.103 548.973 228.262 549.066Z"/><text font-family="Yu Gothic,Yu Gothic_MSFontService,sans-serif" font-weight="400" font-size="11" transform="translate(216.883 549)">*<tspan font-size="11" x="-25.0927" y="22">queu</tspan>e</text><rect x="94.5001" y="74.5001" width="605" height="630" stroke="#D9D9D9" stroke-width="1.33333" stroke-miterlimit="8" fill="none"/></g></svg>