<svg width="607" height="360" xmlns="http://www.w3.org/2000/svg" xmlns:xlink="http://www.w3.org/1999/xlink" overflow="hidden"><defs><clipPath id="clip0"><rect x="653" y="24" width="607" height="360"/></clipPath></defs><g clip-path="url(#clip0)" transform="translate(-653 -24)"><rect x="654.5" y="25.5001" width="605" height="358" stroke="#D9D9D9" stroke-width="1.33333" stroke-miterlimit="8" fill="none"/><text font-family="Arial,Arial_MSFontService,sans-serif" font-weight="400" font-size="11" transform="translate(696.199 64)">CREATE ROP REF_ID R503 FROM MC SM_SEME (SM_ID, SMstt_ID) TO 1 SM_STATE (SM_ID, SMstt_ID);<tspan font-size="11" x="0" y="13">CREATE ROP REF_ID R503 FROM MC SM_SEME (SM_ID, SMevt_ID) TO 1 SM_SEVT (SM_ID, SMevt_ID);</tspan></text><rect x="733.5" y="145.5" width="118" height="96" stroke="#000000" stroke-width="1.33333" stroke-miterlimit="8" fill="#FFFFFF"/><text font-family="Yu Gothic,Yu Gothic_MSFontService,sans-serif" font-weight="400" font-size="13" transform="translate(757.654 197)">SM_STATE</text><rect x="1034.5" y="144.5" width="118" height="96" stroke="#000000" stroke-width="1.33333" stroke-miterlimit="8" fill="#FFFFFF"/><text font-family="Yu Gothic,Yu Gothic_MSFontService,sans-serif" font-weight="400" font-size="13" transform="translate(1062.34 196)">SM_SEVT</text><path d="M0 0 182.193 0.789291" stroke="#000000" stroke-width="0.666667" stroke-miterlimit="8" fill="none" fill-rule="evenodd" transform="matrix(1 0 0 -1 851.5 193.289)"/><text font-family="Yu Gothic,Yu Gothic_MSFontService,sans-serif" font-weight="400" font-size="13" transform="translate(860.15 212)">*<tspan font-size="13" x="156.785" y="0">*</tspan></text><rect x="883.5" y="271.5" width="119" height="96" stroke="#000000" stroke-width="1.33333" stroke-miterlimit="8" fill="#FFFFFF"/><text font-family="Yu Gothic,Yu Gothic_MSFontService,sans-serif" font-weight="400" font-size="13" transform="translate(910.245 323)">SM_SEME</text><path d="M942.5 195.5 942.707 270.996" stroke="#000000" stroke-width="0.666667" stroke-miterlimit="8" stroke-dasharray="2 0.666667" fill="none" fill-rule="evenodd"/><rect x="805.5" y="50.5001" width="37" height="37" stroke="#FF0000" stroke-width="3" stroke-miterlimit="8" fill="none"/><rect x="890.5" y="49.5001" width="60" height="37" stroke="#FF0000" stroke-width="3" stroke-miterlimit="8" fill="none"/><text font-family="Yu Gothic,Yu Gothic_MSFontService,sans-serif" font-weight="400" font-size="13" transform="translate(924.548 186)">R503</text><path d="M824.742 87.2702 915.727 182.861 915.244 183.321 824.259 87.7299ZM918.383 180.333C919.906 181.933 919.844 184.465 918.244 185.988 916.643 187.511 914.112 187.449 912.589 185.849 911.065 184.249 911.128 181.717 912.728 180.194 914.328 178.67 916.86 178.733 918.383 180.333Z" fill="#FF0000"/><path d="M920.831 86.4597 943.335 270.852 942.673 270.933 920.169 86.5404ZM946.974 270.408C947.242 272.601 945.681 274.595 943.488 274.863 941.295 275.13 939.301 273.57 939.033 271.377 938.766 269.184 940.326 267.189 942.519 266.922 944.712 266.654 946.707 268.215 946.974 270.408Z" fill="#FF0000"/><path d="M871.5 65.5001 887.345 65.5002" stroke="#4472C4" stroke-width="3" stroke-miterlimit="8" fill="none" fill-rule="evenodd"/><path d="M871.5 78.5001 887.345 78.5002" stroke="#70AD47" stroke-width="3" stroke-miterlimit="8" fill="none" fill-rule="evenodd"/><path d="M1067.5 66.5001 1121.95 66.5002" stroke="#4472C4" stroke-width="3" stroke-miterlimit="8" fill="none" fill-rule="evenodd"/><path d="M1067.5 79.5001 1121.95 79.5002" stroke="#70AD47" stroke-width="3" stroke-miterlimit="8" fill="none" fill-rule="evenodd"/><path d="M0.331693-0.0330312 13.1856 129.043 12.5222 129.109-0.331693 0.0330312ZM16.8342 128.679C17.0531 130.878 15.4485 132.837 13.2502 133.056 11.052 133.275 9.09246 131.67 8.87355 129.472 8.65463 127.274 10.2592 125.314 12.4575 125.095 14.6557 124.877 16.6153 126.481 16.8342 128.679Z" fill="#4472C4" transform="matrix(-1 0 0 1 876.354 66.5001)"/><path d="M0.0891694-0.321185 285.185 78.8289 285.007 79.4713-0.0891694 0.321185ZM286.166 75.2959C288.295 75.8869 289.541 78.0915 288.95 80.2202 288.359 82.3488 286.155 83.5953 284.026 83.0044 281.897 82.4134 280.651 80.2087 281.242 78.0801 281.833 75.9515 284.037 74.7049 286.166 75.2959Z" fill="#4472C4" transform="matrix(-1 0 0 1 1077.6 66.5001)"/><path d="M1091.83 81.4912 1093.53 145.198 1092.86 145.216 1091.17 81.5089ZM1097.2 145.101C1097.26 147.309 1095.51 149.147 1093.3 149.206 1091.1 149.265 1089.26 147.522 1089.2 145.314 1089.14 143.105 1090.88 141.267 1093.09 141.209 1095.3 141.15 1097.14 142.892 1097.2 145.101Z" fill="#70AD47"/><path d="M881.712 81.2426 1020.83 195.665 1020.41 196.18 881.288 81.7575ZM1023.16 192.833C1024.87 194.236 1025.11 196.757 1023.71 198.463 1022.3 200.169 1019.78 200.415 1018.08 199.011 1016.37 197.608 1016.13 195.087 1017.53 193.381 1018.93 191.675 1021.45 191.429 1023.16 192.833Z" fill="#70AD47"/></g></svg>