<svg width="607" height="360" xmlns="http://www.w3.org/2000/svg" xmlns:xlink="http://www.w3.org/1999/xlink" overflow="hidden"><defs><clipPath id="clip0"><rect x="22" y="402" width="607" height="360"/></clipPath></defs><g clip-path="url(#clip0)" transform="translate(-22 -402)"><rect x="23.5001" y="403.5" width="605" height="358" stroke="#D9D9D9" stroke-width="1.33333" stroke-miterlimit="8" fill="none"/><text font-family="Arial,Arial_MSFontService,sans-serif" font-weight="400" font-size="12" transform="translate(47.4501 452)">CREATE ROP REF_ID R106 FROM 1C O_BATTR (Attr_ID, Obj_ID) TO 1 O_ATTR (Attr_ID, Obj_ID);<tspan font-size="12" x="0" y="14">CREATE ROP REF_ID R106 FROM 1C O_RATTR (Attr_ID, Obj_ID) TO 1 O_ATTR (Attr_ID, Obj_ID);</tspan></text><rect x="249.5" y="511.5" width="119" height="96" stroke="#000000" stroke-width="1.33333" stroke-miterlimit="8" fill="#FFFFFF"/><text font-family="Yu Gothic,Yu Gothic_MSFontService,sans-serif" font-weight="400" font-size="13" transform="translate(283.24 563)">O_ATTR</text><path d="M301.5 621.5 309.5 607.5 317.5 621.5Z" stroke="#000000" stroke-width="1.33333" stroke-miterlimit="8" fill="#FFFFFF" fill-rule="evenodd"/><path d="M309.751 621.5 309.751 633.942 238.5 633.942 238.5 646.384" stroke="#000000" stroke-width="0.666667" stroke-miterlimit="8" fill="none" fill-rule="evenodd"/><rect x="178.5" y="646.5" width="119" height="96" stroke="#000000" stroke-width="1.33333" stroke-miterlimit="8" fill="#FFFFFF"/><text font-family="Yu Gothic,Yu Gothic_MSFontService,sans-serif" font-weight="400" font-size="13" transform="translate(207.605 698)">O<tspan font-size="13" x="9.83333" y="0">_BATTR</tspan></text><rect x="322.5" y="646.5" width="118" height="96" stroke="#000000" stroke-width="1.33333" stroke-miterlimit="8" fill="#FFFFFF"/><text font-family="Yu Gothic,Yu Gothic_MSFontService,sans-serif" font-weight="400" font-size="13" transform="translate(351.406 698)">O<tspan font-size="13" x="9.83334" y="0">_RATTR</tspan></text><path d="M0 0 12.4421 0 12.4421 72.5491 24.8842 72.5491" stroke="#000000" stroke-width="0.666667" stroke-miterlimit="8" fill="none" fill-rule="evenodd" transform="matrix(1.83697e-16 1 1 -1.83697e-16 309.5 621.5)"/><text font-family="Yu Gothic,Yu Gothic_MSFontService,sans-serif" font-weight="400" font-size="13" transform="translate(258.641 623)">R106</text><rect x="166.5" y="436.5" width="46" height="37" stroke="#FF0000" stroke-width="3" stroke-miterlimit="8" fill="none"/><path d="M189.808 473.373 249.987 618.872 249.371 619.127 189.192 473.627ZM253.375 617.47C254.219 619.512 253.249 621.851 251.208 622.695 249.166 623.54 246.827 622.569 245.983 620.528 245.138 618.487 246.109 616.147 248.15 615.303 250.191 614.458 252.531 615.429 253.375 617.47Z" fill="#FF0000"/><path d="M264.5 452.5 318.955 452.5" stroke="#4472C4" stroke-width="3" stroke-miterlimit="8" fill="none" fill-rule="evenodd"/><path d="M264.5 467.5 318.955 467.5" stroke="#70AD47" stroke-width="3" stroke-miterlimit="8" fill="none" fill-rule="evenodd"/><path d="M301.804 467.363 382.391 645.841 381.784 646.116 301.196 467.637ZM385.733 644.332C386.642 646.346 385.747 648.715 383.734 649.624 381.72 650.533 379.351 649.638 378.442 647.625 377.533 645.611 378.428 643.242 380.442 642.333 382.455 641.424 384.824 642.319 385.733 644.332Z" fill="#70AD47"/><path d="M0.327295-0.0631572 37.3246 191.665 36.67 191.792-0.327295 0.0631572ZM40.9248 190.971C41.3434 193.14 39.9243 195.238 37.7552 195.656 35.586 196.075 33.4883 194.656 33.0697 192.486 32.6512 190.317 34.0703 188.22 36.2394 187.801 38.4085 187.382 40.5062 188.802 40.9248 190.971Z" fill="#4472C4" transform="matrix(-1 0 0 1 275.497 454.5)"/><rect x="436.5" y="435.5" width="67" height="37" stroke="#FF0000" stroke-width="3" stroke-miterlimit="8" fill="none"/><path d="M0.217243-0.252818 101.788 87.0256 101.354 87.5312-0.217243 0.252818ZM104.178 84.2446C105.853 85.6844 106.044 88.2098 104.605 89.8853 103.165 91.5609 100.64 91.752 98.964 90.3122 97.2885 88.8725 97.0973 86.347 98.5371 84.6715 99.9769 82.996 102.502 82.8049 104.178 84.2446Z" fill="#FF0000" transform="matrix(-1 0 0 1 470.071 472.5)"/></g></svg>