<svg width="607" height="360" xmlns="http://www.w3.org/2000/svg" xmlns:xlink="http://www.w3.org/1999/xlink" overflow="hidden"><defs><clipPath id="clip0"><rect x="22" y="24" width="607" height="360"/></clipPath></defs><g clip-path="url(#clip0)" transform="translate(-22 -24)"><rect x="23.5001" y="25.5001" width="605" height="358" stroke="#D9D9D9" stroke-width="1.33333" stroke-miterlimit="8" fill="none"/><text font-family="Arial,Arial_MSFontService,sans-serif" font-weight="400" font-size="13" transform="translate(78.625 78)">CREATE ROP REF_ID R102 FROM MC O_ATTR (Obj_ID) TO 1 O_OBJ (Obj_ID);</text><rect x="398.5" y="254.5" width="119" height="96" stroke="#000000" stroke-width="1.33333" stroke-miterlimit="8" fill="#FFFFFF"/><text font-family="Yu Gothic,Yu Gothic_MSFontService,sans-serif" font-weight="400" font-size="13" transform="translate(437.1 306)">O_OBJ</text><rect x="115.5" y="254.5" width="118" height="96" stroke="#000000" stroke-width="1.33333" stroke-miterlimit="8" fill="#FFFFFF"/><text font-family="Yu Gothic,Yu Gothic_MSFontService,sans-serif" font-weight="400" font-size="13" transform="translate(148.856 306)">O_ATTR</text><path d="M0 0 164.838 0.000104987" stroke="#000000" stroke-width="0.666667" stroke-miterlimit="8" fill="none" fill-rule="evenodd" transform="matrix(1 0 0 -1 233.5 302.5)"/><text font-family="Yu Gothic,Yu Gothic_MSFontService,sans-serif" font-weight="400" font-size="13" transform="translate(296.916 291)">R102<tspan font-size="13" x="89.3003" y="26">1</tspan><tspan font-size="13" x="-53.8821" y="32">*</tspan></text><path d="M220.5 83.5001 247.397 83.5002" stroke="#FF0000" stroke-width="3" stroke-miterlimit="8" fill="none" fill-rule="evenodd"/><path d="M301.5 83.5001 317.345 83.5002" stroke="#4472C4" stroke-width="3" stroke-miterlimit="8" fill="none" fill-rule="evenodd"/><path d="M322.5 83.5001 376.955 83.5002" stroke="#4472C4" stroke-width="3" stroke-miterlimit="8" fill="none" fill-rule="evenodd"/><path d="M454.5 83.5001 460.912 83.5002" stroke="#70AD47" stroke-width="3" stroke-miterlimit="8" fill="none" fill-rule="evenodd"/><path d="M467.5 83.5001 516.627 83.5002" stroke="#70AD47" stroke-width="3" stroke-miterlimit="8" fill="none" fill-rule="evenodd"/><path d="M233.808 83.3727 313.035 275.101 312.419 275.356 233.192 83.6274ZM316.424 273.701C317.268 275.743 316.297 278.082 314.255 278.925 312.213 279.769 309.874 278.798 309.031 276.756 308.187 274.715 309.158 272.376 311.2 271.532 313.241 270.688 315.58 271.659 316.424 273.701Z" fill="#FF0000"/><path d="M0.321234-0.0889946 62.6533 224.904 62.0108 225.082-0.321234 0.0889946ZM66.1869 223.925C66.7767 226.054 65.529 228.258 63.4 228.848 61.2711 229.437 59.0671 228.19 58.4773 226.061 57.8875 223.932 59.1352 221.728 61.2641 221.138 63.3931 220.548 65.5971 221.796 66.1869 223.925Z" fill="#4472C4" transform="matrix(-1 0 0 1 308.832 81.5001)"/><path d="M0.230865-0.240442 174.789 167.365 174.328 167.846-0.230865 0.240442ZM177.329 164.72C178.923 166.25 178.974 168.782 177.444 170.376 175.914 171.969 173.382 172.021 171.788 170.491 170.195 168.961 170.143 166.428 171.673 164.835 173.203 163.241 175.735 163.19 177.329 164.72Z" fill="#4472C4" transform="matrix(-1 0 0 1 349.059 87.5001)"/><path d="M0.318245-0.0991536 67.739 216.295 67.1025 216.494-0.318245 0.0991536ZM71.2397 215.205C71.8969 217.314 70.7198 219.556 68.6106 220.214 66.5015 220.871 64.259 219.694 63.6018 217.584 62.9447 215.475 64.1218 213.233 66.2309 212.576 68.3401 211.919 70.5826 213.096 71.2397 215.205Z" fill="#70AD47" transform="matrix(-1 0 0 1 457.921 84.5001)"/><path d="M0.326753-0.0659083 34.9243 171.458 34.2708 171.59-0.326753 0.0659083ZM38.5186 170.733C38.9554 172.898 37.554 175.008 35.3885 175.445 33.223 175.882 31.1134 174.48 30.6766 172.315 30.2397 170.149 31.6412 168.04 33.8067 167.603 35.9722 167.166 38.0818 168.567 38.5186 170.733Z" fill="#70AD47" transform="matrix(-1 0 0 1 492.098 83.5001)"/></g></svg>