<svg width="608" height="324" xmlns="http://www.w3.org/2000/svg" xmlns:xlink="http://www.w3.org/1999/xlink" overflow="hidden"><defs><clipPath id="clip0"><rect x="56" y="60" width="608" height="324"/></clipPath><clipPath id="clip1"><rect x="296" y="307" width="38" height="38"/></clipPath><clipPath id="clip2"><rect x="296" y="307" width="38" height="38"/></clipPath><clipPath id="clip3"><rect x="296" y="307" width="38" height="38"/></clipPath><clipPath id="clip4"><rect x="296" y="142" width="38" height="38"/></clipPath><clipPath id="clip5"><rect x="296" y="142" width="38" height="38"/></clipPath><clipPath id="clip6"><rect x="296" y="142" width="38" height="38"/></clipPath><clipPath id="clip7"><rect x="108" y="307" width="38" height="38"/></clipPath><clipPath id="clip8"><rect x="108" y="307" width="38" height="38"/></clipPath><clipPath id="clip9"><rect x="108" y="307" width="38" height="38"/></clipPath><clipPath id="clip10"><rect x="108" y="224" width="38" height="38"/></clipPath><clipPath id="clip11"><rect x="108" y="224" width="38" height="38"/></clipPath><clipPath id="clip12"><rect x="108" y="224" width="38" height="38"/></clipPath><clipPath id="clip13"><rect x="108" y="142" width="38" height="38"/></clipPath><clipPath id="clip14"><rect x="108" y="142" width="38" height="38"/></clipPath><clipPath id="clip15"><rect x="108" y="142" width="38" height="38"/></clipPath><clipPath id="clip16"><rect x="296" y="224" width="38" height="38"/></clipPath><clipPath id="clip17"><rect x="296" y="224" width="38" height="38"/></clipPath><clipPath id="clip18"><rect x="296" y="224" width="38" height="38"/></clipPath><clipPath id="clip19"><rect x="195" y="142" width="38" height="38"/></clipPath><clipPath id="clip20"><rect x="195" y="142" width="38" height="38"/></clipPath><clipPath id="clip21"><rect x="195" y="142" width="38" height="38"/></clipPath><clipPath id="clip22"><rect x="225" y="193" width="38" height="38"/></clipPath><clipPath id="clip23"><rect x="225" y="193" width="38" height="38"/></clipPath><clipPath id="clip24"><rect x="225" y="193" width="38" height="38"/></clipPath><clipPath id="clip25"><rect x="197" y="265" width="38" height="38"/></clipPath><clipPath id="clip26"><rect x="197" y="265" width="38" height="38"/></clipPath><clipPath id="clip27"><rect x="197" y="265" width="38" height="38"/></clipPath></defs><g clip-path="url(#clip0)" transform="translate(-56 -60)"><g clip-path="url(#clip1)"><g clip-path="url(#clip2)"><g clip-path="url(#clip3)"><path d="M330.789 308.421C329.915 307.545 328.695 307 327.359 307L304.509 307C303.172 307 301.953 307.545 301.079 308.421 300.202 309.296 299.658 310.515 299.658 311.852L299.658 312.242 298.591 312.242C298.149 312.242 297.79 312.601 297.79 313.044 297.79 313.486 298.149 313.844 298.591 313.844L299.658 313.844 299.658 318.651 298.591 318.651C298.149 318.651 297.79 319.009 297.79 319.452 297.79 319.893 298.149 320.253 298.591 320.253L299.658 320.253 299.658 325.059 298.591 325.059C298.149 325.059 297.79 325.418 297.79 325.859 297.79 326.301 298.149 326.66 298.591 326.66L299.658 326.66 299.658 331.466 298.591 331.466C298.149 331.466 297.79 331.826 297.79 332.268 297.79 332.71 298.149 333.068 298.591 333.068L299.658 333.068 299.658 337.875 298.591 337.875C298.149 337.875 297.79 338.233 297.79 338.675 297.79 339.117 298.149 339.476 298.591 339.476L299.658 339.476 299.658 340.149C299.658 341.485 300.202 342.704 301.079 343.579 301.953 344.455 303.172 345.001 304.509 345L327.359 345C328.695 345.001 329.915 344.455 330.789 343.579 331.665 342.704 332.21 341.485 332.21 340.149L332.21 311.852C332.21 310.515 331.665 309.296 330.789 308.421ZM308.1 342.865 304.509 342.865C303.755 342.865 303.083 342.563 302.588 342.07 302.095 341.575 301.793 340.903 301.793 340.149L301.793 339.476 303.487 339.476C303.766 339.944 304.276 340.259 304.861 340.259 305.745 340.259 306.462 339.542 306.462 338.658 306.462 337.774 305.745 337.057 304.861 337.057 304.262 337.057 303.74 337.387 303.466 337.875L301.793 337.875 301.793 333.068 303.484 333.068C303.763 333.538 304.275 333.855 304.861 333.855 305.745 333.855 306.462 333.138 306.462 332.254 306.462 331.37 305.745 330.653 304.861 330.653 304.263 330.653 303.743 330.982 303.468 331.466L301.793 331.466 301.793 326.66 303.481 326.66C303.76 327.133 304.273 327.452 304.861 327.452 305.745 327.452 306.462 326.734 306.462 325.851 306.462 324.966 305.745 324.249 304.861 324.249 304.265 324.249 303.747 324.576 303.471 325.059L301.793 325.059 301.793 320.253 303.479 320.253C303.757 320.727 304.271 321.048 304.861 321.048 305.745 321.048 306.462 320.331 306.462 319.447 306.462 318.564 305.745 317.846 304.861 317.846 304.267 317.846 303.749 318.171 303.474 318.651L301.793 318.651 301.793 313.844 303.476 313.844C303.753 314.322 304.269 314.644 304.861 314.644 305.745 314.644 306.462 313.927 306.462 313.044 306.462 312.159 305.745 311.443 304.861 311.443 304.269 311.443 303.753 311.765 303.476 312.242L301.793 312.242 301.793 311.852C301.793 311.097 302.095 310.425 302.588 309.93 303.083 309.437 303.755 309.135 304.509 309.135L308.1 309.135 308.1 342.865ZM330.075 340.149C330.075 340.903 329.773 341.575 329.28 342.07 328.785 342.563 328.113 342.865 327.359 342.865L308.9 342.865 308.9 309.135 327.359 309.135C328.113 309.135 328.785 309.437 329.28 309.93 329.773 310.425 330.075 311.097 330.076 311.852L330.076 340.149Z" fill="#4B4B4B"/><path d="M312.169 315.395 326.34 315.395 326.34 316.195 312.169 316.195Z" fill="#4B4B4B"/><path d="M312.169 320.531 326.34 320.531 326.34 321.332 312.169 321.332Z" fill="#4B4B4B"/><path d="M312.169 325.668 326.34 325.668 326.34 326.468 312.169 326.468Z" fill="#4B4B4B"/><path d="M312.169 330.804 326.34 330.804 326.34 331.605 312.169 331.605Z" fill="#4B4B4B"/><path d="M312.169 335.941 326.34 335.941 326.34 336.741 312.169 336.741Z" fill="#4B4B4B"/></g></g></g><g clip-path="url(#clip4)"><g clip-path="url(#clip5)"><g clip-path="url(#clip6)"><path d="M321.291 142 299.422 163.869 296 180 312.128 176.578 334 154.705 321.291 142ZM321.291 145.885 325.19 149.784 306.707 168.264 302.81 164.366 321.291 145.885ZM304.168 175.426 300.573 171.831 301.953 165.562 310.436 174.046 304.168 175.426ZM311.631 173.188 307.735 169.292 326.215 150.809 330.114 154.705 311.631 173.188Z" fill="#4B4B4B"/></g></g></g><g clip-path="url(#clip7)"><g clip-path="url(#clip8)"><g clip-path="url(#clip9)"><path d="M135.018 333.35C134.731 333.243 134.419 333.095 134.101 332.92L128.79 340.263 128.412 335.453 125.589 335.453 125.211 340.263 119.899 332.92C119.572 333.103 119.257 333.253 118.982 333.35 116.2 334.329 109.367 337.146 109.808 342.421 109.914 343.686 116.875 345 127 345 137.125 345 144.086 343.686 144.192 342.421 144.633 337.14 137.782 334.384 135.018 333.35Z" fill="#4B4B4B"/><path d="M120.729 322.458C121.115 324.648 121.765 326.581 122.621 327.533 122.621 328.674 122.621 329.507 122.621 330.174 122.621 330.241 122.609 330.311 122.59 330.384L125.589 331.829 125.589 333.947 128.412 333.947 128.412 331.829 131.409 330.385C131.39 330.312 131.379 330.242 131.379 330.174 131.379 329.507 131.379 328.674 131.379 327.533 132.236 326.581 132.886 324.648 133.272 322.458 134.173 322.136 134.69 321.62 135.333 319.366 136.018 316.964 134.303 317.046 134.303 317.046 135.69 312.454 133.863 308.138 130.805 308.455 128.696 304.764 121.63 309.298 119.414 308.982 119.414 310.248 119.942 311.197 119.942 311.197 119.172 312.658 119.469 315.572 119.686 317.046 119.56 317.044 118.009 317.06 118.667 319.366 119.311 321.62 119.826 322.136 120.729 322.458Z" fill="#4B4B4B"/></g></g></g><g clip-path="url(#clip10)"><g clip-path="url(#clip11)"><g clip-path="url(#clip12)"><path d="M140.388 254.122C139.487 252.773 138.116 252.025 136.826 251.538 136.179 251.295 135.546 251.116 134.988 250.963 134.431 250.812 133.946 250.683 133.619 250.56 133.155 250.388 132.676 250.174 132.284 249.94L132.284 247.491 131.426 247.634C131.426 247.401 131.426 247.157 131.426 246.887 132.156 246.076 133.207 244.819 133.635 242.82 133.788 242.752 133.938 242.675 134.084 242.574 134.436 242.33 134.736 241.976 134.991 241.493 135.248 241.008 135.476 240.386 135.72 239.534 135.842 239.103 135.899 238.729 135.899 238.397 135.9 238.015 135.821 237.684 135.678 237.417 135.519 237.119 135.289 236.92 135.066 236.793L135.066 235.874C135.095 235.848 135.131 235.824 135.157 235.797 135.887 235.037 135.597 234.158 135.089 233.504 135.726 232.608 137.002 230.54 136.642 228.742 135.875 224.908 130.478 224 127 224 123.522 224 118.125 224.908 117.358 228.742 116.999 230.54 118.273 232.608 118.912 233.504 118.419 234.138 118.138 234.986 118.79 235.729L118.79 236.896C118.616 237.02 118.445 237.186 118.323 237.417 118.179 237.685 118.1 238.015 118.101 238.397 118.101 238.73 118.158 239.103 118.281 239.534 118.606 240.669 118.9 241.4 119.279 241.934 119.468 242.2 119.683 242.412 119.917 242.574 120.062 242.675 120.213 242.752 120.365 242.82 120.794 244.819 121.844 246.076 122.574 246.888 122.574 247.157 122.574 247.401 122.574 247.634L121.716 247.491 121.716 249.941C121.672 249.968 121.63 249.996 121.583 250.023 121.205 250.238 120.771 250.424 120.391 250.557 119.945 250.716 119.229 250.88 118.427 251.109 117.222 251.457 115.8 251.959 114.644 252.949 114.068 253.445 113.562 254.067 113.206 254.84 112.85 255.612 112.645 256.53 112.645 257.606 112.645 257.856 112.656 258.114 112.679 258.381 112.695 258.563 112.764 258.711 112.847 258.835 113.003 259.065 113.213 259.238 113.477 259.416 113.938 259.722 114.58 260.021 115.402 260.316 117.865 261.194 121.945 261.998 127 262 131.107 261.999 134.575 261.467 137.048 260.798 138.285 260.462 139.273 260.094 139.985 259.728 140.342 259.545 140.631 259.362 140.858 259.164 140.971 259.064 141.07 258.959 141.154 258.835 141.235 258.712 141.306 258.563 141.321 258.381 141.344 258.114 141.354 257.857 141.354 257.607 141.356 256.174 140.988 255.02 140.388 254.122ZM126.247 228.357 127.001 226.675 127.754 228.357 129.586 228.554 128.22 229.79 128.598 231.593 127.001 230.676 125.402 231.593 125.78 229.79 124.414 228.554 126.247 228.357ZM127 260.464C126.463 260.464 126.029 260.029 126.029 259.492 126.029 258.956 126.463 258.521 127 258.521 127.537 258.521 127.972 258.956 127.972 259.492 127.972 260.029 127.537 260.464 127 260.464ZM127 255.703C126.463 255.703 126.029 255.267 126.029 254.731 126.029 254.194 126.463 253.759 127 253.759 127.537 253.759 127.972 254.194 127.972 254.731 127.972 255.267 127.537 255.703 127 255.703ZM127 251.816 122.04 250.989C122.215 250.892 122.387 250.79 122.549 250.677 122.643 250.613 122.728 250.539 122.815 250.468L126.818 251.135 126.818 248.341 123.643 247.812C123.643 247.475 123.643 247.108 123.643 246.684L123.643 246.479 123.505 246.326C122.745 245.477 121.709 244.347 121.35 242.34L121.296 242.034 121.004 241.929C120.809 241.859 120.658 241.788 120.527 241.697 120.332 241.559 120.156 241.371 119.953 240.992 119.752 240.615 119.54 240.054 119.308 239.241 119.207 238.884 119.17 238.605 119.17 238.397 119.17 238.156 119.216 238.013 119.265 237.921 119.339 237.787 119.43 237.729 119.544 237.684 119.561 237.677 119.578 237.673 119.595 237.668L121.462 239.11 121.462 236.9C123.475 237.327 125.958 237.409 127 237.409 128.017 237.409 130.408 237.333 132.393 236.932L132.393 239.11 134.29 237.644C134.365 237.655 134.477 237.679 134.563 237.736 134.63 237.779 134.685 237.829 134.735 237.921 134.784 238.013 134.83 238.156 134.83 238.397 134.83 238.605 134.794 238.883 134.692 239.241 134.383 240.326 134.107 240.959 133.851 241.313 133.723 241.492 133.605 241.604 133.474 241.697 133.342 241.788 133.191 241.859 132.996 241.929L132.704 242.034 132.65 242.34C132.292 244.347 131.256 245.477 130.495 246.326L130.357 246.479 130.357 246.684C130.357 247.108 130.357 247.475 130.357 247.812L127.183 248.341 127.183 251.135 131.172 250.47C131.377 250.638 131.604 250.787 131.842 250.924 131.883 250.947 131.927 250.965 131.969 250.988L127 251.816Z" fill="#4B4B4B"/></g></g></g><g clip-path="url(#clip13)"><g clip-path="url(#clip14)"><g clip-path="url(#clip15)"><path d="M120.067 152.924C120.067 152.924 124.269 153.765 129.731 148.303 132.252 151.665 133.934 153.345 133.934 153.345L133.934 158.389C135.62 156.649 136.664 154.28 136.664 151.665 136.664 146.327 132.338 142 127 142 121.663 142 117.336 146.327 117.336 151.665 117.336 154.28 118.379 156.649 120.067 158.389L120.067 152.924Z" fill="#4B4B4B"/><path d="M133.481 164.075C132.803 164.445 127 177.186 127 177.186 127 177.186 121.198 164.445 120.518 164.075 113.986 166.431 113.694 171.711 113.694 180L140.306 180C140.306 171.711 140.014 166.431 133.481 164.075Z" fill="#4B4B4B"/><path d="M124.107 163.505 124.107 167.363 127 166.379 129.893 167.363 129.893 163.505 127 164.489Z" fill="#4B4B4B"/></g></g></g><g clip-path="url(#clip16)"><g clip-path="url(#clip17)"><g clip-path="url(#clip18)"><path d="M303.595 229.38C303.182 229.379 302.819 229.216 302.547 228.946 302.277 228.674 302.114 228.311 302.113 227.898 302.114 227.485 302.277 227.122 302.547 226.85 302.819 226.58 303.182 226.417 303.595 226.416L329.095 226.417 329.095 224.001 303.595 224C301.441 224.001 299.698 225.745 299.697 227.898L299.697 258.102C299.698 260.255 301.441 261.999 303.595 262L330.303 262 330.303 229.38 303.595 229.38ZM327.887 259.583 304.489 259.584 304.489 231.796 327.887 231.796 327.887 259.583Z" fill="#4B4B4B"/><path d="M324.413 255.355 324.413 235.119 308.103 235.119 308.103 256.261 324.413 256.261 324.413 255.355ZM322.601 254.449 309.915 254.449 309.915 236.931 322.601 236.931 322.601 254.449Z" fill="#4B4B4B"/><path d="M312.634 249.465 319.883 249.465 319.883 250.825 312.634 250.825Z" fill="#4B4B4B"/></g></g></g><path d="M146.5 161.167 149.167 161.167 149.167 161.833 146.5 161.833ZM151.167 161.167 153.833 161.167 153.833 161.833 151.167 161.833ZM155.833 161.167 158.5 161.167 158.5 161.833 155.833 161.833ZM160.499 161.833 163.165 161.846 163.168 161.179 160.502 161.167ZM165.168 161.188 167.835 161.201 167.832 161.867 165.165 161.855ZM169.835 161.21 172.501 161.222 172.498 161.889 169.832 161.876ZM174.502 161.231 177.168 161.245 177.165 161.911 174.498 161.898ZM179.168 161.254 181.835 161.268 181.831 161.934 179.165 161.921ZM183.835 161.277 186.501 161.29 186.498 161.957 183.831 161.944ZM188.503 161.31 191.17 161.339 191.163 162.005 188.496 161.977ZM193.17 161.36 195.836 161.391 195.829 162.057 193.162 162.027ZM197.836 161.413 198.129 161.417 198.125 161.417 200.499 161.417 200.499 162.083 198.123 162.083 197.829 162.08ZM202.499 161.417 203.19 161.417 205.17 161.444 205.161 162.111 203.183 162.083 203.188 162.083 202.499 162.083ZM207.17 161.472 207.692 161.479 209.837 161.513 209.826 162.179 207.683 162.146 207.161 162.139ZM211.837 161.544 214.504 161.593 214.492 162.259 211.825 162.211ZM216.505 161.635 217.884 161.667 219.173 161.707 219.152 162.373 217.865 162.333 217.867 162.333 216.49 162.302ZM221.208 161.8 221.61 161.858 222.047 161.92 222.017 161.917 223.267 161.98 223.26 161.979 223.827 161.997 223.807 162.663 223.237 162.646 221.968 162.582 221.515 162.518 221.113 162.46ZM225.824 162.055 228.008 162.104 228.006 162.104 228.488 162.113 228.476 162.78 227.993 162.771 225.809 162.721ZM230.488 162.149 231.444 162.167 233.153 162.193 233.143 162.86 231.431 162.833 230.476 162.816ZM235.153 162.225 235.443 162.229 237.819 162.262 237.81 162.929 235.432 162.896 235.143 162.891ZM239.819 162.29 239.942 162.292 239.938 162.292 242.481 162.292 242.481 162.958 239.935 162.958 239.809 162.957ZM244.481 162.292 245.002 162.292 247.151 162.316 247.143 162.983 244.996 162.958 245 162.958 244.481 162.958ZM249.151 162.339 250.504 162.354 251.817 162.368 251.81 163.035 250.496 163.021 249.143 163.005ZM253.817 162.389 256.379 162.417 256.377 162.417 256.482 162.417 256.478 163.084 256.372 163.083 253.81 163.056ZM258.482 162.427 261.148 162.44 261.145 163.107 258.478 163.094ZM263.148 162.45 265.815 162.463 265.812 163.13 263.145 163.117ZM267.815 162.473 269.064 162.479 270.481 162.486 270.478 163.152 269.061 163.146 267.812 163.14ZM272.481 162.495 275.148 162.507 275.145 163.174 272.478 163.162ZM277.148 162.516 279.815 162.529 279.812 163.195 277.145 163.183ZM281.815 162.538 282.627 162.542 282.625 162.542 284.48 162.542 284.48 163.208 282.624 163.208 281.812 163.205ZM286.48 162.542 289.146 162.542 289.146 163.208 286.48 163.208ZM291.146 162.542 293.813 162.542 293.813 163.208 291.146 163.208ZM295.813 162.542 295.965 162.542 295.965 163.208 295.813 163.208ZM288.133 157.92 296.627 162.875 288.133 167.83C287.974 167.922 287.77 167.869 287.677 167.71 287.584 167.551 287.638 167.347 287.797 167.254L295.797 162.587 295.797 163.163 287.797 158.496C287.638 158.404 287.584 158.199 287.677 158.04 287.77 157.881 287.974 157.828 288.133 157.92Z"/><g clip-path="url(#clip19)"><g clip-path="url(#clip20)"><g clip-path="url(#clip21)"><path d="M209.805 159.415 226.17 159.415 226.17 160.79 209.805 160.79Z" fill="#4B4B4B"/><path d="M208.394 164.85 224.759 164.85 224.759 166.225 208.394 166.225Z" fill="#4B4B4B"/><path d="M232.947 144.717 232.947 143.832 205.251 143.832 205.251 144.717C205.251 146.543 205.302 148.452 205.302 150.435 205.302 153.326 205.195 156.372 204.68 159.543 204.189 162.558 203.331 165.687 201.841 168.914L199.175 168.914C198.704 168.914 198.228 168.989 197.769 169.149 197.082 169.387 196.431 169.823 195.938 170.463 195.444 171.103 195.118 171.934 195.021 172.914 195.007 173.055 195 173.197 195 173.337 194.999 174.047 195.182 174.717 195.49 175.304 195.953 176.187 196.684 176.889 197.533 177.378 198.383 177.867 199.359 178.149 200.352 178.156L221.407 178.168C222.208 178.17 222.903 178.006 223.495 177.737 224.087 177.47 224.57 177.114 225.019 176.757 226.853 175.296 228.27 173.486 229.358 171.476 230.99 168.459 231.891 164.992 232.395 161.467 232.897 157.941 232.999 154.353 233 151.086 233 148.747 232.947 146.572 232.947 144.717ZM200.362 176.388 200.363 176.388C199.924 176.386 199.469 176.3 199.038 176.139 198.391 175.899 197.805 175.492 197.401 175.001 197.198 174.755 197.04 174.489 196.932 174.212 196.825 173.934 196.768 173.645 196.768 173.337 196.768 173.256 196.772 173.174 196.78 173.09 196.827 172.623 196.939 172.249 197.088 171.947 197.313 171.495 197.617 171.194 197.975 170.989 198.332 170.784 198.751 170.692 199.175 170.692L218.122 170.692C217.917 170.928 217.734 171.197 217.588 171.502 217.372 171.949 217.228 172.467 217.169 173.051 217.156 173.183 217.15 173.314 217.15 173.443 217.15 174.061 217.297 174.645 217.554 175.165 217.785 175.631 218.103 176.046 218.479 176.399L200.362 176.388ZM230.025 164.555C229.515 166.734 228.798 168.798 227.803 170.635 226.808 172.471 225.541 174.08 223.917 175.374 223.508 175.701 223.148 175.955 222.768 176.125 222.387 176.295 221.981 176.398 221.407 176.4L220.817 176.399C220.282 176.248 219.786 175.98 219.382 175.628 219.056 175.345 218.793 175.01 218.611 174.642 218.43 174.274 218.329 173.873 218.329 173.443 218.329 173.353 218.333 173.262 218.342 173.168 218.388 172.706 218.499 172.325 218.649 172.013 218.876 171.546 219.187 171.228 219.548 171.015 219.908 170.802 220.322 170.699 220.735 170.7 221.152 170.698 221.566 170.806 221.908 170.998 222.251 171.191 222.52 171.463 222.683 171.801 222.769 171.979 222.822 172.217 222.822 172.458 222.822 172.654 222.787 172.85 222.723 173.014 222.659 173.179 222.569 173.308 222.464 173.398 222.266 173.564 222.064 173.627 221.861 173.628 221.684 173.628 221.507 173.575 221.359 173.479 221.21 173.384 221.095 173.251 221.027 173.092L219.943 173.557C220.109 173.944 220.387 174.256 220.722 174.471 221.057 174.686 221.451 174.806 221.861 174.806 222.33 174.808 222.822 174.642 223.228 174.295 223.506 174.057 223.698 173.757 223.821 173.441 223.944 173.124 224 172.789 224 172.458 224 172.055 223.918 171.653 223.745 171.291 223.467 170.713 223.012 170.267 222.485 169.971 221.967 169.681 221.377 169.53 220.777 169.522L220.777 169.513 203.513 169.513C205.036 166.175 205.921 162.929 206.425 159.826 206.962 156.516 207.069 153.368 207.069 150.435 207.069 148.748 207.035 147.136 207.024 145.6L231.183 145.6C231.195 147.271 231.232 149.126 231.232 151.086 231.233 155.39 231.046 160.197 230.025 164.555Z" fill="#4B4B4B"/><path d="M219.579 155.978C219.786 153.668 219.796 151.456 219.775 149.365L210.619 149.365C210.64 151.456 210.629 153.668 210.422 155.978L219.579 155.978Z" fill="#4B4B4B"/></g></g></g><path d="M146.512 161.167 149.177 161.261 149.153 161.928 146.488 161.833ZM151.176 161.332 153.585 161.417 153.861 161.445 153.795 162.108 153.53 162.082 153.551 162.083 151.152 161.998ZM155.851 161.642 158.504 161.905 158.439 162.568 155.785 162.305ZM160.495 162.102 160.543 162.107 163.148 162.533 163.04 163.191 160.446 162.767 160.467 162.769 160.429 162.765ZM165.121 162.856 167.438 163.235 167.769 163.309 167.623 163.96 167.302 163.888 167.321 163.892 165.014 163.514ZM169.72 163.747 172.322 164.331 172.176 164.981 169.574 164.397ZM174.299 164.788 176.839 165.601 176.635 166.236 174.096 165.423ZM178.743 166.211 181.283 167.025 181.08 167.659 178.54 166.846ZM183.188 167.634 185.727 168.448 185.524 169.083 182.984 168.269ZM187.635 169.131 190.098 170.153 189.842 170.769 187.379 169.747ZM191.945 170.92 192.765 171.26 194.372 172.082 194.069 172.675 192.473 171.859 192.497 171.87 191.69 171.535ZM196.153 172.992 198.286 174.083 198.537 174.232 198.197 174.805 197.955 174.662 197.973 174.672 195.85 173.586ZM200.258 175.251 202.552 176.611 202.212 177.184 199.918 175.825ZM204.248 177.718 206.424 179.259 206.039 179.803 203.863 178.262ZM208.068 180.45 210.091 182.188 209.656 182.694 207.634 180.956ZM211.608 183.492 211.917 183.757 213.507 185.406 213.027 185.869 211.448 184.232 211.47 184.253 211.173 183.997ZM214.896 186.845 215.38 187.346 216.583 188.959 216.048 189.358 214.858 187.762 214.885 187.794 214.416 187.308ZM217.778 190.563 218.157 191.071 219.137 192.909 218.549 193.222 217.581 191.407 217.608 191.449 217.244 190.961ZM220.079 194.673 220.183 194.869 220.963 197.247 220.329 197.455 219.558 195.104 219.581 195.157 219.49 194.987ZM221.508 199.234 221.807 201.884 221.145 201.959 220.846 199.309ZM222.032 203.872 222.331 206.521 221.668 206.596 221.369 203.946ZM222.939 208.356 223.567 210.271 223.544 210.218 223.85 210.792 223.262 211.106 222.942 210.506 222.305 208.563ZM224.792 212.557 225.544 213.968 225.517 213.926 226.155 214.781 225.621 215.18 224.968 214.304 224.203 212.871ZM227.351 216.385 228.267 217.613 228.238 217.579 229.032 218.388 228.557 218.855 227.746 218.03 226.817 216.783ZM230.434 219.815 231.675 221.079 231.655 221.06 232.334 221.643 231.899 222.149 231.21 221.556 229.958 220.282ZM233.85 222.947 235.655 224.497 235.63 224.478 235.865 224.644 235.479 225.188 235.232 225.013 233.416 223.452ZM237.497 225.8 239.673 227.342 239.288 227.886 237.111 226.344ZM241.346 228.385 243.64 229.744 243.3 230.318 241.006 228.958ZM245.349 230.742 247.723 231.956 247.42 232.549 245.046 231.335ZM249.504 232.866 250.652 233.453 250.631 233.443 251.898 233.983 251.637 234.596 250.359 234.052 249.201 233.46ZM253.738 234.766 256.192 235.81 255.931 236.423 253.477 235.379ZM258.058 236.431 260.601 237.233 260.401 237.869 257.857 237.067ZM262.509 237.834 265.052 238.636 264.851 239.272 262.308 238.47ZM266.959 239.237 269.163 239.932 269.135 239.925 269.483 240.003 269.337 240.653 268.976 240.572 266.759 239.873ZM271.435 240.441 274.037 241.024 273.891 241.675 271.289 241.091ZM275.971 241.448 278.603 241.879 278.495 242.537 275.863 242.106ZM280.576 242.202 282.679 242.546 282.658 242.543 283.192 242.596 283.126 243.26 282.582 243.206 280.469 242.86ZM285.182 242.793 287.835 243.056 287.77 243.72 285.116 243.457ZM289.806 243.238 292.471 243.332 292.447 243.998 289.782 243.904ZM294.469 243.403 295.977 243.456 295.954 244.122 294.446 244.069ZM288.314 238.561 296.627 243.813 287.963 248.464C287.801 248.551 287.599 248.49 287.512 248.328 287.425 248.165 287.486 247.963 287.648 247.876L295.808 243.496 295.787 244.071 287.958 239.124C287.802 239.026 287.755 238.82 287.854 238.664 287.952 238.509 288.158 238.462 288.314 238.561Z"/><g clip-path="url(#clip22)"><g clip-path="url(#clip23)"><g clip-path="url(#clip24)"><path d="M239.805 210.415 256.17 210.415 256.17 211.79 239.805 211.79Z" fill="#4472C4"/><path d="M238.394 215.85 254.759 215.85 254.759 217.225 238.394 217.225Z" fill="#4472C4"/><path d="M262.947 195.717 262.947 194.832 235.251 194.832 235.251 195.717C235.251 197.543 235.302 199.452 235.302 201.435 235.302 204.326 235.195 207.372 234.68 210.543 234.189 213.558 233.331 216.687 231.841 219.914L229.175 219.914C228.704 219.914 228.228 219.989 227.769 220.149 227.082 220.387 226.431 220.823 225.938 221.463 225.444 222.103 225.118 222.934 225.021 223.914 225.007 224.055 225 224.197 225 224.337 224.999 225.047 225.182 225.717 225.49 226.304 225.953 227.187 226.684 227.889 227.533 228.378 228.383 228.867 229.359 229.149 230.352 229.156L251.407 229.168C252.208 229.17 252.903 229.006 253.495 228.737 254.087 228.47 254.57 228.114 255.019 227.757 256.853 226.296 258.27 224.486 259.358 222.476 260.99 219.459 261.891 215.992 262.395 212.467 262.897 208.941 262.999 205.353 263 202.086 263 199.747 262.947 197.572 262.947 195.717ZM230.362 227.388 230.363 227.388C229.924 227.386 229.469 227.3 229.038 227.139 228.391 226.899 227.805 226.492 227.401 226.001 227.198 225.755 227.04 225.489 226.932 225.212 226.825 224.934 226.768 224.645 226.768 224.337 226.768 224.256 226.772 224.174 226.78 224.09 226.827 223.623 226.939 223.249 227.088 222.947 227.313 222.495 227.617 222.194 227.975 221.989 228.332 221.784 228.751 221.692 229.175 221.692L248.122 221.692C247.917 221.928 247.734 222.197 247.588 222.502 247.372 222.949 247.228 223.467 247.169 224.051 247.156 224.183 247.15 224.314 247.15 224.443 247.15 225.061 247.297 225.645 247.554 226.165 247.785 226.631 248.103 227.046 248.479 227.399L230.362 227.388ZM260.025 215.555C259.515 217.734 258.798 219.798 257.803 221.635 256.808 223.471 255.541 225.08 253.917 226.374 253.508 226.701 253.148 226.955 252.768 227.125 252.387 227.295 251.981 227.398 251.407 227.4L250.817 227.399C250.282 227.248 249.786 226.98 249.382 226.628 249.056 226.345 248.793 226.01 248.611 225.642 248.43 225.274 248.329 224.873 248.329 224.443 248.329 224.353 248.333 224.262 248.342 224.168 248.388 223.706 248.499 223.325 248.649 223.013 248.876 222.546 249.187 222.228 249.548 222.015 249.908 221.802 250.322 221.699 250.735 221.7 251.152 221.698 251.566 221.806 251.908 221.998 252.251 222.191 252.52 222.463 252.683 222.801 252.769 222.979 252.822 223.217 252.822 223.458 252.822 223.654 252.787 223.85 252.723 224.014 252.659 224.179 252.569 224.308 252.464 224.398 252.266 224.564 252.064 224.627 251.861 224.628 251.684 224.628 251.507 224.575 251.359 224.479 251.21 224.384 251.095 224.251 251.027 224.092L249.943 224.557C250.109 224.944 250.387 225.256 250.722 225.471 251.057 225.686 251.451 225.806 251.861 225.806 252.33 225.808 252.822 225.642 253.228 225.295 253.506 225.057 253.698 224.757 253.821 224.441 253.944 224.124 254 223.789 254 223.458 254 223.055 253.918 222.653 253.745 222.291 253.467 221.713 253.012 221.267 252.485 220.971 251.967 220.681 251.377 220.53 250.777 220.522L250.777 220.513 233.513 220.513C235.036 217.175 235.921 213.929 236.425 210.826 236.962 207.516 237.069 204.368 237.069 201.435 237.069 199.748 237.035 198.136 237.024 196.6L261.183 196.6C261.195 198.271 261.232 200.126 261.232 202.086 261.233 206.39 261.046 211.197 260.025 215.555Z" fill="#4472C4"/><path d="M249.579 206.978C249.786 204.668 249.796 202.456 249.775 200.365L240.619 200.365C240.64 202.456 240.629 204.668 240.422 206.978L249.579 206.978Z" fill="#4472C4"/></g></g></g><path d="M0.011792-0.333125 2.67679-0.238788 2.65321 0.427461-0.011792 0.333125ZM4.67554-0.168036 7.08485-0.0827508 7.36048-0.0554362 7.29474 0.607981 7.02963 0.581708 7.05071 0.583125 4.65195 0.498213ZM9.35073 0.141796 12.0044 0.404772 11.9387 1.06819 9.28499 0.805213ZM13.9947 0.602004 14.0434 0.606834 16.6476 1.03298 16.5399 1.69089 13.9462 1.26646 13.9671 1.26921 13.9289 1.26542ZM18.6213 1.35595 20.9384 1.73512 21.2685 1.80914 21.1226 2.45965 20.802 2.38775 20.8212 2.39146 18.5137 2.01387ZM23.22 2.24686 25.822 2.83049 25.6761 3.481 23.0741 2.89737ZM27.7989 3.28819 30.3386 4.10138 30.1353 4.73629 27.5956 3.92311ZM32.2433 4.71127 34.783 5.52446 34.5797 6.15938 32.04 5.34619ZM36.6877 6.13435 39.2273 6.94754 39.024 7.58246 36.4844 6.76927ZM41.1346 7.63115 43.5977 8.65307 43.3423 9.26884 40.8792 8.24692ZM45.445 9.41951 46.265 9.75969 47.8724 10.5817 47.5689 11.1753 45.9732 10.3593 45.9973 10.3704 45.1896 10.0353ZM49.6531 11.4923 51.786 12.5829 52.0371 12.7317 51.6972 13.3053 51.4551 13.1618 51.4732 13.1718 49.3496 12.0858ZM53.7577 13.7513 56.0518 15.1108 55.7119 15.6843 53.4178 14.3249ZM57.748 16.2177 59.9241 17.7591 59.5387 18.3031 57.3627 16.7617ZM61.5683 18.9502 63.5908 20.6883 63.1562 21.1939 61.1338 19.4559ZM65.1076 21.9918 65.4166 22.2573 67.007 23.9056 66.5272 24.3685 64.9476 22.7315 64.9702 22.7528 64.6731 22.4974ZM68.3957 25.3448 68.8796 25.8463 70.0825 27.4593 69.548 27.8578 68.3578 26.2618 68.3851 26.294 67.9159 25.8077ZM71.2781 29.0625 71.6573 29.5709 72.6374 31.4087 72.0492 31.7224 71.0809 29.9069 71.1078 29.9493 70.7437 29.4611ZM73.5786 33.1734 73.6827 33.3687 74.4626 35.7473 73.8291 35.955 73.0583 33.6039 73.0809 33.6569 72.9903 33.4871ZM75.0081 37.7343 75.3072 40.3841 74.6448 40.4589 74.3456 37.8091ZM75.5316 42.3715 75.8308 45.0213 75.1683 45.0961 74.8692 42.4463ZM76.4387 46.8555 77.0667 48.7711 77.0441 48.7181 77.3503 49.2923 76.7621 49.606 76.4423 49.0063 75.8052 47.0632ZM78.2915 51.057 79.0441 52.4681 79.0172 52.4257 79.6553 53.2813 79.1209 53.6799 78.4677 52.8041 77.7033 51.3707ZM80.851 54.8846 81.7672 56.1132 81.7378 56.0789 82.5324 56.888 82.0568 57.3551 81.2463 56.5299 80.3165 55.2831ZM83.9338 58.3149 85.1753 59.5789 85.1548 59.5597 85.8335 60.143 85.399 60.6486 84.7096 60.0561 83.4582 58.782ZM87.3503 61.4465 89.1548 62.9972 89.1302 62.978 89.3647 63.1441 88.9794 63.6882 88.7321 63.513 86.9158 61.9521ZM90.9968 64.3002 93.1729 65.8416 92.7875 66.3856 90.6115 64.8442ZM94.8459 66.8846 97.14 68.2441 96.8001 68.8176 94.506 67.4582ZM98.8491 69.2416 101.223 70.4557 100.92 71.0493 98.5455 69.8352ZM103.004 71.3663 104.152 71.9532 104.131 71.9433 105.398 72.4827 105.137 73.0961 103.859 72.5521 102.7 71.9599ZM107.238 73.2658 109.692 74.3099 109.431 74.9234 106.977 73.8792ZM111.558 74.9311 114.101 75.7329 113.901 76.3687 111.357 75.5669ZM116.009 76.3342 118.552 77.1361 118.351 77.7719 115.808 76.97ZM120.459 77.7374 122.663 78.4321 122.635 78.4248 122.983 78.5027 122.837 79.1532 122.476 79.0722 120.259 78.3732ZM124.935 78.9405 127.537 79.5241 127.391 80.1746 124.789 79.591ZM129.471 79.9484 132.103 80.379 131.995 81.0369 129.363 80.6063ZM134.076 80.702 136.179 81.046 136.158 81.0433 136.691 81.0962 136.626 81.7596 136.082 81.7057 133.969 81.3599ZM138.682 81.2934 141.335 81.5564 141.27 82.2198 138.616 81.9568ZM143.306 81.7376 145.971 81.8319 145.947 82.4981 143.282 82.4038ZM147.969 81.9026 149.477 81.956 149.454 82.6223 147.946 82.5689ZM141.814 77.0606 150.127 82.3126 141.463 86.9636C141.301 87.0507 141.099 86.9898 141.012 86.8276 140.925 86.6654 140.985 86.4633 141.148 86.3762L149.308 81.9955 149.287 82.571 141.457 77.6242C141.302 77.5259 141.255 77.32 141.354 77.1644 141.452 77.0087 141.658 76.9623 141.814 77.0606Z" transform="matrix(1 0 0 -1 146.5 325.757)"/><g clip-path="url(#clip25)"><g clip-path="url(#clip26)"><g clip-path="url(#clip27)"><path d="M211.805 282.415 228.17 282.415 228.17 283.79 211.805 283.79Z" fill="#70AD47"/><path d="M210.394 287.85 226.759 287.85 226.759 289.225 210.394 289.225Z" fill="#70AD47"/><path d="M234.947 267.717 234.947 266.832 207.251 266.832 207.251 267.717C207.251 269.543 207.302 271.452 207.302 273.435 207.302 276.326 207.195 279.372 206.68 282.543 206.189 285.558 205.331 288.687 203.841 291.914L201.175 291.914C200.704 291.914 200.228 291.989 199.769 292.149 199.082 292.387 198.431 292.823 197.938 293.463 197.444 294.103 197.118 294.934 197.021 295.914 197.007 296.056 197 296.197 197 296.337 196.999 297.047 197.182 297.717 197.49 298.304 197.953 299.187 198.684 299.889 199.533 300.378 200.383 300.867 201.359 301.149 202.352 301.156L223.407 301.168C224.208 301.17 224.903 301.006 225.495 300.737 226.087 300.47 226.57 300.114 227.019 299.757 228.853 298.296 230.27 296.486 231.358 294.476 232.99 291.459 233.891 287.992 234.395 284.467 234.897 280.941 234.999 277.353 235 274.086 235 271.747 234.947 269.572 234.947 267.717ZM202.362 299.388 202.363 299.388C201.924 299.386 201.469 299.3 201.038 299.139 200.391 298.899 199.805 298.492 199.401 298.001 199.198 297.755 199.04 297.489 198.932 297.212 198.825 296.934 198.768 296.645 198.768 296.337 198.768 296.256 198.772 296.174 198.78 296.09 198.827 295.623 198.939 295.249 199.088 294.947 199.313 294.495 199.617 294.194 199.975 293.988 200.332 293.784 200.751 293.692 201.175 293.692L220.122 293.692C219.917 293.928 219.734 294.197 219.588 294.502 219.372 294.949 219.228 295.467 219.169 296.051 219.156 296.183 219.15 296.314 219.15 296.443 219.15 297.061 219.297 297.645 219.554 298.164 219.785 298.631 220.103 299.046 220.479 299.399L202.362 299.388ZM232.025 287.555C231.515 289.734 230.798 291.798 229.803 293.635 228.808 295.471 227.541 297.08 225.917 298.374 225.508 298.701 225.148 298.955 224.768 299.125 224.387 299.295 223.981 299.398 223.407 299.4L222.817 299.399C222.282 299.248 221.786 298.98 221.382 298.628 221.056 298.345 220.793 298.01 220.611 297.642 220.43 297.274 220.329 296.873 220.329 296.443 220.329 296.353 220.333 296.262 220.342 296.168 220.388 295.706 220.499 295.325 220.649 295.013 220.876 294.546 221.187 294.228 221.548 294.015 221.908 293.802 222.322 293.699 222.735 293.7 223.152 293.698 223.566 293.806 223.908 293.998 224.251 294.191 224.52 294.463 224.683 294.801 224.769 294.979 224.822 295.217 224.822 295.458 224.822 295.654 224.787 295.85 224.723 296.014 224.659 296.179 224.569 296.308 224.464 296.398 224.266 296.564 224.064 296.627 223.861 296.628 223.684 296.628 223.507 296.575 223.359 296.479 223.21 296.384 223.095 296.251 223.027 296.092L221.943 296.557C222.109 296.944 222.387 297.256 222.722 297.471 223.057 297.686 223.451 297.806 223.861 297.806 224.33 297.808 224.822 297.642 225.228 297.295 225.506 297.057 225.698 296.757 225.821 296.441 225.944 296.124 226 295.789 226 295.458 226 295.055 225.918 294.653 225.745 294.291 225.467 293.713 225.012 293.267 224.485 292.971 223.967 292.681 223.377 292.53 222.777 292.522L222.777 292.513 205.513 292.513C207.036 289.175 207.921 285.929 208.425 282.826 208.962 279.516 209.069 276.368 209.069 273.435 209.069 271.748 209.035 270.136 209.024 268.6L233.183 268.6C233.195 270.271 233.232 272.126 233.232 274.086 233.233 278.39 233.046 283.197 232.025 287.555Z" fill="#70AD47"/><path d="M221.579 278.978C221.786 276.668 221.796 274.456 221.775 272.365L212.619 272.365C212.64 274.456 212.629 276.668 212.422 278.978L221.579 278.978Z" fill="#70AD47"/></g></g></g><text font-family="Calibri,Calibri_MSFontService,sans-serif" font-weight="400" font-size="11" transform="translate(219.594 153)">12<tspan font-size="11" x="32.3076" y="54">2</tspan><tspan font-size="11" x="4.95297" y="124">1</tspan></text><rect x="58.5001" y="61.5001" width="604" height="322" stroke="#D9D9D9" stroke-width="1.33333" stroke-miterlimit="8" fill="none"/><text font-family="Yu Gothic,Yu Gothic_MSFontService,sans-serif" font-weight="400" font-size="16" transform="translate(67.2378 81)">図<tspan font-family="Calibri,Calibri_MSFontService,sans-serif" font-size="16" x="16" y="0">1</tspan></text><path d="M376.5 112.5C382.575 112.5 387.5 113.321 387.5 114.333L387.5 233.667C387.5 234.679 392.425 235.5 398.5 235.5 392.425 235.5 387.5 236.321 387.5 237.333L387.5 356.667C387.5 357.679 382.575 358.5 376.5 358.5" stroke="#4472C4" stroke-width="0.666667" stroke-miterlimit="8" fill="none" fill-rule="evenodd"/><text font-family="Yu Gothic,Yu Gothic_MSFontService,sans-serif" font-weight="400" font-size="16" transform="translate(122.224 118)">モデル化対象の概要スケッチ</text><path d="M360.5 225.25 362.094 225.25 362.094 250.75 360.5 250.75ZM363.688 225.25 366.875 225.25 366.875 250.75 363.688 250.75ZM368.469 225.25 407 225.25 407 212.5 432.5 238 407 263.5 407 250.75 368.469 250.75Z" stroke="#2F528F" stroke-width="1.33333" stroke-miterlimit="8" stroke-opacity="0.501961" fill="#4472C4" fill-rule="evenodd" fill-opacity="0.501961"/><text font-family="Yu Gothic,Yu Gothic_MSFontService,sans-serif" font-weight="400" font-size="16" transform="translate(480.01 118)">大体こんな感じ？</text><path d="M460.5 161.5 628.5 161.5 628.5 283.166 604.166 307.5 460.5 307.5Z" fill="#FFFFFF" fill-rule="evenodd"/><path d="M604.166 307.5 609.033 288.033 628.5 283.166Z" fill="#CDCDCD" fill-rule="evenodd"/><path d="M604.166 307.5 609.033 288.033 628.5 283.166 604.166 307.5 460.5 307.5 460.5 161.5 628.5 161.5 628.5 283.166" stroke="#4472C4" stroke-width="1.33333" stroke-miterlimit="8" fill="none" fill-rule="evenodd"/><text font-family="Yu Gothic,Yu Gothic_MSFontService,sans-serif" font-weight="400" font-size="16" transform="translate(469.635 181)">クラス候補<tspan font-family="Arial,Arial_MSFontService,sans-serif" font-size="16" x="0" y="19">•</tspan><tspan font-size="16" x="18" y="19">顧客</tspan><tspan font-family="Arial,Arial_MSFontService,sans-serif" font-size="16" x="0" y="38">•</tspan><tspan font-size="16" x="18" y="38">商品</tspan><tspan font-size="16" x="0" y="77">関係</tspan><tspan font-family="Arial,Arial_MSFontService,sans-serif" font-size="16" x="0" y="96">•</tspan><tspan font-size="16" x="18" y="96">注文</tspan></text></g></svg>