<svg width="608" height="559" xmlns="http://www.w3.org/2000/svg" xmlns:xlink="http://www.w3.org/1999/xlink" overflow="hidden"><defs><clipPath id="clip0"><rect x="47" y="29" width="608" height="559"/></clipPath></defs><g clip-path="url(#clip0)" transform="translate(-47 -29)"><rect x="48.5001" y="31.5001" width="605" height="555" stroke="#D9D9D9" stroke-width="1.33333" stroke-miterlimit="8" fill="none"/><text font-family="Yu Gothic,Yu Gothic_MSFontService,sans-serif" font-weight="400" font-size="16" transform="translate(58.0463 50)">図<tspan font-family="Calibri,Calibri_MSFontService,sans-serif" font-size="16" x="16" y="0">10</tspan></text><path d="M273.5 156C273.5 152.41 276.41 149.5 280 149.5L396 149.5C399.59 149.5 402.5 152.41 402.5 156L402.5 182C402.5 185.59 399.59 188.5 396 188.5L280 188.5C276.41 188.5 273.5 185.59 273.5 182Z" stroke="#000000" stroke-width="1.33333" stroke-miterlimit="8" fill="#FFFFFF" fill-rule="evenodd"/><text font-family="Yu Gothic,Yu Gothic_MSFontService,sans-serif" font-weight="400" font-size="13" transform="translate(304.272 173)">引当て待ち</text><path d="M339.167 188.5 339.167 228.764 337.833 228.764 337.833 188.5ZM343.743 221.1 338.5 230.087 333.258 221.1C333.072 220.782 333.18 220.374 333.498 220.188 333.816 220.003 334.224 220.11 334.409 220.428L339.076 228.428 337.924 228.428 342.591 220.428C342.776 220.11 343.185 220.003 343.503 220.188 343.821 220.374 343.928 220.782 343.743 221.1Z"/><text font-family="Yu Gothic,Yu Gothic_MSFontService,sans-serif" font-weight="400" font-size="13" transform="translate(249.025 216)">在庫引当完了</text><path d="M273.5 237C273.5 233.41 276.41 230.5 280 230.5L396 230.5C399.59 230.5 402.5 233.41 402.5 237L402.5 263C402.5 266.59 399.59 269.5 396 269.5L280 269.5C276.41 269.5 273.5 266.59 273.5 263Z" stroke="#000000" stroke-width="1.33333" stroke-miterlimit="8" fill="#FFFFFF" fill-rule="evenodd"/><text font-family="Yu Gothic,Yu Gothic_MSFontService,sans-serif" font-weight="400" font-size="13" transform="translate(310.939 254)">決済待ち</text><path d="M273.5 389C273.5 385.41 276.41 382.5 280 382.5L396 382.5C399.59 382.5 402.5 385.41 402.5 389L402.5 415C402.5 418.59 399.59 421.5 396 421.5L280 421.5C276.41 421.5 273.5 418.59 273.5 415Z" stroke="#000000" stroke-width="1.33333" stroke-miterlimit="8" fill="#FFFFFF" fill-rule="evenodd"/><text font-family="Yu Gothic,Yu Gothic_MSFontService,sans-serif" font-weight="400" font-size="13" transform="translate(297.605 405)">注文処理完了</text><path d="M339.167 269.5 339.167 304.124 337.833 304.124 337.833 269.5ZM343.743 296.46 338.5 305.447 333.258 296.46C333.072 296.142 333.18 295.734 333.498 295.548 333.816 295.363 334.224 295.47 334.409 295.788L339.076 303.788 337.924 303.788 342.591 295.788C342.776 295.47 343.185 295.363 343.503 295.548 343.821 295.734 343.928 296.142 343.743 296.46Z"/><text font-family="Yu Gothic,Yu Gothic_MSFontService,sans-serif" font-weight="400" font-size="13" transform="translate(273.964 288)">決済完了</text><path d="M339.167 108.5 339.167 148.764 337.833 148.764 337.833 108.5ZM331.833 108.5C331.833 104.818 334.818 101.833 338.5 101.833 342.182 101.833 345.167 104.818 345.167 108.5 345.167 112.182 342.182 115.167 338.5 115.167 334.818 115.167 331.833 112.182 331.833 108.5ZM343.743 141.1 338.5 150.087 333.258 141.1C333.072 140.782 333.18 140.374 333.498 140.188 333.816 140.003 334.224 140.11 334.409 140.428L339.076 148.428 337.924 148.428 342.591 140.428C342.776 140.11 343.185 140.003 343.503 140.188 343.821 140.374 343.928 140.782 343.743 141.1Z"/><text font-family="Yu Gothic,Yu Gothic_MSFontService,sans-serif" font-weight="400" font-size="13" transform="translate(310.584 93)">注文発生</text><path d="M339.167 421.5 339.167 443.958 337.833 443.958 337.833 421.5ZM343.743 436.293 338.5 445.281 333.258 436.293C333.072 435.975 333.18 435.567 333.498 435.382 333.816 435.196 334.224 435.304 334.409 435.622L339.076 443.622 337.924 443.622 342.591 435.622C342.776 435.304 343.185 435.196 343.503 435.382 343.821 435.567 343.928 435.975 343.743 436.293Z"/><path d="M327.5 456C327.5 450.201 332.201 445.5 338 445.5 343.799 445.5 348.5 450.201 348.5 456 348.5 461.799 343.799 466.5 338 466.5 332.201 466.5 327.5 461.799 327.5 456Z" stroke="#000000" stroke-width="1.33333" stroke-miterlimit="8" fill="none" fill-rule="evenodd"/><path d="M331.5 456C331.5 451.858 334.634 448.5 338.5 448.5 342.366 448.5 345.5 451.858 345.5 456 345.5 460.142 342.366 463.5 338.5 463.5 334.634 463.5 331.5 460.142 331.5 456Z" stroke="#000000" stroke-width="1.33333" stroke-miterlimit="8" fill-rule="evenodd"/><path d="M273.5 312C273.5 308.41 276.41 305.5 280 305.5L396 305.5C399.59 305.5 402.5 308.41 402.5 312L402.5 338C402.5 341.59 399.59 344.5 396 344.5L280 344.5C276.41 344.5 273.5 341.59 273.5 338Z" stroke="#000000" stroke-width="1.33333" stroke-miterlimit="8" fill="#FFFFFF" fill-rule="evenodd"/><text font-family="Yu Gothic,Yu Gothic_MSFontService,sans-serif" font-weight="400" font-size="13" transform="translate(310.939 329)">配送<tspan font-size="13" x="26.6667" y="0">待ち</tspan></text><path d="M339.167 344.5 339.167 381.048 337.833 381.048 337.833 344.5ZM343.743 373.384 338.5 382.371 333.258 373.384C333.072 373.066 333.18 372.657 333.498 372.472 333.816 372.286 334.224 372.394 334.409 372.712L339.076 380.712 337.924 380.712 342.591 372.712C342.776 372.394 343.185 372.286 343.503 372.472 343.821 372.657 343.928 373.066 343.743 373.384Z"/><text font-family="Yu Gothic,Yu Gothic_MSFontService,sans-serif" font-weight="400" font-size="13" transform="translate(278.818 374)">配送完了<tspan font-size="16" x="-193.056" y="-277">注文クラスの状態モデル</tspan><tspan font-size="13" x="-202.389" y="154">※</tspan><tspan font-size="13" x="-184.389" y="154">このモデルは、あくまでも、説明用に簡略化したサンプルです。</tspan><tspan font-size="13" x="-202.389" y="170">※</tspan><tspan font-size="13" x="-184.389" y="170">実際に</tspan>は、要求キャンセルや、それぞれのビジネスシナリオに対応する様々な振舞要件を<tspan font-size="13" x="-184.389" y="186">含むようにモデル化しなければなりません。</tspan></text></g></svg>