<svg width="608" height="525" xmlns="http://www.w3.org/2000/svg" xmlns:xlink="http://www.w3.org/1999/xlink" overflow="hidden"><defs><clipPath id="clip0"><rect x="56" y="39" width="608" height="525"/></clipPath></defs><g clip-path="url(#clip0)" transform="translate(-56 -39)"><rect x="58.5001" y="41.5001" width="604" height="522" stroke="#D9D9D9" stroke-width="1.33333" stroke-miterlimit="8" fill="none"/><rect x="123.5" y="110.5" width="126" height="87" stroke="#000000" stroke-width="1.33333" stroke-miterlimit="8" fill="#FFFFFF"/><text font-family="Yu Gothic,Yu Gothic_MSFontService,sans-serif" font-weight="400" font-size="13" transform="translate(172.601 127)">顧客<tspan font-family="Consolas,Consolas_MSFontService,sans-serif" font-size="13" x="-40.2467" y="16">*</tspan><tspan font-size="13" x="-32.9133" y="16">顧客</tspan><tspan font-family="Consolas,Consolas_MSFontService,sans-serif" font-size="13" x="-6.24667" y="16">ID</tspan><tspan font-size="13" x="-26.9133" y="32">顧客名</tspan><tspan font-size="13" x="-26.9133" y="48">住所</tspan></text><rect x="437.5" y="110.5" width="126" height="87" stroke="#000000" stroke-width="1.33333" stroke-miterlimit="8" fill="#FFFFFF"/><text font-family="Yu Gothic,Yu Gothic_MSFontService,sans-serif" font-weight="400" font-size="13" transform="translate(473.508 127)">商品仕様<tspan font-family="Consolas,Consolas_MSFontService,sans-serif" font-size="13" x="-26.9133" y="16">*</tspan><tspan font-size="13" x="-19.58" y="16">商品コード</tspan><tspan font-size="13" x="-13.58" y="32">商品名</tspan><tspan font-size="13" x="-13.58" y="48">単価</tspan><tspan font-size="13" x="-13.58" y="64">在庫数</tspan><tspan font-family="Consolas,Consolas_MSFontService,sans-serif" font-size="13" x="26.42" y="64">(M)</tspan></text><path d="M249.5 153.5 437.294 153.5" stroke="#000000" stroke-width="0.666667" stroke-miterlimit="8" fill="none" fill-rule="evenodd"/><path d="M0 0 6.11895 48.0202" stroke="#000000" stroke-width="2" stroke-miterlimit="8" stroke-dasharray="2 2" fill="none" fill-rule="evenodd" transform="matrix(1 0 0 -1 337 203.02)"/><text font-family="Yu Gothic,Yu Gothic_MSFontService,sans-serif" font-weight="400" font-size="11" transform="translate(260.587 146)">発注者<tspan font-family="Calibri,Calibri_MSFontService,sans-serif" font-size="11" x="-3.70013" y="20">*</tspan><tspan font-family="Calibri,Calibri_MSFontService,sans-serif" font-size="11" x="158.002" y="5">*</tspan><tspan font-size="11" x="125.323" y="20">購入予約</tspan></text><rect x="274.5" y="203.5" width="126" height="87" stroke="#000000" stroke-width="1.33333" stroke-miterlimit="8" fill="#FFFFFF"/><text font-family="Yu Gothic,Yu Gothic_MSFontService,sans-serif" font-weight="400" font-size="13" transform="translate(323.584 220)">注文<tspan font-family="Consolas,Consolas_MSFontService,sans-serif" font-size="13" x="-40.2466" y="16">*</tspan><tspan font-size="13" x="-32.9133" y="16">注文</tspan><tspan font-family="Consolas,Consolas_MSFontService,sans-serif" font-size="13" x="-6.24664" y="16">ID</tspan><tspan font-size="13" x="-26.9133" y="32">個数</tspan><tspan font-size="13" x="-26.9133" y="48">金額</tspan><tspan font-size="16" x="-256.346" y="-160">図</tspan><tspan font-family="Calibri,Calibri_MSFontService,sans-serif" font-size="16" x="-240.346" y="-160">11</tspan><tspan font-family="Calibri,Calibri_MSFontService,sans-serif" font-size="13" x="9.27377" y="-77">R1</tspan></text><rect x="437.5" y="269.5" width="126" height="87" stroke="#000000" stroke-width="1.33333" stroke-miterlimit="8" fill="#FFFFFF"/><text font-family="Yu Gothic,Yu Gothic_MSFontService,sans-serif" font-weight="400" font-size="13" transform="translate(473.508 285)">在庫<tspan font-size="13" x="26.6667" y="0">商品</tspan><tspan font-family="Consolas,Consolas_MSFontService,sans-serif" font-size="13" x="-26.9134" y="16">*</tspan><tspan font-size="13" x="-19.58" y="16">商品</tspan><tspan font-family="Consolas,Consolas_MSFontService,sans-serif" font-size="13" x="7.08664" y="16">ID</tspan><tspan font-size="13" x="-19.58" y="32">仕入れ日</tspan></text><path d="M0 0 0.000104987 71.8165" stroke="#000000" stroke-width="0.666667" stroke-miterlimit="8" fill="none" fill-rule="evenodd" transform="matrix(1 0 0 -1 500.5 269.317)"/><text font-family="Calibri,Calibri_MSFontService,sans-serif" font-weight="400" font-size="13" transform="translate(509.101 238)">R5<tspan font-size="11" x="-25.131" y="-28">1</tspan><tspan font-size="11" x="-29.1768" y="23">*</tspan><tspan font-family="Yu Gothic,Yu Gothic_MSFontService,sans-serif" font-size="11" x="3.4632" y="22">現品</tspan><tspan font-family="Yu Gothic,Yu Gothic_MSFontService,sans-serif" font-size="11" x="1.41754" y="-24">仕様</tspan></text><rect x="123.5" y="319.5" width="126" height="146" stroke="#000000" stroke-width="1.33333" stroke-miterlimit="8" fill="#FFFFFF"/><text font-family="Yu Gothic,Yu Gothic_MSFontService,sans-serif" font-weight="400" font-size="13" transform="translate(159.268 335)">注文履歴<tspan font-family="Consolas,Consolas_MSFontService,sans-serif" font-size="13" x="-26.9133" y="16">*</tspan><tspan font-size="13" x="-19.58" y="16">顧客</tspan><tspan font-family="Consolas,Consolas_MSFontService,sans-serif" font-size="13" x="7.08667" y="16">ID</tspan><tspan font-family="Consolas,Consolas_MSFontService,sans-serif" font-size="13" x="-26.9133" y="32">*</tspan><tspan font-size="13" x="-19.58" y="32">注文</tspan><tspan font-family="Consolas,Consolas_MSFontService,sans-serif" font-size="13" x="7.08667" y="32">ID</tspan><tspan font-size="13" x="-13.58" y="48">注文発生日時</tspan><tspan font-size="13" x="-13.58" y="64">注文完了日時</tspan><tspan font-size="13" x="-13.58" y="80">商品コード</tspan><tspan font-size="13" x="-13.58" y="96">個数</tspan><tspan font-size="13" x="-13.58" y="112">金額</tspan></text><path d="M186.5 197.5 186.5 319.209" stroke="#000000" stroke-width="0.666667" stroke-miterlimit="8" fill="none" fill-rule="evenodd"/><text font-family="Calibri,Calibri_MSFontService,sans-serif" font-weight="400" font-size="13" transform="translate(162.388 259)">R11<tspan font-size="11" x="14.6473" y="-50">1</tspan><tspan font-size="11" x="32.1687" y="58">*</tspan><tspan font-family="Yu Gothic,Yu Gothic_MSFontService,sans-serif" font-size="13" x="-81.0751" y="257">※</tspan><tspan font-family="Yu Gothic,Yu Gothic_MSFontService,sans-serif" font-size="13" x="-63.0751" y="257">注文完了時点で、注文のインスタンスは削除されてしまうので、参照が必要な情報は全て</tspan><tspan font-family="Yu Gothic,Yu Gothic_MSFontService,sans-serif" font-size="13" x="-63.0751" y="273">注文履歴クラスの特徴値として定義している</tspan></text></g></svg>