<svg width="608" height="299" xmlns="http://www.w3.org/2000/svg" xmlns:xlink="http://www.w3.org/1999/xlink" overflow="hidden"><defs><clipPath id="clip0"><rect x="56" y="656" width="608" height="299"/></clipPath></defs><g clip-path="url(#clip0)" transform="translate(-56 -656)"><rect x="58.5001" y="657.5" width="604" height="297" stroke="#D9D9D9" stroke-width="1.33333" stroke-miterlimit="8" fill="none"/><rect x="146.5" y="725.5" width="126" height="88" stroke="#000000" stroke-width="1.33333" stroke-miterlimit="8" fill="#FFFFFF"/><text font-family="Yu Gothic,Yu Gothic_MSFontService,sans-serif" font-weight="400" font-size="13" transform="translate(195.641 742)">顧客<tspan font-family="Consolas,Consolas_MSFontService,sans-serif" font-size="13" x="-40.2467" y="16">*</tspan><tspan font-size="13" x="-32.9133" y="16">顧客</tspan><tspan font-family="Consolas,Consolas_MSFontService,sans-serif" font-size="13" x="-6.24666" y="16">ID</tspan><tspan font-size="13" x="-26.9133" y="32">顧客名</tspan><tspan font-size="13" x="-26.9133" y="48">住所</tspan></text><rect x="460.5" y="725.5" width="126" height="88" stroke="#000000" stroke-width="1.33333" stroke-miterlimit="8" fill="#FFFFFF"/><text font-family="Yu Gothic,Yu Gothic_MSFontService,sans-serif" font-weight="400" font-size="13" transform="translate(509.881 742)">商品<tspan font-family="Consolas,Consolas_MSFontService,sans-serif" font-size="13" x="-40.2466" y="16">*</tspan><tspan font-size="13" x="-32.9133" y="16">商品コード</tspan><tspan font-size="13" x="-26.9133" y="32">商品名</tspan><tspan font-size="13" x="-26.9133" y="48">金額</tspan></text><path d="M272.5 769.5 460.294 769.5" stroke="#000000" stroke-width="0.666667" stroke-miterlimit="8" fill="none" fill-rule="evenodd"/><path d="M0 0 6.11895 48.0202" stroke="#000000" stroke-width="2" stroke-miterlimit="8" stroke-dasharray="2 2" fill="none" fill-rule="evenodd" transform="matrix(1 0 0 -1 360 819.02)"/><text font-family="Yu Gothic,Yu Gothic_MSFontService,sans-serif" font-weight="400" font-size="11" transform="translate(283.627 761)">発注者<tspan font-family="Calibri,Calibri_MSFontService,sans-serif" font-size="11" x="-3.70016" y="21">*</tspan><tspan font-family="Calibri,Calibri_MSFontService,sans-serif" font-size="11" x="158.002" y="6">*</tspan><tspan font-size="11" x="125.323" y="21">購入予約</tspan></text><rect x="297.5" y="819.5" width="126" height="87" stroke="#000000" stroke-width="1.33333" stroke-miterlimit="8" fill="#FFFFFF"/><text font-family="Yu Gothic,Yu Gothic_MSFontService,sans-serif" font-weight="400" font-size="13" transform="translate(346.624 836)">注文<tspan font-family="Consolas,Consolas_MSFontService,sans-serif" font-size="13" x="-40.2467" y="16">*</tspan><tspan font-size="13" x="-32.9133" y="16">注文</tspan><tspan font-family="Consolas,Consolas_MSFontService,sans-serif" font-size="13" x="-6.24667" y="16">ID</tspan><tspan font-size="13" x="-26.9133" y="32">個数</tspan><tspan font-size="13" x="-26.9133" y="48">金額</tspan><tspan font-size="16" x="-279.386" y="-159">図</tspan><tspan font-family="Calibri,Calibri_MSFontService,sans-serif" font-size="16" x="-263.386" y="-159">2</tspan><tspan font-family="Calibri,Calibri_MSFontService,sans-serif" font-size="13" x="9.27374" y="-78">R1</tspan></text></g></svg>