<svg width="608" height="566" xmlns="http://www.w3.org/2000/svg" xmlns:xlink="http://www.w3.org/1999/xlink" overflow="hidden"><defs><clipPath id="clip0"><rect x="56" y="459" width="608" height="566"/></clipPath></defs><g clip-path="url(#clip0)" transform="translate(-56 -459)"><rect x="58.5001" y="460.5" width="604" height="563" stroke="#D9D9D9" stroke-width="1.33333" stroke-miterlimit="8" fill="none"/><rect x="123.5" y="529.5" width="126" height="87" stroke="#000000" stroke-width="1.33333" stroke-miterlimit="8" fill="#FFFFFF"/><text font-family="Yu Gothic,Yu Gothic_MSFontService,sans-serif" font-weight="400" font-size="13" transform="translate(172.601 546)">顧客<tspan font-family="Consolas,Consolas_MSFontService,sans-serif" font-size="13" x="-40.2467" y="16">*</tspan><tspan font-size="13" x="-32.9133" y="16">顧客</tspan><tspan font-family="Consolas,Consolas_MSFontService,sans-serif" font-size="13" x="-6.24667" y="16">ID</tspan><tspan font-size="13" x="-26.9133" y="32">顧客名</tspan><tspan font-size="13" x="-26.9133" y="48">住所</tspan></text><rect x="437.5" y="529.5" width="126" height="87" stroke="#000000" stroke-width="1.33333" stroke-miterlimit="8" fill="#FFFFFF"/><text font-family="Yu Gothic,Yu Gothic_MSFontService,sans-serif" font-weight="400" font-size="13" transform="translate(473.508 546)">商品仕様<tspan font-family="Consolas,Consolas_MSFontService,sans-serif" font-size="13" x="-26.9133" y="16">*</tspan><tspan font-size="13" x="-19.58" y="16">商品コード</tspan><tspan font-size="13" x="-13.58" y="32">商品名</tspan><tspan font-size="13" x="-13.58" y="48">単価</tspan></text><path d="M249.5 573.5 437.294 573.5" stroke="#000000" stroke-width="0.666667" stroke-miterlimit="8" fill="none" fill-rule="evenodd"/><path d="M0 0 6.11895 48.0202" stroke="#000000" stroke-width="2" stroke-miterlimit="8" stroke-dasharray="2 2" fill="none" fill-rule="evenodd" transform="matrix(1 0 0 -1 337 623.02)"/><text font-family="Yu Gothic,Yu Gothic_MSFontService,sans-serif" font-weight="400" font-size="11" transform="translate(260.587 565)">発注者<tspan font-family="Calibri,Calibri_MSFontService,sans-serif" font-size="11" x="-3.70013" y="21">*</tspan><tspan font-family="Calibri,Calibri_MSFontService,sans-serif" font-size="11" x="158.002" y="6">*</tspan><tspan font-size="11" x="125.323" y="21">購入予約</tspan></text><rect x="274.5" y="623.5" width="126" height="87" stroke="#000000" stroke-width="1.33333" stroke-miterlimit="8" fill="#FFFFFF"/><text font-family="Yu Gothic,Yu Gothic_MSFontService,sans-serif" font-weight="400" font-size="13" transform="translate(323.584 639)">注文<tspan font-family="Consolas,Consolas_MSFontService,sans-serif" font-size="13" x="-40.2466" y="16">*</tspan><tspan font-size="13" x="-32.9133" y="16">注文</tspan><tspan font-family="Consolas,Consolas_MSFontService,sans-serif" font-size="13" x="-6.24664" y="16">ID</tspan><tspan font-size="13" x="-26.9133" y="32">個数</tspan><tspan font-size="13" x="-26.9133" y="48">金額</tspan><tspan font-size="16" x="-256.346" y="-159">図</tspan><tspan font-family="Calibri,Calibri_MSFontService,sans-serif" font-size="16" x="-240.346" y="-159">6</tspan><tspan font-family="Calibri,Calibri_MSFontService,sans-serif" font-size="13" x="9.27377" y="-77">R1</tspan></text><rect x="519.5" y="900.5" width="126" height="87" stroke="#000000" stroke-width="1.33333" stroke-miterlimit="8" fill="#FFFFFF"/><text font-family="Yu Gothic,Yu Gothic_MSFontService,sans-serif" font-weight="400" font-size="13" transform="translate(555.205 917)">在庫<tspan font-size="13" x="26.6666" y="0">商品</tspan><tspan font-family="Consolas,Consolas_MSFontService,sans-serif" font-size="13" x="-26.9133" y="16">*</tspan><tspan font-size="13" x="-19.58" y="16">商品</tspan><tspan font-family="Consolas,Consolas_MSFontService,sans-serif" font-size="13" x="7.08667" y="16">ID</tspan><tspan font-size="13" x="-19.58" y="32">仕入れ日</tspan></text><path d="M582.5 899.718 582.5 830.5" stroke="#000000" stroke-width="0.666667" stroke-miterlimit="8" fill="none" fill-rule="evenodd"/><text font-family="Calibri,Calibri_MSFontService,sans-serif" font-weight="400" font-size="13" transform="translate(590.799 869)">R5<tspan font-size="11" x="-25.131" y="-28">1</tspan><tspan font-size="11" x="-29.1768" y="23">*</tspan><tspan font-family="Yu Gothic,Yu Gothic_MSFontService,sans-serif" font-size="11" x="3.4632" y="22">現品</tspan><tspan font-family="Yu Gothic,Yu Gothic_MSFontService,sans-serif" font-size="11" x="1.41754" y="-24">仕様</tspan></text><path d="M500.5 631.5 508.5 617.5 516.5 631.5Z" stroke="#000000" stroke-width="1.33333" stroke-miterlimit="8" fill="none" fill-rule="evenodd"/><path d="M508.721 631.5 508.721 687.807 440.5 687.807 440.5 744.115" stroke="#000000" stroke-width="0.666667" stroke-miterlimit="8" fill="none" fill-rule="evenodd"/><text font-family="Calibri,Calibri_MSFontService,sans-serif" font-weight="400" font-size="8" transform="translate(437.115 653)">{complete, disjoint}</text><rect x="377.5" y="743.5" width="126" height="87" stroke="#000000" stroke-width="1.33333" stroke-miterlimit="8" fill="#FFFFFF"/><text font-family="Yu Gothic,Yu Gothic_MSFontService,sans-serif" font-weight="400" font-size="13" transform="translate(393.075 760)">一品物商品仕様</text><rect x="519.5" y="743.5" width="126" height="87" stroke="#000000" stroke-width="1.33333" stroke-miterlimit="8" fill="#FFFFFF"/><text font-family="Yu Gothic,Yu Gothic_MSFontService,sans-serif" font-weight="400" font-size="13" transform="translate(528.539 760)">在庫管理商品仕様<tspan font-family="Consolas,Consolas_MSFontService,sans-serif" font-size="13" x="-0.246643" y="16">*</tspan><tspan font-size="13" x="7.08667" y="16">商品コード</tspan><tspan font-size="13" x="13.0867" y="32">在庫数</tspan><tspan font-family="Consolas,Consolas_MSFontService,sans-serif" font-size="13" x="53.0867" y="32">(M)</tspan></text><path d="M0 0 56.3072 0 56.3072 73.9525 112.614 73.9525" stroke="#000000" stroke-width="0.666667" stroke-miterlimit="8" fill="none" fill-rule="evenodd" transform="matrix(1.83697e-16 1 1 -1.83697e-16 508.5 631.5)"/><text font-family="Calibri,Calibri_MSFontService,sans-serif" font-weight="400" font-size="13" transform="translate(514.816 655)">R6</text><rect x="377.5" y="901.5" width="126" height="87" stroke="#000000" stroke-width="1.33333" stroke-miterlimit="8" fill="#FFFFFF"/><text font-family="Yu Gothic,Yu Gothic_MSFontService,sans-serif" font-weight="400" font-size="13" transform="translate(426.406 917)">商品<tspan font-family="Consolas,Consolas_MSFontService,sans-serif" font-size="13" x="-40.2467" y="16">*</tspan><tspan font-size="13" x="-32.9133" y="16">商品</tspan><tspan font-family="Consolas,Consolas_MSFontService,sans-serif" font-size="13" x="-6.24667" y="16">ID</tspan></text><path d="M440.541 900.578 440.5 830.5" stroke="#000000" stroke-width="0.666667" stroke-miterlimit="8" fill="none" fill-rule="evenodd"/><text font-family="Calibri,Calibri_MSFontService,sans-serif" font-weight="400" font-size="13" transform="translate(448.666 869)">R4<tspan font-size="11" x="-25.131" y="-27">1</tspan><tspan font-size="11" x="-24.0568" y="24">1</tspan><tspan font-family="Yu Gothic,Yu Gothic_MSFontService,sans-serif" font-size="11" x="3.4632" y="23">現品</tspan><tspan font-family="Yu Gothic,Yu Gothic_MSFontService,sans-serif" font-size="11" x="1.41751" y="-24">仕様</tspan></text></g></svg>