<svg width="608" height="678" xmlns="http://www.w3.org/2000/svg" xmlns:xlink="http://www.w3.org/1999/xlink" overflow="hidden"><defs><clipPath id="clip0"><rect x="56" y="322" width="608" height="678"/></clipPath></defs><g clip-path="url(#clip0)" transform="translate(-56 -322)"><rect x="58.5001" y="324.5" width="604" height="675" stroke="#D9D9D9" stroke-width="1.33333" stroke-miterlimit="8" fill="none"/><rect x="123.5" y="393.5" width="126" height="87" stroke="#000000" stroke-width="1.33333" stroke-miterlimit="8" fill="#FFFFFF"/><text font-family="Yu Gothic,Yu Gothic_MSFontService,sans-serif" font-weight="400" font-size="13" transform="translate(172.601 410)">顧客<tspan font-family="Consolas,Consolas_MSFontService,sans-serif" font-size="13" x="-40.2467" y="16">*</tspan><tspan font-size="13" x="-32.9133" y="16">顧客</tspan><tspan font-family="Consolas,Consolas_MSFontService,sans-serif" font-size="13" x="-6.24667" y="16">ID</tspan><tspan font-size="13" x="-26.9133" y="32">顧客名</tspan><tspan font-size="13" x="-26.9133" y="48">住所</tspan><tspan font-size="13" x="-26.9133" y="64">決済情報</tspan></text><rect x="437.5" y="393.5" width="126" height="87" stroke="#000000" stroke-width="1.33333" stroke-miterlimit="8" fill="#FFFFFF"/><text font-family="Yu Gothic,Yu Gothic_MSFontService,sans-serif" font-weight="400" font-size="13" transform="translate(473.508 410)">商品仕様<tspan font-family="Consolas,Consolas_MSFontService,sans-serif" font-size="13" x="-26.9133" y="16">*</tspan><tspan font-size="13" x="-19.58" y="16">商品コード</tspan><tspan font-size="13" x="-13.58" y="32">商品名</tspan><tspan font-size="13" x="-13.58" y="48">単価</tspan><tspan font-size="13" x="-13.58" y="64">在庫数</tspan><tspan font-family="Consolas,Consolas_MSFontService,sans-serif" font-size="13" x="26.42" y="64">(M)</tspan></text><path d="M249.5 436.5 437.294 436.5" stroke="#000000" stroke-width="0.666667" stroke-miterlimit="8" fill="none" fill-rule="evenodd"/><path d="M0 0 6.11895 48.0202" stroke="#000000" stroke-width="2" stroke-miterlimit="8" stroke-dasharray="2 2" fill="none" fill-rule="evenodd" transform="matrix(1 0 0 -1 337 486.02)"/><text font-family="Yu Gothic,Yu Gothic_MSFontService,sans-serif" font-weight="400" font-size="11" transform="translate(260.587 429)">発注者<tspan font-family="Calibri,Calibri_MSFontService,sans-serif" font-size="11" x="-3.70013" y="20">*</tspan><tspan font-family="Calibri,Calibri_MSFontService,sans-serif" font-size="11" x="158.002" y="6">*</tspan><tspan font-size="11" x="125.323" y="20">購入予約</tspan></text><rect x="274.5" y="486.5" width="126" height="87" stroke="#000000" stroke-width="1.33333" stroke-miterlimit="8" fill="#FFFFFF"/><text font-family="Yu Gothic,Yu Gothic_MSFontService,sans-serif" font-weight="400" font-size="13" transform="translate(323.584 503)">注文<tspan font-family="Consolas,Consolas_MSFontService,sans-serif" font-size="13" x="-40.2466" y="16">*</tspan><tspan font-size="13" x="-32.9133" y="16">注文</tspan><tspan font-family="Consolas,Consolas_MSFontService,sans-serif" font-size="13" x="-6.24664" y="16">ID</tspan><tspan font-size="13" x="-26.9133" y="32">個数</tspan><tspan font-size="13" x="-26.9133" y="48">金額</tspan><tspan font-size="16" x="-256.346" y="-160">図</tspan><tspan font-family="Calibri,Calibri_MSFontService,sans-serif" font-size="16" x="-240.346" y="-160">8</tspan><tspan font-family="Calibri,Calibri_MSFontService,sans-serif" font-size="13" x="9.27377" y="-77">R1</tspan></text><rect x="437.5" y="552.5" width="126" height="87" stroke="#000000" stroke-width="1.33333" stroke-miterlimit="8" fill="#FFFFFF"/><text font-family="Yu Gothic,Yu Gothic_MSFontService,sans-serif" font-weight="400" font-size="13" transform="translate(473.508 569)">在庫<tspan font-size="13" x="26.6667" y="0">商品</tspan><tspan font-family="Consolas,Consolas_MSFontService,sans-serif" font-size="13" x="-26.9134" y="16">*</tspan><tspan font-size="13" x="-19.58" y="16">商品</tspan><tspan font-family="Consolas,Consolas_MSFontService,sans-serif" font-size="13" x="7.08664" y="16">ID</tspan><tspan font-size="13" x="-19.58" y="32">仕入れ日</tspan></text><path d="M0 0 0.000104987 71.8165" stroke="#000000" stroke-width="0.666667" stroke-miterlimit="8" fill="none" fill-rule="evenodd" transform="matrix(1 0 0 -1 500.5 552.317)"/><text font-family="Calibri,Calibri_MSFontService,sans-serif" font-weight="400" font-size="13" transform="translate(509.101 521)">R5<tspan font-size="11" x="-25.131" y="-28">1</tspan><tspan font-size="11" x="-29.1768" y="23">*</tspan><tspan font-family="Yu Gothic,Yu Gothic_MSFontService,sans-serif" font-size="11" x="3.4632" y="22">現品</tspan><tspan font-family="Yu Gothic,Yu Gothic_MSFontService,sans-serif" font-size="11" x="1.41754" y="-24">仕様</tspan></text><rect x="123.5" y="717.5" width="126" height="87" stroke="#000000" stroke-width="1.33333" stroke-miterlimit="8" fill="#FFFFFF"/><text font-family="Yu Gothic,Yu Gothic_MSFontService,sans-serif" font-weight="400" font-size="13" transform="translate(172.601 734)">顧客<tspan font-family="Consolas,Consolas_MSFontService,sans-serif" font-size="13" x="-40.2467" y="16">*</tspan><tspan font-size="13" x="-32.9133" y="16">顧客</tspan><tspan font-family="Consolas,Consolas_MSFontService,sans-serif" font-size="13" x="-6.24667" y="16">ID</tspan><tspan font-size="13" x="-26.9133" y="32">顧客名</tspan><tspan font-size="13" x="-26.9133" y="48">住所</tspan></text><rect x="437.5" y="717.5" width="126" height="87" stroke="#000000" stroke-width="1.33333" stroke-miterlimit="8" fill="#FFFFFF"/><text font-family="Yu Gothic,Yu Gothic_MSFontService,sans-serif" font-weight="400" font-size="13" transform="translate(473.508 734)">商品仕様<tspan font-family="Consolas,Consolas_MSFontService,sans-serif" font-size="13" x="-26.9133" y="16">*</tspan><tspan font-size="13" x="-19.58" y="16">商品コード</tspan><tspan font-size="13" x="-13.58" y="32">商品名</tspan><tspan font-size="13" x="-13.58" y="48">単価</tspan><tspan font-size="13" x="-13.58" y="64">在庫数</tspan><tspan font-family="Consolas,Consolas_MSFontService,sans-serif" font-size="13" x="26.42" y="64">(M)</tspan></text><path d="M249.5 760.5 437.294 760.5" stroke="#000000" stroke-width="0.666667" stroke-miterlimit="8" fill="none" fill-rule="evenodd"/><path d="M0 0 6.11895 48.0202" stroke="#000000" stroke-width="2" stroke-miterlimit="8" stroke-dasharray="2 2" fill="none" fill-rule="evenodd" transform="matrix(1 0 0 -1 337 810.02)"/><text font-family="Yu Gothic,Yu Gothic_MSFontService,sans-serif" font-weight="400" font-size="11" transform="translate(260.587 753)">発注者<tspan font-family="Calibri,Calibri_MSFontService,sans-serif" font-size="11" x="-3.70013" y="20">*</tspan><tspan font-family="Calibri,Calibri_MSFontService,sans-serif" font-size="11" x="158.002" y="5">*</tspan><tspan font-size="11" x="125.323" y="20">購入予約</tspan></text><rect x="274.5" y="810.5" width="126" height="87" stroke="#000000" stroke-width="1.33333" stroke-miterlimit="8" fill="#FFFFFF"/><text font-family="Yu Gothic,Yu Gothic_MSFontService,sans-serif" font-weight="400" font-size="13" transform="translate(323.584 827)">注文<tspan font-family="Consolas,Consolas_MSFontService,sans-serif" font-size="13" x="-40.2466" y="16">*</tspan><tspan font-size="13" x="-32.9133" y="16">注文</tspan><tspan font-family="Consolas,Consolas_MSFontService,sans-serif" font-size="13" x="-6.24664" y="16">ID</tspan><tspan font-size="13" x="-26.9133" y="32">個数</tspan><tspan font-size="13" x="-26.9133" y="48">金額</tspan><tspan font-size="13" x="-26.9133" y="64">決済情報</tspan><tspan font-family="Calibri,Calibri_MSFontService,sans-serif" font-size="13" x="9.27377" y="-77">R1</tspan></text><rect x="437.5" y="876.5" width="126" height="87" stroke="#000000" stroke-width="1.33333" stroke-miterlimit="8" fill="#FFFFFF"/><text font-family="Yu Gothic,Yu Gothic_MSFontService,sans-serif" font-weight="400" font-size="13" transform="translate(473.508 893)">在庫<tspan font-size="13" x="26.6667" y="0">商品</tspan><tspan font-family="Consolas,Consolas_MSFontService,sans-serif" font-size="13" x="-26.9134" y="16">*</tspan><tspan font-size="13" x="-19.58" y="16">商品</tspan><tspan font-family="Consolas,Consolas_MSFontService,sans-serif" font-size="13" x="7.08664" y="16">ID</tspan><tspan font-size="13" x="-19.58" y="32">仕入れ日</tspan></text><path d="M0 0 0.000104987 71.8165" stroke="#000000" stroke-width="0.666667" stroke-miterlimit="8" fill="none" fill-rule="evenodd" transform="matrix(1 0 0 -1 500.5 876.317)"/><text font-family="Calibri,Calibri_MSFontService,sans-serif" font-weight="400" font-size="13" transform="translate(509.101 845)">R5<tspan font-size="11" x="-25.131" y="-28">1</tspan><tspan font-size="11" x="-29.1768" y="23">*</tspan><tspan font-family="Yu Gothic,Yu Gothic_MSFontService,sans-serif" font-size="11" x="3.4632" y="22">現品</tspan><tspan font-family="Yu Gothic,Yu Gothic_MSFontService,sans-serif" font-size="11" x="1.41754" y="-24">仕様</tspan></text><path d="M92 667 586.566 667" stroke="#F2F2F2" stroke-width="2" stroke-miterlimit="8" fill="none" fill-rule="evenodd"/><text font-family="Yu Gothic,Yu Gothic_MSFontService,sans-serif" font-weight="400" font-size="16" transform="translate(202.365 372)">顧客が常に同じ決済情報で決済する場合<tspan font-size="16" x="0.0306549" y="326">注文毎に異なる決済情報で決済する場合</tspan></text><path d="M134.5 456.334C134.5 452.56 137.56 449.5 141.334 449.5L209.667 449.5C213.441 449.5 216.5 452.56 216.5 456.334L216.5 483.667C216.5 487.441 213.441 490.5 209.667 490.5L141.334 490.5C137.56 490.5 134.5 487.441 134.5 483.667Z" stroke="#FF0000" stroke-width="1.33333" stroke-miterlimit="8" fill="none" fill-rule="evenodd"/><path d="M283.5 874.334C283.5 870.56 286.56 867.5 290.334 867.5L358.667 867.5C362.441 867.5 365.5 870.56 365.5 874.334L365.5 901.667C365.5 905.441 362.441 908.5 358.667 908.5L290.334 908.5C286.56 908.5 283.5 905.441 283.5 901.667Z" stroke="#FF0000" stroke-width="1.33333" stroke-miterlimit="8" fill="none" fill-rule="evenodd"/></g></svg>