<svg width="608" height="765" xmlns="http://www.w3.org/2000/svg" xmlns:xlink="http://www.w3.org/1999/xlink" overflow="hidden"><defs><clipPath id="clip0"><rect x="47" y="29" width="608" height="765"/></clipPath></defs><g clip-path="url(#clip0)" transform="translate(-47 -29)"><rect x="48.5001" y="31.5001" width="605" height="761" stroke="#D9D9D9" stroke-width="1.33333" stroke-miterlimit="8" fill="none"/><text font-family="Yu Gothic,Yu Gothic_MSFontService,sans-serif" font-weight="400" font-size="16" transform="translate(58.0463 50)">図<tspan font-family="Calibri,Calibri_MSFontService,sans-serif" font-size="16" x="16" y="0">9</tspan></text><rect x="67.5001" y="111.5" width="126" height="87" stroke="#000000" stroke-width="1.33333" stroke-miterlimit="8" fill="#FFFFFF"/><text font-family="Yu Gothic,Yu Gothic_MSFontService,sans-serif" font-weight="400" font-size="13" transform="translate(116.676 128)">顧客<tspan font-family="Consolas,Consolas_MSFontService,sans-serif" font-size="13" x="-40.2467" y="16">*</tspan><tspan font-size="13" x="-32.9133" y="16">顧客</tspan><tspan font-family="Consolas,Consolas_MSFontService,sans-serif" font-size="13" x="-6.24667" y="16">ID</tspan><tspan font-size="13" x="-26.9133" y="32">顧客名</tspan><tspan font-size="13" x="-26.9133" y="48">住所</tspan></text><rect x="381.5" y="111.5" width="127" height="87" stroke="#000000" stroke-width="1.33333" stroke-miterlimit="8" fill="#FFFFFF"/><text font-family="Yu Gothic,Yu Gothic_MSFontService,sans-serif" font-weight="400" font-size="13" transform="translate(417.583 128)">商品仕様<tspan font-family="Consolas,Consolas_MSFontService,sans-serif" font-size="13" x="-26.9133" y="16">*</tspan><tspan font-size="13" x="-19.58" y="16">商品コード</tspan><tspan font-size="13" x="-13.58" y="32">商品名</tspan><tspan font-size="13" x="-13.58" y="48">単価</tspan><tspan font-size="13" x="-13.58" y="64">在庫数</tspan><tspan font-family="Consolas,Consolas_MSFontService,sans-serif" font-size="13" x="26.42" y="64">(M)</tspan></text><path d="M193.5 155.5 381.294 155.5" stroke="#000000" stroke-width="0.666667" stroke-miterlimit="8" fill="none" fill-rule="evenodd"/><path d="M0 0 6.11895 48.0202" stroke="#000000" stroke-width="2" stroke-miterlimit="8" stroke-dasharray="2 2" fill="none" fill-rule="evenodd" transform="matrix(1 0 0 -1 281 204.02)"/><text font-family="Yu Gothic,Yu Gothic_MSFontService,sans-serif" font-weight="400" font-size="11" transform="translate(204.662 147)">発注者<tspan font-family="Calibri,Calibri_MSFontService,sans-serif" font-size="11" x="-3.70016" y="21">*</tspan><tspan font-family="Calibri,Calibri_MSFontService,sans-serif" font-size="11" x="158.002" y="6">*</tspan><tspan font-size="11" x="125.323" y="21">購入予約</tspan></text><rect x="218.5" y="205.5" width="126" height="87" stroke="#000000" stroke-width="1.33333" stroke-miterlimit="8" fill="#FFFFFF"/><text font-family="Yu Gothic,Yu Gothic_MSFontService,sans-serif" font-weight="400" font-size="13" transform="translate(267.658 221)">注文<tspan font-family="Consolas,Consolas_MSFontService,sans-serif" font-size="13" x="-40.2467" y="16">*</tspan><tspan font-size="13" x="-32.9133" y="16">注文</tspan><tspan font-family="Consolas,Consolas_MSFontService,sans-serif" font-size="13" x="-6.24667" y="16">ID</tspan><tspan font-size="13" x="-26.9133" y="32">個数</tspan><tspan font-size="13" x="-26.9133" y="48">金額</tspan><tspan font-size="13" x="-26.9133" y="64">決済情報</tspan><tspan font-family="Calibri,Calibri_MSFontService,sans-serif" font-size="13" x="9.27374" y="-77">R1</tspan></text><rect x="381.5" y="270.5" width="127" height="87" stroke="#000000" stroke-width="1.33333" stroke-miterlimit="8" fill="#FFFFFF"/><text font-family="Yu Gothic,Yu Gothic_MSFontService,sans-serif" font-weight="400" font-size="13" transform="translate(417.583 287)">在庫<tspan font-size="13" x="26.6667" y="0">商品</tspan><tspan font-family="Consolas,Consolas_MSFontService,sans-serif" font-size="13" x="-26.9133" y="16">*</tspan><tspan font-size="13" x="-19.58" y="16">商品</tspan><tspan font-family="Consolas,Consolas_MSFontService,sans-serif" font-size="13" x="7.08667" y="16">ID</tspan><tspan font-size="13" x="-19.58" y="32">仕入れ日</tspan></text><path d="M0 0 0.000104987 71.8165" stroke="#000000" stroke-width="0.666667" stroke-miterlimit="8" fill="none" fill-rule="evenodd" transform="matrix(1 0 0 -1 444.5 270.317)"/><text font-family="Calibri,Calibri_MSFontService,sans-serif" font-weight="400" font-size="13" transform="translate(453.176 239)">R5<tspan font-size="11" x="-25.131" y="-27">1</tspan><tspan font-size="11" x="-29.1768" y="23">*</tspan><tspan font-family="Yu Gothic,Yu Gothic_MSFontService,sans-serif" font-size="11" x="3.4632" y="23">現品</tspan><tspan font-family="Yu Gothic,Yu Gothic_MSFontService,sans-serif" font-size="11" x="1.41754" y="-24">仕様</tspan></text><path d="M436.5 371.5 444.5 357.5 452.5 371.5Z" stroke="#000000" stroke-width="1.33333" stroke-miterlimit="8" fill="none" fill-rule="evenodd"/><path d="M444.675 371.5 444.675 408.347 380.5 408.347 380.5 445.194" stroke="#000000" stroke-width="0.666667" stroke-miterlimit="8" fill="none" fill-rule="evenodd"/><text font-family="Calibri,Calibri_MSFontService,sans-serif" font-weight="400" font-size="8" transform="translate(373.323 393)">{complete, disjoint}</text><rect x="317.5" y="444.5" width="126" height="87" stroke="#000000" stroke-width="1.33333" stroke-miterlimit="8" fill="#FFFFFF"/><text font-family="Yu Gothic,Yu Gothic_MSFontService,sans-serif" font-weight="400" font-size="13" transform="translate(333.328 461)">引当済在庫商品</text><rect x="459.5" y="444.5" width="126" height="87" stroke="#000000" stroke-width="1.33333" stroke-miterlimit="8" fill="#FFFFFF"/><text font-family="Yu Gothic,Yu Gothic_MSFontService,sans-serif" font-weight="400" font-size="13" transform="translate(475.502 461)">引当可在庫商品</text><path d="M0 0 36.8472 0 36.8472 77.9983 73.6944 77.9983" stroke="#000000" stroke-width="0.666667" stroke-miterlimit="8" fill="none" fill-rule="evenodd" transform="matrix(1.83697e-16 1 1 -1.83697e-16 444.5 371.5)"/><text font-family="Calibri,Calibri_MSFontService,sans-serif" font-weight="400" font-size="13" transform="translate(451.023 395)">R9</text><path d="M0 0 196.179 0 196.179 35.7371" stroke="#000000" stroke-width="0.666667" stroke-miterlimit="8" fill="none" fill-rule="evenodd" transform="matrix(1.83697e-16 1 1 -1.83697e-16 281.5 292.5)"/><rect x="113.5" y="371.5" width="127" height="87" stroke="#000000" stroke-width="1.33333" stroke-miterlimit="8" fill="#FFFFFF"/><text font-family="Yu Gothic,Yu Gothic_MSFontService,sans-serif" font-weight="400" font-size="13" transform="translate(163.028 387)">配送<tspan font-family="Consolas,Consolas_MSFontService,sans-serif" font-size="13" x="-40.2467" y="16">*</tspan><tspan font-size="13" x="-32.9133" y="16">配送</tspan><tspan font-family="Consolas,Consolas_MSFontService,sans-serif" font-size="13" x="-6.24667" y="16">ID</tspan><tspan font-size="13" x="-26.9133" y="32">状態</tspan></text><path d="M0 0 40.9895 7.53669" stroke="#000000" stroke-width="2" stroke-miterlimit="8" stroke-dasharray="2 2" fill="none" fill-rule="evenodd" transform="matrix(1 0 0 -1 240 414.537)"/><text font-family="Calibri,Calibri_MSFontService,sans-serif" font-weight="400" font-size="13" transform="translate(287.271 392)">R10<tspan font-size="11" x="15.6514" y="89">*</tspan><tspan font-size="11" x="-16.8651" y="-86">1</tspan><tspan font-family="Yu Gothic,Yu Gothic_MSFontService,sans-serif" font-size="11" x="-12.3366" y="109">配送対象</tspan><tspan font-family="Yu Gothic,Yu Gothic_MSFontService,sans-serif" font-size="11" x="0" y="-86">配送要求元</tspan><tspan font-family="Yu Gothic,Yu Gothic_MSFontService,sans-serif" font-size="13" x="-212.896" y="275">※</tspan><tspan font-family="Yu Gothic,Yu Gothic_MSFontService,sans-serif" font-size="13" x="-194.896" y="275">このモデルは、ある注文インスタンスに対して引当てられた引当済在庫商品インスタンス</tspan><tspan font-family="Yu Gothic,Yu Gothic_MSFontService,sans-serif" font-size="13" x="-194.896" y="291">毎に、配送インスタンスを作ることになります。つまり、同じ注文であっても一個づつ商</tspan><tspan font-family="Yu Gothic,Yu Gothic_MSFontService,sans-serif" font-size="13" x="-194.896" y="307">品を発送するということです。</tspan><tspan font-family="Yu Gothic,Yu Gothic_MSFontService,sans-serif" font-size="13" x="-212.896" y="323">※</tspan><tspan font-family="Yu Gothic,Yu Gothic_MSFontService,sans-serif" font-size="13" x="-194.896" y="323">一つ</tspan><tspan font-family="Yu Gothic,Yu Gothic_MSFontService,sans-serif" font-size="13" x="-168.229" y="323">の注文の個数が</tspan><tspan font-size="13" x="-74.8957" y="323">2</tspan><tspan font-family="Yu Gothic,Yu Gothic_MSFontService,sans-serif" font-size="13" x="-68.0623" y="323">個以上の場合にまとめて送付できるようにするにはどうモデルを改</tspan><tspan font-family="Yu Gothic,Yu Gothic_MSFontService,sans-serif" font-size="13" x="-194.896" y="339">造したらよいか考えてみてください。</tspan><tspan font-family="Yu Gothic,Yu Gothic_MSFontService,sans-serif" font-size="13" x="-212.896" y="355">※</tspan><tspan font-family="Yu Gothic,Yu Gothic_MSFontService,sans-serif" font-size="13" x="-194.896" y="355">このモデルに</tspan><tspan font-family="Yu Gothic,Yu Gothic_MSFontService,sans-serif" font-size="13" x="-114.896" y="355">は、テキストで説明した以上の表明を行っています。どんな表明が読み取れ</tspan><tspan font-family="Yu Gothic,Yu Gothic_MSFontService,sans-serif" font-size="13" x="-194.896" y="371">るか調べてみましょう</tspan></text><rect x="523.5" y="215.5" width="126" height="71" stroke="#000000" stroke-width="1.33333" stroke-miterlimit="8" fill="#FFFFFF"/><text font-family="Yu Gothic,Yu Gothic_MSFontService,sans-serif" font-weight="400" font-size="13" transform="translate(545.984 231)">仕入れ先会社<tspan font-family="Consolas,Consolas_MSFontService,sans-serif" font-size="13" x="-13.58" y="16">*</tspan><tspan font-size="13" x="-6.2467" y="16">取引会社</tspan><tspan font-family="Consolas,Consolas_MSFontService,sans-serif" font-size="13" x="47.0867" y="16">ID</tspan><tspan font-size="13" x="-0.246704" y="32">会社名</tspan><tspan font-size="13" x="-0.246704" y="48">発注方法</tspan></text><path d="M508.5 155.5 587.011 155.5 587.011 215.395" stroke="#000000" stroke-width="0.666667" stroke-miterlimit="8" fill="none" fill-rule="evenodd"/><text font-family="Calibri,Calibri_MSFontService,sans-serif" font-weight="400" font-size="11" transform="translate(594.691 209)">1..*<tspan font-size="11" x="-78.4662" y="-65">1</tspan></text><rect x="113.5" y="518.5" width="127" height="87" stroke="#000000" stroke-width="1.33333" stroke-miterlimit="8" fill="#FFFFFF"/><text font-family="Yu Gothic,Yu Gothic_MSFontService,sans-serif" font-weight="400" font-size="13" transform="translate(149.694 535)">配送<tspan font-size="13" x="26.6667" y="0">会社</tspan><tspan font-family="Consolas,Consolas_MSFontService,sans-serif" font-size="13" x="-26.9133" y="16">*</tspan><tspan font-size="13" x="-19.58" y="16">取引会社</tspan><tspan font-family="Consolas,Consolas_MSFontService,sans-serif" font-size="13" x="33.7533" y="16">ID</tspan><tspan font-size="13" x="-13.58" y="32">発注方法</tspan></text><path d="M0 0 0.000104987 60.6584" stroke="#000000" stroke-width="0.666667" stroke-miterlimit="8" fill="none" fill-rule="evenodd" transform="matrix(-1 0 0 1 176.5 458.5)"/><text font-family="Calibri,Calibri_MSFontService,sans-serif" font-weight="400" font-size="11" transform="translate(159.522 510)">0..1<tspan font-size="11" x="5.99013" y="-38">*</tspan><tspan font-size="13" x="435.169" y="-339">R20</tspan><tspan font-size="13" x="-6.00294" y="-17">R21</tspan><tspan font-family="Yu Gothic,Yu Gothic_MSFontService,sans-serif" font-size="11" x="28.1931" y="2">配送担当</tspan><tspan font-family="Yu Gothic,Yu Gothic_MSFontService,sans-serif" font-size="11" x="25.0969" y="-37">配送対象</tspan></text></g></svg>