<svg width="607" height="417" xmlns="http://www.w3.org/2000/svg" xmlns:xlink="http://www.w3.org/1999/xlink" overflow="hidden"><defs><clipPath id="clip0"><rect x="60" y="14" width="607" height="417"/></clipPath><linearGradient x1="156.5" y1="241.5" x2="156.5" y2="292.5" gradientUnits="userSpaceOnUse" spreadMethod="reflect" id="fill1"><stop offset="0" stop-color="#F7BDA4"/><stop offset="0.5" stop-color="#F5B195"/><stop offset="1" stop-color="#F8A581"/></linearGradient><linearGradient x1="266.5" y1="206.5" x2="266.5" y2="256.5" gradientUnits="userSpaceOnUse" spreadMethod="reflect" id="fill2"><stop offset="0" stop-color="#F7BDA4"/><stop offset="0.5" stop-color="#F5B195"/><stop offset="1" stop-color="#F8A581"/></linearGradient><linearGradient x1="311.5" y1="264.5" x2="311.5" y2="315.5" gradientUnits="userSpaceOnUse" spreadMethod="reflect" id="fill3"><stop offset="0" stop-color="#F7BDA4"/><stop offset="0.5" stop-color="#F5B195"/><stop offset="1" stop-color="#F8A581"/></linearGradient><linearGradient x1="409.5" y1="206.5" x2="409.5" y2="256.5" gradientUnits="userSpaceOnUse" spreadMethod="reflect" id="fill4"><stop offset="0" stop-color="#F7BDA4"/><stop offset="0.5" stop-color="#F5B195"/><stop offset="1" stop-color="#F8A581"/></linearGradient><linearGradient x1="189.5" y1="305.5" x2="189.5" y2="355.5" gradientUnits="userSpaceOnUse" spreadMethod="reflect" id="fill5"><stop offset="0" stop-color="#F7BDA4"/><stop offset="0.5" stop-color="#F5B195"/><stop offset="1" stop-color="#F8A581"/></linearGradient><linearGradient x1="347" y1="329.5" x2="347" y2="379.5" gradientUnits="userSpaceOnUse" spreadMethod="reflect" id="fill6"><stop offset="0" stop-color="#F7BDA4"/><stop offset="0.5" stop-color="#F5B195"/><stop offset="1" stop-color="#F8A581"/></linearGradient><linearGradient x1="528" y1="315.5" x2="528" y2="365.5" gradientUnits="userSpaceOnUse" spreadMethod="reflect" id="fill7"><stop offset="0" stop-color="#F7BDA4"/><stop offset="0.5" stop-color="#F5B195"/><stop offset="1" stop-color="#F8A581"/></linearGradient><linearGradient x1="440.5" y1="275.5" x2="440.5" y2="325.5" gradientUnits="userSpaceOnUse" spreadMethod="reflect" id="fill8"><stop offset="0" stop-color="#F7BDA4"/><stop offset="0.5" stop-color="#F5B195"/><stop offset="1" stop-color="#F8A581"/></linearGradient><linearGradient x1="531.5" y1="218.5" x2="531.5" y2="269.5" gradientUnits="userSpaceOnUse" spreadMethod="reflect" id="fill9"><stop offset="0" stop-color="#F7BDA4"/><stop offset="0.5" stop-color="#F5B195"/><stop offset="1" stop-color="#F8A581"/></linearGradient></defs><g clip-path="url(#clip0)" transform="translate(-60 -14)"><rect x="81" y="197" width="565" height="212" fill="#F2F2F2"/><text font-family="Yu Gothic,Yu Gothic_MSFontService,sans-serif" font-weight="400" font-size="16" transform="translate(297.833 400)">サービス<tspan font-size="16" x="67.6667" y="0">ドメイン</tspan></text><rect x="61.5001" y="15.5001" width="605" height="415" stroke="#D9D9D9" stroke-width="1.33333" stroke-miterlimit="8" fill="none"/><rect x="81" y="39" width="565" height="133" fill="#F2F2F2"/><text font-family="Yu Gothic,Yu Gothic_MSFontService,sans-serif" font-weight="400" font-size="16" transform="translate(265.833 59)">アプリケーション<tspan font-size="16" x="131.667" y="0">ドメイン</tspan></text><path d="M92.5001 121C92.5001 106.917 123.616 95.5001 162 95.5001 200.384 95.5001 231.5 106.917 231.5 121 231.5 135.083 200.384 146.5 162 146.5 123.616 146.5 92.5001 135.083 92.5001 121Z" stroke="#2F528F" stroke-width="1.33333" stroke-miterlimit="8" fill="#4472C4" fill-rule="evenodd"/><text fill="#FFFFFF" font-family="Yu Gothic,Yu Gothic_MSFontService,sans-serif" font-weight="400" font-size="13" transform="translate(134.917 124)">商品管理</text><path d="M242.5 121C242.5 106.917 273.616 95.5001 312 95.5001 350.384 95.5001 381.5 106.917 381.5 121 381.5 135.083 350.384 146.5 312 146.5 273.616 146.5 242.5 135.083 242.5 121Z" stroke="#2F528F" stroke-width="1.33333" stroke-miterlimit="8" fill="#4472C4" fill-rule="evenodd"/><text fill="#FFFFFF" font-family="Yu Gothic,Yu Gothic_MSFontService,sans-serif" font-weight="400" font-size="13" transform="translate(285.096 124)">装置管理</text><path d="M393.5 121C393.5 106.917 424.392 95.5001 462.5 95.5001 500.608 95.5001 531.5 106.917 531.5 121 531.5 135.083 500.608 146.5 462.5 146.5 424.392 146.5 393.5 135.083 393.5 121Z" stroke="#2F528F" stroke-width="1.33333" stroke-miterlimit="8" fill="#4472C4" fill-rule="evenodd"/><text fill="#FFFFFF" font-family="Yu Gothic,Yu Gothic_MSFontService,sans-serif" font-weight="400" font-size="13" transform="translate(428.607 124)">自動送配電</text><path d="M546 120 606.904 120" stroke="#4472C4" stroke-width="8" stroke-miterlimit="8" stroke-dasharray="8 8" fill="none" fill-rule="evenodd"/><path d="M92.5001 267C92.5001 252.917 121.154 241.5 156.5 241.5 191.846 241.5 220.5 252.917 220.5 267 220.5 281.083 191.846 292.5 156.5 292.5 121.154 292.5 92.5001 281.083 92.5001 267Z" stroke="#ED7D31" stroke-width="0.666667" stroke-miterlimit="8" fill="url(#fill1)" fill-rule="evenodd"/><text font-family="Yu Gothic,Yu Gothic_MSFontService,sans-serif" font-weight="400" font-size="13" transform="translate(122.548 271)">テレメトリ</text><path d="M225.5 231.5C225.5 217.693 243.856 206.5 266.5 206.5 289.144 206.5 307.5 217.693 307.5 231.5 307.5 245.307 289.144 256.5 266.5 256.5 243.856 256.5 225.5 245.307 225.5 231.5Z" stroke="#ED7D31" stroke-width="0.666667" stroke-miterlimit="8" fill="url(#fill2)" fill-rule="evenodd"/><text font-family="Calibri,Calibri_MSFontService,sans-serif" font-weight="400" font-size="13" transform="translate(256.055 235)">GUI</text><path d="M262.5 290C262.5 275.917 284.438 264.5 311.5 264.5 338.562 264.5 360.5 275.917 360.5 290 360.5 304.083 338.562 315.5 311.5 315.5 284.438 315.5 262.5 304.083 262.5 290Z" stroke="#ED7D31" stroke-width="0.666667" stroke-miterlimit="8" fill="url(#fill3)" fill-rule="evenodd"/><text font-family="Calibri,Calibri_MSFontService,sans-serif" font-weight="400" font-size="13" transform="translate(303.549 286)">3D<tspan font-size="13" x="-10" y="16">Model</tspan></text><path d="M360.5 231.5C360.5 217.693 382.438 206.5 409.5 206.5 436.562 206.5 458.5 217.693 458.5 231.5 458.5 245.307 436.562 256.5 409.5 256.5 382.438 256.5 360.5 245.307 360.5 231.5Z" stroke="#ED7D31" stroke-width="0.666667" stroke-miterlimit="8" fill="url(#fill4)" fill-rule="evenodd"/><text font-family="Calibri,Calibri_MSFontService,sans-serif" font-weight="400" font-size="13" transform="translate(388.617 235)">AI<tspan font-family="Yu Gothic,Yu Gothic_MSFontService,sans-serif" font-size="13" x="14" y="0">学習</tspan></text><path d="M127.5 330.5C127.5 316.693 155.258 305.5 189.5 305.5 223.742 305.5 251.5 316.693 251.5 330.5 251.5 344.307 223.742 355.5 189.5 355.5 155.258 355.5 127.5 344.307 127.5 330.5Z" stroke="#ED7D31" stroke-width="0.666667" stroke-miterlimit="8" fill="url(#fill5)" fill-rule="evenodd"/><text font-family="Calibri,Calibri_MSFontService,sans-serif" font-weight="400" font-size="13" transform="translate(155.434 326)">AI<tspan font-family="Yu Gothic,Yu Gothic_MSFontService,sans-serif" font-size="13" x="14" y="0">学習済み</tspan><tspan font-family="Yu Gothic,Yu Gothic_MSFontService,sans-serif" font-size="13" x="0.333328" y="16">モデル配置</tspan></text><path d="M274.5 354.5C274.5 340.693 306.959 329.5 347 329.5 387.041 329.5 419.5 340.693 419.5 354.5 419.5 368.307 387.041 379.5 347 379.5 306.959 379.5 274.5 368.307 274.5 354.5Z" stroke="#ED7D31" stroke-width="0.666667" stroke-miterlimit="8" fill="url(#fill6)" fill-rule="evenodd"/><text font-family="Yu Gothic,Yu Gothic_MSFontService,sans-serif" font-weight="400" font-size="13" transform="translate(306.238 358)">セキュリティ</text><path d="M473.5 340.5C473.5 326.693 497.901 315.5 528 315.5 558.1 315.5 582.5 326.693 582.5 340.5 582.5 354.307 558.1 365.5 528 365.5 497.901 365.5 473.5 354.307 473.5 340.5Z" stroke="#ED7D31" stroke-width="0.666667" stroke-miterlimit="8" fill="url(#fill7)" fill-rule="evenodd"/><text font-family="Yu Gothic,Yu Gothic_MSFontService,sans-serif" font-weight="400" font-size="13" transform="translate(500.829 344)">認証基盤</text><path d="M386.5 300.5C386.5 286.693 410.677 275.5 440.5 275.5 470.323 275.5 494.5 286.693 494.5 300.5 494.5 314.307 470.323 325.5 440.5 325.5 410.677 325.5 386.5 314.307 386.5 300.5Z" stroke="#ED7D31" stroke-width="0.666667" stroke-miterlimit="8" fill="url(#fill8)" fill-rule="evenodd"/><text font-family="Yu Gothic,Yu Gothic_MSFontService,sans-serif" font-weight="400" font-size="13" transform="translate(420.304 296)">データ<tspan font-size="13" x="0" y="16">ベース</tspan></text><path d="M466.5 244C466.5 229.917 495.602 218.5 531.5 218.5 567.399 218.5 596.5 229.917 596.5 244 596.5 258.083 567.399 269.5 531.5 269.5 495.602 269.5 466.5 258.083 466.5 244Z" stroke="#ED7D31" stroke-width="0.666667" stroke-miterlimit="8" fill="url(#fill9)" fill-rule="evenodd"/><text font-family="Yu Gothic,Yu Gothic_MSFontService,sans-serif" font-weight="400" font-size="13" transform="translate(497.993 239)">メッセージ<tspan font-size="13" x="20" y="16">配信</tspan></text><path d="M124 157 163.5 134 203 157Z" fill="#FF0000" fill-rule="evenodd" fill-opacity="0.501961"/><path d="M272 157 311.5 133 351 157Z" fill="#FF0000" fill-rule="evenodd" fill-opacity="0.501961"/><path d="M423 157 462.5 133 502 157Z" fill="#FF0000" fill-rule="evenodd" fill-opacity="0.501961"/></g></svg>