<svg width="607" height="590" xmlns="http://www.w3.org/2000/svg" xmlns:xlink="http://www.w3.org/1999/xlink" overflow="hidden"><defs><clipPath id="clip0"><rect x="60" y="14" width="607" height="590"/></clipPath><clipPath id="clip1"><rect x="236" y="47" width="258" height="241"/></clipPath><clipPath id="clip2"><rect x="236" y="47" width="258" height="241"/></clipPath><clipPath id="clip3"><rect x="236" y="47" width="258" height="241"/></clipPath><clipPath id="clip4"><rect x="236" y="47" width="258" height="241"/></clipPath><clipPath id="clip5"><rect x="270" y="90" width="199" height="165"/></clipPath><clipPath id="clip6"><rect x="270" y="90" width="199" height="165"/></clipPath><clipPath id="clip7"><rect x="270" y="90" width="199" height="165"/></clipPath><clipPath id="clip8"><rect x="270" y="90" width="199" height="165"/></clipPath><clipPath id="clip9"><rect x="398" y="181" width="8" height="8"/></clipPath><clipPath id="clip10"><rect x="398" y="181" width="8" height="8"/></clipPath><clipPath id="clip11"><rect x="398" y="181" width="8" height="8"/></clipPath><clipPath id="clip12"><rect x="453" y="204" width="10" height="10"/></clipPath><clipPath id="clip13"><rect x="453" y="204" width="10" height="10"/></clipPath><clipPath id="clip14"><rect x="453" y="204" width="10" height="10"/></clipPath><linearGradient x1="87.8857" y1="102.223" x2="87.8857" y2="104.085" gradientUnits="userSpaceOnUse" spreadMethod="reflect" id="fill15"><stop offset="0" stop-color="#FFDD9C"/><stop offset="0.5" stop-color="#FFD78E"/><stop offset="1" stop-color="#FFD479"/></linearGradient><clipPath id="clip16"><rect x="324" y="98" width="11" height="11"/></clipPath><clipPath id="clip17"><rect x="324" y="98" width="11" height="11"/></clipPath><clipPath id="clip18"><rect x="324" y="98" width="11" height="11"/></clipPath><clipPath id="clip19"><rect x="304" y="51" width="18" height="18"/></clipPath><clipPath id="clip20"><rect x="304" y="51" width="18" height="18"/></clipPath><clipPath id="clip21"><rect x="304" y="51" width="18" height="18"/></clipPath><linearGradient x1="107.837" y1="20.7871" x2="107.837" y2="37.2967" gradientUnits="userSpaceOnUse" spreadMethod="pad" id="fill22"><stop offset="0" stop-color="#B3B2B3"/><stop offset="0.216" stop-color="#AFAEAF"/><stop offset="0.44" stop-color="#A2A2A2"/><stop offset="0.577" stop-color="#979797"/><stop offset="1" stop-color="#979797"/></linearGradient><clipPath id="clip23"><rect x="360" y="112" width="18" height="18"/></clipPath><clipPath id="clip24"><rect x="360" y="112" width="18" height="18"/></clipPath><clipPath id="clip25"><rect x="360" y="112" width="18" height="18"/></clipPath><linearGradient x1="163.669" y1="81.5726" x2="163.669" y2="98.0819" gradientUnits="userSpaceOnUse" spreadMethod="pad" id="fill26"><stop offset="0" stop-color="#B3B2B3"/><stop offset="0.216" stop-color="#AFAEAF"/><stop offset="0.44" stop-color="#A2A2A2"/><stop offset="0.577" stop-color="#979797"/><stop offset="1" stop-color="#979797"/></linearGradient><clipPath id="clip27"><rect x="468" y="158" width="18" height="18"/></clipPath><clipPath id="clip28"><rect x="468" y="158" width="18" height="18"/></clipPath><clipPath id="clip29"><rect x="468" y="158" width="18" height="18"/></clipPath><linearGradient x1="8.3327" y1="0.0750533" x2="8.3327" y2="16.5922" gradientUnits="userSpaceOnUse" spreadMethod="pad" id="fill30"><stop offset="0" stop-color="#B3B2B3"/><stop offset="0.216" stop-color="#AFAEAF"/><stop offset="0.44" stop-color="#A2A2A2"/><stop offset="0.577" stop-color="#979797"/><stop offset="1" stop-color="#979797"/></linearGradient><clipPath id="clip31"><rect x="420" y="132" width="17" height="17"/></clipPath><clipPath id="clip32"><rect x="420" y="132" width="17" height="17"/></clipPath><clipPath id="clip33"><rect x="420" y="132" width="17" height="17"/></clipPath><linearGradient x1="223.104" y1="100.934" x2="223.104" y2="117.443" gradientUnits="userSpaceOnUse" spreadMethod="pad" id="fill34"><stop offset="0" stop-color="#B3B2B3"/><stop offset="0.216" stop-color="#AFAEAF"/><stop offset="0.44" stop-color="#A2A2A2"/><stop offset="0.577" stop-color="#979797"/><stop offset="1" stop-color="#979797"/></linearGradient><clipPath id="clip35"><rect x="371" y="229" width="18" height="18"/></clipPath><clipPath id="clip36"><rect x="371" y="229" width="18" height="18"/></clipPath><clipPath id="clip37"><rect x="371" y="229" width="18" height="18"/></clipPath><linearGradient x1="174.926" y1="198.19" x2="174.926" y2="214.7" gradientUnits="userSpaceOnUse" spreadMethod="pad" id="fill38"><stop offset="0" stop-color="#B3B2B3"/><stop offset="0.216" stop-color="#AFAEAF"/><stop offset="0.44" stop-color="#A2A2A2"/><stop offset="0.577" stop-color="#979797"/><stop offset="1" stop-color="#979797"/></linearGradient><clipPath id="clip39"><rect x="335" y="258" width="18" height="17"/></clipPath><clipPath id="clip40"><rect x="335" y="258" width="18" height="17"/></clipPath><clipPath id="clip41"><rect x="335" y="258" width="18" height="17"/></clipPath><linearGradient x1="8.3327" y1="0.0750533" x2="8.3327" y2="16.5922" gradientUnits="userSpaceOnUse" spreadMethod="pad" id="fill42"><stop offset="0" stop-color="#B3B2B3"/><stop offset="0.216" stop-color="#AFAEAF"/><stop offset="0.44" stop-color="#A2A2A2"/><stop offset="0.577" stop-color="#979797"/><stop offset="1" stop-color="#979797"/></linearGradient><clipPath id="clip43"><rect x="259" y="247" width="18" height="18"/></clipPath><clipPath id="clip44"><rect x="259" y="247" width="18" height="18"/></clipPath><clipPath id="clip45"><rect x="259" y="247" width="18" height="18"/></clipPath><linearGradient x1="62.3604" y1="216.651" x2="62.3604" y2="233.16" gradientUnits="userSpaceOnUse" spreadMethod="pad" id="fill46"><stop offset="0" stop-color="#B3B2B3"/><stop offset="0.216" stop-color="#AFAEAF"/><stop offset="0.44" stop-color="#A2A2A2"/><stop offset="0.577" stop-color="#979797"/><stop offset="1" stop-color="#979797"/></linearGradient><clipPath id="clip47"><rect x="244" y="162" width="18" height="18"/></clipPath><clipPath id="clip48"><rect x="244" y="162" width="18" height="18"/></clipPath><clipPath id="clip49"><rect x="244" y="162" width="18" height="18"/></clipPath><linearGradient x1="47.5017" y1="131.552" x2="47.5017" y2="148.061" gradientUnits="userSpaceOnUse" spreadMethod="pad" id="fill50"><stop offset="0" stop-color="#B3B2B3"/><stop offset="0.216" stop-color="#AFAEAF"/><stop offset="0.44" stop-color="#A2A2A2"/><stop offset="0.577" stop-color="#979797"/><stop offset="1" stop-color="#979797"/></linearGradient><clipPath id="clip51"><rect x="244" y="56" width="232" height="232"/></clipPath><clipPath id="clip52"><rect x="244" y="56" width="232" height="232"/></clipPath><clipPath id="clip53"><rect x="244" y="56" width="232" height="232"/></clipPath><clipPath id="clip54"><rect x="89" y="369" width="259" height="213"/></clipPath><clipPath id="clip55"><rect x="89" y="369" width="260" height="213"/></clipPath><clipPath id="clip56"><rect x="89" y="369" width="260" height="213"/></clipPath><clipPath id="clip57"><rect x="89" y="369" width="260" height="213"/></clipPath><clipPath id="clip58"><rect x="257" y="487" width="9" height="9"/></clipPath><clipPath id="clip59"><rect x="257" y="487" width="9" height="9"/></clipPath><clipPath id="clip60"><rect x="257" y="487" width="9" height="9"/></clipPath><clipPath id="clip61"><rect x="329" y="517" width="12" height="12"/></clipPath><clipPath id="clip62"><rect x="329" y="517" width="12" height="12"/></clipPath><clipPath id="clip63"><rect x="329" y="517" width="12" height="12"/></clipPath><linearGradient x1="114.767" y1="133.49" x2="114.767" y2="135.921" gradientUnits="userSpaceOnUse" spreadMethod="reflect" id="fill64"><stop offset="0" stop-color="#FFDD9C"/><stop offset="0.5" stop-color="#FFD78E"/><stop offset="1" stop-color="#FFD479"/></linearGradient><clipPath id="clip65"><rect x="160" y="379" width="13" height="13"/></clipPath><clipPath id="clip66"><rect x="160" y="379" width="13" height="13"/></clipPath><clipPath id="clip67"><rect x="160" y="379" width="13" height="13"/></clipPath></defs><g clip-path="url(#clip0)" transform="translate(-60 -14)"><rect x="395" y="337" width="255" height="247" fill="#F2F2F2"/><text font-family="Yu Gothic,Yu Gothic_MSFontService,sans-serif" font-weight="400" font-size="16" transform="translate(442.361 357)">ドメイン：テレメトリ</text><rect x="80" y="337" width="281" height="247" fill="#F2F2F2"/><text font-family="Yu Gothic,Yu Gothic_MSFontService,sans-serif" font-weight="400" font-size="16" transform="translate(148.343 357)">ドメイン：装置管理</text><rect x="177" y="31" width="339" height="266" fill="#F2F2F2"/><text font-family="Yu Gothic,Yu Gothic_MSFontService,sans-serif" font-weight="400" font-size="16" transform="translate(346.059 50)">こんがらがったモデル</text><rect x="61.5001" y="15.5001" width="605" height="588" stroke="#D9D9D9" stroke-width="1.33333" stroke-miterlimit="8" fill="none"/><g clip-path="url(#clip1)"><g clip-path="url(#clip2)"><g clip-path="url(#clip3)"><g clip-path="url(#clip4)"><g clip-path="url(#clip5)"><g clip-path="url(#clip6)"><g clip-path="url(#clip7)"><g clip-path="url(#clip8)"><path d="M57.163 25.8816 104.085 25.8816 104.085 58.2801 57.163 58.2801Z" stroke="#000000" stroke-width="0.496526" stroke-miterlimit="8" fill="#FFFFFF" transform="matrix(1 0 0 1.00251 234.097 65.3087)"/><text font-family="Yu Gothic,Yu Gothic_MSFontService,sans-serif" font-weight="400" font-size="13" transform="matrix(0.372397 0 0 0.373332 309.601 97)">工場<tspan font-family="Consolas,Consolas_MSFontService,sans-serif" font-size="12" x="-40.2467" y="16.0715">*</tspan><tspan font-size="12" x="-33.58" y="16.0715">工場</tspan><tspan font-family="Consolas,Consolas_MSFontService,sans-serif" font-size="12" x="-9.58" y="16.0715">ID</tspan><tspan font-size="12" x="-28.2467" y="29.4644">工場名</tspan><tspan font-size="12" x="-28.2467" y="45.5358">所在地</tspan><tspan font-size="12" x="-28.2467" y="58.9287">消費電力</tspan><tspan font-family="Consolas,Consolas_MSFontService,sans-serif" font-size="12" x="19.7533" y="58.9287">(</tspan><tspan font-family="Consolas,Consolas_MSFontService,sans-serif" font-size="12" x="26.7533" y="58.9287">M</tspan><tspan font-family="Consolas,Consolas_MSFontService,sans-serif" font-size="12" x="33.7533" y="58.9287">)</tspan></text><path d="M57.163 76.5274 104.085 76.5274 104.085 108.926 57.163 108.926Z" stroke="#000000" stroke-width="0.496526" stroke-miterlimit="8" fill="#FFFFFF" transform="matrix(1 0 0 1.00251 234.097 65.3087)"/><text font-family="Yu Gothic,Yu Gothic_MSFontService,sans-serif" font-weight="400" font-size="13" transform="matrix(0.372397 0 0 0.373332 302.153 148)">生産<tspan font-size="13" x="26" y="0">ライン</tspan><tspan font-family="Consolas,Consolas_MSFontService,sans-serif" font-size="12" x="-20.2467" y="16.0715">*</tspan><tspan font-size="12" x="-13.5799" y="16.0715">生産</tspan><tspan font-size="12" x="10.4201" y="16.0715">ライン</tspan><tspan font-family="Consolas,Consolas_MSFontService,sans-serif" font-size="12" x="46.42" y="16.0715">ID</tspan><tspan font-size="12" x="-8.24661" y="29.4644">消費電力</tspan><tspan font-family="Consolas,Consolas_MSFontService,sans-serif" font-size="12" x="39.7533" y="29.4644">(</tspan><tspan font-family="Consolas,Consolas_MSFontService,sans-serif" font-size="12" x="46.7533" y="29.4644">M</tspan><tspan font-family="Consolas,Consolas_MSFontService,sans-serif" font-size="12" x="53.7533" y="29.4644">)</tspan><tspan font-size="12" x="-8.24661" y="45.5358">稼働状態</tspan></text><path d="M80.6239 58.2801 80.6239 76.4819" stroke="#000000" stroke-width="0.248265" stroke-miterlimit="8" fill="none" fill-rule="evenodd" transform="matrix(1 0 0 1.00251 234.097 65.3087)"/><text font-family="Calibri,Calibri_MSFontService,sans-serif" font-weight="400" font-size="11" transform="matrix(0.372397 0 0 0.373332 311.948 133)">R<tspan font-size="11" x="5.99998" y="0">_</tspan><tspan font-size="11" x="11" y="0">FL</tspan><tspan font-size="11" x="21" y="0">1</tspan><tspan font-size="11" x="-0.814819" y="-13.3929">1</tspan></text><path d="M186.757 131.27 233.679 131.27 233.679 163.668 186.757 163.668Z" stroke="#000000" stroke-width="0.496526" stroke-miterlimit="8" fill="#FFFFFF" transform="matrix(1 0 0 1.00251 234.097 65.3087)"/><text font-family="Yu Gothic,Yu Gothic_MSFontService,sans-serif" font-weight="400" font-size="13" transform="matrix(0.372397 0 0 0.373332 439.251 203)">製品<tspan font-family="Consolas,Consolas_MSFontService,sans-serif" font-size="12" x="-40.2466" y="13.3929">*</tspan><tspan font-size="12" x="-33.5799" y="13.3929">製品</tspan><tspan font-family="Consolas,Consolas_MSFontService,sans-serif" font-size="12" x="-9.57992" y="13.3929">ID</tspan></text><path d="M57.163 127.174 104.085 127.174 104.085 167.392 57.163 167.392Z" stroke="#000000" stroke-width="0.496526" stroke-miterlimit="8" fill="#FFFFFF" transform="matrix(1 0 0 1.00251 234.097 65.3087)"/><text font-family="Yu Gothic,Yu Gothic_MSFontService,sans-serif" font-weight="400" font-size="13" transform="matrix(0.372397 0 0 0.373332 309.601 199)">装置<tspan font-family="Consolas,Consolas_MSFontService,sans-serif" font-size="12" x="-40.2467" y="16.0715">*</tspan><tspan font-size="12" x="-33.58" y="16.0715">装置</tspan><tspan font-family="Consolas,Consolas_MSFontService,sans-serif" font-size="12" x="-9.58" y="16.0715">ID</tspan><tspan font-size="12" x="-28.2467" y="29.4644">消費電力</tspan><tspan font-family="Consolas,Consolas_MSFontService,sans-serif" font-size="12" x="19.7533" y="29.4644">(</tspan><tspan font-family="Consolas,Consolas_MSFontService,sans-serif" font-size="12" x="26.7533" y="29.4644">M</tspan><tspan font-family="Consolas,Consolas_MSFontService,sans-serif" font-size="12" x="33.7533" y="29.4644">)</tspan><tspan font-size="12" x="-28.2467" y="42.8573">稼働状態</tspan><tspan font-size="12" x="-28.2467" y="56.2501">温度</tspan><tspan font-size="12" x="-28.2467" y="72.3216">危険上限温度</tspan></text><path d="M0 0 3.90969e-05 18.2015" stroke="#000000" stroke-width="0.248265" stroke-miterlimit="8" fill="none" fill-rule="evenodd" transform="matrix(-1 0 0 1.00251 314.722 174.508)"/><path d="M0 0 12.9657 0 12.9657 54.8383 0.496526 54.8383" stroke="#000000" stroke-width="0.248265" stroke-miterlimit="8" fill="none" fill-rule="evenodd" transform="matrix(-1 1.22773e-16 1.22465e-16 1.00251 291.757 158.082)"/><path d="M92.3991 167.392 92.3991 180.862 69.8243 180.862 69.8243 167.889" stroke="#000000" stroke-width="0.248265" stroke-miterlimit="8" fill="none" fill-rule="evenodd" transform="matrix(1 0 0 1.00251 234.097 65.3087)"/><path d="M0 0 82.5614 3.90969e-05" stroke="#000000" stroke-width="0.248265" stroke-miterlimit="8" fill="none" fill-rule="evenodd" transform="matrix(-1 0 0 1.00251 420.744 212.962)"/><path d="M0 0 38.4224 0 38.4224 106.106" stroke="#000000" stroke-width="0.248265" stroke-miterlimit="8" fill="none" fill-rule="evenodd" transform="matrix(-1.83697e-16 -1.00251 -1 1.84158e-16 444.288 196.601)"/><text font-family="Calibri,Calibri_MSFontService,sans-serif" font-weight="400" font-size="11" transform="matrix(0.372397 0 0 0.373332 311.645 179)">1<tspan font-size="11" x="76.0836" y="-61.6073">1</tspan><tspan font-size="11" x="-79.9445" y="-45.5358">0</tspan><tspan font-size="11" x="-73.9445" y="-45.5358">..</tspan><tspan font-size="11" x="-67.9445" y="-45.5358">1</tspan><tspan font-size="11" x="-69.3974" y="85.7145">1</tspan><tspan font-size="11" x="-10.7708" y="-104.465">1</tspan><tspan font-size="11" x="-4.77074" y="-104.465">..*</tspan><tspan font-size="11" x="-9.55894" y="32.1429">1</tspan><tspan font-size="11" x="-3.55888" y="32.1429">..*</tspan><tspan font-size="11" x="345.494" y="40.1787">*</tspan><tspan font-size="11" x="76.1133" y="104.465">0</tspan><tspan font-size="11" x="82.1132" y="104.465">..</tspan><tspan font-size="11" x="88.1132" y="104.465">1</tspan><tspan font-size="11" x="273.139" y="83.0359">0</tspan>..<tspan font-size="11" x="285.139" y="83.0359">1</tspan><tspan font-size="11" x="-16.3168" y="158.036">0</tspan><tspan font-size="11" x="-10.3167" y="158.036">..</tspan><tspan font-size="11" x="-4.31675" y="158.036">1</tspan><tspan font-size="11" x="19.7595" y="155.358">0</tspan><tspan font-size="11" x="25.7595" y="155.358">..</tspan><tspan font-size="11" x="31.7595" y="155.358">1</tspan><tspan font-family="Yu Gothic,Yu Gothic_MSFontService,sans-serif" font-size="11" x="-69.3974" y="160.715">前</tspan><tspan font-family="Yu Gothic,Yu Gothic_MSFontService,sans-serif" font-size="11" x="-58.3974" y="160.715">の</tspan><tspan font-family="Yu Gothic,Yu Gothic_MSFontService,sans-serif" font-size="11" x="-47.3973" y="160.715">工程</tspan><tspan font-family="Yu Gothic,Yu Gothic_MSFontService,sans-serif" font-size="11" x="43.1512" y="160.715">後</tspan><tspan font-family="Yu Gothic,Yu Gothic_MSFontService,sans-serif" font-size="11" x="54.1513" y="160.715">の</tspan><tspan font-family="Yu Gothic,Yu Gothic_MSFontService,sans-serif" font-size="11" x="65.1513" y="160.715">工程</tspan><tspan font-family="Yu Gothic,Yu Gothic_MSFontService,sans-serif" font-size="11" x="246.94" y="104.465">仕掛</tspan><tspan font-family="Yu Gothic,Yu Gothic_MSFontService,sans-serif" font-size="11" x="268.94" y="104.465">り</tspan><tspan font-family="Yu Gothic,Yu Gothic_MSFontService,sans-serif" font-size="11" x="279.94" y="104.465">品</tspan><tspan font-family="Yu Gothic,Yu Gothic_MSFontService,sans-serif" font-size="11" x="76.7743" y="83.0359">加工中</tspan><tspan font-family="Yu Gothic,Yu Gothic_MSFontService,sans-serif" font-size="11" x="361.61" y="40.1787">生産製品</tspan><tspan font-family="Yu Gothic,Yu Gothic_MSFontService,sans-serif" font-size="11" x="14.1912" y="-133.929">設置場所</tspan><tspan font-family="Yu Gothic,Yu Gothic_MSFontService,sans-serif" font-size="11" x="10.917" y="2.67858">設置場所</tspan><tspan font-family="Yu Gothic,Yu Gothic_MSFontService,sans-serif" font-size="11" x="-100.633" y="107.143">開始装置</tspan><tspan font-size="11" x="-0.81695" y="18.75">R</tspan><tspan font-size="11" x="5.18303" y="18.75">_</tspan><tspan font-size="11" x="10.1831" y="18.75">LE</tspan><tspan font-size="11" x="20.1831" y="18.75">1</tspan><tspan font-size="11" x="-83.6963" y="18.75">R</tspan><tspan font-size="11" x="-77.6964" y="18.75">_</tspan><tspan font-size="11" x="-72.6964" y="18.75">LE</tspan><tspan font-size="11" x="-62.6963" y="18.75">2</tspan><tspan font-size="11" x="-4.62414" y="192.858">R</tspan><tspan font-size="11" x="1.37592" y="192.858">_</tspan><tspan font-size="11" x="6.37588" y="192.858">EO</tspan><tspan font-size="11" x="18.3759" y="192.858">1</tspan><tspan font-size="11" x="116.175" y="104.465">R</tspan><tspan font-size="11" x="122.175" y="104.465">_</tspan><tspan font-size="11" x="127.175" y="104.465">EP</tspan>1<tspan font-size="11" x="216.602" y="-61.6073">R</tspan><tspan font-size="11" x="222.602" y="-61.6073">_</tspan><tspan font-size="11" x="227.602" y="-61.6073">LP</tspan><tspan font-size="11" x="238.602" y="-61.6073">1</tspan></text><path d="M126.429 107.809 173.351 107.809 173.351 127.918 126.429 127.918Z" stroke="#000000" stroke-width="0.496526" stroke-miterlimit="8" fill="#FFFFFF" transform="matrix(1 0 0 1.00251 234.097 65.3087)"/><text font-family="Yu Gothic,Yu Gothic_MSFontService,sans-serif" font-weight="400" font-size="13" transform="matrix(0.372397 0 0 0.373332 368.965 179)">オーダー<tspan font-size="13" x="51" y="0">仕様</tspan><tspan font-size="12" x="-13.58" y="16.0715">製造</tspan><tspan font-size="12" x="10.42" y="16.0715">ステップ</tspan><tspan font-size="12" x="-13.58" y="29.4644">装置</tspan><tspan font-size="12" x="10.42" y="29.4644">コマンド</tspan></text><path d="M104.085 102.595 149.901 102.595 149.901 107.656" stroke="#000000" stroke-width="0.248265" stroke-miterlimit="8" fill="none" fill-rule="evenodd" transform="matrix(1 0 0 1.00251 234.097 65.3087)"/><path d="M0 0 45.8884 0 45.8884 4.72613" stroke="#000000" stroke-width="0.248265" stroke-miterlimit="8" fill="none" fill-rule="evenodd" transform="matrix(1 0 0 -1.00251 338.182 198.286)"/><text font-family="Calibri,Calibri_MSFontService,sans-serif" font-weight="400" font-size="11" transform="matrix(0.372397 0 0 0.373332 340.151 167)">1<tspan font-size="11" x="124.404" y="13.3929">1</tspan><tspan font-size="11" x="130.404" y="13.3929">..*</tspan><tspan font-size="11" x="130.035" y="83.0359">1</tspan><tspan font-size="11" x="0.673785" y="80.3573">1</tspan><tspan font-family="Yu Gothic,Yu Gothic_MSFontService,sans-serif" font-size="11" x="124.228" y="0">製造指示仕様</tspan><tspan font-family="Yu Gothic,Yu Gothic_MSFontService,sans-serif" font-size="11" x="118.549" y="96.4288">製造指示仕様</tspan><tspan font-size="11" x="43.3781" y="0">R</tspan><tspan font-size="11" x="49.3781" y="0">_</tspan><tspan font-size="11" x="54.3781" y="0">LOS</tspan><tspan font-size="11" x="71.3781" y="0">1</tspan><tspan font-size="11" x="42.2528" y="91.0717">R</tspan><tspan font-size="11" x="48.2527" y="91.0717">_</tspan><tspan font-size="11" x="53.2527" y="91.0717">POS</tspan><tspan font-size="11" x="71.2527" y="91.0717">1</tspan></text><path d="M93.4716 134.063 99.8023 134.063 99.8023 140.394 93.4716 140.394Z" stroke="#2F528F" stroke-width="0.744796" stroke-miterlimit="8" fill="#FFFFFF" transform="matrix(1 0 0 1.00251 234.097 65.3087)"/><path d="M94.5887 137.414C94.5887 136.386 95.5055 135.553 96.637 135.553 97.7685 135.553 98.6852 136.386 98.6852 137.414 98.6852 138.442 97.7685 139.276 96.637 139.276 95.5055 139.276 94.5887 138.442 94.5887 137.414Z" stroke="#AE5A21" stroke-width="0.744796" stroke-miterlimit="8" fill="#FFFFFF" fill-rule="evenodd" transform="matrix(1 0 0 1.00251 234.097 65.3087)"/><path d="M93.4716 133.318 93.7508 132.201 99.5232 132.201 99.8023 133.318Z" stroke="#2F528F" stroke-width="0.744796" stroke-miterlimit="8" fill="#FFFFFF" fill-rule="evenodd" transform="matrix(1 0 0 1.00251 234.097 65.3087)"/><path d="M0 1.11719 0.279296 0 6.05143 0 6.33077 1.11719Z" stroke="#2F528F" stroke-width="0.744796" stroke-miterlimit="8" fill="#FFFFFF" fill-rule="evenodd" transform="matrix(1 0 0 -1.00251 327.569 208.295)"/><path d="M94.2164 130.339 99.0576 130.339 99.0576 131.456 94.2164 131.456Z" stroke="#2F528F" stroke-width="0.744796" stroke-miterlimit="8" fill="#FFFFFF" transform="matrix(1 0 0 1.00251 234.097 65.3087)"/><path d="M95.4411 138.141 97.1327 136.552 96.9472 136.354 97.7127 136.378 97.6892 137.143 97.5037 136.946 95.8121 138.536Z" stroke="#AE5A21" stroke-width="0.744796" stroke-miterlimit="8" fill="#ED7D31" fill-rule="evenodd" transform="matrix(1 0 0 1.00251 234.097 65.3087)"/><g clip-path="url(#clip9)"><g clip-path="url(#clip10)"><g clip-path="url(#clip11)"><path d="M2.32137 2.73072 4.8875 2.73072 4.8875 2.94627 2.32137 2.94627Z" fill="#4B4B4B" transform="matrix(1 0 0 1.06517 399.069 181.788)"/><path d="M2.1001 3.58283 4.6662 3.58283 4.6662 3.79848 2.1001 3.79848Z" fill="#4B4B4B" transform="matrix(1 0 0 1.06517 399.069 181.788)"/><path d="M5.95003 0.425951 5.95003 0.287281 1.60733 0.287281 1.60733 0.425951C1.60733 0.712337 1.61528 1.01171 1.61528 1.32254 1.61528 1.77587 1.59858 2.25346 1.51777 2.75065 1.4409 3.22349 1.30626 3.71416 1.0726 4.22L0.654591 4.22C0.58073 4.22 0.506157 4.23188 0.434215 4.25687 0.326441 4.29429 0.224404 4.3626 0.14712 4.46303 0.0696384 4.56322 0.0185267 4.69357 0.0033283 4.84725 0.00111719 4.86945 0 4.8916 0 4.91353-0.000104737 5.02492 0.0285814 5.13001 0.0768763 5.22205 0.149424 5.36055 0.264041 5.4705 0.397172 5.54732 0.530512 5.62399 0.683452 5.66812 0.83922 5.66925L4.14049 5.67105C4.26618 5.67136 4.37518 5.6457 4.46794 5.60355 4.56084 5.56159 4.63662 5.5058 4.70695 5.44979 4.99453 5.22074 5.21673 4.9369 5.38729 4.6218 5.64318 4.14869 5.78447 3.60509 5.86344 3.05234 5.94224 2.49959 5.95822 1.93689 5.95836 1.42469 5.95836 1.05789 5.95003 0.716866 5.95003 0.425951ZM0.840747 5.39202 0.84085 5.39202C0.772014 5.3917 0.700666 5.37811 0.633145 5.35289 0.531723 5.31525 0.439741 5.25145 0.376445 5.17445 0.344653 5.13591 0.319901 5.09426 0.302992 5.05077 0.286199 5.00723 0.277227 4.96184 0.277227 4.91357 0.277227 4.90087 0.277832 4.88795 0.279147 4.87489 0.28649 4.80164 0.304097 4.74301 0.327442 4.6956 0.362657 4.62477 0.410266 4.57763 0.466417 4.54535 0.522461 4.51338 0.588168 4.49885 0.654591 4.49885L3.62552 4.49885C3.59332 4.5358 3.56464 4.57808 3.54169 4.62585 3.50789 4.69587 3.48525 4.77719 3.47608 4.86868 3.47407 4.88948 3.47305 4.90992 3.47305 4.93028 3.47305 5.02708 3.49621 5.11876 3.53645 5.20016 3.57267 5.27329 3.62249 5.3383 3.68155 5.39364L0.840747 5.39202ZM5.49184 3.53655C5.41188 3.87818 5.29949 4.20191 5.14348 4.48992 4.9875 4.77791 4.78876 5.03005 4.53418 5.23303 4.46999 5.28436 4.41354 5.32408 4.35407 5.35073 4.29429 5.37743 4.23058 5.39351 4.14061 5.39382L4.04803 5.39373C3.96424 5.36996 3.88645 5.32804 3.82314 5.27288 3.77201 5.22848 3.73067 5.17598 3.70218 5.11822 3.67372 5.06045 3.6579 4.99764 3.6579 4.93023 3.6579 4.91618 3.65851 4.90177 3.66002 4.88719 3.66727 4.81465 3.68458 4.75494 3.70812 4.70605 3.74363 4.63279 3.79256 4.58299 3.84909 4.54949 3.90555 4.51617 3.97046 4.49997 4.03525 4.50008 4.10069 4.49986 4.16548 4.51676 4.21911 4.54683 4.27296 4.57718 4.31511 4.61969 4.34066 4.67277 4.35418 4.70073 4.36252 4.73806 4.36252 4.7757 4.36252 4.80659 4.35697 4.8373 4.34692 4.86296 4.33693 4.88881 4.32275 4.90907 4.30625 4.92312 4.27527 4.94919 4.24365 4.95905 4.21173 4.95923 4.18399 4.95923 4.15621 4.9509 4.13308 4.9359 4.10974 4.921 4.0916 4.90006 4.08095 4.87525L3.9111 4.94806C3.93706 5.00876 3.9807 5.05779 4.03325 5.09147 4.08568 5.12519 4.14746 5.14402 4.21173 5.14402 4.28532 5.14429 4.36248 5.11822 4.42609 5.06378 4.46966 5.02659 4.49986 4.97949 4.51914 4.92987 4.53841 4.88025 4.54715 4.82771 4.54715 4.7757 4.54715 4.71248 4.53436 4.64963 4.50721 4.59276 4.46362 4.50209 4.39227 4.43216 4.30956 4.38576 4.22846 4.34036 4.13588 4.31664 4.04177 4.31545L4.04177 4.31399 1.33481 4.31399C1.5737 3.79066 1.71237 3.28168 1.79136 2.79514 1.87568 2.27611 1.89238 1.78254 1.89238 1.32257 1.89238 1.05812 1.88705 0.805343 1.88534 0.564543L5.67348 0.564543C5.67528 0.826464 5.68109 1.11728 5.68109 1.4247 5.68131 2.09958 5.65205 2.8533 5.49184 3.53655Z" fill="#4B4B4B" transform="matrix(1 0 0 1.06517 399.069 181.788)"/><path d="M3.85393 2.19177C3.88645 1.8295 3.88805 1.48275 3.88473 1.1548L2.44907 1.1548C2.45239 1.48275 2.45068 1.8295 2.41818 2.19177L3.85393 2.19177Z" fill="#4B4B4B" transform="matrix(1 0 0 1.06517 399.069 181.788)"/></g></g></g><g clip-path="url(#clip12)"><g clip-path="url(#clip13)"><g clip-path="url(#clip14)"><path d="M222.175 139.276 226.563 139.276 226.563 139.699 222.175 139.699Z" fill="#7F7F7F" transform="matrix(1 0 0 1.00251 234.097 65.3087)"/><path d="M226.985 140.616C226.915 140.493 226.456 139.893 226.456 139.893L225.936 139.893C225.7 140.181 225.102 141.27 225.73 144.458 225.854 145.082 225.915 146.546 225.518 147.26L223.951 147.26C224.488 146.599 225.202 145.304 224.99 143.77 224.72 141.815 224.677 140.618 224.954 139.893L222.282 139.893C222.282 139.893 221.823 140.493 221.753 140.616 221.682 140.739 221.7 140.792 221.7 140.968 221.7 141.144 221.7 146.59 221.7 146.82 221.7 147.048 221.765 147.341 221.929 147.419 222.262 147.577 222.139 147.842 222.493 147.842L226.245 147.842C226.6 147.842 226.476 147.577 226.809 147.419 226.973 147.341 227.038 147.048 227.038 146.82 227.038 146.59 227.038 141.144 227.038 140.968 227.038 140.792 227.056 140.739 226.985 140.616Z" fill="#7F7F7F" transform="matrix(1 0 0 1.00251 234.097 65.3087)"/></g></g></g><path d="M78.3897 104.085 78.8552 102.223 97.3817 102.223 96.9161 104.085Z" stroke="#FFC000" stroke-width="0.248265" stroke-miterlimit="8" fill="url(#fill15)" fill-rule="evenodd" transform="matrix(1 0 0 1.00251 234.097 65.3087)"/><g clip-path="url(#clip16)"><g clip-path="url(#clip17)"><g clip-path="url(#clip18)"><path d="M8.70141 2.16349 5.95995 4.10535 5.95995 2.16349 3.09913 4.18987 2.86081 0.494609 0.476639 0.494609 0 8.83866 9.33332 8.83866 8.70141 2.16349ZM3.5483 6.73647 2.42228 6.73647 2.42228 5.61025 3.5483 5.61025 3.5483 6.73647ZM6.74674 6.73647 5.62039 6.73647 5.62039 5.61025 6.74674 5.61025 6.74674 6.73647Z" fill="#4B4B4B" transform="matrix(1.0374 0 0 1 324.59 98.5353)"/></g></g></g></g></g></g></g><path d="M91.178 16.4346 124.497 16.4346 124.497 42.0995 91.178 42.0995Z" stroke="#FF0000" stroke-width="0.600348" stroke-miterlimit="8" fill="#FFFFFF" transform="matrix(1 0 0 1.00046 205.382 31.2336)"/><g clip-path="url(#clip19)"><g clip-path="url(#clip20)"><g clip-path="url(#clip21)"><path d="M99.8847 26.84C101.099 22.4484 105.644 19.8728 110.035 21.0874 112.831 21.8605 115.015 24.0446 115.788 26.84L114.215 26.84C112.999 23.3158 109.157 21.4442 105.633 22.6596 103.671 23.3363 102.129 24.878 101.453 26.84ZM114.185 31.3409C112.915 34.847 109.043 36.6598 105.538 35.39 103.654 34.7078 102.171 33.2245 101.489 31.3409L99.9122 31.3409C101.181 35.7172 105.757 38.2365 110.134 36.9678 112.85 36.1804 114.973 34.0569 115.761 31.3409Z" fill="url(#fill22)" transform="matrix(1 0 0 1.00046 205.382 31.2336)"/><path d="M108.43 32.8746 106.45 28.4218 105.617 29.861 100.52 29.861C100.105 29.861 99.769 29.5249 99.769 29.1104 99.769 28.6958 100.105 28.3598 100.52 28.3598L104.752 28.3598 106.626 25.1204 108.785 29.9758 110.059 28.344 115.159 28.3551C115.573 28.3551 115.91 28.6912 115.91 29.1057 115.91 29.5203 115.573 29.8564 115.159 29.8564L115.159 29.8564 110.794 29.8462Z" fill="#50E6FF" transform="matrix(1 0 0 1.00046 205.382 31.2336)"/></g></g></g><path d="M107.838 42.0995 107.838 59.9578" stroke="#FF0000" stroke-width="0.600348" stroke-miterlimit="8" fill="none" fill-rule="evenodd" transform="matrix(1 0 0 1.00046 205.382 31.2336)"/><path d="M147.461 77.6702 180.78 77.6702 180.78 102.885 147.461 102.885Z" stroke="#FF0000" stroke-width="0.600348" stroke-miterlimit="8" fill="#FFFFFF" transform="matrix(1 0 0 1.00046 205.382 31.2336)"/><g clip-path="url(#clip23)"><g clip-path="url(#clip24)"><g clip-path="url(#clip25)"><path d="M155.717 87.6254C156.932 83.2336 161.476 80.6581 165.868 81.8729 168.663 82.646 170.847 84.8298 171.62 87.6254L170.047 87.6254C168.832 84.1012 164.989 82.2295 161.465 83.4448 159.503 84.1215 157.962 85.6632 157.285 87.6254ZM170.017 92.1263C168.748 95.6325 164.876 97.4452 161.37 96.1755 159.486 95.4933 158.003 94.0097 157.321 92.1263L155.745 92.1263C157.013 96.5023 161.589 99.0216 165.966 97.7532 168.682 96.9657 170.805 94.8422 171.593 92.1263Z" fill="url(#fill26)" transform="matrix(1 0 0 1.00046 205.382 31.2336)"/><path d="M164.263 93.6599 162.282 89.2072 161.449 90.6462 156.352 90.6462C155.937 90.6462 155.601 90.3104 155.601 89.8957 155.601 89.481 155.937 89.1451 156.352 89.1451L160.585 89.1451 162.458 85.9059 164.617 90.7611 165.891 89.1293 170.991 89.1406C171.406 89.1406 171.742 89.4765 171.742 89.8912 171.742 90.3059 171.406 90.6417 170.991 90.6417L170.991 90.6417 166.626 90.6314Z" fill="#50E6FF" transform="matrix(1 0 0 1.00046 205.382 31.2336)"/></g></g></g><path d="M0 0 14.8347 22.8332" stroke="#FF0000" stroke-width="0.600348" stroke-miterlimit="8" fill="none" fill-rule="evenodd" transform="matrix(-1 0 0 1.00046 352.819 121.552)"/><path d="M255.073 123.147 288.393 123.147 288.393 148.361 255.073 148.361Z" stroke="#FF0000" stroke-width="0.600348" stroke-miterlimit="8" fill="#FFFFFF" transform="matrix(1 0 0 1.00046 205.382 31.2336)"/><g clip-path="url(#clip27)"><g clip-path="url(#clip28)"><g clip-path="url(#clip29)"><path d="M0.376866 6.13077C1.59196 1.73715 6.13874-0.839581 10.5324 0.375505 13.3291 1.14895 15.5142 3.3341 16.2876 6.13077L14.7135 6.13077C13.4975 2.60498 9.65356 0.732487 6.12775 1.94846 4.16481 2.62544 2.62242 4.16783 1.94544 6.13077ZM14.6839 10.6337C13.4135 14.1414 9.54013 15.9551 6.03248 14.6846 4.14807 14.0021 2.66404 12.5181 1.98156 10.6337L0.404645 10.6337C1.6739 15.012 6.25217 17.5324 10.6304 16.2631 13.3477 15.4754 15.4722 13.3509 16.2599 10.6337Z" fill="url(#fill30)" transform="matrix(1.02656 0 0 1 468.335 158.716)"/><path d="M8.92628 12.1681 6.94472 7.71326 6.11135 9.15314 1.01207 9.15314C0.597333 9.15314 0.261121 8.81691 0.261121 8.40216 0.261121 7.98742 0.597333 7.65123 1.01207 7.65123L5.2465 7.65123 7.12157 4.41035 9.28089 9.26796 10.5559 7.63547 15.658 7.64659C16.0727 7.64659 16.4089 7.98278 16.4089 8.39752 16.4089 8.81227 16.0727 9.1485 15.658 9.1485L15.658 9.1485 11.2911 9.13832Z" fill="#50E6FF" transform="matrix(1.02656 0 0 1 468.335 158.716)"/></g></g></g><path d="M0 0 53.2034 16.2624" stroke="#FF0000" stroke-width="0.600348" stroke-miterlimit="8" fill="none" fill-rule="evenodd" transform="matrix(-1 0 0 1.00046 460.528 167.05)"/><path d="M223.555 121.796 228.631 165.639" stroke="#FF0000" stroke-width="0.600348" stroke-miterlimit="8" fill="none" fill-rule="evenodd" transform="matrix(1 0 0 1.00046 205.382 31.2336)"/><path d="M206.895 96.5811 240.215 96.5811 240.215 121.796 206.895 121.796Z" stroke="#FF0000" stroke-width="0.600348" stroke-miterlimit="8" fill="#FFFFFF" transform="matrix(1 0 0 1.00046 205.382 31.2336)"/><g clip-path="url(#clip31)"><g clip-path="url(#clip32)"><g clip-path="url(#clip33)"><path d="M215.152 106.987C216.366 102.595 220.911 100.019 225.302 101.234 228.098 102.007 230.282 104.191 231.055 106.987L229.482 106.987C228.266 103.463 224.424 101.591 220.9 102.806 218.938 103.483 217.396 105.024 216.72 106.987ZM229.452 111.488C228.182 114.994 224.311 116.806 220.805 115.537 218.921 114.855 217.438 113.371 216.756 111.488L215.179 111.488C216.448 115.864 221.024 118.383 225.401 117.114 228.117 116.327 230.24 114.203 231.028 111.488Z" fill="url(#fill34)" transform="matrix(1 0 0 1.00046 205.382 31.2336)"/><path d="M223.697 113.021 221.717 108.568 220.884 110.008 215.787 110.008C215.372 110.008 215.036 109.672 215.036 109.257 215.036 108.842 215.372 108.506 215.787 108.506L220.019 108.506 221.893 105.267 224.052 110.122 225.326 108.491 230.426 108.502C230.84 108.502 231.177 108.838 231.177 109.252 231.177 109.667 230.84 110.003 230.426 110.003L230.426 110.003 226.061 109.993Z" fill="#50E6FF" transform="matrix(1 0 0 1.00046 205.382 31.2336)"/></g></g></g><path d="M158.717 193.838 192.037 193.838 192.037 219.503 158.717 219.503Z" stroke="#FF0000" stroke-width="0.600348" stroke-miterlimit="8" fill="#FFFFFF" transform="matrix(1 0 0 1.00046 205.382 31.2336)"/><g clip-path="url(#clip35)"><g clip-path="url(#clip36)"><g clip-path="url(#clip37)"><path d="M166.974 204.243C168.188 199.851 172.733 197.276 177.124 198.491 179.92 199.264 182.104 201.448 182.877 204.243L181.304 204.243C180.088 200.719 176.246 198.847 172.722 200.063 170.76 200.739 169.218 202.281 168.542 204.243ZM181.274 208.744C180.004 212.25 176.133 214.063 172.627 212.793 170.743 212.111 169.26 210.628 168.578 208.744L167.001 208.744C168.27 213.12 172.846 215.639 177.223 214.371 179.939 213.583 182.062 211.46 182.85 208.744Z" fill="url(#fill38)" transform="matrix(1 0 0 1.00046 205.382 31.2336)"/><path d="M175.519 210.278 173.539 205.825 172.706 207.264 167.609 207.264C167.194 207.264 166.858 206.928 166.858 206.513 166.858 206.099 167.194 205.763 167.609 205.763L171.841 205.763 173.715 202.524 175.874 207.379 177.148 205.747 182.248 205.758C182.662 205.758 182.999 206.094 182.999 206.509 182.999 206.924 182.662 207.26 182.248 207.26L182.248 207.26 177.883 207.249Z" fill="#50E6FF" transform="matrix(1 0 0 1.00046 205.382 31.2336)"/></g></g></g><path d="M158.625 206.827 132.602 191.136" stroke="#FF0000" stroke-width="0.600348" stroke-miterlimit="8" fill="none" fill-rule="evenodd" transform="matrix(1 0 0 1.00046 205.382 31.2336)"/><path d="M122.246 223.105 155.565 223.105 155.565 248.319 122.246 248.319Z" stroke="#FF0000" stroke-width="0.600348" stroke-miterlimit="8" fill="#FFFFFF" transform="matrix(1 0 0 1.00046 205.382 31.2336)"/><g clip-path="url(#clip39)"><g clip-path="url(#clip40)"><g clip-path="url(#clip41)"><path d="M0.376866 6.13077C1.59196 1.73715 6.13874-0.839581 10.5324 0.375505 13.3291 1.14895 15.5142 3.3341 16.2876 6.13077L14.7135 6.13077C13.4975 2.60498 9.65356 0.732487 6.12775 1.94846 4.16481 2.62544 2.62242 4.16783 1.94544 6.13077ZM14.6839 10.6337C13.4135 14.1414 9.54013 15.9551 6.03248 14.6846 4.14807 14.0021 2.66404 12.5181 1.98156 10.6337L0.404645 10.6337C1.6739 15.012 6.25217 17.5324 10.6304 16.2631 13.3477 15.4754 15.4722 13.3509 16.2599 10.6337Z" fill="url(#fill42)" transform="matrix(1.02656 0 0 1 335.508 258.269)"/><path d="M8.92628 12.1681 6.94472 7.71326 6.11135 9.15314 1.01207 9.15314C0.597333 9.15314 0.261121 8.81691 0.261121 8.40216 0.261121 7.98742 0.597333 7.65123 1.01207 7.65123L5.2465 7.65123 7.12157 4.41035 9.28089 9.26796 10.5559 7.63547 15.658 7.64659C16.0727 7.64659 16.4089 7.98278 16.4089 8.39752 16.4089 8.81227 16.0727 9.1485 15.658 9.1485L15.658 9.1485 11.2911 9.13832Z" fill="#50E6FF" transform="matrix(1.02656 0 0 1 335.508 258.269)"/></g></g></g><path d="M139.067 222.813 116.393 215" stroke="#FF0000" stroke-width="0.600348" stroke-miterlimit="8" fill="none" fill-rule="evenodd" transform="matrix(1 0 0 1.00046 205.382 31.2336)"/><path d="M45.7016 212.298 79.0209 212.298 79.0209 237.963 45.7016 237.963Z" stroke="#FF0000" stroke-width="0.600348" stroke-miterlimit="8" fill="#FFFFFF" transform="matrix(1 0 0 1.00046 205.382 31.2336)"/><g clip-path="url(#clip43)"><g clip-path="url(#clip44)"><g clip-path="url(#clip45)"><path d="M54.4083 222.704C55.6226 218.312 60.1671 215.737 64.559 216.951 67.3542 217.725 69.5384 219.908 70.3115 222.704L68.7383 222.704C67.5226 219.18 63.6805 217.308 60.1563 218.523 58.1945 219.2 56.6528 220.742 55.9761 222.704ZM68.7086 227.205C67.4389 230.711 63.5671 232.524 60.0613 231.254 58.1774 230.572 56.6943 229.088 56.0121 227.205L54.4357 227.205C55.7046 231.581 60.2806 234.1 64.6571 232.832 67.3731 232.044 69.4966 229.921 70.2841 227.205Z" fill="url(#fill46)" transform="matrix(1 0 0 1.00046 205.382 31.2336)"/><path d="M62.9538 228.738 60.9731 224.286 60.1401 225.725 55.0432 225.725C54.6285 225.725 54.2926 225.389 54.2926 224.974 54.2926 224.559 54.6285 224.224 55.0432 224.224L59.2756 224.224 61.1496 220.984 63.3082 225.84 64.5824 224.208 69.6821 224.219C70.0967 224.219 70.4326 224.555 70.4326 224.97 70.4326 225.384 70.0967 225.72 69.6821 225.72L69.6821 225.72 65.3172 225.71Z" fill="#50E6FF" transform="matrix(1 0 0 1.00046 205.382 31.2336)"/></g></g></g><path d="M0 0 23.2839 16.7641" stroke="#FF0000" stroke-width="0.600348" stroke-miterlimit="8" fill="none" fill-rule="evenodd" transform="matrix(1 0 0 -1.00046 267.743 243.733)"/><path d="M31.2932 127.649 64.6126 127.649 64.6126 152.864 31.2932 152.864Z" stroke="#FF0000" stroke-width="0.600348" stroke-miterlimit="8" fill="#FFFFFF" transform="matrix(1 0 0 1.00046 205.382 31.2336)"/><g clip-path="url(#clip47)"><g clip-path="url(#clip48)"><g clip-path="url(#clip49)"><path d="M39.5495 137.604C40.764 133.213 45.3085 130.637 49.7003 131.852 52.4956 132.625 54.6798 134.809 55.4529 137.604L53.8797 137.604C52.664 134.08 48.8219 132.209 45.2977 133.424 43.3357 134.101 41.794 135.642 41.1173 137.604ZM53.85 142.105C52.5802 145.612 48.7084 147.424 45.2027 146.155 43.319 145.472 41.8356 143.989 41.1534 142.105L39.5772 142.105C40.8459 146.481 45.422 149.001 49.7985 147.732 52.5145 146.945 54.6379 144.821 55.4254 142.105Z" fill="url(#fill50)" transform="matrix(1 0 0 1.00046 205.382 31.2336)"/><path d="M48.0952 143.639 46.1145 139.186 45.2815 140.625 40.1844 140.625C39.7698 140.625 39.4338 140.289 39.4338 139.875 39.4338 139.46 39.7698 139.124 40.1844 139.124L44.4169 139.124 46.291 135.885 48.4495 140.74 49.7238 139.108 54.8234 139.12C55.2381 139.12 55.574 139.456 55.574 139.87 55.574 140.285 55.2381 140.621 54.8234 140.621L54.8234 140.621 50.4586 140.61Z" fill="#50E6FF" transform="matrix(1 0 0 1.00046 205.382 31.2336)"/></g></g></g><path d="M64.6126 140.257 85.8109 140.257" stroke="#FF0000" stroke-width="0.600348" stroke-miterlimit="8" fill="none" fill-rule="evenodd" transform="matrix(1 0 0 1.00046 205.382 31.2336)"/><g clip-path="url(#clip51)"><g clip-path="url(#clip52)"><g clip-path="url(#clip53)"><path d="M247.389 138.785 242.356 138.785 242.356 137.316C239.587 133.075 233.369 123.65 225.619 109.399 218.378 98.8631 214.463 76.7183 217.306 73.6619L217.737 73.1959C220.576 70.1431 222.532 67.1642 222.069 66.5789 221.621 66.0007 218.915 68.0197 216.072 71.0828L215.234 71.9766C212.388 75.0438 197.688 70.8199 192.052 69.0499 185.463 66.9994 181.074 65.4609 176.686 62.8881 172.298 60.3184 155.6 50.631 155.6 46.1059L155.6 33.884C155.6 29.3661 155.049 25.6649 154.37 25.6649 153.697 25.6649 153.146 29.3661 153.146 33.884L153.146 46.1059C153.146 50.6306 141.362 59.2914 126.438 65.7166 103.617 72.9122 96.3511 75.0433 93.5122 71.9762L92.6747 71.0752C89.8254 68.0192 87.5048 65.5198 87.5048 65.5198 87.5048 65.5198 87.1261 65.9998 86.6668 66.5784 86.2148 67.1637 88.1635 70.1431 91.0128 73.1991L91.4441 73.6615C94.2835 76.7178 95.9377 85.2422 83.6492 110.944 79.4924 119.132 70.2458 134.536 67.9396 138.785L61.4941 138.785C57.5372 138.785 54.298 139.573 54.298 140.541 54.298 141.508 57.5367 142.297 61.4941 142.297L66.0894 142.297 66.0894 144.543C68.8653 148.788 75.0829 158.213 82.8257 172.464 90.0704 183 93.9854 205.145 91.1429 208.201L90.7115 208.667C87.869 211.72 85.9136 214.706 86.376 215.284 86.828 215.862 89.5305 213.843 92.373 210.784L93.2105 209.883C96.0566 206.826 110.75 211.043 116.4 212.809 122.982 214.863 127.37 216.402 131.759 218.978 136.147 221.544 152.845 231.239 152.845 235.764L152.845 247.975C152.845 252.496 153.395 256.198 154.079 256.198 154.752 256.198 155.302 252.496 155.302 247.975L155.302 235.764C155.302 231.239 167.086 222.571 182.007 216.153 204.828 208.95 212.094 206.826 214.939 209.883L215.774 210.784C218.623 213.843 220.948 216.35 220.948 216.35 220.948 216.35 221.319 215.863 221.778 215.284 222.23 214.706 220.281 211.719 217.435 208.66L217.004 208.201C214.162 205.145 212.507 196.62 224.799 170.918 229.279 162.096 239.678 144.873 240.915 142.297L247.389 142.297C251.342 142.297 254.581 141.508 254.581 140.533 254.581 139.574 251.342 138.785 247.389 138.785ZM209.507 139.244 206.696 139.244C202.829 139.244 198.094 136.041 196.163 132.129L188.165 115.905C186.226 111.989 186.977 106.276 189.826 103.216L190.495 102.501C193.338 99.4412 197.239 100.139 199.177 104.057L213.008 132.122C214.946 136.041 213.362 139.244 209.507 139.244ZM194.134 132.122C196.065 136.041 194.484 139.244 190.622 139.244L187.786 139.244C183.924 139.244 179.188 136.041 177.254 132.129L175.81 129.188C173.875 125.277 174.625 119.567 177.464 116.507L178.158 115.764C181.004 112.708 184.905 113.412 186.844 117.331L194.134 132.122ZM175.228 132.129C177.159 136.041 175.578 139.244 171.719 139.244L163.346 139.244C159.487 139.244 158.653 136.745 161.495 133.685L165.799 129.059C168.642 125.999 172.55 126.703 174.481 130.615L175.228 132.129ZM155.302 153.969C155.302 149.444 157.629 148.249 160.472 151.305L163.227 154.267C164.646 155.791 166.83 157.246 166.577 158.757 166.325 160.271 163.654 161.856 161.853 162.62 160.016 163.401 157.675 164.421 156.483 163.38 155.341 162.382 155.302 159.395 155.302 157.187L155.302 153.969ZM165.505 152.805 161.201 148.175C158.355 145.119 159.186 142.62 163.048 142.62L171.425 142.62C175.277 142.62 176.865 145.82 174.927 149.742L174.187 151.245C173.293 153.054 172.403 155.461 170.966 155.844 169.29 156.293 167.03 154.449 165.505 152.805ZM175.512 152.676 176.96 149.742C178.887 145.82 183.633 142.62 187.492 142.62L190.327 142.62C194.19 142.62 195.767 145.82 193.833 149.742L186.542 164.54C185.452 166.741 183.882 169.485 182.084 169.548 180.689 169.605 179.105 167.431 177.857 166.096L177.173 165.353C174.331 162.296 173.58 156.594 175.512 152.676ZM187.394 180.263 187.933 180.841C190.783 183.901 190.138 187.669 186.51 189.215L161.902 199.706C160.086 200.48 157.678 201.363 156.483 200.389 155.291 199.415 155.302 196.593 155.302 194.343 155.302 189.853 158.271 184.907 161.902 183.362L175.62 177.516C179.259 175.962 184.551 177.207 187.394 180.263ZM189.525 178.64C186.683 175.588 185.932 169.878 187.867 165.959L195.866 149.742C197.794 145.82 202.539 142.62 206.395 142.62L209.206 142.62C213.072 142.62 214.645 145.82 212.714 149.742L198.88 177.803C197.678 180.249 195.795 183.112 193.784 182.913 192.578 182.797 191.26 180.512 190.195 179.362L189.525 178.64ZM223.204 111.457C238.788 137.411 235.724 139.244 231.862 139.244L225.973 139.244C222.117 139.244 213.334 129.444 207.845 116.851 203.24 110.171 199.58 92.7188 202.426 89.6696L205.104 86.7816C211.574 79.8485 214.21 93.2132 223.204 111.457ZM155.6 65.6112C155.6 61.0861 156.715 56.968 162.203 60.2063 162.203 60.2063 171.288 66.9602 181.298 70.8545 191.295 74.752 201.424 76.925 201.424 76.925 207.628 78.5621 205.694 82.2385 202.847 85.3021L200.324 88.0113C197.481 91.0749 189.563 92.6098 175.372 87.2999 161.187 82.6699 155.621 75.6462 155.6 68.4988L155.6 65.6112ZM156.21 81.4749C157.408 80.0097 164.401 87.8155 174.201 91.0713 180.78 93.1285 190.698 94.4501 191.021 95.8661 191.389 97.4434 189.735 99.4097 188.231 101.018L187.691 101.607C184.852 104.664 179.556 105.901 175.921 104.355L162.203 98.502C158.565 96.9567 155.599 92.0105 155.599 87.5174 155.6 85.6844 155.375 82.488 156.21 81.4749ZM156.21 100.325C157.416 98.9964 160.149 99.8163 162.203 100.693L174.471 105.915C176.49 106.781 178.957 108.004 179.027 109.743 179.09 111.123 177.148 112.943 175.897 114.292L175.322 114.913C172.487 117.962 167.184 119.199 163.556 117.654L162.203 117.082C158.565 115.53 155.6 110.577 155.6 106.073 155.6 104.11 155.277 101.338 156.21 100.325ZM156.055 118.824C157.268 117.52 160.128 118.39 162.147 119.245 163.97 120.019 166.213 121.232 166.451 122.764 166.676 124.264 164.93 126.087 163.525 127.604L160.773 130.555C157.931 133.615 155.6 132.416 155.6 127.895L155.6 124.677C155.6 122.683 155.109 119.851 156.055 118.824ZM153.146 127.895C153.146 132.416 150.816 133.615 147.973 130.555L145.221 127.597C143.798 126.072 141.622 124.618 141.874 123.107 142.119 121.593 144.797 120.015 146.592 119.244 148.432 118.463 150.773 117.443 151.962 118.48 153.1 119.476 153.146 122.465 153.146 124.677L153.146 127.895ZM142.94 129.059 147.251 133.685C150.09 136.745 149.26 139.244 145.4 139.244L137.024 139.244C133.168 139.244 131.584 136.041 133.518 132.122L134.258 130.615C135.152 128.806 136.049 126.402 137.479 126.02 139.154 125.571 141.415 127.411 142.94 129.059ZM132.937 129.188 131.489 132.122C129.557 136.041 124.812 139.244 120.957 139.244L118.118 139.244C114.255 139.244 112.681 136.041 114.613 132.122L121.903 117.324C122.997 115.123 124.571 112.379 126.369 112.312 127.757 112.266 129.341 114.429 130.589 115.764L131.276 116.507C134.118 119.567 134.864 125.277 132.937 129.188ZM121.055 101.601 120.515 101.019C117.662 97.9625 118.307 94.1948 121.934 92.6418L146.543 82.1584C148.359 81.3839 150.774 80.5005 151.962 81.4749 153.164 82.4492 153.146 85.2706 153.146 87.5174 153.146 92.0105 150.174 96.9567 146.543 98.502L132.824 104.348C129.193 105.901 123.894 104.664 121.055 101.601ZM118.92 103.216C121.762 106.276 122.513 111.989 120.578 115.905L112.587 132.122C110.652 136.041 105.909 139.244 102.05 139.244L99.2431 139.244C95.3839 139.244 93.7999 136.041 95.7347 132.122L109.568 104.058C110.778 101.611 112.649 98.7514 114.668 98.9509 115.867 99.0661 117.185 101.349 118.25 102.502L118.92 103.216ZM98.945 142.62 101.749 142.62C105.611 142.62 110.354 145.82 112.285 149.735L120.287 165.959C122.218 169.878 121.468 175.588 118.618 178.64L117.949 179.363C115.11 182.423 111.198 181.725 109.274 177.803L95.4361 149.742C93.5018 145.82 95.0827 142.62 98.945 142.62ZM114.311 149.742C112.383 145.82 113.961 142.62 117.823 142.62L120.662 142.62C124.522 142.62 129.257 145.82 131.188 149.735L132.639 152.676C134.57 156.587 133.824 162.297 130.974 165.353L130.294 166.093C127.444 169.156 123.536 168.452 121.605 164.533L114.311 149.742ZM133.217 149.735C131.286 145.82 132.867 142.62 136.729 142.62L145.1 142.62C148.962 142.62 149.793 145.118 146.95 148.175L142.646 152.805C139.804 155.865 135.895 155.161 133.964 151.246L133.217 149.735ZM153.146 106.073C153.146 110.577 150.174 115.53 146.543 117.082L145.183 117.654C143.374 118.428 140.644 119.658 138.502 119.168 136.371 118.666 134.843 116.437 133.42 114.905L132.852 114.292C130.013 111.232 130.651 107.464 134.275 105.919L146.543 100.693C148.359 99.9149 150.914 98.8316 152.116 99.8023 153.311 100.784 153.146 103.823 153.146 106.073ZM107.322 76.9254 146.543 60.2068C148.359 59.4287 150.619 58.226 151.814 59.2045 153.013 60.1856 153.146 63.3509 153.146 65.6117L153.146 68.4997C152.69 76.6805 145.968 80.7918 133.977 84.9036 123.732 89.3617 111.261 91.0758 108.415 88.0122L105.892 85.2958C104.427 83.7325 102.06 81.4821 102.373 79.9368 102.667 78.4676 105.556 77.672 107.322 76.9254ZM85.6258 114.029C92.6499 100.153 97.375 83.2485 99.0085 83.0134 100.536 82.8031 102.264 85.3021 103.642 86.7812L106.313 89.662C109.166 92.7184 103.796 110.622 101.861 114.541 93.5266 129.703 86.6322 139.244 82.7662 139.244L76.8813 139.244C73.0221 139.244 77.2843 126.615 85.6258 114.029ZM85.2404 170.403C69.6573 144.453 72.7204 142.62 76.5832 142.62L82.4717 142.62C86.3341 142.62 95.1106 152.423 100.603 165.013 105.205 171.693 108.871 189.141 106.019 192.201L103.341 195.082C96.8702 202.012 94.2344 188.651 85.2404 170.403ZM152.845 216.253C152.845 220.778 151.73 224.885 146.249 221.664 146.249 221.664 137.157 214.904 127.15 211.009 117.15 207.108 107.02 204.946 107.02 204.946 100.817 203.302 102.751 199.625 105.597 196.569L108.121 193.853C110.967 190.785 118.881 189.254 133.076 194.56 147.265 199.19 152.823 206.214 152.845 213.365L152.845 216.253ZM152.238 200.389C151.029 201.854 144.051 194.056 134.247 190.793 127.665 188.742 117.749 187.414 117.423 185.997 117.062 184.42 118.713 182.454 120.214 180.842L120.753 180.256C123.592 177.207 128.892 175.963 132.523 177.508L146.249 183.362C149.88 184.907 152.845 189.853 152.845 194.343 152.845 196.18 153.069 199.376 152.238 200.389ZM152.238 181.546C151.022 182.868 148.296 182.048 146.249 181.171L133.978 175.948C131.955 175.079 129.495 173.863 129.417 172.121 129.354 170.747 131.299 168.918 132.554 167.572L133.126 166.951C135.965 163.895 141.264 162.658 144.889 164.21L146.249 164.789C149.88 166.334 152.845 171.287 152.845 175.791 152.845 177.743 153.175 180.526 152.238 181.546ZM152.389 163.04C151.176 164.34 148.316 163.474 146.294 162.619 144.482 161.841 142.232 160.632 141.997 159.1 141.769 157.6 143.518 155.777 144.92 154.266L147.671 151.305C150.517 148.248 152.845 149.444 152.845 153.968L152.845 157.186C152.845 159.177 153.336 162.013 152.389 163.04ZM155.302 175.791C155.302 171.287 158.271 166.334 161.902 164.781L163.255 164.21C165.07 163.436 167.804 162.198 169.936 162.696 172.073 163.197 173.602 165.434 175.024 166.958L175.593 167.572C178.442 170.628 177.797 174.396 174.17 175.942L161.902 181.171C160.087 181.949 157.531 183.032 156.336 182.058 155.144 181.08 155.302 178.048 155.302 175.791ZM201.127 204.945 161.902 221.664C160.087 222.439 157.826 223.638 156.63 222.656 155.432 221.678 155.302 218.513 155.302 216.252L155.302 213.364C155.747 205.184 162.477 201.072 174.478 196.961 184.716 192.502 197.183 190.785 200.029 193.852L202.553 196.569C204.018 198.132 206.384 200.382 206.072 201.928 205.777 203.393 202.889 204.188 201.127 204.945ZM222.826 167.842C215.798 181.711 211.07 198.612 209.437 198.85 207.909 199.061 206.184 196.562 204.81 195.083L202.125 192.202C199.283 189.142 204.649 171.242 206.587 167.32 214.919 152.161 221.817 142.62 225.682 142.62L231.567 142.62C235.423 142.62 231.161 155.245 222.826 167.842Z" fill="#4B4B4B" fill-opacity="0.14" transform="matrix(1 0 0 1.00046 205.382 31.2336)"/></g></g></g></g></g></g></g><g clip-path="url(#clip54)"><g clip-path="url(#clip55)"><g clip-path="url(#clip56)"><g clip-path="url(#clip57)"><path d="M74.6473 33.798 135.921 33.798 135.921 76.1062 74.6473 76.1062Z" stroke="#000000" stroke-width="0.6484" stroke-miterlimit="8" fill="#FFFFFF" transform="matrix(1.00111 0 0 1 41.7763 335.932)"/><text font-family="Yu Gothic,Yu Gothic_MSFontService,sans-serif" font-weight="400" font-size="13" transform="matrix(0.486842 0 0 0.486301 140.484 378)">工場<tspan font-family="Consolas,Consolas_MSFontService,sans-serif" font-size="12" x="-40.2467" y="14.3944">*</tspan><tspan font-size="12" x="-33.58" y="14.3944">工場</tspan><tspan font-family="Consolas,Consolas_MSFontService,sans-serif" font-size="12" x="-9.57999" y="14.3944">ID</tspan><tspan font-size="12" x="-28.2467" y="28.7887">工場名</tspan><tspan font-size="12" x="-28.2467" y="43.1831">所在地</tspan><tspan font-size="12" x="-28.2467" y="57.5775">消費電力</tspan><tspan font-family="Consolas,Consolas_MSFontService,sans-serif" font-size="12" x="19.7533" y="57.5775">(</tspan><tspan font-family="Consolas,Consolas_MSFontService,sans-serif" font-size="12" x="26.7533" y="57.5775">M</tspan><tspan font-family="Consolas,Consolas_MSFontService,sans-serif" font-size="12" x="33.7533" y="57.5775">)</tspan></text><path d="M74.6473 99.9349 135.921 99.9349 135.921 142.243 74.6473 142.243Z" stroke="#000000" stroke-width="0.6484" stroke-miterlimit="8" fill="#FFFFFF" transform="matrix(1.00111 0 0 1 41.7763 335.932)"/><text font-family="Yu Gothic,Yu Gothic_MSFontService,sans-serif" font-weight="400" font-size="13" transform="matrix(0.486842 0 0 0.486301 130.747 444)">生産<tspan font-size="13" x="26" y="0">ライン</tspan><tspan font-family="Consolas,Consolas_MSFontService,sans-serif" font-size="12" x="-20.2467" y="14.3944">*</tspan><tspan font-size="12" x="-13.58" y="14.3944">生産</tspan><tspan font-size="12" x="10.42" y="14.3944">ライン</tspan><tspan font-family="Consolas,Consolas_MSFontService,sans-serif" font-size="12" x="46.42" y="14.3944">ID</tspan><tspan font-size="12" x="-8.24667" y="28.7887">消費電力</tspan><tspan font-family="Consolas,Consolas_MSFontService,sans-serif" font-size="12" x="39.7533" y="28.7887">(</tspan><tspan font-family="Consolas,Consolas_MSFontService,sans-serif" font-size="12" x="46.7533" y="28.7887">M</tspan><tspan font-family="Consolas,Consolas_MSFontService,sans-serif" font-size="12" x="53.7533" y="28.7887">)</tspan><tspan font-size="12" x="-8.24667" y="43.1831">稼働状態</tspan></text><path d="M105.284 76.1062 105.284 99.8751" stroke="#000000" stroke-width="0.324201" stroke-miterlimit="8" fill="none" fill-rule="evenodd" transform="matrix(1.00111 0 0 1 41.7763 335.932)"/><text font-family="Calibri,Calibri_MSFontService,sans-serif" font-weight="400" font-size="11" transform="matrix(0.486842 0 0 0.486301 143.552 424)">R<tspan font-size="11" x="6" y="0">_</tspan><tspan font-size="11" x="11" y="0">FL</tspan><tspan font-size="11" x="21" y="0">1</tspan><tspan font-size="11" x="-0.814808" y="-12.338">1</tspan></text><path d="M243.88 171.421 305.154 171.421 305.154 213.729 243.88 213.729Z" stroke="#000000" stroke-width="0.6484" stroke-miterlimit="8" fill="#FFFFFF" transform="matrix(1.00111 0 0 1 41.7763 335.932)"/><text font-family="Yu Gothic,Yu Gothic_MSFontService,sans-serif" font-weight="400" font-size="13" transform="matrix(0.486842 0 0 0.486301 309.978 515)">製品<tspan font-family="Consolas,Consolas_MSFontService,sans-serif" font-size="12" x="-40.2466" y="14.3944">*</tspan><tspan font-size="12" x="-33.58" y="14.3944">製品</tspan><tspan font-family="Consolas,Consolas_MSFontService,sans-serif" font-size="12" x="-9.57999" y="14.3944">ID</tspan></text><path d="M74.6473 166.072 135.921 166.072 135.921 218.592 74.6473 218.592Z" stroke="#000000" stroke-width="0.6484" stroke-miterlimit="8" fill="#FFFFFF" transform="matrix(1.00111 0 0 1 41.7763 335.932)"/><text font-family="Yu Gothic,Yu Gothic_MSFontService,sans-serif" font-weight="400" font-size="13" transform="matrix(0.486842 0 0 0.486301 140.484 510)">装置<tspan font-family="Consolas,Consolas_MSFontService,sans-serif" font-size="12" x="-40.2467" y="14.3944">*</tspan><tspan font-size="12" x="-33.58" y="14.3944">装置</tspan><tspan font-family="Consolas,Consolas_MSFontService,sans-serif" font-size="12" x="-9.57999" y="14.3944">ID</tspan><tspan font-size="12" x="-28.2467" y="28.7887">消費電力</tspan><tspan font-family="Consolas,Consolas_MSFontService,sans-serif" font-size="12" x="19.7533" y="28.7887">(</tspan><tspan font-family="Consolas,Consolas_MSFontService,sans-serif" font-size="12" x="26.7533" y="28.7887">M</tspan><tspan font-family="Consolas,Consolas_MSFontService,sans-serif" font-size="12" x="33.7533" y="28.7887">)</tspan><tspan font-size="12" x="-28.2467" y="43.1831">稼働状態</tspan><tspan font-size="12" x="-28.2467" y="57.5775">温度</tspan><tspan font-size="12" x="-28.2467" y="74.0282">危険上限温度</tspan></text><path d="M0 0 5.10553e-05 23.7688" stroke="#000000" stroke-width="0.324201" stroke-miterlimit="8" fill="none" fill-rule="evenodd" transform="matrix(-1.00111 0 0 1 147.178 478.175)"/><path d="M0 0 16.9315 0 16.9315 71.6113 0.6484 71.6113" stroke="#000000" stroke-width="0.324201" stroke-miterlimit="8" fill="none" fill-rule="evenodd" transform="matrix(-1.00111 1.22465e-16 1.22601e-16 1 117.156 456.777)"/><path d="M120.661 218.592 120.661 236.182 91.1815 236.182 91.1815 219.241" stroke="#000000" stroke-width="0.324201" stroke-miterlimit="8" fill="none" fill-rule="evenodd" transform="matrix(1.00111 0 0 1 41.7763 335.932)"/><path d="M0 0 107.814 5.10553e-05" stroke="#000000" stroke-width="0.324201" stroke-miterlimit="8" fill="none" fill-rule="evenodd" transform="matrix(-1.00111 0 0 1 285.783 528.264)"/><path d="M0 0 50.1746 0 50.1746 138.56" stroke="#000000" stroke-width="0.324201" stroke-miterlimit="8" fill="none" fill-rule="evenodd" transform="matrix(-1.83901e-16 -1 -1.00111 1.83697e-16 316.563 506.952)"/><text font-family="Calibri,Calibri_MSFontService,sans-serif" font-weight="400" font-size="11" transform="matrix(0.486842 0 0 0.486301 143.156 483)">1<tspan font-size="11" x="76.0836" y="-57.5775">1</tspan><tspan font-size="11" x="-79.9445" y="-43.1831">0</tspan><tspan font-size="11" x="-73.9445" y="-43.1831">..</tspan>1<tspan font-size="11" x="-69.3974" y="86.3662">1</tspan><tspan font-size="11" x="-10.7708" y="-102.817">1</tspan><tspan font-size="11" x="-4.77078" y="-102.817">..*</tspan><tspan font-size="11" x="-9.55892" y="34.9577">1</tspan><tspan font-size="11" x="-3.55893" y="34.9577">..*</tspan><tspan font-size="11" x="345.494" y="43.1831">*</tspan><tspan font-size="11" x="76.1132" y="106.93">0</tspan>..<tspan font-size="11" x="88.1132" y="106.93">1</tspan><tspan font-size="11" x="273.139" y="84.3099">0</tspan>..1<tspan font-size="11" x="-16.3168" y="160.394">0</tspan><tspan font-size="11" x="-10.3168" y="160.394">..</tspan><tspan font-size="11" x="-4.31679" y="160.394">1</tspan><tspan font-size="11" x="19.7595" y="158.338">0</tspan><tspan font-size="11" x="25.7595" y="158.338">..</tspan><tspan font-size="11" x="31.7595" y="158.338">1</tspan><tspan font-family="Yu Gothic,Yu Gothic_MSFontService,sans-serif" font-size="11" x="-69.3974" y="164.507">前</tspan><tspan font-family="Yu Gothic,Yu Gothic_MSFontService,sans-serif" font-size="11" x="-58.3974" y="164.507">の</tspan><tspan font-family="Yu Gothic,Yu Gothic_MSFontService,sans-serif" font-size="11" x="-47.3974" y="164.507">工程</tspan><tspan font-family="Yu Gothic,Yu Gothic_MSFontService,sans-serif" font-size="11" x="43.1512" y="164.507">後</tspan><tspan font-family="Yu Gothic,Yu Gothic_MSFontService,sans-serif" font-size="11" x="54.1512" y="164.507">の</tspan><tspan font-family="Yu Gothic,Yu Gothic_MSFontService,sans-serif" font-size="11" x="65.1512" y="164.507">工程</tspan><tspan font-family="Yu Gothic,Yu Gothic_MSFontService,sans-serif" font-size="11" x="246.94" y="106.93">仕掛</tspan><tspan font-family="Yu Gothic,Yu Gothic_MSFontService,sans-serif" font-size="11" x="268.94" y="106.93">り</tspan><tspan font-family="Yu Gothic,Yu Gothic_MSFontService,sans-serif" font-size="11" x="279.94" y="106.93">品</tspan><tspan font-family="Yu Gothic,Yu Gothic_MSFontService,sans-serif" font-size="11" x="76.7743" y="84.3099">加工中</tspan><tspan font-family="Yu Gothic,Yu Gothic_MSFontService,sans-serif" font-size="11" x="361.61" y="41.1268">生産製品</tspan><tspan font-family="Yu Gothic,Yu Gothic_MSFontService,sans-serif" font-size="11" x="14.1912" y="-131.606">設置場所</tspan><tspan font-family="Yu Gothic,Yu Gothic_MSFontService,sans-serif" font-size="11" x="10.917" y="4.11268">設置場所</tspan><tspan font-family="Yu Gothic,Yu Gothic_MSFontService,sans-serif" font-size="11" x="-100.633" y="108.986">開始装置</tspan><tspan font-size="11" x="-0.817002" y="20.5634">R</tspan><tspan font-size="11" x="5.18303" y="20.5634">_</tspan><tspan font-size="11" x="10.183" y="20.5634">LE</tspan><tspan font-size="11" x="20.183" y="20.5634">1</tspan><tspan font-size="11" x="-83.6964" y="20.5634">R</tspan>_LE<tspan font-size="11" x="-62.6964" y="20.5634">2</tspan><tspan font-size="11" x="-4.62413" y="193.296">R</tspan><tspan font-size="11" x="1.37587" y="193.296">_</tspan><tspan font-size="11" x="6.37585" y="193.296">EO</tspan><tspan font-size="11" x="18.3758" y="193.296">1</tspan><tspan font-size="11" x="116.175" y="104.873">R</tspan><tspan font-size="11" x="122.175" y="104.873">_</tspan><tspan font-size="11" x="127.175" y="104.873">EP</tspan><tspan font-size="11" x="138.175" y="104.873">1</tspan><tspan font-size="11" x="216.602" y="-59.6338">R</tspan><tspan font-size="11" x="222.602" y="-59.6338">_</tspan><tspan font-size="11" x="227.602" y="-59.6338">LP</tspan><tspan font-size="11" x="238.602" y="-59.6338">1</tspan></text><path d="M165.099 140.784 226.373 140.784 226.373 167.045 165.099 167.045Z" stroke="#000000" stroke-width="0.6484" stroke-miterlimit="8" fill="#FFFFFF" transform="matrix(1.00111 0 0 1 41.7763 335.932)"/><text font-family="Yu Gothic,Yu Gothic_MSFontService,sans-serif" font-weight="400" font-size="13" transform="matrix(0.486842 0 0 0.486301 218.091 485)">オーダー<tspan font-size="13" x="51" y="0">仕様</tspan><tspan font-size="12" x="-13.58" y="14.3944">製造</tspan><tspan font-size="12" x="10.42" y="14.3944">ステップ</tspan><tspan font-size="12" x="-13.58" y="28.7887">装置</tspan><tspan font-size="12" x="10.42" y="28.7887">コマンド</tspan></text><path d="M135.921 133.976 195.75 133.976 195.75 140.584" stroke="#000000" stroke-width="0.324201" stroke-miterlimit="8" fill="none" fill-rule="evenodd" transform="matrix(1.00111 0 0 1 41.7763 335.932)"/><path d="M0 0 59.9245 0 59.9245 6.1717" stroke="#000000" stroke-width="0.324201" stroke-miterlimit="8" fill="none" fill-rule="evenodd" transform="matrix(1.00111 0 0 -1 177.849 509.148)"/><text font-family="Calibri,Calibri_MSFontService,sans-serif" font-weight="400" font-size="11" transform="matrix(0.486842 0 0 0.486301 180.423 468)">1<tspan font-size="11" x="124.404" y="14.3944">1</tspan>..*<tspan font-size="11" x="130.035" y="84.3099">1</tspan><tspan font-size="11" x="0.673798" y="80.1972">1</tspan><tspan font-family="Yu Gothic,Yu Gothic_MSFontService,sans-serif" font-size="11" x="124.228" y="2.05634">製造指示仕様</tspan><tspan font-family="Yu Gothic,Yu Gothic_MSFontService,sans-serif" font-size="11" x="118.549" y="96.6479">製造指示仕様</tspan><tspan font-size="11" x="43.3781" y="2.05634">R</tspan><tspan font-size="11" x="49.3781" y="2.05634">_</tspan><tspan font-size="11" x="54.3781" y="2.05634">LOS</tspan><tspan font-size="11" x="71.3781" y="2.05634">1</tspan><tspan font-size="11" x="42.2527" y="92.5352">R</tspan><tspan font-size="11" x="48.2527" y="92.5352">_</tspan><tspan font-size="11" x="53.2527" y="92.5352">POS</tspan><tspan font-size="11" x="71.2527" y="92.5352">1</tspan></text><path d="M122.062 175.068 130.329 175.068 130.329 183.336 122.062 183.336Z" stroke="#2F528F" stroke-width="0.972603" stroke-miterlimit="8" fill="#FFFFFF" transform="matrix(1.00111 0 0 1 41.7763 335.932)"/><path d="M123.521 179.445C123.521 178.103 124.718 177.014 126.195 177.014 127.673 177.014 128.87 178.103 128.87 179.445 128.87 180.788 127.673 181.877 126.195 181.877 124.718 181.877 123.521 180.788 123.521 179.445Z" stroke="#AE5A21" stroke-width="0.972603" stroke-miterlimit="8" fill="#FFFFFF" fill-rule="evenodd" transform="matrix(1.00111 0 0 1 41.7763 335.932)"/><path d="M122.062 174.096 122.426 172.637 129.964 172.637 130.329 174.096Z" stroke="#2F528F" stroke-width="0.972603" stroke-miterlimit="8" fill="#FFFFFF" fill-rule="evenodd" transform="matrix(1.00111 0 0 1 41.7763 335.932)"/><path d="M0 1.4589 0.364725 0 7.9024 0 8.26712 1.4589Z" stroke="#2F528F" stroke-width="0.972603" stroke-miterlimit="8" fill="#FFFFFF" fill-rule="evenodd" transform="matrix(1.00111 0 0 -1 163.974 522.185)"/><path d="M123.034 170.205 129.356 170.205 129.356 171.664 123.034 171.664Z" stroke="#2F528F" stroke-width="0.972603" stroke-miterlimit="8" fill="#FFFFFF" transform="matrix(1.00111 0 0 1 41.7763 335.932)"/><path d="M124.634 180.394 126.842 178.318 126.6 178.061 127.6 178.092 127.569 179.091 127.327 178.833 125.118 180.909Z" stroke="#AE5A21" stroke-width="0.972603" stroke-miterlimit="8" fill="#ED7D31" fill-rule="evenodd" transform="matrix(1.00111 0 0 1 41.7763 335.932)"/><g clip-path="url(#clip58)"><g clip-path="url(#clip59)"><g clip-path="url(#clip60)"><path d="M3.03477 3.56992 6.38951 3.56992 6.38951 3.85171 3.03477 3.85171Z" fill="#4B4B4B" transform="matrix(1 0 0 1.06132 257.447 487.658)"/><path d="M2.7455 4.68391 6.10023 4.68391 6.10023 4.96584 2.7455 4.96584Z" fill="#4B4B4B" transform="matrix(1 0 0 1.06132 257.447 487.658)"/><path d="M7.77857 0.556855 7.77857 0.375568 2.10129 0.375568 2.10129 0.556855C2.10129 0.931251 2.11169 1.32263 2.11169 1.72899 2.11169 2.32163 2.08986 2.94599 1.98422 3.59598 1.88371 4.21413 1.70771 4.8556 1.40223 5.51689L0.855761 5.51689C0.759201 5.51689 0.661711 5.53242 0.567658 5.56509 0.426763 5.61402 0.293368 5.70331 0.192333 5.83461 0.0910395 5.96562 0.0242204 6.13601 0.00435115 6.33688 0.00146053 6.36595 0 6.39487 0 6.42354-0.000136924 6.5692 0.0373651 6.70654 0.100502 6.82689 0.195345 7.00795 0.345186 7.15171 0.519232 7.2521 0.69355 7.35234 0.893492 7.41008 1.09713 7.41154L5.41295 7.41388C5.57726 7.41426 5.71976 7.38072 5.84103 7.32561 5.96245 7.27079 6.06152 7.19786 6.15349 7.12459 6.52948 6.82519 6.81993 6.45411 7.0429 6.0422 7.37746 5.42366 7.56217 4.71301 7.66543 3.99039 7.76839 3.26776 7.78933 2.53213 7.78947 1.86252 7.78947 1.383 7.77857 0.937171 7.77857 0.556855ZM1.09912 7.04908 1.09926 7.04908C1.00927 7.04869 0.915993 7.03092 0.827724 6.99792 0.695133 6.94875 0.574883 6.86535 0.492134 6.76467 0.450572 6.71428 0.418212 6.65985 0.396107 6.60299 0.374153 6.54603 0.362424 6.48673 0.362424 6.42359 0.362424 6.40699 0.363215 6.39014 0.364934 6.37305 0.374534 6.27729 0.397552 6.20062 0.428071 6.13864 0.474108 6.04604 0.536349 5.98446 0.609755 5.94225 0.683025 5.90043 0.768923 5.88144 0.855761 5.88144L4.73971 5.88144C4.69762 5.92974 4.66013 5.98499 4.63013 6.04745 4.58593 6.13903 4.55634 6.24531 4.54435 6.36492 4.54172 6.39214 4.5404 6.41887 4.5404 6.44545 4.5404 6.57198 4.57066 6.69184 4.62327 6.79826 4.67063 6.89388 4.73576 6.97888 4.81296 7.05123L1.09912 7.04908ZM7.17961 4.6234C7.07503 5.07002 6.9281 5.49323 6.72417 5.86976 6.52028 6.24623 6.26045 6.57587 5.92764 6.84125 5.84371 6.90834 5.76991 6.96028 5.69216 6.99514 5.61402 7.03 5.53072 7.05103 5.4131 7.05147L5.29207 7.05132C5.18253 7.02026 5.08083 6.96544 4.99807 6.89334 4.93122 6.83531 4.87718 6.76667 4.83994 6.69116 4.80273 6.61565 4.78205 6.53352 4.78205 6.4454 4.78205 6.427 4.78284 6.40821 4.78482 6.38912 4.7943 6.29428 4.81692 6.21624 4.8477 6.15232 4.89413 6.05656 4.9581 5.99142 5.032 5.94765 5.10581 5.90408 5.19066 5.8829 5.27537 5.88305 5.36091 5.88276 5.44562 5.90486 5.51573 5.9442 5.58612 5.98382 5.64123 6.03942 5.67463 6.1088 5.6923 6.14536 5.70321 6.19419 5.70321 6.24336 5.70321 6.28377 5.69595 6.32388 5.68281 6.35743 5.66976 6.39121 5.65121 6.4177 5.62965 6.4361 5.58914 6.47018 5.54781 6.48308 5.50609 6.48332 5.46982 6.48332 5.4335 6.47242 5.40327 6.4528 5.37274 6.43333 5.34903 6.40597 5.33511 6.37349L5.11306 6.46872C5.14699 6.54807 5.20405 6.61214 5.27274 6.6562 5.34129 6.70026 5.42206 6.72485 5.50609 6.72485 5.60229 6.72524 5.70316 6.69116 5.78631 6.61998 5.84327 6.57135 5.88276 6.50976 5.90797 6.44491 5.93314 6.38007 5.94459 6.31137 5.94459 6.24336 5.94459 6.16074 5.92789 6.07856 5.89235 6.00422 5.83539 5.88568 5.74211 5.79425 5.63398 5.73359 5.52795 5.67424 5.40692 5.64323 5.28389 5.64167L5.28389 5.63977 1.74502 5.63977C2.05733 4.95561 2.23862 4.2902 2.34188 3.65414 2.45212 2.97561 2.47395 2.33035 2.47395 1.72902 2.47395 1.3833 2.46698 1.05284 2.46475 0.738038L7.41704 0.738038C7.41942 1.08045 7.42702 1.46065 7.42702 1.86254 7.42731 2.74483 7.38905 3.73017 7.17961 4.6234Z" fill="#4B4B4B" transform="matrix(1 0 0 1.06132 257.447 487.658)"/><path d="M5.03833 2.86534C5.08083 2.39175 5.08292 1.93843 5.07859 1.5097L3.20172 1.5097C3.20605 1.93843 3.20382 2.39175 3.16134 2.86534L5.03833 2.86534Z" fill="#4B4B4B" transform="matrix(1 0 0 1.06132 257.447 487.658)"/></g></g></g><g clip-path="url(#clip61)"><g clip-path="url(#clip62)"><g clip-path="url(#clip63)"><path d="M290.131 181.877 295.862 181.877 295.862 182.429 290.131 182.429Z" fill="#7F7F7F" transform="matrix(1.00111 0 0 1 41.7763 335.932)"/><path d="M296.413 183.626C296.321 183.465 295.722 182.682 295.722 182.682L295.042 182.682C294.735 183.058 293.953 184.48 294.774 188.643 294.935 189.459 295.016 191.37 294.497 192.302L292.45 192.302C293.152 191.439 294.084 189.747 293.808 187.745 293.455 185.191 293.398 183.628 293.761 182.682L290.271 182.682C290.271 182.682 289.672 183.465 289.58 183.626 289.488 183.787 289.511 183.856 289.511 184.086 289.511 184.316 289.511 191.428 289.511 191.727 289.511 192.026 289.596 192.407 289.81 192.51 290.245 192.716 290.084 193.062 290.547 193.062L295.447 193.062C295.909 193.062 295.748 192.716 296.183 192.51 296.397 192.407 296.482 192.026 296.482 191.727 296.482 191.428 296.482 184.316 296.482 184.086 296.482 183.856 296.505 183.787 296.413 183.626Z" fill="#7F7F7F" transform="matrix(1.00111 0 0 1 41.7763 335.932)"/></g></g></g><path d="M102.366 135.921 102.974 133.49 127.168 133.49 126.56 135.921Z" stroke="#FFC000" stroke-width="0.324201" stroke-miterlimit="8" fill="url(#fill64)" fill-rule="evenodd" transform="matrix(1.00111 0 0 1 41.7763 335.932)"/><g clip-path="url(#clip65)"><g clip-path="url(#clip66)"><g clip-path="url(#clip67)"><path d="M11.3344 2.81815 7.76341 5.34761 7.76341 2.81815 4.03692 5.45771 3.72647 0.644276 0.620866 0.644276 0 11.5132 12.1575 11.5132 11.3344 2.81815ZM4.622 8.77487 3.15526 8.77487 3.15526 7.30789 4.622 7.30789 4.622 8.77487ZM8.78829 8.77487 7.32112 8.77487 7.32112 7.30789 8.78829 7.30789 8.78829 8.77487Z" fill="#4B4B4B" transform="matrix(1.04116 0 0 1 160.079 379.212)"/></g></g></g></g></g></g></g><rect x="432.5" y="383.5" width="167" height="49" stroke="#000000" stroke-width="1.33333" stroke-miterlimit="8" fill="#FFFFFF"/><text font-family="Consolas,Consolas_MSFontService,sans-serif" font-weight="400" font-size="13" transform="translate(442.339 401)">Time Series Instance<tspan font-size="12" x="-0.746674" y="14">*TSI_ID</tspan></text><path d="M516.5 432.5 516.5 504.513" stroke="#000000" stroke-width="0.666667" stroke-miterlimit="8" fill="none" fill-rule="evenodd"/><text font-family="Calibri,Calibri_MSFontService,sans-serif" font-weight="400" font-size="11" transform="translate(525.298 472)">R<tspan font-size="11" x="5.83337" y="0">_TSI_1</tspan><tspan font-size="11" x="0" y="-24">1</tspan><tspan font-size="11" x="-24.7729" y="27">*</tspan></text><rect x="432.5" y="504.5" width="167" height="64" stroke="#000000" stroke-width="1.33333" stroke-miterlimit="8" fill="#FFFFFF"/><text font-family="Consolas,Consolas_MSFontService,sans-serif" font-weight="400" font-size="13" transform="translate(457.005 522)">Time Series Data<tspan font-size="12" x="-3.41333" y="14">Timestamp:DateTime</tspan><tspan font-size="12" x="-3.41333" y="28">Value:ANY</tspan></text><path d="M348.279 436.835 354.835 430.279 376.5 451.943 398.165 430.279 404.722 436.835 383.057 458.5 404.722 480.165 398.165 486.722 376.5 465.057 354.835 486.722 348.279 480.165 369.943 458.5Z" stroke="#2F528F" stroke-width="1.33333" stroke-miterlimit="8" fill="#4472C4" fill-rule="evenodd"/><path d="M0 24 93 0 186 24Z" fill="#FF0000" fill-rule="evenodd" fill-opacity="0.501961" transform="matrix(1 0 0 -1 281 321)"/></g></svg>