<svg width="608" height="730" xmlns="http://www.w3.org/2000/svg" xmlns:xlink="http://www.w3.org/1999/xlink" overflow="hidden"><defs><clipPath id="clip0"><rect x="56" y="77" width="608" height="730"/></clipPath></defs><g clip-path="url(#clip0)" transform="translate(-56 -77)"><rect x="63" y="548" width="594" height="238" fill="#F2F2F2"/><text font-family="Yu Gothic,Yu Gothic_MSFontService,sans-serif" font-weight="400" font-size="16" transform="translate(343.764 568)">凡例</text><rect x="156" y="638" width="46" height="85" fill="#D9D9D9"/><rect x="459" y="611" width="151" height="145" fill="#D9D9D9"/><rect x="58.5001" y="78.5001" width="604" height="727" stroke="#D9D9D9" stroke-width="1.33333" stroke-miterlimit="8" fill="none"/><rect x="63" y="100" width="594" height="405" fill="#F2F2F2"/><text font-family="Yu Gothic,Yu Gothic_MSFontService,sans-serif" font-weight="400" font-size="16" transform="translate(234.847 120)">ドメインチャート（<tspan font-family="Calibri,Calibri_MSFontService,sans-serif" font-size="16" x="144" y="0">Domain</tspan><tspan font-family="Calibri,Calibri_MSFontService,sans-serif" font-size="16" x="198.5" y="0">Chart</tspan><tspan font-size="16" x="233.833" y="0">）</tspan></text><path d="M288.5 164C288.5 149.917 319.84 138.5 358.5 138.5 397.16 138.5 428.5 149.917 428.5 164 428.5 178.083 397.16 189.5 358.5 189.5 319.84 189.5 288.5 178.083 288.5 164Z" stroke="#4472C4" stroke-width="1.33333" stroke-miterlimit="8" fill="#FFFFFF" fill-rule="evenodd"/><text font-family="Yu Gothic,Yu Gothic_MSFontService,sans-serif" font-weight="400" font-size="13" transform="translate(331.184 167)">装置管理</text><path d="M130.5 248C130.5 231.155 153.334 217.5 181.5 217.5 209.667 217.5 232.5 231.155 232.5 248 232.5 264.845 209.667 278.5 181.5 278.5 153.334 278.5 130.5 264.845 130.5 248Z" stroke="#ED7D31" stroke-width="1.33333" stroke-miterlimit="8" fill="#FFFFFF" fill-rule="evenodd"/><text font-family="Calibri,Calibri_MSFontService,sans-serif" font-weight="400" font-size="13" transform="translate(172.445 235)">IoT<tspan font-size="13" x="-9.66667" y="16">Device </tspan><tspan font-size="13" x="-2.42" y="32">App</tspan></text><path d="M140.5 368.5C140.5 354.141 163.334 342.5 191.5 342.5 219.667 342.5 242.5 354.141 242.5 368.5 242.5 382.859 219.667 394.5 191.5 394.5 163.334 394.5 140.5 382.859 140.5 368.5Z" stroke="#70AD47" stroke-width="1.33333" stroke-miterlimit="8" fill="#FFFFFF" fill-rule="evenodd"/><text font-family="Calibri,Calibri_MSFontService,sans-serif" font-weight="400" font-size="13" transform="translate(170.335 372)">IoT Hub</text><path d="M426.5 296C426.5 281.917 451.124 270.5 481.5 270.5 511.876 270.5 536.5 281.917 536.5 296 536.5 310.083 511.876 321.5 481.5 321.5 451.124 321.5 426.5 310.083 426.5 296Z" stroke="#ED7D31" stroke-width="1.33333" stroke-miterlimit="8" fill="#FFFFFF" fill-rule="evenodd"/><text font-family="Calibri,Calibri_MSFontService,sans-serif" font-weight="400" font-size="13" transform="translate(468.536 292)">Data <tspan font-size="13" x="-16.42" y="16">Repository</tspan></text><path d="M424.5 423C424.5 408.917 456.064 397.5 495 397.5 533.936 397.5 565.5 408.917 565.5 423 565.5 437.083 533.936 448.5 495 448.5 456.064 448.5 424.5 437.083 424.5 423Z" stroke="#70AD47" stroke-width="1.33333" stroke-miterlimit="8" fill="#FFFFFF" fill-rule="evenodd"/><text font-family="Calibri,Calibri_MSFontService,sans-serif" font-weight="400" font-size="13" transform="translate(460.438 426)">Digital Twins</text><path d="M513.5 253C513.5 238.917 538.572 227.5 569.5 227.5 600.428 227.5 625.5 238.917 625.5 253 625.5 267.083 600.428 278.5 569.5 278.5 538.572 278.5 513.5 267.083 513.5 253Z" stroke="#ED7D31" stroke-width="1.33333" stroke-miterlimit="8" fill="#FFFFFF" fill-rule="evenodd"/><text font-family="Calibri,Calibri_MSFontService,sans-serif" font-weight="400" font-size="13" transform="translate(540.164 256)">Messaging</text><path d="M246.5 261C246.5 246.917 268.214 235.5 295 235.5 321.786 235.5 343.5 246.917 343.5 261 343.5 275.083 321.786 286.5 295 286.5 268.214 286.5 246.5 275.083 246.5 261Z" stroke="#ED7D31" stroke-width="1.33333" stroke-miterlimit="8" fill="#FFFFFF" fill-rule="evenodd"/><text font-family="Calibri,Calibri_MSFontService,sans-serif" font-weight="400" font-size="13" transform="translate(270.462 264)">Behavior</text><path d="M288.5 425C288.5 410.917 311.334 399.5 339.5 399.5 367.667 399.5 390.5 410.917 390.5 425 390.5 439.083 367.667 450.5 339.5 450.5 311.334 450.5 288.5 439.083 288.5 425Z" stroke="#70AD47" stroke-width="1.33333" stroke-miterlimit="8" fill="#FFFFFF" fill-rule="evenodd"/><text font-family="Calibri,Calibri_MSFontService,sans-serif" font-weight="400" font-size="13" transform="translate(312.867 429)">Functions</text><path d="M549.5 353C549.5 338.917 571.214 327.5 598 327.5 624.786 327.5 646.5 338.917 646.5 353 646.5 367.083 624.786 378.5 598 378.5 571.214 378.5 549.5 367.083 549.5 353Z" stroke="#70AD47" stroke-width="1.33333" stroke-miterlimit="8" fill="#FFFFFF" fill-rule="evenodd"/><text font-family="Calibri,Calibri_MSFontService,sans-serif" font-weight="400" font-size="13" transform="translate(578.089 356)">SignalR</text><path d="M101.5 424C101.5 409.917 124.334 398.5 152.5 398.5 180.667 398.5 203.5 409.917 203.5 424 203.5 438.083 180.667 449.5 152.5 449.5 124.334 449.5 101.5 438.083 101.5 424Z" stroke="#70AD47" stroke-width="1.33333" stroke-miterlimit="8" fill="#FFFFFF" fill-rule="evenodd"/><text font-family="Calibri,Calibri_MSFontService,sans-serif" font-weight="400" font-size="13" transform="translate(141.679 427)">C++</text><path d="M356.5 355C356.5 340.917 379.557 329.5 408 329.5 436.443 329.5 459.5 340.917 459.5 355 459.5 369.083 436.443 380.5 408 380.5 379.557 380.5 356.5 369.083 356.5 355Z" stroke="#70AD47" stroke-width="1.33333" stroke-miterlimit="8" fill="#FFFFFF" fill-rule="evenodd"/><text font-family="Calibri,Calibri_MSFontService,sans-serif" font-weight="400" font-size="13" transform="translate(400.608 359)">C#</text><path d="M0.124939-3.99805 10.2381-3.68201 20.405-2.78681 30.3919-1.31439 40.1097 0.731471 49.5559 3.22068 58.5877 6.10315 67.1341 9.44459 75.1797 13.1778 82.6091 17.2478 89.3806 21.6102 95.3731 26.2856 100.497 31.2104 104.783 36.3805 108.02 41.8696 109.068 44.8636 106.551 45.7446 105.59 42.9982 102.594 37.9185 98.5408 33.0285 93.6244 28.3035 87.8352 23.7867 81.2447 19.5409 73.9766 15.5593 66.0864 11.8982 57.6959 8.61772 48.8103 5.78189 39.4949 3.32716 29.9223 1.31187 20.0933-0.137269 10.0794-1.019 0.0416463-1.33268ZM-0.0416463 1.33268 9.92064 1.644 19.7817 2.51227 29.4527 3.93813 38.8801 5.92284 48.0647 8.34311 56.8041 11.1323 65.0386 14.3518 72.7734 17.9407 79.8803 21.8341 86.2898 25.9633 91.8756 30.3215 96.5842 34.8465 100.406 39.4565 103.16 44.1268 104.034 46.6255 101.517 47.5064 100.73 45.2554 98.2167 40.9944 94.6275 36.6646 90.1269 32.3394 84.7443 28.1398 78.5159 24.1272 71.5703 20.3222 63.9909 16.8054 55.9123 13.6468 47.319 10.9043 38.2653 8.51853 28.9831 6.56439 19.47 5.16181 9.76192 4.30701-0.124939 3.99805ZM115.742 29.9732 106.755 53.5892 89.4652 35.163C87.9536 33.552 88.0341 31.0206 89.6451 29.509 91.2561 27.9973 93.7874 28.0779 95.2991 29.6888L108.21 43.4479 101.554 44.7625 108.265 27.128C109.05 25.0633 111.361 24.0264 113.426 24.8121 115.49 25.5978 116.527 27.9085 115.742 29.9732Z" fill="#4472C4" transform="matrix(-1 1.22465e-16 1.22465e-16 1 287.739 163)"/><path d="M311.708 181.229 311.134 191.23 310.4 196.036 309.461 200.399 308.27 204.18 306.828 207.368 304.819 210.223 302.559 211.299 302.194 211.473 301.828 211.993 300.899 214.046 299.961 217.082 299.149 220.793 298.509 224.98 298.388 227.096 295.726 226.944 295.854 224.702 296.526 220.306 297.38 216.402 298.401 213.098 299.502 210.664 300.416 209.366 301.413 208.891 303.041 208.116 304.502 206.039 305.775 203.227 306.88 199.716 307.776 195.554 308.479 190.952 309.045 181.076ZM306.383 180.924 305.824 190.673 305.152 195.071 304.299 199.034 303.279 202.273 302.176 204.711 301.263 206.009 300.266 206.484 298.638 207.259 297.176 209.336 295.903 212.152 294.799 215.723 293.903 219.819 293.199 224.423 293.064 226.791 290.401 226.638 290.544 224.145 291.279 219.332 292.218 215.043 293.404 211.204 294.851 208.007 296.86 205.152 299.12 204.076 299.485 203.902 299.851 203.382 300.783 201.32 301.718 198.351 302.529 194.589 303.169 190.395 303.721 180.771ZM308.559 213.777 293.963 234.402 281.819 212.244C280.757 210.306 281.467 207.875 283.404 206.813 285.342 205.752 287.773 206.462 288.835 208.399L297.902 224.945 291.13 224.557 302.029 209.155C303.305 207.352 305.801 206.925 307.605 208.201 309.408 209.477 309.835 211.973 308.559 213.777Z" fill="#4472C4"/><path d="M0.178925-3.996 4.57766-3.79904 9.09176-3.11508 13.5149-2.0263 17.8472-0.513447 25.836 3.34782 33.1288 8.41224 39.2354 14.4518 41.897 17.8137 44.1242 21.3634 45.945 25.075 47.2928 28.9057 48.1563 32.8632 48.427 36.5849 48.6563 39.7382 49.2928 42.6557 50.3149 45.5606 51.7411 48.413 53.5326 51.2682 55.6178 53.957 60.8696 59.0933 67.086 63.4103 74.0972 66.799 77.6399 68.0362 81.3418 68.9474 81.9857 69.045 81.5862 71.6816 80.8223 71.5658 76.88 70.5954 73.0741 69.2663 65.737 65.7201 59.1648 61.1561 53.6226 55.7357 51.3442 52.7977 49.4137 49.721 47.855 46.6035 46.7226 43.3852 46.0104 40.1211 45.7673 36.7783 45.5104 33.2461 44.7226 29.6352 43.4817 26.1083 41.7914 22.6628 39.7157 19.3546 37.2451 16.2339 31.4179 10.4707 24.487 5.65761 16.8241 1.95385 12.755 0.5329 8.57225-0.496694 4.31755-1.14135 0.0596417-1.332ZM-0.0596417 1.332 4.05745 1.51635 8.05275 2.12169 11.995 3.0921 15.8009 4.42115 23.138 7.96739 29.7071 12.5293 35.2549 18.0161 37.5343 20.8954 39.4586 23.9622 41.0183 27.1417 42.1524 30.3648 42.8646 33.6289 43.1077 36.9717 43.3646 40.5039 44.1524 44.1148 45.395 47.6465 47.0863 51.029 49.1558 54.3273 51.6274 57.5143 57.4601 63.2189 64.388 68.0299 72.0509 71.7336 76.12 73.1546 80.3027 74.1842 81.1868 74.3181 80.7873 76.9547 79.7832 76.8026 75.36 75.7138 71.0278 74.2009 63.039 70.3397 55.7554 65.2817 49.6321 59.293 46.9674 55.8568 44.7589 52.337 42.9351 48.6894 41.5822 44.8443 40.7187 40.8868 40.448 37.1651 40.2187 34.0118 39.5822 31.0943 38.555 28.175 37.1258 25.2616 35.353 22.4363 33.2646 19.7982 27.9962 14.5878 21.789 10.2772 14.7778 6.88845 11.2351 5.6513 7.53324 4.74008 3.79734 4.17404-0.178925 3.996ZM68.7893 58.3947 88.9021 73.69 66.34 85.0665C64.3675 86.0611 61.9621 85.2684 60.9675 83.2958 59.9728 81.3232 60.7656 78.9179 62.7382 77.9232L79.5856 69.4282 78.9652 76.1838 63.9467 64.7626C62.1883 63.4253 61.8468 60.9158 63.184 59.1574 64.5213 57.3989 67.0308 57.0575 68.7893 58.3947Z" fill="#4472C4" transform="matrix(1.83697e-16 1 1 -1.83697e-16 408 181)"/><path d="M428.114 159.002 441.407 159.38 454.672 160.459 467.747 162.172 480.512 164.522 492.832 167.443 504.657 170.876 515.928 174.825 526.393 179.164 536.133 183.905 544.905 189.001 552.71 194.464 559.411 200.245 564.987 206.292 569.07 212.622 570.653 216.003 571.225 217.681 568.7 218.541 568.176 217.001 566.732 213.915 562.871 207.931 557.554 202.165 551.07 196.571 543.468 191.25 534.878 186.26 525.298 181.596 514.976 177.317 503.844 173.417 492.152 170.023 479.962 167.132 467.332 164.807 454.391 163.111 441.261 162.043 428.038 161.667ZM427.962 164.333 441.114 164.707 454.109 165.764 466.918 167.443 479.413 169.743 491.473 172.602 503.031 175.958 514.024 179.808 524.202 184.029 533.622 188.615 542.032 193.5 549.43 198.679 555.696 204.085 560.754 209.569 564.393 215.209 565.699 217.999 566.176 219.4 563.651 220.259 563.222 218.997 562.055 216.503 558.638 211.208 553.839 206.005 547.79 200.786 540.595 195.749 532.367 190.97 523.107 186.461 513.072 182.3 502.218 178.499 490.793 175.182 478.863 172.353 466.503 170.078 453.828 168.416 440.968 167.37 427.886 166.998ZM578.203 202.967 568.755 226.402 551.83 207.64C550.35 205.999 550.48 203.47 552.121 201.99 553.761 200.511 556.29 200.641 557.77 202.281L570.408 216.291 563.728 217.475 570.783 199.975C571.609 197.926 573.94 196.935 575.989 197.761 578.038 198.587 579.029 200.918 578.203 202.967Z" fill="#4472C4"/><path d="M0.273332-3.99065 5.11527-3.65901 10.0759-2.61099 14.6711-1.00964 18.8537 1.04623 22.5397 3.62644 25.5076 6.67245 27.6535 10.2774 28.3527 13.618 28.774 15.631 29.7426 17.2195 31.5397 19.0639 34.1261 20.8744 37.2975 22.487 40.9242 23.6959 42.239 23.9736 41.6877 26.5827 40.2247 26.2736 36.2658 24.954 32.7504 23.1665 29.8049 21.1046 27.6225 18.8648 26.258 16.627 25.7426 14.1643 25.1345 11.2591 23.3775 8.30748 20.8049 5.66715 17.4929 3.34874 13.6404 1.45512 9.35863-0.0369968 4.74676-1.01134 0.0911107-1.33022ZM-0.0911107 1.33022 4.37824 1.63634 8.64137 2.537 12.6096 3.91988 16.1321 5.65125 19.0701 7.70785 21.2475 9.94252 22.6155 12.2409 23.1324 14.7107 23.742 17.623 25.5025 20.5102 28.0701 23.1454 31.3746 25.4585 35.2342 27.421 39.5252 28.8514 41.1365 29.1918 40.5853 31.8009 38.8258 31.4291 34.2025 29.888 29.9989 27.7506 26.3353 25.1861 23.3824 22.1555 21.226 18.619 20.5223 15.257 20.0965 13.2226 19.1174 11.5775 17.3353 9.74856 14.7713 7.95377 11.5789 6.38464 7.9241 5.11099 4.00973 4.28401-0.273332 3.99065ZM29.2853 12.8892 48.902 28.8158 25.9899 39.4697C23.9867 40.4012 21.6077 39.5324 20.6763 37.5292 19.7448 35.526 20.6136 33.147 22.6168 32.2156L39.7256 24.2602 38.8909 30.9926 24.2429 19.1C22.5278 17.7075 22.2663 15.1884 23.6587 13.4734 25.0512 11.7583 27.5703 11.4968 29.2853 12.8892Z" fill="#4472C4" transform="matrix(1.83697e-16 1 1 -1.83697e-16 569 278)"/><path d="M0.0707854-3.99937 7.22615-3.87273 14.2178-3.42373 20.7688-2.71724 26.649-1.8126 31.7426-0.754194 35.8547 0.500368 37.7083 1.34291 39.2373 2.29848 41.0123 3.91212 41.5188 5.60061 41.3873 5.16212 40.9873 4.79848 41.4583 5.09291 42.3547 5.50037 45.6176 6.49581 50.149 7.4374 55.6438 8.28276 61.8428 8.95127 68.0505 9.34994 67.8796 12.0111 61.6143 11.6088 55.2979 10.9276 49.6747 10.0625 44.9559 9.08194 41.4099 8.00012 40.1944 7.44764 39.3708 6.93283 39.0457 6.63737 38.9646 6.36687 38.6707 5.38737 37.6208 4.43283 36.4444 3.69764 34.9099 3.00012 31.0809 1.83194 26.1747 0.812467 20.4229-0.0724141 13.9893-0.766242 7.11705-1.20758 0.0235951-1.33312ZM-0.0235951 1.33312 7.00795 1.45758 13.7607 1.89124 20.0771 2.57241 25.7003 3.43753 30.4191 4.41806 33.9651 5.49988 35.1805 6.05236 36.0042 6.56717 36.3292 6.86263 36.4104 7.13313 36.7042 8.11263 37.7542 9.06717 38.9305 9.80236 40.4651 10.4999 44.2941 11.6681 49.2003 12.6875 54.9521 13.5724 61.3857 14.2662 67.7087 14.6723 67.5378 17.3335 61.1572 16.9237 54.6062 16.2172 48.726 15.3126 43.6324 14.2542 39.5203 12.9996 37.6666 12.1571 36.1377 11.2015 34.3627 9.58788 33.8562 7.89939 33.9877 8.33788 34.3877 8.70151 33.9166 8.40709 33.0203 7.99963 29.7574 7.00419 25.226 6.0626 19.7312 5.21724 13.5322 4.54873 6.89885 4.12273-0.0707854 3.99937ZM54.1991-0.339472 75.3397 13.5006 53.6353 26.4386C51.7378 27.5697 49.2825 26.9484 48.1514 25.0508 47.0202 23.1533 47.6415 20.698 49.5391 19.5669L65.746 9.90585 65.6032 16.6883 49.8173 6.35376C47.969 5.14375 47.4516 2.66451 48.6616 0.816223 49.8716-1.03206 52.3508-1.54949 54.1991-0.339472Z" fill="#4472C4" transform="matrix(1.83697e-16 1 1 -1.83697e-16 481 321)"/><path d="M0.189137-3.99553 10.9356-3.48682 21.5376-1.99995 31.4603 0.269936 40.3605 3.25835 44.4435 4.99864 48.1422 6.8816 51.5059 8.94104 54.3954 11.1258 56.8596 13.4406 58.8947 16.127 60.2502 19.1091 60.6437 21.7844 60.8716 23.2885 61.3947 24.4395 62.5039 25.9036 64.1708 27.52 66.3715 29.1839 69.0692 30.8137 72.256 32.4361 75.798 33.9458 84.0228 36.7074 93.2251 38.8125 103.123 40.2007 105.99 40.3364 105.864 43.0001 102.874 42.8586 92.7417 41.4375 83.2992 39.2775 74.8493 36.4403 71.127 34.8537 67.773 33.1462 64.8738 31.3946 62.4319 29.5483 60.5013 27.6762 59.0899 25.8132 58.2905 24.0545 58.0062 22.1781 57.6667 19.8697 56.5899 17.5007 54.8699 15.2302 52.6735 13.1669 50.002 11.147 46.8391 9.21053 43.3145 7.41621 39.4118 5.75278 30.7368 2.83998 21.0542 0.625015 10.6869-0.828939 0.0630458-1.33184ZM-0.0630458 1.33184 10.4381 1.82894 20.5708 3.24998 30.0132 5.41002 38.4632 8.24722 42.1855 9.83379 45.5359 11.5395 48.498 13.353 50.9515 15.2081 52.8801 17.0198 54.2851 18.8743 55.0833 20.6303 55.3688 22.5719 55.7095 24.8205 56.7851 27.1868 58.4987 29.4488 60.6931 31.5767 63.3762 33.6054 66.4769 35.4788 69.998 37.2713 73.9007 38.9347 82.5757 41.8475 92.2583 44.0625 102.626 45.5164 105.738 45.6638 105.612 48.3274 102.377 48.1743 91.7749 46.6875 81.8522 44.4176 72.952 41.4292 68.869 39.6889 65.1808 37.8113 61.8785 35.8161 58.9542 33.605 56.4961 31.2214 54.4803 28.5605 53.1284 25.5865 52.7313 22.9656 52.4998 21.3909 51.9803 20.248 50.8904 18.8094 49.2296 17.2492 46.9941 15.559 44.2328 13.8684 41.0565 12.2514 37.5145 10.7417 29.2897 7.98006 20.0874 5.87495 10.1894 4.48682-0.189137 3.99553ZM92.5696 30.2986 113.34 44.6888 91.3032 57.0526C89.3766 58.1336 86.9385 57.448 85.8575 55.5214 84.7766 53.5948 85.4621 51.1567 87.3887 50.0757L103.844 40.8435 103.523 47.6199 88.0136 36.8745C86.1977 35.6164 85.7456 33.1244 87.0037 31.3085 88.2618 29.4927 90.7538 29.0405 92.5696 30.2986Z" fill="#4472C4" transform="matrix(1.83697e-16 1 1 -1.83697e-16 294 286)"/><path d="M0.0824567-3.99915 6.21114-3.87279 12.186-3.55155 17.858-2.97147 22.9163-2.25812 27.2922-1.3962 30.9281-0.398098 33.8306 0.921207 35.5851 2.48077 36.1203 3.90801 35.9601 3.48077 35.3306 2.92121 36.5531 3.4769 39.2922 4.2288 43.1416 4.98701 47.8329 5.58846 53.186 6.13595 57.4475 6.36506 57.3043 9.02788 52.9787 8.79531 47.5276 8.23782 42.7139 7.62067 38.6807 6.82627 35.6427 5.9923 33.8602 5.18207 33.695 5.03526 33.6234 4.84434 33.32 4.03526 32.3602 3.18207 30.0177 2.1173 26.6807 1.20127 22.4721 0.372295 17.536-0.323824 11.9787-0.892185 6.11205-1.2076 0.0274856-1.33305ZM-0.0274856 1.33305 6.01295 1.4576 11.7713 1.76718 17.214 2.32382 22.0279 3.00271 26.0693 3.79873 29.1073 4.6327 30.8898 5.44293 31.055 5.58974 31.1266 5.78066 31.43 6.58974 32.3898 7.44293 34.7323 8.5077 38.0693 9.42373 42.2861 10.2543 47.2224 10.8872 52.7713 11.4547 57.1612 11.6907 57.018 14.3535 52.564 14.1141 46.9171 13.5365 41.8584 12.888 37.4578 12.0212 33.8219 11.0231 30.9194 9.70379 29.1649 8.14423 28.6297 6.71699 28.7899 7.14423 29.4194 7.70379 28.1969 7.1481 25.4578 6.3962 21.5837 5.63312 16.892 4.97147 11.564 4.42655 5.91386 4.12279-0.0824567 3.99915ZM43.7197-3.40289 64.7772 10.5632 42.9959 23.3713C41.0916 24.4911 38.6401 23.8551 37.5203 21.9508 36.4005 20.0465 37.0365 17.595 38.9408 16.4752L55.2052 6.91124 55.0219 13.6928 39.2979 3.26404C37.4569 2.043 36.9543-0.43929 38.1754-2.28031 39.3964-4.12133 41.8787-4.62393 43.7197-3.40289Z" fill="#4472C4" transform="matrix(1.83697e-16 1 1 -1.83697e-16 181 278)"/><path d="M148.932 269.098 148.617 281.95 147.664 294.524 146.206 306.195 145.307 311.714 144.286 316.82 143.25 321.545 142.01 325.854 140.757 329.746 139.377 333.127 137.841 336.051 136.115 338.435 133.783 340.545 131.486 341.172 131.033 341.295 130.74 341.56 129.841 342.801 128.752 344.877 127.632 347.621 126.518 351.077 125.437 355.043 124.406 359.471 123.437 364.317 122.646 369.547 121.227 380.9 120.305 393.013 120.179 398.143 117.513 398.077 117.64 392.879 118.573 380.633 120.004 369.182 120.809 363.856 121.799 358.907 122.851 354.389 123.962 350.317 125.124 346.707 126.331 343.751 127.569 341.392 128.744 339.77 129.716 338.89 130.784 338.599 132.466 338.14 134.119 336.645 135.569 334.642 136.956 332.001 138.249 328.832 139.459 325.076 140.664 320.89 141.676 316.273 142.683 311.238 143.566 305.815 145.01 294.258 145.953 281.817 146.266 269.033ZM143.6 268.967 143.289 281.683 142.356 293.992 140.926 305.435 140.059 310.762 139.066 315.727 138.078 320.235 136.908 324.299 135.742 327.918 134.535 330.874 133.297 333.233 132.123 334.855 131.15 335.735 130.082 336.026 128.4 336.485 126.748 337.98 125.297 339.983 123.91 342.624 122.617 345.793 121.405 349.558 120.265 353.736 119.192 358.343 118.182 363.394 117.362 368.818 115.919 380.367 114.976 392.745 114.847 398.012 112.181 397.947 112.312 392.612 113.265 380.1 114.72 368.453 115.555 362.933 116.586 357.779 117.679 353.082 118.848 348.798 120.11 344.879 121.49 341.498 123.025 338.574 124.752 336.19 127.083 334.08 129.381 333.453 129.833 333.33 130.127 333.065 131.025 331.824 132.115 329.748 133.235 327.004 134.357 323.521 135.491 319.58 136.456 315.18 137.434 310.286 138.286 305.055 139.702 293.726 140.624 281.55 140.934 268.902ZM129.908 384.497 115.995 405.59 103.132 383.841C102.008 381.939 102.637 379.486 104.539 378.362 106.44 377.237 108.893 377.867 110.018 379.768L119.623 396.008 112.841 395.842 123.23 380.092C124.446 378.248 126.927 377.739 128.771 378.956 130.616 380.172 131.124 382.653 129.908 384.497Z" fill="#4472C4"/><path d="M0.0805206-3.99919 9.47341-3.81007 18.9799-3.23585 37.8003-1.01796 56.2694 2.53622 74.3511 7.35801 91.8074 13.3249 108.498 20.4327 124.37 28.4324 139.191 37.3377 152.824 47.0205 165.179 57.4017 170.846 62.8757 176.112 68.4624 180.938 74.1887 185.38 80.0471 189.397 86.0083 192.905 92.1151 195.96 98.2891 198.511 104.504 200.544 110.866 202.063 117.271 202.924 123.694 203.251 130.106 202.999 154.521 202.623 166.513 202.184 178.113 201.619 189.415 200.928 200.212 200.175 210.442 199.357 220.009 198.411 228.838 197.402 236.848 196.383 243.912 195.229 249.938 194.197 254.553 191.595 253.971 192.618 249.396 193.753 243.471 194.759 236.491 195.762 228.529 196.702 219.753 197.517 210.231 198.268 200.029 198.956 189.263 199.52 177.996 199.958 166.421 200.333 154.465 200.584 130.16 200.266 123.94 199.438 117.757 197.973 111.58 196.004 105.418 193.528 99.388 190.552 93.3717 187.132 87.4194 183.21 81.599 178.854 75.8546 174.121 70.2375 168.949 64.7502 163.393 59.3839 151.191 49.1318 137.73 39.5709 123.082 30.7691 107.374 22.8526 90.8525 15.8166 73.5754 9.911 55.6731 5.13707 37.3918 1.61901 18.7433-0.578617 9.36614-1.14502 0.0268402-1.33306ZM-0.0268402 1.33306 9.25886 1.52002 18.5067 2.07862 36.9832 4.25599 55.0769 7.73793 72.7996 12.464 89.8975 18.3084 106.251 25.2724 121.793 33.1059 136.27 41.8041 149.559 51.2432 161.607 61.3661 167.051 66.6248 172.129 72.0125 176.771 77.5204 181.04 83.151 184.868 88.8306 188.198 94.6283 191.097 100.487 193.496 106.332 195.402 112.295 196.812 118.243 197.609 124.185 197.916 130.215 197.667 154.41 197.292 166.329 196.855 177.879 196.294 189.112 195.607 199.846 194.858 210.019 194.048 219.497 193.113 228.221 192.116 236.134 191.122 243.029 190.007 248.854 188.992 253.389 186.39 252.807 187.395 248.312 188.492 242.588 189.473 235.777 190.464 227.912 191.393 219.241 192.2 209.808 192.947 199.663 193.631 188.96 194.191 177.762 194.627 166.237 195.001 154.354 195.249 130.269 194.951 124.431 194.187 118.729 192.831 113.009 190.989 107.246 188.665 101.586 185.845 95.8849 182.603 90.2417 178.87 84.7029 174.687 79.1863 170.138 73.7876 165.154 68.4993 159.821 63.3483 147.926 53.3545 134.809 44.0373 120.505 35.4426 105.127 27.6923 88.9426 20.8001 72.0239 15.017 54.4806 10.3388 36.5747 6.89296 18.2701 4.73585 9.15159 4.18507-0.0805206 3.99919ZM208.646 247.748 186.737 260.336 185.023 235.127C184.873 232.923 186.538 231.014 188.742 230.865 190.946 230.715 192.854 232.38 193.004 234.584L194.284 253.408 188.301 250.212 204.661 240.812C206.576 239.711 209.021 240.372 210.122 242.287 211.222 244.203 210.562 246.648 208.646 247.748Z" fill="#4472C4" transform="matrix(-1 1.22465e-16 1.22465e-16 1 287.712 163)"/><path d="M0.171271-3.99633 13.4556-3.427 26.4601-1.82546 38.6375 0.674105 44.3388 2.29379 49.6395 3.97451 54.5644 5.87879 59.1199 7.99149 63.1556 10.2111 66.6179 12.5655 69.6013 15.1123 72.0412 18.0244 73.7222 21.2979 74.1984 24.2347 74.4722 25.9229 75.1662 27.2744 76.6013 28.9873 78.7429 30.8155 81.5306 32.7111 84.9739 34.6049 89.042 36.4326 93.5352 38.17 98.465 39.7932 103.742 41.2324 115.335 43.612 127.706 45.1355 133.158 45.3692 133.044 48.0334 127.485 47.7952 114.903 46.2457 103.122 43.8275 97.6967 42.3477 92.6367 40.6817 88.014 38.8942 83.783 36.9933 80.1352 34.987 77.1226 32.9385 74.7004 30.8708 72.9304 28.7581 71.9074 26.766 71.5661 24.6616 71.1574 22.141 69.8054 19.5081 67.7004 16.9958 64.9976 14.6885 61.7602 12.487 57.915 10.3722 53.5215 8.3346 48.7548 6.4915 43.5713 4.84793 38.0042 3.26637 26.0284 0.80818 13.2352-0.767334 0.0570905-1.33211ZM-0.0570905 1.33211 13.0148 1.89233 25.5966 3.44182 37.3708 5.85863 42.8037 7.40207 47.8701 9.00849 52.4785 10.7904 56.71 12.7528 60.3648 14.763 63.3774 16.8115 65.7995 18.8792 67.5696 20.9919 68.5926 22.984 68.9339 25.0884 69.3426 27.609 70.6946 30.2419 72.7995 32.7542 75.5024 35.0615 78.7398 37.263 82.592 39.3817 86.986 41.3558 91.7383 43.1933 96.9283 44.9023 102.503 46.4225 114.472 48.8793 127.265 50.4548 132.93 50.6976 132.816 53.3618 127.044 53.1145 114.04 51.513 101.883 49.0176 96.16 47.4568 90.8398 45.705 85.958 43.8174 81.4011 41.7701 77.3444 39.5389 73.8821 37.1845 70.8986 34.6377 68.4588 31.7256 66.7778 28.4521 66.3016 25.5153 66.0278 23.8271 65.3338 22.4756 63.8986 20.7627 61.7571 18.9345 58.9694 17.0389 55.5051 15.1335 51.4356 13.2462 46.9854 11.5255 42.0362 9.95621 36.7375 8.45089 25.1649 6.07546 12.7944 4.552-0.171271 3.99633ZM119.693 35.3915 140.527 49.6887 118.546 62.1509C116.624 63.2405 114.183 62.5658 113.094 60.6441 112.004 58.7223 112.679 56.2811 114.601 55.1916L131.014 45.8859 130.724 52.6636 115.166 41.9877C113.345 40.7377 112.882 38.2478 114.132 36.4263 115.382 34.6048 117.872 34.1415 119.693 35.3915Z" fill="#4472C4" transform="matrix(1.83697e-16 1 1 -1.83697e-16 358 189)"/><path d="M0.366271-3.9832 6.12625-3.45354 12.0285-1.9259 17.5235 0.369486 22.5035 3.45564 26.7769 7.15932 30.1749 11.4437 32.4136 16.2299 33.1973 20.7899 33.7351 24.2315 35.1509 27.1574 37.514 30.0856 40.7631 32.9015 44.6161 35.3234 48.9664 37.1957 51.9434 37.9312 51.3038 40.52 48.1138 39.7319 43.372 37.6911 39.171 35.0505 35.588 31.9452 32.8836 28.5941 31.1617 25.0355 30.5658 21.2216 29.8462 17.035 27.8916 12.8562 24.8423 9.01144 20.9178 5.61021 16.2995 2.74816 11.1762 0.608032 5.66708-0.817847 0.12209-1.32773ZM-0.12209 1.32773 5.20791 1.81785 10.3238 3.14197 15.0755 5.12684 19.3322 7.76479 22.9077 10.8636 25.6084 14.2688 27.2788 17.84 27.9342 21.6534 28.5883 25.8395 30.6164 30.0309 33.662 33.8048 37.579 37.1995 42.128 40.0589 47.2612 42.2681 50.6642 43.1088 50.0246 45.6977 46.4086 44.8043 40.8839 42.4266 35.9869 39.3485 31.736 35.6644 28.3491 31.4676 26.0149 26.6435 25.3026 22.0851 24.7114 18.6451 23.3251 15.6813 20.9731 12.7157 17.7465 9.91936 13.8515 7.50551 9.4715 5.6759 4.74874 4.45354-0.366271 3.9832ZM39.0042 26.6987 58.4644 42.8161 35.4494 53.2458C33.4372 54.1576 31.0669 53.2656 30.155 51.2535 29.2432 49.2413 30.1351 46.8709 32.1473 45.9591L49.333 38.1711 48.4326 44.8951 33.9014 32.86C32.2 31.4509 31.963 28.9293 33.3722 27.2279 34.7813 25.5266 37.3028 25.2896 39.0042 26.6987Z" fill="#4472C4" transform="matrix(1.83697e-16 1 1 -1.83697e-16 329 278)"/><path d="M206.5 469C206.5 454.917 229.334 443.5 257.5 443.5 285.667 443.5 308.5 454.917 308.5 469 308.5 483.083 285.667 494.5 257.5 494.5 229.334 494.5 206.5 483.083 206.5 469Z" stroke="#70AD47" stroke-width="1.33333" stroke-miterlimit="8" fill="#FFFFFF" fill-rule="evenodd"/><text font-family="Calibri,Calibri_MSFontService,sans-serif" font-weight="400" font-size="13" transform="translate(242.703 473)">Linux</text><path d="M0.107241-3.99856 16.5324-3.55804 32.4586-2.23086 40.1475-1.34124 47.4485-0.261947 54.3865 0.947422 60.9558 2.35057 66.984 3.82556 72.4364 5.44831 77.3667 7.2232 81.5904 9.10041 85.1881 11.0756 88.2253 13.3934 90.472 16.324 91.1774 18.9693 91.472 20.074 92.1003 20.8934 93.837 22.2188 96.5945 23.7869 100.217 25.3392 104.686 26.9483 109.734 28.4506 115.46 29.8515 121.7 31.1975 128.445 32.3626 135.541 33.4114 142.906 34.3321 158.524 35.5667 167.153 35.7991 167.081 38.4648 158.383 38.2306 142.635 36.9857 135.18 36.0538 128.023 34.9959 121.192 33.8158 114.862 32.4505 109.036 31.0252 103.854 29.4828 99.2389 27.8214 95.4065 26.179 92.3623 24.4479 90.2001 22.7978 89.0323 21.2747 88.6008 19.6565 88.0323 17.5247 86.3251 15.2978 83.7294 13.3169 80.4051 11.4918 76.3722 9.6994 71.6038 7.98277 66.2863 6.40019 60.3603 4.95019 53.8788 3.56581 47.0245 2.37102 39.7992 1.30292 32.1945 0.423047 16.3858-0.894347 0.035747-1.33285ZM-0.035747 1.33285 16.2392 1.76935 31.9305 3.07695 39.4508 3.94708 46.6005 5.00398 53.3712 6.18419 59.7647 7.54981 65.5887 8.97481 70.7712 10.5172 75.3778 12.1756 79.2199 13.8832 82.2706 15.5581 84.4249 17.2022 85.5927 18.7253 86.0242 20.3435 86.5927 22.4753 88.2999 24.7022 90.8877 26.6771 94.2185 28.571 98.2611 30.3036 103.021 32.0172 108.339 33.5998 114.263 35.0495 120.683 36.4342 127.601 37.6291 134.82 38.6962 142.365 39.6393 158.242 40.8944 167.009 41.1305 166.938 43.7962 158.101 43.5583 142.094 42.2929 134.459 41.3386 127.18 40.2624 120.175 39.0525 113.665 37.6485 107.641 36.1744 102.189 34.5517 97.2834 32.7858 93.0305 30.9631 89.413 28.9062 86.3997 26.6066 84.153 23.676 83.4476 21.0307 83.153 19.926 82.5247 19.1066 80.8119 17.7994 78.0346 16.2746 74.3833 14.6518 69.9386 13.0517 64.891 11.5494 59.1692 10.1494 52.8635 8.80258 46.1765 7.63695 39.1025 6.59124 31.6664 5.73086 16.0926 4.43304-0.107241 3.99856ZM153.531 26.0369 174.59 40.0007 152.81 52.8112C150.906 53.9312 148.454 53.2955 147.334 51.3913 146.214 49.4871 146.85 47.0356 148.754 45.9156L165.017 36.3498 164.835 43.1313 149.11 32.7043C147.268 31.4835 146.766 29.0013 147.986 27.1601 149.207 25.3189 151.689 24.8161 153.531 26.0369Z" fill="#4472C4" transform="matrix(1.83697e-16 1 1 -1.83697e-16 217 269)"/><path d="M130.5 625C130.5 610.917 153.334 599.5 181.5 599.5 209.667 599.5 232.5 610.917 232.5 625 232.5 639.083 209.667 650.5 181.5 650.5 153.334 650.5 130.5 639.083 130.5 625Z" stroke="#4472C4" stroke-width="1.33333" stroke-miterlimit="8" fill="#FFFFFF" fill-rule="evenodd"/><text font-family="Calibri,Calibri_MSFontService,sans-serif" font-weight="400" font-size="13" transform="translate(154.629 629)">Domain<tspan font-size="13" x="45.1667" y="0">A</tspan></text><path d="M130.5 746C130.5 731.917 153.334 720.5 181.5 720.5 209.667 720.5 232.5 731.917 232.5 746 232.5 760.083 209.667 771.5 181.5 771.5 153.334 771.5 130.5 760.083 130.5 746Z" stroke="#70AD47" stroke-width="1.33333" stroke-miterlimit="8" fill="#FFFFFF" fill-rule="evenodd"/><text font-family="Calibri,Calibri_MSFontService,sans-serif" font-weight="400" font-size="13" transform="translate(154.976 749)">Domain B</text><path d="M0-4 6.5-4 12.8125-4 18.7113-4 23.9613-3.9375 28.375-3.9375 31.868-3.9375 34.118-3.875 34.625-3.875 34.8125-3.875 35-3.875 35.618-3.875 37.868-3.8125 41.25-3.8125 45.6875-3.8125 50.9375-3.8125 56.8125-3.8125 62.0425-3.8125 62.0425-1.14583 56.8125-1.14583 50.9375-1.14583 45.6875-1.14583 41.25-1.14583 37.831-1.14583 35.581-1.20833 35-1.20833 34.8125-1.20833 34.625-1.20833 34.081-1.20833 31.831-1.27083 28.375-1.27083 23.9454-1.27083 18.6954-1.33333 12.8125-1.33333 6.5-1.33333 0-1.33333ZM0 1.33333 6.5 1.33333 12.8125 1.33333 18.6796 1.33333 23.9296 1.39583 28.375 1.39583 31.794 1.39583 34.044 1.45833 34.625 1.45833 34.8125 1.45833 35 1.45833 35.544 1.45833 37.794 1.52083 41.25 1.52083 45.6875 1.52083 50.9375 1.52083 56.8125 1.52083 62.0425 1.52083 62.0425 4.1875 56.8125 4.1875 50.9375 4.1875 45.6875 4.1875 41.25 4.1875 37.757 4.1875 35.507 4.125 35 4.125 34.8125 4.125 34.625 4.125 34.007 4.125 31.757 4.0625 28.375 4.0625 23.9137 4.0625 18.6637 4 12.8125 4 6.5 4 0 4ZM48.1625-13.2045 69.5897 0.1875 48.1625 13.5795C46.2892 14.7503 43.8213 14.1808 42.6505 12.3075 41.4797 10.4341 42.0492 7.96635 43.9225 6.79551L59.9225-3.20449 59.9225 3.57949 43.9225-6.42051C42.0492-7.59135 41.4797-10.0591 42.6505-11.9325 43.8213-13.8058 46.2892-14.3753 48.1625-13.2045Z" fill="#4472C4" transform="matrix(1.83697e-16 1 1 -1.83697e-16 181 650)"/><path d="M378.5 626C378.5 611.917 401.557 600.5 430 600.5 458.443 600.5 481.5 611.917 481.5 626 481.5 640.083 458.443 651.5 430 651.5 401.557 651.5 378.5 640.083 378.5 626Z" stroke="#4472C4" stroke-width="1.33333" stroke-miterlimit="8" fill="#FFFFFF" fill-rule="evenodd"/><text font-family="Calibri,Calibri_MSFontService,sans-serif" font-weight="400" font-size="13" transform="translate(402.974 629)">Domain<tspan font-size="13" x="45.1667" y="0">A</tspan></text><path d="M378.5 746.5C378.5 732.141 401.557 720.5 430 720.5 458.443 720.5 481.5 732.141 481.5 746.5 481.5 760.859 458.443 772.5 430 772.5 401.557 772.5 378.5 760.859 378.5 746.5Z" stroke="#70AD47" stroke-width="1.33333" stroke-miterlimit="8" fill="#FFFFFF" fill-rule="evenodd"/><text font-family="Calibri,Calibri_MSFontService,sans-serif" font-weight="400" font-size="13" transform="translate(403.321 750)">Domain B</text><rect x="509" y="661" width="86" height="44" stroke="#A5A5A5" stroke-width="2" stroke-miterlimit="8" fill="#FFFFFF"/><text font-family="Yu Gothic,Yu Gothic_MSFontService,sans-serif" font-weight="400" font-size="13" transform="translate(525.538 679)">実装時の<tspan font-size="13" x="0" y="16">対応付け</tspan></text><path d="M0-1 36.4502-1 36.4502 64.9239 34.4502 64.9239 34.4502 0 35.4502 1 0 1ZM39.4502 63.5905 35.4502 71.5905 31.4502 63.5905Z" fill="#4472C4" transform="matrix(-1.83697e-16 -1 -1 1.83697e-16 552.591 660.45)"/><path d="M553.41 705 553.41 747.029 487.667 747.029 487.667 745.029 552.41 745.029 551.41 746.029 551.41 705ZM489 750.029 481 746.029 489 742.029Z" fill="#70AD47"/><text font-family="Yu Gothic,Yu Gothic_MSFontService,sans-serif" font-weight="400" font-size="13" transform="translate(207.942 685)">矢印は、右の<tspan font-size="13" x="0" y="16">対応付けと同義</tspan><tspan font-size="13" x="-83.7126" y="-103">ドメインチャート</tspan></text><path d="M0.00151514-0.33333 2.66815-0.321209 2.66512 0.345451-0.00151514 0.33333ZM4.66813-0.312118 7.33477-0.299997 7.33174 0.366663 4.6651 0.354542ZM9.33475-0.290906 12.0014-0.278785 11.9984 0.387875 9.33172 0.375754ZM14.0045-0.267282 16.6709-0.229727 16.6615 0.436874 13.9951 0.399319ZM18.6707-0.20156 21.3371-0.164005 21.3277 0.502595 18.6613 0.46504ZM23.3369-0.135839 26.0033-0.0982842 25.9939 0.568316 23.3275 0.530761ZM28.0066-0.0597171 30.6724 0.00726347 30.6557 0.67372 27.9899 0.606739ZM32.6718 0.0574989 35.3376 0.124479 35.3209 0.790936 32.6551 0.723955ZM37.337 0.174715 39.5096 0.229303 40.0052 0.245464 39.9835 0.911776 39.4891 0.895656 39.4916 0.895728 37.3203 0.841171ZM42.0042 0.310647 44.6694 0.397557 44.6477 1.06387 41.9824 0.976959ZM46.669 0.465963 49.334 0.55893 49.3108 1.22519 46.6457 1.13222ZM51.3376 0.63982 54.0008 0.774668 53.9671 1.44048 51.3039 1.30563ZM55.9955 0.871918 58.6598 0.982933 58.6321 1.64902 55.9677 1.53801ZM60.665 1.07984 63.3261 1.25153 63.2832 1.91681 60.6221 1.74513ZM65.3242 1.39347 67.3441 1.54309 67.9949 1.61877 67.9179 2.28098 67.274 2.2061 67.2879 2.20742 65.275 2.05832ZM69.9815 1.84977 70.0399 1.85656 72.0634 2.10949 72.659 2.26625 72.4894 2.91096 71.9152 2.75986 71.9587 2.76826 69.9587 2.51826 69.9615 2.5186 69.9045 2.51198ZM74.4936 3.01876 75.3348 3.24014 75.2913 3.23174 77.0742 3.4546 76.9916 4.11612 75.1866 3.89051 74.3239 3.66348ZM79.0544 3.64558 79.9684 3.7306 79.9621 3.73008 81.7061 3.85926 81.6569 4.52411 79.9098 4.39469 78.9927 4.30938ZM83.6977 4.00333 86.3589 4.17501 86.3159 4.8403 83.6548 4.66861ZM88.3524 4.29337 91.0149 4.44129 90.9779 5.10693 88.3154 4.95901ZM93.0071 4.52904 95.6718 4.63023 95.6465 5.29642 92.9818 5.19522ZM97.6695 4.7029 100.335 4.79587 100.311 5.46213 97.6462 5.36916ZM102.333 4.86483 104.998 4.95174 104.976 5.61806 102.311 5.53115ZM106.997 5.01693 107.761 5.04184 107.758 5.04177 109.66 5.08955 109.643 5.75601 107.74 5.7082 106.975 5.68324ZM111.659 5.13978 114.325 5.20676 114.308 5.87322 111.643 5.80624ZM116.324 5.257 118.99 5.32398 118.974 5.99044 116.308 5.92346ZM120.986 5.36538 123.653 5.40294 123.643 6.06954 120.977 6.03198ZM125.652 5.4311 128.319 5.46866 128.309 6.13526 125.643 6.0977ZM130.319 5.49682 132.985 5.53438 132.976 6.20098 130.309 6.16342ZM134.982 5.5484 137.648 5.56052 137.645 6.22718 134.979 6.21506ZM139.648 5.56961 142.315 5.58173 142.312 6.24839 139.645 6.23627ZM144.315 5.59082 146.982 5.60294 146.979 6.2696 144.312 6.25748ZM147.268 1.93754C149.477 1.94758 151.26 3.74657 151.25 5.95568 151.24 8.1648 149.441 9.9475 147.232 9.93746 145.023 9.92742 143.24 8.12844 143.25 5.91932 143.26 3.7102 145.059 1.9275 147.268 1.93754Z" transform="matrix(1 0 0 -1 312.5 689.407)"/></g></svg>