<svg width="608" height="425" xmlns="http://www.w3.org/2000/svg" xmlns:xlink="http://www.w3.org/1999/xlink" overflow="hidden"><defs><clipPath id="clip0"><rect x="56" y="67" width="608" height="425"/></clipPath></defs><g clip-path="url(#clip0)" transform="translate(-56 -67)"><path d="M351.5 160.5C351.5 146.141 400.301 134.5 460.5 134.5 520.699 134.5 569.5 146.141 569.5 160.5 569.5 174.859 520.699 186.5 460.5 186.5 400.301 186.5 351.5 174.859 351.5 160.5Z" stroke="#4472C4" stroke-width="1.33333" stroke-miterlimit="8" fill="#FFFFFF" fill-rule="evenodd"/><text font-family="Yu Gothic,Yu Gothic_MSFontService,sans-serif" font-weight="400" font-size="13" transform="translate(406.488 164)">アプリケーション</text><path d="M351.5 250C351.5 235.917 400.301 224.5 460.5 224.5 520.699 224.5 569.5 235.917 569.5 250 569.5 264.083 520.699 275.5 460.5 275.5 400.301 275.5 351.5 264.083 351.5 250Z" stroke="#ED7D31" stroke-width="1.33333" stroke-miterlimit="8" fill="#FFFFFF" fill-rule="evenodd"/><text font-family="Yu Gothic,Yu Gothic_MSFontService,sans-serif" font-weight="400" font-size="13" transform="translate(433.154 253)">サービス</text><path d="M351.5 339C351.5 324.917 400.301 313.5 460.5 313.5 520.699 313.5 569.5 324.917 569.5 339 569.5 353.083 520.699 364.5 460.5 364.5 400.301 364.5 351.5 353.083 351.5 339Z" stroke="#70AD47" stroke-width="1.33333" stroke-miterlimit="8" fill="#FFFFFF" fill-rule="evenodd"/><text font-family="Yu Gothic,Yu Gothic_MSFontService,sans-serif" font-weight="400" font-size="13" transform="translate(393.154 343)">インフラストラクチャ</text><path d="M345.5 155C345.5 140.917 394.301 129.5 454.5 129.5 514.699 129.5 563.5 140.917 563.5 155 563.5 169.083 514.699 180.5 454.5 180.5 394.301 180.5 345.5 169.083 345.5 155Z" stroke="#4472C4" stroke-width="1.33333" stroke-miterlimit="8" fill="#FFFFFF" fill-rule="evenodd"/><text font-family="Yu Gothic,Yu Gothic_MSFontService,sans-serif" font-weight="400" font-size="13" transform="translate(400.728 158)">アプリケーション</text><path d="M345.5 244C345.5 229.917 394.301 218.5 454.5 218.5 514.699 218.5 563.5 229.917 563.5 244 563.5 258.083 514.699 269.5 454.5 269.5 394.301 269.5 345.5 258.083 345.5 244Z" stroke="#ED7D31" stroke-width="1.33333" stroke-miterlimit="8" fill="#FFFFFF" fill-rule="evenodd"/><text font-family="Yu Gothic,Yu Gothic_MSFontService,sans-serif" font-weight="400" font-size="13" transform="translate(427.394 248)">サービス</text><path d="M345.5 333.5C345.5 319.141 394.301 307.5 454.5 307.5 514.699 307.5 563.5 319.141 563.5 333.5 563.5 347.859 514.699 359.5 454.5 359.5 394.301 359.5 345.5 347.859 345.5 333.5Z" stroke="#70AD47" stroke-width="1.33333" stroke-miterlimit="8" fill="#FFFFFF" fill-rule="evenodd"/><text font-family="Yu Gothic,Yu Gothic_MSFontService,sans-serif" font-weight="400" font-size="13" transform="translate(387.394 337)">インフラストラクチャ</text><rect x="58.5001" y="68.5001" width="604" height="422" stroke="#D9D9D9" stroke-width="1.33333" stroke-miterlimit="8" fill="none"/><text font-family="Yu Gothic,Yu Gothic_MSFontService,sans-serif" font-weight="400" font-size="16" transform="translate(296 88)">ドメインの独立性</text><path d="M340.5 149C340.5 134.917 389.077 123.5 449 123.5 508.923 123.5 557.5 134.917 557.5 149 557.5 163.083 508.923 174.5 449 174.5 389.077 174.5 340.5 163.083 340.5 149Z" stroke="#4472C4" stroke-width="1.33333" stroke-miterlimit="8" fill="#FFFFFF" fill-rule="evenodd"/><text font-family="Yu Gothic,Yu Gothic_MSFontService,sans-serif" font-weight="400" font-size="13" transform="translate(394.968 152)">アプリケーション</text><path d="M340.5 238C340.5 223.917 389.077 212.5 449 212.5 508.923 212.5 557.5 223.917 557.5 238 557.5 252.083 508.923 263.5 449 263.5 389.077 263.5 340.5 252.083 340.5 238Z" stroke="#ED7D31" stroke-width="1.33333" stroke-miterlimit="8" fill="#FFFFFF" fill-rule="evenodd"/><text font-family="Yu Gothic,Yu Gothic_MSFontService,sans-serif" font-weight="400" font-size="13" transform="translate(421.634 242)">サービス</text><path d="M340.5 328C340.5 313.917 389.077 302.5 449 302.5 508.923 302.5 557.5 313.917 557.5 328 557.5 342.083 508.923 353.5 449 353.5 389.077 353.5 340.5 342.083 340.5 328Z" stroke="#70AD47" stroke-width="1.33333" stroke-miterlimit="8" fill="#FFFFFF" fill-rule="evenodd"/><text font-family="Yu Gothic,Yu Gothic_MSFontService,sans-serif" font-weight="400" font-size="13" transform="translate(381.634 331)">インフラストラクチャ</text><path d="M92.5834 228.433C90.7681 217.257 100.115 206.965 113.46 205.445 118.867 204.829 124.365 205.75 129.074 208.06 134.064 200.184 145.723 197.19 155.116 201.374 156.758 202.106 158.266 203.033 159.591 204.127 163.477 197.598 172.942 194.945 180.732 198.202 182.888 199.104 184.769 200.407 186.23 202.013 192.493 195.839 203.561 195.076 210.95 200.31 214.056 202.509 216.149 205.543 216.871 208.891 227.133 211.236 233.187 220.119 230.393 228.732 230.158 229.456 229.863 230.165 229.511 230.855 237.741 239.829 235.726 252.692 225.011 259.585 221.675 261.73 217.735 263.119 213.571 263.618 213.479 273.273 204.051 281.037 192.514 280.959 188.66 280.933 184.889 280.016 181.619 278.307 177.717 289.132 164.105 295.25 151.217 291.972 145.816 290.599 141.149 287.694 138.013 283.754 124.817 290.42 107.689 286.834 99.757 275.744 99.657 275.604 99.5588 275.464 99.4623 275.322 90.8262 276.169 83.0035 271.008 81.9899 263.794 81.4496 259.949 82.965 256.1 86.1323 253.274 78.6547 249.587 76.1428 241.494 80.5219 235.198 83.0482 231.565 87.4791 229.164 92.452 228.732Z" stroke="#000000" stroke-width="1.33333" stroke-miterlimit="8" fill="#FFFFFF" fill-rule="evenodd"/><path d="M95.447 254.671C92.2547 254.881 89.0627 254.262 86.2996 252.9M103.518 274.053C102.234 274.481 100.888 274.766 99.5157 274.901M138.004 283.367C137.038 282.154 136.23 280.857 135.592 279.5M182.598 273.724C182.456 275.163 182.133 276.586 181.635 277.967M201.744 247.509C208.982 250.46 213.549 256.628 213.485 263.366M229.437 230.62C228.265 232.914 226.476 234.949 224.209 236.566M216.892 208.558C217.092 209.484 217.184 210.425 217.168 211.366M183.504 205.282C184.185 203.987 185.087 202.78 186.182 201.701M158.454 206.989C158.732 205.918 159.167 204.881 159.751 203.9M129.056 208.038C130.759 208.874 132.336 209.88 133.75 211.034M93.4031 231.587C93.0312 230.556 92.7573 229.501 92.5839 228.434" stroke="#000000" stroke-width="1.33333" stroke-miterlimit="8" fill="none" fill-rule="evenodd"/><text font-family="Yu Gothic,Yu Gothic_MSFontService,sans-serif" font-weight="400" font-size="13" transform="translate(117.295 230)">解決<tspan font-size="13" x="26.6667" y="0">したい</tspan><tspan font-size="13" x="0" y="16">現実世界の</tspan><tspan font-size="13" x="20" y="32">問題</tspan></text><path d="M279.5 346.5C267.074 346.5 257 344.821 257 342.75L257 242.75C257 240.679 246.926 239 234.5 239 246.926 239 257 237.321 257 235.25L257 135.25C257 133.179 267.074 131.5 279.5 131.5" stroke="#000000" stroke-width="1.33333" stroke-miterlimit="8" fill="none" fill-rule="evenodd"/><path d="M271.5 139.75 272.656 139.75 272.656 158.25 271.5 158.25ZM273.813 139.75 276.125 139.75 276.125 158.25 273.813 158.25ZM277.281 139.75 314 139.75 314 130.5 332.5 149 314 167.5 314 158.25 277.281 158.25Z" stroke="#000000" stroke-width="1.33333" stroke-miterlimit="8" stroke-opacity="0.501961" fill="#4472C4" fill-rule="evenodd" fill-opacity="0.501961"/><path d="M271.5 228.75 272.656 228.75 272.656 247.25 271.5 247.25ZM273.813 228.75 276.125 228.75 276.125 247.25 273.813 247.25ZM277.281 228.75 314 228.75 314 219.5 332.5 238 314 256.5 314 247.25 277.281 247.25Z" stroke="#000000" stroke-width="1.33333" stroke-miterlimit="8" stroke-opacity="0.501961" fill="#ED7D31" fill-rule="evenodd" fill-opacity="0.501961"/><path d="M271.5 318.75 272.656 318.75 272.656 337.25 271.5 337.25ZM273.813 318.75 276.125 318.75 276.125 337.25 273.813 337.25ZM277.281 318.75 314 318.75 314 309.5 332.5 328 314 346.5 314 337.25 277.281 337.25Z" stroke="#000000" stroke-width="1.33333" stroke-miterlimit="8" stroke-opacity="0.501961" fill="#70AD47" fill-rule="evenodd" fill-opacity="0.501961"/><text font-family="Calibri,Calibri_MSFontService,sans-serif" font-weight="400" font-size="13" transform="translate(230.076 376)">IT<tspan font-family="Yu Gothic,Yu Gothic_MSFontService,sans-serif" font-size="13" x="12.8333" y="0">システムへの実装に</tspan><tspan font-family="Yu Gothic,Yu Gothic_MSFontService,sans-serif" font-size="13" x="-0.5" y="16">おいてはじめて便宜的</tspan><tspan font-family="Yu Gothic,Yu Gothic_MSFontService,sans-serif" font-size="13" x="39.5" y="32">な関係が生じる</tspan></text><path d="M523.5 171 540 154.5 556.5 171 548.25 171 548.25 306 556.5 306 540 322.5 523.5 306 531.75 306 531.75 171Z" stroke="#BC8C00" stroke-width="1.33333" stroke-miterlimit="8" stroke-opacity="0.501961" fill="#FFC000" fill-rule="evenodd" fill-opacity="0.501961"/><text font-family="Yu Gothic,Yu Gothic_MSFontService,sans-serif" font-weight="400" font-size="13" transform="translate(580.201 180)">意味論的<tspan font-size="13" x="53.3333" y="0">に</tspan><tspan font-size="13" x="13.3333" y="16">無関係</tspan></text><path d="M614.326 205.5C614.326 221.734 581.413 237.969 548.5 237.969" stroke="#FFC000" stroke-width="1.33333" stroke-miterlimit="8" fill="none" fill-rule="evenodd"/><path d="M402.25 157.5 402.25 158.656 383.75 158.656 383.75 157.5ZM402.25 159.813 402.25 162.125 383.75 162.125 383.75 159.813ZM402.25 163.281 402.25 390 411.5 390 393 408.5 374.5 390 383.75 390 383.75 163.281Z" stroke="#000000" stroke-width="1.33333" stroke-miterlimit="8" stroke-opacity="0.501961" fill="#D9D9D9" fill-rule="evenodd" fill-opacity="0.501961"/><path d="M397.5 178.5 493.5 178.5 493.5 204.333 488.333 209.5 397.5 209.5Z" fill="#FFFFFF" fill-rule="evenodd" fill-opacity="0.701961"/><path d="M488.333 209.5 489.367 205.367 493.5 204.333Z" fill="#CDCDCD" fill-rule="evenodd" fill-opacity="0.701961"/><path d="M488.333 209.5 489.367 205.367 493.5 204.333 488.333 209.5 397.5 209.5 397.5 178.5 493.5 178.5 493.5 204.333" stroke="#000000" stroke-width="1.33333" stroke-miterlimit="8" stroke-dasharray="5.33333 4" stroke-opacity="0.701961" fill="none" fill-rule="evenodd"/><text font-family="Yu Gothic,Yu Gothic_MSFontService,sans-serif" font-weight="400" font-size="13" transform="translate(411.222 194)">変換ルール</text><path d="M397.5 267.5 493.5 267.5 493.5 293.333 488.333 298.5 397.5 298.5Z" fill="#FFFFFF" fill-rule="evenodd" fill-opacity="0.701961"/><path d="M488.333 298.5 489.367 294.367 493.5 293.333Z" fill="#CDCDCD" fill-rule="evenodd" fill-opacity="0.701961"/><path d="M488.333 298.5 489.367 294.367 493.5 293.333 488.333 298.5 397.5 298.5 397.5 267.5 493.5 267.5 493.5 293.333" stroke="#000000" stroke-width="1.33333" stroke-miterlimit="8" stroke-dasharray="5.33333 4" stroke-opacity="0.701961" fill="none" fill-rule="evenodd"/><text font-family="Yu Gothic,Yu Gothic_MSFontService,sans-serif" font-weight="400" font-size="13" transform="translate(411.222 284)">変換ルール</text><path d="M370.5 415.5 519.5 415.5 519.5 449.667 512.667 456.5 370.5 456.5Z" fill="#FFFFFF" fill-rule="evenodd" fill-opacity="0.701961"/><path d="M512.667 456.5 514.033 451.033 519.5 449.667Z" fill="#CDCDCD" fill-rule="evenodd" fill-opacity="0.701961"/><path d="M512.667 456.5 514.033 451.033 519.5 449.667 512.667 456.5 370.5 456.5 370.5 415.5 519.5 415.5 519.5 449.667" stroke="#000000" stroke-width="1.33333" stroke-miterlimit="8" stroke-opacity="0.701961" fill="none" fill-rule="evenodd"/><text font-family="Yu Gothic,Yu Gothic_MSFontService,sans-serif" font-weight="400" font-size="13" transform="translate(404.555 436)">ソフトウェア<tspan font-size="13" x="-302.635" y="-121">ドメイン（問題領域）</tspan><tspan font-size="13" x="-249.302" y="-105">への直交分割</tspan></text></g></svg>