<svg width="607" height="632" xmlns="http://www.w3.org/2000/svg" xmlns:xlink="http://www.w3.org/1999/xlink" overflow="hidden"><defs><clipPath id="clip0"><rect x="60" y="12" width="607" height="632"/></clipPath><clipPath id="clip1"><rect x="443" y="312" width="16" height="17"/></clipPath><clipPath id="clip2"><rect x="443" y="312" width="16" height="17"/></clipPath><clipPath id="clip3"><rect x="443" y="312" width="16" height="17"/></clipPath><clipPath id="clip4"><rect x="591" y="374" width="23" height="23"/></clipPath><clipPath id="clip5"><rect x="591" y="374" width="23" height="23"/></clipPath><clipPath id="clip6"><rect x="591" y="374" width="23" height="23"/></clipPath><linearGradient x1="236" y1="274.5" x2="236" y2="279.5" gradientUnits="userSpaceOnUse" spreadMethod="reflect" id="fill7"><stop offset="0" stop-color="#FFDD9C"/><stop offset="0.5" stop-color="#FFD78E"/><stop offset="1" stop-color="#FFD479"/></linearGradient><clipPath id="clip8"><rect x="243" y="89" width="26" height="25"/></clipPath><clipPath id="clip9"><rect x="243" y="89" width="26" height="25"/></clipPath><clipPath id="clip10"><rect x="243" y="89" width="26" height="25"/></clipPath><clipPath id="clip11"><rect x="449" y="560" width="27" height="26"/></clipPath><clipPath id="clip12"><rect x="449" y="560" width="27" height="26"/></clipPath><clipPath id="clip13"><rect x="449" y="560" width="27" height="26"/></clipPath><linearGradient x1="12.9986" y1="0.117079" x2="12.9986" y2="25.8829" gradientUnits="userSpaceOnUse" spreadMethod="pad" id="fill14"><stop offset="0" stop-color="#B3B2B3"/><stop offset="0.216" stop-color="#AFAEAF"/><stop offset="0.44" stop-color="#A2A2A2"/><stop offset="0.577" stop-color="#979797"/><stop offset="1" stop-color="#979797"/></linearGradient></defs><g clip-path="url(#clip0)" transform="translate(-60 -12)"><rect x="153.5" y="69.5001" width="126" height="87" stroke="#000000" stroke-width="1.33333" stroke-miterlimit="8" fill="#FFFFFF"/><text font-family="Yu Gothic,Yu Gothic_MSFontService,sans-serif" font-weight="400" font-size="13" transform="translate(202.751 86)">工場<tspan font-family="Consolas,Consolas_MSFontService,sans-serif" font-size="12" x="-40.2467" y="15">*</tspan><tspan font-size="12" x="-33.58" y="15">工場</tspan><tspan font-family="Consolas,Consolas_MSFontService,sans-serif" font-size="12" x="-9.58" y="15">ID</tspan><tspan font-size="12" x="-28.2467" y="29">工場名</tspan><tspan font-size="12" x="-28.2467" y="44">所在地</tspan><tspan font-size="12" x="-28.2467" y="58">消費電力</tspan><tspan font-family="Consolas,Consolas_MSFontService,sans-serif" font-size="12" x="19.7533" y="58">(M)</tspan></text><rect x="153.5" y="205.5" width="126" height="87" stroke="#000000" stroke-width="1.33333" stroke-miterlimit="8" fill="#FFFFFF"/><text font-family="Yu Gothic,Yu Gothic_MSFontService,sans-serif" font-weight="400" font-size="13" transform="translate(182.751 222)">生産ライン<tspan font-family="Consolas,Consolas_MSFontService,sans-serif" font-size="12" x="-20.2467" y="15">*</tspan><tspan font-size="12" x="-13.58" y="15">生産ライン</tspan><tspan font-family="Consolas,Consolas_MSFontService,sans-serif" font-size="12" x="46.42" y="15">ID</tspan><tspan font-size="12" x="-8.24667" y="29">消費電力</tspan><tspan font-family="Consolas,Consolas_MSFontService,sans-serif" font-size="12" x="39.7533" y="29">(M)</tspan><tspan font-size="12" x="-8.24667" y="44">稼働状態</tspan></text><path d="M216.5 156.5 216.5 205.377" stroke="#000000" stroke-width="0.666667" stroke-miterlimit="8" fill="none" fill-rule="evenodd"/><text font-family="Calibri,Calibri_MSFontService,sans-serif" font-weight="400" font-size="11" transform="translate(209.053 182)">R_FL1<tspan font-size="11" x="-0.814804" y="-14">1</tspan></text><rect x="501.5" y="352.5" width="126" height="87" stroke="#000000" stroke-width="1.33333" stroke-miterlimit="8" fill="#FFFFFF"/><text font-family="Yu Gothic,Yu Gothic_MSFontService,sans-serif" font-weight="400" font-size="13" transform="translate(550.9 368)">製品<tspan font-family="Consolas,Consolas_MSFontService,sans-serif" font-size="12" x="-40.2466" y="15">*</tspan><tspan font-size="12" x="-33.58" y="15">製品</tspan><tspan font-family="Consolas,Consolas_MSFontService,sans-serif" font-size="12" x="-9.57996" y="15">ID</tspan></text><rect x="153.5" y="341.5" width="126" height="108" stroke="#000000" stroke-width="1.33333" stroke-miterlimit="8" fill="#FFFFFF"/><text font-family="Yu Gothic,Yu Gothic_MSFontService,sans-serif" font-weight="400" font-size="13" transform="translate(202.751 358)">装置<tspan font-family="Consolas,Consolas_MSFontService,sans-serif" font-size="12" x="-40.2467" y="15">*</tspan><tspan font-size="12" x="-33.58" y="15">装置</tspan><tspan font-family="Consolas,Consolas_MSFontService,sans-serif" font-size="12" x="-9.58" y="15">ID</tspan><tspan font-size="12" x="-28.2467" y="29">消費電力</tspan><tspan font-family="Consolas,Consolas_MSFontService,sans-serif" font-size="12" x="19.7533" y="29">(M)</tspan><tspan font-size="12" x="-28.2467" y="44">稼働状態</tspan><tspan font-size="12" x="-28.2467" y="58">温度</tspan><tspan font-size="12" x="-28.2467" y="73">危険上限温度</tspan></text><path d="M0 0 0.000104987 48.8766" stroke="#000000" stroke-width="0.666667" stroke-miterlimit="8" fill="none" fill-rule="evenodd" transform="matrix(-1 0 0 1 216.5 292.5)"/><path d="M0 0 34.8169 0 34.8169 147.257 1.33333 147.257" stroke="#000000" stroke-width="0.666667" stroke-miterlimit="8" fill="none" fill-rule="evenodd" transform="matrix(-1 1.22465e-16 1.22465e-16 1 154.833 248.5)"/><path d="M248.12 449.5 248.12 485.669 187.5 485.669 187.5 450.833" stroke="#000000" stroke-width="0.666667" stroke-miterlimit="8" fill="none" fill-rule="evenodd"/><path d="M0 0 221.703 0.000104987" stroke="#000000" stroke-width="0.666667" stroke-miterlimit="8" fill="none" fill-rule="evenodd" transform="matrix(-1 0 0 1 501.203 395.5)"/><path d="M0 0 103.176 0 103.176 284.926" stroke="#000000" stroke-width="0.666667" stroke-miterlimit="8" fill="none" fill-rule="evenodd" transform="matrix(-1.83697e-16 -1 -1 1.83697e-16 564.426 351.676)"/><text font-family="Calibri,Calibri_MSFontService,sans-serif" font-weight="400" font-size="11" transform="translate(208.239 303)">1<tspan font-size="11" x="76.0836" y="-59">1</tspan><tspan font-size="11" x="-79.9445" y="-44">0..1</tspan><tspan font-size="11" x="-69.3974" y="86">1</tspan><tspan font-size="11" x="-10.7708" y="-104">1..*</tspan><tspan font-size="11" x="-9.55894" y="34">1..*</tspan><tspan font-size="11" x="345.494" y="42">*</tspan><tspan font-size="11" x="76.1132" y="107">0..1</tspan><tspan font-size="11" x="273.139" y="84">0..1</tspan><tspan font-size="11" x="-16.3168" y="159">0..1</tspan><tspan font-size="11" x="19.7595" y="157">0..1</tspan><tspan font-family="Yu Gothic,Yu Gothic_MSFontService,sans-serif" font-size="11" x="-69.3974" y="163">前の工程</tspan><tspan font-family="Yu Gothic,Yu Gothic_MSFontService,sans-serif" font-size="11" x="43.1512" y="163">後の工程</tspan><tspan font-family="Yu Gothic,Yu Gothic_MSFontService,sans-serif" font-size="11" x="246.94" y="107">仕掛り品</tspan><tspan font-family="Yu Gothic,Yu Gothic_MSFontService,sans-serif" font-size="11" x="76.7743" y="84">加工中</tspan><tspan font-family="Yu Gothic,Yu Gothic_MSFontService,sans-serif" font-size="11" x="361.61" y="41">生産製品</tspan><tspan font-family="Yu Gothic,Yu Gothic_MSFontService,sans-serif" font-size="11" x="14.1912" y="-133">設置場所</tspan><tspan font-family="Yu Gothic,Yu Gothic_MSFontService,sans-serif" font-size="11" x="10.917" y="4">設置場所</tspan><tspan font-family="Yu Gothic,Yu Gothic_MSFontService,sans-serif" font-size="11" x="-100.633" y="109">開始装置</tspan><tspan font-size="11" x="-0.817001" y="21">R_LE1</tspan><tspan font-size="11" x="-83.6964" y="20">R_LE2</tspan><tspan font-size="11" x="-4.62415" y="193">R_EO1</tspan><tspan font-size="11" x="116.175" y="105">R_EP1</tspan><tspan font-size="11" x="216.602" y="-60">R_LP1</tspan></text><rect x="339.5" y="289.5" width="126" height="54" stroke="#000000" stroke-width="1.33333" stroke-miterlimit="8" fill="#FFFFFF"/><text font-family="Yu Gothic,Yu Gothic_MSFontService,sans-serif" font-weight="400" font-size="13" transform="translate(362.16 306)">オーダー仕様<tspan font-size="12" x="-13.58" y="15">製造ステップ</tspan><tspan font-size="12" x="-13.58" y="29">装置コマンド</tspan></text><path d="M279.5 275.5 402.529 275.5 402.529 289.089" stroke="#000000" stroke-width="0.666667" stroke-miterlimit="8" fill="none" fill-rule="evenodd"/><path d="M0 0 123.225 0 123.225 12.6911" stroke="#000000" stroke-width="0.666667" stroke-miterlimit="8" fill="none" fill-rule="evenodd" transform="matrix(1 0 0 -1 279.5 356.191)"/><text font-family="Calibri,Calibri_MSFontService,sans-serif" font-weight="400" font-size="11" transform="translate(284.788 272)">1<tspan font-size="11" x="124.404" y="14">1..*</tspan><tspan font-size="11" x="130.035" y="84">1</tspan><tspan font-size="11" x="0.673798" y="80">1</tspan><tspan font-family="Yu Gothic,Yu Gothic_MSFontService,sans-serif" font-size="11" x="124.228" y="1">製造指示仕様</tspan><tspan font-family="Yu Gothic,Yu Gothic_MSFontService,sans-serif" font-size="11" x="118.549" y="96">製造指示仕様</tspan><tspan font-size="11" x="43.3781" y="1">R_LOS1</tspan><tspan font-size="11" x="42.2527" y="92">R_POS1</tspan></text><rect x="251" y="360" width="17" height="17" stroke="#2F528F" stroke-width="2" stroke-miterlimit="8" fill="#FFFFFF"/><path d="M254 369C254 366.239 256.462 364 259.5 364 262.538 364 265 366.239 265 369 265 371.761 262.538 374 259.5 374 256.462 374 254 371.761 254 369Z" stroke="#AE5A21" stroke-width="2" stroke-miterlimit="8" fill="#FFFFFF" fill-rule="evenodd"/><path d="M251 358 251.75 355 267.25 355 268 358Z" stroke="#2F528F" stroke-width="2" stroke-miterlimit="8" fill="#FFFFFF" fill-rule="evenodd"/><path d="M0 3 0.749997 0 16.25 0 17 3Z" stroke="#2F528F" stroke-width="2" stroke-miterlimit="8" fill="#FFFFFF" fill-rule="evenodd" transform="matrix(1 0 0 -1 251 383)"/><rect x="253" y="350" width="13" height="3" stroke="#2F528F" stroke-width="2" stroke-miterlimit="8" fill="#FFFFFF"/><path d="M256.289 370.952 260.831 366.683 260.333 366.153 262.388 366.217 262.325 368.272 261.827 367.742 257.285 372.011Z" stroke="#AE5A21" stroke-width="2" stroke-miterlimit="8" fill="#ED7D31" fill-rule="evenodd"/><g clip-path="url(#clip1)"><g clip-path="url(#clip2)"><g clip-path="url(#clip3)"><path d="M6.23359 7.33281 13.1244 7.33281 13.1244 7.91162 6.23359 7.91162Z" fill="#4B4B4B" transform="matrix(1 0 0 1.0625 443 312)"/><path d="M5.63941 9.621 12.5302 9.621 12.5302 10.2001 5.63941 10.2001Z" fill="#4B4B4B" transform="matrix(1 0 0 1.0625 443 312)"/><path d="M15.9776 1.14381 15.9776 0.771438 4.31616 0.771438 4.31616 1.14381C4.31616 1.91284 4.33753 2.71675 4.33753 3.55144 4.33753 4.76875 4.29269 6.05122 4.07569 7.38634 3.86925 8.65606 3.50772 9.97366 2.88025 11.332L1.75778 11.332C1.55944 11.332 1.35919 11.3639 1.166 11.431 0.876594 11.5315 0.602594 11.7149 0.395063 11.9846 0.187 12.2537 0.04975 12.6037 0.0089375 13.0163 0.003 13.076 0 13.1354 0 13.1943-0.00028125 13.4935 0.07675 13.7756 0.206437 14.0228 0.40125 14.3947 0.709031 14.69 1.06653 14.8962 1.42459 15.1021 1.83528 15.2207 2.25356 15.2237L11.1185 15.2285C11.456 15.2293 11.7487 15.1604 11.9978 15.0472 12.2472 14.9346 12.4507 14.7848 12.6396 14.6343 13.4119 14.0193 14.0085 13.2571 14.4665 12.411 15.1537 11.1405 15.5331 9.68078 15.7452 8.19647 15.9567 6.71216 15.9997 5.20113 16 3.82572 16 2.84075 15.9776 1.925 15.9776 1.14381ZM2.25766 14.4792 2.25794 14.4792C2.07309 14.4784 1.8815 14.4419 1.70019 14.3741 1.42784 14.2731 1.18084 14.1018 1.01087 13.895 0.9255 13.7915 0.859031 13.6797 0.813625 13.5629 0.768531 13.4459 0.744438 13.3241 0.744438 13.1944 0.744438 13.1603 0.746063 13.1257 0.749594 13.0906 0.769313 12.8939 0.816594 12.7364 0.879281 12.6091 0.973844 12.4189 1.10169 12.2924 1.25247 12.2057 1.40297 12.1198 1.57941 12.0808 1.75778 12.0808L9.73563 12.0808C9.64916 12.18 9.57216 12.2935 9.51053 12.4218 9.41975 12.6099 9.35897 12.8282 9.33434 13.0739 9.32894 13.1298 9.32622 13.1847 9.32622 13.2393 9.32622 13.4992 9.38838 13.7454 9.49644 13.964 9.59372 14.1604 9.7275 14.335 9.88609 14.4836L2.25766 14.4792ZM14.7473 9.49672C14.5325 10.4141 14.2307 11.2834 13.8118 12.0568 13.393 12.8301 12.8593 13.5072 12.1757 14.0523 12.0033 14.1901 11.8517 14.2968 11.692 14.3684 11.5315 14.44 11.3604 14.4832 11.1188 14.4841L10.8702 14.4838C10.6452 14.42 10.4363 14.3074 10.2663 14.1593 10.129 14.0401 10.018 13.8991 9.9415 13.744 9.86506 13.5889 9.82259 13.4202 9.82259 13.2392 9.82259 13.2014 9.82422 13.1628 9.82828 13.1236 9.84775 12.9288 9.89422 12.7685 9.95744 12.6372 10.0528 12.4405 10.1842 12.3067 10.336 12.2168 10.4876 12.1273 10.6619 12.0838 10.8359 12.0841 11.0116 12.0835 11.1856 12.1289 11.3296 12.2097 11.4742 12.2911 11.5874 12.4053 11.656 12.5478 11.6923 12.6229 11.7147 12.7232 11.7147 12.8242 11.7147 12.9072 11.6998 12.9896 11.6728 13.0585 11.646 13.1279 11.6079 13.1823 11.5636 13.2201 11.4804 13.2901 11.3955 13.3166 11.3098 13.3171 11.2353 13.3171 11.1607 13.2947 11.0986 13.2544 11.0359 13.2144 10.9872 13.1582 10.9586 13.0915L10.5025 13.2871C10.5722 13.4501 10.6894 13.5817 10.8305 13.6722 10.9713 13.7627 11.1372 13.8132 11.3098 13.8132 11.5074 13.814 11.7146 13.744 11.8854 13.5978 12.0024 13.4979 12.0835 13.3714 12.1353 13.2382 12.187 13.105 12.2105 12.9639 12.2105 12.8242 12.2105 12.6545 12.1762 12.4857 12.1032 12.333 11.9862 12.0895 11.7946 11.9017 11.5725 11.7771 11.3547 11.6552 11.1061 11.5915 10.8534 11.5883L10.8534 11.5844 3.58437 11.5844C4.22587 10.1791 4.59825 8.81231 4.81034 7.50581 5.03678 6.11206 5.08162 4.78666 5.08162 3.5515 5.08162 2.84138 5.06731 2.16259 5.06272 1.51597L15.235 1.51597C15.2399 2.21931 15.2555 3.00025 15.2555 3.82575 15.2561 5.63803 15.1775 7.66197 14.7473 9.49672Z" fill="#4B4B4B" transform="matrix(1 0 0 1.0625 443 312)"/><path d="M10.349 5.88556C10.4363 4.91278 10.4406 3.98163 10.4317 3.101L6.5765 3.101C6.58541 3.98163 6.58081 4.91278 6.49356 5.88556L10.349 5.88556Z" fill="#4B4B4B" transform="matrix(1 0 0 1.0625 443 312)"/></g></g></g><g clip-path="url(#clip4)"><g clip-path="url(#clip5)"><g clip-path="url(#clip6)"><path d="M596.608 374 608.392 374 608.392 375.135 596.608 375.135Z" fill="#7F7F7F"/><path d="M609.525 377.597C609.336 377.266 608.105 375.656 608.105 375.656L606.706 375.656C606.074 376.43 604.467 379.353 606.155 387.914 606.486 389.591 606.652 393.522 605.585 395.438L601.376 395.438C602.819 393.664 604.736 390.185 604.168 386.068 603.443 380.816 603.325 377.601 604.071 375.656L596.895 375.656C596.895 375.656 595.664 377.266 595.475 377.597 595.285 377.928 595.333 378.07 595.333 378.543 595.333 379.016 595.333 393.64 595.333 394.255 595.333 394.87 595.508 395.654 595.948 395.865 596.842 396.29 596.511 397 597.462 397L607.538 397C608.489 397 608.158 396.29 609.052 395.865 609.492 395.654 609.667 394.87 609.667 394.255 609.667 393.64 609.667 379.016 609.667 378.543 609.667 378.07 609.715 377.928 609.525 377.597Z" fill="#7F7F7F"/></g></g></g><path d="M210.5 279.5 211.75 274.5 261.5 274.5 260.25 279.5Z" stroke="#FFC000" stroke-width="0.666667" stroke-miterlimit="8" fill="url(#fill7)" fill-rule="evenodd"/><g clip-path="url(#clip8)"><g clip-path="url(#clip9)"><g clip-path="url(#clip10)"><path d="M23.3074 5.79507 15.9642 10.9965 15.9642 5.79507 8.30127 11.2229 7.66289 1.32485 1.27671 1.32485 0 23.6751 25 23.6751 23.3074 5.79507ZM9.50439 18.0441 6.48828 18.0441 6.48828 15.0275 9.50439 15.0275 9.50439 18.0441ZM18.0717 18.0441 15.0547 18.0441 15.0547 15.0275 18.0717 15.0275 18.0717 18.0441Z" fill="#4B4B4B" transform="matrix(1.04 0 0 1 243 89)"/></g></g></g><rect x="339.5" y="492.5" width="149" height="103" stroke="#000000" stroke-width="3" stroke-miterlimit="8" fill="#FFFFFF"/><text font-family="Yu Gothic,Yu Gothic_MSFontService,sans-serif" font-weight="700" font-size="16" transform="translate(381.494 512)">温度履歴<tspan font-family="Consolas,Consolas_MSFontService,sans-serif" font-size="13" x="-32.9133" y="17">*</tspan><tspan font-size="13" x="-25.58" y="17">製品</tspan><tspan font-family="Consolas,Consolas_MSFontService,sans-serif" font-size="13" x="1.08667" y="17">ID</tspan><tspan font-family="Consolas,Consolas_MSFontService,sans-serif" font-size="13" x="-32.9133" y="33">*</tspan><tspan font-size="13" x="-25.58" y="33">タイムスタンプ</tspan><tspan font-size="13" x="-19.58" y="49">温度</tspan></text><path d="M278.5 433.5 414.477 433.5 414.477 492.504" stroke="#000000" stroke-width="3" stroke-miterlimit="8" fill="none" fill-rule="evenodd"/><text font-family="Calibri,Calibri_MSFontService,sans-serif" font-weight="700" font-size="11" transform="translate(284.234 431)">1<tspan font-size="11" x="136.221" y="52">*</tspan></text><path d="M268.5 448.167C268.5 430.126 283.126 415.5 301.167 415.5L473.833 415.5C491.874 415.5 506.5 430.126 506.5 448.167L506.5 578.833C506.5 596.874 491.874 611.5 473.833 611.5L301.167 611.5C283.126 611.5 268.5 596.874 268.5 578.833Z" stroke="#FF0000" stroke-width="1.33333" stroke-miterlimit="8" fill="none" fill-rule="evenodd"/><rect x="61.5001" y="14.5001" width="605" height="629" stroke="#D9D9D9" stroke-width="1.33333" stroke-miterlimit="8" fill="none"/><text font-family="Yu Gothic,Yu Gothic_MSFontService,sans-serif" font-weight="400" font-size="16" transform="translate(97.4308 54)">ドメイン：装置管理</text><path d="M516.5 529.5 540.5 505.5 540.5 517.5 557.897 517.5 557.897 481.5 659.5 481.5 659.5 577.5 557.897 577.5 557.897 541.5 540.5 541.5 540.5 553.5Z" stroke="#FF0000" stroke-width="1.33333" stroke-miterlimit="8" fill="#FFFFFF" fill-rule="evenodd"/><text font-family="Yu Gothic,Yu Gothic_MSFontService,sans-serif" font-weight="400" font-size="13" transform="translate(566.705 525)">とりあえず<tspan font-size="13" x="0" y="16">追加してみた</tspan></text><g clip-path="url(#clip11)"><g clip-path="url(#clip12)"><g clip-path="url(#clip13)"><path d="M0.587889 9.56367C2.48336 2.70984 9.57605-1.3097 16.4299 0.585767 20.7925 1.79229 24.2013 5.201 25.4078 9.56367L22.9522 9.56367C21.0554 4.06362 15.059 1.14264 9.55897 3.03948 6.49686 4.09553 4.09083 6.50156 3.03478 9.56367ZM22.906 16.588C20.9243 22.0597 14.882 24.8889 9.4103 22.9072 6.47075 21.8425 4.15575 19.5275 3.09111 16.588L0.631222 16.588C2.61119 23.4179 9.75299 27.3495 16.5829 25.3696 20.8216 24.1408 24.1357 20.8267 25.3644 16.588Z" fill="url(#fill14)" transform="matrix(1.03846 0 0 1 449 560)"/><path d="M13.9244 18.9814 10.8333 12.0322 9.53333 14.2783 1.57878 14.2783C0.931807 14.2783 0.407333 13.7539 0.407333 13.1069 0.407333 12.4599 0.931807 11.9354 1.57878 11.9354L8.18422 11.9354 11.1092 6.87989 14.4777 14.4574 16.4667 11.9109 24.4256 11.9282C25.0725 11.9282 25.597 12.4527 25.597 13.0997 25.597 13.7466 25.0725 14.2711 24.4256 14.2711L24.4256 14.2711 17.6136 14.2552Z" fill="#50E6FF" transform="matrix(1.03846 0 0 1 449 560)"/></g></g></g></g></svg>