<svg width="608" height="688" xmlns="http://www.w3.org/2000/svg" xmlns:xlink="http://www.w3.org/1999/xlink" overflow="hidden"><defs><clipPath id="clip0"><rect x="56" y="67" width="608" height="688"/></clipPath><clipPath id="clip1"><rect x="103" y="114" width="374" height="343"/></clipPath><clipPath id="clip2"><rect x="103" y="114" width="374" height="343"/></clipPath><clipPath id="clip3"><rect x="92" y="94" width="391" height="378"/></clipPath><clipPath id="clip4"><rect x="92" y="94" width="391" height="378"/></clipPath><clipPath id="clip5"><rect x="145" y="531" width="284" height="118"/></clipPath><clipPath id="clip6"><rect x="145" y="531" width="284" height="118"/></clipPath><clipPath id="clip7"><rect x="145" y="531" width="284" height="118"/></clipPath><clipPath id="clip8"><rect x="145" y="531" width="284" height="118"/></clipPath></defs><g clip-path="url(#clip0)" transform="translate(-56 -67)"><rect x="92.5001" y="496.5" width="390" height="168" stroke="#2F528F" stroke-width="1.33333" stroke-miterlimit="8" fill="#F2F2F2"/><text font-family="Yu Gothic,Yu Gothic_MSFontService,sans-serif" font-weight="400" font-size="16" transform="translate(101.946 515)">ドメイン：商品販売</text><rect x="92.5001" y="95.5001" width="390" height="377" stroke="#2F528F" stroke-width="1.33333" stroke-miterlimit="8" fill="#F2F2F2"/><text font-family="Yu Gothic,Yu Gothic_MSFontService,sans-serif" font-weight="400" font-size="16" transform="translate(101.946 115)">ドメイン：装置管理</text><rect x="58.5001" y="68.5001" width="604" height="686" stroke="#D9D9D9" stroke-width="1.33333" stroke-miterlimit="8" fill="none"/><g clip-path="url(#clip1)"><g clip-path="url(#clip2)"><g clip-path="url(#clip3)"><g clip-path="url(#clip4)"><path d="M37.4955 60.5697 424.628 60.5697 424.628 436.165 37.4955 436.165Z" stroke="#D9D9D9" stroke-width="0.854596" stroke-miterlimit="8" fill="none" transform="matrix(1.00138 0 0 1 56.0723 35.2954)"/><path d="M81.0799 93.258 161.839 93.258 161.839 149.02 81.0799 149.02Z" stroke="#000000" stroke-width="0.854596" stroke-miterlimit="8" fill="#FFFFFF" transform="matrix(1.00138 0 0 1 56.0723 35.2954)"/><text font-family="Yu Gothic,Yu Gothic_MSFontService,sans-serif" font-weight="400" font-size="13" transform="matrix(0.641832 0 0 0.640948 168.753 139)">工場<tspan font-family="Consolas,Consolas_MSFontService,sans-serif" font-size="12" x="-40.2467" y="15.6019">*</tspan><tspan font-size="12" x="-33.58" y="15.6019">工場</tspan><tspan font-family="Consolas,Consolas_MSFontService,sans-serif" font-size="12" x="-9.58002" y="15.6019">ID</tspan><tspan font-size="12" x="-28.2467" y="29.6436">工場名</tspan><tspan font-size="12" x="-28.2467" y="43.6853">所在地</tspan><tspan font-size="12" x="-28.2467" y="57.727">消費電力</tspan><tspan font-family="Consolas,Consolas_MSFontService,sans-serif" font-size="12" x="19.7533" y="57.727">(</tspan><tspan font-family="Consolas,Consolas_MSFontService,sans-serif" font-size="12" x="26.7533" y="57.727">M</tspan><tspan font-family="Consolas,Consolas_MSFontService,sans-serif" font-size="12" x="33.7533" y="57.727">)</tspan></text><path d="M81.0799 180.427 161.839 180.427 161.839 236.189 81.0799 236.189Z" stroke="#000000" stroke-width="0.854596" stroke-miterlimit="8" fill="#FFFFFF" transform="matrix(1.00138 0 0 1 56.0723 35.2954)"/><text font-family="Yu Gothic,Yu Gothic_MSFontService,sans-serif" font-weight="400" font-size="13" transform="matrix(0.641832 0 0 0.640948 155.916 226)">生産<tspan font-size="13" x="26" y="0">ライン</tspan><tspan font-family="Consolas,Consolas_MSFontService,sans-serif" font-size="12" x="-20.2467" y="15.6019">*</tspan><tspan font-size="12" x="-13.58" y="15.6019">生産</tspan><tspan font-size="12" x="10.42" y="15.6019">ライン</tspan><tspan font-family="Consolas,Consolas_MSFontService,sans-serif" font-size="12" x="46.42" y="15.6019">ID</tspan><tspan font-size="12" x="-8.24666" y="29.6436">消費電力</tspan><tspan font-family="Consolas,Consolas_MSFontService,sans-serif" font-size="12" x="39.7533" y="29.6436">(</tspan><tspan font-family="Consolas,Consolas_MSFontService,sans-serif" font-size="12" x="46.7533" y="29.6436">M</tspan><tspan font-family="Consolas,Consolas_MSFontService,sans-serif" font-size="12" x="53.7533" y="29.6436">)</tspan><tspan font-size="12" x="-8.24666" y="43.6853">稼働状態</tspan></text><path d="M121.46 149.02 121.46 180.348" stroke="#000000" stroke-width="0.427299" stroke-miterlimit="8" fill="none" fill-rule="evenodd" transform="matrix(1.00138 0 0 1 56.0723 35.2954)"/><text font-family="Calibri,Calibri_MSFontService,sans-serif" font-weight="400" font-size="11" transform="matrix(0.641832 0 0 0.640948 172.798 201)">R<tspan font-size="11" x="6.00001" y="0">_</tspan><tspan font-size="11" x="11" y="0">FL</tspan><tspan font-size="11" x="21" y="0">1</tspan><tspan font-size="11" x="-0.8148" y="-14.0417">1</tspan><tspan font-size="11" x="236.29" y="354.163">*</tspan></text><path d="M304.13 274.646 384.889 274.646 384.889 330.409 304.13 330.409Z" stroke="#000000" stroke-width="0.854596" stroke-miterlimit="8" fill="#FFFFFF" transform="matrix(1.00138 0 0 1 56.0723 35.2954)"/><text font-family="Yu Gothic,Yu Gothic_MSFontService,sans-serif" font-weight="400" font-size="13" transform="matrix(0.641832 0 0 0.640948 392.206 321)">製品<tspan font-family="Consolas,Consolas_MSFontService,sans-serif" font-size="12" x="-40.2467" y="14.0417">*</tspan><tspan font-size="12" x="-33.58" y="14.0417">製品</tspan><tspan font-family="Consolas,Consolas_MSFontService,sans-serif" font-size="12" x="-9.57999" y="14.0417">ID</tspan></text><path d="M81.0799 267.596 161.839 267.596 161.839 337.459 81.0799 337.459Z" stroke="#000000" stroke-width="0.854596" stroke-miterlimit="8" fill="#FFFFFF" transform="matrix(1.00138 0 0 1 56.0723 35.2954)"/><text font-family="Yu Gothic,Yu Gothic_MSFontService,sans-serif" font-weight="400" font-size="13" transform="matrix(0.641832 0 0 0.640948 168.752 313)">装置<tspan font-family="Consolas,Consolas_MSFontService,sans-serif" font-size="12" x="-40.2467" y="15.6019">*</tspan><tspan font-size="12" x="-33.58" y="15.6019">装置</tspan><tspan font-family="Consolas,Consolas_MSFontService,sans-serif" font-size="12" x="-9.58002" y="15.6019">ID</tspan><tspan font-size="12" x="-28.2467" y="29.6436">消費電力</tspan><tspan font-family="Consolas,Consolas_MSFontService,sans-serif" font-size="12" x="19.7533" y="29.6436">(</tspan><tspan font-family="Consolas,Consolas_MSFontService,sans-serif" font-size="12" x="26.7533" y="29.6436">M</tspan><tspan font-family="Consolas,Consolas_MSFontService,sans-serif" font-size="12" x="33.7533" y="29.6436">)</tspan><tspan font-size="12" x="-28.2467" y="45.2455">稼働状態</tspan><tspan font-size="12" x="-28.2467" y="59.2872">温度</tspan><tspan font-size="12" x="-28.2467" y="73.3289">危険上限温度</tspan></text><path d="M0 0 6.72912e-05 31.3274" stroke="#000000" stroke-width="0.427299" stroke-miterlimit="8" fill="none" fill-rule="evenodd" transform="matrix(-1.00138 0 0 1 177.699 271.485)"/><path d="M0 0 22.3158 0 22.3158 94.3841 0.854595 94.3841" stroke="#000000" stroke-width="0.427299" stroke-miterlimit="8" fill="none" fill-rule="evenodd" transform="matrix(-1.00138 1.22465e-16 1.22634e-16 1 138.12 243.283)"/><path d="M141.726 336.818 141.726 360.001 102.872 360.001 102.872 337.673" stroke="#000000" stroke-width="0.427299" stroke-miterlimit="8" fill="none" fill-rule="evenodd" transform="matrix(1.00138 0 0 1 56.0723 35.2954)"/><path d="M0 0 142.1 6.72912e-05" stroke="#000000" stroke-width="0.427299" stroke-miterlimit="8" fill="none" fill-rule="evenodd" transform="matrix(-1.00138 0 0 1 360.431 338.143)"/><path d="M0 0 66.1305 0 66.1305 182.623" stroke="#000000" stroke-width="0.427299" stroke-miterlimit="8" fill="none" fill-rule="evenodd" transform="matrix(-1.8395e-16 -1 -1.00138 1.83697e-16 401.009 310.055)"/><text font-family="Calibri,Calibri_MSFontService,sans-serif" font-weight="400" font-size="11" transform="matrix(0.641832 0 0 0.640948 172.275 278)">1<tspan font-size="11" x="76.0836" y="-57.727">1</tspan><tspan font-size="11" x="-79.9445" y="-42.1251">0</tspan>..<tspan font-size="11" x="-67.9445" y="-42.1251">1</tspan><tspan font-size="11" x="-69.3974" y="87.3706">1</tspan><tspan font-size="11" x="-10.7708" y="-102.972">1</tspan><tspan font-size="11" x="-4.77081" y="-102.972">..*</tspan><tspan font-size="11" x="-9.55895" y="34.3241">1</tspan><tspan font-size="11" x="-3.55894" y="34.3241">..*</tspan><tspan font-size="11" x="345.494" y="43.6853">*</tspan><tspan font-size="11" x="76.1132" y="107.653">0</tspan><tspan font-size="11" x="82.1132" y="107.653">..</tspan><tspan font-size="11" x="88.1132" y="107.653">1</tspan><tspan font-size="11" x="273.139" y="85.8104">0</tspan><tspan font-size="11" x="279.139" y="85.8104">..</tspan>1<tspan font-size="11" x="-16.3168" y="160.699">0</tspan><tspan font-size="11" x="-10.3168" y="160.699">..</tspan><tspan font-size="11" x="-4.3168" y="160.699">1</tspan><tspan font-size="11" x="19.7595" y="157.579">0</tspan><tspan font-size="11" x="25.7595" y="157.579">..</tspan><tspan font-size="11" x="31.7595" y="157.579">1</tspan><tspan font-family="Yu Gothic,Yu Gothic_MSFontService,sans-serif" font-size="11" x="-69.3974" y="163.82">前</tspan><tspan font-family="Yu Gothic,Yu Gothic_MSFontService,sans-serif" font-size="11" x="-58.3974" y="163.82">の</tspan><tspan font-family="Yu Gothic,Yu Gothic_MSFontService,sans-serif" font-size="11" x="-47.3974" y="163.82">工程</tspan><tspan font-family="Yu Gothic,Yu Gothic_MSFontService,sans-serif" font-size="11" x="43.1512" y="163.82">後</tspan><tspan font-family="Yu Gothic,Yu Gothic_MSFontService,sans-serif" font-size="11" x="54.1512" y="163.82">の</tspan><tspan font-family="Yu Gothic,Yu Gothic_MSFontService,sans-serif" font-size="11" x="65.1512" y="163.82">工程</tspan><tspan font-family="Yu Gothic,Yu Gothic_MSFontService,sans-serif" font-size="11" x="246.94" y="107.653">仕掛</tspan><tspan font-family="Yu Gothic,Yu Gothic_MSFontService,sans-serif" font-size="11" x="268.94" y="107.653">り</tspan><tspan font-family="Yu Gothic,Yu Gothic_MSFontService,sans-serif" font-size="11" x="279.94" y="107.653">品</tspan><tspan font-family="Yu Gothic,Yu Gothic_MSFontService,sans-serif" font-size="11" x="76.7743" y="85.8104">加工中</tspan><tspan font-family="Yu Gothic,Yu Gothic_MSFontService,sans-serif" font-size="11" x="361.61" y="40.5649">生産製品</tspan><tspan font-family="Yu Gothic,Yu Gothic_MSFontService,sans-serif" font-size="11" x="14.1912" y="-132.616">設置場所</tspan><tspan font-family="Yu Gothic,Yu Gothic_MSFontService,sans-serif" font-size="11" x="10.917" y="4.68057">設置場所</tspan><tspan font-family="Yu Gothic,Yu Gothic_MSFontService,sans-serif" font-size="11" x="-100.633" y="109.213">開始装置</tspan><tspan font-size="11" x="-0.817011" y="21.8426">R</tspan><tspan font-size="11" x="5.183" y="21.8426">_</tspan><tspan font-size="11" x="10.183" y="21.8426">LE</tspan><tspan font-size="11" x="20.183" y="21.8426">1</tspan><tspan font-size="11" x="-83.6964" y="20.2825">R</tspan>_LE<tspan font-size="11" x="-62.6964" y="20.2825">2</tspan><tspan font-size="11" x="-4.62415" y="193.463">R</tspan><tspan font-size="11" x="1.37584" y="193.463">_</tspan><tspan font-size="11" x="6.37585" y="193.463">EO</tspan><tspan font-size="11" x="18.3759" y="193.463">1</tspan><tspan font-size="11" x="116.175" y="106.093">R</tspan><tspan font-size="11" x="122.175" y="106.093">_</tspan><tspan font-size="11" x="127.175" y="106.093">EP</tspan>1<tspan font-size="11" x="216.602" y="-59.2872">R</tspan><tspan font-size="11" x="222.602" y="-59.2872">_</tspan><tspan font-size="11" x="227.602" y="-59.2872">LP</tspan>1</text><path d="M200.296 234.267 281.056 234.267 281.056 268.878 200.296 268.878Z" stroke="#000000" stroke-width="0.854596" stroke-miterlimit="8" fill="#FFFFFF" transform="matrix(1.00138 0 0 1 56.0723 35.2954)"/><text font-family="Yu Gothic,Yu Gothic_MSFontService,sans-serif" font-weight="400" font-size="13" transform="matrix(0.641832 0 0 0.640948 271.067 280)">オーダー<tspan font-size="13" x="51" y="0">仕様</tspan><tspan font-size="12" x="-13.58" y="15.6019">製造</tspan><tspan font-size="12" x="10.42" y="15.6019">ステップ</tspan><tspan font-size="12" x="-13.58" y="29.6436">装置</tspan><tspan font-size="12" x="10.42" y="29.6436">コマンド</tspan></text><path d="M161.839 225.934 240.695 225.934 240.695 234.644" stroke="#000000" stroke-width="0.427299" stroke-miterlimit="8" fill="none" fill-rule="evenodd" transform="matrix(1.00138 0 0 1 56.0723 35.2954)"/><path d="M0 0 78.9808 0 78.9808 8.13434" stroke="#000000" stroke-width="0.427299" stroke-miterlimit="8" fill="none" fill-rule="evenodd" transform="matrix(1.00138 0 0 -1 218.135 312.307)"/><text font-family="Calibri,Calibri_MSFontService,sans-serif" font-weight="400" font-size="11" transform="matrix(0.641832 0 0 0.640948 221.406 258)">1<tspan font-size="11" x="124.404" y="15.6019">1</tspan>..*<tspan font-size="11" x="130.035" y="84.2502">1</tspan><tspan font-size="11" x="0.673797" y="81.1298">1</tspan><tspan font-family="Yu Gothic,Yu Gothic_MSFontService,sans-serif" font-size="11" x="124.228" y="1.56019">製造指示仕様</tspan><tspan font-family="Yu Gothic,Yu Gothic_MSFontService,sans-serif" font-size="11" x="118.549" y="96.7317">製造指示仕様</tspan><tspan font-size="11" x="43.3781" y="1.56019">R</tspan><tspan font-size="11" x="49.3781" y="1.56019">_</tspan><tspan font-size="11" x="54.3781" y="1.56019">LOS</tspan><tspan font-size="11" x="71.3781" y="1.56019">1</tspan><tspan font-size="11" x="42.2527" y="92.0511">R</tspan><tspan font-size="11" x="48.2527" y="92.0511">_</tspan><tspan font-size="11" x="53.2527" y="92.0511">POS</tspan><tspan font-size="11" x="71.2527" y="92.0511">1</tspan></text><path d="M183.632 355.406 264.391 355.406 264.391 411.168 183.632 411.168Z" stroke="#000000" stroke-width="0.854596" stroke-miterlimit="8" fill="#FFFFFF" transform="matrix(1.00138 0 0 1 56.0723 35.2954)"/><text font-family="Yu Gothic,Yu Gothic_MSFontService,sans-serif" font-weight="400" font-size="13" transform="matrix(0.641832 0 0 0.640948 254.194 401)">インシデント<tspan font-family="Consolas,Consolas_MSFontService,sans-serif" font-size="12" x="-13.58" y="14.0417">*</tspan><tspan font-size="12" x="-6.91333" y="14.0417">インシデント</tspan><tspan font-family="Consolas,Consolas_MSFontService,sans-serif" font-size="12" x="65.0867" y="14.0417">ID</tspan><tspan font-size="12" x="-1.57998" y="28.0834">発生日</tspan><tspan font-size="12" x="-1.57998" y="43.6853">状態</tspan></text><path d="M0 0 28.0159 0 28.0159 62.2788" stroke="#000000" stroke-width="0.427299" stroke-miterlimit="8" fill="none" fill-rule="evenodd" transform="matrix(-1.8395e-16 -1 -1.00138 1.83697e-16 280.5 390.515)"/><path d="M334.254 355.406 415.014 355.406 415.014 411.168 334.254 411.168Z" stroke="#000000" stroke-width="0.854596" stroke-miterlimit="8" fill="#FFFFFF" transform="matrix(1.00138 0 0 1 56.0723 35.2954)"/><text font-family="Yu Gothic,Yu Gothic_MSFontService,sans-serif" font-weight="400" font-size="13" transform="matrix(0.641832 0 0 0.640948 417.966 401)">担当者<tspan font-family="Consolas,Consolas_MSFontService,sans-serif" font-size="12" x="-33.58" y="14.0417">*</tspan><tspan font-size="12" x="-26.9133" y="14.0417">担当者</tspan><tspan font-family="Consolas,Consolas_MSFontService,sans-serif" font-size="12" x="9.08669" y="14.0417">ID</tspan><tspan font-size="12" x="-21.58" y="28.0834">名前</tspan><tspan font-size="12" x="-21.58" y="43.6853">状態</tspan></text><path d="M0 0 69.682 6.72912e-05" stroke="#000000" stroke-width="0.427299" stroke-miterlimit="8" fill="none" fill-rule="evenodd" transform="matrix(-1.00138 0 0 1 390.606 418.262)"/><text font-family="Calibri,Calibri_MSFontService,sans-serif" font-weight="400" font-size="11" transform="matrix(0.641832 0 0 0.640948 373.6 413)">0<tspan font-size="11" x="5.99999" y="0">..</tspan><tspan font-size="11" x="12" y="0">1</tspan><tspan font-size="11" x="-132.615" y="-45.2455">0</tspan><tspan font-size="11" x="-126.615" y="-45.2455">..</tspan><tspan font-size="11" x="-120.615" y="-45.2455">1</tspan><tspan font-size="11" x="-238.249" y="-70.2085">1</tspan><tspan font-size="11" x="-144.892" y="-85.8104">R</tspan><tspan font-size="11" x="-138.892" y="-85.8104">_</tspan><tspan font-size="11" x="-133.726" y="-85.8104">EI</tspan><tspan font-size="11" x="-125.726" y="-85.8104">1</tspan><tspan font-size="11" x="-43.3813" y="0">R</tspan><tspan font-size="11" x="-37.548" y="0">_</tspan><tspan font-size="11" x="-32.548" y="0">IR</tspan><tspan font-size="11" x="-23.548" y="0">1</tspan><tspan font-family="Yu Gothic,Yu Gothic_MSFontService,sans-serif" font-size="16" x="-426.567" y="-475.858">ドメイン</tspan><tspan font-family="Yu Gothic,Yu Gothic_MSFontService,sans-serif" font-size="16" x="-363.567" y="-475.858">：</tspan><tspan font-family="Yu Gothic,Yu Gothic_MSFontService,sans-serif" font-size="16" x="-347.567" y="-475.858">装置管理</tspan></text></g></g></g></g><g clip-path="url(#clip5)"><g clip-path="url(#clip6)"><g clip-path="url(#clip7)"><g clip-path="url(#clip8)"><path d="M88.7901 104.176 169.567 104.176 169.567 159.95 88.7901 159.95Z" stroke="#000000" stroke-width="0.854776" stroke-miterlimit="8" fill="#FFFFFF" transform="matrix(1 0 0 1.00581 57.1716 427.831)"/><text font-family="Yu Gothic,Yu Gothic_MSFontService,sans-serif" font-weight="400" font-size="13" transform="matrix(0.641084 0 0 0.644809 177.551 543)">顧客<tspan font-family="Consolas,Consolas_MSFontService,sans-serif" font-size="13" x="-40.2467" y="15.5085">*</tspan><tspan font-size="13" x="-32.9133" y="15.5085">顧客</tspan><tspan font-family="Consolas,Consolas_MSFontService,sans-serif" font-size="13" x="-6.24665" y="15.5085">ID</tspan><tspan font-size="13" x="-26.9133" y="31.0169">顧客名</tspan><tspan font-size="13" x="-26.9133" y="48.0763">住所</tspan></text><path d="M290.09 104.176 371.508 104.176 371.508 159.95 290.09 159.95Z" stroke="#000000" stroke-width="0.854776" stroke-miterlimit="8" fill="#FFFFFF" transform="matrix(1 0 0 1.00581 57.1716 427.831)"/><text font-family="Yu Gothic,Yu Gothic_MSFontService,sans-serif" font-weight="400" font-size="13" transform="matrix(0.641084 0 0 0.644809 379.005 543)">商品<tspan font-family="Consolas,Consolas_MSFontService,sans-serif" font-size="13" x="-40.2467" y="15.5085">*</tspan><tspan font-size="13" x="-32.9133" y="15.5085">商品</tspan><tspan font-size="13" x="-6.91331" y="15.5085">コード</tspan><tspan font-size="13" x="-26.9133" y="31.0169">商品名</tspan><tspan font-size="13" x="-26.9133" y="48.0763">在庫</tspan><tspan font-size="13" x="-26.9133" y="63.5847">単価</tspan></text><path d="M169.567 131.743 289.958 131.743" stroke="#000000" stroke-width="0.427389" stroke-miterlimit="8" fill="none" fill-rule="evenodd" transform="matrix(1 0 0 1.00581 57.1716 427.831)"/><path d="M0 0 3.92276 30.785" stroke="#000000" stroke-width="1.28217" stroke-miterlimit="8" stroke-dasharray="1.28217 1.28217" fill="none" fill-rule="evenodd" transform="matrix(1 0 0 -1.00581 282.833 592.27)"/><text font-family="Yu Gothic,Yu Gothic_MSFontService,sans-serif" font-weight="400" font-size="11" transform="matrix(0.641084 0 0 0.644809 233.957 555)">発注者<tspan font-family="Calibri,Calibri_MSFontService,sans-serif" font-size="11" x="-3.70017" y="20.161">*</tspan><tspan font-family="Calibri,Calibri_MSFontService,sans-serif" font-size="11" x="158.002" y="6.20339">*</tspan><tspan font-size="11" x="125.323" y="20.161">購入予約</tspan></text><path d="M185.594 163.797 266.37 163.797 266.37 219.571 185.594 219.571Z" stroke="#000000" stroke-width="0.854776" stroke-miterlimit="8" fill="#FFFFFF" transform="matrix(1 0 0 1.00581 57.1716 427.831)"/><text font-family="Yu Gothic,Yu Gothic_MSFontService,sans-serif" font-weight="400" font-size="13" transform="matrix(0.641084 0 0 0.644809 274.343 603)">注文<tspan font-family="Consolas,Consolas_MSFontService,sans-serif" font-size="13" x="-40.2467" y="17.0593">*</tspan><tspan font-size="13" x="-32.9133" y="17.0593">注文</tspan><tspan font-family="Consolas,Consolas_MSFontService,sans-serif" font-size="13" x="-6.24667" y="17.0593">ID</tspan><tspan font-size="13" x="-26.9133" y="32.5678">個数</tspan><tspan font-size="13" x="-26.9133" y="48.0763">金額</tspan></text></g></g></g></g><path d="M345 308C345 300.82 350.82 295 358 295L439 295C446.18 295 452 300.82 452 308L452 360C452 367.18 446.18 373 439 373L358 373C350.82 373 345 367.18 345 360Z" stroke="#FF0000" stroke-width="2" stroke-miterlimit="8" fill="none" fill-rule="evenodd"/><path d="M335 533C335 525.82 340.82 520 348 520L429 520C436.18 520 442 525.82 442 533L442 585C442 592.18 436.18 598 429 598L348 598C340.82 598 335 592.18 335 585Z" stroke="#FF0000" stroke-width="2" stroke-miterlimit="8" fill="none" fill-rule="evenodd"/><path d="M0 0-97.0001 0-97.0001 224.548 10 224.548" stroke="#FF0000" stroke-width="2" stroke-miterlimit="8" fill="none" fill-rule="evenodd" transform="matrix(-1 0 0 1 452 334)"/><rect x="460" y="457" width="197" height="42" fill="#FFFFFF" fill-opacity="0.701961"/><text font-family="Yu Gothic,Yu Gothic_MSFontService,sans-serif" font-weight="400" font-size="13" transform="translate(469.962 473)">クラスの各インスタンスは<tspan font-family="Calibri,Calibri_MSFontService,sans-serif" font-size="13" x="0" y="16">1</tspan><tspan font-size="13" x="6.83331" y="16">：</tspan><tspan font-family="Calibri,Calibri_MSFontService,sans-serif" font-size="13" x="20.1667" y="16">1</tspan><tspan font-size="13" x="27" y="16">で対応付けられる？</tspan><tspan font-size="13" x="-368.016" y="231">※</tspan><tspan font-size="13" x="-350.016" y="231">文末に“？”をつけているのは、それぞれ、全く異なる問題領域を主題とした</tspan><tspan font-size="13" x="-350.016" y="247">概念情報モデルであるので、数える単位が異なっているかもしれないから</tspan><tspan font-size="13" x="-368.016" y="263">※</tspan><tspan font-size="13" x="-350.016" y="263">実際</tspan>の開発ではきちんとした精査が必要</text></g></svg>