<svg width="608" height="739" xmlns="http://www.w3.org/2000/svg" xmlns:xlink="http://www.w3.org/1999/xlink" overflow="hidden"><defs><clipPath id="clip0"><rect x="56" y="67" width="608" height="739"/></clipPath><clipPath id="clip1"><rect x="103" y="114" width="374" height="343"/></clipPath><clipPath id="clip2"><rect x="103" y="114" width="374" height="343"/></clipPath><clipPath id="clip3"><rect x="92" y="94" width="391" height="378"/></clipPath><clipPath id="clip4"><rect x="92" y="94" width="391" height="378"/></clipPath><clipPath id="clip5"><rect x="109" y="521" width="351" height="245"/></clipPath><clipPath id="clip6"><rect x="109" y="521" width="351" height="245"/></clipPath><clipPath id="clip7"><rect x="88" y="499" width="389" height="301"/></clipPath><clipPath id="clip8"><rect x="88" y="499" width="389" height="301"/></clipPath></defs><g clip-path="url(#clip0)" transform="translate(-56 -67)"><rect x="92.5001" y="496.5" width="390" height="285" stroke="#2F528F" stroke-width="1.33333" stroke-miterlimit="8" fill="#F2F2F2"/><text font-family="Yu Gothic,Yu Gothic_MSFontService,sans-serif" font-weight="400" font-size="16" transform="translate(101.946 515)">ドメイン：人事</text><rect x="92.5001" y="95.5001" width="390" height="377" stroke="#2F528F" stroke-width="1.33333" stroke-miterlimit="8" fill="#F2F2F2"/><text font-family="Yu Gothic,Yu Gothic_MSFontService,sans-serif" font-weight="400" font-size="16" transform="translate(101.946 115)">ドメイン：装置管理</text><rect x="58.5001" y="68.5001" width="604" height="737" stroke="#D9D9D9" stroke-width="1.33333" stroke-miterlimit="8" fill="none"/><g clip-path="url(#clip1)"><g clip-path="url(#clip2)"><g clip-path="url(#clip3)"><g clip-path="url(#clip4)"><path d="M37.4955 60.5697 424.628 60.5697 424.628 436.165 37.4955 436.165Z" stroke="#D9D9D9" stroke-width="0.854596" stroke-miterlimit="8" fill="none" transform="matrix(1.00138 0 0 1 56.0723 35.2954)"/><path d="M81.0799 93.258 161.839 93.258 161.839 149.02 81.0799 149.02Z" stroke="#000000" stroke-width="0.854596" stroke-miterlimit="8" fill="#FFFFFF" transform="matrix(1.00138 0 0 1 56.0723 35.2954)"/><text font-family="Yu Gothic,Yu Gothic_MSFontService,sans-serif" font-weight="400" font-size="13" transform="matrix(0.641832 0 0 0.640948 168.753 139)">工場<tspan font-family="Consolas,Consolas_MSFontService,sans-serif" font-size="12" x="-40.2467" y="15.6019">*</tspan><tspan font-size="12" x="-33.58" y="15.6019">工場</tspan><tspan font-family="Consolas,Consolas_MSFontService,sans-serif" font-size="12" x="-9.58002" y="15.6019">ID</tspan><tspan font-size="12" x="-28.2467" y="29.6436">工場名</tspan><tspan font-size="12" x="-28.2467" y="43.6853">所在地</tspan><tspan font-size="12" x="-28.2467" y="57.727">消費電力</tspan><tspan font-family="Consolas,Consolas_MSFontService,sans-serif" font-size="12" x="19.7533" y="57.727">(</tspan><tspan font-family="Consolas,Consolas_MSFontService,sans-serif" font-size="12" x="26.7533" y="57.727">M</tspan><tspan font-family="Consolas,Consolas_MSFontService,sans-serif" font-size="12" x="33.7533" y="57.727">)</tspan></text><path d="M81.0799 180.427 161.839 180.427 161.839 236.189 81.0799 236.189Z" stroke="#000000" stroke-width="0.854596" stroke-miterlimit="8" fill="#FFFFFF" transform="matrix(1.00138 0 0 1 56.0723 35.2954)"/><text font-family="Yu Gothic,Yu Gothic_MSFontService,sans-serif" font-weight="400" font-size="13" transform="matrix(0.641832 0 0 0.640948 155.916 226)">生産<tspan font-size="13" x="26" y="0">ライン</tspan><tspan font-family="Consolas,Consolas_MSFontService,sans-serif" font-size="12" x="-20.2467" y="15.6019">*</tspan><tspan font-size="12" x="-13.58" y="15.6019">生産</tspan><tspan font-size="12" x="10.42" y="15.6019">ライン</tspan><tspan font-family="Consolas,Consolas_MSFontService,sans-serif" font-size="12" x="46.42" y="15.6019">ID</tspan><tspan font-size="12" x="-8.24666" y="29.6436">消費電力</tspan><tspan font-family="Consolas,Consolas_MSFontService,sans-serif" font-size="12" x="39.7533" y="29.6436">(</tspan><tspan font-family="Consolas,Consolas_MSFontService,sans-serif" font-size="12" x="46.7533" y="29.6436">M</tspan><tspan font-family="Consolas,Consolas_MSFontService,sans-serif" font-size="12" x="53.7533" y="29.6436">)</tspan><tspan font-size="12" x="-8.24666" y="43.6853">稼働状態</tspan></text><path d="M121.46 149.02 121.46 180.348" stroke="#000000" stroke-width="0.427299" stroke-miterlimit="8" fill="none" fill-rule="evenodd" transform="matrix(1.00138 0 0 1 56.0723 35.2954)"/><text font-family="Calibri,Calibri_MSFontService,sans-serif" font-weight="400" font-size="11" transform="matrix(0.641832 0 0 0.640948 172.798 201)">R<tspan font-size="11" x="6.00001" y="0">_</tspan><tspan font-size="11" x="11" y="0">FL</tspan><tspan font-size="11" x="21" y="0">1</tspan><tspan font-size="11" x="-0.8148" y="-14.0417">1</tspan><tspan font-size="11" x="236.29" y="354.163">*</tspan></text><path d="M304.13 274.646 384.889 274.646 384.889 330.409 304.13 330.409Z" stroke="#000000" stroke-width="0.854596" stroke-miterlimit="8" fill="#FFFFFF" transform="matrix(1.00138 0 0 1 56.0723 35.2954)"/><text font-family="Yu Gothic,Yu Gothic_MSFontService,sans-serif" font-weight="400" font-size="13" transform="matrix(0.641832 0 0 0.640948 392.206 321)">製品<tspan font-family="Consolas,Consolas_MSFontService,sans-serif" font-size="12" x="-40.2467" y="14.0417">*</tspan><tspan font-size="12" x="-33.58" y="14.0417">製品</tspan><tspan font-family="Consolas,Consolas_MSFontService,sans-serif" font-size="12" x="-9.57999" y="14.0417">ID</tspan></text><path d="M81.0799 267.596 161.839 267.596 161.839 337.459 81.0799 337.459Z" stroke="#000000" stroke-width="0.854596" stroke-miterlimit="8" fill="#FFFFFF" transform="matrix(1.00138 0 0 1 56.0723 35.2954)"/><text font-family="Yu Gothic,Yu Gothic_MSFontService,sans-serif" font-weight="400" font-size="13" transform="matrix(0.641832 0 0 0.640948 168.752 313)">装置<tspan font-family="Consolas,Consolas_MSFontService,sans-serif" font-size="12" x="-40.2467" y="15.6019">*</tspan><tspan font-size="12" x="-33.58" y="15.6019">装置</tspan><tspan font-family="Consolas,Consolas_MSFontService,sans-serif" font-size="12" x="-9.58002" y="15.6019">ID</tspan><tspan font-size="12" x="-28.2467" y="29.6436">消費電力</tspan><tspan font-family="Consolas,Consolas_MSFontService,sans-serif" font-size="12" x="19.7533" y="29.6436">(</tspan><tspan font-family="Consolas,Consolas_MSFontService,sans-serif" font-size="12" x="26.7533" y="29.6436">M</tspan><tspan font-family="Consolas,Consolas_MSFontService,sans-serif" font-size="12" x="33.7533" y="29.6436">)</tspan><tspan font-size="12" x="-28.2467" y="45.2455">稼働状態</tspan><tspan font-size="12" x="-28.2467" y="59.2872">温度</tspan><tspan font-size="12" x="-28.2467" y="73.3289">危険上限温度</tspan></text><path d="M0 0 6.72912e-05 31.3274" stroke="#000000" stroke-width="0.427299" stroke-miterlimit="8" fill="none" fill-rule="evenodd" transform="matrix(-1.00138 0 0 1 177.699 271.485)"/><path d="M0 0 22.3158 0 22.3158 94.3841 0.854595 94.3841" stroke="#000000" stroke-width="0.427299" stroke-miterlimit="8" fill="none" fill-rule="evenodd" transform="matrix(-1.00138 1.22465e-16 1.22634e-16 1 138.12 243.283)"/><path d="M141.726 336.818 141.726 360.001 102.872 360.001 102.872 337.673" stroke="#000000" stroke-width="0.427299" stroke-miterlimit="8" fill="none" fill-rule="evenodd" transform="matrix(1.00138 0 0 1 56.0723 35.2954)"/><path d="M0 0 142.1 6.72912e-05" stroke="#000000" stroke-width="0.427299" stroke-miterlimit="8" fill="none" fill-rule="evenodd" transform="matrix(-1.00138 0 0 1 360.431 338.143)"/><path d="M0 0 66.1305 0 66.1305 182.623" stroke="#000000" stroke-width="0.427299" stroke-miterlimit="8" fill="none" fill-rule="evenodd" transform="matrix(-1.8395e-16 -1 -1.00138 1.83697e-16 401.009 310.055)"/><text font-family="Calibri,Calibri_MSFontService,sans-serif" font-weight="400" font-size="11" transform="matrix(0.641832 0 0 0.640948 172.275 278)">1<tspan font-size="11" x="76.0836" y="-57.727">1</tspan><tspan font-size="11" x="-79.9445" y="-42.1251">0</tspan>..<tspan font-size="11" x="-67.9445" y="-42.1251">1</tspan><tspan font-size="11" x="-69.3974" y="87.3706">1</tspan><tspan font-size="11" x="-10.7708" y="-102.972">1</tspan><tspan font-size="11" x="-4.77081" y="-102.972">..*</tspan><tspan font-size="11" x="-9.55895" y="34.3241">1</tspan><tspan font-size="11" x="-3.55894" y="34.3241">..*</tspan><tspan font-size="11" x="345.494" y="43.6853">*</tspan><tspan font-size="11" x="76.1132" y="107.653">0</tspan><tspan font-size="11" x="82.1132" y="107.653">..</tspan><tspan font-size="11" x="88.1132" y="107.653">1</tspan><tspan font-size="11" x="273.139" y="85.8104">0</tspan><tspan font-size="11" x="279.139" y="85.8104">..</tspan>1<tspan font-size="11" x="-16.3168" y="160.699">0</tspan><tspan font-size="11" x="-10.3168" y="160.699">..</tspan><tspan font-size="11" x="-4.3168" y="160.699">1</tspan><tspan font-size="11" x="19.7595" y="157.579">0</tspan><tspan font-size="11" x="25.7595" y="157.579">..</tspan><tspan font-size="11" x="31.7595" y="157.579">1</tspan><tspan font-family="Yu Gothic,Yu Gothic_MSFontService,sans-serif" font-size="11" x="-69.3974" y="163.82">前</tspan><tspan font-family="Yu Gothic,Yu Gothic_MSFontService,sans-serif" font-size="11" x="-58.3974" y="163.82">の</tspan><tspan font-family="Yu Gothic,Yu Gothic_MSFontService,sans-serif" font-size="11" x="-47.3974" y="163.82">工程</tspan><tspan font-family="Yu Gothic,Yu Gothic_MSFontService,sans-serif" font-size="11" x="43.1512" y="163.82">後</tspan><tspan font-family="Yu Gothic,Yu Gothic_MSFontService,sans-serif" font-size="11" x="54.1512" y="163.82">の</tspan><tspan font-family="Yu Gothic,Yu Gothic_MSFontService,sans-serif" font-size="11" x="65.1512" y="163.82">工程</tspan><tspan font-family="Yu Gothic,Yu Gothic_MSFontService,sans-serif" font-size="11" x="246.94" y="107.653">仕掛</tspan><tspan font-family="Yu Gothic,Yu Gothic_MSFontService,sans-serif" font-size="11" x="268.94" y="107.653">り</tspan><tspan font-family="Yu Gothic,Yu Gothic_MSFontService,sans-serif" font-size="11" x="279.94" y="107.653">品</tspan><tspan font-family="Yu Gothic,Yu Gothic_MSFontService,sans-serif" font-size="11" x="76.7743" y="85.8104">加工中</tspan><tspan font-family="Yu Gothic,Yu Gothic_MSFontService,sans-serif" font-size="11" x="361.61" y="40.5649">生産製品</tspan><tspan font-family="Yu Gothic,Yu Gothic_MSFontService,sans-serif" font-size="11" x="14.1912" y="-132.616">設置場所</tspan><tspan font-family="Yu Gothic,Yu Gothic_MSFontService,sans-serif" font-size="11" x="10.917" y="4.68057">設置場所</tspan><tspan font-family="Yu Gothic,Yu Gothic_MSFontService,sans-serif" font-size="11" x="-100.633" y="109.213">開始装置</tspan><tspan font-size="11" x="-0.817011" y="21.8426">R</tspan><tspan font-size="11" x="5.183" y="21.8426">_</tspan><tspan font-size="11" x="10.183" y="21.8426">LE</tspan><tspan font-size="11" x="20.183" y="21.8426">1</tspan><tspan font-size="11" x="-83.6964" y="20.2825">R</tspan>_LE<tspan font-size="11" x="-62.6964" y="20.2825">2</tspan><tspan font-size="11" x="-4.62415" y="193.463">R</tspan><tspan font-size="11" x="1.37584" y="193.463">_</tspan><tspan font-size="11" x="6.37585" y="193.463">EO</tspan><tspan font-size="11" x="18.3759" y="193.463">1</tspan><tspan font-size="11" x="116.175" y="106.093">R</tspan><tspan font-size="11" x="122.175" y="106.093">_</tspan><tspan font-size="11" x="127.175" y="106.093">EP</tspan>1<tspan font-size="11" x="216.602" y="-59.2872">R</tspan><tspan font-size="11" x="222.602" y="-59.2872">_</tspan><tspan font-size="11" x="227.602" y="-59.2872">LP</tspan>1</text><path d="M200.296 234.267 281.056 234.267 281.056 268.878 200.296 268.878Z" stroke="#000000" stroke-width="0.854596" stroke-miterlimit="8" fill="#FFFFFF" transform="matrix(1.00138 0 0 1 56.0723 35.2954)"/><text font-family="Yu Gothic,Yu Gothic_MSFontService,sans-serif" font-weight="400" font-size="13" transform="matrix(0.641832 0 0 0.640948 271.067 280)">オーダー<tspan font-size="13" x="51" y="0">仕様</tspan><tspan font-size="12" x="-13.58" y="15.6019">製造</tspan><tspan font-size="12" x="10.42" y="15.6019">ステップ</tspan><tspan font-size="12" x="-13.58" y="29.6436">装置</tspan><tspan font-size="12" x="10.42" y="29.6436">コマンド</tspan></text><path d="M161.839 225.934 240.695 225.934 240.695 234.644" stroke="#000000" stroke-width="0.427299" stroke-miterlimit="8" fill="none" fill-rule="evenodd" transform="matrix(1.00138 0 0 1 56.0723 35.2954)"/><path d="M0 0 78.9808 0 78.9808 8.13434" stroke="#000000" stroke-width="0.427299" stroke-miterlimit="8" fill="none" fill-rule="evenodd" transform="matrix(1.00138 0 0 -1 218.135 312.307)"/><text font-family="Calibri,Calibri_MSFontService,sans-serif" font-weight="400" font-size="11" transform="matrix(0.641832 0 0 0.640948 221.406 258)">1<tspan font-size="11" x="124.404" y="15.6019">1</tspan>..*<tspan font-size="11" x="130.035" y="84.2502">1</tspan><tspan font-size="11" x="0.673797" y="81.1298">1</tspan><tspan font-family="Yu Gothic,Yu Gothic_MSFontService,sans-serif" font-size="11" x="124.228" y="1.56019">製造指示仕様</tspan><tspan font-family="Yu Gothic,Yu Gothic_MSFontService,sans-serif" font-size="11" x="118.549" y="96.7317">製造指示仕様</tspan><tspan font-size="11" x="43.3781" y="1.56019">R</tspan><tspan font-size="11" x="49.3781" y="1.56019">_</tspan><tspan font-size="11" x="54.3781" y="1.56019">LOS</tspan><tspan font-size="11" x="71.3781" y="1.56019">1</tspan><tspan font-size="11" x="42.2527" y="92.0511">R</tspan><tspan font-size="11" x="48.2527" y="92.0511">_</tspan><tspan font-size="11" x="53.2527" y="92.0511">POS</tspan><tspan font-size="11" x="71.2527" y="92.0511">1</tspan></text><path d="M183.632 355.406 264.391 355.406 264.391 411.168 183.632 411.168Z" stroke="#000000" stroke-width="0.854596" stroke-miterlimit="8" fill="#FFFFFF" transform="matrix(1.00138 0 0 1 56.0723 35.2954)"/><text font-family="Yu Gothic,Yu Gothic_MSFontService,sans-serif" font-weight="400" font-size="13" transform="matrix(0.641832 0 0 0.640948 254.194 401)">インシデント<tspan font-family="Consolas,Consolas_MSFontService,sans-serif" font-size="12" x="-13.58" y="14.0417">*</tspan><tspan font-size="12" x="-6.91333" y="14.0417">インシデント</tspan><tspan font-family="Consolas,Consolas_MSFontService,sans-serif" font-size="12" x="65.0867" y="14.0417">ID</tspan><tspan font-size="12" x="-1.57998" y="28.0834">発生日</tspan><tspan font-size="12" x="-1.57998" y="43.6853">状態</tspan></text><path d="M0 0 28.0159 0 28.0159 62.2788" stroke="#000000" stroke-width="0.427299" stroke-miterlimit="8" fill="none" fill-rule="evenodd" transform="matrix(-1.8395e-16 -1 -1.00138 1.83697e-16 280.5 390.515)"/><path d="M334.254 355.406 415.014 355.406 415.014 411.168 334.254 411.168Z" stroke="#000000" stroke-width="0.854596" stroke-miterlimit="8" fill="#FFFFFF" transform="matrix(1.00138 0 0 1 56.0723 35.2954)"/><text font-family="Yu Gothic,Yu Gothic_MSFontService,sans-serif" font-weight="400" font-size="13" transform="matrix(0.641832 0 0 0.640948 417.966 401)">担当者<tspan font-family="Consolas,Consolas_MSFontService,sans-serif" font-size="12" x="-33.58" y="14.0417">*</tspan><tspan font-size="12" x="-26.9133" y="14.0417">担当者</tspan><tspan font-family="Consolas,Consolas_MSFontService,sans-serif" font-size="12" x="9.08669" y="14.0417">ID</tspan><tspan font-size="12" x="-21.58" y="28.0834">名前</tspan><tspan font-size="12" x="-21.58" y="43.6853">状態</tspan></text><path d="M0 0 69.682 6.72912e-05" stroke="#000000" stroke-width="0.427299" stroke-miterlimit="8" fill="none" fill-rule="evenodd" transform="matrix(-1.00138 0 0 1 390.606 418.262)"/><text font-family="Calibri,Calibri_MSFontService,sans-serif" font-weight="400" font-size="11" transform="matrix(0.641832 0 0 0.640948 373.6 413)">0<tspan font-size="11" x="5.99999" y="0">..</tspan><tspan font-size="11" x="12" y="0">1</tspan><tspan font-size="11" x="-132.615" y="-45.2455">0</tspan><tspan font-size="11" x="-126.615" y="-45.2455">..</tspan><tspan font-size="11" x="-120.615" y="-45.2455">1</tspan><tspan font-size="11" x="-238.249" y="-70.2085">1</tspan><tspan font-size="11" x="-144.892" y="-85.8104">R</tspan><tspan font-size="11" x="-138.892" y="-85.8104">_</tspan><tspan font-size="11" x="-133.726" y="-85.8104">EI</tspan><tspan font-size="11" x="-125.726" y="-85.8104">1</tspan><tspan font-size="11" x="-43.3813" y="0">R</tspan><tspan font-size="11" x="-37.548" y="0">_</tspan><tspan font-size="11" x="-32.548" y="0">IR</tspan><tspan font-size="11" x="-23.548" y="0">1</tspan><tspan font-family="Yu Gothic,Yu Gothic_MSFontService,sans-serif" font-size="16" x="-426.567" y="-475.858">ドメイン</tspan><tspan font-family="Yu Gothic,Yu Gothic_MSFontService,sans-serif" font-size="16" x="-363.567" y="-475.858">：</tspan><tspan font-family="Yu Gothic,Yu Gothic_MSFontService,sans-serif" font-size="16" x="-347.567" y="-475.858">装置管理</tspan></text></g></g></g></g><path d="M375 392C375 384.82 380.82 379 388 379L469 379C476.18 379 482 384.82 482 392L482 444C482 451.18 476.18 457 469 457L388 457C380.82 457 375 451.18 375 444Z" stroke="#FF0000" stroke-width="2" stroke-miterlimit="8" fill="none" fill-rule="evenodd"/><rect x="460" y="457" width="197" height="42" fill="#FFFFFF" fill-opacity="0.701961"/><text font-family="Yu Gothic,Yu Gothic_MSFontService,sans-serif" font-weight="400" font-size="13" transform="translate(469.962 473)">クラスの各インスタンスは<tspan font-family="Calibri,Calibri_MSFontService,sans-serif" font-size="13" x="0" y="16">1</tspan><tspan font-size="13" x="6.83331" y="16">：</tspan><tspan font-family="Calibri,Calibri_MSFontService,sans-serif" font-size="13" x="20.1667" y="16">1</tspan><tspan font-size="13" x="27" y="16">で対応付けられる？</tspan></text><g clip-path="url(#clip5)"><g clip-path="url(#clip6)"><g clip-path="url(#clip7)"><g clip-path="url(#clip8)"><path d="M37.3011 60.2555 422.426 60.2555 422.426 358.663 37.3011 358.663Z" stroke="#D9D9D9" stroke-width="0.850163" stroke-miterlimit="8" fill="none" transform="matrix(1.00024 0 0 1 53.2291 440.259)"/><text font-family="Yu Gothic,Yu Gothic_MSFontService,sans-serif" font-weight="400" font-size="16" transform="matrix(0.637777 0 0 0.637624 96.6966 513)">ドメイン<tspan font-size="16" x="64" y="0">：</tspan><tspan font-size="16" x="80" y="0">人事管理</tspan></text><path d="M98.5129 120.83 203.721 120.83 203.721 176.303 98.5129 176.303Z" stroke="#000000" stroke-width="0.850163" stroke-miterlimit="8" fill="#FFFFFF" transform="matrix(1.00024 0 0 1 53.2291 440.259)"/><text font-family="Yu Gothic,Yu Gothic_MSFontService,sans-serif" font-weight="400" font-size="13" transform="matrix(0.637777 0 0 0.637624 195.381 572)">部署<tspan font-family="Consolas,Consolas_MSFontService,sans-serif" font-size="12" x="-59.4133" y="14.1149">*</tspan><tspan font-size="12" x="-52.7467" y="14.1149">部署</tspan><tspan font-family="Consolas,Consolas_MSFontService,sans-serif" font-size="12" x="-28.7467" y="14.1149">ID</tspan><tspan font-size="12" x="-47.4133" y="28.2298">名前</tspan><tspan font-size="12" x="-47.4133" y="43.913">コストセンターコード</tspan></text><path d="M264.933 92.1366 382.893 92.1366 382.893 136.133 264.933 136.133Z" stroke="#000000" stroke-width="0.850163" stroke-miterlimit="8" fill="#FFFFFF" transform="matrix(1.00024 0 0 1 53.2291 440.259)"/><text font-family="Yu Gothic,Yu Gothic_MSFontService,sans-serif" font-weight="400" font-size="13" transform="matrix(0.637777 0 0 0.637624 355.825 542)">ミッション<tspan font-size="12" x="-37.5" y="15.6832">名前</tspan><tspan font-size="12" x="-37.5" y="29.7981">ミッションステートメント</tspan></text><path d="M0 0 31.6261 0 31.6261 39.5577 0.850163 39.5577" stroke="#000000" stroke-width="0.850163" stroke-miterlimit="8" fill="none" fill-rule="evenodd" transform="matrix(1.83741e-16 1 1.00024 -1.83697e-16 165.159 615.924)"/><path d="M0 0 30.8252 0 30.8252 34.6982 61.6503 34.6982" stroke="#000000" stroke-width="0.850163" stroke-miterlimit="8" fill="none" fill-rule="evenodd" transform="matrix(1.00024 0 0 -1 256.999 588.773)"/><path d="M122.105 263.657 214.56 263.657 214.56 316.58 122.105 316.58Z" stroke="#000000" stroke-width="0.850163" stroke-miterlimit="8" fill="#FFFFFF" transform="matrix(1.00024 0 0 1 53.2291 440.259)"/><text font-family="Yu Gothic,Yu Gothic_MSFontService,sans-serif" font-weight="400" font-size="13" transform="matrix(0.637777 0 0 0.637624 212.615 714)">社員<tspan font-family="Consolas,Consolas_MSFontService,sans-serif" font-size="12" x="-49.3333" y="15.6832">*</tspan><tspan font-size="12" x="-42.6667" y="15.6832">社員番号</tspan><tspan font-size="12" x="-37.3333" y="29.7981">名前</tspan><tspan font-size="12" x="-37.3333" y="43.913">等級</tspan><tspan font-family="Consolas,Consolas_MSFontService,sans-serif" font-size="12" x="-37.3333" y="58.0279">…</tspan></text><path d="M264.933 167.376 382.893 167.376 382.893 211.372 264.933 211.372Z" stroke="#000000" stroke-width="0.850163" stroke-miterlimit="8" fill="#FFFFFF" transform="matrix(1.00024 0 0 1 53.2291 440.259)"/><text font-family="Yu Gothic,Yu Gothic_MSFontService,sans-serif" font-weight="400" font-size="13" transform="matrix(0.637777 0 0 0.637624 330.314 618)">ジョブデスクリプション<tspan font-size="12" x="2.50002" y="15.6832">名前</tspan><tspan font-size="12" x="2.50002" y="29.7981">デスクリプション</tspan></text><path d="M324.232 136.133 324.232 167.839" stroke="#000000" stroke-width="0.850163" stroke-miterlimit="8" fill="none" fill-rule="evenodd" transform="matrix(1.00024 0 0 1 53.2291 440.259)"/><path d="M98.5129 148.248 83.2099 148.248 83.2099 289.803 122.169 289.803" stroke="#000000" stroke-width="0.850163" stroke-miterlimit="8" fill="none" fill-rule="evenodd" transform="matrix(1.00024 0 0 1 53.2291 440.259)"/><path d="M191.111 176.303 191.111 219.988 168.014 219.988 168.014 263.673" stroke="#000000" stroke-width="0.850163" stroke-miterlimit="8" fill="none" fill-rule="evenodd" transform="matrix(1.00024 0 0 1 53.2291 440.259)"/><path d="M260.469 251.543 352.287 251.543 352.287 288.525 260.469 288.525Z" stroke="#000000" stroke-width="0.850163" stroke-miterlimit="8" fill="#FFFFFF" transform="matrix(1.00024 0 0 1 53.2291 440.259)"/><text font-family="Yu Gothic,Yu Gothic_MSFontService,sans-serif" font-weight="400" font-size="13" transform="matrix(0.637777 0 0 0.637624 350.893 713)">任用</text><path d="M324.095 211.372 324.095 231.376 306.378 231.376 306.378 251.381" stroke="#000000" stroke-width="0.850163" stroke-miterlimit="8" fill="none" fill-rule="evenodd" transform="matrix(1.00024 0 0 1 53.2291 440.259)"/><path d="M190.331 209.459 260.143 269.797" stroke="#000000" stroke-width="0.850163" stroke-miterlimit="8" stroke-dasharray="0.850163 0.850163" fill="none" fill-rule="evenodd" transform="matrix(1.00024 0 0 1 53.2291 440.259)"/><text font-family="Calibri,Calibri_MSFontService,sans-serif" font-weight="400" font-size="11" transform="matrix(0.637777 0 0 0.637624 273.335 550)">R<tspan font-size="11" x="5.83334" y="0">_</tspan><tspan font-size="11" x="10.8333" y="0">HR</tspan><tspan font-size="11" x="23.8333" y="0">_</tspan><tspan font-size="11" x="28.8333" y="0">1</tspan><tspan font-size="11" x="-165.076" y="120.761">0</tspan>..1<tspan font-size="11" x="-73.8019" y="235.248">1</tspan>..*<tspan font-family="Yu Gothic,Yu Gothic_MSFontService,sans-serif" font-size="11" x="-191.608" y="122.329">上位</tspan><tspan font-family="Yu Gothic,Yu Gothic_MSFontService,sans-serif" font-size="11" x="-102.317" y="119.193">下位</tspan><tspan font-size="11" x="-117.994" y="119.193">*</tspan><tspan font-size="11" x="-211.861" y="54.8913">0</tspan>..1<tspan font-size="11" x="-164.171" y="277.593">1</tspan><tspan font-family="Yu Gothic,Yu Gothic_MSFontService,sans-serif" font-size="11" x="-222.489" y="304.255">マネージャー</tspan><tspan font-size="11" x="-64.3557" y="120.761">1</tspan><tspan font-size="11" x="-58.3557" y="120.761">..*</tspan><tspan font-size="11" x="-17.7032" y="53.323">1</tspan><tspan font-size="11" x="54.6397" y="-1.56832">1</tspan><tspan font-size="11" x="151.849" y="53.323">1</tspan><tspan font-size="11" x="143.99" y="84.6894">1</tspan>..*<tspan font-family="Yu Gothic,Yu Gothic_MSFontService,sans-serif" font-size="11" x="173.982" y="79.9845">遂行</tspan><tspan font-family="Yu Gothic,Yu Gothic_MSFontService,sans-serif" font-size="11" x="195.982" y="79.9845">に</tspan><tspan font-family="Yu Gothic,Yu Gothic_MSFontService,sans-serif" font-size="11" x="206.982" y="79.9845">必要</tspan><tspan font-family="Yu Gothic,Yu Gothic_MSFontService,sans-serif" font-size="11" x="228.982" y="79.9845">なジョブ</tspan><tspan font-size="11" x="153.784" y="172.516">1</tspan><tspan font-size="11" x="112.855" y="216.429">1</tspan>..*<tspan font-family="Yu Gothic,Yu Gothic_MSFontService,sans-serif" font-size="11" x="175.881" y="174.084">規定</tspan><tspan font-family="Yu Gothic,Yu Gothic_MSFontService,sans-serif" font-size="11" x="-36.3115" y="120.761">所属</tspan><tspan font-size="11" x="-151.477" y="166.242">R</tspan>_<tspan font-size="11" x="-140.477" y="166.242">HR</tspan><tspan font-size="11" x="-127.477" y="166.242">_</tspan><tspan font-size="11" x="-122.477" y="166.242">2</tspan><tspan font-size="11" x="-207.574" y="207.019">R</tspan>_<tspan font-size="11" x="-196.574" y="207.019">HR</tspan>_3<tspan font-size="11" x="122.566" y="70.5745">R</tspan><tspan font-size="11" x="128.399" y="70.5745">_</tspan><tspan font-size="11" x="133.399" y="70.5745">HR</tspan><tspan font-size="11" x="146.399" y="70.5745">_</tspan><tspan font-size="11" x="151.399" y="70.5745">4</tspan><tspan font-size="11" x="-70.9763" y="196.04">R</tspan><tspan font-size="11" x="-65.1429" y="196.04">_</tspan><tspan font-size="11" x="-60.1429" y="196.04">HR</tspan><tspan font-size="11" x="-47.1429" y="196.04">_</tspan><tspan font-size="11" x="-42.1429" y="196.04">5</tspan><tspan font-size="11" x="100.851" y="186.63">R</tspan><tspan font-size="11" x="106.684" y="186.63">_</tspan><tspan font-size="11" x="111.684" y="186.63">HR</tspan><tspan font-size="11" x="124.684" y="186.63">_</tspan>6</text></g></g></g></g><path d="M165 702.834C165 695.746 170.746 690 177.834 690L272.166 690C279.254 690 285 695.746 285 702.834L285 754.166C285 761.254 279.254 767 272.166 767L177.834 767C170.746 767 165 761.254 165 754.166Z" stroke="#FF0000" stroke-width="2" stroke-miterlimit="8" fill="none" fill-rule="evenodd"/><path d="M0 0-24.0006 0-24.0006 310.72 197.356 310.72" stroke="#FF0000" stroke-width="2" stroke-miterlimit="8" fill="none" fill-rule="evenodd" transform="matrix(-1 0 0 1 482.356 418)"/></g></svg>