<svg width="607" height="674" xmlns="http://www.w3.org/2000/svg" xmlns:xlink="http://www.w3.org/1999/xlink" overflow="hidden"><defs><clipPath id="clip0"><rect x="60" y="49" width="607" height="674"/></clipPath><clipPath id="clip1"><rect x="90" y="114" width="240" height="202"/></clipPath><clipPath id="clip2"><rect x="90" y="114" width="240" height="202"/></clipPath><clipPath id="clip3"><rect x="90" y="-112" width="519" height="428"/></clipPath><clipPath id="clip4"><rect x="90" y="-112" width="519" height="428"/></clipPath><linearGradient x1="229.8" y1="267.288" x2="229.8" y2="272.157" gradientUnits="userSpaceOnUse" spreadMethod="reflect" id="fill5"><stop offset="0" stop-color="#FFDD9C"/><stop offset="0.5" stop-color="#FFD78E"/><stop offset="1" stop-color="#FFD479"/></linearGradient></defs><g clip-path="url(#clip0)" transform="translate(-60 -49)"><rect x="61.5001" y="50.5001" width="605" height="671" stroke="#D9D9D9" stroke-width="1.33333" stroke-miterlimit="8" fill="none"/><rect x="396" y="69" width="255" height="247" fill="#F2F2F2"/><text font-family="Yu Gothic,Yu Gothic_MSFontService,sans-serif" font-weight="400" font-size="16" transform="translate(443.418 89)">ドメイン：テレメトリ</text><rect x="81" y="69" width="281" height="247" fill="#F2F2F2"/><text font-family="Yu Gothic,Yu Gothic_MSFontService,sans-serif" font-weight="400" font-size="16" transform="translate(149.399 89)">ドメイン：装置管理</text><g clip-path="url(#clip1)"><g clip-path="url(#clip2)"><g clip-path="url(#clip3)"><g clip-path="url(#clip4)"><path d="M149.467 67.6741 272.157 67.6741 272.157 152.388 149.467 152.388Z" stroke="#000000" stroke-width="1.2983" stroke-miterlimit="8" fill="#FFFFFF" transform="matrix(1 0 0 1.00312 -4.45154 -178.241)"/><text font-family="Yu Gothic,Yu Gothic_MSFontService,sans-serif" font-weight="400" font-size="13" transform="matrix(0.973727 0 0 0.97676 192.973 -94)">工場<tspan font-family="Consolas,Consolas_MSFontService,sans-serif" font-size="12" x="-40.2467" y="14.3331">*</tspan><tspan font-size="12" x="-33.58" y="14.3331">工場</tspan><tspan font-family="Consolas,Consolas_MSFontService,sans-serif" font-size="12" x="-9.58" y="14.3331">ID</tspan><tspan font-size="12" x="-28.2467" y="28.6662">工場名</tspan><tspan font-size="12" x="-28.2467" y="44.0231">所在地</tspan><tspan font-size="12" x="-28.2467" y="57.3324">消費電力</tspan><tspan font-family="Consolas,Consolas_MSFontService,sans-serif" font-size="12" x="19.7533" y="57.3324">(</tspan><tspan font-family="Consolas,Consolas_MSFontService,sans-serif" font-size="12" x="26.7533" y="57.3324">M</tspan><tspan font-family="Consolas,Consolas_MSFontService,sans-serif" font-size="12" x="33.7533" y="57.3324">)</tspan></text><path d="M149.467 200.101 272.157 200.101 272.157 284.815 149.467 284.815Z" stroke="#000000" stroke-width="1.2983" stroke-miterlimit="8" fill="#FFFFFF" transform="matrix(1 0 0 1.00312 -4.45154 -178.241)"/><text font-family="Yu Gothic,Yu Gothic_MSFontService,sans-serif" font-weight="400" font-size="13" transform="matrix(0.973727 0 0 0.97676 173.498 39)">生産<tspan font-size="13" x="26" y="0">ライン</tspan><tspan font-family="Consolas,Consolas_MSFontService,sans-serif" font-size="12" x="-20.2467" y="14.3331">*</tspan><tspan font-size="12" x="-13.58" y="14.3331">生産</tspan><tspan font-size="12" x="10.42" y="14.3331">ライン</tspan><tspan font-family="Consolas,Consolas_MSFontService,sans-serif" font-size="12" x="46.42" y="14.3331">ID</tspan><tspan font-size="12" x="-8.24666" y="28.6662">消費電力</tspan><tspan font-family="Consolas,Consolas_MSFontService,sans-serif" font-size="12" x="39.7533" y="28.6662">(</tspan><tspan font-family="Consolas,Consolas_MSFontService,sans-serif" font-size="12" x="46.7533" y="28.6662">M</tspan><tspan font-family="Consolas,Consolas_MSFontService,sans-serif" font-size="12" x="53.7533" y="28.6662">)</tspan><tspan font-size="12" x="-8.24666" y="44.0231">稼働状態</tspan></text><path d="M210.812 152.388 210.812 199.981" stroke="#000000" stroke-width="0.649152" stroke-miterlimit="8" fill="none" fill-rule="evenodd" transform="matrix(1 0 0 1.00312 -4.45154 -178.241)"/><text font-family="Calibri,Calibri_MSFontService,sans-serif" font-weight="400" font-size="11" transform="matrix(0.973727 0 0 0.97676 199.109 0)">R<tspan font-size="11" x="6" y="0">_</tspan><tspan font-size="11" x="11" y="0">FL</tspan><tspan font-size="11" x="21" y="0">1</tspan><tspan font-size="11" x="-0.814803" y="-14.3331">1</tspan></text><path d="M488.324 343.239 611.014 343.239 611.014 427.953 488.324 427.953Z" stroke="#000000" stroke-width="1.2983" stroke-miterlimit="8" fill="#FFFFFF" transform="matrix(1 0 0 1.00312 -4.45154 -178.241)"/><text font-family="Yu Gothic,Yu Gothic_MSFontService,sans-serif" font-weight="400" font-size="13" transform="matrix(0.973727 0 0 0.97676 531.975 181)">製品<tspan font-family="Consolas,Consolas_MSFontService,sans-serif" font-size="12" x="-40.2466" y="15.3569">*</tspan><tspan font-size="12" x="-33.58" y="15.3569">製品</tspan><tspan font-family="Consolas,Consolas_MSFontService,sans-serif" font-size="12" x="-9.57994" y="15.3569">ID</tspan></text><path d="M149.467 332.528 272.157 332.528 272.157 437.69 149.467 437.69Z" stroke="#000000" stroke-width="1.2983" stroke-miterlimit="8" fill="#FFFFFF" transform="matrix(1 0 0 1.00312 -4.45154 -178.241)"/><text font-family="Yu Gothic,Yu Gothic_MSFontService,sans-serif" font-weight="400" font-size="13" transform="matrix(0.973727 0 0 0.97676 192.973 171)">装置<tspan font-family="Consolas,Consolas_MSFontService,sans-serif" font-size="12" x="-40.2467" y="15.3569">*</tspan><tspan font-size="12" x="-33.58" y="15.3569">装置</tspan><tspan font-family="Consolas,Consolas_MSFontService,sans-serif" font-size="12" x="-9.58" y="15.3569">ID</tspan><tspan font-size="12" x="-28.2467" y="29.69">消費電力</tspan><tspan font-family="Consolas,Consolas_MSFontService,sans-serif" font-size="12" x="19.7533" y="29.69">(</tspan><tspan font-family="Consolas,Consolas_MSFontService,sans-serif" font-size="12" x="26.7533" y="29.69">M</tspan><tspan font-family="Consolas,Consolas_MSFontService,sans-serif" font-size="12" x="33.7533" y="29.69">)</tspan><tspan font-size="12" x="-28.2467" y="44.0231">稼働状態</tspan><tspan font-size="12" x="-28.2467" y="58.3562">温度</tspan><tspan font-size="12" x="-28.2467" y="73.7131">危険上限温度</tspan></text><path d="M0 0 0.000102229 47.5925" stroke="#000000" stroke-width="0.649152" stroke-miterlimit="8" fill="none" fill-rule="evenodd" transform="matrix(-1 0 0 1.00312 206.36 107.462)"/><path d="M0 0 33.9022 0 33.9022 143.388 1.2983 143.388" stroke="#000000" stroke-width="0.649152" stroke-miterlimit="8" fill="none" fill-rule="evenodd" transform="matrix(-1 1.22846e-16 1.22465e-16 1.00312 146.314 64.4842)"/><path d="M241.601 437.69 241.601 472.909 182.574 472.909 182.574 438.988" stroke="#000000" stroke-width="0.649152" stroke-miterlimit="8" fill="none" fill-rule="evenodd" transform="matrix(1 0 0 1.00312 -4.45154 -178.241)"/><path d="M0 0 215.878 0.000102229" stroke="#000000" stroke-width="0.649152" stroke-miterlimit="8" fill="none" fill-rule="evenodd" transform="matrix(-1 0 0 1.00312 483.583 208.068)"/><path d="M0 0 100.465 0 100.465 277.44" stroke="#000000" stroke-width="0.649152" stroke-miterlimit="8" fill="none" fill-rule="evenodd" transform="matrix(-1.83697e-16 -1.00312 -1 1.84269e-16 545.145 165.262)"/><text font-family="Calibri,Calibri_MSFontService,sans-serif" font-weight="400" font-size="11" transform="matrix(0.973727 0 0 0.97676 198.316 118)">1<tspan font-size="11" x="76.0836" y="-59.38">1</tspan><tspan font-size="11" x="-79.9445" y="-44.0231">0</tspan><tspan font-size="11" x="-73.9445" y="-44.0231">..</tspan>1<tspan font-size="11" x="-69.3974" y="85.9986">1</tspan><tspan font-size="11" x="-10.7708" y="-104.427">1</tspan><tspan font-size="11" x="-4.77079" y="-104.427">..*</tspan><tspan font-size="11" x="-9.55894" y="33.7852">1</tspan><tspan font-size="11" x="-3.55894" y="33.7852">..*</tspan><tspan font-size="11" x="345.494" y="41.9755">*</tspan><tspan font-size="11" x="76.1132" y="106.474">0</tspan><tspan font-size="11" x="82.1132" y="106.474">..</tspan><tspan font-size="11" x="88.1132" y="106.474">1</tspan><tspan font-size="11" x="273.139" y="83.951">0</tspan><tspan font-size="11" x="279.139" y="83.951">..</tspan>1<tspan font-size="11" x="-16.3168" y="158.688">0</tspan><tspan font-size="11" x="-10.3168" y="158.688">..</tspan><tspan font-size="11" x="-4.3168" y="158.688">1</tspan><tspan font-size="11" x="19.7595" y="156.64">0</tspan><tspan font-size="11" x="25.7595" y="156.64">..</tspan><tspan font-size="11" x="31.7595" y="156.64">1</tspan><tspan font-family="Yu Gothic,Yu Gothic_MSFontService,sans-serif" font-size="11" x="-69.3974" y="162.783">前</tspan><tspan font-family="Yu Gothic,Yu Gothic_MSFontService,sans-serif" font-size="11" x="-58.3974" y="162.783">の</tspan><tspan font-family="Yu Gothic,Yu Gothic_MSFontService,sans-serif" font-size="11" x="-47.3974" y="162.783">工程</tspan><tspan font-family="Yu Gothic,Yu Gothic_MSFontService,sans-serif" font-size="11" x="43.1512" y="162.783">後</tspan><tspan font-family="Yu Gothic,Yu Gothic_MSFontService,sans-serif" font-size="11" x="54.1512" y="162.783">の</tspan><tspan font-family="Yu Gothic,Yu Gothic_MSFontService,sans-serif" font-size="11" x="65.1512" y="162.783">工程</tspan><tspan font-family="Yu Gothic,Yu Gothic_MSFontService,sans-serif" font-size="11" x="246.94" y="106.474">仕掛</tspan><tspan font-family="Yu Gothic,Yu Gothic_MSFontService,sans-serif" font-size="11" x="268.94" y="106.474">り</tspan><tspan font-family="Yu Gothic,Yu Gothic_MSFontService,sans-serif" font-size="11" x="279.94" y="106.474">品</tspan><tspan font-family="Yu Gothic,Yu Gothic_MSFontService,sans-serif" font-size="11" x="76.7743" y="83.951">加工中</tspan><tspan font-family="Yu Gothic,Yu Gothic_MSFontService,sans-serif" font-size="11" x="361.61" y="40.9517">生産製品</tspan><tspan font-family="Yu Gothic,Yu Gothic_MSFontService,sans-serif" font-size="11" x="14.1912" y="-133.093">設置場所</tspan><tspan font-family="Yu Gothic,Yu Gothic_MSFontService,sans-serif" font-size="11" x="10.917" y="4.09517">設置場所</tspan><tspan font-family="Yu Gothic,Yu Gothic_MSFontService,sans-serif" font-size="11" x="-100.633" y="108.522">開始装置</tspan><tspan font-size="11" x="-0.816997" y="20.4758">R</tspan><tspan font-size="11" x="5.183" y="20.4758">_</tspan>LE<tspan font-size="11" x="20.183" y="20.4758">1</tspan><tspan font-size="11" x="-83.6964" y="19.4521">R</tspan>_LE<tspan font-size="11" x="-62.6964" y="19.4521">2</tspan><tspan font-size="11" x="-4.62414" y="192.473">R</tspan><tspan font-size="11" x="1.37585" y="192.473">_</tspan><tspan font-size="11" x="6.37586" y="192.473">EO</tspan><tspan font-size="11" x="18.3759" y="192.473">1</tspan><tspan font-size="11" x="116.175" y="104.427">R</tspan><tspan font-size="11" x="122.175" y="104.427">_</tspan><tspan font-size="11" x="127.175" y="104.427">EP</tspan>1<tspan font-size="11" x="216.602" y="-60.4038">R</tspan><tspan font-size="11" x="222.602" y="-60.4038">_</tspan><tspan font-size="11" x="227.602" y="-60.4038">LP</tspan>1</text><path d="M330.58 281.894 453.27 281.894 453.27 334.475 330.58 334.475Z" stroke="#000000" stroke-width="1.2983" stroke-miterlimit="8" fill="#FFFFFF" transform="matrix(1 0 0 1.00312 -4.45154 -178.241)"/><text font-family="Yu Gothic,Yu Gothic_MSFontService,sans-serif" font-weight="400" font-size="13" transform="matrix(0.973727 0 0 0.97676 348.194 121)">オーダー<tspan font-size="13" x="51" y="0">仕様</tspan><tspan font-size="12" x="-13.58" y="14.3331">製造</tspan><tspan font-size="12" x="10.42" y="14.3331">ステップ</tspan><tspan font-size="12" x="-13.58" y="28.6662">装置</tspan><tspan font-size="12" x="10.42" y="28.6662">コマンド</tspan></text><path d="M272.157 268.262 391.953 268.262 391.953 281.494" stroke="#000000" stroke-width="0.649152" stroke-miterlimit="8" fill="none" fill-rule="evenodd" transform="matrix(1 0 0 1.00312 -4.45154 -178.241)"/><path d="M0 0 119.988 0 119.988 12.3577" stroke="#000000" stroke-width="0.649152" stroke-miterlimit="8" fill="none" fill-rule="evenodd" transform="matrix(1 0 0 -1.00312 267.705 169.673)"/><text font-family="Calibri,Calibri_MSFontService,sans-serif" font-weight="400" font-size="11" transform="matrix(0.973727 0 0 0.97676 272.854 87)">1<tspan font-size="11" x="124.404" y="14.3331">1</tspan><tspan font-size="11" x="130.404" y="14.3331">..*</tspan><tspan font-size="11" x="130.035" y="83.951">1</tspan><tspan font-size="11" x="0.6738" y="80.8796">1</tspan><tspan font-family="Yu Gothic,Yu Gothic_MSFontService,sans-serif" font-size="11" x="124.228" y="1.02379">製造指示仕様</tspan><tspan font-family="Yu Gothic,Yu Gothic_MSFontService,sans-serif" font-size="11" x="118.549" y="96.2365">製造指示仕様</tspan><tspan font-size="11" x="43.3781" y="1.02379">R</tspan><tspan font-size="11" x="49.3781" y="1.02379">_</tspan><tspan font-size="11" x="54.3781" y="1.02379">LOS</tspan><tspan font-size="11" x="71.3781" y="1.02379">1</tspan><tspan font-size="11" x="42.2527" y="92.1413">R</tspan><tspan font-size="11" x="48.2527" y="92.1413">_</tspan><tspan font-size="11" x="53.2527" y="92.1413">POS</tspan><tspan font-size="11" x="71.2527" y="92.1413">1</tspan></text><path d="M244.406 350.542 260.959 350.542 260.959 367.095 244.406 367.095Z" stroke="#2F528F" stroke-width="1.94745" stroke-miterlimit="8" fill="#FFFFFF" transform="matrix(1 0 0 1.00312 -4.45154 -178.241)"/><path d="M247.327 359.305C247.327 356.617 249.724 354.437 252.682 354.437 255.64 354.437 258.038 356.617 258.038 359.305 258.038 361.994 255.64 364.174 252.682 364.174 249.724 364.174 247.327 361.994 247.327 359.305Z" stroke="#AE5A21" stroke-width="1.94745" stroke-miterlimit="8" fill="#FFFFFF" fill-rule="evenodd" transform="matrix(1 0 0 1.00312 -4.45154 -178.241)"/><path d="M244.406 348.594 245.136 345.673 260.229 345.673 260.959 348.594Z" stroke="#2F528F" stroke-width="1.94745" stroke-miterlimit="8" fill="#FFFFFF" fill-rule="evenodd" transform="matrix(1 0 0 1.00312 -4.45154 -178.241)"/><path d="M0 2.92118 0.730292 0 15.8231 0 16.5534 2.92118Z" stroke="#2F528F" stroke-width="1.94745" stroke-miterlimit="8" fill="#FFFFFF" fill-rule="evenodd" transform="matrix(1 0 0 -1.00312 239.954 195.858)"/><path d="M246.353 340.805 259.011 340.805 259.011 343.726 246.353 343.726Z" stroke="#2F528F" stroke-width="1.94745" stroke-miterlimit="8" fill="#FFFFFF" transform="matrix(1 0 0 1.00312 -4.45154 -178.241)"/><path d="M249.556 361.206 253.978 357.049 253.493 356.533 255.494 356.595 255.433 358.596 254.948 358.08 250.525 362.237Z" stroke="#AE5A21" stroke-width="1.94745" stroke-miterlimit="8" fill="#ED7D31" fill-rule="evenodd" transform="matrix(1 0 0 1.00312 -4.45154 -178.241)"/><path d="M204.97 272.157 206.187 267.288 254.63 267.288 253.413 272.157Z" stroke="#FFC000" stroke-width="0.649152" stroke-miterlimit="8" fill="url(#fill5)" fill-rule="evenodd" transform="matrix(1 0 0 1.00312 -4.45154 -178.241)"/></g></g></g></g><rect x="433.5" y="115.5" width="167" height="49" stroke="#000000" stroke-width="1.33333" stroke-miterlimit="8" fill="#FFFFFF"/><text font-family="Consolas,Consolas_MSFontService,sans-serif" font-weight="400" font-size="13" transform="translate(443.395 133)">Time Series Instance<tspan font-size="12" x="-0.746674" y="14">*TSI_ID</tspan></text><path d="M517.5 164.5 517.5 236.513" stroke="#000000" stroke-width="0.666667" stroke-miterlimit="8" fill="none" fill-rule="evenodd"/><text font-family="Calibri,Calibri_MSFontService,sans-serif" font-weight="400" font-size="11" transform="translate(526.354 204)">R<tspan font-size="11" x="5.83337" y="0">_TSI_1</tspan><tspan font-size="11" x="0" y="-24">1</tspan><tspan font-size="11" x="-24.7729" y="27">*</tspan></text><rect x="433.5" y="236.5" width="167" height="63" stroke="#000000" stroke-width="1.33333" stroke-miterlimit="8" fill="#FFFFFF"/><text font-family="Consolas,Consolas_MSFontService,sans-serif" font-weight="400" font-size="13" transform="translate(458.062 254)">Time Series Data<tspan font-size="12" x="-3.41333" y="14">Timestamp:DateTime</tspan><tspan font-size="12" x="-3.41333" y="28">Value:ANY</tspan></text><path d="M160.5 191.333C160.5 189.769 161.769 188.5 163.333 188.5L233.667 188.5C235.232 188.5 236.5 189.769 236.5 191.333L236.5 202.667C236.5 204.231 235.232 205.5 233.667 205.5L163.333 205.5C161.769 205.5 160.5 204.231 160.5 202.667Z" stroke="#FF0000" stroke-width="1.33333" stroke-miterlimit="8" fill="none" fill-rule="evenodd"/><path d="M160.5 217.333C160.5 215.769 161.769 214.5 163.333 214.5L233.667 214.5C235.232 214.5 236.5 215.769 236.5 217.333L236.5 228.667C236.5 230.231 235.232 231.5 233.667 231.5L163.333 231.5C161.769 231.5 160.5 230.231 160.5 228.667Z" stroke="#FF0000" stroke-width="1.33333" stroke-miterlimit="8" fill="none" fill-rule="evenodd"/><path d="M81 360 413.5 360 538.242 299.528 556 360 651 360 651 416.667 651 416.667 651 501.667 651 700 556 700 413.5 700 413.5 700 81 700 81 501.667 81 416.667 81 416.667Z" fill="#DEEBF7" fill-rule="evenodd" fill-opacity="0.701961"/><path d="M103.5 396.5C103.5 393.186 106.186 390.5 109.5 390.5L392.5 390.5C395.814 390.5 398.5 393.186 398.5 396.5L398.5 420.5C398.5 423.814 395.814 426.5 392.5 426.5L109.5 426.5C106.186 426.5 103.5 423.814 103.5 420.5Z" stroke="#000000" stroke-width="1.33333" stroke-miterlimit="8" fill="#FFFFFF" fill-rule="evenodd"/><text font-family="Yu Gothic,Yu Gothic_MSFontService,sans-serif" font-weight="400" font-size="13" transform="translate(123.289 412)">装置<tspan font-size="13" x="26.6667" y="0">管理</tspan><tspan font-family="Calibri,Calibri_MSFontService,sans-serif" font-size="13" x="53.3333" y="0">.</tspan><tspan font-size="13" x="56.6667" y="0">装置</tspan><tspan font-family="Calibri,Calibri_MSFontService,sans-serif" font-size="13" x="83.3333" y="0">.</tspan><tspan font-size="13" x="86.6667" y="0">消費電力</tspan><tspan font-family="Calibri,Calibri_MSFontService,sans-serif" font-size="13" x="140" y="0">:Time Series Instance</tspan></text><path d="M123.042 412.73 186.792 412.73 250.542 412.73 314.292 412.73 378.042 412.73 378.042 413.73 314.292 413.73 250.542 413.73 186.792 413.73 123.042 413.73Z" fill-rule="evenodd"/><path d="M103.5 555.5C103.5 552.186 106.186 549.5 109.5 549.5L392.5 549.5C395.814 549.5 398.5 552.186 398.5 555.5L398.5 579.5C398.5 582.814 395.814 585.5 392.5 585.5L109.5 585.5C106.186 585.5 103.5 582.814 103.5 579.5Z" stroke="#000000" stroke-width="1.33333" stroke-miterlimit="8" fill="#FFFFFF" fill-rule="evenodd"/><text font-family="Yu Gothic,Yu Gothic_MSFontService,sans-serif" font-weight="400" font-size="13" transform="translate(136.622 571)">装置<tspan font-size="13" x="26.6667" y="0">管理</tspan><tspan font-family="Calibri,Calibri_MSFontService,sans-serif" font-size="13" x="53.3333" y="0">.</tspan><tspan font-size="13" x="56.6667" y="0">装置</tspan><tspan font-family="Calibri,Calibri_MSFontService,sans-serif" font-size="13" x="83.3333" y="0">.</tspan><tspan font-size="13" x="86.6667" y="0">温度</tspan><tspan font-family="Calibri,Calibri_MSFontService,sans-serif" font-size="13" x="113.333" y="0">:Time Series Instance</tspan></text><path d="M137.042 572.238 193.792 572.238 250.542 572.238 307.292 572.238 364.042 572.238 364.042 573.238 307.292 573.238 250.542 573.238 193.792 573.238 137.042 573.238Z" fill-rule="evenodd"/><path d="M0 24 93 0 186 24Z" fill="#FF0000" fill-rule="evenodd" fill-opacity="0.501961" transform="matrix(1 0 0 -1 128 340)"/><path d="M0 0 74.1989 0 74.1989 211.288 56.8526 211.288" stroke="#FF0000" stroke-width="0.666667" stroke-miterlimit="8" fill="none" fill-rule="evenodd" transform="matrix(-1 1.22465e-16 1.22465e-16 1 160.353 196.5)"/><path d="M0 0 60.8919 0 60.8919 344.512 56.8526 344.512" stroke="#FF0000" stroke-width="0.666667" stroke-miterlimit="8" fill="none" fill-rule="evenodd" transform="matrix(-1 1.22465e-16 1.22465e-16 1 160.353 223.5)"/><path d="M367.5 440.5C367.5 437.186 370.186 434.5 373.5 434.5L632.5 434.5C635.814 434.5 638.5 437.186 638.5 440.5L638.5 464.5C638.5 467.814 635.814 470.5 632.5 470.5L373.5 470.5C370.186 470.5 367.5 467.814 367.5 464.5Z" stroke="#000000" stroke-width="1.33333" stroke-miterlimit="8" fill="#FFFFFF" fill-rule="evenodd"/><text font-family="Calibri,Calibri_MSFontService,sans-serif" font-weight="400" font-size="13" transform="translate(378.794 456)">(2022/2/14 12:34:09,450W):Time Series Data</text><path d="M379.048 457.421 440.798 457.421 502.548 457.421 564.298 457.421 626.048 457.421 626.048 458.421 564.298 458.421 502.548 458.421 440.798 458.421 379.048 458.421Z" fill-rule="evenodd"/><path d="M366.5 483.5C366.5 480.186 369.186 477.5 372.5 477.5L631.5 477.5C634.814 477.5 637.5 480.186 637.5 483.5L637.5 507.5C637.5 510.814 634.814 513.5 631.5 513.5L372.5 513.5C369.186 513.5 366.5 510.814 366.5 507.5Z" stroke="#000000" stroke-width="1.33333" stroke-miterlimit="8" fill="#FFFFFF" fill-rule="evenodd"/><text font-family="Calibri,Calibri_MSFontService,sans-serif" font-weight="400" font-size="13" transform="translate(378.18 499)">(2022/2/14 12:34:10,350W):Time Series Data</text><path d="M378.433 500.213 440.183 500.213 501.933 500.213 563.683 500.213 625.433 500.213 625.433 501.213 563.683 501.213 501.933 501.213 440.183 501.213 378.433 501.213Z" fill-rule="evenodd"/><path d="M250.5 426.5 366.653 453.131" stroke="#000000" stroke-width="1.33333" stroke-miterlimit="8" fill="none" fill-rule="evenodd"/><path d="M250.5 426.5 366.038 495.924" stroke="#000000" stroke-width="1.33333" stroke-miterlimit="8" fill="none" fill-rule="evenodd"/><path d="M502 513 502 541.51" stroke="#000000" stroke-width="8" stroke-miterlimit="8" stroke-dasharray="8 8" fill="none" fill-rule="evenodd"/><path d="M367.5 600.5C367.5 597.186 370.186 594.5 373.5 594.5L632.5 594.5C635.814 594.5 638.5 597.186 638.5 600.5L638.5 624.5C638.5 627.814 635.814 630.5 632.5 630.5L373.5 630.5C370.186 630.5 367.5 627.814 367.5 624.5Z" stroke="#000000" stroke-width="1.33333" stroke-miterlimit="8" fill="#FFFFFF" fill-rule="evenodd"/><text font-family="Calibri,Calibri_MSFontService,sans-serif" font-weight="400" font-size="13" transform="translate(378.044 617)">(2022/2/14 12:34:09,120<tspan font-family="MS Gothic,MS Gothic_MSFontService,sans-serif" font-size="13" x="137" y="0">℃</tspan><tspan font-size="13" x="150.333" y="0">):Time Series Data</tspan></text><path d="M378.044 617.929 440.044 617.929 502.044 617.929 564.044 617.929 626.044 617.929 626.044 618.929 564.044 618.929 502.044 618.929 440.044 618.929 378.044 618.929Z" fill-rule="evenodd"/><path d="M366.5 643.5C366.5 640.186 369.186 637.5 372.5 637.5L631.5 637.5C634.814 637.5 637.5 640.186 637.5 643.5L637.5 667.5C637.5 670.814 634.814 673.5 631.5 673.5L372.5 673.5C369.186 673.5 366.5 670.814 366.5 667.5Z" stroke="#000000" stroke-width="1.33333" stroke-miterlimit="8" fill="#FFFFFF" fill-rule="evenodd"/><text font-family="Calibri,Calibri_MSFontService,sans-serif" font-weight="400" font-size="13" transform="translate(377.43 660)">(2022/2/14 12:34:10,121<tspan font-family="MS Gothic,MS Gothic_MSFontService,sans-serif" font-size="13" x="137" y="0">℃</tspan><tspan font-size="13" x="150.333" y="0">):Time Series Data</tspan></text><path d="M377.43 660.721 439.43 660.721 501.43 660.721 563.43 660.721 625.43 660.721 625.43 661.721 563.43 661.721 501.43 661.721 439.43 661.721 377.43 661.721Z" fill-rule="evenodd"/><path d="M250.5 585.5 366.653 612.131" stroke="#000000" stroke-width="1.33333" stroke-miterlimit="8" fill="none" fill-rule="evenodd"/><path d="M250.5 585.5 366.038 654.924" stroke="#000000" stroke-width="1.33333" stroke-miterlimit="8" fill="none" fill-rule="evenodd"/><path d="M502 673 502 701.51" stroke="#000000" stroke-width="8" stroke-miterlimit="8" stroke-dasharray="8 8" fill="none" fill-rule="evenodd"/><text font-family="Yu Gothic,Yu Gothic_MSFontService,sans-serif" font-weight="400" font-size="13" transform="translate(119.149 500)">アプリケーションドメインの特徴値を<tspan font-size="13" x="0" y="16">“</tspan><tspan font-family="Calibri,Calibri_MSFontService,sans-serif" font-size="13" x="5.66666" y="16">Time Series</tspan><tspan font-family="Calibri,Calibri_MSFontService,sans-serif" font-size="13" x="70.8333" y="16">Instance</tspan>”のインスタンスと<tspan font-size="13" x="0" y="32">して保持する</tspan></text><path d="M349.279 178.835 355.835 172.279 377.5 193.943 399.165 172.279 405.722 178.835 384.057 200.5 405.722 222.165 399.165 228.722 377.5 207.057 355.835 228.722 349.279 222.165 370.943 200.5Z" stroke="#2F528F" stroke-width="1.33333" stroke-miterlimit="8" fill="#4472C4" fill-rule="evenodd"/></g></svg>