<svg width="607" height="507" xmlns="http://www.w3.org/2000/svg" xmlns:xlink="http://www.w3.org/1999/xlink" overflow="hidden"><defs><clipPath id="clip0"><rect x="60" y="14" width="607" height="507"/></clipPath><clipPath id="clip1"><rect x="108" y="92" width="407" height="116"/></clipPath><clipPath id="clip2"><rect x="108" y="92" width="407" height="116"/></clipPath><clipPath id="clip3"><rect x="100" y="-34" width="610" height="563"/></clipPath><clipPath id="clip4"><rect x="100" y="-34" width="610" height="563"/></clipPath></defs><g clip-path="url(#clip0)" transform="translate(-60 -14)"><rect x="83" y="246" width="255" height="246" fill="#F2F2F2"/><text font-family="Yu Gothic,Yu Gothic_MSFontService,sans-serif" font-weight="400" font-size="16" transform="translate(130.621 266)">ドメイン：テレメトリ</text><rect x="61.5001" y="15.5001" width="605" height="505" stroke="#D9D9D9" stroke-width="1.33333" stroke-miterlimit="8" fill="none"/><rect x="120.5" y="292.5" width="168" height="49" stroke="#000000" stroke-width="1.33333" stroke-miterlimit="8" fill="#FFFFFF"/><text font-family="Consolas,Consolas_MSFontService,sans-serif" font-weight="400" font-size="13" transform="translate(130.598 310)">Time Series Instance<tspan font-size="12" x="-0.746674" y="14">*TSI_ID</tspan></text><path d="M204.5 341.5 204.5 413.513" stroke="#000000" stroke-width="0.666667" stroke-miterlimit="8" fill="none" fill-rule="evenodd"/><text font-family="Calibri,Calibri_MSFontService,sans-serif" font-weight="400" font-size="11" transform="translate(213.558 381)">R<tspan font-size="11" x="5.83333" y="0">_TSI_1</tspan><tspan font-size="11" x="0" y="-24">1</tspan><tspan font-size="11" x="-24.7729" y="27">*</tspan></text><rect x="120.5" y="413.5" width="168" height="63" stroke="#000000" stroke-width="1.33333" stroke-miterlimit="8" fill="#FFFFFF"/><text font-family="Consolas,Consolas_MSFontService,sans-serif" font-weight="400" font-size="13" transform="translate(145.265 431)">Time Series Data<tspan font-size="12" x="-3.41333" y="14">Timestamp:DateTime</tspan><tspan font-size="12" x="-3.41333" y="28">Value:ANY</tspan></text><rect x="83" y="32" width="443" height="192" fill="#F2F2F2"/><text font-family="Yu Gothic,Yu Gothic_MSFontService,sans-serif" font-weight="400" font-size="16" transform="translate(208.22 52)">ドメイン：概念情報モデル</text><g clip-path="url(#clip1)"><g clip-path="url(#clip2)"><g clip-path="url(#clip3)"><g clip-path="url(#clip4)"><path d="M67.3821 58.3978 671.324 58.3978 671.324 618.417 67.3821 618.417Z" stroke="#D9D9D9" stroke-width="1.331" stroke-miterlimit="8" fill="none" transform="matrix(1.00338 0 0 1 35.2027 -89.9769)"/><path d="M109.309 117.295 215.123 117.295 215.123 170.202 109.309 170.202Z" stroke="#000000" stroke-width="1.331" stroke-miterlimit="8" fill="#FFFFFF" transform="matrix(1.00338 0 0 1 35.2027 -89.9769)"/><text font-family="Consolas,Consolas_MSFontService,sans-serif" font-weight="400" font-size="11" transform="matrix(1.00163 0 0 0.998251 180.112 42)">Domain<tspan font-size="8" x="-26" y="10.0175">*</tspan><tspan font-size="8" x="-22" y="10.0175">Name</tspan><tspan font-size="8" x="-18" y="20.035">Description</tspan></text><path d="M0 0 0.000104803 48.7761" stroke="#000000" stroke-width="0.665501" stroke-miterlimit="8" fill="none" fill-rule="evenodd" transform="matrix(-1.00338 0 0 1 197.967 80.225)"/><text font-family="Calibri,Calibri_MSFontService,sans-serif" font-weight="400" font-size="11" transform="matrix(1.00163 0 0 0.998251 186.645 109)">R<tspan font-size="11" x="6" y="0">1</tspan><tspan font-size="8" x="4.62341" y="-21.0368">1</tspan><tspan font-size="8" x="14.911" y="16.028">1</tspan><tspan font-size="8" x="18.911" y="16.028">..*</tspan></text><path d="M109.309 219.116 215.123 219.116 215.123 272.023 109.309 272.023Z" stroke="#000000" stroke-width="1.331" stroke-miterlimit="8" fill="#FFFFFF" transform="matrix(1.00338 0 0 1 35.2027 -89.9769)"/><text font-family="Consolas,Consolas_MSFontService,sans-serif" font-weight="400" font-size="11" transform="matrix(1.00163 0 0 0.998251 183.03 144)">Class<tspan font-size="8" x="-28.9133" y="10.0175">*</tspan><tspan font-size="8" x="-24.9133" y="10.0175">Domain Name</tspan><tspan font-size="8" x="-28.9133" y="20.035">*</tspan><tspan font-size="8" x="-24.9133" y="20.035">Name</tspan><tspan font-size="8" x="-24.58" y="30.0526">Description</tspan></text><path d="M344.896 215.123 450.71 215.123 450.71 276.016 344.896 276.016Z" stroke="#000000" stroke-width="1.331" stroke-miterlimit="8" fill="#FFFFFF" transform="matrix(1.00338 0 0 1 35.2027 -89.9769)"/><text font-family="Consolas,Consolas_MSFontService,sans-serif" font-weight="400" font-size="11" transform="matrix(1.00163 0 0 0.998251 410.653 140)">Property<tspan font-size="8" x="-20.1667" y="10.0175">*</tspan><tspan font-size="8" x="-16.1667" y="10.0175">Domain name</tspan><tspan font-size="8" x="-20.1667" y="20.035">*</tspan><tspan font-size="8" x="-16.1667" y="20.035">Class Name</tspan><tspan font-size="8" x="-20.1667" y="30.0526">*</tspan><tspan font-size="8" x="-16.1667" y="30.0526">Name</tspan><tspan font-size="8" x="-15.8333" y="39.0683">Description</tspan><tspan font-family="Calibri,Calibri_MSFontService,sans-serif" font-size="8" x="-246.437" y="-17.0298">concept</tspan></text><path d="M344.641 246.232 215.123 246.069" stroke="#000000" stroke-width="0.665501" stroke-miterlimit="8" fill="none" fill-rule="evenodd" transform="matrix(1.00338 0 0 1 35.2027 -89.9769)"/><text font-family="Calibri,Calibri_MSFontService,sans-serif" font-weight="400" font-size="11" transform="matrix(1.00163 0 0 0.998251 310.182 151)">R<tspan font-size="11" x="6" y="0">2</tspan><tspan font-size="8" x="-56.6949" y="-2.0035">1</tspan><tspan font-size="8" x="59.6045" y="16.028">*</tspan></text><path d="M344.896 117.295 450.71 117.295 450.71 170.202 344.896 170.202Z" stroke="#000000" stroke-width="1.331" stroke-miterlimit="8" fill="#FFFFFF" transform="matrix(1.00338 0 0 1 35.2027 -89.9769)"/><text font-family="Consolas,Consolas_MSFontService,sans-serif" font-weight="400" font-size="11" transform="matrix(1.00163 0 0 0.998251 407.728 42)">Data Type<tspan font-size="8" x="-17.2467" y="10.0175">*</tspan><tspan font-size="8" x="-13.2467" y="10.0175">Domain Name</tspan><tspan font-size="8" x="-17.2467" y="20.035">*</tspan><tspan font-size="8" x="-13.2467" y="20.035">Name</tspan><tspan font-size="8" x="-12.9133" y="30.0526">Description</tspan></text><path d="M0 0 129.517 0.000104803" stroke="#000000" stroke-width="0.665501" stroke-miterlimit="8" fill="none" fill-rule="evenodd" transform="matrix(-1.00338 0 0 1 381.009 54.2704)"/><text font-family="Calibri,Calibri_MSFontService,sans-serif" font-weight="400" font-size="11" transform="matrix(1.00163 0 0 0.998251 422.432 110)">R<tspan font-size="11" x="6" y="0">3</tspan><tspan font-size="8" x="3.89143" y="-21.0368">1</tspan><tspan font-size="8" x="17.0728" y="-19.0333">specify</tspan><tspan font-size="8" x="15.6047" y="17.0298">*</tspan></text><path d="M397.803 170.202 397.803 214.867" stroke="#000000" stroke-width="0.665501" stroke-miterlimit="8" fill="none" fill-rule="evenodd" transform="matrix(1.00338 0 0 1 35.2027 -89.9769)"/><text font-family="Calibri,Calibri_MSFontService,sans-serif" font-weight="400" font-size="11" transform="matrix(1.00163 0 0 0.998251 310.182 46)">R<tspan font-size="11" x="6" y="0">20</tspan><tspan font-size="8" x="-55.8067" y="4.00701">1</tspan><tspan font-size="8" x="52.6764" y="2.0035">1</tspan><tspan font-size="8" x="56.6764" y="2.0035">..*</tspan></text><path d="M531.569 172.198 651.359 172.198 651.359 208.135 531.569 208.135Z" stroke="#000000" stroke-width="1.331" stroke-miterlimit="8" fill="#FFFFFF" transform="matrix(1.00338 0 0 1 35.2027 -89.9769)"/><text font-family="Consolas,Consolas_MSFontService,sans-serif" font-weight="400" font-size="11" transform="matrix(1.00163 0 0 0.998251 581.122 96)">String Data Type<tspan font-size="8" x="4.25333" y="10.0175">Pattern</tspan></text><path d="M531.569 216.121 651.359 216.121 651.359 269.029 531.569 269.029Z" stroke="#000000" stroke-width="1.331" stroke-miterlimit="8" fill="#FFFFFF" transform="matrix(1.00338 0 0 1 35.2027 -89.9769)"/><text font-family="Consolas,Consolas_MSFontService,sans-serif" font-weight="400" font-size="11" transform="matrix(1.00163 0 0 0.998251 581.122 141)">Number Data Type<tspan font-size="8" x="4.25333" y="10.0175">Unit</tspan><tspan font-size="8" x="4.25333" y="20.035">Kind</tspan><tspan font-size="8" x="4.25333" y="29.0508">Domain</tspan></text><path d="M531.569 277.015 637.383 277.015 637.383 299.975 531.569 299.975Z" stroke="#000000" stroke-width="1.331" stroke-miterlimit="8" fill="#FFFFFF" transform="matrix(1.00338 0 0 1 35.2027 -89.9769)"/><text font-family="Consolas,Consolas_MSFontService,sans-serif" font-weight="400" font-size="11" transform="matrix(1.00163 0 0 0.998251 580.068 202)">Enum Data Type<tspan font-family="Calibri,Calibri_MSFontService,sans-serif" font-size="8" x="-89.5237" y="-131.229">{</tspan><tspan font-family="Calibri,Calibri_MSFontService,sans-serif" font-size="8" x="-86.5237" y="-131.229">complete</tspan><tspan font-family="Calibri,Calibri_MSFontService,sans-serif" font-size="8" x="-56.5237" y="-131.229">, </tspan><tspan font-family="Calibri,Calibri_MSFontService,sans-serif" font-size="8" x="-89.5237" y="-121.212">disjoint</tspan><tspan font-family="Calibri,Calibri_MSFontService,sans-serif" font-size="8" x="-65.5237" y="-121.212">}</tspan></text><path d="M463.688 152.233 451.709 145.246 463.688 138.258Z" stroke="#000000" stroke-width="1.331" stroke-miterlimit="8" fill="none" fill-rule="evenodd" transform="matrix(1.00338 0 0 1 35.2027 -89.9769)"/><path d="M531.337 189.636 497.512 189.636 497.512 145.246 463.688 145.246" stroke="#000000" stroke-width="0.665501" stroke-miterlimit="8" fill="none" fill-rule="evenodd" transform="matrix(1.00338 0 0 1 35.2027 -89.9769)"/><path d="M531.337 242.555 497.512 242.555 497.512 145.246 463.688 145.246" stroke="#000000" stroke-width="0.665501" stroke-miterlimit="8" fill="none" fill-rule="evenodd" transform="matrix(1.00338 0 0 1 35.2027 -89.9769)"/><path d="M531.337 288.421 497.512 288.421 497.512 145.246 463.688 145.246" stroke="#000000" stroke-width="0.665501" stroke-miterlimit="8" fill="none" fill-rule="evenodd" transform="matrix(1.00338 0 0 1 35.2027 -89.9769)"/><text font-family="Calibri,Calibri_MSFontService,sans-serif" font-weight="400" font-size="11" transform="matrix(1.00163 0 0 0.998251 500.412 42)">R<tspan font-size="11" x="6" y="0">21</tspan></text><path d="M531.569 311.954 637.383 311.954 637.383 373.845 531.569 373.845Z" stroke="#000000" stroke-width="1.331" stroke-miterlimit="8" fill="#FFFFFF" transform="matrix(1.00338 0 0 1 35.2027 -89.9769)"/><text font-family="Consolas,Consolas_MSFontService,sans-serif" font-weight="400" font-size="11" transform="matrix(1.00163 0 0 0.998251 591.725 236)">Enum Value<tspan font-size="8" x="-14.3333" y="10.0175">*</tspan><tspan font-size="8" x="-10.3333" y="10.0175">Domain Name</tspan><tspan font-size="8" x="-14.3333" y="20.035">*</tspan><tspan font-size="8" x="-10.3333" y="20.035">Data Type Name</tspan><tspan font-size="8" x="-14.3333" y="30.0526">*</tspan><tspan font-size="8" x="-10.3333" y="30.0526">Name</tspan><tspan font-size="8" x="-6.33332" y="39.0683">Description</tspan></text><path d="M0 0 23.9581 0 23.9581 54.5902 0.000104803 54.5902" stroke="#000000" stroke-width="0.665501" stroke-miterlimit="8" fill="none" fill-rule="evenodd" transform="matrix(1.00338 0 0 -1 674.742 253.607)"/><text font-family="Calibri,Calibri_MSFontService,sans-serif" font-weight="400" font-size="8" transform="matrix(1.00163 0 0 0.998251 677.262 195)">1<tspan font-size="8" x="-0.599001" y="67.1174">1</tspan><tspan font-size="8" x="3.40102" y="67.1174">..*</tspan><tspan font-size="8" x="0.943289" y="53.0928">values</tspan><tspan font-size="11" x="1.28715" y="29.0508">R</tspan><tspan font-size="11" x="7.28715" y="29.0508">22</tspan></text><path d="M312.952 355.877 418.766 355.877 418.766 411.779 312.952 411.779Z" stroke="#000000" stroke-width="1.331" stroke-miterlimit="8" fill="#FFFFFF" transform="matrix(1.00338 0 0 1 35.2027 -89.9769)"/><text font-family="Consolas,Consolas_MSFontService,sans-serif" font-weight="400" font-size="11" transform="matrix(1.00163 0 0 0.998251 366.837 280)">Relationship<tspan font-size="8" x="-8.49999" y="10.0175">*</tspan><tspan font-size="8" x="-4.5" y="10.0175">Domain Name</tspan><tspan font-family="Yu Gothic,Yu Gothic_MSFontService,sans-serif" font-size="8" x="43.5" y="10.0175">名</tspan><tspan font-size="8" x="-8.49999" y="20.035">*</tspan><tspan font-size="8" x="-4.5" y="20.035">Name</tspan><tspan font-size="8" x="-0.50001" y="29.0508">Description</tspan></text><path d="M172.198 532.567 312.952 532.567 312.952 575.492 172.198 575.492Z" stroke="#000000" stroke-width="1.331" stroke-miterlimit="8" fill="#FFFFFF" transform="matrix(1.00338 0 0 1 35.2027 -89.9769)"/><text font-family="Consolas,Consolas_MSFontService,sans-serif" font-weight="400" font-size="11" transform="matrix(1.00163 0 0 0.998251 219.775 457)">Side of Relationship<tspan font-size="8" x="5.58667" y="10.0175">Multiplicity</tspan><tspan font-size="8" x="5.58667" y="20.035">Mean</tspan></text><path d="M172.198 397.803 278.013 397.803 278.013 428.749 172.198 428.749Z" stroke="#000000" stroke-width="1.331" stroke-miterlimit="8" fill="#FFFFFF" transform="matrix(1.00338 0 0 1 35.2027 -89.9769)"/><text font-family="Consolas,Consolas_MSFontService,sans-serif" font-weight="400" font-size="11" transform="matrix(1.00163 0 0 0.998251 242.694 322)">Binary <tspan font-size="11" x="-17.5" y="13.0228">Relationship</tspan></text><path d="M172.198 350.885 278.013 350.885 278.013 381.831 172.198 381.831Z" stroke="#000000" stroke-width="1.331" stroke-miterlimit="8" fill="#FFFFFF" transform="matrix(1.00338 0 0 1 35.2027 -89.9769)"/><text font-family="Consolas,Consolas_MSFontService,sans-serif" font-weight="400" font-size="11" transform="matrix(1.00163 0 0 0.998251 234.089 275)">Super Sub <tspan font-size="11" x="-8.74666" y="13.0228">Relationship</tspan></text><path d="M0 10.9808 6.98776 0 13.9755 10.9808Z" stroke="#000000" stroke-width="1.331" stroke-miterlimit="8" fill="none" fill-rule="evenodd" transform="matrix(-6.14394e-17 -1 -1.00338 6.12323e-17 349.213 300.839)"/><path d="M301.775 383.595 289.894 383.595 289.894 365.859 278.013 365.859" stroke="#000000" stroke-width="0.665501" stroke-miterlimit="8" fill="none" fill-rule="evenodd" transform="matrix(1.00338 0 0 1 35.2027 -89.9769)"/><path d="M0 0 11.9622 0 11.9622 29.6971 23.9245 29.6971" stroke="#000000" stroke-width="0.665501" stroke-miterlimit="8" fill="none" fill-rule="evenodd" transform="matrix(-1.00338 1.22465e-16 1.22879e-16 1 338.161 293.851)"/><text font-family="Calibri,Calibri_MSFontService,sans-serif" font-weight="400" font-size="8" transform="matrix(1.00163 0 0 0.998251 259.391 302)">{complete<tspan font-size="8" x="33" y="0">, </tspan><tspan font-size="8" x="37" y="0">disjoint</tspan><tspan font-size="8" x="61" y="0">}</tspan><tspan font-size="11" x="67.125" y="-24.042">R</tspan><tspan font-size="11" x="73.125" y="-24.042">10</tspan></text><path d="M0 0 89.7276 0 89.7276 48.1316" stroke="#000000" stroke-width="0.665501" stroke-miterlimit="8" fill="none" fill-rule="evenodd" transform="matrix(-1.84318e-16 -1 -1.00338 1.83697e-16 299.348 260.794)"/><path d="M171.441 413.545 123.284 413.545 123.284 272.023" stroke="#000000" stroke-width="0.665501" stroke-miterlimit="8" fill="none" fill-rule="evenodd" transform="matrix(1.00338 0 0 1 35.2027 -89.9769)"/><path d="M172.384 554.299 85.3509 554.299 85.3509 246.069 109.309 246.069" stroke="#000000" stroke-width="0.665501" stroke-miterlimit="8" fill="none" fill-rule="evenodd" transform="matrix(1.00338 0 0 1 35.2027 -89.9769)"/><path d="M164.212 474.833 164.212 451.791 194.94 451.791 194.94 428.749" stroke="#000000" stroke-width="0.665501" stroke-miterlimit="8" fill="none" fill-rule="evenodd" transform="matrix(1.00338 0 0 1 35.2027 -89.9769)"/><path d="M0 0 23.0411 0 23.0411 28.9793 46.0823 28.9793" stroke="#000000" stroke-width="0.665501" stroke-miterlimit="8" fill="none" fill-rule="evenodd" transform="matrix(-1.84318e-16 -1 -1.00338 1.83697e-16 322.199 384.854)"/><text font-family="Calibri,Calibri_MSFontService,sans-serif" font-weight="400" font-size="11" transform="matrix(1.00163 0 0 0.998251 303.176 211)">R<tspan font-size="11" x="6" y="0">11</tspan><tspan font-size="11" x="-99.4382" y="38.0666">R</tspan>12<tspan font-size="8" x="-48.408" y="-42.0736">1</tspan><tspan font-size="8" x="-48.7901" y="-29.0508">Super class</tspan><tspan font-size="8" x="-70.985" y="35.0613">1</tspan><tspan font-size="8" x="-66.985" y="35.0613">..*</tspan><tspan font-size="8" x="-109.171" y="-19.0333">Sub class</tspan><tspan font-size="8" x="-71.7048" y="1.00175">*</tspan></text><path d="M139.256 305.964 246.069 305.964 246.069 328.924 139.256 328.924Z" stroke="#000000" stroke-width="1.331" stroke-miterlimit="8" fill="#FFFFFF" transform="matrix(1.00338 0 0 1 35.2027 -89.9769)"/><text font-family="Consolas,Consolas_MSFontService,sans-serif" font-weight="400" font-size="11" transform="matrix(1.00163 0 0 0.998251 204.545 229)">Sub Side</text><path d="M186.174 350.876 186.174 339.901 192.911 339.901 192.911 328.924" stroke="#000000" stroke-width="0.665501" stroke-miterlimit="8" fill="none" fill-rule="evenodd" transform="matrix(1.00338 0 0 1 35.2027 -89.9769)"/><path d="M192.163 305.556 192.163 288.79 193.488 288.79 193.488 272.023" stroke="#000000" stroke-width="0.665501" stroke-miterlimit="8" fill="none" fill-rule="evenodd" transform="matrix(1.00338 0 0 1 35.2027 -89.9769)"/><text font-family="Calibri,Calibri_MSFontService,sans-serif" font-weight="400" font-size="8" transform="matrix(1.00163 0 0 0.998251 302.447 256)">*<tspan font-size="8" x="-69.888" y="-67.1174">1</tspan><tspan font-size="8" x="-77.9914" y="1.00175">1</tspan><tspan font-size="11" x="-94.2691" y="-53.0928">R</tspan><tspan font-size="11" x="-88.2691" y="-53.0928">13</tspan><tspan font-size="8" x="-16.0182" y="89.1559">1</tspan><tspan font-size="8" x="-68.7666" y="91.1594">1</tspan><tspan font-size="8" x="25.7456" y="124.217">1</tspan><tspan font-size="8" x="-112.789" y="123.215">1</tspan></text><path d="M0 10.9808 6.48863 0 12.9773 10.9808Z" stroke="#000000" stroke-width="1.331" stroke-miterlimit="8" fill="none" fill-rule="evenodd" transform="matrix(1.00338 -1.22465e-16 -1.22879e-16 -1 255.06 442.59)"/><path d="M111.305 474.668 217.12 474.668 217.12 505.614 111.305 505.614Z" stroke="#000000" stroke-width="1.331" stroke-miterlimit="8" fill="#FFFFFF" transform="matrix(1.00338 0 0 1 35.2027 -89.9769)"/><text font-family="Consolas,Consolas_MSFontService,sans-serif" font-weight="400" font-size="11" transform="matrix(1.00163 0 0 0.998251 167.23 399)">One Side of <tspan font-size="11" x="-2.91335" y="13.0228">Relationship</tspan></text><path d="M233.092 474.668 338.906 474.668 338.906 505.614 233.092 505.614Z" stroke="#000000" stroke-width="1.331" stroke-miterlimit="8" fill="#FFFFFF" transform="matrix(1.00338 0 0 1 35.2027 -89.9769)"/><text font-family="Consolas,Consolas_MSFontService,sans-serif" font-weight="400" font-size="11" transform="matrix(1.00163 0 0 0.998251 283.369 399)">Other Side of <tspan font-size="11" x="2.91999" y="13.0228">Relationship</tspan></text><path d="M285.293 505.614 285.293 513.426 225.106 513.426 225.106 521.238" stroke="#000000" stroke-width="0.665501" stroke-miterlimit="8" fill="none" fill-rule="evenodd" transform="matrix(1.00338 0 0 1 35.2027 -89.9769)"/><path d="M0 0 7.63959 0 7.63959 61.3796 15.2791 61.3796" stroke="#000000" stroke-width="0.665501" stroke-miterlimit="8" fill="none" fill-rule="evenodd" transform="matrix(1.84318e-16 1 1.00338 -1.83697e-16 199.97 415.637)"/><text font-family="Calibri,Calibri_MSFontService,sans-serif" font-weight="400" font-size="8" transform="matrix(1.00163 0 0 0.998251 276.769 436)">{complete<tspan font-size="8" x="33" y="0">, </tspan><tspan font-size="8" x="37" y="0">disjoint</tspan><tspan font-size="8" x="61" y="0">}</tspan><tspan font-size="11" x="-44.621" y="1.00175">R</tspan><tspan font-size="11" x="-38.621" y="1.00175">14</tspan><tspan font-size="11" x="-65.476" y="-80.1401">R</tspan><tspan font-size="11" x="-59.476" y="-80.1401">15</tspan><tspan font-size="11" x="24.6356" y="-78.1366">R</tspan><tspan font-size="11" x="30.6356" y="-78.1366">16</tspan><tspan font-size="8" x="-81.5156" y="-104.182">*</tspan><tspan font-size="8" x="-131.323" y="-244.427">0</tspan>..1<tspan font-size="8" x="-77.1893" y="39.0683">*</tspan><tspan font-size="8" x="-145.651" y="-231.405">Relationship class</tspan><tspan font-size="11" x="-131.341" y="24.042">R</tspan><tspan font-size="11" x="-125.341" y="24.042">17</tspan><tspan font-size="11" x="-135.453" y="-150.263">R</tspan><tspan font-size="11" x="-129.453" y="-150.263">18</tspan><tspan font-size="8" x="-141.029" y="-286.501">1</tspan><tspan font-size="8" x="-101.375" y="23.0403">linked by</tspan></text><path d="M531.569 126.279 651.359 126.279 651.359 152.233 531.569 152.233Z" stroke="#000000" stroke-width="1.331" stroke-miterlimit="8" fill="#FFFFFF" transform="matrix(1.00338 0 0 1 35.2027 -89.9769)"/><text font-family="Consolas,Consolas_MSFontService,sans-serif" font-weight="400" font-size="11" transform="matrix(1.00163 0 0 0.998251 578.262 51)">Complex Data Type</text><path d="M0 0 33.8244 0 33.8244 6.11747 67.6488 6.11747" stroke="#000000" stroke-width="0.665501" stroke-miterlimit="8" fill="none" fill-rule="evenodd" transform="matrix(-1.00338 1.22465e-16 1.22879e-16 1 568.336 49.2792)"/><path d="M0 0 32.6466 0 32.6466 193.221 8.68851 193.221" stroke="#000000" stroke-width="0.665501" stroke-miterlimit="8" fill="none" fill-rule="evenodd" transform="matrix(-1.84318e-16 -1 -1.00338 1.83697e-16 628.225 36.0064)"/><text font-family="Calibri,Calibri_MSFontService,sans-serif" font-weight="400" font-size="8" transform="matrix(1.00163 0 0 0.998251 627.371 34)">*<tspan font-size="8" x="-186.437" y="-10.0175">1</tspan><tspan font-size="8" x="-182.437" y="-10.0175">..*</tspan><tspan font-size="8" x="-33.76" y="-5.00876">parent</tspan><tspan font-size="8" x="-212.233" y="-12.021">child</tspan><tspan font-size="11" x="-117.626" y="-41.0718">R</tspan><tspan font-size="11" x="-111.626" y="-41.0718">23</tspan><tspan font-family="Yu Gothic,Yu Gothic_MSFontService,sans-serif" font-size="16" x="-516.13" y="-46.0806">概念情報</tspan><tspan font-family="Yu Gothic,Yu Gothic_MSFontService,sans-serif" font-size="16" x="-452.13" y="-46.0806">モデルの</tspan><tspan font-family="Yu Gothic,Yu Gothic_MSFontService,sans-serif" font-size="16" x="-389.13" y="-46.0806">概念情報</tspan><tspan font-family="Yu Gothic,Yu Gothic_MSFontService,sans-serif" font-size="16" x="-325.13" y="-46.0806">モデル</tspan><tspan font-family="Yu Gothic,Yu Gothic_MSFontService,sans-serif" font-size="16" x="-278.13" y="-46.0806">（</tspan><tspan font-family="Yu Gothic,Yu Gothic_MSFontService,sans-serif" font-size="16" x="-262.13" y="-46.0806">抜粋</tspan><tspan font-family="Yu Gothic,Yu Gothic_MSFontService,sans-serif" font-size="16" x="-230.13" y="-46.0806">）</tspan><tspan font-family="MS Gothic,MS Gothic_MSFontService,sans-serif" font-size="13" x="-230.387" y="428.75">※</tspan><tspan font-family="Yu Gothic,Yu Gothic_MSFontService,sans-serif" font-size="13" x="-214.053" y="428.75">概念</tspan><tspan font-family="Yu Gothic,Yu Gothic_MSFontService,sans-serif" font-size="13" x="-188.053" y="428.75">クラス</tspan><tspan font-family="Yu Gothic,Yu Gothic_MSFontService,sans-serif" font-size="13" x="-149.053" y="428.75">名</tspan><tspan font-family="Yu Gothic,Yu Gothic_MSFontService,sans-serif" font-size="13" x="-136.053" y="428.75">は</tspan><tspan font-family="Yu Gothic,Yu Gothic_MSFontService,sans-serif" font-size="13" x="-123.053" y="428.75">全</tspan><tspan font-family="Yu Gothic,Yu Gothic_MSFontService,sans-serif" font-size="13" x="-110.053" y="428.75">て</tspan><tspan font-family="Yu Gothic,Yu Gothic_MSFontService,sans-serif" font-size="13" x="-97.053" y="428.75">英語</tspan><tspan font-family="Yu Gothic,Yu Gothic_MSFontService,sans-serif" font-size="13" x="-71.053" y="428.75">で</tspan><tspan font-family="Yu Gothic,Yu Gothic_MSFontService,sans-serif" font-size="13" x="-58.053" y="428.75">表記</tspan><tspan font-family="MS Gothic,MS Gothic_MSFontService,sans-serif" font-size="13" x="-230.387" y="444.778">※</tspan><tspan font-family="Yu Gothic,Yu Gothic_MSFontService,sans-serif" font-size="13" x="-214.053" y="444.778">一部</tspan><tspan font-family="Yu Gothic,Yu Gothic_MSFontService,sans-serif" font-size="13" x="-188.053" y="444.778">のみを</tspan><tspan font-family="Yu Gothic,Yu Gothic_MSFontService,sans-serif" font-size="13" x="-149.053" y="444.778">図示化</tspan><tspan font-family="Yu Gothic,Yu Gothic_MSFontService,sans-serif" font-size="13" x="-110.053" y="444.778">していることに</tspan><tspan font-family="Yu Gothic,Yu Gothic_MSFontService,sans-serif" font-size="13" x="-21.053" y="444.778">留意</tspan><tspan font-family="MS Gothic,MS Gothic_MSFontService,sans-serif" font-size="13" x="-230.387" y="460.806">※</tspan><tspan font-family="Yu Gothic,Yu Gothic_MSFontService,sans-serif" font-size="13" x="-214.053" y="460.806">関係</tspan><tspan font-family="Yu Gothic,Yu Gothic_MSFontService,sans-serif" font-size="13" x="-188.053" y="460.806">の</tspan><tspan font-family="Yu Gothic,Yu Gothic_MSFontService,sans-serif" font-size="13" x="-175.053" y="460.806">意味</tspan><tspan font-family="Yu Gothic,Yu Gothic_MSFontService,sans-serif" font-size="13" x="-149.053" y="460.806">が</tspan><tspan font-family="Yu Gothic,Yu Gothic_MSFontService,sans-serif" font-size="13" x="-136.053" y="460.806">類推</tspan><tspan font-family="Yu Gothic,Yu Gothic_MSFontService,sans-serif" font-size="13" x="-110.053" y="460.806">できるものは</tspan><tspan font-family="Yu Gothic,Yu Gothic_MSFontService,sans-serif" font-size="13" x="-32.053" y="460.806">省略</tspan></text></g></g></g></g><path d="M0 0 146.936 0 146.936 130.481" stroke="#FF0000" stroke-width="2" stroke-miterlimit="8" fill="none" fill-rule="evenodd" transform="matrix(1 0 0 -1 288 316.481)"/><text fill="#FF0000" font-family="Calibri,Calibri_MSFontService,sans-serif" font-weight="400" font-size="11" transform="translate(299.41 309)">*<tspan font-size="11" x="125.485" y="-109">1</tspan><tspan font-size="11" x="144.789" y="-108">target</tspan><tspan font-size="11" x="78.7314" y="-1">R</tspan><tspan font-size="11" x="84.5648" y="-1">_M_TSI_1</tspan><tspan fill="#000000" font-family="Yu Gothic,Yu Gothic_MSFontService,sans-serif" font-size="13" x="50.2711" y="48">※</tspan><tspan fill="#000000" font-family="Yu Gothic,Yu Gothic_MSFontService,sans-serif" font-size="13" x="68.2711" y="48">対応</tspan><tspan fill="#000000" font-family="Yu Gothic,Yu Gothic_MSFontService,sans-serif" font-size="13" x="94.9377" y="48">関係</tspan><tspan fill="#000000" font-family="Yu Gothic,Yu Gothic_MSFontService,sans-serif" font-size="13" x="121.604" y="48">を概念情報モデルの関係を使って定義</tspan><tspan fill="#000000" font-family="Yu Gothic,Yu Gothic_MSFontService,sans-serif" font-size="13" x="50.2711" y="64">※</tspan><tspan fill="#000000" font-family="Yu Gothic,Yu Gothic_MSFontService,sans-serif" font-size="13" x="68.2711" y="64">テレメトリで履歴を保存する際に、データ加工</tspan><tspan fill="#000000" font-family="Yu Gothic,Yu Gothic_MSFontService,sans-serif" font-size="13" x="68.2711" y="80">ルールの追加も可能</tspan></text></g></svg>