<svg width="608" height="603" xmlns="http://www.w3.org/2000/svg" xmlns:xlink="http://www.w3.org/1999/xlink" overflow="hidden"><defs><clipPath id="clip0"><rect x="56" y="67" width="608" height="603"/></clipPath></defs><g clip-path="url(#clip0)" transform="translate(-56 -67)"><rect x="111.5" y="102.5" width="505" height="377" stroke="#2F528F" stroke-width="1.33333" stroke-miterlimit="8" fill="#F2F2F2"/><text font-family="Yu Gothic,Yu Gothic_MSFontService,sans-serif" font-weight="400" font-size="16" transform="translate(120.6 122)">ドメイン：<tspan font-size="16" x="80" y="0">概念情報</tspan>モデル<tspan font-family="MS Gothic,MS Gothic_MSFontService,sans-serif" font-size="16" x="195.667" y="0">※</tspan>抜粋</text><rect x="58.5001" y="68.5001" width="604" height="601" stroke="#D9D9D9" stroke-width="1.33333" stroke-miterlimit="8" fill="none"/><rect x="194" y="535" width="116" height="59" stroke="#FF0000" stroke-width="2" stroke-miterlimit="8" fill="#FFFFFF"/><text font-family="Calibri,Calibri_MSFontService,sans-serif" font-weight="400" font-size="16" transform="translate(223.582 570)">Mapping</text><path d="M0 0 77 0 77 73.89 1.33333 73.89" stroke="#FF0000" stroke-width="2" stroke-miterlimit="8" fill="none" fill-rule="evenodd" transform="matrix(1.83697e-16 1 1 -1.83697e-16 194 424)"/><rect x="177.5" y="161.5" width="106" height="53" stroke="#000000" stroke-width="1.33333" stroke-miterlimit="8" fill="#FFFFFF"/><text font-family="Consolas,Consolas_MSFontService,sans-serif" font-weight="400" font-size="11" transform="translate(212.674 176)">Domain<tspan font-size="8" x="-26" y="10">*Name</tspan><tspan font-size="8" x="-18" y="20">Description</tspan></text><path d="M0 0 0.000104987 48.8615" stroke="#000000" stroke-width="0.666667" stroke-miterlimit="8" fill="none" fill-rule="evenodd" transform="matrix(-1 0 0 1 230.5 214.5)"/><text font-family="Calibri,Calibri_MSFontService,sans-serif" font-weight="400" font-size="11" transform="translate(219.196 243)">R1<tspan font-size="8" x="4.62341" y="-21">1</tspan><tspan font-size="8" x="14.911" y="16">1..*</tspan></text><rect x="177.5" y="263.5" width="106" height="53" stroke="#000000" stroke-width="1.33333" stroke-miterlimit="8" fill="#FFFFFF"/><text font-family="Consolas,Consolas_MSFontService,sans-serif" font-weight="400" font-size="11" transform="translate(215.587 278)">Class<tspan font-size="8" x="-28.9133" y="10">*Domain Name</tspan><tspan font-size="8" x="-28.9133" y="20">*Name</tspan><tspan font-size="8" x="-24.58" y="30">Description</tspan></text><rect x="413.5" y="259.5" width="106" height="61" stroke="#000000" stroke-width="1.33333" stroke-miterlimit="8" fill="#FFFFFF"/><text font-family="Consolas,Consolas_MSFontService,sans-serif" font-weight="400" font-size="11" transform="translate(442.84 274)">Property<tspan font-size="8" x="-20.1667" y="10">*Domain name</tspan><tspan font-size="8" x="-20.1667" y="20">*Class Name</tspan><tspan font-size="8" x="-20.1667" y="30">*Name</tspan><tspan font-size="8" x="-15.8333" y="39">Description</tspan><tspan font-family="Calibri,Calibri_MSFontService,sans-serif" font-size="8" x="-246.437" y="-17">concept</tspan></text><path d="M413.245 290.663 283.5 290.5" stroke="#000000" stroke-width="0.666667" stroke-miterlimit="8" fill="none" fill-rule="evenodd"/><text font-family="Calibri,Calibri_MSFontService,sans-serif" font-weight="400" font-size="11" transform="translate(342.532 285)">R2<tspan font-size="8" x="-56.6949" y="-2">1</tspan><tspan font-size="8" x="59.6045" y="16">*</tspan></text><rect x="413.5" y="161.5" width="106" height="53" stroke="#000000" stroke-width="1.33333" stroke-miterlimit="8" fill="#FFFFFF"/><text font-family="Consolas,Consolas_MSFontService,sans-serif" font-weight="400" font-size="11" transform="translate(439.92 176)">Data Type<tspan font-size="8" x="-17.2467" y="10">*Domain Name</tspan><tspan font-size="8" x="-17.2467" y="20">*Name</tspan><tspan font-size="8" x="-12.9133" y="30">Description</tspan></text><path d="M0 0 129.744 0.000104987" stroke="#000000" stroke-width="0.666667" stroke-miterlimit="8" fill="none" fill-rule="evenodd" transform="matrix(-1 0 0 1 413.244 188.5)"/><text font-family="Calibri,Calibri_MSFontService,sans-serif" font-weight="400" font-size="11" transform="translate(454.6 244)">R3<tspan font-size="8" x="3.89145" y="-21">1</tspan><tspan font-size="8" x="17.0728" y="-19">specify</tspan><tspan font-size="8" x="15.6047" y="17">*</tspan></text><path d="M466.5 214.5 466.5 259.243" stroke="#000000" stroke-width="0.666667" stroke-miterlimit="8" fill="none" fill-rule="evenodd"/><text font-family="Calibri,Calibri_MSFontService,sans-serif" font-weight="400" font-size="11" transform="translate(342.532 180)">R20<tspan font-size="8" x="-55.8067" y="4">1</tspan><tspan font-size="8" x="52.6764" y="2">1..*</tspan><tspan font-size="8" x="-55.402" y="123">1</tspan></text><rect x="177.5" y="373.5" width="106" height="53" stroke="#000000" stroke-width="1.33333" stroke-miterlimit="8" fill="#FFFFFF"/><text font-family="Consolas,Consolas_MSFontService,sans-serif" font-weight="400" font-size="11" transform="translate(206.868 403)">Instance</text><rect x="413.5" y="373.5" width="106" height="53" stroke="#000000" stroke-width="1.33333" stroke-miterlimit="8" fill="#FFFFFF"/><text font-family="Consolas,Consolas_MSFontService,sans-serif" font-weight="400" font-size="11" transform="translate(425.34 388)">Property Value<tspan font-size="8" x="5.33334" y="10">Value</tspan></text><path d="M0 0 0.000104987 57.1416" stroke="#000000" stroke-width="0.666667" stroke-miterlimit="8" fill="none" fill-rule="evenodd" transform="matrix(1 0 0 -1 230.5 373.642)"/><path d="M0 0 129.744 0.000104987" stroke="#000000" stroke-width="0.666667" stroke-miterlimit="8" fill="none" fill-rule="evenodd" transform="matrix(-1 0 0 1 413.244 400.5)"/><path d="M0 0 0.000104987 52.6967" stroke="#000000" stroke-width="0.666667" stroke-miterlimit="8" fill="none" fill-rule="evenodd" transform="matrix(-1 0 0 1 466.5 320.5)"/><text font-family="Calibri,Calibri_MSFontService,sans-serif" font-weight="400" font-size="8" transform="translate(402.135 410)">*<tspan font-size="8" x="-115.007" y="1">1</tspan><tspan font-size="8" x="-179.742" y="-81">1</tspan><tspan font-size="8" x="-165.959" y="-40">.*</tspan><tspan font-size="8" x="-167.17" y="-80">classification</tspan><tspan font-size="8" x="67.2518" y="-78">specification</tspan><tspan font-size="8" x="67.0601" y="-42">.*</tspan><tspan font-size="8" x="-163.742" y="-65">1</tspan><tspan font-size="13" x="-233.087" y="32">0..1</tspan><tspan font-size="13" x="-127.094" y="31">0..1</tspan></text><path d="M252.538 534.455 229 502" stroke="#FF0000" stroke-width="2" stroke-miterlimit="8" stroke-dasharray="2 2" fill="none" fill-rule="evenodd"/><text font-family="Yu Gothic,Yu Gothic_MSFontService,sans-serif" font-weight="400" font-size="13" transform="translate(105.394 637)">※<tspan font-size="13" x="18" y="0">異なるドメインに属するクラスの、インスタンス同士で対応付けが行われることに注意</tspan><tspan font-size="13" x="0" y="16">※</tspan><tspan font-size="13" x="18" y="16">インスタンス</tspan>を取り扱うため、概念情報モデルに“<tspan font-family="Calibri,Calibri_MSFontService,sans-serif" font-size="13" x="317" y="16">Instance</tspan>”と“<tspan font-family="Calibri,Calibri_MSFontService,sans-serif" font-size="13" x="387.333" y="16">Property Value</tspan><tspan font-size="13" x="468.167" y="16">”を追加</tspan><tspan font-family="Calibri,Calibri_MSFontService,sans-serif" font-size="11" x="103.148" y="-286">R80</tspan><tspan font-family="Calibri,Calibri_MSFontService,sans-serif" font-size="11" x="240.499" y="-240">R81</tspan><tspan font-family="Calibri,Calibri_MSFontService,sans-serif" font-size="11" x="337.956" y="-282">R82</tspan></text></g></svg>