<svg width="607" height="777" xmlns="http://www.w3.org/2000/svg" xmlns:xlink="http://www.w3.org/1999/xlink" overflow="hidden"><defs><clipPath id="clip0"><rect x="60" y="14" width="607" height="777"/></clipPath></defs><g clip-path="url(#clip0)" transform="translate(-60 -14)"><rect x="61.5001" y="15.5001" width="605" height="775" stroke="#D9D9D9" stroke-width="1.33333" stroke-miterlimit="8" fill="none"/><rect x="153.5" y="77.5001" width="126" height="47" stroke="#000000" stroke-width="1.33333" stroke-miterlimit="8" fill="#FFFFFF"/><text font-family="Consolas,Consolas_MSFontService,sans-serif" font-weight="400" font-size="13" transform="translate(171.871 105)">Subscription</text><path d="M0 0 0.000209974 37.9276" stroke="#000000" stroke-width="0.666667" stroke-miterlimit="8" fill="none" fill-rule="evenodd" transform="matrix(-1 0 0 1 216.5 124.5)"/><text font-family="Calibri,Calibri_MSFontService,sans-serif" font-weight="400" font-size="11" transform="translate(207.495 135)">1<tspan font-size="11" x="17.9756" y="27">*</tspan></text><rect x="153.5" y="247.5" width="126" height="66" stroke="#000000" stroke-width="1.33333" stroke-miterlimit="8" fill="#FFFFFF"/><text font-family="Consolas,Consolas_MSFontService,sans-serif" font-weight="400" font-size="13" transform="translate(190.161 265)">IoT Hub<tspan font-size="11" x="-27.9133" y="13">*Name</tspan><tspan font-size="11" x="-27.9133" y="26">Scale</tspan><tspan font-size="11" x="-27.9133" y="39">Unit</tspan></text><rect x="153.5" y="162.5" width="126" height="48" stroke="#000000" stroke-width="1.33333" stroke-miterlimit="8" fill="#FFFFFF"/><text font-family="Consolas,Consolas_MSFontService,sans-serif" font-weight="400" font-size="13" transform="translate(164.538 191)">Resource Group</text><path d="M0 0 0.000104987 37.9276" stroke="#000000" stroke-width="0.666667" stroke-miterlimit="8" fill="none" fill-rule="evenodd" transform="matrix(-1 0 0 1 216.5 210.5)"/><text font-family="Calibri,Calibri_MSFontService,sans-serif" font-weight="400" font-size="11" transform="translate(207.495 222)">1<tspan font-size="11" x="15.0334" y="24">*</tspan></text><rect x="324.5" y="393.5" width="127" height="48" stroke="#000000" stroke-width="1.33333" stroke-miterlimit="8" fill="#FFFFFF"/><text font-family="Consolas,Consolas_MSFontService,sans-serif" font-weight="400" font-size="13" transform="translate(350.898 422)">IoT Device</text><rect x="324.5" y="305.5" width="127" height="48" stroke="#000000" stroke-width="1.33333" stroke-miterlimit="8" fill="#FFFFFF"/><text font-family="Consolas,Consolas_MSFontService,sans-serif" font-weight="400" font-size="13" transform="translate(358.231 334)">IoT Edge</text><rect x="153.5" y="351.5" width="126" height="66" stroke="#000000" stroke-width="1.33333" stroke-miterlimit="8" fill="#FFFFFF"/><text font-family="Consolas,Consolas_MSFontService,sans-serif" font-weight="400" font-size="13" transform="translate(193.828 369)">Device<tspan font-size="11" x="-31.58" y="13">*IoT Hub Name</tspan><tspan font-size="11" x="-31.58" y="26">*Device Id</tspan><tspan font-size="11" x="-20.9133" y="38">Device Twin</tspan></text><path d="M292.5 391.5 280.5 384.5 292.5 377.5Z" stroke="#000000" stroke-width="1.33333" stroke-miterlimit="8" fill="none" fill-rule="evenodd"/><path d="M216.5 313.5 216.5 351.428" stroke="#000000" stroke-width="0.666667" stroke-miterlimit="8" fill="none" fill-rule="evenodd"/><text font-family="Calibri,Calibri_MSFontService,sans-serif" font-weight="400" font-size="11" transform="translate(207.495 324)">1<tspan font-size="11" x="12.3865" y="28">*</tspan><tspan font-size="11" x="368.588" y="-26">1</tspan></text><path d="M0 0 16.2488 0 16.2488 54.9774 32.4976 54.9774" stroke="#000000" stroke-width="0.666667" stroke-miterlimit="8" fill="none" fill-rule="evenodd" transform="matrix(1 0 0 -1 292.5 384.477)"/><path d="M292.5 384.5 308.749 384.5 308.749 417.383 324.998 417.383" stroke="#000000" stroke-width="0.666667" stroke-miterlimit="8" fill="none" fill-rule="evenodd"/><text font-family="Calibri,Calibri_MSFontService,sans-serif" font-weight="400" font-size="8" transform="translate(291.131 366)">{complete, disjoint}</text><rect x="325.5" y="177.5" width="134" height="77" stroke="#000000" stroke-width="1.33333" stroke-miterlimit="8" fill="#FFFFFF"/><text font-family="Consolas,Consolas_MSFontService,sans-serif" font-weight="400" font-size="13" transform="translate(337.145 194)">IoT Edge Module<tspan font-size="11" x="-2.08002" y="13">*IoT Hub Name</tspan><tspan font-size="11" x="-2.08002" y="26">*Device Id</tspan><tspan font-size="11" x="-2.08002" y="39">*Nam</tspan><tspan font-size="11" x="21.2533" y="39">e</tspan><tspan font-size="11" x="8.58667" y="51">Module Twin</tspan></text><rect x="324.5" y="64.5001" width="187" height="72" stroke="#000000" stroke-width="1.33333" stroke-miterlimit="8" fill="#FFFFFF"/><text font-family="Consolas,Consolas_MSFontService,sans-serif" font-weight="400" font-size="13" transform="translate(340.608 82)">IoT Edge Module Image<tspan font-size="11" x="-6.66666" y="13">*URI</tspan><tspan font-size="11" x="4" y="26">Arch</tspan><tspan font-size="11" x="4" y="38">OS</tspan></text><path d="M392.5 177.405 392.5 156.953 417.99 156.953 417.99 136.5" stroke="#000000" stroke-width="0.666667" stroke-miterlimit="8" fill="none" fill-rule="evenodd"/><path d="M388.5 306.199 388.5 280.349 393.097 280.349 393.097 254.5" stroke="#000000" stroke-width="0.666667" stroke-miterlimit="8" fill="none" fill-rule="evenodd"/><rect x="507.5" y="305.5" width="126" height="48" stroke="#000000" stroke-width="1.33333" stroke-miterlimit="8" fill="#FFFFFF"/><text font-family="Consolas,Consolas_MSFontService,sans-serif" font-weight="400" font-size="13" transform="translate(533.382 334)">Deployment</text><rect x="483.5" y="143.5" width="145" height="48" stroke="#000000" stroke-width="1.33333" stroke-miterlimit="8" fill="#FFFFFF"/><text font-family="Consolas,Consolas_MSFontService,sans-serif" font-weight="400" font-size="13" transform="translate(493.497 161)">Module<tspan font-size="13" x="51.3333" y="0">Deployment</tspan><tspan font-size="13" x="12.7533" y="15">Create</tspan><tspan font-size="13" x="64.0867" y="15">Option</tspan></text><path d="M0 0 56.0379 0.000104987" stroke="#000000" stroke-width="0.666667" stroke-miterlimit="8" fill="none" fill-rule="evenodd" transform="matrix(1 0 0 -1 451.5 329.5)"/><path d="M0 0 68.0618 0 68.0618 111.19" stroke="#000000" stroke-width="0.666667" stroke-miterlimit="8" fill="none" fill-rule="evenodd" transform="matrix(-1.83697e-16 -1 -1 1.83697e-16 570.69 305.562)"/><path d="M0 0 31.363 47.6575" stroke="#000000" stroke-width="0.666667" stroke-miterlimit="8" stroke-dasharray="0.666667 0.666667" fill="none" fill-rule="evenodd" transform="matrix(1 0 0 -1 525.5 239.158)"/><text font-family="Calibri,Calibri_MSFontService,sans-serif" font-weight="400" font-size="11" transform="translate(398.288 265)">*<tspan font-size="11" x="-7.92093" y="37">1</tspan><tspan font-size="11" x="10.2708" y="-117">1</tspan><tspan font-size="11" x="-2.60599" y="-87">*</tspan><tspan font-size="11" x="64.4407" y="-12">*</tspan><tspan font-size="11" x="57.8104" y="62">1</tspan><tspan font-size="11" x="91.2199" y="76">0..1</tspan></text><rect x="153.5" y="464.5" width="127" height="48" stroke="#000000" stroke-width="1.33333" stroke-miterlimit="8" fill="#FFFFFF"/><text font-family="Consolas,Consolas_MSFontService,sans-serif" font-weight="400" font-size="13" transform="translate(194.341 485)">Device <tspan font-size="13" x="-29.3333" y="16">Authentication</tspan></text><rect x="324.5" y="557.5" width="127" height="48" stroke="#000000" stroke-width="1.33333" stroke-miterlimit="8" fill="#FFFFFF"/><text font-family="Consolas,Consolas_MSFontService,sans-serif" font-weight="400" font-size="13" transform="translate(350.898 578)">X509 Certs <tspan font-size="13" x="22" y="16">Auth</tspan></text><rect x="324.5" y="469.5" width="127" height="48" stroke="#000000" stroke-width="1.33333" stroke-miterlimit="8" fill="#FFFFFF"/><text font-family="Consolas,Consolas_MSFontService,sans-serif" font-weight="400" font-size="13" transform="translate(350.898 490)">Connection <tspan font-size="13" x="-3.66669" y="16">String Auth</tspan></text><path d="M292.5 495.5 280.5 488.5 292.5 481.5Z" stroke="#000000" stroke-width="1.33333" stroke-miterlimit="8" fill="none" fill-rule="evenodd"/><path d="M292.5 488.5 308.749 488.5 308.749 493.526 324.998 493.526" stroke="#000000" stroke-width="0.666667" stroke-miterlimit="8" fill="none" fill-rule="evenodd"/><path d="M292.5 488.5 308.749 488.5 308.749 581.387 324.998 581.387" stroke="#000000" stroke-width="0.666667" stroke-miterlimit="8" fill="none" fill-rule="evenodd"/><text font-family="Calibri,Calibri_MSFontService,sans-serif" font-weight="400" font-size="8" transform="translate(291.131 530)">{complete, disjoint}</text><path d="M216.5 417.5 216.97 464.639" stroke="#000000" stroke-width="0.666667" stroke-miterlimit="8" fill="none" fill-rule="evenodd"/><text font-family="Calibri,Calibri_MSFontService,sans-serif" font-weight="400" font-size="11" transform="translate(222.529 459)">1<tspan font-size="11" x="-21.4626" y="-30">1</tspan><tspan font-size="16" x="-151.625" y="-423">Azure IoT Hub </tspan><tspan font-family="Yu Gothic,Yu Gothic_MSFontService,sans-serif" font-size="16" x="-56.418" y="-423">の概念情報モデル</tspan><tspan font-family="MS Gothic,MS Gothic_MSFontService,sans-serif" font-size="13" x="179.233" y="292">※</tspan><tspan font-family="Yu Gothic,Yu Gothic_MSFontService,sans-serif" font-size="13" x="195.566" y="292">機能のほんの一部のみを抜粋</tspan><tspan font-family="MS Gothic,MS Gothic_MSFontService,sans-serif" font-size="13" x="179.233" y="308">※</tspan><tspan font-family="Yu Gothic,Yu Gothic_MSFontService,sans-serif" font-size="13" x="195.566" y="308">関係の意味等は見やすさを優先し省略</tspan></text><rect x="148.5" y="598.5" width="126" height="29" stroke="#000000" stroke-width="1.33333" stroke-miterlimit="8" fill="#FFFFFF"/><text font-family="Consolas,Consolas_MSFontService,sans-serif" font-weight="400" font-size="13" transform="translate(200.127 618)">Job</text><path d="M0 0-29.7031 0-29.7031 313.556 5.7643 313.556" stroke="#000000" stroke-width="0.666667" stroke-miterlimit="8" fill="none" fill-rule="evenodd" transform="matrix(1 -1.22465e-16 -1.22465e-16 -1 148.5 613.056)"/><rect x="126.5" y="649.5" width="126" height="47" stroke="#000000" stroke-width="1.33333" stroke-miterlimit="8" fill="#FFFFFF"/><text font-family="Consolas,Consolas_MSFontService,sans-serif" font-weight="400" font-size="13" transform="translate(167.112 669)">Custom <tspan font-size="13" x="-7.33333" y="16">Endpoint</tspan></text><rect x="101.5" y="722.5" width="173" height="48" stroke="#000000" stroke-width="1.33333" stroke-miterlimit="8" fill="#FFFFFF"/><text font-family="Consolas,Consolas_MSFontService,sans-serif" font-weight="400" font-size="13" transform="translate(117.792 743)">Device Provisioning <tspan font-size="13" x="44" y="16">Service</tspan></text><path d="M0 0-32.5544 0-32.5544 392.007 26.7592 392.007" stroke="#000000" stroke-width="0.666667" stroke-miterlimit="8" fill="none" fill-rule="evenodd" transform="matrix(1 -1.22465e-16 -1.22465e-16 -1 126.5 672.507)"/><path d="M0 0-24 0-24 483.412 53.1017 483.412" stroke="#000000" stroke-width="0.666667" stroke-miterlimit="8" fill="none" fill-rule="evenodd" transform="matrix(1 -1.22465e-16 -1.22465e-16 -1 101.5 746.912)"/><text font-family="Calibri,Calibri_MSFontService,sans-serif" font-weight="400" font-size="11" transform="translate(143.567 314)">1<tspan font-size="11" x="-5.52452" y="311">*</tspan><tspan font-size="11" x="-26.5012" y="374">*</tspan><tspan font-size="11" x="-51.4309" y="430">*</tspan><tspan font-size="11" x="0" y="-55">*</tspan></text><rect x="501.5" y="426.5" width="127" height="47" stroke="#000000" stroke-width="1.33333" stroke-miterlimit="8" fill="#FFFFFF"/><text font-family="Consolas,Consolas_MSFontService,sans-serif" font-weight="400" font-size="13" transform="translate(524.201 446)">Synchronous<tspan font-size="13" x="0" y="16">Comm</tspan><tspan font-size="13" x="36.6667" y="16">Entity</tspan></text><path d="M639.5 452.5 628.5 446 639.5 439.5Z" stroke="#000000" stroke-width="1.33333" stroke-miterlimit="8" fill="none" fill-rule="evenodd"/><path d="M640.133 446.216 652.71 446.216 652.71 417.5 451.5 417.5" stroke="#000000" stroke-width="0.666667" stroke-miterlimit="8" fill="none" fill-rule="evenodd"/><path d="M640.063 446.001 659.294 446.001 659.294 215.5 459.5 215.5" stroke="#000000" stroke-width="0.666667" stroke-miterlimit="8" fill="none" fill-rule="evenodd"/><rect x="502.5" y="517.5" width="126" height="72" stroke="#000000" stroke-width="1.33333" stroke-miterlimit="8" fill="#FFFFFF"/><text font-family="Consolas,Consolas_MSFontService,sans-serif" font-weight="400" font-size="13" transform="translate(517.135 535)">Direct Method<tspan font-size="12" x="-5.91336" y="14">Name</tspan><tspan font-size="12" x="-5.91336" y="29">Request</tspan><tspan font-size="12" x="47.42" y="29">Payload</tspan><tspan font-size="12" x="-5.91336" y="43">Response</tspan><tspan font-size="12" x="54.0867" y="43">Payload</tspan></text><path d="M565.5 473.5 565.81 517.207" stroke="#000000" stroke-width="0.666667" stroke-miterlimit="8" fill="none" fill-rule="evenodd"/><text font-family="Calibri,Calibri_MSFontService,sans-serif" font-weight="400" font-size="11" transform="translate(573.426 517)">*<tspan font-size="11" x="-17.7473" y="-30">1</tspan></text><rect x="148.5" y="544.5" width="126" height="39" stroke="#000000" stroke-width="1.33333" stroke-miterlimit="8" fill="#FFFFFF"/><text font-family="Consolas,Consolas_MSFontService,sans-serif" font-weight="400" font-size="13" transform="translate(185.071 560)">Storage <tspan font-size="13" x="0" y="16">Account</tspan></text><path d="M0 0-11.6435 0-11.6435 223.361 19.3309 223.361 19.3309 248.397" stroke="#000000" stroke-width="0.666667" stroke-miterlimit="8" fill="none" fill-rule="evenodd" transform="matrix(1 -1.22465e-16 -1.22465e-16 -1 148.5 563.897)"/><text font-family="Calibri,Calibri_MSFontService,sans-serif" font-weight="400" font-size="11" transform="translate(142.554 278)">1<tspan font-size="11" x="28.2125" y="50">*</tspan><tspan font-size="11" x="-5.83612" y="299">1</tspan></text></g></svg>