<svg width="573" height="535" xmlns="http://www.w3.org/2000/svg" xmlns:xlink="http://www.w3.org/1999/xlink" overflow="hidden"><defs><clipPath id="clip0"><rect x="68" y="35" width="573" height="535"/></clipPath><clipPath id="clip1"><rect x="144" y="132" width="440" height="363"/></clipPath><clipPath id="clip2"><rect x="144" y="132" width="440" height="363"/></clipPath><clipPath id="clip3"><rect x="144" y="132" width="440" height="363"/></clipPath><clipPath id="clip4"><rect x="144" y="132" width="440" height="363"/></clipPath><clipPath id="clip5"><rect x="430" y="334" width="14" height="15"/></clipPath><clipPath id="clip6"><rect x="430" y="334" width="14" height="15"/></clipPath><clipPath id="clip7"><rect x="430" y="334" width="14" height="15"/></clipPath><clipPath id="clip8"><rect x="552" y="385" width="20" height="20"/></clipPath><clipPath id="clip9"><rect x="552" y="385" width="20" height="20"/></clipPath><clipPath id="clip10"><rect x="552" y="385" width="20" height="20"/></clipPath><linearGradient x1="195.188" y1="227.03" x2="195.188" y2="231.165" gradientUnits="userSpaceOnUse" spreadMethod="reflect" id="fill11"><stop offset="0" stop-color="#FFDD9C"/><stop offset="0.5" stop-color="#FFD78E"/><stop offset="1" stop-color="#FFD479"/></linearGradient><clipPath id="clip12"><rect x="264" y="149" width="23" height="22"/></clipPath><clipPath id="clip13"><rect x="264" y="149" width="23" height="22"/></clipPath><clipPath id="clip14"><rect x="264" y="149" width="23" height="22"/></clipPath><clipPath id="clip15"><rect x="221" y="46" width="37" height="37"/></clipPath><clipPath id="clip16"><rect x="221" y="46" width="37" height="37"/></clipPath><clipPath id="clip17"><rect x="221" y="46" width="37" height="37"/></clipPath><linearGradient x1="239.498" y1="46.1666" x2="239.498" y2="82.8334" gradientUnits="userSpaceOnUse" spreadMethod="pad" id="fill18"><stop offset="0" stop-color="#B3B2B3"/><stop offset="0.216" stop-color="#AFAEAF"/><stop offset="0.44" stop-color="#A2A2A2"/><stop offset="0.577" stop-color="#979797"/><stop offset="1" stop-color="#979797"/></linearGradient><clipPath id="clip19"><rect x="345" y="181" width="37" height="37"/></clipPath><clipPath id="clip20"><rect x="345" y="181" width="37" height="37"/></clipPath><clipPath id="clip21"><rect x="345" y="181" width="37" height="37"/></clipPath><linearGradient x1="363.498" y1="181.167" x2="363.498" y2="217.833" gradientUnits="userSpaceOnUse" spreadMethod="pad" id="fill22"><stop offset="0" stop-color="#B3B2B3"/><stop offset="0.216" stop-color="#AFAEAF"/><stop offset="0.44" stop-color="#A2A2A2"/><stop offset="0.577" stop-color="#979797"/><stop offset="1" stop-color="#979797"/></linearGradient><clipPath id="clip23"><rect x="584" y="283" width="38" height="37"/></clipPath><clipPath id="clip24"><rect x="584" y="283" width="38" height="37"/></clipPath><clipPath id="clip25"><rect x="584" y="283" width="38" height="37"/></clipPath><linearGradient x1="18.4979" y1="0.166612" x2="18.4979" y2="36.8334" gradientUnits="userSpaceOnUse" spreadMethod="pad" id="fill26"><stop offset="0" stop-color="#B3B2B3"/><stop offset="0.216" stop-color="#AFAEAF"/><stop offset="0.44" stop-color="#A2A2A2"/><stop offset="0.577" stop-color="#979797"/><stop offset="1" stop-color="#979797"/></linearGradient><clipPath id="clip27"><rect x="477" y="224" width="37" height="37"/></clipPath><clipPath id="clip28"><rect x="477" y="224" width="37" height="37"/></clipPath><clipPath id="clip29"><rect x="477" y="224" width="37" height="37"/></clipPath><linearGradient x1="495.498" y1="224.167" x2="495.498" y2="260.833" gradientUnits="userSpaceOnUse" spreadMethod="pad" id="fill30"><stop offset="0" stop-color="#B3B2B3"/><stop offset="0.216" stop-color="#AFAEAF"/><stop offset="0.44" stop-color="#A2A2A2"/><stop offset="0.577" stop-color="#979797"/><stop offset="1" stop-color="#979797"/></linearGradient><clipPath id="clip31"><rect x="370" y="440" width="37" height="37"/></clipPath><clipPath id="clip32"><rect x="370" y="440" width="37" height="37"/></clipPath><clipPath id="clip33"><rect x="370" y="440" width="37" height="37"/></clipPath><linearGradient x1="388.498" y1="440.167" x2="388.498" y2="476.833" gradientUnits="userSpaceOnUse" spreadMethod="pad" id="fill34"><stop offset="0" stop-color="#B3B2B3"/><stop offset="0.216" stop-color="#AFAEAF"/><stop offset="0.44" stop-color="#A2A2A2"/><stop offset="0.577" stop-color="#979797"/><stop offset="1" stop-color="#979797"/></linearGradient><clipPath id="clip35"><rect x="289" y="504" width="38" height="37"/></clipPath><clipPath id="clip36"><rect x="289" y="504" width="38" height="37"/></clipPath><clipPath id="clip37"><rect x="289" y="504" width="38" height="37"/></clipPath><linearGradient x1="18.4979" y1="0.166612" x2="18.4979" y2="36.8334" gradientUnits="userSpaceOnUse" spreadMethod="pad" id="fill38"><stop offset="0" stop-color="#B3B2B3"/><stop offset="0.216" stop-color="#AFAEAF"/><stop offset="0.44" stop-color="#A2A2A2"/><stop offset="0.577" stop-color="#979797"/><stop offset="1" stop-color="#979797"/></linearGradient><clipPath id="clip39"><rect x="120" y="481" width="37" height="37"/></clipPath><clipPath id="clip40"><rect x="120" y="481" width="37" height="37"/></clipPath><clipPath id="clip41"><rect x="120" y="481" width="37" height="37"/></clipPath><linearGradient x1="138.498" y1="481.167" x2="138.498" y2="517.833" gradientUnits="userSpaceOnUse" spreadMethod="pad" id="fill42"><stop offset="0" stop-color="#B3B2B3"/><stop offset="0.216" stop-color="#AFAEAF"/><stop offset="0.44" stop-color="#A2A2A2"/><stop offset="0.577" stop-color="#979797"/><stop offset="1" stop-color="#979797"/></linearGradient><clipPath id="clip43"><rect x="87" y="292" width="37" height="37"/></clipPath><clipPath id="clip44"><rect x="87" y="292" width="37" height="37"/></clipPath><clipPath id="clip45"><rect x="87" y="292" width="37" height="37"/></clipPath><linearGradient x1="105.498" y1="292.167" x2="105.498" y2="328.833" gradientUnits="userSpaceOnUse" spreadMethod="pad" id="fill46"><stop offset="0" stop-color="#B3B2B3"/><stop offset="0.216" stop-color="#AFAEAF"/><stop offset="0.44" stop-color="#A2A2A2"/><stop offset="0.577" stop-color="#979797"/><stop offset="1" stop-color="#979797"/></linearGradient><clipPath id="clip47"><rect x="87" y="57" width="512" height="512"/></clipPath><clipPath id="clip48"><rect x="87" y="57" width="512" height="512"/></clipPath><clipPath id="clip49"><rect x="87" y="57" width="512" height="512"/></clipPath></defs><g clip-path="url(#clip0)" transform="translate(-68 -35)"><g clip-path="url(#clip1)"><g clip-path="url(#clip2)"><g clip-path="url(#clip3)"><g clip-path="url(#clip4)"><path d="M126.955 57.4813 231.165 57.4813 231.165 129.436 126.955 129.436Z" stroke="#000000" stroke-width="1.10275" stroke-miterlimit="8" fill="#FFFFFF" transform="matrix(1 0 0 1.00205 63.7744 75.6438)"/><text font-family="Yu Gothic,Yu Gothic_MSFontService,sans-serif" font-weight="400" font-size="13" transform="matrix(0.827068 0 0 0.828767 231.463 147)">工場<tspan font-family="Consolas,Consolas_MSFontService,sans-serif" font-size="12" x="-40.2467" y="14.4793">*</tspan><tspan font-size="12" x="-33.58" y="14.4793">工場</tspan><tspan font-family="Consolas,Consolas_MSFontService,sans-serif" font-size="12" x="-9.57998" y="14.4793">ID</tspan><tspan font-size="12" x="-28.2467" y="28.9587">工場名</tspan><tspan font-size="12" x="-28.2467" y="43.438">所在地</tspan><tspan font-size="12" x="-28.2467" y="57.9174">消費電力</tspan><tspan font-family="Consolas,Consolas_MSFontService,sans-serif" font-size="12" x="19.7533" y="57.9174">(</tspan><tspan font-family="Consolas,Consolas_MSFontService,sans-serif" font-size="12" x="26.7533" y="57.9174">M</tspan><tspan font-family="Consolas,Consolas_MSFontService,sans-serif" font-size="12" x="33.7533" y="57.9174">)</tspan></text><path d="M126.955 169.962 231.165 169.962 231.165 241.917 126.955 241.917Z" stroke="#000000" stroke-width="1.10275" stroke-miterlimit="8" fill="#FFFFFF" transform="matrix(1 0 0 1.00205 63.7744 75.6438)"/><text font-family="Yu Gothic,Yu Gothic_MSFontService,sans-serif" font-weight="400" font-size="13" transform="matrix(0.827068 0 0 0.828767 214.922 260)">生産<tspan font-size="13" x="26" y="0">ライン</tspan><tspan font-family="Consolas,Consolas_MSFontService,sans-serif" font-size="12" x="-20.2467" y="14.4793">*</tspan><tspan font-size="12" x="-13.58" y="14.4793">生産</tspan><tspan font-size="12" x="10.42" y="14.4793">ライン</tspan><tspan font-family="Consolas,Consolas_MSFontService,sans-serif" font-size="12" x="46.42" y="14.4793">ID</tspan><tspan font-size="12" x="-8.24667" y="28.9587">消費電力</tspan><tspan font-family="Consolas,Consolas_MSFontService,sans-serif" font-size="12" x="39.7533" y="28.9587">(</tspan><tspan font-family="Consolas,Consolas_MSFontService,sans-serif" font-size="12" x="46.7533" y="28.9587">M</tspan><tspan font-family="Consolas,Consolas_MSFontService,sans-serif" font-size="12" x="53.7533" y="28.9587">)</tspan><tspan font-size="12" x="-8.24667" y="43.438">稼働状態</tspan></text><path d="M179.06 129.436 179.06 169.861" stroke="#000000" stroke-width="0.551379" stroke-miterlimit="8" fill="none" fill-rule="evenodd" transform="matrix(1 0 0 1.00205 63.7744 75.6438)"/><text font-family="Calibri,Calibri_MSFontService,sans-serif" font-weight="400" font-size="11" transform="matrix(0.827068 0 0 0.828767 236.675 226)">R<tspan font-size="11" x="6" y="0">_</tspan><tspan font-size="11" x="11" y="0">FL</tspan>1<tspan font-size="11" x="-0.814812" y="-13.2727">1</tspan></text><path d="M414.774 291.541 518.985 291.541 518.985 363.496 414.774 363.496Z" stroke="#000000" stroke-width="1.10275" stroke-miterlimit="8" fill="#FFFFFF" transform="matrix(1 0 0 1.00205 63.7744 75.6438)"/><text font-family="Yu Gothic,Yu Gothic_MSFontService,sans-serif" font-weight="400" font-size="13" transform="matrix(0.827068 0 0 0.828767 519.406 381)">製品<tspan font-family="Consolas,Consolas_MSFontService,sans-serif" font-size="12" x="-40.2466" y="14.4793">*</tspan><tspan font-size="12" x="-33.58" y="14.4793">製品</tspan><tspan font-family="Consolas,Consolas_MSFontService,sans-serif" font-size="12" x="-9.57996" y="14.4793">ID</tspan></text><path d="M126.955 282.444 231.165 282.444 231.165 371.767 126.955 371.767Z" stroke="#000000" stroke-width="1.10275" stroke-miterlimit="8" fill="#FFFFFF" transform="matrix(1 0 0 1.00205 63.7744 75.6438)"/><text font-family="Yu Gothic,Yu Gothic_MSFontService,sans-serif" font-weight="400" font-size="13" transform="matrix(0.827068 0 0 0.828767 231.463 372)">装置<tspan font-family="Consolas,Consolas_MSFontService,sans-serif" font-size="12" x="-40.2467" y="15.686">*</tspan><tspan font-size="12" x="-33.58" y="15.686">装置</tspan><tspan font-family="Consolas,Consolas_MSFontService,sans-serif" font-size="12" x="-9.57998" y="15.686">ID</tspan><tspan font-size="12" x="-28.2467" y="28.9587">消費電力</tspan><tspan font-family="Consolas,Consolas_MSFontService,sans-serif" font-size="12" x="19.7533" y="28.9587">(</tspan><tspan font-family="Consolas,Consolas_MSFontService,sans-serif" font-size="12" x="26.7533" y="28.9587">M</tspan><tspan font-family="Consolas,Consolas_MSFontService,sans-serif" font-size="12" x="33.7533" y="28.9587">)</tspan><tspan font-size="12" x="-28.2467" y="44.6446">稼働状態</tspan><tspan font-size="12" x="-28.2467" y="57.9174">温度</tspan><tspan font-size="12" x="-28.2467" y="73.6033">危険上限温度</tspan></text><path d="M0 0 8.68314e-05 40.4243" stroke="#000000" stroke-width="0.551379" stroke-miterlimit="8" fill="none" fill-rule="evenodd" transform="matrix(-1 0 0 1.00205 242.835 318.058)"/><path d="M0 0 28.7959 0 28.7959 121.792 1.10275 121.792" stroke="#000000" stroke-width="0.551379" stroke-miterlimit="8" fill="none" fill-rule="evenodd" transform="matrix(-1 1.22717e-16 1.22465e-16 1.00205 191.832 281.592)"/><path d="M205.212 371.767 205.212 401.681 155.075 401.681 155.075 372.869" stroke="#000000" stroke-width="0.551379" stroke-miterlimit="8" fill="none" fill-rule="evenodd" transform="matrix(1 0 0 1.00205 63.7744 75.6438)"/><path d="M0 0 183.363 8.68314e-05" stroke="#000000" stroke-width="0.551379" stroke-miterlimit="8" fill="none" fill-rule="evenodd" transform="matrix(-1 0 0 1.00205 478.303 403.421)"/><path d="M0 0 85.3335 0 85.3335 235.653" stroke="#000000" stroke-width="0.551379" stroke-miterlimit="8" fill="none" fill-rule="evenodd" transform="matrix(-1.83697e-16 -1.00205 -1 1.84074e-16 530.593 367.101)"/><text font-family="Calibri,Calibri_MSFontService,sans-serif" font-weight="400" font-size="11" transform="matrix(0.827068 0 0 0.828767 236.002 327)">1<tspan font-size="11" x="76.0836" y="-59.124">1</tspan><tspan font-size="11" x="-79.9445" y="-44.6446">0</tspan><tspan font-size="11" x="-73.9445" y="-44.6446">..</tspan>1<tspan font-size="11" x="-69.3974" y="85.6694">1</tspan><tspan font-size="11" x="-10.7708" y="-103.769">1</tspan><tspan font-size="11" x="-4.7708" y="-103.769">..*</tspan><tspan font-size="11" x="-9.55895" y="33.7851">1</tspan><tspan font-size="11" x="-3.55894" y="33.7851">..*</tspan><tspan font-size="11" x="345.494" y="42.2314">*</tspan><tspan font-size="11" x="76.1132" y="106.182">0</tspan><tspan font-size="11" x="82.1132" y="106.182">..</tspan><tspan font-size="11" x="88.1132" y="106.182">1</tspan><tspan font-size="11" x="273.139" y="83.2562">0</tspan>..1<tspan font-size="11" x="-16.3168" y="159.273">0</tspan><tspan font-size="11" x="-10.3168" y="159.273">..</tspan><tspan font-size="11" x="-4.3168" y="159.273">1</tspan><tspan font-size="11" x="19.7595" y="156.86">0</tspan><tspan font-size="11" x="25.7595" y="156.86">..</tspan><tspan font-size="11" x="31.7595" y="156.86">1</tspan><tspan font-family="Yu Gothic,Yu Gothic_MSFontService,sans-serif" font-size="11" x="-69.3974" y="162.893">前</tspan><tspan font-family="Yu Gothic,Yu Gothic_MSFontService,sans-serif" font-size="11" x="-58.3974" y="162.893">の</tspan><tspan font-family="Yu Gothic,Yu Gothic_MSFontService,sans-serif" font-size="11" x="-47.3974" y="162.893">工程</tspan><tspan font-family="Yu Gothic,Yu Gothic_MSFontService,sans-serif" font-size="11" x="43.1512" y="162.893">後</tspan><tspan font-family="Yu Gothic,Yu Gothic_MSFontService,sans-serif" font-size="11" x="54.1512" y="162.893">の</tspan><tspan font-family="Yu Gothic,Yu Gothic_MSFontService,sans-serif" font-size="11" x="65.1512" y="162.893">工程</tspan><tspan font-family="Yu Gothic,Yu Gothic_MSFontService,sans-serif" font-size="11" x="246.94" y="106.182">仕掛</tspan><tspan font-family="Yu Gothic,Yu Gothic_MSFontService,sans-serif" font-size="11" x="268.94" y="106.182">り</tspan><tspan font-family="Yu Gothic,Yu Gothic_MSFontService,sans-serif" font-size="11" x="279.94" y="106.182">品</tspan><tspan font-family="Yu Gothic,Yu Gothic_MSFontService,sans-serif" font-size="11" x="76.7743" y="83.2562">加工中</tspan><tspan font-family="Yu Gothic,Yu Gothic_MSFontService,sans-serif" font-size="11" x="361.61" y="41.0248">生産製品</tspan><tspan font-family="Yu Gothic,Yu Gothic_MSFontService,sans-serif" font-size="11" x="14.1912" y="-132.727">設置場所</tspan><tspan font-family="Yu Gothic,Yu Gothic_MSFontService,sans-serif" font-size="11" x="10.917" y="3.61983">設置場所</tspan><tspan font-family="Yu Gothic,Yu Gothic_MSFontService,sans-serif" font-size="11" x="-100.633" y="108.595">開始装置</tspan><tspan font-size="11" x="-0.817007" y="20.5124">R</tspan><tspan font-size="11" x="5.18299" y="20.5124">_</tspan><tspan font-size="11" x="10.183" y="20.5124">LE</tspan><tspan font-size="11" x="20.183" y="20.5124">1</tspan><tspan font-size="11" x="-83.6964" y="19.3058">R</tspan><tspan font-size="11" x="-77.6964" y="19.3058">_</tspan><tspan font-size="11" x="-72.6964" y="19.3058">LE</tspan>2<tspan font-size="11" x="-4.62416" y="193.058">R</tspan><tspan font-size="11" x="1.37585" y="193.058">_</tspan><tspan font-size="11" x="6.37584" y="193.058">EO</tspan><tspan font-size="11" x="18.3759" y="193.058">1</tspan><tspan font-size="11" x="116.175" y="104.975">R</tspan><tspan font-size="11" x="122.175" y="104.975">_</tspan><tspan font-size="11" x="127.175" y="104.975">EP</tspan>1<tspan font-size="11" x="216.602" y="-60.3306">R</tspan><tspan font-size="11" x="222.602" y="-60.3306">_</tspan><tspan font-size="11" x="227.602" y="-60.3306">LP</tspan>1</text><path d="M280.789 239.436 385 239.436 385 284.098 280.789 284.098Z" stroke="#000000" stroke-width="1.10275" stroke-miterlimit="8" fill="#FFFFFF" transform="matrix(1 0 0 1.00205 63.7744 75.6438)"/><text font-family="Yu Gothic,Yu Gothic_MSFontService,sans-serif" font-weight="400" font-size="13" transform="matrix(0.827068 0 0 0.828767 363.305 329)">オーダー仕様<tspan font-size="12" x="-13.58" y="15.686">製造</tspan><tspan font-size="12" x="10.42" y="15.686">ステップ</tspan><tspan font-size="12" x="-13.58" y="28.9587">装置</tspan><tspan font-size="12" x="10.42" y="28.9587">コマンド</tspan></text><path d="M231.165 227.857 332.919 227.857 332.919 239.096" stroke="#000000" stroke-width="0.551379" stroke-miterlimit="8" fill="none" fill-rule="evenodd" transform="matrix(1 0 0 1.00205 63.7744 75.6438)"/><path d="M0 0 101.915 0 101.915 10.4964" stroke="#000000" stroke-width="0.551379" stroke-miterlimit="8" fill="none" fill-rule="evenodd" transform="matrix(1 0 0 -1.00205 294.94 370.843)"/><text font-family="Calibri,Calibri_MSFontService,sans-serif" font-weight="400" font-size="11" transform="matrix(0.827068 0 0 0.828767 299.313 301)">1<tspan font-size="11" x="124.404" y="14.4793">1</tspan><tspan font-size="11" x="130.404" y="14.4793">..*</tspan><tspan font-size="11" x="130.035" y="84.4628">1</tspan><tspan font-size="11" x="0.673804" y="79.6364">1</tspan><tspan font-family="Yu Gothic,Yu Gothic_MSFontService,sans-serif" font-size="11" x="124.228" y="1.20661">製造指示仕様</tspan><tspan font-family="Yu Gothic,Yu Gothic_MSFontService,sans-serif" font-size="11" x="118.549" y="96.5289">製造指示仕様</tspan><tspan font-size="11" x="43.3781" y="1.20661">R</tspan><tspan font-size="11" x="49.3781" y="1.20661">_</tspan><tspan font-size="11" x="54.3781" y="1.20661">LOS</tspan>1<tspan font-size="11" x="42.2527" y="91.7025">R</tspan><tspan font-size="11" x="48.2527" y="91.7025">_</tspan><tspan font-size="11" x="53.2527" y="91.7025">POS</tspan><tspan font-size="11" x="71.2527" y="91.7025">1</tspan></text><path d="M207.594 297.744 221.654 297.744 221.654 311.805 207.594 311.805Z" stroke="#2F528F" stroke-width="1.65414" stroke-miterlimit="8" fill="#FFFFFF" transform="matrix(1 0 0 1.00205 63.7744 75.6438)"/><path d="M210.075 305.188C210.075 302.904 212.111 301.053 214.624 301.053 217.137 301.053 219.173 302.904 219.173 305.188 219.173 307.471 217.137 309.323 214.624 309.323 212.111 309.323 210.075 307.471 210.075 305.188Z" stroke="#AE5A21" stroke-width="1.65414" stroke-miterlimit="8" fill="#FFFFFF" fill-rule="evenodd" transform="matrix(1 0 0 1.00205 63.7744 75.6438)"/><path d="M207.594 296.09 208.214 293.609 221.034 293.609 221.654 296.09Z" stroke="#2F528F" stroke-width="1.65414" stroke-miterlimit="8" fill="#FFFFFF" fill-rule="evenodd" transform="matrix(1 0 0 1.00205 63.7744 75.6438)"/><path d="M0 2.4812 0.620298 0 13.4398 0 14.0602 2.4812Z" stroke="#2F528F" stroke-width="1.65414" stroke-miterlimit="8" fill="#FFFFFF" fill-rule="evenodd" transform="matrix(1 0 0 -1.00205 271.368 393.062)"/><path d="M209.248 289.474 220 289.474 220 291.955 209.248 291.955Z" stroke="#2F528F" stroke-width="1.65414" stroke-miterlimit="8" fill="#FFFFFF" transform="matrix(1 0 0 1.00205 63.7744 75.6438)"/><path d="M211.968 306.802 215.725 303.272 215.313 302.833 217.013 302.886 216.961 304.586 216.549 304.148 212.792 307.678Z" stroke="#AE5A21" stroke-width="1.65414" stroke-miterlimit="8" fill="#ED7D31" fill-rule="evenodd" transform="matrix(1 0 0 1.00205 63.7744 75.6438)"/><g clip-path="url(#clip5)"><g clip-path="url(#clip6)"><g clip-path="url(#clip7)"><path d="M5.1556 6.06473 10.8548 6.06473 10.8548 6.54345 5.1556 6.54345Z" fill="#4B4B4B" transform="matrix(1 0 0 1.06468 430.165 334.219)"/><path d="M4.66417 7.95722 10.3633 7.95722 10.3633 8.43617 4.66417 8.43617Z" fill="#4B4B4B" transform="matrix(1 0 0 1.06468 430.165 334.219)"/><path d="M13.2146 0.946008 13.2146 0.638031 3.56976 0.638031 3.56976 0.946008C3.56976 1.58205 3.58743 2.24694 3.58743 2.93728 3.58743 3.94408 3.55034 5.00477 3.37087 6.109 3.20013 7.15915 2.90112 8.24889 2.38216 9.37233L1.4538 9.37233C1.28976 9.37233 1.12414 9.39871 0.964361 9.45421 0.725003 9.53733 0.498386 9.68902 0.326744 9.91208 0.154662 10.1346 0.0411466 10.4241 0.00739192 10.7654 0.0024812 10.8147 0 10.8639 0 10.9126-0.000232613 11.16 0.0634774 11.3934 0.170737 11.5978 0.331861 11.9054 0.586417 12.1496 0.882092 12.3202 1.17823 12.4905 1.5179 12.5885 1.86385 12.591L9.19575 12.595C9.47489 12.5957 9.71697 12.5387 9.92299 12.4451 10.1293 12.3519 10.2976 12.228 10.4538 12.1036 11.0925 11.5949 11.586 10.9645 11.9648 10.2647 12.5331 9.21395 12.8469 8.00666 13.0223 6.77904 13.1973 5.55141 13.2328 4.30169 13.2331 3.16413 13.2331 2.34949 13.2146 1.59211 13.2146 0.946008ZM1.86724 11.9753 1.86747 11.9753C1.71459 11.9746 1.55613 11.9444 1.40617 11.8884 1.18092 11.8048 0.976635 11.6631 0.836058 11.4921 0.765451 11.4065 0.710477 11.314 0.672923 11.2174 0.635627 11.1207 0.615701 11.0199 0.615701 10.9127 0.615701 10.8845 0.617045 10.8558 0.619965 10.8268 0.636274 10.6641 0.675379 10.5339 0.727225 10.4286 0.805435 10.2713 0.911172 10.1666 1.03588 10.0949 1.16035 10.0239 1.30628 9.99164 1.4538 9.99164L8.05202 9.99164C7.98051 10.0737 7.91682 10.1676 7.86585 10.2737 7.79077 10.4292 7.7405 10.6098 7.72013 10.813 7.71566 10.8592 7.71341 10.9046 7.71341 10.9498 7.71341 11.1648 7.76483 11.3684 7.8542 11.5492 7.93466 11.7116 8.0453 11.856 8.17647 11.9789L1.86724 11.9753ZM12.197 7.85443C12.0194 8.61316 11.7698 9.33214 11.4233 9.97179 11.0769 10.6114 10.6355 11.1714 10.0701 11.6222 9.92754 11.7362 9.80216 11.8244 9.67008 11.8836 9.53733 11.9429 9.39582 11.9786 9.196 11.9793L8.99039 11.9791C8.8043 11.9263 8.63153 11.8332 8.49092 11.7107 8.37737 11.6121 8.28556 11.4955 8.22229 11.3672 8.15907 11.2389 8.12395 11.0994 8.12395 10.9497 8.12395 10.9185 8.12529 10.8865 8.12865 10.8541 8.14476 10.693 8.18319 10.5604 8.23548 10.4518 8.31435 10.2891 8.42302 10.1785 8.54857 10.1041 8.67395 10.0301 8.81811 9.99412 8.96202 9.99437 9.10734 9.99387 9.25125 10.0314 9.37035 10.0982 9.48994 10.1656 9.58356 10.26 9.6403 10.3779 9.67032 10.44 9.68885 10.5229 9.68885 10.6065 9.68885 10.6751 9.67653 10.7433 9.6542 10.8003 9.63203 10.8577 9.60052 10.9027 9.56388 10.9339 9.49507 10.9918 9.42485 11.0137 9.35397 11.0141 9.29235 11.0141 9.23065 10.9956 9.17929 10.9623 9.12744 10.9292 9.08716 10.8827 9.0635 10.8276L8.68628 10.9893C8.74393 11.1241 8.84086 11.233 8.95756 11.3078 9.07401 11.3827 9.21122 11.4245 9.35397 11.4245 9.5174 11.4251 9.68877 11.3672 9.83003 11.2463 9.9268 11.1637 9.99387 11.0591 10.0367 10.9489 10.0795 10.8387 10.0989 10.722 10.0989 10.6065 10.0989 10.4661 10.0705 10.3265 10.0102 10.2002 9.9134 9.99883 9.75493 9.84351 9.57124 9.74046 9.39111 9.63964 9.1855 9.58696 8.9765 9.58431L8.9765 9.58108 2.96452 9.58108C3.49508 8.4188 3.80306 7.28838 3.97848 6.20781 4.16576 5.05509 4.20284 3.95889 4.20284 2.93733 4.20284 2.35001 4.19101 1.78861 4.18721 1.25381L12.6004 1.25381C12.6044 1.83552 12.6173 2.48141 12.6173 3.16415 12.6178 4.66303 12.5528 6.33697 12.197 7.85443Z" fill="#4B4B4B" transform="matrix(1 0 0 1.06468 430.165 334.219)"/><path d="M8.55932 4.86776C8.63153 4.0632 8.63508 3.29308 8.62772 2.56474L5.43921 2.56474C5.44658 3.29308 5.44278 4.0632 5.37061 4.86776L8.55932 4.86776Z" fill="#4B4B4B" transform="matrix(1 0 0 1.06468 430.165 334.219)"/></g></g></g><g clip-path="url(#clip8)"><g clip-path="url(#clip9)"><g clip-path="url(#clip10)"><path d="M493.435 309.323 503.181 309.323 503.181 310.262 493.435 310.262Z" fill="#7F7F7F" transform="matrix(1 0 0 1.00205 63.7744 75.6438)"/><path d="M504.118 312.298C503.962 312.025 502.944 310.693 502.944 310.693L501.787 310.693C501.264 311.333 499.935 313.751 501.331 320.831 501.605 322.218 501.742 325.469 500.86 327.054L497.379 327.054C498.572 325.587 500.158 322.709 499.688 319.304 499.088 314.961 498.991 312.302 499.608 310.693L493.673 310.693C493.673 310.693 492.654 312.025 492.498 312.298 492.341 312.572 492.381 312.689 492.381 313.081 492.381 313.472 492.381 325.567 492.381 326.076 492.381 326.584 492.525 327.233 492.889 327.407 493.629 327.759 493.355 328.346 494.141 328.346L502.475 328.346C503.262 328.346 502.988 327.759 503.727 327.407 504.091 327.233 504.236 326.584 504.236 326.076 504.236 325.567 504.236 313.472 504.236 313.081 504.236 312.689 504.276 312.572 504.118 312.298Z" fill="#7F7F7F" transform="matrix(1 0 0 1.00205 63.7744 75.6438)"/></g></g></g><path d="M174.098 231.165 175.132 227.03 216.278 227.03 215.244 231.165Z" stroke="#FFC000" stroke-width="0.551379" stroke-miterlimit="8" fill="url(#fill11)" fill-rule="evenodd" transform="matrix(1 0 0 1.00205 63.7744 75.6438)"/><g clip-path="url(#clip12)"><g clip-path="url(#clip13)"><g clip-path="url(#clip14)"><path d="M19.3164 4.80276 13.2306 9.11354 13.2306 4.80276 6.87982 9.30117 6.35075 1.09799 1.0581 1.09799 0 19.6211 20.7192 19.6211 19.3164 4.80276ZM7.87693 14.9544 5.37727 14.9544 5.37727 12.4543 7.87693 12.4543 7.87693 14.9544ZM14.9772 14.9544 12.4768 14.9544 12.4768 12.4543 14.9772 12.4543 14.9772 14.9544Z" fill="#4B4B4B" transform="matrix(1.03787 0 0 1 264.752 149.404)"/></g></g></g></g></g></g></g><rect x="202.5" y="36.5001" width="74" height="57" stroke="#FF0000" stroke-width="1.33333" stroke-miterlimit="8" fill="#FFFFFF"/><g clip-path="url(#clip15)"><g clip-path="url(#clip16)"><g clip-path="url(#clip17)"><path d="M221.837 59.6098C224.534 49.8563 234.627 44.1362 244.381 46.8336 250.589 48.5506 255.44 53.4014 257.157 59.6098L253.663 59.6098C250.963 51.7828 242.43 47.6261 234.603 50.3254 230.246 51.8283 226.822 55.2522 225.319 59.6098ZM253.597 69.606C250.777 77.3927 242.178 81.4189 234.392 78.5987 230.208 77.0836 226.914 73.7892 225.399 69.606L221.898 69.606C224.716 79.3255 234.879 84.9205 244.599 82.1028 250.631 80.3542 255.347 75.638 257.096 69.606Z" fill="url(#fill18)"/><path d="M240.816 73.0121 236.417 63.1228 234.567 66.3192 223.247 66.3192C222.326 66.3192 221.58 65.5728 221.58 64.6521 221.58 63.7314 222.326 62.9851 223.247 62.9851L232.647 62.9851 236.809 55.7906 241.603 66.5741 244.433 62.9501 255.759 62.9748C256.68 62.9748 257.427 63.7211 257.427 64.6418 257.427 65.5625 256.68 66.3089 255.759 66.3089L255.759 66.3089 246.065 66.2863Z" fill="#50E6FF"/></g></g></g><path d="M239.5 93.5001 239.5 133.162" stroke="#FF0000" stroke-width="1.33333" stroke-miterlimit="8" fill="none" fill-rule="evenodd"/><rect x="327.5" y="172.5" width="74" height="56" stroke="#FF0000" stroke-width="1.33333" stroke-miterlimit="8" fill="#FFFFFF"/><g clip-path="url(#clip19)"><g clip-path="url(#clip20)"><g clip-path="url(#clip21)"><path d="M345.837 194.61C348.534 184.856 358.627 179.136 368.381 181.834 374.589 183.551 379.44 188.401 381.157 194.61L377.663 194.61C374.963 186.783 366.43 182.626 358.603 185.325 354.246 186.828 350.822 190.252 349.319 194.61ZM377.597 204.606C374.777 212.393 366.178 216.419 358.392 213.599 354.208 212.084 350.914 208.789 349.399 204.606L345.898 204.606C348.716 214.325 358.879 219.92 368.599 217.103 374.631 215.354 379.347 210.638 381.096 204.606Z" fill="url(#fill22)"/><path d="M364.816 208.012 360.417 198.123 358.567 201.319 347.247 201.319C346.326 201.319 345.58 200.573 345.58 199.652 345.58 198.731 346.326 197.985 347.247 197.985L356.647 197.985 360.809 190.791 365.603 201.574 368.433 197.95 379.759 197.975C380.68 197.975 381.427 198.721 381.427 199.642 381.427 200.563 380.68 201.309 379.759 201.309L379.759 201.309 370.065 201.286Z" fill="#50E6FF"/></g></g></g><path d="M0 0 32.9469 50.711" stroke="#FF0000" stroke-width="1.33333" stroke-miterlimit="8" fill="none" fill-rule="evenodd" transform="matrix(-1 0 0 1 327.447 200.5)"/><rect x="566.5" y="273.5" width="74" height="56" stroke="#FF0000" stroke-width="1.33333" stroke-miterlimit="8" fill="#FFFFFF"/><g clip-path="url(#clip23)"><g clip-path="url(#clip24)"><g clip-path="url(#clip25)"><path d="M0.836611 13.6098C3.53401 3.85632 13.6275-1.8638 23.381 0.833591 29.5894 2.55057 34.4402 7.40142 36.1572 13.6098L32.6628 13.6098C29.9634 5.78284 21.4301 1.62606 13.6031 4.32541 9.24554 5.82825 5.82156 9.25223 4.31872 13.6098ZM32.597 23.606C29.7768 31.3927 21.1783 35.4189 13.3916 32.5987 9.20838 31.0836 5.91395 27.7892 4.39889 23.606L0.898278 23.606C3.71593 33.3255 13.8793 38.9205 23.5987 36.1028 29.6307 34.3542 34.3469 29.638 36.0956 23.606Z" fill="url(#fill26)" transform="matrix(1.02703 0 0 1 584 283)"/><path d="M19.8156 27.0121 15.4167 17.1228 13.5667 20.3192 2.24672 20.3192C1.32603 20.3192 0.579667 19.5728 0.579667 18.6521 0.579667 17.7314 1.32603 16.9851 2.24672 16.9851L11.6468 16.9851 15.8093 9.79061 20.6028 20.5741 23.4333 16.9501 34.7594 16.9748C35.6801 16.9748 36.4265 17.7211 36.4265 18.6418 36.4265 19.5625 35.6801 20.3089 34.7594 20.3089L34.7594 20.3089 25.0654 20.2863Z" fill="#50E6FF" transform="matrix(1.02703 0 0 1 584 283)"/></g></g></g><path d="M0 0 118.161 36.1177" stroke="#FF0000" stroke-width="1.33333" stroke-miterlimit="8" fill="none" fill-rule="evenodd" transform="matrix(-1 0 0 1 566.661 301.5)"/><path d="M496.5 270.5 507.774 367.872" stroke="#FF0000" stroke-width="1.33333" stroke-miterlimit="8" fill="none" fill-rule="evenodd"/><rect x="459.5" y="214.5" width="74" height="56" stroke="#FF0000" stroke-width="1.33333" stroke-miterlimit="8" fill="#FFFFFF"/><g clip-path="url(#clip27)"><g clip-path="url(#clip28)"><g clip-path="url(#clip29)"><path d="M477.837 237.61C480.534 227.856 490.627 222.136 500.381 224.834 506.589 226.551 511.44 231.401 513.157 237.61L509.663 237.61C506.963 229.783 498.43 225.626 490.603 228.325 486.246 229.828 482.822 233.252 481.319 237.61ZM509.597 247.606C506.777 255.393 498.178 259.419 490.392 256.599 486.208 255.084 482.914 251.789 481.399 247.606L477.898 247.606C480.716 257.325 490.879 262.92 500.599 260.103 506.631 258.354 511.347 253.638 513.096 247.606Z" fill="url(#fill30)"/><path d="M496.816 251.012 492.417 241.123 490.567 244.319 479.247 244.319C478.326 244.319 477.58 243.573 477.58 242.652 477.58 241.731 478.326 240.985 479.247 240.985L488.647 240.985 492.809 233.791 497.603 244.574 500.433 240.95 511.759 240.975C512.68 240.975 513.427 241.721 513.427 242.642 513.427 243.563 512.68 244.309 511.759 244.309L511.759 244.309 502.065 244.286Z" fill="#50E6FF"/></g></g></g><rect x="352.5" y="430.5" width="74" height="57" stroke="#FF0000" stroke-width="1.33333" stroke-miterlimit="8" fill="#FFFFFF"/><g clip-path="url(#clip31)"><g clip-path="url(#clip32)"><g clip-path="url(#clip33)"><path d="M370.837 453.61C373.534 443.856 383.627 438.136 393.381 440.834 399.589 442.551 404.44 447.401 406.157 453.61L402.663 453.61C399.963 445.783 391.43 441.626 383.603 444.325 379.246 445.828 375.822 449.252 374.319 453.61ZM402.597 463.606C399.777 471.393 391.178 475.419 383.392 472.599 379.208 471.084 375.914 467.789 374.399 463.606L370.898 463.606C373.716 473.325 383.879 478.92 393.599 476.103 399.631 474.354 404.347 469.638 406.096 463.606Z" fill="url(#fill34)"/><path d="M389.816 467.012 385.417 457.123 383.567 460.319 372.247 460.319C371.326 460.319 370.58 459.573 370.58 458.652 370.58 457.731 371.326 456.985 372.247 456.985L381.647 456.985 385.809 449.791 390.603 460.574 393.433 456.95 404.759 456.975C405.68 456.975 406.427 457.721 406.427 458.642 406.427 459.563 405.68 460.309 404.759 460.309L404.759 460.309 395.065 460.286Z" fill="#50E6FF"/></g></g></g><path d="M352.294 459.348 294.5 424.5" stroke="#FF0000" stroke-width="1.33333" stroke-miterlimit="8" fill="none" fill-rule="evenodd"/><rect x="271.5" y="495.5" width="74" height="56" stroke="#FF0000" stroke-width="1.33333" stroke-miterlimit="8" fill="#FFFFFF"/><g clip-path="url(#clip35)"><g clip-path="url(#clip36)"><g clip-path="url(#clip37)"><path d="M0.836611 13.6098C3.53401 3.85632 13.6275-1.8638 23.381 0.833591 29.5894 2.55057 34.4402 7.40142 36.1572 13.6098L32.6628 13.6098C29.9634 5.78284 21.4301 1.62606 13.6031 4.32541 9.24554 5.82825 5.82156 9.25223 4.31872 13.6098ZM32.597 23.606C29.7768 31.3927 21.1783 35.4189 13.3916 32.5987 9.20838 31.0836 5.91395 27.7892 4.39889 23.606L0.898278 23.606C3.71593 33.3255 13.8793 38.9205 23.5987 36.1028 29.6307 34.3542 34.3469 29.638 36.0956 23.606Z" fill="url(#fill38)" transform="matrix(1.02703 0 0 1 289 504)"/><path d="M19.8156 27.0121 15.4167 17.1228 13.5667 20.3192 2.24672 20.3192C1.32603 20.3192 0.579667 19.5728 0.579667 18.6521 0.579667 17.7314 1.32603 16.9851 2.24672 16.9851L11.6468 16.9851 15.8093 9.79061 20.6028 20.5741 23.4333 16.9501 34.7594 16.9748C35.6801 16.9748 36.4265 17.7211 36.4265 18.6418 36.4265 19.5625 35.6801 20.3089 34.7594 20.3089L34.7594 20.3089 25.0654 20.2863Z" fill="#50E6FF" transform="matrix(1.02703 0 0 1 289 504)"/></g></g></g><path d="M308.859 494.853 258.5 477.5" stroke="#FF0000" stroke-width="1.33333" stroke-miterlimit="8" fill="none" fill-rule="evenodd"/><rect x="101.5" y="471.5" width="74" height="57" stroke="#FF0000" stroke-width="1.33333" stroke-miterlimit="8" fill="#FFFFFF"/><g clip-path="url(#clip39)"><g clip-path="url(#clip40)"><g clip-path="url(#clip41)"><path d="M120.837 494.61C123.534 484.856 133.627 479.136 143.381 481.834 149.589 483.551 154.44 488.401 156.157 494.61L152.663 494.61C149.963 486.783 141.43 482.626 133.603 485.325 129.246 486.828 125.822 490.252 124.319 494.61ZM152.597 504.606C149.777 512.393 141.178 516.419 133.392 513.599 129.208 512.084 125.914 508.789 124.399 504.606L120.898 504.606C123.716 514.325 133.879 519.92 143.599 517.103 149.631 515.354 154.347 510.638 156.096 504.606Z" fill="url(#fill42)"/><path d="M139.816 508.012 135.417 498.123 133.567 501.319 122.247 501.319C121.326 501.319 120.58 500.573 120.58 499.652 120.58 498.731 121.326 497.985 122.247 497.985L131.647 497.985 135.809 490.791 140.603 501.574 143.433 497.95 154.759 497.975C155.68 497.975 156.426 498.721 156.426 499.642 156.426 500.563 155.68 501.309 154.759 501.309L154.759 501.309 145.065 501.286Z" fill="#50E6FF"/></g></g></g><path d="M0 0 51.7119 37.2319" stroke="#FF0000" stroke-width="1.33333" stroke-miterlimit="8" fill="none" fill-rule="evenodd" transform="matrix(1 0 0 -1 138.5 471.732)"/><rect x="69.5001" y="283.5" width="74" height="56" stroke="#FF0000" stroke-width="1.33333" stroke-miterlimit="8" fill="#FFFFFF"/><g clip-path="url(#clip43)"><g clip-path="url(#clip44)"><g clip-path="url(#clip45)"><path d="M87.8366 305.61C90.534 295.856 100.627 290.136 110.381 292.834 116.589 294.551 121.44 299.401 123.157 305.61L119.663 305.61C116.963 297.783 108.43 293.626 100.603 296.325 96.2455 297.828 92.8216 301.252 91.3187 305.61ZM119.597 315.606C116.777 323.393 108.178 327.419 100.392 324.599 96.2084 323.084 92.9139 319.789 91.3989 315.606L87.8983 315.606C90.7159 325.325 100.879 330.92 110.599 328.103 116.631 326.354 121.347 321.638 123.096 315.606Z" fill="url(#fill46)"/><path d="M106.816 319.012 102.417 309.123 100.567 312.319 89.2467 312.319C88.326 312.319 87.5797 311.573 87.5797 310.652 87.5797 309.731 88.326 308.985 89.2467 308.985L98.6468 308.985 102.809 301.791 107.603 312.574 110.433 308.95 121.759 308.975C122.68 308.975 123.426 309.721 123.426 310.642 123.426 311.563 122.68 312.309 121.759 312.309L121.759 312.309 112.065 312.286Z" fill="#50E6FF"/></g></g></g><path d="M143.5 311.5 190.58 311.5" stroke="#FF0000" stroke-width="1.33333" stroke-miterlimit="8" fill="none" fill-rule="evenodd"/><g clip-path="url(#clip47)"><g clip-path="url(#clip48)"><g clip-path="url(#clip49)"><path d="M549.434 308.232 538.255 308.232 538.255 304.97C532.105 295.55 518.296 274.619 501.085 242.968 485.002 219.568 476.307 170.386 482.621 163.598L483.578 162.563C489.884 155.783 494.228 149.167 493.2 147.867 492.204 146.583 486.194 151.067 479.881 157.87L478.02 159.855C471.699 166.667 439.052 157.286 426.534 153.355 411.9 148.801 402.153 145.384 392.407 139.67 382.661 133.963 345.577 112.448 345.577 102.398L345.577 75.254C345.576 65.22 344.354 57 342.844 57 341.35 57 340.127 65.22 340.127 75.254L340.127 102.398C340.127 112.447 313.956 131.682 280.81 145.952 230.126 161.933 213.989 166.666 207.684 159.854L205.824 157.853C199.496 151.066 194.342 145.515 194.342 145.515 194.342 145.515 193.501 146.581 192.481 147.866 191.477 149.166 195.805 155.783 202.133 162.57L203.091 163.597C209.397 170.385 213.071 189.317 185.779 246.399 176.547 264.584 156.011 298.796 150.889 308.231L136.574 308.231C127.786 308.231 120.592 309.982 120.592 312.131 120.592 314.279 127.785 316.031 136.574 316.031L146.78 316.031 146.78 321.02C152.945 330.448 166.754 351.379 183.95 383.03 200.04 406.43 208.735 455.612 202.422 462.4L201.464 463.435C195.151 470.215 190.808 476.847 191.835 478.131 192.839 479.415 198.841 474.931 205.154 468.136L207.014 466.135C213.335 459.347 245.967 468.712 258.516 472.635 273.134 477.196 282.88 480.613 292.627 486.335 302.373 492.033 339.458 513.565 339.458 523.615L339.458 550.735C339.458 560.777 340.68 568.997 342.198 568.997 343.693 568.997 344.915 560.777 344.915 550.735L344.915 523.615C344.915 513.565 371.086 494.315 404.224 480.061 454.908 464.064 471.045 459.347 477.365 466.135L479.219 468.136C485.547 474.931 490.709 480.498 490.709 480.498 490.709 480.498 491.534 479.416 492.553 478.131 493.557 476.847 489.229 470.214 482.909 463.419L481.951 462.4C475.638 455.612 471.964 436.68 499.263 379.598 509.212 360.005 532.308 321.752 535.055 316.031L549.433 316.031C558.213 316.031 565.407 314.279 565.407 312.115 565.407 309.984 558.214 308.232 549.434 308.232ZM465.3 309.252 459.057 309.252C450.47 309.252 439.954 302.137 435.665 293.45L417.901 257.416C413.596 248.72 415.262 236.032 421.591 229.236L423.077 227.648C429.39 220.852 438.054 222.402 442.359 231.104L473.077 293.433C477.381 302.137 473.863 309.252 465.3 309.252ZM431.158 293.434C435.447 302.137 431.936 309.252 423.358 309.252L417.06 309.252C408.482 309.252 397.965 302.137 393.668 293.45L390.461 286.918C386.164 278.231 387.83 265.55 394.135 258.754L395.677 257.104C401.998 250.316 410.662 251.88 414.967 260.584L431.158 293.434ZM389.169 293.45C393.458 302.137 389.947 309.252 381.376 309.252L362.78 309.252C354.21 309.252 352.357 303.702 358.67 296.906L368.229 286.63C374.542 279.835 383.222 281.399 387.511 290.086L389.169 293.45ZM344.915 341.954C344.915 331.905 350.084 329.25 356.397 336.038L362.515 342.616C365.667 346.002 370.517 349.233 369.957 352.588 369.397 355.951 363.465 359.47 359.464 361.167 355.385 362.902 350.186 365.167 347.538 362.856 345.001 360.638 344.915 354.005 344.915 349.101L344.915 341.954ZM367.575 339.37 358.016 329.087C351.695 322.299 353.54 316.748 362.118 316.748L380.723 316.748C389.279 316.748 392.804 323.855 388.5 332.566L386.857 335.905C384.872 339.922 382.895 345.269 379.704 346.119 375.982 347.115 370.961 343.02 367.575 339.37ZM389.8 339.082 393.015 332.566C397.296 323.855 407.837 316.748 416.407 316.748L422.704 316.748C431.283 316.748 434.785 323.855 430.489 332.566L414.297 365.431C411.876 370.32 408.389 376.415 404.395 376.555 401.297 376.68 397.779 371.853 395.007 368.887L393.489 367.237C387.176 360.449 385.51 347.785 389.8 339.082ZM416.188 400.352 417.387 401.636C423.716 408.432 422.283 416.8 414.226 420.233L359.572 443.532C355.54 445.252 350.192 447.214 347.537 445.05 344.891 442.886 344.914 436.62 344.914 431.622 344.914 421.651 351.508 410.666 359.572 407.234L390.04 394.25C398.121 390.8 409.875 393.564 416.188 400.352ZM420.922 396.748C414.609 389.968 412.943 377.287 417.24 368.584L435.004 332.566C439.286 323.855 449.826 316.748 458.388 316.748L464.631 316.748C473.217 316.748 476.712 323.855 472.423 332.566L441.698 394.887C439.028 400.321 434.848 406.68 430.38 406.237 427.702 405.98 424.776 400.904 422.409 398.351L420.922 396.748ZM495.721 247.538C530.331 305.181 523.527 309.252 514.949 309.252L501.871 309.252C493.307 309.252 473.801 287.487 461.61 259.517 451.381 244.681 443.254 205.922 449.575 199.15L455.522 192.736C469.892 177.338 475.746 207.02 495.721 247.538ZM345.576 145.718C345.576 135.668 348.052 126.522 360.242 133.714 360.242 133.714 380.419 148.714 402.651 157.363 424.852 166.019 447.349 170.845 447.349 170.845 461.127 174.481 456.831 182.646 450.509 189.45L444.905 195.467C438.592 202.271 421.007 205.68 389.488 193.887 357.985 183.604 345.623 168.005 345.576 152.131L345.576 145.718ZM346.931 180.95C349.593 177.696 365.123 195.032 386.888 202.263 401.499 206.832 423.528 209.767 424.245 212.912 425.062 216.415 421.388 220.782 418.048 224.355L416.849 225.663C410.544 232.451 398.782 235.198 390.709 231.766L360.241 218.766C352.161 215.334 345.575 204.349 345.575 194.37 345.576 190.299 345.078 183.2 346.931 180.95ZM346.931 222.814C349.609 219.864 355.68 221.685 360.242 223.632L387.488 235.23C391.972 237.154 397.452 239.87 397.607 243.731 397.747 246.797 393.434 250.838 390.655 253.835L389.379 255.213C383.081 261.985 371.303 264.733 363.246 261.301L360.242 260.032C352.162 256.584 345.576 245.584 345.576 235.581 345.576 231.221 344.86 225.064 346.931 222.814ZM346.588 263.9C349.282 261.004 355.634 262.935 360.118 264.834 364.166 266.554 369.148 269.248 369.677 272.65 370.175 275.982 366.298 280.03 363.177 283.4L357.066 289.954C350.754 296.75 345.576 294.087 345.576 284.046L345.576 276.9C345.576 272.47 344.486 266.181 346.588 263.9ZM340.127 284.046C340.127 294.087 334.951 296.75 328.637 289.954L322.526 283.384C319.366 279.998 314.532 276.767 315.092 273.412 315.637 270.049 321.584 266.546 325.57 264.833 329.657 263.097 334.857 260.833 337.496 263.136 340.025 265.347 340.126 271.987 340.126 276.899L340.126 284.046ZM317.46 286.63 327.035 296.906C333.34 303.702 331.495 309.252 322.924 309.252L304.32 309.252C295.756 309.252 292.238 302.137 296.535 293.434L298.177 290.087C300.163 286.07 302.155 280.731 305.331 279.881 309.052 278.885 314.073 282.972 317.46 286.63ZM295.243 286.918 292.028 293.434C287.738 302.137 277.198 309.252 268.636 309.252L262.331 309.252C253.753 309.252 250.257 302.137 254.547 293.434L270.739 260.569C273.168 255.68 276.663 249.585 280.656 249.437 283.739 249.335 287.257 254.138 290.029 257.104L291.555 258.754C297.866 265.551 299.524 278.231 295.243 286.918ZM268.854 225.648 267.655 224.356C261.319 217.568 262.751 209.2 270.808 205.751L325.462 182.468C329.495 180.748 334.858 178.786 337.497 180.95 340.167 183.114 340.127 189.38 340.127 194.37 340.127 204.349 333.526 215.334 325.461 218.766L294.993 231.75C286.929 235.199 275.16 232.451 268.854 225.648ZM264.113 229.236C270.426 236.032 272.092 248.72 267.795 257.416L250.047 293.434C245.75 302.137 235.217 309.252 226.647 309.252L220.412 309.252C211.841 309.252 208.323 302.137 212.62 293.434L243.344 231.105C246.03 225.671 250.186 219.32 254.67 219.763 257.332 220.019 260.26 225.088 262.626 227.649L264.113 229.236ZM219.75 316.748 225.977 316.748C234.555 316.748 245.088 323.855 249.377 332.55L267.149 368.584C271.438 377.287 269.772 389.968 263.443 396.748L261.956 398.352C255.651 405.148 246.963 403.598 242.69 394.888L211.957 332.567C207.661 323.855 211.172 316.748 219.75 316.748ZM253.877 332.566C249.595 323.855 253.099 316.748 261.677 316.748L267.983 316.748C276.554 316.748 287.07 323.855 291.359 332.55L294.582 339.082C298.871 347.769 297.213 360.45 290.884 367.238L289.374 368.88C283.045 375.684 274.365 374.12 270.076 365.416L253.877 332.566ZM295.866 332.55C291.577 323.855 295.088 316.748 303.666 316.748L322.256 316.748C330.834 316.748 332.679 322.298 326.366 329.087L316.807 339.37C310.494 346.165 301.814 344.601 297.525 335.906L295.866 332.55ZM340.127 235.581C340.127 245.584 333.526 256.583 325.461 260.032L322.441 261.301C318.424 263.021 312.36 265.753 307.604 264.663 302.871 263.55 299.476 258.599 296.317 255.197L295.055 253.835C288.75 247.039 290.167 238.671 298.216 235.238L325.461 223.632C329.494 221.904 335.169 219.498 337.838 221.654 340.493 223.834 340.127 230.583 340.127 235.581ZM238.355 170.846 325.461 133.715C329.494 131.987 334.514 129.316 337.169 131.489 339.831 133.668 340.126 140.698 340.126 145.719L340.126 152.133C339.114 170.302 324.184 179.433 297.554 188.565 274.8 198.466 247.104 202.273 240.783 195.469L235.178 189.436C231.924 185.964 226.669 180.966 227.363 177.534 228.017 174.271 234.432 172.504 238.355 170.846ZM190.169 253.251C205.769 222.433 216.263 184.889 219.891 184.367 223.284 183.9 227.122 189.45 230.182 192.735L236.113 199.133C242.449 205.921 230.524 245.684 226.227 254.387 207.716 288.062 192.404 309.251 183.818 309.251L170.748 309.251C162.177 309.252 171.643 281.204 190.169 253.251ZM189.313 378.454C154.704 320.819 161.507 316.748 170.086 316.748L183.164 316.748C191.742 316.748 211.234 338.521 223.433 366.483 233.653 381.319 241.796 420.07 235.46 426.866L229.513 433.264C215.142 448.654 209.288 418.98 189.313 378.454ZM339.458 480.282C339.458 490.332 336.982 499.455 324.808 492.301 324.808 492.301 304.616 477.286 282.391 468.637 260.182 459.973 237.685 455.17 237.685 455.17 223.907 451.519 228.203 443.354 234.524 436.566L240.129 430.533C246.45 423.721 264.027 420.32 295.553 432.105 327.065 442.388 339.41 457.988 339.457 473.868L339.457 480.282ZM338.111 445.05C335.425 448.304 319.927 430.984 298.154 423.737 283.535 419.183 261.513 416.233 260.789 413.087 259.987 409.585 263.654 405.217 266.986 401.637L268.185 400.337C274.49 393.565 286.26 390.801 294.325 394.234L324.808 407.234C332.872 410.666 339.458 421.651 339.458 431.622 339.458 435.701 339.956 442.8 338.111 445.05ZM338.111 403.201C335.41 406.136 329.354 404.315 324.808 402.368L297.555 390.769C293.063 388.839 287.599 386.138 287.427 382.269 287.287 379.217 291.607 375.155 294.394 372.165L295.663 370.787C301.968 363.999 313.738 361.251 321.788 364.699L324.808 365.984C332.872 369.416 339.458 380.416 339.458 390.419 339.458 394.755 340.19 400.936 338.111 403.201ZM338.446 362.1C335.752 364.988 329.4 363.065 324.909 361.166 320.885 359.438 315.887 356.752 315.365 353.35 314.859 350.018 318.743 345.97 321.857 342.615L327.968 336.037C334.288 329.249 339.458 331.904 339.458 341.953L339.458 349.099C339.458 353.522 340.548 359.819 338.446 362.1ZM344.915 390.419C344.915 380.416 351.509 369.417 359.573 365.968L362.578 364.699C366.61 362.979 372.682 360.231 377.415 361.337 382.163 362.45 385.557 367.417 388.717 370.803L389.979 372.165C396.307 378.953 394.875 387.321 386.819 390.754L359.573 402.368C355.541 404.096 349.866 406.502 347.211 404.338 344.565 402.166 344.915 395.432 344.915 390.419ZM446.688 455.169 359.573 492.3C355.541 494.021 350.52 496.684 347.865 494.503 345.203 492.332 344.915 485.302 344.915 480.281L344.915 473.867C345.904 455.699 360.85 446.567 387.503 437.436 410.241 427.534 437.93 423.72 444.251 430.532L449.856 436.565C453.11 440.037 458.364 445.035 457.671 448.467 457.017 451.721 450.603 453.488 446.688 455.169ZM494.88 372.765C479.272 403.567 468.771 441.103 465.144 441.633 461.751 442.1 457.92 436.55 454.869 433.265L448.906 426.867C442.593 420.071 454.511 380.316 458.816 371.605 477.32 337.938 492.639 316.749 501.225 316.749L514.295 316.749C522.858 316.748 513.392 344.788 494.88 372.765Z" fill="#4B4B4B" fill-opacity="0.14"/></g></g></g></g></svg>