<svg width="619" height="431" xmlns="http://www.w3.org/2000/svg" xmlns:xlink="http://www.w3.org/1999/xlink" overflow="hidden"><defs><clipPath id="clip0"><rect x="60" y="550" width="619" height="431"/></clipPath><linearGradient x1="530.5" y1="861.5" x2="488.5" y2="861.5" gradientUnits="userSpaceOnUse" spreadMethod="reflect" id="fill1"><stop offset="0" stop-color="#ED7D31" stop-opacity="0.501961"/><stop offset="0.5" stop-color="#ED7D31" stop-opacity="0.501961"/><stop offset="1" stop-color="#ED7D31" stop-opacity="0.501961"/></linearGradient><linearGradient x1="325" y1="731.5" x2="325" y2="773.5" gradientUnits="userSpaceOnUse" spreadMethod="reflect" id="fill2"><stop offset="0" stop-color="#ED7D31" stop-opacity="0.501961"/><stop offset="0.5" stop-color="#ED7D31" stop-opacity="0.501961"/><stop offset="1" stop-color="#ED7D31" stop-opacity="0.501961"/></linearGradient><clipPath id="clip3"><rect x="155" y="882" width="18" height="18"/></clipPath><clipPath id="clip4"><rect x="155" y="882" width="18" height="18"/></clipPath><clipPath id="clip5"><rect x="155" y="882" width="18" height="18"/></clipPath><linearGradient x1="163.999" y1="882.081" x2="163.999" y2="899.919" gradientUnits="userSpaceOnUse" spreadMethod="pad" id="fill6"><stop offset="0" stop-color="#B3B2B3"/><stop offset="0.216" stop-color="#AFAEAF"/><stop offset="0.44" stop-color="#A2A2A2"/><stop offset="0.577" stop-color="#979797"/><stop offset="1" stop-color="#979797"/></linearGradient><linearGradient x1="349.5" y1="899.5" x2="349.5" y2="941.5" gradientUnits="userSpaceOnUse" spreadMethod="reflect" id="fill7"><stop offset="0" stop-color="#70AD47" stop-opacity="0.501961"/><stop offset="0.5" stop-color="#70AD47" stop-opacity="0.501961"/><stop offset="1" stop-color="#70AD47" stop-opacity="0.501961"/></linearGradient></defs><g clip-path="url(#clip0)" transform="translate(-60 -550)"><rect x="65" y="579" width="278" height="242" fill="#F2F2F2"/><text font-family="Calibri,Calibri_MSFontService,sans-serif" font-weight="400" font-size="16" transform="translate(76.9676 599)">Property <tspan font-family="Yu Gothic,Yu Gothic_MSFontService,sans-serif" font-size="16" x="60.0733" y="0">に</tspan><tspan font-family="Yu Gothic,Yu Gothic_MSFontService,sans-serif" font-size="16" x="79.74" y="0">“</tspan><tspan font-size="16" x="86.4067" y="0">Telemetry</tspan><tspan font-family="Yu Gothic,Yu Gothic_MSFontService,sans-serif" font-size="16" x="151.313" y="0">”マークを追加</tspan></text><rect x="61.5001" y="552.5" width="605" height="427" stroke="#D9D9D9" stroke-width="1.33333" stroke-miterlimit="8" fill="none"/><rect x="119.5" y="657.5" width="169" height="116" stroke="#000000" stroke-width="1.33333" stroke-miterlimit="8" fill="#FFFFFF"/><text font-family="Consolas,Consolas_MSFontService,sans-serif" font-weight="400" font-size="16" transform="translate(168.577 677)">Property<tspan font-size="13" x="-39.5" y="17">*Domain name</tspan><tspan font-size="13" x="-39.5" y="33">*Class Name</tspan><tspan font-size="13" x="-39.5" y="49">*Name</tspan><tspan font-size="13" x="-32.1667" y="65">Description</tspan><tspan fill="#FF0000" font-weight="700" font-size="13" x="-32.1667" y="81">IsTelemetry:boolean</tspan></text><rect x="354" y="613" width="301" height="204"/><text fill="#569CD6" font-family="Consolas,Consolas_MSFontService,sans-serif" font-weight="400" font-size="13" transform="translate(363.534 630)">domain<tspan fill="#D4D4D4" font-size="13" x="44" y="0">: </tspan><tspan fill="#CE9178" font-family="Yu Gothic,Yu Gothic_MSFontService,sans-serif" font-size="13" x="58.6667" y="0">装置管理</tspan><tspan font-size="13" x="14.6667" y="17">class</tspan><tspan fill="#D4D4D4" font-size="13" x="51.3333" y="17">:</tspan><tspan font-family="Yu Gothic,Yu Gothic_MSFontService,sans-serif" font-size="13" x="29.3333" y="32">装置</tspan><tspan fill="#D4D4D4" font-size="13" x="56" y="32">:</tspan><tspan font-size="13" x="44" y="48">description</tspan><tspan fill="#D4D4D4" font-size="13" x="124.667" y="48">: </tspan><tspan fill="#CE9178" font-family="Yu Gothic,Yu Gothic_MSFontService,sans-serif" font-size="13" x="139.333" y="48">管理対象の装置</tspan><tspan font-size="13" x="44" y="65">property</tspan><tspan fill="#D4D4D4" font-size="13" x="102.667" y="65">:</tspan><tspan font-family="Yu Gothic,Yu Gothic_MSFontService,sans-serif" font-size="13" x="58.6667" y="80">装置</tspan><tspan font-size="13" x="85.3333" y="80">ID</tspan><tspan fill="#D4D4D4" font-size="13" x="100" y="80">:</tspan><tspan font-size="13" x="73.3333" y="96">datatype</tspan><tspan fill="#D4D4D4" font-size="13" x="132" y="96">: </tspan><tspan fill="#CE9178" font-family="Yu Gothic,Yu Gothic_MSFontService,sans-serif" font-size="13" x="146.667" y="96">装置</tspan><tspan fill="#CE9178" font-size="13" x="173.333" y="96">ID</tspan><tspan font-size="13" x="73.3333" y="112">description</tspan><tspan fill="#D4D4D4" font-size="13" x="154" y="112">: </tspan><tspan fill="#CE9178" font-family="Yu Gothic,Yu Gothic_MSFontService,sans-serif" font-size="13" x="168.667" y="112">装置を一位</tspan><tspan fill="#CE9178" font-family="Yu Gothic,Yu Gothic_MSFontService,sans-serif" font-size="13" x="235.333" y="112">に</tspan><tspan fill="#CE9178" font-size="13" x="248.667" y="112">…</tspan><tspan font-family="Yu Gothic,Yu Gothic_MSFontService,sans-serif" font-size="13" x="58.6667" y="128">温度</tspan><tspan fill="#D4D4D4" font-size="13" x="85.3333" y="128">:</tspan><tspan font-size="13" x="73.3333" y="144">datetype</tspan><tspan fill="#D4D4D4" font-size="13" x="132" y="144">: </tspan><tspan fill="#CE9178" font-family="Yu Gothic,Yu Gothic_MSFontService,sans-serif" font-size="13" x="146.667" y="144">温度</tspan><tspan font-size="13" x="73.3333" y="160">description</tspan><tspan fill="#D4D4D4" font-size="13" x="154" y="160">: </tspan><tspan fill="#CE9178" font-family="Yu Gothic,Yu Gothic_MSFontService,sans-serif" font-size="13" x="168.667" y="160">装置の槽内</tspan><tspan fill="#CE9178" font-family="Yu Gothic,Yu Gothic_MSFontService,sans-serif" font-size="13" x="235.333" y="160">温度</tspan><tspan font-size="13" x="73.3333" y="177">IsTelemetry</tspan><tspan font-size="13" x="154" y="177">: </tspan><tspan fill="#CE9178" font-size="13" x="168.667" y="177">true</tspan></text><path d="M424.5 795.667C424.5 792.813 426.813 790.5 429.667 790.5L572.333 790.5C575.187 790.5 577.5 792.813 577.5 795.667L577.5 816.333C577.5 819.187 575.187 821.5 572.333 821.5L429.667 821.5C426.813 821.5 424.5 819.187 424.5 816.333Z" stroke="#FF0000" stroke-width="1.33333" stroke-miterlimit="8" fill="none" fill-rule="evenodd"/><text font-family="Yu Gothic,Yu Gothic_MSFontService,sans-serif" font-weight="400" font-size="16" transform="translate(369.6 599)">アプリケーションドメイン<tspan font-size="16" x="192" y="0">の</tspan><tspan font-family="Calibri,Calibri_MSFontService,sans-serif" font-size="16" x="208" y="0">YAML</tspan><tspan font-size="16" x="244.313" y="0">定義</tspan></text><path d="M377.5 894.334C377.5 887.246 383.246 881.5 390.334 881.5L625.666 881.5C632.754 881.5 638.5 887.246 638.5 894.334L638.5 945.666C638.5 952.754 632.754 958.5 625.666 958.5L390.334 958.5C383.246 958.5 377.5 952.754 377.5 945.666Z" stroke="#AE5A21" stroke-width="1.33333" stroke-miterlimit="8" stroke-opacity="0.501961" fill="#ED7D31" fill-rule="evenodd" fill-opacity="0.501961"/><text font-family="Calibri,Calibri_MSFontService,sans-serif" font-weight="400" font-size="13" transform="translate(404.813 916)">IsTelemetry<tspan font-family="Yu Gothic,Yu Gothic_MSFontService,sans-serif" font-size="13" x="66.8333" y="0">が</tspan><tspan font-size="13" x="83.1667" y="0">true</tspan><tspan font-family="Yu Gothic,Yu Gothic_MSFontService,sans-serif" font-size="13" x="109" y="0">の特徴値に</tspan><tspan font-size="13" x="178.667" y="0">Time </tspan><tspan font-size="13" x="2.83334" y="16">Series</tspan><tspan font-size="13" x="38.1667" y="16">Insights</tspan><tspan font-family="Yu Gothic,Yu Gothic_MSFontService,sans-serif" font-size="13" x="82.6667" y="16">の仕掛けを織り込む</tspan></text><path d="M520 831.5 520 832.813 499 832.813 499 831.5ZM520 834.125 520 836.75 499 836.75 499 834.125ZM520 838.063 520 870.5 530.5 870.5 509.5 891.5 488.5 870.5 499 870.5 499 838.063Z" stroke="#ED7D31" stroke-width="0.666667" stroke-miterlimit="8" stroke-opacity="0.501961" fill="url(#fill1)" fill-rule="evenodd"/><path d="M295.5 742 296.813 742 296.813 763 295.5 763ZM298.125 742 300.75 742 300.75 763 298.125 763ZM302.063 742 333.5 742 333.5 731.5 354.5 752.5 333.5 773.5 333.5 763 302.063 763Z" stroke="#ED7D31" stroke-width="0.666667" stroke-miterlimit="8" stroke-opacity="0.501961" fill="url(#fill2)" fill-rule="evenodd"/><path d="M140.5 894.334C140.5 887.246 146.246 881.5 153.334 881.5L302.667 881.5C309.754 881.5 315.5 887.246 315.5 894.334L315.5 945.667C315.5 952.754 309.754 958.5 302.667 958.5L153.334 958.5C146.246 958.5 140.5 952.754 140.5 945.667Z" stroke="#70AD47" stroke-width="1.33333" stroke-miterlimit="8" fill="#FFFFFF" fill-rule="evenodd"/><text font-family="Calibri,Calibri_MSFontService,sans-serif" font-weight="400" font-size="13" transform="translate(154.999 916)">Time Series<tspan font-size="13" x="65.1667" y="0">Insight</tspan><tspan font-family="Yu Gothic,Yu Gothic_MSFontService,sans-serif" font-size="13" x="104.5" y="0">の利用</tspan><tspan font-family="Yu Gothic,Yu Gothic_MSFontService,sans-serif" font-size="13" x="12.2467" y="16">方法に従った設定等</tspan></text><g clip-path="url(#clip3)"><g clip-path="url(#clip4)"><g clip-path="url(#clip5)"><path d="M155.407 888.621C156.719 883.876 161.63 881.093 166.375 882.406 169.395 883.241 171.755 885.601 172.59 888.621L170.89 888.621C169.577 884.813 165.425 882.791 161.618 884.104 159.498 884.835 157.832 886.501 157.101 888.621ZM170.858 893.484C169.486 897.272 165.303 899.231 161.515 897.859 159.48 897.122 157.877 895.519 157.14 893.484L155.437 893.484C156.808 898.212 161.752 900.934 166.48 899.564 169.415 898.713 171.709 896.419 172.56 893.484Z" fill="url(#fill6)"/><path d="M164.64 895.141 162.5 890.33 161.6 891.885 156.093 891.885C155.645 891.885 155.282 891.522 155.282 891.074 155.282 890.626 155.645 890.263 156.093 890.263L160.666 890.263 162.691 886.763 165.023 892.009 166.4 890.246 171.91 890.258C172.358 890.258 172.721 890.621 172.721 891.069 172.721 891.517 172.358 891.88 171.91 891.88L171.91 891.88 167.194 891.869Z" fill="#50E6FF"/></g></g></g><path d="M305.5 910 306.813 910 306.813 931 305.5 931ZM308.125 910 310.75 910 310.75 931 308.125 931ZM312.063 910 372.5 910 372.5 899.5 393.5 920.5 372.5 941.5 372.5 931 312.063 931Z" stroke="#70AD47" stroke-width="0.666667" stroke-miterlimit="8" stroke-opacity="0.501961" fill="url(#fill7)" fill-rule="evenodd"/></g></svg>