<svg width="608" height="518" xmlns="http://www.w3.org/2000/svg" xmlns:xlink="http://www.w3.org/1999/xlink" overflow="hidden"><defs><clipPath id="clip0"><rect x="56" y="93" width="608" height="518"/></clipPath></defs><g clip-path="url(#clip0)" transform="translate(-56 -93)"><rect x="58.5001" y="94.5001" width="604" height="516" stroke="#D9D9D9" stroke-width="1.33333" stroke-miterlimit="8" fill="none"/><rect x="149.5" y="150.5" width="127" height="87" stroke="#000000" stroke-width="1.33333" stroke-miterlimit="8" fill="#FFFFFF"/><text font-family="Yu Gothic,Yu Gothic_MSFontService,sans-serif" font-weight="400" font-size="13" transform="translate(199.085 166)">工場<tspan font-family="Consolas,Consolas_MSFontService,sans-serif" font-size="12" x="-40.2467" y="15">*</tspan><tspan font-size="12" x="-33.58" y="15">工場</tspan><tspan font-family="Consolas,Consolas_MSFontService,sans-serif" font-size="12" x="-9.58" y="15">ID</tspan><tspan font-size="12" x="-28.2467" y="29">工場名</tspan><tspan font-size="12" x="-28.2467" y="44">所在地</tspan><tspan font-size="12" x="-28.2467" y="58">消費電力</tspan><tspan font-family="Consolas,Consolas_MSFontService,sans-serif" font-size="12" x="19.7533" y="58">(M)</tspan></text><rect x="149.5" y="285.5" width="127" height="88" stroke="#000000" stroke-width="1.33333" stroke-miterlimit="8" fill="#FFFFFF"/><text font-family="Yu Gothic,Yu Gothic_MSFontService,sans-serif" font-weight="400" font-size="13" transform="translate(179.085 302)">生産ライン<tspan font-family="Consolas,Consolas_MSFontService,sans-serif" font-size="12" x="-20.2467" y="15">*</tspan><tspan font-size="12" x="-13.58" y="15">生産ライン</tspan><tspan font-family="Consolas,Consolas_MSFontService,sans-serif" font-size="12" x="46.42" y="15">ID</tspan><tspan font-size="12" x="-8.24667" y="29">消費電力</tspan><tspan font-family="Consolas,Consolas_MSFontService,sans-serif" font-size="12" x="39.7533" y="29">(M)</tspan><tspan font-size="12" x="-8.24667" y="44">稼働状態</tspan></text><path d="M212.5 237.5 212.5 286.377" stroke="#000000" stroke-width="0.666667" stroke-miterlimit="8" fill="none" fill-rule="evenodd"/><text font-family="Calibri,Calibri_MSFontService,sans-serif" font-weight="400" font-size="11" transform="translate(205.387 263)">R_FL1<tspan font-size="11" x="-0.814804" y="-15">1</tspan></text><rect x="497.5" y="432.5" width="127" height="87" stroke="#000000" stroke-width="1.33333" stroke-miterlimit="8" fill="#FFFFFF"/><text font-family="Yu Gothic,Yu Gothic_MSFontService,sans-serif" font-weight="400" font-size="13" transform="translate(547.234 449)">製品<tspan font-family="Consolas,Consolas_MSFontService,sans-serif" font-size="12" x="-40.2467" y="15">*</tspan><tspan font-size="12" x="-33.58" y="15">製品</tspan><tspan font-family="Consolas,Consolas_MSFontService,sans-serif" font-size="12" x="-9.58002" y="15">ID</tspan></text><rect x="149.5" y="421.5" width="127" height="109" stroke="#000000" stroke-width="1.33333" stroke-miterlimit="8" fill="#FFFFFF"/><text font-family="Yu Gothic,Yu Gothic_MSFontService,sans-serif" font-weight="400" font-size="13" transform="translate(199.085 438)">装置<tspan font-family="Consolas,Consolas_MSFontService,sans-serif" font-size="12" x="-40.2467" y="15">*</tspan><tspan font-size="12" x="-33.58" y="15">装置</tspan><tspan font-family="Consolas,Consolas_MSFontService,sans-serif" font-size="12" x="-9.58" y="15">ID</tspan><tspan font-size="12" x="-28.2467" y="29">消費電力</tspan><tspan font-family="Consolas,Consolas_MSFontService,sans-serif" font-size="12" x="19.7533" y="29">(M)</tspan><tspan font-size="12" x="-28.2467" y="44">稼働状態</tspan><tspan font-size="12" x="-28.2467" y="58">温度</tspan><tspan font-size="12" x="-28.2467" y="73">危険上限温度</tspan></text><path d="M0 0 0.000104987 48.8766" stroke="#000000" stroke-width="0.666667" stroke-miterlimit="8" fill="none" fill-rule="evenodd" transform="matrix(-1 0 0 1 212.5 373.5)"/><path d="M0 0 34.8169 0 34.8169 147.257 1.33333 147.257" stroke="#000000" stroke-width="0.666667" stroke-miterlimit="8" fill="none" fill-rule="evenodd" transform="matrix(-1 1.22465e-16 1.22465e-16 1 150.833 328.5)"/><path d="M244.12 529.5 244.12 565.669 183.5 565.669 183.5 530.833" stroke="#000000" stroke-width="0.666667" stroke-miterlimit="8" fill="none" fill-rule="evenodd"/><path d="M0 0 221.703 0.000104987" stroke="#000000" stroke-width="0.666667" stroke-miterlimit="8" fill="none" fill-rule="evenodd" transform="matrix(-1 0 0 1 498.203 476.5)"/><path d="M0 0 103.176 0 103.176 284.926" stroke="#000000" stroke-width="0.666667" stroke-miterlimit="8" fill="none" fill-rule="evenodd" transform="matrix(-1.83697e-16 -1 -1 1.83697e-16 561.426 432.676)"/><text font-family="Calibri,Calibri_MSFontService,sans-serif" font-weight="400" font-size="11" transform="translate(204.572 384)">1<tspan font-size="11" x="76.0836" y="-59">1</tspan><tspan font-size="11" x="-79.9445" y="-44">0..1</tspan><tspan font-size="11" x="-69.3974" y="86">1</tspan><tspan font-size="11" x="-10.7708" y="-105">1..*</tspan><tspan font-size="11" x="-9.55894" y="33">1..*</tspan><tspan font-size="11" x="345.494" y="42">*</tspan><tspan font-size="11" x="76.1132" y="106">0..1</tspan><tspan font-size="11" x="273.139" y="84">0..1</tspan><tspan font-size="11" x="-16.3168" y="159">0..1</tspan><tspan font-size="11" x="19.7595" y="157">0..1</tspan><tspan font-family="Yu Gothic,Yu Gothic_MSFontService,sans-serif" font-size="11" x="-69.3974" y="163">前</tspan><tspan font-family="Yu Gothic,Yu Gothic_MSFontService,sans-serif" font-size="11" x="-58.7307" y="163">の工程</tspan><tspan font-family="Yu Gothic,Yu Gothic_MSFontService,sans-serif" font-size="11" x="43.1512" y="163">後の工程</tspan><tspan font-family="Yu Gothic,Yu Gothic_MSFontService,sans-serif" font-size="11" x="246.94" y="106">仕掛り品</tspan><tspan font-family="Yu Gothic,Yu Gothic_MSFontService,sans-serif" font-size="11" x="76.7743" y="84">加工中</tspan><tspan font-family="Yu Gothic,Yu Gothic_MSFontService,sans-serif" font-size="11" x="361.61" y="40">生産製品</tspan><tspan font-family="Yu Gothic,Yu Gothic_MSFontService,sans-serif" font-size="11" x="14.1912" y="-134">設置場所</tspan><tspan font-family="Yu Gothic,Yu Gothic_MSFontService,sans-serif" font-size="11" x="10.917" y="3">設置場所</tspan><tspan font-family="Yu Gothic,Yu Gothic_MSFontService,sans-serif" font-size="11" x="-100.633" y="108">開始装置</tspan><tspan font-size="11" x="-0.817001" y="21">R_LE1</tspan><tspan font-size="11" x="-83.6964" y="19">R_LE2</tspan><tspan font-size="11" x="-4.62415" y="192">R_EO1</tspan><tspan font-size="11" x="116.175" y="104">R_EP1</tspan><tspan font-size="11" x="216.602" y="-61">R_LP1</tspan></text><rect x="335.5" y="370.5" width="127" height="53" stroke="#000000" stroke-width="1.33333" stroke-miterlimit="8" fill="#FFFFFF"/><text font-family="Yu Gothic,Yu Gothic_MSFontService,sans-serif" font-weight="400" font-size="13" transform="translate(358.494 386)">オーダー仕様<tspan font-size="12" x="-13.58" y="15">製造ステップ</tspan><tspan font-size="12" x="-13.58" y="29">装置コマンド</tspan></text><path d="M276.5 356.5 399.529 356.5 399.529 370.089" stroke="#000000" stroke-width="0.666667" stroke-miterlimit="8" fill="none" fill-rule="evenodd"/><path d="M0 0 123.225 0 123.225 12.6911" stroke="#000000" stroke-width="0.666667" stroke-miterlimit="8" fill="none" fill-rule="evenodd" transform="matrix(1 0 0 -1 275.5 436.191)"/><text font-family="Calibri,Calibri_MSFontService,sans-serif" font-weight="400" font-size="11" transform="translate(281.121 352)">1<tspan font-size="11" x="124.404" y="15">1..*</tspan><tspan font-size="11" x="130.035" y="84">1</tspan><tspan font-size="11" x="0.673798" y="80">1</tspan><tspan font-family="Yu Gothic,Yu Gothic_MSFontService,sans-serif" font-size="11" x="124.228" y="1">製造指示仕様</tspan><tspan font-family="Yu Gothic,Yu Gothic_MSFontService,sans-serif" font-size="11" x="118.549" y="96">製造指示仕様</tspan><tspan font-size="11" x="43.3781" y="2">R_LOS1</tspan><tspan font-size="11" x="42.2527" y="93">R_POS1</tspan><tspan font-family="Yu Gothic,Yu Gothic_MSFontService,sans-serif" font-size="16" x="-213.883" y="-238">ドメイン：</tspan><tspan font-family="Yu Gothic,Yu Gothic_MSFontService,sans-serif" font-size="16" x="-133.883" y="-238">装置管理</tspan></text></g></svg>