<svg width="608" height="717" xmlns="http://www.w3.org/2000/svg" xmlns:xlink="http://www.w3.org/1999/xlink" overflow="hidden"><defs><clipPath id="clip0"><rect x="56" y="93" width="608" height="717"/></clipPath></defs><g clip-path="url(#clip0)" transform="translate(-56 -93)"><rect x="58.5001" y="94.5001" width="604" height="715" stroke="#D9D9D9" stroke-width="1.33333" stroke-miterlimit="8" fill="none"/><rect x="289.5" y="255.5" width="126" height="107" stroke="#000000" stroke-width="1.33333" stroke-miterlimit="8" fill="#FFFFFF"/><text font-family="Yu Gothic,Yu Gothic_MSFontService,sans-serif" font-weight="400" font-size="13" transform="translate(338.757 272)">注文<tspan font-family="Consolas,Consolas_MSFontService,sans-serif" font-size="13" x="-40.2467" y="16">*</tspan><tspan font-size="13" x="-32.9133" y="16">注文</tspan><tspan font-family="Consolas,Consolas_MSFontService,sans-serif" font-size="13" x="-6.24667" y="16">ID</tspan><tspan font-size="13" x="-26.9133" y="32">個数</tspan><tspan font-size="13" x="-26.9133" y="48">金額</tspan><tspan fill="#FF0000" font-size="13" x="-26.9133" y="64">顧客</tspan><tspan fill="#FF0000" font-family="Consolas,Consolas_MSFontService,sans-serif" font-size="13" x="-0.246674" y="64">ID(R)</tspan><tspan fill="#FF0000" font-size="13" x="-26.9133" y="80">商品コード</tspan><tspan fill="#FF0000" font-family="Consolas,Consolas_MSFontService,sans-serif" font-size="13" x="39.7533" y="80">(R)</tspan></text><path d="M195.5 574.5 245.5 574.5 344.108 358.363 320.5 574.5 495.5 574.5 495.5 602.167 495.5 602.167 495.5 643.667 495.5 740.5 320.5 740.5 245.5 740.5 245.5 740.5 195.5 740.5 195.5 643.667 195.5 602.167 195.5 602.167Z" stroke="#D9D9D9" stroke-width="1.33333" stroke-miterlimit="8" fill="#F2F2F2" fill-rule="evenodd"/><rect x="452.5" y="162.5" width="127" height="87" stroke="#000000" stroke-width="1.33333" stroke-miterlimit="8" fill="#FFFFFF"/><text font-family="Yu Gothic,Yu Gothic_MSFontService,sans-serif" font-weight="400" font-size="13" transform="translate(502.015 178)">商品<tspan font-family="Consolas,Consolas_MSFontService,sans-serif" font-size="13" x="-40.2467" y="16">*</tspan><tspan font-size="13" x="-32.9133" y="16">商品コード</tspan><tspan font-size="13" x="-26.9133" y="32">商品名</tspan><tspan font-size="13" x="-26.9133" y="48">在庫</tspan><tspan font-size="13" x="-26.9133" y="64">単価</tspan></text><path d="M401.5 394.5 543.25 394.5 541.104 242.632 604 394.5 644.5 394.5 644.5 421.333 644.5 421.333 644.5 461.583 644.5 555.5 604 555.5 543.25 555.5 543.25 555.5 401.5 555.5 401.5 461.583 401.5 421.333 401.5 421.333Z" stroke="#D9D9D9" stroke-width="1.33333" stroke-miterlimit="8" fill="#F2F2F2" fill-rule="evenodd"/><rect x="138.5" y="162.5" width="126" height="87" stroke="#000000" stroke-width="1.33333" stroke-miterlimit="8" fill="#FFFFFF"/><text font-family="Yu Gothic,Yu Gothic_MSFontService,sans-serif" font-weight="400" font-size="13" transform="translate(187.775 178)">顧客<tspan font-family="Consolas,Consolas_MSFontService,sans-serif" font-size="13" x="-40.2467" y="16">*</tspan><tspan font-size="13" x="-32.9133" y="16">顧客</tspan><tspan font-family="Consolas,Consolas_MSFontService,sans-serif" font-size="13" x="-6.24666" y="16">ID</tspan><tspan font-size="13" x="-26.9133" y="32">顧客名</tspan><tspan font-size="13" x="-26.9133" y="48">住所</tspan></text><path d="M76.5001 381.5 185 381.5 230.999 244.096 231.5 381.5 262.5 381.5 262.5 409 262.5 409 262.5 450.25 262.5 546.5 231.5 546.5 185 546.5 185 546.5 76.5001 546.5 76.5001 450.25 76.5001 409 76.5001 409Z" stroke="#D9D9D9" stroke-width="1.33333" stroke-miterlimit="8" fill="#F2F2F2" fill-rule="evenodd"/><path d="M264.5 205.5 452.294 205.5" stroke="#000000" stroke-width="0.666667" stroke-miterlimit="8" fill="none" fill-rule="evenodd"/><path d="M0 0 6.11895 48.02" stroke="#000000" stroke-width="2" stroke-miterlimit="8" stroke-dasharray="2 2" fill="none" fill-rule="evenodd" transform="matrix(1 0 0 -1 352 255.02)"/><text font-family="Yu Gothic,Yu Gothic_MSFontService,sans-serif" font-weight="400" font-size="11" transform="translate(275.76 197)">発注者<tspan font-family="Calibri,Calibri_MSFontService,sans-serif" font-size="11" x="-3.70016" y="21">*</tspan><tspan font-family="Calibri,Calibri_MSFontService,sans-serif" font-size="11" x="158.002" y="6">*</tspan><tspan font-size="11" x="125.323" y="21">購入予約</tspan><tspan font-size="16" x="-208.522" y="-83">ドメイン：商品販売</tspan></text><rect x="86.5001" y="390.5" width="56" height="29" stroke="#000000" stroke-width="0.666667" stroke-miterlimit="8" fill="#FFFFFF"/><text font-family="Yu Gothic,Yu Gothic_MSFontService,sans-serif" font-weight="400" font-size="12" transform="translate(97.237 408)">顧客<tspan font-family="Calibri,Calibri_MSFontService,sans-serif" font-size="12" x="24" y="0">ID</tspan></text><rect x="142.5" y="390.5" width="57" height="29" stroke="#000000" stroke-width="0.666667" stroke-miterlimit="8" fill="#FFFFFF"/><text font-family="Yu Gothic,Yu Gothic_MSFontService,sans-serif" font-weight="400" font-size="12" transform="translate(152.474 408)">顧客名</text><rect x="197.5" y="390.5" width="57" height="29" stroke="#000000" stroke-width="0.666667" stroke-miterlimit="8" fill="#FFFFFF"/><text font-family="Yu Gothic,Yu Gothic_MSFontService,sans-serif" font-weight="400" font-size="12" transform="translate(213.502 408)">住所</text><rect x="86.5001" y="419.5" width="56" height="29" stroke="#000000" stroke-width="0.666667" stroke-miterlimit="8" fill="#FFFFFF"/><text font-family="Calibri,Calibri_MSFontService,sans-serif" font-weight="400" font-size="11" transform="translate(103.57 437)">C003</text><rect x="142.5" y="419.5" width="57" height="29" stroke="#000000" stroke-width="0.666667" stroke-miterlimit="8" fill="#FFFFFF"/><text font-family="Yu Gothic,Yu Gothic_MSFontService,sans-serif" font-weight="400" font-size="11" transform="translate(158.641 437)">概<tspan font-size="11" x="13" y="0">念</tspan></text><rect x="197.5" y="419.5" width="57" height="29" stroke="#000000" stroke-width="0.666667" stroke-miterlimit="8" fill="#FFFFFF"/><text font-family="Calibri,Calibri_MSFontService,sans-serif" font-weight="400" font-size="11" transform="translate(217.251 437)">XXX</text><rect x="86.5001" y="448.5" width="56" height="29" stroke="#000000" stroke-width="0.666667" stroke-miterlimit="8" fill="#FFFFFF"/><text font-family="Calibri,Calibri_MSFontService,sans-serif" font-weight="400" font-size="11" transform="translate(103.57 466)">C172</text><rect x="142.5" y="448.5" width="57" height="29" stroke="#000000" stroke-width="0.666667" stroke-miterlimit="8" fill="#FFFFFF"/><text font-family="Yu Gothic,Yu Gothic_MSFontService,sans-serif" font-weight="400" font-size="11" transform="translate(153.308 466)">円<tspan font-size="11" x="13" y="0">帝一</tspan></text><rect x="197.5" y="448.5" width="57" height="29" stroke="#000000" stroke-width="0.666667" stroke-miterlimit="8" fill="#FFFFFF"/><text font-family="Calibri,Calibri_MSFontService,sans-serif" font-weight="400" font-size="11" transform="translate(217.751 466)">YYY</text><rect x="86.5001" y="477.5" width="56" height="29" stroke="#000000" stroke-width="0.666667" stroke-miterlimit="8" fill="#FFFFFF"/><text font-family="Calibri,Calibri_MSFontService,sans-serif" font-weight="400" font-size="11" transform="translate(103.57 495)">C026</text><rect x="142.5" y="477.5" width="57" height="29" stroke="#000000" stroke-width="0.666667" stroke-miterlimit="8" fill="#FFFFFF"/><text font-family="Yu Gothic,Yu Gothic_MSFontService,sans-serif" font-weight="400" font-size="11" transform="translate(153.308 495)">蔵巣<tspan font-size="11" x="23.6667" y="0">抽</tspan></text><rect x="197.5" y="477.5" width="57" height="29" stroke="#000000" stroke-width="0.666667" stroke-miterlimit="8" fill="#FFFFFF"/><text font-family="Calibri,Calibri_MSFontService,sans-serif" font-weight="400" font-size="11" transform="translate(218.001 495)">ZZZ</text><rect x="413.5" y="401.5" width="56" height="29" stroke="#000000" stroke-width="0.666667" stroke-miterlimit="8" fill="#FFFFFF"/><text font-family="Yu Gothic,Yu Gothic_MSFontService,sans-serif" font-weight="400" font-size="11" transform="translate(430.63 413)">商品<tspan font-size="11" x="-5.33334" y="13">コード</tspan></text><rect x="469.5" y="401.5" width="56" height="29" stroke="#000000" stroke-width="0.666667" stroke-miterlimit="8" fill="#FFFFFF"/><text font-family="Yu Gothic,Yu Gothic_MSFontService,sans-serif" font-weight="400" font-size="12" transform="translate(479.367 419)">商品名</text><rect x="524.5" y="401.5" width="56" height="29" stroke="#000000" stroke-width="0.666667" stroke-miterlimit="8" fill="#FFFFFF"/><text font-family="Yu Gothic,Yu Gothic_MSFontService,sans-serif" font-weight="400" font-size="12" transform="translate(540.394 419)">在庫</text><rect x="413.5" y="430.5" width="56" height="29" stroke="#000000" stroke-width="0.666667" stroke-miterlimit="8" fill="#FFFFFF"/><text font-family="Calibri,Calibri_MSFontService,sans-serif" font-weight="400" font-size="11" transform="translate(430.546 448)">P031</text><rect x="469.5" y="430.5" width="56" height="29" stroke="#000000" stroke-width="0.666667" stroke-miterlimit="8" fill="#FFFFFF"/><text font-family="Yu Gothic,Yu Gothic_MSFontService,sans-serif" font-weight="400" font-size="9" transform="translate(480.034 447)">ペンシル</text><rect x="524.5" y="430.5" width="56" height="29" stroke="#000000" stroke-width="0.666667" stroke-miterlimit="8" fill="#FFFFFF"/><text font-family="Calibri,Calibri_MSFontService,sans-serif" font-weight="400" font-size="11" transform="translate(541.728 448)">1000</text><rect x="413.5" y="459.5" width="56" height="29" stroke="#000000" stroke-width="0.666667" stroke-miterlimit="8" fill="#FFFFFF"/><text font-family="Calibri,Calibri_MSFontService,sans-serif" font-weight="400" font-size="11" transform="translate(429.88 477)">N008</text><rect x="469.5" y="459.5" width="56" height="29" stroke="#000000" stroke-width="0.666667" stroke-miterlimit="8" fill="#FFFFFF"/><text font-family="Yu Gothic,Yu Gothic_MSFontService,sans-serif" font-weight="400" font-size="11" transform="translate(486.701 477)">手帳</text><rect x="524.5" y="459.5" width="56" height="29" stroke="#000000" stroke-width="0.666667" stroke-miterlimit="8" fill="#FFFFFF"/><text font-family="Calibri,Calibri_MSFontService,sans-serif" font-weight="400" font-size="11" transform="translate(544.394 477)">752</text><rect x="413.5" y="488.5" width="56" height="29" stroke="#000000" stroke-width="0.666667" stroke-miterlimit="8" fill="#FFFFFF"/><text font-family="Calibri,Calibri_MSFontService,sans-serif" font-weight="400" font-size="11" transform="translate(431.046 506)">L012</text><rect x="469.5" y="488.5" width="56" height="29" stroke="#000000" stroke-width="0.666667" stroke-miterlimit="8" fill="#FFFFFF"/><text font-family="Yu Gothic,Yu Gothic_MSFontService,sans-serif" font-weight="400" font-size="11" transform="translate(481.367 500)">ルーズ<tspan font-size="11" x="0" y="13">リーフ</tspan></text><rect x="524.5" y="488.5" width="56" height="29" stroke="#000000" stroke-width="0.666667" stroke-miterlimit="8" fill="#FFFFFF"/><text font-family="Calibri,Calibri_MSFontService,sans-serif" font-weight="400" font-size="11" transform="translate(544.394 506)">108</text><rect x="580.5" y="401.5" width="57" height="29" stroke="#000000" stroke-width="0.666667" stroke-miterlimit="8" fill="#FFFFFF"/><text font-family="Yu Gothic,Yu Gothic_MSFontService,sans-serif" font-weight="400" font-size="12" transform="translate(596.465 419)">単価</text><rect x="580.5" y="430.5" width="57" height="29" stroke="#000000" stroke-width="0.666667" stroke-miterlimit="8" fill="#FFFFFF"/><text font-family="Calibri,Calibri_MSFontService,sans-serif" font-weight="400" font-size="11" transform="translate(600.465 448)">700</text><rect x="580.5" y="459.5" width="57" height="29" stroke="#000000" stroke-width="0.666667" stroke-miterlimit="8" fill="#FFFFFF"/><text font-family="Calibri,Calibri_MSFontService,sans-serif" font-weight="400" font-size="11" transform="translate(597.798 477)">3500</text><rect x="580.5" y="488.5" width="57" height="29" stroke="#000000" stroke-width="0.666667" stroke-miterlimit="8" fill="#FFFFFF"/><text font-family="Calibri,Calibri_MSFontService,sans-serif" font-weight="400" font-size="11" transform="translate(597.798 506)">1400</text><rect x="413.5" y="517.5" width="56" height="29" stroke="#000000" stroke-width="0.666667" stroke-miterlimit="8" fill="#FFFFFF"/><text font-family="Yu Gothic,Yu Gothic_MSFontService,sans-serif" font-weight="400" font-size="11" transform="translate(425.296 535)">・・・</text><rect x="469.5" y="517.5" width="56" height="29" stroke="#000000" stroke-width="0.666667" stroke-miterlimit="8" fill="#FFFFFF"/><text font-family="Yu Gothic,Yu Gothic_MSFontService,sans-serif" font-weight="400" font-size="11" transform="translate(481.367 535)">・・・</text><rect x="524.5" y="517.5" width="56" height="29" stroke="#000000" stroke-width="0.666667" stroke-miterlimit="8" fill="#FFFFFF"/><text font-family="Yu Gothic,Yu Gothic_MSFontService,sans-serif" font-weight="400" font-size="11" transform="translate(536.394 535)">・・・</text><rect x="580.5" y="517.5" width="57" height="29" stroke="#000000" stroke-width="0.666667" stroke-miterlimit="8" fill="#FFFFFF"/><text font-family="Yu Gothic,Yu Gothic_MSFontService,sans-serif" font-weight="400" font-size="11" transform="translate(592.465 535)">・・・</text><rect x="86.5001" y="506.5" width="56" height="29" stroke="#000000" stroke-width="0.666667" stroke-miterlimit="8" fill="#FFFFFF"/><text font-family="Yu Gothic,Yu Gothic_MSFontService,sans-serif" font-weight="400" font-size="11" transform="translate(98.4037 524)">・・・</text><rect x="142.5" y="506.5" width="57" height="29" stroke="#000000" stroke-width="0.666667" stroke-miterlimit="8" fill="#FFFFFF"/><text font-family="Yu Gothic,Yu Gothic_MSFontService,sans-serif" font-weight="400" font-size="11" transform="translate(154.474 524)">・・・</text><rect x="197.5" y="506.5" width="57" height="29" stroke="#000000" stroke-width="0.666667" stroke-miterlimit="8" fill="#FFFFFF"/><text font-family="Yu Gothic,Yu Gothic_MSFontService,sans-serif" font-weight="400" font-size="11" transform="translate(209.502 524)">・・・</text><rect x="373.5" y="584.5" width="56" height="29" stroke="#000000" stroke-width="0.666667" stroke-miterlimit="8" fill="#FFFFFF"/><text font-family="Yu Gothic,Yu Gothic_MSFontService,sans-serif" font-weight="400" font-size="12" transform="translate(384.278 603)">顧客<tspan font-family="Calibri,Calibri_MSFontService,sans-serif" font-size="12" x="24" y="0">ID</tspan></text><rect x="373.5" y="613.5" width="56" height="29" stroke="#000000" stroke-width="0.666667" stroke-miterlimit="8" fill="#FFFFFF"/><text font-family="Calibri,Calibri_MSFontService,sans-serif" font-weight="400" font-size="11" transform="translate(390.611 631)">C003</text><rect x="373.5" y="642.5" width="56" height="29" stroke="#000000" stroke-width="0.666667" stroke-miterlimit="8" fill="#FFFFFF"/><text font-family="Calibri,Calibri_MSFontService,sans-serif" font-weight="400" font-size="11" transform="translate(390.611 661)">C003</text><rect x="373.5" y="671.5" width="56" height="30" stroke="#000000" stroke-width="0.666667" stroke-miterlimit="8" fill="#FFFFFF"/><text font-family="Calibri,Calibri_MSFontService,sans-serif" font-weight="400" font-size="11" transform="translate(390.611 690)">C026</text><rect x="373.5" y="701.5" width="56" height="29" stroke="#000000" stroke-width="0.666667" stroke-miterlimit="8" fill="#FFFFFF"/><text font-family="Yu Gothic,Yu Gothic_MSFontService,sans-serif" font-weight="400" font-size="11" transform="translate(385.445 719)">・・・</text><rect x="429.5" y="584.5" width="57" height="29" stroke="#000000" stroke-width="0.666667" stroke-miterlimit="8" fill="#FFFFFF"/><text font-family="Yu Gothic,Yu Gothic_MSFontService,sans-serif" font-weight="400" font-size="11" transform="translate(446.849 596)">商品<tspan font-size="11" x="-5.33331" y="13">コード</tspan></text><rect x="429.5" y="613.5" width="57" height="29" stroke="#000000" stroke-width="0.666667" stroke-miterlimit="8" fill="#FFFFFF"/><text font-family="Calibri,Calibri_MSFontService,sans-serif" font-weight="400" font-size="11" transform="translate(446.765 631)">P031</text><rect x="429.5" y="642.5" width="57" height="29" stroke="#000000" stroke-width="0.666667" stroke-miterlimit="8" fill="#FFFFFF"/><text font-family="Calibri,Calibri_MSFontService,sans-serif" font-weight="400" font-size="11" transform="translate(446.099 661)">N008</text><rect x="429.5" y="671.5" width="57" height="30" stroke="#000000" stroke-width="0.666667" stroke-miterlimit="8" fill="#FFFFFF"/><text font-family="Calibri,Calibri_MSFontService,sans-serif" font-weight="400" font-size="11" transform="translate(447.265 690)">L012</text><rect x="429.5" y="701.5" width="57" height="29" stroke="#000000" stroke-width="0.666667" stroke-miterlimit="8" fill="#FFFFFF"/><text font-family="Yu Gothic,Yu Gothic_MSFontService,sans-serif" font-weight="400" font-size="11" transform="translate(441.515 719)">・・・</text><rect x="207.5" y="584.5" width="56" height="29" stroke="#000000" stroke-width="0.666667" stroke-miterlimit="8" fill="#FFFFFF"/><text font-family="Yu Gothic,Yu Gothic_MSFontService,sans-serif" font-weight="400" font-size="12" transform="translate(217.631 603)">注文<tspan font-family="Calibri,Calibri_MSFontService,sans-serif" font-size="12" x="24" y="0">ID</tspan></text><rect x="263.5" y="584.5" width="56" height="29" stroke="#000000" stroke-width="0.666667" stroke-miterlimit="8" fill="#FFFFFF"/><text font-family="Yu Gothic,Yu Gothic_MSFontService,sans-serif" font-weight="400" font-size="12" transform="translate(278.869 603)">個数</text><rect x="318.5" y="584.5" width="56" height="29" stroke="#000000" stroke-width="0.666667" stroke-miterlimit="8" fill="#FFFFFF"/><text font-family="Yu Gothic,Yu Gothic_MSFontService,sans-serif" font-weight="400" font-size="12" transform="translate(333.896 603)">金額</text><rect x="207.5" y="613.5" width="56" height="29" stroke="#000000" stroke-width="0.666667" stroke-miterlimit="8" fill="#FFFFFF"/><text font-family="Calibri,Calibri_MSFontService,sans-serif" font-weight="400" font-size="11" transform="translate(218.548 625)">C003P0<tspan font-size="11" x="1.24666" y="13">31</tspan><tspan font-size="11" x="11.9133" y="13">-</tspan><tspan font-size="11" x="15.2467" y="13">001</tspan></text><rect x="263.5" y="613.5" width="56" height="29" stroke="#000000" stroke-width="0.666667" stroke-miterlimit="8" fill="#FFFFFF"/><text font-family="Calibri,Calibri_MSFontService,sans-serif" font-weight="400" font-size="11" transform="translate(288.202 631)">2</text><rect x="318.5" y="613.5" width="56" height="29" stroke="#000000" stroke-width="0.666667" stroke-miterlimit="8" fill="#FFFFFF"/><text font-family="Calibri,Calibri_MSFontService,sans-serif" font-weight="400" font-size="11" transform="translate(335.229 631)">1400</text><rect x="207.5" y="642.5" width="56" height="29" stroke="#000000" stroke-width="0.666667" stroke-miterlimit="8" fill="#FFFFFF"/><text font-family="Calibri,Calibri_MSFontService,sans-serif" font-weight="400" font-size="11" transform="translate(217.881 654)">C003N0<tspan font-size="11" x="1.91333" y="13">08</tspan><tspan font-size="11" x="12.58" y="13">-</tspan><tspan font-size="11" x="15.9133" y="13">005</tspan></text><rect x="263.5" y="642.5" width="56" height="29" stroke="#000000" stroke-width="0.666667" stroke-miterlimit="8" fill="#FFFFFF"/><text font-family="Calibri,Calibri_MSFontService,sans-serif" font-weight="400" font-size="11" transform="translate(288.202 661)">1</text><rect x="318.5" y="642.5" width="56" height="29" stroke="#000000" stroke-width="0.666667" stroke-miterlimit="8" fill="#FFFFFF"/><text font-family="Calibri,Calibri_MSFontService,sans-serif" font-weight="400" font-size="11" transform="translate(335.229 661)">3500</text><rect x="207.5" y="671.5" width="56" height="30" stroke="#000000" stroke-width="0.666667" stroke-miterlimit="8" fill="#FFFFFF"/><text font-family="Calibri,Calibri_MSFontService,sans-serif" font-weight="400" font-size="11" transform="translate(216.381 683)">C026L01<tspan font-size="11" x="6.08" y="13">2</tspan><tspan font-size="11" x="11.4133" y="13">-</tspan><tspan font-size="11" x="14.7467" y="13">052</tspan></text><rect x="263.5" y="671.5" width="56" height="30" stroke="#000000" stroke-width="0.666667" stroke-miterlimit="8" fill="#FFFFFF"/><text font-family="Calibri,Calibri_MSFontService,sans-serif" font-weight="400" font-size="11" transform="translate(285.535 690)">5<tspan font-size="11" x="5.33334" y="0">0</tspan></text><rect x="318.5" y="671.5" width="56" height="30" stroke="#000000" stroke-width="0.666667" stroke-miterlimit="8" fill="#FFFFFF"/><text font-family="Calibri,Calibri_MSFontService,sans-serif" font-weight="400" font-size="11" transform="translate(332.562 690)">63000</text><rect x="207.5" y="701.5" width="56" height="29" stroke="#000000" stroke-width="0.666667" stroke-miterlimit="8" fill="#FFFFFF"/><text font-family="Yu Gothic,Yu Gothic_MSFontService,sans-serif" font-weight="400" font-size="11" transform="translate(218.798 719)">・・・</text><rect x="263.5" y="701.5" width="56" height="29" stroke="#000000" stroke-width="0.666667" stroke-miterlimit="8" fill="#FFFFFF"/><text font-family="Yu Gothic,Yu Gothic_MSFontService,sans-serif" font-weight="400" font-size="11" transform="translate(274.869 719)">・・・</text><rect x="318.5" y="701.5" width="56" height="29" stroke="#000000" stroke-width="0.666667" stroke-miterlimit="8" fill="#FFFFFF"/><text font-family="Yu Gothic,Yu Gothic_MSFontService,sans-serif" font-weight="400" font-size="11" transform="translate(329.896 719)">・・・<tspan font-size="16" x="-148.056" y="51">表</tspan><tspan font-size="16" x="-132.056" y="51">で示すとインスタンス間の関係が見えなくな</tspan><tspan font-size="16" x="-148.056" y="70">るので関係を示す特徴値を追加している</tspan></text></g></svg>