<svg width="607" height="528" xmlns="http://www.w3.org/2000/svg" xmlns:xlink="http://www.w3.org/1999/xlink" overflow="hidden"><defs><clipPath id="clip0"><rect x="60" y="12" width="607" height="528"/></clipPath><clipPath id="clip1"><rect x="140" y="370" width="102" height="89"/></clipPath><clipPath id="clip2"><rect x="140" y="370" width="102" height="89"/></clipPath><clipPath id="clip3"><rect x="140" y="370" width="102" height="89"/></clipPath><clipPath id="clip4"><rect x="140" y="370" width="102" height="89"/></clipPath><clipPath id="clip5"><rect x="262" y="371" width="136" height="89"/></clipPath><clipPath id="clip6"><rect x="262" y="371" width="136" height="89"/></clipPath><clipPath id="clip7"><rect x="262" y="371" width="136" height="89"/></clipPath><clipPath id="clip8"><rect x="262" y="371" width="136" height="89"/></clipPath><clipPath id="clip9"><rect x="397" y="183" width="214" height="88"/></clipPath><clipPath id="clip10"><rect x="397" y="183" width="214" height="88"/></clipPath><clipPath id="clip11"><rect x="397" y="183" width="214" height="88"/></clipPath><clipPath id="clip12"><rect x="397" y="183" width="214" height="88"/></clipPath><clipPath id="clip13"><rect x="414" y="60" width="39" height="39"/></clipPath><clipPath id="clip14"><rect x="414" y="60" width="39" height="39"/></clipPath><clipPath id="clip15"><rect x="414" y="60" width="39" height="39"/></clipPath><clipPath id="clip16"><rect x="116" y="94" width="189" height="173"/></clipPath><clipPath id="clip17"><rect x="116" y="94" width="189" height="173"/></clipPath><clipPath id="clip18"><rect x="116" y="94" width="189" height="173"/></clipPath><clipPath id="clip19"><rect x="116" y="94" width="189" height="173"/></clipPath><clipPath id="clip20"><rect x="273" y="234" width="32" height="33"/></clipPath><clipPath id="clip21"><rect x="273" y="234" width="32" height="33"/></clipPath><clipPath id="clip22"><rect x="273" y="234" width="32" height="33"/></clipPath><clipPath id="clip23"><rect x="273" y="97" width="32" height="32"/></clipPath><clipPath id="clip24"><rect x="273" y="97" width="32" height="32"/></clipPath><clipPath id="clip25"><rect x="273" y="97" width="32" height="32"/></clipPath><clipPath id="clip26"><rect x="116" y="234" width="32" height="33"/></clipPath><clipPath id="clip27"><rect x="116" y="234" width="32" height="33"/></clipPath><clipPath id="clip28"><rect x="116" y="234" width="32" height="33"/></clipPath><clipPath id="clip29"><rect x="116" y="166" width="32" height="32"/></clipPath><clipPath id="clip30"><rect x="116" y="166" width="32" height="32"/></clipPath><clipPath id="clip31"><rect x="116" y="166" width="32" height="32"/></clipPath><clipPath id="clip32"><rect x="116" y="97" width="32" height="32"/></clipPath><clipPath id="clip33"><rect x="116" y="97" width="32" height="32"/></clipPath><clipPath id="clip34"><rect x="116" y="97" width="32" height="32"/></clipPath><clipPath id="clip35"><rect x="273" y="166" width="32" height="32"/></clipPath><clipPath id="clip36"><rect x="273" y="166" width="32" height="32"/></clipPath><clipPath id="clip37"><rect x="273" y="166" width="32" height="32"/></clipPath><clipPath id="clip38"><rect x="189" y="97" width="32" height="32"/></clipPath><clipPath id="clip39"><rect x="189" y="97" width="32" height="32"/></clipPath><clipPath id="clip40"><rect x="189" y="97" width="32" height="32"/></clipPath><clipPath id="clip41"><rect x="214" y="140" width="32" height="33"/></clipPath><clipPath id="clip42"><rect x="214" y="140" width="32" height="33"/></clipPath><clipPath id="clip43"><rect x="214" y="140" width="32" height="33"/></clipPath><clipPath id="clip44"><rect x="190" y="200" width="32" height="33"/></clipPath><clipPath id="clip45"><rect x="190" y="200" width="32" height="33"/></clipPath><clipPath id="clip46"><rect x="190" y="200" width="32" height="33"/></clipPath><clipPath id="clip47"><rect x="417" y="371" width="169" height="89"/></clipPath><clipPath id="clip48"><rect x="417" y="371" width="169" height="89"/></clipPath><clipPath id="clip49"><rect x="417" y="371" width="169" height="89"/></clipPath><clipPath id="clip50"><rect x="417" y="371" width="169" height="89"/></clipPath></defs><g clip-path="url(#clip0)" transform="translate(-60 -12)"><path d="M380.5 57.5003C380.5 50.8728 385.873 45.5001 392.5 45.5001L616.5 45.5001C623.127 45.5001 628.5 50.8728 628.5 57.5003L628.5 105.5C628.5 112.127 623.127 117.5 616.5 117.5L392.5 117.5C385.873 117.5 380.5 112.127 380.5 105.5Z" stroke="#D9D9D9" stroke-width="1.33333" stroke-miterlimit="8" fill="#F2F2F2" fill-rule="evenodd"/><path d="M108.5 359.833C108.5 343.633 222.22 330.5 362.5 330.5 502.78 330.5 616.5 343.633 616.5 359.833L616.5 477.167C616.5 493.367 502.78 506.5 362.5 506.5 222.22 506.5 108.5 493.367 108.5 477.167Z" fill="#4472C4" fill-rule="evenodd" fill-opacity="0.501961"/><path d="M616.5 359.833C616.5 376.034 502.78 389.167 362.5 389.167 222.22 389.167 108.5 376.034 108.5 359.833" stroke="#2F528F" stroke-width="1.33333" stroke-miterlimit="8" stroke-opacity="0.501961" fill="none" fill-rule="evenodd"/><path d="M108.5 359.833C108.5 343.633 222.22 330.5 362.5 330.5 502.78 330.5 616.5 343.633 616.5 359.833L616.5 477.167C616.5 493.367 502.78 506.5 362.5 506.5 222.22 506.5 108.5 493.367 108.5 477.167Z" stroke="#2F528F" stroke-width="1.33333" stroke-miterlimit="8" stroke-opacity="0.501961" fill="none" fill-rule="evenodd"/><rect x="133" y="360" width="465" height="109" fill="#F2F2F2" fill-opacity="0.501961"/><rect x="61.5001" y="14.5001" width="605" height="525" stroke="#D9D9D9" stroke-width="1.33333" stroke-miterlimit="8" fill="none"/><g clip-path="url(#clip1)"><g clip-path="url(#clip2)"><g clip-path="url(#clip3)"><g clip-path="url(#clip4)"><path d="M51.9001 234.3 85.5001 234.3 85.5001 251.7 51.9001 251.7Z" stroke="#000000" stroke-width="0.4" stroke-miterlimit="8" fill="#FFFFFF" transform="matrix(1 0 0 1.00907 89 134.483)"/><text font-family="Yu Gothic,Yu Gothic_MSFontService,sans-serif" font-weight="400" font-size="12" transform="matrix(0.6 0 0 0.605442 147.342 382)">顧客<tspan font-family="Calibri,Calibri_MSFontService,sans-serif" font-size="12" x="24" y="0">ID</tspan></text><path d="M85.5 234.3 119.7 234.3 119.7 251.7 85.5 251.7Z" stroke="#000000" stroke-width="0.4" stroke-miterlimit="8" fill="#FFFFFF" transform="matrix(1 0 0 1.00907 89 134.483)"/><text font-family="Yu Gothic,Yu Gothic_MSFontService,sans-serif" font-weight="400" font-size="12" transform="matrix(0.6 0 0 0.605442 180.484 382)">顧客名</text><path d="M118.5 234.3 152.7 234.3 152.7 251.7 118.5 251.7Z" stroke="#000000" stroke-width="0.4" stroke-miterlimit="8" fill="#FFFFFF" transform="matrix(1 0 0 1.00907 89 134.483)"/><text font-family="Yu Gothic,Yu Gothic_MSFontService,sans-serif" font-weight="400" font-size="12" transform="matrix(0.6 0 0 0.605442 217.101 382)">住所</text><path d="M51.9001 251.7 85.5001 251.7 85.5001 269.1 51.9001 269.1Z" stroke="#000000" stroke-width="0.4" stroke-miterlimit="8" fill="#FFFFFF" transform="matrix(1 0 0 1.00907 89 134.483)"/><text font-family="Calibri,Calibri_MSFontService,sans-serif" font-weight="400" font-size="11" transform="matrix(0.6 0 0 0.605442 151.142 399)">C<tspan font-size="11" x="6.00001" y="0">003</tspan></text><path d="M85.5 251.7 119.7 251.7 119.7 269.1 85.5 269.1Z" stroke="#000000" stroke-width="0.4" stroke-miterlimit="8" fill="#FFFFFF" transform="matrix(1 0 0 1.00907 89 134.483)"/><text font-family="Yu Gothic,Yu Gothic_MSFontService,sans-serif" font-weight="400" font-size="11" transform="matrix(0.6 0 0 0.605442 184.185 399)">概<tspan font-size="11" x="13" y="0">念</tspan></text><path d="M118.5 251.7 152.7 251.7 152.7 269.1 118.5 269.1Z" stroke="#000000" stroke-width="0.4" stroke-miterlimit="8" fill="#FFFFFF" transform="matrix(1 0 0 1.00907 89 134.483)"/><text font-family="Calibri,Calibri_MSFontService,sans-serif" font-weight="400" font-size="11" transform="matrix(0.6 0 0 0.605442 219.351 399)">XXX</text><path d="M51.9001 269.1 85.5001 269.1 85.5001 286.5 51.9001 286.5Z" stroke="#000000" stroke-width="0.4" stroke-miterlimit="8" fill="#FFFFFF" transform="matrix(1 0 0 1.00907 89 134.483)"/><text font-family="Calibri,Calibri_MSFontService,sans-serif" font-weight="400" font-size="11" transform="matrix(0.6 0 0 0.605442 151.142 417)">C<tspan font-size="11" x="6.00001" y="0">172</tspan></text><path d="M85.5 269.1 119.7 269.1 119.7 286.5 85.5 286.5Z" stroke="#000000" stroke-width="0.4" stroke-miterlimit="8" fill="#FFFFFF" transform="matrix(1 0 0 1.00907 89 134.483)"/><text font-family="Yu Gothic,Yu Gothic_MSFontService,sans-serif" font-weight="400" font-size="11" transform="matrix(0.6 0 0 0.605442 180.985 417)">円<tspan font-size="11" x="13" y="0">帝一</tspan></text><path d="M118.5 269.1 152.7 269.1 152.7 286.5 118.5 286.5Z" stroke="#000000" stroke-width="0.4" stroke-miterlimit="8" fill="#FFFFFF" transform="matrix(1 0 0 1.00907 89 134.483)"/><text font-family="Calibri,Calibri_MSFontService,sans-serif" font-weight="400" font-size="11" transform="matrix(0.6 0 0 0.605442 219.651 417)">YYY</text><path d="M51.9001 286.5 85.5001 286.5 85.5001 303.9 51.9001 303.9Z" stroke="#000000" stroke-width="0.4" stroke-miterlimit="8" fill="#FFFFFF" transform="matrix(1 0 0 1.00907 89 134.483)"/><text font-family="Calibri,Calibri_MSFontService,sans-serif" font-weight="400" font-size="11" transform="matrix(0.6 0 0 0.605442 151.142 434)">C<tspan font-size="11" x="6.00001" y="0">026</tspan></text><path d="M85.5 286.5 119.7 286.5 119.7 303.9 85.5 303.9Z" stroke="#000000" stroke-width="0.4" stroke-miterlimit="8" fill="#FFFFFF" transform="matrix(1 0 0 1.00907 89 134.483)"/><text font-family="Yu Gothic,Yu Gothic_MSFontService,sans-serif" font-weight="400" font-size="11" transform="matrix(0.6 0 0 0.605442 180.985 434)">蔵巣<tspan font-size="11" x="23.6667" y="0">抽</tspan></text><path d="M118.5 286.5 152.7 286.5 152.7 303.9 118.5 303.9Z" stroke="#000000" stroke-width="0.4" stroke-miterlimit="8" fill="#FFFFFF" transform="matrix(1 0 0 1.00907 89 134.483)"/><text font-family="Calibri,Calibri_MSFontService,sans-serif" font-weight="400" font-size="11" transform="matrix(0.6 0 0 0.605442 219.801 434)">ZZZ</text><path d="M51.9001 303.9 85.5001 303.9 85.5001 321.3 51.9001 321.3Z" stroke="#000000" stroke-width="0.4" stroke-miterlimit="8" fill="#FFFFFF" transform="matrix(1 0 0 1.00907 89 134.483)"/><text font-family="Yu Gothic,Yu Gothic_MSFontService,sans-serif" font-weight="400" font-size="11" transform="matrix(0.6 0 0 0.605442 148.042 452)">・・・</text><path d="M85.5 303.9 119.7 303.9 119.7 321.3 85.5 321.3Z" stroke="#000000" stroke-width="0.4" stroke-miterlimit="8" fill="#FFFFFF" transform="matrix(1 0 0 1.00907 89 134.483)"/><text font-family="Yu Gothic,Yu Gothic_MSFontService,sans-serif" font-weight="400" font-size="11" transform="matrix(0.6 0 0 0.605442 181.684 452)">・・・</text><path d="M118.5 303.9 152.7 303.9 152.7 321.3 118.5 321.3Z" stroke="#000000" stroke-width="0.4" stroke-miterlimit="8" fill="#FFFFFF" transform="matrix(1 0 0 1.00907 89 134.483)"/><text font-family="Yu Gothic,Yu Gothic_MSFontService,sans-serif" font-weight="400" font-size="11" transform="matrix(0.6 0 0 0.605442 214.701 452)">・・・</text></g></g></g></g><g clip-path="url(#clip5)"><g clip-path="url(#clip6)"><g clip-path="url(#clip7)"><g clip-path="url(#clip8)"><path d="M248.659 241.443 282.334 241.443 282.334 258.882 248.659 258.882Z" stroke="#000000" stroke-width="0.400901" stroke-miterlimit="8" fill="#FFFFFF" transform="matrix(1.0007 0 0 1 14.0708 131.061)"/><text font-family="Yu Gothic,Yu Gothic_MSFontService,sans-serif" font-weight="400" font-size="11" transform="matrix(0.60177 0 0 0.601351 273.211 379)">商品<tspan font-size="11" x="-5.33334" y="13.3034">コード</tspan></text><path d="M282.334 241.443 316.01 241.443 316.01 258.882 282.334 258.882Z" stroke="#000000" stroke-width="0.400901" stroke-miterlimit="8" fill="#FFFFFF" transform="matrix(1.0007 0 0 1 14.0708 131.061)"/><text font-family="Yu Gothic,Yu Gothic_MSFontService,sans-serif" font-weight="400" font-size="12" transform="matrix(0.60177 0 0 0.601351 302.539 383)">商品名</text><path d="M315.409 241.443 349.084 241.443 349.084 258.882 315.409 258.882Z" stroke="#000000" stroke-width="0.400901" stroke-miterlimit="8" fill="#FFFFFF" transform="matrix(1.0007 0 0 1 14.0708 131.061)"/><text font-family="Yu Gothic,Yu Gothic_MSFontService,sans-serif" font-weight="400" font-size="12" transform="matrix(0.60177 0 0 0.601351 339.264 383)">在庫</text><path d="M248.659 258.882 282.334 258.882 282.334 276.321 248.659 276.321Z" stroke="#000000" stroke-width="0.400901" stroke-miterlimit="8" fill="#FFFFFF" transform="matrix(1.0007 0 0 1 14.0708 131.061)"/><text font-family="Calibri,Calibri_MSFontService,sans-serif" font-weight="400" font-size="11" transform="matrix(0.60177 0 0 0.601351 273.16 400)">P<tspan font-size="11" x="6.00001" y="0">031</tspan></text><path d="M282.334 258.882 316.01 258.882 316.01 276.321 282.334 276.321Z" stroke="#000000" stroke-width="0.400901" stroke-miterlimit="8" fill="#FFFFFF" transform="matrix(1.0007 0 0 1 14.0708 131.061)"/><text font-family="Yu Gothic,Yu Gothic_MSFontService,sans-serif" font-weight="400" font-size="9" transform="matrix(0.60177 0 0 0.601351 302.941 400)">ペンシル</text><path d="M315.409 258.882 349.084 258.882 349.084 276.321 315.409 276.321Z" stroke="#000000" stroke-width="0.400901" stroke-miterlimit="8" fill="#FFFFFF" transform="matrix(1.0007 0 0 1 14.0708 131.061)"/><text font-family="Calibri,Calibri_MSFontService,sans-serif" font-weight="400" font-size="11" transform="matrix(0.60177 0 0 0.601351 340.066 400)">1000</text><path d="M248.659 276.321 282.334 276.321 282.334 293.76 248.659 293.76Z" stroke="#000000" stroke-width="0.400901" stroke-miterlimit="8" fill="#FFFFFF" transform="matrix(1.0007 0 0 1 14.0708 131.061)"/><text font-family="Calibri,Calibri_MSFontService,sans-serif" font-weight="400" font-size="11" transform="matrix(0.60177 0 0 0.601351 272.76 418)">N<tspan font-size="11" x="7.00002" y="0">008</tspan></text><path d="M282.334 276.321 316.01 276.321 316.01 293.76 282.334 293.76Z" stroke="#000000" stroke-width="0.400901" stroke-miterlimit="8" fill="#FFFFFF" transform="matrix(1.0007 0 0 1 14.0708 131.061)"/><text font-family="Yu Gothic,Yu Gothic_MSFontService,sans-serif" font-weight="400" font-size="11" transform="matrix(0.60177 0 0 0.601351 306.953 418)">手帳</text><path d="M315.409 276.321 349.084 276.321 349.084 293.76 315.409 293.76Z" stroke="#000000" stroke-width="0.400901" stroke-miterlimit="8" fill="#FFFFFF" transform="matrix(1.0007 0 0 1 14.0708 131.061)"/><text font-family="Calibri,Calibri_MSFontService,sans-serif" font-weight="400" font-size="11" transform="matrix(0.60177 0 0 0.601351 341.671 418)">752</text><path d="M248.659 293.76 282.334 293.76 282.334 311.199 248.659 311.199Z" stroke="#000000" stroke-width="0.400901" stroke-miterlimit="8" fill="#FFFFFF" transform="matrix(1.0007 0 0 1 14.0708 131.061)"/><text font-family="Calibri,Calibri_MSFontService,sans-serif" font-weight="400" font-size="11" transform="matrix(0.60177 0 0 0.601351 273.461 435)">L012</text><path d="M282.334 293.76 316.01 293.76 316.01 311.199 282.334 311.199Z" stroke="#000000" stroke-width="0.400901" stroke-miterlimit="8" fill="#FFFFFF" transform="matrix(1.0007 0 0 1 14.0708 131.061)"/><text font-family="Yu Gothic,Yu Gothic_MSFontService,sans-serif" font-weight="400" font-size="11" transform="matrix(0.60177 0 0 0.601351 303.743 432)">ルーズ<tspan font-size="11" x="0" y="13.3034">リーフ</tspan></text><path d="M315.409 293.76 349.084 293.76 349.084 311.199 315.409 311.199Z" stroke="#000000" stroke-width="0.400901" stroke-miterlimit="8" fill="#FFFFFF" transform="matrix(1.0007 0 0 1 14.0708 131.061)"/><text font-family="Calibri,Calibri_MSFontService,sans-serif" font-weight="400" font-size="11" transform="matrix(0.60177 0 0 0.601351 341.671 435)">108</text><path d="M349.084 241.443 383.362 241.443 383.362 258.882 349.084 258.882Z" stroke="#000000" stroke-width="0.400901" stroke-miterlimit="8" fill="#FFFFFF" transform="matrix(1.0007 0 0 1 14.0708 131.061)"/><text font-family="Yu Gothic,Yu Gothic_MSFontService,sans-serif" font-weight="400" font-size="12" transform="matrix(0.60177 0 0 0.601351 373.005 383)">単価</text><path d="M349.084 258.882 383.362 258.882 383.362 276.321 349.084 276.321Z" stroke="#000000" stroke-width="0.400901" stroke-miterlimit="8" fill="#FFFFFF" transform="matrix(1.0007 0 0 1 14.0708 131.061)"/><text font-family="Calibri,Calibri_MSFontService,sans-serif" font-weight="400" font-size="11" transform="matrix(0.60177 0 0 0.601351 375.413 400)">700</text><path d="M349.084 276.321 383.362 276.321 383.362 293.76 349.084 293.76Z" stroke="#000000" stroke-width="0.400901" stroke-miterlimit="8" fill="#FFFFFF" transform="matrix(1.0007 0 0 1 14.0708 131.061)"/><text font-family="Calibri,Calibri_MSFontService,sans-serif" font-weight="400" font-size="11" transform="matrix(0.60177 0 0 0.601351 373.808 418)">3500</text><path d="M349.084 293.76 383.362 293.76 383.362 311.199 349.084 311.199Z" stroke="#000000" stroke-width="0.400901" stroke-miterlimit="8" fill="#FFFFFF" transform="matrix(1.0007 0 0 1 14.0708 131.061)"/><text font-family="Calibri,Calibri_MSFontService,sans-serif" font-weight="400" font-size="11" transform="matrix(0.60177 0 0 0.601351 373.808 435)">1400</text><path d="M248.659 311.199 282.334 311.199 282.334 328.639 248.659 328.639Z" stroke="#000000" stroke-width="0.400901" stroke-miterlimit="8" fill="#FFFFFF" transform="matrix(1.0007 0 0 1 14.0708 131.061)"/><text font-family="Yu Gothic,Yu Gothic_MSFontService,sans-serif" font-weight="400" font-size="11" transform="matrix(0.60177 0 0 0.601351 270.001 453)">・・・</text><path d="M282.334 311.199 316.01 311.199 316.01 328.639 282.334 328.639Z" stroke="#000000" stroke-width="0.400901" stroke-miterlimit="8" fill="#FFFFFF" transform="matrix(1.0007 0 0 1 14.0708 131.061)"/><text font-family="Yu Gothic,Yu Gothic_MSFontService,sans-serif" font-weight="400" font-size="11" transform="matrix(0.60177 0 0 0.601351 303.743 453)">・・・</text><path d="M315.409 311.199 349.084 311.199 349.084 328.639 315.409 328.639Z" stroke="#000000" stroke-width="0.400901" stroke-miterlimit="8" fill="#FFFFFF" transform="matrix(1.0007 0 0 1 14.0708 131.061)"/><text font-family="Yu Gothic,Yu Gothic_MSFontService,sans-serif" font-weight="400" font-size="11" transform="matrix(0.60177 0 0 0.601351 336.857 453)">・・・</text><path d="M349.084 311.199 383.362 311.199 383.362 328.639 349.084 328.639Z" stroke="#000000" stroke-width="0.400901" stroke-miterlimit="8" fill="#FFFFFF" transform="matrix(1.0007 0 0 1 14.0708 131.061)"/><text font-family="Yu Gothic,Yu Gothic_MSFontService,sans-serif" font-weight="400" font-size="11" transform="matrix(0.60177 0 0 0.601351 370.598 453)">・・・</text></g></g></g></g><text font-family="Calibri,Calibri_MSFontService,sans-serif" font-weight="400" font-size="16" transform="translate(190.271 351)">IT<tspan font-family="Yu Gothic,Yu Gothic_MSFontService,sans-serif" font-size="16" x="11.8333" y="0">システム上のストレージやデータベースなど</tspan><tspan font-family="Yu Gothic,Yu Gothic_MSFontService,sans-serif" font-size="16" x="54.4431" y="148">概念インスタンスの状態を保持</tspan></text><rect x="95" y="45" width="248" height="244" fill="#F2F2F2"/><text font-family="Yu Gothic,Yu Gothic_MSFontService,sans-serif" font-weight="400" font-size="16" transform="translate(179.294 65)">現実の世界</text><path d="M222.5 288.932 247 274.5 271.5 288.932 255.894 288.932 255.894 327.069 271.5 327.069 247 341.5 222.5 327.069 238.106 327.069 238.106 288.932Z" stroke="#AE5A21" stroke-width="1.33333" stroke-miterlimit="8" stroke-opacity="0.501961" fill="#ED7D31" fill-rule="evenodd" fill-opacity="0.501961"/><text font-family="Yu Gothic,Yu Gothic_MSFontService,sans-serif" font-weight="400" font-size="16" transform="translate(230.631 313)">同期</text><rect x="380" y="136" width="248" height="155" fill="#F2F2F2"/><text font-family="Yu Gothic,Yu Gothic_MSFontService,sans-serif" font-weight="400" font-size="16" transform="translate(447.873 156)">概念情報モデル</text><g clip-path="url(#clip9)"><g clip-path="url(#clip10)"><g clip-path="url(#clip11)"><g clip-path="url(#clip12)"><path d="M66.6011 78.1421 127.191 78.1421 127.191 119.978 66.6011 119.978Z" stroke="#000000" stroke-width="0.641164" stroke-miterlimit="8" fill="#FFFFFF" transform="matrix(1.00457 0 0 1 330.819 106.06)"/><text font-family="Yu Gothic,Yu Gothic_MSFontService,sans-serif" font-weight="400" font-size="13" transform="matrix(0.48307 0 0 0.480874 421.528 192)">顧客<tspan font-family="Consolas,Consolas_MSFontService,sans-serif" font-size="13" x="-40.2467" y="14.5568">*</tspan><tspan font-size="13" x="-32.9133" y="14.5568">顧客</tspan><tspan font-family="Consolas,Consolas_MSFontService,sans-serif" font-size="13" x="-6.24667" y="14.5568">ID</tspan><tspan font-size="13" x="-26.9133" y="31.1932">顧客名</tspan><tspan font-size="13" x="-26.9133" y="47.8295">住所</tspan></text><path d="M217.596 78.1421 278.667 78.1421 278.667 119.978 217.596 119.978Z" stroke="#000000" stroke-width="0.641164" stroke-miterlimit="8" fill="#FFFFFF" transform="matrix(1.00457 0 0 1 330.819 106.06)"/><text font-family="Yu Gothic,Yu Gothic_MSFontService,sans-serif" font-weight="400" font-size="13" transform="matrix(0.48307 0 0 0.480874 573.328 192)">商品<tspan font-family="Consolas,Consolas_MSFontService,sans-serif" font-size="13" x="-40.2467" y="14.5568">*</tspan><tspan font-size="13" x="-32.9133" y="14.5568">商品</tspan><tspan font-size="13" x="-6.91328" y="14.5568">コード</tspan><tspan font-size="13" x="-26.9132" y="31.1932">商品名</tspan><tspan font-size="13" x="-26.9132" y="47.8295">在庫</tspan><tspan font-size="13" x="-26.9132" y="62.3864">単価</tspan></text><path d="M127.191 98.8197 217.497 98.8197" stroke="#000000" stroke-width="0.320583" stroke-miterlimit="8" fill="none" fill-rule="evenodd" transform="matrix(1.00457 0 0 1 330.819 106.06)"/><path d="M0 0 2.94245 23.0917" stroke="#000000" stroke-width="0.961749" stroke-miterlimit="8" stroke-dasharray="0.961749 0.961749" fill="none" fill-rule="evenodd" transform="matrix(1.00457 0 0 -1 500.86 228.693)"/><text font-family="Yu Gothic,Yu Gothic_MSFontService,sans-serif" font-weight="400" font-size="11" transform="matrix(0.48307 0 0 0.480874 464.031 201)">発注者<tspan font-family="Calibri,Calibri_MSFontService,sans-serif" font-size="11" x="-3.70018" y="20.7955">*</tspan><tspan font-family="Calibri,Calibri_MSFontService,sans-serif" font-size="11" x="158.002" y="6.23864">*</tspan><tspan font-size="11" x="125.323" y="20.7955">購入予約</tspan></text><path d="M139.213 122.863 199.803 122.863 199.803 164.699 139.213 164.699Z" stroke="#000000" stroke-width="0.641164" stroke-miterlimit="8" fill="#FFFFFF" transform="matrix(1.00457 0 0 1 330.819 106.06)"/><text font-family="Yu Gothic,Yu Gothic_MSFontService,sans-serif" font-weight="400" font-size="13" transform="matrix(0.48307 0 0 0.480874 494.463 237)">注文<tspan font-family="Consolas,Consolas_MSFontService,sans-serif" font-size="13" x="-40.2467" y="16.6364">*</tspan><tspan font-size="13" x="-32.9133" y="16.6364">注文</tspan><tspan font-family="Consolas,Consolas_MSFontService,sans-serif" font-size="13" x="-6.24667" y="16.6364">ID</tspan><tspan font-size="13" x="-26.9133" y="31.1932">個数</tspan><tspan font-size="13" x="-26.9133" y="47.8295">金額</tspan></text></g></g></g></g><path d="M409.5 337 421.75 337 421.75 256.5 446.25 256.5 446.25 337 458.5 337 434 361.5Z" stroke="#AE5A21" stroke-width="1.33333" stroke-miterlimit="8" stroke-opacity="0.501961" fill="#ED7D31" fill-rule="evenodd" fill-opacity="0.501961"/><text font-family="Yu Gothic,Yu Gothic_MSFontService,sans-serif" font-weight="400" font-size="16" transform="translate(395.428 295)">存在条件を<tspan font-size="16" x="24" y="19">規定</tspan></text><path d="M544.5 118.932 569 104.5 593.5 118.932 577.894 118.932 577.894 342.068 593.5 342.068 569 356.5 544.5 342.068 560.106 342.068 560.106 118.932Z" stroke="#AE5A21" stroke-width="1.33333" stroke-miterlimit="8" stroke-opacity="0.501961" fill="#ED7D31" fill-rule="evenodd" fill-opacity="0.501961"/><g clip-path="url(#clip13)"><g clip-path="url(#clip14)"><g clip-path="url(#clip15)"><path d="M447.48 90.7483C446.777 89.6952 445.802 88.9935 444.794 88.4936 447.027 85.7226 443.113 78.773 442.831 69.0087 442.831 65.3341 440.432 59.5669 432.498 60.0258 426.439 60.3767 423.62 65.8929 423.62 68.666L423.581 68.6862C423.394 78.4685 420.556 85.2326 422.328 88.4171 421.728 88.7058 421.137 89.0605 420.602 89.52 419.998 90.0378 419.468 90.6893 419.095 91.4986 418.722 92.3078 418.508 93.2688 418.509 94.3934 418.509 94.6542 418.52 94.9238 418.544 95.2032 418.561 95.3996 418.635 95.5579 418.723 95.6888 418.889 95.9339 419.109 96.1155 419.386 96.3016 419.871 96.6219 420.541 96.9351 421.4 97.2429 423.971 98.1597 428.227 98.9984 433.5 99 437.785 98.9995 441.401 98.4434 443.983 97.745 445.274 97.3952 446.305 97.0116 447.051 96.6285 447.423 96.4364 447.725 96.2455 447.965 96.037 448.085 95.9311 448.19 95.8209 448.278 95.6888 448.365 95.5578 448.439 95.3996 448.457 95.2032 448.48 94.9238 448.491 94.6553 448.491 94.3956 448.493 92.8961 448.108 91.688 447.48 90.7483ZM425.393 74.0584C425.699 74.2636 426.038 74.3901 426.412 74.4136 434.791 73.708 438.055 69.9156 437.79 67.5343 439.113 70.709 438.849 73.1569 440.635 74.281 440.813 74.0682 440.977 73.8423 441.135 73.6121 441.208 73.6246 441.3 73.6502 441.372 73.6972 441.438 73.7397 441.493 73.7893 441.543 73.8805 441.592 73.9722 441.639 74.1174 441.64 74.3662 441.64 74.5801 441.602 74.8671 441.496 75.2381 441.175 76.3693 440.887 77.0269 440.623 77.3913 440.491 77.5757 440.37 77.6915 440.236 77.7853 440.101 77.8786 439.946 77.9523 439.744 78.0249L439.426 78.1389 439.367 78.4718C438.994 80.5584 437.919 81.7316 437.125 82.6156L436.975 82.7815 436.975 83.0052C436.975 84.0638 436.975 84.8354 436.975 85.4531 436.975 85.799 437.099 86.11 437.272 86.3709L435.335 90.0237 435.343 90.0303 433.694 93.1527 431.616 89.824 429.756 86.317C429.912 86.0687 430.025 85.7789 430.025 85.4532 430.025 84.8355 430.025 84.0634 430.025 83.0053L430.025 82.7816 429.876 82.6157C429.082 81.7317 428.007 80.5585 427.634 78.4718L427.575 78.139 427.257 78.0249C427.055 77.9523 426.9 77.8787 426.765 77.7854 426.566 77.6446 426.386 77.453 426.175 77.0596 425.967 76.6689 425.746 76.0855 425.504 75.2381 425.398 74.8681 425.361 74.5801 425.361 74.3662 425.361 74.2383 425.374 74.1391 425.393 74.0584ZM439.45 92.5365 436.011 89.8774 437.642 86.8026C437.904 87.052 438.209 87.2609 438.537 87.4482 438.705 87.5441 438.884 87.6272 439.061 87.7117L439.45 92.5365ZM431.045 89.8774 427.606 92.5365 427.996 87.6948C428.299 87.548 428.599 87.381 428.874 87.1895 429.06 87.0596 429.231 86.9123 429.389 86.7556L431.045 89.8774ZM434.427 97.8247C434.12 97.8302 433.814 97.8356 433.5 97.8356 429.318 97.8362 425.79 97.2899 423.322 96.6209 422.089 96.2881 421.119 95.9219 420.483 95.594 420.166 95.4314 419.932 95.2753 419.803 95.1618 419.748 95.1133 419.717 95.0767 419.702 95.0554 419.684 94.8256 419.673 94.6041 419.673 94.3935 419.675 93.0872 419.995 92.1322 420.488 91.3841 421.227 90.266 422.412 89.5817 423.651 89.1157 424.267 88.8822 424.891 88.7054 425.464 88.5521 426.037 88.3982 426.556 88.27 426.988 88.1182 427.136 88.0658 427.29 88.008 427.446 87.9436L426.983 93.688 431.314 90.3392 434.427 95.3272 434.427 97.8247ZM447.298 95.0542 447.248 95.1137C447.163 95.2005 446.99 95.3309 446.746 95.4694 445.888 95.9649 444.194 96.5739 441.92 97.0366 439.988 97.4317 437.625 97.7291 434.955 97.8103L434.955 95.1747 434.018 93.6719 435.768 90.3586 440.074 93.6878 439.612 87.9555C439.742 88.0089 439.874 88.0668 440.002 88.1148 440.578 88.3287 441.313 88.4968 442.117 88.7314 443.319 89.0785 444.648 89.5669 445.637 90.4165 446.133 90.841 446.549 91.3507 446.847 91.9935 447.144 92.6352 447.327 93.4161 447.327 94.3956 447.327 94.6046 447.316 94.8256 447.298 95.0542Z" fill="#4B4B4B"/><path d="M433.325 96.9046C433.526 96.9046 433.689 96.7414 433.689 96.5401 433.689 96.3393 433.526 96.1767 433.325 96.1767 433.124 96.1767 432.961 96.3393 432.961 96.5401 432.961 96.7414 433.124 96.9046 433.325 96.9046Z" fill="#4B4B4B"/></g></g></g><text font-family="Yu Gothic,Yu Gothic_MSFontService,sans-serif" font-weight="400" font-size="16" transform="translate(484.113 69)">ビジネス上の<tspan font-size="16" x="0" y="19">問いかけ</tspan><tspan font-size="16" x="0" y="38">操作</tspan></text><path d="M367 231.5 367 219.25 326.5 219.25 326.5 194.75 367 194.75 367 182.5 391.5 207Z" stroke="#AE5A21" stroke-width="1.33333" stroke-miterlimit="8" stroke-opacity="0.501961" fill="#ED7D31" fill-rule="evenodd" fill-opacity="0.501961"/><text font-family="Yu Gothic,Yu Gothic_MSFontService,sans-serif" font-weight="400" font-size="16" transform="translate(316.675 167)">概念を抽出し<tspan font-size="16" x="16" y="19">モデル化</tspan></text><g clip-path="url(#clip16)"><g clip-path="url(#clip17)"><g clip-path="url(#clip18)"><g clip-path="url(#clip19)"><g clip-path="url(#clip20)"><g clip-path="url(#clip21)"><g clip-path="url(#clip22)"><path d="M28.2032 1.15186C27.4943 0.441696 26.5055 0 25.4226 0L6.89788 0C5.81461 0 4.82634 0.441696 4.11744 1.15186 3.40685 1.86094 2.96509 2.84927 2.96533 3.93308L2.96533 4.24993 2.10047 4.24993C1.74199 4.24993 1.45138 4.54084 1.45138 4.8998 1.45138 5.2578 1.74206 5.54866 2.10047 5.54866L2.96533 5.54866 2.96533 9.445 2.10047 9.445C1.74199 9.445 1.45138 9.73591 1.45138 10.0943 1.45138 10.4524 1.74206 10.7438 2.10047 10.7438L2.96533 10.7438 2.96533 14.6401 2.10047 14.6401C1.74199 14.6401 1.45138 14.931 1.45138 15.289 1.45138 15.6475 1.74206 15.9379 2.10047 15.9379L2.96533 15.9379 2.96533 19.8347 2.10047 19.8347C1.74199 19.8347 1.45138 20.1261 1.45138 20.4841 1.45138 20.8426 1.74206 21.1329 2.10047 21.1329L2.96533 21.1329 2.96533 25.0298 2.10047 25.0298C1.74199 25.0298 1.45138 25.3202 1.45138 25.6787 1.45138 26.0372 1.74206 26.328 2.10047 26.328L2.96533 26.328 2.96533 26.8736C2.96509 27.9569 3.40685 28.9451 4.11744 29.6543 4.82634 30.3644 5.81461 30.8067 6.89788 30.8062L25.4226 30.8062C26.5055 30.8067 27.4943 30.3644 28.2032 29.6543 28.9133 28.9451 29.3554 27.9568 29.3549 26.8736L29.3549 3.93308C29.3554 2.84927 28.9133 1.86094 28.2032 1.15186ZM9.8091 29.0754 6.89788 29.0754C6.28698 29.0754 5.7421 28.8306 5.34102 28.4305 4.9412 28.0294 4.69656 27.4848 4.69608 26.8736L4.69608 26.328 6.06954 26.328C6.29577 26.7071 6.70961 26.9626 7.18367 26.9626 7.9004 26.9626 8.48144 26.3813 8.48144 25.6649 8.48144 24.9479 7.9004 24.3671 7.18367 24.3671 6.69758 24.3671 6.27495 24.6344 6.05239 25.0297L4.69602 25.0297 4.69602 21.1329 6.06725 21.1329C6.29324 21.5144 6.70804 21.7711 7.18362 21.7711 7.90034 21.7711 8.48135 21.1897 8.48135 20.4733 8.48135 19.7568 7.90034 19.1754 7.18362 19.1754 6.69896 19.1754 6.27736 19.4419 6.05449 19.8346L4.69602 19.8346 4.69602 15.9378 6.06508 15.9378C6.29059 16.3218 6.70666 16.5799 7.18367 16.5799 7.9004 16.5799 8.48144 15.9985 8.48144 15.2826 8.48144 14.5652 7.9004 13.9838 7.18367 13.9838 6.70052 13.9838 6.28006 14.2483 6.05678 14.64L4.69602 14.64 4.69602 10.7437 6.06309 10.7437C6.28837 11.1287 6.70515 11.3882 7.18362 11.3882 7.90034 11.3882 8.48135 10.8075 8.48135 10.0904 8.48135 9.37448 7.90034 8.79266 7.18362 8.79266 6.70221 8.79266 6.28224 9.0561 6.05871 9.445L4.69602 9.445 4.69602 5.54866 6.06093 5.54866C6.28542 5.93602 6.70365 6.19709 7.18367 6.19709 7.9004 6.19709 8.48144 5.61575 8.48144 4.8998 8.48144 4.18236 7.9004 3.60149 7.18367 3.60149 6.70371 3.60149 6.28548 3.86298 6.06093 4.24993L4.69602 4.24993 4.69602 3.93308C4.6965 3.32135 4.94114 2.77683 5.34096 2.37521 5.74204 1.97557 6.28692 1.73122 6.89782 1.73074L9.80902 1.73074 9.80902 29.0754ZM27.6246 26.8736C27.6241 27.4848 27.3794 28.0294 26.9796 28.4305 26.5785 28.8306 26.0334 29.0754 25.4225 29.0754L10.4582 29.0754 10.4582 1.73074 25.4226 1.73074C26.0335 1.73122 26.5786 1.97557 26.9796 2.37521 27.3795 2.77683 27.6241 3.32135 27.6246 3.93308L27.6246 26.8736Z" fill="#4B4B4B" transform="matrix(1 0 0 1.02596 273.361 234.562)"/><path d="M13.1081 6.80533 24.5961 6.80533 24.5961 7.45419 13.1081 7.45419Z" fill="#4B4B4B" transform="matrix(1 0 0 1.02596 273.361 234.562)"/><path d="M13.1081 10.9695 24.5961 10.9695 24.5961 11.6184 13.1081 11.6184Z" fill="#4B4B4B" transform="matrix(1 0 0 1.02596 273.361 234.562)"/><path d="M13.1081 15.1337 24.5961 15.1337 24.5961 15.7827 13.1081 15.7827Z" fill="#4B4B4B" transform="matrix(1 0 0 1.02596 273.361 234.562)"/><path d="M13.1081 19.2979 24.5961 19.2979 24.5961 19.9468 13.1081 19.9468Z" fill="#4B4B4B" transform="matrix(1 0 0 1.02596 273.361 234.562)"/><path d="M13.1081 23.4621 24.5961 23.4621 24.5961 24.1105 13.1081 24.1105Z" fill="#4B4B4B" transform="matrix(1 0 0 1.02596 273.361 234.562)"/></g></g></g><g clip-path="url(#clip23)"><g clip-path="url(#clip24)"><g clip-path="url(#clip25)"><path d="M20.5033 0 2.7743 17.729 0 30.8062 13.0744 28.0319 30.8062 10.3001 20.5033 0ZM20.5033 3.14945 23.664 6.31015 8.68026 21.2921 5.52044 18.1323 20.5033 3.14945ZM6.62134 27.0983 3.70691 24.1838 4.82568 19.1015 11.7028 25.9795 6.62134 27.0983ZM12.672 25.2839 9.51311 22.125 24.4951 7.14125 27.6558 10.3001 12.672 25.2839Z" fill="#4B4B4B" transform="matrix(1 0 0 1.02596 273.361 97.3269)"/></g></g></g><g clip-path="url(#clip26)"><g clip-path="url(#clip27)"><g clip-path="url(#clip28)"><path d="M182.996 565.868C182.757 565.779 182.498 565.656 182.233 565.51L177.816 571.618 177.501 567.617 175.153 567.617 174.839 571.618 170.421 565.51C170.149 565.663 169.887 565.787 169.658 565.868 167.344 566.682 161.661 569.025 162.028 573.413 162.116 574.465 167.906 575.558 176.327 575.558 184.748 575.558 190.538 574.465 190.626 573.413 190.993 569.02 185.295 566.728 182.996 565.868Z" fill="#4B4B4B" transform="matrix(1.00104 0 0 1 -44.6916 -309.389)"/><path d="M171.111 556.809C171.432 558.63 171.973 560.238 172.685 561.03 172.685 561.979 172.685 562.672 172.685 563.226 172.685 563.282 172.675 563.34 172.659 563.401L175.153 564.603 175.153 566.365 177.501 566.365 177.501 564.603 179.994 563.402C179.978 563.341 179.969 563.283 179.969 563.226 179.969 562.672 179.969 561.979 179.969 561.03 180.682 560.238 181.222 558.63 181.544 556.809 182.293 556.541 182.723 556.112 183.258 554.237 183.827 552.239 182.401 552.307 182.401 552.307 183.555 548.488 182.035 544.898 179.492 545.162 177.738 542.092 171.861 545.863 170.017 545.6 170.017 546.653 170.457 547.443 170.457 547.443 169.816 548.658 170.063 551.082 170.244 552.307 170.139 552.306 168.849 552.319 169.396 554.237 169.932 556.112 170.36 556.541 171.111 556.809Z" fill="#4B4B4B" transform="matrix(1.00104 0 0 1 -44.6916 -309.389)"/></g></g></g><g clip-path="url(#clip29)"><g clip-path="url(#clip30)"><g clip-path="url(#clip31)"><path d="M187.462 500.803C186.713 499.681 185.572 499.059 184.5 498.654 183.961 498.452 183.435 498.303 182.971 498.176 182.508 498.05 182.104 497.943 181.832 497.841 181.446 497.698 181.048 497.52 180.722 497.325L180.722 495.288 180.008 495.407C180.008 495.213 180.008 495.01 180.008 494.786 180.615 494.111 181.489 493.066 181.845 491.403 181.973 491.347 182.097 491.283 182.219 491.199 182.512 490.996 182.761 490.701 182.973 490.299 183.187 489.896 183.377 489.379 183.58 488.67 183.681 488.312 183.729 488.001 183.729 487.724 183.729 487.407 183.664 487.131 183.545 486.909 183.412 486.661 183.221 486.496 183.036 486.39L183.036 485.626C183.06 485.604 183.09 485.584 183.111 485.562 183.719 484.93 183.477 484.199 183.055 483.655 183.585 482.91 184.646 481.19 184.346 479.694 183.709 476.505 179.22 475.75 176.327 475.75 173.434 475.75 168.945 476.505 168.307 479.694 168.009 481.19 169.068 482.91 169.6 483.655 169.19 484.182 168.956 484.887 169.498 485.505L169.498 486.476C169.354 486.579 169.211 486.717 169.11 486.909 168.99 487.132 168.925 487.407 168.925 487.724 168.925 488.001 168.973 488.312 169.075 488.67 169.345 489.614 169.59 490.222 169.905 490.666 170.062 490.888 170.241 491.064 170.436 491.199 170.556 491.283 170.682 491.347 170.808 491.403 171.165 493.066 172.039 494.111 172.646 494.787 172.646 495.01 172.646 495.213 172.646 495.407L171.932 495.288 171.932 497.326C171.895 497.348 171.861 497.372 171.821 497.394 171.507 497.573 171.146 497.728 170.83 497.838 170.459 497.971 169.864 498.107 169.197 498.297 168.194 498.587 167.012 499.004 166.05 499.828 165.571 500.24 165.15 500.758 164.854 501.401 164.558 502.043 164.387 502.806 164.387 503.701 164.387 503.909 164.397 504.124 164.416 504.346 164.429 504.497 164.486 504.62 164.555 504.723 164.685 504.915 164.86 505.059 165.079 505.207 165.463 505.461 165.997 505.71 166.681 505.955 168.729 506.685 172.123 507.354 176.327 507.356 179.743 507.355 182.627 506.912 184.684 506.356 185.713 506.077 186.535 505.771 187.127 505.466 187.424 505.314 187.664 505.162 187.853 504.997 187.947 504.914 188.029 504.826 188.099 504.723 188.167 504.621 188.226 504.497 188.238 504.346 188.257 504.124 188.266 503.91 188.266 503.702 188.267 502.51 187.961 501.55 187.462 500.803ZM175.701 479.374 176.328 477.975 176.954 479.374 178.478 479.538 177.342 480.565 177.656 482.065 176.328 481.303 174.998 482.065 175.312 480.565 174.176 479.538 175.701 479.374ZM176.327 506.078C175.88 506.078 175.519 505.716 175.519 505.27 175.519 504.824 175.88 504.462 176.327 504.462 176.774 504.462 177.135 504.824 177.135 505.27 177.135 505.716 176.774 506.078 176.327 506.078ZM176.327 502.118C175.88 502.118 175.519 501.756 175.519 501.31 175.519 500.863 175.88 500.502 176.327 500.502 176.774 500.502 177.135 500.863 177.135 501.31 177.135 501.756 176.774 502.118 176.327 502.118ZM176.327 498.885 172.202 498.198C172.347 498.117 172.49 498.032 172.625 497.938 172.703 497.885 172.774 497.823 172.846 497.764L176.176 498.319 176.176 495.995 173.535 495.555C173.535 495.275 173.535 494.97 173.535 494.617L173.535 494.446 173.42 494.319C172.788 493.613 171.926 492.673 171.628 491.004L171.583 490.749 171.34 490.662C171.178 490.604 171.052 490.545 170.943 490.469 170.781 490.355 170.635 490.198 170.466 489.883 170.299 489.569 170.122 489.103 169.929 488.426 169.845 488.129 169.814 487.898 169.814 487.724 169.814 487.524 169.853 487.405 169.893 487.329 169.955 487.217 170.031 487.169 170.126 487.131 170.14 487.126 170.154 487.122 170.168 487.118L171.721 488.317 171.721 486.479C173.395 486.835 175.46 486.903 176.327 486.903 177.173 486.903 179.161 486.839 180.812 486.506L180.812 488.317 182.39 487.098C182.453 487.107 182.546 487.127 182.617 487.175 182.673 487.21 182.719 487.252 182.76 487.329 182.801 487.405 182.839 487.524 182.839 487.724 182.839 487.898 182.809 488.129 182.725 488.426 182.468 489.329 182.238 489.855 182.025 490.15 181.919 490.299 181.821 490.392 181.712 490.469 181.602 490.545 181.476 490.604 181.314 490.662L181.071 490.749 181.026 491.004C180.728 492.673 179.867 493.613 179.234 494.319L179.119 494.446 179.119 494.617C179.119 494.97 179.119 495.275 179.119 495.555L176.479 495.995 176.479 498.319 179.797 497.766C179.967 497.906 180.156 498.03 180.354 498.144 180.388 498.163 180.425 498.178 180.46 498.197L176.327 498.885Z" fill="#4B4B4B" transform="matrix(1.00104 0 0 1 -44.6916 -309.389)"/></g></g></g><g clip-path="url(#clip32)"><g clip-path="url(#clip33)"><g clip-path="url(#clip34)"><path d="M170.561 415.802C170.561 415.802 174.055 416.502 178.598 411.959 180.695 414.755 182.094 416.152 182.094 416.152L182.094 420.348C183.496 418.9 184.365 416.93 184.365 414.755 184.365 410.315 180.767 406.716 176.327 406.716 171.888 406.716 168.289 410.315 168.289 414.755 168.289 416.93 169.157 418.9 170.561 420.348L170.561 415.802Z" fill="#4B4B4B" transform="matrix(1.00104 0 0 1 -44.6916 -309.389)"/><path d="M181.717 425.077C181.153 425.385 176.327 435.982 176.327 435.982 176.327 435.982 171.501 425.385 170.936 425.077 165.503 427.036 165.26 431.428 165.26 438.322L187.394 438.322C187.394 431.428 187.151 427.036 181.717 425.077Z" fill="#4B4B4B" transform="matrix(1.00104 0 0 1 -44.6916 -309.389)"/><path d="M173.921 424.603 173.921 427.812 176.327 426.993 178.733 427.812 178.733 424.603 176.327 425.421Z" fill="#4B4B4B" transform="matrix(1.00104 0 0 1 -44.6916 -309.389)"/></g></g></g><g clip-path="url(#clip35)"><g clip-path="url(#clip36)"><g clip-path="url(#clip37)"><path d="M6.15678 4.36148C5.82201 4.36051 5.52838 4.2285 5.30793 4.0095 5.08891 3.78904 4.95649 3.49493 4.95594 3.16016 4.95642 2.82538 5.08891 2.53128 5.30744 2.31082 5.5279 2.09175 5.82201 1.95981 6.15678 1.95884L26.8296 1.95926 26.8296 0.000421178 6.15678 0C4.41123 0.000962693 2.99758 1.41462 2.99711 3.16016L2.99711 27.646C2.99758 29.3915 4.41123 30.8052 6.15678 30.8061L27.8091 30.8061 27.8091 4.36148 6.15678 4.36148ZM25.8502 28.8468 6.88181 28.8473 6.88181 6.32038 25.8502 6.32038 25.8502 28.8468Z" fill="#4B4B4B" transform="matrix(1 0 0 1.02596 273.361 166.361)"/><path d="M23.0344 25.4193 23.0344 9.0138 9.81201 9.0138 9.81201 26.1539 23.0344 26.1539 23.0344 25.4193ZM21.5651 24.6847 11.2811 24.6847 11.2811 10.4829 21.5651 10.4829 21.5651 24.6847Z" fill="#4B4B4B" transform="matrix(1 0 0 1.02596 273.361 166.361)"/><path d="M13.4849 20.6445 19.3614 20.6445 19.3614 21.7464 13.4849 21.7464Z" fill="#4B4B4B" transform="matrix(1 0 0 1.02596 273.361 166.361)"/></g></g></g><path d="M192.546 422.658 194.764 422.658 194.764 423.212 192.546 423.212ZM196.427 422.658 198.645 422.658 198.645 423.212 196.427 423.212ZM200.308 422.658 202.526 422.658 202.526 423.212 200.308 423.212ZM204.189 423.212 206.406 423.223 206.409 422.668 204.192 422.658ZM208.072 422.676 210.291 422.686 210.288 423.24 208.07 423.23ZM211.954 422.694 214.172 422.704 214.169 423.259 211.952 423.248ZM215.836 422.711 218.053 422.723 218.051 423.277 215.832 423.266ZM219.717 422.73 221.935 422.742 221.932 423.296 219.714 423.285ZM223.598 422.75 225.816 422.76 225.813 423.315 223.595 423.304ZM227.481 422.777 229.699 422.801 229.693 423.355 227.475 423.332ZM231.363 422.819 233.58 422.844 233.574 423.398 231.356 423.373ZM235.243 422.863 235.487 422.866 235.484 422.866 237.458 422.866 237.458 423.42 235.482 423.42 235.238 423.418ZM239.122 422.866 239.697 422.866 241.343 422.889 241.336 423.443 239.691 423.42 239.695 423.42 239.122 423.42ZM243.007 422.912 243.441 422.918 245.225 422.946 245.216 423.5 243.433 423.472 242.999 423.467ZM246.888 422.972 249.107 423.012 249.097 423.566 246.878 423.526ZM250.771 423.047 251.918 423.074 252.99 423.107 252.973 423.661 251.902 423.628 251.904 423.628 250.758 423.602ZM254.683 423.185 255.017 423.233 255.38 423.284 255.355 423.282 256.395 423.334 256.389 423.333 256.861 423.348 256.844 423.902 256.37 423.888 255.315 423.835 254.938 423.782 254.604 423.734ZM258.522 423.397 260.338 423.437 260.337 423.437 260.738 423.445 260.728 424 260.326 423.992 258.509 423.951ZM262.401 423.475 263.196 423.49 264.618 423.511 264.609 424.066 263.185 424.044 262.391 424.03ZM266.281 423.538 266.522 423.541 268.499 423.569 268.491 424.124 266.513 424.096 266.273 424.092ZM270.162 423.592 270.264 423.594 270.261 423.594 272.376 423.594 272.376 424.148 270.258 424.148 270.154 424.147ZM274.039 423.594 274.473 423.594 276.26 423.614 276.254 424.169 274.468 424.148 274.471 424.148 274.039 424.148ZM277.924 423.633 279.049 423.645 280.141 423.657 280.135 424.212 279.042 424.2 277.917 424.187ZM281.805 423.675 283.935 423.698 283.934 423.698 284.021 423.698 284.018 424.253 283.93 424.252 281.799 424.229ZM285.685 423.706 287.902 423.717 287.899 424.272 285.681 424.261ZM289.565 423.725 291.784 423.736 291.781 424.291 289.563 424.28ZM293.447 423.744 294.486 423.749 295.664 423.755 295.662 424.309 294.483 424.304 293.445 424.299ZM297.328 423.763 299.546 423.773 299.544 424.327 297.325 424.317ZM301.21 423.78 303.428 423.791 303.425 424.345 301.207 424.335ZM305.091 423.798 305.767 423.802 305.765 423.802 307.308 423.802 307.308 424.356 305.764 424.356 305.089 424.353ZM308.971 423.802 311.189 423.802 311.189 424.356 308.971 424.356ZM312.852 423.802 315.07 423.802 315.07 424.356 312.852 424.356ZM316.734 423.802 316.86 423.802 316.86 424.356 316.734 424.356ZM310.346 419.958 317.411 424.079 310.346 428.2C310.214 428.276 310.044 428.232 309.967 428.1 309.89 427.968 309.935 427.798 310.067 427.721L316.721 423.839 316.721 424.318 310.067 420.437C309.935 420.36 309.89 420.19 309.967 420.057 310.044 419.925 310.214 419.881 310.346 419.958Z" transform="matrix(1.00104 0 0 1 -44.6916 -309.389)"/><g clip-path="url(#clip38)"><g clip-path="url(#clip39)"><g clip-path="url(#clip40)"><path d="M246.03 421.201 259.641 421.201 259.641 422.345 246.03 422.345Z" fill="#4B4B4B" transform="matrix(1.00104 0 0 1 -44.6916 -309.389)"/><path d="M244.857 425.721 258.468 425.721 258.468 426.865 244.857 426.865Z" fill="#4B4B4B" transform="matrix(1.00104 0 0 1 -44.6916 -309.389)"/><path d="M265.278 408.976 265.278 408.24 242.242 408.24 242.242 408.976C242.242 410.495 242.285 412.083 242.285 413.732 242.285 416.137 242.196 418.67 241.768 421.307 241.359 423.815 240.645 426.418 239.406 429.102L237.189 429.102C236.797 429.102 236.401 429.164 236.019 429.297 235.448 429.495 234.907 429.858 234.497 430.391 234.086 430.922 233.814 431.613 233.734 432.428 233.722 432.546 233.716 432.664 233.716 432.78 233.716 433.371 233.868 433.928 234.124 434.416 234.509 435.151 235.117 435.735 235.823 436.141 236.53 436.548 237.342 436.783 238.168 436.788L255.68 436.798C256.346 436.8 256.924 436.664 257.417 436.44 257.909 436.218 258.311 435.922 258.684 435.625 260.209 434.41 261.388 432.904 262.293 431.232 263.65 428.723 264.4 425.84 264.819 422.908 265.236 419.975 265.321 416.991 265.322 414.273 265.322 412.328 265.278 410.519 265.278 408.976ZM238.176 435.318 238.177 435.318C237.812 435.316 237.433 435.245 237.075 435.111 236.537 434.91 236.049 434.573 235.713 434.164 235.544 433.96 235.413 433.738 235.323 433.508 235.234 433.277 235.187 433.036 235.187 432.78 235.187 432.713 235.19 432.645 235.197 432.575 235.236 432.186 235.329 431.875 235.453 431.624 235.64 431.248 235.893 430.998 236.191 430.827 236.488 430.657 236.836 430.58 237.189 430.58L252.948 430.58C252.777 430.777 252.625 431 252.503 431.254 252.324 431.626 252.204 432.057 252.155 432.542 252.144 432.652 252.139 432.761 252.139 432.868 252.139 433.382 252.261 433.868 252.475 434.3 252.667 434.688 252.932 435.033 253.245 435.327L238.176 435.318ZM262.848 425.476C262.424 427.288 261.827 429.005 261 430.533 260.172 432.06 259.118 433.398 257.768 434.475 257.427 434.746 257.128 434.958 256.812 435.099 256.495 435.241 256.157 435.326 255.68 435.328L255.189 435.327C254.744 435.201 254.332 434.979 253.996 434.686 253.724 434.45 253.506 434.172 253.354 433.866 253.204 433.56 253.12 433.226 253.12 432.868 253.12 432.794 253.123 432.718 253.131 432.64 253.169 432.255 253.261 431.939 253.386 431.679 253.575 431.291 253.833 431.026 254.134 430.849 254.433 430.672 254.777 430.586 255.121 430.587 255.468 430.585 255.812 430.675 256.097 430.835 256.382 430.995 256.606 431.222 256.741 431.503 256.813 431.651 256.857 431.849 256.857 432.049 256.857 432.212 256.828 432.375 256.774 432.512 256.721 432.649 256.646 432.756 256.559 432.831 256.394 432.969 256.226 433.022 256.057 433.022 255.91 433.022 255.763 432.978 255.64 432.898 255.516 432.819 255.42 432.709 255.364 432.577L254.462 432.963C254.6 433.285 254.831 433.545 255.11 433.723 255.389 433.902 255.716 434.002 256.057 434.002 256.448 434.004 256.857 433.866 257.194 433.577 257.426 433.379 257.585 433.13 257.688 432.867 257.79 432.603 257.837 432.325 257.837 432.049 257.837 431.714 257.768 431.38 257.624 431.079 257.393 430.598 257.015 430.226 256.576 429.981 256.146 429.74 255.655 429.614 255.156 429.607L255.156 429.6 240.797 429.6C242.064 426.823 242.8 424.124 243.219 421.543 243.666 418.79 243.755 416.171 243.755 413.732 243.755 412.329 243.726 410.988 243.717 409.711L263.811 409.711C263.821 411.1 263.852 412.643 263.852 414.273 263.852 417.853 263.697 421.851 262.848 425.476Z" fill="#4B4B4B" transform="matrix(1.00104 0 0 1 -44.6916 -309.389)"/><path d="M254.159 418.342C254.332 416.421 254.34 414.581 254.322 412.842L246.707 412.842C246.725 414.581 246.715 416.421 246.543 418.342L254.159 418.342Z" fill="#4B4B4B" transform="matrix(1.00104 0 0 1 -44.6916 -309.389)"/></g></g></g><path d="M192.556 422.658 194.772 422.736 194.752 423.291 192.536 423.212ZM196.435 422.795 198.438 422.866 198.668 422.889 198.613 423.441 198.393 423.419 198.41 423.42 196.415 423.349ZM200.323 423.053 202.53 423.272 202.476 423.823 200.268 423.605ZM204.186 423.436 204.226 423.44 206.392 423.794 206.302 424.342 204.145 423.989 204.162 423.991 204.131 423.987ZM208.033 424.063 209.96 424.378 210.236 424.44 210.114 424.981 209.847 424.921 209.863 424.925 207.944 424.61ZM211.858 424.804 214.023 425.29 213.901 425.83 211.737 425.345ZM215.667 425.67 217.78 426.346 217.61 426.874 215.498 426.198ZM219.363 426.853 221.476 427.53 221.307 428.058 219.194 427.382ZM223.06 428.037 225.172 428.714 225.003 429.242 222.891 428.565ZM226.759 429.282 228.807 430.132 228.595 430.644 226.546 429.794ZM230.344 430.77 231.026 431.053 232.362 431.736 232.11 432.23 230.783 431.551 230.803 431.56 230.132 431.281ZM233.844 432.493 235.618 433.401 235.826 433.525 235.544 434.001 235.342 433.882 235.357 433.891 233.592 432.987ZM237.258 434.372 239.166 435.503 238.883 435.98 236.975 434.85ZM240.576 436.424 242.386 437.706 242.066 438.158 240.256 436.877ZM243.754 438.696 245.436 440.142 245.074 440.563 243.393 439.117ZM246.698 441.227 246.955 441.447 248.277 442.818 247.878 443.204 246.565 441.842 246.583 441.859 246.336 441.647ZM249.433 444.015 249.835 444.432 250.836 445.774 250.391 446.105 249.401 444.778 249.424 444.805 249.033 444.4ZM251.83 447.108 252.145 447.53 252.96 449.059 252.471 449.319 251.666 447.81 251.688 447.845 251.386 447.439ZM253.744 450.526 253.83 450.689 254.479 452.667 253.952 452.84 253.31 450.885 253.329 450.929 253.254 450.787ZM254.932 454.32 255.181 456.524 254.63 456.586 254.382 454.382ZM255.368 458.177 255.617 460.38 255.065 460.443 254.817 458.239ZM256.122 461.907 256.645 463.499 256.626 463.455 256.88 463.933 256.391 464.194 256.125 463.695 255.595 462.079ZM257.664 465.401 258.289 466.574 258.267 466.539 258.797 467.251 258.353 467.582 257.81 466.854 257.174 465.662ZM259.792 468.585 260.554 469.606 260.53 469.578 261.19 470.251 260.795 470.639 260.12 469.953 259.348 468.916ZM262.356 471.438 263.388 472.489 263.372 472.473 263.936 472.958 263.575 473.379 263.002 472.886 261.96 471.826ZM265.197 474.042 266.699 475.332 266.678 475.316 266.873 475.454 266.552 475.906 266.347 475.761 264.836 474.463ZM268.231 476.415 270.041 477.698 269.72 478.15 267.91 476.868ZM271.432 478.565 273.34 479.696 273.057 480.173 271.149 479.042ZM274.761 480.526 276.736 481.536 276.484 482.029 274.509 481.019ZM278.217 482.292 279.172 482.781 279.155 482.772 280.208 483.221 279.991 483.731 278.928 483.279 277.965 482.786ZM281.739 483.873 283.78 484.741 283.563 485.251 281.522 484.383ZM285.332 485.258 287.447 485.925 287.281 486.454 285.165 485.787ZM289.034 486.424 291.149 487.091 290.982 487.62 288.867 486.953ZM292.735 487.591 294.568 488.169 294.545 488.164 294.834 488.228 294.713 488.769 294.413 488.702 292.569 488.12ZM296.458 488.593 298.622 489.078 298.501 489.619 296.337 489.133ZM300.231 489.43 302.42 489.789 302.33 490.336 300.141 489.978ZM304.061 490.057 305.81 490.344 305.792 490.341 306.237 490.385 306.182 490.937 305.729 490.892 303.972 490.605ZM307.892 490.549 310.098 490.768 310.044 491.32 307.837 491.101ZM311.738 490.919 313.954 490.997 313.934 491.551 311.718 491.473ZM315.616 491.056 316.87 491.1 316.851 491.654 315.597 491.61ZM310.497 487.029 317.411 491.397 310.205 495.266C310.07 495.338 309.902 495.287 309.83 495.153 309.757 495.017 309.808 494.849 309.943 494.777L316.73 491.134 316.712 491.612 310.201 487.497C310.071 487.416 310.032 487.245 310.114 487.115 310.196 486.986 310.367 486.947 310.497 487.029Z" transform="matrix(1.00104 0 0 1 -44.6916 -309.389)"/><g clip-path="url(#clip41)"><g clip-path="url(#clip42)"><g clip-path="url(#clip43)"><path d="M270.982 464.451 284.593 464.451 284.593 465.595 270.982 465.595Z" fill="#4472C4" transform="matrix(1.00104 0 0 1 -44.6916 -309.389)"/><path d="M269.808 468.971 283.42 468.971 283.42 470.115 269.808 470.115Z" fill="#4472C4" transform="matrix(1.00104 0 0 1 -44.6916 -309.389)"/><path d="M290.23 452.226 290.23 451.49 267.194 451.49 267.194 452.226C267.194 453.745 267.237 455.333 267.237 456.982 267.237 459.387 267.148 461.92 266.719 464.557 266.311 467.065 265.597 469.668 264.358 472.352L262.141 472.352C261.749 472.352 261.353 472.414 260.971 472.547 260.4 472.745 259.858 473.108 259.448 473.641 259.038 474.172 258.766 474.863 258.686 475.678 258.674 475.796 258.668 475.914 258.668 476.03 258.667 476.621 258.82 477.178 259.076 477.666 259.461 478.401 260.069 478.985 260.775 479.391 261.482 479.798 262.294 480.033 263.12 480.038L280.632 480.048C281.298 480.05 281.876 479.914 282.368 479.69 282.861 479.468 283.263 479.172 283.636 478.875 285.161 477.66 286.34 476.154 287.245 474.482 288.602 471.973 289.352 469.09 289.771 466.158 290.188 463.225 290.273 460.241 290.274 457.523 290.274 455.578 290.23 453.769 290.23 452.226ZM263.128 478.568 263.129 478.568C262.764 478.566 262.385 478.495 262.027 478.361 261.489 478.16 261.001 477.823 260.665 477.414 260.496 477.21 260.365 476.988 260.275 476.758 260.186 476.527 260.139 476.286 260.139 476.03 260.139 475.963 260.142 475.895 260.149 475.825 260.188 475.436 260.281 475.125 260.405 474.874 260.592 474.498 260.845 474.248 261.143 474.077 261.44 473.907 261.788 473.83 262.141 473.83L277.9 473.83C277.729 474.027 277.577 474.25 277.455 474.504 277.276 474.876 277.156 475.307 277.107 475.792 277.096 475.902 277.091 476.011 277.091 476.118 277.091 476.632 277.213 477.118 277.427 477.55 277.619 477.938 277.884 478.283 278.196 478.577L263.128 478.568ZM287.8 468.726C287.375 470.538 286.779 472.255 285.952 473.783 285.124 475.31 284.07 476.648 282.719 477.725 282.379 477.996 282.08 478.208 281.764 478.349 281.447 478.491 281.109 478.576 280.632 478.578L280.141 478.577C279.696 478.451 279.284 478.229 278.948 477.936 278.676 477.7 278.458 477.422 278.306 477.116 278.156 476.81 278.072 476.476 278.072 476.118 278.072 476.044 278.075 475.968 278.083 475.89 278.121 475.505 278.213 475.189 278.338 474.929 278.527 474.541 278.785 474.276 279.086 474.099 279.385 473.922 279.729 473.836 280.073 473.837 280.42 473.835 280.764 473.925 281.048 474.085 281.334 474.245 281.557 474.472 281.693 474.753 281.765 474.901 281.809 475.099 281.809 475.299 281.809 475.462 281.78 475.625 281.726 475.762 281.673 475.899 281.598 476.006 281.511 476.081 281.346 476.219 281.178 476.272 281.009 476.272 280.862 476.272 280.715 476.228 280.592 476.148 280.468 476.069 280.372 475.959 280.316 475.827L279.414 476.213C279.552 476.535 279.783 476.795 280.062 476.973 280.341 477.152 280.668 477.252 281.009 477.252 281.399 477.254 281.809 477.116 282.146 476.827 282.378 476.629 282.537 476.38 282.64 476.117 282.742 475.853 282.788 475.575 282.788 475.299 282.788 474.964 282.72 474.63 282.576 474.329 282.345 473.848 281.967 473.476 281.528 473.231 281.098 472.99 280.607 472.864 280.108 472.857L280.108 472.85 265.749 472.85C267.016 470.073 267.752 467.374 268.171 464.793 268.617 462.04 268.706 459.421 268.706 456.982 268.706 455.579 268.678 454.238 268.669 452.961L288.763 452.961C288.773 454.35 288.804 455.893 288.804 457.523 288.804 461.103 288.649 465.101 287.8 468.726Z" fill="#4472C4" transform="matrix(1.00104 0 0 1 -44.6916 -309.389)"/><path d="M279.111 461.592C279.284 459.671 279.292 457.831 279.274 456.092L271.659 456.092C271.677 457.831 271.667 459.671 271.495 461.592L279.111 461.592Z" fill="#4472C4" transform="matrix(1.00104 0 0 1 -44.6916 -309.389)"/></g></g></g><path d="M0.00980777-0.27707 2.22637-0.198607 2.20676 0.355532-0.00980777 0.27707ZM3.88879-0.139761 5.89269-0.0688264 6.12194-0.046108 6.06726 0.505677 5.84676 0.483824 5.86429 0.485003 3.86917 0.414379ZM7.77729 0.117936 9.98443 0.336661 9.92978 0.888447 7.72261 0.66972ZM11.6398 0.500705 11.6803 0.504723 13.8463 0.859161 13.7567 1.40637 11.5995 1.05335 11.6169 1.05564 11.5851 1.05249ZM15.4879 1.12779 17.4151 1.44315 17.6897 1.50472 17.5683 2.04577 17.3017 1.98597 17.3176 1.98905 15.3984 1.675ZM19.3128 1.86878 21.477 2.35421 21.3556 2.89525 19.1914 2.40983ZM23.1212 2.73489 25.2335 3.41124 25.0645 3.93932 22.9521 3.26297ZM26.8177 3.91851 28.9301 4.59486 28.761 5.12295 26.6487 4.44659ZM30.5143 5.10213 32.6266 5.77848 32.4575 6.30657 30.3452 5.63021ZM34.2129 6.34706 36.2615 7.19702 36.0491 7.70918 34.0005 6.85922ZM37.798 7.8345 38.48 8.11743 39.8169 8.80113 39.5645 9.29484 38.2373 8.61615 38.2574 8.62538 37.5856 8.34667ZM41.298 9.5585 43.072 10.4656 43.2809 10.5893 42.9982 11.0664 42.7968 10.9471 42.8118 10.9554 41.0456 10.0521ZM44.7119 11.4374 46.62 12.5681 46.3373 13.0451 44.4292 11.9145ZM48.0308 13.4888 49.8407 14.7708 49.5202 15.2233 47.7103 13.9412ZM51.2082 15.7615 52.8904 17.2071 52.529 17.6276 50.8469 16.1821ZM54.152 18.2913 54.409 18.5121 55.7318 19.883 55.3327 20.268 54.0189 18.9065 54.0377 18.9242 53.7906 18.7118ZM56.8868 21.0801 57.2893 21.4972 58.2898 22.8387 57.8452 23.1702 56.8553 21.8427 56.878 21.8695 56.4877 21.4651ZM59.2842 24.1722 59.5996 24.595 60.4148 26.1236 59.9255 26.3845 59.1202 24.8745 59.1425 24.9098 58.8397 24.5037ZM61.1976 27.5913 61.2842 27.7538 61.9328 29.7321 61.4059 29.9049 60.7648 27.9494 60.7836 27.9935 60.7083 27.8523ZM62.3865 31.3848 62.6353 33.5887 62.0844 33.6509 61.8355 31.447ZM62.822 35.2417 63.0708 37.4456 62.5198 37.5078 62.271 35.3039ZM63.5764 38.9712 64.0987 40.5644 64.0799 40.5203 64.3346 40.9979 63.8454 41.2588 63.5794 40.7601 63.0495 39.1439ZM65.1174 42.4657 65.7434 43.6393 65.721 43.6041 66.2518 44.3157 65.8073 44.6472 65.264 43.9188 64.6282 42.7266ZM67.2463 45.6492 68.0083 46.6711 67.9838 46.6425 68.6447 47.3155 68.2492 47.704 67.5751 47.0177 66.8017 45.9807ZM69.8103 48.5023 70.8429 49.5536 70.8259 49.5376 71.3904 50.0228 71.029 50.4433 70.4556 49.9505 69.4147 48.8908ZM72.6519 51.1069 74.1528 52.3967 74.1323 52.3807 74.3274 52.5189 74.0069 52.9714 73.8012 52.8257 72.2906 51.5275ZM75.6848 53.4805 77.4948 54.7625 77.1742 55.2149 75.3644 53.9329ZM78.8863 55.63 80.7943 56.7607 80.5116 57.2377 78.6035 56.1071ZM82.2158 57.5904 84.1903 58.6002 83.9383 59.0939 81.9633 58.0841ZM85.6716 59.3576 86.6264 59.8457 86.609 59.8375 87.6628 60.2861 87.4457 60.7963 86.3827 60.3438 85.4187 59.8513ZM89.1931 60.9374 91.2342 61.8058 91.0171 62.3161 88.9761 61.4476ZM92.7862 62.3225 94.9013 62.9894 94.735 63.5182 92.619 62.8513ZM96.4883 63.4895 98.6033 64.1565 98.4362 64.6853 96.3211 64.0183ZM100.189 64.6566 102.023 65.2344 101.999 65.2283 102.289 65.2931 102.167 65.8342 101.867 65.7668 100.023 65.1854ZM103.912 65.6572 106.076 66.1426 105.955 66.6837 103.791 66.1983ZM107.685 66.4955 109.874 66.8537 109.784 67.4009 107.595 67.0427ZM111.515 67.1223 113.264 67.4084 113.247 67.4062 113.69 67.4502 113.636 68.002 113.184 67.9571 111.426 67.6695ZM115.346 67.6142 117.553 67.833 117.499 68.3847 115.291 68.166ZM119.192 67.9837 121.409 68.0621 121.389 68.6162 119.172 68.5378ZM123.07 68.1209 124.325 68.1653 124.305 68.7195 123.051 68.6751ZM117.951 64.0937 124.865 68.4619 117.659 72.3303C117.524 72.4027 117.356 72.3521 117.284 72.2172 117.212 72.0823 117.262 71.9142 117.397 71.8417L124.184 68.1982 124.167 68.6768 117.654 64.5624C117.525 64.4807 117.486 64.3094 117.568 64.18 117.65 64.0505 117.821 64.0119 117.951 64.0937Z" transform="matrix(1.00104 0 0 -1 148.055 250.995)"/><g clip-path="url(#clip44)"><g clip-path="url(#clip45)"><g clip-path="url(#clip46)"><path d="M246.862 524.336 260.473 524.336 260.473 525.479 246.862 525.479Z" fill="#70AD47" transform="matrix(1.00104 0 0 1 -44.6916 -309.389)"/><path d="M245.688 528.856 259.3 528.856 259.3 530 245.688 530Z" fill="#70AD47" transform="matrix(1.00104 0 0 1 -44.6916 -309.389)"/><path d="M266.11 512.111 266.11 511.375 243.074 511.375 243.074 512.111C243.074 513.63 243.117 515.217 243.117 516.867 243.117 519.271 243.028 521.805 242.599 524.442 242.191 526.95 241.477 529.552 240.238 532.236L238.021 532.236C237.629 532.236 237.233 532.299 236.851 532.432 236.28 532.63 235.738 532.992 235.328 533.525 234.917 534.057 234.646 534.748 234.566 535.563 234.554 535.68 234.548 535.799 234.548 535.915 234.547 536.505 234.699 537.063 234.956 537.551 235.341 538.285 235.949 538.869 236.655 539.276 237.362 539.683 238.174 539.917 238.999 539.923L256.512 539.933C257.178 539.935 257.756 539.798 258.248 539.575 258.741 539.352 259.142 539.056 259.516 538.759 261.041 537.544 262.22 536.039 263.125 534.367 264.482 531.858 265.231 528.974 265.651 526.042 266.068 523.11 266.153 520.125 266.154 517.408 266.154 515.463 266.11 513.654 266.11 512.111ZM239.008 538.453 239.009 538.453C238.644 538.451 238.265 538.379 237.907 538.245 237.368 538.045 236.881 537.707 236.545 537.299 236.376 537.094 236.245 536.873 236.155 536.643 236.066 536.411 236.019 536.171 236.019 535.915 236.019 535.848 236.022 535.779 236.029 535.709 236.068 535.321 236.161 535.01 236.285 534.759 236.472 534.383 236.725 534.133 237.022 533.962 237.319 533.792 237.668 533.715 238.021 533.715L253.779 533.715C253.609 533.911 253.457 534.135 253.335 534.389 253.156 534.76 253.036 535.191 252.987 535.677 252.976 535.787 252.971 535.896 252.971 536.003 252.971 536.517 253.093 537.003 253.307 537.435 253.499 537.823 253.764 538.168 254.076 538.462L239.008 538.453ZM263.679 528.611C263.255 530.423 262.659 532.14 261.831 533.668 261.004 535.195 259.95 536.533 258.599 537.609 258.259 537.881 257.96 538.092 257.644 538.234 257.327 538.375 256.989 538.461 256.512 538.463L256.021 538.462C255.576 538.336 255.163 538.113 254.828 537.82 254.556 537.585 254.337 537.306 254.186 537 254.036 536.694 253.952 536.361 253.952 536.003 253.952 535.928 253.955 535.853 253.962 535.774 254.001 535.39 254.093 535.073 254.218 534.814 254.406 534.425 254.665 534.161 254.965 533.984 255.265 533.806 255.609 533.721 255.953 533.722 256.299 533.72 256.644 533.81 256.928 533.969 257.214 534.13 257.437 534.356 257.573 534.637 257.644 534.785 257.688 534.983 257.688 535.184 257.688 535.347 257.659 535.51 257.606 535.646 257.553 535.784 257.478 535.891 257.391 535.966 257.226 536.104 257.058 536.156 256.889 536.157 256.742 536.157 256.595 536.113 256.472 536.033 256.348 535.954 256.252 535.843 256.196 535.711L255.294 536.098C255.432 536.42 255.663 536.679 255.942 536.858 256.22 537.037 256.548 537.137 256.889 537.137 257.279 537.138 257.688 537 258.026 536.712 258.257 536.514 258.417 536.264 258.519 536.001 258.622 535.738 258.668 535.459 258.668 535.184 258.668 534.849 258.6 534.514 258.456 534.213 258.225 533.732 257.847 533.361 257.408 533.115 256.977 532.874 256.487 532.749 255.988 532.742L255.988 532.734 241.629 532.734C242.895 529.958 243.631 527.258 244.051 524.677 244.497 521.924 244.586 519.306 244.586 516.867 244.586 515.464 244.558 514.123 244.549 512.845L264.643 512.845C264.653 514.235 264.683 515.778 264.683 517.408 264.684 520.988 264.529 524.986 263.679 528.611Z" fill="#70AD47" transform="matrix(1.00104 0 0 1 -44.6916 -309.389)"/><path d="M254.991 521.477C255.163 519.556 255.172 517.716 255.154 515.977L247.539 515.977C247.556 517.716 247.547 519.556 247.375 521.477L254.991 521.477Z" fill="#70AD47" transform="matrix(1.00104 0 0 1 -44.6916 -309.389)"/></g></g></g><text font-family="Calibri,Calibri_MSFontService,sans-serif" font-weight="400" font-size="11" transform="matrix(0.832599 0 0 0.831731 209.436 107)">12<tspan font-size="11" x="32.3076" y="54.104">2</tspan><tspan font-size="11" x="4.95294" y="123.838">1</tspan></text></g></g></g></g><text font-family="Yu Gothic,Yu Gothic_MSFontService,sans-serif" font-weight="400" font-size="16" transform="translate(573.294 138)">存在条件に<tspan font-size="16" x="16" y="19">従って</tspan></text><g clip-path="url(#clip47)"><g clip-path="url(#clip48)"><g clip-path="url(#clip49)"><g clip-path="url(#clip50)"><path d="M223.097 349.131 256.547 349.131 256.547 366.453 223.097 366.453Z" stroke="#000000" stroke-width="0.39821" stroke-miterlimit="8" fill="#FFFFFF" transform="matrix(1.00688 0 0 1 293.107 23.3624)"/><text font-family="Yu Gothic,Yu Gothic_MSFontService,sans-serif" font-weight="400" font-size="12" transform="matrix(0.601424 0 0 0.597315 524.221 384)">顧客<tspan font-family="Calibri,Calibri_MSFontService,sans-serif" font-size="12" x="24" y="0">ID</tspan></text><path d="M223.097 366.453 256.547 366.453 256.547 383.775 223.097 383.775Z" stroke="#000000" stroke-width="0.39821" stroke-miterlimit="8" fill="#FFFFFF" transform="matrix(1.00688 0 0 1 293.107 23.3624)"/><text font-family="Calibri,Calibri_MSFontService,sans-serif" font-weight="400" font-size="11" transform="matrix(0.601424 0 0 0.597315 528.029 400)">C<tspan font-size="11" x="5.99997" y="0">003</tspan></text><path d="M223.097 383.775 256.547 383.775 256.547 401.097 223.097 401.097Z" stroke="#000000" stroke-width="0.39821" stroke-miterlimit="8" fill="#FFFFFF" transform="matrix(1.00688 0 0 1 293.107 23.3624)"/><text font-family="Calibri,Calibri_MSFontService,sans-serif" font-weight="400" font-size="11" transform="matrix(0.601424 0 0 0.597315 528.029 418)">C<tspan font-size="11" x="5.99997" y="0">003</tspan></text><path d="M223.097 401.097 256.547 401.097 256.547 419.017 223.097 419.017Z" stroke="#000000" stroke-width="0.39821" stroke-miterlimit="8" fill="#FFFFFF" transform="matrix(1.00688 0 0 1 293.107 23.3624)"/><text font-family="Calibri,Calibri_MSFontService,sans-serif" font-weight="400" font-size="11" transform="matrix(0.601424 0 0 0.597315 528.029 436)">C<tspan font-size="11" x="5.99997" y="0">026</tspan></text><path d="M223.097 419.017 256.547 419.017 256.547 436.339 223.097 436.339Z" stroke="#000000" stroke-width="0.39821" stroke-miterlimit="8" fill="#FFFFFF" transform="matrix(1.00688 0 0 1 293.107 23.3624)"/><text font-family="Yu Gothic,Yu Gothic_MSFontService,sans-serif" font-weight="400" font-size="11" transform="matrix(0.601424 0 0 0.597315 524.922 453)">・・・</text><path d="M256.547 349.131 290.594 349.131 290.594 366.453 256.547 366.453Z" stroke="#000000" stroke-width="0.39821" stroke-miterlimit="8" fill="#FFFFFF" transform="matrix(1.00688 0 0 1 293.107 23.3624)"/><text font-family="Yu Gothic,Yu Gothic_MSFontService,sans-serif" font-weight="400" font-size="11" transform="matrix(0.601424 0 0 0.597315 561.852 379)">商品<tspan font-size="11" x="-5.33331" y="13.3933">コード</tspan></text><path d="M256.547 366.453 290.594 366.453 290.594 383.775 256.547 383.775Z" stroke="#000000" stroke-width="0.39821" stroke-miterlimit="8" fill="#FFFFFF" transform="matrix(1.00688 0 0 1 293.107 23.3624)"/><text font-family="Calibri,Calibri_MSFontService,sans-serif" font-weight="400" font-size="11" transform="matrix(0.601424 0 0 0.597315 561.802 400)">P<tspan font-size="11" x="6.00007" y="0">031</tspan></text><path d="M256.547 383.775 290.594 383.775 290.594 401.097 256.547 401.097Z" stroke="#000000" stroke-width="0.39821" stroke-miterlimit="8" fill="#FFFFFF" transform="matrix(1.00688 0 0 1 293.107 23.3624)"/><text font-family="Calibri,Calibri_MSFontService,sans-serif" font-weight="400" font-size="11" transform="matrix(0.601424 0 0 0.597315 561.401 418)">N<tspan font-size="11" x="6.99999" y="0">008</tspan></text><path d="M256.547 401.097 290.594 401.097 290.594 419.017 256.547 419.017Z" stroke="#000000" stroke-width="0.39821" stroke-miterlimit="8" fill="#FFFFFF" transform="matrix(1.00688 0 0 1 293.107 23.3624)"/><text font-family="Calibri,Calibri_MSFontService,sans-serif" font-weight="400" font-size="11" transform="matrix(0.601424 0 0 0.597315 562.102 436)">L<tspan font-size="11" x="5.00004" y="0">012</tspan></text><path d="M256.547 419.017 290.594 419.017 290.594 436.339 256.547 436.339Z" stroke="#000000" stroke-width="0.39821" stroke-miterlimit="8" fill="#FFFFFF" transform="matrix(1.00688 0 0 1 293.107 23.3624)"/><text font-family="Yu Gothic,Yu Gothic_MSFontService,sans-serif" font-weight="400" font-size="11" transform="matrix(0.601424 0 0 0.597315 558.644 453)">・・・</text><path d="M123.943 349.131 157.393 349.131 157.393 366.453 123.943 366.453Z" stroke="#000000" stroke-width="0.39821" stroke-miterlimit="8" fill="#FFFFFF" transform="matrix(1.00688 0 0 1 293.107 23.3624)"/><text font-family="Yu Gothic,Yu Gothic_MSFontService,sans-serif" font-weight="400" font-size="12" transform="matrix(0.601424 0 0 0.597315 423.995 384)">注文<tspan font-family="Calibri,Calibri_MSFontService,sans-serif" font-size="12" x="24" y="0">ID</tspan></text><path d="M157.393 349.131 190.842 349.131 190.842 366.453 157.393 366.453Z" stroke="#000000" stroke-width="0.39821" stroke-miterlimit="8" fill="#FFFFFF" transform="matrix(1.00688 0 0 1 293.107 23.3624)"/><text font-family="Yu Gothic,Yu Gothic_MSFontService,sans-serif" font-weight="400" font-size="12" transform="matrix(0.601424 0 0 0.597315 460.825 384)">個数</text><path d="M190.245 349.131 223.695 349.131 223.695 366.453 190.245 366.453Z" stroke="#000000" stroke-width="0.39821" stroke-miterlimit="8" fill="#FFFFFF" transform="matrix(1.00688 0 0 1 293.107 23.3624)"/><text font-family="Yu Gothic,Yu Gothic_MSFontService,sans-serif" font-weight="400" font-size="12" transform="matrix(0.601424 0 0 0.597315 493.92 384)">金額</text><path d="M123.943 366.453 157.393 366.453 157.393 383.775 123.943 383.775Z" stroke="#000000" stroke-width="0.39821" stroke-miterlimit="8" fill="#FFFFFF" transform="matrix(1.00688 0 0 1 293.107 23.3624)"/><text font-family="Calibri,Calibri_MSFontService,sans-serif" font-weight="400" font-size="11" transform="matrix(0.601424 0 0 0.597315 424.547 397)">C<tspan font-size="11" x="6.00002" y="0">003</tspan><tspan font-size="11" x="24" y="0">P</tspan><tspan font-size="11" x="30" y="0">0</tspan><tspan font-size="11" x="1.24669" y="11.7191">31</tspan><tspan font-size="11" x="11.9133" y="11.7191">-</tspan><tspan font-size="11" x="15.2467" y="11.7191">001</tspan></text><path d="M157.393 366.453 190.842 366.453 190.842 383.775 157.393 383.775Z" stroke="#000000" stroke-width="0.39821" stroke-miterlimit="8" fill="#FFFFFF" transform="matrix(1.00688 0 0 1 293.107 23.3624)"/><text font-family="Calibri,Calibri_MSFontService,sans-serif" font-weight="400" font-size="11" transform="matrix(0.601424 0 0 0.597315 466.438 400)">2</text><path d="M190.245 366.453 223.695 366.453 223.695 383.775 190.245 383.775Z" stroke="#000000" stroke-width="0.39821" stroke-miterlimit="8" fill="#FFFFFF" transform="matrix(1.00688 0 0 1 293.107 23.3624)"/><text font-family="Calibri,Calibri_MSFontService,sans-serif" font-weight="400" font-size="11" transform="matrix(0.601424 0 0 0.597315 494.721 400)">1400</text><path d="M123.943 383.775 157.393 383.775 157.393 401.097 123.943 401.097Z" stroke="#000000" stroke-width="0.39821" stroke-miterlimit="8" fill="#FFFFFF" transform="matrix(1.00688 0 0 1 293.107 23.3624)"/><text font-family="Calibri,Calibri_MSFontService,sans-serif" font-weight="400" font-size="11" transform="matrix(0.601424 0 0 0.597315 424.146 414)">C<tspan font-size="11" x="6.00002" y="0">003</tspan><tspan font-size="11" x="24" y="0">N</tspan><tspan font-size="11" x="31" y="0">0</tspan><tspan font-size="11" x="1.91334" y="13.3933">08</tspan><tspan font-size="11" x="12.58" y="13.3933">-</tspan><tspan font-size="11" x="15.9133" y="13.3933">005</tspan></text><path d="M157.393 383.775 190.842 383.775 190.842 401.097 157.393 401.097Z" stroke="#000000" stroke-width="0.39821" stroke-miterlimit="8" fill="#FFFFFF" transform="matrix(1.00688 0 0 1 293.107 23.3624)"/><text font-family="Calibri,Calibri_MSFontService,sans-serif" font-weight="400" font-size="11" transform="matrix(0.601424 0 0 0.597315 466.438 418)">1</text><path d="M190.245 383.775 223.695 383.775 223.695 401.097 190.245 401.097Z" stroke="#000000" stroke-width="0.39821" stroke-miterlimit="8" fill="#FFFFFF" transform="matrix(1.00688 0 0 1 293.107 23.3624)"/><text font-family="Calibri,Calibri_MSFontService,sans-serif" font-weight="400" font-size="11" transform="matrix(0.601424 0 0 0.597315 494.721 418)">3500</text><path d="M123.943 401.097 157.393 401.097 157.393 419.017 123.943 419.017Z" stroke="#000000" stroke-width="0.39821" stroke-miterlimit="8" fill="#FFFFFF" transform="matrix(1.00688 0 0 1 293.107 23.3624)"/><text font-family="Calibri,Calibri_MSFontService,sans-serif" font-weight="400" font-size="11" transform="matrix(0.601424 0 0 0.597315 423.243 431)">C<tspan font-size="11" x="6.00002" y="0">026</tspan><tspan font-size="11" x="24" y="0">L</tspan><tspan font-size="11" x="29" y="0">01</tspan><tspan font-size="11" x="6.07999" y="13.3933">2</tspan><tspan font-size="11" x="11.4133" y="13.3933">-</tspan><tspan font-size="11" x="14.7467" y="13.3933">052</tspan></text><path d="M157.393 401.097 190.842 401.097 190.842 419.017 157.393 419.017Z" stroke="#000000" stroke-width="0.39821" stroke-miterlimit="8" fill="#FFFFFF" transform="matrix(1.00688 0 0 1 293.107 23.3624)"/><text font-family="Calibri,Calibri_MSFontService,sans-serif" font-weight="400" font-size="11" transform="matrix(0.601424 0 0 0.597315 464.834 436)">5<tspan font-size="11" x="5.33331" y="0">0</tspan></text><path d="M190.245 401.097 223.695 401.097 223.695 419.017 190.245 419.017Z" stroke="#000000" stroke-width="0.39821" stroke-miterlimit="8" fill="#FFFFFF" transform="matrix(1.00688 0 0 1 293.107 23.3624)"/><text font-family="Calibri,Calibri_MSFontService,sans-serif" font-weight="400" font-size="11" transform="matrix(0.601424 0 0 0.597315 493.117 436)">63000</text><path d="M123.943 419.017 157.393 419.017 157.393 436.339 123.943 436.339Z" stroke="#000000" stroke-width="0.39821" stroke-miterlimit="8" fill="#FFFFFF" transform="matrix(1.00688 0 0 1 293.107 23.3624)"/><text font-family="Yu Gothic,Yu Gothic_MSFontService,sans-serif" font-weight="400" font-size="11" transform="matrix(0.601424 0 0 0.597315 424.697 453)">・・・</text><path d="M157.393 419.017 190.842 419.017 190.842 436.339 157.393 436.339Z" stroke="#000000" stroke-width="0.39821" stroke-miterlimit="8" fill="#FFFFFF" transform="matrix(1.00688 0 0 1 293.107 23.3624)"/><text font-family="Yu Gothic,Yu Gothic_MSFontService,sans-serif" font-weight="400" font-size="11" transform="matrix(0.601424 0 0 0.597315 458.419 453)">・・・</text><path d="M190.245 419.017 223.695 419.017 223.695 436.339 190.245 436.339Z" stroke="#000000" stroke-width="0.39821" stroke-miterlimit="8" fill="#FFFFFF" transform="matrix(1.00688 0 0 1 293.107 23.3624)"/><text font-family="Yu Gothic,Yu Gothic_MSFontService,sans-serif" font-weight="400" font-size="11" transform="matrix(0.601424 0 0 0.597315 491.514 453)">・・・</text></g></g></g></g></g></svg>