<svg width="608" height="311" xmlns="http://www.w3.org/2000/svg" xmlns:xlink="http://www.w3.org/1999/xlink" overflow="hidden"><defs><clipPath id="clip0"><rect x="56" y="61" width="608" height="311"/></clipPath><clipPath id="clip1"><rect x="429" y="297" width="38" height="38"/></clipPath><clipPath id="clip2"><rect x="429" y="297" width="38" height="38"/></clipPath><clipPath id="clip3"><rect x="429" y="297" width="38" height="38"/></clipPath><clipPath id="clip4"><rect x="429" y="133" width="38" height="38"/></clipPath><clipPath id="clip5"><rect x="429" y="133" width="38" height="38"/></clipPath><clipPath id="clip6"><rect x="429" y="133" width="38" height="38"/></clipPath><clipPath id="clip7"><rect x="241" y="297" width="38" height="38"/></clipPath><clipPath id="clip8"><rect x="241" y="297" width="38" height="38"/></clipPath><clipPath id="clip9"><rect x="241" y="297" width="38" height="38"/></clipPath><clipPath id="clip10"><rect x="241" y="215" width="38" height="38"/></clipPath><clipPath id="clip11"><rect x="241" y="215" width="38" height="38"/></clipPath><clipPath id="clip12"><rect x="241" y="215" width="38" height="38"/></clipPath><clipPath id="clip13"><rect x="241" y="133" width="38" height="38"/></clipPath><clipPath id="clip14"><rect x="241" y="133" width="38" height="38"/></clipPath><clipPath id="clip15"><rect x="241" y="133" width="38" height="38"/></clipPath><clipPath id="clip16"><rect x="429" y="215" width="38" height="38"/></clipPath><clipPath id="clip17"><rect x="429" y="215" width="38" height="38"/></clipPath><clipPath id="clip18"><rect x="429" y="215" width="38" height="38"/></clipPath><clipPath id="clip19"><rect x="329" y="133" width="38" height="38"/></clipPath><clipPath id="clip20"><rect x="329" y="133" width="38" height="38"/></clipPath><clipPath id="clip21"><rect x="329" y="133" width="38" height="38"/></clipPath><clipPath id="clip22"><rect x="358" y="184" width="38" height="38"/></clipPath><clipPath id="clip23"><rect x="358" y="184" width="38" height="38"/></clipPath><clipPath id="clip24"><rect x="358" y="184" width="38" height="38"/></clipPath><clipPath id="clip25"><rect x="330" y="256" width="38" height="38"/></clipPath><clipPath id="clip26"><rect x="330" y="256" width="38" height="38"/></clipPath><clipPath id="clip27"><rect x="330" y="256" width="38" height="38"/></clipPath></defs><g clip-path="url(#clip0)" transform="translate(-56 -61)"><rect x="58.5001" y="62.5001" width="604" height="309" stroke="#D9D9D9" stroke-width="1.33333" stroke-miterlimit="8" fill="none"/><g clip-path="url(#clip1)"><g clip-path="url(#clip2)"><g clip-path="url(#clip3)"><path d="M463.789 298.421C462.915 297.545 461.695 297 460.359 297L437.509 297C436.172 297 434.953 297.545 434.079 298.421 433.202 299.296 432.658 300.515 432.658 301.852L432.658 302.242 431.591 302.242C431.149 302.242 430.79 302.601 430.79 303.044 430.79 303.486 431.149 303.844 431.591 303.844L432.658 303.844 432.658 308.651 431.591 308.651C431.149 308.651 430.79 309.009 430.79 309.452 430.79 309.893 431.149 310.253 431.591 310.253L432.658 310.253 432.658 315.059 431.591 315.059C431.149 315.059 430.79 315.418 430.79 315.859 430.79 316.301 431.149 316.66 431.591 316.66L432.658 316.66 432.658 321.466 431.591 321.466C431.149 321.466 430.79 321.826 430.79 322.268 430.79 322.71 431.149 323.068 431.591 323.068L432.658 323.068 432.658 327.875 431.591 327.875C431.149 327.875 430.79 328.233 430.79 328.675 430.79 329.117 431.149 329.476 431.591 329.476L432.658 329.476 432.658 330.149C432.658 331.485 433.202 332.704 434.079 333.579 434.953 334.455 436.172 335.001 437.509 335L460.359 335C461.695 335.001 462.915 334.455 463.789 333.579 464.665 332.704 465.21 331.485 465.21 330.149L465.21 301.852C465.21 300.515 464.665 299.296 463.789 298.421ZM441.1 332.865 437.509 332.865C436.755 332.865 436.083 332.563 435.588 332.07 435.095 331.575 434.793 330.903 434.793 330.149L434.793 329.476 436.487 329.476C436.766 329.944 437.276 330.259 437.861 330.259 438.745 330.259 439.462 329.542 439.462 328.658 439.462 327.774 438.745 327.057 437.861 327.057 437.262 327.057 436.74 327.387 436.466 327.875L434.793 327.875 434.793 323.068 436.484 323.068C436.763 323.538 437.275 323.855 437.861 323.855 438.745 323.855 439.462 323.138 439.462 322.254 439.462 321.37 438.745 320.653 437.861 320.653 437.263 320.653 436.743 320.982 436.468 321.466L434.793 321.466 434.793 316.66 436.481 316.66C436.76 317.133 437.273 317.452 437.861 317.452 438.745 317.452 439.462 316.734 439.462 315.851 439.462 314.966 438.745 314.249 437.861 314.249 437.265 314.249 436.747 314.576 436.471 315.059L434.793 315.059 434.793 310.253 436.479 310.253C436.757 310.727 437.271 311.048 437.861 311.048 438.745 311.048 439.462 310.331 439.462 309.447 439.462 308.564 438.745 307.846 437.861 307.846 437.267 307.846 436.749 308.171 436.474 308.651L434.793 308.651 434.793 303.844 436.476 303.844C436.753 304.322 437.269 304.644 437.861 304.644 438.745 304.644 439.462 303.927 439.462 303.044 439.462 302.159 438.745 301.443 437.861 301.443 437.269 301.443 436.753 301.765 436.476 302.242L434.793 302.242 434.793 301.852C434.793 301.097 435.095 300.425 435.588 299.93 436.083 299.437 436.755 299.135 437.509 299.135L441.1 299.135 441.1 332.865ZM463.075 330.149C463.075 330.903 462.773 331.575 462.28 332.07 461.785 332.563 461.113 332.865 460.359 332.865L441.9 332.865 441.9 299.135 460.359 299.135C461.113 299.135 461.785 299.437 462.28 299.93 462.773 300.425 463.075 301.097 463.076 301.852L463.076 330.149Z" fill="#4B4B4B"/><path d="M445.169 305.395 459.34 305.395 459.34 306.195 445.169 306.195Z" fill="#4B4B4B"/><path d="M445.169 310.531 459.34 310.531 459.34 311.332 445.169 311.332Z" fill="#4B4B4B"/><path d="M445.169 315.668 459.34 315.668 459.34 316.468 445.169 316.468Z" fill="#4B4B4B"/><path d="M445.169 320.804 459.34 320.804 459.34 321.605 445.169 321.605Z" fill="#4B4B4B"/><path d="M445.169 325.941 459.34 325.941 459.34 326.741 445.169 326.741Z" fill="#4B4B4B"/></g></g></g><g clip-path="url(#clip4)"><g clip-path="url(#clip5)"><g clip-path="url(#clip6)"><path d="M454.291 133 432.422 154.869 429 171 445.128 167.578 467 145.705 454.291 133ZM454.291 136.885 458.19 140.784 439.707 159.264 435.81 155.366 454.291 136.885ZM437.168 166.426 433.573 162.831 434.953 156.562 443.436 165.046 437.168 166.426ZM444.631 164.188 440.735 160.292 459.215 141.809 463.114 145.705 444.631 164.188Z" fill="#4B4B4B"/></g></g></g><g clip-path="url(#clip7)"><g clip-path="url(#clip8)"><g clip-path="url(#clip9)"><path d="M268.018 323.35C267.731 323.243 267.419 323.095 267.101 322.92L261.79 330.263 261.412 325.453 258.589 325.453 258.211 330.263 252.899 322.92C252.572 323.103 252.257 323.253 251.982 323.35 249.2 324.329 242.367 327.146 242.808 332.421 242.914 333.686 249.875 335 260 335 270.125 335 277.086 333.686 277.192 332.421 277.633 327.14 270.782 324.384 268.018 323.35Z" fill="#4B4B4B"/><path d="M253.729 312.458C254.115 314.648 254.765 316.581 255.621 317.533 255.621 318.674 255.621 319.507 255.621 320.174 255.621 320.241 255.609 320.311 255.59 320.384L258.589 321.829 258.589 323.947 261.412 323.947 261.412 321.829 264.409 320.385C264.39 320.312 264.379 320.242 264.379 320.174 264.379 319.507 264.379 318.674 264.379 317.533 265.236 316.581 265.886 314.648 266.272 312.458 267.173 312.136 267.69 311.62 268.333 309.366 269.018 306.964 267.303 307.046 267.303 307.046 268.69 302.454 266.863 298.138 263.805 298.455 261.696 294.764 254.63 299.298 252.414 298.982 252.414 300.248 252.942 301.197 252.942 301.197 252.172 302.658 252.469 305.572 252.686 307.046 252.56 307.044 251.009 307.06 251.667 309.366 252.311 311.62 252.826 312.136 253.729 312.458Z" fill="#4B4B4B"/></g></g></g><g clip-path="url(#clip10)"><g clip-path="url(#clip11)"><g clip-path="url(#clip12)"><path d="M273.388 245.122C272.487 243.773 271.116 243.025 269.826 242.538 269.179 242.295 268.546 242.116 267.988 241.963 267.431 241.812 266.946 241.683 266.619 241.56 266.155 241.388 265.676 241.174 265.284 240.94L265.284 238.491 264.426 238.634C264.426 238.401 264.426 238.157 264.426 237.887 265.156 237.076 266.207 235.819 266.635 233.82 266.788 233.752 266.938 233.675 267.084 233.574 267.436 233.33 267.736 232.976 267.991 232.493 268.248 232.008 268.476 231.386 268.72 230.534 268.842 230.103 268.899 229.729 268.899 229.397 268.9 229.015 268.821 228.684 268.678 228.417 268.519 228.119 268.289 227.92 268.066 227.793L268.066 226.874C268.095 226.848 268.131 226.824 268.157 226.797 268.887 226.037 268.597 225.158 268.089 224.504 268.726 223.608 270.002 221.54 269.642 219.742 268.875 215.908 263.478 215 260 215 256.522 215 251.125 215.908 250.358 219.742 249.999 221.54 251.273 223.608 251.912 224.504 251.419 225.138 251.138 225.986 251.79 226.729L251.79 227.896C251.616 228.02 251.445 228.186 251.323 228.417 251.179 228.685 251.1 229.015 251.101 229.397 251.101 229.73 251.158 230.103 251.281 230.534 251.606 231.669 251.9 232.4 252.279 232.934 252.468 233.2 252.683 233.412 252.917 233.574 253.062 233.675 253.213 233.752 253.365 233.82 253.794 235.819 254.844 237.076 255.574 237.888 255.574 238.157 255.574 238.401 255.574 238.634L254.716 238.491 254.716 240.941C254.672 240.968 254.63 240.996 254.583 241.023 254.205 241.238 253.771 241.424 253.391 241.557 252.945 241.716 252.229 241.88 251.427 242.109 250.222 242.457 248.8 242.959 247.644 243.949 247.068 244.445 246.562 245.067 246.206 245.84 245.85 246.612 245.645 247.53 245.645 248.606 245.645 248.856 245.656 249.114 245.679 249.381 245.695 249.563 245.764 249.711 245.847 249.835 246.003 250.065 246.213 250.238 246.477 250.416 246.938 250.722 247.58 251.021 248.402 251.316 250.865 252.194 254.945 252.998 260 253 264.107 252.999 267.575 252.467 270.048 251.798 271.285 251.462 272.273 251.094 272.985 250.728 273.342 250.545 273.631 250.362 273.858 250.164 273.971 250.064 274.07 249.959 274.154 249.835 274.235 249.712 274.306 249.563 274.321 249.381 274.344 249.114 274.354 248.857 274.354 248.607 274.356 247.174 273.988 246.02 273.388 245.122ZM259.247 219.357 260.001 217.675 260.754 219.357 262.586 219.554 261.22 220.79 261.598 222.593 260.001 221.676 258.402 222.593 258.78 220.79 257.414 219.554 259.247 219.357ZM260 251.464C259.463 251.464 259.029 251.029 259.029 250.492 259.029 249.956 259.463 249.521 260 249.521 260.537 249.521 260.972 249.956 260.972 250.492 260.972 251.029 260.537 251.464 260 251.464ZM260 246.703C259.463 246.703 259.029 246.267 259.029 245.731 259.029 245.194 259.463 244.759 260 244.759 260.537 244.759 260.972 245.194 260.972 245.731 260.972 246.267 260.537 246.703 260 246.703ZM260 242.816 255.04 241.989C255.215 241.892 255.387 241.79 255.549 241.677 255.643 241.613 255.728 241.539 255.815 241.468L259.818 242.135 259.818 239.341 256.643 238.812C256.643 238.475 256.643 238.108 256.643 237.684L256.643 237.479 256.505 237.326C255.745 236.477 254.709 235.347 254.35 233.34L254.296 233.034 254.004 232.929C253.809 232.859 253.658 232.788 253.527 232.697 253.332 232.559 253.156 232.371 252.953 231.992 252.752 231.615 252.54 231.054 252.308 230.241 252.207 229.884 252.17 229.605 252.17 229.397 252.17 229.156 252.216 229.013 252.265 228.921 252.339 228.787 252.43 228.729 252.544 228.684 252.561 228.677 252.578 228.673 252.595 228.668L254.462 230.11 254.462 227.9C256.475 228.327 258.958 228.409 260 228.409 261.017 228.409 263.408 228.333 265.393 227.932L265.393 230.11 267.29 228.644C267.365 228.655 267.477 228.679 267.563 228.736 267.63 228.779 267.685 228.829 267.735 228.921 267.784 229.013 267.83 229.156 267.83 229.397 267.83 229.605 267.794 229.883 267.692 230.241 267.383 231.326 267.107 231.959 266.851 232.313 266.723 232.492 266.605 232.604 266.474 232.697 266.342 232.788 266.191 232.859 265.996 232.929L265.704 233.034 265.65 233.34C265.292 235.347 264.256 236.477 263.495 237.326L263.357 237.479 263.357 237.684C263.357 238.108 263.357 238.475 263.357 238.812L260.183 239.341 260.183 242.135 264.172 241.47C264.377 241.638 264.604 241.787 264.842 241.924 264.883 241.947 264.927 241.965 264.969 241.988L260 242.816Z" fill="#4B4B4B"/></g></g></g><g clip-path="url(#clip13)"><g clip-path="url(#clip14)"><g clip-path="url(#clip15)"><path d="M253.067 143.924C253.067 143.924 257.269 144.765 262.73 139.303 265.252 142.665 266.934 144.345 266.934 144.345L266.934 149.389C268.62 147.649 269.664 145.28 269.664 142.665 269.664 137.327 265.338 133 260 133 254.663 133 250.336 137.327 250.336 142.665 250.336 145.28 251.379 147.649 253.067 149.389L253.067 143.924Z" fill="#4B4B4B"/><path d="M266.481 155.075C265.803 155.445 260 168.186 260 168.186 260 168.186 254.198 155.445 253.518 155.075 246.986 157.431 246.694 162.711 246.694 171L273.306 171C273.306 162.711 273.014 157.431 266.481 155.075Z" fill="#4B4B4B"/><path d="M257.107 154.505 257.107 158.363 260 157.379 262.893 158.363 262.893 154.505 260 155.489Z" fill="#4B4B4B"/></g></g></g><g clip-path="url(#clip16)"><g clip-path="url(#clip17)"><g clip-path="url(#clip18)"><path d="M436.595 220.38C436.182 220.379 435.819 220.216 435.547 219.946 435.277 219.674 435.114 219.311 435.113 218.898 435.114 218.485 435.277 218.122 435.547 217.85 435.819 217.58 436.182 217.417 436.595 217.416L462.095 217.417 462.095 215.001 436.595 215C434.441 215.001 432.698 216.745 432.697 218.898L432.697 249.102C432.698 251.255 434.441 252.999 436.595 253L463.303 253 463.303 220.38 436.595 220.38ZM460.887 250.583 437.489 250.584 437.489 222.796 460.887 222.796 460.887 250.583Z" fill="#4B4B4B"/><path d="M457.413 246.355 457.413 226.119 441.103 226.119 441.103 247.261 457.413 247.261 457.413 246.355ZM455.601 245.449 442.915 245.449 442.915 227.931 455.601 227.931 455.601 245.449Z" fill="#4B4B4B"/><path d="M445.634 240.465 452.883 240.465 452.883 241.825 445.634 241.825Z" fill="#4B4B4B"/></g></g></g><path d="M279.5 152.5 429.585 152.5" stroke="#000000" stroke-width="0.666667" stroke-miterlimit="8" fill="none" fill-rule="evenodd"/><g clip-path="url(#clip19)"><g clip-path="url(#clip20)"><g clip-path="url(#clip21)"><path d="M343.805 150.415 360.17 150.415 360.17 151.79 343.805 151.79Z" fill="#4B4B4B"/><path d="M342.394 155.85 358.759 155.85 358.759 157.225 342.394 157.225Z" fill="#4B4B4B"/><path d="M366.947 135.717 366.947 134.832 339.251 134.832 339.251 135.717C339.251 137.543 339.302 139.452 339.302 141.435 339.302 144.326 339.195 147.372 338.68 150.543 338.189 153.558 337.331 156.687 335.841 159.914L333.175 159.914C332.704 159.914 332.228 159.989 331.769 160.149 331.082 160.387 330.431 160.823 329.938 161.463 329.444 162.103 329.118 162.934 329.021 163.914 329.007 164.055 329 164.197 329 164.337 328.999 165.047 329.182 165.717 329.49 166.304 329.953 167.187 330.684 167.889 331.533 168.378 332.383 168.867 333.359 169.149 334.352 169.156L355.407 169.168C356.208 169.17 356.903 169.006 357.495 168.737 358.087 168.47 358.57 168.114 359.019 167.757 360.853 166.296 362.27 164.486 363.358 162.476 364.99 159.459 365.891 155.992 366.395 152.467 366.897 148.941 366.999 145.353 367 142.086 367 139.747 366.947 137.572 366.947 135.717ZM334.362 167.388 334.363 167.388C333.924 167.386 333.469 167.3 333.038 167.139 332.391 166.899 331.805 166.492 331.401 166.001 331.198 165.755 331.04 165.489 330.932 165.212 330.825 164.934 330.768 164.645 330.768 164.337 330.768 164.256 330.772 164.174 330.78 164.09 330.827 163.623 330.939 163.249 331.088 162.947 331.313 162.495 331.617 162.194 331.975 161.989 332.332 161.784 332.751 161.692 333.175 161.692L352.122 161.692C351.917 161.928 351.734 162.197 351.588 162.502 351.372 162.949 351.228 163.467 351.169 164.051 351.156 164.183 351.15 164.314 351.15 164.443 351.15 165.061 351.297 165.645 351.554 166.165 351.785 166.631 352.103 167.046 352.479 167.399L334.362 167.388ZM364.025 155.555C363.515 157.734 362.798 159.798 361.803 161.635 360.808 163.471 359.541 165.08 357.917 166.374 357.508 166.701 357.148 166.955 356.768 167.125 356.387 167.295 355.981 167.398 355.407 167.4L354.817 167.399C354.282 167.248 353.786 166.98 353.383 166.628 353.056 166.345 352.793 166.01 352.611 165.642 352.43 165.274 352.329 164.873 352.329 164.443 352.329 164.353 352.333 164.262 352.342 164.168 352.388 163.706 352.499 163.325 352.649 163.013 352.876 162.546 353.187 162.228 353.548 162.015 353.908 161.802 354.322 161.699 354.735 161.7 355.152 161.698 355.566 161.806 355.908 161.998 356.251 162.191 356.52 162.463 356.683 162.801 356.769 162.979 356.822 163.217 356.822 163.458 356.822 163.654 356.787 163.85 356.723 164.014 356.659 164.179 356.569 164.308 356.464 164.398 356.266 164.564 356.064 164.627 355.861 164.628 355.684 164.628 355.507 164.575 355.359 164.479 355.21 164.384 355.095 164.251 355.027 164.092L353.943 164.557C354.109 164.944 354.387 165.256 354.722 165.471 355.057 165.686 355.451 165.806 355.861 165.806 356.33 165.808 356.822 165.642 357.228 165.295 357.506 165.057 357.698 164.757 357.821 164.441 357.944 164.124 358 163.789 358 163.458 358 163.055 357.918 162.653 357.745 162.291 357.467 161.713 357.012 161.267 356.485 160.971 355.967 160.681 355.377 160.53 354.777 160.522L354.777 160.513 337.513 160.513C339.036 157.175 339.921 153.929 340.425 150.826 340.962 147.516 341.069 144.368 341.069 141.435 341.069 139.748 341.035 138.136 341.024 136.6L365.183 136.6C365.195 138.271 365.232 140.126 365.232 142.086 365.233 146.39 365.046 151.197 364.025 155.555Z" fill="#4B4B4B"/><path d="M353.579 146.978C353.786 144.668 353.796 142.456 353.775 140.365L344.619 140.365C344.64 142.456 344.629 144.668 344.422 146.978L353.579 146.978Z" fill="#4B4B4B"/></g></g></g><path d="M279.5 152.5 429.585 234.757" stroke="#000000" stroke-width="0.666667" stroke-miterlimit="8" fill="none" fill-rule="evenodd"/><g clip-path="url(#clip22)"><g clip-path="url(#clip23)"><g clip-path="url(#clip24)"><path d="M372.805 201.415 389.17 201.415 389.17 202.79 372.805 202.79Z" fill="#4472C4"/><path d="M371.394 206.85 387.759 206.85 387.759 208.225 371.394 208.225Z" fill="#4472C4"/><path d="M395.947 186.717 395.947 185.832 368.251 185.832 368.251 186.717C368.251 188.543 368.302 190.452 368.302 192.435 368.302 195.326 368.195 198.372 367.68 201.543 367.189 204.558 366.331 207.687 364.841 210.914L362.175 210.914C361.704 210.914 361.228 210.989 360.769 211.149 360.082 211.387 359.431 211.823 358.938 212.463 358.444 213.103 358.118 213.934 358.021 214.914 358.007 215.055 358 215.197 358 215.337 357.999 216.047 358.182 216.717 358.49 217.304 358.953 218.187 359.684 218.889 360.533 219.378 361.383 219.867 362.359 220.149 363.352 220.156L384.407 220.168C385.208 220.17 385.903 220.006 386.495 219.737 387.087 219.47 387.57 219.114 388.019 218.757 389.853 217.296 391.27 215.486 392.358 213.476 393.99 210.459 394.891 206.992 395.395 203.467 395.897 199.941 395.999 196.353 396 193.086 396 190.747 395.947 188.572 395.947 186.717ZM363.362 218.388 363.363 218.388C362.924 218.386 362.469 218.3 362.038 218.139 361.391 217.899 360.805 217.492 360.401 217.001 360.198 216.755 360.04 216.489 359.932 216.212 359.825 215.934 359.768 215.645 359.768 215.337 359.768 215.256 359.772 215.174 359.78 215.09 359.827 214.623 359.939 214.249 360.088 213.947 360.313 213.495 360.617 213.194 360.975 212.989 361.332 212.784 361.751 212.692 362.175 212.692L381.122 212.692C380.917 212.928 380.734 213.197 380.588 213.502 380.372 213.949 380.228 214.467 380.169 215.051 380.156 215.183 380.15 215.314 380.15 215.443 380.15 216.061 380.297 216.645 380.554 217.165 380.785 217.631 381.103 218.046 381.479 218.399L363.362 218.388ZM393.025 206.555C392.515 208.734 391.798 210.798 390.803 212.635 389.808 214.471 388.541 216.08 386.917 217.374 386.508 217.701 386.148 217.955 385.768 218.125 385.387 218.295 384.981 218.398 384.407 218.4L383.817 218.399C383.282 218.248 382.786 217.98 382.383 217.628 382.056 217.345 381.793 217.01 381.611 216.642 381.43 216.274 381.329 215.873 381.329 215.443 381.329 215.353 381.333 215.262 381.342 215.168 381.388 214.706 381.499 214.325 381.649 214.013 381.876 213.546 382.187 213.228 382.548 213.015 382.908 212.802 383.322 212.699 383.735 212.7 384.152 212.698 384.566 212.806 384.908 212.998 385.251 213.191 385.52 213.463 385.683 213.801 385.769 213.979 385.822 214.217 385.822 214.458 385.822 214.654 385.787 214.85 385.723 215.014 385.659 215.179 385.569 215.308 385.464 215.398 385.266 215.564 385.064 215.627 384.861 215.628 384.684 215.628 384.507 215.575 384.359 215.479 384.21 215.384 384.095 215.251 384.027 215.092L382.943 215.557C383.109 215.944 383.387 216.256 383.722 216.471 384.057 216.686 384.451 216.806 384.861 216.806 385.33 216.808 385.822 216.642 386.228 216.295 386.506 216.057 386.698 215.757 386.821 215.441 386.944 215.124 387 214.789 387 214.458 387 214.055 386.918 213.653 386.745 213.291 386.467 212.713 386.012 212.267 385.485 211.971 384.967 211.681 384.377 211.53 383.777 211.522L383.777 211.513 366.513 211.513C368.036 208.175 368.921 204.929 369.425 201.826 369.962 198.516 370.069 195.368 370.069 192.435 370.069 190.748 370.035 189.136 370.024 187.6L394.183 187.6C394.195 189.271 394.232 191.126 394.232 193.086 394.233 197.39 394.046 202.197 393.025 206.555Z" fill="#4472C4"/><path d="M382.579 197.978C382.786 195.668 382.796 193.456 382.775 191.365L373.619 191.365C373.64 193.456 373.629 195.668 373.422 197.978L382.579 197.978Z" fill="#4472C4"/></g></g></g><path d="M0 0 150.085 82.2571" stroke="#000000" stroke-width="0.666667" stroke-miterlimit="8" fill="none" fill-rule="evenodd" transform="matrix(1 0 0 -1 279.5 316.757)"/><g clip-path="url(#clip25)"><g clip-path="url(#clip26)"><g clip-path="url(#clip27)"><path d="M344.805 273.415 361.17 273.415 361.17 274.79 344.805 274.79Z" fill="#70AD47"/><path d="M343.394 278.85 359.759 278.85 359.759 280.225 343.394 280.225Z" fill="#70AD47"/><path d="M367.947 258.717 367.947 257.832 340.251 257.832 340.251 258.717C340.251 260.543 340.302 262.452 340.302 264.435 340.302 267.326 340.195 270.372 339.68 273.543 339.189 276.558 338.331 279.687 336.841 282.914L334.175 282.914C333.704 282.914 333.228 282.989 332.769 283.149 332.082 283.387 331.431 283.823 330.938 284.463 330.444 285.103 330.118 285.934 330.021 286.914 330.007 287.056 330 287.197 330 287.337 329.999 288.047 330.182 288.717 330.49 289.304 330.953 290.187 331.684 290.889 332.533 291.378 333.383 291.867 334.359 292.149 335.352 292.156L356.407 292.168C357.208 292.17 357.903 292.006 358.495 291.737 359.087 291.47 359.57 291.114 360.019 290.757 361.853 289.296 363.27 287.486 364.358 285.476 365.99 282.459 366.891 278.992 367.395 275.467 367.897 271.941 367.999 268.353 368 265.086 368 262.747 367.947 260.572 367.947 258.717ZM335.362 290.388 335.363 290.388C334.924 290.386 334.469 290.3 334.038 290.139 333.391 289.899 332.805 289.492 332.401 289.001 332.198 288.755 332.04 288.489 331.932 288.212 331.825 287.934 331.768 287.645 331.768 287.337 331.768 287.256 331.772 287.174 331.78 287.09 331.827 286.623 331.939 286.249 332.088 285.947 332.313 285.495 332.617 285.194 332.975 284.988 333.332 284.784 333.751 284.692 334.175 284.692L353.122 284.692C352.917 284.928 352.734 285.197 352.588 285.502 352.372 285.949 352.228 286.467 352.169 287.051 352.156 287.183 352.15 287.314 352.15 287.443 352.15 288.061 352.297 288.645 352.554 289.164 352.785 289.631 353.103 290.046 353.479 290.399L335.362 290.388ZM365.025 278.555C364.515 280.734 363.798 282.798 362.803 284.635 361.808 286.471 360.541 288.08 358.917 289.374 358.508 289.701 358.148 289.955 357.768 290.125 357.387 290.295 356.981 290.398 356.407 290.4L355.817 290.399C355.282 290.248 354.786 289.98 354.383 289.628 354.056 289.345 353.793 289.01 353.611 288.642 353.43 288.274 353.329 287.873 353.329 287.443 353.329 287.353 353.333 287.262 353.342 287.168 353.388 286.706 353.499 286.325 353.649 286.013 353.876 285.546 354.187 285.228 354.548 285.015 354.908 284.802 355.322 284.699 355.735 284.7 356.152 284.698 356.566 284.806 356.908 284.998 357.251 285.191 357.52 285.463 357.683 285.801 357.769 285.979 357.822 286.217 357.822 286.458 357.822 286.654 357.787 286.85 357.723 287.014 357.659 287.179 357.569 287.308 357.464 287.398 357.266 287.564 357.064 287.627 356.861 287.628 356.684 287.628 356.507 287.575 356.359 287.479 356.21 287.384 356.095 287.251 356.027 287.092L354.943 287.557C355.109 287.944 355.387 288.256 355.722 288.471 356.057 288.686 356.451 288.806 356.861 288.806 357.33 288.808 357.822 288.642 358.228 288.295 358.506 288.057 358.698 287.757 358.821 287.441 358.944 287.124 359 286.789 359 286.458 359 286.055 358.918 285.653 358.745 285.291 358.467 284.713 358.012 284.267 357.485 283.971 356.967 283.681 356.377 283.53 355.777 283.522L355.777 283.513 338.513 283.513C340.036 280.175 340.921 276.929 341.425 273.826 341.962 270.516 342.069 267.368 342.069 264.435 342.069 262.748 342.035 261.136 342.024 259.6L366.183 259.6C366.195 261.271 366.232 263.126 366.232 265.086 366.233 269.39 366.046 274.197 365.025 278.555Z" fill="#70AD47"/><path d="M354.579 269.978C354.786 267.668 354.796 265.456 354.775 263.365L345.619 263.365C345.64 265.456 345.629 267.668 345.422 269.978L354.579 269.978Z" fill="#70AD47"/></g></g></g><text font-family="Calibri,Calibri_MSFontService,sans-serif" font-weight="400" font-size="11" transform="translate(236.935 182)">C003:<tspan font-family="Yu Gothic,Yu Gothic_MSFontService,sans-serif" font-size="11" x="24.5" y="0">顧客</tspan></text><path d="M236.935 182.679 248.435 182.679 259.935 182.679 271.435 182.679 282.935 182.679 282.935 183.679 271.435 183.679 259.935 183.679 248.435 183.679 236.935 183.679Z" fill-rule="evenodd"/><text font-family="Calibri,Calibri_MSFontService,sans-serif" font-weight="400" font-size="11" transform="translate(237.171 265)">C172:<tspan font-family="Yu Gothic,Yu Gothic_MSFontService,sans-serif" font-size="11" x="24.5" y="0">顧客</tspan></text><path d="M237.171 266.269 248.671 266.269 260.171 266.269 271.671 266.269 283.171 266.269 283.171 267.269 271.671 267.269 260.171 267.269 248.671 267.269 237.171 267.269Z" fill-rule="evenodd"/><text font-family="Calibri,Calibri_MSFontService,sans-serif" font-weight="400" font-size="11" transform="translate(236.935 351)">C026:<tspan font-family="Yu Gothic,Yu Gothic_MSFontService,sans-serif" font-size="11" x="24.5" y="0">顧客</tspan></text><path d="M236.935 351.801 248.435 351.801 259.935 351.801 271.435 351.801 282.935 351.801 282.935 352.801 271.435 352.801 259.935 352.801 248.435 352.801 236.935 352.801Z" fill-rule="evenodd"/><text font-family="Calibri,Calibri_MSFontService,sans-serif" font-weight="400" font-size="11" transform="translate(424.991 186)">P031:<tspan font-family="Yu Gothic,Yu Gothic_MSFontService,sans-serif" font-size="11" x="24.3333" y="0">商品</tspan></text><path d="M424.991 187.419 436.491 187.419 447.991 187.419 459.491 187.419 470.991 187.419 470.991 188.419 459.491 188.419 447.991 188.419 436.491 188.419 424.991 188.419Z" fill-rule="evenodd"/><text font-family="Calibri,Calibri_MSFontService,sans-serif" font-weight="400" font-size="11" transform="translate(424.991 265)">N008:<tspan font-family="Yu Gothic,Yu Gothic_MSFontService,sans-serif" font-size="11" x="25.6667" y="0">商品</tspan></text><path d="M424.991 266.315 436.741 266.315 448.491 266.315 460.241 266.315 471.991 266.315 471.991 267.315 460.241 267.315 448.491 267.315 436.741 267.315 424.991 267.315Z" fill-rule="evenodd"/><text font-family="Calibri,Calibri_MSFontService,sans-serif" font-weight="400" font-size="11" transform="translate(424.991 351)">L012:<tspan font-family="Yu Gothic,Yu Gothic_MSFontService,sans-serif" font-size="11" x="23.3333" y="0">商品</tspan></text><path d="M424.991 351.801 436.241 351.801 447.491 351.801 458.741 351.801 469.991 351.801 469.991 352.801 458.741 352.801 447.491 352.801 436.241 352.801 424.991 352.801Z" fill-rule="evenodd"/><text font-family="Calibri,Calibri_MSFontService,sans-serif" font-weight="400" font-size="11" transform="translate(302.603 179)">C003P031<tspan font-size="11" x="43.1667" y="0">-</tspan><tspan font-size="11" x="46.5" y="0">001:</tspan><tspan font-family="Yu Gothic,Yu Gothic_MSFontService,sans-serif" font-size="11" x="65.3333" y="0">注文</tspan></text><path d="M302.603 179.741 324.353 179.741 346.103 179.741 367.853 179.741 389.603 179.741 389.603 180.741 367.853 180.741 346.103 180.741 324.353 180.741 302.603 180.741Z" fill-rule="evenodd"/><text font-family="Calibri,Calibri_MSFontService,sans-serif" font-weight="400" font-size="11" transform="translate(332.896 231)">C003N008-<tspan font-size="11" x="47.8333" y="0">005:</tspan><tspan font-family="Yu Gothic,Yu Gothic_MSFontService,sans-serif" font-size="11" x="66.6667" y="0">注文</tspan></text><path d="M332.896 232.181 354.896 232.181 376.896 232.181 398.896 232.181 420.896 232.181 420.896 233.181 398.896 233.181 376.896 233.181 354.896 233.181 332.896 233.181Z" fill-rule="evenodd"/><text font-family="Calibri,Calibri_MSFontService,sans-serif" font-weight="400" font-size="11" transform="translate(309.674 306)">C026N008-<tspan font-size="11" x="47.8333" y="0">052:</tspan><tspan font-family="Yu Gothic,Yu Gothic_MSFontService,sans-serif" font-size="11" x="66.6667" y="0">注文</tspan></text><path d="M309.674 306.531 331.674 306.531 353.674 306.531 375.674 306.531 397.674 306.531 397.674 307.531 375.674 307.531 353.674 307.531 331.674 307.531 309.674 307.531Z" fill-rule="evenodd"/><text font-family="Calibri,Calibri_MSFontService,sans-serif" font-weight="400" font-size="11" transform="translate(352.955 144)">12<tspan font-size="11" x="32.3076" y="54">2</tspan><tspan font-size="11" x="4.95297" y="123">1</tspan><tspan font-family="Yu Gothic,Yu Gothic_MSFontService,sans-serif" font-size="16" x="-249.508" y="-43">概念情報</tspan><tspan font-family="Yu Gothic,Yu Gothic_MSFontService,sans-serif" font-size="16" x="-185.508" y="-43">モデルの制約に従った、“商品販売”の概念インスタンス構成例</tspan></text></g></svg>