<svg width="227" height="208" xmlns="http://www.w3.org/2000/svg" xmlns:xlink="http://www.w3.org/1999/xlink" overflow="hidden"><defs><clipPath id="clip0"><rect x="193" y="485" width="227" height="208"/></clipPath><clipPath id="clip1"><rect x="382" y="654" width="37" height="38"/></clipPath><clipPath id="clip2"><rect x="382" y="654" width="37" height="38"/></clipPath><clipPath id="clip3"><rect x="382" y="654" width="37" height="38"/></clipPath><clipPath id="clip4"><rect x="382" y="489" width="37" height="38"/></clipPath><clipPath id="clip5"><rect x="382" y="489" width="37" height="38"/></clipPath><clipPath id="clip6"><rect x="382" y="489" width="37" height="38"/></clipPath><clipPath id="clip7"><rect x="193" y="654" width="38" height="38"/></clipPath><clipPath id="clip8"><rect x="193" y="654" width="38" height="38"/></clipPath><clipPath id="clip9"><rect x="193" y="654" width="38" height="38"/></clipPath><clipPath id="clip10"><rect x="193" y="572" width="38" height="38"/></clipPath><clipPath id="clip11"><rect x="193" y="572" width="38" height="38"/></clipPath><clipPath id="clip12"><rect x="193" y="572" width="38" height="38"/></clipPath><clipPath id="clip13"><rect x="193" y="489" width="38" height="38"/></clipPath><clipPath id="clip14"><rect x="193" y="489" width="38" height="38"/></clipPath><clipPath id="clip15"><rect x="193" y="489" width="38" height="38"/></clipPath><clipPath id="clip16"><rect x="382" y="572" width="37" height="38"/></clipPath><clipPath id="clip17"><rect x="382" y="572" width="37" height="38"/></clipPath><clipPath id="clip18"><rect x="382" y="572" width="37" height="38"/></clipPath><clipPath id="clip19"><rect x="281" y="489" width="38" height="38"/></clipPath><clipPath id="clip20"><rect x="281" y="489" width="38" height="38"/></clipPath><clipPath id="clip21"><rect x="281" y="489" width="38" height="38"/></clipPath><clipPath id="clip22"><rect x="311" y="541" width="38" height="38"/></clipPath><clipPath id="clip23"><rect x="311" y="541" width="38" height="38"/></clipPath><clipPath id="clip24"><rect x="311" y="541" width="38" height="38"/></clipPath><clipPath id="clip25"><rect x="282" y="613" width="38" height="38"/></clipPath><clipPath id="clip26"><rect x="282" y="613" width="38" height="38"/></clipPath><clipPath id="clip27"><rect x="282" y="613" width="38" height="38"/></clipPath></defs><g clip-path="url(#clip0)" transform="translate(-193 -485)"><g clip-path="url(#clip1)"><g clip-path="url(#clip2)"><g clip-path="url(#clip3)"><path d="M33.8737 1.38345C33.0223 0.530502 31.8347 0 30.534 0L8.28475 0C6.98368 0 5.79671 0.530502 4.94528 1.38345 4.09182 2.2351 3.56125 3.42214 3.56154 4.72386L3.56154 5.10441 2.52279 5.10441C2.09223 5.10441 1.74319 5.45381 1.74319 5.88495 1.74319 6.31493 2.09231 6.66426 2.52279 6.66426L3.56154 6.66426 3.56154 11.344 2.52279 11.344C2.09223 11.344 1.74319 11.6934 1.74319 12.1239 1.74319 12.5539 2.09231 12.9039 2.52279 12.9039L3.56154 12.9039 3.56154 17.5836 2.52279 17.5836C2.09223 17.5836 1.74319 17.933 1.74319 18.363 1.74319 18.7935 2.09231 19.1423 2.52279 19.1423L3.56154 19.1423 3.56154 23.8226 2.52279 23.8226C2.09223 23.8226 1.74319 24.1726 1.74319 24.6026 1.74319 25.0332 2.09231 25.3819 2.52279 25.3819L3.56154 25.3819 3.56154 30.0622 2.52279 30.0622C2.09223 30.0622 1.74319 30.411 1.74319 30.8416 1.74319 31.2722 2.09231 31.6215 2.52279 31.6215L3.56154 31.6215 3.56154 32.2768C3.56125 33.5779 4.09182 34.7648 4.94528 35.6165 5.79671 36.4694 6.98368 37.0006 8.28475 37L30.534 37C31.8347 37.0006 33.0223 36.4694 33.8737 35.6165 34.7266 34.7648 35.2575 33.5778 35.2569 32.2768L35.2569 4.72386C35.2575 3.42214 34.7266 2.2351 33.8737 1.38345ZM11.7813 34.9213 8.28475 34.9213C7.55103 34.9213 6.8966 34.6272 6.41488 34.1467 5.93467 33.6649 5.64084 33.0108 5.64026 32.2768L5.64026 31.6215 7.28987 31.6215C7.56159 32.0768 8.05863 32.3837 8.62801 32.3837 9.48884 32.3837 10.1867 31.6855 10.1867 30.825 10.1867 29.9639 9.48884 29.2663 8.62801 29.2663 8.04418 29.2663 7.53658 29.5874 7.26927 30.0621L5.64019 30.0621 5.64019 25.3819 7.28712 25.3819C7.55855 25.8401 8.05675 26.1483 8.62794 26.1483 9.48877 26.1483 10.1866 25.4501 10.1866 24.5896 10.1866 23.7291 9.48877 23.0308 8.62794 23.0308 8.04584 23.0308 7.53947 23.3508 7.2718 23.8225L5.64019 23.8225 5.64019 19.1422 7.28452 19.1422C7.55537 19.6034 8.05509 19.9134 8.62801 19.9134 9.48884 19.9134 10.1867 19.2151 10.1867 18.3553 10.1867 17.4936 9.48884 16.7954 8.62801 16.7954 8.04772 16.7954 7.54272 17.113 7.27455 17.5835L5.64019 17.5835 5.64019 12.9038 7.28213 12.9038C7.5527 13.3662 8.05328 13.6779 8.62794 13.6779 9.48877 13.6779 10.1866 12.9804 10.1866 12.1192 10.1866 11.2593 9.48877 10.5605 8.62794 10.5605 8.04974 10.5605 7.54533 10.8769 7.27686 11.344L5.64019 11.344 5.64019 6.66426 7.27953 6.66426C7.54916 7.12951 8.05147 7.44307 8.62801 7.44307 9.48884 7.44307 10.1867 6.74484 10.1867 5.88495 10.1867 5.02326 9.48884 4.3256 8.62801 4.3256 8.05155 4.3256 7.54923 4.63967 7.27953 5.10441L5.64019 5.10441 5.64019 4.72386C5.64077 3.98913 5.9346 3.33513 6.4148 2.85276 6.89653 2.37277 7.55096 2.0793 8.28468 2.07872L11.7812 2.07872 11.7812 34.9213ZM33.1787 32.2768C33.1782 33.0109 32.8843 33.6649 32.4041 34.1467 31.9223 34.6272 31.2676 34.9213 30.5339 34.9213L12.5609 34.9213 12.5609 2.07872 30.534 2.07872C31.2677 2.0793 31.9224 2.37277 32.4041 2.85276 32.8844 3.33513 33.1782 3.98913 33.1788 4.72386L33.1788 32.2768Z" fill="#4B4B4B" transform="matrix(1 0 0 1.02703 382 654)"/><path d="M15.7436 8.1736 29.5413 8.1736 29.5413 8.95292 15.7436 8.95292Z" fill="#4B4B4B" transform="matrix(1 0 0 1.02703 382 654)"/><path d="M15.7436 13.175 29.5413 13.175 29.5413 13.9544 15.7436 13.9544Z" fill="#4B4B4B" transform="matrix(1 0 0 1.02703 382 654)"/><path d="M15.7436 18.1765 29.5413 18.1765 29.5413 18.9559 15.7436 18.9559Z" fill="#4B4B4B" transform="matrix(1 0 0 1.02703 382 654)"/><path d="M15.7436 23.1779 29.5413 23.1779 29.5413 23.9573 15.7436 23.9573Z" fill="#4B4B4B" transform="matrix(1 0 0 1.02703 382 654)"/><path d="M15.7436 28.1793 29.5413 28.1793 29.5413 28.9581 15.7436 28.9581Z" fill="#4B4B4B" transform="matrix(1 0 0 1.02703 382 654)"/></g></g></g><g clip-path="url(#clip4)"><g clip-path="url(#clip5)"><g clip-path="url(#clip6)"><path d="M24.6257 0 3.3321 21.2935 0 37 15.7031 33.6679 37 12.371 24.6257 0ZM24.6257 3.78267 28.4219 7.57886 10.4255 25.573 6.63037 21.7779 24.6257 3.78267ZM7.95261 32.5466 4.45221 29.0462 5.79592 22.942 14.0557 31.2029 7.95261 32.5466ZM15.2198 30.3674 11.4258 26.5734 29.42 8.57706 33.2162 12.371 15.2198 30.3674Z" fill="#4B4B4B" transform="matrix(1 0 0 1.02703 382 489)"/></g></g></g><g clip-path="url(#clip7)"><g clip-path="url(#clip8)"><g clip-path="url(#clip9)"><path d="M220.018 680.35C219.731 680.243 219.419 680.095 219.101 679.92L213.79 687.263 213.412 682.453 210.589 682.453 210.211 687.263 204.899 679.92C204.572 680.103 204.257 680.253 203.982 680.35 201.2 681.329 194.367 684.146 194.808 689.421 194.914 690.686 201.875 692 212 692 222.125 692 229.086 690.686 229.192 689.421 229.633 684.14 222.782 681.384 220.018 680.35Z" fill="#4B4B4B"/><path d="M205.729 669.458C206.115 671.648 206.765 673.581 207.621 674.533 207.621 675.674 207.621 676.507 207.621 677.174 207.621 677.241 207.609 677.311 207.59 677.384L210.589 678.829 210.589 680.947 213.412 680.947 213.412 678.829 216.409 677.385C216.39 677.312 216.379 677.242 216.379 677.174 216.379 676.507 216.379 675.674 216.379 674.533 217.236 673.581 217.886 671.648 218.272 669.458 219.173 669.136 219.69 668.62 220.333 666.366 221.018 663.964 219.303 664.046 219.303 664.046 220.69 659.454 218.863 655.138 215.805 655.455 213.696 651.764 206.63 656.298 204.414 655.982 204.414 657.248 204.942 658.197 204.942 658.197 204.172 659.658 204.469 662.572 204.686 664.046 204.56 664.044 203.009 664.06 203.667 666.366 204.311 668.62 204.826 669.136 205.729 669.458Z" fill="#4B4B4B"/></g></g></g><g clip-path="url(#clip10)"><g clip-path="url(#clip11)"><g clip-path="url(#clip12)"><path d="M225.388 602.122C224.487 600.773 223.116 600.025 221.826 599.538 221.179 599.295 220.546 599.116 219.988 598.963 219.431 598.812 218.946 598.683 218.619 598.56 218.155 598.388 217.676 598.174 217.284 597.94L217.284 595.491 216.426 595.634C216.426 595.401 216.426 595.157 216.426 594.887 217.156 594.076 218.207 592.819 218.635 590.82 218.788 590.752 218.938 590.675 219.084 590.574 219.436 590.33 219.736 589.976 219.991 589.493 220.248 589.008 220.476 588.386 220.72 587.534 220.842 587.103 220.899 586.729 220.899 586.397 220.9 586.015 220.821 585.684 220.678 585.417 220.519 585.119 220.289 584.92 220.066 584.793L220.066 583.874C220.095 583.848 220.131 583.824 220.157 583.797 220.887 583.037 220.597 582.158 220.089 581.504 220.726 580.608 222.002 578.54 221.642 576.742 220.875 572.908 215.478 572 212 572 208.522 572 203.125 572.908 202.358 576.742 201.999 578.54 203.273 580.608 203.912 581.504 203.419 582.138 203.138 582.986 203.79 583.729L203.79 584.896C203.616 585.02 203.445 585.186 203.323 585.417 203.179 585.685 203.1 586.015 203.101 586.397 203.101 586.73 203.158 587.103 203.281 587.534 203.606 588.669 203.9 589.4 204.279 589.934 204.468 590.2 204.683 590.412 204.917 590.574 205.062 590.675 205.213 590.752 205.365 590.82 205.794 592.819 206.844 594.076 207.574 594.888 207.574 595.157 207.574 595.401 207.574 595.634L206.716 595.491 206.716 597.941C206.672 597.968 206.63 597.996 206.583 598.023 206.205 598.238 205.771 598.424 205.391 598.557 204.945 598.716 204.229 598.88 203.427 599.109 202.222 599.457 200.8 599.959 199.644 600.949 199.068 601.445 198.562 602.067 198.206 602.84 197.85 603.612 197.645 604.53 197.645 605.606 197.645 605.856 197.656 606.114 197.679 606.381 197.695 606.563 197.764 606.711 197.847 606.835 198.003 607.065 198.213 607.238 198.477 607.416 198.938 607.722 199.58 608.021 200.402 608.316 202.865 609.194 206.945 609.998 212 610 216.107 609.999 219.575 609.467 222.048 608.798 223.285 608.462 224.273 608.094 224.985 607.728 225.342 607.545 225.631 607.362 225.858 607.164 225.971 607.064 226.07 606.959 226.154 606.835 226.235 606.712 226.306 606.563 226.321 606.381 226.344 606.114 226.354 605.857 226.354 605.607 226.356 604.174 225.988 603.02 225.388 602.122ZM211.247 576.357 212.001 574.675 212.754 576.357 214.586 576.554 213.22 577.789 213.598 579.593 212.001 578.676 210.402 579.593 210.78 577.789 209.414 576.554 211.247 576.357ZM212 608.464C211.463 608.464 211.029 608.029 211.029 607.492 211.029 606.956 211.463 606.521 212 606.521 212.537 606.521 212.972 606.956 212.972 607.492 212.972 608.029 212.537 608.464 212 608.464ZM212 603.703C211.463 603.703 211.029 603.267 211.029 602.731 211.029 602.194 211.463 601.76 212 601.76 212.537 601.76 212.972 602.194 212.972 602.731 212.972 603.267 212.537 603.703 212 603.703ZM212 599.816 207.04 598.989C207.215 598.892 207.387 598.79 207.549 598.677 207.643 598.613 207.728 598.539 207.815 598.468L211.818 599.135 211.818 596.341 208.643 595.812C208.643 595.475 208.643 595.108 208.643 594.684L208.643 594.479 208.505 594.326C207.745 593.477 206.709 592.347 206.35 590.34L206.296 590.034 206.004 589.929C205.809 589.859 205.658 589.788 205.527 589.697 205.332 589.56 205.156 589.371 204.953 588.992 204.752 588.615 204.54 588.054 204.308 587.241 204.207 586.884 204.17 586.606 204.17 586.397 204.17 586.156 204.216 586.013 204.265 585.921 204.339 585.787 204.43 585.729 204.544 585.684 204.561 585.677 204.578 585.673 204.595 585.668L206.462 587.11 206.462 584.9C208.475 585.327 210.958 585.409 212 585.409 213.017 585.409 215.408 585.333 217.393 584.932L217.393 587.11 219.29 585.644C219.365 585.655 219.477 585.679 219.563 585.736 219.63 585.779 219.685 585.829 219.735 585.921 219.784 586.013 219.83 586.156 219.83 586.397 219.83 586.606 219.794 586.883 219.692 587.241 219.383 588.326 219.107 588.959 218.851 589.313 218.723 589.492 218.605 589.604 218.474 589.697 218.342 589.788 218.191 589.859 217.996 589.929L217.704 590.034 217.65 590.34C217.292 592.347 216.256 593.477 215.495 594.326L215.357 594.479 215.357 594.684C215.357 595.108 215.357 595.475 215.357 595.812L212.183 596.341 212.183 599.135 216.172 598.47C216.377 598.638 216.604 598.787 216.842 598.924 216.883 598.947 216.927 598.965 216.969 598.988L212 599.816Z" fill="#4B4B4B"/></g></g></g><g clip-path="url(#clip13)"><g clip-path="url(#clip14)"><g clip-path="url(#clip15)"><path d="M205.067 499.924C205.067 499.924 209.269 500.765 214.731 495.303 217.252 498.665 218.934 500.345 218.934 500.345L218.934 505.389C220.62 503.649 221.664 501.28 221.664 498.665 221.664 493.327 217.338 489 212 489 206.663 489 202.336 493.327 202.336 498.665 202.336 501.28 203.379 503.649 205.067 505.389L205.067 499.924Z" fill="#4B4B4B"/><path d="M218.481 511.075C217.803 511.445 212 524.186 212 524.186 212 524.186 206.198 511.445 205.518 511.075 198.986 513.431 198.694 518.711 198.694 527L225.306 527C225.306 518.711 225.014 513.431 218.481 511.075Z" fill="#4B4B4B"/><path d="M209.107 510.505 209.107 514.363 212 513.379 214.893 514.363 214.893 510.505 212 511.489Z" fill="#4B4B4B"/></g></g></g><g clip-path="url(#clip16)"><g clip-path="url(#clip17)"><g clip-path="url(#clip18)"><path d="M7.39465 5.23839C6.99257 5.23723 6.63991 5.07868 6.37513 4.81564 6.11208 4.55086 5.95303 4.19762 5.95237 3.79554 5.95295 3.39345 6.11208 3.04021 6.37455 2.77543 6.63933 2.51231 6.99257 2.35384 7.39465 2.35268L32.2239 2.35319 32.2239 0.000505859 7.39465 0C5.29815 0.00115625 3.60027 1.69904 3.5997 3.79554L3.5997 33.2044C3.60027 35.3009 5.29815 36.9988 7.39465 36.9999L33.4003 36.9999 33.4003 5.23839 7.39465 5.23839ZM31.0476 34.6467 8.26545 34.6473 8.26545 7.59114 31.0476 7.59114 31.0476 34.6467Z" fill="#4B4B4B" transform="matrix(1 0 0 1.02703 382 572)"/><path d="M27.6656 30.5301 27.6656 10.8261 11.7848 10.8261 11.7848 31.4123 27.6656 31.4123 27.6656 30.5301ZM25.901 29.6478 13.5493 29.6478 13.5493 12.5906 25.901 12.5906 25.901 29.6478Z" fill="#4B4B4B" transform="matrix(1 0 0 1.02703 382 572)"/><path d="M16.1961 24.7953 23.2542 24.7953 23.2542 26.1187 16.1961 26.1187Z" fill="#4B4B4B" transform="matrix(1 0 0 1.02703 382 572)"/></g></g></g><path d="M231.5 508.167 234.167 508.167 234.167 508.833 231.5 508.833ZM236.167 508.167 238.833 508.167 238.833 508.833 236.167 508.833ZM240.833 508.167 243.5 508.167 243.5 508.833 240.833 508.833ZM245.499 508.833 248.165 508.846 248.168 508.179 245.502 508.167ZM250.168 508.188 252.835 508.201 252.832 508.867 250.165 508.855ZM254.835 508.21 257.501 508.222 257.498 508.889 254.832 508.876ZM259.502 508.231 262.168 508.245 262.165 508.911 259.498 508.898ZM264.168 508.254 266.835 508.268 266.832 508.934 264.165 508.921ZM268.835 508.277 271.501 508.29 271.498 508.957 268.831 508.944ZM273.503 508.31 276.17 508.339 276.163 509.005 273.496 508.977ZM278.17 508.36 280.836 508.391 280.829 509.057 278.162 509.027ZM282.836 508.413 283.129 508.417 283.125 508.417 285.499 508.417 285.499 509.083 283.123 509.083 282.829 509.08ZM287.499 508.417 288.19 508.417 290.17 508.444 290.161 509.111 288.183 509.083 288.188 509.083 287.499 509.083ZM292.17 508.472 292.692 508.479 294.837 508.513 294.826 509.179 292.683 509.146 292.161 509.139ZM296.837 508.544 299.504 508.593 299.492 509.259 296.825 509.211ZM301.505 508.635 302.884 508.667 304.173 508.707 304.152 509.373 302.865 509.333 302.867 509.333 301.49 509.302ZM306.208 508.8 306.61 508.858 307.047 508.92 307.017 508.917 308.267 508.98 308.26 508.979 308.827 508.997 308.807 509.663 308.237 509.646 306.968 509.582 306.515 509.518 306.113 509.46ZM310.824 509.055 313.008 509.104 313.006 509.104 313.488 509.113 313.476 509.78 312.993 509.771 310.809 509.721ZM315.488 509.149 316.444 509.167 318.153 509.193 318.143 509.86 316.431 509.833 315.476 509.816ZM320.153 509.225 320.443 509.229 322.819 509.262 322.81 509.929 320.432 509.896 320.143 509.891ZM324.819 509.29 324.942 509.292 324.938 509.292 327.481 509.292 327.481 509.958 324.935 509.958 324.809 509.957ZM329.481 509.292 330.002 509.292 332.151 509.316 332.143 509.983 329.996 509.958 330 509.958 329.481 509.958ZM334.151 509.339 335.504 509.354 336.817 509.368 336.81 510.035 335.496 510.021 334.143 510.005ZM338.817 509.389 341.379 509.417 341.377 509.417 341.482 509.417 341.478 510.084 341.372 510.083 338.81 510.056ZM343.482 509.427 346.148 509.44 346.145 510.107 343.478 510.094ZM348.148 509.45 350.815 509.463 350.812 510.13 348.145 510.117ZM352.815 509.473 354.064 509.479 355.481 509.486 355.478 510.152 354.061 510.146 352.812 510.14ZM357.481 509.495 360.148 509.507 360.145 510.174 357.478 510.162ZM362.148 509.516 364.815 509.529 364.812 510.195 362.145 510.183ZM366.815 509.538 367.627 509.542 367.625 509.542 369.48 509.542 369.48 510.208 367.624 510.208 366.812 510.205ZM371.48 509.542 374.146 509.542 374.146 510.208 371.48 510.208ZM376.146 509.542 378.813 509.542 378.813 510.208 376.146 510.208ZM380.813 509.542 380.965 509.542 380.965 510.208 380.813 510.208ZM373.133 504.92 381.627 509.875 373.133 514.83C372.974 514.922 372.77 514.869 372.677 514.71 372.584 514.551 372.638 514.347 372.797 514.254L380.797 509.587 380.797 510.163 372.797 505.496C372.638 505.404 372.584 505.199 372.677 505.04 372.77 504.881 372.974 504.828 373.133 504.92Z"/><g clip-path="url(#clip19)"><g clip-path="url(#clip20)"><g clip-path="url(#clip21)"><path d="M295.805 506.415 312.17 506.415 312.17 507.79 295.805 507.79Z" fill="#4B4B4B"/><path d="M294.394 511.85 310.759 511.85 310.759 513.225 294.394 513.225Z" fill="#4B4B4B"/><path d="M318.947 491.717 318.947 490.832 291.251 490.832 291.251 491.717C291.251 493.543 291.302 495.452 291.302 497.435 291.302 500.326 291.195 503.372 290.68 506.543 290.189 509.558 289.331 512.687 287.841 515.914L285.175 515.914C284.704 515.914 284.228 515.989 283.769 516.149 283.082 516.387 282.431 516.823 281.938 517.464 281.444 518.103 281.118 518.934 281.021 519.914 281.007 520.055 281 520.197 281 520.337 280.999 521.047 281.182 521.717 281.49 522.304 281.953 523.187 282.684 523.889 283.533 524.378 284.383 524.867 285.359 525.149 286.352 525.156L307.407 525.168C308.208 525.17 308.903 525.006 309.495 524.737 310.087 524.47 310.57 524.114 311.019 523.757 312.853 522.296 314.27 520.486 315.358 518.476 316.99 515.459 317.891 511.992 318.395 508.467 318.897 504.941 318.999 501.353 319 498.086 319 495.747 318.947 493.572 318.947 491.717ZM286.362 523.388 286.363 523.388C285.924 523.386 285.469 523.3 285.038 523.139 284.391 522.898 283.805 522.492 283.401 522.001 283.198 521.755 283.04 521.489 282.932 521.212 282.825 520.934 282.768 520.645 282.768 520.337 282.768 520.256 282.772 520.174 282.78 520.09 282.827 519.623 282.939 519.249 283.088 518.947 283.313 518.495 283.617 518.194 283.975 517.989 284.332 517.784 284.751 517.692 285.175 517.692L304.122 517.692C303.917 517.928 303.734 518.197 303.588 518.502 303.372 518.949 303.228 519.467 303.169 520.051 303.156 520.183 303.15 520.314 303.15 520.443 303.15 521.061 303.297 521.645 303.554 522.164 303.785 522.631 304.103 523.046 304.479 523.399L286.362 523.388ZM316.025 511.555C315.515 513.734 314.798 515.798 313.803 517.635 312.808 519.471 311.541 521.08 309.917 522.374 309.508 522.701 309.148 522.955 308.768 523.125 308.387 523.295 307.981 523.398 307.407 523.4L306.817 523.399C306.282 523.248 305.786 522.98 305.383 522.628 305.056 522.345 304.793 522.01 304.611 521.642 304.43 521.274 304.329 520.873 304.329 520.443 304.329 520.353 304.333 520.262 304.342 520.168 304.388 519.706 304.499 519.325 304.649 519.013 304.876 518.546 305.187 518.228 305.548 518.015 305.908 517.802 306.322 517.699 306.735 517.7 307.152 517.698 307.566 517.806 307.908 517.998 308.251 518.191 308.52 518.463 308.683 518.801 308.769 518.979 308.822 519.217 308.822 519.458 308.822 519.654 308.787 519.85 308.723 520.014 308.659 520.179 308.569 520.308 308.464 520.398 308.266 520.564 308.064 520.627 307.861 520.628 307.684 520.628 307.507 520.575 307.359 520.479 307.21 520.384 307.095 520.251 307.027 520.092L305.943 520.557C306.109 520.944 306.387 521.256 306.722 521.471 307.057 521.686 307.451 521.806 307.861 521.806 308.33 521.808 308.822 521.642 309.228 521.295 309.506 521.057 309.698 520.757 309.821 520.441 309.944 520.124 310 519.789 310 519.458 310 519.055 309.918 518.653 309.745 518.291 309.467 517.713 309.012 517.266 308.485 516.971 307.967 516.681 307.377 516.53 306.777 516.522L306.777 516.513 289.513 516.513C291.036 513.175 291.921 509.929 292.425 506.826 292.962 503.516 293.069 500.368 293.069 497.435 293.069 495.748 293.035 494.136 293.024 492.6L317.183 492.6C317.195 494.271 317.232 496.126 317.232 498.086 317.233 502.39 317.046 507.197 316.025 511.555Z" fill="#4B4B4B"/><path d="M305.579 502.978C305.786 500.668 305.796 498.456 305.775 496.365L296.619 496.365C296.64 498.456 296.629 500.668 296.422 502.978L305.579 502.978Z" fill="#4B4B4B"/></g></g></g><path d="M231.512 508.167 234.177 508.261 234.153 508.928 231.488 508.833ZM236.176 508.332 238.585 508.417 238.861 508.445 238.795 509.108 238.53 509.082 238.551 509.083 236.152 508.998ZM240.851 508.642 243.504 508.905 243.439 509.568 240.785 509.305ZM245.495 509.102 245.543 509.107 248.148 509.533 248.04 510.191 245.446 509.767 245.467 509.769 245.429 509.765ZM250.121 509.856 252.438 510.235 252.769 510.309 252.623 510.96 252.302 510.888 252.321 510.892 250.014 510.514ZM254.72 510.747 257.322 511.331 257.176 511.981 254.574 511.397ZM259.299 511.788 261.839 512.601 261.635 513.236 259.096 512.423ZM263.743 513.211 266.283 514.025 266.08 514.659 263.54 513.846ZM268.188 514.634 270.727 515.448 270.524 516.083 267.984 515.269ZM272.635 516.131 275.098 517.153 274.842 517.769 272.379 516.747ZM276.945 517.92 277.765 518.26 279.372 519.082 279.069 519.675 277.473 518.859 277.497 518.87 276.69 518.535ZM281.153 519.992 283.286 521.083 283.537 521.232 283.197 521.805 282.955 521.662 282.973 521.672 280.85 520.586ZM285.258 522.251 287.552 523.611 287.212 524.184 284.918 522.825ZM289.248 524.718 291.424 526.259 291.039 526.803 288.863 525.262ZM293.068 527.45 295.091 529.188 294.656 529.694 292.634 527.956ZM296.608 530.492 296.917 530.757 298.507 532.406 298.027 532.869 296.448 531.232 296.47 531.253 296.173 530.997ZM299.896 533.845 300.38 534.346 301.583 535.959 301.048 536.358 299.858 534.762 299.885 534.794 299.416 534.308ZM302.778 537.563 303.157 538.071 304.137 539.909 303.549 540.222 302.581 538.407 302.608 538.449 302.244 537.961ZM305.079 541.673 305.183 541.869 305.963 544.247 305.329 544.455 304.558 542.104 304.581 542.157 304.49 541.987ZM306.508 546.234 306.807 548.884 306.145 548.959 305.846 546.309ZM307.032 550.872 307.331 553.521 306.668 553.596 306.369 550.946ZM307.939 555.356 308.567 557.271 308.544 557.218 308.85 557.792 308.262 558.106 307.942 557.506 307.305 555.563ZM309.792 559.557 310.544 560.968 310.517 560.926 311.155 561.781 310.621 562.18 309.968 561.304 309.203 559.871ZM312.351 563.385 313.267 564.613 313.238 564.579 314.032 565.388 313.557 565.855 312.746 565.03 311.817 563.783ZM315.434 566.815 316.675 568.079 316.655 568.06 317.334 568.643 316.899 569.149 316.21 568.556 314.958 567.282ZM318.85 569.947 320.655 571.497 320.63 571.478 320.865 571.644 320.479 572.188 320.232 572.013 318.416 570.452ZM322.497 572.8 324.673 574.342 324.288 574.886 322.112 573.344ZM326.346 575.385 328.64 576.744 328.3 577.318 326.006 575.958ZM330.349 577.742 332.723 578.956 332.42 579.549 330.046 578.335ZM334.504 579.866 335.652 580.453 335.631 580.443 336.898 580.983 336.637 581.596 335.359 581.052 334.201 580.46ZM338.738 581.766 341.192 582.81 340.931 583.423 338.477 582.379ZM343.058 583.431 345.601 584.233 345.401 584.869 342.857 584.067ZM347.509 584.834 350.052 585.636 349.851 586.272 347.308 585.47ZM351.959 586.237 354.163 586.932 354.135 586.925 354.483 587.003 354.337 587.653 353.976 587.572 351.759 586.873ZM356.435 587.441 359.037 588.024 358.891 588.675 356.289 588.091ZM360.971 588.448 363.603 588.879 363.495 589.537 360.863 589.106ZM365.576 589.202 367.679 589.546 367.658 589.543 368.192 589.596 368.126 590.26 367.582 590.206 365.469 589.86ZM370.182 589.793 372.835 590.056 372.77 590.72 370.116 590.457ZM374.806 590.238 377.471 590.332 377.447 590.998 374.782 590.904ZM379.469 590.403 380.977 590.456 380.954 591.122 379.446 591.069ZM373.314 585.561 381.627 590.813 372.963 595.464C372.801 595.551 372.599 595.49 372.512 595.328 372.425 595.165 372.486 594.963 372.648 594.876L380.808 590.496 380.787 591.071 372.958 586.124C372.802 586.026 372.755 585.82 372.854 585.664 372.952 585.509 373.158 585.462 373.314 585.561Z"/><g clip-path="url(#clip22)"><g clip-path="url(#clip23)"><g clip-path="url(#clip24)"><path d="M325.805 558.415 342.17 558.415 342.17 559.79 325.805 559.79Z" fill="#4472C4"/><path d="M324.394 563.85 340.759 563.85 340.759 565.225 324.394 565.225Z" fill="#4472C4"/><path d="M348.947 543.717 348.947 542.832 321.251 542.832 321.251 543.717C321.251 545.543 321.302 547.452 321.302 549.435 321.302 552.326 321.195 555.372 320.68 558.543 320.189 561.558 319.331 564.687 317.841 567.914L315.175 567.914C314.704 567.914 314.228 567.989 313.769 568.149 313.082 568.387 312.431 568.823 311.938 569.464 311.444 570.103 311.118 570.934 311.021 571.914 311.007 572.055 311 572.197 311 572.337 310.999 573.047 311.182 573.717 311.49 574.304 311.953 575.187 312.684 575.889 313.533 576.378 314.383 576.867 315.359 577.149 316.352 577.156L337.407 577.168C338.208 577.17 338.903 577.006 339.495 576.737 340.087 576.47 340.57 576.114 341.019 575.757 342.853 574.296 344.27 572.486 345.358 570.476 346.99 567.459 347.891 563.992 348.395 560.467 348.897 556.941 348.999 553.353 349 550.086 349 547.747 348.947 545.572 348.947 543.717ZM316.362 575.388 316.363 575.388C315.924 575.386 315.469 575.3 315.038 575.139 314.391 574.898 313.805 574.492 313.401 574.001 313.198 573.755 313.04 573.489 312.932 573.212 312.825 572.934 312.768 572.645 312.768 572.337 312.768 572.256 312.772 572.174 312.78 572.09 312.827 571.623 312.939 571.249 313.088 570.947 313.313 570.495 313.617 570.194 313.975 569.989 314.332 569.784 314.751 569.692 315.175 569.692L334.122 569.692C333.917 569.928 333.734 570.197 333.588 570.502 333.372 570.949 333.228 571.467 333.169 572.051 333.156 572.183 333.15 572.314 333.15 572.443 333.15 573.061 333.297 573.645 333.554 574.164 333.785 574.631 334.103 575.046 334.479 575.399L316.362 575.388ZM346.025 563.555C345.515 565.734 344.798 567.798 343.803 569.635 342.808 571.471 341.541 573.08 339.917 574.374 339.508 574.701 339.148 574.955 338.768 575.125 338.387 575.295 337.981 575.398 337.407 575.4L336.817 575.399C336.282 575.248 335.786 574.98 335.383 574.628 335.056 574.345 334.793 574.01 334.611 573.642 334.43 573.274 334.329 572.873 334.329 572.443 334.329 572.353 334.333 572.262 334.342 572.168 334.388 571.706 334.499 571.325 334.649 571.013 334.876 570.546 335.187 570.228 335.548 570.015 335.908 569.802 336.322 569.699 336.735 569.7 337.152 569.698 337.566 569.806 337.908 569.998 338.251 570.191 338.52 570.463 338.683 570.801 338.769 570.979 338.822 571.217 338.822 571.458 338.822 571.654 338.787 571.85 338.723 572.014 338.659 572.179 338.569 572.308 338.464 572.398 338.266 572.564 338.064 572.627 337.861 572.628 337.684 572.628 337.507 572.575 337.359 572.479 337.21 572.384 337.095 572.251 337.027 572.092L335.943 572.557C336.109 572.944 336.387 573.256 336.722 573.471 337.057 573.686 337.451 573.806 337.861 573.806 338.33 573.808 338.822 573.642 339.228 573.295 339.506 573.057 339.698 572.757 339.821 572.441 339.944 572.124 340 571.789 340 571.458 340 571.055 339.918 570.653 339.745 570.291 339.467 569.713 339.012 569.266 338.485 568.971 337.967 568.681 337.377 568.53 336.777 568.522L336.777 568.513 319.513 568.513C321.036 565.175 321.921 561.929 322.425 558.826 322.962 555.516 323.069 552.368 323.069 549.435 323.069 547.748 323.035 546.136 323.024 544.6L347.183 544.6C347.195 546.271 347.232 548.126 347.232 550.086 347.233 554.39 347.046 559.197 346.025 563.555Z" fill="#4472C4"/><path d="M335.579 554.978C335.786 552.668 335.796 550.456 335.775 548.365L326.619 548.365C326.64 550.456 326.629 552.668 326.422 554.978L335.579 554.978Z" fill="#4472C4"/></g></g></g><path d="M0.011792-0.333125 2.67679-0.238788 2.65321 0.427461-0.011792 0.333125ZM4.67554-0.168036 7.08485-0.0827508 7.36048-0.0554362 7.29474 0.607981 7.02963 0.581708 7.05071 0.583125 4.65195 0.498213ZM9.35073 0.141796 12.0044 0.404772 11.9387 1.06819 9.28499 0.805213ZM13.9947 0.602004 14.0434 0.606834 16.6476 1.03298 16.5399 1.69089 13.9462 1.26646 13.9671 1.26921 13.9289 1.26542ZM18.6213 1.35595 20.9384 1.73512 21.2685 1.80914 21.1226 2.45965 20.802 2.38775 20.8212 2.39146 18.5137 2.01387ZM23.22 2.24686 25.822 2.83049 25.6761 3.481 23.0741 2.89737ZM27.7989 3.28819 30.3386 4.10138 30.1353 4.73629 27.5956 3.92311ZM32.2433 4.71127 34.783 5.52446 34.5797 6.15938 32.04 5.34619ZM36.6877 6.13435 39.2273 6.94754 39.024 7.58246 36.4844 6.76927ZM41.1346 7.63115 43.5977 8.65307 43.3423 9.26884 40.8792 8.24692ZM45.445 9.41951 46.265 9.75969 47.8724 10.5817 47.5689 11.1753 45.9732 10.3593 45.9973 10.3704 45.1896 10.0353ZM49.6531 11.4923 51.786 12.5829 52.0371 12.7317 51.6972 13.3053 51.4551 13.1618 51.4732 13.1718 49.3496 12.0858ZM53.7577 13.7513 56.0518 15.1108 55.7119 15.6843 53.4178 14.3249ZM57.748 16.2177 59.9241 17.7591 59.5387 18.3031 57.3627 16.7617ZM61.5683 18.9502 63.5908 20.6883 63.1562 21.1939 61.1338 19.4559ZM65.1076 21.9918 65.4166 22.2573 67.007 23.9056 66.5272 24.3685 64.9476 22.7315 64.9702 22.7528 64.6731 22.4974ZM68.3957 25.3448 68.8796 25.8463 70.0825 27.4593 69.548 27.8578 68.3578 26.2618 68.3851 26.294 67.9159 25.8077ZM71.2781 29.0625 71.6573 29.5709 72.6374 31.4087 72.0492 31.7224 71.0809 29.9069 71.1078 29.9493 70.7437 29.4611ZM73.5786 33.1734 73.6827 33.3687 74.4626 35.7473 73.8291 35.955 73.0583 33.6039 73.0809 33.6569 72.9903 33.4871ZM75.0081 37.7343 75.3072 40.3841 74.6448 40.4589 74.3456 37.8091ZM75.5316 42.3715 75.8308 45.0213 75.1683 45.0961 74.8692 42.4463ZM76.4387 46.8555 77.0667 48.7711 77.0441 48.7181 77.3503 49.2923 76.7621 49.606 76.4423 49.0063 75.8052 47.0632ZM78.2915 51.057 79.0441 52.4681 79.0172 52.4257 79.6553 53.2813 79.1209 53.6799 78.4677 52.8041 77.7033 51.3707ZM80.851 54.8846 81.7672 56.1132 81.7378 56.0789 82.5324 56.888 82.0568 57.3551 81.2463 56.5299 80.3165 55.2831ZM83.9338 58.3149 85.1753 59.5789 85.1548 59.5597 85.8335 60.143 85.399 60.6486 84.7096 60.0561 83.4582 58.782ZM87.3503 61.4465 89.1548 62.9972 89.1302 62.978 89.3647 63.1441 88.9794 63.6882 88.7321 63.513 86.9158 61.9521ZM90.9968 64.3002 93.1729 65.8416 92.7875 66.3856 90.6115 64.8442ZM94.8459 66.8846 97.14 68.2441 96.8001 68.8176 94.506 67.4582ZM98.8491 69.2416 101.223 70.4557 100.92 71.0493 98.5455 69.8352ZM103.004 71.3663 104.152 71.9532 104.131 71.9433 105.398 72.4827 105.137 73.0961 103.859 72.5521 102.7 71.9599ZM107.238 73.2658 109.692 74.3099 109.431 74.9234 106.977 73.8792ZM111.558 74.9311 114.101 75.7329 113.901 76.3687 111.357 75.5669ZM116.009 76.3342 118.552 77.1361 118.351 77.7719 115.808 76.97ZM120.459 77.7374 122.663 78.4321 122.635 78.4248 122.983 78.5027 122.837 79.1532 122.476 79.0722 120.259 78.3732ZM124.935 78.9405 127.537 79.5241 127.391 80.1746 124.789 79.591ZM129.471 79.9484 132.103 80.379 131.995 81.0369 129.363 80.6063ZM134.076 80.702 136.179 81.046 136.158 81.0433 136.691 81.0962 136.626 81.7596 136.082 81.7057 133.969 81.3599ZM138.682 81.2934 141.335 81.5564 141.27 82.2198 138.616 81.9568ZM143.306 81.7376 145.971 81.8319 145.947 82.4981 143.282 82.4038ZM147.969 81.9026 149.477 81.956 149.454 82.6223 147.946 82.5689ZM141.814 77.0606 150.127 82.3126 141.463 86.9636C141.301 87.0507 141.099 86.9898 141.012 86.8276 140.925 86.6654 140.985 86.4633 141.148 86.3762L149.308 81.9955 149.287 82.571 141.457 77.6242C141.302 77.5259 141.255 77.32 141.354 77.1644 141.452 77.0087 141.658 76.9623 141.814 77.0606Z" transform="matrix(1 0 0 -1 231.5 673.757)"/><g clip-path="url(#clip25)"><g clip-path="url(#clip26)"><g clip-path="url(#clip27)"><path d="M296.805 630.415 313.17 630.415 313.17 631.79 296.805 631.79Z" fill="#70AD47"/><path d="M295.394 635.85 311.759 635.85 311.759 637.225 295.394 637.225Z" fill="#70AD47"/><path d="M319.947 615.717 319.947 614.832 292.251 614.832 292.251 615.717C292.251 617.543 292.302 619.452 292.302 621.435 292.302 624.326 292.195 627.372 291.68 630.543 291.189 633.558 290.331 636.687 288.841 639.914L286.175 639.914C285.704 639.914 285.228 639.989 284.769 640.149 284.082 640.387 283.431 640.823 282.938 641.464 282.444 642.103 282.118 642.934 282.021 643.914 282.007 644.055 282 644.197 282 644.337 281.999 645.047 282.182 645.717 282.49 646.304 282.953 647.187 283.684 647.889 284.533 648.378 285.383 648.867 286.359 649.149 287.352 649.156L308.407 649.168C309.208 649.17 309.903 649.006 310.495 648.737 311.087 648.47 311.57 648.114 312.019 647.757 313.853 646.296 315.27 644.486 316.358 642.476 317.99 639.459 318.891 635.992 319.395 632.467 319.897 628.941 319.999 625.353 320 622.086 320 619.747 319.947 617.572 319.947 615.717ZM287.362 647.388 287.363 647.388C286.924 647.386 286.469 647.3 286.038 647.139 285.391 646.898 284.805 646.492 284.401 646.001 284.198 645.755 284.04 645.489 283.932 645.212 283.825 644.934 283.768 644.645 283.768 644.337 283.768 644.256 283.772 644.174 283.78 644.09 283.827 643.623 283.939 643.249 284.088 642.947 284.313 642.495 284.617 642.194 284.975 641.989 285.332 641.784 285.751 641.692 286.175 641.692L305.122 641.692C304.917 641.928 304.734 642.197 304.588 642.502 304.372 642.949 304.228 643.467 304.169 644.051 304.156 644.183 304.15 644.314 304.15 644.443 304.15 645.061 304.297 645.645 304.554 646.164 304.785 646.631 305.103 647.046 305.479 647.399L287.362 647.388ZM317.025 635.555C316.515 637.734 315.798 639.798 314.803 641.635 313.808 643.471 312.541 645.08 310.917 646.374 310.508 646.701 310.148 646.955 309.768 647.125 309.387 647.295 308.981 647.398 308.407 647.4L307.817 647.399C307.282 647.248 306.786 646.98 306.383 646.628 306.056 646.345 305.793 646.01 305.611 645.642 305.43 645.274 305.329 644.873 305.329 644.443 305.329 644.353 305.333 644.262 305.342 644.168 305.388 643.706 305.499 643.325 305.649 643.013 305.876 642.546 306.187 642.228 306.548 642.015 306.908 641.802 307.322 641.699 307.735 641.7 308.152 641.698 308.566 641.806 308.908 641.998 309.251 642.191 309.52 642.463 309.683 642.801 309.769 642.979 309.822 643.217 309.822 643.458 309.822 643.654 309.787 643.85 309.723 644.014 309.659 644.179 309.569 644.308 309.464 644.398 309.266 644.564 309.064 644.627 308.861 644.628 308.684 644.628 308.507 644.575 308.359 644.479 308.21 644.384 308.095 644.251 308.027 644.092L306.943 644.557C307.109 644.944 307.387 645.256 307.722 645.471 308.057 645.686 308.451 645.806 308.861 645.806 309.33 645.808 309.822 645.642 310.228 645.295 310.506 645.057 310.698 644.757 310.821 644.441 310.944 644.124 311 643.789 311 643.458 311 643.055 310.918 642.653 310.745 642.291 310.467 641.713 310.012 641.266 309.485 640.971 308.967 640.681 308.377 640.53 307.777 640.522L307.777 640.513 290.513 640.513C292.036 637.175 292.921 633.929 293.425 630.826 293.962 627.516 294.069 624.368 294.069 621.435 294.069 619.748 294.035 618.136 294.024 616.6L318.183 616.6C318.195 618.271 318.232 620.126 318.232 622.086 318.233 626.39 318.046 631.197 317.025 635.555Z" fill="#70AD47"/><path d="M306.579 626.978C306.786 624.668 306.796 622.456 306.775 620.365L297.619 620.365C297.64 622.456 297.629 624.668 297.422 626.978L306.579 626.978Z" fill="#70AD47"/></g></g></g><text font-family="Calibri,Calibri_MSFontService,sans-serif" font-weight="400" font-size="11" transform="translate(305.222 501)">12<tspan font-size="11" x="32.3076" y="54">2</tspan><tspan font-size="11" x="4.95294" y="123">1</tspan></text></g></svg>