<svg width="608" height="643" xmlns="http://www.w3.org/2000/svg" xmlns:xlink="http://www.w3.org/1999/xlink" overflow="hidden"><defs><clipPath id="clip0"><rect x="56" y="81" width="608" height="643"/></clipPath></defs><g clip-path="url(#clip0)" transform="translate(-56 -81)"><rect x="58.5001" y="82.5001" width="604" height="641" stroke="#D9D9D9" stroke-width="1.33333" stroke-miterlimit="8" fill="none"/><text font-family="Calibri,Calibri_MSFontService,sans-serif" font-weight="400" font-size="16" transform="translate(220.923 102)">Context<tspan font-family="Yu Gothic,Yu Gothic_MSFontService,sans-serif" font-size="16" x="54.1534" y="0">を使ったアプリスレッドの識別</tspan></text><rect x="85" y="147" width="210" height="543" fill="#F2F2F2"/><text font-family="Yu Gothic,Yu Gothic_MSFontService,sans-serif" font-weight="400" font-size="13" transform="translate(110.051 163)">フレームワークライブラリ</text><rect x="335" y="211" width="144" height="309" fill="#F2F2F2"/><text font-family="Yu Gothic,Yu Gothic_MSFontService,sans-serif" font-weight="400" font-size="13" transform="translate(353.065 228)">アプリ<tspan font-size="13" x="43" y="0">スレッド</tspan><tspan font-family="Calibri,Calibri_MSFontService,sans-serif" font-size="13" x="99.3333" y="0">A</tspan></text><rect x="491" y="291" width="144" height="309" fill="#F2F2F2"/><text font-family="Yu Gothic,Yu Gothic_MSFontService,sans-serif" font-weight="400" font-size="13" transform="translate(509.282 308)">アプリ<tspan font-size="13" x="43" y="0">スレッド</tspan><tspan font-family="Calibri,Calibri_MSFontService,sans-serif" font-size="13" x="99.3333" y="0">B</tspan></text><rect x="121.5" y="245.5" width="15" height="283" stroke="#2F528F" stroke-width="1.33333" stroke-miterlimit="8" fill="#FFFFFF"/><rect x="392.5" y="263.5" width="15" height="229" stroke="#2F528F" stroke-width="1.33333" stroke-miterlimit="8" fill="#FFFFFF"/><rect x="175.5" y="322.5" width="14" height="283" stroke="#507E32" stroke-width="1.33333" stroke-miterlimit="8" fill="#FFFFFF"/><rect x="555.5" y="333.5" width="15" height="246" stroke="#507E32" stroke-width="1.33333" stroke-miterlimit="8" fill="#FFFFFF"/><rect x="219.5" y="359.5" width="14" height="99" stroke="#2F528F" stroke-width="1.33333" stroke-miterlimit="8" stroke-opacity="0.501961" fill="#4472C4" fill-opacity="0.501961"/><rect x="250.5" y="427.5" width="15" height="100" stroke="#70AD47" stroke-width="1.33333" stroke-miterlimit="8" stroke-opacity="0.501961" fill="#70AD47" fill-opacity="0.501961"/><rect x="399.5" y="359.5" width="15" height="99" stroke="#2F528F" stroke-width="1.33333" stroke-miterlimit="8" fill="#4472C4"/><path d="M136.5 263.167 392.912 263.167 392.912 263.833 136.5 263.833ZM391.579 259.5 399.579 263.5 391.579 267.5Z" fill="#4472C4"/><path d="M1.87863e-07-0.333333 365.898-0.333127 365.898 0.33354-1.87863e-07 0.333333ZM364.565-3.99979 372.565 0.000209974 364.565 4.00021Z" fill="#70AD47" transform="matrix(1 0 0 -1 190.5 333.5)"/><rect x="563.5" y="427.5" width="14" height="100" stroke="#507E32" stroke-width="1.33333" stroke-miterlimit="8" fill="#70AD47"/><path d="M3.83638e-05-0.333333 173.95-0.313313 173.95 0.353353-3.83638e-05 0.333333ZM172.617-3.98013 180.616 0.0207874 172.616 4.01987Z" fill="#4472C4" transform="matrix(-1 0 0 1 407.117 359.5)"/><path d="M5.60252e-07-0.333333 305.654-0.33282 305.654 0.333847-5.60252e-07 0.333333ZM304.321-3.99949 312.321 0.000524934 304.321 4.00051Z" fill="#70AD47" transform="matrix(-1 0 0 1 570.821 427.5)"/><path d="M3.87513e-07-0.333333 2.66667-0.33333 2.66667 0.333336-3.87513e-07 0.333333ZM4.66667-0.333328 7.33333-0.333325 7.33333 0.333342 4.66667 0.333339ZM9.33333-0.333322 12-0.333319 12 0.333347 9.33333 0.333344ZM14-0.333317 16.6667-0.333314 16.6667 0.333353 14 0.33335ZM18.6667-0.333312 21.3333-0.333309 21.3333 0.333358 18.6667 0.333355ZM23.3333-0.333306 26-0.333303 26 0.333364 23.3333 0.33336ZM28-0.333301 30.6667-0.333298 30.6667 0.333369 28 0.333366ZM32.6667-0.333295 35.3333-0.333292 35.3333 0.333374 32.6667 0.333371ZM37.3333-0.33329 40-0.333287 40 0.33338 37.3333 0.333377ZM42-0.333284 44.6667-0.333281 44.6667 0.333385 42 0.333382ZM46.6667-0.333279 49.3333-0.333276 49.3333 0.333391 46.6667 0.333388ZM51.3333-0.333274 54-0.333271 54 0.333396 51.3333 0.333393ZM56-0.333268 58.6667-0.333265 58.6667 0.333402 56 0.333398ZM60.6667-0.333263 63.3333-0.33326 63.3333 0.333407 60.6667 0.333404ZM65.3333-0.333257 68-0.333254 68 0.333412 65.3333 0.333409ZM70-0.333252 72.6667-0.333249 72.6667 0.333418 70 0.333415ZM74.6667-0.333246 77.3333-0.333243 77.3333 0.333423 74.6667 0.33342ZM79.3333-0.333241 82-0.333238 82 0.333429 79.3333 0.333426ZM84-0.333236 86.6667-0.333233 86.6667 0.333434 84 0.333431ZM88.6667-0.33323 91.3333-0.333227 91.3333 0.333439 88.6667 0.333436ZM93.3333-0.333225 96-0.333222 96 0.333445 93.3333 0.333442ZM98-0.333219 100.667-0.333216 100.667 0.33345 98 0.333447ZM102.667-0.333214 105.333-0.333211 105.333 0.333456 102.667 0.333453ZM107.333-0.333209 110-0.333205 110 0.333461 107.333 0.333458ZM112-0.333203 114.667-0.3332 114.667 0.333467 112 0.333464ZM116.667-0.333198 119.333-0.333195 119.333 0.333472 116.667 0.333469ZM121.333-0.333192 124-0.333189 124 0.333477 121.333 0.333474ZM126-0.333187 128.667-0.333184 128.667 0.333483 126 0.33348ZM130.667-0.333181 133.333-0.333178 133.333 0.333488 130.667 0.333485ZM135.333-0.333176 138-0.333173 138 0.333494 135.333 0.333491ZM140-0.333171 142.667-0.333167 142.667 0.333499 140 0.333496ZM144.667-0.333165 147.333-0.333162 147.333 0.333505 144.667 0.333501ZM149.333-0.33316 152-0.333157 152 0.33351 149.333 0.333507ZM154-0.333154 156.667-0.333151 156.667 0.333515 154 0.333512ZM158.667-0.333149 161.333-0.333146 161.333 0.333521 158.667 0.333518ZM163.333-0.333143 166-0.33314 166 0.333526 163.333 0.333523ZM168-0.333138 170.667-0.333135 170.667 0.333532 168 0.333529ZM172.667-0.333133 173.95-0.333131 173.95 0.333536 172.667 0.333534ZM172.616-3.9998 180.616 0.000209974 172.616 4.0002Z" fill="#4472C4" transform="matrix(1 0 0 -1 226.5 458.5)"/><path d="M258.5 527.167 261.167 527.167 261.167 527.834 258.5 527.833ZM263.167 527.167 265.833 527.167 265.833 527.834 263.167 527.834ZM267.833 527.167 270.5 527.167 270.5 527.834 267.833 527.834ZM272.5 527.168 275.167 527.168 275.167 527.834 272.5 527.834ZM277.167 527.168 279.833 527.168 279.833 527.835 277.167 527.835ZM281.833 527.168 284.5 527.168 284.5 527.835 281.833 527.835ZM286.5 527.169 289.167 527.169 289.167 527.835 286.5 527.835ZM291.167 527.169 293.833 527.169 293.833 527.836 291.167 527.836ZM295.833 527.169 298.5 527.169 298.5 527.836 295.833 527.836ZM300.5 527.169 303.167 527.17 303.167 527.836 300.5 527.836ZM305.167 527.17 307.833 527.17 307.833 527.837 305.167 527.836ZM309.833 527.17 312.5 527.17 312.5 527.837 309.833 527.837ZM314.5 527.17 317.167 527.171 317.167 527.837 314.5 527.837ZM319.167 527.171 321.833 527.171 321.833 527.838 319.167 527.837ZM323.833 527.171 326.5 527.171 326.5 527.838 323.833 527.838ZM328.5 527.171 331.167 527.171 331.167 527.838 328.5 527.838ZM333.167 527.172 335.833 527.172 335.833 527.838 333.167 527.838ZM337.833 527.172 340.5 527.172 340.5 527.839 337.833 527.839ZM342.5 527.172 345.167 527.172 345.167 527.839 342.5 527.839ZM347.167 527.172 349.833 527.173 349.833 527.839 347.167 527.839ZM351.833 527.173 354.5 527.173 354.5 527.84 351.833 527.839ZM356.5 527.173 359.167 527.173 359.167 527.84 356.5 527.84ZM361.167 527.173 363.833 527.174 363.833 527.84 361.167 527.84ZM365.833 527.174 368.5 527.174 368.5 527.841 365.833 527.84ZM370.5 527.174 373.167 527.174 373.167 527.841 370.5 527.841ZM375.167 527.174 377.833 527.174 377.833 527.841 375.167 527.841ZM379.833 527.175 382.5 527.175 382.5 527.841 379.833 527.841ZM384.5 527.175 387.167 527.175 387.167 527.842 384.5 527.842ZM389.167 527.175 391.833 527.175 391.833 527.842 389.167 527.842ZM393.833 527.176 396.5 527.176 396.5 527.842 393.833 527.842ZM398.5 527.176 401.167 527.176 401.167 527.843 398.5 527.842ZM403.167 527.176 405.833 527.176 405.833 527.843 403.167 527.843ZM407.833 527.176 410.5 527.177 410.5 527.843 407.833 527.843ZM412.5 527.177 415.167 527.177 415.167 527.844 412.5 527.843ZM417.167 527.177 419.833 527.177 419.833 527.844 417.167 527.844ZM421.833 527.177 424.5 527.177 424.5 527.844 421.833 527.844ZM426.5 527.178 429.167 527.178 429.167 527.844 426.5 527.844ZM431.167 527.178 433.833 527.178 433.833 527.845 431.167 527.845ZM435.833 527.178 438.5 527.178 438.5 527.845 435.833 527.845ZM440.5 527.179 443.167 527.179 443.167 527.845 440.5 527.845ZM445.167 527.179 447.833 527.179 447.833 527.846 445.167 527.846ZM449.833 527.179 452.5 527.179 452.5 527.846 449.833 527.846ZM454.5 527.179 457.167 527.18 457.167 527.846 454.5 527.846ZM459.167 527.18 461.833 527.18 461.833 527.847 459.167 527.846ZM463.833 527.18 466.5 527.18 466.5 527.847 463.833 527.847ZM468.5 527.18 471.167 527.181 471.167 527.847 468.5 527.847ZM473.167 527.181 475.833 527.181 475.833 527.847 473.167 527.847ZM477.833 527.181 480.5 527.181 480.5 527.848 477.833 527.848ZM482.5 527.181 485.167 527.181 485.167 527.848 482.5 527.848ZM487.167 527.182 489.833 527.182 489.833 527.848 487.167 527.848ZM491.833 527.182 494.5 527.182 494.5 527.849 491.833 527.849ZM496.5 527.182 499.167 527.182 499.167 527.849 496.5 527.849ZM501.167 527.182 503.833 527.183 503.833 527.849 501.167 527.849ZM505.833 527.183 508.5 527.183 508.5 527.85 505.833 527.849ZM510.5 527.183 513.167 527.183 513.167 527.85 510.5 527.85ZM515.167 527.183 517.833 527.184 517.833 527.85 515.167 527.85ZM519.833 527.184 522.5 527.184 522.5 527.851 519.833 527.85ZM524.5 527.184 527.167 527.184 527.167 527.851 524.5 527.851ZM529.167 527.184 531.833 527.184 531.833 527.851 529.167 527.851ZM533.833 527.185 536.5 527.185 536.5 527.851 533.833 527.851ZM538.5 527.185 541.167 527.185 541.167 527.852 538.5 527.852ZM543.167 527.185 545.833 527.185 545.833 527.852 543.167 527.852ZM547.833 527.185 550.5 527.186 550.5 527.852 547.833 527.852ZM552.5 527.186 555.167 527.186 555.167 527.853 552.5 527.852ZM557.167 527.186 559.833 527.186 559.833 527.853 557.167 527.853ZM561.833 527.186 564.154 527.187 564.154 527.853 561.833 527.853ZM562.821 523.52 570.821 527.52 562.82 531.52Z" fill="#70AD47"/><path d="M153.5 213.5 220.5 213.5 220.5 246 214 252.5 153.5 252.5Z" fill="#FFFFFF" fill-rule="evenodd"/><path d="M214 252.5 215.3 247.3 220.5 246Z" fill="#CDCDCD" fill-rule="evenodd"/><path d="M214 252.5 215.3 247.3 220.5 246 214 252.5 153.5 252.5 153.5 213.5 220.5 213.5 220.5 246" stroke="#4472C4" stroke-width="1.33333" stroke-miterlimit="8" fill="none" fill-rule="evenodd"/><text font-family="Calibri,Calibri_MSFontService,sans-serif" font-weight="400" font-size="11" transform="translate(165.785 233)">a:Context</text><path d="M166.038 234.123 176.538 234.123 187.038 234.123 197.538 234.123 208.038 234.123 208.038 235.123 197.538 235.123 187.038 235.123 176.538 235.123 166.038 235.123Z" fill-rule="evenodd"/><path d="M198.5 284.5 265.5 284.5 265.5 317 259 323.5 198.5 323.5Z" fill="#FFFFFF" fill-rule="evenodd"/><path d="M259 323.5 260.3 318.3 265.5 317Z" fill="#CDCDCD" fill-rule="evenodd"/><path d="M259 323.5 260.3 318.3 265.5 317 259 323.5 198.5 323.5 198.5 284.5 265.5 284.5 265.5 317" stroke="#4472C4" stroke-width="1.33333" stroke-miterlimit="8" fill="none" fill-rule="evenodd"/><text font-family="Calibri,Calibri_MSFontService,sans-serif" font-weight="400" font-size="11" transform="translate(210.128 304)">b:Context</text><path d="M210.628 305.043 221.128 305.043 231.628 305.043 242.128 305.043 252.628 305.043 252.628 306.043 242.128 306.043 231.628 306.043 221.128 306.043 210.628 306.043Z" fill-rule="evenodd"/><text font-family="Calibri,Calibri_MSFontService,sans-serif" font-weight="400" font-size="13" transform="translate(275.642 352)">Foo(<tspan font-size="13" x="24.1667" y="0">a:Context</tspan>)</text><path d="M299.642 352.939 317.309 352.939 334.975 352.939 352.642 352.939 352.642 353.939 334.975 353.939 317.309 353.939 299.642 353.939Z" fill-rule="evenodd"/><text font-family="Calibri,Calibri_MSFontService,sans-serif" font-weight="400" font-size="13" transform="translate(445.078 421)">Foo(<tspan font-size="13" x="24.1667" y="0">b</tspan>:Context<tspan font-size="13" x="77.3333" y="0">)</tspan></text><path d="M469.078 422.404 486.744 422.404 504.411 422.404 522.078 422.404 522.078 423.404 504.411 423.404 486.744 423.404 469.078 423.404Z" fill-rule="evenodd"/><path d="M0.314635-0.110074 4.11306 10.7474 3.48379 10.9675-0.314635 0.110074ZM7.57404 9.53654C8.30354 11.6218 7.20452 13.9035 5.11931 14.633 3.03409 15.3625 0.752314 14.2635 0.02281 12.1783-0.706694 10.0931 0.392327 7.81132 2.47754 7.08181 4.56276 6.35231 6.84454 7.45133 7.57404 9.53654Z" fill="#4472C4" transform="matrix(-1 0 0 1 187.298 252.5)"/><path d="M0.277516-0.184651 7.88455 11.2481 7.32952 11.6174-0.277516 0.184651ZM10.9372 9.21694C12.161 11.0562 11.6621 13.5392 9.82285 14.7629 7.98363 15.9867 5.5006 15.4878 4.27684 13.6486 3.05308 11.8094 3.55201 9.32633 5.39122 8.10257 7.23043 6.87881 9.71346 7.37773 10.9372 9.21694Z" fill="#70AD47" transform="matrix(-1 0 0 1 232.107 323.5)"/><path d="M0.0389471 0.33105-2.60945 0.642627-2.68735-0.0194735-0.0389471-0.33105ZM-4.51403 0.937541-7.04761 1.76946-7.25559 1.13607-4.72201 0.304146ZM-8.84413 2.47815-11.1823 3.76038-11.5028 3.17583-9.16468 1.89361ZM-12.7932 4.82398-14.8571 6.51261-15.2792 5.99664-13.2153 4.308ZM-16.253 7.86618-18.0412 9.84451-18.5357 9.39748-16.7476 7.41915ZM-19.1347 11.4354-20.5237 13.7118-21.0928 13.3645-19.7038 11.0881ZM-21.2496 15.5057-22.126 17.8062-22.1067 17.7282-22.1317 17.9316-22.7934 17.8502-22.7634 17.6066-21.8726 15.2684ZM-22.376 19.9166-22.6067 21.7907-22.6066 21.7099-22.5129 22.4827-23.1747 22.5629-23.2733 21.7497-23.0377 19.8352ZM-22.1293 24.3517-21.6254 25.6955-21.6509 25.6423-21.0221 26.7012-21.5954 27.0416-22.2392 25.9572-22.7535 24.5858ZM-19.9127 28.2921-18.8696 29.5358-18.897 29.5068-18.1358 30.2205-18.5917 30.7068-19.3676 29.9795-20.4235 28.7205ZM-16.6817 31.5489-14.6069 33.1751-14.6471 33.1481-14.6206 33.1632-14.9514 33.742-14.999 33.7148-17.0929 32.0737ZM-12.8841 34.1555-10.5688 35.4785-10.8996 36.0574-13.2149 34.7343ZM-8.85981 36.438-6.40518 37.48-6.66569 38.0937-9.12033 37.0516ZM-4.56421 38.2616-2.36974 39.1932-2.40913 39.1793-2.13719 39.2563-2.31893 39.8978-2.611 39.815-4.82472 38.8752ZM-0.21294 39.8015 2.35273 40.5285 2.171 41.1699-0.394675 40.443ZM4.27698 41.0737 5.09087 41.3043 5.0569 41.2966 6.85092 41.6073 6.73713 42.2642 4.92592 41.9505 4.09525 41.7151ZM8.82157 41.9487 11.4491 42.4039 11.3353 43.0608 8.70778 42.6056ZM13.3886 42.6934 16.0504 42.8547 16.01 43.5202 13.3482 43.3588ZM18.0467 42.9757 20.7085 43.137 20.6681 43.8025 18.0064 43.6411ZM22.7114 43.3038 25.3719 43.5457 25.4239 43.5599 25.2485 44.203 25.2248 44.1966 25.2823 44.207 22.6511 43.9678ZM27.3534 44.0861 29.5487 44.6848 29.9518 44.8612 29.6846 45.472 29.3039 45.3054 29.3498 45.3216 27.178 44.7293ZM31.7841 45.6628 33.5928 46.4541 34.2219 46.8435 33.871 47.4104 33.262 47.0334 33.3039 47.0554 31.5169 46.2736ZM35.9224 47.8962 37.5664 48.9139 38.172 49.3905 37.7598 49.9144 37.1689 49.4495 37.1995 49.4709 35.5715 48.4631ZM39.7438 50.6273 41.4058 51.9351 41.8284 52.3363 41.3695 52.8198 40.958 52.4293 40.9814 52.4495 39.3315 51.1512ZM43.279 53.7131 45.1168 55.4574 45.2255 55.5839 44.7199 56.0184 44.6222 55.9048 44.6455 55.9293 42.8201 54.1967ZM46.529 57.1008 48.2671 59.1232 47.7615 59.5577 46.0234 57.5353ZM49.4761 60.7535 51.0174 62.9296 50.4734 63.3149 48.932 61.1388ZM52.1503 64.6006 53.561 66.8636 52.9952 67.2162 51.5846 64.9533ZM54.619 68.5608 54.7899 68.8349 55.8802 70.9394 55.2882 71.2461 54.204 69.1533 54.2171 69.1763 54.0533 68.9135ZM56.8002 72.7152 57.4893 74.0454 57.9565 75.1441 57.343 75.405 56.8808 74.3179 56.8915 74.3408 56.2082 73.0219ZM58.7393 76.9845 59.7829 79.4385 59.1694 79.6994 58.1258 77.2454ZM60.4519 81.347 61.3279 83.8656 60.6983 84.0846 59.8222 81.566ZM61.9593 85.7853 62.6702 88.3554 62.0277 88.5331 61.3168 85.963ZM63.2034 90.283 63.4497 91.1734 63.7896 92.9088 63.1353 93.0369 62.7979 91.3141 62.8037 91.3389 62.5608 90.4608ZM64.174 94.8715 64.6419 97.2601 64.6731 97.5147 64.0114 97.5958 63.9816 97.353 63.9854 97.3766 63.5198 94.9996ZM64.9162 99.4999 65.2403 102.147 64.5786 102.228 64.2544 99.5809ZM65.4255 104.164 65.5331 106.828 64.867 106.855 64.7593 104.191ZM65.6139 108.827 65.6462 109.628 65.5314 111.523 64.866 111.483 64.9798 109.605 64.9794 109.638 64.9477 108.854ZM65.4104 113.519 65.2691 115.851 65.2063 116.213 64.5494 116.099 64.6091 115.756 64.6048 115.792 64.745 113.479ZM64.8644 118.184 64.4086 120.811 63.7518 120.697 64.2076 118.07ZM63.9818 122.797 63.2667 125.366 62.6245 125.187 63.3395 122.618ZM62.7304 127.293 62.5036 128.107 61.8071 129.83 61.189 129.581 61.8785 127.875 61.8664 127.911 62.0881 127.114ZM61.0575 131.685 60.1163 134.013 60.0336 134.177 59.4386 133.876 59.515 133.725 59.5035 133.75 60.4394 131.435ZM59.1313 135.961 57.9283 138.341 57.3333 138.041 58.5363 135.661ZM56.9764 140.132 55.5701 142.398 55.0037 142.046 56.41 139.78ZM54.5154 144.097 53.8381 145.188 52.9936 146.319 52.4595 145.92 53.2954 144.801 53.2793 144.824 53.949 143.745ZM51.7967 147.921 50.2009 150.057 49.6667 149.658 51.2626 147.522ZM48.8757 151.593 47.0961 153.579 46.5996 153.134 48.3792 151.148ZM45.7613 155.068 45.6156 155.231 43.8445 156.954 43.3796 156.476 45.1425 154.761 45.1268 154.778 45.2649 154.623ZM42.411 158.349 40.9709 159.75 40.4324 160.181 40.0159 159.66 40.5418 159.24 40.5175 159.261 41.9461 157.871ZM38.8706 161.43 36.7883 163.096 36.3718 162.576 38.4542 160.91ZM35.1553 164.297 32.9365 165.776 32.5667 165.222 34.7855 163.742ZM31.2724 166.886 30.6726 167.286 28.9384 168.231 28.6192 167.646 30.3404 166.707 30.3151 166.723 30.9026 166.331ZM27.1826 169.189 25.1458 170.3 24.7983 170.449 24.5357 169.836 24.8687 169.694 24.8404 169.707 26.8634 168.604ZM22.96 171.237 20.509 172.287 20.2463 171.675 22.6974 170.624ZM18.6032 172.999 16.0497 173.768 15.8575 173.13 18.411 172.361ZM14.1346 174.345 13.5793 174.512 11.4946 174.907 11.3705 174.252 13.4379 173.86 13.4039 173.868 13.9424 173.706ZM9.52955 175.279 7.60419 175.644 6.85718 175.691 6.81515 175.026 7.54149 174.98 7.50045 174.985 9.40544 174.624ZM4.86115 175.817 2.19979 175.985 2.15777 175.32 4.81913 175.152ZM-0.467365-3.9726C1.72664-4.23072 3.71448-2.66137 3.9726-0.467365 4.23072 1.72664 2.66137 3.71448 0.467365 3.9726-1.72664 4.23072-3.71448 2.66137-3.9726 0.467365-4.23072-1.72664-2.66137-3.71448-0.467365-3.9726Z" fill="#4472C4" transform="matrix(-1 0 0 1 221.112 233.5)"/><path d="M0.089533 0.321084-2.47914 1.03735-2.65821 0.39518-0.089533-0.321084ZM-4.40564 1.57455-6.41047 2.13358-6.30733 2.08451-6.78499 2.42286-7.17034 1.87884-6.64537 1.50699-4.58471 0.932379ZM-8.41704 3.57889-9.30733 4.20951-9.26154 4.17041-10.3625 5.29761-10.8394 4.83178-9.71734 3.68296-8.80239 3.03487ZM-11.76 6.72836-11.8865 6.85791-11.8552 6.82074-13.3148 8.83261-13.8544 8.44113-12.3805 6.40953-12.2369 6.26253ZM-14.3754 10.4505-15.5347 12.852-16.1351 12.5622-14.9757 10.1607ZM-16.2043 14.6722-16.959 17.2298-17.5984 17.0411-16.8437 14.4835ZM-17.159 19.1537-17.3557 21.2191-17.3567 21.1462-17.2833 21.7335-17.9448 21.8162-18.0228 21.1924-17.8226 19.0905ZM-16.9306 23.6192-16.4359 25.0135-16.4658 24.9508-15.8454 25.963-16.4138 26.3114-17.0525 25.2694-17.5589 23.8421ZM-14.7208 27.5518-13.7439 28.7241-13.784 28.6836-12.9152 29.4227-13.3472 29.9305-14.2378 29.1729-15.233 27.9786ZM-11.3919 30.7187-9.59651 32.2461-9.64393 32.2124-9.37695 32.3689-9.71409 32.9441-10.0063 32.7728-11.8239 31.2265ZM-7.65155 33.3804-5.35102 34.729-5.68817 35.3041-7.9887 33.9555ZM-3.62509 35.6428-1.16918 36.6819-1.42894 37.2958-3.88485 36.2568ZM0.672756 37.4612 2.25488 38.1305 2.21694 38.1171 3.12891 38.3788 2.94503 39.0196 2.01368 38.7523 0.412996 38.0751ZM5.05132 38.9304 7.61455 39.666 7.43066 40.3068 4.86744 39.5712ZM9.5045 40.1946 12.1331 40.6434 12.0209 41.3006 9.3923 40.8518ZM14.1046 40.98 16.7332 41.4288 16.621 42.086 13.9924 41.6372ZM18.69 41.5841 21.3515 41.7505 21.3099 42.4158 18.6484 42.2495ZM23.3476 41.8752 25.026 41.9801 26.017 42.073 25.9548 42.7368 24.9689 42.6444 24.9792 42.6452 23.306 42.5406ZM28.0082 42.2597 29.0612 42.3584 30.6683 42.8105 30.4878 43.4522 28.9097 43.0084 28.9689 43.0194 27.946 42.9235ZM32.5936 43.3519 33.1144 43.4984 35.0974 44.3939 34.823 45.0015 32.8628 44.1163 32.9097 44.1334 32.4131 43.9937ZM36.9201 45.2171 37.0324 45.2678 39.2289 46.6361 38.8764 47.202 36.6987 45.8454 36.7378 45.8663 36.6457 45.8247ZM40.9552 47.7255 43.0237 49.4084 42.603 49.9256 40.5344 48.2427ZM44.5752 50.6706 44.5975 50.6888 46.5014 52.5594 46.0342 53.0349 44.1414 51.1753 44.1646 51.1961 44.1544 51.1878ZM47.9281 53.961 48.1824 54.2108 49.69 56.0029 49.1798 56.432 47.6824 54.6521 47.7039 54.6753 47.4609 54.4366ZM50.9775 57.5333 51.5143 58.1714 52.5861 59.6933 52.041 60.0772 50.9775 58.5669 50.9949 58.5896 50.4674 57.9625ZM53.7376 61.3285 54.6547 62.6308 55.2183 63.5742 54.646 63.9161 54.0888 62.9834 54.1025 63.0044 53.1926 61.7124ZM56.244 65.2911 57.5417 67.4634 57.6138 67.604 57.0204 67.908 56.9533 67.777 56.9638 67.796 55.6717 65.633ZM58.5255 69.3841 59.7412 71.7576 59.1478 72.0615 57.9322 69.688ZM60.5867 73.598 61.6063 76.0621 60.9903 76.317 59.9706 73.853ZM62.371 77.9101 62.4369 78.0694 63.2558 80.4468 62.6254 80.6639 61.8098 78.2961 61.817 78.3149 61.755 78.165ZM63.9071 82.3378 64.3816 83.7153 64.6986 84.9075 64.0544 85.0789 63.7404 83.8982 63.7473 83.9211 63.2768 82.5549ZM65.2127 86.8403 65.8981 89.4174 65.2538 89.5888 64.5684 87.0117ZM66.3067 91.3962 66.8296 94.0111 66.1759 94.1418 65.653 91.5269ZM67.1907 96.006 67.4881 98.656 66.8256 98.7303 66.5282 96.0803ZM67.7112 100.644 67.8326 101.725 67.8979 103.326 67.2318 103.353 67.1669 101.764 67.1687 101.787 67.0487 100.718ZM67.9795 105.324 68.0837 107.877 68.0764 108.019 67.4106 107.985 67.4171 107.858 67.4169 107.889 67.3134 105.351ZM67.9745 110.016 67.8386 112.68 67.1728 112.646 67.3087 109.982ZM67.674 114.701 67.2969 117.341 66.6369 117.247 67.0141 114.607ZM67.014 119.321 66.8902 120.188 66.4613 121.96 65.8133 121.803 66.2385 120.047 66.2325 120.078 66.3541 119.227ZM65.9906 123.904 65.4458 126.154 65.3273 126.513 64.6942 126.304 64.8084 125.958 64.801 125.984 65.3427 123.747ZM64.701 128.413 63.8658 130.945 63.2326 130.736 64.0678 128.204ZM63.1573 132.845 62.097 135.292 61.4853 135.027 62.5456 132.58ZM61.3018 137.127 61.0513 137.705 60.1052 139.535 59.513 139.228 60.4539 137.409 60.4441 137.43 60.6901 136.862ZM59.1863 141.311 58.2268 143.166 57.9015 143.679 57.3385 143.322 57.656 142.821 57.6414 142.847 58.5942 141.005ZM56.8304 145.368 55.4023 147.62 54.8393 147.263 56.2674 145.011ZM54.2468 149.281 52.6602 151.424 52.1244 151.027 53.711 148.884ZM51.4703 153.031 51.3841 153.148 49.6907 155.056 49.1921 154.614 50.8757 152.716 50.8571 152.739 50.9344 152.635ZM48.3633 156.552 47.4277 157.607 46.4984 158.494 46.0381 158.011 46.9573 157.134 46.9382 157.154 47.8646 156.11ZM45.0517 159.874 43.2813 161.564 43.0845 161.72 42.6717 161.196 42.8561 161.051 42.8323 161.071 44.5914 159.392ZM41.5142 162.958 39.4204 164.61 39.0076 164.086 41.1014 162.435ZM37.7638 165.778 35.5357 167.243 35.1694 166.686 37.3976 165.221ZM33.8037 168.315 31.4185 169.507 31.1204 168.911 33.5055 167.718ZM29.6297 170.402 29.4438 170.495 27.0922 171.339 26.8669 170.711 29.1999 169.874 29.1634 169.889 29.3315 169.805ZM25.2098 172.014 24.5312 172.258 22.5949 172.699 22.4468 172.049 24.3634 171.612 24.3249 171.624 24.9845 171.387ZM20.6448 173.144 19.5498 173.393 17.9609 173.512 17.911 172.847 19.4751 172.73 19.4259 172.737 20.4967 172.494ZM15.9665 173.662 14.5249 173.77 14.4751 173.105 15.9166 172.997ZM-0.753594-3.92837C1.41599-4.34457 3.51217-2.92317 3.92837-0.753594 4.34457 1.41599 2.92317 3.51217 0.753594 3.92837-1.41599 4.34457-3.51217 2.92317-3.92837 0.753594-4.34457-1.41599-2.92317-3.51217-0.753594-3.92837Z" fill="#4472C4" transform="matrix(-1 0 0 1 264.974 304.5)"/><text font-family="Yu Gothic,Yu Gothic_MSFontService,sans-serif" font-weight="400" font-size="13" transform="translate(108.255 634)">アプリスレッドのそれぞれを<tspan font-size="13" x="0" y="16">管理するフレームワーク側の</tspan><tspan font-size="13" x="0" y="32">スレッド</tspan><tspan font-size="13" x="97.1998" y="-80">アプリ側の</tspan><tspan font-family="Calibri,Calibri_MSFontService,sans-serif" font-size="13" x="166.866" y="-80">Context</tspan><tspan font-size="13" x="212.533" y="-80">に応じて</tspan><tspan font-size="13" x="97.1998" y="-64">処理中で参照するデータを切</tspan><tspan font-size="13" x="97.1998" y="-48">り替える</tspan></text></g></svg>