<svg width="608" height="626" xmlns="http://www.w3.org/2000/svg" xmlns:xlink="http://www.w3.org/1999/xlink" overflow="hidden"><defs><clipPath id="clip0"><rect x="56" y="31" width="608" height="626"/></clipPath></defs><g clip-path="url(#clip0)" transform="translate(-56 -31)"><rect x="58.5001" y="32.5001" width="604" height="624" stroke="#D9D9D9" stroke-width="1.33333" stroke-miterlimit="8" fill="none"/><rect x="67" y="473" width="584" height="171" fill="#F2F2F2"/><rect x="67" y="57" width="584" height="373" fill="#F2F2F2"/><rect x="183.5" y="67.5001" width="233" height="347" stroke="#70AD47" stroke-width="1.33333" stroke-miterlimit="8" fill="none"/><text font-family="Yu Gothic,Yu Gothic_MSFontService,sans-serif" font-weight="400" font-size="13" transform="translate(252.613 84)">フレームワーク</text><path d="M0 0 0.000104987 271.972" stroke="#000000" stroke-width="2" stroke-miterlimit="8" fill="none" fill-rule="evenodd" transform="matrix(-1 0 0 1 269 121)"/><rect x="263" y="134" width="12" height="43" stroke="#000000" stroke-width="2" stroke-miterlimit="8" fill="#FFFFFF"/><rect x="446.5" y="67.5001" width="197" height="347" stroke="#4472C4" stroke-width="1.33333" stroke-miterlimit="8" fill="none"/><text font-family="Yu Gothic,Yu Gothic_MSFontService,sans-serif" font-weight="400" font-size="13" transform="translate(491.25 84)">アプリケーション</text><rect x="467.5" y="177.5" width="100" height="30" stroke="#4472C4" stroke-width="1.33333" stroke-miterlimit="8" fill="#FFFFFF"/><text font-family="Yu Gothic,Yu Gothic_MSFontService,sans-serif" font-weight="400" font-size="13" transform="translate(486.917 196)">メソッド<tspan font-family="Calibri,Calibri_MSFontService,sans-serif" font-size="13" x="53.3334" y="0">1</tspan></text><path d="M269.501 177.167 332.858 177.426 332.855 178.092 269.499 177.833ZM331.54 173.754 339.523 177.786 331.507 181.754Z"/><path d="M467.547 206.833 464.88 206.833 464.88 206.167 467.547 206.167ZM462.88 206.833 460.213 206.833 460.213 206.167 462.88 206.167ZM458.213 206.833 455.547 206.833 455.547 206.167 458.213 206.167ZM453.547 206.833 450.88 206.833 450.88 206.167 453.547 206.167ZM448.88 206.833 446.213 206.833 446.213 206.167 448.88 206.167ZM444.213 206.833 441.547 206.833 441.547 206.167 444.213 206.167ZM439.547 206.833 436.88 206.833 436.88 206.167 439.547 206.167ZM434.88 206.833 432.213 206.833 432.213 206.167 434.88 206.167ZM430.213 206.833 427.547 206.833 427.547 206.167 430.213 206.167ZM425.547 206.833 422.88 206.833 422.88 206.167 425.547 206.167ZM420.88 206.833 418.213 206.833 418.213 206.167 420.88 206.167ZM416.213 206.833 413.547 206.833 413.547 206.167 416.213 206.167ZM411.547 206.833 408.88 206.833 408.88 206.167 411.547 206.167ZM406.88 206.833 404.213 206.833 404.213 206.167 406.88 206.167ZM402.213 206.833 399.547 206.833 399.547 206.167 402.213 206.167ZM397.547 206.833 394.88 206.833 394.88 206.167 397.547 206.167ZM392.88 206.833 390.213 206.833 390.213 206.167 392.88 206.167ZM388.213 206.833 385.547 206.833 385.547 206.167 388.213 206.167ZM383.547 206.833 380.88 206.833 380.88 206.167 383.547 206.167ZM378.88 206.833 376.213 206.833 376.213 206.167 378.88 206.167ZM374.213 206.833 371.547 206.833 371.547 206.167 374.213 206.167ZM369.547 206.833 366.88 206.833 366.88 206.167 369.547 206.167ZM364.88 206.833 362.213 206.833 362.213 206.167 364.88 206.167ZM360.213 206.833 357.547 206.833 357.547 206.167 360.213 206.167ZM355.547 206.833 352.88 206.833 352.88 206.167 355.547 206.167ZM350.88 206.833 348.213 206.833 348.213 206.167 350.88 206.167ZM346.213 206.833 343.547 206.833 343.547 206.167 346.213 206.167ZM341.547 206.833 338.88 206.833 338.88 206.167 341.547 206.167ZM336.88 206.833 334.213 206.833 334.213 206.167 336.88 206.167ZM332.213 206.833 329.547 206.833 329.547 206.167 332.213 206.167ZM327.547 206.833 324.88 206.833 324.88 206.167 327.547 206.167ZM322.88 206.833 320.213 206.833 320.213 206.167 322.88 206.167ZM318.213 206.833 315.547 206.833 315.547 206.167 318.213 206.167ZM313.547 206.833 310.88 206.833 310.88 206.167 313.547 206.167ZM308.88 206.833 306.213 206.833 306.213 206.167 308.88 206.167ZM304.213 206.833 301.547 206.833 301.547 206.167 304.213 206.167ZM299.547 206.833 296.88 206.833 296.88 206.167 299.547 206.167ZM294.88 206.833 292.213 206.833 292.213 206.167 294.88 206.167ZM290.213 206.833 287.547 206.833 287.547 206.167 290.213 206.167ZM285.547 206.833 282.88 206.833 282.88 206.167 285.547 206.167ZM280.88 206.833 280.167 206.833 280.167 206.167 280.88 206.167ZM281.5 210.5 273.5 206.5 281.5 202.5Z"/><rect x="263" y="206" width="12" height="43" stroke="#000000" stroke-width="2" stroke-miterlimit="8" fill="#FFFFFF"/><path d="M0.00300503-0.33332 63.8367 0.24217 63.8307 0.90881-0.00300503 0.33332ZM62.5364-3.43637 70.5001 0.635591 62.4643 4.56331Z" transform="matrix(1 0 0 -1 268.5 249.136)"/><rect x="468.5" y="248.5" width="100" height="78" stroke="#4472C4" stroke-width="1.33333" stroke-miterlimit="8" fill="#FFFFFF"/><text font-family="Yu Gothic,Yu Gothic_MSFontService,sans-serif" font-weight="400" font-size="13" transform="translate(487.917 291)">メソッド<tspan font-family="Calibri,Calibri_MSFontService,sans-serif" font-size="13" x="53.3334" y="0">2</tspan></text><rect x="300" y="267" width="12" height="23" stroke="#000000" stroke-width="2" stroke-miterlimit="8" fill="#FFFFFF"/><path d="M2.24506e-07-0.333333 149.212-0.333233 149.212 0.333434-2.24506e-07 0.333333ZM147.878-3.9999 155.878 0.000104987 147.878 4.0001Z" transform="matrix(-1 0 0 1 468.378 267.5)"/><path d="M2.24506e-07-0.333333 2.66667-0.333332 2.66667 0.333335-2.24506e-07 0.333333ZM4.66667-0.33333 7.33333-0.333328 7.33333 0.333338 4.66667 0.333336ZM9.33333-0.333327 12-0.333325 12 0.333341 9.33333 0.33334ZM14-0.333324 16.6667-0.333322 16.6667 0.333345 14 0.333343ZM18.6667-0.333321 21.3333-0.333319 21.3333 0.333348 18.6667 0.333346ZM23.3333-0.333318 26-0.333316 26 0.333351 23.3333 0.333349ZM28-0.333314 30.6667-0.333313 30.6667 0.333354 28 0.333352ZM32.6667-0.333311 35.3333-0.33331 35.3333 0.333357 32.6667 0.333355ZM37.3333-0.333308 40-0.333306 40 0.33336 37.3333 0.333358ZM42-0.333305 44.6667-0.333303 44.6667 0.333363 42 0.333362ZM46.6667-0.333302 49.3333-0.3333 49.3333 0.333367 46.6667 0.333365ZM51.3333-0.333299 54-0.333297 54 0.33337 51.3333 0.333368ZM56-0.333296 58.6667-0.333294 58.6667 0.333373 56 0.333371ZM60.6667-0.333292 63.3333-0.333291 63.3333 0.333376 60.6667 0.333374ZM65.3333-0.333289 68-0.333288 68 0.333379 65.3333 0.333377ZM70-0.333286 72.6667-0.333284 72.6667 0.333382 70 0.33338ZM74.6667-0.333283 77.3333-0.333281 77.3333 0.333385 74.6667 0.333384ZM79.3333-0.33328 82-0.333278 82 0.333389 79.3333 0.333387ZM84-0.333277 86.6667-0.333275 86.6667 0.333392 84 0.33339ZM88.6667-0.333274 91.3333-0.333272 91.3333 0.333395 88.6667 0.333393ZM93.3333-0.33327 96-0.333269 96 0.333398 93.3333 0.333396ZM98-0.333267 100.667-0.333266 100.667 0.333401 98 0.333399ZM102.667-0.333264 105.333-0.333262 105.333 0.333404 102.667 0.333402ZM107.333-0.333261 110-0.333259 110 0.333407 107.333 0.333406ZM112-0.333258 114.667-0.333256 114.667 0.333411 112 0.333409ZM116.667-0.333255 119.333-0.333253 119.333 0.333414 116.667 0.333412ZM121.333-0.333252 124-0.33325 124 0.333417 121.333 0.333415ZM126-0.333248 128.667-0.333247 128.667 0.33342 126 0.333418ZM130.667-0.333245 133.333-0.333244 133.333 0.333423 130.667 0.333421ZM135.333-0.333242 138-0.33324 138 0.333426 135.333 0.333424ZM140-0.333239 142.667-0.333237 142.667 0.333429 140 0.333428ZM144.667-0.333236 147.333-0.333234 147.333 0.333433 144.667 0.333431ZM147.878-3.9999 155.878 0.000104987 147.878 4.0001Z" transform="matrix(1 0 0 -1 312.5 288.5)"/><path d="M468.547 326.833 465.88 326.833 465.88 326.167 468.547 326.167ZM463.88 326.833 461.213 326.833 461.213 326.167 463.88 326.167ZM459.213 326.833 456.547 326.833 456.547 326.167 459.213 326.167ZM454.547 326.833 451.88 326.833 451.88 326.167 454.547 326.167ZM449.88 326.833 447.213 326.833 447.213 326.167 449.88 326.167ZM445.213 326.833 442.547 326.833 442.547 326.167 445.213 326.167ZM440.547 326.833 437.88 326.833 437.88 326.167 440.547 326.167ZM435.88 326.833 433.213 326.833 433.213 326.167 435.88 326.167ZM431.213 326.833 428.547 326.833 428.547 326.167 431.213 326.167ZM426.547 326.833 423.88 326.833 423.88 326.167 426.547 326.167ZM421.88 326.833 419.213 326.833 419.213 326.167 421.88 326.167ZM417.213 326.833 414.547 326.833 414.547 326.167 417.213 326.167ZM412.547 326.833 409.88 326.833 409.88 326.167 412.547 326.167ZM407.88 326.833 405.213 326.833 405.213 326.167 407.88 326.167ZM403.213 326.833 400.547 326.833 400.547 326.167 403.213 326.167ZM398.547 326.833 395.88 326.833 395.88 326.167 398.547 326.167ZM393.88 326.833 391.213 326.833 391.213 326.167 393.88 326.167ZM389.213 326.833 386.547 326.833 386.547 326.167 389.213 326.167ZM384.547 326.833 381.88 326.833 381.88 326.167 384.547 326.167ZM379.88 326.833 377.213 326.833 377.213 326.167 379.88 326.167ZM375.213 326.833 372.547 326.833 372.547 326.167 375.213 326.167ZM370.547 326.833 367.88 326.833 367.88 326.167 370.547 326.167ZM365.88 326.833 363.213 326.833 363.213 326.167 365.88 326.167ZM361.213 326.833 358.547 326.833 358.547 326.167 361.213 326.167ZM356.547 326.833 353.88 326.833 353.88 326.167 356.547 326.167ZM351.88 326.833 349.213 326.833 349.213 326.167 351.88 326.167ZM347.213 326.833 344.547 326.833 344.547 326.167 347.213 326.167ZM342.547 326.833 339.88 326.833 339.88 326.167 342.547 326.167ZM337.88 326.833 335.213 326.833 335.213 326.167 337.88 326.167ZM333.213 326.833 330.547 326.833 330.547 326.167 333.213 326.167ZM328.547 326.833 325.88 326.833 325.88 326.167 328.547 326.167ZM323.88 326.833 321.213 326.833 321.213 326.167 323.88 326.167ZM319.213 326.833 316.547 326.833 316.547 326.167 319.213 326.167ZM314.547 326.833 311.88 326.833 311.88 326.167 314.547 326.167ZM309.88 326.833 307.213 326.833 307.213 326.167 309.88 326.167ZM305.213 326.833 302.547 326.833 302.547 326.167 305.213 326.167ZM300.547 326.833 297.88 326.833 297.88 326.167 300.547 326.167ZM295.88 326.833 293.213 326.833 293.213 326.167 295.88 326.167ZM291.213 326.833 288.547 326.833 288.547 326.167 291.213 326.167ZM286.547 326.833 283.88 326.833 283.88 326.167 286.547 326.167ZM281.88 326.833 281.167 326.833 281.167 326.167 281.88 326.167ZM282.5 330.5 274.5 326.5 282.5 322.5Z"/><rect x="263" y="328" width="12" height="43" stroke="#000000" stroke-width="2" stroke-miterlimit="8" fill="#FFFFFF"/><path d="M160.5 134.167 256.507 134.167 256.507 134.833 160.5 134.833ZM255.173 130.5 263.173 134.5 255.173 138.5Z"/><path d="M77.5001 121.5 147 121.5 159.5 134 147 146.5 77.5001 146.5Z" stroke="#000000" stroke-width="1.33333" stroke-miterlimit="8" fill="#FFFFFF" fill-rule="evenodd"/><text font-family="Yu Gothic,Yu Gothic_MSFontService,sans-serif" font-weight="400" font-size="13" transform="translate(88.2041 138)">実行開始<tspan font-family="Calibri,Calibri_MSFontService,sans-serif" font-size="13" x="203.957" y="-9">Interface</tspan>は<tspan font-size="13" x="203.957" y="7">フレームワーク側</tspan><tspan font-size="13" x="203.957" y="23">で宣言</tspan></text><path d="M339 177C339 173.686 341.686 171 345 171 348.314 171 351 173.686 351 177 351 180.314 348.314 183 345 183 341.686 183 339 180.314 339 177Z" stroke="#FF0000" stroke-width="2" stroke-miterlimit="8" fill="#FFFFFF" fill-rule="evenodd"/><path d="M351 177 398 177" stroke="#FF0000" stroke-width="2" stroke-miterlimit="8" fill="none" fill-rule="evenodd"/><path d="M398 175 460.357 175 460.357 177 398 177ZM459.023 172 467.023 176 459.023 180Z" fill="#4472C4"/><path d="M338 248C338 244.686 340.686 242 344 242 347.314 242 350 244.686 350 248 350 251.314 347.314 254 344 254 340.686 254 338 251.314 338 248Z" stroke="#FF0000" stroke-width="2" stroke-miterlimit="8" fill="#FFFFFF" fill-rule="evenodd"/><path d="M350 248 397 248" stroke="#FF0000" stroke-width="2" stroke-miterlimit="8" fill="none" fill-rule="evenodd"/><path d="M1.42749e-06-1 66.88-0.999905 66.88 1.0001-1.42749e-06 1ZM65.5467-3.99991 73.5467 0.000104987 65.5467 4.00009Z" fill="#4472C4" transform="matrix(1 0 0 -1 397 248)"/><text font-family="Yu Gothic,Yu Gothic_MSFontService,sans-serif" font-weight="400" font-size="13" transform="translate(456.001 116)">アプリケーションはフレーム<tspan font-size="13" x="0" y="16">ワーク型で定義された</tspan><tspan font-family="Calibri,Calibri_MSFontService,sans-serif" font-size="13" x="0" y="32">Interface</tspan><tspan font-size="13" x="48.8333" y="32">を実装</tspan></text><path d="M0 6C-7.6388e-16 2.68629 2.68629 -7.6388e-16 6-1.52776e-15 9.31371-3.05552e-15 12 2.68629 12 6 12 9.31371 9.31371 12 6 12 2.68629 12-3.8194e-15 9.31371 0 6Z" stroke="#FF0000" stroke-width="2" stroke-miterlimit="8" fill="#FFFFFF" fill-rule="evenodd" transform="matrix(-1 0 0 1 396 261)"/><path d="M0 0 46.9999 0.000104987" stroke="#FF0000" stroke-width="2" stroke-miterlimit="8" fill="none" fill-rule="evenodd" transform="matrix(-1 0 0 1 384 267)"/><rect x="183.5" y="515.5" width="233" height="111" stroke="#70AD47" stroke-width="1.33333" stroke-miterlimit="8" fill="none"/><text font-family="Yu Gothic,Yu Gothic_MSFontService,sans-serif" font-weight="400" font-size="13" transform="translate(252.613 532)">フレームワーク</text><rect x="446.5" y="515.5" width="157" height="111" stroke="#4472C4" stroke-width="1.33333" stroke-miterlimit="8" fill="none"/><text font-family="Yu Gothic,Yu Gothic_MSFontService,sans-serif" font-weight="400" font-size="13" transform="translate(471.38 532)">アプリケーション</text><rect x="218" y="562" width="65" height="41" stroke="#000000" stroke-width="2" stroke-miterlimit="8" fill="#FFFFFF"/><path d="M342 571C342 567.686 344.686 565 348 565 351.314 565 354 567.686 354 571 354 574.314 351.314 577 348 577 344.686 577 342 574.314 342 571Z" stroke="#000000" stroke-width="2" stroke-miterlimit="8" fill="#FFFFFF" fill-rule="evenodd"/><path d="M354 571 401 571" stroke="#000000" stroke-width="2" stroke-miterlimit="8" fill="none" fill-rule="evenodd"/><path d="M0 6C-7.6388e-16 2.68629 2.68629 -7.6388e-16 6-1.52776e-15 9.31371-3.05552e-15 12 2.68629 12 6 12 9.31371 9.31371 12 6 12 2.68629 12-3.8194e-15 9.31371 0 6Z" stroke="#000000" stroke-width="2" stroke-miterlimit="8" fill="#FFFFFF" fill-rule="evenodd" transform="matrix(-1 0 0 1 343 586)"/><path d="M0 0 46.9999 0.000104987" stroke="#000000" stroke-width="2" stroke-miterlimit="8" fill="none" fill-rule="evenodd" transform="matrix(-1 0 0 1 331 592)"/><rect x="492" y="562" width="65" height="41" stroke="#000000" stroke-width="2" stroke-miterlimit="8" fill="#FFFFFF"/><path d="M401 571 492.237 571" stroke="#000000" stroke-width="2" stroke-miterlimit="8" stroke-dasharray="2 2" fill="none" fill-rule="evenodd"/><path d="M284.501 570.167 335.862 570.385 335.859 571.052 284.499 570.833ZM334.544 566.713 342.527 570.747 334.51 574.713Z"/><path d="M2.34455e-07-0.333333 142.597-0.333233 142.597 0.333434-2.34455e-07 0.333333ZM141.264-3.9999 149.264 0.000104987 141.264 4.0001Z" transform="matrix(-1 0 0 1 492.764 592.5)"/><path d="M384.5 544.5 395.5 533.5 395.5 539 475.5 539 475.5 550 395.5 550 395.5 555.5Z" stroke="#2F528F" stroke-width="1.33333" stroke-miterlimit="8" fill="#FF0000" fill-rule="evenodd" fill-opacity="0.501961"/><text font-family="Yu Gothic,Yu Gothic_MSFontService,sans-serif" font-weight="400" font-size="13" transform="translate(220.937 502)">依存方向<tspan font-size="13" x="53.3333" y="0">は“アプリケーション”</tspan><tspan font-family="Calibri,Calibri_MSFontService,sans-serif" font-size="13" x="184.667" y="0">→</tspan>“フレームワーク”の一方向</text><path d="M0 40 233 0 466 40Z" stroke="#2F528F" stroke-width="1.33333" stroke-miterlimit="8" stroke-opacity="0.501961" fill="#4472C4" fill-rule="evenodd" fill-opacity="0.501961" transform="matrix(1 0 0 -1 138.5 479.5)"/></g></svg>