<svg width="608" height="1042" xmlns="http://www.w3.org/2000/svg" xmlns:xlink="http://www.w3.org/1999/xlink" overflow="hidden"><defs><clipPath id="clip0"><rect x="56" y="40" width="608" height="1042"/></clipPath></defs><g clip-path="url(#clip0)" transform="translate(-56 -40)"><rect x="68" y="707" width="590" height="363" fill="#F2F2F2"/><text font-family="Yu Gothic,Yu Gothic_MSFontService,sans-serif" font-weight="400" font-size="13" transform="translate(282.772 724)">障害の状態モデル（参考）</text><rect x="58.5001" y="41.5001" width="604" height="1039" stroke="#D9D9D9" stroke-width="1.33333" stroke-miterlimit="8" fill="none"/><rect x="67" y="74" width="591" height="607" fill="#F2F2F2"/><text font-family="Yu Gothic,Yu Gothic_MSFontService,sans-serif" font-weight="400" font-size="13" transform="translate(242.508 91)">障害<tspan font-size="13" x="26.6667" y="0">管理の概念情報モデル（一部抜粋）</tspan></text><rect x="352.5" y="135.5" width="126" height="76" stroke="#000000" stroke-width="1.33333" stroke-miterlimit="8" fill="#FFFFFF"/><text font-family="Yu Gothic,Yu Gothic_MSFontService,sans-serif" font-weight="400" font-size="16" transform="translate(398.633 178)">現象</text><rect x="97.5001" y="476.5" width="126" height="77" stroke="#000000" stroke-width="1.33333" stroke-miterlimit="8" fill="#FFFFFF"/><text font-family="Yu Gothic,Yu Gothic_MSFontService,sans-serif" font-weight="400" font-size="16" transform="translate(120.254 520)">開発チーム</text><path d="M0 0 0.403675 113.533" stroke="#000000" stroke-width="0.666667" stroke-miterlimit="8" fill="none" fill-rule="evenodd" transform="matrix(-1 0 0 1 414.904 211.5)"/><text font-family="Calibri,Calibri_MSFontService,sans-serif" font-weight="400" font-size="13" transform="translate(423.829 225)">1..*<tspan font-size="13" x="-280.438" y="-99">1</tspan></text><rect x="485.5" y="228.5" width="126" height="77" stroke="#000000" stroke-width="1.33333" stroke-miterlimit="8" fill="#FFFFFF"/><text font-family="Yu Gothic,Yu Gothic_MSFontService,sans-serif" font-weight="400" font-size="16" transform="translate(532.241 272)">相関</text><rect x="92.5001" y="135.5" width="126" height="76" stroke="#000000" stroke-width="1.33333" stroke-miterlimit="8" fill="#FFFFFF"/><text font-family="Yu Gothic,Yu Gothic_MSFontService,sans-serif" font-weight="400" font-size="16" transform="translate(138.846 178)">障害</text><path d="M156.5 135.833 156.5 111.833 416.287 111.833 416.287 134.5" stroke="#000000" stroke-width="0.666667" stroke-miterlimit="8" fill="none" fill-rule="evenodd"/><rect x="92.5001" y="290.5" width="126" height="76" stroke="#000000" stroke-width="1.33333" stroke-miterlimit="8" fill="#FFFFFF"/><text font-family="Yu Gothic,Yu Gothic_MSFontService,sans-serif" font-weight="400" font-size="16" transform="translate(107.262 333)">テストチーム</text><path d="M0 0 71.2464 0 71.2464 209.769" stroke="#000000" stroke-width="0.666667" stroke-miterlimit="8" fill="none" fill-rule="evenodd" transform="matrix(1 0 0 -1 477.5 515.27)"/><text font-family="Calibri,Calibri_MSFontService,sans-serif" font-weight="400" font-size="13" transform="translate(426.655 128)">1..*<tspan font-size="13" x="-262.209" y="100">target</tspan><tspan font-size="13" x="-2.43781" y="187">*</tspan><tspan font-size="13" x="-2.82605" y="292">*</tspan></text><rect x="351.5" y="325.5" width="126" height="76" stroke="#000000" stroke-width="1.33333" stroke-miterlimit="8" fill="#FFFFFF"/><text font-family="Yu Gothic,Yu Gothic_MSFontService,sans-serif" font-weight="400" font-size="16" transform="translate(398.229 368)">原因</text><path d="M414.5 262.5 485.746 266.883" stroke="#000000" stroke-width="0.666667" stroke-miterlimit="8" stroke-dasharray="2 0.666667" fill="none" fill-rule="evenodd"/><rect x="351.5" y="476.5" width="126" height="77" stroke="#000000" stroke-width="1.33333" stroke-miterlimit="8" fill="#FFFFFF"/><text font-family="Yu Gothic,Yu Gothic_MSFontService,sans-serif" font-weight="400" font-size="16" transform="translate(374.229 520)">モジュール</text><path d="M0 0 0.000209974 75.3868" stroke="#000000" stroke-width="0.666667" stroke-miterlimit="8" fill="none" fill-rule="evenodd" transform="matrix(-1 0 0 1 414.5 401.5)"/><text font-family="Calibri,Calibri_MSFontService,sans-serif" font-weight="400" font-size="13" transform="translate(423.829 470)">1</text><path d="M223.5 514.5 351.944 514.5" stroke="#000000" stroke-width="0.666667" stroke-miterlimit="8" fill="none" fill-rule="evenodd"/><text font-family="Calibri,Calibri_MSFontService,sans-serif" font-weight="400" font-size="13" transform="translate(230.532 505)">1<tspan font-size="13" x="90.7624" y="0">1..*</tspan></text><path d="M155.5 211.5 155.915 290.143" stroke="#000000" stroke-width="0.666667" stroke-miterlimit="8" fill="none" fill-rule="evenodd"/><text font-family="Calibri,Calibri_MSFontService,sans-serif" font-weight="400" font-size="13" transform="translate(163.659 281)">1<tspan font-size="13" x="-19.5051" y="-54">*</tspan><tspan font-size="13" x="-53.6265" y="-1">owner</tspan><tspan font-family="Yu Gothic,Yu Gothic_MSFontService,sans-serif" font-size="13" x="202.737" y="184">潜伏先</tspan><tspan font-family="Yu Gothic,Yu Gothic_MSFontService,sans-serif" font-size="13" x="221.418" y="138">バグ</tspan><tspan font-size="13" x="211.994" y="33">caus</tspan><tspan font-size="13" x="236.161" y="33">e</tspan><tspan font-size="13" x="318.07" y="246">1</tspan><tspan font-size="13" x="391.336" y="43">*</tspan></text><rect x="230.5" y="230.5" width="126" height="49" stroke="#000000" stroke-width="1.33333" stroke-miterlimit="8" fill="#FFFFFF"/><text font-family="Yu Gothic,Yu Gothic_MSFontService,sans-serif" font-weight="400" font-size="16" transform="translate(253.003 260)">調査タスク</text><path d="M293.5 230.585 293.5 173.5 352.12 173.5" stroke="#000000" stroke-width="0.666667" stroke-miterlimit="8" fill="none" fill-rule="evenodd"/><text font-family="Calibri,Calibri_MSFontService,sans-serif" font-weight="400" font-size="13" transform="translate(339.08 168)">1<tspan font-size="13" x="-60.8304" y="55">*</tspan></text><path d="M160.5 477.184 160.5 425.893 293.249 425.893 293.249 279.5" stroke="#000000" stroke-width="0.666667" stroke-miterlimit="8" fill="none" fill-rule="evenodd"/><text font-family="Calibri,Calibri_MSFontService,sans-serif" font-weight="400" font-size="13" transform="translate(149.673 468)">1<tspan font-size="13" x="131.507" y="-172">*</tspan><tspan font-size="13" x="192.701" y="-339">symptoms</tspan><tspan font-size="13" x="12.8338" y="-341">target</tspan><tspan font-size="13" x="152.677" y="-174">target</tspan><tspan font-size="13" x="19.2823" y="1">owner</tspan><tspan font-size="13" x="81.7259" y="65">owner</tspan></text><rect x="351.5" y="605.5" width="126" height="56" stroke="#000000" stroke-width="1.33333" stroke-miterlimit="8" fill="#FFFFFF"/><text font-family="Yu Gothic,Yu Gothic_MSFontService,sans-serif" font-weight="400" font-size="16" transform="translate(374.211 638)">修正タスク</text><path d="M0 0 144.891 0 144.891 459.993 0.666877 459.993" stroke="#000000" stroke-width="0.666667" stroke-miterlimit="8" fill="none" fill-rule="evenodd" transform="matrix(1 0 0 -1 477.5 633.493)"/><path d="M0 0 0.0182677 52.2153" stroke="#000000" stroke-width="0.666667" stroke-miterlimit="8" fill="none" fill-rule="evenodd" transform="matrix(-1 0 0 1 414.518 553.5)"/><text font-family="Calibri,Calibri_MSFontService,sans-serif" font-weight="400" font-size="13" transform="translate(420.411 602)">*<tspan font-size="13" x="-17.5771" y="-36">1</tspan><tspan font-size="13" x="65.037" y="47">*</tspan><tspan font-size="13" x="62.9471" y="-415">1</tspan><tspan font-size="13" x="70.0488" y="20">measures</tspan></text><path d="M144.5 786.833C144.5 781.679 148.679 777.5 153.833 777.5L322.167 777.5C327.321 777.5 331.5 781.679 331.5 786.833L331.5 824.167C331.5 829.321 327.321 833.5 322.167 833.5L153.833 833.5C148.679 833.5 144.5 829.321 144.5 824.167Z" stroke="#000000" stroke-width="1.33333" stroke-miterlimit="8" fill="#FFFFFF" fill-rule="evenodd"/><text font-family="Yu Gothic,Yu Gothic_MSFontService,sans-serif" font-weight="400" font-size="13" transform="translate(156.34 809)">調査タスク作成</text><path d="M393.5 787.667C393.5 782.604 397.604 778.5 402.667 778.5L571.333 778.5C576.396 778.5 580.5 782.604 580.5 787.667L580.5 824.333C580.5 829.396 576.396 833.5 571.333 833.5L402.667 833.5C397.604 833.5 393.5 829.396 393.5 824.333Z" stroke="#000000" stroke-width="1.33333" stroke-miterlimit="8" fill="#FFFFFF" fill-rule="evenodd"/><text font-family="Yu Gothic,Yu Gothic_MSFontService,sans-serif" font-weight="400" font-size="13" transform="translate(404.946 802)">調査中<tspan font-size="13" x="0" y="16">全調査タスク完了待ち</tspan></text><path d="M331.506 804.833 391.89 805.398 391.877 806.731 331.494 806.167ZM384.269 800.751 393.207 806.077 384.171 811.235C383.851 811.418 383.444 811.307 383.261 810.987 383.079 810.667 383.19 810.26 383.51 810.077L391.553 805.486 391.542 806.637 383.586 801.896C383.27 801.708 383.166 801.298 383.355 800.982 383.543 800.666 383.953 800.562 384.269 800.751Z"/><text font-family="Yu Gothic,Yu Gothic_MSFontService,sans-serif" font-weight="400" font-size="13" transform="translate(583.891 760)">一つの<tspan font-size="13" x="0" y="16">調査完了</tspan></text><path d="M579.923 818.792 603.923 818.792 603.256 819.459 603.256 797.5 603.923 798.167 580.82 798.167 580.82 796.833 604.59 796.833 604.59 820.126 579.923 820.126ZM588.484 802.743 579.497 797.5 588.484 792.258C588.802 792.072 589.21 792.179 589.396 792.497 589.581 792.815 589.474 793.224 589.156 793.409L581.156 798.076 581.156 796.924 589.156 801.591C589.474 801.776 589.581 802.185 589.396 802.503 589.21 802.821 588.802 802.928 588.484 802.743Z"/><path d="M393.5 877.833C393.5 872.679 397.679 868.5 402.833 868.5L571.167 868.5C576.321 868.5 580.5 872.679 580.5 877.833L580.5 915.167C580.5 920.321 576.321 924.5 571.167 924.5L402.833 924.5C397.679 924.5 393.5 920.321 393.5 915.167Z" stroke="#000000" stroke-width="1.33333" stroke-miterlimit="8" fill="#FFFFFF" fill-rule="evenodd"/><text font-family="Yu Gothic,Yu Gothic_MSFontService,sans-serif" font-weight="400" font-size="13" transform="translate(404.946 892)">原因<tspan font-size="13" x="26.6667" y="0">判明</tspan><tspan font-size="13" x="0" y="16">修正</tspan><tspan font-size="13" x="26.6667" y="16">タスク作成</tspan></text><path d="M487.167 833.5 487.167 867.426 485.833 867.426 485.833 833.5ZM491.743 859.762 486.5 868.749 481.258 859.762C481.072 859.444 481.18 859.036 481.498 858.85 481.816 858.665 482.224 858.772 482.409 859.09L487.076 867.09 485.924 867.09 490.591 859.09C490.776 858.772 491.185 858.665 491.503 858.85 491.821 859.036 491.928 859.444 491.743 859.762Z"/><text font-family="Yu Gothic,Yu Gothic_MSFontService,sans-serif" font-weight="400" font-size="13" transform="translate(492.592 851)">全調査完了</text><path d="M144.5 877.667C144.5 872.604 148.604 868.5 153.667 868.5L322.333 868.5C327.396 868.5 331.5 872.604 331.5 877.667L331.5 914.333C331.5 919.396 327.396 923.5 322.333 923.5L153.667 923.5C148.604 923.5 144.5 919.396 144.5 914.333Z" stroke="#000000" stroke-width="1.33333" stroke-miterlimit="8" fill="#FFFFFF" fill-rule="evenodd"/><text font-family="Yu Gothic,Yu Gothic_MSFontService,sans-serif" font-weight="400" font-size="13" transform="translate(156.34 892)">修正中<tspan font-size="13" x="0" y="16">全修正タスク完了待ち</tspan></text><path d="M144.923 908.126 119.833 908.126 119.833 884.833 143.18 884.833 143.18 886.167 120.5 886.167 121.167 885.5 121.167 907.459 120.5 906.792 144.923 906.792ZM135.516 880.258 144.503 885.5 135.516 890.743C135.198 890.928 134.79 890.821 134.604 890.503 134.419 890.185 134.526 889.776 134.844 889.591L142.844 884.924 142.844 886.076 134.844 881.409C134.526 881.224 134.419 880.815 134.604 880.497 134.79 880.179 135.198 880.072 135.516 880.258Z"/><path d="M393.198 897.706 332.814 897.178 332.826 895.845 393.209 896.373ZM340.438 901.821 331.497 896.5 340.53 891.336C340.849 891.154 341.257 891.265 341.439 891.584 341.622 891.904 341.511 892.311 341.191 892.494L333.151 897.09 333.161 895.939 341.12 900.675C341.436 900.863 341.54 901.273 341.352 901.589 341.163 901.905 340.754 902.009 340.438 901.821Z"/><path d="M143.5 973.833C143.5 968.679 147.679 964.5 152.833 964.5L321.167 964.5C326.321 964.5 330.5 968.679 330.5 973.833L330.5 1011.17C330.5 1016.32 326.321 1020.5 321.167 1020.5L152.833 1020.5C147.679 1020.5 143.5 1016.32 143.5 1011.17Z" stroke="#000000" stroke-width="1.33333" stroke-miterlimit="8" fill="#FFFFFF" fill-rule="evenodd"/><text font-family="Yu Gothic,Yu Gothic_MSFontService,sans-serif" font-weight="400" font-size="13" transform="translate(155.726 988)">リグレッションテスト<tspan font-size="13" x="0" y="16">実施中</tspan></text><path d="M0.666593-0.00991681 1.26103 39.947-0.0721594 39.9668-0.666593 0.00991681ZM5.72237 32.2157 0.614114 41.2798-4.76151 32.3716C-4.95174 32.0564-4.8504 31.6466-4.53516 31.4564-4.21992 31.2662-3.81016 31.3675-3.61993 31.6828L1.16522 39.6124 0.0136474 39.6296 4.5608 31.561C4.74156 31.2403 5.14813 31.1268 5.46889 31.3076 5.78965 31.4883 5.90314 31.8949 5.72237 32.2157Z" transform="matrix(-1 0 0 1 238.114 923.5)"/><text font-family="Yu Gothic,Yu Gothic_MSFontService,sans-serif" font-weight="400" font-size="13" transform="translate(240.118 947)">全修正完了<tspan font-size="13" x="-150.142" y="-94">一つの</tspan><tspan font-size="13" x="-150.142" y="-78">修正完了</tspan></text><path d="M392.5 973.833C392.5 968.679 396.679 964.5 401.833 964.5L570.167 964.5C575.321 964.5 579.5 968.679 579.5 973.833L579.5 1011.17C579.5 1016.32 575.321 1020.5 570.167 1020.5L401.833 1020.5C396.679 1020.5 392.5 1016.32 392.5 1011.17Z" stroke="#000000" stroke-width="1.33333" stroke-miterlimit="8" fill="#FFFFFF" fill-rule="evenodd"/><text font-family="Yu Gothic,Yu Gothic_MSFontService,sans-serif" font-weight="400" font-size="13" transform="translate(404.32 996)">障害対応完了</text><path d="M330.5 991.833 390.871 991.833 390.871 993.167 330.5 993.167ZM383.207 987.258 392.194 992.5 383.207 997.743C382.889 997.928 382.481 997.821 382.295 997.503 382.11 997.185 382.217 996.776 382.535 996.591L390.535 991.924 390.535 993.076 382.535 988.409C382.217 988.224 382.11 987.816 382.295 987.498 382.481 987.18 382.889 987.072 383.207 987.258Z"/><text font-family="Yu Gothic,Yu Gothic_MSFontService,sans-serif" font-weight="400" font-size="13" transform="translate(352.627 1009)">動作<tspan font-size="13" x="0" y="16">確認</tspan><tspan font-size="13" x="0" y="32">完了</tspan></text></g></svg>