<svg width="608" height="419" xmlns="http://www.w3.org/2000/svg" xmlns:xlink="http://www.w3.org/1999/xlink" overflow="hidden"><defs><clipPath id="clip0"><rect x="56" y="54" width="608" height="419"/></clipPath></defs><g clip-path="url(#clip0)" transform="translate(-56 -54)"><rect x="58.5001" y="56.5001" width="604" height="416" stroke="#D9D9D9" stroke-width="1.33333" stroke-miterlimit="8" fill="none"/><text font-family="Calibri,Calibri_MSFontService,sans-serif" font-weight="400" font-size="16" transform="translate(284.25 75)">CMM <tspan font-family="Yu Gothic,Yu Gothic_MSFontService,sans-serif" font-size="16" x="39.5" y="0">の成熟度モデル</tspan></text><rect x="134.5" y="379.5" width="273" height="53.9999" fill="#ED7D31"/><path d="M407.5 379.5 425.5 361.5 425.5 415.5 407.5 433.5Z" fill="#BF6427" fill-rule="evenodd"/><path d="M134.5 379.5 152.5 361.5 425.5 361.5 407.5 379.5Z" fill="#F19659" fill-rule="evenodd"/><path d="M134.5 379.5 152.5 361.5 425.5 361.5 425.5 415.5 407.5 433.5 134.5 433.5ZM134.5 379.5 407.5 379.5 425.5 361.5M407.5 379.5 407.5 433.5" stroke="#AE5A21" stroke-width="1.33333" stroke-miterlimit="8" fill="none" fill-rule="evenodd"/><text fill="#FFFFFF" font-family="Yu Gothic,Yu Gothic_MSFontService,sans-serif" font-weight="400" font-size="16" transform="translate(222.554 411)">初期（混沌）</text><rect x="134.5" y="314.5" width="273" height="53.9999" fill="#FFC000"/><path d="M407.5 314.5 425.5 296.5 425.5 350.5 407.5 368.5Z" fill="#CD9A00" fill-rule="evenodd"/><path d="M134.5 314.5 152.5 296.5 425.5 296.5 407.5 314.5Z" fill="#FFCC32" fill-rule="evenodd"/><path d="M134.5 314.5 152.5 296.5 425.5 296.5 425.5 350.5 407.5 368.5 134.5 368.5ZM134.5 314.5 407.5 314.5 425.5 296.5M407.5 314.5 407.5 368.5" stroke="#BC8C00" stroke-width="1.33333" stroke-miterlimit="8" fill="none" fill-rule="evenodd"/><text fill="#FFFFFF" font-family="Yu Gothic,Yu Gothic_MSFontService,sans-serif" font-weight="400" font-size="16" transform="translate(230.554 347)">反復できる</text><rect x="134.5" y="250.5" width="273" height="53.9999" fill="#5B9BD5"/><path d="M407.5 250.5 425.5 232.5 425.5 286.5 407.5 304.5Z" fill="#497DAB" fill-rule="evenodd"/><path d="M134.5 250.5 152.5 232.5 425.5 232.5 407.5 250.5Z" fill="#7BAFDD" fill-rule="evenodd"/><path d="M134.5 250.5 152.5 232.5 425.5 232.5 425.5 286.5 407.5 304.5 134.5 304.5ZM134.5 250.5 407.5 250.5 425.5 232.5M407.5 250.5 407.5 304.5" stroke="#41719C" stroke-width="1.33333" stroke-miterlimit="8" fill="none" fill-rule="evenodd"/><text fill="#FFFFFF" font-family="Yu Gothic,Yu Gothic_MSFontService,sans-serif" font-weight="400" font-size="16" transform="translate(230.554 283)">定義された</text><rect x="134.5" y="186.5" width="273" height="53.9999" fill="#4472C4"/><path d="M407.5 186.5 425.5 168.5 425.5 222.5 407.5 240.5Z" fill="#375C9E" fill-rule="evenodd"/><path d="M134.5 186.5 152.5 168.5 425.5 168.5 407.5 186.5Z" fill="#698ED0" fill-rule="evenodd"/><path d="M134.5 186.5 152.5 168.5 425.5 168.5 425.5 222.5 407.5 240.5 134.5 240.5ZM134.5 186.5 407.5 186.5 425.5 168.5M407.5 186.5 407.5 240.5" stroke="#2F528F" stroke-width="1.33333" stroke-miterlimit="8" fill="none" fill-rule="evenodd"/><text fill="#FFFFFF" font-family="Yu Gothic,Yu Gothic_MSFontService,sans-serif" font-weight="400" font-size="16" transform="translate(230.554 218)">管理された</text><rect x="134.5" y="122.5" width="273" height="53.9999" fill="#70AD47"/><path d="M407.5 122.5 425.5 104.5 425.5 158.5 407.5 176.5Z" fill="#5A8B39" fill-rule="evenodd"/><path d="M134.5 122.5 152.5 104.5 425.5 104.5 407.5 122.5Z" fill="#8CBD6B" fill-rule="evenodd"/><path d="M134.5 122.5 152.5 104.5 425.5 104.5 425.5 158.5 407.5 176.5 134.5 176.5ZM134.5 122.5 407.5 122.5 425.5 104.5M407.5 122.5 407.5 176.5" stroke="#507E32" stroke-width="1.33333" stroke-miterlimit="8" fill="none" fill-rule="evenodd"/><text fill="#FFFFFF" font-family="Yu Gothic,Yu Gothic_MSFontService,sans-serif" font-weight="400" font-size="16" transform="translate(222.554 154)">最適化できる<tspan fill="#000000" font-family="Calibri,Calibri_MSFontService,sans-serif" font-size="13" x="-144.547" y="270">Level</tspan><tspan fill="#000000" font-family="Calibri,Calibri_MSFontService,sans-serif" font-size="13" x="-113.547" y="270">1</tspan><tspan fill="#000000" font-family="Calibri,Calibri_MSFontService,sans-serif" font-size="13" x="-144.547" y="211">Level</tspan><tspan fill="#000000" font-family="Calibri,Calibri_MSFontService,sans-serif" font-size="13" x="-113.547" y="211">2</tspan><tspan fill="#000000" font-family="Calibri,Calibri_MSFontService,sans-serif" font-size="13" x="-144.547" y="141">Level</tspan><tspan fill="#000000" font-family="Calibri,Calibri_MSFontService,sans-serif" font-size="13" x="-113.547" y="141">3</tspan><tspan fill="#000000" font-family="Calibri,Calibri_MSFontService,sans-serif" font-size="13" x="-144.547" y="77">Level</tspan><tspan fill="#000000" font-family="Calibri,Calibri_MSFontService,sans-serif" font-size="13" x="-113.547" y="77">4</tspan><tspan fill="#000000" font-family="Calibri,Calibri_MSFontService,sans-serif" font-size="13" x="-144.547" y="13">Level</tspan><tspan fill="#000000" font-family="Calibri,Calibri_MSFontService,sans-serif" font-size="13" x="-113.547" y="13">5</tspan><tspan fill="#000000" font-family="Arial,Arial_MSFontService,sans-serif" font-size="13" x="220.16" y="-27">•</tspan><tspan fill="#000000" font-size="13" x="238.16" y="-27">上</tspan><tspan fill="#000000" font-size="13" x="251.494" y="-27">のレベルに上がるには、下</tspan><tspan fill="#000000" font-size="13" x="238.16" y="-11">のレベルに到達していなけれ</tspan><tspan fill="#000000" font-size="13" x="238.16" y="5">ばならないという、段階的な</tspan><tspan fill="#000000" font-size="13" x="238.16" y="21">成長を前提としたモデル</tspan><tspan fill="#000000" font-family="Arial,Arial_MSFontService,sans-serif" font-size="13" x="220.16" y="37">•</tspan><tspan fill="#000000" font-family="Calibri,Calibri_MSFontService,sans-serif" font-size="13" x="238.16" y="37">Level</tspan><tspan fill="#000000" font-family="Calibri,Calibri_MSFontService,sans-serif" font-size="13" x="269.16" y="37">5</tspan><tspan fill="#000000" font-size="13" x="278.994" y="37">になって、ようやく、</tspan><tspan fill="#000000" font-size="13" x="238.16" y="53">ソフトウェア開発プロセスの</tspan><tspan fill="#000000" font-size="13" x="238.16" y="69">最適化を行えるレベルに達し</tspan><tspan fill="#000000" font-size="13" x="238.16" y="85">たことを意味し、</tspan><tspan fill="#000000" font-family="Calibri,Calibri_MSFontService,sans-serif" font-size="13" x="344.827" y="85">Level</tspan><tspan fill="#000000" font-family="Calibri,Calibri_MSFontService,sans-serif" font-size="13" x="375.827" y="85">5</tspan><tspan fill="#000000" font-size="13" x="385.66" y="85">に</tspan><tspan fill="#000000" font-size="13" x="238.16" y="101">なってお終いではない</tspan></text></g></svg>