<svg width="608" height="701" xmlns="http://www.w3.org/2000/svg" xmlns:xlink="http://www.w3.org/1999/xlink" overflow="hidden"><defs><clipPath id="clip0"><rect x="56" y="40" width="608" height="701"/></clipPath><clipPath id="clip1"><rect x="89" y="226" width="32" height="32"/></clipPath><clipPath id="clip2"><rect x="89" y="226" width="32" height="32"/></clipPath><clipPath id="clip3"><rect x="89" y="226" width="32" height="32"/></clipPath><clipPath id="clip4"><rect x="585" y="220" width="32" height="32"/></clipPath><clipPath id="clip5"><rect x="585" y="220" width="32" height="32"/></clipPath><clipPath id="clip6"><rect x="585" y="220" width="32" height="32"/></clipPath><clipPath id="clip7"><rect x="224" y="223" width="32" height="32"/></clipPath><clipPath id="clip8"><rect x="224" y="223" width="32" height="32"/></clipPath><clipPath id="clip9"><rect x="224" y="223" width="32" height="32"/></clipPath><clipPath id="clip10"><rect x="356" y="127" width="32" height="33"/></clipPath><clipPath id="clip11"><rect x="356" y="127" width="32" height="33"/></clipPath><clipPath id="clip12"><rect x="356" y="127" width="32" height="33"/></clipPath><clipPath id="clip13"><rect x="351" y="214" width="32" height="29"/></clipPath><clipPath id="clip14"><rect x="351" y="214" width="32" height="29"/></clipPath><clipPath id="clip15"><rect x="351" y="214" width="32" height="29"/></clipPath><clipPath id="clip16"><rect x="397" y="219" width="32" height="30"/></clipPath><clipPath id="clip17"><rect x="397" y="219" width="32" height="30"/></clipPath><clipPath id="clip18"><rect x="397" y="219" width="32" height="30"/></clipPath><clipPath id="clip19"><rect x="362" y="302" width="32" height="29"/></clipPath><clipPath id="clip20"><rect x="362" y="302" width="32" height="29"/></clipPath><clipPath id="clip21"><rect x="362" y="302" width="32" height="29"/></clipPath><clipPath id="clip22"><rect x="484" y="267" width="32" height="29"/></clipPath><clipPath id="clip23"><rect x="484" y="267" width="32" height="29"/></clipPath><clipPath id="clip24"><rect x="484" y="267" width="32" height="29"/></clipPath><clipPath id="clip25"><rect x="465" y="172" width="32" height="29"/></clipPath><clipPath id="clip26"><rect x="465" y="172" width="32" height="29"/></clipPath><clipPath id="clip27"><rect x="465" y="172" width="32" height="29"/></clipPath></defs><g clip-path="url(#clip0)" transform="translate(-56 -40)"><path d="M0 0 251.179 0.000104987" stroke="#000000" stroke-width="2" stroke-miterlimit="8" stroke-dasharray="2 2" stroke-opacity="0.301961" fill="none" fill-rule="evenodd" transform="matrix(1 0 0 -1 139 490)"/><path d="M0 0 251.179 0.000104987" stroke="#000000" stroke-width="2" stroke-miterlimit="8" stroke-dasharray="2 2" stroke-opacity="0.301961" fill="none" fill-rule="evenodd" transform="matrix(1 0 0 -1 140 525)"/><path d="M0 0 251.179 0.000104987" stroke="#000000" stroke-width="2" stroke-miterlimit="8" stroke-dasharray="2 2" stroke-opacity="0.301961" fill="none" fill-rule="evenodd" transform="matrix(1 0 0 -1 139 558)"/><path d="M0 0 251.179 0.000104987" stroke="#000000" stroke-width="2" stroke-miterlimit="8" stroke-dasharray="2 2" stroke-opacity="0.301961" fill="none" fill-rule="evenodd" transform="matrix(1 0 0 -1 139 593)"/><path d="M0 0 251.179 0.000104987" stroke="#000000" stroke-width="2" stroke-miterlimit="8" stroke-dasharray="2 2" stroke-opacity="0.301961" fill="none" fill-rule="evenodd" transform="matrix(1 0 0 -1 138 626)"/><path d="M0 0 251.179 0.000104987" stroke="#000000" stroke-width="2" stroke-miterlimit="8" stroke-dasharray="2 2" stroke-opacity="0.301961" fill="none" fill-rule="evenodd" transform="matrix(1 0 0 -1 138 657)"/><path d="M0 0 251.179 0.000104987" stroke="#000000" stroke-width="2" stroke-miterlimit="8" stroke-dasharray="2 2" stroke-opacity="0.301961" fill="none" fill-rule="evenodd" transform="matrix(1 0 0 -1 137 686)"/><rect x="243.5" y="584.5" width="15" height="15" stroke="#2F528F" stroke-width="1.33333" stroke-miterlimit="8" fill="#ED7D31"/><rect x="257.5" y="550.5" width="16" height="16" stroke="#2F528F" stroke-width="1.33333" stroke-miterlimit="8" fill="#ED7D31"/><rect x="242.5" y="517.5" width="15" height="15" stroke="#2F528F" stroke-width="1.33333" stroke-miterlimit="8" fill="#ED7D31"/><rect x="58.5001" y="41.5001" width="604" height="698" stroke="#D9D9D9" stroke-width="1.33333" stroke-miterlimit="8" fill="none"/><text font-family="Yu Gothic,Yu Gothic_MSFontService,sans-serif" font-weight="400" font-size="16" transform="translate(134.833 61)">データフローモデル<tspan font-size="16" x="147.667" y="0">と</tspan><tspan font-size="16" x="167.333" y="0">ガントチャート</tspan><tspan font-size="16" x="283" y="0">と</tspan><tspan font-size="16" x="302.667" y="0">クリティカルパス</tspan><tspan font-size="16" x="434.333" y="0">と</tspan></text><rect x="77" y="82" width="566" height="280" fill="#F2F2F2"/><text font-family="Yu Gothic,Yu Gothic_MSFontService,sans-serif" font-weight="400" font-size="13" transform="translate(253.333 99)">データフローモデル<tspan font-size="13" x="120" y="0">による作業工程</tspan></text><path d="M129 242C129 227.641 150.043 216 176 216 201.957 216 223 227.641 223 242 223 256.359 201.957 268 176 268 150.043 268 129 256.359 129 242Z" stroke="#4472C4" stroke-width="2" stroke-miterlimit="8" fill="#FFFFFF" fill-rule="evenodd"/><text font-family="Yu Gothic,Yu Gothic_MSFontService,sans-serif" font-weight="400" font-size="11" transform="translate(161.097 239)">工程<tspan font-family="Calibri,Calibri_MSFontService,sans-serif" font-size="11" x="23.6667" y="0">A</tspan><tspan font-family="Calibri,Calibri_MSFontService,sans-serif" font-size="11" x="-2" y="13">(3 days)</tspan></text><path d="M258 153C258 138.641 279.043 127 305 127 330.957 127 352 138.641 352 153 352 167.359 330.957 179 305 179 279.043 179 258 167.359 258 153Z" stroke="#4472C4" stroke-width="2" stroke-miterlimit="8" fill="#FFFFFF" fill-rule="evenodd"/><text font-family="Yu Gothic,Yu Gothic_MSFontService,sans-serif" font-weight="400" font-size="11" transform="translate(290.302 150)">工程<tspan font-family="Calibri,Calibri_MSFontService,sans-serif" font-size="11" x="23.6667" y="0">B</tspan><tspan font-family="Calibri,Calibri_MSFontService,sans-serif" font-size="11" x="-2.16666" y="13">(1</tspan><tspan font-family="Calibri,Calibri_MSFontService,sans-serif" font-size="11" x="8.66669" y="13">days</tspan><tspan font-family="Calibri,Calibri_MSFontService,sans-serif" font-size="11" x="28.5" y="13">)</tspan></text><path d="M258 238.5C258 224.417 279.043 213 305 213 330.957 213 352 224.417 352 238.5 352 252.583 330.957 264 305 264 279.043 264 258 252.583 258 238.5Z" stroke="#4472C4" stroke-width="2" stroke-miterlimit="8" fill="#FFFFFF" fill-rule="evenodd"/><text font-family="Yu Gothic,Yu Gothic_MSFontService,sans-serif" font-weight="400" font-size="11" transform="translate(290.382 236)">工程<tspan font-family="Calibri,Calibri_MSFontService,sans-serif" font-size="11" x="23.6667" y="0">C</tspan><tspan font-family="Calibri,Calibri_MSFontService,sans-serif" font-size="11" x="-2.24667" y="13">(2</tspan><tspan font-family="Calibri,Calibri_MSFontService,sans-serif" font-size="11" x="8.58667" y="13">days</tspan><tspan font-family="Calibri,Calibri_MSFontService,sans-serif" font-size="11" x="28.42" y="13">)</tspan></text><path d="M258 324.5C258 310.417 279.043 299 305 299 330.957 299 352 310.417 352 324.5 352 338.583 330.957 350 305 350 279.043 350 258 338.583 258 324.5Z" stroke="#4472C4" stroke-width="2" stroke-miterlimit="8" fill="#FFFFFF" fill-rule="evenodd"/><text font-family="Yu Gothic,Yu Gothic_MSFontService,sans-serif" font-weight="400" font-size="11" transform="translate(289.969 322)">工程<tspan font-family="Calibri,Calibri_MSFontService,sans-serif" font-size="11" x="23.6667" y="0">D</tspan><tspan font-family="Calibri,Calibri_MSFontService,sans-serif" font-size="11" x="-1.83334" y="13">(1</tspan><tspan font-family="Calibri,Calibri_MSFontService,sans-serif" font-size="11" x="9" y="13">days</tspan><tspan font-family="Calibri,Calibri_MSFontService,sans-serif" font-size="11" x="28.8333" y="13">)</tspan></text><path d="M359 187.5C359 173.417 380.043 162 406 162 431.957 162 453 173.417 453 187.5 453 201.583 431.957 213 406 213 380.043 213 359 201.583 359 187.5Z" stroke="#4472C4" stroke-width="2" stroke-miterlimit="8" fill="#FFFFFF" fill-rule="evenodd"/><text font-family="Yu Gothic,Yu Gothic_MSFontService,sans-serif" font-weight="400" font-size="11" transform="translate(391.335 185)">工程<tspan font-family="Calibri,Calibri_MSFontService,sans-serif" font-size="11" x="23.6667" y="0">E</tspan><tspan font-family="Calibri,Calibri_MSFontService,sans-serif" font-size="11" x="-2.5" y="13">(1</tspan><tspan font-family="Calibri,Calibri_MSFontService,sans-serif" font-size="11" x="8.33334" y="13">days</tspan><tspan font-family="Calibri,Calibri_MSFontService,sans-serif" font-size="11" x="28.1667" y="13">)</tspan></text><path d="M387 281.5C387 267.417 408.043 256 434 256 459.957 256 481 267.417 481 281.5 481 295.583 459.957 307 434 307 408.043 307 387 295.583 387 281.5Z" stroke="#4472C4" stroke-width="2" stroke-miterlimit="8" fill="#FFFFFF" fill-rule="evenodd"/><text font-family="Yu Gothic,Yu Gothic_MSFontService,sans-serif" font-weight="400" font-size="11" transform="translate(419.842 279)">工程<tspan font-family="Calibri,Calibri_MSFontService,sans-serif" font-size="11" x="23.6667" y="0">F</tspan><tspan font-family="Calibri,Calibri_MSFontService,sans-serif" font-size="11" x="-2.66666" y="13">(2</tspan><tspan font-family="Calibri,Calibri_MSFontService,sans-serif" font-size="11" x="8.16669" y="13">days</tspan><tspan font-family="Calibri,Calibri_MSFontService,sans-serif" font-size="11" x="28" y="13">)</tspan></text><path d="M488 238.5C488 224.417 509.043 213 535 213 560.957 213 582 224.417 582 238.5 582 252.583 560.957 264 535 264 509.043 264 488 252.583 488 238.5Z" stroke="#4472C4" stroke-width="2" stroke-miterlimit="8" fill="#FFFFFF" fill-rule="evenodd"/><text font-family="Yu Gothic,Yu Gothic_MSFontService,sans-serif" font-weight="400" font-size="11" transform="translate(520.787 236)">工程<tspan font-family="Calibri,Calibri_MSFontService,sans-serif" font-size="11" x="21.3333" y="0">G</tspan><tspan font-family="Calibri,Calibri_MSFontService,sans-serif" font-size="11" x="-2.91333" y="13">(2 days)</tspan></text><path d="M0.101371-0.658915 1.81438-0.395374 3.65414 0.422294 5.31441 1.6841 7.00839 3.37808 8.55574 5.50568 10.0256 7.93415 12.7448 13.6888 15.0174 20.5065 16.7812 28.1285 17.9146 36.2513 18.291 44.595 18.666 52.9075 18.6603 52.8454 19.7853 60.9079 19.7742 60.8485 21.5242 68.3485 21.5075 68.2892 23.7575 75.0392 23.7315 74.9731 26.3565 80.7231 26.3203 80.6548 27.7578 83.0298 27.7129 82.9646 29.2754 84.9646 29.2306 84.9129 30.7931 86.5379 30.7159 86.4692 32.2784 87.6567 32.1458 87.5783 33.8333 88.3283 33.6639 88.2786 33.9842 88.3279 33.7815 89.6457 33.3731 89.5829 31.5334 88.7652 29.8679 87.4994 28.2457 85.8124 26.6377 83.7542 25.1596 81.3121 22.5038 75.4945 20.2328 68.6815 18.4689 61.1221 17.3354 52.9987 16.959 44.655 16.584 36.3425 16.5897 36.4046 15.4647 28.3421 15.4755 28.4003 13.7255 20.8378 13.7425 20.8983 11.4925 14.1483 11.5222 14.2223 8.83474 8.53482 8.86717 8.5952 7.42967 6.2202 7.46084 6.26711 5.96084 4.20461 6.02859 4.2839 4.4036 2.6589 4.47161 2.71827 2.90911 1.53077 3.04174 1.60921 1.35424 0.859208 1.52363 0.908914-0.101371 0.658915ZM27.105 82.6398 35.1906 89.188 25.5107 93.003C25.1682 93.138 24.781 92.9697 24.646 92.6272 24.511 92.2846 24.6793 91.8975 25.0218 91.7625L33.6384 88.3665 33.4633 89.5049 26.2659 83.676C25.9798 83.4443 25.9357 83.0245 26.1674 82.7383 26.3991 82.4522 26.8189 82.4081 27.105 82.6398Z" fill="#4472C4" transform="matrix(1 0 0 -1 223.5 242.672)"/><path d="M223.601 241.841 225.304 242.103 227.138 242.85 228.797 244.045 230.501 245.618 233.508 249.776 236.238 255.109 238.514 261.431 240.279 268.494 241.414 275.996 241.791 283.718 242.166 291.405 242.159 291.338 243.284 298.775 243.272 298.713 245.022 305.713 245.002 305.649 247.252 311.899 247.221 311.827 249.846 317.077 249.786 316.979 252.786 321.042 252.712 320.957 254.274 322.457 254.202 322.397 255.765 323.522 255.627 323.445 257.314 324.133 257.164 324.091 257.484 324.14 257.282 325.458 256.884 325.397 255.05 324.65 253.385 323.451 251.747 321.879 248.68 317.725 246.011 312.388 243.736 306.069 241.971 299.006 240.836 291.504 240.459 283.783 240.084 276.095 240.091 276.162 238.966 268.725 238.978 268.787 237.228 261.787 237.248 261.851 234.998 255.601 235.032 255.679 232.344 250.429 232.397 250.516 229.46 246.453 229.548 246.552 227.923 245.052 227.986 245.104 226.423 243.979 226.561 244.055 224.874 243.367 225.024 243.409 223.399 243.159ZM250.605 318.452 258.691 325.001 249.011 328.815C248.668 328.951 248.281 328.782 248.146 328.44 248.011 328.097 248.179 327.71 248.522 327.575L257.138 324.179 256.963 325.317 249.766 319.489C249.48 319.257 249.436 318.837 249.667 318.551 249.899 318.265 250.319 318.221 250.605 318.452Z" fill="#4472C4"/><path d="M352.564 152.836 356.501 153.217 360.301 154.313 363.899 156.047 367.051 158.234 369.755 160.874 371.895 163.792 373.273 167.007 373.54 168.913 372.219 169.098 371.965 167.28 372.012 167.45 370.7 164.388 370.775 164.519 368.712 161.707 368.784 161.79 366.159 159.227 366.245 159.298 363.182 157.173 363.273 157.226 359.773 155.538 359.878 155.578 356.19 154.516 356.311 154.539 352.436 154.164ZM377.009 160.688 373.063 170.316 366.625 162.142C366.397 161.853 366.447 161.434 366.736 161.206 367.026 160.978 367.445 161.028 367.672 161.317L373.403 168.593 372.263 168.752 375.775 160.183C375.915 159.842 376.304 159.679 376.645 159.819 376.985 159.958 377.148 160.348 377.009 160.688Z" fill="#4472C4"/><path d="M0.0128181-0.666543 6.52766-0.541258 9.48962-0.352197 12.1927-0.100748 14.459 0.151061 16.2619 0.408626 17.5666 0.771039 18.0518 1.17535 18.4268 1.48785 18.1784 1.35765 19.3034 1.67015 19.2422 1.65621 20.9922 1.96871 20.9486 1.96241 23.1986 2.21241 23.1725 2.21003 25.7975 2.39753 25.7916 2.39713 28.7916 2.58463 28.7629 2.58346 33.8807 2.68283 33.8548 4.01591 28.7227 3.91626 25.7055 3.72768 23.0644 3.53904 20.7795 3.28516 18.9769 2.96326 17.6834 2.60396 17.1982 2.19965 16.8232 1.88715 17.0716 2.01735 15.9466 1.70485 16.0307 1.72247 14.2807 1.47247 14.3014 1.47509 12.0514 1.22509 12.0633 1.2263 9.37575 0.976301 9.39503 0.977813 6.45753 0.790313 6.48718 0.791543-0.0128181 0.666543ZM26.3069-2.04095 35.1906 3.37506 26.1033 8.44212C25.7818 8.62143 25.3757 8.5061 25.1964 8.18452 25.0171 7.86295 25.1324 7.4569 25.454 7.27759L33.5431 2.76711 33.5207 3.9186 25.6128-0.902501C25.2985-1.09416 25.199-1.50438 25.3906-1.81875 25.5823-2.13313 25.9925-2.23261 26.3069-2.04095Z" fill="#4472C4" transform="matrix(1 0 0 -1 223.5 242.847)"/><path d="M0.0642161-0.663567 2.06363-0.470075 4.13399 0.130996 7.95762 2.26964 11.5629 5.61742 14.6923 9.89635 17.3596 14.977 19.4533 20.5601 20.7865 26.5913 21.1334 31.4484 19.8035 31.5434 19.46 26.735 19.474 26.8314 18.1615 20.8939 18.1883 20.9841 16.1258 15.4841 16.1597 15.5599 13.5347 10.5599 13.5869 10.6435 10.5244 6.45605 10.6089 6.55103 7.10887 3.30103 7.23706 3.39434 3.54956 1.33184 3.68913 1.39023 1.75163 0.827731 1.87328 0.851067-0.0642161 0.663567ZM25.1516 23.4777 20.5627 32.8156 14.6932 24.2248C14.4855 23.9207 14.5636 23.5059 14.8676 23.2982 15.1716 23.0905 15.5864 23.1686 15.7941 23.4726L21.0189 31.1198 19.8701 31.2018 23.955 22.8897C24.1174 22.5592 24.5169 22.423 24.8473 22.5854 25.1778 22.7478 25.314 23.1473 25.1516 23.4777Z" fill="#4472C4" transform="matrix(1 0 0 -1 352.5 239.289)"/><path d="M0.041018-0.665404 9.20355-0.10059 18.155 1.47537 26.4787 3.99769 33.994 7.21853 40.3217 11.0785 42.9386 13.1847 45.2449 15.3629 47.0535 17.6882 48.4178 20.0271 49.3415 22.5341 49.4584 23.616 48.1328 23.7593 48.0247 22.7592 48.0619 22.918 47.1869 20.543 47.2366 20.6484 45.9241 18.3984 45.9738 18.4718 44.2238 16.2218 44.2922 16.2972 42.0422 14.1722 42.082 14.2068 39.5195 12.1443 39.5903 12.1941 33.3403 8.38164 33.4249 8.42526 25.9874 5.23776 26.0567 5.26302 17.8067 2.76302 17.8844 2.78157 9.00941 1.21907 9.08398 1.2279-0.041018 0.665404ZM53.184 15.5045 48.9378 25.0031 42.7597 16.6314C42.5411 16.3352 42.604 15.9178 42.9003 15.6992 43.1965 15.4805 43.6139 15.5435 43.8325 15.8397L49.332 23.2918 48.187 23.4156 51.9668 14.9603C52.117 14.6242 52.5113 14.4735 52.8475 14.6238 53.1836 14.774 53.3343 15.1683 53.184 15.5045Z" fill="#4472C4" transform="matrix(1 0 0 -1 352.5 325.453)"/><path d="M0.0957704-0.659752 4.0559-0.0848946 7.88652 1.53825 11.4976 4.05309 14.6397 7.32345 17.3243 11.0947 19.4357 15.3814 20.7826 19.9354 21.1019 23.3106 19.7745 23.4361 19.4613 20.1253 19.4857 20.2516 18.1732 15.8141 18.2144 15.9196 16.1519 11.7321 16.2069 11.8241 13.5819 8.13662 13.6443 8.21188 10.5818 5.02438 10.6815 5.10957 7.1815 2.67207 7.3024 2.73883 3.6149 1.17633 3.77923 1.22225-0.0957704 0.659752ZM24.9357 15.2496 20.5628 24.6906 14.4972 16.237C14.2826 15.9379 14.3511 15.5214 14.6502 15.3067 14.9494 15.0921 15.3659 15.1606 15.5805 15.4597L20.9798 22.9847 19.8333 23.0932 23.7258 14.6893C23.8805 14.3552 24.2768 14.2098 24.6109 14.3645 24.945 14.5193 25.0904 14.9155 24.9357 15.2496Z" fill="#4472C4" transform="matrix(1 0 0 -1 481.5 282.143)"/><path d="M0.0527442-0.664577 4.04291-0.347897 8.01176 0.612308 11.6588 2.01993 15.0006 3.88365 17.7742 6.14121 19.9917 8.61955 21.387 11.3438 21.9049 14.0628 22.4049 16.6878 22.3463 16.5144 23.6588 19.1394 23.5593 18.993 25.6843 21.368 25.601 21.2896 28.2885 23.4146 28.2045 23.358 31.392 25.1705 31.3083 25.1303 34.9333 26.5678 34.8366 26.5377 38.6491 27.4127 38.5527 27.3979 41.1744 27.606 41.0689 28.9351 38.3985 28.7232 34.4889 27.8259 30.7735 26.3525 27.5013 24.4919 24.729 22.2998 22.5061 19.8155 21.1124 17.028 20.5951 14.3122 20.0951 11.6872 20.1566 11.8664 18.8441 9.30392 18.9407 9.44453 16.8157 7.06953 16.8917 7.14204 14.2042 4.95454 14.3003 5.01974 11.0503 3.20724 11.1349 3.24695 7.57245 1.87195 7.65573 1.89797 3.78073 0.960472 3.88476 0.977077-0.0527442 0.664577ZM33.8963 22.4381 42.4406 28.3752 33.0668 32.8903C32.7351 33.0501 32.3367 32.9107 32.1769 32.579 32.0171 32.2473 32.1565 31.8488 32.4882 31.6891L40.8323 27.6699 40.7412 28.818 33.1355 23.5331C32.8331 23.323 32.7583 22.9075 32.9684 22.6052 33.1785 22.3028 33.594 22.228 33.8963 22.4381Z" fill="#4472C4" transform="matrix(1.83697e-16 1 1 -1.83697e-16 406.5 213.5)"/><path d="M453.527 187.834 458.117 188.023 462.742 188.593 471.699 190.674 480.038 193.96 487.499 198.196 493.888 203.256 496.503 205.998 498.799 208.869 500.594 211.882 501.941 214.961 502.847 218.13 502.995 219.943 501.666 220.051 501.523 218.304 501.547 218.433 500.672 215.371 500.702 215.455 499.389 212.455 499.427 212.529 497.677 209.591 497.729 209.667 495.479 206.854 495.518 206.898 492.955 204.21 493.024 204.273 486.711 199.273 486.796 199.33 479.421 195.142 479.506 195.183 471.256 191.933 471.349 191.962 462.474 189.899 462.543 189.912 457.981 189.349 458.035 189.354 453.473 189.166ZM506.932 211.932 502.438 221.316 496.481 212.785C496.271 212.483 496.345 212.067 496.646 211.857 496.948 211.646 497.364 211.72 497.575 212.021L502.877 219.615 501.729 219.709 505.729 211.356C505.888 211.024 506.286 210.883 506.618 211.042 506.95 211.202 507.091 211.6 506.932 211.932Z" fill="#4472C4"/><path d="M89.5001 241.833 127.929 241.833 127.929 243.167 89.5001 243.167ZM120.264 237.258 129.252 242.5 120.264 247.743C119.946 247.928 119.538 247.821 119.353 247.503 119.167 247.185 119.275 246.776 119.593 246.591L127.593 241.924 127.593 243.076 119.593 238.409C119.275 238.224 119.167 237.816 119.353 237.498 119.538 237.18 119.946 237.072 120.264 237.258Z" fill="#4472C4"/><g clip-path="url(#clip1)"><g clip-path="url(#clip2)"><g clip-path="url(#clip3)"><path d="M97.8636 250.636 112.136 250.636 112.136 252 97.8636 252Z" fill="#4B4B4B"/><path d="M97.8636 245.105 112.136 245.105 112.136 246.469 97.8636 246.469Z" fill="#4B4B4B"/><path d="M97.8636 239.575 112.136 239.575 112.136 240.939 97.8636 240.939Z" fill="#4B4B4B"/><path d="M105.409 234.045 112.136 234.045 112.136 235.409 105.409 235.409Z" fill="#4B4B4B"/><path d="M114.727 226 102.922 226C102.075 226 101.262 226.337 100.663 226.936L93.2996 234.299C92.7002 234.898 92.3636 235.712 92.3636 236.559L92.3636 255.09C92.3636 256.695 93.6692 258 95.2736 258L114.727 258C116.331 258 117.636 256.695 117.636 255.09L117.636 228.909C117.636 227.305 116.331 226 114.727 226ZM101.891 228.022 101.891 234.563C101.891 235.27 101.615 235.545 100.908 235.545L94.3673 235.545 101.891 228.022ZM116 255.09C116 255.793 115.428 256.363 114.727 256.363L95.2736 256.363C94.5713 256.363 93.9999 255.793 93.9999 255.09L93.9999 237 101.785 237C102.645 237 103.346 236.299 103.346 235.438L103.346 227.637 114.727 227.637C115.428 227.637 116 228.207 116 228.909L116 255.09Z" fill="#4B4B4B"/></g></g></g><g clip-path="url(#clip4)"><g clip-path="url(#clip5)"><g clip-path="url(#clip6)"><path d="M593.864 244.636 608.136 244.636 608.136 246 593.864 246Z" fill="#4B4B4B"/><path d="M593.864 239.105 608.136 239.105 608.136 240.469 593.864 240.469Z" fill="#4B4B4B"/><path d="M593.864 233.575 608.136 233.575 608.136 234.939 593.864 234.939Z" fill="#4B4B4B"/><path d="M601.409 228.045 608.136 228.045 608.136 229.409 601.409 229.409Z" fill="#4B4B4B"/><path d="M610.727 220 598.922 220C598.075 220 597.262 220.337 596.663 220.936L589.3 228.299C588.7 228.898 588.364 229.712 588.364 230.559L588.364 249.09C588.364 250.695 589.669 252 591.274 252L610.727 252C612.331 252 613.636 250.695 613.636 249.09L613.636 222.909C613.636 221.305 612.331 220 610.727 220ZM597.891 222.022 597.891 228.563C597.891 229.27 597.615 229.545 596.908 229.545L590.367 229.545 597.891 222.022ZM612 249.09C612 249.793 611.429 250.363 610.727 250.363L591.274 250.363C590.571 250.363 590 249.793 590 249.09L590 231 597.784 231C598.645 231 599.346 230.299 599.346 229.438L599.346 221.637 610.727 221.637C611.429 221.637 612 222.207 612 222.909L612 249.09Z" fill="#4B4B4B"/></g></g></g><path d="M582.5 238.833 634.929 238.833 634.929 240.167 582.5 240.167ZM627.264 234.258 636.252 239.5 627.264 244.743C626.946 244.928 626.538 244.821 626.353 244.503 626.167 244.185 626.275 243.776 626.593 243.591L634.593 238.924 634.593 240.076 626.593 235.409C626.275 235.224 626.167 234.816 626.353 234.498 626.538 234.18 626.946 234.072 627.264 234.258Z" fill="#4472C4"/><g clip-path="url(#clip7)"><g clip-path="url(#clip8)"><g clip-path="url(#clip9)"><path d="M232.864 247.636 247.136 247.636 247.136 249 232.864 249Z" stroke="#FF0000" stroke-width="0.0624672" fill="#FF0000"/><path d="M232.864 242.105 247.136 242.105 247.136 243.469 232.864 243.469Z" stroke="#FF0000" stroke-width="0.0624672" fill="#FF0000"/><path d="M232.864 236.575 247.136 236.575 247.136 237.939 232.864 237.939Z" stroke="#FF0000" stroke-width="0.0624672" fill="#FF0000"/><path d="M240.409 231.045 247.136 231.045 247.136 232.409 240.409 232.409Z" stroke="#FF0000" stroke-width="0.0624672" fill="#FF0000"/><path d="M249.727 223 237.922 223C237.075 223 236.262 223.337 235.663 223.936L228.3 231.299C227.7 231.898 227.364 232.712 227.364 233.559L227.364 252.09C227.364 253.695 228.669 255 230.274 255L249.727 255C251.331 255 252.636 253.695 252.636 252.09L252.636 225.909C252.636 224.305 251.331 223 249.727 223ZM236.891 225.022 236.891 231.563C236.891 232.27 236.615 232.545 235.908 232.545L229.367 232.545 236.891 225.022ZM251 252.09C251 252.793 250.428 253.363 249.727 253.363L230.274 253.363C229.571 253.363 229 252.793 229 252.09L229 234 236.785 234C237.645 234 238.346 233.299 238.346 232.438L238.346 224.637 249.727 224.637C250.428 224.637 251 225.207 251 225.909L251 252.09Z" stroke="#FF0000" stroke-width="0.0624672" fill="#FF0000"/></g></g></g><g clip-path="url(#clip10)"><g clip-path="url(#clip11)"><g clip-path="url(#clip12)"><path d="M8.86362 24.6363 23.1364 24.6363 23.1364 26.0001 8.86362 26.0001Z" fill="#4B4B4B" transform="matrix(1 0 0 1.03125 356 127)"/><path d="M8.86362 19.1055 23.1364 19.1055 23.1364 20.4692 8.86362 20.4692Z" fill="#4B4B4B" transform="matrix(1 0 0 1.03125 356 127)"/><path d="M8.86362 13.5752 23.1364 13.5752 23.1364 14.9394 8.86362 14.9394Z" fill="#4B4B4B" transform="matrix(1 0 0 1.03125 356 127)"/><path d="M16.4091 8.04531 23.1364 8.04531 23.1364 9.40906 16.4091 9.40906Z" fill="#4B4B4B" transform="matrix(1 0 0 1.03125 356 127)"/><path d="M25.7266 0 13.9224 0C13.0749 0 12.2621 0.336875 11.6629 0.935562L4.29962 8.29925C3.70025 8.89844 3.36363 9.7115 3.36363 10.559L3.36363 29.0903C3.36363 30.6946 4.66919 32 6.27362 32L25.7266 32C27.3307 32 28.6363 30.6946 28.6363 29.0903L28.6363 2.90887C28.6364 1.30488 27.3307 0 25.7266 0ZM12.8907 2.02181 12.8907 8.56256C12.8907 9.26962 12.6154 9.54519 11.9084 9.54519L5.36731 9.54519 12.8907 2.02181ZM27.0001 29.0903C27.0001 29.7926 26.4285 30.3635 25.7266 30.3635L6.27362 30.3635C5.57131 30.3635 4.99988 29.7926 4.99988 29.0903L4.99988 10.9999 12.7845 10.9999C13.6451 10.9999 14.3456 10.2994 14.3456 9.43831L14.3456 1.6365 25.7266 1.6365C26.4285 1.6365 27.0001 2.20694 27.0001 2.90887L27.0001 29.0903Z" fill="#4B4B4B" transform="matrix(1 0 0 1.03125 356 127)"/></g></g></g><g clip-path="url(#clip13)"><g clip-path="url(#clip14)"><g clip-path="url(#clip15)"><path d="M8.03266 22.3267 20.9674 22.3267 20.9674 23.5626 8.03266 23.5626Z" fill="#FF0000" transform="matrix(1.10345 0 0 1 351 214)"/><path d="M8.03266 17.3144 20.9674 17.3144 20.9674 18.5503 8.03266 18.5503Z" fill="#FF0000" transform="matrix(1.10345 0 0 1 351 214)"/><path d="M8.03266 12.3025 20.9674 12.3025 20.9674 13.5388 8.03266 13.5388Z" fill="#FF0000" transform="matrix(1.10345 0 0 1 351 214)"/><path d="M14.8708 7.29106 20.9673 7.29106 20.9673 8.52696 14.8708 8.52696Z" fill="#FF0000" transform="matrix(1.10345 0 0 1 351 214)"/><path d="M23.3148 0 12.6172 0C11.8492 0 11.1126 0.305293 10.5695 0.847853L3.89654 7.52119C3.35335 8.06421 3.04829 8.80105 3.04829 9.56909L3.04829 26.363C3.04829 27.817 4.23145 29 5.68547 29L23.3147 29C24.7685 29 25.9517 27.817 25.9517 26.363L25.9517 2.63617C25.9517 1.18254 24.7685 0 23.3148 0ZM11.6822 1.83227 11.6822 7.75982C11.6822 8.4006 11.4327 8.65033 10.792 8.65033L4.86413 8.65033 11.6822 1.83227ZM24.4689 26.363C24.4689 26.9995 23.9508 27.5169 23.3148 27.5169L5.68547 27.5169C5.049 27.5169 4.53114 26.9995 4.53114 26.363L4.53114 9.96864 11.586 9.96864C12.3659 9.96864 13.0007 9.33387 13.0007 8.55347L13.0007 1.48308 23.3148 1.48308C23.9508 1.48308 24.4689 2.00004 24.4689 2.63617L24.4689 26.363Z" fill="#FF0000" transform="matrix(1.10345 0 0 1 351 214)"/></g></g></g><g clip-path="url(#clip16)"><g clip-path="url(#clip17)"><g clip-path="url(#clip18)"><path d="M8.30965 23.0965 21.6904 23.0965 21.6904 24.3751 8.30965 24.3751Z" fill="#FF0000" transform="matrix(1.06667 0 0 1 397 219)"/><path d="M8.30965 17.9114 21.6904 17.9114 21.6904 19.1899 8.30965 19.1899Z" fill="#FF0000" transform="matrix(1.06667 0 0 1 397 219)"/><path d="M8.30965 12.7267 21.6904 12.7267 21.6904 14.0057 8.30965 14.0057Z" fill="#FF0000" transform="matrix(1.06667 0 0 1 397 219)"/><path d="M15.3836 7.54248 21.6903 7.54248 21.6903 8.821 15.3836 8.821Z" fill="#FF0000" transform="matrix(1.06667 0 0 1 397 219)"/><path d="M24.1187 0 13.0522 0C12.2578 0 11.4957 0.31582 10.9339 0.87709L4.0309 7.78055C3.46898 8.34229 3.1534 9.10453 3.1534 9.89906L3.1534 27.2721C3.1534 28.7762 4.37736 30 5.88152 30L24.1187 30C25.6226 30 26.8465 28.7762 26.8465 27.2721L26.8465 2.72707C26.8466 1.22332 25.6226 0 24.1187 0ZM12.0851 1.89545 12.0851 8.0274C12.0851 8.69027 11.827 8.94861 11.1641 8.94861L5.03186 8.94861 12.0851 1.89545ZM25.3126 27.2721C25.3126 27.9305 24.7767 28.4658 24.1187 28.4658L5.88152 28.4658C5.22311 28.4658 4.68738 27.9305 4.68738 27.2721L4.68738 10.3124 11.9855 10.3124C12.7923 10.3124 13.449 9.65572 13.449 8.84842L13.449 1.53422 24.1187 1.53422C24.7767 1.53422 25.3126 2.069 25.3126 2.72707L25.3126 27.2721Z" fill="#FF0000" transform="matrix(1.06667 0 0 1 397 219)"/></g></g></g><g clip-path="url(#clip19)"><g clip-path="url(#clip20)"><g clip-path="url(#clip21)"><path d="M8.03266 22.3267 20.9674 22.3267 20.9674 23.5626 8.03266 23.5626Z" fill="#4B4B4B" transform="matrix(1.10345 0 0 1 362 302)"/><path d="M8.03266 17.3144 20.9674 17.3144 20.9674 18.5503 8.03266 18.5503Z" fill="#4B4B4B" transform="matrix(1.10345 0 0 1 362 302)"/><path d="M8.03266 12.3025 20.9674 12.3025 20.9674 13.5388 8.03266 13.5388Z" fill="#4B4B4B" transform="matrix(1.10345 0 0 1 362 302)"/><path d="M14.8708 7.29106 20.9673 7.29106 20.9673 8.52696 14.8708 8.52696Z" fill="#4B4B4B" transform="matrix(1.10345 0 0 1 362 302)"/><path d="M23.3148 0 12.6172 0C11.8492 0 11.1126 0.305293 10.5695 0.847853L3.89654 7.52119C3.35335 8.06421 3.04829 8.80105 3.04829 9.56909L3.04829 26.363C3.04829 27.817 4.23145 29 5.68547 29L23.3147 29C24.7685 29 25.9517 27.817 25.9517 26.363L25.9517 2.63617C25.9517 1.18254 24.7685 0 23.3148 0ZM11.6822 1.83227 11.6822 7.75982C11.6822 8.4006 11.4327 8.65033 10.792 8.65033L4.86413 8.65033 11.6822 1.83227ZM24.4689 26.363C24.4689 26.9995 23.9508 27.5169 23.3148 27.5169L5.68547 27.5169C5.049 27.5169 4.53114 26.9995 4.53114 26.363L4.53114 9.96864 11.586 9.96864C12.3659 9.96864 13.0007 9.33387 13.0007 8.55347L13.0007 1.48308 23.3148 1.48308C23.9508 1.48308 24.4689 2.00004 24.4689 2.63617L24.4689 26.363Z" fill="#4B4B4B" transform="matrix(1.10345 0 0 1 362 302)"/></g></g></g><g clip-path="url(#clip22)"><g clip-path="url(#clip23)"><g clip-path="url(#clip24)"><path d="M8.03266 22.3267 20.9674 22.3267 20.9674 23.5626 8.03266 23.5626Z" fill="#FF0000" transform="matrix(1.10345 0 0 1 484 267)"/><path d="M8.03266 17.3144 20.9674 17.3144 20.9674 18.5503 8.03266 18.5503Z" fill="#FF0000" transform="matrix(1.10345 0 0 1 484 267)"/><path d="M8.03266 12.3025 20.9674 12.3025 20.9674 13.5388 8.03266 13.5388Z" fill="#FF0000" transform="matrix(1.10345 0 0 1 484 267)"/><path d="M14.8708 7.29106 20.9673 7.29106 20.9673 8.52696 14.8708 8.52696Z" fill="#FF0000" transform="matrix(1.10345 0 0 1 484 267)"/><path d="M23.3148 0 12.6172 0C11.8492 0 11.1126 0.305293 10.5695 0.847853L3.89654 7.52119C3.35335 8.06421 3.04829 8.80105 3.04829 9.56909L3.04829 26.363C3.04829 27.817 4.23145 29 5.68547 29L23.3147 29C24.7685 29 25.9517 27.817 25.9517 26.363L25.9517 2.63617C25.9517 1.18254 24.7685 0 23.3148 0ZM11.6822 1.83227 11.6822 7.75982C11.6822 8.4006 11.4327 8.65033 10.792 8.65033L4.86413 8.65033 11.6822 1.83227ZM24.4689 26.363C24.4689 26.9995 23.9508 27.5169 23.3148 27.5169L5.68547 27.5169C5.049 27.5169 4.53114 26.9995 4.53114 26.363L4.53114 9.96864 11.586 9.96864C12.3659 9.96864 13.0007 9.33387 13.0007 8.55347L13.0007 1.48308 23.3148 1.48308C23.9508 1.48308 24.4689 2.00004 24.4689 2.63617L24.4689 26.363Z" fill="#FF0000" transform="matrix(1.10345 0 0 1 484 267)"/></g></g></g><g clip-path="url(#clip25)"><g clip-path="url(#clip26)"><g clip-path="url(#clip27)"><path d="M8.03266 22.3267 20.9674 22.3267 20.9674 23.5626 8.03266 23.5626Z" fill="#4B4B4B" transform="matrix(1.10345 0 0 1 465 172)"/><path d="M8.03266 17.3144 20.9674 17.3144 20.9674 18.5503 8.03266 18.5503Z" fill="#4B4B4B" transform="matrix(1.10345 0 0 1 465 172)"/><path d="M8.03266 12.3025 20.9674 12.3025 20.9674 13.5388 8.03266 13.5388Z" fill="#4B4B4B" transform="matrix(1.10345 0 0 1 465 172)"/><path d="M14.8708 7.29106 20.9673 7.29106 20.9673 8.52696 14.8708 8.52696Z" fill="#4B4B4B" transform="matrix(1.10345 0 0 1 465 172)"/><path d="M23.3148 0 12.6172 0C11.8492 0 11.1126 0.305293 10.5695 0.847853L3.89654 7.52119C3.35335 8.06421 3.04829 8.80105 3.04829 9.56909L3.04829 26.363C3.04829 27.817 4.23145 29 5.68547 29L23.3147 29C24.7685 29 25.9517 27.817 25.9517 26.363L25.9517 2.63617C25.9517 1.18254 24.7685 0 23.3148 0ZM11.6822 1.83227 11.6822 7.75982C11.6822 8.4006 11.4327 8.65033 10.792 8.65033L4.86413 8.65033 11.6822 1.83227ZM24.4689 26.363C24.4689 26.9995 23.9508 27.5169 23.3148 27.5169L5.68547 27.5169C5.049 27.5169 4.53114 26.9995 4.53114 26.363L4.53114 9.96864 11.586 9.96864C12.3659 9.96864 13.0007 9.33387 13.0007 8.55347L13.0007 1.48308 23.3148 1.48308C23.9508 1.48308 24.4689 2.00004 24.4689 2.63617L24.4689 26.363Z" fill="#4B4B4B" transform="matrix(1.10345 0 0 1 465 172)"/></g></g></g><rect x="240.5" y="517.5" width="16" height="15" stroke="#2F528F" stroke-width="1.33333" stroke-miterlimit="8" fill="#70AD47"/><rect x="226.5" y="483.5" width="16" height="16" stroke="#2F528F" stroke-width="1.33333" stroke-miterlimit="8" fill="#ED7D31"/><rect x="240.5" y="550.5" width="31" height="16" stroke="#FF0000" stroke-width="1.33333" stroke-miterlimit="8" fill="#4472C4"/><rect x="193.5" y="483.5" width="47" height="16" stroke="#FF0000" stroke-width="1.33333" stroke-miterlimit="8" fill="#4472C4"/><rect x="240.5" y="584.5" width="16" height="15" stroke="#2F528F" stroke-width="1.33333" stroke-miterlimit="8" fill="#70AD47"/><path d="M0.0277537 0.666089-4.47225 0.853589-4.41377 0.848567-8.72627 1.41107-8.68176 1.40372-12.7443 2.21622-12.6875 2.20225-16.3125 3.26475-16.2481 3.24223-19.3106 4.49223-19.2173 4.44533-21.5923 5.88283-21.4661 5.7839-22.9661 7.2839-22.8102 7.03831-23.3727 8.60081-23.3727 8.14919-22.8102 9.71169-22.9661 9.4661-21.4036 11.0286-21.5363 10.9258-19.0988 12.3633-19.1941 12.3169-16.0066 13.5669-16.0683 13.5461-12.3183 14.6086-12.373 14.5955-8.18551 15.408-8.22866 15.4011-3.79116 15.9636-3.84799 15.9589 0.777005 16.1464 5.43052 16.335 9.91802 16.9039 14.1546 17.7259 17.9631 18.805 21.2304 20.0863 23.7806 21.5902 25.5119 23.2522 26.2086 25.1875 25.5143 27.116 23.8518 28.7785 21.3629 30.2849 18.2203 31.5676 14.5344 32.648 10.4211 33.4706 6.0571 34.0399 2.84661 34.1736 2.7911 32.8415 5.97225 32.7089 5.91377 32.7139 10.2263 32.1514 10.1818 32.1588 14.2443 31.3463 14.1875 31.3602 17.8125 30.2977 17.7481 30.3203 20.8106 29.0703 20.7173 29.1172 23.0923 27.6797 22.9661 27.7786 24.4661 26.2786 24.3102 26.5242 24.8727 24.9617 24.8727 25.4133 24.3102 23.8508 24.4758 24.1059 22.9133 22.6059 23.0363 22.6992 20.5988 21.2617 20.6941 21.3081 17.5066 20.0581 17.5683 20.0789 13.8183 19.0164 13.873 19.0295 9.68551 18.217 9.72866 18.2239 5.29116 17.6614 5.34799 17.6661 0.722995 17.4786-3.93052 17.29-8.41802 16.7211-12.6546 15.8991-16.4631 14.82-19.7304 13.5387-22.2866 12.0312-24.0143 10.3035-24.7086 8.375-24.0143 6.44647-22.3518 4.78399-19.8629 3.27755-16.7203 1.99486-13.0344 0.914518-8.92111 0.0918527-4.5571-0.477366-0.0277537-0.666089ZM10.6945 38.4265 1.49691 33.5626 10.2581 27.9505C10.5681 27.7519 10.9804 27.8423 11.179 28.1523 11.3776 28.4623 11.2873 28.8747 10.9772 29.0733L3.17845 34.0689 3.13051 32.9182 11.3178 37.2478C11.6433 37.4199 11.7676 37.8233 11.5955 38.1488 11.4234 38.4743 11.02 38.5986 10.6945 38.4265Z" fill="#4472C4" transform="matrix(-1 0 0 1 241.977 491.5)"/><path d="M0.0518519 0.664647-8.76065 1.35215-8.69147 1.34309-12.754 2.09309-12.6977 2.08016-16.3227 3.08016-16.259 3.05907-19.3215 4.24657-19.24 4.20849-21.615 5.52099-21.4762 5.41883-22.9762 6.85633-22.8167 6.61793-23.3792 8.05543-23.3532 7.65081-23.1657 8.40081-23.3192 8.11405-22.6942 8.80155-22.8286 8.6882-20.5786 10.1257-20.707 10.0619-17.1445 11.3744-17.2071 11.3548-12.6446 12.5423-12.6919 12.5318-7.25442 13.5318-7.29315 13.5259-1.23065 14.2759-1.26137 14.2728 5.23863 14.7728 5.20618 14.7711 11.9123 14.9591 18.6728 15.5278 25.2126 17.1786 31.3647 19.779 36.8895 23.0811 41.5408 27.0315 45.1907 31.5139 47.5031 36.2671 48.1601 38.7637 48.3568 41.321 48.0929 43.8938 47.239 46.3897 45.9402 48.8575 44.2011 51.1763 42.0884 53.4811 39.5259 55.6592 33.5777 59.5825 26.4974 62.9329 18.606 65.5213 10.211 67.1625 2.86059 67.6418 2.77381 66.3113 10.0816 65.8347 9.9971 65.8457 18.3096 64.2207 18.2297 64.2415 26.0422 61.679 25.9648 61.7099 32.9648 58.3974 32.8829 58.4435 38.7579 54.5685 38.6932 54.617 41.1932 52.492 41.1336 52.5495 43.1961 50.2995 43.1542 50.35 44.8417 48.1 44.7851 48.1895 46.0351 45.8145 45.9942 45.9092 46.8067 43.5342 46.7743 43.682 47.0243 41.2445 47.0228 41.3636 46.8353 38.9261 46.8553 39.0447 46.2303 36.6697 46.2755 36.7916 44.0255 32.1666 44.108 32.296 40.5455 27.9209 40.6309 28.0081 36.0684 24.1331 36.158 24.1972 30.7205 20.9472 30.8029 20.9891 24.7404 18.4266 24.8368 18.4589 18.3993 16.8339 18.5066 16.8518 11.8191 16.2893 11.8563 16.2914 5.15257 16.1034-1.37903 15.601-7.4763 14.8467-12.9569 13.8388-17.5747 12.6369-21.2356 11.2881-23.6211 9.76406-24.4186 8.88687-24.6984 7.76774-24.0048 5.9953-22.336 4.39604-19.8455 3.01971-16.7097 1.80378-13.0244 0.787156-8.89918 0.0255699-0.0518519-0.664647ZM10.8062 71.7092 1.49692 67.0627 10.1239 61.2464C10.4291 61.0406 10.8435 61.1212 11.0493 61.4265 11.2551 61.7318 11.1745 62.1461 10.8692 62.3519L3.18988 67.5294 3.11493 66.3801 11.4017 70.5162C11.7311 70.6807 11.8649 71.081 11.7004 71.4105 11.536 71.7399 11.1357 71.8736 10.8062 71.7092Z" fill="#FF0000" transform="matrix(-1 0 0 1 241.977 491.5)"/><path d="M0.0837201 0.661389-4.85378 1.28639-4.68682 1.24274-8.99932 2.99274-8.8802 2.9297-10.5677 4.0547-10.4777 3.98276-11.7902 5.23276-11.6876 5.10792-12.5626 6.48292-12.4749 6.27275-12.7874 7.64775-12.811 7.27217-12.561 7.95967-12.6942 7.73905-12.0692 8.42655-12.2003 8.31529-11.1378 9.00279-11.2342 8.95112-9.79668 9.57612-9.85168 9.55504-5.91418 10.8675-5.98038 10.8492-0.91788 11.9742-0.958525 11.9665 4.97897 12.904 4.9493 12.9 11.6368 13.65 11.6034 13.6471 18.7284 14.0846 18.7044 14.0835 26.0935 14.2714 29.8339 14.525 33.6031 15.2277 37.3028 16.4397 40.8627 18.0289 44.3579 19.999 47.6685 22.3546 53.742 27.8586 58.8106 34.4479 62.7952 41.7845 64.2597 45.6688 65.3404 49.61 65.9759 53.6776 66.2311 57.7604 65.8461 61.8675 64.7552 65.9743 62.966 69.9362 60.6123 73.8166 57.6916 77.5626 54.2097 81.1712 50.2903 84.5848 45.9329 87.7424 41.2018 90.6441 36.1604 93.2279 30.8066 95.5583 25.2609 97.5119 19.4661 99.0866 13.5421 100.284 7.55229 100.978 2.84661 101.174 2.7911 99.8415 7.47225 99.6464 7.42332 99.6503 13.3608 98.9628 13.3054 98.9715 19.1804 97.784 19.1377 97.7942 24.8877 96.2317 24.841 96.2462 30.341 94.3087 30.2964 94.3262 35.6089 92.0137 35.5709 92.0317 40.5709 89.4692 40.5264 89.4942 45.2139 86.6192 45.1713 86.6477 49.4838 83.5227 49.4371 83.5598 53.3121 80.1848 53.2703 80.2246 56.7078 76.6621 56.6617 76.7151 59.5367 73.0276 59.4925 73.0918 61.805 69.2793 61.7674 69.3506 63.5174 65.4756 63.4807 65.5788 64.5432 61.5788 64.5237 61.6878 64.8987 57.6878 64.8971 57.7916 64.6471 53.7916 64.6538 53.8529 64.0288 49.8529 64.0446 49.9263 62.9821 46.0513 63.0012 46.1102 61.5637 42.2977 61.6017 42.3807 57.6642 35.1307 57.7216 35.219 52.7216 28.719 52.8023 28.8065 46.8023 23.369 46.8635 23.4182 43.6135 21.1057 43.6727 21.1433 40.2352 19.2058 40.2907 19.2338 36.7907 17.6713 36.855 17.696 33.23 16.5085 33.3153 16.5304 29.6278 15.8429 29.7049 15.8526 26.0174 15.6026 26.0456 15.604 18.6586 15.4161 11.5049 14.9769 4.78582 14.2233-1.18692 13.2803-6.30319 12.1433-10.3013 10.8106-11.8161 10.152-12.9975 9.38761-13.7691 8.53876-14.1311 7.54351-13.7495 5.86457-12.7687 4.32339-11.3554 2.97737-9.56344 1.78273-5.10755-0.0254614-0.0837201-0.661389ZM10.6946 105.426 1.49691 100.563 10.258 94.9505C10.5681 94.7519 10.9804 94.8422 11.179 95.1523 11.3776 95.4623 11.2873 95.8746 10.9772 96.0732L3.17845 101.069 3.1305 99.9182 11.3179 104.248C11.6433 104.42 11.7677 104.823 11.5955 105.149 11.4234 105.474 11.02 105.599 10.6946 105.426Z" fill="#4472C4" transform="matrix(-1 0 0 1 241.977 491.5)"/><rect x="273.5" y="618.5" width="15" height="16" stroke="#2F528F" stroke-width="1.33333" stroke-miterlimit="8" fill="#ED7D31"/><rect x="271.5" y="618.5" width="15" height="16" stroke="#FF0000" stroke-width="1.33333" stroke-miterlimit="8" fill="#4472C4"/><rect x="304.5" y="649.5" width="15" height="15" stroke="#2F528F" stroke-width="1.33333" stroke-miterlimit="8" fill="#ED7D31"/><rect x="287.5" y="649.5" width="31" height="15" stroke="#FF0000" stroke-width="1.33333" stroke-miterlimit="8" fill="#4472C4"/><rect x="335.5" y="679.5" width="15" height="15" stroke="#2F528F" stroke-width="1.33333" stroke-miterlimit="8" fill="#ED7D31"/><rect x="318.5" y="679.5" width="30" height="15" stroke="#FF0000" stroke-width="1.33333" stroke-miterlimit="8" fill="#4472C4"/><path d="M257.798 524.904 258.56 525.285 259.325 526.279 259.996 527.756 260.639 529.682 261.274 532.032 261.844 534.756 262.849 541.287 263.726 549.061 264.415 557.645 264.854 566.855 264.979 576.366 265.104 585.866 265.103 585.843 265.541 594.968 265.54 594.947 266.227 603.572 266.225 603.55 267.1 611.237 267.096 611.211 268.096 617.711 268.09 617.676 268.653 620.363 268.644 620.326 269.269 622.639 269.258 622.602 269.883 624.477 269.857 624.412 270.482 625.787 270.403 625.656 270.629 625.949 269.572 626.762 269.3 626.408 268.629 624.932 267.987 623.005 267.351 620.655 266.781 617.932 265.777 611.401 264.899 603.689 264.21 595.043 263.771 585.895 263.646 576.384 263.521 566.884 263.522 566.907 263.084 557.719 263.086 557.741 262.398 549.178 262.4 549.2 261.525 541.45 261.529 541.476 260.529 534.976 260.535 535.012 259.973 532.324 259.981 532.362 259.356 530.049 259.368 530.086 258.743 528.211 258.768 528.276 258.143 526.901 258.222 527.032 257.597 526.219 257.827 526.409 257.202 526.096ZM267.456 617.454 271.127 627.19 260.846 625.594C260.482 625.537 260.233 625.197 260.29 624.833 260.346 624.469 260.687 624.22 261.051 624.276L270.203 625.697 269.477 626.591 266.208 617.925C266.078 617.581 266.252 617.196 266.597 617.066 266.941 616.936 267.326 617.11 267.456 617.454Z" fill="#4472C4"/><path d="M0.234082 0.624219-0.765918 0.999219-0.501727 0.817909-1.50173 1.94291-1.41723 1.82376-2.35473 3.51126-2.31255 3.41962-3.12505 5.60712-3.11018 5.56227-3.86017 8.12477-3.84319 8.05173-4.34319 10.9267-4.33546 10.8657-4.83546 17.1157-4.83448 17.0234-4.64698 20.2109-4.6568 20.1296-4.0943 23.1921-4.11222 23.1184-3.23722 25.9934-3.26457 25.9195-2.13957 28.482-2.17834 28.407-0.865838 30.5945-0.939227 30.4946 0.560773 32.1821 0.427333 32.067 2.05233 33.1295 1.83741 33.0379 3.46241 33.4129 5.20302 33.8146 7.00172 34.9907 8.60213 36.7911 9.96842 39.0683 11.1263 41.7056 12.0238 44.6547 12.6006 47.7949 12.7932 51.069 12.5364 54.3431 11.8947 57.4873 10.8655 60.5108 9.5085 63.1601 7.88187 65.4374 6.03062 67.2225 4.05121 68.3828 3.29763 68.5287 3.04427 67.2197 3.68582 67.0955 3.47535 67.1749 5.28785 66.1124 5.16224 66.2076 6.91224 64.5201 6.83251 64.6125 8.39501 62.425 8.34414 62.5086 9.65664 59.9461 9.6189 60.0352 10.6189 57.0977 10.5968 57.1792 11.2218 54.1167 11.2104 54.1979 11.4604 51.0104 11.4595 51.1016 11.272 47.9141 11.2818 47.9954 10.7193 44.9329 10.7372 45.0066 9.86222 42.1316 9.88957 42.2055 8.76457 39.643 8.80334 39.718 7.49084 37.5305 7.56423 37.6304 6.06423 35.9429 6.19767 36.058 4.57267 34.9955 4.78759 35.0871 3.16259 34.7121 1.42198 34.3104-0.376723 33.1343-1.97713 31.3339-3.34343 29.0567-4.50129 26.4194-5.39884 23.4703-5.97561 20.3301-6.16823 17.0555-5.66209 10.7286-5.15037 7.78627-4.38318 5.16504-3.54484 2.90796-2.54709 1.11201-1.38862-0.191267-0.234082-0.624219ZM11.6916 71.5648 1.87197 68.1256 9.69921 61.2708C9.9762 61.0283 10.3974 61.0562 10.64 61.3331 10.8825 61.6101 10.8546 62.0313 10.5776 62.2739L3.61017 68.3757 3.39132 67.245 12.1323 70.3065C12.4798 70.4282 12.6629 70.8085 12.5411 71.156 12.4194 71.5035 12.0391 71.6865 11.6916 71.5648Z" fill="#FF0000" transform="matrix(-1 0 0 1 273.328 558.5)"/><path d="M258.692 593.139 258.067 593.326 258.321 593.183 257.696 593.746 257.828 593.583 256.64 595.645 256.691 595.534 255.566 598.722 255.585 598.657 254.585 602.782 254.594 602.741 253.719 607.679 253.724 607.645 253.037 613.145 253.04 613.113 252.602 618.925 252.604 618.889 252.479 624.951 252.478 624.896 252.665 627.896 252.653 627.804 253.278 630.867 253.247 630.759 255.497 636.572 255.438 636.455 258.938 641.955 258.865 641.86 263.365 646.735 263.281 646.659 268.656 650.784 268.563 650.724 274.563 653.911 274.455 653.866 280.83 655.928 280.737 655.905 284.049 656.468 283.975 656.459 285.97 656.572 285.895 657.904 283.863 657.789 280.466 657.212 273.989 655.116 267.888 651.875 262.424 647.682 257.845 642.721 254.277 637.115 251.983 631.188 251.338 628.025 251.145 624.952 251.271 618.843 251.712 612.996 252.403 607.463 253.285 602.488 254.298 598.31 255.454 595.033 256.725 592.826 257.54 592.092 258.309 591.862ZM278.577 651.571 287.253 657.313 277.984 662.039C277.656 662.206 277.255 662.076 277.087 661.748 276.92 661.42 277.05 661.018 277.378 660.851L285.629 656.644 285.564 657.794 277.841 652.683C277.534 652.479 277.45 652.066 277.653 651.759 277.856 651.452 278.27 651.367 278.577 651.571Z" fill="#4472C4"/><path d="M0.109599 0.657596-3.6404 1.2826-3.43859 1.21446-6.75109 2.96446-6.57886 2.83384-8.89136 5.27134-8.76809 5.08837-9.39309 6.46337-9.34409 6.30676-9.59409 7.68176-9.60682 7.38709-9.23182 8.76209-9.33584 8.54539-8.33584 9.92039-8.4462 9.80203-6.8837 11.1145-6.98566 11.0439-4.98566 12.1689-5.09227 12.1208-0.0922664 13.8708-0.241226 13.8372 5.57127 14.4622 11.4602 15.0954 16.5882 16.8902 18.6866 18.0705 20.3614 19.4104 21.486 20.9567 21.9438 22.6351 21.4066 24.4 19.9972 25.9504 17.9417 27.2765 15.3024 28.4353 12.242 29.4554 8.85248 30.2228 2.80948 30.7393 2.69593 29.4108 8.69323 28.8983 8.60278 28.9123 11.9153 28.1623 11.8517 28.18 14.8517 27.18 14.7945 27.2021 17.357 26.0771 17.2636 26.1273 19.2011 24.8773 19.0692 24.9891 20.3192 23.6141 20.1747 23.8684 20.6122 22.4309 20.6068 22.8004 20.2318 21.4254 20.3358 21.6421 19.3358 20.2671 19.4585 20.3956 17.896 19.1456 17.9857 19.206 15.9857 18.081 16.0923 18.1292 11.0923 16.3792 11.2412 16.4128 5.42873 15.7878-0.460191 15.1546-5.58816 13.3598-7.69361 12.1755-9.36621 10.7705-10.486 9.23079-10.933 7.59202-10.6411 5.9869-9.93563 4.4348-7.47076 1.8367-3.96602-0.0148592-0.109599-0.657596ZM10.8354 34.6459 1.43442 30.1878 9.9425 24.1989C10.2436 23.987 10.6595 24.0593 10.8714 24.3604 11.0833 24.6614 11.011 25.0773 10.71 25.2892L3.13644 30.6202 3.03836 29.4727 11.4067 33.4412C11.7394 33.5989 11.8812 33.9965 11.7234 34.3292 11.5657 34.6619 11.1681 34.8037 10.8354 34.6459Z" fill="#FF0000" transform="matrix(-1 0 0 1 288.937 626.5)"/><path d="M0.0471629 0.664996-8.76534 1.29-8.69147 1.28059-12.754 2.03059-12.6977 2.01766-16.3227 3.01766-16.2701 3.00078-19.3326 4.12578-19.24 4.08349-21.615 5.39599-21.487 5.30394-22.987 6.67894-22.8205 6.43992-23.383 7.81492-23.383 7.31008-22.8205 8.68508-22.9971 8.43702-21.4346 9.81202-21.5769 9.71622-19.0769 10.9662-19.1423 10.9378-15.9548 12.1253-16.0258 12.1032-12.2758 13.0407-12.3216 13.031-8.07164 13.781-8.14194 13.7724 0.983055 14.3974 10.1434 15.0248 14.4566 15.786 18.2596 16.8001 21.5173 17.9499 24.1305 19.3218 25.8703 20.8528 26.5953 22.625 25.873 24.3906 24.1994 25.9247 21.7142 27.2328 18.5797 28.4482 14.8942 29.4013 10.7719 30.1624 3.23886 30.6966 3.14453 29.3666 10.6403 28.835 10.5665 28.8444 14.629 28.0944 14.5831 28.1046 18.2081 27.1671 18.134 27.1909 21.1965 26.0034 21.127 26.0351 23.502 24.7851 23.362 24.8836 24.862 23.5086 24.6955 23.7476 25.258 22.3726 25.258 22.8774 24.6955 21.5024 24.8721 21.7505 23.3096 20.3755 23.4401 20.4653 20.9401 19.1528 21.0281 19.1912 17.8406 18.0662 17.8907 18.0817 14.1407 17.0817 14.1966 17.094 9.94664 16.344 10.0169 16.3526 0.891945 15.7276-8.26843 15.1002-12.5764 14.3399-16.3853 13.3877-19.6412 12.1748-22.2505 10.8701-23.9953 9.33466-24.7203 7.5625-23.998 5.79693-22.3295 4.26741-19.8403 2.89182-16.7039 1.73969-13.0244 0.724656-8.89686-0.0373581-0.0471629-0.664996ZM11.2075 34.7188 1.87192 30.1252 10.4657 24.26C10.7698 24.0525 11.1846 24.1308 11.3922 24.4349 11.5997 24.739 11.5214 25.1538 11.2173 25.3613L3.5675 30.5823 3.48603 29.4334 11.7961 33.5225C12.1265 33.685 12.2625 34.0846 12.1 34.415 11.9374 34.7453 11.5378 34.8814 11.2075 34.7188Z" fill="#FF0000" transform="matrix(-1 0 0 1 320.328 656.5)"/><text font-family="Yu Gothic,Yu Gothic_MSFontService,sans-serif" font-weight="400" font-size="13" transform="translate(91.6552 494)">工程<tspan font-family="Calibri,Calibri_MSFontService,sans-serif" font-size="13" x="29.6667" y="0">A</tspan><tspan font-size="13" x="-0.626556" y="34">工程</tspan><tspan font-family="Calibri,Calibri_MSFontService,sans-serif" font-size="13" x="29.0401" y="34">B</tspan><tspan font-size="13" x="0.16819" y="68">工程</tspan><tspan font-family="Calibri,Calibri_MSFontService,sans-serif" font-size="13" x="29.8349" y="68">C</tspan><tspan font-size="13" x="0.504883" y="101">工程</tspan><tspan font-family="Calibri,Calibri_MSFontService,sans-serif" font-size="13" x="30.1716" y="101">D</tspan><tspan font-size="13" x="-0.341103" y="135">工程</tspan><tspan font-family="Calibri,Calibri_MSFontService,sans-serif" font-size="13" x="29.3256" y="135">E</tspan><tspan font-size="13" x="-0.469604" y="166">工程</tspan><tspan font-family="Calibri,Calibri_MSFontService,sans-serif" font-size="13" x="29.1971" y="166">F</tspan><tspan font-size="13" x="-0.626556" y="196">工程</tspan><tspan font-family="Calibri,Calibri_MSFontService,sans-serif" font-size="13" x="29.0401" y="196">G</tspan></text><rect x="428.5" y="510.5" width="15" height="16" stroke="#2F528F" stroke-width="1.33333" stroke-miterlimit="8" fill="#70AD47"/><text font-family="Yu Gothic,Yu Gothic_MSFontService,sans-serif" font-weight="400" font-size="13" transform="translate(113.406 450)">開発リソースを全ての工数に割り当てられる場合のガントチャート</text><path d="M0 40 233 0 466 40Z" stroke="#2F528F" stroke-width="1.33333" stroke-miterlimit="8" stroke-opacity="0.501961" fill="#4472C4" fill-rule="evenodd" fill-opacity="0.501961" transform="matrix(1 0 0 -1 134.5 415.5)"/><text font-family="Yu Gothic,Yu Gothic_MSFontService,sans-serif" font-weight="400" font-size="13" transform="translate(453.08 524)">作業開始に余裕のある作業工程</text><rect x="428.5" y="547.5" width="15" height="16" stroke="#FF0000" stroke-width="1.33333" stroke-miterlimit="8" fill="#4472C4"/><text font-family="Yu Gothic,Yu Gothic_MSFontService,sans-serif" font-weight="400" font-size="13" transform="translate(452.427 561)">クリティカルパス上の作業工程</text></g></svg>