<svg width="607" height="950" xmlns="http://www.w3.org/2000/svg" xmlns:xlink="http://www.w3.org/1999/xlink" overflow="hidden"><defs><clipPath id="clip0"><rect x="56" y="43" width="607" height="950"/></clipPath><clipPath id="clip1"><rect x="229" y="746" width="40" height="41"/></clipPath><clipPath id="clip2"><rect x="229" y="746" width="40" height="41"/></clipPath><clipPath id="clip3"><rect x="229" y="746" width="40" height="41"/></clipPath><clipPath id="clip4"><rect x="229" y="825" width="40" height="41"/></clipPath><clipPath id="clip5"><rect x="229" y="825" width="40" height="41"/></clipPath><clipPath id="clip6"><rect x="229" y="825" width="40" height="41"/></clipPath><clipPath id="clip7"><rect x="432" y="788" width="40" height="40"/></clipPath><clipPath id="clip8"><rect x="432" y="788" width="40" height="40"/></clipPath><clipPath id="clip9"><rect x="432" y="788" width="40" height="40"/></clipPath></defs><g clip-path="url(#clip0)" transform="translate(-56 -43)"><rect x="57.5001" y="44.5001" width="605" height="947" stroke="#D9D9D9" stroke-width="1.33333" stroke-miterlimit="8" fill="none"/><text font-family="Yu Gothic,Yu Gothic_MSFontService,sans-serif" font-weight="400" font-size="16" transform="translate(87.6235 64)">概念モデリングを行う場合の開発プロセスデータフローモデル（一部抜粋）</text><path d="M135 166.5C135 152.417 156.938 141 184 141 211.062 141 233 152.417 233 166.5 233 180.583 211.062 192 184 192 156.938 192 135 180.583 135 166.5Z" stroke="#4472C4" stroke-width="2" stroke-miterlimit="8" fill="#FFFFFF" fill-rule="evenodd"/><text font-family="Yu Gothic,Yu Gothic_MSFontService,sans-serif" font-weight="400" font-size="11" transform="translate(162.921 164)">ドメイン<tspan font-size="11" x="10.6667" y="13">分割</tspan></text><path d="M135 253.5C135 239.417 156.938 228 184 228 211.062 228 233 239.417 233 253.5 233 267.583 211.062 279 184 279 156.938 279 135 267.583 135 253.5Z" stroke="#4472C4" stroke-width="2" stroke-miterlimit="8" fill="#FFFFFF" fill-rule="evenodd"/><text font-family="Yu Gothic,Yu Gothic_MSFontService,sans-serif" font-weight="400" font-size="11" transform="translate(168.254 245)">アプリ<tspan font-size="11" x="-5.33333" y="13">概念モデ</tspan><tspan font-size="11" x="0" y="25">リング</tspan></text><path d="M135 341.5C135 327.417 156.938 316 184 316 211.062 316 233 327.417 233 341.5 233 355.583 211.062 367 184 367 156.938 367 135 355.583 135 341.5Z" stroke="#4472C4" stroke-width="2" stroke-miterlimit="8" fill="#FFFFFF" fill-rule="evenodd"/><text font-family="Yu Gothic,Yu Gothic_MSFontService,sans-serif" font-weight="400" font-size="11" transform="translate(162.921 332)">サービス<tspan font-size="11" x="0" y="13">概念モデ</tspan><tspan font-size="11" x="5.33333" y="25">リング</tspan></text><path d="M135 428.5C135 414.417 156.938 403 184 403 211.062 403 233 414.417 233 428.5 233 442.583 211.062 454 184 454 156.938 454 135 442.583 135 428.5Z" stroke="#4472C4" stroke-width="2" stroke-miterlimit="8" fill="#FFFFFF" fill-rule="evenodd"/><text font-family="Yu Gothic,Yu Gothic_MSFontService,sans-serif" font-weight="400" font-size="11" transform="translate(168.066 426)">ルール<tspan font-size="11" x="5.33334" y="13">設計</tspan></text><path d="M253 299C253 284.641 277.624 273 308 273 338.376 273 363 284.641 363 299 363 313.359 338.376 325 308 325 277.624 325 253 313.359 253 299Z" stroke="#4472C4" stroke-width="2" stroke-miterlimit="8" fill="#FFFFFF" fill-rule="evenodd"/><text font-family="Yu Gothic,Yu Gothic_MSFontService,sans-serif" font-weight="400" font-size="11" transform="translate(281.399 296)">ドメイン間<tspan font-size="11" x="0" y="13">マッピング</tspan></text><path d="M390 369.5C390 355.417 414.4 344 444.5 344 474.6 344 499 355.417 499 369.5 499 383.583 474.6 395 444.5 395 414.4 395 390 383.583 390 369.5Z" stroke="#4472C4" stroke-width="2" stroke-miterlimit="8" fill="#FFFFFF" fill-rule="evenodd"/><text font-family="Yu Gothic,Yu Gothic_MSFontService,sans-serif" font-weight="400" font-size="11" transform="translate(417.697 373)">アプリ実装</text><path d="M360 462C360 447.641 384.4 436 414.5 436 444.6 436 469 447.641 469 462 469 476.359 444.6 488 414.5 488 384.4 488 360 476.359 360 462Z" stroke="#4472C4" stroke-width="2" stroke-miterlimit="8" fill="#FFFFFF" fill-rule="evenodd"/><text font-family="Yu Gothic,Yu Gothic_MSFontService,sans-serif" font-weight="400" font-size="11" transform="translate(393.086 459)">サービス<tspan font-size="11" x="10.6667" y="13">実装</tspan></text><path d="M510 439.5C510 425.417 534.4 414 564.5 414 594.599 414 619 425.417 619 439.5 619 453.583 594.599 465 564.5 465 534.4 465 510 453.583 510 439.5Z" stroke="#4472C4" stroke-width="2" stroke-miterlimit="8" fill="#FFFFFF" fill-rule="evenodd"/><text font-family="Yu Gothic,Yu Gothic_MSFontService,sans-serif" font-weight="400" font-size="11" transform="translate(548.524 443)">ビルド</text><path d="M227 582.5C227 568.417 251.4 557 281.5 557 311.6 557 336 568.417 336 582.5 336 596.583 311.6 608 281.5 608 251.4 608 227 596.583 227 582.5Z" stroke="#4472C4" stroke-width="2" stroke-miterlimit="8" fill="#FFFFFF" fill-rule="evenodd"/><text font-family="Yu Gothic,Yu Gothic_MSFontService,sans-serif" font-weight="400" font-size="11" transform="translate(265.398 586)">テスト</text><path d="M185.167 94.4974 185.35 139.907 184.016 139.913 183.833 94.5027ZM189.895 132.225 184.688 141.233 179.41 132.267C179.223 131.95 179.329 131.541 179.646 131.354 179.963 131.168 180.372 131.273 180.559 131.591L185.257 139.572 184.106 139.576 188.74 131.558C188.924 131.239 189.332 131.13 189.651 131.314 189.97 131.498 190.079 131.906 189.895 132.225Z" fill="#4472C4"/><text font-family="Yu Gothic,Yu Gothic_MSFontService,sans-serif" font-weight="400" font-size="11" transform="translate(160.729 118)">要件</text><path d="M185.292 192.574 185.096 194.342 184.421 196.163 183.363 197.949 181.978 199.597 178.266 202.734 173.49 205.536 167.849 207.881 161.592 209.65 154.894 210.851 148.041 211.228 148.053 211.227 141.241 211.727 141.328 211.715 134.703 213.09 134.791 213.065 128.666 215.253 128.738 215.223 123.175 217.973 123.264 217.919 118.577 221.232 118.667 221.155 115.042 224.842 115.124 224.741 113.812 226.741 113.851 226.673 112.851 228.673 112.891 228.574 112.266 230.574 112.293 230.435 112.106 232.498 112.102 232.346 112.665 236.409 112.628 236.263 114.128 240.2 114.065 240.077 116.44 243.764 116.369 243.672 119.432 246.985 119.351 246.911 122.976 249.723 122.876 249.659 126.939 251.784 126.832 251.74 131.145 253.115 131.016 253.087 134.204 253.442 134.056 254.767 130.803 254.405 126.372 252.993 122.205 250.813 118.49 247.93 115.351 244.535 112.906 240.74 111.355 236.667 110.771 232.453 110.972 230.244 111.634 228.125 112.676 226.042 114.046 223.954 117.759 220.178 122.537 216.8 128.181 214.01 134.386 211.794 141.1 210.401 147.962 209.897 154.78 209.522 154.699 209.531 161.324 208.344 161.261 208.358 167.448 206.608 167.374 206.634 172.936 204.322 172.855 204.362 177.542 201.612 177.449 201.678 181.074 198.616 180.994 198.696 182.307 197.134 182.244 197.223 183.244 195.535 183.192 195.643 183.817 193.956 183.779 194.114 183.967 192.426ZM127.092 248.047 135.445 254.25 125.934 258.468C125.597 258.618 125.204 258.466 125.054 258.129 124.905 257.793 125.057 257.399 125.393 257.25L133.86 253.495 133.733 254.639 126.297 249.118C126.001 248.898 125.94 248.481 126.159 248.185 126.379 247.89 126.796 247.828 127.092 248.047Z" fill="#4472C4"/><path d="M185.252 192.739 184.888 193.684 183.913 194.66 182.491 195.472 180.548 196.314 178.256 197.014 175.598 197.774 169.18 199.032 161.586 200.162 153.12 200.977 144.095 201.541 134.768 201.729 134.808 201.727 130.12 202.102 130.233 202.083 125.608 203.271 125.703 203.239 121.14 205.176 121.213 205.14 116.775 207.702 116.833 207.665 112.521 210.79 112.578 210.743 108.453 214.493 108.5 214.446 104.625 218.758 104.654 218.725 100.966 223.412 101.002 223.362 97.6894 228.487 97.712 228.449 94.6495 233.949 94.6746 233.899 92.0496 239.712 92.0671 239.669 89.8171 245.732 89.8311 245.69 87.9561 252.002 87.97 251.947 86.6575 258.322 86.6662 258.269 85.8537 264.832 85.858 264.782 85.5455 271.344 85.5455 271.281 85.858 277.843 85.8537 277.793 86.6662 284.356 86.6565 284.298 88.0315 290.736 88.0181 290.683 89.8931 296.933 89.8796 296.893 92.1296 302.956 92.1097 302.908 94.7972 308.72 94.7717 308.671 97.8967 314.171 97.8759 314.136 101.251 319.324 101.216 319.275 104.904 323.963 104.869 323.922 108.806 328.172 108.762 328.128 112.949 331.878 112.897 331.836 117.272 335.024 117.209 334.983 121.709 337.546 121.637 337.51 126.262 339.448 126.168 339.416 130.856 340.604 130.745 340.585 134.179 340.857 134.074 342.186 130.583 341.91 125.793 340.697 121.085 338.724 116.517 336.123 112.085 332.894 107.849 329.101 103.872 324.808 100.15 320.076 96.7473 314.847 93.5986 309.305 90.8886 303.444 88.6221 297.337 86.7332 291.041 85.3465 284.548 84.5273 277.932 84.2121 271.312 84.5273 264.693 85.3462 258.079 86.6698 251.65 88.5593 245.289 90.825 239.184 93.471 233.325 96.5578 227.782 99.899 222.612 103.619 217.883 107.531 213.529 111.708 209.732 116.079 206.565 120.581 203.965 125.228 201.992 129.957 200.778 134.721 200.396 144.054 200.208 144.025 200.21 153.025 199.647 153.003 199.649 161.441 198.836 161.406 198.841 168.969 197.716 168.939 197.721 175.314 196.471 175.259 196.484 177.884 195.734 177.872 195.737 180.122 195.05 180.052 195.076 181.927 194.263 181.861 194.296 183.174 193.546 183.033 193.654 183.846 192.841 183.695 193.073 184.007 192.261ZM126.898 335.692 135.445 341.625 126.073 346.144C125.742 346.304 125.343 346.165 125.183 345.833 125.023 345.502 125.162 345.103 125.494 344.943L133.837 340.921 133.746 342.069 126.138 336.787C125.836 336.577 125.761 336.162 125.971 335.859 126.181 335.557 126.596 335.482 126.898 335.692Z" fill="#4472C4"/><path d="M185.234 193.021 184.829 193.345 183.729 193.712 182.164 193.972 180.142 194.225 177.622 194.477 174.673 194.665 174.679 194.665 171.297 194.915 167.6 195.103 159.217 195.479 149.895 195.729 139.888 195.917 129.572 195.979 129.655 195.973 124.468 196.661 124.616 196.624 119.491 198.561 119.609 198.503 114.609 201.628 114.694 201.565 109.756 205.877 109.812 205.822 105.062 211.072 105.106 211.018 100.544 217.268 100.574 217.222 96.2617 224.285 96.2852 224.243 92.2227 232.118 92.2425 232.076 88.555 240.639 88.568 240.606 85.193 249.731 85.2053 249.695 82.2678 259.32 82.2774 259.285 79.7774 269.41 79.7848 269.376 77.7848 279.751 77.7904 279.718 76.2904 290.405 76.2944 290.37 75.3569 301.245 75.3591 301.207 75.0466 312.144 75.0465 312.102 75.4215 323.04 75.4191 323.001 76.4191 333.876 76.4143 333.837 78.0393 344.525 78.0319 344.484 80.2819 354.922 80.2733 354.887 83.0233 364.949 83.0122 364.913 86.2622 374.6 86.2468 374.559 89.9968 383.684 89.9808 383.648 94.1058 392.211 94.0849 392.171 98.5224 399.983 98.4974 399.943 103.247 407.068 103.211 407.018 108.273 413.268 108.227 413.216 113.477 418.466 113.417 418.413 118.917 422.725 118.832 422.669 124.394 425.794 124.283 425.744 129.97 427.681 129.835 427.651 134.212 428.18 134.052 429.503 129.606 428.966 123.795 426.986 118.134 423.806 112.562 419.437 107.259 414.134 102.155 407.833 97.3748 400.662 92.9144 392.81 88.771 384.209 85.0052 375.045 81.7421 365.319 78.9823 355.221 76.7242 344.745 75.0931 334.018 74.0896 323.104 73.7132 312.127 74.0268 301.149 74.9675 290.237 76.4724 279.516 78.4788 269.107 80.9873 258.948 83.9357 249.287 87.3235 240.127 91.0271 231.527 95.1112 223.611 99.4505 216.504 104.05 210.204 108.85 204.899 113.857 200.525 118.958 197.337 124.216 195.349 129.522 194.646 139.876 194.583 139.868 194.583 149.868 194.396 149.862 194.396 159.175 194.146 159.163 194.146 167.538 193.771 167.534 193.772 171.221 193.584 171.206 193.585 174.584 193.335 177.525 193.147 177.501 193.149 180.001 192.899 179.985 192.901 181.985 192.651 181.958 192.655 183.458 192.405 183.357 192.43 184.294 192.118 184.089 192.229 184.401 191.979ZM127.153 422.717 135.446 429 125.894 433.127C125.556 433.273 125.164 433.117 125.018 432.779 124.872 432.441 125.028 432.049 125.366 431.903L133.868 428.23 133.73 429.373 126.347 423.78C126.054 423.558 125.996 423.14 126.219 422.846 126.441 422.553 126.859 422.495 127.153 422.717Z" fill="#4472C4"/><text font-family="Yu Gothic,Yu Gothic_MSFontService,sans-serif" font-weight="400" font-size="11" transform="translate(95.4073 211)">整理された要件<tspan font-size="11" x="218.721" y="333">物理モジュール</tspan></text><path d="M0.0179307-0.666425 13.9726-0.290962 27.5062 0.774182 40.1616 2.40309 45.9983 3.40726 51.5227 4.53724 56.5439 5.79255 61.1357 7.05057 65.1158 8.44044 68.5409 9.89929 71.3615 11.4378 73.4677 13.0174 74.8554 14.752 74.9736 15.1741 73.6896 15.5336 73.608 15.2423 73.7294 15.479 72.4794 13.9165 72.6 14.0333 70.6 12.5333 70.6808 12.5853 67.9308 11.0853 67.9888 11.1133 64.6138 9.67585 64.6552 9.69189 60.7177 8.31689 60.7613 8.33047 56.1988 7.08047 56.2133 7.08426 51.2133 5.83426 51.2414 5.84064 45.7414 4.71564 45.762 4.71951 39.9495 3.71951 39.9774 3.72371 27.3524 2.09871 27.3852 2.10211 13.8852 1.03961 13.9196 1.04143-0.0179307 0.666425ZM77.3135 6.56011 74.6883 16.628 67.2168 9.38719C66.9524 9.13096 66.9457 8.7089 67.202 8.4445 67.4582 8.1801 67.8803 8.17348 68.1447 8.42971L74.7955 14.8751 73.6865 15.1857 76.0233 6.2237C76.1162 5.86742 76.4803 5.65391 76.8366 5.7468 77.1929 5.8397 77.4064 6.20383 77.3135 6.56011Z" fill="#4472C4" transform="matrix(1 0 0 -1 233.5 342.07)"/><path d="M233.521 253.834 247.479 254.272 261.019 255.526 273.68 257.469 279.519 258.662 285.045 259.98 290.071 261.425 294.669 262.937 298.652 264.58 302.079 266.294 304.906 268.093 307.005 269.995 308.369 271.973 308.526 272.623 307.23 272.936 307.102 272.406 307.201 272.629 305.951 270.816 306.052 270.932 304.052 269.119 304.142 269.188 301.392 267.438 301.452 267.471 298.077 265.784 298.121 265.804 294.183 264.179 294.229 264.196 289.667 262.696 289.691 262.703 284.691 261.266 284.72 261.273 279.22 259.961 279.242 259.966 273.429 258.778 273.461 258.784 260.836 256.846 260.876 256.851 247.376 255.601 247.417 255.604 233.479 255.166ZM311.176 264.099 308.188 274.066 300.983 266.559C300.728 266.294 300.737 265.872 301.003 265.617 301.268 265.362 301.69 265.37 301.945 265.636L308.359 272.318 307.239 272.588 309.898 263.716C310.004 263.364 310.376 263.163 310.729 263.269 311.081 263.375 311.281 263.746 311.176 264.099Z" fill="#4472C4"/><text font-family="Yu Gothic,Yu Gothic_MSFontService,sans-serif" font-weight="400" font-size="11" transform="translate(247.299 246)">概念モデル<tspan font-size="11" x="0" y="113">（概念）モデル</tspan></text><path d="M233.517 253.834 253.284 254.334 272.942 255.837 292.225 258.278 311.131 261.596 329.35 265.728 346.819 270.55 363.352 276.061 378.826 282.137 393.046 288.777 399.635 292.229 405.908 295.867 411.743 299.569 417.206 303.337 422.235 307.234 426.827 311.197 430.921 315.228 434.578 319.326 437.738 323.497 440.334 327.676 442.428 331.928 443.956 336.258 444.849 340.532 445.068 343.51 443.738 343.607 443.523 340.674 443.535 340.761 442.66 336.574 442.684 336.659 441.184 332.409 441.214 332.482 439.152 328.295 439.184 328.352 436.621 324.227 436.656 324.278 433.531 320.153 433.565 320.194 429.94 316.131 429.97 316.163 425.907 312.163 425.939 312.192 421.377 308.255 421.404 308.277 416.404 304.402 416.434 304.424 410.997 300.674 411.018 300.688 405.205 297 405.228 297.014 398.978 293.389 399.003 293.403 392.441 289.966 392.468 289.979 378.28 283.354 378.319 283.371 362.881 277.308 362.914 277.32 346.414 271.82 346.448 271.83 329.01 267.018 329.04 267.025 310.853 262.9 310.885 262.907 292.01 259.594 292.041 259.599 272.791 257.161 272.824 257.165 253.199 255.665 253.233 255.667 233.483 255.167ZM449.07 335.531 444.5 344.878 438.613 336.3C438.404 335.996 438.482 335.581 438.785 335.373 439.089 335.164 439.504 335.242 439.712 335.545L444.953 343.181 443.804 343.266 447.872 334.945C448.033 334.614 448.433 334.477 448.763 334.639 449.094 334.801 449.231 335.2 449.07 335.531Z" fill="#4472C4"/><path d="M233.528 340.834 246.87 341.398 260.175 343.155 273.226 345.916 285.963 349.68 298.321 354.385 310.116 359.844 321.286 366.119 331.766 373.084 341.372 380.618 350.039 388.721 357.644 397.206 364.124 406.139 369.351 415.395 373.255 424.842 374.648 429.652 375.658 434.514 376.29 439.382 376.427 442.905 375.095 442.957 374.959 439.464 374.964 439.523 374.339 434.711 374.347 434.761 373.347 429.948 373.36 429.998 371.985 425.248 372.009 425.317 368.134 415.942 368.169 416.015 362.982 406.828 363.023 406.891 356.585 398.016 356.629 398.07 349.066 389.633 349.107 389.675 340.482 381.612 340.526 381.65 330.964 374.15 331.006 374.18 320.569 367.243 320.611 367.269 309.486 361.019 309.533 361.043 297.783 355.605 297.825 355.623 285.513 350.936 285.561 350.952 272.874 347.202 272.925 347.215 259.925 344.465 259.975 344.473 246.725 342.723 246.784 342.729 233.472 342.166ZM380.701 435.069 375.813 444.253 370.224 435.477C370.026 435.166 370.118 434.754 370.428 434.556 370.739 434.359 371.151 434.45 371.349 434.761L376.323 442.573 375.173 442.618 379.524 434.442C379.697 434.117 380.101 433.994 380.426 434.167 380.751 434.34 380.874 434.744 380.701 435.069Z" fill="#4472C4"/><path d="M0.00632883-0.666637 19.7627-0.479076 39.3996 0.0837659 58.7246 0.959331 77.6118 2.21014 95.8731 3.71107 113.323 5.46235 129.838 7.46414 145.292 9.71652 159.493 12.1564 166.134 13.4094 172.332 14.7867 178.217 16.1014 183.674 17.4813 188.692 18.9241 193.278 20.369 197.368 21.8791 201.022 23.391 204.188 24.9108 206.808 26.4447 208.939 28.0587 210.537 29.6563 211.508 31.3911 211.582 31.7624 210.275 32.0239 210.221 31.7557 210.293 31.9507 209.418 30.3882 209.529 30.5339 208.029 29.0339 208.097 29.0939 206.035 27.5314 206.101 27.5753 203.538 26.0753 203.587 26.101 200.462 24.601 200.495 24.616 196.87 23.116 196.894 23.1254 192.832 21.6254 192.862 21.6359 188.3 20.1984 188.316 20.2032 183.316 18.7657 183.337 18.7713 177.899 17.3963 177.917 17.4006 172.043 16.0883 165.855 14.7133 165.876 14.7176 159.251 13.4676 159.262 13.4695 145.075 11.032 145.091 11.0347 129.654 8.7847 129.67 8.78682 113.17 6.78682 113.183 6.78833 95.7459 5.03833 95.7579 5.03943 77.5079 3.53943 77.5184 3.54021 58.6434 2.29021 58.6573 2.29098 39.3448 1.41598 39.3559 1.41639 19.7309 0.853893 19.7437 0.854137-0.00632883 0.666637ZM214.566 23.3497 211.188 33.1905 204.285 25.406C204.041 25.1305 204.066 24.7092 204.341 24.4649 204.617 24.2206 205.038 24.2459 205.282 24.5214L211.427 31.4508 210.298 31.6767 213.305 22.9168C213.425 22.5686 213.804 22.3832 214.152 22.5027 214.5 22.6223 214.686 23.0015 214.566 23.3497Z" fill="#4472C4" transform="matrix(1 0 0 -1 233.5 428.63)"/><text font-family="Yu Gothic,Yu Gothic_MSFontService,sans-serif" font-weight="400" font-size="11" transform="translate(236.202 421)">実装ルール</text><path d="M233.521 428.834 245.354 429.209 256.831 430.276 267.562 431.907 277.164 434.104 281.448 435.301 285.297 436.626 288.718 438.02 291.649 439.549 294.03 441.093 295.817 442.682 296.995 444.413 297.398 446.094 297.773 447.657 297.676 447.438 298.739 449 298.63 448.877 300.318 450.377 300.238 450.316 302.55 451.816 302.496 451.784 305.371 453.284 305.314 453.258 308.689 454.633 308.655 454.62 312.467 455.932 312.429 455.92 316.679 457.108 316.649 457.1 326.211 459.288 326.163 459.278 336.85 460.903 336.812 460.899 348.249 461.961 348.209 461.959 358.639 462.292 358.597 463.624 348.146 463.291 336.669 462.225 325.938 460.593 316.336 458.396 312.052 457.199 308.203 455.874 304.782 454.481 301.851 452.952 299.47 451.407 297.683 449.818 296.505 448.087 296.102 446.406 295.727 444.843 295.824 445.062 294.761 443.5 294.87 443.623 293.182 442.123 293.262 442.184 290.95 440.684 291.004 440.716 288.129 439.216 288.186 439.242 284.811 437.867 284.846 437.88 281.033 436.568 281.071 436.58 276.821 435.392 276.851 435.4 267.289 433.212 267.337 433.222 256.65 431.597 256.688 431.601 245.251 430.539 245.291 430.541 233.479 430.166ZM351.125 457.474 359.941 463 350.791 467.953C350.467 468.129 350.062 468.008 349.887 467.684 349.712 467.361 349.832 466.956 350.156 466.781L358.301 462.372 358.264 463.523 350.417 458.603C350.105 458.408 350.011 457.996 350.206 457.684 350.402 457.372 350.813 457.278 351.125 457.474Z" fill="#4472C4"/><path d="M499.527 369.834 505.68 370.085 511.793 370.841 517.842 372.039 523.702 373.677 529.37 375.692 534.851 378.086 540.018 380.796 544.812 383.76 549.229 387.042 553.273 390.517 556.82 394.253 559.801 398.123 562.217 402.128 564.069 406.28 565.159 410.511 565.419 413.375 564.092 413.496 563.836 410.685 563.854 410.791 562.792 406.666 562.829 406.772 561.016 402.709 561.054 402.782 558.679 398.844 558.722 398.907 555.784 395.094 555.829 395.147 552.329 391.459 552.378 391.506 548.378 388.068 548.415 388.098 544.04 384.848 544.087 384.88 539.337 381.942 539.378 381.965 534.253 379.278 534.296 379.298 528.858 376.923 528.902 376.941 523.277 374.941 523.321 374.955 517.508 373.33 517.558 373.342 511.558 372.154 511.606 372.162 505.543 371.412 505.598 371.416 499.473 371.166ZM569.283 405.328 564.875 414.753 558.841 406.277C558.627 405.978 558.697 405.561 558.997 405.348 559.297 405.134 559.713 405.204 559.927 405.504L565.299 413.049 564.152 413.153 568.075 404.763C568.231 404.43 568.628 404.286 568.961 404.442 569.295 404.598 569.439 404.995 569.283 405.328Z" fill="#4472C4"/><path d="M0.0436222-0.665238 3.8957-0.412643 7.66729 0.290536 11.1204 1.44159 14.3245 2.91544 16.9814 4.66513 19.0794 6.69753 20.5023 8.86576 20.9655 11.1156 21.403 13.2406 21.3074 13.0092 22.6199 15.0092 22.5185 14.8886 24.5185 16.7636 24.4292 16.6932 26.9917 18.3807 26.9083 18.334 29.9708 19.7715 29.8949 19.7414 33.3324 20.8664 33.2472 20.8446 36.9347 21.5321 36.8568 21.5223 39.2898 21.6845 39.2011 23.0149 36.7289 22.8501 32.9595 22.1473 29.4413 20.9959 26.2984 19.5206 23.6482 17.7754 21.5487 15.8071 20.1227 13.6342 19.6595 11.3844 19.222 9.25943 19.3176 9.49077 18.0051 7.49077 18.0986 7.60383 16.0986 5.66633 16.1958 5.74428 13.6333 4.05678 13.7214 4.10566 10.5964 2.66816 10.6642 2.69496 7.28918 1.56996 7.37781 1.59287 3.69031 0.905373 3.76888 0.915238-0.0436222 0.665238ZM31.947 16.609 40.5656 22.4377 31.2496 27.0708C30.9199 27.2347 30.5198 27.1004 30.3558 26.7707 30.1918 26.4411 30.3262 26.0409 30.6559 25.8769L38.9486 21.7528 38.8719 22.9019 31.2001 17.7134C30.8951 17.5072 30.8151 17.0927 31.0213 16.7877 31.2276 16.4827 31.642 16.4027 31.947 16.609Z" fill="#4472C4" transform="matrix(1 0 0 -1 469.5 462.921)"/><text font-family="Yu Gothic,Yu Gothic_MSFontService,sans-serif" font-weight="400" font-size="11" transform="translate(514.427 369)">ソースコード<tspan font-size="11" x="-44.2281" y="111">ソースコード</tspan></text><path d="M565.29 465.559 565.097 467.747 564.439 470.048 563.397 472.262 561.968 474.471 558.083 478.739 552.824 482.92 546.389 486.958 538.778 490.732 530.115 494.373 520.582 497.697 510.177 500.831 499.088 503.587 487.376 506.093 475.1 508.159 462.45 509.85 449.489 511.04 436.34 511.854 423.076 512.104 409.826 512.354 409.851 512.353 396.664 513.103 396.69 513.101 383.752 514.351 383.776 514.348 371.151 516.036 371.174 516.032 358.987 518.095 359.011 518.09 347.261 520.528 347.29 520.521 336.227 523.334 336.253 523.327 325.94 526.389 325.973 526.379 316.41 529.754 316.444 529.741 307.882 533.303 307.926 533.283 300.363 537.095 300.414 537.067 294.039 541.005 294.103 540.959 288.916 545.084 288.994 545.011 285.181 549.199 285.248 549.112 283.873 551.237 283.916 551.159 282.916 553.284 282.954 553.183 282.329 555.371 282.352 555.246 282.281 556.056 280.953 555.939 281.03 555.066 281.687 552.765 282.729 550.551 284.158 548.342 288.044 544.074 293.304 539.891 299.737 535.918 307.347 532.081 315.949 528.503 325.545 525.116 335.886 522.045 346.976 519.225 358.752 516.782 370.963 514.716 383.612 513.025 396.575 511.773 409.788 511.021 423.051 510.771 436.301 510.521 436.272 510.522 449.397 509.71 449.377 509.711 462.315 508.524 462.287 508.527 474.912 506.839 474.89 506.843 487.14 504.78 487.111 504.786 498.799 502.286 498.777 502.291 509.84 499.541 509.808 499.549 520.183 496.424 520.156 496.433 529.656 493.121 529.617 493.135 538.242 489.51 538.205 489.528 545.767 485.778 545.709 485.81 552.084 481.81 552.023 481.853 557.211 477.728 557.133 477.801 560.945 473.614 560.878 473.7 562.253 471.575 562.21 471.654 563.21 469.529 563.172 469.629 563.797 467.442 563.774 467.566 563.962 465.441ZM287.513 548.824 281.5 557.316 277.068 547.902C276.911 547.569 277.054 547.172 277.387 547.015 277.72 546.858 278.118 547.001 278.275 547.334L282.22 555.714 281.073 555.612 286.424 548.054C286.637 547.753 287.053 547.682 287.354 547.895 287.654 548.108 287.725 548.524 287.513 548.824Z" fill="#4472C4"/><path d="M135 504.5C135 490.417 157.162 479 184.5 479 211.838 479 234 490.417 234 504.5 234 518.583 211.838 530 184.5 530 157.162 530 135 518.583 135 504.5Z" stroke="#4472C4" stroke-width="2" stroke-miterlimit="8" fill="#FFFFFF" fill-rule="evenodd"/><text font-family="Yu Gothic,Yu Gothic_MSFontService,sans-serif" font-weight="400" font-size="11" transform="translate(168.45 501)">テスト<tspan font-size="11" x="5.33334" y="13">設計</tspan></text><path d="M184.776 193.072 184.343 193.332 183.2 193.474 181.553 193.664 179.343 193.791 176.652 193.916 176.66 193.916 173.464 194.103 169.893 194.229 165.888 194.354 156.885 194.542 146.816 194.729 136.062 194.792 124.999 194.854 125.055 194.852 122.242 195.102 122.331 195.088 119.581 195.713 119.686 195.68 116.936 196.805 117.002 196.773 114.252 198.273 114.309 198.238 111.559 200.113 111.618 200.068 108.931 202.38 108.98 202.333 103.668 207.958 103.723 207.892 98.5978 214.954 98.6322 214.902 93.7572 223.152 93.7803 223.109 89.0928 232.547 89.1119 232.505 84.7994 242.942 84.8121 242.909 80.8121 254.284 80.822 254.253 77.197 266.378 77.2061 266.345 74.0811 279.22 74.0868 279.194 71.3993 292.569 71.4043 292.541 69.2168 306.416 69.2209 306.385 67.6584 320.573 67.6608 320.546 66.6608 334.921 66.6622 334.892 66.2872 349.455 66.2872 349.42 66.6622 363.983 66.6601 363.945 67.8476 378.32 67.8441 378.288 69.7191 392.475 69.7138 392.441 72.2763 406.316 72.2692 406.283 75.4567 419.658 75.4491 419.629 79.1366 432.504 79.1249 432.467 83.3749 444.592 83.3621 444.558 88.0496 455.933 88.0316 455.894 93.1566 466.331 93.1342 466.289 98.6342 475.727 98.6052 475.681 104.355 483.931 104.316 483.881 110.316 490.943 110.254 490.879 116.504 496.504 116.45 496.46 119.637 498.773 119.584 498.738 122.771 500.613 122.713 500.582 125.963 502.082 125.901 502.057 129.151 503.182 129.057 503.157 132.369 503.782 132.297 503.773 134.231 503.922 134.128 505.251 132.158 505.099 128.761 504.458 125.434 503.307 122.124 501.779 118.88 499.871 115.638 497.519 109.329 491.841 103.28 484.72 97.4958 476.422 91.9703 466.94 86.8252 456.462 82.1225 445.05 77.8602 432.89 74.1632 419.982 70.9683 406.575 68.3995 392.667 66.5202 378.446 65.3298 364.036 64.9538 349.438 65.3297 334.843 66.3316 320.44 67.8973 306.224 70.0894 292.32 72.7822 278.918 75.9145 266.013 79.549 253.856 83.5602 242.449 87.8884 231.974 92.5969 222.494 97.5002 214.196 102.669 207.074 108.035 201.392 110.777 199.033 113.585 197.118 116.397 195.585 119.232 194.425 122.079 193.777 124.964 193.521 136.054 193.458 146.804 193.396 146.796 193.396 156.857 193.208 165.857 193.021 165.85 193.021 169.85 192.896 169.847 192.896 173.41 192.771 173.394 192.772 176.586 192.584 179.277 192.459 179.27 192.459 181.458 192.334 181.419 192.338 183.044 192.15 183.038 192.151 184.038 192.026 183.778 192.116 184.09 191.928ZM126.94 498.771 135.499 504.688 126.136 509.226C125.805 509.386 125.406 509.248 125.245 508.916 125.085 508.585 125.223 508.186 125.555 508.026L133.889 503.986 133.801 505.135 126.182 499.868C125.879 499.659 125.803 499.244 126.013 498.941 126.222 498.638 126.637 498.562 126.94 498.771Z" fill="#4472C4"/><path d="M0.125898-0.654671 3.4918-0.00738297 6.78525 1.96869 9.82311 4.94191 12.5096 8.77981 14.8026 13.2384 16.5186 18.2592 17.6618 23.5943 18.0401 29.0791 18.4151 34.5166 18.4019 34.4228 19.5269 39.6728 19.5058 39.5969 21.1933 44.5344 21.1588 44.4519 23.3463 48.8269 23.2962 48.7427 25.9212 52.4927 25.8413 52.3986 28.7788 55.2736 28.6555 55.1783 31.7805 57.0533 31.5634 56.9703 33.5171 57.346 33.2654 58.6554 31.1957 58.2574 27.9022 56.2813 24.8644 53.3081 22.1757 49.4671 19.9462 45.008 18.2314 39.9908 17.0882 34.6557 16.7099 29.1709 16.3349 23.7334 16.3481 23.8272 15.2231 18.5772 15.2442 18.6531 13.5567 13.7156 13.5946 13.8049 11.3446 9.4299 11.3913 9.50731 8.76635 5.75731 8.84619 5.85145 5.90869 2.97645 6.032 3.07166 2.907 1.19666 3.1241 1.27967-0.125898 0.654671ZM26.8551 51.4052 34.6905 58.2506 24.875 61.7016C24.5277 61.8237 24.1471 61.6411 24.025 61.2938 23.9029 60.9464 24.0854 60.5658 24.4328 60.4437L33.1701 57.3718 32.9526 58.5028 25.9779 52.4093C25.7006 52.1671 25.6722 51.7459 25.9144 51.4686 26.1567 51.1914 26.5778 51.163 26.8551 51.4052Z" fill="#4472C4" transform="matrix(1.83697e-16 1 1 -1.83697e-16 184.5 530.5)"/><text font-family="Yu Gothic,Yu Gothic_MSFontService,sans-serif" font-weight="400" font-size="11" transform="translate(151.848 560)">テストコード</text><path d="M336.516 582.834 398.314 584.324 398.282 585.657 336.484 584.167ZM390.762 579.565 399.62 585.023 390.509 590.047C390.187 590.225 389.781 590.108 389.604 589.785 389.426 589.463 389.543 589.057 389.866 588.879L397.976 584.407 397.948 585.558 390.063 580.7C389.749 580.507 389.652 580.096 389.845 579.783 390.038 579.469 390.449 579.372 390.762 579.565Z" fill="#4472C4"/><text font-family="Yu Gothic,Yu Gothic_MSFontService,sans-serif" font-weight="400" font-size="11" transform="translate(349.083 606)">テスト済みモジュール</text><path d="M281.5 100.5 642.5 100.5 642.5 193.833 623.833 212.5 281.5 212.5Z" fill="#FFFFFF" fill-rule="evenodd"/><path d="M623.833 212.5 627.567 197.566 642.5 193.833Z" fill="#CDCDCD" fill-rule="evenodd"/><path d="M623.833 212.5 627.567 197.566 642.5 193.833 623.833 212.5 281.5 212.5 281.5 100.5 642.5 100.5 642.5 193.833" stroke="#ED7D31" stroke-width="1.33333" stroke-miterlimit="8" fill="none" fill-rule="evenodd"/><text font-family="Yu Gothic,Yu Gothic_MSFontService,sans-serif" font-weight="400" font-size="13" transform="translate(290.998 117)">注意：<tspan font-size="13" x="0" y="16">この図</tspan>は、概念モデルのドメインの振舞モデルや、概念<tspan font-size="13" x="0" y="32">クラスの状態アクションと、全く同じデータフローの記</tspan><tspan font-size="13" x="0" y="48">法を使っているが、表現しているのは、開発プロセスで</tspan><tspan font-size="13" x="0" y="64">規定された振舞モデルを使って、インスタンスレベルの</tspan><tspan font-size="13" x="0" y="80">情報処理の流れに展開したものあることに注意が必要</tspan></text><rect x="68" y="672" width="584" height="302" fill="#F2F2F2"/><text font-family="Yu Gothic,Yu Gothic_MSFontService,sans-serif" font-weight="400" font-size="13" transform="translate(346.29 689)">凡例</text><path d="M302 810.5C302 796.417 326.624 785 357 785 387.376 785 412 796.417 412 810.5 412 824.583 387.376 836 357 836 326.624 836 302 824.583 302 810.5Z" stroke="#4472C4" stroke-width="2" stroke-miterlimit="8" fill="#FFFFFF" fill-rule="evenodd"/><text font-family="Yu Gothic,Yu Gothic_MSFontService,sans-serif" font-weight="400" font-size="11" transform="translate(335.918 807)">作業工程<tspan font-size="11" x="-5.33331" y="13">（タスク）</tspan></text><path d="M215.749 749.882 318.29 791.222 317.791 792.459 215.251 751.118ZM312.893 784.113 319.268 792.336 308.973 793.837C308.608 793.89 308.27 793.638 308.217 793.274 308.164 792.909 308.416 792.571 308.78 792.518L317.945 791.181 317.514 792.249 311.839 784.93C311.614 784.639 311.667 784.22 311.958 783.994 312.249 783.769 312.668 783.822 312.893 784.113Z" fill="#4472C4"/><path d="M0.208569-0.633201 102.745 33.1411 102.328 34.4075-0.208569 0.633201ZM96.897 26.3971 103.793 34.1882 93.6167 36.3558C93.2566 36.4325 92.9025 36.2028 92.8257 35.8427 92.749 35.4826 92.9788 35.1285 93.3389 35.0518L102.397 33.1222 102.037 34.2161 95.8985 27.2808C95.6545 27.0051 95.6802 26.5838 95.9559 26.3398 96.2316 26.0957 96.6529 26.1214 96.897 26.3971Z" fill="#4472C4" transform="matrix(1 0 0 -1 215.5 862.687)"/><path d="M412.5 809.833 486.208 809.833 486.208 811.167 412.5 811.167ZM478.544 805.258 487.531 810.5 478.544 815.743C478.226 815.928 477.818 815.821 477.632 815.503 477.447 815.185 477.554 814.776 477.872 814.591L485.872 809.924 485.872 811.076 477.872 806.409C477.554 806.224 477.447 805.816 477.632 805.498 477.818 805.18 478.226 805.072 478.544 805.258Z" fill="#4472C4"/><g clip-path="url(#clip1)"><g clip-path="url(#clip2)"><g clip-path="url(#clip3)"><path d="M11.0795 30.7954 28.9205 30.7954 28.9205 32.5001 11.0795 32.5001Z" fill="#4B4B4B" transform="matrix(1 0 0 1.025 229 746)"/><path d="M11.0795 23.8819 28.9205 23.8819 28.9205 25.5866 11.0795 25.5866Z" fill="#4B4B4B" transform="matrix(1 0 0 1.025 229 746)"/><path d="M11.0795 16.969 28.9205 16.969 28.9205 18.6742 11.0795 18.6742Z" fill="#4B4B4B" transform="matrix(1 0 0 1.025 229 746)"/><path d="M20.5114 10.0566 28.9205 10.0566 28.9205 11.7613 20.5114 11.7613Z" fill="#4B4B4B" transform="matrix(1 0 0 1.025 229 746)"/><path d="M32.1583 0 17.403 0C16.3437 0 15.3277 0.421094 14.5786 1.16945L5.37453 10.3741C4.62531 11.123 4.20453 12.1394 4.20453 13.1987L4.20453 36.3628C4.20453 38.3683 5.83648 40 7.84203 40L32.1582 40C34.1634 40 35.7954 38.3683 35.7954 36.3628L35.7954 3.63609C35.7955 1.63109 34.1634 0 32.1583 0ZM16.1134 2.52727 16.1134 10.7032C16.1134 11.587 15.7693 11.9315 14.8855 11.9315L6.70914 11.9315 16.1134 2.52727ZM33.7502 36.3628C33.7502 37.2407 33.0356 37.9544 32.1583 37.9544L7.84203 37.9544C6.96414 37.9544 6.24984 37.2407 6.24984 36.3628L6.24984 13.7498 15.9806 13.7498C17.0564 13.7498 17.932 12.8743 17.932 11.7979L17.932 2.04562 32.1583 2.04562C33.0356 2.04562 33.7502 2.75867 33.7502 3.63609L33.7502 36.3628Z" fill="#4B4B4B" transform="matrix(1 0 0 1.025 229 746)"/></g></g></g><g clip-path="url(#clip4)"><g clip-path="url(#clip5)"><g clip-path="url(#clip6)"><path d="M11.0795 30.7954 28.9205 30.7954 28.9205 32.5001 11.0795 32.5001Z" fill="#4B4B4B" transform="matrix(1 0 0 1.025 229 825)"/><path d="M11.0795 23.8819 28.9205 23.8819 28.9205 25.5866 11.0795 25.5866Z" fill="#4B4B4B" transform="matrix(1 0 0 1.025 229 825)"/><path d="M11.0795 16.969 28.9205 16.969 28.9205 18.6742 11.0795 18.6742Z" fill="#4B4B4B" transform="matrix(1 0 0 1.025 229 825)"/><path d="M20.5114 10.0566 28.9205 10.0566 28.9205 11.7613 20.5114 11.7613Z" fill="#4B4B4B" transform="matrix(1 0 0 1.025 229 825)"/><path d="M32.1583 0 17.403 0C16.3437 0 15.3277 0.421094 14.5786 1.16945L5.37453 10.3741C4.62531 11.123 4.20453 12.1394 4.20453 13.1987L4.20453 36.3628C4.20453 38.3683 5.83648 40 7.84203 40L32.1582 40C34.1634 40 35.7954 38.3683 35.7954 36.3628L35.7954 3.63609C35.7955 1.63109 34.1634 0 32.1583 0ZM16.1134 2.52727 16.1134 10.7032C16.1134 11.587 15.7693 11.9315 14.8855 11.9315L6.70914 11.9315 16.1134 2.52727ZM33.7502 36.3628C33.7502 37.2407 33.0356 37.9544 32.1583 37.9544L7.84203 37.9544C6.96414 37.9544 6.24984 37.2407 6.24984 36.3628L6.24984 13.7498 15.9806 13.7498C17.0564 13.7498 17.932 12.8743 17.932 11.7979L17.932 2.04562 32.1583 2.04562C33.0356 2.04562 33.7502 2.75867 33.7502 3.63609L33.7502 36.3628Z" fill="#4B4B4B" transform="matrix(1 0 0 1.025 229 825)"/></g></g></g><g clip-path="url(#clip7)"><g clip-path="url(#clip8)"><g clip-path="url(#clip9)"><path d="M443.08 818.795 460.921 818.795 460.921 820.5 443.08 820.5Z" fill="#4B4B4B"/><path d="M443.08 811.882 460.921 811.882 460.921 813.587 443.08 813.587Z" fill="#4B4B4B"/><path d="M443.08 804.969 460.921 804.969 460.921 806.674 443.08 806.674Z" fill="#4B4B4B"/><path d="M452.511 798.057 460.92 798.057 460.92 799.761 452.511 799.761Z" fill="#4B4B4B"/><path d="M464.158 788 449.403 788C448.344 788 447.328 788.421 446.579 789.169L437.375 798.374C436.625 799.123 436.205 800.139 436.205 801.199L436.205 824.363C436.205 826.368 437.836 828 439.842 828L464.158 828C466.163 828 467.795 826.368 467.795 824.363L467.795 791.636C467.795 789.631 466.163 788 464.158 788ZM448.113 790.527 448.113 798.703C448.113 799.587 447.769 799.931 446.885 799.931L438.709 799.931 448.113 790.527ZM465.75 824.363C465.75 825.241 465.036 825.954 464.158 825.954L439.842 825.954C438.964 825.954 438.25 825.241 438.25 824.363L438.25 801.75 447.981 801.75C449.056 801.75 449.932 800.874 449.932 799.798L449.932 790.046 464.158 790.046C465.036 790.046 465.75 790.759 465.75 791.636L465.75 824.363Z" fill="#4B4B4B"/></g></g></g><path d="M74.5001 715.5 150.333 715.5 150.333 715.5 182.833 715.5 204.5 715.5 204.5 760.417 237.617 766.255 204.5 779.667 204.5 792.5 182.833 792.5 150.333 792.5 150.333 792.5 74.5001 792.5 74.5001 779.667 74.5001 760.417 74.5001 760.417Z" stroke="#FFC000" stroke-width="1.33333" stroke-miterlimit="8" fill="#FFFFFF" fill-rule="evenodd"/><text font-family="Yu Gothic,Yu Gothic_MSFontService,sans-serif" font-weight="400" font-size="13" transform="translate(83.567 733)">別の工程で作られ<tspan font-size="13" x="0" y="16">た、モデルや、</tspan><tspan font-size="13" x="0" y="32">ドキュメント、</tspan><tspan font-size="13" x="0" y="48">モジュールなど</tspan></text><path d="M74.5001 802.5 150.333 802.5 150.333 802.5 182.833 802.5 204.5 802.5 204.5 817 218.654 825.755 204.5 838.75 204.5 889.5 182.833 889.5 150.333 889.5 150.333 889.5 74.5001 889.5 74.5001 838.75 74.5001 817 74.5001 817Z" stroke="#FFC000" stroke-width="1.33333" stroke-miterlimit="8" fill="#FFFFFF" fill-rule="evenodd"/><text font-family="Yu Gothic,Yu Gothic_MSFontService,sans-serif" font-weight="400" font-size="13" transform="translate(83.5669 826)">入力は何本あって<tspan font-size="13" x="0" y="16">も良く、作業工程</tspan><tspan font-size="13" x="0" y="32">に必要な情報が網</tspan><tspan font-size="13" x="0" y="48">羅されている事</tspan></text><path d="M517.5 722.5 539.167 722.5 539.167 722.5 571.667 722.5 647.5 722.5 647.5 786.667 647.5 786.667 647.5 814.167 647.5 832.5 571.667 832.5 539.167 832.5 539.167 832.5 517.5 832.5 517.5 814.167 483.079 794.999 517.5 786.667Z" stroke="#FFC000" stroke-width="1.33333" stroke-miterlimit="8" fill="#FFFFFF" fill-rule="evenodd"/><text font-family="Yu Gothic,Yu Gothic_MSFontService,sans-serif" font-weight="400" font-size="13" transform="translate(526.213 741)">作業工程により、<tspan font-size="13" x="0" y="16">内容、質、状態、</tspan><tspan font-size="13" x="0" y="32">量が異なる成果物</tspan><tspan font-size="13" x="0" y="48">が生成される</tspan><tspan font-size="13" x="0" y="64">出力</tspan><tspan font-size="13" x="26.6666" y="64">は一つが望ま</tspan><tspan font-size="13" x="0" y="80">しい</tspan></text><path d="M296.5 707.5 331.5 707.5 331.5 707.5 384 707.5 506.5 707.5 506.5 744.833 506.5 744.833 506.5 760.833 506.5 771.5 384 771.5 338.294 792.735 331.5 771.5 296.5 771.5 296.5 760.833 296.5 744.833 296.5 744.833Z" stroke="#FFC000" stroke-width="1.33333" stroke-miterlimit="8" fill="#FFFFFF" fill-rule="evenodd"/><text font-family="Yu Gothic,Yu Gothic_MSFontService,sans-serif" font-weight="400" font-size="13" transform="translate(305.53 727)">予め定義された作業内容で入力<tspan font-size="13" x="0" y="16">情報から出力成果物を作成する</tspan><tspan font-size="13" x="0" y="32">作業を行う。自動化もあり</tspan></text><path d="M376.5 844.5 420.5 844.5 372.812 821.166 486.5 844.5 640.5 844.5 640.5 854.5 640.5 854.5 640.5 869.5 640.5 904.5 486.5 904.5 420.5 904.5 420.5 904.5 376.5 904.5 376.5 869.5 376.5 854.5 376.5 854.5Z" stroke="#FFC000" stroke-width="1.33333" stroke-miterlimit="8" fill="#FFFFFF" fill-rule="evenodd"/><text font-family="Yu Gothic,Yu Gothic_MSFontService,sans-serif" font-weight="400" font-size="13" transform="translate(385.273 870)">入力で定義された情報が全て利用可能に<tspan font-size="13" x="0" y="16">なった時点で、作業工程を開始できる</tspan><tspan font-size="13" x="-273.892" y="70">作業の担当者は、作業を行うのに必要な基礎知識、スキルを持っていることが前提</tspan></text></g></svg>