<svg width="348" height="110" xmlns="http://www.w3.org/2000/svg" xmlns:xlink="http://www.w3.org/1999/xlink" overflow="hidden"><defs><clipPath id="clip0"><rect x="172" y="877" width="348" height="110"/></clipPath><linearGradient x1="392" y1="934.5" x2="392" y2="962.5" gradientUnits="userSpaceOnUse" spreadMethod="reflect" id="fill1"><stop offset="0" stop-color="#FFDD9C"/><stop offset="0.5" stop-color="#FFD78E"/><stop offset="1" stop-color="#FFD479"/></linearGradient><clipPath id="clip2"><rect x="174" y="892" width="63" height="62"/></clipPath><clipPath id="clip3"><rect x="174" y="892" width="63" height="62"/></clipPath><clipPath id="clip4"><rect x="174" y="892" width="63" height="62"/></clipPath></defs><g clip-path="url(#clip0)" transform="translate(-172 -877)"><path d="M261 877 304.167 877 304.167 877 368.917 877 520 877 520 940.583 520 940.583 520 967.833 520 986 368.917 986 304.167 986 304.167 986 261 986 261 967.833 231.324 937.241 261 940.583Z" fill="#F2F2F2" fill-rule="evenodd"/><path d="M282.5 962.5 289.5 934.5 501.5 934.5 494.5 962.5Z" stroke="#FFC000" stroke-width="0.666667" stroke-miterlimit="8" fill="url(#fill1)" fill-rule="evenodd"/><g clip-path="url(#clip2)"><g clip-path="url(#clip3)"><g clip-path="url(#clip4)"><path d="M57.8024 14.3718 39.5911 27.2713 39.5911 14.3718 20.5871 27.8327 19.004 3.28564 3.16624 3.28564 0 58.7144 62 58.7144 57.8024 14.3718ZM23.5709 44.7493 16.0909 44.7493 16.0909 37.2683 23.5709 37.2683 23.5709 44.7493ZM44.8178 44.7493 37.3356 44.7493 37.3356 37.2683 44.8178 37.2683 44.8178 44.7493Z" fill="#4B4B4B" transform="matrix(1.01613 0 0 1 174 892)"/></g></g></g><text font-family="Calibri,Calibri_MSFontService,sans-serif" font-weight="400" font-size="11" transform="translate(182.633 968)">F002:<tspan font-family="Yu Gothic,Yu Gothic_MSFontService,sans-serif" font-size="11" x="23.6667" y="0">工場</tspan></text><path d="M182.633 969.161 193.883 969.161 205.133 969.161 216.383 969.161 227.633 969.161 227.633 970.161 216.383 970.161 205.133 970.161 193.883 970.161 182.633 970.161Z" fill-rule="evenodd"/><rect x="315.5" y="915.5" width="28" height="28" stroke="#2F528F" stroke-width="3" stroke-miterlimit="8" fill="#FFFFFF"/><path d="M321.5 929C321.5 924.306 325.082 920.5 329.5 920.5 333.918 920.5 337.5 924.306 337.5 929 337.5 933.694 333.918 937.5 329.5 937.5 325.082 937.5 321.5 933.694 321.5 929Z" stroke="#AE5A21" stroke-width="1.33333" stroke-miterlimit="8" fill="#FFFFFF" fill-rule="evenodd"/><path d="M315.5 911.5 316.75 906.5 342.25 906.5 343.5 911.5Z" stroke="#2F528F" stroke-width="3" stroke-miterlimit="8" fill="#FFFFFF" fill-rule="evenodd"/><path d="M0 5 1.24999 0 26.75 0 28 5Z" stroke="#2F528F" stroke-width="3" stroke-miterlimit="8" fill="#FFFFFF" fill-rule="evenodd" transform="matrix(1 0 0 -1 315.5 952.5)"/><rect x="318.5" y="898.5" width="22" height="5" stroke="#2F528F" stroke-width="3" stroke-miterlimit="8" fill="#FFFFFF"/><path d="M331.677 934.688 325.818 926.231 324.832 926.915 325.437 923.575 328.777 924.181 327.791 924.865 333.65 933.321Z" stroke="#AE5A21" stroke-width="1.33333" stroke-miterlimit="8" fill="#ED7D31" fill-rule="evenodd"/><rect x="387.5" y="915.5" width="28" height="28" stroke="#2F528F" stroke-width="3" stroke-miterlimit="8" fill="#FFFFFF"/><path d="M392.5 929C392.5 924.306 396.306 920.5 401 920.5 405.694 920.5 409.5 924.306 409.5 929 409.5 933.694 405.694 937.5 401 937.5 396.306 937.5 392.5 933.694 392.5 929Z" stroke="#AE5A21" stroke-width="1.33333" stroke-miterlimit="8" fill="#FFFFFF" fill-rule="evenodd"/><path d="M387.5 911.5 388.75 906.5 414.25 906.5 415.5 911.5Z" stroke="#2F528F" stroke-width="3" stroke-miterlimit="8" fill="#FFFFFF" fill-rule="evenodd"/><path d="M0 5 1.24999 0 26.75 0 28 5Z" stroke="#2F528F" stroke-width="3" stroke-miterlimit="8" fill="#FFFFFF" fill-rule="evenodd" transform="matrix(1 0 0 -1 387.5 952.5)"/><rect x="390.5" y="898.5" width="22" height="5" stroke="#2F528F" stroke-width="3" stroke-miterlimit="8" fill="#FFFFFF"/><path d="M395.958 933.037 402.314 924.947 401.371 924.206 404.74 923.802 405.145 927.171 404.201 926.43 397.845 934.52Z" stroke="#AE5A21" stroke-width="1.33333" stroke-miterlimit="8" fill="#ED7D31" fill-rule="evenodd"/><rect x="459.5" y="914.5" width="28" height="28" stroke="#2F528F" stroke-width="3" stroke-miterlimit="8" fill="#FFFFFF"/><path d="M464.5 929C464.5 924.306 468.306 920.5 473 920.5 477.694 920.5 481.5 924.306 481.5 929 481.5 933.694 477.694 937.5 473 937.5 468.306 937.5 464.5 933.694 464.5 929Z" stroke="#AE5A21" stroke-width="1.33333" stroke-miterlimit="8" fill="#FFFFFF" fill-rule="evenodd"/><path d="M459.5 910.5 460.5 906.5 486.5 906.5 487.5 910.5Z" stroke="#2F528F" stroke-width="3" stroke-miterlimit="8" fill="#FFFFFF" fill-rule="evenodd"/><path d="M0 5 1.24999 0 26.75 0 28 5Z" stroke="#2F528F" stroke-width="3" stroke-miterlimit="8" fill="#FFFFFF" fill-rule="evenodd" transform="matrix(1 0 0 -1 459.5 951.5)"/><rect x="461.5" y="897.5" width="23" height="5" stroke="#2F528F" stroke-width="3" stroke-miterlimit="8" fill="#FFFFFF"/><path d="M478.799 926.361 469.604 930.976 470.142 932.048 466.921 930.979 467.99 927.758 468.528 928.831 477.723 924.216Z" stroke="#AE5A21" stroke-width="1.33333" stroke-miterlimit="8" fill="#ED7D31" fill-rule="evenodd"/><path d="M343 926 349 926 349 932 343 932ZM355 926 361 926 361 932 355 932ZM367 926 371.787 926 371.787 932 367 932ZM368.787 920 386.787 929 368.787 938Z" fill="#4472C4"/><path d="M0.0449225-2.99966 6.04425-2.90982 5.9544 3.08951-0.0449225 2.99966ZM12.0436-2.81997 18.0429-2.73013 17.9531 3.2692 11.9537 3.17935ZM24.0422-2.64028 28.8337-2.56853 28.7438 3.4308 23.9524 3.35904ZM25.9239-8.61278 43.7871 0.655748 25.6543 9.3852Z" fill="#4472C4" transform="matrix(1 0 0 -1 415 928.656)"/></g></svg>