<svg width="608" height="822" xmlns="http://www.w3.org/2000/svg" xmlns:xlink="http://www.w3.org/1999/xlink" overflow="hidden"><defs><clipPath id="clip0"><rect x="56" y="40" width="608" height="822"/></clipPath></defs><g clip-path="url(#clip0)" transform="translate(-56 -40)"><rect x="58.5001" y="41.5001" width="604" height="819" stroke="#D9D9D9" stroke-width="1.33333" stroke-miterlimit="8" fill="none"/><text font-family="Yu Gothic,Yu Gothic_MSFontService,sans-serif" font-weight="400" font-size="16" transform="translate(216 61)">開発プロセスの概念モデル（一部抜粋）</text><rect x="146.5" y="312.5" width="126" height="77" stroke="#000000" stroke-width="1.33333" stroke-miterlimit="8" fill="#FFFFFF"/><text font-family="Yu Gothic,Yu Gothic_MSFontService,sans-serif" font-weight="400" font-size="16" transform="translate(176.706 356)">ドメイン</text><rect x="408.5" y="312.5" width="126" height="77" stroke="#000000" stroke-width="1.33333" stroke-miterlimit="8" fill="#FFFFFF"/><text font-family="Yu Gothic,Yu Gothic_MSFontService,sans-serif" font-weight="400" font-size="16" transform="translate(430.995 356)">開発チーム</text><path d="M0 0 136.514 0.000104987" stroke="#000000" stroke-width="0.666667" stroke-miterlimit="8" fill="none" fill-rule="evenodd" transform="matrix(1 0 0 -1 272.5 350.5)"/><text font-family="Calibri,Calibri_MSFontService,sans-serif" font-weight="400" font-size="13" transform="translate(278.613 363)">1..*<tspan font-family="Yu Gothic,Yu Gothic_MSFontService,sans-serif" font-size="13" x="-2.74478" y="-25">担当</tspan><tspan font-size="13" x="113.277" y="0">1</tspan><tspan font-family="Yu Gothic,Yu Gothic_MSFontService,sans-serif" font-size="13" x="71.5979" y="-22">オーナー</tspan></text><rect x="408.5" y="120.5" width="126" height="76" stroke="#000000" stroke-width="1.33333" stroke-miterlimit="8" fill="#FFFFFF"/><text font-family="Yu Gothic,Yu Gothic_MSFontService,sans-serif" font-weight="400" font-size="16" transform="translate(446.995 164)">チーム</text><rect x="422.5" y="565.5" width="126" height="76" stroke="#000000" stroke-width="1.33333" stroke-miterlimit="8" fill="#FFFFFF"/><text font-family="Yu Gothic,Yu Gothic_MSFontService,sans-serif" font-weight="400" font-size="16" transform="translate(453.118 599)">組織標準<tspan font-size="16" x="8" y="19">ツール</tspan></text><rect x="146.5" y="120.5" width="126" height="76" stroke="#000000" stroke-width="1.33333" stroke-miterlimit="8" fill="#FFFFFF"/><text font-family="Yu Gothic,Yu Gothic_MSFontService,sans-serif" font-weight="400" font-size="16" transform="translate(176.706 163)">システム</text><path d="M209.5 196.5 209.5 312.494" stroke="#000000" stroke-width="0.666667" stroke-miterlimit="8" fill="none" fill-rule="evenodd"/><text font-family="Calibri,Calibri_MSFontService,sans-serif" font-weight="400" font-size="13" transform="translate(218.734 302)">1..*<tspan font-size="13" x="-28.0728" y="-84">*</tspan><tspan font-size="13" x="-51.1514" y="-16">Logical</tspan><tspan font-size="13" x="-51.1514" y="0">Model</tspan></text><rect x="408.5" y="216.5" width="126" height="76" stroke="#000000" stroke-width="1.33333" stroke-miterlimit="8" fill="#FFFFFF"/><text font-family="Yu Gothic,Yu Gothic_MSFontService,sans-serif" font-weight="400" font-size="16" transform="translate(430.995 260)">管理チーム</text><path d="M0 0-24 0-24 262.289 0.0675066 262.289" stroke="#000000" stroke-width="0.666667" stroke-miterlimit="8" fill="none" fill-rule="evenodd" transform="matrix(1.83697e-16 1 1 -1.83697e-16 209.5 120.5)"/><text font-family="Calibri,Calibri_MSFontService,sans-serif" font-weight="400" font-size="13" transform="translate(193.105 113)">1<tspan font-size="13" x="287.49" y="0">1..*</tspan></text><path d="M551.5 168.5 534.5 158.5 551.5 148.5Z" stroke="#000000" stroke-width="1.33333" stroke-miterlimit="8" fill="none" fill-rule="evenodd"/><path d="M0 0 42.5664 0 42.5664 96.1772 17.1884 96.1772" stroke="#000000" stroke-width="0.666667" stroke-miterlimit="8" fill="none" fill-rule="evenodd" transform="matrix(1 0 0 -1 534.5 254.677)"/><path d="M0 0 42.5664 0 42.5664 192.287 17.1884 192.287" stroke="#000000" stroke-width="0.666667" stroke-miterlimit="8" fill="none" fill-rule="evenodd" transform="matrix(1 0 0 -1 534.5 350.787)"/><rect x="245.5" y="565.5" width="126" height="76" stroke="#000000" stroke-width="1.33333" stroke-miterlimit="8" fill="#FFFFFF"/><text font-family="Yu Gothic,Yu Gothic_MSFontService,sans-serif" font-weight="400" font-size="16" transform="translate(259.777 599)">ドメイン特化<tspan font-size="16" x="24" y="19">ツール</tspan></text><rect x="345.5" y="706.5" width="126" height="76" stroke="#000000" stroke-width="1.33333" stroke-miterlimit="8" fill="#FFFFFF"/><text font-family="Yu Gothic,Yu Gothic_MSFontService,sans-serif" font-weight="400" font-size="16" transform="translate(368.229 750)">開発ツール</text><path d="M418.5 688.5 408.5 705.5 398.5 688.5Z" stroke="#000000" stroke-width="1.33333" stroke-miterlimit="8" fill="none" fill-rule="evenodd"/><path d="M0 0 23.2772 0 23.2772 100.134 46.5543 100.134" stroke="#000000" stroke-width="0.666667" stroke-miterlimit="8" fill="none" fill-rule="evenodd" transform="matrix(1.83697e-16 1 1 -1.83697e-16 308.5 641.5)"/><path d="M485.707 641.5 485.707 664.777 408.5 664.777 408.5 688.055" stroke="#000000" stroke-width="0.666667" stroke-miterlimit="8" fill="none" fill-rule="evenodd"/><rect x="147.5" y="705.5" width="125" height="76" stroke="#000000" stroke-width="1.33333" stroke-miterlimit="8" fill="#FFFFFF"/><text font-family="Yu Gothic,Yu Gothic_MSFontService,sans-serif" font-weight="400" font-size="16" transform="translate(161.299 749)">開発支援環境</text><path d="M272.5 743.5 345.9 744.646" stroke="#000000" stroke-width="0.666667" stroke-miterlimit="8" fill="none" fill-rule="evenodd"/><text font-family="Calibri,Calibri_MSFontService,sans-serif" font-weight="400" font-size="13" transform="translate(318.364 762)">1..*</text><path d="M146.5 158.5 122.5 158.5 122.5 743.548 147.338 743.548" stroke="#000000" stroke-width="0.666667" stroke-miterlimit="8" fill="none" fill-rule="evenodd"/><text font-family="Calibri,Calibri_MSFontService,sans-serif" font-weight="400" font-size="13" transform="translate(136.528 763)">1</text><path d="M0 0 214.543 0 214.543 36.0615" stroke="#000000" stroke-width="0.666667" stroke-miterlimit="8" fill="none" fill-rule="evenodd" transform="matrix(1.83697e-16 1 1 -1.83697e-16 209.5 389.5)"/><text font-family="Calibri,Calibri_MSFontService,sans-serif" font-weight="400" font-size="13" transform="translate(183.837 406)">1..*<tspan font-size="13" x="51.738" y="192">*</tspan><tspan font-size="13" x="34.5184" y="-1">target</tspan><tspan font-size="13" x="13.1497" y="217">utilities</tspan></text><rect x="317.5" y="442.5" width="126" height="76" stroke="#000000" stroke-width="1.33333" stroke-miterlimit="8" fill="#FFFFFF"/><text font-family="Yu Gothic,Yu Gothic_MSFontService,sans-serif" font-weight="400" font-size="16" transform="translate(339.925 485)">モジュール</text><path d="M271.5 373.5 379.962 373.5 379.962 441.862" stroke="#000000" stroke-width="0.666667" stroke-miterlimit="8" fill="none" fill-rule="evenodd"/><text font-family="Calibri,Calibri_MSFontService,sans-serif" font-weight="400" font-size="13" transform="translate(278.074 389)">1..*<tspan font-size="13" x="77.7606" y="45">1..*</tspan><tspan font-size="13" x="107.092" y="45">Derived artifacts</tspan></text><path d="M443.5 480.5 485.684 480.5 485.684 565.749" stroke="#000000" stroke-width="0.666667" stroke-miterlimit="8" fill="none" fill-rule="evenodd"/><text font-family="Calibri,Calibri_MSFontService,sans-serif" font-weight="400" font-size="13" transform="translate(450.087 498)">1..*<tspan font-size="13" x="-3.6142" y="-26">target</tspan><tspan font-size="13" x="22.3029" y="61">*</tspan><tspan font-size="13" x="46.0865" y="58">utilities</tspan></text><rect x="527.5" y="409.5" width="125" height="76" stroke="#000000" stroke-width="1.33333" stroke-miterlimit="8" fill="#FFFFFF"/><text font-family="Yu Gothic,Yu Gothic_MSFontService,sans-serif" font-weight="400" font-size="16" transform="translate(557.315 452)">メンバー</text><path d="M534.5 135.5 590.092 135.5 590.092 408.754" stroke="#000000" stroke-width="0.666667" stroke-miterlimit="8" fill="none" fill-rule="evenodd"/><text font-family="Calibri,Calibri_MSFontService,sans-serif" font-weight="400" font-size="13" transform="translate(541.233 129)">1<tspan font-size="13" x="57.6515" y="272">1..*</tspan></text></g></svg>