<svg width="607" height="1015" xmlns="http://www.w3.org/2000/svg" xmlns:xlink="http://www.w3.org/1999/xlink" overflow="hidden"><defs><clipPath id="clip0"><rect x="60" y="12" width="607" height="1015"/></clipPath><clipPath id="clip1"><rect x="186" y="52" width="345" height="284"/></clipPath><clipPath id="clip2"><rect x="186" y="52" width="345" height="284"/></clipPath><clipPath id="clip3"><rect x="186" y="52" width="345" height="284"/></clipPath><clipPath id="clip4"><rect x="186" y="52" width="345" height="284"/></clipPath><clipPath id="clip5"><rect x="410" y="210" width="11" height="12"/></clipPath><clipPath id="clip6"><rect x="410" y="210" width="11" height="12"/></clipPath><clipPath id="clip7"><rect x="410" y="210" width="11" height="12"/></clipPath><clipPath id="clip8"><rect x="506" y="250" width="16" height="16"/></clipPath><clipPath id="clip9"><rect x="506" y="250" width="16" height="16"/></clipPath><clipPath id="clip10"><rect x="506" y="250" width="16" height="16"/></clipPath><clipPath id="clip11"><rect x="280" y="65" width="18" height="17"/></clipPath><clipPath id="clip12"><rect x="280" y="65" width="18" height="17"/></clipPath><clipPath id="clip13"><rect x="280" y="65" width="18" height="17"/></clipPath><clipPath id="clip14"><rect x="299" y="602" width="62" height="62"/></clipPath><clipPath id="clip15"><rect x="299" y="602" width="62" height="62"/></clipPath><clipPath id="clip16"><rect x="299" y="602" width="62" height="62"/></clipPath><clipPath id="clip17"><rect x="392" y="608" width="214" height="68"/></clipPath><clipPath id="clip18"><rect x="392" y="608" width="214" height="68"/></clipPath><clipPath id="clip19"><rect x="392" y="608" width="214" height="68"/></clipPath><clipPath id="clip20"><rect x="392" y="608" width="214" height="68"/></clipPath><linearGradient x1="241.057" y1="574.664" x2="241.057" y2="591.882" gradientUnits="userSpaceOnUse" spreadMethod="reflect" id="fill21"><stop offset="0" stop-color="#FFDD9C"/><stop offset="0.5" stop-color="#FFD78E"/><stop offset="1" stop-color="#FFD479"/></linearGradient><clipPath id="clip22"><rect x="393" y="617" width="39" height="39"/></clipPath><clipPath id="clip23"><rect x="393" y="617" width="39" height="39"/></clipPath><clipPath id="clip24"><rect x="393" y="617" width="39" height="39"/></clipPath><clipPath id="clip25"><rect x="299" y="734" width="62" height="62"/></clipPath><clipPath id="clip26"><rect x="299" y="734" width="62" height="62"/></clipPath><clipPath id="clip27"><rect x="299" y="734" width="62" height="62"/></clipPath></defs><g clip-path="url(#clip0)" transform="translate(-60 -12)"><rect x="158.5" y="25.5001" width="404" height="320" stroke="#4472C4" stroke-width="1.33333" stroke-miterlimit="8" fill="#F2F2F2"/><text font-family="Yu Gothic,Yu Gothic_MSFontService,sans-serif" font-weight="400" font-size="13" transform="translate(280 42)">ドメイン<tspan font-size="13" x="53.3333" y="0">の概念情報モデル</tspan></text><rect x="61.5001" y="14.5001" width="605" height="1012" stroke="#D9D9D9" stroke-width="1.33333" stroke-miterlimit="8" fill="none"/><path d="M299.5 420.5 411.5 420.5 411.5 469.666 401.667 479.5 299.5 479.5Z" fill="#FFFFFF" fill-rule="evenodd"/><path d="M401.667 479.5 403.633 471.633 411.5 469.666Z" fill="#CDCDCD" fill-rule="evenodd"/><path d="M401.667 479.5 403.633 471.633 411.5 469.666 401.667 479.5 299.5 479.5 299.5 420.5 411.5 420.5 411.5 469.666" stroke="#4472C4" stroke-width="1.33333" stroke-miterlimit="8" fill="none" fill-rule="evenodd"/><text font-family="Calibri,Calibri_MSFontService,sans-serif" font-weight="400" font-size="13" transform="translate(318.88 441)">ASN.1<tspan font-family="Yu Gothic,Yu Gothic_MSFontService,sans-serif" font-size="13" x="32.6667" y="0">による</tspan><tspan font-size="13" x="3.57999" y="16">Syntax</tspan><tspan font-family="Yu Gothic,Yu Gothic_MSFontService,sans-serif" font-size="13" x="42.4133" y="16">定義</tspan></text><g clip-path="url(#clip1)"><g clip-path="url(#clip2)"><g clip-path="url(#clip3)"><g clip-path="url(#clip4)"><path d="M99.5297 45.064 181.228 45.064 181.228 101.475 99.5297 101.475Z" stroke="#000000" stroke-width="0.864534" stroke-miterlimit="8" fill="#FFFFFF" transform="matrix(1.00015 0 0 1 123.096 7.90868)"/><text font-family="Yu Gothic,Yu Gothic_MSFontService,sans-serif" font-weight="400" font-size="13" transform="matrix(0.648496 0 0 0.648402 254.579 64)">工場<tspan font-family="Consolas,Consolas_MSFontService,sans-serif" font-size="12" x="-40.2467" y="13.8803">*</tspan><tspan font-size="12" x="-33.58" y="13.8803">工場</tspan><tspan font-family="Consolas,Consolas_MSFontService,sans-serif" font-size="12" x="-9.58001" y="13.8803">ID</tspan><tspan font-size="12" x="-28.2467" y="27.7606">工場名</tspan><tspan font-size="12" x="-28.2467" y="43.1831">所在地</tspan><tspan font-size="12" x="-28.2467" y="57.0634">消費電力</tspan><tspan font-family="Consolas,Consolas_MSFontService,sans-serif" font-size="12" x="19.7533" y="57.0634">(</tspan><tspan font-family="Consolas,Consolas_MSFontService,sans-serif" font-size="12" x="26.7533" y="57.0634">M</tspan><tspan font-family="Consolas,Consolas_MSFontService,sans-serif" font-size="12" x="33.7533" y="57.0634">)</tspan></text><path d="M99.5297 133.247 181.228 133.247 181.228 189.658 99.5297 189.658Z" stroke="#000000" stroke-width="0.864534" stroke-miterlimit="8" fill="#FFFFFF" transform="matrix(1.00015 0 0 1 123.096 7.90868)"/><text font-family="Yu Gothic,Yu Gothic_MSFontService,sans-serif" font-weight="400" font-size="13" transform="matrix(0.648496 0 0 0.648402 241.609 152)">生産<tspan font-size="13" x="26" y="0">ライン</tspan><tspan font-family="Consolas,Consolas_MSFontService,sans-serif" font-size="12" x="-20.2467" y="15.4225">*</tspan><tspan font-size="12" x="-13.58" y="15.4225">生産</tspan><tspan font-size="12" x="10.42" y="15.4225">ライン</tspan><tspan font-family="Consolas,Consolas_MSFontService,sans-serif" font-size="12" x="46.42" y="15.4225">ID</tspan><tspan font-size="12" x="-8.24669" y="29.3028">消費電力</tspan><tspan font-family="Consolas,Consolas_MSFontService,sans-serif" font-size="12" x="39.7533" y="29.3028">(</tspan><tspan font-family="Consolas,Consolas_MSFontService,sans-serif" font-size="12" x="46.7533" y="29.3028">M</tspan><tspan font-family="Consolas,Consolas_MSFontService,sans-serif" font-size="12" x="53.7533" y="29.3028">)</tspan><tspan font-size="12" x="-8.24669" y="43.1831">稼働状態</tspan></text><path d="M140.379 101.475 140.379 133.167" stroke="#000000" stroke-width="0.432268" stroke-miterlimit="8" fill="none" fill-rule="evenodd" transform="matrix(1.00015 0 0 1 123.096 7.90868)"/><text font-family="Calibri,Calibri_MSFontService,sans-serif" font-weight="400" font-size="11" transform="matrix(0.648496 0 0 0.648402 258.666 126)">R<tspan font-size="11" x="5.99997" y="0">_</tspan><tspan font-size="11" x="11" y="0">FL</tspan><tspan font-size="11" x="21" y="0">1</tspan><tspan font-size="11" x="-0.814826" y="-13.8803">1</tspan></text><path d="M325.173 228.562 406.872 228.562 406.872 284.973 325.173 284.973Z" stroke="#000000" stroke-width="0.864534" stroke-miterlimit="8" fill="#FFFFFF" transform="matrix(1.00015 0 0 1 123.096 7.90868)"/><text font-family="Yu Gothic,Yu Gothic_MSFontService,sans-serif" font-weight="400" font-size="13" transform="matrix(0.648496 0 0 0.648402 480.352 247)">製品<tspan font-family="Consolas,Consolas_MSFontService,sans-serif" font-size="12" x="-40.2466" y="13.8803">*</tspan><tspan font-size="12" x="-33.58" y="13.8803">製品</tspan><tspan font-family="Consolas,Consolas_MSFontService,sans-serif" font-size="12" x="-9.57999" y="13.8803">ID</tspan></text><path d="M99.5297 221.429 181.228 221.429 181.228 291.457 99.5297 291.457Z" stroke="#000000" stroke-width="0.864534" stroke-miterlimit="8" fill="#FFFFFF" transform="matrix(1.00015 0 0 1 123.096 7.90868)"/><text font-family="Yu Gothic,Yu Gothic_MSFontService,sans-serif" font-weight="400" font-size="13" transform="matrix(0.648496 0 0 0.648402 254.579 240)">装置<tspan font-family="Consolas,Consolas_MSFontService,sans-serif" font-size="12" x="-40.2467" y="15.4225">*</tspan><tspan font-size="12" x="-33.58" y="15.4225">装置</tspan><tspan font-family="Consolas,Consolas_MSFontService,sans-serif" font-size="12" x="-9.58001" y="15.4225">ID</tspan><tspan font-size="12" x="-28.2467" y="29.3028">消費電力</tspan><tspan font-family="Consolas,Consolas_MSFontService,sans-serif" font-size="12" x="19.7533" y="29.3028">(</tspan><tspan font-family="Consolas,Consolas_MSFontService,sans-serif" font-size="12" x="26.7533" y="29.3028">M</tspan><tspan font-family="Consolas,Consolas_MSFontService,sans-serif" font-size="12" x="33.7533" y="29.3028">)</tspan><tspan font-size="12" x="-28.2467" y="44.7254">稼働状態</tspan><tspan font-size="12" x="-28.2467" y="58.6056">温度</tspan><tspan font-size="12" x="-28.2467" y="72.4859">危険上限温度</tspan></text><path d="M0 0 6.80738e-05 31.6917" stroke="#000000" stroke-width="0.432268" stroke-miterlimit="8" fill="none" fill-rule="evenodd" transform="matrix(-1.00015 0 0 1 263.495 197.566)"/><path d="M0 0 22.5753 0 22.5753 95.4817 0.864534 95.4817" stroke="#000000" stroke-width="0.432268" stroke-miterlimit="8" fill="none" fill-rule="evenodd" transform="matrix(-1.00015 1.22465e-16 1.22483e-16 1 223.504 169.037)"/><path d="M160.881 291.457 160.881 314.909 121.575 314.909 121.575 292.321" stroke="#000000" stroke-width="0.432268" stroke-miterlimit="8" fill="none" fill-rule="evenodd" transform="matrix(1.00015 0 0 1 123.096 7.90868)"/><path d="M0 0 143.753 6.80738e-05" stroke="#000000" stroke-width="0.432268" stroke-miterlimit="8" fill="none" fill-rule="evenodd" transform="matrix(-1.00015 0 0 1 448.124 264.352)"/><path d="M0 0 66.8995 0 66.8995 184.747" stroke="#000000" stroke-width="0.432268" stroke-miterlimit="8" fill="none" fill-rule="evenodd" transform="matrix(-1.83724e-16 -1 -1.00015 1.83697e-16 489.124 235.936)"/><text font-family="Calibri,Calibri_MSFontService,sans-serif" font-weight="400" font-size="11" transform="matrix(0.648496 0 0 0.648402 258.138 204)">1<tspan font-size="11" x="76.0836" y="-58.6056">1</tspan><tspan font-size="11" x="-79.9445" y="-43.1831">0</tspan><tspan font-size="11" x="-73.9445" y="-43.1831">..</tspan>1<tspan font-size="11" x="-69.3974" y="86.3662">1</tspan><tspan font-size="11" x="-10.7708" y="-103.331">1</tspan><tspan font-size="11" x="-4.77079" y="-103.331">..*</tspan><tspan font-size="11" x="-9.55893" y="33.9296">1</tspan><tspan font-size="11" x="-3.55893" y="33.9296">..*</tspan><tspan font-size="11" x="345.494" y="43.1831">*</tspan><tspan font-size="11" x="76.1132" y="107.958">0</tspan><tspan font-size="11" x="82.1132" y="107.958">..</tspan><tspan font-size="11" x="88.1132" y="107.958">1</tspan><tspan font-size="11" x="273.139" y="84.824">0</tspan>..1<tspan font-size="11" x="-16.3168" y="158.852">0</tspan><tspan font-size="11" x="-10.3168" y="158.852">..</tspan><tspan font-size="11" x="-4.31679" y="158.852">1</tspan><tspan font-size="11" x="19.7595" y="157.31">0</tspan><tspan font-size="11" x="25.7595" y="157.31">..</tspan><tspan font-size="11" x="31.7595" y="157.31">1</tspan><tspan font-family="Yu Gothic,Yu Gothic_MSFontService,sans-serif" font-size="11" x="-69.3974" y="163.479">前</tspan><tspan font-family="Yu Gothic,Yu Gothic_MSFontService,sans-serif" font-size="11" x="-58.3974" y="163.479">の</tspan><tspan font-family="Yu Gothic,Yu Gothic_MSFontService,sans-serif" font-size="11" x="-47.3974" y="163.479">工程</tspan><tspan font-family="Yu Gothic,Yu Gothic_MSFontService,sans-serif" font-size="11" x="43.1512" y="163.479">後</tspan><tspan font-family="Yu Gothic,Yu Gothic_MSFontService,sans-serif" font-size="11" x="54.1512" y="163.479">の</tspan><tspan font-family="Yu Gothic,Yu Gothic_MSFontService,sans-serif" font-size="11" x="65.1512" y="163.479">工程</tspan><tspan font-family="Yu Gothic,Yu Gothic_MSFontService,sans-serif" font-size="11" x="246.94" y="107.958">仕掛</tspan><tspan font-family="Yu Gothic,Yu Gothic_MSFontService,sans-serif" font-size="11" x="268.94" y="107.958">り</tspan><tspan font-family="Yu Gothic,Yu Gothic_MSFontService,sans-serif" font-size="11" x="279.94" y="107.958">品</tspan><tspan font-family="Yu Gothic,Yu Gothic_MSFontService,sans-serif" font-size="11" x="76.7743" y="84.824">加工中</tspan><tspan font-family="Yu Gothic,Yu Gothic_MSFontService,sans-serif" font-size="11" x="361.61" y="41.6408">生産製品</tspan><tspan font-family="Yu Gothic,Yu Gothic_MSFontService,sans-serif" font-size="11" x="14.1912" y="-132.634">設置場所</tspan><tspan font-family="Yu Gothic,Yu Gothic_MSFontService,sans-serif" font-size="11" x="10.917" y="4.62676">設置場所</tspan><tspan font-family="Yu Gothic,Yu Gothic_MSFontService,sans-serif" font-size="11" x="-100.633" y="109.5">開始装置</tspan><tspan font-size="11" x="-0.816991" y="21.5916">R</tspan><tspan font-size="11" x="5.18303" y="21.5916">_</tspan><tspan font-size="11" x="10.183" y="21.5916">LE</tspan><tspan font-size="11" x="20.183" y="21.5916">1</tspan><tspan font-size="11" x="-83.6964" y="20.0493">R</tspan>_<tspan font-size="11" x="-72.6964" y="20.0493">LE</tspan><tspan font-size="11" x="-62.6964" y="20.0493">2</tspan><tspan font-size="11" x="-4.62413" y="194.324">R</tspan><tspan font-size="11" x="1.37586" y="194.324">_</tspan><tspan font-size="11" x="6.37588" y="194.324">EO</tspan><tspan font-size="11" x="18.3759" y="194.324">1</tspan><tspan font-size="11" x="116.175" y="104.873">R</tspan><tspan font-size="11" x="122.175" y="104.873">_</tspan><tspan font-size="11" x="127.175" y="104.873">EP</tspan><tspan font-size="11" x="138.175" y="104.873">1</tspan><tspan font-size="11" x="216.602" y="-60.1479">R</tspan><tspan font-size="11" x="222.602" y="-60.1479">_</tspan><tspan font-size="11" x="227.602" y="-60.1479">LP</tspan><tspan font-size="11" x="238.602" y="-60.1479">1</tspan></text><path d="M220.132 187.712 301.831 187.712 301.831 222.726 220.132 222.726Z" stroke="#000000" stroke-width="0.864534" stroke-miterlimit="8" fill="#FFFFFF" transform="matrix(1.00015 0 0 1 123.096 7.90868)"/><text font-family="Yu Gothic,Yu Gothic_MSFontService,sans-serif" font-weight="400" font-size="13" transform="matrix(0.648496 0 0 0.648402 357.955 206)">オーダー<tspan font-size="13" x="51" y="0">仕様</tspan><tspan font-size="12" x="-13.58" y="15.4225">製造</tspan><tspan font-size="12" x="10.42" y="15.4225">ステップ</tspan><tspan font-size="12" x="-13.58" y="29.3028">装置</tspan><tspan font-size="12" x="10.42" y="29.3028">コマンド</tspan></text><path d="M181.228 178.635 261.001 178.635 261.001 187.446" stroke="#000000" stroke-width="0.432268" stroke-miterlimit="8" fill="none" fill-rule="evenodd" transform="matrix(1.00015 0 0 1 123.096 7.90868)"/><path d="M0 0 79.8993 0 79.8993 8.22893" stroke="#000000" stroke-width="0.432268" stroke-miterlimit="8" fill="none" fill-rule="evenodd" transform="matrix(1.00015 0 0 -1 304.351 238.864)"/><text font-family="Calibri,Calibri_MSFontService,sans-serif" font-weight="400" font-size="11" transform="matrix(0.648496 0 0 0.648402 307.78 184)">1<tspan font-size="11" x="124.404" y="13.8803">1</tspan><tspan font-size="11" x="130.404" y="13.8803">..*</tspan><tspan font-size="11" x="130.035" y="84.824">1</tspan><tspan font-size="11" x="0.673791" y="80.1972">1</tspan><tspan font-family="Yu Gothic,Yu Gothic_MSFontService,sans-serif" font-size="11" x="124.228" y="1.54225">製造指示仕様</tspan><tspan font-family="Yu Gothic,Yu Gothic_MSFontService,sans-serif" font-size="11" x="118.549" y="97.162">製造指示仕様</tspan><tspan font-size="11" x="43.3781" y="1.54225">R</tspan><tspan font-size="11" x="49.3781" y="1.54225">_</tspan><tspan font-size="11" x="54.3781" y="1.54225">LOS</tspan><tspan font-size="11" x="71.3781" y="1.54225">1</tspan><tspan font-size="11" x="42.2527" y="92.5352">R</tspan><tspan font-size="11" x="48.2527" y="92.5352">_</tspan><tspan font-size="11" x="53.2527" y="92.5352">POS</tspan><tspan font-size="11" x="71.2527" y="92.5352">1</tspan></text><path d="M162.749 233.425 173.772 233.425 173.772 244.447 162.749 244.447Z" stroke="#2F528F" stroke-width="1.2968" stroke-miterlimit="8" fill="#FFFFFF" transform="matrix(1.00015 0 0 1 123.096 7.90868)"/><path d="M164.694 239.26C164.694 237.47 166.29 236.018 168.26 236.018 170.23 236.018 171.826 237.47 171.826 239.26 171.826 241.05 170.23 242.502 168.26 242.502 166.29 242.502 164.694 241.05 164.694 239.26Z" stroke="#AE5A21" stroke-width="1.2968" stroke-miterlimit="8" fill="#FFFFFF" fill-rule="evenodd" transform="matrix(1.00015 0 0 1 123.096 7.90868)"/><path d="M162.749 232.128 163.235 230.183 173.285 230.183 173.772 232.128Z" stroke="#2F528F" stroke-width="1.2968" stroke-miterlimit="8" fill="#FFFFFF" fill-rule="evenodd" transform="matrix(1.00015 0 0 1 123.096 7.90868)"/><path d="M0 1.94521 0.486299 0 10.5365 0 11.0228 1.94521Z" stroke="#2F528F" stroke-width="1.2968" stroke-miterlimit="8" fill="#FFFFFF" fill-rule="evenodd" transform="matrix(1.00015 0 0 -1 285.868 256.247)"/><path d="M164.046 226.941 172.475 226.941 172.475 228.886 164.046 228.886Z" stroke="#2F528F" stroke-width="1.2968" stroke-miterlimit="8" fill="#FFFFFF" transform="matrix(1.00015 0 0 1 123.096 7.90868)"/><path d="M166.178 240.526 169.123 237.758 168.8 237.414 170.133 237.456 170.092 238.788 169.769 238.445 166.824 241.213Z" stroke="#AE5A21" stroke-width="1.2968" stroke-miterlimit="8" fill="#ED7D31" fill-rule="evenodd" transform="matrix(1.00015 0 0 1 123.096 7.90868)"/><g clip-path="url(#clip5)"><g clip-path="url(#clip6)"><g clip-path="url(#clip7)"><path d="M4.04246 4.7553 8.51112 4.7553 8.51112 5.13066 4.04246 5.13066Z" fill="#4B4B4B" transform="matrix(1 0 0 1.06235 410.38 210.21)"/><path d="M3.65714 6.23918 8.12579 6.23918 8.12579 6.61473 3.65714 6.61473Z" fill="#4B4B4B" transform="matrix(1 0 0 1.06235 410.38 210.21)"/><path d="M10.3614 0.741757 10.3614 0.500275 2.79901 0.500275 2.79901 0.741757C2.79901 1.24047 2.81287 1.7618 2.81287 2.3031 2.81287 3.09252 2.78379 3.92419 2.64307 4.79001 2.50919 5.61342 2.27474 6.46788 1.86783 7.34876L1.13991 7.34876C1.01129 7.34876 0.88143 7.36945 0.756147 7.41296 0.568468 7.47813 0.39078 7.59707 0.256197 7.77197 0.121269 7.94648 0.0322627 8.17345 0.00579594 8.44102 0.00194549 8.47974 0 8.51826 0 8.55645-0.00018239 8.75048 0.0497721 8.93343 0.133874 9.09373 0.260209 9.33491 0.459804 9.52641 0.691641 9.66013 0.923841 9.79366 1.19017 9.87057 1.46143 9.87251L7.21031 9.87563C7.42917 9.87614 7.61899 9.83146 7.78053 9.75805 7.94226 9.68503 8.07423 9.58789 8.19673 9.49029 8.69757 9.09146 9.08446 8.59718 9.38147 8.04849 9.82712 7.22457 10.0732 6.27795 10.2107 5.31538 10.3479 4.35281 10.3757 3.37291 10.3759 2.48097 10.3759 1.84222 10.3614 1.24836 10.3614 0.741757ZM1.46408 9.38971 1.46427 9.38971C1.34439 9.38919 1.22015 9.36552 1.10257 9.32155 0.925949 9.25605 0.76577 9.14496 0.655545 9.01086 0.600183 8.94374 0.557078 8.87123 0.527633 8.79549 0.49839 8.71962 0.482765 8.64063 0.482765 8.55652 0.482765 8.53441 0.483819 8.51197 0.486109 8.48921 0.498897 8.36165 0.529558 8.25951 0.57021 8.17695 0.631534 8.05361 0.714442 7.97158 0.812222 7.91535 0.909821 7.85964 1.02424 7.83435 1.13991 7.83435L6.31352 7.83435C6.25744 7.89868 6.20751 7.97229 6.16754 8.05549 6.10867 8.17747 6.06926 8.31904 6.05328 8.47838 6.04978 8.51463 6.04802 8.55023 6.04802 8.58564 6.04802 8.75418 6.08833 8.91384 6.15841 9.0556 6.22149 9.18297 6.30825 9.29619 6.41109 9.39256L1.46408 9.38971ZM9.56357 6.15859C9.42427 6.7535 9.22856 7.31724 8.9569 7.81879 8.68531 8.32027 8.33921 8.75937 7.8959 9.11286 7.7841 9.20223 7.68578 9.27142 7.58222 9.31785 7.47813 9.36429 7.36718 9.3923 7.2105 9.39289L7.04928 9.39269C6.90337 9.35132 6.7679 9.2783 6.65766 9.18225 6.56862 9.10495 6.49664 9.01351 6.44703 8.91293 6.39745 8.81235 6.36991 8.70295 6.36991 8.58557 6.36991 8.56106 6.37097 8.53603 6.3736 8.51061 6.38623 8.38428 6.41637 8.28032 6.45736 8.19518 6.5192 8.06762 6.60442 7.98085 6.70286 7.92255 6.80117 7.86451 6.9142 7.8363 7.02704 7.83649 7.14098 7.8361 7.25382 7.86555 7.3472 7.91794 7.44098 7.97073 7.51439 8.04479 7.55887 8.1372 7.58241 8.1859 7.59694 8.25095 7.59694 8.31645 7.59694 8.37027 7.58728 8.42371 7.56977 8.46839 7.55239 8.51339 7.52768 8.54867 7.49895 8.57319 7.445 8.61858 7.38994 8.63577 7.33436 8.63609 7.28605 8.63609 7.23767 8.62156 7.1974 8.59543 7.15674 8.56949 7.12516 8.53304 7.10661 8.48979L6.81083 8.61663C6.85603 8.72234 6.93204 8.80768 7.02354 8.86637 7.11485 8.92506 7.22243 8.95781 7.33436 8.95781 7.46251 8.95833 7.59687 8.91293 7.70764 8.81812 7.78351 8.75334 7.8361 8.6713 7.8697 8.58492 7.90322 8.49854 7.91846 8.40704 7.91846 8.31645 7.91846 8.2064 7.89622 8.09693 7.84888 7.9979 7.77301 7.84 7.64875 7.71821 7.50472 7.63741 7.36348 7.55835 7.20226 7.51704 7.03839 7.51497L7.03839 7.51244 2.32445 7.51244C2.74046 6.60111 2.98195 5.71475 3.11949 4.86749 3.26633 3.96365 3.29541 3.10413 3.29541 2.30313 3.29541 1.84262 3.28613 1.40243 3.28315 0.983101L9.87984 0.983101C9.88302 1.43921 9.89314 1.94565 9.89314 2.48098 9.89352 3.65624 9.84255 4.96876 9.56357 6.15859Z" fill="#4B4B4B" transform="matrix(1 0 0 1.06235 410.38 210.21)"/><path d="M6.71129 3.81676C6.7679 3.18592 6.77069 2.58207 6.76492 2.01099L4.26484 2.01099C4.27061 2.58207 4.26763 3.18592 4.21105 3.81676L6.71129 3.81676Z" fill="#4B4B4B" transform="matrix(1 0 0 1.06235 410.38 210.21)"/></g></g></g><g clip-path="url(#clip8)"><g clip-path="url(#clip9)"><g clip-path="url(#clip10)"><path d="M386.842 242.502 394.482 242.502 394.482 243.238 386.842 243.238Z" fill="#7F7F7F" transform="matrix(1.00015 0 0 1 123.096 7.90868)"/><path d="M395.217 244.835C395.095 244.62 394.296 243.576 394.296 243.576L393.389 243.576C392.979 244.078 391.937 245.973 393.032 251.524 393.247 252.612 393.354 255.16 392.662 256.403L389.933 256.403C390.869 255.252 392.112 252.997 391.744 250.327 391.274 246.922 391.197 244.837 391.681 243.576L387.028 243.576C387.028 243.576 386.23 244.62 386.107 244.835 385.984 245.049 386.015 245.141 386.015 245.448 386.015 245.755 386.015 255.237 386.015 255.636 386.015 256.034 386.128 256.543 386.414 256.68 386.993 256.955 386.779 257.416 387.395 257.416L393.929 257.416C394.545 257.416 394.331 256.955 394.91 256.68 395.196 256.543 395.309 256.034 395.309 255.636 395.309 255.237 395.309 245.755 395.309 245.448 395.309 245.141 395.34 245.049 395.217 244.835Z" fill="#7F7F7F" transform="matrix(1.00015 0 0 1 123.096 7.90868)"/></g></g></g><g clip-path="url(#clip11)"><g clip-path="url(#clip12)"><g clip-path="url(#clip13)"><path d="M15.1126 3.75753 10.3512 7.13015 10.3512 3.75753 5.38256 7.27695 4.96863 0.859035 0.827821 0.859035 0 15.351 16.21 15.351 15.1126 3.75753ZM6.16266 11.6998 4.20701 11.6998 4.20701 9.74386 6.16266 9.74386 6.16266 11.6998ZM11.7177 11.6998 9.76149 11.6998 9.76149 9.74386 11.7177 9.74386 11.7177 11.6998Z" fill="#4B4B4B" transform="matrix(1.04015 0 0 1 280.68 65.6164)"/></g></g></g></g></g></g></g><text font-family="Yu Gothic,Yu Gothic_MSFontService,sans-serif" font-weight="400" font-size="13" transform="translate(330.36 96)">概念モデルの概念情報モデル<tspan font-size="13" x="173.333" y="0">×</tspan><tspan font-size="13" x="0" y="16">ノーテーションで図示化されている</tspan></text><path d="M173.5 62.1672C173.5 48.5439 184.544 37.5001 198.167 37.5001L296.833 37.5001C310.456 37.5001 321.5 48.5439 321.5 62.1672L321.5 311.833C321.5 325.456 310.456 336.5 296.833 336.5L198.167 336.5C184.544 336.5 173.5 325.456 173.5 311.833Z" stroke="#FF0000" stroke-width="1.33333" stroke-miterlimit="8" stroke-dasharray="1.33333 1.33333" fill="none" fill-rule="evenodd"/><path d="M117.5 504.5 225.5 504.5 225.5 811.5 207.5 829.5 117.5 829.5Z" fill="#FFFFFF" fill-rule="evenodd"/><path d="M207.5 829.5 211.1 815.1 225.5 811.5Z" fill="#CDCDCD" fill-rule="evenodd"/><path d="M207.5 829.5 211.1 815.1 225.5 811.5 207.5 829.5 117.5 829.5 117.5 504.5 225.5 504.5 225.5 811.5" stroke="#4472C4" stroke-width="1.33333" stroke-miterlimit="8" fill="none" fill-rule="evenodd"/><text font-family="Calibri,Calibri_MSFontService,sans-serif" font-weight="400" font-size="11" transform="translate(126.363 519)">{<tspan font-size="11" x="4.66667" y="13">“factory”:</tspan><tspan font-size="11" x="49.5" y="13">{</tspan><tspan font-size="11" x="9.33333" y="26">“name”:”F002”,</tspan><tspan font-size="11" x="9.33333" y="38">…</tspan><tspan font-size="11" x="4.66667" y="51">},</tspan><tspan font-size="11" x="4.66667" y="64">…</tspan><tspan font-size="11" x="4.66667" y="77">“</tspan>product_line”: {<tspan font-size="11" x="9.33333" y="90">”factory”:”F002”,</tspan><tspan font-size="11" x="9.33333" y="102">“name”:</tspan><tspan font-size="11" x="48.1667" y="102">“L003”,</tspan><tspan font-size="11" x="9.33333" y="115">…</tspan><tspan font-size="11" x="4.66667" y="128">},</tspan><tspan font-size="11" x="4.66667" y="141">“equipment”:{</tspan><tspan font-size="11" x="9.33333" y="154">“factory”:”F002”,</tspan><tspan font-size="11" x="9.33333" y="166">“line”:”L003”,</tspan><tspan font-size="11" x="9.33333" y="179">“name”:”…”,</tspan><tspan font-size="11" x="9.33333" y="192">…</tspan><tspan font-size="11" x="4.66667" y="205">},</tspan><tspan font-size="11" x="4.66667" y="218">…</tspan></text><path d="M235.5 481.568C235.5 486.024 206.622 489.636 171 489.636 135.377 489.636 106.5 486.024 106.5 481.568 106.5 477.112 135.377 473.5 171 473.5 206.622 473.5 235.5 477.112 235.5 481.568L235.5 841.432C235.5 845.888 206.622 849.5 171 849.5 135.377 849.5 106.5 845.888 106.5 841.432L106.5 481.568" stroke="#2F528F" stroke-width="1.33333" stroke-miterlimit="8" fill="none" fill-rule="evenodd"/><text font-family="Yu Gothic,Yu Gothic_MSFontService,sans-serif" font-weight="400" font-size="13" transform="translate(70.9041 446)">デジタル化されて保存された<tspan font-size="13" x="0" y="16">インスタンスとリンクの情報</tspan></text><g clip-path="url(#clip14)"><g clip-path="url(#clip15)"><g clip-path="url(#clip16)"><path d="M339.105 611.744 301.361 611.744C300.063 611.744 299 612.808 299 614.107L299 645.064C299 646.362 300.063 647.425 301.361 647.425L312.313 647.425 312.313 651.993 309.234 651.993 309.234 654.256 331.234 654.256 331.234 651.993 328.153 651.993 328.153 647.425 339.105 647.425C340.403 647.425 341.466 646.362 341.466 645.064L341.466 614.107C341.466 612.808 340.403 611.744 339.105 611.744ZM338.393 643.41 302.071 643.41 302.071 614.815 338.393 614.815 338.393 643.41Z" fill="#4B4B4B"/><path d="M358.59 611.744 346.404 611.744C345.074 611.744 343.994 612.823 343.994 614.155L343.994 651.845C343.994 653.177 345.074 654.256 346.404 654.256L358.59 654.256C359.922 654.256 361 653.177 361 651.845L361 614.155C361 612.823 359.922 611.744 358.59 611.744ZM352.497 643.628C350.972 643.628 349.734 642.39 349.734 640.865 349.734 639.339 350.972 638.101 352.497 638.101 354.022 638.101 355.261 639.339 355.261 640.865 355.261 642.39 354.022 643.628 352.497 643.628ZM356.856 626.412 348.353 626.412 348.353 624.711 356.856 624.711 356.856 626.412ZM356.856 621.309 348.353 621.309 348.353 619.61 356.856 619.61 356.856 621.309Z" fill="#4B4B4B"/></g></g></g><path d="M368.5 573.5 412.167 573.5 412.167 573.5 477.667 573.5 630.5 573.5 630.5 592.167 630.5 592.167 630.5 620.167 630.5 685.5 477.667 685.5 412.167 685.5 412.167 685.5 368.5 685.5 368.5 620.167 323.308 629.049 368.5 592.167Z" stroke="#2F528F" stroke-width="1.33333" stroke-miterlimit="8" stroke-opacity="0.701961" fill="#FFFFFF" fill-rule="evenodd" fill-opacity="0.701961"/><text font-family="Yu Gothic,Yu Gothic_MSFontService,sans-serif" font-weight="400" font-size="13" transform="translate(382.862 590)">直感的な<tspan font-family="Calibri,Calibri_MSFontService,sans-serif" font-size="13" x="53.3333" y="0">GUI</tspan><tspan font-family="Calibri,Calibri_MSFontService,sans-serif" font-size="13" x="76.5" y="0">Editor</tspan><tspan font-size="13" x="112.167" y="0">を持った配置アプリ</tspan></text><g clip-path="url(#clip17)"><g clip-path="url(#clip18)"><g clip-path="url(#clip19)"><g clip-path="url(#clip20)"><path d="M160.5 539.305 187.045 539.305 187.045 539.305 226.863 539.305 319.77 539.305 319.77 578.405 319.77 578.405 319.77 595.162 319.77 606.333 226.863 606.333 187.045 606.333 187.045 606.333 160.5 606.333 160.5 595.162 142.251 576.349 160.5 578.405Z" fill="#F2F2F2" fill-rule="evenodd" transform="matrix(1 0 0 1.00527 286.23 65.8545)"/><path d="M173.721 591.882 178.026 574.664 308.394 574.664 304.089 591.882Z" stroke="#FFC000" stroke-width="0.409962" stroke-miterlimit="8" fill="url(#fill21)" fill-rule="evenodd" transform="matrix(1 0 0 1.00527 286.23 65.8545)"/><g clip-path="url(#clip22)"><g clip-path="url(#clip23)"><g clip-path="url(#clip24)"><path d="M35.7324 8.88439 24.4745 16.8586 24.4745 8.88439 12.7266 17.2057 11.7479 2.03112 1.95731 2.03112 0 36.2962 38.3273 36.2962 35.7324 8.88439ZM14.5711 27.6632 9.9471 27.6632 9.9471 23.0386 14.5711 23.0386 14.5711 27.6632ZM27.7055 27.6632 23.0802 27.6632 23.0802 23.0386 27.7055 23.0386 27.7055 27.6632Z" fill="#4B4B4B" transform="matrix(1.01081 0 0 1 393.23 617.273)"/></g></g></g><text font-family="Calibri,Calibri_MSFontService,sans-serif" font-weight="400" font-size="11" transform="matrix(0.614943 0 0 0.618182 398.539 664)">F<tspan font-size="11" x="4.99999" y="0">002</tspan><tspan font-size="11" x="23" y="0">:</tspan><tspan font-family="Yu Gothic,Yu Gothic_MSFontService,sans-serif" font-size="11" x="23.6667" y="0">工場</tspan></text><path d="M112.309 595.978 119.227 595.978 126.145 595.978 133.063 595.978 139.981 595.978 139.981 596.593 133.063 596.593 126.145 596.593 119.227 596.593 112.309 596.593Z" fill-rule="evenodd" transform="matrix(1 0 0 1.00527 286.23 65.8545)"/><path d="M194.014 562.98 211.233 562.98 211.233 580.198 194.014 580.198Z" stroke="#2F528F" stroke-width="1.84483" stroke-miterlimit="8" fill="#FFFFFF" transform="matrix(1 0 0 1.00527 286.23 65.8545)"/><path d="M197.704 571.282C197.704 568.395 199.907 566.055 202.624 566.055 205.34 566.055 207.543 568.395 207.543 571.282 207.543 574.168 205.34 576.509 202.624 576.509 199.907 576.509 197.704 574.168 197.704 571.282Z" stroke="#AE5A21" stroke-width="0.819921" stroke-miterlimit="8" fill="#FFFFFF" fill-rule="evenodd" transform="matrix(1 0 0 1.00527 286.23 65.8545)"/><path d="M194.014 560.52 194.783 557.445 210.464 557.445 211.233 560.52Z" stroke="#2F528F" stroke-width="1.84483" stroke-miterlimit="8" fill="#FFFFFF" fill-rule="evenodd" transform="matrix(1 0 0 1.00527 286.23 65.8545)"/><path d="M0 3.07471 0.768672 0 16.4497 0 17.2184 3.07471Z" stroke="#2F528F" stroke-width="1.84483" stroke-miterlimit="8" fill="#FFFFFF" fill-rule="evenodd" transform="matrix(1 0 0 -1.00527 480.244 654.673)"/><path d="M195.859 552.526 209.388 552.526 209.388 555.601 195.859 555.601Z" stroke="#2F528F" stroke-width="1.84483" stroke-miterlimit="8" fill="#FFFFFF" transform="matrix(1 0 0 1.00527 286.23 65.8545)"/><path d="M203.962 574.779 200.359 569.579 199.753 569.999 200.125 567.946 202.179 568.318 201.573 568.739 205.176 573.939Z" stroke="#AE5A21" stroke-width="0.819921" stroke-miterlimit="8" fill="#ED7D31" fill-rule="evenodd" transform="matrix(1 0 0 1.00527 286.23 65.8545)"/><path d="M238.29 562.98 255.509 562.98 255.509 580.198 238.29 580.198Z" stroke="#2F528F" stroke-width="1.84483" stroke-miterlimit="8" fill="#FFFFFF" transform="matrix(1 0 0 1.00527 286.23 65.8545)"/><path d="M241.365 571.282C241.365 568.395 243.705 566.055 246.592 566.055 249.479 566.055 251.819 568.395 251.819 571.282 251.819 574.168 249.479 576.509 246.592 576.509 243.705 576.509 241.365 574.168 241.365 571.282Z" stroke="#AE5A21" stroke-width="0.819921" stroke-miterlimit="8" fill="#FFFFFF" fill-rule="evenodd" transform="matrix(1 0 0 1.00527 286.23 65.8545)"/><path d="M238.29 560.52 239.059 557.445 254.74 557.445 255.509 560.52Z" stroke="#2F528F" stroke-width="1.84483" stroke-miterlimit="8" fill="#FFFFFF" fill-rule="evenodd" transform="matrix(1 0 0 1.00527 286.23 65.8545)"/><path d="M0 3.07471 0.768672 0 16.4497 0 17.2184 3.07471Z" stroke="#2F528F" stroke-width="1.84483" stroke-miterlimit="8" fill="#FFFFFF" fill-rule="evenodd" transform="matrix(1 0 0 -1.00527 524.52 654.673)"/><path d="M240.135 552.526 253.664 552.526 253.664 555.601 240.135 555.601Z" stroke="#2F528F" stroke-width="1.84483" stroke-miterlimit="8" fill="#FFFFFF" transform="matrix(1 0 0 1.00527 286.23 65.8545)"/><path d="M243.491 573.764 247.4 568.789 246.82 568.334 248.892 568.085 249.141 570.157 248.56 569.701 244.652 574.676Z" stroke="#AE5A21" stroke-width="0.819921" stroke-miterlimit="8" fill="#ED7D31" fill-rule="evenodd" transform="matrix(1 0 0 1.00527 286.23 65.8545)"/><path d="M282.566 562.365 299.784 562.365 299.784 579.583 282.566 579.583Z" stroke="#2F528F" stroke-width="1.84483" stroke-miterlimit="8" fill="#FFFFFF" transform="matrix(1 0 0 1.00527 286.23 65.8545)"/><path d="M285.641 571.282C285.641 568.395 287.981 566.055 290.868 566.055 293.754 566.055 296.095 568.395 296.095 571.282 296.095 574.168 293.754 576.509 290.868 576.509 287.981 576.509 285.641 574.168 285.641 571.282Z" stroke="#AE5A21" stroke-width="0.819921" stroke-miterlimit="8" fill="#FFFFFF" fill-rule="evenodd" transform="matrix(1 0 0 1.00527 286.23 65.8545)"/><path d="M282.566 559.905 283.181 557.445 299.17 557.445 299.784 559.905Z" stroke="#2F528F" stroke-width="1.84483" stroke-miterlimit="8" fill="#FFFFFF" fill-rule="evenodd" transform="matrix(1 0 0 1.00527 286.23 65.8545)"/><path d="M0 3.07471 0.768672 0 16.4497 0 17.2184 3.07471Z" stroke="#2F528F" stroke-width="1.84483" stroke-miterlimit="8" fill="#FFFFFF" fill-rule="evenodd" transform="matrix(1 0 0 -1.00527 568.796 654.055)"/><path d="M283.796 551.911 297.94 551.911 297.94 554.986 283.796 554.986Z" stroke="#2F528F" stroke-width="1.84483" stroke-miterlimit="8" fill="#FFFFFF" transform="matrix(1 0 0 1.00527 286.23 65.8545)"/><path d="M294.434 569.659 288.779 572.497 289.11 573.156 287.13 572.499 287.787 570.518 288.118 571.178 293.772 568.34Z" stroke="#AE5A21" stroke-width="0.819921" stroke-miterlimit="8" fill="#ED7D31" fill-rule="evenodd" transform="matrix(1 0 0 1.00527 286.23 65.8545)"/><path d="M210.925 569.437 214.615 569.437 214.615 573.126 210.925 573.126ZM218.305 569.437 221.994 569.437 221.994 573.126 218.305 573.126ZM225.684 569.437 228.628 569.437 228.628 573.126 225.684 573.126ZM226.783 565.747 237.852 571.282 226.783 576.816Z" fill="#4472C4" transform="matrix(1 0 0 1.00527 286.23 65.8545)"/><path d="M0.0276248-1.84462 3.71687-1.78937 3.66161 1.89987-0.0276248 1.84462ZM7.40612-1.73412 11.0953-1.67887 11.0401 2.01037 7.35084 1.95512ZM14.7846-1.62362 17.7311-1.5795 17.6758 2.10974 14.7294 2.06562ZM15.9417-5.29636 26.9266 0.403247 15.7759 5.77136Z" fill="#4472C4" transform="matrix(1 0 0 -1.00527 541.431 639.933)"/></g></g></g></g><g clip-path="url(#clip25)"><g clip-path="url(#clip26)"><g clip-path="url(#clip27)"><path d="M339.105 743.744 301.361 743.744C300.063 743.744 299 744.808 299 746.107L299 777.064C299 778.362 300.063 779.425 301.361 779.425L312.313 779.425 312.313 783.993 309.234 783.993 309.234 786.256 331.234 786.256 331.234 783.993 328.153 783.993 328.153 779.425 339.105 779.425C340.403 779.425 341.466 778.362 341.466 777.064L341.466 746.107C341.466 744.808 340.403 743.744 339.105 743.744ZM338.393 775.41 302.071 775.41 302.071 746.815 338.393 746.815 338.393 775.41Z" fill="#4B4B4B"/><path d="M358.59 743.744 346.404 743.744C345.074 743.744 343.994 744.823 343.994 746.155L343.994 783.845C343.994 785.177 345.074 786.256 346.404 786.256L358.59 786.256C359.922 786.256 361 785.177 361 783.845L361 746.155C361 744.823 359.922 743.744 358.59 743.744ZM352.497 775.628C350.972 775.628 349.734 774.39 349.734 772.865 349.734 771.339 350.972 770.101 352.497 770.101 354.022 770.101 355.261 771.339 355.261 772.865 355.261 774.39 354.022 775.628 352.497 775.628ZM356.856 758.412 348.353 758.412 348.353 756.711 356.856 756.711 356.856 758.412ZM356.856 753.309 348.353 753.309 348.353 751.61 356.856 751.61 356.856 753.309Z" fill="#4B4B4B"/></g></g></g><path d="M368.5 706.5 412.167 706.5 412.167 706.5 477.667 706.5 630.5 706.5 630.5 725 630.5 725 630.5 752.75 630.5 817.5 477.667 817.5 412.167 817.5 412.167 817.5 368.5 817.5 368.5 752.75 323.308 761.553 368.5 725Z" stroke="#2F528F" stroke-width="1.33333" stroke-miterlimit="8" stroke-opacity="0.701961" fill="#FFFFFF" fill-rule="evenodd" fill-opacity="0.701961"/><text font-family="Yu Gothic,Yu Gothic_MSFontService,sans-serif" font-weight="400" font-size="13" transform="translate(385.612 723)">専門的な記法を使った仕様編集アプリ</text><rect x="400" y="751" width="189" height="48" fill="#F2F2F2"/><path d="M423 762 423 789.274" stroke="#000000" stroke-width="2" stroke-miterlimit="8" fill="none" fill-rule="evenodd"/><path d="M441 762 441 789.274" stroke="#000000" stroke-width="2" stroke-miterlimit="8" fill="none" fill-rule="evenodd"/><path d="M477 762 477 789.274" stroke="#000000" stroke-width="2" stroke-miterlimit="8" fill="none" fill-rule="evenodd"/><path d="M495 762 495 789.274" stroke="#000000" stroke-width="2" stroke-miterlimit="8" fill="none" fill-rule="evenodd"/><path d="M530 762 530 789.274" stroke="#000000" stroke-width="2" stroke-miterlimit="8" fill="none" fill-rule="evenodd"/><path d="M548 762 548 789.274" stroke="#000000" stroke-width="2" stroke-miterlimit="8" fill="none" fill-rule="evenodd"/><path d="M441 775 477.189 775" stroke="#000000" stroke-width="2" stroke-miterlimit="8" fill="none" fill-rule="evenodd"/><path d="M494 775 530.189 775" stroke="#000000" stroke-width="2" stroke-miterlimit="8" fill="none" fill-rule="evenodd"/><path d="M548 775 564.388 775" stroke="#000000" stroke-width="2" stroke-miterlimit="8" fill="none" fill-rule="evenodd"/><path d="M407 775 423.388 775" stroke="#000000" stroke-width="2" stroke-miterlimit="8" fill="none" fill-rule="evenodd"/><path d="M0 0 28.0599 20.8601" stroke="#000000" stroke-width="2" stroke-miterlimit="8" fill="none" fill-rule="evenodd" transform="matrix(1 0 0 -1 470 785.86)"/><path d="M313.5 186.167C313.5 179.723 318.723 174.5 325.167 174.5L429.833 174.5C436.277 174.5 441.5 179.723 441.5 186.167L441.5 232.833C441.5 239.277 436.277 244.5 429.833 244.5L325.167 244.5C318.723 244.5 313.5 239.277 313.5 232.833Z" stroke="#FF0000" stroke-width="1.33333" stroke-miterlimit="8" stroke-dasharray="1.33333 1.33333" fill="none" fill-rule="evenodd"/><path d="M0.00985762-0.333188 10.5812-0.0204259 21.1618 0.856073 31.4909 2.29589 41.6323 4.17393 51.4002 6.55328 60.7296 9.37088 69.6215 12.5645 77.8908 16.0726 85.5355 19.9576 92.4334 24.0337 98.4586 28.4271 103.61 32.9504 107.83 37.6743 110.866 42.5451 111.953 45.8347 111.32 46.0437 110.246 42.792 110.28 42.8638 107.28 38.0513 107.314 38.0971 103.126 33.4096 103.155 33.438 98.0301 28.938 98.0536 28.9568 92.0536 24.5818 92.0804 24.5995 85.2054 20.537 85.224 20.5472 77.599 16.6722 77.6198 16.6819 69.3698 13.1819 69.3873 13.1887 60.5123 10.0012 60.5286 10.0066 51.2161 7.1941 51.2336 7.19886 41.4836 4.82386 41.5018 4.82776 31.3768 2.95276 31.3915 2.95514 21.079 1.51764 21.0975 1.5197 10.535 0.644695 10.5526 0.645688-0.00985762 0.333188ZM115.237 43.7462 113.125 52.4375 107.439 45.5329Z" fill="#FF0000" transform="matrix(1.83697e-16 1 1 -1.83697e-16 247.5 336.5)"/><path d="M0.00375352-0.333312 27.7572-0.0207738 55.3262 0.854435 82.4577 2.22976 108.965 4.10526 134.534 6.48089 159.04 9.23152 170.857 10.7321 182.236 12.3577 193.303 14.0459 203.932 15.8591 214.187 17.6724 223.88 19.6111 233.198 21.6124 241.893 23.6765 250.087 25.8031 257.72 27.9305 264.794 30.184 271.179 32.4375 276.943 34.693 282.024 37.0141 286.421 39.4011 290.073 41.7938 293.011 44.2204 293.784 45.607 293.202 45.9318 292.459 44.5999 292.538 44.6945 289.663 42.3195 289.692 42.3413 286.067 39.9663 286.091 39.9804 281.716 37.6054 281.736 37.6157 276.674 35.3032 276.691 35.3104 270.941 33.0604 270.952 33.0643 264.577 30.8143 264.586 30.8176 257.524 28.5676 257.535 28.5711 249.911 26.4461 249.916 26.4476 241.729 24.3226 241.735 24.3243 233.048 22.2618 233.055 22.2634 223.742 20.2634 223.747 20.2644 214.06 18.3269 214.067 18.3282 203.817 16.5157 203.819 16.5161 193.194 14.7036 193.2 14.7045 182.137 13.017 182.14 13.0175 170.765 11.3925 170.77 11.3932 158.958 9.89318 158.963 9.89375 134.463 7.14375 134.469 7.1444 108.907 4.7694 108.914 4.77 82.414 2.895 82.4206 2.89541 55.2956 1.52041 55.3019 1.52067 27.7394 0.645665 27.7462 0.645812-0.00375352 0.333312ZM296.43 42.7442 296.562 51.6875 289.328 46.4274Z" fill="#FF0000" transform="matrix(1.83697e-16 1 1 -1.83697e-16 247.5 336.5)"/><path d="M378.473 244.509 378.098 258.766 377.097 272.907 375.408 286.797 373.218 300.374 370.402 313.514 367.148 326.092 363.393 337.983 359.262 349.125 354.754 359.394 349.993 368.602 344.914 376.753 339.579 383.657 334.052 389.247 331.274 391.52 328.433 393.351 325.527 394.867 322.672 395.946 319.753 396.58 316.856 396.832 313.981 397.082 314.043 397.071 311.168 397.883 311.216 397.866 308.341 399.178 308.379 399.158 305.566 400.908 305.598 400.885 302.786 403.135 302.811 403.113 299.998 405.863 300.015 405.845 297.265 408.97 297.283 408.949 294.595 412.574 294.603 412.563 291.915 416.5 291.926 416.484 289.301 420.859 289.312 420.84 284.249 430.715 284.259 430.694 279.446 441.882 279.453 441.863 274.953 454.301 274.959 454.285 270.834 467.723 270.838 467.707 267.151 482.207 267.154 482.195 263.904 497.445 263.906 497.433 261.093 513.308 261.095 513.294 258.908 529.794 258.909 529.783 257.222 546.658 257.223 546.644 256.223 563.769 256.223 563.757 255.848 581.07 255.848 581.058 256.098 598.37 256.098 598.36 256.848 615.485 256.848 615.477 258.035 632.352 258.034 632.344 259.597 648.844 259.596 648.833 261.596 664.771 261.594 664.761 263.969 680.011 263.968 680.002 266.655 694.439 266.653 694.429 269.591 707.929 269.588 707.917 272.775 720.355 272.771 720.34 276.209 731.527 276.203 731.509 279.828 741.322 279.821 741.306 281.696 745.681 281.69 745.667 283.628 749.667 283.62 749.653 285.558 753.216 285.547 753.198 287.547 756.385 287.532 756.363 289.532 759.051 289.517 759.032 291.517 761.344 291.442 761.28 293.574 762.618 293.219 763.183 291.046 761.818 289.005 759.459 286.99 756.751 284.977 753.543 283.031 749.965 281.087 745.951 279.205 741.561 275.574 731.732 272.132 720.528 268.941 708.077 266.001 694.566 263.311 680.119 260.935 664.859 258.934 648.911 257.37 632.402 256.182 615.519 255.432 598.385 255.182 581.061 255.557 563.737 256.558 546.599 258.246 529.712 260.436 513.199 263.25 497.311 266.503 482.049 270.194 467.535 274.324 454.082 278.83 441.627 283.651 430.42 288.724 420.526 291.359 416.133 294.056 412.182 296.756 408.54 299.523 405.395 302.356 402.625 305.197 400.352 308.045 398.581 310.962 397.249 313.892 396.421 316.799 396.168 319.674 395.918 319.632 395.924 322.507 395.299 322.46 395.313 325.272 394.251 325.236 394.267 328.111 392.767 328.084 392.782 330.897 390.97 330.866 390.992 333.616 388.742 333.591 388.766 339.091 383.203 339.064 383.234 344.376 376.359 344.357 376.386 349.42 368.261 349.406 368.284 354.156 359.097 354.147 359.116 358.647 348.866 358.64 348.884 362.765 337.759 362.76 337.775 366.51 325.9 366.505 325.917 369.755 313.354 369.752 313.368 372.564 300.243 372.561 300.259 374.748 286.697 374.747 286.71 376.434 272.835 376.433 272.852 377.433 258.727 377.432 258.741 377.807 244.491ZM293.857 758.709 299.453 765.688 290.513 765.977Z" fill="#FF0000"/><path d="M449.5 368.5 481.667 368.5 481.667 368.5 529.917 368.5 642.5 368.5 642.5 398.833 642.5 398.833 642.5 444.333 642.5 550.5 529.917 550.5 481.667 550.5 481.667 550.5 449.5 550.5 449.5 444.333 404.813 454.007 449.5 398.833Z" stroke="#2F528F" stroke-width="1.33333" stroke-miterlimit="8" stroke-opacity="0.701961" fill="#FFFFFF" fill-rule="evenodd" fill-opacity="0.701961"/><text font-family="Yu Gothic,Yu Gothic_MSFontService,sans-serif" font-weight="400" font-size="13" transform="translate(465.458 385)">人が見やすく編集しやすい<tspan font-size="13" x="40" y="16">フォーマット</tspan></text><path d="M470.5 410.5 613.5 410.5 613.5 518 592 539.5 470.5 539.5Z" fill="#FFFFFF" fill-rule="evenodd"/><path d="M592 539.5 596.3 522.3 613.5 518Z" fill="#CDCDCD" fill-rule="evenodd"/><path d="M592 539.5 596.3 522.3 613.5 518 592 539.5 470.5 539.5 470.5 410.5 613.5 410.5 613.5 518" stroke="#4472C4" stroke-width="1.33333" stroke-miterlimit="8" fill="none" fill-rule="evenodd"/><text font-family="Calibri,Calibri_MSFontService,sans-serif" font-weight="400" font-size="11" transform="translate(479.851 425)">factory: F002,…<tspan font-size="11" x="4.66666" y="13">l</tspan>ine: L003,…<tspan font-size="11" x="9.33331" y="26">equipment: UP021,…</tspan><tspan font-size="11" x="9.33331" y="38">equipment: UP03A,…</tspan><tspan font-size="11" x="11.6667" y="51">…</tspan><tspan font-size="11" x="0" y="64">factory: F003.///</tspan><tspan font-size="11" x="4.66666" y="77">line: L001,…</tspan><tspan font-size="11" x="9.33331" y="90">equipment: AQ001,…</tspan><tspan font-size="11" x="9.33331" y="102">… </tspan></text><path d="M212.5 522.5 224.5 510.5 224.5 516.5 446.5 516.5 446.5 510.5 458.5 522.5 446.5 534.5 446.5 528.5 224.5 528.5 224.5 534.5Z" stroke="#507E32" stroke-width="1.33333" stroke-miterlimit="8" stroke-opacity="0.501961" fill="#70AD47" fill-rule="evenodd" fill-opacity="0.501961"/><path d="M215.5 656.5 227.5 644.5 227.5 650.5 380.5 650.5 380.5 644.5 392.5 656.5 380.5 668.5 380.5 662.5 227.5 662.5 227.5 668.5Z" stroke="#507E32" stroke-width="1.33333" stroke-miterlimit="8" stroke-opacity="0.501961" fill="#70AD47" fill-rule="evenodd" fill-opacity="0.501961"/><path d="M215.5 791 227 779.5 227 785.25 381 785.25 381 779.5 392.5 791 381 802.5 381 796.75 227 796.75 227 802.5Z" stroke="#507E32" stroke-width="1.33333" stroke-miterlimit="8" stroke-opacity="0.501961" fill="#70AD47" fill-rule="evenodd" fill-opacity="0.501961"/><path d="M0-0.333333 65.7382-0.333333 65.7382 481.786 48.0713 481.786 48.0713 481.12 65.4048 481.12 65.0715 481.453 65.0715 0 65.4048 0.333333 0 0.333333ZM49.4046 485.453 41.4046 481.453 49.4046 477.453Z" fill="#4472C4" transform="matrix(-1 1.22465e-16 1.22465e-16 1 158.905 185.5)"/><path d="M209 889C209 874.641 230.043 863 256 863 281.957 863 303 874.641 303 889 303 903.359 281.957 915 256 915 230.043 915 209 903.359 209 889Z" stroke="#4472C4" stroke-width="2" stroke-miterlimit="8" fill="#FFFFFF" fill-rule="evenodd"/><text font-family="Yu Gothic,Yu Gothic_MSFontService,sans-serif" font-weight="400" font-size="11" transform="translate(239.731 893)">後工程</text><path d="M0 83 0 27C0 15.402 9.40202 5.99998 21 5.99998L36 5.99998 36 0 48 12 36 24 36 17.9999 21 17.9999C16.0294 17.9999 12 22.0294 12 27L12 83Z" stroke="#2F528F" stroke-width="1.33333" stroke-miterlimit="8" stroke-opacity="0.501961" fill="#4472C4" fill-rule="evenodd" fill-opacity="0.501961" transform="matrix(1 0 0 -1 157.5 900.5)"/><path d="M308.5 882.5 349.5 882.5 349.5 876.5 361.5 888.5 349.5 900.5 349.5 894.5 308.5 894.5Z" stroke="#2F528F" stroke-width="1.33333" stroke-miterlimit="8" stroke-opacity="0.501961" fill="#4472C4" fill-rule="evenodd" fill-opacity="0.501961"/><path d="M368.5 841.5 461.5 841.5 461.5 922 446 937.5 368.5 937.5Z" fill="#FFFFFF" fill-rule="evenodd"/><path d="M446 937.5 449.1 925.1 461.5 922Z" fill="#CDCDCD" fill-rule="evenodd"/><path d="M446 937.5 449.1 925.1 461.5 922 446 937.5 368.5 937.5 368.5 841.5 461.5 841.5 461.5 922" stroke="#4472C4" stroke-width="1.33333" stroke-miterlimit="8" fill="none" fill-rule="evenodd"/><text font-family="Yu Gothic,Yu Gothic_MSFontService,sans-serif" font-weight="400" font-size="13" transform="translate(381.231 869)">様々<tspan font-size="13" x="26.6667" y="0">に加工</tspan><tspan font-size="13" x="13.3333" y="16">された</tspan><tspan font-size="13" x="13.3333" y="32">成果物</tspan></text><path d="M158.5 185.833 93.6288 185.833 93.9621 185.5 93.9621 938.913 93.6288 938.579 256.064 938.579 255.731 938.913 255.731 921.581 256.398 921.581 256.398 939.246 93.2954 939.246 93.2954 185.167 158.5 185.167ZM252.064 922.915 256.064 914.915 260.064 922.915Z" fill="#4472C4"/></g></svg>