<svg width="607" height="643" xmlns="http://www.w3.org/2000/svg" xmlns:xlink="http://www.w3.org/1999/xlink" overflow="hidden"><defs><clipPath id="clip0"><rect x="34" y="56" width="607" height="643"/></clipPath></defs><g clip-path="url(#clip0)" transform="translate(-34 -56)"><rect x="35.5001" y="58.5001" width="605" height="639" stroke="#D9D9D9" stroke-width="1.33333" stroke-miterlimit="8" fill="none"/><text font-family="Yu Gothic,Yu Gothic_MSFontService,sans-serif" font-weight="400" font-size="16" transform="translate(134.888 78)">IoT Plug<tspan font-size="16" x="65.5" y="0">&amp; Play </tspan>の概念モデル（関係する部分のみ抜粋）</text><rect x="81.5001" y="207.5" width="104" height="48" stroke="#000000" stroke-width="1.33333" stroke-miterlimit="8" fill="#FFFFFF"/><text font-family="Consolas,Consolas_MSFontService,sans-serif" font-weight="400" font-size="11" transform="translate(107.12 222)">Interface<tspan font-size="11" x="-16.1667" y="13">Name</tspan></text><path d="M133.5 207.274 133.5 156.5 255.996 156.5" stroke="#000000" stroke-width="0.666667" stroke-miterlimit="8" fill="none" fill-rule="evenodd"/><text font-family="Yu Gothic,Yu Gothic_MSFontService,sans-serif" font-weight="400" font-size="11" transform="translate(238.961 151)">*</text><rect x="256.5" y="132.5" width="104" height="48" stroke="#000000" stroke-width="1.33333" stroke-miterlimit="8" fill="#FFFFFF"/><text font-family="Consolas,Consolas_MSFontService,sans-serif" font-weight="400" font-size="11" transform="translate(281.666 147)">Telemetry<tspan font-size="11" x="-16.1667" y="13">Name</tspan></text><rect x="256.5" y="237.5" width="104" height="49" stroke="#000000" stroke-width="1.33333" stroke-miterlimit="8" fill="#FFFFFF"/><text font-family="Consolas,Consolas_MSFontService,sans-serif" font-weight="400" font-size="11" transform="translate(284.58 252)">Property<tspan font-size="11" x="-19.08" y="13">Name</tspan><tspan font-size="11" x="-19.08" y="26">Writabl</tspan><tspan font-size="11" x="21.7534" y="26">e</tspan></text><rect x="256.5" y="339.5" width="104" height="49" stroke="#000000" stroke-width="1.33333" stroke-miterlimit="8" fill="#FFFFFF"/><text font-family="Consolas,Consolas_MSFontService,sans-serif" font-weight="400" font-size="11" transform="translate(287.5 354)">Command<tspan font-size="11" x="-22" y="13">Name</tspan><tspan font-size="11" x="-22" y="26">Synchnorou</tspan><tspan font-size="11" x="36.3333" y="26">s</tspan></text><path d="M185.5 231.5 220.723 231.5 220.723 261.889 255.946 261.889" stroke="#000000" stroke-width="0.666667" stroke-miterlimit="8" fill="none" fill-rule="evenodd"/><path d="M0 0 107.988 0 107.988 122.496" stroke="#000000" stroke-width="0.666667" stroke-miterlimit="8" fill="none" fill-rule="evenodd" transform="matrix(1.83697e-16 1 1 -1.83697e-16 133.5 255.5)"/><rect x="256.5" y="446.5" width="104" height="48" stroke="#000000" stroke-width="1.33333" stroke-miterlimit="8" fill="#FFFFFF"/><text font-family="Consolas,Consolas_MSFontService,sans-serif" font-weight="400" font-size="11" transform="translate(281.666 460)">Data Type</text><path d="M0 17 10 0 20 17Z" stroke="#000000" stroke-width="1.33333" stroke-miterlimit="8" fill="none" fill-rule="evenodd" transform="matrix(-1 1.22465e-16 1.22465e-16 1 318.5 494.5)"/><rect x="399.5" y="540.5" width="104" height="49" stroke="#000000" stroke-width="1.33333" stroke-miterlimit="8" fill="#FFFFFF"/><text font-family="Consolas,Consolas_MSFontService,sans-serif" font-weight="400" font-size="11" transform="translate(425.108 555)">Primitive<tspan font-size="11" x="-16.1667" y="13">Name</tspan><tspan font-size="11" x="-16.1667" y="26">TypeNameOnCode</tspan></text><rect x="256.5" y="540.5" width="104" height="49" stroke="#000000" stroke-width="1.33333" stroke-miterlimit="8" fill="#FFFFFF"/><text font-family="Consolas,Consolas_MSFontService,sans-serif" font-weight="400" font-size="11" transform="translate(281.666 555)">Enum Type<tspan font-size="11" x="-16.1667" y="13">ValueSchema</tspan></text><rect x="256.5" y="626.5" width="104" height="49" stroke="#000000" stroke-width="1.33333" stroke-miterlimit="8" fill="#FFFFFF"/><text font-family="Consolas,Consolas_MSFontService,sans-serif" font-weight="400" font-size="11" transform="translate(278.746 641)">Enum Value<tspan font-size="11" x="-13.2467" y="13">Name</tspan><tspan font-size="11" x="-13.2467" y="26">Valu</tspan><tspan font-size="11" x="10.0867" y="26">e</tspan></text><rect x="112.5" y="540.5" width="105" height="49" stroke="#000000" stroke-width="1.33333" stroke-miterlimit="8" fill="#FFFFFF"/><text font-family="Consolas,Consolas_MSFontService,sans-serif" font-weight="400" font-size="11" transform="translate(132.391 555)">Object Type</text><rect x="112.5" y="627.5" width="105" height="48" stroke="#000000" stroke-width="1.33333" stroke-miterlimit="8" fill="#FFFFFF"/><text font-family="Consolas,Consolas_MSFontService,sans-serif" font-weight="400" font-size="11" transform="translate(149.891 641)">Field<tspan font-size="11" x="-27.8333" y="13">Name</tspan></text><path d="M165.5 540.368 165.5 525.934 308.941 525.934 308.941 511.5" stroke="#000000" stroke-width="0.666667" stroke-miterlimit="8" fill="none" fill-rule="evenodd"/><path d="M0 0 14.4341 0 14.4341 143.442 28.8681 143.442" stroke="#000000" stroke-width="0.666667" stroke-miterlimit="8" fill="none" fill-rule="evenodd" transform="matrix(-1.83697e-16 -1 -1 1.83697e-16 451.942 540.368)"/><path d="M0 0 0.000104987 37.8557" stroke="#000000" stroke-width="0.666667" stroke-miterlimit="8" fill="none" fill-rule="evenodd" transform="matrix(1 0 0 -1 165.5 627.356)"/><path d="M0 0 0.000104987 37.6028" stroke="#000000" stroke-width="0.666667" stroke-miterlimit="8" fill="none" fill-rule="evenodd" transform="matrix(1 0 0 -1 308.5 627.103)"/><path d="M0 0 14.434 0 14.434 0.000209974 28.868 0.000209974" stroke="#000000" stroke-width="0.666667" stroke-miterlimit="8" fill="none" fill-rule="evenodd" transform="matrix(-1.83697e-16 -1 -1 1.83697e-16 308.5 540.368)"/><rect x="399.5" y="313.5" width="104" height="26" stroke="#000000" stroke-width="1.33333" stroke-miterlimit="8" fill="#FFFFFF"/><text font-family="Consolas,Consolas_MSFontService,sans-serif" font-weight="400" font-size="11" transform="translate(430.879 328)">Request</text><rect x="399.5" y="378.5" width="104" height="26" stroke="#000000" stroke-width="1.33333" stroke-miterlimit="8" fill="#FFFFFF"/><text font-family="Consolas,Consolas_MSFontService,sans-serif" font-weight="400" font-size="11" transform="translate(427.962 392)">Response<tspan font-family="Yu Gothic,Yu Gothic_MSFontService,sans-serif" font-size="11" x="-235.014" y="-218">Telemetries</tspan><tspan font-family="Yu Gothic,Yu Gothic_MSFontService,sans-serif" font-size="11" x="-238.769" y="-112">Properties</tspan><tspan font-family="Yu Gothic,Yu Gothic_MSFontService,sans-serif" font-size="11" x="-189.48" y="-138">*</tspan><tspan font-family="Yu Gothic,Yu Gothic_MSFontService,sans-serif" font-size="11" x="-234.768" y="-6">Commands</tspan><tspan font-family="Yu Gothic,Yu Gothic_MSFontService,sans-serif" font-size="11" x="-185.479" y="-33">*</tspan></text><path d="M0 0 19.4047 0 19.4047 24.4446 38.8094 24.4446" stroke="#000000" stroke-width="0.666667" stroke-miterlimit="8" fill="none" fill-rule="evenodd" transform="matrix(-1 1.22465e-16 1.22465e-16 1 399.31 326.5)"/><path d="M399.746 390.939 380.123 390.939 380.123 376.5 360.5 376.5" stroke="#000000" stroke-width="0.666667" stroke-miterlimit="8" fill="none" fill-rule="evenodd"/><text font-family="Yu Gothic,Yu Gothic_MSFontService,sans-serif" font-weight="400" font-size="11" transform="translate(390.194 323)">1<tspan font-size="11" x="-11.7806" y="82">0..1</tspan><tspan font-size="11" x="-62.6539" y="299">1</tspan>..*<tspan font-size="11" x="-215.028" y="299">1</tspan>..*</text><path d="M0 0-24.0007 0-24.0007 181.064 143.441 181.064" stroke="#000000" stroke-width="0.666667" stroke-miterlimit="8" fill="none" fill-rule="evenodd" transform="matrix(1 -1.22465e-16 -1.22465e-16 -1 112.5 651.564)"/><text font-family="Yu Gothic,Yu Gothic_MSFontService,sans-serif" font-weight="400" font-size="11" transform="translate(99.3155 667)">*<tspan font-size="11" x="146.842" y="-202">1</tspan></text><path d="M0 0 167.346 0 167.346 59.6153 143.346 59.6153" stroke="#000000" stroke-width="0.666667" stroke-miterlimit="8" fill="none" fill-rule="evenodd" transform="matrix(1 0 0 -1 360.5 451.115)"/><path d="M0 0 176.162 0 176.162 137.804 143.346 137.804" stroke="#000000" stroke-width="0.666667" stroke-miterlimit="8" fill="none" fill-rule="evenodd" transform="matrix(1 0 0 -1 360.5 464.304)"/><path d="M0 0 196.645 0 196.645 213.704 0.23727 213.704" stroke="#000000" stroke-width="0.666667" stroke-miterlimit="8" fill="none" fill-rule="evenodd" transform="matrix(1 0 0 -1 360.5 475.204)"/><path d="M0 0 239.747 0 239.747 332.511 0.23706 332.511" stroke="#000000" stroke-width="0.666667" stroke-miterlimit="8" fill="none" fill-rule="evenodd" transform="matrix(1 0 0 -1 360.5 489.011)"/><text font-family="Yu Gothic,Yu Gothic_MSFontService,sans-serif" font-weight="400" font-size="11" transform="translate(366.195 175)">*<tspan font-size="11" x="-0.437592" y="86">*</tspan><tspan font-size="11" x="140.951" y="148">*</tspan><tspan font-size="11" x="144.189" y="216">*</tspan><tspan font-size="11" x="5.07065" y="272">1</tspan><tspan font-size="11" x="14.0706" y="272">schem</tspan><tspan font-size="11" x="46.404" y="272">a</tspan></text></g></svg>